<svg width="50" height="50" viewBox="0 0 50 50" fill="none" xmlns="http://www.w3.org/2000/svg">
<path d="M47.0703 0H12.3047C10.6893 0 9.375 1.31426 9.375 2.92969V6.25C9.375 6.78926 9.81221 7.22656 10.3516 7.22656C10.8909 7.22656 11.3281 6.78926 11.3281 6.25V2.92969C11.3281 2.39121 11.7662 1.95312 12.3047 1.95312H47.0703C47.6088 1.95312 48.0469 2.39121 48.0469 2.92969V47.0703C48.0469 47.6088 47.6088 48.0469 47.0703 48.0469H12.3047C11.7662 48.0469 11.3281 47.6088 11.3281 47.0703V43.9126C11.3281 43.3733 10.8909 42.936 10.3516 42.936C9.81221 42.936 9.375 43.3733 9.375 43.9126V47.0703C9.375 48.6857 10.6893 50 12.3047 50H47.0703C48.6857 50 50 48.6857 50 47.0703V2.92969C50 1.31426 48.6857 0 47.0703 0Z" fill="#2855AF"/>
<path d="M42.373 37.6953H18.9355C18.3962 37.6953 17.959 38.1326 17.959 38.6719C17.959 39.2111 18.3962 39.6484 18.9355 39.6484H42.373C42.9124 39.6484 43.3496 39.2111 43.3496 38.6719C43.3496 38.1326 42.9124 37.6953 42.373 37.6953Z" fill="#7CCCDB"/>
<path d="M43.0635 43.0596C42.8818 42.8778 42.6309 42.7734 42.373 42.7734C42.1162 42.7734 41.8643 42.8778 41.6826 43.0596C41.501 43.2413 41.3965 43.4932 41.3965 43.75C41.3965 44.0068 41.501 44.2588 41.6826 44.4403C41.8643 44.622 42.1162 44.7266 42.373 44.7266C42.6309 44.7266 42.8818 44.6221 43.0635 44.4403C43.2451 44.2588 43.3496 44.0068 43.3496 43.75C43.3496 43.4932 43.2451 43.2412 43.0635 43.0596Z" fill="#2855AF"/>
<path d="M38.3796 42.7734H18.9355C18.3962 42.7734 17.959 43.2107 17.959 43.75C17.959 44.2893 18.3962 44.7266 18.9355 44.7266H38.3796C38.9189 44.7266 39.3561 44.2893 39.3561 43.75C39.3561 43.2107 38.9189 42.7734 38.3796 42.7734Z" fill="#7CCCDB"/>
<path d="M25.7795 8.57104C19.9682 8.57104 15.2402 13.299 15.2402 19.1104C15.24 22.1268 16.5143 24.851 18.5522 26.774C18.5869 26.8116 18.6242 26.8469 18.665 26.8789C20.5412 28.5986 23.0397 29.6496 25.7794 29.6496C28.519 29.6496 31.0175 28.5985 32.8938 26.8789C32.9346 26.8469 32.9719 26.8115 33.0065 26.774C35.0445 24.851 36.3188 22.1268 36.3188 19.1104C36.3188 13.299 31.5908 8.57104 25.7795 8.57104ZM25.7794 27.6964C23.7732 27.6964 21.9259 27.0047 20.4626 25.8475C21.4993 23.8864 23.5193 22.6525 25.7794 22.6525C28.0395 22.6525 30.0595 23.8864 31.0962 25.8475C29.6329 27.0047 27.7856 27.6964 25.7794 27.6964ZM23.7238 18.6439V17.8858C23.7238 16.7524 24.6459 15.8302 25.7793 15.8302C26.9127 15.8302 27.8348 16.7523 27.8348 17.8858V18.6439C27.8348 19.7772 26.9127 20.6994 25.7793 20.6994C24.6459 20.6994 23.7238 19.7773 23.7238 18.6439ZM32.5246 24.4171C31.6308 22.9915 30.3229 21.9041 28.7921 21.2839C29.4113 20.5782 29.788 19.6544 29.788 18.644V17.8859C29.788 15.6754 27.9897 13.8772 25.7794 13.8772C23.569 13.8772 21.7708 15.6754 21.7708 17.8859V18.644C21.7708 19.6544 22.1475 20.5782 22.7667 21.2839C21.2359 21.9042 19.928 22.9915 19.0342 24.4171C17.8817 22.9555 17.1933 21.1119 17.1933 19.1104C17.1932 14.3759 21.0449 10.5242 25.7794 10.5242C30.5138 10.5242 34.3655 14.3759 34.3655 19.1104C34.3655 21.1119 33.6771 22.9555 32.5246 24.4171Z" fill="#7CCCDB"/>
<path d="M25.7789 3.90625C17.3954 3.90625 10.5749 10.7268 10.5749 19.1103C10.5749 23.9572 12.8548 28.2818 16.3984 31.0678L5.06387 42.4022C4.35342 43.1127 3.19736 43.1127 2.48682 42.4022C2.14268 42.0581 1.95312 41.6005 1.95312 41.1138C1.95312 40.627 2.14268 40.1694 2.48691 39.8253L8.28379 34.0284C8.66514 33.6471 8.66514 33.0287 8.28379 32.6473C7.90244 32.266 7.28408 32.266 6.90273 32.6473L1.10596 38.4441C0.392676 39.1572 0 40.1054 0 41.1138C0 42.1222 0.392676 43.0703 1.10576 43.7834C1.8418 44.5193 2.80859 44.8874 3.77539 44.8874C4.74219 44.8874 5.70898 44.5193 6.44502 43.7834L18.0375 32.1909C20.3064 33.5389 22.9536 34.3144 25.7789 34.3144C34.1625 34.3144 40.9829 27.4938 40.9829 19.1103C40.9829 10.7269 34.1624 3.90625 25.7789 3.90625ZM25.7789 32.3611C18.4724 32.3611 12.5279 26.4169 12.5279 19.1103C12.5279 11.8037 18.4723 5.85937 25.7789 5.85937C33.0855 5.85937 39.0298 11.8037 39.0298 19.1103C39.0298 26.4168 33.0854 32.3611 25.7789 32.3611Z" fill="#2855AF"/>
<path d="M11.3564 29.5733C11.1748 29.3917 10.9238 29.2871 10.666 29.2871C10.4092 29.2871 10.1572 29.3916 9.97559 29.5733C9.79395 29.7549 9.68945 30.0068 9.68945 30.2637C9.68945 30.5206 9.79395 30.7725 9.97559 30.9541C10.1572 31.1357 10.4092 31.2402 10.666 31.2402C10.9238 31.2401 11.1748 31.1357 11.3564 30.9541C11.5391 30.7725 11.6426 30.5206 11.6426 30.2637C11.6426 30.0068 11.5391 29.7549 11.3564 29.5733Z" fill="#2855AF"/>
</svg>
