<svg width="50" height="50" viewBox="0 0 50 50" fill="none" xmlns="http://www.w3.org/2000/svg">
<g clip-path="url(#clip0)">
<path d="M40.3231 9.67791C42.9917 9.67791 45.1618 7.50742 45.1618 4.8392C45.1618 2.17058 42.9917 0.000488281 40.3231 0.000488281C37.6545 0.000488281 35.4844 2.17058 35.4844 4.8392C35.4844 7.50742 37.6545 9.67791 40.3231 9.67791ZM40.3231 1.61339C42.1022 1.61339 43.5489 3.06012 43.5489 4.8392C43.5489 6.61788 42.1022 8.065 40.3231 8.065C38.544 8.065 37.0973 6.61788 37.0973 4.8392C37.0973 3.06012 38.544 1.61339 40.3231 1.61339Z" fill="#2855AF"/>
<path d="M48.3804 14.4222C48.3595 14.2414 48.278 14.0737 48.15 13.9465L45.7307 11.5272C45.5799 11.3756 45.3739 11.2909 45.1605 11.2909H35.4832C35.2694 11.2909 35.0638 11.3756 34.913 11.5272L32.4937 13.9465C32.3653 14.0745 32.2838 14.2422 32.2629 14.4222L30.65 28.1317C30.6232 28.3609 30.6953 28.5897 30.8485 28.7614C31.0009 28.9342 31.2202 29.0327 31.4509 29.0327H35.3847L33.0686 49.1008C33.0426 49.3292 33.1146 49.558 33.2678 49.7301C33.421 49.9018 33.6403 50.0002 33.8703 50.0002H38.709C39.1283 50.0002 39.4772 49.6793 39.513 49.2607L40.3218 39.5503L41.1306 49.2615C41.1661 49.6793 41.5154 50.0002 41.9347 50.0002H46.7734C47.003 50.0002 47.2223 49.9018 47.3759 49.7309C47.529 49.5596 47.6007 49.33 47.5747 49.1016L45.259 29.0327H49.1927C49.4231 29.0327 49.6428 28.9342 49.7952 28.7625C49.9484 28.5905 50.02 28.3609 49.9933 28.1325L48.3804 14.4222ZM45.1605 27.4198V16.1296H43.5476V28.2262C43.5476 28.2565 43.5492 28.288 43.5523 28.3188L45.8685 48.3873H42.6766L41.1259 29.7722C41.0901 29.3536 40.7412 29.0327 40.3218 29.0327C39.9025 29.0327 39.5532 29.3536 39.5178 29.7722L37.9671 48.3873H34.7752L37.0909 28.3188C37.0945 28.288 37.0961 28.2565 37.0961 28.2262V16.1296H35.4832V27.4198H32.3582L33.8321 14.8884L35.8171 12.9038H44.8266L46.8112 14.8884L48.2855 27.4198H45.1605Z" fill="#2855AF"/>
<path d="M27.9903 25.2367L26.3774 23.6238C26.2266 23.4722 26.0207 23.3876 25.8072 23.3876H17.7428C17.529 23.3876 17.3234 23.4722 17.1726 23.6238L15.5597 25.2367C15.4467 25.3493 15.3703 25.4923 15.3396 25.6486L13.7267 33.713C13.6791 33.9501 13.7405 34.1962 13.8937 34.3825C14.0469 34.5695 14.2749 34.6778 14.517 34.6778H17.7428V35.3905L14.5379 49.0091C14.4816 49.2485 14.5379 49.5009 14.6911 49.6943C14.8443 49.8872 15.0766 50.0002 15.3235 50.0002H19.3557C19.7436 50.0002 20.0767 49.7234 20.1484 49.3418L21.775 40.6663L23.4017 49.3418C23.4734 49.7234 23.8065 50.0002 24.1944 50.0002H28.2266C28.4731 50.0002 28.7054 49.8872 28.8586 49.6943C29.0118 49.5009 29.0685 49.2485 29.0118 49.0091L25.8072 35.3905V34.6778H29.033C29.2748 34.6778 29.5032 34.5695 29.6564 34.3825C29.8095 34.1962 29.871 33.9501 29.8233 33.713L28.2104 25.6486C28.1797 25.4923 28.1029 25.3493 27.9903 25.2367ZM25.8072 33.0649V27.4198H24.1944V35.4842C24.1944 35.5461 24.2014 35.6083 24.2152 35.6689L27.2079 48.3873H24.8638L22.5677 36.1422C22.496 35.7607 22.1629 35.4842 21.775 35.4842C21.3872 35.4842 21.054 35.7607 20.9824 36.1422L18.6863 48.3873H16.3418L19.3344 35.6689C19.3482 35.6083 19.3557 35.5461 19.3557 35.4842V27.4198H17.7428V33.0649H15.5007L16.8734 26.2042L18.0767 25.0005H25.4733L26.6775 26.2042L28.049 33.0649H25.8072Z" fill="#2855AF"/>
<path d="M11.7384 35.6197L9.31905 34.0068C9.18714 33.9186 9.03042 33.8713 8.87173 33.8713H4.03306C3.87398 33.8713 3.71765 33.9186 3.58534 34.0068L1.16601 35.6197C0.9707 35.7492 0.842725 35.9575 0.812798 36.1906L0.00635392 42.6422C-0.0227851 42.8718 0.049275 43.1025 0.202452 43.2758C0.355629 43.4494 0.575748 43.5487 0.807285 43.5487H2.85214L2.42254 49.1315C2.4056 49.3556 2.482 49.5765 2.63478 49.7411C2.78796 49.9065 3.00217 50.0002 3.22662 50.0002H9.67817C9.90223 50.0002 10.1168 49.9065 10.27 49.7419C10.4224 49.5765 10.5 49.3556 10.4823 49.1323L10.0523 43.5487H12.0975C12.329 43.5487 12.5492 43.4494 12.7023 43.2758C12.8555 43.1025 12.9264 42.8718 12.898 42.6422L12.0916 36.1906C12.0621 35.9575 11.9329 35.7492 11.7384 35.6197ZM9.929 41.9358L9.67581 38.6478L8.06765 38.771L8.80715 48.3873H7.25884V43.5487H5.64595V48.3873H4.09764L4.83714 38.7718L3.22898 38.6486L2.97579 41.9358H1.72084L2.36859 36.7565L4.2772 35.4842H8.62798L10.537 36.7565L11.1836 41.9358H9.929Z" fill="#2855AF"/>
<path d="M17.7422 17.7423C17.7422 19.9656 19.5508 21.7746 21.7744 21.7746C23.9977 21.7746 25.8067 19.9656 25.8067 17.7423C25.8067 15.5187 23.9977 13.7101 21.7744 13.7101C19.5508 13.7101 17.7422 15.5187 17.7422 17.7423ZM24.1938 17.7423C24.1938 19.0761 23.1082 20.1617 21.7744 20.1617C20.4403 20.1617 19.3551 19.0761 19.3551 17.7423C19.3551 16.4082 20.4403 15.323 21.7744 15.323C23.1082 15.323 24.1938 16.4082 24.1938 17.7423Z" fill="#2855AF"/>
<path d="M3.22656 29.0327C3.22656 30.8114 4.67329 32.2585 6.45237 32.2585C8.23145 32.2585 9.67818 30.8114 9.67818 29.0327C9.67818 27.2536 8.23145 25.8069 6.45237 25.8069C4.67329 25.8069 3.22656 27.2536 3.22656 29.0327ZM8.06527 29.0327C8.06527 29.9222 7.34191 30.6456 6.45237 30.6456C5.56283 30.6456 4.83947 29.9222 4.83947 29.0327C4.83947 28.1432 5.56283 27.4198 6.45237 27.4198C7.34191 27.4198 8.06527 28.1432 8.06527 29.0327Z" fill="#2855AF"/>
<path d="M19.9249 5.88186C19.6095 5.56645 19.0999 5.56645 18.7845 5.88186L0.236328 24.4301L1.37669 25.5704L19.3547 7.59201L21.2039 9.44155C21.4346 9.67191 21.7803 9.74043 22.0828 9.61639C22.3836 9.49156 22.5805 9.19702 22.5805 8.87137V0.806932C22.5805 0.361577 22.219 0.000488281 21.774 0.000488281H13.7096C13.3836 0.000488281 13.0894 0.19698 12.9642 0.497822C12.8394 0.799451 12.9087 1.14636 13.1394 1.37711L14.9886 3.22626L0.236328 17.9785L1.37669 19.1189L16.6991 3.79645C17.0141 3.48103 17.0141 2.9711 16.6991 2.65608L15.6564 1.61338H20.9676V6.92457L19.9249 5.88186Z" fill="#7CCCDB"/>
</g>
<defs>
<clipPath id="clip0">
<rect width="50" height="50" fill="white"/>
</clipPath>
</defs>
</svg>
