<svg width="54" height="54" viewBox="0 0 54 54" fill="none" xmlns="http://www.w3.org/2000/svg">
<path d="M27.0007 10.646C19.2058 10.6515 12.8883 16.969 12.8828 24.7638C12.9525 29.8519 15.4281 34.6063 19.5565 37.581V47.7766C19.5599 47.8932 19.5835 48.0084 19.6266 48.1168V48.1969C19.6438 48.2381 19.664 48.2783 19.6866 48.3169L23.2085 53.5598C23.3949 53.8356 23.7062 54.0006 24.039 54.0001H29.8622C30.1951 54.0006 30.5063 53.8356 30.6927 53.5598L34.2147 48.3169C34.2373 48.2783 34.2574 48.2381 34.2747 48.1969V48.1168C34.3177 48.0084 34.3414 47.8932 34.3447 47.7766V37.581C38.4733 34.6063 40.9488 29.8519 41.0184 24.7638C41.0132 17.0079 34.7563 10.7064 27.0007 10.646ZM29.382 52.029H24.6193L22.4381 48.7872H31.5532L29.382 52.029ZM21.5676 46.7861V44.1346H32.4337L32.4437 46.7861H21.5676ZM32.8939 36.2102V36.2402C32.6114 36.4262 32.442 36.7424 32.4437 37.0807V42.1635H21.5676V37.0206C21.5693 36.6823 21.3999 36.3662 21.1174 36.1802C17.2868 33.6204 14.9598 29.3405 14.8939 24.7338C15.0862 18.0447 20.6646 12.7779 27.3537 12.9702C33.7727 13.1546 38.9329 18.3149 39.1174 24.7338C39.0614 29.3513 36.7332 33.6444 32.8939 36.2102Z" fill="#2855AF"/>
<path d="M27.4009 15.1785C26.8484 15.1785 26.4004 15.6265 26.4004 16.179C26.4004 16.7316 26.8484 17.1796 27.4009 17.1796C31.5596 17.1851 34.9296 20.5551 34.9351 24.7138C34.9351 25.2663 35.3831 25.7143 35.9357 25.7143C36.4882 25.7143 36.9362 25.2663 36.9362 24.7138C36.9307 19.4498 32.6649 15.184 27.4009 15.1785Z" fill="#2855AF"/>
<path d="M10.1909 23.7131H2.98688C2.43433 23.7131 1.98633 24.1611 1.98633 24.7137C1.98633 25.2662 2.43433 25.7142 2.98688 25.7142H10.1909C10.7434 25.7142 11.1914 25.2662 11.1914 24.7137C11.1914 24.1611 10.7434 23.7131 10.1909 23.7131Z" fill="#7CCCDB"/>
<path d="M51.0131 23.7131H43.8091C43.2566 23.7131 42.8086 24.1611 42.8086 24.7137C42.8086 25.2662 43.2566 25.7142 43.8091 25.7142H51.0131C51.5657 25.7142 52.0137 25.2662 52.0137 24.7137C52.0137 24.1611 51.5657 23.7131 51.0131 23.7131Z" fill="#7CCCDB"/>
<path d="M15.9221 35.9098C15.5626 35.4901 14.931 35.4412 14.5113 35.8007C14.4721 35.8342 14.4356 35.8707 14.4021 35.9098V35.8898L9.28924 41.0227C8.86951 41.3821 8.82061 42.0137 9.18006 42.4335C9.53951 42.8532 10.1711 42.9021 10.5908 42.5427C10.63 42.5091 10.6665 42.4726 10.7 42.4335L15.8129 37.3206C16.2326 36.9612 16.2815 36.3296 15.9221 35.9098Z" fill="#7CCCDB"/>
<path d="M44.6011 7.00379C44.2265 6.68298 43.674 6.68298 43.2995 7.00379L38.1866 12.1166C37.7943 12.5057 37.7916 13.1393 38.1807 13.5317C38.37 13.7225 38.6281 13.8292 38.897 13.8276L38.887 13.8176C39.1529 13.8191 39.4085 13.7146 39.5974 13.5274L44.7102 8.41457C45.0697 7.99484 45.0208 7.36324 44.6011 7.00379Z" fill="#7CCCDB"/>
<path d="M44.9078 41.2239C44.8515 41.1478 44.7847 41.08 44.7093 41.0227L39.5965 35.8898C39.2371 35.4701 38.6055 35.4212 38.1857 35.7806C37.766 36.1401 37.7171 36.7717 38.0765 37.1914C38.1101 37.2306 38.1466 37.2671 38.1857 37.3006L43.2985 42.4135C43.627 42.8578 44.2536 42.9518 44.6979 42.6233C45.1423 42.2949 45.2362 41.6683 44.9078 41.2239Z" fill="#7CCCDB"/>
<path d="M15.8131 12.1166L10.7002 7.00379C10.2805 6.64434 9.64888 6.69324 9.28943 7.11297C8.96863 7.48756 8.96863 8.03999 9.28943 8.41457L14.4023 13.5274C14.822 13.8869 15.4536 13.838 15.8131 13.4182C16.1339 13.0436 16.1339 12.4912 15.8131 12.1166Z" fill="#7CCCDB"/>
<path d="M27.001 0C26.4485 0 26.0005 0.447999 26.0005 1.00056V8.23457C25.9838 8.78688 26.4182 9.24814 26.9705 9.26465C26.9806 9.2649 26.9908 9.26515 27.001 9.26515C27.5536 9.26515 28.0016 8.81715 28.0016 8.26459V1.00056C28.0016 0.447999 27.5536 0 27.001 0Z" fill="#7CCCDB"/>
</svg>
