<svg width="90" height="90" viewBox="0 0 90 90" fill="none" xmlns="http://www.w3.org/2000/svg">
<circle cx="45" cy="45" r="45" fill="#ECEBFF"/>
<path d="M44.968 43.2708C47.8258 43.2684 50.1398 40.9982 50.137 38.2009C50.1345 35.4036 47.8155 33.138 44.9577 33.1407C42.1006 33.1435 39.7862 35.4134 39.7891 38.2107C39.7981 41.0056 42.1131 43.2672 44.968 43.2708ZM44.968 35.102C46.7217 35.102 48.1436 36.4936 48.1436 38.2107C48.1436 39.9275 46.7217 41.3194 44.968 41.3194C43.2141 41.3194 41.7925 39.9275 41.7925 38.2107C41.7929 36.494 43.2147 35.1024 44.968 35.102Z" fill="#7CCCDB"/>
<path d="M38.0154 54.1854H51.9192C52.4724 54.1841 52.9194 53.7459 52.9209 53.2047C52.9209 50.9885 52.0998 48.9487 50.5972 47.4483C49.1109 45.9737 47.0833 45.1438 44.9675 45.1438C42.8516 45.1438 40.824 45.9737 39.3377 47.4483C37.8351 48.9487 37.0137 50.9885 37.0137 53.2047C37.0152 53.7459 37.4626 54.1841 38.0154 54.1854ZM40.7702 48.8212C41.879 47.7232 43.3904 47.1051 44.9675 47.1051C46.5443 47.1051 48.0559 47.7232 49.1644 48.8212C50.0838 49.7498 50.6739 50.9425 50.8477 52.2241H39.0873C39.2588 50.9419 39.8492 49.7479 40.7702 48.8212Z" fill="#7CCCDB"/>
<path d="M57.9913 24.9033H48.9757V22.5497C48.9741 22.0089 48.5265 21.5706 47.974 21.5691H41.9635C41.411 21.5706 40.9634 22.0089 40.9618 22.5497V24.9033H31.9462C29.1804 24.9045 26.9388 27.099 26.9375 29.8065V63.5409C26.9388 66.2484 29.1804 68.4429 31.9462 68.4441H57.9913C60.7571 68.4429 62.9987 66.2484 63 63.5409V29.8065C62.9987 27.099 60.7571 24.9045 57.9913 24.9033ZM42.9653 23.5304H46.9722V27.453H42.9653V23.5304ZM60.9965 63.5409C60.9918 65.1635 59.6489 66.4782 57.9913 66.4828H31.9462C30.2886 66.4782 28.9457 65.1635 28.941 63.5409V29.8065C28.9457 28.1839 30.2886 26.8692 31.9462 26.8646H40.9618V28.4336C40.9634 28.9745 41.411 29.4127 41.9635 29.4143H47.974C48.5265 29.4127 48.9741 28.9745 48.9757 28.4336V26.8646H57.9913C59.6489 26.8692 60.9918 28.1839 60.9965 29.8065V63.5409Z" fill="#2855AF"/>
<path d="M55.8062 61.1871H34.1287C33.5755 61.1871 33.127 61.626 33.127 62.1678C33.127 62.7096 33.5755 63.1485 34.1287 63.1485H55.8163C56.3697 63.1457 56.8158 62.7044 56.813 62.1629C56.8102 61.6211 56.3594 61.1844 55.8062 61.1871Z" fill="#2855AF"/>
<path d="M39.1385 56.8724C38.5853 56.8724 38.1367 57.3113 38.1367 57.8531C38.1367 58.3949 38.5853 58.8337 39.1385 58.8337H50.8087C51.3621 58.8337 51.8104 58.3949 51.8104 57.8531C51.8104 57.3113 51.3621 56.8724 50.8087 56.8724H39.1385Z" fill="#2855AF"/>
</svg>
