<svg width="50" height="50" viewBox="0 0 50 50" fill="none" xmlns="http://www.w3.org/2000/svg">
<g opacity="0.9">
<path d="M25 0C11.1929 0 0 11.1929 0 25C0 38.8071 11.1929 50 25 50C38.8071 50 50 38.8071 50 25C49.9844 11.1994 38.8006 0.015625 25 0ZM25 48.3333C12.1133 48.3333 1.66667 37.8867 1.66667 25C1.66667 12.1133 12.1133 1.66667 25 1.66667C37.8867 1.66667 48.3333 12.1133 48.3333 25C48.3186 37.8805 37.8805 48.3186 25 48.3333Z" fill="#2855AF"/>
<path d="M25.0007 3.33337C13.0345 3.33337 3.33398 13.0339 3.33398 25C3.33398 36.9662 13.0345 46.6667 25.0007 46.6667C36.9668 46.6667 46.6673 36.9662 46.6673 25C46.654 13.0394 36.9613 3.34671 25.0007 3.33337ZM25.0007 45C13.9549 45 5.00065 36.0458 5.00065 25C5.00065 13.9543 13.9549 5.00004 25.0007 5.00004C36.0464 5.00004 45.0006 13.9543 45.0006 25C44.9878 36.0404 36.041 44.9872 25.0007 45Z" fill="#3E66B7"/>
<path d="M8.33398 24.1665H6.66732C6.20708 24.1665 5.83398 24.5396 5.83398 24.9998C5.83398 25.4601 6.20708 25.8332 6.66732 25.8332H8.33398C8.79422 25.8332 9.16732 25.4601 9.16732 24.9998C9.16732 24.5396 8.79422 24.1665 8.33398 24.1665Z" fill="#2855AF"/>
<path d="M43.334 24.1665H41.6673C41.2071 24.1665 40.834 24.5396 40.834 24.9998C40.834 25.4601 41.2071 25.8332 41.6673 25.8332H43.334C43.7942 25.8332 44.1673 25.4601 44.1673 24.9998C44.1673 24.5396 43.7942 24.1665 43.334 24.1665Z" fill="#2855AF"/>
<path d="M10.1477 32.6134L8.70417 33.4466C8.30556 33.6766 8.16893 34.1863 8.39901 34.5849C8.62908 34.9835 9.13873 35.1202 9.53734 34.8901L10.9808 34.0569C11.3794 33.8268 11.5161 33.3172 11.286 32.9186C11.0559 32.52 10.5463 32.3833 10.1477 32.6134Z" fill="#2855AF"/>
<path d="M40.4621 15.1116L39.0186 15.9447C38.62 16.1748 38.4834 16.6845 38.7135 17.0831C38.9435 17.4817 39.4532 17.6183 39.8518 17.3882L41.2953 16.5551C41.6939 16.325 41.8305 15.8154 41.6005 15.4167C41.3704 15.0181 40.8607 14.8815 40.4621 15.1116Z" fill="#2855AF"/>
<path d="M10.9828 15.9447L9.53929 15.1115C9.14068 14.8814 8.63103 15.0181 8.40096 15.4167C8.17089 15.8153 8.30751 16.3249 8.70612 16.555L10.1496 17.3882C10.5482 17.6183 11.0579 17.4816 11.288 17.083C11.518 16.6844 11.3814 16.1748 10.9828 15.9447Z" fill="#2855AF"/>
<path d="M41.2953 33.4409L39.8518 32.6077C39.4532 32.3777 38.9435 32.5143 38.7135 32.9129C38.4834 33.3115 38.62 33.8212 39.0186 34.0512L40.4621 34.8844C40.8607 35.1145 41.3704 34.9778 41.6005 34.5792C41.8305 34.1806 41.6939 33.671 41.2953 33.4409Z" fill="#2855AF"/>
<path d="M17.3847 10.1496L16.5515 8.70609C16.3214 8.30748 15.8118 8.17085 15.4132 8.40092C15.0145 8.63099 14.8779 9.14064 15.108 9.53926L15.9412 10.9828C16.1712 11.3814 16.6809 11.518 17.0795 11.2879C17.4781 11.0578 17.6147 10.5482 17.3847 10.1496Z" fill="#2855AF"/>
<path d="M25.8327 8.33325V6.66658C25.8327 6.20635 25.4596 5.83325 24.9993 5.83325C24.5391 5.83325 24.166 6.20635 24.166 6.66658V8.33325C24.166 8.79349 24.5391 9.16658 24.9993 9.16658C25.4596 9.16658 25.8327 8.79349 25.8327 8.33325Z" fill="#2855AF"/>
<path d="M33.4451 8.70474L32.6119 10.1482C32.3818 10.5469 32.5185 11.0565 32.9171 11.2866C33.3157 11.5167 33.8253 11.38 34.0554 10.9814L34.8886 9.53791C35.1186 9.1393 34.982 8.62965 34.5834 8.39958C34.1848 8.1695 33.6751 8.30613 33.4451 8.70474Z" fill="#2855AF"/>
<path d="M8.3107 19.665L7.50578 19.4493C7.06124 19.3302 6.60431 19.594 6.4852 20.0386C6.36609 20.4831 6.6299 20.9401 7.07445 21.0592L7.87936 21.2748C8.32391 21.3939 8.78084 21.1301 8.89995 20.6856C9.01906 20.241 8.75524 19.7841 8.3107 19.665Z" fill="#2855AF"/>
<path d="M42.9181 28.9382L42.1132 28.7225C41.6687 28.6034 41.2117 28.8672 41.0926 29.3118C40.9735 29.7563 41.2373 30.2133 41.6819 30.3324L42.4868 30.548C42.9313 30.6671 43.3883 30.4033 43.5074 29.9588C43.6265 29.5142 43.3627 29.0573 42.9181 28.9382Z" fill="#2855AF"/>
<path d="M13.2144 12.0361L12.6252 11.4469C12.2997 11.1214 11.7721 11.1214 11.4467 11.4469C11.1212 11.7723 11.1212 12.2999 11.4467 12.6254L12.0359 13.2146C12.3614 13.5401 12.889 13.5401 13.2144 13.2146C13.5399 12.8892 13.5399 12.3616 13.2144 12.0361Z" fill="#2855AF"/>
<path d="M21.2716 7.88138L21.056 7.07646C20.9369 6.63192 20.4799 6.3681 20.0354 6.48721C19.5908 6.60632 19.327 7.06325 19.4461 7.5078L19.6618 8.31272C19.7809 8.75726 20.2378 9.02107 20.6824 8.90196C21.1269 8.78285 21.3907 8.32592 21.2716 7.88138Z" fill="#2855AF"/>
<path d="M28.9391 7.0806L28.7235 7.88551C28.6044 8.33006 28.8682 8.78699 29.3127 8.9061C29.7573 9.02521 30.2142 8.76139 30.3333 8.31685L30.549 7.51193C30.6681 7.06739 30.4043 6.61046 29.9597 6.49135C29.5152 6.37224 29.0583 6.63605 28.9391 7.0806Z" fill="#2855AF"/>
<path d="M37.3758 11.4492L36.7865 12.0384C36.4611 12.3639 36.4611 12.8915 36.7865 13.2169C37.112 13.5424 37.6396 13.5424 37.965 13.2169L38.5543 12.6277C38.8797 12.3023 38.8797 11.7746 38.5543 11.4492C38.2288 11.1238 37.7012 11.1238 37.3758 11.4492Z" fill="#2855AF"/>
<path d="M42.4966 19.4498L41.6916 19.6654C41.2471 19.7845 40.9833 20.2415 41.1024 20.686C41.2215 21.1306 41.6784 21.3944 42.123 21.2753L42.9279 21.0596C43.3724 20.9405 43.6362 20.4836 43.5171 20.039C43.398 19.5945 42.9411 19.3307 42.4966 19.4498Z" fill="#2855AF"/>
<path d="M7.87937 28.7241L7.07444 28.9397C6.6299 29.0588 6.36609 29.5158 6.4852 29.9603C6.60431 30.4048 7.06124 30.6687 7.50578 30.5496L8.3107 30.3339C8.75524 30.2148 9.01906 29.7579 8.89995 29.3133C8.78084 28.8688 8.32391 28.605 7.87937 28.7241Z" fill="#2855AF"/>
<path d="M28.5364 11.288C20.9596 9.33644 13.2354 13.8964 11.2838 21.4731C10.3592 25.0627 10.8782 28.8717 12.7298 32.083C12.9719 32.4743 13.4855 32.5954 13.8769 32.3532C14.2517 32.1213 14.3812 31.6377 14.1723 31.2497C10.7246 25.2686 12.7784 17.6252 18.7594 14.1775C24.7404 10.7298 32.3839 12.7835 35.8316 18.7646C37.465 21.5982 37.9227 24.9591 37.1066 28.1263C36.9915 28.5723 37.2598 29.0271 37.7057 29.1422C38.1513 29.2572 38.6056 28.9894 38.7213 28.5442C38.7215 28.5434 38.7216 28.5426 38.7216 28.5417C38.7216 28.5409 38.7217 28.5401 38.7219 28.5393C40.6727 20.963 36.1126 13.2396 28.5364 11.288Z" fill="#3E66B7"/>
<path d="M37.1941 31.0215L28.0274 23.5215C27.9787 23.4917 27.936 23.4518 27.9087 23.4017C27.049 21.8251 25.0841 21.2123 23.4763 22.0354C21.842 22.872 21.1953 24.8749 22.0319 26.5091C22.4587 27.3428 23.211 27.9474 24.0923 28.1949C24.5513 28.3238 25.0278 28.3945 25.4767 28.5549L36.3832 32.4506C36.4741 32.4835 36.57 32.5002 36.6666 32.4998C37.1268 32.4997 37.4998 32.1266 37.4998 31.6662C37.4997 31.4163 37.3875 31.1797 37.1941 31.0215ZM24.9999 26.6665C24.0794 26.6665 23.3332 25.9203 23.3332 24.9998C23.3332 24.0793 24.0794 23.3331 24.9999 23.3331C25.9204 23.3331 26.6666 24.0793 26.6666 24.9998C26.6666 25.9203 25.9204 26.6665 24.9999 26.6665ZM28.1768 27.7495C27.7631 27.602 27.647 27.0563 27.8681 26.6769C28.084 26.3065 28.5956 26.1394 28.9276 26.4106L29.1208 26.5685C29.7607 27.0913 29.186 28.1095 28.4077 27.8319L28.1768 27.7495Z" fill="#7CCCDB"/>
<path d="M28.3333 33.3333H21.6667C19.3655 33.3333 17.5 35.1988 17.5 37.4999C17.5 39.8011 19.3655 41.6666 21.6667 41.6666H28.3333C30.6345 41.6666 32.5 39.8011 32.5 37.4999C32.5 35.1988 30.6345 33.3333 28.3333 33.3333ZM28.3333 39.9999H21.6667C20.2859 39.9999 19.1667 38.8807 19.1667 37.4999C19.1667 36.1192 20.2859 34.9999 21.6667 34.9999H28.3333C29.7141 34.9999 30.8333 36.1192 30.8333 37.4999C30.8333 38.8807 29.7141 39.9999 28.3333 39.9999Z" fill="#7CCCDB"/>
<path d="M23.334 36.6665H21.6673C21.2071 36.6665 20.834 37.0396 20.834 37.4998C20.834 37.9601 21.2071 38.3332 21.6673 38.3332H23.334C23.7942 38.3332 24.1673 37.9601 24.1673 37.4998C24.1673 37.0396 23.7942 36.6665 23.334 36.6665Z" fill="#2855AF"/>
<path d="M28.334 36.6665H26.6673C26.2071 36.6665 25.834 37.0396 25.834 37.4998C25.834 37.9601 26.2071 38.3332 26.6673 38.3332H28.334C28.7942 38.3332 29.1673 37.9601 29.1673 37.4998C29.1673 37.0396 28.7942 36.6665 28.334 36.6665Z" fill="#2855AF"/>
</g>
</svg>
