<svg width="50" height="50" viewBox="0 0 50 50" fill="none" xmlns="http://www.w3.org/2000/svg">
<g clip-path="url(#clip0)">
<path d="M3.79424 35.175C2.26211 31.9876 1.48516 28.5642 1.48516 25C1.48516 22.1262 1.99756 19.3193 3.00771 16.6574C3.15322 16.274 2.96045 15.8452 2.57705 15.6997C2.19346 15.5541 1.76484 15.747 1.61934 16.1303C0.544824 18.9613 0 21.9454 0 25C0 28.7887 0.826367 32.4286 2.45586 35.8185C2.58369 36.0843 2.84912 36.2395 3.12568 36.2395C3.2335 36.2395 3.34307 36.2159 3.44678 36.166C3.81631 35.9882 3.97197 35.5445 3.79424 35.175Z" fill="#2855AF"/>
<path d="M42.678 7.32236C37.9563 2.60049 31.6781 0 25.0004 0C20.2471 0 15.6227 1.33965 11.6274 3.87383C7.73937 6.33994 4.60841 9.82148 2.57306 13.942C2.39142 14.3098 2.54229 14.7551 2.90987 14.9366C3.27784 15.1185 3.72306 14.9674 3.9045 14.5998C5.81915 10.7235 8.76466 7.44834 12.4227 5.12803C16.1799 2.74482 20.5291 1.48516 25.0004 1.48516C31.2815 1.48516 37.1865 3.93105 41.6279 8.37246C46.0693 12.8139 48.5152 18.719 48.5152 25C48.5152 31.281 46.0692 37.1861 41.6279 41.6275C37.1865 46.0689 31.2814 48.5148 25.0004 48.5148C21.4162 48.5148 17.9756 47.7296 14.7741 46.1809C14.4048 46.0021 13.9608 46.1567 13.7822 46.5259C13.6036 46.8951 13.7581 47.3392 14.1273 47.5178C17.532 49.1648 21.1904 50 25.0004 50C31.6782 50 37.9562 47.3994 42.678 42.6776C47.3999 37.9559 50.0004 31.6777 50.0004 25C50.0004 18.3223 47.3998 12.0442 42.678 7.32236Z" fill="#2855AF"/>
<path d="M42.8469 18.3091C41.4987 14.7149 39.1213 11.6407 35.9716 9.41895C32.7499 7.14648 28.9561 5.94531 25.0001 5.94531C14.4933 5.94531 5.94531 14.4933 5.94531 25.0001C5.94531 27.7643 6.52441 30.4305 7.66641 32.9246C7.79121 33.1973 8.06055 33.3582 8.34209 33.3582C8.44561 33.3582 8.55059 33.3365 8.65068 33.2907C9.02354 33.1199 9.1874 32.6792 9.0167 32.3064C7.96416 30.0076 7.43047 27.5494 7.43047 25.0001C7.43047 15.3122 15.3121 7.43047 25.0001 7.43047C28.6479 7.43047 32.1457 8.5377 35.1154 10.6325C38.0206 12.6818 40.2133 15.5166 41.4562 18.8306C41.6003 19.2146 42.0284 19.409 42.4123 19.2651C42.7964 19.1211 42.9909 18.6931 42.8469 18.3091Z" fill="#2855AF"/>
<path d="M43.5696 20.7084C43.4776 20.3088 43.0789 20.0596 42.6794 20.1514C42.2798 20.2434 42.0303 20.642 42.1223 21.0417C42.4194 22.3317 42.57 23.6635 42.57 25.0001C42.57 34.6881 34.6883 42.5698 25.0003 42.5698C22.4889 42.5698 20.0644 42.0513 17.7937 41.0288C17.4199 40.8602 16.9801 41.027 16.8118 41.401C16.6433 41.7749 16.81 42.2145 17.184 42.3829C19.6475 43.4923 22.2774 44.0549 25.0003 44.0549C35.5072 44.0549 44.0551 35.5068 44.055 24.9999C44.055 23.5514 43.8917 22.1075 43.5696 20.7084Z" fill="#2855AF"/>
<path d="M24.9994 12.1021C17.8875 12.1021 12.1016 17.888 12.1016 24.9999C12.1016 26.6322 12.4026 28.2233 12.9965 29.7293C13.1469 30.1108 13.5781 30.2983 13.9597 30.1478C14.3411 29.9973 14.5286 29.5661 14.3781 29.1846C13.8529 27.8527 13.5867 26.4449 13.5867 24.9999C13.5867 18.7069 18.7063 13.5872 24.9994 13.5872C31.2925 13.5872 36.4122 18.7068 36.4122 24.9998C36.4122 31.2928 31.2924 36.4125 24.9994 36.4125C23.5543 36.4125 22.1465 36.1463 20.8148 35.6211C20.4335 35.4707 20.0021 35.658 19.8516 36.0396C19.7012 36.4211 19.8884 36.8523 20.27 37.0028C21.7759 37.5967 23.3671 37.8978 24.9994 37.8978C32.1114 37.8978 37.8974 32.1118 37.8974 24.9999C37.8974 17.888 32.1114 12.1021 24.9994 12.1021Z" fill="#2855AF"/>
<path d="M24.9987 18.3022C21.3055 18.3022 18.3008 21.3069 18.3008 25.0002C18.3008 25.3895 18.3345 25.7797 18.401 26.1599C18.4716 26.5639 18.8568 26.8345 19.2603 26.7635C19.6643 26.6929 19.9344 26.3081 19.8638 25.9042C19.812 25.6082 19.7857 25.304 19.7857 25.0002C19.7857 22.1259 22.1242 19.7874 24.9985 19.7874C27.8729 19.7874 30.2113 22.1259 30.2113 25.0002C30.2113 27.8745 27.8729 30.213 24.9986 30.213C24.5912 30.213 24.1856 30.1659 23.7935 30.073C23.3946 29.9785 22.9943 30.2256 22.8999 30.6246C22.8055 31.0236 23.0523 31.4237 23.4515 31.5182C23.9557 31.6375 24.4762 31.6979 24.9986 31.6979C28.692 31.6979 31.6967 28.6933 31.6967 25.0001C31.6967 21.3069 28.692 18.3022 24.9987 18.3022Z" fill="#2855AF"/>
<path d="M25.5243 24.474C25.2836 24.2341 24.9106 24.1882 24.619 24.3625L0.361679 38.8595C0.0828703 39.026 -0.0552157 39.3545 0.0205656 39.6703C0.0964445 39.986 0.368612 40.2158 0.692636 40.2377L9.19674 40.811L9.86646 49.3156C9.89195 49.6382 10.1233 49.9073 10.4385 49.9806C10.4947 49.9937 10.5511 49.9999 10.6069 49.9999C10.8649 49.9999 11.1096 49.865 11.2455 49.6363L25.6386 25.3789C25.8122 25.0866 25.765 24.714 25.5243 24.474ZM11.1631 46.8644L10.6269 40.0551C10.5979 39.6879 10.3041 39.3973 9.93648 39.3725L3.16246 38.9157L22.8669 27.1397L11.1631 46.8644Z" fill="#7CCCDB"/>
</g>
<defs>
<clipPath id="clip0">
<rect width="50" height="50" fill="white"/>
</clipPath>
</defs>
</svg>
