<svg width="90" height="90" viewBox="0 0 90 90" fill="none" xmlns="http://www.w3.org/2000/svg">
<circle cx="45" cy="45" r="45" fill="#ECEBFF"/>
<path d="M67.8225 30.7576L66.6104 30.3788C66.3073 30.303 66.0043 30.2273 65.6255 30.2273C64.2619 30.2273 63.0498 31.1363 62.5952 32.4242L61.9134 34.4696V32.9545V32.8788C61.9134 32.6515 61.7619 32.4242 61.6104 32.2727L49.1862 20.2273C49.0346 20.0758 48.8074 20 48.6558 20H24.3376C23.8831 20 23.5801 20.3031 23.5801 20.7575V23.106H20.7771C20.3225 23.106 20.0195 23.4091 20.0195 23.8635V69.2424C20.0195 69.6969 20.3226 69.9999 20.7771 69.9999H57.5952C58.0498 69.9999 58.3528 69.6968 58.3528 69.2424V66.8939H61.1558C61.6104 66.8939 61.9133 66.5908 61.9133 66.1364V55.9091L64.0345 53.0303L64.1103 52.803L69.7921 34.6969C70.3982 33.0303 69.4892 31.2879 67.8225 30.7576ZM49.4134 22.5758L59.3376 32.1213H49.4134V22.5758ZM56.8377 68.4848H21.5346V24.6212H23.58V66.1364C23.58 66.5909 23.8831 66.8939 24.3375 66.8939H56.8376V68.4848H56.8377ZM60.474 65.3788H60.3983H25.0952V21.5152H47.8982V32.8788C47.8982 33.3334 48.2012 33.6363 48.6557 33.6363H60.4739V39.3182L56.9133 50.5303V50.7576L57.0649 60.3788C57.0649 60.6819 57.2922 60.9849 57.5952 61.0606C57.8983 61.1364 58.277 61.0606 58.4285 60.7576L60.4739 58.0303V65.3788H60.474ZM58.5043 58.0303L58.3528 51.7424L62.1406 52.9545L58.5043 58.0303ZM68.4286 34.2424L62.974 51.591L58.58 50.1516L64.0346 32.8788C64.3377 32.0455 65.2467 31.5151 66.08 31.8182L67.2921 32.197C68.2013 32.4242 68.7315 33.4091 68.4286 34.2424Z" fill="#2855AF"/>
<path d="M30.2458 33.6363H41.155C41.6095 33.6363 41.9125 33.3332 41.9125 32.8787V25.1515C41.9125 24.6969 41.6094 24.3939 41.155 24.3939H30.2458C29.7912 24.3939 29.4883 24.697 29.4883 25.1515V32.8787C29.4883 33.2575 29.8671 33.6363 30.2458 33.6363ZM31.0035 25.909H40.3974V32.1211H31.0035V25.909Z" fill="#7CCCDB"/>
<path d="M28.7321 40.7576H51.7624C52.217 40.7576 52.52 40.4546 52.52 40.0001C52.52 39.5455 52.2169 39.2426 51.7624 39.2426H28.7321C28.2776 39.2426 27.9746 39.5456 27.9746 40.0001C27.9745 40.4546 28.2776 40.7576 28.7321 40.7576Z" fill="#7CCCDB"/>
<path d="M28.7321 46.2879H51.7624C52.217 46.2879 52.52 45.9848 52.52 45.5304C52.52 45.0759 52.2169 44.7728 51.7624 44.7728H28.7321C28.2776 44.7728 27.9746 45.0759 27.9746 45.5304C27.9746 45.9848 28.2776 46.2879 28.7321 46.2879Z" fill="#7CCCDB"/>
<path d="M28.7321 51.8182H51.7624C52.217 51.8182 52.52 51.5151 52.52 51.0606C52.52 50.6062 52.2169 50.3031 51.7624 50.3031H28.7321C28.2776 50.3031 27.9746 50.6062 27.9746 51.0606C27.9746 51.5151 28.2776 51.8182 28.7321 51.8182Z" fill="#7CCCDB"/>
<path d="M52.4442 56.591C52.4442 56.1364 52.1412 55.8335 51.6867 55.8335H28.7321C28.2776 55.8335 27.9746 56.1365 27.9746 56.591C27.9746 57.0455 28.2777 57.3486 28.7321 57.3486H51.7624C52.1412 57.3486 52.4442 56.9697 52.4442 56.591Z" fill="#7CCCDB"/>
<path d="M54.943 61.3636H43.5036C43.049 61.3636 42.7461 61.6667 42.7461 62.1212C42.7461 62.5757 43.0491 62.8787 43.5036 62.8787H54.8673C55.3218 62.8787 55.6248 62.5757 55.6248 62.1212C55.6248 61.6667 55.3218 61.3636 54.943 61.3636Z" fill="#7CCCDB"/>
</svg>
