<svg width="54" height="54" viewBox="0 0 54 54" fill="none" xmlns="http://www.w3.org/2000/svg">
<path d="M52.9011 0H1.09889C0.492121 0 0 0.492121 0 1.09889V52.9011C0 53.5079 0.492121 54 1.09889 54H45.1317C45.7385 54 46.2306 53.5079 46.2306 52.9011C46.2306 52.2943 45.7385 51.8022 45.1317 51.8022H2.19779V2.19779H51.8022V52.9011C51.8022 53.5079 52.2943 54 52.9011 54C53.5079 54 54 53.5079 54 52.9011V1.09889C54 0.492121 53.5079 0 52.9011 0Z" fill="#2855AF"/>
<path d="M12.0542 11.4324C9.73135 11.4324 7.8418 13.3219 7.8418 15.6448C7.8418 17.9677 9.73135 19.8572 12.0542 19.8572C14.3771 19.8572 16.2667 17.9677 16.2667 15.6448C16.2667 13.3219 14.3771 11.4324 12.0542 11.4324ZM12.0542 17.6594C10.9434 17.6594 10.0396 16.7556 10.0396 15.6448C10.0396 14.534 10.9434 13.6302 12.0542 13.6302C13.165 13.6302 14.0689 14.534 14.0689 15.6448C14.0689 16.7556 13.1652 17.6594 12.0542 17.6594Z" fill="#7CCCDB"/>
<path d="M45.2026 14.5459H19.5618C18.955 14.5459 18.4629 15.038 18.4629 15.6448C18.4629 16.2516 18.955 16.7437 19.5618 16.7437H45.2026C45.8094 16.7437 46.3015 16.2516 46.3015 15.6448C46.3015 15.038 45.8096 14.5459 45.2026 14.5459Z" fill="#2855AF"/>
<path d="M12.0542 22.7876C11.4475 22.7876 10.9553 23.2797 10.9553 23.8865C10.9553 24.4933 11.4475 24.9854 12.0542 24.9854C13.165 24.9854 14.0689 25.8892 14.0689 27C14.0689 28.1108 13.165 29.0147 12.0542 29.0147C10.9434 29.0147 10.0396 28.1108 10.0396 27C10.0396 26.3933 9.54746 25.9011 8.94069 25.9011C8.33392 25.9011 7.8418 26.3933 7.8418 27C7.8418 29.3229 9.73135 31.2124 12.0542 31.2124C14.3771 31.2124 16.2667 29.3229 16.2667 27C16.2667 24.6771 14.3771 22.7876 12.0542 22.7876Z" fill="#7CCCDB"/>
<path d="M45.2026 25.9011H19.5618C18.955 25.9011 18.4629 26.3932 18.4629 27C18.4629 27.6068 18.955 28.0989 19.5618 28.0989H45.2026C45.8094 28.0989 46.3015 27.6068 46.3015 27C46.3015 26.3932 45.8096 25.9011 45.2026 25.9011Z" fill="#2855AF"/>
<path d="M12.0542 34.1428C9.73135 34.1428 7.8418 36.0324 7.8418 38.3552C7.8418 40.6781 9.73135 42.5677 12.0542 42.5677C14.3771 42.5677 16.2667 40.6781 16.2667 38.3552C16.2667 36.0324 14.3771 34.1428 12.0542 34.1428ZM12.0542 40.3699C10.9434 40.3699 10.0396 39.466 10.0396 38.3552C10.0396 37.2444 10.9434 36.3406 12.0542 36.3406C13.165 36.3406 14.0689 37.2444 14.0689 38.3552C14.0689 39.466 13.1652 40.3699 12.0542 40.3699Z" fill="#7CCCDB"/>
<path d="M45.2026 37.2563H19.5618C18.955 37.2563 18.4629 37.7485 18.4629 38.3552C18.4629 38.962 18.955 39.4541 19.5618 39.4541H45.2026C45.8094 39.4541 46.3015 38.962 46.3015 38.3552C46.3015 37.7485 45.8096 37.2563 45.2026 37.2563Z" fill="#2855AF"/>
</svg>
