<svg width="50" height="50" viewBox="0 0 50 50" fill="none" xmlns="http://www.w3.org/2000/svg">
<g clip-path="url(#clip0)">
<path d="M32.9317 20.0399V9.16557C32.9317 9.14803 32.9226 9.13315 32.9218 9.11561C32.9168 9.04008 32.902 8.96533 32.8768 8.894C32.8692 8.8673 32.86 8.84136 32.8493 8.81543C32.8104 8.72923 32.757 8.65027 32.6918 8.58161L32.6868 8.57551L24.3547 0.243347L24.3497 0.239914C24.2811 0.175073 24.2021 0.122055 24.1163 0.08315C24.0907 0.0728516 24.0644 0.0636975 24.0381 0.0556876C23.9668 0.0308952 23.8924 0.0156383 23.8173 0.0106798C23.799 0.00915413 23.7837 0 23.7665 0H6.26841C4.42767 0 2.93555 1.49212 2.93555 3.33287V39.9952C2.93555 41.8359 4.42767 43.328 6.26841 43.328H19.6369C23.5495 49.192 31.0193 51.5377 37.582 48.9628C44.1444 46.3882 48.0261 39.5886 46.9074 32.6284C45.7883 25.6682 39.9709 20.4282 32.9317 20.0399ZM24.5996 2.84465L30.0871 8.33216H25.433C24.9726 8.33216 24.5996 7.95913 24.5996 7.49914V2.84465ZM6.26841 41.6616C5.34804 41.6616 4.60198 40.9155 4.60198 39.9952V3.33287C4.60198 2.41249 5.34804 1.66643 6.26841 1.66643H22.9331V7.49914C22.9331 8.87951 24.0522 9.9986 25.433 9.9986H31.2653V20.0399C26.229 20.3039 21.6653 23.0901 19.1288 27.449C16.5924 31.8079 16.4249 37.1524 18.6837 41.6616H6.26841ZM39.4693 46.0952L39.0696 45.4026C38.9216 45.1428 38.6458 44.9819 38.3468 44.9811C38.0481 44.9807 37.7716 45.1402 37.6224 45.3995C37.4737 45.6589 37.4752 45.9778 37.6263 46.236L38.0222 46.9218C36.4339 47.7128 34.703 48.1767 32.9317 48.285V47.4939C32.9317 47.0339 32.5587 46.6609 32.0987 46.6609C31.6383 46.6609 31.2653 47.0339 31.2653 47.4939V48.285C29.4943 48.1767 27.7635 47.7128 26.1752 46.9218L26.5711 46.236C26.7222 45.9778 26.7237 45.6589 26.5746 45.3995C26.4258 45.1402 26.1493 44.9807 25.8502 44.9811C25.5512 44.9819 25.2758 45.1428 25.1278 45.4026L24.7277 46.0952C23.2512 45.11 21.9841 43.8429 20.9993 42.3665L21.6916 41.9663C22.0867 41.7348 22.221 41.2275 21.9918 40.8308C21.7629 40.4342 21.2564 40.2969 20.8586 40.5234L20.1728 40.919C19.3813 39.3311 18.9179 37.5998 18.8096 35.8289H19.6003C20.0603 35.8289 20.4333 35.4558 20.4333 34.9955C20.4333 34.5355 20.0603 34.1624 19.6003 34.1624H18.8096C18.9179 32.3915 19.3813 30.6602 20.1728 29.0724L20.8586 29.4679C20.9848 29.5415 21.1286 29.58 21.2751 29.5797C21.6519 29.5797 21.9822 29.3264 22.0799 28.9621C22.1775 28.5979 22.0181 28.2134 21.6916 28.025L20.9993 27.6249C21.9841 26.1484 23.2512 24.8813 24.7277 23.8961L25.1278 24.5888C25.3593 24.9839 25.8666 25.1178 26.2633 24.8889C26.66 24.6597 26.7973 24.1536 26.5711 23.7553L26.1752 23.0695C27.7635 22.2785 29.4943 21.8147 31.2653 21.7063V22.497C31.2653 22.9574 31.6383 23.3304 32.0987 23.3304C32.5587 23.3304 32.9317 22.9574 32.9317 22.497V21.7063C34.703 21.8147 36.4339 22.2785 38.0222 23.0695L37.6263 23.7553C37.4752 24.0132 37.4737 24.3324 37.6224 24.5918C37.7716 24.8512 38.0481 25.0106 38.3468 25.0098C38.6458 25.0095 38.9216 24.8485 39.0696 24.5888L39.4693 23.8961C40.9458 24.8813 42.2132 26.1484 43.1981 27.6249L42.5058 28.025C42.2457 28.1726 42.0851 28.4484 42.0843 28.7474C42.0836 29.0464 42.2434 29.3226 42.5024 29.4717C42.7617 29.6205 43.081 29.6193 43.3388 29.4679L44.0246 29.0724C44.8161 30.6602 45.2795 32.3915 45.3878 34.1624H44.5971C44.1368 34.1624 43.7637 34.5355 43.7637 34.9955C43.7637 35.4558 44.1368 35.8289 44.5971 35.8289H45.3878C45.2795 37.5998 44.8161 39.3311 44.0246 40.919L43.3388 40.5234C43.081 40.372 42.7617 40.3705 42.5024 40.5196C42.2434 40.6684 42.0836 40.9449 42.0843 41.2439C42.0851 41.543 42.2457 41.8187 42.5058 41.9663L43.1981 42.3665C42.2132 43.8429 40.9458 45.11 39.4693 46.0952Z" fill="#2855AF"/>
<path d="M38.7633 34.1624H35.3122C35.0086 32.9956 34.0974 32.0844 32.9306 31.7808V25.8302C32.9306 25.3699 32.5576 24.9968 32.0976 24.9968C31.6372 24.9968 31.2642 25.3699 31.2642 25.8302V31.7808C29.6916 32.184 28.6397 33.6631 28.7754 35.2811C28.9108 36.8987 30.1943 38.1822 31.8123 38.3176C33.4299 38.4534 34.9091 37.4015 35.3122 35.8288H38.7633C39.2237 35.8288 39.5968 35.4558 39.5968 34.9954C39.5968 34.5354 39.2237 34.1624 38.7633 34.1624ZM32.0976 36.6619C31.1773 36.6619 30.4312 35.9158 30.4312 34.9954C30.4312 34.0751 31.1773 33.329 32.0976 33.329C33.018 33.329 33.7641 34.0751 33.7641 34.9954C33.7641 35.9158 33.018 36.6619 32.0976 36.6619Z" fill="#7CCCDB"/>
<path d="M8.76742 11.665H7.10099C6.64061 11.665 6.26758 12.0385 6.26758 12.4984C6.26758 12.9584 6.64061 13.3319 7.10099 13.3319H8.76742C9.22742 13.3319 9.60045 12.9584 9.60045 12.4984C9.60045 12.0385 9.22742 11.665 8.76742 11.665Z" fill="#7CCCDB"/>
<path d="M12.1006 13.3319H19.5997C20.0597 13.3319 20.4328 12.9584 20.4328 12.4984C20.4328 12.0385 20.0597 11.665 19.5997 11.665H12.1006C11.6406 11.665 11.2676 12.0385 11.2676 12.4984C11.2676 12.9584 11.6406 13.3319 12.1006 13.3319Z" fill="#7CCCDB"/>
<path d="M8.76742 15.8313H7.10099C6.64061 15.8313 6.26758 16.2043 6.26758 16.6647C6.26758 17.1247 6.64061 17.4977 7.10099 17.4977H8.76742C9.22742 17.4977 9.60045 17.1247 9.60045 16.6647C9.60045 16.2043 9.22742 15.8313 8.76742 15.8313Z" fill="#7CCCDB"/>
<path d="M12.1006 17.4977H19.5997C20.0597 17.4977 20.4328 17.1247 20.4328 16.6647C20.4328 16.2043 20.0597 15.8313 19.5997 15.8313H12.1006C11.6406 15.8313 11.2676 16.2043 11.2676 16.6647C11.2676 17.1247 11.6406 17.4977 12.1006 17.4977Z" fill="#7CCCDB"/>
<path d="M8.76742 19.9976H7.10099C6.64061 19.9976 6.26758 20.3706 6.26758 20.8306C6.26758 21.291 6.64061 21.664 7.10099 21.664H8.76742C9.22742 21.664 9.60045 21.291 9.60045 20.8306C9.60045 20.3706 9.22742 19.9976 8.76742 19.9976Z" fill="#7CCCDB"/>
<path d="M20.4328 20.8306C20.4328 20.3706 20.0597 19.9976 19.5997 19.9976H12.1006C11.6406 19.9976 11.2676 20.3706 11.2676 20.8306C11.2676 21.291 11.6406 21.664 12.1006 21.664H19.5997C20.0597 21.664 20.4328 21.291 20.4328 20.8306Z" fill="#7CCCDB"/>
<path d="M7.10099 29.1631C6.64061 29.1631 6.26758 29.5361 6.26758 29.9961V30.8295C6.26758 31.2895 6.64061 31.6625 7.10099 31.6625C7.56098 31.6625 7.93401 31.2895 7.93401 30.8295V29.9961C7.93401 29.5361 7.56098 29.1631 7.10099 29.1631Z" fill="#7CCCDB"/>
<path d="M7.10099 33.3291C6.64061 33.3291 6.26758 33.7021 6.26758 34.1625V39.1618C6.26758 39.6222 6.64061 39.9952 7.10099 39.9952C7.56098 39.9952 7.93401 39.6222 7.93401 39.1618V34.1625C7.93401 33.7021 7.56098 33.3291 7.10099 33.3291Z" fill="#7CCCDB"/>
</g>
<defs>
<clipPath id="clip0">
<rect width="50" height="50" fill="white"/>
</clipPath>
</defs>
</svg>
