<svg width="90" height="90" viewBox="0 0 90 90" fill="none" xmlns="http://www.w3.org/2000/svg">
<circle cx="45" cy="45" r="45" fill="#ECEBFF"/>
<g clip-path="url(#clip0)">
<path d="M27.291 28.3182C25.5651 28.3182 24.166 29.7174 24.166 31.4432V39.7766H26.2493V31.4432C26.2493 30.868 26.7157 30.4015 27.291 30.4015H52.2911V28.3182H27.291Z" fill="#2855AF"/>
<path d="M27.291 59.5684C26.7157 59.5684 26.2493 59.102 26.2493 58.5267V48.11H24.166V58.5267C24.166 60.2526 25.5651 61.6517 27.291 61.6517H37.7078V59.5684H27.291Z" fill="#2855AF"/>
<path d="M53.0281 62.2549L27.73 36.9568C27.3233 36.5502 26.6639 36.5502 26.2571 36.9568L20.305 42.909C19.8983 43.3157 19.8983 43.9751 20.305 44.382L45.603 69.6799C45.7983 69.8753 46.0633 69.9851 46.3395 69.9851C46.6157 69.985 46.8806 69.8752 47.0759 69.6799L53.028 63.7278C53.4347 63.321 53.4347 62.6616 53.0281 62.2549ZM46.3395 67.4705L22.5144 43.6454L26.9936 39.1662L50.8187 62.9914L46.3395 67.4705Z" fill="#2855AF"/>
<path d="M65.834 59.5684H50.209V61.6517H61.6673V66.86C61.6673 67.4353 62.1337 67.9017 62.709 67.9017H65.834C68.1352 67.9017 70.0007 66.0363 70.0007 63.735C70.0007 61.4338 68.1352 59.5684 65.834 59.5684ZM65.834 65.8184H63.7507V61.6517H65.834C66.9846 61.6517 67.9173 62.5844 67.9173 63.735C67.9173 64.8857 66.9846 65.8184 65.834 65.8184Z" fill="#2855AF"/>
<path d="M65.8333 28.3182H60.625V30.4015H65.8333C66.9839 30.4015 67.9166 31.3343 67.9166 32.4849V63.735H69.9999V32.4849C70 30.1837 68.1345 28.3182 65.8333 28.3182Z" fill="#2855AF"/>
<path d="M39.055 49.4566L35.9297 52.5819L37.4028 54.055L40.5281 50.9297L39.055 49.4566Z" fill="#2855AF"/>
<path d="M34.8889 45.2899L31.7637 48.4152L33.2368 49.8883L36.362 46.763L34.8889 45.2899Z" fill="#2855AF"/>
<path d="M43.221 53.6234L40.0957 56.7487L41.5688 58.2218L44.6941 55.0965L43.221 53.6234Z" fill="#2855AF"/>
<path d="M47.3889 57.7921L44.2637 60.9174L45.7368 62.3905L48.8621 59.2652L47.3889 57.7921Z" fill="#2855AF"/>
<path d="M30.719 41.1233L27.5938 44.2485L29.0669 45.7216L32.1921 42.5964L30.719 41.1233Z" fill="#2855AF"/>
<path d="M64.9315 22.3265L63.4919 20.887C62.2738 19.7242 60.3568 19.7242 59.1387 20.887L43.2991 36.7266C42.8925 37.1333 42.8925 37.7927 43.2991 38.1996L47.619 42.5194C47.8138 42.7155 48.079 42.8254 48.3554 42.8246C48.6317 42.8245 48.8965 42.7147 49.0918 42.5194L64.9315 26.6797C64.932 26.6792 64.9325 26.6787 64.933 26.6782C66.1343 25.4762 66.1336 23.5278 64.9315 22.3265ZM63.4597 25.2058L48.3554 40.3099L45.5085 37.463L60.6128 22.3598C61.0061 21.984 61.6257 21.984 62.019 22.3598L63.4597 23.7984C63.4597 23.7986 63.4599 23.7987 63.4601 23.7989C63.8484 24.1875 63.8482 24.8174 63.4597 25.2058Z" fill="#7CCCDB"/>
<path d="M48.0199 40.7954L43.524 42.2964L45.0251 37.7933L43.0459 37.1339L40.8854 43.6141C40.8501 43.7204 40.832 43.8316 40.832 43.9435C40.8321 44.5188 41.2986 44.9851 41.8739 44.9849C41.9842 44.9853 42.0939 44.9684 42.1989 44.9349L48.6791 42.7745L48.0199 40.7954Z" fill="#7CCCDB"/>
<path d="M57.7309 23.766L56.2578 25.2391L60.5778 29.5591L62.0509 28.086L57.7309 23.766Z" fill="#7CCCDB"/>
<path d="M57.5 42.9016H41.875V44.9849H57.5V42.9016Z" fill="#7CCCDB"/>
<path d="M61.6673 42.9016H59.584V44.9849H61.6673V42.9016Z" fill="#7CCCDB"/>
<path d="M65.8333 42.9016H63.75V44.9849H65.8333V42.9016Z" fill="#7CCCDB"/>
</g>
<defs>
<clipPath id="clip0">
<rect width="50" height="50" fill="white" transform="translate(20 20)"/>
</clipPath>
</defs>
</svg>
