<svg width="50" height="50" viewBox="0 0 50 50" fill="none" xmlns="http://www.w3.org/2000/svg">
<path d="M29.7881 28.4759C33.555 25.8315 34.4649 20.6341 31.8204 16.8673C29.1759 13.1006 23.9786 12.1906 20.2119 14.835C16.4451 17.4795 15.5351 22.6768 18.1796 26.4436C18.7342 27.2336 19.4219 27.9213 20.2119 28.4759C15.7622 29.2408 12.5077 33.0957 12.5 37.6107V49.1666C12.4999 49.6267 12.8728 49.9998 13.3329 49.9999C13.333 49.9999 13.3332 49.9999 13.3333 49.9999H36.6667C37.1268 50 37.4999 49.6271 37.5 49.167C37.5 49.1669 37.5 49.1667 37.5 49.1666V37.6106C37.4922 33.0957 34.2378 29.2408 29.7881 28.4759ZM18.3333 21.6666C18.3333 17.9847 21.3181 14.9999 25 14.9999C28.6819 14.9999 31.6667 17.9847 31.6667 21.6666C31.6667 25.3485 28.6819 28.3333 25 28.3333C21.3199 28.3291 18.3375 25.3467 18.3333 21.6666ZM35.8333 48.3333H14.1667V37.6106C14.1714 33.4093 17.576 30.0046 21.7774 29.9999H28.2227C32.424 30.0046 35.8286 33.4093 35.8333 37.6106V48.3333Z" fill="#2855AF"/>
<path d="M25.8327 5H24.166V8.33333H25.8327V5Z" fill="#7CCCDB"/>
<path d="M34.7554 7.0523L32.3984 9.4093L33.5769 10.5878L35.9339 8.2308L34.7554 7.0523Z" fill="#7CCCDB"/>
<path d="M45.8333 48.3333H42.5V49.9999H45.8333V48.3333Z" fill="#7CCCDB"/>
<path d="M45.8333 40H42.5V41.6667H45.8333V40Z" fill="#7CCCDB"/>
<path d="M45.8333 31.6667H42.5V33.3334H45.8333V31.6667Z" fill="#7CCCDB"/>
<path d="M44.6542 22.8471L41.4922 23.9017L42.0195 25.4827L45.1815 24.4281L44.6542 22.8471Z" fill="#7CCCDB"/>
<path d="M42.0624 14.2052L38.9004 15.2599L39.4277 16.8409L42.5897 15.7862L42.0624 14.2052Z" fill="#7CCCDB"/>
<path d="M15.2451 7.05408L14.0664 8.23242L16.4231 10.5898L17.6017 9.41143L15.2451 7.05408Z" fill="#7CCCDB"/>
<path d="M7.49935 48.3333H4.16602V49.9999H7.49935V48.3333Z" fill="#7CCCDB"/>
<path d="M7.49935 40H4.16602V41.6667H7.49935V40Z" fill="#7CCCDB"/>
<path d="M7.49935 31.6667H4.16602V33.3334H7.49935V31.6667Z" fill="#7CCCDB"/>
<path d="M5.3491 22.848L4.82227 24.4292L7.9846 25.4829L8.51143 23.9017L5.3491 22.848Z" fill="#7CCCDB"/>
<path d="M7.93537 14.2113L7.4082 15.7925L10.5705 16.8468L11.0977 15.2656L7.93537 14.2113Z" fill="#7CCCDB"/>
<path d="M49.166 3.33333C47.7859 3.33188 46.6675 2.21344 46.666 0.833333C46.666 0.373125 46.2929 0 45.8327 0C45.3725 0 44.9993 0.373125 44.9993 0.833333C44.9979 2.21344 43.8795 3.33188 42.4993 3.33333C42.0391 3.33333 41.666 3.70646 41.666 4.16667C41.666 4.62688 42.0391 5 42.4993 5C43.8795 5.00146 44.9979 6.1199 44.9993 7.5C44.9993 7.96021 45.3725 8.33333 45.8327 8.33333C46.2929 8.33333 46.666 7.96021 46.666 7.5C46.6675 6.1199 47.7859 5.00146 49.166 5C49.6262 5 49.9993 4.62688 49.9993 4.16667C49.9993 3.70646 49.6262 3.33333 49.166 3.33333ZM45.8327 5.0024C45.5949 4.68583 45.3135 4.40448 44.997 4.16667C45.3135 3.92885 45.5949 3.6475 45.8327 3.33094C46.0705 3.6475 46.3518 3.92885 46.6684 4.16667C46.3518 4.40448 46.0705 4.68583 45.8327 5.0024Z" fill="#7CCCDB"/>
<path d="M7.5 3.33333C6.1199 3.33188 5.00146 2.21344 5 0.833333C5 0.373125 4.62688 0 4.16667 0C3.70646 0 3.33333 0.373125 3.33333 0.833333C3.33188 2.21344 2.21344 3.33188 0.833333 3.33333C0.373125 3.33333 0 3.70646 0 4.16667C0 4.62688 0.373125 5 0.833333 5C2.21344 5.00146 3.33188 6.1199 3.33333 7.5C3.33333 7.96021 3.70646 8.33333 4.16667 8.33333C4.62688 8.33333 5 7.96021 5 7.5C5.00146 6.1199 6.1199 5.00146 7.5 5C7.96021 5 8.33333 4.62688 8.33333 4.16667C8.33333 3.70646 7.96021 3.33333 7.5 3.33333ZM4.16667 5.0024C3.92885 4.68583 3.6475 4.40448 3.33094 4.16667C3.6475 3.92885 3.92885 3.6475 4.16667 3.33094C4.40448 3.6475 4.68583 3.92885 5.0024 4.16667C4.68583 4.40448 4.40448 4.68583 4.16667 5.0024Z" fill="#7CCCDB"/>
</svg>
