<svg width="50" height="50" viewBox="0 0 50 50" fill="none" xmlns="http://www.w3.org/2000/svg">
<g clip-path="url(#clip0)">
<path d="M49.84 21.0519L41.8332 8.84238C41.6526 8.56719 41.3458 8.40137 41.0167 8.40137H9.02128C8.69286 8.40137 8.38651 8.56641 8.20585 8.84072L0.186119 21.0138C0.147936 21.0664 0.11483 21.1232 0.0871935 21.184C-0.0711073 21.533 -0.0105605 21.9423 0.241979 22.2306L4.30692 26.8719C4.66229 27.2776 5.27909 27.3185 5.68475 26.9632C6.09042 26.6078 6.13124 25.9909 5.77596 25.5854L3.12977 22.5638H16.2646L22.8649 45.0977L15.4064 36.5815C15.0512 36.1758 14.4342 36.135 14.0286 36.4902C13.6229 36.8456 13.5821 37.4625 13.9374 37.8681L24.2684 49.6641C24.4538 49.8758 24.7217 49.9973 25.003 49.9973C25.2845 49.9973 25.5521 49.8758 25.7375 49.664L36.7365 37.1022C37.0919 36.6965 37.051 36.0796 36.6451 35.7244C36.2392 35.369 35.6223 35.41 35.2673 35.8158L27.1413 45.0964L33.7413 22.5637H46.8707L40.7981 29.4992C40.4428 29.905 40.4837 30.5219 40.8895 30.8771C41.0748 31.0394 41.3041 31.1189 41.5324 31.1189C41.8041 31.1189 42.0744 31.0062 42.2674 30.7856L49.7582 22.2305C50.0471 21.9006 50.0806 21.4186 49.84 21.0519ZM2.79032 20.6108L9.01932 11.1557L15.22 20.6108H2.79032ZM10.8293 10.3544H23.1948L17.0121 19.7822L10.8293 10.3544ZM25.0029 11.1585L31.2016 20.6108H18.8042L25.0029 11.1585ZM25.0029 45.4495L18.2996 22.5638H31.7062L25.0029 45.4495ZM33.0098 19.8067L26.811 10.3544H39.2087L33.0098 19.8067ZM34.8179 20.6108L41.0167 11.1585L47.2153 20.6108H34.8179Z" fill="#2855AF"/>
<path d="M15.3509 31.9353C12.832 31.9353 10.7827 29.8859 10.7827 27.3671C10.7827 26.8278 10.3455 26.3906 9.80625 26.3906C9.26699 26.3906 8.82979 26.8278 8.82979 27.3671C8.82979 29.8859 6.78047 31.9353 4.26162 31.9353C3.72246 31.9353 3.28516 32.3725 3.28516 32.9117C3.28516 33.451 3.72246 33.8882 4.26162 33.8882C6.78047 33.8882 8.82979 35.9375 8.82979 38.4563C8.82979 38.9956 9.26709 39.4328 9.80625 39.4328C10.3454 39.4328 10.7827 38.9956 10.7827 38.4563C10.7827 35.9375 12.832 33.8882 15.3509 33.8882C15.8901 33.8882 16.3273 33.451 16.3273 32.9117C16.3273 32.3725 15.8901 31.9353 15.3509 31.9353ZM9.80625 35.0271C9.27393 34.1694 8.54854 33.4441 7.69102 32.9117C8.54854 32.3794 9.27383 31.6541 9.80625 30.7964C10.3386 31.654 11.064 32.3793 11.9215 32.9117C11.064 33.4441 10.3387 34.1693 9.80625 35.0271Z" fill="#7CCCDB"/>
<path d="M49.0245 3.90842C47.4093 3.90842 46.0951 2.59426 46.0951 0.979028C46.0951 0.439771 45.6578 0.00256348 45.1187 0.00256348C44.5795 0.00256348 44.1422 0.439771 44.1422 0.979028C44.1422 2.59426 42.828 3.90842 41.2128 3.90842C40.6736 3.90842 40.2363 4.34563 40.2363 4.88489C40.2363 5.42415 40.6736 5.86135 41.2128 5.86135C42.828 5.86135 44.1422 7.17551 44.1422 8.79075C44.1422 9.33001 44.5795 9.76721 45.1187 9.76721C45.6578 9.76721 46.0951 9.33001 46.0951 8.79075C46.0951 7.17551 47.4093 5.86135 49.0245 5.86135C49.5637 5.86135 50.001 5.42415 50.001 4.88489C50.001 4.34563 49.5637 3.90842 49.0245 3.90842ZM45.1187 5.86438C44.84 5.49348 44.5101 5.1635 44.1392 4.88489C44.5101 4.60628 44.84 4.27629 45.1187 3.9054C45.3973 4.27629 45.7272 4.60628 46.0981 4.88489C45.7272 5.1634 45.3972 5.49348 45.1187 5.86438Z" fill="#7CCCDB"/>
<path d="M39.3347 32.7511C39.1531 32.5685 38.9012 32.465 38.6444 32.465C38.3875 32.465 38.1367 32.5685 37.9541 32.7511C37.7725 32.9327 37.668 33.1847 37.668 33.4414C37.668 33.6982 37.7724 33.9501 37.9541 34.1318C38.1357 34.3134 38.3875 34.4179 38.6444 34.4179C38.9013 34.4179 39.1531 34.3134 39.3347 34.1318C39.5163 33.9501 39.6209 33.6982 39.6209 33.4414C39.6209 33.1847 39.5164 32.9327 39.3347 32.7511Z" fill="#7CCCDB"/>
</g>
<defs>
<clipPath id="clip0">
<rect width="50" height="50" fill="white"/>
</clipPath>
</defs>
</svg>
