<svg width="50" height="50" viewBox="0 0 50 50" fill="none" xmlns="http://www.w3.org/2000/svg">
<path d="M16.9604 4.41289C16.9604 4.41289 24.2137 1.01327 30.111 11.3974C30.4534 12.0003 30.7559 12.6197 31.0496 13.2477C31.9029 15.072 36.0331 22.1567 47.7862 19.5374C47.7862 19.5374 44.5928 29.893 31.0278 25.5303C31.0278 25.5303 20.2578 21.0583 14.2846 31.3701L16.9604 4.41289Z" fill="#7CCCDB"/>
<path d="M13.3333 44.3311L9.77925 43.9784L13.9131 2.33315L13.3551 1.17433C13.0948 0.633795 13.5264 0.0167735 14.1234 0.0760349L17.7046 0.431519C18.3016 0.49078 18.6035 1.18062 18.2421 1.65932L17.4671 2.68583L13.3333 44.3311Z" fill="#2855AF"/>
<path d="M11.3819 43.6161C7.85619 43.6161 4.99805 46.4743 4.99805 49.9999H17.7657C17.7657 46.4744 14.9075 43.6161 11.3819 43.6161Z" fill="#2855AF"/>
</svg>
