<svg width="40" height="40" viewBox="0 0 40 40" fill="none" xmlns="http://www.w3.org/2000/svg">
<path d="M3.03539 28.1401C1.80969 25.5901 1.18813 22.8515 1.18813 20.0001C1.18813 17.7011 1.59805 15.4555 2.40617 13.326C2.52258 13.0193 2.36836 12.6762 2.06164 12.5598C1.75477 12.4434 1.41188 12.5977 1.29547 12.9044C0.435859 15.1691 0 17.5564 0 20.0001C0 23.0311 0.661094 25.943 1.96469 28.6549C2.06695 28.8676 2.2793 28.9917 2.50055 28.9917C2.5868 28.9917 2.67445 28.9728 2.75742 28.9329C3.05305 28.7906 3.17758 28.4357 3.03539 28.1401Z" fill="white"/>
<path d="M34.1419 5.85789C30.3645 2.08039 25.342 0 19.9998 0C16.1971 0 12.4976 1.07172 9.30135 3.09906C6.19096 5.07195 3.68619 7.85719 2.05791 11.1536C1.9126 11.4478 2.0333 11.8041 2.32736 11.9493C2.62174 12.0948 2.97791 11.9739 3.12306 11.6798C4.65478 8.57883 7.01119 5.95867 9.9376 4.10242C12.9434 2.19586 16.4228 1.18813 19.9998 1.18813C25.0246 1.18813 29.7487 3.14484 33.3018 6.69797C36.8549 10.2511 38.8117 14.9752 38.8117 20C38.8117 25.0248 36.8549 29.7489 33.3018 33.302C29.7487 36.8552 25.0246 38.8119 19.9998 38.8119C17.1324 38.8119 14.3799 38.1837 11.8188 36.9447C11.5233 36.8016 11.1681 36.9254 11.0253 37.2207C10.8824 37.5161 11.006 37.8713 11.3013 38.0142C14.0251 39.3319 16.9518 40 19.9998 40C25.3421 40 30.3644 37.9195 34.1419 34.1421C37.9194 30.3647 39.9998 25.3422 39.9998 20C39.9998 14.6578 37.9193 9.63539 34.1419 5.85789Z" fill="white"/>
<path d="M34.277 14.6472C33.1985 11.7719 31.2965 9.31255 28.7768 7.53513C26.1994 5.71716 23.1643 4.75623 19.9996 4.75623C11.5941 4.75623 4.75574 11.5946 4.75574 20.0001C4.75574 22.2114 5.21902 24.3444 6.13261 26.3397C6.23246 26.5578 6.44792 26.6865 6.67316 26.6865C6.75597 26.6865 6.83996 26.6692 6.92003 26.6326C7.21832 26.4959 7.34941 26.1433 7.21285 25.8451C6.37082 24.0061 5.94386 22.0395 5.94386 20.0001C5.94386 12.2497 12.2492 5.94435 19.9996 5.94435C22.9178 5.94435 25.716 6.83013 28.0918 8.50599C30.416 10.1454 32.1701 12.4133 33.1645 15.0644C33.2797 15.3716 33.6222 15.5272 33.9293 15.4121C34.2366 15.2969 34.3922 14.9544 34.277 14.6472Z" fill="white"/>
<path d="M34.8557 16.5667C34.7821 16.247 34.4631 16.0476 34.1435 16.1211C33.8238 16.1947 33.6242 16.5136 33.6978 16.8333C33.9355 17.8654 34.056 18.9307 34.056 20C34.056 27.7504 27.7506 34.0558 20.0002 34.0558C17.9911 34.0558 16.0515 33.6411 14.235 32.823C13.9359 32.6882 13.584 32.8216 13.4494 33.1207C13.3146 33.4199 13.448 33.7716 13.7471 33.9063C15.718 34.7938 17.8219 35.2439 20.0002 35.2439C28.4057 35.2439 35.2441 28.4054 35.244 19.9999C35.244 18.8411 35.1133 17.686 34.8557 16.5667Z" fill="white"/>
<path d="M20.0002 9.68164C14.3106 9.68164 9.68188 14.3104 9.68188 19.9999C9.68188 21.3058 9.92274 22.5787 10.3978 23.7834C10.5181 24.0887 10.8631 24.2387 11.1684 24.1182C11.4735 23.9978 11.6235 23.6529 11.5031 23.3477C11.083 22.2822 10.87 21.1559 10.87 19.9999C10.87 14.9655 14.9657 10.8698 20.0002 10.8698C25.0346 10.8698 29.1304 14.9655 29.1304 19.9998C29.1304 25.0342 25.0345 29.13 20.0002 29.13C18.8441 29.13 17.7178 28.917 16.6525 28.4969C16.3474 28.3766 16.0023 28.5264 15.8819 28.8316C15.7616 29.1369 15.9113 29.4819 16.2166 29.6023C17.4213 30.0773 18.6943 30.3182 20.0002 30.3182C25.6898 30.3182 30.3185 25.6895 30.3185 19.9999C30.3185 14.3104 25.6898 9.68164 20.0002 9.68164Z" fill="white"/>
<path d="M20 14.6417C17.0454 14.6417 14.6416 17.0455 14.6416 20.0001C14.6416 20.3115 14.6686 20.6237 14.7218 20.9278C14.7782 21.251 15.0864 21.4675 15.4092 21.4107C15.7324 21.3542 15.9485 21.0464 15.892 20.7233C15.8506 20.4865 15.8296 20.2431 15.8296 20.0001C15.8296 17.7006 17.7004 15.8298 19.9998 15.8298C22.2993 15.8298 24.17 17.7006 24.17 20.0001C24.17 22.2995 22.2993 24.1703 19.9999 24.1703C19.6739 24.1703 19.3495 24.1327 19.0357 24.0584C18.7167 23.9827 18.3964 24.1804 18.3209 24.4996C18.2454 24.8188 18.4429 25.1389 18.7621 25.2145C19.1655 25.3099 19.5819 25.3583 19.9999 25.3583C22.9546 25.3583 25.3583 22.9545 25.3583 20C25.3583 17.0455 22.9546 14.6417 20 14.6417Z" fill="white"/>
<path d="M20.4199 19.5792C20.2273 19.3873 19.929 19.3506 19.6957 19.49L0.289831 31.0876C0.0667845 31.2208 -0.0436842 31.4836 0.0169407 31.7363C0.0776439 31.9889 0.295378 32.1727 0.554597 32.1902L7.35788 32.6489L7.89366 39.4525C7.91405 39.7106 8.09913 39.9259 8.35131 39.9845C8.39624 39.9949 8.44139 40 8.486 40C8.69241 40 8.88819 39.8921 8.99686 39.7091L20.5114 20.3031C20.6502 20.0693 20.6125 19.7712 20.4199 19.5792ZM8.931 37.4915L8.50202 32.0441C8.47882 31.7503 8.24374 31.5178 7.94967 31.498L2.53046 31.1326L18.294 21.7118L8.931 37.4915Z" fill="white"/>
</svg>
