<svg width="40" height="40" viewBox="0 0 40 40" fill="none" xmlns="http://www.w3.org/2000/svg">
<path d="M35.4589 37.614H4.54106C2.03729 37.614 0 35.5767 0 33.0729V6.85991C0 4.35614 2.03729 2.31885 4.54106 2.31885H35.4589C37.9627 2.31885 40 4.35614 40 6.85991V33.0729C40 35.5767 37.9627 37.614 35.4589 37.614ZM4.54106 3.6715C2.78306 3.6715 1.35266 5.10191 1.35266 6.85991V33.0729C1.35266 34.8309 2.78306 36.2613 4.54106 36.2613H35.4589C37.2169 36.2613 38.6473 34.8309 38.6473 33.0729V6.85991C38.6473 5.10191 37.2169 3.6715 35.4589 3.6715H4.54106Z" fill="white"/>
<path d="M33.8958 27.2883H23.2681C22.8945 27.2883 22.5918 26.9856 22.5918 26.6119C22.5918 26.2387 22.8945 25.9356 23.2681 25.9356H33.8958C34.269 25.9356 34.5721 26.2387 34.5721 26.6119C34.5721 26.9856 34.2694 27.2883 33.8958 27.2883Z" fill="white"/>
<path d="M33.8958 32.1781H23.2681C22.8945 32.1781 22.5918 31.8754 22.5918 31.5017C22.5918 31.1285 22.8945 30.8254 23.2681 30.8254H33.8958C34.269 30.8254 34.5721 31.1285 34.5721 31.5017C34.5721 31.8754 34.2694 32.1781 33.8958 32.1781Z" fill="white"/>
<path d="M33.8958 17.5087H23.2681C22.8945 17.5087 22.5918 17.206 22.5918 16.8323C22.5918 16.4591 22.8945 16.156 23.2681 16.156H33.8958C34.269 16.156 34.5721 16.4591 34.5721 16.8323C34.5721 17.206 34.2694 17.5087 33.8958 17.5087Z" fill="white"/>
<path d="M33.8958 22.3985H23.2681C22.8945 22.3985 22.5918 22.0958 22.5918 21.7222C22.5918 21.3489 22.8945 21.0458 23.2681 21.0458H33.8958C34.269 21.0458 34.5721 21.3489 34.5721 21.7222C34.5721 22.0958 34.2694 22.3985 33.8958 22.3985Z" fill="white"/>
<path d="M39.3237 11.3749H0.676328C0.302687 11.3749 0 11.0722 0 10.6986C0 10.325 0.302687 10.0223 0.676328 10.0223H39.3237C39.6973 10.0223 40 10.325 40 10.6986C40 11.0722 39.6973 11.3749 39.3237 11.3749Z" fill="white"/>
<path d="M9.75011 8.96437C8.58956 8.96437 7.64526 8.02045 7.64526 6.8599C7.64526 5.69935 8.58956 4.75543 9.75011 4.75543C10.9107 4.75543 11.8546 5.69935 11.8546 6.8599C11.8546 8.02045 10.9107 8.96437 9.75011 8.96437ZM9.75011 6.10809C9.33533 6.10809 8.99792 6.4455 8.99792 6.8599C8.99792 7.2743 9.33533 7.61171 9.75011 7.61171C10.1645 7.61171 10.5019 7.2743 10.5019 6.8599C10.5019 6.4455 10.1645 6.10809 9.75011 6.10809Z" fill="white"/>
<path d="M4.87693 8.96437C3.71675 8.96437 2.77246 8.02045 2.77246 6.8599C2.77246 5.69935 3.71675 4.75543 4.87693 4.75543C6.03748 4.75543 6.98178 5.69935 6.98178 6.8599C6.98178 8.02045 6.03748 8.96437 4.87693 8.96437ZM4.87693 6.10809C4.46253 6.10809 4.12512 6.4455 4.12512 6.8599C4.12512 7.2743 4.46253 7.61171 4.87693 7.61171C5.29171 7.61171 5.62912 7.2743 5.62912 6.8599C5.62912 6.4455 5.29171 6.10809 4.87693 6.10809Z" fill="white"/>
<path d="M14.623 8.96437C13.4625 8.96437 12.5186 8.02045 12.5186 6.8599C12.5186 5.69935 13.4625 4.75543 14.623 4.75543C15.7836 4.75543 16.7279 5.69935 16.7279 6.8599C16.7279 8.02045 15.7836 8.96437 14.623 8.96437ZM14.623 6.10809C14.2082 6.10809 13.8712 6.4455 13.8712 6.8599C13.8712 7.2743 14.2086 7.61171 14.623 7.61171C15.0378 7.61171 15.3752 7.2743 15.3752 6.8599C15.3752 6.4455 15.0378 6.10809 14.623 6.10809Z" fill="white"/>
<path d="M18.1641 32.1781H5.89361C5.51997 32.1781 5.21729 31.8754 5.21729 31.5017V16.8323C5.21729 16.4591 5.51997 16.156 5.89361 16.156H18.1641C18.5378 16.156 18.8405 16.4591 18.8405 16.8323V31.5017C18.8405 31.8754 18.5378 32.1781 18.1641 32.1781ZM6.56994 30.8254H17.4878V17.5087H6.56994V30.8254Z" fill="white"/>
</svg>
