<svg xmlns="http://www.w3.org/2000/svg" viewBox="0 0 33.82 31.9"><defs><style>.cls-1{fill:#001e51;}</style></defs><title>dynamics-365-logo</title><g id="Layer_2" data-name="Layer 2"><g id="Layer_1-2" data-name="Layer 1"><path class="cls-1" d="M9.9,6.82l4.19,2.76-3.64,11,12.44-13v6.55l-13,7.16Zm0-1V0L22.42,6.9,18.2,10Z"/><path class="cls-1" d="M2.14,25.81H1.9V24.39c0-.11,0-.25,0-.41h0a1.27,1.27,0,0,1-.06.2l-.72,1.61H1L.29,24.2A1.11,1.11,0,0,1,.23,24h0q0,.13,0,.41v1.41H0V23.7H.33L1,25.17a1.72,1.72,0,0,1,.09.25h0c0-.13.08-.22.1-.26l.66-1.46h.31Z"/><path class="cls-1" d="M2.94,23.77a.15.15,0,0,1,0,.11.15.15,0,0,1-.11,0,.16.16,0,0,1-.11,0,.15.15,0,0,1,0-.11.15.15,0,0,1,0-.11.15.15,0,0,1,.11,0,.16.16,0,0,1,.16.16Zm0,2H2.66v-1.5H2.9Z"/><path class="cls-1" d="M4.4,25.74a.78.78,0,0,1-.41.11.73.73,0,0,1-.37-.09.66.66,0,0,1-.25-.27.82.82,0,0,1-.09-.39.84.84,0,0,1,.21-.6.75.75,0,0,1,.57-.23.77.77,0,0,1,.35.08v.25A.62.62,0,0,0,4,24.47a.48.48,0,0,0-.38.17.63.63,0,0,0-.15.43.59.59,0,0,0,.14.42.48.48,0,0,0,.37.15.61.61,0,0,0,.37-.13Z"/><path class="cls-1" d="M5.54,24.55a.32.32,0,0,0-.44.1A.7.7,0,0,0,5,25v.76H4.76v-1.5H5v.31H5a.54.54,0,0,1,.15-.25.36.36,0,0,1,.24-.09l.14,0Z"/><path class="cls-1" d="M7.13,25a.81.81,0,0,1-.2.58.71.71,0,0,1-.54.22.7.7,0,0,1-.53-.21.79.79,0,0,1-.2-.56.82.82,0,0,1,.2-.59.73.73,0,0,1,.56-.22.67.67,0,0,1,.52.21A.82.82,0,0,1,7.13,25Zm-.25,0a.67.67,0,0,0-.12-.43.44.44,0,0,0-.36-.15.46.46,0,0,0-.37.16.64.64,0,0,0-.13.44.61.61,0,0,0,.14.42.46.46,0,0,0,.37.15.44.44,0,0,0,.36-.15A.65.65,0,0,0,6.88,25.06Z"/><path class="cls-1" d="M8.32,25.4a.39.39,0,0,1-.15.32.62.62,0,0,1-.4.12.74.74,0,0,1-.37-.09v-.26a.6.6,0,0,0,.39.14c.19,0,.29-.07.29-.21A.19.19,0,0,0,8,25.29a1.08,1.08,0,0,0-.25-.14A.76.76,0,0,1,7.48,25a.42.42,0,0,1,.07-.57.57.57,0,0,1,.38-.12.72.72,0,0,1,.32.07v.24a.56.56,0,0,0-.34-.11.3.3,0,0,0-.19.06.19.19,0,0,0-.07.15.2.2,0,0,0,.06.15.83.83,0,0,0,.23.13.85.85,0,0,1,.3.19A.37.37,0,0,1,8.32,25.4Z"/><path class="cls-1" d="M10,25a.81.81,0,0,1-.2.58.71.71,0,0,1-.54.22.7.7,0,0,1-.53-.21.79.79,0,0,1-.2-.56.82.82,0,0,1,.2-.59.73.73,0,0,1,.56-.22.67.67,0,0,1,.52.21A.82.82,0,0,1,10,25Zm-.25,0a.67.67,0,0,0-.12-.43.44.44,0,0,0-.36-.15.46.46,0,0,0-.37.16.64.64,0,0,0-.13.44.61.61,0,0,0,.14.42.46.46,0,0,0,.37.15.44.44,0,0,0,.36-.15A.65.65,0,0,0,9.79,25.06Z"/><path class="cls-1" d="M11.09,23.8a.32.32,0,0,0-.16,0c-.17,0-.25.11-.25.32v.23H11v.2h-.35v1.3h-.24v-1.3h-.25v-.2h.25v-.24a.51.51,0,0,1,.13-.37.45.45,0,0,1,.34-.14.47.47,0,0,1,.17,0Z"/><path class="cls-1" d="M12,25.79a.47.47,0,0,1-.23,0c-.26,0-.39-.15-.39-.44v-.89h-.26v-.2h.26v-.37l.24-.08v.44H12v.2h-.38v.85a.34.34,0,0,0,.05.21.21.21,0,0,0,.17.06.26.26,0,0,0,.16,0Z"/><path class="cls-1" d="M3.47,28.64a2.06,2.06,0,0,1-.26,1,1.74,1.74,0,0,1-.74.69,2.39,2.39,0,0,1-1.1.24H.21V26.76H1.4A2.2,2.2,0,0,1,3,27.24,1.82,1.82,0,0,1,3.47,28.64Zm-.68,0a1.3,1.3,0,0,0-.37-1,1.47,1.47,0,0,0-1-.34H.85v2.75h.52a1.41,1.41,0,0,0,1-.37A1.41,1.41,0,0,0,2.79,28.65Z"/><path class="cls-1" d="M4.22,31.9a1.43,1.43,0,0,1-.38,0v-.53a.74.74,0,0,0,.3.07A.51.51,0,0,0,4.62,31l.19-.44-1.1-2.75h.7l.65,1.94a1.83,1.83,0,0,1,.06.26h0l.07-.26.67-1.94h.63L5.3,30.94a1.76,1.76,0,0,1-.46.73A.92.92,0,0,1,4.22,31.9Z"/><path class="cls-1" d="M8.75,30.61V29.07a1,1,0,0,0-.13-.58.47.47,0,0,0-.42-.19.59.59,0,0,0-.47.21.79.79,0,0,0-.18.53v1.56H6.93V27.86h.62v.44h0a1,1,0,0,1,.89-.51.85.85,0,0,1,.68.28,1.28,1.28,0,0,1,.24.85v1.69Z"/><path class="cls-1" d="M11.61,30.61v-.38h0a.91.91,0,0,1-.81.45.89.89,0,0,1-.64-.22.78.78,0,0,1-.23-.6.85.85,0,0,1,.23-.62,1.11,1.11,0,0,1,.67-.29l.8-.11q0-.56-.52-.56a1.47,1.47,0,0,0-.49.08,1.53,1.53,0,0,0-.42.22V28a1.58,1.58,0,0,1,.45-.17,2.21,2.21,0,0,1,.53-.08,1.06,1.06,0,0,1,.8.28,1.1,1.1,0,0,1,.27.8v1.74Zm-1.09-.81a.35.35,0,0,0,.13.28.5.5,0,0,0,.33.11.6.6,0,0,0,.46-.19.67.67,0,0,0,.18-.48v-.25l-.59.08a.76.76,0,0,0-.39.14A.4.4,0,0,0,10.52,29.8Z"/><path class="cls-1" d="M16.41,30.61V29.06a1,1,0,0,0-.12-.58.48.48,0,0,0-.42-.18.5.5,0,0,0-.41.22.88.88,0,0,0-.17.54v1.54h-.62V29q0-.7-.54-.7a.5.5,0,0,0-.42.21.9.9,0,0,0-.16.55v1.54h-.62V27.86h.62v.42h0a1,1,0,0,1,.87-.49.84.84,0,0,1,.49.14.78.78,0,0,1,.3.4,1.1,1.1,0,0,1,.39-.41,1.06,1.06,0,0,1,.53-.13.83.83,0,0,1,.67.27,1.29,1.29,0,0,1,.23.85v1.7Z"/><path class="cls-1" d="M18.52,26.89a.33.33,0,0,1-.11.25.41.41,0,0,1-.54,0,.33.33,0,0,1-.11-.25.34.34,0,0,1,.11-.26.39.39,0,0,1,.54,0A.35.35,0,0,1,18.52,26.89Zm-.7,3.72V27.86h.62v2.75Z"/><path class="cls-1" d="M21.23,30.5a1.55,1.55,0,0,1-.78.18,1.44,1.44,0,0,1-.71-.17,1.22,1.22,0,0,1-.48-.49,1.46,1.46,0,0,1-.17-.71,1.7,1.7,0,0,1,.18-.79,1.28,1.28,0,0,1,.52-.53,1.6,1.6,0,0,1,.79-.19,1.82,1.82,0,0,1,.36,0,1.08,1.08,0,0,1,.3.1v.59a1.07,1.07,0,0,0-.63-.22.82.82,0,0,0-.63.26,1,1,0,0,0-.24.69.94.94,0,0,0,.23.67.82.82,0,0,0,.63.25,1,1,0,0,0,.32-.06,1.23,1.23,0,0,0,.32-.17Z"/><path class="cls-1" d="M23.52,29.82a.75.75,0,0,1-.3.62,1.25,1.25,0,0,1-.8.24,1.88,1.88,0,0,1-.37,0,1.66,1.66,0,0,1-.35-.11v-.59a1.41,1.41,0,0,0,.38.19,1.2,1.2,0,0,0,.37.07q.45,0,.45-.3a.29.29,0,0,0,0-.17.48.48,0,0,0-.15-.13l-.34-.16a1.68,1.68,0,0,1-.4-.22.67.67,0,0,1-.19-.25.85.85,0,0,1-.06-.34A.74.74,0,0,1,22,28a1.18,1.18,0,0,1,.76-.23l.32,0a1.36,1.36,0,0,1,.29.08v.56a1.09,1.09,0,0,0-.3-.14,1.16,1.16,0,0,0-.34-.05.47.47,0,0,0-.29.08.26.26,0,0,0-.11.21.3.3,0,0,0,.08.23,1.42,1.42,0,0,0,.4.21,1.36,1.36,0,0,1,.54.35A.71.71,0,0,1,23.52,29.82Z"/><path class="cls-1" d="M27.71,29.51a1.06,1.06,0,0,1-.38.85,1.57,1.57,0,0,1-1,.32,2.33,2.33,0,0,1-.53-.06,1.22,1.22,0,0,1-.39-.15v-.61a1.37,1.37,0,0,0,.42.23,1.48,1.48,0,0,0,.49.09.89.89,0,0,0,.58-.17.57.57,0,0,0,.22-.47.54.54,0,0,0-.25-.48,1.31,1.31,0,0,0-.72-.17h-.34v-.51h.32a1.11,1.11,0,0,0,.63-.15.51.51,0,0,0,.22-.45.52.52,0,0,0-.17-.42.74.74,0,0,0-.49-.15,1.21,1.21,0,0,0-.76.28v-.57a1.6,1.6,0,0,1,.42-.16,2.19,2.19,0,0,1,.51-.06,1.43,1.43,0,0,1,.61.12.92.92,0,0,1,.4.34.89.89,0,0,1,.14.48.93.93,0,0,1-.2.62,1.08,1.08,0,0,1-.57.34h0a1.08,1.08,0,0,1,.66.29A.84.84,0,0,1,27.71,29.51Z"/><path class="cls-1" d="M30.92,29.37a1.38,1.38,0,0,1-.16.68,1.17,1.17,0,0,1-.45.47,1.29,1.29,0,0,1-.65.17,1.15,1.15,0,0,1-1-.47,2.12,2.12,0,0,1-.35-1.31,3.06,3.06,0,0,1,.2-1.16,1.72,1.72,0,0,1,.58-.77,1.45,1.45,0,0,1,.87-.27,1.65,1.65,0,0,1,.68.11v.56A1.42,1.42,0,0,0,30,27.2a.88.88,0,0,0-.76.39A1.79,1.79,0,0,0,29,28.65h0a.86.86,0,0,1,.34-.34,1,1,0,0,1,.49-.12,1,1,0,0,1,.8.32A1.24,1.24,0,0,1,30.92,29.37Zm-.63.05a.82.82,0,0,0-.17-.55.59.59,0,0,0-.47-.2.62.62,0,0,0-.47.19.66.66,0,0,0-.18.48,1,1,0,0,0,.08.4.71.71,0,0,0,.23.3.56.56,0,0,0,.34.11.57.57,0,0,0,.46-.2A.82.82,0,0,0,30.29,29.42Z"/><path class="cls-1" d="M31.54,30.52v-.6a1.36,1.36,0,0,0,.77.26,1,1,0,0,0,.63-.2.66.66,0,0,0,.24-.53.6.6,0,0,0-.24-.51,1.14,1.14,0,0,0-.7-.18l-.63,0,.14-2h1.9v.53H32.26l-.06,1h.34a1.33,1.33,0,0,1,.95.31,1.13,1.13,0,0,1,.33.86,1.17,1.17,0,0,1-.38.92,1.51,1.51,0,0,1-1.05.35A1.74,1.74,0,0,1,31.54,30.52Z"/></g></g></svg>