<?xml version="1.0" encoding="utf-8"?>
<!-- Generator: Adobe Illustrator 22.0.1, SVG Export Plug-In . SVG Version: 6.00 Build 0)  -->
<svg version="1.1" id="Layer_1" xmlns="http://www.w3.org/2000/svg" xmlns:xlink="http://www.w3.org/1999/xlink" x="0px" y="0px"
	 viewBox="0 0 245.7 172" style="enable-background:new 0 0 245.7 172;" xml:space="preserve">
<style type="text/css">
	.st0{fill:#45535E;}
	.st1{fill:#F8761F;}
	.st2{fill:#01255B;}
	.st3{fill:#00363D;}
	.st4{fill:#FFC221;}
	.st5{fill:#6E7071;}
	.st6{fill:#FCBA1E;}
	.st7{fill:#DF9026;}
	.st8{fill:#AC722A;}
	.st9{fill:#FFC841;}
	.st10{fill:#00A1E0;}
	.st11{fill:#FFFFFF;}
</style>
<g>
	<path class="st10" d="M102.3,18.8c7.9-8.3,19-13.4,31.2-13.4c16.2,0,30.4,9,37.9,22.5c6.5-2.9,13.8-4.6,21.4-4.6
		c29.3,0,53,23.9,53,53.4c0,29.5-23.7,53.4-53,53.4c-3.6,0-7.1-0.4-10.4-1C175.7,141,163,149,148.5,149c-6.1,0-11.8-1.4-16.9-3.9
		c-6.7,15.8-22.4,26.9-40.7,26.9c-19,0-35.2-12-41.5-28.9c-2.7,0.6-5.5,0.9-8.4,0.9c-22.7,0-41-18.6-41-41.4
		c0-15.3,8.3-28.7,20.5-35.9c-2.5-5.8-3.9-12.2-3.9-19C16.6,21.3,38,0,64.3,0C79.8,0,93.5,7.4,102.3,18.8"/>
	<path class="st11" d="M35.6,89.2c-0.2,0.4,0.1,0.5,0.1,0.6c0.5,0.3,0.9,0.6,1.4,0.8c2.5,1.3,4.9,1.7,7.3,1.7c5,0,8.2-2.7,8.2-7
		v-0.1c0-4-3.5-5.4-6.8-6.5l-0.4-0.1c-2.5-0.8-4.7-1.5-4.7-3.2v-0.1c0-1.4,1.3-2.4,3.2-2.4c2.2,0,4.7,0.7,6.4,1.6
		c0,0,0.5,0.3,0.7-0.2c0.1-0.3,0.9-2.5,1-2.8c0.1-0.3-0.1-0.5-0.2-0.6c-1.9-1.2-4.5-1.9-7.2-1.9l-0.5,0c-4.6,0-7.8,2.8-7.8,6.8V76
		c0,4.2,3.6,5.6,6.9,6.5l0.5,0.2c2.4,0.7,4.5,1.4,4.5,3.1v0.1c0,1.6-1.4,2.7-3.5,2.7c-0.9,0-3.6,0-6.5-1.9c-0.4-0.2-0.6-0.4-0.8-0.5
		c-0.1-0.1-0.5-0.2-0.7,0.2L35.6,89.2L35.6,89.2z"/>
	<path class="st11" d="M109.4,89.2c-0.2,0.4,0.1,0.5,0.1,0.6c0.5,0.3,0.9,0.6,1.4,0.8c2.5,1.3,4.9,1.7,7.3,1.7c5,0,8.2-2.7,8.2-7
		v-0.1c0-4-3.5-5.4-6.8-6.5l-0.4-0.1c-2.5-0.8-4.7-1.5-4.7-3.2v-0.1c0-1.4,1.3-2.4,3.2-2.4c2.2,0,4.7,0.7,6.4,1.6
		c0,0,0.5,0.3,0.7-0.2c0.1-0.3,0.9-2.5,1-2.8c0.1-0.3-0.1-0.5-0.2-0.6c-1.9-1.2-4.5-1.9-7.2-1.9l-0.5,0c-4.6,0-7.8,2.8-7.8,6.8V76
		c0,4.2,3.6,5.6,6.9,6.5l0.5,0.2c2.4,0.7,4.5,1.4,4.5,3.1v0.1c0,1.6-1.4,2.7-3.6,2.7c-0.9,0-3.6,0-6.5-1.9c-0.4-0.2-0.6-0.4-0.8-0.5
		c-0.1-0.1-0.5-0.2-0.7,0.2L109.4,89.2L109.4,89.2z"/>
	<path class="st11" d="M159.8,80.7c0,2.4-0.5,4.4-1.4,5.7c-0.9,1.3-2.2,2-4.1,2c-1.9,0-3.2-0.7-4.1-2c-0.9-1.4-1.3-3.3-1.3-5.7
		c0-2.4,0.4-4.4,1.3-5.7c0.9-1.3,2.2-2,4.1-2c1.9,0,3.2,0.6,4.1,2C159.3,76.4,159.8,78.3,159.8,80.7 M164,76.2
		c-0.4-1.4-1.1-2.6-1.9-3.7c-0.9-1-1.9-1.9-3.2-2.5c-1.3-0.6-2.8-0.9-4.5-0.9c-1.7,0-3.2,0.3-4.5,0.9c-1.3,0.6-2.4,1.4-3.2,2.5
		c-0.9,1-1.5,2.3-1.9,3.7c-0.4,1.4-0.6,2.9-0.6,4.5c0,1.6,0.2,3.1,0.6,4.5c0.4,1.4,1.1,2.6,1.9,3.7c0.9,1,1.9,1.9,3.2,2.4
		c1.3,0.6,2.8,0.9,4.5,0.9c1.7,0,3.2-0.3,4.5-0.9c1.3-0.6,2.4-1.4,3.2-2.4c0.9-1,1.5-2.3,1.9-3.7c0.4-1.4,0.6-2.9,0.6-4.5
		C164.6,79.1,164.4,77.6,164,76.2"/>
	<path class="st11" d="M198.5,87.8c-0.1-0.4-0.5-0.3-0.5-0.3c-0.6,0.2-1.3,0.5-2,0.6c-0.7,0.1-1.5,0.2-2.3,0.2c-2,0-3.7-0.6-4.8-1.8
		c-1.2-1.2-1.8-3.1-1.8-5.8c0-2.4,0.6-4.2,1.6-5.5c1-1.4,2.6-2.1,4.7-2.1c1.7,0,3.1,0.2,4.4,0.6c0,0,0.3,0.1,0.5-0.3
		c0.4-1,0.6-1.8,1-2.9c0.1-0.3-0.2-0.5-0.3-0.5c-0.5-0.2-1.8-0.6-2.8-0.7c-0.9-0.1-2-0.2-3.2-0.2c-1.8,0-3.3,0.3-4.7,0.9
		c-1.3,0.6-2.5,1.4-3.4,2.5c-0.9,1-1.6,2.3-2,3.7c-0.5,1.4-0.7,2.9-0.7,4.5c0,3.5,0.9,6.3,2.8,8.4c1.9,2.1,4.7,3.1,8.3,3.1
		c2.2,0,4.4-0.4,6-1.1c0,0,0.3-0.1,0.2-0.5L198.5,87.8L198.5,87.8z"/>
	<path class="st11" d="M205.9,78.4c0.2-1.4,0.6-2.5,1.2-3.4c0.9-1.3,2.2-2.1,4.1-2.1s3.1,0.7,4,2.1c0.6,0.9,0.8,2.1,0.9,3.4H205.9
		L205.9,78.4z M220.1,75.4c-0.4-1.3-1.2-2.7-1.8-3.3c-0.9-1-1.8-1.7-2.7-2.1c-1.2-0.5-2.6-0.8-4.1-0.8c-1.8,0-3.4,0.3-4.7,0.9
		c-1.3,0.6-2.4,1.5-3.3,2.5c-0.9,1-1.5,2.3-1.9,3.7c-0.4,1.4-0.6,2.9-0.6,4.5c0,1.6,0.2,3.2,0.6,4.5c0.4,1.4,1.1,2.6,2.1,3.6
		c0.9,1,2.1,1.8,3.6,2.4c1.4,0.6,3.2,0.8,5.2,0.8c4.1,0,6.3-0.9,7.2-1.4c0.2-0.1,0.3-0.2,0.1-0.7l-0.9-2.6c-0.1-0.4-0.5-0.2-0.5-0.2
		c-1,0.4-2.5,1.1-5.8,1.1c-2.2,0-3.8-0.7-4.9-1.7c-1.1-1-1.6-2.6-1.7-4.7l14.2,0c0,0,0.4,0,0.4-0.4C220.5,81.4,221,78.6,220.1,75.4
		L220.1,75.4z"/>
	<path class="st11" d="M91.8,78.4C92,77,92.4,75.9,93,75c0.9-1.3,2.2-2.1,4.1-2.1s3.1,0.7,4,2.1c0.6,0.9,0.8,2.1,0.9,3.4H91.8
		L91.8,78.4z M106,75.4c-0.4-1.3-1.2-2.7-1.8-3.3c-0.9-1-1.8-1.7-2.7-2.1c-1.2-0.5-2.6-0.8-4.1-0.8c-1.8,0-3.4,0.3-4.7,0.9
		c-1.3,0.6-2.4,1.5-3.3,2.5c-0.9,1-1.5,2.3-1.9,3.7c-0.4,1.4-0.6,2.9-0.6,4.5c0,1.6,0.2,3.2,0.6,4.5c0.4,1.4,1.1,2.6,2.1,3.6
		c0.9,1,2.1,1.8,3.6,2.4c1.4,0.6,3.2,0.8,5.2,0.8c4.1,0,6.3-0.9,7.2-1.4c0.2-0.1,0.3-0.2,0.1-0.7l-0.9-2.6c-0.1-0.4-0.5-0.2-0.5-0.2
		c-1,0.4-2.5,1.1-5.8,1.1c-2.2,0-3.8-0.7-4.9-1.7c-1.1-1-1.6-2.6-1.7-4.7l14.2,0c0,0,0.4,0,0.4-0.4C106.4,81.4,106.9,78.6,106,75.4
		L106,75.4z"/>
	<path class="st11" d="M61,87.7c-0.6-0.4-0.6-0.6-0.8-0.8c-0.3-0.4-0.4-1.1-0.4-1.9c0-1.3,0.4-2.2,1.3-2.8c0,0,1.2-1.1,4.1-1
		c2,0,3.9,0.3,3.9,0.3v6.5h0c0,0-1.8,0.4-3.8,0.5C62.3,88.7,61,87.7,61,87.7 M66.7,77.7c-0.6,0-1.3-0.1-2.2-0.1
		c-1.2,0-2.4,0.2-3.5,0.5c-1.1,0.3-2.1,0.8-3,1.4c-0.9,0.6-1.6,1.4-2.1,2.3c-0.5,0.9-0.8,2-0.8,3.3c0,1.3,0.2,2.4,0.7,3.3
		c0.4,0.9,1.1,1.6,1.9,2.2c0.8,0.6,1.8,1,2.9,1.3c1.1,0.3,2.4,0.4,3.8,0.4c1.5,0,2.9-0.1,4.3-0.4c1.4-0.2,3.1-0.6,3.6-0.7
		c0.5-0.1,1-0.3,1-0.3c0.4-0.1,0.3-0.5,0.3-0.5l0-13c0-2.9-0.8-5-2.3-6.3c-1.5-1.3-3.7-2-6.5-2c-1.1,0-2.8,0.1-3.8,0.4
		c0,0-3.1,0.6-4.4,1.6c0,0-0.3,0.2-0.1,0.6l1,2.7c0.1,0.4,0.5,0.2,0.5,0.2s0.1,0,0.2-0.1c2.7-1.5,6.2-1.4,6.2-1.4
		c1.5,0,2.7,0.3,3.5,0.9c0.8,0.6,1.2,1.5,1.2,3.4V78C67.8,77.8,66.7,77.7,66.7,77.7"/>
	<path class="st11" d="M181.6,70.4c0.1-0.3-0.1-0.5-0.2-0.5c-0.2-0.1-1.5-0.4-2.4-0.4c-1.8-0.1-2.8,0.2-3.7,0.6
		c-0.9,0.4-1.9,1-2.4,1.8v-1.7c0-0.2-0.2-0.4-0.4-0.4h-3.7c-0.2,0-0.4,0.2-0.4,0.4v21.2c0,0.2,0.2,0.4,0.4,0.4h3.7
		c0.2,0,0.4-0.2,0.4-0.4V80.7c0-1.4,0.2-2.8,0.5-3.7c0.3-0.9,0.7-1.6,1.2-2.1c0.5-0.5,1.1-0.9,1.8-1.1c0.7-0.2,1.4-0.3,1.9-0.3
		c0.7,0,1.6,0.2,1.6,0.2c0.3,0,0.4-0.1,0.5-0.4C180.7,72.7,181.4,70.8,181.6,70.4"/>
	<path class="st11" d="M146.5,60.5c-0.5-0.1-0.9-0.2-1.4-0.3c-0.5-0.1-1.2-0.1-1.9-0.1c-2.6,0-4.6,0.7-6,2.2
		c-1.4,1.4-2.4,3.6-2.9,6.5l-0.2,1h-3.2c0,0-0.4,0-0.5,0.4l-0.5,3c0,0.3,0.1,0.5,0.5,0.5h3.1l-3.2,17.8c-0.2,1.4-0.5,2.6-0.9,3.5
		c-0.3,0.9-0.6,1.5-1,2c-0.4,0.5-0.7,0.8-1.3,1c-0.5,0.2-1.1,0.2-1.7,0.2c-0.3,0-0.8-0.1-1.1-0.1c-0.3-0.1-0.5-0.1-0.8-0.2
		c0,0-0.4-0.1-0.5,0.2c-0.1,0.3-1,2.6-1.1,2.9c-0.1,0.3,0,0.5,0.2,0.6c0.4,0.1,0.7,0.2,1.3,0.4c0.8,0.2,1.5,0.2,2.1,0.2
		c1.3,0,2.5-0.2,3.5-0.5c1-0.4,1.9-1,2.6-1.8c0.8-0.9,1.4-1.9,1.8-3.2c0.5-1.3,0.9-2.9,1.3-4.8l3.2-18.2h4.7c0,0,0.4,0,0.5-0.4
		l0.5-3c0-0.3-0.1-0.5-0.5-0.5h-4.6c0-0.1,0.2-1.7,0.8-3.2c0.2-0.6,0.6-1.2,1-1.5c0.4-0.4,0.8-0.6,1.2-0.7c0.5-0.1,1-0.2,1.5-0.2
		c0.4,0,0.9,0,1.2,0.1c0.4,0.1,0.6,0.1,0.7,0.2c0.5,0.1,0.5,0,0.6-0.2l1.1-3C146.8,60.7,146.5,60.6,146.5,60.5"/>
	<path class="st11" d="M82.8,91.3c0,0.2-0.2,0.4-0.4,0.4h-3.8c-0.2,0-0.4-0.2-0.4-0.4V60.9c0-0.2,0.2-0.4,0.4-0.4h3.8
		c0.2,0,0.4,0.2,0.4,0.4V91.3L82.8,91.3z"/>
</g>
</svg>
