<svg xmlns="http://www.w3.org/2000/svg" viewBox="0 0 32.47 29.17"><defs><style>.cls-1{fill:#036c70;}.cls-2{fill:#1a9ba1;}.cls-3{fill:#37c6d0;}.cls-4{opacity:0.1;}.cls-4,.cls-5{isolation:isolate;}.cls-5{opacity:0.2;}.cls-6{fill:#03787c;}.cls-7{fill:#fff;}.cls-8{fill:#04777e;}</style></defs><title>sharepoint-logo-vertical</title><g id="Layer_2" data-name="Layer 2"><g id="Layer_1-2" data-name="Layer 1"><g id="STYLE_COLOR" data-name="STYLE COLOR"><circle class="cls-1" cx="15.56" cy="6.42" r="6.42"/><circle class="cls-2" cx="21.55" cy="12.07" r="5.49"/><circle class="cls-3" cx="16.24" cy="17.22" r="4.39"/><path class="cls-4" d="M16.69,4.73H9.37a6.42,6.42,0,0,0,6.19,8.1,4.48,4.48,0,0,0,.55,0v0a4.39,4.39,0,0,0-4.27,4.39q0,.17,0,.34h4.84a.9.9,0,0,0,.9-.9v-11A.9.9,0,0,0,16.69,4.73Z"/><path class="cls-5" d="M16,5.4H9.23a6.42,6.42,0,0,0,6.33,7.43,4.48,4.48,0,0,0,.55,0v0A4.39,4.39,0,0,0,12,18.24H16a.9.9,0,0,0,.9-.9V6.3A.9.9,0,0,0,16,5.4Z"/><path class="cls-5" d="M16,5.4H9.23a6.42,6.42,0,0,0,6.33,7.43,4.48,4.48,0,0,0,.55,0v0a4.39,4.39,0,0,0-4.26,4.05H16a.9.9,0,0,0,.9-.9V6.3A.9.9,0,0,0,16,5.4Z"/><path class="cls-5" d="M15.34,5.4H9.23a6.42,6.42,0,0,0,6.33,7.43,4.48,4.48,0,0,0,.55,0v0a4.39,4.39,0,0,0-4.26,4.05h3.48a.9.9,0,0,0,.9-.9V6.3A.9.9,0,0,0,15.34,5.4Z"/><path id="Back_Plate" data-name="Back Plate" class="cls-6" d="M6.33,5.4h9a.9.9,0,0,1,.9.9v9a.9.9,0,0,1-.9.9h-9a.9.9,0,0,1-.9-.9v-9A.9.9,0,0,1,6.33,5.4Z"/><path class="cls-7" d="M9.26,10.68a1.8,1.8,0,0,1-.55-.59,1.59,1.59,0,0,1-.19-.81,1.55,1.55,0,0,1,.36-1,2.12,2.12,0,0,1,1-.63,4.05,4.05,0,0,1,1.31-.2,5,5,0,0,1,1.72.24V8.88a2.7,2.7,0,0,0-.78-.32,3.78,3.78,0,0,0-.9-.11,2,2,0,0,0-.94.2.62.62,0,0,0-.37.56.57.57,0,0,0,.16.4,1.43,1.43,0,0,0,.42.3l.8.35.11,0a6.55,6.55,0,0,1,1,.5,1.8,1.8,0,0,1,.59.59,1.73,1.73,0,0,1,.22.9,1.67,1.67,0,0,1-.34,1.09,1.88,1.88,0,0,1-.9.61,4.08,4.08,0,0,1-1.28.18,6.75,6.75,0,0,1-1.16-.09,4,4,0,0,1-.95-.27V12.53a3,3,0,0,0,1,.45,3.72,3.72,0,0,0,1.05.17,1.8,1.8,0,0,0,1-.2.64.64,0,0,0,.32-.57.61.61,0,0,0-.18-.45,1.83,1.83,0,0,0-.5-.35q-.32-.16-.94-.42A5.31,5.31,0,0,1,9.26,10.68Z"/></g><path class="cls-8" d="M0,28.9v-.81a1.25,1.25,0,0,0,.26.18,2,2,0,0,0,.32.13l.34.08.31,0A1.33,1.33,0,0,0,2,28.35a.55.55,0,0,0,.24-.48.52.52,0,0,0-.08-.29.85.85,0,0,0-.23-.23,2.39,2.39,0,0,0-.34-.2L1.14,27l-.45-.26a1.93,1.93,0,0,1-.36-.29A1.23,1.23,0,0,1,.09,26,1.18,1.18,0,0,1,0,25.57,1.09,1.09,0,0,1,.15,25a1.27,1.27,0,0,1,.41-.41,1.82,1.82,0,0,1,.56-.24,2.67,2.67,0,0,1,.64-.08,2.61,2.61,0,0,1,1.09.17v.78a1.74,1.74,0,0,0-1-.29,1.86,1.86,0,0,0-.35,0,1,1,0,0,0-.32.1.67.67,0,0,0-.22.19.48.48,0,0,0-.09.29.55.55,0,0,0,.07.28.71.71,0,0,0,.19.21,2,2,0,0,0,.31.19l.43.2a2.51,2.51,0,0,1,.47.27,2.22,2.22,0,0,1,.39.32,1.39,1.39,0,0,1,.26.38,1.22,1.22,0,0,1-.44,1.49,1.74,1.74,0,0,1-.58.23,3.22,3.22,0,0,1-.68.07l-.29,0L.6,29.09.27,29A1.09,1.09,0,0,1,0,28.9Z"/><path class="cls-8" d="M6.78,29.09H6V27.23q0-1-.67-1a.7.7,0,0,0-.58.29,1.16,1.16,0,0,0-.23.75v1.82H3.75v-5h.78v2.19h0a1.21,1.21,0,0,1,1.11-.64q1.13,0,1.13,1.38Z"/><path class="cls-8" d="M10.29,29.09H9.55v-.53h0a1.12,1.12,0,0,1-1,.61,1.08,1.08,0,0,1-.78-.27,1,1,0,0,1-.29-.72q0-1,1.11-1.12l1-.14a.62.62,0,0,0-.7-.71,1.64,1.64,0,0,0-1.09.42v-.69A2.38,2.38,0,0,1,9,25.62a1.13,1.13,0,0,1,1.29,1.26Zm-.74-1.67-.71.1a1.13,1.13,0,0,0-.5.16.47.47,0,0,0-.17.41.45.45,0,0,0,.15.35.6.6,0,0,0,.41.14.76.76,0,0,0,.58-.25.87.87,0,0,0,.23-.62Z"/><path class="cls-8" d="M13.14,26.43a.64.64,0,0,0-.4-.11.69.69,0,0,0-.58.31,1.38,1.38,0,0,0-.23.84v1.62h-.76V25.7h.77v.7h0a1.18,1.18,0,0,1,.35-.56.78.78,0,0,1,.52-.2.65.65,0,0,1,.32.06Z"/><path class="cls-8" d="M16.56,27.6H14.24a1,1,0,0,0,.29.73,1.08,1.08,0,0,0,.76.26,1.68,1.68,0,0,0,1-.32v.62a2.28,2.28,0,0,1-1.23.29,1.52,1.52,0,0,1-1.16-.46,1.85,1.85,0,0,1-.43-1.3,1.81,1.81,0,0,1,.47-1.29,1.53,1.53,0,0,1,1.16-.5,1.34,1.34,0,0,1,1.08.45,1.86,1.86,0,0,1,.38,1.24Zm-.74-.54a1,1,0,0,0-.19-.64.65.65,0,0,0-.53-.23.75.75,0,0,0-.56.24,1.11,1.11,0,0,0-.29.63Z"/><path class="cls-8" d="M18.14,27.36v1.72h-.79V24.34H18.8a1.91,1.91,0,0,1,1.27.38,1.33,1.33,0,0,1,.45,1.07A1.49,1.49,0,0,1,20,26.93a1.79,1.79,0,0,1-1.28.44Zm0-2.38v1.74h.51a1.13,1.13,0,0,0,.77-.23.84.84,0,0,0,.26-.66q0-.84-1-.84Z"/><path class="cls-8" d="M22.61,29.17a1.68,1.68,0,0,1-1.25-.48,1.72,1.72,0,0,1-.49-1.26,1.67,1.67,0,0,1,1.82-1.81,1.63,1.63,0,0,1,1.24.47,1.8,1.8,0,0,1,.44,1.3,1.78,1.78,0,0,1-.48,1.3A1.72,1.72,0,0,1,22.61,29.17Zm0-2.94a.87.87,0,0,0-.71.32,1.32,1.32,0,0,0-.26.87,1.24,1.24,0,0,0,.26.84.89.89,0,0,0,.71.31.84.84,0,0,0,.7-.29,1.33,1.33,0,0,0,.24-.87,1.35,1.35,0,0,0-.24-.87.84.84,0,0,0-.7-.3Z"/><path class="cls-8" d="M25.48,25a.46.46,0,0,1-.32-.12.4.4,0,0,1-.13-.31.41.41,0,0,1,.13-.32.46.46,0,0,1,.32-.12.47.47,0,0,1,.33.12.41.41,0,0,1,.14.32.41.41,0,0,1-.14.31A.46.46,0,0,1,25.48,25Zm.38,4.1h-.77V25.7h.77Z"/><path class="cls-8" d="M29.81,29.09H29V27.18q0-1-.67-1a.73.73,0,0,0-.58.26,1,1,0,0,0-.23.66v1.93h-.77V25.7h.77v.56h0a1.21,1.21,0,0,1,1.11-.64,1,1,0,0,1,.84.36,1.62,1.62,0,0,1,.29,1Z"/><path class="cls-8" d="M32.47,29.05a1.33,1.33,0,0,1-.58.11q-1,0-1-.95V26.3h-.58v-.6h.58v-.79l.77-.22v1h.8v.6h-.81V28a.67.67,0,0,0,.11.43.45.45,0,0,0,.37.13.53.53,0,0,0,.34-.11Z"/></g></g></svg>