<svg width="50" height="50" viewBox="0 0 50 50" fill="none" xmlns="http://www.w3.org/2000/svg">
<g clip-path="url(#clip0)">
<path d="M41.2354 24.704C41.2354 26.087 42.3605 27.2121 43.7435 27.2121C44.1689 27.2121 44.5698 27.1053 44.9212 26.9176L45.5931 27.5895C45.736 27.7325 45.9235 27.804 46.1109 27.804C46.2983 27.804 46.4858 27.7326 46.6288 27.5895C46.9148 27.3035 46.9148 26.8397 46.6288 26.5537L45.9569 25.8819C46.1446 25.5305 46.2515 25.1296 46.2515 24.7041C46.2515 23.3211 45.1264 22.196 43.7434 22.196C42.3604 22.196 41.2354 23.3211 41.2354 24.704ZM44.7867 24.704C44.7867 24.9771 44.6805 25.2252 44.5081 25.4114C44.498 25.4204 44.4877 25.4289 44.478 25.4386C44.4684 25.4483 44.4599 25.4586 44.4508 25.4688C44.2647 25.6411 44.0165 25.7474 43.7435 25.7474C43.1682 25.7474 42.7002 25.2794 42.7002 24.7041C42.7002 24.1289 43.1682 23.6609 43.7435 23.6609C44.3188 23.6609 44.7867 24.1289 44.7867 24.704Z" fill="#7CCCDB"/>
<path d="M49.2676 19.039H47.2627C46.8582 19.039 46.5303 19.3669 46.5303 19.7714C46.5303 20.1759 46.8582 20.5038 47.2627 20.5038H48.5352V29.496H42.994C42.9918 29.496 42.9896 29.496 42.9873 29.496H39.543V20.5038H43.0012C43.002 20.5038 43.0027 20.504 43.0035 20.504C43.0044 20.504 43.0054 20.5038 43.0062 20.5038H43.8447C44.2492 20.5038 44.5771 20.1759 44.5771 19.7714C44.5771 19.3669 44.2492 19.039 43.8447 19.039H43.5447C42.3404 15.298 39.9754 11.9391 36.8393 9.53478C33.4502 6.93654 29.3968 5.55021 25.1172 5.5254C25.034 5.52345 25.1175 5.5254 24.8829 5.5254C21.3919 5.5463 17.973 6.50119 14.9954 8.28683C14.6485 8.49484 14.5359 8.94474 14.7439 9.29171C14.952 9.63859 15.4018 9.75128 15.7488 9.54318C17.1177 8.72228 18.5877 8.09171 20.1167 7.66242C18.6474 9.04279 17.376 11.0427 16.4062 13.5149H11.128C11.7289 12.7907 12.3865 12.1093 13.1011 11.4805C13.4048 11.2132 13.4343 10.7504 13.1671 10.4468C12.8999 10.1432 12.437 10.1135 12.1334 10.3808C9.48164 12.7144 7.52686 15.6988 6.45479 19.039H0.732422C0.32793 19.039 0 19.3669 0 19.7714V30.2284C0 30.6329 0.32793 30.9609 0.732422 30.9609H6.45527C7.65957 34.7019 10.0246 38.0608 13.1607 40.4651C16.5498 43.0633 20.6031 44.4496 24.8829 44.4744C24.9209 44.4747 24.9398 44.4765 25.1172 44.4744C29.3969 44.4496 33.4503 43.0633 36.8394 40.4651C39.9755 38.0608 42.3405 34.7019 43.5448 30.9609H49.2676C49.6721 30.9609 50 30.6329 50 30.2284V19.7714C50 19.3669 49.6721 19.039 49.2676 19.039ZM38.8105 19.039H35.0983C34.8507 17.5959 34.5193 16.2375 34.1151 14.9796H39.9579C40.7991 16.2256 41.4896 17.5864 41.9997 19.039H38.8105ZM16.3892 19.039C16.6512 17.5872 17.0044 16.2262 17.4339 14.9796H24.2676V19.039H16.3892ZM25.7324 14.9797H32.5662C32.9956 16.2263 33.3488 17.5873 33.6108 19.0391H25.7324V14.9797ZM25.7324 7.04962C28.1906 7.45089 30.4495 9.85597 32.0046 13.5149H25.7324V7.04962ZM38.8562 13.5149H33.5939C32.6282 11.0524 31.3634 9.0588 29.9022 7.67892C33.4092 8.68273 36.5365 10.7359 38.8562 13.5149ZM24.2676 7.0504V13.5149H17.9956C19.55 9.85861 21.8078 7.45431 24.2676 7.0504ZM10.0327 14.9797H15.885C15.4807 16.2375 15.1494 17.596 14.9017 19.0391H8.00195C8.50586 17.6006 9.18838 16.2381 10.0327 14.9797ZM8.77539 29.4961H1.46484V20.5039H38.0781V29.4961H12.1934C11.7889 29.4961 11.4609 29.824 11.4609 30.2285C11.4609 30.633 11.7889 30.961 12.1934 30.961H14.9017C15.1493 32.404 15.4807 33.7624 15.8849 35.0203H10.0421C9.20088 33.7743 8.51035 32.4135 8.00029 30.961H8.77529C9.17979 30.961 9.50772 30.633 9.50772 30.2285C9.50772 29.824 9.17988 29.4961 8.77539 29.4961ZM24.2676 36.4851V42.9503C21.8094 42.549 19.5505 40.144 17.9954 36.4851H24.2676ZM17.4338 35.0202C17.0044 33.7736 16.6512 32.4126 16.3892 30.9609H24.2676V35.0202H17.4338ZM25.7324 42.9495V36.4851H32.0044C30.45 40.1413 28.1922 42.5456 25.7324 42.9495ZM25.7324 35.0202V30.961H33.6108C33.3488 32.4127 32.9956 33.7737 32.5661 35.0203H25.7324V35.0202ZM11.1438 36.4851H16.4061C17.3718 38.9476 18.6366 40.9411 20.0978 42.321C16.5908 41.3172 13.4635 39.2641 11.1438 36.4851ZM29.8998 42.3217C31.3621 40.9418 32.6276 38.948 33.5938 36.4851H38.8562C36.536 39.2648 33.4078 41.3181 29.8998 42.3217ZM39.9578 35.0202H34.115C34.5193 33.7624 34.8506 32.4039 35.0983 30.9609H38.8105H41.9997C41.4896 32.4135 40.799 33.7742 39.9578 35.0202Z" fill="#2855AF"/>
</g>
<defs>
<clipPath id="clip0">
<rect width="50" height="50" fill="white"/>
</clipPath>
</defs>
</svg>
