<svg width="50" height="50" viewBox="0 0 50 50" fill="none" xmlns="http://www.w3.org/2000/svg">
<g clip-path="url(#clip0)">
<path d="M48.7806 45.1208H44.4741V17.6325C44.4741 16.9602 43.9271 16.4131 43.2547 16.4131H40.4724C40.0683 16.4131 39.7407 16.7406 39.7407 17.1447C39.7407 17.5488 40.0683 17.8764 40.4724 17.8764H43.0108V45.1208H36.0609V17.8764H37.0319C37.436 17.8764 37.7636 17.5488 37.7636 17.1447C37.7636 16.7406 37.436 16.4131 37.0319 16.4131H35.8171C35.1447 16.4131 34.5977 16.9602 34.5977 17.6325V45.1209H29.9384V26.8956C29.9384 26.2232 29.3913 25.6762 28.7189 25.6762H21.2812C20.6089 25.6762 20.0618 26.2232 20.0618 26.8956V45.1208H15.4024V34.8979C15.4024 34.2255 14.8554 33.6784 14.183 33.6784H6.74541C6.07305 33.6784 5.52598 34.2255 5.52598 34.8979V38.1698C5.52598 38.5739 5.85352 38.9015 6.25762 38.9015C6.66172 38.9015 6.98926 38.5739 6.98926 38.1698V35.1418H13.9391V45.1209H6.98926V41.5723C6.98926 41.1682 6.66172 40.8406 6.25762 40.8406C5.85352 40.8406 5.52598 41.1682 5.52598 41.5723V45.1209H1.21943C0.54707 45.1208 0 45.6679 0 46.3403V48.6734C0 49.3458 0.54707 49.8929 1.21943 49.8929H48.7806C49.4529 49.8929 50 49.3458 50 48.6734V46.3403C50 45.6679 49.4529 45.1208 48.7806 45.1208ZM21.5251 27.1395H28.475V45.1209H21.5251V27.1395ZM48.5366 48.4296H1.46338V46.5843H6.25772H14.6709H20.7936H29.2067H35.3293H43.7425H48.5367V48.4296H48.5366Z" fill="#2855AF"/>
<path d="M6.07968 26.8996L5.66112 29.3399C5.54442 30.0204 5.81894 30.6951 6.37743 31.1008C6.69306 31.3301 7.06229 31.4467 7.43397 31.4467C7.72011 31.4467 8.00771 31.3776 8.27353 31.238L10.465 30.0858L12.6565 31.238C13.2675 31.5591 13.9939 31.5066 14.5526 31.1009C15.1111 30.6951 15.3856 30.0203 15.2689 29.3399L14.8504 26.8996L16.6233 25.1714C17.1177 24.6895 17.2923 23.9823 17.079 23.3258C16.8656 22.6691 16.3088 22.1996 15.6256 22.1003L13.1754 21.7442L12.0797 19.524C11.7741 18.9049 11.1555 18.5204 10.465 18.5204C9.7747 18.5204 9.15605 18.905 8.85058 19.524L7.75487 21.7442L5.30458 22.1003C4.62138 22.1996 4.06454 22.669 3.85116 23.3258C3.63788 23.9824 3.81239 24.6895 4.30673 25.1713L6.07968 26.8996ZM5.24286 23.7779C5.26239 23.7179 5.32782 23.5757 5.51503 23.5484L8.07714 23.176C8.48368 23.1172 8.83495 22.8619 9.01688 22.4934L10.1628 20.1717C10.2465 20.002 10.402 19.9837 10.465 19.9837C10.528 19.9837 10.6836 20.0019 10.7674 20.1717L11.9133 22.4933C12.0951 22.8618 12.4464 23.1171 12.8528 23.176L15.4151 23.5484C15.6023 23.5757 15.6678 23.7179 15.6873 23.7779C15.7068 23.8379 15.7375 23.9915 15.6019 24.1234L13.748 25.9306C13.4537 26.2173 13.3195 26.6303 13.3891 27.0352L13.8267 29.5872C13.8587 29.7736 13.7435 29.8799 13.6926 29.917C13.6415 29.954 13.5048 30.0307 13.3376 29.9425L11.0458 28.7377C10.864 28.6421 10.6644 28.5943 10.465 28.5943C10.2656 28.5943 10.0661 28.6422 9.88427 28.7377L7.59247 29.9425C7.42499 30.0306 7.28847 29.954 7.23749 29.917C7.18651 29.8798 7.07138 29.7736 7.10331 29.5872L7.54101 27.0353C7.61054 26.6303 7.47626 26.2174 7.18222 25.9307L5.32812 24.1235C5.19267 23.9915 5.22333 23.8379 5.24286 23.7779Z" fill="#7CCCDB"/>
<path d="M20.615 17.9976L20.1964 20.438C20.0797 21.1184 20.3541 21.7931 20.9126 22.1989C21.2283 22.4282 21.5975 22.5447 21.9693 22.5447C22.2554 22.5447 22.543 22.4756 22.8088 22.336L25.0003 21.1838L27.1918 22.336C27.8029 22.6574 28.5294 22.6047 29.0881 22.1989C29.6466 21.7931 29.921 21.1183 29.8043 20.438L29.3857 17.9976L31.1587 16.2694C31.6531 15.7875 31.8276 15.0803 31.6143 14.4238C31.401 13.7671 30.8441 13.2977 30.1608 13.1984L27.7107 12.8423L26.6149 10.622C26.3093 10.003 25.6907 9.61841 25.0003 9.61841C24.31 9.61841 23.6914 10.003 23.3858 10.622L22.2901 12.8423L19.8398 13.1984C19.1567 13.2977 18.5998 13.7671 18.3864 14.4238C18.173 15.0802 18.3475 15.7875 18.8419 16.2695L20.615 17.9976ZM19.7781 14.8759C19.7976 14.816 19.863 14.6738 20.0502 14.6465L22.6127 14.2742C23.0192 14.215 23.3703 13.9599 23.5521 13.5916L24.698 11.2697C24.7817 11.1 24.9373 11.0818 25.0002 11.0818C25.0632 11.0818 25.2188 11.1 25.3025 11.2697L26.4486 13.5918C26.6303 13.96 26.9815 14.215 27.388 14.2742L29.9503 14.6465C30.1375 14.6738 30.203 14.8162 30.2225 14.876C30.2419 14.936 30.2726 15.0895 30.1371 15.2215L28.283 17.0289C27.989 17.3156 27.8549 17.7284 27.9243 18.1333L28.362 20.6853C28.3939 20.8717 28.2788 20.978 28.2278 21.015C28.1768 21.0519 28.0401 21.1289 27.8727 21.0406L25.581 19.8358C25.3993 19.7402 25.1997 19.6923 25.0002 19.6923C24.8008 19.6923 24.6013 19.7402 24.4195 19.8357L22.1277 21.0406C21.9601 21.1288 21.8236 21.0519 21.7727 21.015C21.7217 20.978 21.6067 20.8717 21.6386 20.6853L22.0763 18.1333C22.1457 17.7286 22.0117 17.3157 21.7174 17.0288L19.8633 15.2216C19.728 15.0895 19.7586 14.936 19.7781 14.8759Z" fill="#7CCCDB"/>
<path d="M35.1501 8.48625L34.7315 10.9266C34.6147 11.607 34.8892 12.2818 35.4477 12.6875C36.0063 13.0933 36.7327 13.1457 37.3439 12.8246L39.5354 11.6725L41.7269 12.8246C41.9928 12.9643 42.2804 13.0333 42.5666 13.0333C42.9384 13.0333 43.3076 12.9168 43.6231 12.6875C44.1817 12.2818 44.4561 11.607 44.3393 10.9266L43.9208 8.48625L45.6937 6.75803C46.1882 6.2762 46.3627 5.56897 46.1494 4.91252C45.9361 4.25588 45.3792 3.78635 44.696 3.68704L42.2458 3.33088L41.15 1.11067C40.8444 0.491626 40.2258 0.107056 39.5354 0.107056C38.8451 0.107056 38.2265 0.491626 37.9209 1.11067L36.8251 3.33088L34.375 3.68704C33.6918 3.78625 33.1349 4.25579 32.9215 4.91243C32.7082 5.56887 32.8827 6.2762 33.377 6.75803L35.1501 8.48625ZM34.3133 5.36467C34.3327 5.30471 34.3981 5.16243 34.5854 5.13518L37.1475 4.76282C37.5543 4.70383 37.9057 4.44866 38.0873 4.0802L39.2332 1.75842C39.317 1.58879 39.4725 1.57053 39.5354 1.57053C39.5983 1.57053 39.7541 1.58879 39.8377 1.75842L40.9837 4.0803C41.1655 4.44866 41.5169 4.70393 41.9231 4.76282L44.4855 5.13518C44.6727 5.16243 44.7383 5.30481 44.7577 5.36467C44.7771 5.42463 44.8078 5.57815 44.6724 5.71018L42.8182 7.5176C42.5242 7.80432 42.39 8.21711 42.4594 8.62209L42.8971 11.1739C42.929 11.3605 42.8139 11.4667 42.7629 11.5037C42.712 11.5408 42.5753 11.6175 42.4078 11.5293L40.1161 10.3245C39.9343 10.2289 39.7348 10.1811 39.5353 10.1811C39.3358 10.1811 39.1364 10.2289 38.9547 10.3244L36.6629 11.5293C36.4955 11.6175 36.3588 11.5406 36.3078 11.5037C36.2568 11.4666 36.1418 11.3605 36.1736 11.1739L36.6113 8.62229C36.6809 8.21741 36.5468 7.80452 36.2525 7.5175L34.3984 5.71018C34.263 5.57815 34.2937 5.42454 34.3133 5.36467Z" fill="#7CCCDB"/>
</g>
<defs>
<clipPath id="clip0">
<rect width="50" height="50" fill="white"/>
</clipPath>
</defs>
</svg>
