<svg width="50" height="50" viewBox="0 0 50 50" fill="none" xmlns="http://www.w3.org/2000/svg">
<path d="M31.0176 26.8753V24.4835C31.0108 23.0269 30.4273 21.6322 29.3949 20.6045C28.3624 19.5769 26.965 19 25.5083 19C24.0516 19 22.6542 19.5769 21.6218 20.6045C20.5893 21.6322 20.0058 23.0269 19.999 24.4835V26.8753C20.0058 28.332 20.5893 29.7267 21.6218 30.7543C22.6542 31.7819 24.0516 32.3589 25.5083 32.3589C26.965 32.3589 28.3624 31.7819 29.3949 30.7543C30.4273 29.7267 31.0108 28.332 31.0176 26.8753ZM21.4506 26.8753V24.4835C21.4565 23.4112 21.8866 22.3848 22.6469 21.6286C23.4072 20.8724 24.436 20.448 25.5083 20.448C26.5807 20.448 27.6094 20.8724 28.3697 21.6286C29.1301 22.3848 29.5601 23.4112 29.566 24.4835V26.8753C29.5601 27.9476 29.1301 28.9741 28.3697 29.7302C27.6094 30.4864 26.5807 30.9109 25.5083 30.9109C24.436 30.9109 23.4072 30.4864 22.6469 29.7302C21.8866 28.9741 21.4565 27.9476 21.4506 26.8753Z" fill="#7CCCDB"/>
<path d="M16.6292 47.3336H34.3899C34.5824 47.3336 34.767 47.2571 34.9031 47.121C35.0393 46.9849 35.1157 46.8002 35.1157 46.6078V44.9418H47.2742C47.4667 44.9418 47.6513 44.8653 47.7874 44.7292C47.9235 44.5931 48 44.4085 48 44.216V39.505C47.9992 38.1227 47.4722 36.7925 46.5262 35.7847C45.5801 34.7768 44.2858 34.1669 42.9063 34.0789C42.5192 34.0505 42.3202 34.2955 42.1588 34.4923C41.8377 34.8847 41.4313 35.1985 40.9705 35.41C40.5097 35.6214 40.0068 35.7249 39.4999 35.7126C38.9931 35.7002 38.4958 35.5723 38.0459 35.3386C37.5959 35.1049 37.2053 34.7715 36.9037 34.364C36.8345 34.2702 36.7436 34.1945 36.6388 34.1433C36.5341 34.092 36.4185 34.0668 36.3019 34.0697C35.3591 34.0909 34.4384 34.3595 33.6321 34.8486C33.0997 34.2296 32.4486 33.7237 31.7171 33.3609C30.9857 32.9981 30.1889 32.7858 29.374 32.7366C28.999 32.7214 28.8093 32.949 28.6256 33.1721C28.2488 33.6325 27.7719 34.0009 27.2312 34.2491C26.6905 34.4973 26.1002 34.6187 25.5055 34.6042C24.9107 34.5897 24.3271 34.4395 23.7991 34.1653C23.2712 33.891 22.8128 33.4998 22.459 33.0215C22.3898 32.9276 22.299 32.8518 22.1942 32.8006C22.0894 32.7493 21.9738 32.7242 21.8572 32.7273C20.2655 32.7641 18.7518 33.4244 17.6421 34.566C17.5504 34.6598 17.4634 34.7569 17.3786 34.8555C16.6291 34.3992 15.7797 34.1326 14.904 34.0786C14.5182 34.0502 14.3177 34.2953 14.1565 34.4921C13.8354 34.8844 13.429 35.1983 12.9682 35.4097C12.5074 35.6212 12.0045 35.7247 11.4976 35.7123C10.9908 35.6999 10.4935 35.572 10.0436 35.3383C9.5937 35.1046 9.20309 34.7713 8.90153 34.3638C8.83214 34.2701 8.74124 34.1944 8.63651 34.1432C8.53178 34.092 8.41627 34.0667 8.29972 34.0694C6.882 34.1055 5.53447 34.694 4.54444 35.7094C3.5544 36.7248 3.0002 38.0868 3 39.505V44.216C3 44.4085 3.07647 44.5931 3.21258 44.7292C3.3487 44.8653 3.53331 44.9418 3.72581 44.9418H15.9034V46.6078C15.9034 46.8002 15.9799 46.9849 16.116 47.121C16.2521 47.2571 16.4367 47.3336 16.6292 47.3336ZM35.992 35.5443C36.4395 36.0522 36.9897 36.4593 37.6062 36.7388C38.2227 37.0182 38.8915 37.1637 39.5684 37.1654C40.2453 37.1672 40.9149 37.0253 41.5329 36.7491C42.1509 36.4728 42.7032 36.0686 43.1533 35.563C44.0971 35.7054 44.9587 36.1814 45.5816 36.9047C46.2045 37.6279 46.5475 38.5505 46.5484 39.505V43.4902H35.1157V38.834C35.1165 37.8674 34.8865 36.9147 34.445 36.0549C34.9192 35.7783 35.4463 35.6044 35.992 35.5443ZM21.5444 34.2009C22.0462 34.7819 22.667 35.2483 23.3647 35.5686C24.0623 35.8889 24.8207 36.0556 25.5884 36.0574C26.3561 36.0592 27.1152 35.8961 27.8144 35.5792C28.5136 35.2622 29.1366 34.7987 29.6412 34.2202C30.7557 34.3743 31.7768 34.9263 32.5163 35.7742C33.2557 36.6222 33.6636 37.7089 33.6646 38.834V45.8819H17.355V38.834C17.3622 37.682 17.7933 36.5729 18.5659 35.7184C19.3386 34.8638 20.3989 34.3237 21.5444 34.2009ZM4.45161 43.4902V39.505C4.45775 38.5271 4.8207 37.5851 5.47231 36.8559C6.12392 36.1267 7.01934 35.6604 7.9904 35.5448C8.43788 36.0525 8.98802 36.4595 9.60446 36.7388C10.2209 37.0182 10.8896 37.1635 11.5664 37.1653C12.2432 37.167 12.9126 37.0251 13.5305 36.7489C14.1483 36.4727 14.7005 36.0685 15.1506 35.563C15.6503 35.6377 16.1312 35.8074 16.5671 36.0629C16.1295 36.921 15.902 37.8708 15.9034 38.834V43.4902H4.45161Z" fill="#2855AF"/>
<path d="M44.4134 29.0375V26.9439C44.4134 25.6409 43.8958 24.3914 42.9745 23.47C42.0531 22.5487 40.8036 22.0311 39.5006 22.0311C38.1977 22.0311 36.9481 22.5487 36.0268 23.47C35.1055 24.3914 34.5879 25.6409 34.5879 26.9439V29.0375C34.5879 30.3404 35.1055 31.59 36.0268 32.5113C36.9481 33.4326 38.1977 33.9502 39.5006 33.9502C40.8036 33.9502 42.0531 33.4326 42.9745 32.5113C43.8958 31.59 44.4134 30.3404 44.4134 29.0375ZM36.0395 29.0375V26.9439C36.0395 26.0259 36.4042 25.1456 37.0532 24.4965C37.7023 23.8474 38.5827 23.4827 39.5006 23.4827C40.4186 23.4827 41.2989 23.8474 41.948 24.4965C42.5971 25.1456 42.9618 26.0259 42.9618 26.9439V29.0375C42.9618 29.9554 42.5971 30.8358 41.948 31.4848C41.2989 32.1339 40.4186 32.4986 39.5006 32.4986C38.5827 32.4986 37.7023 32.1339 37.0532 31.4848C36.4042 30.8358 36.0395 29.9554 36.0395 29.0375Z" fill="#7CCCDB"/>
<path d="M16.4104 29.0375V26.9439C16.4104 26.2987 16.2834 25.6599 16.0365 25.0638C15.7896 24.4678 15.4277 23.9262 14.9715 23.47C14.5153 23.0138 13.9738 22.652 13.3777 22.4051C12.7817 22.1582 12.1428 22.0311 11.4977 22.0311C10.8525 22.0311 10.2137 22.1582 9.61768 22.4051C9.02163 22.652 8.48006 23.0138 8.02387 23.47C7.56768 23.9262 7.20581 24.4678 6.95892 25.0638C6.71203 25.6599 6.58496 26.2987 6.58496 26.9439V29.0375C6.58496 29.6826 6.71203 30.3214 6.95892 30.9175C7.20581 31.5135 7.56768 32.0551 8.02387 32.5113C8.48006 32.9675 9.02163 33.3294 9.61768 33.5762C10.2137 33.8231 10.8525 33.9502 11.4977 33.9502C12.1428 33.9502 12.7817 33.8231 13.3777 33.5762C13.9738 33.3294 14.5153 32.9675 14.9715 32.5113C15.4277 32.0551 15.7896 31.5135 16.0365 30.9175C16.2834 30.3214 16.4104 29.6826 16.4104 29.0375ZM8.03657 29.0375V26.9439C8.03657 26.0259 8.40123 25.1456 9.05031 24.4965C9.6994 23.8474 10.5798 23.4827 11.4977 23.4827C12.4156 23.4827 13.296 23.8474 13.9451 24.4965C14.5942 25.1456 14.9588 26.0259 14.9588 26.9439V29.0375C14.9588 29.492 14.8693 29.9421 14.6954 30.362C14.5214 30.7819 14.2665 31.1635 13.9451 31.4848C13.6237 31.8062 13.2421 32.0612 12.8222 32.2351C12.4023 32.4091 11.9522 32.4986 11.4977 32.4986C11.0432 32.4986 10.5931 32.4091 10.1732 32.2351C9.75326 32.0612 9.37171 31.8062 9.05031 31.4848C8.72892 31.1635 8.47397 30.7819 8.30003 30.362C8.1261 29.9421 8.03657 29.492 8.03657 29.0375Z" fill="#7CCCDB"/>
</svg>
