<svg width="50" height="50" viewBox="0 0 50 50" fill="none" xmlns="http://www.w3.org/2000/svg">
<path d="M31.272 19.4855C31.1085 19.3221 30.8817 19.228 30.6505 19.228C30.4193 19.228 30.1925 19.322 30.029 19.4855C29.8655 19.649 29.7715 19.8758 29.7715 20.107C29.7715 20.3383 29.8655 20.565 30.029 20.7284C30.1925 20.8919 30.4192 20.986 30.6505 20.986C30.8816 20.986 31.1084 20.892 31.272 20.7284C31.4354 20.565 31.5295 20.3383 31.5295 20.107C31.5295 19.8748 31.4354 19.649 31.272 19.4855Z" fill="#7CCCDB"/>
<path d="M45.9011 2.49641C45.8913 2.48885 45.881 2.48199 45.8709 2.47487C45.4434 2.17605 44.9239 2 44.3638 2H19.7522C19.2272 2 18.738 2.15478 18.3266 2.42029C18.2939 2.43945 18.2624 2.46072 18.232 2.48428C17.5571 2.9624 17.1152 3.74867 17.1152 4.6369V18.3491C17.1152 19.8031 18.2982 20.9861 19.7522 20.9861H26.2567C26.7423 20.9861 27.1357 20.5925 27.1357 20.1071C27.1357 19.6217 26.7423 19.2281 26.2567 19.2281H20.6144L27.8284 10.7992L31.5436 13.4803C31.6972 13.591 31.8775 13.6465 32.0581 13.6465C32.2381 13.6465 32.4181 13.5913 32.5714 13.481L36.292 10.8043L43.5018 19.2281H34.5194C34.0339 19.2281 33.6404 19.6216 33.6404 20.1071C33.6404 20.5925 34.0338 20.9861 34.5194 20.9861H44.364C45.8181 20.9861 47.001 19.8031 47.001 18.3491V4.63698C47.0008 3.75632 46.5664 2.97567 45.9011 2.49641ZM18.8935 18.5354C18.8805 18.4753 18.8732 18.4132 18.8732 18.3492V4.63698C18.8732 4.54294 18.8884 4.4525 18.9159 4.36742L26.3982 9.76708L18.8935 18.5354ZM32.0589 11.6842L21.0757 3.75799H43.0763L32.0589 11.6842ZM45.2428 18.3492C45.2428 18.4131 45.2355 18.4753 45.2225 18.5354L37.7239 9.77411L45.207 4.39054C45.23 4.46885 45.2428 4.55138 45.2428 4.6369V18.3492Z" fill="#2855AF"/>
<path d="M41.3742 40.4185C41.2425 40.4185 41.1175 40.4475 41.0053 40.4994H40.5763C40.0908 40.4994 39.6973 40.893 39.6973 41.3784C39.6973 41.8637 40.0908 42.2574 40.5763 42.2574H41.3743C41.8597 42.2574 42.2533 41.8638 42.2533 41.3784V41.2974C42.2532 40.8121 41.8597 40.4185 41.3742 40.4185Z" fill="#7CCCDB"/>
<path d="M41.3731 36.0237C40.8877 36.0237 40.4941 36.4173 40.4941 36.9027V37.7817C40.4941 38.2671 40.8876 38.6607 41.3731 38.6607C41.8586 38.6607 42.2521 38.2671 42.2521 37.7817V36.9027C42.2521 36.4173 41.8586 36.0237 41.3731 36.0237Z" fill="#7CCCDB"/>
<path d="M37.0607 40.4995H36.1817C35.6963 40.4995 35.3027 40.8931 35.3027 41.3785C35.3027 41.8638 35.6962 42.2575 36.1817 42.2575H37.0607C37.5462 42.2575 37.9397 41.8639 37.9397 41.3785C37.9397 40.8932 37.5461 40.4995 37.0607 40.4995Z" fill="#7CCCDB"/>
<path d="M41.3731 22.8389C40.8877 22.8389 40.4941 23.2324 40.4941 23.7179V24.5969C40.4941 25.0822 40.8876 25.4759 41.3731 25.4759C41.8586 25.4759 42.2521 25.0823 42.2521 24.5969V23.7179C42.2521 23.2325 41.8586 22.8389 41.3731 22.8389Z" fill="#7CCCDB"/>
<path d="M41.3731 27.2338C40.8877 27.2338 40.4941 27.6273 40.4941 28.1128V28.9918C40.4941 29.4771 40.8876 29.8707 41.3731 29.8707C41.8586 29.8707 42.2521 29.4772 42.2521 28.9918V28.1128C42.2521 27.6273 41.8586 27.2338 41.3731 27.2338Z" fill="#7CCCDB"/>
<path d="M41.3731 31.6288C40.8877 31.6288 40.4941 32.0224 40.4941 32.5078V33.3868C40.4941 33.8722 40.8876 34.2658 41.3731 34.2658C41.8586 34.2658 42.2521 33.8722 42.2521 33.3868V32.5078C42.2521 32.0224 41.8586 31.6288 41.3731 31.6288Z" fill="#7CCCDB"/>
<path d="M8.50018 6.74646H7.62118C7.13576 6.74646 6.74219 7.14003 6.74219 7.62546C6.74219 8.11088 7.13576 8.50445 7.62118 8.50445H8.50018C8.9856 8.50445 9.37917 8.11088 9.37917 7.62546C9.37908 7.14003 8.9856 6.74646 8.50018 6.74646Z" fill="#7CCCDB"/>
<path d="M12.8947 6.74646H12.0157C11.5303 6.74646 11.1367 7.14003 11.1367 7.62546C11.1367 8.11088 11.5303 8.50445 12.0157 8.50445H12.8947C13.3801 8.50445 13.7737 8.11088 13.7737 7.62546C13.7737 7.14003 13.3802 6.74646 12.8947 6.74646Z" fill="#7CCCDB"/>
<path d="M7.62118 10.2625C7.13576 10.2625 6.74219 10.656 6.74219 11.1414V12.0204C6.74219 12.5059 7.13576 12.8994 7.62118 12.8994C8.1066 12.8994 8.50018 12.5059 8.50018 12.0204V11.1414C8.50018 10.6561 8.1066 10.2625 7.62118 10.2625Z" fill="#7CCCDB"/>
<path d="M7.62118 14.6575C7.13576 14.6575 6.74219 15.051 6.74219 15.5365V16.4155C6.74219 16.9009 7.13576 17.2945 7.62118 17.2945C8.1066 17.2945 8.50018 16.9009 8.50018 16.4155V15.5365C8.50018 15.051 8.1066 14.6575 7.62118 14.6575Z" fill="#7CCCDB"/>
<path d="M11.7212 37.627C11.5577 37.4635 11.3309 37.3695 11.0997 37.3695C10.8677 37.3695 10.6417 37.4635 10.4773 37.627C10.3139 37.7905 10.2207 38.0173 10.2207 38.2485C10.2207 38.4797 10.3139 38.7064 10.4773 38.87C10.6417 39.0334 10.8685 39.1275 11.0997 39.1275C11.3309 39.1275 11.5567 39.0335 11.7212 38.87C11.8847 38.7065 11.9787 38.4797 11.9787 38.2485C11.9787 38.0173 11.8847 37.7906 11.7212 37.627Z" fill="#7CCCDB"/>
<path d="M29.3598 38.5569L24.7284 33.9256C23.3994 32.5966 21.2366 32.5965 19.9074 33.9257L19.6057 34.2275C19.1866 34.6467 18.5046 34.6466 18.0854 34.2275L14.7726 30.9147C14.5696 30.7117 14.4578 30.4418 14.4578 30.1546C14.4578 29.8675 14.5696 29.5976 14.7727 29.3945L15.0744 29.0927C16.4036 27.7635 16.4036 25.6008 15.0744 24.2716L10.443 19.6402C9.11387 18.3112 6.95106 18.3112 5.62206 19.6402L4.51385 20.7484C1.16205 24.1003 1.16205 29.5541 4.51385 32.9059L7.53509 35.9272C7.87831 36.2703 8.43492 36.2703 8.77822 35.9272C9.12143 35.584 9.12143 35.0274 8.77822 34.6841L5.75698 31.6628C3.09055 28.9964 3.09055 24.6578 5.75698 21.9914L6.8651 20.8833C7.50881 20.2395 8.55621 20.2395 9.19992 20.8833L13.8312 25.5146C14.475 26.1583 14.475 27.2057 13.8312 27.8494L13.5295 28.1512C13.4187 28.2621 13.3188 28.3808 13.2291 28.5056L9.57099 24.8475C9.22778 24.5044 8.67117 24.5044 8.32787 24.8475C7.98465 25.1907 7.98465 25.7473 8.32787 26.0906L12.7192 30.4818C12.7916 31.1146 13.0724 31.7004 13.5295 32.1576L16.8423 35.4703C17.9469 36.5748 19.7441 36.5749 20.8487 35.4702L21.1505 35.1684C21.7942 34.5246 22.8416 34.5246 23.4853 35.1684L28.1167 39.7997C28.4285 40.1116 28.6003 40.5262 28.6003 40.9671C28.6003 41.408 28.4286 41.8226 28.1166 42.1345L27.4873 42.7638L23.272 38.5484C22.9288 38.2053 22.3722 38.2053 22.0289 38.5484C21.6857 38.8917 21.6857 39.4483 22.0289 39.7916L26.1833 43.946C23.5112 45.883 19.7432 45.6491 17.3369 43.2427L15.0607 40.9665C14.7175 40.6234 14.1609 40.6234 13.8177 40.9665C13.4745 41.3097 13.4745 41.8663 13.8177 42.2096L16.0939 44.4858C17.7698 46.162 19.9713 47 22.1728 47C24.3742 47 26.5756 46.1621 28.2516 44.4861L29.3597 43.3779C30.0036 42.7341 30.3582 41.8781 30.3582 40.9675C30.3582 40.0568 30.0036 39.2008 29.3598 38.5569Z" fill="#2855AF"/>
</svg>
