<svg width="50" height="50" viewBox="0 0 50 50" fill="none" xmlns="http://www.w3.org/2000/svg">
<path opacity="0.1" d="M5.76172 19.5312H8.69141V46.0938H5.76172V19.5312Z" fill="#2855AF"/>
<path d="M38.1943 29.4075H41.2986V30.5793H38.1943V29.4075Z" fill="#2855AF"/>
<path d="M38.1943 32.3372H41.2986V33.509H38.1943V32.3372Z" fill="#2855AF"/>
<path d="M38.1943 35.2668H41.2986V36.4387H38.1943V35.2668Z" fill="#2855AF"/>
<path d="M8.90723 21.8966H10.0791V23.3398H8.90723V21.8966Z" fill="#2855AF"/>
<path d="M8.90723 24.4944H10.0791V37.6953H8.90723V24.4944Z" fill="#2855AF"/>
<path d="M16.375 4.38794H33.8243V19.6213H34.9962V3.802C34.9962 3.6466 34.9345 3.49757 34.8246 3.38768C34.7147 3.2778 34.5657 3.21606 34.4103 3.21606H15.7891C15.6337 3.21606 15.4846 3.2778 15.3747 3.38768C15.2649 3.49757 15.2031 3.6466 15.2031 3.802V19.6213H16.375V4.38794Z" fill="#7CCCDB"/>
<path d="M31.5749 19.6213V11.0585C31.5749 10.9078 31.5169 10.763 31.4129 10.654C31.3089 10.545 31.1669 10.4802 31.0164 10.4731C29.5624 10.4048 28.6031 9.13525 28.5725 7.23877C28.57 7.08507 28.5071 6.93853 28.3975 6.83075C28.2879 6.72297 28.1403 6.66258 27.9866 6.6626H22.2103C22.0566 6.66258 21.909 6.72297 21.7994 6.83075C21.6898 6.93853 21.627 7.08507 21.6244 7.23877C21.5937 9.13701 20.6348 10.4066 19.1812 10.4731C19.0306 10.4801 18.8884 10.5447 18.7843 10.6538C18.6802 10.7628 18.6221 10.9077 18.6221 11.0585V19.6213H19.7939V11.5759C21.4227 11.2482 22.5517 9.8291 22.7616 7.83418H27.4353C27.6455 9.82744 28.7743 11.2466 30.403 11.5754V19.6213H31.5749Z" fill="#7CCCDB"/>
<path d="M25.0997 15.7018C24.0475 15.7029 23.0386 16.1215 22.2946 16.8655C21.5505 17.6096 21.132 18.6184 21.1309 19.6706H22.3027C22.3027 18.9288 22.5974 18.2174 23.1219 17.6929C23.6465 17.1683 24.3579 16.8737 25.0997 16.8737C25.8415 16.8737 26.5529 17.1683 27.0775 17.6929C27.602 18.2174 27.8967 18.9288 27.8967 19.6706H29.0686C29.0674 18.6184 28.6489 17.6096 27.9048 16.8655C27.1608 16.1215 26.152 15.7029 25.0997 15.7018Z" fill="#7CCCDB"/>
<path d="M5.80957 46.7839H44.1897C44.3451 46.7839 44.4941 46.7222 44.604 46.6123C44.7139 46.5024 44.7756 46.3534 44.7756 46.198V19.6484C44.7756 19.493 44.7139 19.344 44.604 19.2341C44.4941 19.1242 44.3451 19.0625 44.1897 19.0625H40.1525V9.87555C40.1525 9.78497 40.1315 9.69562 40.0912 9.61453C40.0508 9.53344 39.9922 9.46281 39.9199 9.40819C39.8477 9.35357 39.7637 9.31644 39.6747 9.29973C39.5857 9.28302 39.494 9.28718 39.4068 9.31187L34.9605 10.5468V11.8164L38.9807 10.6505V19.0625H9.65264L15.234 17.3828V16.1132L5.64053 19.0474L5.65166 19.0844C5.52858 19.1189 5.42014 19.1926 5.34286 19.2944C5.26559 19.3962 5.22372 19.5205 5.22363 19.6483V46.198C5.22363 46.3534 5.28537 46.5024 5.39525 46.6123C5.50513 46.7222 5.65417 46.7839 5.80957 46.7839ZM43.6037 38.3139H35.7931V27.5327H43.6037V38.3139ZM43.6037 26.3608H35.2071C35.0517 26.3608 34.9027 26.4225 34.7928 26.5324C34.6829 26.6423 34.6212 26.7913 34.6212 26.9467V38.8999C34.6212 39.0553 34.6829 39.2043 34.7928 39.3142C34.9027 39.4241 35.0517 39.4858 35.2071 39.4858H43.6037V45.6121H6.39551V20.2343H43.6037V26.3608Z" fill="#2855AF"/>
</svg>
