<svg width="50" height="50" viewBox="0 0 50 50" fill="none" xmlns="http://www.w3.org/2000/svg">
<path d="M19.5957 47.3203H19.8457V47.0703V32.4219V32.1719H19.5957H16.666H16.416V32.4219V47.0703V47.3203H16.666H19.5957ZM15.2012 29.7422H21.0605C21.7312 29.7422 22.2754 30.286 22.2754 30.957V48.5352C22.2754 49.2061 21.7312 49.75 21.0605 49.75H15.2012C14.5301 49.75 13.9863 49.2062 13.9863 48.5352V30.957C13.9863 30.286 14.5301 29.7422 15.2012 29.7422Z" fill="#2855AF" stroke="white" stroke-width="0.5"/>
<path d="M33.334 47.3203H33.584V47.0703V38.2812V38.0312H33.334H30.4043H30.1543V38.2812V47.0703V47.3203H30.4043H33.334ZM28.9395 35.6016H34.7988C35.4699 35.6016 36.0137 36.1454 36.0137 36.8164V48.5352C36.0137 49.2062 35.4699 49.75 34.7988 49.75H28.9395C28.2688 49.75 27.7246 49.2061 27.7246 48.5352V36.8164C27.7246 36.1454 28.2688 35.6016 28.9395 35.6016Z" fill="#2855AF" stroke="white" stroke-width="0.5"/>
<path d="M47.0703 47.3203H47.3203V47.0703V44.1406V43.8906H47.0703H44.1406H43.8906V44.1406V47.0703V47.3203H44.1406H47.0703ZM42.6758 41.4609H48.5352C49.2062 41.4609 49.75 42.0048 49.75 42.6758V48.5352C49.75 49.2062 49.2062 49.75 48.5352 49.75H42.6758C42.0048 49.75 41.4609 49.2062 41.4609 48.5352V42.6758C41.4609 42.0048 42.0048 41.4609 42.6758 41.4609Z" fill="#2855AF" stroke="white" stroke-width="0.5"/>
<path d="M5.85938 47.3203H6.10938V47.0703V24.4141V24.1641H5.85938H2.92969H2.67969V24.4141V47.0703V47.3203H2.92969H5.85938ZM1.46484 21.7344H7.32422C7.99524 21.7344 8.53906 22.2782 8.53906 22.9492V48.5352C8.53906 49.2062 7.99524 49.75 7.32422 49.75H1.46484C0.793818 49.75 0.25 49.2062 0.25 48.5352V22.9492C0.25 22.2782 0.793818 21.7344 1.46484 21.7344Z" fill="#2855AF" stroke="white" stroke-width="0.5"/>
<path d="M39.9364 30.2597C39.9635 30.2563 39.9906 30.2525 40.0173 30.2471C40.0383 30.2433 40.0589 30.2387 40.0795 30.2338C40.1024 30.2284 40.1257 30.2227 40.1482 30.2162C40.1695 30.2101 40.1909 30.2036 40.2119 30.1964C40.2336 30.1891 40.255 30.1811 40.2763 30.1727C40.2969 30.1647 40.3175 30.1567 40.3378 30.1479C40.3591 30.1384 40.3805 30.1277 40.4015 30.117C40.4205 30.1075 40.4396 30.0983 40.4579 30.088C40.48 30.0758 40.5014 30.0621 40.5231 30.0488C40.5396 30.0385 40.5567 30.0285 40.5727 30.0175C40.5964 30.0011 40.6189 29.9831 40.6418 29.9656C40.6548 29.9557 40.6685 29.9465 40.6811 29.9358C40.6818 29.9351 40.683 29.9347 40.6837 29.9339L46.5431 25.0511C47.1645 24.5331 47.2488 23.6095 46.7308 22.9877C46.2128 22.3663 45.2889 22.2824 44.6678 22.8004L41.021 25.8392C40.379 20.8305 38.118 16.2022 34.4929 12.5771C30.1609 8.24509 24.3961 5.85938 18.2617 5.85938C17.4526 5.85938 16.7969 6.51512 16.7969 7.32422C16.7969 8.13332 17.4526 8.78906 18.2617 8.78906C23.6137 8.78906 28.6427 10.8704 32.4211 14.6492C35.4832 17.7109 37.4298 21.5931 38.0589 25.8034L33.7616 22.7341C33.1036 22.2637 32.1884 22.4163 31.7181 23.0743C31.2481 23.7328 31.4003 24.6475 32.0587 25.1179L38.8947 30.0007C38.9004 30.0045 38.9061 30.0079 38.9118 30.0121C38.9263 30.022 38.9412 30.0312 38.9557 30.0407C38.9778 30.0549 38.9996 30.0686 39.0221 30.0812C39.0381 30.0903 39.0541 30.0991 39.0709 30.1079C39.0942 30.1201 39.1178 30.1311 39.1415 30.1418C39.1575 30.1491 39.1727 30.1567 39.1888 30.1632C39.2269 30.1788 39.2658 30.1933 39.3047 30.2055C39.3166 30.2094 39.3288 30.212 39.3406 30.2155C39.3711 30.2242 39.4016 30.2322 39.4321 30.2391C39.4482 30.2425 39.4642 30.2456 39.4802 30.2483C39.5096 30.254 39.5393 30.2582 39.5687 30.262C39.5836 30.2635 39.5977 30.2654 39.6126 30.267C39.6568 30.2708 39.7015 30.2734 39.7457 30.2734H39.7461H39.7469C39.7926 30.2734 39.838 30.2708 39.8834 30.2666C39.9014 30.2647 39.9189 30.262 39.9364 30.2597Z" fill="#7CCCDB"/>
<path d="M4.39453 7.8125C3.58696 7.8125 2.92969 7.15523 2.92969 6.34766C2.92969 5.54008 3.58696 4.88281 4.39453 4.88281H7.32422C8.13332 4.88281 8.78906 4.22707 8.78906 3.41797C8.78906 2.60887 8.13332 1.95312 7.32422 1.95312H5.85938V1.46484C5.85938 0.655746 5.20363 0 4.39453 0C3.58543 0 2.92969 0.655746 2.92969 1.46484V2.2049C1.22452 2.80991 0 4.43802 0 6.34766C0 8.77075 1.97144 10.7422 4.39453 10.7422C5.2021 10.7422 5.85938 11.3995 5.85938 12.207C5.85938 13.0146 5.2021 13.6719 4.39453 13.6719H1.46484C0.655746 13.6719 0 14.3276 0 15.1367C0 15.9458 0.655746 16.6016 1.46484 16.6016H2.92969V17.0898C2.92969 17.8989 3.58543 18.5547 4.39453 18.5547C5.20363 18.5547 5.85938 17.8989 5.85938 17.0898V16.3498C7.56454 15.7448 8.78906 14.1167 8.78906 12.207C8.78906 9.78394 6.81763 7.8125 4.39453 7.8125Z" fill="#7CCCDB"/>
</svg>
