<svg xmlns="http://www.w3.org/2000/svg" viewBox="0 0 100 100"><defs><style>.cls-1{fill:none;}.cls-2{fill:#ff334f;}</style></defs><title>arcadier-logo</title><g id="Layer_2" data-name="Layer 2"><g id="Layer_1-2" data-name="Layer 1"><rect class="cls-1" width="100" height="100"/><path class="cls-2" d="M53.7,29.06c9.24.61,17.16,13.39,23.44,35.53,0-.12,0-.23,0-.35V21.94a6,6,0,0,0-6-6H28.85a6,6,0,0,0-6,6v42.3a6,6,0,0,0,.62,2.66C33.29,42.2,43.66,28.41,53.7,29.06Z"/><path class="cls-2" d="M50.15,35.25c-6.84-.45-14.21,12-21.67,35H66.58C62.26,48.09,56.75,35.68,50.15,35.25Z"/><path d="M24.24,84H22.85l2.08-9.72h1.39L28.41,84H27l-.52-2.43H24.76Zm1.39-7.64-.69,4.17h1.39Z"/><path d="M34.46,79.09,36,84H34.64l-1.4-4.52h-1V84H30.81V74.23h1.74c2,0,3.13.67,3.13,2.6A2.15,2.15,0,0,1,34.46,79.09Zm-1.91-3.82H32.2V78.4h.35c1.12,0,1.74-.43,1.74-1.56S33.67,75.27,32.55,75.27Z"/><path d="M40.7,84.05c-2.09,0-2.67-1.49-2.67-3.58V77.7c0-2.09.58-3.57,2.67-3.57s2.59,1.27,2.59,3.22H41.9c0-1.18,0-2.08-1.2-2.08s-1.28.9-1.28,2.08v3.47c0,1.06.22,2.08,1.28,2.08s1.2-1,1.2-2.08v-.35h1.39v.35C43.29,82.76,42.65,84.05,40.7,84.05Z"/><path d="M46.61,84H45.22l2.08-9.72h1.39L50.78,84H49.39l-.52-2.43H47.13ZM48,76.32l-.69,4.17h1.39Z"/><path d="M55.32,84H53.18V74.23h2.15c2,0,2.78.74,2.78,2.78v3.82C58.11,82.9,57.39,84,55.32,84Zm0-8.68h-.74v7.64h.77c1.47,0,1.39-1,1.39-2.43V77.36C56.72,76,56.68,75.27,55.3,75.27Z"/><path d="M62.44,74.23V84H61.06V74.23Z"/><path d="M67,79.44v3.47h2.43v1H65.6V74.23h3.82v1H67V78.4h1.74v1Z"/><path d="M75.58,79.09,77.15,84H75.77l-1.4-4.51h-1V84H71.94V74.23h1.74c2,0,3.13.67,3.13,2.6A2.15,2.15,0,0,1,75.58,79.09Zm-1.91-3.82h-.35V78.4h.35c1.12,0,1.74-.43,1.74-1.56S74.8,75.27,73.67,75.27Z"/></g></g></svg>