<svg xmlns="http://www.w3.org/2000/svg" viewBox="0 0 100 100"><defs><style>.cls-1{fill:none;}.cls-2{fill:#00ccfe;}.cls-3{fill:#7b7b7b;}</style></defs><title>cs.cart-logo</title><g id="Layer_2" data-name="Layer 2"><g id="Layer_1-2" data-name="Layer 1"><rect class="cls-1" width="100" height="100"/><g id="_00ccfeff" data-name="#00ccfeff"><path class="cls-2" d="M11.26,34.87q4.67,0,9.34,0,0,4.67,0,9.34-4.67,0-9.34,0Q11.24,39.54,11.26,34.87Z"/><path class="cls-2" d="M21.29,44.9q4.67,0,9.34,0,0,4.67,0,9.34-4.67,0-9.34,0Q21.28,49.57,21.29,44.9Z"/><path class="cls-2" d="M32.18,44.9q4.67,0,9.34,0,0,4.67,0,9.34-4.67,0-9.34,0Q32.16,49.57,32.18,44.9Z"/><path class="cls-2" d="M21.29,55.79q4.67,0,9.34,0,0,4.67,0,9.34-4.67,0-9.34,0Q21.28,60.46,21.29,55.79Z"/><path class="cls-2" d="M32.18,55.79q4.67,0,9.34,0,0,4.67,0,9.34-4.67,0-9.34,0Q32.16,60.46,32.18,55.79Z"/></g><g id="_7b7b7bff" data-name="#7b7b7bff"><path class="cls-3" d="M85.3,50.06a10.8,10.8,0,0,1,1.4-.39c0,.62,0,1.23,0,1.85.68,0,1.36,0,2,0q0,.55,0,1.1l-2,0a38,38,0,0,0,.08,4.94c.15.87,1.17.73,1.82.73,0,.34,0,.68.05,1a2.86,2.86,0,0,1-2.6-.16A2.6,2.6,0,0,1,85.28,57C85.3,54.67,85.26,52.37,85.3,50.06Z"/><path class="cls-3" d="M48.82,52a5,5,0,0,1,4.42-.28,8.75,8.75,0,0,1-.31,1.13,3.74,3.74,0,0,0-3.07,0,3.13,3.13,0,0,0,.06,5.21,3.78,3.78,0,0,0,3,0c.11.36.2.73.28,1.1a5,5,0,0,1-4.73-.29A4.36,4.36,0,0,1,48.82,52Z"/><path class="cls-3" d="M55.35,51.92a3.65,3.65,0,0,1,3.79-.07l-.31,1a3.41,3.41,0,0,0-2.29-.28,1,1,0,0,0-.33,1.61c.74.63,1.79.72,2.52,1.38a2.25,2.25,0,0,1-.29,3.51,4.6,4.6,0,0,1-4.14,0A4.42,4.42,0,0,1,54.61,58a3.83,3.83,0,0,0,2.73.36,1.11,1.11,0,0,0,.3-1.84c-.8-.62-1.9-.71-2.61-1.47A2.1,2.1,0,0,1,55.35,51.92Z"/><path class="cls-3" d="M65.51,52a5,5,0,0,1,4.43-.31c-.06.38-.14.75-.23,1.12a4.09,4.09,0,0,0-3,0,3.1,3.1,0,0,0,.08,5.29,4.1,4.1,0,0,0,3-.08c.07.37.13.73.19,1.1a4.76,4.76,0,0,1-5.1-.65A4.42,4.42,0,0,1,65.51,52Z"/><path class="cls-3" d="M71.81,52a4.91,4.91,0,0,1,4-.44,2.76,2.76,0,0,1,1.58,2.63c0,1.72,0,3.44.07,5.16-.41,0-.82,0-1.23,0l-.18-.84a3.13,3.13,0,0,1-3.79.71,2.44,2.44,0,0,1-.08-3.92c1.09-.85,2.52-.83,3.82-1-.1-.58-.19-1.3-.79-1.6a3.8,3.8,0,0,0-3.16.32l-.26-1m1.43,4a1.42,1.42,0,0,0,.2,2.36,2,2,0,0,0,2.44-1.1,6.65,6.65,0,0,0,.05-1.88A4.54,4.54,0,0,0,73.24,56Z"/><path class="cls-3" d="M81,52.89a2.67,2.67,0,0,1,2.64-1.52c0,.44,0,.89,0,1.33a2.18,2.18,0,0,0-2.37,1.67c-.22,1.66,0,3.35-.11,5q-.71,0-1.41,0c-.06-2.61,0-5.23-.09-7.84.43,0,.86,0,1.29,0Z"/><path class="cls-3" d="M61.3,57.86c1.11-.51,1.81,1.33.69,1.72S60.2,58.25,61.3,57.86Z"/></g></g></g></svg>