<svg xmlns="http://www.w3.org/2000/svg" viewBox="0 0 100 100"><defs><style>.cls-1{fill:none;}.cls-2{fill:#9b5c8f;}.cls-3{fill:#fff;}</style></defs><title>woocommerce-logo</title><g id="Layer_2" data-name="Layer 2"><g id="Layer_1-2" data-name="Layer 1"><rect class="cls-1" width="100" height="100"/><path class="cls-2" d="M21.43,31.12H78.54a6.54,6.54,0,0,1,6.54,6.54v21.8A6.54,6.54,0,0,1,78.54,66H58.06l2.81,6.88L48.51,66H21.46a6.54,6.54,0,0,1-6.54-6.54V37.66a6.51,6.51,0,0,1,6.51-6.54Z"/><path class="cls-3" d="M18.91,37.08a2.3,2.3,0,0,1,1.8-.88,2.08,2.08,0,0,1,2.48,2.05q1.33,8.94,2.88,15.15L32.32,41.5a2.71,2.71,0,0,1,2.14-1.71c1.25-.09,2,.71,2.34,2.4a53.26,53.26,0,0,0,2.71,9.75q1.11-10.87,3.76-15.69A2.19,2.19,0,0,1,45.15,35a2.48,2.48,0,0,1,1.8.57,2.23,2.23,0,0,1,.88,1.63,2.48,2.48,0,0,1-.29,1.37c-1.11,2.05-2,5.5-2.77,10.3A53.13,53.13,0,0,0,44,59.73a3.39,3.39,0,0,1-.34,1.88,1.84,1.84,0,0,1-1.51,1,2.87,2.87,0,0,1-2.25-1.06q-4-4.06-6.3-12.15-2.78,5.48-4.11,8.21c-1.68,3.22-3.11,4.88-4.31,5-.77.06-1.43-.6-2-2Q21,55,18.46,39A2.43,2.43,0,0,1,18.91,37.08Zm61.3,4.48a6.57,6.57,0,0,0-4.56-3.31,7.49,7.49,0,0,0-1.54-.17c-2.74,0-5,1.43-6.7,4.28a15.11,15.11,0,0,0-2.22,8A11,11,0,0,0,66.55,56a6.57,6.57,0,0,0,4.56,3.31,7.49,7.49,0,0,0,1.54.17c2.77,0,5-1.43,6.7-4.28a15.28,15.28,0,0,0,2.22-8.07A10.53,10.53,0,0,0,80.21,41.56Zm-3.59,7.9a7.55,7.55,0,0,1-2.17,4.22,2.74,2.74,0,0,1-2.31.91c-.68-.14-1.25-.74-1.68-1.85a7.24,7.24,0,0,1-.51-2.6,9.91,9.91,0,0,1,.2-2.08,9.22,9.22,0,0,1,1.51-3.39c.94-1.4,1.94-2,3-1.77.68.14,1.25.74,1.68,1.85a7.24,7.24,0,0,1,.51,2.6A10,10,0,0,1,76.61,49.46Zm-14.26-7.9a6.63,6.63,0,0,0-4.56-3.31,7.49,7.49,0,0,0-1.54-.17c-2.74,0-5,1.43-6.7,4.28a15.11,15.11,0,0,0-2.22,8A11,11,0,0,0,48.69,56a6.57,6.57,0,0,0,4.56,3.31,7.49,7.49,0,0,0,1.54.17c2.77,0,5-1.43,6.7-4.28a15.28,15.28,0,0,0,2.22-8.07A10.8,10.8,0,0,0,62.35,41.56Zm-3.62,7.9a7.55,7.55,0,0,1-2.17,4.22,2.74,2.74,0,0,1-2.31.91c-.68-.14-1.25-.74-1.68-1.85a7.24,7.24,0,0,1-.51-2.6,9.91,9.91,0,0,1,.2-2.08,9.22,9.22,0,0,1,1.51-3.39c.94-1.4,1.94-2,3-1.77.68.14,1.25.74,1.68,1.85a7.24,7.24,0,0,1,.51,2.6,8.43,8.43,0,0,1-.2,2.11Z"/></g></g></svg>