<svg width="50" height="50" viewBox="0 0 50 50" fill="none" xmlns="http://www.w3.org/2000/svg">
<g clip-path="url(#clip0)">
<path d="M45.8333 4.1667H43.3333V2.5C43.3333 1.11934 42.2141 0 40.8333 0C39.4525 0 38.3333 1.11924 38.3333 2.5V4.1667H11.6667V2.5C11.6667 1.11934 10.5475 0 9.1667 0C7.78594 0 6.6667 1.11924 6.6667 2.5V4.1667H4.1667C1.8666 4.16934 0.00273438 6.0333 0 8.3333V45.8333C0.00273438 48.1334 1.8666 49.9973 4.1667 50H45.8334C48.1335 49.9973 49.9974 48.1334 50.0001 45.8333V8.3333C49.9973 6.0333 48.1334 4.16934 45.8333 4.1667ZM40 2.5C40 2.03975 40.373 1.6667 40.8333 1.6667C41.2936 1.6667 41.6666 2.03975 41.6666 2.5V7.5C41.6666 7.96025 41.2936 8.3333 40.8333 8.3333C40.373 8.3333 40 7.96025 40 7.5V2.5ZM8.3333 2.5C8.3333 2.03975 8.70644 1.6667 9.1666 1.6667C9.62685 1.6667 9.9999 2.03975 9.9999 2.5V7.5C9.9999 7.96025 9.62676 8.3333 9.1666 8.3333C8.70635 8.3333 8.3333 7.96025 8.3333 7.5V2.5ZM48.3333 11.6667H10.8333C10.373 11.6667 10 12.0397 10 12.5C10 12.9603 10.373 13.3333 10.8333 13.3333H48.3333V45.8333C48.3318 47.2134 47.2134 48.3318 45.8333 48.3333H4.1667C2.78662 48.3318 1.66816 47.2134 1.6667 45.8333V13.3333H7.5C7.96025 13.3333 8.3333 12.9603 8.3333 12.5C8.3333 12.0397 7.96025 11.6667 7.5 11.6667H1.6667V8.3333C1.66816 6.95322 2.78662 5.83477 4.1667 5.8333H6.6667V7.5C6.6667 8.88066 7.78594 10 9.1667 10C10.5474 10 11.6667 8.88066 11.6667 7.5V5.8333H38.3334V7.5C38.3334 8.88066 39.4527 10 40.8334 10C42.2141 10 43.3334 8.88066 43.3334 7.5V5.8333H45.8334C47.2135 5.83477 48.3319 6.95322 48.3334 8.3333V11.6667H48.3333Z" fill="#2855AF"/>
<path d="M24.5662 44.9938C32.2246 45.2193 38.6745 39.3151 39.1252 31.6666H42.2484L44.5385 33.1933C44.7861 33.3614 45.1051 33.3839 45.3738 33.2519C45.6426 33.12 45.8199 32.854 45.8384 32.5552C45.8568 32.2563 45.7135 31.9706 45.463 31.8066L44.003 30.8333L45.463 29.86C45.647 29.7375 45.7747 29.5469 45.8181 29.3301C45.8614 29.1133 45.8168 28.8882 45.694 28.7044C45.5716 28.5204 45.381 28.3926 45.1642 28.3493C44.9474 28.306 44.7223 28.3506 44.5385 28.4733L42.2484 30H39.1252C38.6745 22.3516 32.2246 16.4474 24.5662 16.6727C16.9078 16.8981 10.8164 23.1716 10.8164 30.8333C10.8164 38.495 16.9078 44.7685 24.5662 44.9938ZM24.4258 18.3459C31.216 18.041 37.0054 23.218 37.4586 30H34.9586C34.5119 24.658 29.9323 20.6185 24.5764 20.842C19.2204 21.0655 14.9934 25.4727 14.9934 30.8333C14.9934 36.1939 19.2203 40.6011 24.5764 40.8246C29.9324 41.0481 34.5119 37.0086 34.9586 31.6666H37.4586C37.0176 38.2253 31.5742 43.323 25.0008 43.3333C18.2037 43.3411 12.6461 37.9162 12.4896 31.1209C12.3332 24.3256 17.6355 18.6508 24.4258 18.3459ZM25.0008 31.6667H29.0832C28.6554 33.7625 26.7102 35.1939 24.5819 34.9789C22.4537 34.764 20.8341 32.9724 20.8341 30.8333C20.8341 28.6942 22.4538 26.9027 24.5819 26.6877C26.7102 26.4727 28.6554 27.9041 29.0832 29.9999H25.0008C24.5405 29.9999 24.1675 30.3729 24.1675 30.8332C24.1675 31.2935 24.5405 31.6667 25.0008 31.6667ZM24.5764 25.0149C21.5246 25.2341 19.1607 27.7737 19.1607 30.8333C19.1607 33.8929 21.5246 36.4325 24.5764 36.6517C27.6281 36.8708 30.3306 34.6948 30.7676 31.6666H33.2918C32.8477 36.0846 29.0177 39.3784 24.583 39.1562C20.1483 38.9339 16.6669 35.2734 16.6669 30.8333C16.6669 26.3931 20.1484 22.7327 24.583 22.5104C29.0176 22.2882 32.8477 25.582 33.2918 30H30.7677C30.3305 26.9718 27.628 24.7959 24.5764 25.0149Z" fill="#7CCCDB"/>
</g>
<defs>
<clipPath id="clip0">
<rect width="50" height="50" fill="white"/>
</clipPath>
</defs>
</svg>
