<svg width="40" height="40" viewBox="0 0 40 40" fill="none" xmlns="http://www.w3.org/2000/svg">
<g clip-path="url(#clip0)">
<path d="M14.1969 28.6571C14.1404 28.641 14.0826 28.6319 14.0244 28.6288C14.8802 27.7294 15.4072 26.5143 15.4072 25.1777V21.0675C15.4072 21.0299 15.4036 20.9933 15.3985 20.9572C15.4037 20.8829 15.4072 20.8083 15.4072 20.7328V18.1323C15.4072 17.7008 15.0574 17.3511 14.6259 17.3511H9.38586C7.17922 17.3511 5.38406 19.1463 5.38406 21.3529V25.1777C5.38406 26.5143 5.91102 27.7294 6.76687 28.6288C6.70875 28.6319 6.65094 28.641 6.59453 28.6571C2.90258 28.9914 0 32.1032 0 35.8807V39.2185C0 39.65 0.349766 39.9997 0.78125 39.9997H20.0099C20.4414 39.9997 20.7912 39.65 20.7912 39.2185V35.8807C20.7912 32.1033 17.8888 28.9915 14.1969 28.6571ZM6.94656 22.3436V21.3528C6.94656 20.0078 8.04086 18.9135 9.38586 18.9135H13.8447V20.7327C13.8447 21.6486 13.0996 22.3937 12.1838 22.3937H6.94656V22.3436ZM6.94656 23.9562H12.1838C12.7909 23.9562 13.3593 23.7872 13.8447 23.4941V25.1776C13.8447 27.0794 12.2974 28.6267 10.3956 28.6267C8.49383 28.6267 6.94656 27.0794 6.94656 25.1776V23.9562ZM12.096 30.1893L10.3956 31.8897L8.69523 30.1893H12.096ZM19.2288 38.4372H1.5625V36.8747H4.80469C5.23617 36.8747 5.58594 36.525 5.58594 36.0935C5.58594 35.662 5.23617 35.3122 4.80469 35.3122H1.59102C1.85344 32.6782 3.91961 30.5687 6.53281 30.2365L9.8432 33.5469C9.98969 33.6934 10.1884 33.7758 10.3956 33.7758C10.6028 33.7758 10.8016 33.6934 10.948 33.5469L14.2584 30.2365C17.0572 30.5922 19.2288 32.9869 19.2288 35.8807V38.4372Z" fill="#2855AF"/>
<path d="M33.4041 11.3061C33.3477 11.29 33.2898 11.2809 33.2315 11.2778C34.0873 10.3784 34.6142 9.16328 34.6142 7.82672V3.71641C34.6142 3.67883 34.6106 3.64219 34.6055 3.60609C34.6107 3.53188 34.6142 3.45719 34.6142 3.38172V0.78125C34.6142 0.349766 34.2645 0 33.833 0H28.5929C26.3862 0 24.5911 1.79523 24.5911 4.0018V7.82664C24.5911 9.1632 25.118 10.3783 25.9738 11.2777C25.9156 11.2809 25.8577 11.2899 25.8012 11.306C22.1094 11.6405 19.207 14.7523 19.207 18.5296V21.8673C19.207 22.2988 19.5568 22.6486 19.9883 22.6486H26.2742C26.7057 22.6486 27.0555 22.2988 27.0555 21.8673C27.0555 21.4359 26.7057 21.0861 26.2742 21.0861H20.7695V18.5297C20.7695 15.6359 22.941 13.2413 25.7398 12.8855L29.0502 16.1959C29.2027 16.3485 29.4027 16.4248 29.6026 16.4248C29.8025 16.4248 30.0025 16.3485 30.155 16.1959L33.4654 12.8855C36.2643 13.2413 38.4358 15.6359 38.4358 18.5297V21.0862H32.6805C32.2491 21.0862 31.8993 21.4359 31.8993 21.8674C31.8993 22.2989 32.2491 22.6487 32.6805 22.6487H39.217C39.6485 22.6487 39.9983 22.2989 39.9983 21.8674V18.5297C39.9983 14.7523 37.0959 11.6405 33.4041 11.3061ZM29.6027 14.5387L27.9023 12.8383H31.3031L29.6027 14.5387ZM33.0518 7.82664C33.0518 9.72844 31.5045 11.2757 29.6027 11.2757C27.7009 11.2757 26.1537 9.72852 26.1537 7.82672V6.60516H31.3909C31.998 6.60516 32.5664 6.43617 33.0518 6.14313V7.82664ZM33.0518 3.38172C33.0518 4.29758 32.3067 5.04266 31.3909 5.04266H26.1537V4.99258V4.0018C26.1537 2.6568 27.248 1.5625 28.593 1.5625H33.0518V3.38172Z" fill="#2855AF"/>
<path d="M30.1578 21.3148C30.0125 21.1695 29.8109 21.0859 29.6055 21.0859C29.3992 21.0859 29.1984 21.1695 29.0531 21.3148C28.907 21.4602 28.8242 21.6617 28.8242 21.8672C28.8242 22.0734 28.907 22.2742 29.0531 22.4195C29.1984 22.5656 29.3992 22.6484 29.6055 22.6484C29.8109 22.6484 30.0125 22.5656 30.1578 22.4195C30.3031 22.2742 30.3867 22.0734 30.3867 21.8672C30.3867 21.6617 30.3031 21.4602 30.1578 21.3148Z" fill="#2855AF"/>
<path d="M20.891 10.932L17.6238 7.66469V3.90625C17.6238 1.75234 15.8714 0 13.7175 0H3.90625C1.75234 0 0 1.75234 0 3.90625V10.7812C0 12.9352 1.75234 14.6875 3.90625 14.6875H13.7174C15.3326 14.6875 16.741 13.7182 17.332 12.2656H20.3385C20.6545 12.2656 20.9394 12.0752 21.0603 11.7834C21.1812 11.4915 21.1144 11.1554 20.891 10.932ZM16.762 10.7031C16.398 10.7031 16.0823 10.9545 16.0006 11.3092C15.7547 12.3783 14.8159 13.125 13.7174 13.125H3.90625C2.61391 13.125 1.5625 12.0736 1.5625 10.7812V3.90625C1.5625 2.61391 2.61391 1.5625 3.90625 1.5625H13.7174C15.0098 1.5625 16.0612 2.61391 16.0612 3.90625V7.98828C16.0612 8.19547 16.1435 8.39422 16.29 8.5407L18.4524 10.7031H16.762Z" fill="#7CCCDB"/>
<path d="M36.0925 25.3125H26.2813C24.6661 25.3125 23.2577 26.2818 22.6668 27.7344H19.6602C19.3443 27.7344 19.0593 27.9248 18.9384 28.2166C18.8175 28.5085 18.8843 28.8446 19.1077 29.068L22.375 32.3353V36.0938C22.375 38.2477 24.1273 40 26.2812 40H36.0925C38.2464 40 39.9987 38.2477 39.9987 36.0938V29.2188C39.9987 27.0648 38.2464 25.3125 36.0925 25.3125ZM38.4362 36.0938C38.4362 37.3861 37.3848 38.4375 36.0925 38.4375H26.2813C24.9889 38.4375 23.9375 37.3861 23.9375 36.0938V32.0117C23.9375 31.8045 23.8552 31.6058 23.7087 31.4593L21.5463 29.2969H23.2367C23.6007 29.2969 23.9164 29.0455 23.9981 28.6908C24.244 27.6217 25.1829 26.875 26.2813 26.875H36.0925C37.3848 26.875 38.4362 27.9264 38.4362 29.2188V36.0938Z" fill="#7CCCDB"/>
<path d="M34.6997 30.5774C34.3947 30.2724 33.9001 30.2724 33.595 30.5774L31.5182 32.6542L30.5525 31.6885C30.2474 31.3835 29.7527 31.3835 29.4476 31.6885C29.1425 31.9936 29.1425 32.4883 29.4476 32.7935L30.9657 34.3116C31.1183 34.4642 31.3182 34.5404 31.5181 34.5404C31.718 34.5404 31.918 34.4642 32.0705 34.3116L34.6997 31.6824C35.0048 31.3773 35.0048 30.8826 34.6997 30.5774Z" fill="#7CCCDB"/>
<path d="M12.364 5.17716C12.2716 3.83755 11.1918 2.7577 9.85219 2.66536C9.09258 2.6131 8.36852 2.86935 7.81383 3.38716C7.26688 3.8977 6.95312 4.61958 6.95312 5.36755C6.9532 5.79911 7.30297 6.14888 7.73445 6.14888C8.16594 6.14888 8.5157 5.79911 8.5157 5.36763C8.5157 5.04645 8.64508 4.7488 8.88008 4.52942C9.11469 4.31036 9.42211 4.20161 9.74485 4.22427C10.3104 4.26325 10.7663 4.71911 10.8052 5.28466C10.8447 5.85645 10.4698 6.36177 9.91399 6.48614C9.30555 6.62224 8.88063 7.15122 8.88063 7.77247V8.18927C8.88063 8.62075 9.23039 8.97052 9.66188 8.97052C10.0934 8.97052 10.4431 8.62075 10.4431 8.18927V7.96192C11.6536 7.60083 12.4524 6.45966 12.364 5.17716Z" fill="#7CCCDB"/>
<path d="M10.2125 10.6266C10.0672 10.4813 9.86563 10.3977 9.66016 10.3977C9.45391 10.3977 9.25313 10.4813 9.10781 10.6266C8.96172 10.7719 8.87891 10.9735 8.87891 11.179C8.87891 11.3844 8.96172 11.586 9.10781 11.7313C9.25313 11.8766 9.45391 11.9602 9.66016 11.9602C9.86563 11.9602 10.0672 11.8766 10.2125 11.7313C10.3578 11.586 10.4414 11.3844 10.4414 11.179C10.4414 10.9735 10.3578 10.7719 10.2125 10.6266Z" fill="#2855AF"/>
<path d="M8.48203 35.5414C8.33672 35.3961 8.13516 35.3125 7.92969 35.3125C7.72422 35.3125 7.52266 35.3961 7.37734 35.5414C7.23203 35.6867 7.14844 35.8883 7.14844 36.0938C7.14844 36.2992 7.23203 36.5008 7.37734 36.6461C7.52266 36.7914 7.72422 36.875 7.92969 36.875C8.13516 36.875 8.33672 36.7914 8.48203 36.6461C8.62734 36.5008 8.71094 36.2992 8.71094 36.0938C8.71094 35.8883 8.62734 35.6867 8.48203 35.5414Z" fill="#2855AF"/>
</g>
<defs>
<clipPath id="clip0">
<rect width="40" height="40" fill="white"/>
</clipPath>
</defs>
</svg>
