<svg width="42" height="42" viewBox="0 0 42 42" fill="none" xmlns="http://www.w3.org/2000/svg">
<path d="M21.9109 12.28L21.9109 12.2801L23.8984 17.027C24.1182 17.5499 23.901 18.1713 23.398 18.4108L23.398 18.4108C22.8863 18.6541 22.3008 18.405 22.0795 17.8785L22.0794 17.8783L21.0005 15.3013L16.1883 26.7922C16.0256 27.1812 15.664 27.4186 15.2779 27.4186C15.1407 27.4186 15.0022 27.3884 14.8699 27.3258L14.8696 27.3257C14.3667 27.0862 14.1495 26.465 14.3692 25.9421L21.9109 12.28ZM21.9109 12.28C21.7533 11.904 21.3989 11.6547 21.0014 11.6547C20.6039 11.6547 20.2495 11.904 20.0919 12.28L20.0919 12.2801L14.3692 25.9419L21.9109 12.28Z" fill="#7CCCDB" stroke="#7CCCDB" stroke-width="0.3"/>
<path d="M21.0011 19.8922C20.4428 19.8912 20.0062 20.3715 20.0062 20.9423C20.0062 21.5131 20.4419 21.9932 21.0009 21.9932H23.8026L25.8132 26.7933C25.9759 27.1822 26.3375 27.4197 26.7236 27.4197C26.8608 27.4197 26.9992 27.3895 27.1316 27.3269L27.1321 27.3266C27.6349 27.0862 27.8511 26.4659 27.6323 25.9432L27.6323 25.9432L25.3601 20.5177L25.3601 20.5176C25.2025 20.1416 24.8481 19.8922 24.4506 19.8922H21.0011ZM21.0011 19.8922C21.0011 19.8922 21.0012 19.8922 21.0012 19.8922L21.0009 20.0422V19.8922H21.0011Z" fill="#7CCCDB" stroke="#7CCCDB" stroke-width="0.3"/>
<path d="M39.0386 2.60539L39.0386 2.60545L41.1316 14.2113C41.1931 14.5496 41.0922 14.9005 40.8623 15.1468L40.862 15.1471C40.6291 15.3956 40.293 15.5058 39.9659 15.4392L39.9656 15.4392L29.085 13.2067C29.0849 13.2067 29.0847 13.2067 29.0846 13.2066C28.7176 13.1325 28.4272 12.8498 28.3217 12.4811C28.2165 12.1133 28.3081 11.7122 28.5668 11.4363L30.7942 9.06048C31.1838 8.645 31.8179 8.645 32.2075 9.06048C32.5918 9.47045 32.5918 10.1296 32.2075 10.5396L31.2894 11.5188L38.9025 13.0808L37.4372 4.96059L34.3741 8.22866L34.2683 8.12955L34.3741 8.22867C33.9981 8.62974 33.3369 8.62974 32.9608 8.22867C26.364 1.19417 15.6364 1.19239 9.03795 8.22868C5.99251 11.477 4.23396 15.7962 4.0881 20.391C4.0706 20.9499 3.63721 21.4065 3.09519 21.4065H3.09513H3.09507H3.09501H3.09495H3.09489H3.09483H3.09477H3.09471H3.09465H3.09459H3.09454H3.09448H3.09442H3.09436H3.0943H3.09424H3.09418H3.09412H3.09406H3.094H3.09394H3.09389H3.09383H3.09377H3.09371H3.09365H3.09359H3.09353H3.09347H3.09341H3.09336H3.0933H3.09324H3.09318H3.09312H3.09306H3.093H3.09294H3.09289H3.09283H3.09277H3.09271H3.09265H3.09259H3.09253H3.09248H3.09242H3.09236H3.0923H3.09224H3.09218H3.09212H3.09207H3.09201H3.09195H3.09189H3.09183H3.09177H3.09172H3.09166H3.0916H3.09154H3.09148H3.09142H3.09137H3.09131H3.09125H3.09119H3.09113H3.09108H3.09102H3.09096H3.0909H3.09084H3.09078H3.09073H3.09067H3.09061H3.09055H3.09049H3.09044H3.09038H3.09032H3.09026H3.09021H3.09015H3.09009H3.09003H3.08997H3.08992H3.08986H3.0898H3.08974H3.08968H3.08963H3.08957H3.08951H3.08945H3.0894H3.08934H3.08928H3.08922H3.08917H3.08911H3.08905H3.08899H3.08894H3.08888H3.08882H3.08876H3.08871H3.08865H3.08859H3.08853H3.08848H3.08842H3.08836H3.0883H3.08825H3.08819H3.08813H3.08807H3.08802H3.08796H3.0879H3.08785H3.08779H3.08773H3.08767H3.08762H3.08756H3.0875H3.08744H3.08739H3.08733H3.08727H3.08722H3.08716H3.0871H3.08704H3.08699H3.08693H3.08687H3.08682H3.08676H3.0867H3.08665H3.08659H3.08653H3.08648H3.08642H3.08636H3.0863H3.08625H3.08619H3.08613H3.08608H3.08602H3.08596H3.08591H3.08585H3.08579H3.08574H3.08568H3.08562H3.08557H3.08551H3.08545H3.0854H3.08534H3.08528H3.08523H3.08517H3.08511H3.08506H3.085H3.08494H3.08489H3.08483H3.08477H3.08472H3.08466H3.0846H3.08455H3.08449H3.08443H3.08438H3.08432H3.08427H3.08421H3.08415H3.0841H3.08404H3.08398H3.08393H3.08387H3.08381H3.08376H3.0837H3.08365H3.08359H3.08353H3.08348H3.08342H3.08336H3.08331H3.08325H3.0832H3.08314H3.08308H3.08303H3.08297H3.08291H3.08286H3.0828H3.08275H3.08269H3.08263H3.08258H3.08252H3.08247H3.08241H3.08235H3.0823H3.08224H3.08219H3.08213H3.08207H3.08202H3.08196H3.08191H3.08185H3.08179H3.08174H3.08168H3.08163H3.08157H3.08152H3.08146H3.0814H3.08135H3.08129H3.08124H3.08118H3.08112H3.08107H3.08101H3.08096H3.0809H3.08085H3.08079H3.08073H3.08068H3.08062H3.08057H3.08051H3.08046H3.0804H3.08034H3.08029H3.08023H3.08018H3.08012H3.08007H3.08001H3.07995H3.0799H3.07984H3.07979H3.07973H3.07968H3.07962H3.07957H3.07951H3.07946H3.0794H3.07934H3.07929H3.07923H3.07918H3.07912H3.07907H3.07901H3.07896H3.0789H3.07885H3.07879H3.07873H3.07868H3.07862H3.07857H3.07851H3.07846H3.0784H3.07835H3.07829H3.07824H3.07818H3.07813H3.07807H3.07801H3.07796H3.0779H3.07785H3.07779H3.07774H3.07768H3.07763H3.07757H3.07752H3.07746H3.07741H3.07735H3.0773H3.07724H3.07719H3.07713H3.07708H3.07702H3.07697H3.07691H3.07686H3.0768H3.07675H3.07669H3.07664H3.07658H3.07653H3.07647H3.07641H3.07636H3.0763H3.07625H3.07619H3.07614H3.07608H3.07603H3.07597H3.07592H3.07586H3.07581H3.07575H3.0757H3.07564H3.07559H3.07553H3.07548H3.07542H3.07537H3.07531H3.07526H3.07521H3.07515H3.0751H3.07504H3.07499H3.07493H3.07488H3.07482H3.07477H3.07471H3.07466H3.0746H3.07455H3.07449H3.07444H3.07438H3.07433H3.07427H3.07422H3.07416H3.07411H3.07405H3.074H3.07394H3.07389H3.07383H3.07378H3.07372H3.07367H3.07361H3.07356H3.07351H3.07345H3.0734H3.07334H3.07329H3.07323H3.07318H3.07312H3.07307H3.07301H3.07296H3.0729H3.07285H3.07279H3.07274H3.07268H3.07263H3.07257H3.07252H3.07247H3.07241H3.07236H3.0723H3.07225H3.07219H3.07214H3.07208H3.07203H3.07197H3.07192H3.07186H3.07181H3.07176H3.0717H3.07165H3.07159H3.07154H3.07148H3.07143H3.07137H3.07132H3.07126H3.07121H3.07115H3.0711H3.07105H3.07099H3.07094H3.07088H3.07083H3.07077H3.07072H3.07066H3.07061H3.07055H3.0705H3.07045H3.07039H3.07034H3.07028H3.07023H3.07017H3.07012H3.07006H3.07001H3.06995H3.0699H3.06985H3.06979H3.06974H3.06968H3.06963H3.06957H3.06952H3.06946H3.06941H3.06935H3.0693H3.06925H3.06919H3.06914H3.06908H3.06903H3.06897H3.06892H3.06886H3.06881H3.06876H3.0687H3.06865H3.06859H3.06854H3.06848H3.06843H3.06837H3.06832H3.06827H3.06821H3.06816H3.0681H3.06805H3.06799H3.06794H3.06788H3.06783H3.06778H3.06772H3.06767H3.06761H3.06756H3.0675H3.06745H3.06739H3.06734H3.06729H3.06723H3.06718H3.06712H3.06707H3.06701H3.06696H3.0669H3.06685H3.0668H3.06674H3.06669H3.06663H3.06658H3.06652H3.06647H3.06126L3.06126 21.4065C2.5025 21.3871 2.08217 20.8917 2.10059 20.321M39.0386 2.60539L37.3547 2.063L33.6496 6.01577C26.2327 -1.10938 14.7616 -0.862751 7.62473 6.74954C4.22365 10.3772 2.26137 15.1973 2.10059 20.321M39.0386 2.60539C38.9704 2.22837 38.711 1.91434 38.3558 1.79855M39.0386 2.60539L38.3558 1.79855M2.10059 20.321L2.25051 20.3259L2.10058 20.3212C2.10058 20.3211 2.10059 20.3211 2.10059 20.321ZM38.3558 1.79855C37.9998 1.68041 37.6134 1.78608 37.3548 2.0628L38.3558 1.79855Z" fill="#2855AF" stroke="#2855AF" stroke-width="0.3"/>
<path d="M7.62524 33.772L7.62526 33.772C8.00126 33.371 8.66245 33.371 9.03847 33.772C15.6361 40.8065 26.3637 40.8083 32.9614 33.772C36.0068 30.5228 37.7654 26.2045 37.9104 21.6098C37.9278 21.0508 38.3612 20.5941 38.9033 20.5941L38.9049 20.5941C38.9131 20.5941 38.9265 20.5941 38.9412 20.5953C39.4979 20.6169 39.9164 21.1112 39.897 21.6799C39.737 26.8027 37.7756 31.6226 34.3737 35.2512C30.6878 39.1827 25.8444 41.1502 20.9987 41.1502C16.4662 41.1502 11.9331 39.4282 8.34973 35.9858L4.64448 39.9388L4.64428 39.939C4.38496 40.2146 3.99958 40.3203 3.64349 40.203C3.64347 40.203 3.64346 40.203 3.64344 40.203L3.69037 40.0605L7.62524 33.772ZM7.62524 33.772L4.5621 37.0401L3.09686 28.9199L10.7098 30.4818L9.79198 31.46L7.62524 33.772ZM13.4325 30.5644L13.4325 30.5644L11.2051 32.9393C11.2051 32.9393 11.2051 32.9393 11.2051 32.9393C10.8155 33.3548 10.1814 33.3548 9.79185 32.9393C9.40759 32.5294 9.40738 31.8693 9.79189 31.4601L13.4325 30.5644ZM13.4325 30.5644C13.6912 30.2885 13.7828 29.8874 13.6776 29.5196C13.5721 29.1508 13.2817 28.8681 12.9146 28.794C12.9145 28.794 12.9144 28.794 12.9143 28.794L2.03467 26.5615C1.70583 26.4937 1.37077 26.6065 1.13835 26.8534L1.13813 26.8536M13.4325 30.5644L1.13813 26.8536M1.13813 26.8536C0.90706 27.1001 0.806244 27.4511 0.867676 27.7902L1.13813 26.8536Z" fill="#2855AF" stroke="#2855AF" stroke-width="0.3"/>
</svg>
