<svg width="40" height="40" viewBox="0 0 40 40" fill="none" xmlns="http://www.w3.org/2000/svg">
<g clip-path="url(#clip0)">
<mask id="path-1-outside-1" maskUnits="userSpaceOnUse" x="2.05859" y="-1" width="36" height="42" fill="black">
<rect fill="white" x="2.05859" y="-1" width="36" height="42"/>
<path d="M36.3069 2.71766H20.6382V2.33547C20.6382 1.04766 19.5905 0 18.3027 0H15.5851C14.2973 0 13.2496 1.04766 13.2496 2.33547V2.71766H9.47039C9.11851 2.71766 8.83343 3.00281 8.83343 3.35461V8.49258H3.69555C3.34367 8.49258 3.05859 8.77773 3.05859 9.12953V32.9083C3.05859 32.9295 3.05969 32.9506 3.0618 32.9717C3.06266 32.9803 3.0643 32.9886 3.06547 32.9971C3.06719 33.0092 3.06859 33.0213 3.07102 33.0334C3.07297 33.0434 3.07578 33.0532 3.0782 33.063C3.08078 33.0734 3.08305 33.0836 3.08609 33.0938C3.08906 33.1036 3.09273 33.113 3.09609 33.1225C3.09969 33.1326 3.10305 33.1427 3.10711 33.1527C3.11086 33.1616 3.11516 33.1702 3.11922 33.1789C3.12398 33.189 3.12844 33.1992 3.13375 33.2091C3.13828 33.2176 3.14336 33.2255 3.1482 33.2336C3.15398 33.2433 3.15953 33.2531 3.16578 33.2626C3.17172 33.2715 3.17836 33.2798 3.18477 33.2885C3.19078 33.2966 3.19641 33.3048 3.20289 33.3127C3.21531 33.3277 3.22844 33.3421 3.24211 33.356C3.24313 33.357 3.24398 33.3582 3.245 33.3592L9.69937 39.8136C9.70023 39.8145 9.70117 39.8152 9.70195 39.8159C9.71601 39.8298 9.7307 39.8431 9.74609 39.8558C9.7532 39.8616 9.76078 39.8667 9.76812 39.8723C9.7775 39.8792 9.78656 39.8865 9.79625 39.893C9.80492 39.8988 9.81398 39.9038 9.82281 39.9092C9.83172 39.9145 9.84047 39.9202 9.84968 39.9251C9.85875 39.9299 9.8682 39.9341 9.87758 39.9385C9.88711 39.943 9.8964 39.9477 9.90617 39.9518C9.91523 39.9555 9.92461 39.9586 9.93383 39.9619C9.94422 39.9656 9.95437 39.9696 9.96492 39.9727C9.97429 39.9755 9.98367 39.9776 9.99312 39.9799C10.0038 39.9827 10.0145 39.9856 10.0253 39.9877C10.0362 39.9899 10.0473 39.9912 10.0584 39.9927C10.0679 39.9941 10.0773 39.9959 10.0869 39.9968C10.1077 39.9988 10.1287 39.9999 10.1497 39.9999H28.8333C29.1852 39.9999 29.4703 39.7148 29.4703 39.363V36.6029H36.3068C36.6587 36.6029 36.9437 36.3177 36.9437 35.9659V3.35453C36.9439 3.00281 36.6588 2.71766 36.3069 2.71766ZM14.5235 2.33547C14.5235 1.75008 14.9997 1.27391 15.5851 1.27391H18.3027C18.8881 1.27391 19.3643 1.75008 19.3643 2.33547V2.71766H14.5235V2.33547ZM14.5235 9.76648H17.6658V12.9087H14.5235V9.76648ZM17.4515 14.1826C17.2576 14.4398 16.9505 14.6072 16.6043 14.6072H15.5852C15.2389 14.6072 14.9318 14.4398 14.738 14.1826H17.4515ZM10.1074 3.99148H13.2497V8.49258H10.1074V3.99148ZM9.51297 35.966V37.8253L5.23328 33.5456H9.47047H9.51297V35.966ZM28.1966 35.966V38.7261H10.7868V35.966V32.9087C10.7868 32.5569 10.5017 32.2717 10.1498 32.2717H9.47047H4.3325V9.76648H9.47047H13.2497V12.9087H9.47047H8.11164C7.75976 12.9087 7.47469 13.1939 7.47469 13.5457C7.47469 13.8975 7.75976 14.1827 8.11164 14.1827H9.47047H13.3387C13.6167 15.1616 14.5182 15.8812 15.5852 15.8812H16.6043C17.6712 15.8812 18.5727 15.1617 18.8508 14.1827H24.7572C25.1091 14.1827 25.3941 13.8975 25.3941 13.5457C25.3941 13.1939 25.1091 12.9087 24.7572 12.9087H18.9398V9.76648H28.1966V35.966H28.1966ZM35.6701 35.3291H29.4705V9.12953C29.4705 8.77773 29.1854 8.49258 28.8335 8.49258H18.9397V5.39281C18.9397 5.04102 18.6546 4.75586 18.3027 4.75586C17.9509 4.75586 17.6658 5.04102 17.6658 5.39281V8.49258H14.5235V3.99148H35.67V35.3291H35.6701Z"/>
</mask>
<path d="M36.3069 2.71766H20.6382V2.33547C20.6382 1.04766 19.5905 0 18.3027 0H15.5851C14.2973 0 13.2496 1.04766 13.2496 2.33547V2.71766H9.47039C9.11851 2.71766 8.83343 3.00281 8.83343 3.35461V8.49258H3.69555C3.34367 8.49258 3.05859 8.77773 3.05859 9.12953V32.9083C3.05859 32.9295 3.05969 32.9506 3.0618 32.9717C3.06266 32.9803 3.0643 32.9886 3.06547 32.9971C3.06719 33.0092 3.06859 33.0213 3.07102 33.0334C3.07297 33.0434 3.07578 33.0532 3.0782 33.063C3.08078 33.0734 3.08305 33.0836 3.08609 33.0938C3.08906 33.1036 3.09273 33.113 3.09609 33.1225C3.09969 33.1326 3.10305 33.1427 3.10711 33.1527C3.11086 33.1616 3.11516 33.1702 3.11922 33.1789C3.12398 33.189 3.12844 33.1992 3.13375 33.2091C3.13828 33.2176 3.14336 33.2255 3.1482 33.2336C3.15398 33.2433 3.15953 33.2531 3.16578 33.2626C3.17172 33.2715 3.17836 33.2798 3.18477 33.2885C3.19078 33.2966 3.19641 33.3048 3.20289 33.3127C3.21531 33.3277 3.22844 33.3421 3.24211 33.356C3.24313 33.357 3.24398 33.3582 3.245 33.3592L9.69937 39.8136C9.70023 39.8145 9.70117 39.8152 9.70195 39.8159C9.71601 39.8298 9.7307 39.8431 9.74609 39.8558C9.7532 39.8616 9.76078 39.8667 9.76812 39.8723C9.7775 39.8792 9.78656 39.8865 9.79625 39.893C9.80492 39.8988 9.81398 39.9038 9.82281 39.9092C9.83172 39.9145 9.84047 39.9202 9.84968 39.9251C9.85875 39.9299 9.8682 39.9341 9.87758 39.9385C9.88711 39.943 9.8964 39.9477 9.90617 39.9518C9.91523 39.9555 9.92461 39.9586 9.93383 39.9619C9.94422 39.9656 9.95437 39.9696 9.96492 39.9727C9.97429 39.9755 9.98367 39.9776 9.99312 39.9799C10.0038 39.9827 10.0145 39.9856 10.0253 39.9877C10.0362 39.9899 10.0473 39.9912 10.0584 39.9927C10.0679 39.9941 10.0773 39.9959 10.0869 39.9968C10.1077 39.9988 10.1287 39.9999 10.1497 39.9999H28.8333C29.1852 39.9999 29.4703 39.7148 29.4703 39.363V36.6029H36.3068C36.6587 36.6029 36.9437 36.3177 36.9437 35.9659V3.35453C36.9439 3.00281 36.6588 2.71766 36.3069 2.71766ZM14.5235 2.33547C14.5235 1.75008 14.9997 1.27391 15.5851 1.27391H18.3027C18.8881 1.27391 19.3643 1.75008 19.3643 2.33547V2.71766H14.5235V2.33547ZM14.5235 9.76648H17.6658V12.9087H14.5235V9.76648ZM17.4515 14.1826C17.2576 14.4398 16.9505 14.6072 16.6043 14.6072H15.5852C15.2389 14.6072 14.9318 14.4398 14.738 14.1826H17.4515ZM10.1074 3.99148H13.2497V8.49258H10.1074V3.99148ZM9.51297 35.966V37.8253L5.23328 33.5456H9.47047H9.51297V35.966ZM28.1966 35.966V38.7261H10.7868V35.966V32.9087C10.7868 32.5569 10.5017 32.2717 10.1498 32.2717H9.47047H4.3325V9.76648H9.47047H13.2497V12.9087H9.47047H8.11164C7.75976 12.9087 7.47469 13.1939 7.47469 13.5457C7.47469 13.8975 7.75976 14.1827 8.11164 14.1827H9.47047H13.3387C13.6167 15.1616 14.5182 15.8812 15.5852 15.8812H16.6043C17.6712 15.8812 18.5727 15.1617 18.8508 14.1827H24.7572C25.1091 14.1827 25.3941 13.8975 25.3941 13.5457C25.3941 13.1939 25.1091 12.9087 24.7572 12.9087H18.9398V9.76648H28.1966V35.966H28.1966ZM35.6701 35.3291H29.4705V9.12953C29.4705 8.77773 29.1854 8.49258 28.8335 8.49258H18.9397V5.39281C18.9397 5.04102 18.6546 4.75586 18.3027 4.75586C17.9509 4.75586 17.6658 5.04102 17.6658 5.39281V8.49258H14.5235V3.99148H35.67V35.3291H35.6701Z" fill="#2855AF"/>
<path d="M36.3069 2.71766H20.6382V2.33547C20.6382 1.04766 19.5905 0 18.3027 0H15.5851C14.2973 0 13.2496 1.04766 13.2496 2.33547V2.71766H9.47039C9.11851 2.71766 8.83343 3.00281 8.83343 3.35461V8.49258H3.69555C3.34367 8.49258 3.05859 8.77773 3.05859 9.12953V32.9083C3.05859 32.9295 3.05969 32.9506 3.0618 32.9717C3.06266 32.9803 3.0643 32.9886 3.06547 32.9971C3.06719 33.0092 3.06859 33.0213 3.07102 33.0334C3.07297 33.0434 3.07578 33.0532 3.0782 33.063C3.08078 33.0734 3.08305 33.0836 3.08609 33.0938C3.08906 33.1036 3.09273 33.113 3.09609 33.1225C3.09969 33.1326 3.10305 33.1427 3.10711 33.1527C3.11086 33.1616 3.11516 33.1702 3.11922 33.1789C3.12398 33.189 3.12844 33.1992 3.13375 33.2091C3.13828 33.2176 3.14336 33.2255 3.1482 33.2336C3.15398 33.2433 3.15953 33.2531 3.16578 33.2626C3.17172 33.2715 3.17836 33.2798 3.18477 33.2885C3.19078 33.2966 3.19641 33.3048 3.20289 33.3127C3.21531 33.3277 3.22844 33.3421 3.24211 33.356C3.24313 33.357 3.24398 33.3582 3.245 33.3592L9.69937 39.8136C9.70023 39.8145 9.70117 39.8152 9.70195 39.8159C9.71601 39.8298 9.7307 39.8431 9.74609 39.8558C9.7532 39.8616 9.76078 39.8667 9.76812 39.8723C9.7775 39.8792 9.78656 39.8865 9.79625 39.893C9.80492 39.8988 9.81398 39.9038 9.82281 39.9092C9.83172 39.9145 9.84047 39.9202 9.84968 39.9251C9.85875 39.9299 9.8682 39.9341 9.87758 39.9385C9.88711 39.943 9.8964 39.9477 9.90617 39.9518C9.91523 39.9555 9.92461 39.9586 9.93383 39.9619C9.94422 39.9656 9.95437 39.9696 9.96492 39.9727C9.97429 39.9755 9.98367 39.9776 9.99312 39.9799C10.0038 39.9827 10.0145 39.9856 10.0253 39.9877C10.0362 39.9899 10.0473 39.9912 10.0584 39.9927C10.0679 39.9941 10.0773 39.9959 10.0869 39.9968C10.1077 39.9988 10.1287 39.9999 10.1497 39.9999H28.8333C29.1852 39.9999 29.4703 39.7148 29.4703 39.363V36.6029H36.3068C36.6587 36.6029 36.9437 36.3177 36.9437 35.9659V3.35453C36.9439 3.00281 36.6588 2.71766 36.3069 2.71766ZM14.5235 2.33547C14.5235 1.75008 14.9997 1.27391 15.5851 1.27391H18.3027C18.8881 1.27391 19.3643 1.75008 19.3643 2.33547V2.71766H14.5235V2.33547ZM14.5235 9.76648H17.6658V12.9087H14.5235V9.76648ZM17.4515 14.1826C17.2576 14.4398 16.9505 14.6072 16.6043 14.6072H15.5852C15.2389 14.6072 14.9318 14.4398 14.738 14.1826H17.4515ZM10.1074 3.99148H13.2497V8.49258H10.1074V3.99148ZM9.51297 35.966V37.8253L5.23328 33.5456H9.47047H9.51297V35.966ZM28.1966 35.966V38.7261H10.7868V35.966V32.9087C10.7868 32.5569 10.5017 32.2717 10.1498 32.2717H9.47047H4.3325V9.76648H9.47047H13.2497V12.9087H9.47047H8.11164C7.75976 12.9087 7.47469 13.1939 7.47469 13.5457C7.47469 13.8975 7.75976 14.1827 8.11164 14.1827H9.47047H13.3387C13.6167 15.1616 14.5182 15.8812 15.5852 15.8812H16.6043C17.6712 15.8812 18.5727 15.1617 18.8508 14.1827H24.7572C25.1091 14.1827 25.3941 13.8975 25.3941 13.5457C25.3941 13.1939 25.1091 12.9087 24.7572 12.9087H18.9398V9.76648H28.1966V35.966H28.1966ZM35.6701 35.3291H29.4705V9.12953C29.4705 8.77773 29.1854 8.49258 28.8335 8.49258H18.9397V5.39281C18.9397 5.04102 18.6546 4.75586 18.3027 4.75586C17.9509 4.75586 17.6658 5.04102 17.6658 5.39281V8.49258H14.5235V3.99148H35.67V35.3291H35.6701Z" stroke="#2855AF" stroke-width="0.4" mask="url(#path-1-outside-1)"/>
<path d="M24.7551 18.2437H9.46844H8.10961C7.7025 18.2437 7.37266 18.5737 7.37266 18.9807C7.37266 19.3877 7.7025 19.7177 8.10961 19.7177H9.46844H24.7551C25.1622 19.7177 25.492 19.3877 25.492 18.9807C25.492 18.5737 25.1622 18.2437 24.7551 18.2437Z" fill="#7CCCDB" stroke="#7CCCDB" stroke-width="0.2"/>
<path d="M24.7551 23.6793H9.46844H8.10961C7.7025 23.6793 7.37266 24.0092 7.37266 24.4162C7.37266 24.8233 7.7025 25.1532 8.10961 25.1532H9.46844H24.7551C25.1622 25.1532 25.492 24.8233 25.492 24.4162C25.492 24.0092 25.1622 23.6793 24.7551 23.6793Z" fill="#7CCCDB" stroke="#7CCCDB" stroke-width="0.2"/>
<path d="M24.7551 29.1146H9.46844H8.10961C7.7025 29.1146 7.37266 29.4445 7.37266 29.8516C7.37266 30.2586 7.7025 30.5885 8.10961 30.5885H9.46844H24.7551C25.1622 30.5885 25.492 30.2586 25.492 29.8516C25.492 29.4445 25.1622 29.1146 24.7551 29.1146Z" fill="#7CCCDB" stroke="#7CCCDB" stroke-width="0.2"/>
</g>
<defs>
<clipPath id="clip0">
<rect width="40" height="40" fill="white"/>
</clipPath>
</defs>
</svg>
