<svg width="55" height="55" viewBox="0 0 55 55" fill="none" xmlns="http://www.w3.org/2000/svg">
<g clip-path="url(#clip0)">
<path d="M24.4375 16.49V32.3884C24.4375 32.8336 24.7984 33.1941 25.2432 33.1941H44.1494C44.5946 33.1941 44.9551 32.8336 44.9551 32.3884V16.49C44.9551 16.0448 44.5946 15.6843 44.1494 15.6843H25.2432C24.7984 15.6843 24.4375 16.0448 24.4375 16.49ZM26.0488 31.5828V29.3961L31.1975 24.8781L39.9595 31.5828H26.0488ZM43.3438 31.5828H42.6111L39.712 29.3643L43.3438 26.2071V31.5828ZM43.3438 17.2957V24.072L38.4057 28.3647L31.9222 23.4036C31.4619 23.0515 30.8115 23.0729 30.3755 23.4556L26.0488 27.2523V17.2957H43.3438Z" fill="#7CCCDB"/>
<path d="M39.0254 23.6531C40.5897 23.6531 41.8628 22.38 41.8628 20.8152C41.8628 19.2505 40.5897 17.9778 39.0254 17.9778C37.4606 17.9778 36.1875 19.2505 36.1875 20.8152C36.1875 22.38 37.4606 23.6531 39.0254 23.6531ZM39.0254 19.5891C39.7014 19.5891 40.2515 20.1392 40.2515 20.8152C40.2515 21.4917 39.7014 22.0418 39.0254 22.0418C38.3489 22.0418 37.7988 21.4917 37.7988 20.8152C37.7988 20.1392 38.3489 19.5891 39.0254 19.5891Z" fill="#2855AF"/>
<path d="M53.1201 40.0684H51.077C51.2839 39.6651 51.4014 39.209 51.4014 38.7256V10.7959C51.4014 9.16695 50.0762 7.8418 48.4473 7.8418H6.55273C4.92378 7.8418 3.59863 9.16695 3.59863 10.7959V13.6606C3.59863 14.1054 3.9595 14.4663 4.4043 14.4663C4.84909 14.4663 5.20996 14.1054 5.20996 13.6606V10.7959C5.20996 10.0553 5.81211 9.45312 6.55273 9.45312H48.4473C49.1879 9.45312 49.79 10.0553 49.79 10.7959V38.7256C49.79 39.4662 49.1879 40.0684 48.4473 40.0684H6.55273C5.81211 40.0684 5.20996 39.4662 5.20996 38.7256V17.0981C5.20996 16.6529 4.84909 16.2925 4.4043 16.2925C3.9595 16.2925 3.59863 16.6529 3.59863 17.0981V38.7256C3.59863 39.209 3.71613 39.6651 3.923 40.0684H1.87988C0.843429 40.0684 0 40.9118 0 41.9482V43.0225C0 45.2439 1.80687 47.0508 4.02832 47.0508H44.6518C45.0966 47.0508 45.4575 46.6903 45.4575 46.2451C45.4575 45.7999 45.0966 45.4395 44.6518 45.4395H4.02832C2.69562 45.4395 1.61133 44.3552 1.61133 43.0225V41.9482C1.61133 41.8001 1.73176 41.6797 1.87988 41.6797H20.5713V42.0355C20.5713 43.3796 21.6644 44.4727 23.0084 44.4727H31.992C33.3356 44.4727 34.4287 43.3796 34.4287 42.0355V41.6797H53.1201C53.2682 41.6797 53.3887 41.8001 53.3887 41.9482V43.0225C53.3887 44.3552 52.3044 45.4395 50.9717 45.4395H48.1968C47.7515 45.4395 47.3911 45.7999 47.3911 46.2451C47.3911 46.6903 47.7515 47.0508 48.1968 47.0508H50.9717C53.1931 47.0508 55 45.2439 55 43.0225V41.9482C55 40.9118 54.1566 40.0684 53.1201 40.0684ZM32.8174 42.0355C32.8174 42.4908 32.4473 42.8613 31.9916 42.8613H23.008C22.5527 42.8613 22.1826 42.4912 22.1826 42.0355V41.6797H32.8174V42.0355Z" fill="#2855AF"/>
<path d="M41.249 11.0645H7.62598C7.18118 11.0645 6.82031 11.4249 6.82031 11.8701V37.6514C6.82031 38.0966 7.18118 38.457 7.62598 38.457H47.3721C47.8173 38.457 48.1777 38.0966 48.1777 37.6514V11.8701C48.1777 11.4249 47.8173 11.0645 47.3721 11.0645H44.6509C44.2056 11.0645 43.8452 11.4249 43.8452 11.8701C43.8452 12.3153 44.2056 12.6758 44.6509 12.6758H46.5664V36.8457H8.43164V12.6758H41.249C41.6942 12.6758 42.0547 12.3153 42.0547 11.8701C42.0547 11.4249 41.6942 11.0645 41.249 11.0645Z" fill="#2855AF"/>
<path d="M21.0557 16.9143H12.4619C12.0171 16.9143 11.6562 17.2748 11.6562 17.72C11.6562 18.1652 12.0171 18.5256 12.4619 18.5256H21.0557C21.5005 18.5256 21.8613 18.1652 21.8613 17.72C21.8613 17.2748 21.5005 16.9143 21.0557 16.9143Z" fill="#7CCCDB"/>
<path d="M21.0557 20.0334H12.4619C12.0171 20.0334 11.6562 20.3939 11.6562 20.8391C11.6562 21.2843 12.0171 21.6448 12.4619 21.6448H21.0557C21.5005 21.6448 21.8613 21.2843 21.8613 20.8391C21.8613 20.3939 21.5005 20.0334 21.0557 20.0334Z" fill="#7CCCDB"/>
<path d="M21.0557 23.1523H12.4619C12.0171 23.1523 11.6562 23.5128 11.6562 23.958C11.6562 24.4032 12.0171 24.7637 12.4619 24.7637H21.0557C21.5005 24.7637 21.8613 24.4032 21.8613 23.958C21.8613 23.5128 21.5005 23.1523 21.0557 23.1523Z" fill="#7CCCDB"/>
<path d="M21.0557 26.2715H12.4619C12.0171 26.2715 11.6562 26.6324 11.6562 27.0771C11.6562 27.5224 12.0171 27.8828 12.4619 27.8828H21.0557C21.5005 27.8828 21.8613 27.5224 21.8613 27.0771C21.8613 26.6324 21.5005 26.2715 21.0557 26.2715Z" fill="#7CCCDB"/>
<path d="M21.0557 29.3904H12.4619C12.0171 29.3904 11.6562 29.7508 11.6562 30.196C11.6562 30.6413 12.0171 31.0017 12.4619 31.0017H21.0557C21.5005 31.0017 21.8613 30.6413 21.8613 30.196C21.8613 29.7508 21.5005 29.3904 21.0557 29.3904Z" fill="#7CCCDB"/>
</g>
<defs>
<clipPath id="clip0">
<rect width="55" height="55" fill="white"/>
</clipPath>
</defs>
</svg>
