<svg width="40" height="40" viewBox="0 0 40 40" fill="none" xmlns="http://www.w3.org/2000/svg">
<path d="M37.5061 21.3744V21.4803L37.606 21.5157C38.9122 21.979 39.8498 23.2264 39.85 24.6884V27.0321C39.85 28.4941 38.9123 29.7415 37.6061 30.2048L37.5063 30.2402V30.3462V34.0633C37.5063 34.6277 37.0487 35.0852 36.4844 35.0852C30.3302 35.0852 25.2693 36.5443 20.5668 39.6792L20.5668 39.6793C20.2251 39.9073 19.7747 39.9068 19.4332 39.6792C14.7307 36.5443 9.66969 35.0852 3.51562 35.0852C2.95128 35.0852 2.49375 34.6277 2.49375 34.0633V30.3462V30.2402L2.39388 30.2048C1.08768 29.7415 0.15 28.4941 0.15 27.0321V24.6884C0.15 23.2263 1.08768 21.9789 2.39388 21.5157L2.49375 21.4802V21.3743V17.6571C2.49375 17.0928 2.95127 16.6352 3.51562 16.6352C5.92808 16.6352 8.17537 16.8389 10.2972 17.2539L10.3739 17.2689L10.4302 17.2146C11.6555 16.0314 13.1494 15.1728 14.7672 14.7034L15.0367 14.6253L14.822 14.4446C13.0649 12.9659 11.9468 10.7522 11.9468 8.28221C11.9468 3.79739 15.5609 0.150977 19.9999 0.150977C24.4389 0.150977 28.053 3.79739 28.053 8.28221C28.053 10.7522 26.9349 12.9659 25.1778 14.4447L24.9632 14.6254L25.2326 14.7035C26.8504 15.1728 28.3443 16.0314 29.5697 17.2147L29.6259 17.269L29.7027 17.254C31.8245 16.8389 34.0718 16.6353 36.4842 16.6353C37.0486 16.6353 37.5061 17.0928 37.5061 17.6572V21.3744ZM18.7535 36.8565L18.978 36.9849V36.7263V22.9797V22.8974L18.9086 22.8532C14.6752 20.1578 10.2223 18.8544 4.69172 18.6957L4.53741 18.6913V18.8456V21.3744V21.4803L4.63727 21.5157C5.94348 21.979 6.88116 23.2264 6.88116 24.6884V27.0322C6.88116 28.4942 5.94348 29.7416 4.63727 30.2049L4.53741 30.2403V30.3462V32.9084V33.0541L4.68303 33.0583C9.98207 33.2131 14.5227 34.4369 18.7535 36.8565ZM19.9198 21.0762L19.9999 21.1267L20.0799 21.0762C22.2319 19.7183 24.4711 18.6849 26.8613 17.9587L27.1696 17.865L26.8994 17.6894C25.5549 16.8155 23.9719 16.3353 22.3436 16.3353H17.6561C16.0278 16.3353 14.4449 16.8155 13.1003 17.6894L12.8301 17.865L13.1385 17.9587C15.5286 18.6849 17.7678 19.7183 19.9198 21.0762ZM35.3167 33.0583L35.4624 33.0541V32.9084V30.3462V30.2403L35.3625 30.2049C34.0563 29.7416 33.1186 28.4942 33.1186 27.0322V24.6884C33.1186 23.2264 34.0563 21.979 35.3625 21.5157L35.4624 21.4803V21.3744V18.8456V18.6913L35.3081 18.6957C29.7772 18.8544 25.3246 20.1585 21.0912 22.8541L21.0218 22.8983V22.9806V36.7265V36.985L21.2462 36.8567C25.477 34.4372 30.0178 33.2131 35.3167 33.0583ZM19.9999 2.19472C16.6843 2.19472 13.9905 4.92727 13.9905 8.28221C13.9905 11.5959 16.6862 14.2916 19.9999 14.2916C23.3136 14.2916 26.0092 11.5959 26.0092 8.28221C26.0092 4.92727 23.3154 2.19472 19.9999 2.19472ZM2.19367 27.0322C2.19367 27.7612 2.78653 28.354 3.51554 28.354C4.24455 28.354 4.83741 27.7612 4.83741 27.0322V24.6884C4.83741 23.9594 4.24455 23.3666 3.51554 23.3666C2.78653 23.3666 2.19367 23.9594 2.19367 24.6884V27.0322ZM36.4842 28.354C37.2132 28.354 37.8061 27.7612 37.8061 27.0322V24.6884C37.8061 23.9594 37.2132 23.3666 36.4842 23.3666C35.7552 23.3666 35.1624 23.9594 35.1624 24.6884V27.0322C35.1624 27.7612 35.7552 28.354 36.4842 28.354Z" fill="#2855AF" stroke="#FDFDFF" stroke-width="0.3"/>
<mask id="mask0" mask-type="alpha" maskUnits="userSpaceOnUse" x="0" y="0" width="40" height="40">
<path d="M37.5061 21.3744V21.4803L37.606 21.5157C38.9122 21.979 39.8498 23.2264 39.85 24.6884V27.0321C39.85 28.4941 38.9123 29.7415 37.6061 30.2048L37.5063 30.2402V30.3462V34.0633C37.5063 34.6277 37.0487 35.0852 36.4844 35.0852C30.3302 35.0852 25.2693 36.5443 20.5668 39.6792L20.5668 39.6793C20.2251 39.9073 19.7747 39.9068 19.4332 39.6792C14.7307 36.5443 9.66969 35.0852 3.51562 35.0852C2.95128 35.0852 2.49375 34.6277 2.49375 34.0633V30.3462V30.2402L2.39388 30.2048C1.08768 29.7415 0.15 28.4941 0.15 27.0321V24.6884C0.15 23.2263 1.08768 21.9789 2.39388 21.5157L2.49375 21.4802V21.3743V17.6571C2.49375 17.0928 2.95127 16.6352 3.51562 16.6352C5.92808 16.6352 8.17537 16.8389 10.2972 17.2539L10.3739 17.2689L10.4302 17.2146C11.6555 16.0314 13.1494 15.1728 14.7672 14.7034L15.0367 14.6253L14.822 14.4446C13.0649 12.9659 11.9468 10.7522 11.9468 8.28221C11.9468 3.79739 15.5609 0.150977 19.9999 0.150977C24.4389 0.150977 28.053 3.79739 28.053 8.28221C28.053 10.7522 26.9349 12.9659 25.1778 14.4447L24.9632 14.6254L25.2326 14.7035C26.8504 15.1728 28.3443 16.0314 29.5697 17.2147L29.6259 17.269L29.7027 17.254C31.8245 16.8389 34.0718 16.6353 36.4842 16.6353C37.0486 16.6353 37.5061 17.0928 37.5061 17.6572V21.3744ZM18.7535 36.8565L18.978 36.9849V36.7263V22.9797V22.8974L18.9086 22.8532C14.6752 20.1578 10.2223 18.8544 4.69172 18.6957L4.53741 18.6913V18.8456V21.3744V21.4803L4.63727 21.5157C5.94348 21.979 6.88116 23.2264 6.88116 24.6884V27.0322C6.88116 28.4942 5.94348 29.7416 4.63727 30.2049L4.53741 30.2403V30.3462V32.9084V33.0541L4.68303 33.0583C9.98207 33.2131 14.5227 34.4369 18.7535 36.8565ZM19.9198 21.0762L19.9999 21.1267L20.0799 21.0762C22.2319 19.7183 24.4711 18.6849 26.8613 17.9587L27.1696 17.865L26.8994 17.6894C25.5549 16.8155 23.9719 16.3353 22.3436 16.3353H17.6561C16.0278 16.3353 14.4449 16.8155 13.1003 17.6894L12.8301 17.865L13.1385 17.9587C15.5286 18.6849 17.7678 19.7183 19.9198 21.0762ZM35.3167 33.0583L35.4624 33.0541V32.9084V30.3462V30.2403L35.3625 30.2049C34.0563 29.7416 33.1186 28.4942 33.1186 27.0322V24.6884C33.1186 23.2264 34.0563 21.979 35.3625 21.5157L35.4624 21.4803V21.3744V18.8456V18.6913L35.3081 18.6957C29.7772 18.8544 25.3246 20.1585 21.0912 22.8541L21.0218 22.8983V22.9806V36.7265V36.985L21.2462 36.8567C25.477 34.4372 30.0178 33.2131 35.3167 33.0583ZM19.9999 2.19472C16.6843 2.19472 13.9905 4.92727 13.9905 8.28221C13.9905 11.5959 16.6862 14.2916 19.9999 14.2916C23.3136 14.2916 26.0092 11.5959 26.0092 8.28221C26.0092 4.92727 23.3154 2.19472 19.9999 2.19472ZM2.19367 27.0322C2.19367 27.7612 2.78653 28.354 3.51554 28.354C4.24455 28.354 4.83741 27.7612 4.83741 27.0322V24.6884C4.83741 23.9594 4.24455 23.3666 3.51554 23.3666C2.78653 23.3666 2.19367 23.9594 2.19367 24.6884V27.0322ZM36.4842 28.354C37.2132 28.354 37.8061 27.7612 37.8061 27.0322V24.6884C37.8061 23.9594 37.2132 23.3666 36.4842 23.3666C35.7552 23.3666 35.1624 23.9594 35.1624 24.6884V27.0322C35.1624 27.7612 35.7552 28.354 36.4842 28.354Z" fill="#2855AF" stroke="#FDFDFF" stroke-width="0.3"/>
</mask>
<g mask="url(#mask0)">
<path d="M31.5 -3.5H9L8.5 2L11.5 14.5H26.5C28.6667 13.1667 33.2 10.4 34 10C34.8 9.6 32.6667 0.833333 31.5 -3.5Z" fill="#7CCCDB"/>
</g>
</svg>
