<svg width="41" height="40" viewBox="0 0 41 40" fill="none" xmlns="http://www.w3.org/2000/svg">
<path d="M38.8926 16.7423C38.4879 16.7423 38.1602 17.0705 38.1602 17.4747V20.0849C38.1602 21.5827 36.9414 22.8015 35.4436 22.8015H31.2687C31.0744 22.8015 30.8883 22.8784 30.7508 23.0157L25.6895 28.0772V23.5339C25.6895 23.1293 25.3615 22.8015 24.9571 22.8015H14.4707C12.9729 22.8015 11.7541 21.5829 11.7541 20.0849V9.00543C11.7541 7.50763 12.9729 6.28906 14.4707 6.28906H35.4436C36.9414 6.28906 38.1602 7.50763 38.1602 9.00543V11.6154C38.1602 12.02 38.4879 12.3478 38.8926 12.3478C39.2968 12.3478 39.625 12.02 39.625 11.6154V9.00543C39.625 6.69991 37.7493 4.82422 35.4436 4.82422H14.4707C12.1649 4.82422 10.2892 6.69991 10.2892 9.00543V18.415H4.95833C3.39621 18.415 2.125 19.6857 2.125 21.2483V27.9976C2.125 29.5602 3.39621 30.8309 4.95833 30.8309H7.19839L10.8285 34.4612C10.9688 34.6015 11.1562 34.6759 11.3466 34.6759C11.4409 34.6759 11.5364 34.6576 11.6268 34.6201C11.9005 34.5068 12.0791 34.2399 12.0791 33.9435V30.8309H17.7347C19.2971 30.8309 20.5681 29.5602 20.5681 27.9976V24.2664H24.2247V29.8453C24.2247 30.1418 24.4032 30.4086 24.677 30.5219C24.7674 30.5595 24.8626 30.5778 24.9571 30.5778C25.1478 30.5778 25.335 30.5034 25.4751 30.3631L31.572 24.2664H35.4436C37.7493 24.2664 39.625 22.3907 39.625 20.0849V17.4747C39.625 17.0705 39.2968 16.7423 38.8926 16.7423ZM19.1035 27.9976C19.1035 28.7524 18.4896 29.3661 17.7347 29.3661H11.3466C10.942 29.3661 10.6142 29.6943 10.6142 30.0985V32.1754L8.01962 29.5808C7.88229 29.4434 7.69598 29.3661 7.50166 29.3661H4.95833C4.2037 29.3661 3.58984 28.7524 3.58984 27.9976V21.2483C3.58984 20.4937 4.2037 19.8798 4.95833 19.8798H10.2892V20.0849C10.2892 22.3907 12.1649 24.2664 14.4707 24.2664H19.1035V27.9976Z" fill="#2855AF"/>
<path d="M32.0967 9.62378H17.8145C17.41 9.62378 17.082 9.95177 17.082 10.3562C17.082 10.7609 17.41 11.0886 17.8145 11.0886H32.0967C32.5011 11.0886 32.8291 10.7609 32.8291 10.3562C32.8291 9.95177 32.5011 9.62378 32.0967 9.62378Z" fill="#7CCCDB"/>
<path d="M32.8291 14.3118C32.8291 13.9073 32.5011 13.5793 32.0967 13.5793H17.8145C17.41 13.5793 17.082 13.9073 17.082 14.3118C17.082 14.7164 17.41 15.0442 17.8145 15.0442H32.0967C32.5011 15.0442 32.8291 14.7164 32.8291 14.3118Z" fill="#7CCCDB"/>
<path d="M17.8145 17.5342C17.41 17.5342 17.082 17.8622 17.082 18.2666C17.082 18.6713 17.41 18.999 17.8145 18.999H26.0542C26.4586 18.999 26.7866 18.6713 26.7866 18.2666C26.7866 17.8622 26.4586 17.5342 26.0542 17.5342H17.8145Z" fill="#7CCCDB"/>
<path d="M38.8926 13.8127C38.4893 13.8127 38.1602 14.1419 38.1602 14.5452C38.1602 14.9487 38.4893 15.2776 38.8926 15.2776C39.2959 15.2776 39.625 14.9487 39.625 14.5452C39.625 14.1419 39.2959 13.8127 38.8926 13.8127Z" fill="#2855AF"/>
</svg>
