<svg width="40" height="40" viewBox="0 0 40 40" fill="none" xmlns="http://www.w3.org/2000/svg">
<path d="M27.8458 2.9H13.1516C11.6801 2.9 10.482 4.09802 10.482 5.56958V35.4298C10.482 36.902 11.68 38.1 13.1516 38.1H27.8452C29.3173 38.1 30.5154 36.902 30.5154 35.4304V5.56958C30.5154 4.09802 29.3173 2.9 27.8458 2.9ZM11.8487 7.76667H29.1487V29.7333H11.8487V7.76667ZM13.1516 4.26667H27.8452C28.5641 4.26667 29.1487 4.85134 29.1487 5.56958V6.4H11.8487V5.56958C11.8487 4.85131 12.4333 4.26667 13.1516 4.26667ZM27.8458 36.7333H13.1516C12.4333 36.7333 11.8487 36.1487 11.8487 35.4304V31.1H29.1487V35.4304C29.1487 36.1487 28.5641 36.7333 27.8458 36.7333Z" fill="#2855AF" stroke="#2855AF" stroke-width="0.2"/>
<path d="M20.4974 31.4835C19.1553 31.4835 18.0641 32.5748 18.0641 33.9168C18.0641 35.2589 19.1553 36.3502 20.4974 36.3502C21.8395 36.3502 22.9307 35.2589 22.9307 33.9168C22.9307 32.5748 21.8395 31.4835 20.4974 31.4835ZM20.4974 34.9835C19.9092 34.9835 19.4307 34.505 19.4307 33.9168C19.4307 33.3286 19.9092 32.8502 20.4974 32.8502C21.0856 32.8502 21.5641 33.3286 21.5641 33.9168C21.5641 34.505 21.0856 34.9835 20.4974 34.9835Z" fill="#2855AF" stroke="#2855AF" stroke-width="0.2"/>
<path d="M18.1654 6.01667H20.4987C20.8765 6.01667 21.182 5.71115 21.182 5.33333C21.182 4.95552 20.8765 4.65 20.4987 4.65H18.1654C17.7876 4.65 17.482 4.95552 17.482 5.33333C17.482 5.71115 17.7876 6.01667 18.1654 6.01667Z" fill="#2855AF" stroke="#2855AF" stroke-width="0.2"/>
<path d="M22.2474 6.01667H22.8307C23.2085 6.01667 23.5141 5.71115 23.5141 5.33333C23.5141 4.95552 23.2085 4.65 22.8307 4.65H22.2474C21.8696 4.65 21.5641 4.95552 21.5641 5.33333C21.5641 5.71115 21.8696 6.01667 22.2474 6.01667Z" fill="#2855AF" stroke="#2855AF" stroke-width="0.2"/>
<path d="M35.1277 5.59449C35.3948 5.32736 35.8268 5.32736 36.0939 5.59449C38.7673 8.26787 38.7673 12.6181 36.0939 15.2909L35.1277 5.59449ZM35.1277 5.59449C34.8606 5.86163 34.8606 6.29361 35.1277 6.56075M35.1277 5.59449V6.56075M35.1277 6.56075C37.268 8.70102 37.268 12.1838 35.1277 14.3247M35.1277 6.56075L35.1277 14.3247M35.1277 14.3247C34.8606 14.5918 34.8606 15.0238 35.1277 15.2909M35.1277 14.3247L35.1277 15.2909M35.1277 15.2909C35.2609 15.4241 35.436 15.4911 35.6108 15.4911M35.1277 15.2909L35.6108 15.4911M35.6108 15.4911C35.7857 15.4911 35.9607 15.4241 36.0939 15.2909L35.6108 15.4911Z" fill="#7CCCDB" stroke="#7CCCDB" stroke-width="0.2"/>
<path d="M33.6369 6.92233C33.3697 6.65524 32.9378 6.65525 32.6707 6.92237C32.4035 7.18951 32.4035 7.62149 32.6707 7.88863C33.3734 8.59139 33.7602 9.52725 33.7602 10.524C33.7602 11.5207 33.3734 12.456 32.6707 13.1588C32.4035 13.4259 32.4035 13.8579 32.6707 14.125C32.8039 14.2583 32.979 14.3253 33.1538 14.3253C33.3286 14.3253 33.5037 14.2583 33.6369 14.1251C34.5978 13.1648 35.1269 11.8851 35.1269 10.524C35.1269 9.16293 34.5984 7.88268 33.6369 6.92233Z" fill="#7CCCDB" stroke="#7CCCDB" stroke-width="0.2"/>
<path d="M5.87129 14.3247L5.87128 14.3247C3.73044 12.1844 3.73042 8.70162 5.87129 6.56075C6.13843 6.29361 6.13843 5.86163 5.87129 5.59449C5.60416 5.32736 5.17217 5.32736 4.90504 5.59449C2.23165 8.26788 2.23165 12.6175 4.90504 15.2909C5.03825 15.4241 5.21333 15.4911 5.38817 15.4911C5.563 15.4911 5.73808 15.4241 5.87129 15.2909C6.13843 15.0238 6.13843 14.5918 5.87129 14.3247Z" fill="#7CCCDB" stroke="#7CCCDB" stroke-width="0.2"/>
<path d="M8.32896 6.76133L8.32887 6.76124L7.43332 6.83195L7.36263 6.76122C7.36263 6.76123 7.36262 6.76123 7.36261 6.76124C6.40171 7.72156 5.87266 9.00118 5.87266 10.3623C5.87266 11.7234 6.40172 13.003 7.36261 13.9639C7.49583 14.0971 7.67091 14.1641 7.84574 14.1641C8.02057 14.1641 8.19565 14.0971 8.32887 13.9639C8.596 13.6968 8.596 13.2648 8.32887 12.9977C7.62611 12.2949 7.23932 11.359 7.23932 10.3623C7.23932 9.36552 7.62554 8.43026 8.32884 7.72752L8.32887 7.7275C8.59547 7.46089 8.59534 7.0284 8.32896 6.76133Z" fill="#7CCCDB" stroke="#7CCCDB" stroke-width="0.2"/>
</svg>
