<svg width="40" height="40" viewBox="0 0 40 40" fill="none" xmlns="http://www.w3.org/2000/svg">
<g clip-path="url(#clip0)">
<path d="M11.8496 17.3543L11.8482 17.3797C11.7496 19.1059 12.7165 20.723 14.3122 21.4982L14.3285 21.5062C14.8911 21.7753 15.3522 22.219 15.6431 22.7706L15.6496 22.7826C16.4536 24.3135 18.1165 25.2415 19.8892 25.1484L19.9161 25.1469C20.559 25.111 21.1972 25.2768 21.7412 25.6215C23.2423 26.5604 25.1477 26.5604 26.6488 25.6215C27.1928 25.2768 27.831 25.111 28.4739 25.1469L28.5008 25.1484C30.2706 25.2422 31.9357 24.3135 32.7415 22.7801L32.7455 22.7717C33.0375 22.2186 33.4997 21.7742 34.064 21.5048L34.0771 21.4982C35.6728 20.7226 36.64 19.1059 36.5411 17.3794L36.5397 17.3554C36.5069 16.7474 36.6757 16.1456 37.0204 15.6434C38.0127 14.1961 38.0127 12.2878 37.0207 10.8401C36.6764 10.3383 36.5069 9.73687 36.5397 9.12887L36.5411 9.10341C36.64 7.37688 35.6728 5.76016 34.0757 4.98417L34.0611 4.97689C33.4997 4.70853 33.0397 4.26708 32.7484 3.7169L32.74 3.70054C31.9357 2.16964 30.2706 1.24201 28.5008 1.33474L28.4735 1.33619C27.831 1.37219 27.1928 1.20637 26.6492 0.861648H26.6484C25.1474 -0.0772551 23.2419 -0.0772551 21.7408 0.861648C21.1968 1.20601 20.5587 1.37183 19.9158 1.33583L19.8889 1.33437C18.1187 1.24055 16.454 2.16928 15.65 3.69981L15.6438 3.71108C15.3525 4.26381 14.8911 4.70781 14.3278 4.97726L14.3125 4.98453C12.7169 5.7598 11.7496 7.37688 11.8485 9.10341L11.85 9.12741C11.8827 9.73541 11.714 10.3372 11.3693 10.839C10.3769 12.2867 10.3769 14.1954 11.3693 15.6426C11.7136 16.1445 11.8827 16.7463 11.8496 17.3543ZM12.5951 11.6849C13.1271 10.9103 13.3878 9.98159 13.3369 9.04342L13.3354 9.01796C13.2831 7.87397 13.9253 6.81143 14.962 6.32525L14.9747 6.31907C15.8252 5.9118 16.5216 5.24126 16.9609 4.40708L16.9681 4.39326C17.5023 3.37581 18.6212 2.75909 19.8096 2.82236L19.8358 2.82345C20.7867 2.87691 21.7303 2.63182 22.5347 2.122C23.5503 1.48674 24.839 1.48674 25.8546 2.122C26.659 2.63109 27.6026 2.87654 28.5532 2.82382L28.5793 2.82236C29.7735 2.75982 30.887 3.37581 31.4197 4.39035L31.4295 4.4089C31.8688 5.24198 32.5644 5.91143 33.4139 6.31834L33.4262 6.32452C34.4793 6.83652 35.1186 7.8936 35.0542 9.01832L35.0528 9.04487C35.0018 9.98305 35.2629 10.9114 35.7949 11.6859C36.4378 12.6238 36.4375 13.8601 35.7942 14.7976C35.2626 15.5725 35.0018 16.5012 35.0528 17.4394L35.0542 17.4645C35.1186 18.5892 34.4793 19.6466 33.4259 20.159L33.4149 20.1641C32.5637 20.5721 31.8666 21.2433 31.427 22.079L31.4215 22.0899C30.887 23.1073 29.7699 23.7244 28.5797 23.6608L28.5539 23.6593C27.603 23.6062 26.659 23.8517 25.8543 24.3611C24.839 24.996 23.5503 24.996 22.535 24.3611C21.8034 23.8975 20.9547 23.6517 20.0885 23.6524C20.0045 23.6524 19.9201 23.6546 19.8358 23.6593L19.8096 23.6604C18.6369 23.735 17.5274 23.1211 16.9671 22.0881L16.9594 22.0739C16.5209 21.2412 15.8256 20.5721 14.9765 20.1652L14.9627 20.1583C13.9093 19.6463 13.27 18.5888 13.3347 17.4645L13.3362 17.4379C13.3867 16.4997 13.1256 15.571 12.594 14.7968C11.9514 13.859 11.9518 12.6227 12.5951 11.6856V11.6849Z" fill="#7CCCDB"/>
<path d="M19.3896 20.9405C19.7384 21.1583 20.1976 21.0517 20.4154 20.703L29.2376 6.57001C29.3816 6.34419 29.3936 6.05838 29.2685 5.82165C29.1434 5.58456 28.9005 5.43329 28.6328 5.42493C28.3652 5.41656 28.1136 5.55256 27.9739 5.78129L19.1522 19.9143C18.9344 20.2634 19.0405 20.7227 19.3896 20.9405Z" fill="#7CCCDB"/>
<path d="M20.1793 13.278C21.9928 13.278 23.4684 11.5955 23.4684 9.5275C23.4684 7.45951 21.9928 5.77734 20.1793 5.77734C18.3659 5.77734 16.8906 7.45951 16.8906 9.5275C16.8906 11.5955 18.3659 13.278 20.1793 13.278ZM20.1793 7.26679C21.1717 7.26679 21.979 8.28096 21.979 9.5275C21.979 10.774 21.1717 11.7886 20.1793 11.7886C19.1873 11.7886 18.3801 10.7737 18.3801 9.5275C18.3801 8.28133 19.1873 7.26679 20.1793 7.26679Z" fill="#7CCCDB"/>
<path d="M24.918 16.956C24.918 19.024 26.3932 20.7061 28.2067 20.7061C30.0201 20.7061 31.4957 19.0236 31.4957 16.956C31.4957 14.8887 30.0205 13.2058 28.207 13.2058C26.3932 13.2058 24.918 14.8876 24.918 16.956ZM30.0063 16.956C30.0063 18.2025 29.199 19.2167 28.2067 19.2167C27.2147 19.2167 26.4074 18.2025 26.4074 16.956C26.4074 15.7094 27.2147 14.6953 28.2067 14.6953C29.199 14.6953 30.0063 15.7087 30.0063 16.956Z" fill="#7CCCDB"/>
<path d="M39.9033 29.3224C38.9171 27.5722 36.7303 26.9057 34.9357 27.8082L29.1019 30.5646C28.2965 29.0668 26.7514 28.1133 25.051 28.0653L19.6656 27.917C18.8129 27.8926 17.9762 27.6762 17.218 27.285L16.67 27.001C13.8642 25.5384 10.5199 25.5421 7.71697 27.0104L7.75115 25.769C7.76242 25.3577 7.43842 25.0152 7.02715 25.0039L1.12173 24.8413C0.710463 24.8301 0.368283 25.1541 0.357011 25.5653L0.000285454 38.5249C-0.0109873 38.9362 0.313011 39.2787 0.724281 39.29L6.6297 39.4525H6.65043C7.0537 39.4522 7.38352 39.1311 7.39479 38.7282L7.41152 38.1082L8.94569 37.2867C9.54787 36.9627 10.2522 36.8856 10.91 37.0718L20.0711 39.6431C20.0871 39.6478 20.1031 39.6514 20.1194 39.6551C20.7816 39.7936 21.4565 39.8631 22.1332 39.8627C23.566 39.8634 24.982 39.5547 26.2841 38.9569C26.3161 38.9423 26.347 38.9256 26.3765 38.9067L39.6593 30.3144C39.9906 30.1006 40.0975 29.6653 39.9033 29.3224ZM1.50973 37.8213L1.82537 26.3512L6.24207 26.4726L5.92607 37.9431L1.50973 37.8213ZM25.6129 37.626C23.9951 38.3562 22.1882 38.5576 20.4493 38.202L11.3126 35.638C10.2846 35.3471 9.18351 35.4678 8.24278 35.9736L7.45879 36.3933L7.66897 28.7668C10.153 27.1144 13.3391 26.9446 15.9849 28.3231L16.5329 28.6071C17.4907 29.1017 18.5475 29.3748 19.6249 29.4057L25.0103 29.554C26.523 29.5973 27.8078 30.6744 28.1147 32.1566L20.0929 31.9358C19.6816 31.9246 19.3394 32.2486 19.3282 32.6598C19.3169 33.0711 19.6409 33.4136 20.0522 33.4249L28.9048 33.6686H28.9259C29.3288 33.6682 29.6587 33.3471 29.6699 32.9442C29.679 32.6206 29.6547 32.2966 29.5979 31.978L35.5804 29.1508L35.5979 29.1424C36.4466 28.7126 37.4732 28.8562 38.171 29.5024L25.6129 37.626Z" fill="#2855AF"/>
</g>
<defs>
<clipPath id="clip0">
<rect width="40" height="40" fill="white"/>
</clipPath>
</defs>
</svg>
