<svg width="55" height="55" viewBox="0 0 55 55" fill="none" xmlns="http://www.w3.org/2000/svg">
<path d="M54.0517 5.6897H0.948276C0.424828 5.6897 0 6.11358 0 6.63797V48.3621C0 48.8865 0.424828 49.3104 0.948276 49.3104H54.0517C54.5752 49.3104 55 48.8865 55 48.3621V6.63797C55 6.11358 54.5752 5.6897 54.0517 5.6897ZM53.1034 47.4138H1.89655V7.58625H53.1034V47.4138Z" fill="#2855AF"/>
<path d="M15.1716 26.6827C18.0837 26.6827 20.4525 24.314 20.4525 21.4027C20.4525 18.4896 18.0837 16.1208 15.1716 16.1208C12.2594 16.1208 9.89062 18.4896 9.89062 21.4018C9.89062 24.314 12.2594 26.6827 15.1716 26.6827ZM15.1716 18.0174C17.0378 18.0174 18.556 19.5365 18.556 21.4018C18.556 23.2671 17.0378 24.7862 15.1716 24.7862C13.3054 24.7862 11.7872 23.268 11.7872 21.4027C11.7872 19.5375 13.3054 18.0174 15.1716 18.0174Z" fill="#2855AF"/>
<path d="M6.63628 43.6207C6.85817 43.6207 7.08197 43.5429 7.26214 43.3846L22.7314 29.7654L32.5005 39.5336C32.8713 39.9044 33.4706 39.9044 33.8414 39.5336C34.2121 39.1629 34.2121 38.5635 33.8414 38.1928L29.283 33.6344L37.9891 24.1004L48.6677 33.8895C49.0536 34.2432 49.6539 34.2167 50.0076 33.8307C50.3613 33.4448 50.3357 32.8445 49.9488 32.4908L38.5695 22.0598C38.3836 21.89 38.1361 21.8056 37.8867 21.8113C37.6354 21.8227 37.3984 21.9336 37.2286 22.1195L27.9412 32.2917L23.4435 27.794C23.0889 27.4403 22.5218 27.4223 22.1463 27.7523L6.00947 41.9603C5.61593 42.3064 5.578 42.9057 5.92412 43.2992C6.11188 43.5126 6.37361 43.6207 6.63628 43.6207Z" fill="#7CCCDB"/>
</svg>
