<svg width="55" height="55" viewBox="0 0 55 55" fill="none" xmlns="http://www.w3.org/2000/svg">
<g clip-path="url(#clip0)">
<path d="M48.5403 9.79355L46.707 4.2936C46.5481 3.81292 46.0297 3.55202 45.549 3.71083C45.506 3.72504 45.4641 3.74245 45.4236 3.76285L39.9237 6.51283C39.4706 6.73913 39.2867 7.28992 39.513 7.74298C39.7393 8.19604 40.2901 8.37995 40.7432 8.15365L43.7388 6.65583C35.8555 21.073 21.4787 30.2497 6.41797 30.2497V32.083C22.3477 32.083 37.5275 22.2894 45.6592 6.95741L46.7986 10.3729C46.9586 10.8538 47.4782 11.114 47.9591 10.954C48.44 10.7941 48.7002 10.2745 48.5403 9.79355Z" fill="#7CCCDB"/>
<path d="M54.0829 0H0.916659C0.410434 0 0 0.410434 0 0.916659V42.1663C0 42.6725 0.410434 43.083 0.916659 43.083H17.092L13.7921 53.8134C13.6432 54.2974 13.9149 54.8104 14.3989 54.9592C14.8829 55.1081 15.3959 54.8364 15.5447 54.3524L17.3184 48.5829H37.6811L39.4567 54.3524C39.6055 54.8364 40.1185 55.1081 40.6025 54.9592C41.0865 54.8104 41.3582 54.2974 41.2093 53.8134L37.9075 43.083H54.0829C54.5891 43.083 54.9995 42.6725 54.9995 42.1663V0.916659C54.9995 0.410434 54.5891 0 54.0829 0ZM17.8822 46.7496L19.0106 43.083H35.989L37.1174 46.7496H17.8822ZM53.1662 41.2497H1.83332V1.83332H53.1662V41.2497Z" fill="#2855AF"/>
<path d="M11.0013 33.9165H7.33463C6.8284 33.9165 6.41797 34.3269 6.41797 34.8332V38.4998C6.41797 39.006 6.8284 39.4165 7.33463 39.4165H11.0013C11.5075 39.4165 11.9179 39.006 11.9179 38.4998V34.8332C11.9179 34.3269 11.5075 33.9165 11.0013 33.9165ZM10.0846 37.5831H8.25129V35.7498H10.0846V37.5831Z" fill="#7CCCDB"/>
<path d="M20.1653 32.083H16.4987C15.9925 32.083 15.582 32.4934 15.582 32.9997V38.4996C15.582 39.0058 15.9925 39.4163 16.4987 39.4163H20.1653C20.6716 39.4163 21.082 39.0058 21.082 38.4996V32.9997C21.082 32.4934 20.6716 32.083 20.1653 32.083ZM19.2487 37.583H17.4153V33.9163H19.2487V37.583Z" fill="#7CCCDB"/>
<path d="M29.3333 28.4165H25.6667C25.1604 28.4165 24.75 28.8269 24.75 29.3332V38.4998C24.75 39.006 25.1604 39.4164 25.6667 39.4164H29.3333C29.8395 39.4164 30.25 39.006 30.25 38.4998V29.3332C30.25 28.8269 29.8395 28.4165 29.3333 28.4165ZM28.4166 37.5831H26.5833V30.2498H28.4166V37.5831Z" fill="#7CCCDB"/>
<path d="M38.5013 22.9165H34.8346C34.3284 22.9165 33.918 23.3269 33.918 23.8332V38.4997C33.918 39.0059 34.3284 39.4164 34.8346 39.4164H38.5013C39.0075 39.4164 39.4179 39.0059 39.4179 38.4997V23.8332C39.4179 23.3269 39.0075 22.9165 38.5013 22.9165ZM37.5846 37.583H35.7513V24.7498H37.5846V37.583Z" fill="#7CCCDB"/>
<path d="M47.6653 12.8333H43.9987C43.4925 12.8333 43.082 13.2437 43.082 13.7499V38.4997C43.082 39.0059 43.4925 39.4164 43.9987 39.4164H47.6653C48.1716 39.4164 48.582 39.0059 48.582 38.4997V13.7499C48.582 13.2437 48.1716 12.8333 47.6653 12.8333ZM46.7487 37.583H44.9154V14.6666H46.7487V37.583Z" fill="#7CCCDB"/>
</g>
<defs>
<clipPath id="clip0">
<rect width="55" height="55" fill="white"/>
</clipPath>
</defs>
</svg>
