<svg width="55" height="55" viewBox="0 0 55 55" fill="none" xmlns="http://www.w3.org/2000/svg">
<path d="M21.2771 41.8101H8.70919C8.02194 41.8101 7.46484 42.3672 7.46484 43.0544C7.46484 43.7417 8.02194 44.2988 8.70919 44.2988H21.2771C21.9643 44.2988 22.5214 43.7417 22.5214 43.0544C22.5214 42.3672 21.9643 41.8101 21.2771 41.8101Z" fill="#7CCCDB"/>
<path d="M40.0661 41.8101H27.4982C26.811 41.8101 26.2539 42.3672 26.2539 43.0544C26.2539 43.7417 26.811 44.2988 27.4982 44.2988H40.0661C40.7532 44.2988 41.3105 43.7417 41.3105 43.0544C41.3105 42.3672 40.7532 41.8101 40.0661 41.8101Z" fill="#2855AF"/>
<path d="M40.0667 10.7014H8.70919C8.02194 10.7014 7.46484 11.2585 7.46484 11.9458C7.46484 12.633 8.02194 13.1901 8.70919 13.1901H40.0667C40.7538 13.1901 41.311 12.633 41.311 11.9458C41.311 11.2585 40.7538 10.7014 40.0667 10.7014Z" fill="#2855AF"/>
<path d="M40.0661 16.9231H27.4982C26.811 16.9231 26.2539 17.4802 26.2539 18.1674C26.2539 18.8547 26.811 19.4118 27.4982 19.4118H40.0661C40.7532 19.4118 41.3105 18.8547 41.3105 18.1674C41.3105 17.4802 40.7532 16.9231 40.0661 16.9231Z" fill="#7CCCDB"/>
<path d="M40.0661 23.1448H27.4982C26.811 23.1448 26.2539 23.7019 26.2539 24.3891C26.2539 25.0764 26.811 25.6335 27.4982 25.6335H40.0661C40.7532 25.6335 41.3105 25.0764 41.3105 24.3891C41.3105 23.7019 40.7532 23.1448 40.0661 23.1448Z" fill="#2855AF"/>
<path d="M40.0661 29.3665H27.4982C26.811 29.3665 26.2539 29.9235 26.2539 30.6108C26.2539 31.2981 26.811 31.8552 27.4982 31.8552H40.0661C40.7532 31.8552 41.3105 31.2981 41.3105 30.6108C41.3105 29.9235 40.7532 29.3665 40.0661 29.3665Z" fill="#7CCCDB"/>
<path d="M40.0661 35.5884H27.4982C26.811 35.5884 26.2539 36.1455 26.2539 36.8327C26.2539 37.52 26.811 38.0771 27.4982 38.0771H40.0661C40.7532 38.0771 41.3105 37.52 41.3105 36.8327C41.3105 36.1455 40.7532 35.5884 40.0661 35.5884Z" fill="#2855AF"/>
<path d="M21.2771 35.5884H8.70919C8.02194 35.5884 7.46484 36.1455 7.46484 36.8327C7.46484 37.52 8.02194 38.0771 8.70919 38.0771H21.2771C21.9643 38.0771 22.5214 37.52 22.5214 36.8327C22.5214 36.1455 21.9643 35.5884 21.2771 35.5884Z" fill="#2855AF"/>
<path d="M21.2771 16.9231H8.70919C8.02194 16.9231 7.46484 17.4802 7.46484 18.1674V30.7353C7.46484 31.4226 8.02194 31.9797 8.70919 31.9797H21.2771C21.9643 31.9797 22.5214 31.4226 22.5214 30.7353V18.1674C22.5214 17.4802 21.9643 16.9231 21.2771 16.9231ZM20.0327 29.491H9.95353V19.4118H20.0327V29.491Z" fill="#7CCCDB"/>
<path d="M52.5113 9.45707H48.7783V5.72404C48.7783 4.35178 47.6619 3.23535 46.2896 3.23535H2.48869C1.11643 3.23535 0 4.35178 0 5.72404V45.543C0 48.9737 2.79106 51.7648 6.22172 51.7648H48.7783C52.2089 51.7648 55 48.9737 55 45.543V11.9458C55 10.5735 53.8836 9.45707 52.5113 9.45707ZM52.5113 45.543C52.5113 47.6014 50.8367 49.2761 48.7783 49.2761H6.22172C4.16333 49.2761 2.48869 47.6014 2.48869 45.543V5.72404H46.2896V43.6765C46.2896 45.3919 47.6851 46.7874 49.4005 46.7874C50.0876 46.7874 50.6448 46.2303 50.6448 45.543C50.6448 44.8558 50.0876 44.2987 49.4005 44.2987C49.0574 44.2987 48.7783 44.0196 48.7783 43.6765V11.9458H52.5113V45.543Z" fill="#2855AF"/>
</svg>
