<svg width="55" height="55" viewBox="0 0 55 55" fill="none" xmlns="http://www.w3.org/2000/svg">
<path d="M11.7874 23.5714C15.0373 23.5714 17.6802 20.9284 17.6802 17.6785C17.6802 14.4286 15.0373 11.7856 11.7874 11.7856C8.53748 11.7856 5.89453 14.4286 5.89453 17.6785C5.89453 20.9284 8.53748 23.5714 11.7874 23.5714ZM11.7874 13.7499C13.954 13.7499 15.716 15.5119 15.716 17.6785C15.716 19.8451 13.954 21.6071 11.7874 21.6071C9.62078 21.6071 7.85882 19.8451 7.85882 17.6785C7.85882 15.5119 9.62078 13.7499 11.7874 13.7499Z" fill="#2855AF"/>
<path d="M43.2132 23.5714C46.4631 23.5714 49.106 20.9284 49.106 17.6785C49.106 14.4286 46.4631 11.7856 43.2132 11.7856C39.9633 11.7856 37.3203 14.4286 37.3203 17.6785C37.3203 20.9284 39.9633 23.5714 43.2132 23.5714ZM43.2132 13.7499C45.3798 13.7499 47.1417 15.5119 47.1417 17.6785C47.1417 19.8451 45.3798 21.6071 43.2132 21.6071C41.0466 21.6071 39.2846 19.8451 39.2846 17.6785C39.2846 15.5119 41.0466 13.7499 43.2132 13.7499Z" fill="#2855AF"/>
<path d="M53.0357 25.5356V38.3035C53.0357 39.928 51.7137 41.2499 50.0893 41.2499V30.4464C50.0893 27.7386 47.8863 25.5356 45.1786 25.5356H40.2679C39.7257 25.5356 39.2857 25.9756 39.2857 26.5178V30.4464V31.4285V32.4106H31.4286C30.8864 32.4106 30.4464 32.8506 30.4464 33.3928V36.3392H24.5536V33.3928C24.5536 32.8506 24.1136 32.4106 23.5714 32.4106H15.7143V31.4285V30.4464V26.5178C15.7143 25.9756 15.2743 25.5356 14.7321 25.5356H9.82143C7.11366 25.5356 4.91071 27.7386 4.91071 30.4464V41.2499C3.28625 41.2499 1.96429 39.928 1.96429 38.3035V25.5356H0V38.3035C0 40.312 1.21491 42.0376 2.94643 42.7978V54.9999H4.91071V43.2142H5.89286H6.875H14.7321V54.0178C14.7321 54.5599 15.1721 54.9999 15.7143 54.9999H18.6607H19.6429H20.625V54.0178V39.2856V38.3035H23.5714H31.4286H34.375V39.2856V54.0178V54.9999H35.3571H36.3393H39.2857C39.8279 54.9999 40.2679 54.5599 40.2679 54.0178V43.2142H48.125H49.1071H50.0893V54.9999H52.0536V42.7978C53.7851 42.0376 55 40.312 55 38.3035V25.5356H53.0357ZM19.6429 36.3392H17.6786H11.7857V30.4464H9.82143V37.3214C9.82143 37.8635 10.2614 38.3035 10.8036 38.3035H17.6786C18.2197 38.3035 18.6607 38.7445 18.6607 39.2856V53.0356H16.6964V42.2321C16.6964 41.6899 16.2564 41.2499 15.7143 41.2499H6.875V30.4464C6.875 28.8219 8.19696 27.4999 9.82143 27.4999H13.75V30.4464V31.4285V33.3928C13.75 33.9349 14.19 34.3749 14.7321 34.3749H22.5893V36.3392H19.6429ZM39.2857 41.2499C38.7436 41.2499 38.3036 41.6899 38.3036 42.2321V53.0356H36.3393V39.2856C36.3393 38.7445 36.7803 38.3035 37.3214 38.3035H44.1964C44.7386 38.3035 45.1786 37.8635 45.1786 37.3214V30.4464H43.2143V36.3392H37.3214H35.3571H32.4107V34.3749H40.2679C40.81 34.3749 41.25 33.9349 41.25 33.3928V31.4285V30.4464V27.4999H45.1786C46.803 27.4999 48.125 28.8219 48.125 30.4464V41.2499H39.2857Z" fill="#2855AF"/>
<path d="M18.6613 9.82143V12.7679C18.6613 13.1912 18.9314 13.5654 19.3331 13.6999C19.4352 13.7333 19.5403 13.75 19.6434 13.75C19.9469 13.75 20.2396 13.6086 20.4291 13.3571L23.0809 9.82143H30.447C32.0715 9.82143 33.3934 8.49946 33.3934 6.875V2.94643C33.3934 1.32196 32.0715 0 30.447 0H18.6613C17.0368 0 15.7148 1.32196 15.7148 2.94643V6.875C15.7148 8.49946 17.0368 9.82143 18.6613 9.82143ZM17.6791 2.94643C17.6791 2.40527 18.1201 1.96429 18.6613 1.96429H30.447C30.9881 1.96429 31.4291 2.40527 31.4291 2.94643V6.875C31.4291 7.41616 30.9881 7.85714 30.447 7.85714H22.5898C22.2805 7.85714 21.9898 8.0025 21.8041 8.25L20.6256 9.82143V8.83929C20.6256 8.29714 20.1856 7.85714 19.6434 7.85714H18.6613C18.1201 7.85714 17.6791 7.41616 17.6791 6.875V2.94643Z" fill="#7CCCDB"/>
<path d="M29.466 3.92847H19.6445V5.89275H29.466V3.92847Z" fill="#2855AF"/>
<path d="M32.4124 24.5535H26.5195V26.5178H32.4124V24.5535Z" fill="#2855AF"/>
<path d="M25.5363 20.625C23.9118 20.625 22.5898 21.947 22.5898 23.5714V27.5C22.5898 29.1245 23.9118 30.4464 25.5363 30.4464H33.3934C35.0179 30.4464 36.3398 29.1245 36.3398 27.5V26.8154L38.1391 24.1165C38.3405 23.815 38.3591 23.428 38.1882 23.1088C38.0173 22.7887 37.6844 22.5893 37.322 22.5893H36.1719C35.7663 21.4461 34.6741 20.625 33.3934 20.625H25.5363ZM34.3756 23.5714C34.3756 24.1136 34.8156 24.5536 35.3577 24.5536H35.4864L34.5406 25.9728C34.4335 26.1338 34.3756 26.3244 34.3756 26.5179V27.5C34.3756 28.0412 33.9346 28.4821 33.3934 28.4821H25.5363C24.9951 28.4821 24.5541 28.0412 24.5541 27.5V23.5714C24.5541 23.0303 24.9951 22.5893 25.5363 22.5893H33.3934C33.9346 22.5893 34.3756 23.0303 34.3756 23.5714Z" fill="#7CCCDB"/>
<path d="M24.5541 15.7144H22.5898V17.6786H24.5541V15.7144Z" fill="#2855AF"/>
<path d="M28.4838 15.7144H26.5195V17.6786H28.4838V15.7144Z" fill="#2855AF"/>
<path d="M32.4096 15.7144H30.4453V17.6786H32.4096V15.7144Z" fill="#2855AF"/>
</svg>
