<svg width="50" height="50" viewBox="0 0 50 50" fill="none" xmlns="http://www.w3.org/2000/svg">
<path d="M31.897 12.9947C33.2432 12.9947 34.3384 11.8995 34.3384 10.5533C34.3384 9.20713 33.2432 8.11182 31.897 8.11182C30.5508 8.11182 29.4556 9.20713 29.4556 10.5533C29.4556 11.1031 29.6384 11.6109 29.9463 12.0195L25.935 17.6251C25.6956 17.5465 25.4402 17.5033 25.1748 17.5033C24.5333 17.5033 23.9491 17.7524 23.513 18.1585L20.8393 16.6413C20.8749 16.4757 20.894 16.304 20.894 16.1279C20.894 14.7817 19.7988 13.6865 18.4526 13.6865C17.1064 13.6865 16.0112 14.7817 16.0112 16.1279C16.0112 16.304 16.0304 16.4757 16.066 16.6413L13.3923 18.1585C12.9562 17.7524 12.372 17.5034 11.7305 17.5034C10.3843 17.5034 9.28906 18.5987 9.28906 19.9449C9.28906 21.2911 10.3843 22.3864 11.7305 22.3864C13.0767 22.3864 14.1719 21.2911 14.1719 19.9449C14.1719 19.7688 14.1527 19.5972 14.1171 19.4315L16.7908 17.9144C17.227 18.3204 17.8111 18.5695 18.4526 18.5695C19.0941 18.5695 19.6782 18.3204 20.1145 17.9145L22.7882 19.4316C22.7525 19.5973 22.7334 19.7689 22.7334 19.945C22.7334 21.2912 23.8286 22.3865 25.1748 22.3865C26.5211 22.3865 27.6163 21.2912 27.6163 19.945C27.6163 19.3951 27.4334 18.8872 27.1255 18.4786L31.1368 12.873C31.3761 12.9516 31.6315 12.9947 31.897 12.9947ZM31.897 9.57666C32.4354 9.57666 32.8735 10.0147 32.8735 10.5533C32.8735 11.0918 32.4354 11.5299 31.897 11.5299C31.3585 11.5299 30.9204 11.0918 30.9204 10.5533C30.9203 10.0147 31.3584 9.57666 31.897 9.57666ZM11.7302 20.9214C11.1917 20.9214 10.7536 20.4833 10.7536 19.9447C10.7536 19.4062 11.1917 18.9681 11.7302 18.9681C12.2687 18.9681 12.7067 19.4062 12.7067 19.9447C12.7067 20.4833 12.2687 20.9214 11.7302 20.9214ZM18.4524 17.1045C17.914 17.1045 17.4759 16.6664 17.4759 16.1278C17.4759 15.5894 17.914 15.1513 18.4524 15.1513C18.9909 15.1513 19.429 15.5894 19.429 16.1278C19.4291 16.6664 18.9909 17.1045 18.4524 17.1045ZM25.1747 20.9214C24.6362 20.9214 24.1981 20.4833 24.1981 19.9447C24.1981 19.4062 24.6362 18.9681 25.1747 18.9681C25.7133 18.9681 26.1514 19.4062 26.1514 19.9447C26.1514 20.4833 25.7132 20.9214 25.1747 20.9214Z" fill="#7CCCDB"/>
<path d="M40.898 36.8134H35.7725H7.8543H2.07178C1.73711 36.8134 1.46484 36.5411 1.46484 36.2064V5.98975C1.46484 5.65508 1.73711 5.38281 2.07178 5.38281H5.52451C5.929 5.38281 6.25693 5.05498 6.25693 4.65039C6.25693 4.2458 5.929 3.91797 5.52451 3.91797H2.07178C0.929395 3.91797 0 4.84736 0 5.98975V36.2064C0 37.3488 0.929395 38.2782 2.07178 38.2782H7.12188V39.8901C7.12188 40.8084 7.86895 41.5555 8.78721 41.5555H16.1187L12.6675 48.2936C12.4831 48.6536 12.6254 49.0949 12.9854 49.2794C13.0923 49.3342 13.2063 49.3601 13.3188 49.3601C13.5849 49.3601 13.8416 49.2146 13.9712 48.9613L17.7645 41.5555H25.8623L29.6556 48.9613C29.7853 49.2146 30.0419 49.3601 30.308 49.3601C30.4204 49.3601 30.5345 49.334 30.6413 49.2794C31.0014 49.0949 31.1438 48.6536 30.9593 48.2936L27.5081 41.5555H34.8396C35.7578 41.5555 36.5049 40.8085 36.5049 39.8901V38.2782H40.898C41.3025 38.2782 41.6305 37.9504 41.6305 37.5458C41.6305 37.1412 41.3025 36.8134 40.898 36.8134ZM35.04 39.8901C35.04 40.0007 34.9501 40.0906 34.8396 40.0906H8.78721C8.67666 40.0906 8.58672 40.0007 8.58672 39.8901V38.2782H35.04V39.8901Z" fill="#2855AF"/>
<path d="M8.45508 5.38262H18.4816H25.1468H41.5558C41.8904 5.38262 42.1627 5.65488 42.1627 5.98955V12.9535C42.1627 13.3581 42.4906 13.6859 42.8951 13.6859C43.2996 13.6859 43.6275 13.3581 43.6275 12.9535V5.98955C43.6275 4.84717 42.6981 3.91777 41.5558 3.91777H25.8793V2.47812C25.8793 1.46494 25.055 0.640625 24.0417 0.640625H19.5868C18.5736 0.640625 17.7492 1.46494 17.7492 2.47812V3.91777H8.45508C8.05059 3.91777 7.72266 4.24561 7.72266 4.6502C7.72266 5.05479 8.05059 5.38262 8.45508 5.38262ZM19.2141 2.47812C19.2141 2.27266 19.3812 2.10547 19.5868 2.10547H24.0417C24.2472 2.10547 24.4145 2.27266 24.4145 2.47812V3.91777H19.2142V2.47812H19.2141Z" fill="#2855AF"/>
<path d="M10.2441 26.1306C9.83965 26.1306 9.51172 26.4584 9.51172 26.863V33.3349C9.51172 33.7395 9.83965 34.0673 10.2441 34.0673H13.2155C13.62 34.0673 13.9479 33.7395 13.9479 33.3349V26.863C13.9479 26.4584 13.62 26.1306 13.2155 26.1306H10.2441ZM12.4831 32.6026H10.9766V27.5956H12.4831V32.6026Z" fill="#7CCCDB"/>
<path d="M16.9668 22.3879C16.5623 22.3879 16.2344 22.7158 16.2344 23.1204V33.3353C16.2344 33.7399 16.5623 34.0677 16.9668 34.0677H19.9382C20.3427 34.0677 20.6706 33.7399 20.6706 33.3353V23.1204C20.6706 22.7158 20.3427 22.3879 19.9382 22.3879H16.9668ZM19.2059 32.6029H17.6993V23.8528H19.2059V32.6029Z" fill="#7CCCDB"/>
<path d="M23.6895 26.1306C23.285 26.1306 22.957 26.4584 22.957 26.863V33.3349C22.957 33.7395 23.285 34.0673 23.6895 34.0673H26.6608C27.0653 34.0673 27.3933 33.7395 27.3933 33.3349V26.863C27.3933 26.4584 27.0653 26.1306 26.6608 26.1306H23.6895ZM25.9284 32.6026H24.4219V27.5956H25.9284V32.6026Z" fill="#7CCCDB"/>
<path d="M30.4121 30.4529C30.0076 30.4529 29.6797 30.7807 29.6797 31.1853V33.3354C29.6797 33.74 30.0076 34.0678 30.4121 34.0678H33.3835C33.788 34.0678 34.1159 33.74 34.1159 33.3354C34.1159 32.9308 33.788 32.603 33.3835 32.603H31.1445V31.1853C31.1445 30.7807 30.8166 30.4529 30.4121 30.4529Z" fill="#7CCCDB"/>
<path d="M49.6252 37.5019L45.4233 30.224C46.4879 29.0893 47.2631 27.7029 47.6772 26.1576C48.339 23.6878 47.9993 21.108 46.7208 18.8935C44.0815 14.322 38.2152 12.7504 33.6439 15.3895C29.0726 18.0287 27.5008 23.895 30.14 28.4664C31.4186 30.6808 33.4829 32.2648 35.9527 32.9267C36.7775 33.1477 37.6144 33.257 38.4459 33.257C39.1727 33.257 39.8952 33.1734 40.6019 33.008L44.8028 40.2861C45.3178 41.1784 46.2555 41.6777 47.2186 41.6776C47.6905 41.6776 48.1687 41.5576 48.6061 41.3053C49.465 40.8095 49.9987 39.8849 49.9987 38.8926C49.9987 38.4063 49.8696 37.9256 49.6252 37.5019ZM36.3318 31.5118C34.2399 30.9513 32.4914 29.6096 31.4085 27.734C29.1731 23.8621 30.5045 18.8935 34.3763 16.6581C35.65 15.9227 37.0419 15.5735 38.4167 15.5735C41.2209 15.5735 43.9522 17.0279 45.4522 19.626C46.535 21.5015 46.8227 23.6865 46.2621 25.7785C45.7016 27.8705 44.3599 29.6188 42.4843 30.7017C40.6088 31.7846 38.4238 32.0721 36.3318 31.5118ZM47.8739 40.0365C47.2438 40.4004 46.4352 40.1838 46.0716 39.5539L42.0298 32.5515C42.4349 32.3862 42.8315 32.1929 43.2169 31.9704C43.6025 31.7477 43.9678 31.4999 44.3136 31.2315L48.3565 38.2342C48.4726 38.4354 48.5339 38.6632 48.5339 38.8927C48.5339 39.3632 48.281 39.8015 47.8739 40.0365Z" fill="#2855AF"/>
<path d="M45.0744 25.7433C45.5915 24.0777 45.4684 22.2945 44.7276 20.7223C44.5552 20.3562 44.1188 20.1994 43.7529 20.3718C43.3869 20.5442 43.2301 20.9806 43.4025 21.3465C43.9868 22.5867 44.0838 23.9938 43.6755 25.3089C43.2649 26.6311 42.378 27.7408 41.1781 28.4336C39.9084 29.1668 38.429 29.3613 37.0129 28.9819C35.5967 28.6024 34.4129 27.6941 33.6799 26.4244C32.1665 23.8032 33.0679 20.4395 35.6891 18.9262C37.6056 17.8198 39.984 17.9677 41.7487 19.3028C42.0714 19.547 42.5307 19.4834 42.7747 19.1607C43.0187 18.8382 42.9552 18.3788 42.6325 18.1348C40.3971 16.4433 37.384 16.256 34.9565 17.6575C33.3479 18.5862 32.1973 20.0858 31.7165 21.88C31.2357 23.6741 31.4825 25.5481 32.4112 27.1567C33.3399 28.7654 34.8395 29.916 36.6337 30.3969C37.2328 30.5574 37.8408 30.6368 38.4448 30.6368C39.6497 30.6368 40.8391 30.3208 41.9104 29.7021C43.4307 28.8246 44.5543 27.4187 45.0744 25.7433Z" fill="#2855AF"/>
</svg>
