<?xml version="1.0" encoding="utf-8"?>
<!-- Generator: Adobe Illustrator 22.0.1, SVG Export Plug-In . SVG Version: 6.00 Build 0)  -->
<svg version="1.1" id="Layer_1" xmlns="http://www.w3.org/2000/svg" xmlns:xlink="http://www.w3.org/1999/xlink" x="0px" y="0px"
	 viewBox="0 0 51.3 48.5" style="enable-background:new 0 0 51.3 48.5;" xml:space="preserve">
<style type="text/css">
	.st0{display:none;fill:#F7F7F7;}
	.st1{fill:#FBB040;}
	.st2{opacity:0.1;fill:#FFFFFF;enable-background:new    ;}
	.st3{display:none;}
	.st4{display:inline;fill:#FBB040;}
	.st5{display:none;opacity:0.1;fill:#FFFFFF;enable-background:new    ;}
</style>
<path class="st0" d="M17.4,144.8V28.9c0-3.8,1-6.7,2.2-6.7h12.2c1.2,0,2.2,3,2.2,6.7v115.9c0,3.7-1,6.7-2.2,6.7H19.6
	C18.4,151.5,17.4,148.5,17.4,144.8z"/>
<g>
	<polygon class="st1" points="40.6,31.2 42.3,48.1 26.2,42.1 10.6,48.8 11.7,31.9 0.3,19.1 16.8,14.7 25.7,0 34.7,14.4 51.2,18.2 	
		"/>
</g>
<polygon class="st2" points="42.3,48.1 40.6,31.2 51.2,18.2 34.7,14.4 10.6,48.8 26.2,42.1 "/>
<g class="st3">
	<polygon class="st4" points="40.6,93.6 42.3,110.5 26.2,104.5 10.6,111.2 11.7,94.3 0.3,81.5 16.8,77.1 25.7,62.4 34.7,76.8 
		51.2,80.6 	"/>
</g>
<polygon class="st5" points="42.3,110.5 40.6,93.6 51.2,80.6 34.7,76.8 10.6,111.2 26.2,104.5 "/>
<g class="st3">
	<polygon class="st4" points="40.6,154.4 42.3,171.4 26.2,165.3 10.6,172 11.7,155.1 0.3,142.3 16.8,137.9 25.7,123.3 34.7,137.6 
		51.2,141.4 	"/>
</g>
<polygon class="st5" points="42.3,171.4 40.6,154.4 51.2,141.4 34.7,137.6 10.6,172 26.2,165.3 "/>
<g class="st3">
	<polygon class="st4" points="40.6,154.4 42.3,171.4 26.2,165.3 10.6,172 11.7,155.1 0.3,142.3 16.8,137.9 25.7,123.3 34.7,137.6 
		51.2,141.4 	"/>
</g>
<polygon class="st5" points="42.3,171.4 40.6,154.4 51.2,141.4 34.7,137.6 10.6,172 26.2,165.3 "/>
</svg>
