<?xml version="1.0" encoding="utf-8"?>
<!-- Generator: Adobe Illustrator 21.1.0, SVG Export Plug-In . SVG Version: 6.00 Build 0)  -->
<svg version="1.1" xmlns="http://www.w3.org/2000/svg" xmlns:xlink="http://www.w3.org/1999/xlink" x="0px" y="0px"
	 viewBox="0 0 835 280" style="enable-background:new 0 0 835 280;" xml:space="preserve">
<style type="text/css">
	.st0{fill:#C7C9C7;}
	.st1{fill:none;}
	.st2{fill:#48A23F;}
	.st3{fill:#70BEF2;}
	.st4{fill:#ED8B00;}
	.st5{fill:#FBB040;}
	.st6{fill:#9EA2A2;}
	.st7{fill:#005EB8;}
	.st8{fill:#F0F9FC;}
	.st9{fill:#71BE72;}
	.st10{fill:#4AA1D1;}
	.st11{fill:#A7D6F4;}
	.st12{fill:#F5FAFC;}
	.st13{fill:#A9EAA9;}
	.st14{fill:#FFFFFF;}
	.st15{fill:#F7C684;}
	.st16{fill:none;stroke:#FFFFFF;stroke-width:0.7509;stroke-miterlimit:10;}
</style>
<g id="design">
</g>
<g id="color_palette">
	<g>
		<path class="st0" d="M208.4,152.1l-0.2-2.2l1.7-0.1l0.2,2.2L208.4,152.1z M207.9,144.8l-0.3-5l1.7-0.1l0.3,5L207.9,144.8z
			 M207.2,134.9l-0.3-5l1.7-0.1l0.3,5L207.2,134.9z M206.5,124.9l-0.3-5l1.7-0.1l0.3,5L206.5,124.9z M205.8,114.9l-0.3-5l1.7-0.1
			l0.3,5L205.8,114.9z M205.1,104.9l-0.3-5l1.7-0.1l0.3,5L205.1,104.9z M204.5,95l-0.3-5l1.7-0.1l0.3,5L204.5,95z M203.8,85l-0.3-5
			l1.7-0.1l0.3,5L203.8,85z M203.1,75l-0.3-5l1.7-0.1l0.3,5L203.1,75z M202.4,65l-0.3-5l1.7-0.1l0.3,5L202.4,65z M201.7,55l-0.3-5
			l1.7-0.1l0.3,5L201.7,55z"/>
		<path class="st0" d="M207,152.9l-0.9-1.5l4.2-2.7l0.9,1.5L207,152.9z M215.5,147.6l-0.9-1.5l4.2-2.7l0.9,1.5L215.5,147.6z
			 M223.9,142.2l-0.9-1.5l4.2-2.7l0.9,1.5L223.9,142.2z M232.4,136.9l-0.9-1.5l4.2-2.7l0.9,1.5L232.4,136.9z M240.8,131.5l-0.9-1.5
			l4.2-2.7l0.9,1.5L240.8,131.5z M249.3,126.2l-0.9-1.5l4.2-2.7l0.9,1.5L249.3,126.2z M257.7,120.8l-0.9-1.5l4.2-2.7l0.9,1.5
			L257.7,120.8z M266.1,115.5l-0.9-1.5l4.2-2.7l0.9,1.5L266.1,115.5z M274.6,110.1l-0.9-1.5l4.2-2.7l0.9,1.5L274.6,110.1z
			 M283,104.8l-0.9-1.5l4.2-2.7l0.9,1.5L283,104.8z M291.5,99.4l-0.9-1.5l4.2-2.7l0.9,1.5L291.5,99.4z"/>
		<path class="st0" d="M204.8,152.4l-5-0.5l0.2-1.7l5,0.5L204.8,152.4z M194.9,151.4l-5-0.5l0.2-1.7l5,0.5L194.9,151.4z
			 M184.9,150.4l-5-0.5l0.2-1.7l5,0.5L184.9,150.4z M175,149.4l-5-0.5l0.2-1.7l5,0.5L175,149.4z M165,148.4l-5-0.5l0.2-1.7l5,0.5
			L165,148.4z M155.1,147.4l-5-0.5l0.2-1.7l5,0.5L155.1,147.4z M145.1,146.4l-5-0.5l0.2-1.7l5,0.5L145.1,146.4z"/>
		<path class="st0" d="M307.8,209.8l-4.3-2.5l0.9-1.5l4.3,2.5L307.8,209.8z M299.1,204.8l-4.3-2.5l0.9-1.5l4.3,2.5L299.1,204.8z
			 M290.5,199.8l-4.3-2.5l0.9-1.5l4.3,2.5L290.5,199.8z M281.8,194.8l-4.3-2.5l0.9-1.5l4.3,2.5L281.8,194.8z M273.1,189.8l-4.3-2.5
			l0.9-1.5l4.3,2.5L273.1,189.8z M264.5,184.8l-4.3-2.5l0.9-1.5l4.3,2.5L264.5,184.8z M255.8,179.8l-4.3-2.5l0.9-1.5l4.3,2.5
			L255.8,179.8z M247.1,174.8l-4.3-2.5l0.9-1.5l4.3,2.5L247.1,174.8z M238.5,169.8l-4.3-2.5l0.9-1.5l4.3,2.5L238.5,169.8z
			 M229.8,164.9l-4.3-2.5l0.9-1.5l4.3,2.5L229.8,164.9z M221.2,159.9l-4.3-2.5l0.9-1.5l4.3,2.5L221.2,159.9z M212.5,154.9l-3.7-2.1
			l0.9-1.5l3.7,2.1L212.5,154.9z"/>
		<path class="st0" d="M299.8,95.7l-1-1.4l4.1-2.9l1,1.4L299.8,95.7z M307.9,90l-1-1.4l4.1-2.9l1,1.4L307.9,90z M316.1,84.2l-1-1.4
			l4.1-2.9l1,1.4L316.1,84.2z M324.3,78.4l-1-1.4l4.1-2.9l1,1.4L324.3,78.4z M332.4,72.7l-1-1.4l4.1-2.9l1,1.4L332.4,72.7z
			 M340.6,66.9l-1-1.4l4.1-2.9l1,1.4L340.6,66.9z M348.8,61.1l-1-1.4l4.1-2.9l1,1.4L348.8,61.1z M357,55.4l-1-1.4l4.1-2.9l1,1.4
			L357,55.4z M365.1,49.6l-1-1.4l4.1-2.9l1,1.4L365.1,49.6z M373.3,43.9l-1-1.4l4.1-2.9l1,1.4L373.3,43.9z"/>
		<path class="st0" d="M354.5,129.2l-4.3-2.6l0.9-1.5l4.3,2.6L354.5,129.2z M346,124l-4.3-2.6l0.9-1.5l4.3,2.6L346,124z
			 M337.4,118.9l-4.3-2.6l0.9-1.5l4.3,2.6L337.4,118.9z M328.8,113.8l-4.3-2.6l0.9-1.5l4.3,2.6L328.8,113.8z M320.2,108.6l-4.3-2.6
			l0.9-1.5l4.3,2.6L320.2,108.6z M311.7,103.5l-4.3-2.6l0.9-1.5l4.3,2.6L311.7,103.5z M303.1,98.3l-4.3-2.6l0.9-1.5l4.3,2.6
			L303.1,98.3z"/>
		<path class="st0" d="M498.9,95.8l-4.6-2.1l0.7-1.6l4.6,2.1L498.9,95.8z M489.8,91.7l-4.6-2.1l0.7-1.6l4.6,2.1L489.8,91.7z
			 M480.7,87.6l-4.6-2.1l0.7-1.6l4.6,2.1L480.7,87.6z M471.5,83.5l-4.6-2.1l0.7-1.6l4.6,2.1L471.5,83.5z M462.4,79.4l-4.6-2.1
			l0.7-1.6l4.6,2.1L462.4,79.4z M453.3,75.2l-4.6-2.1l0.7-1.6l4.6,2.1L453.3,75.2z M444.2,71.1l-4.6-2.1l0.7-1.6l4.6,2.1L444.2,71.1
			z M435.1,67l-4.6-2.1l0.7-1.6l4.6,2.1L435.1,67z M426,62.9l-4.6-2.1l0.7-1.6l4.6,2.1L426,62.9z M416.8,58.8l-4.6-2.1l0.7-1.6
			l4.6,2.1L416.8,58.8z M407.7,54.7l-4.6-2.1l0.7-1.6l4.6,2.1L407.7,54.7z M398.6,50.6l-4.6-2.1l0.7-1.6l4.6,2.1L398.6,50.6z
			 M389.5,46.5l-4.6-2.1l0.7-1.6l4.6,2.1L389.5,46.5z M380.4,42.4l-3.5-1.6l0.7-1.6l3.5,1.6L380.4,42.4z"/>
		<path class="st0" d="M499.9,95.6l-1.3-1.2l3.5-3.6l1.3,1.2L499.9,95.6z M506.8,88.4l-1.3-1.2l3.5-3.6l1.3,1.2L506.8,88.4z
			 M513.7,81.1l-1.3-1.2l3.5-3.6l1.3,1.2L513.7,81.1z M520.6,73.9l-1.3-1.2l3.5-3.6l1.3,1.2L520.6,73.9z M527.5,66.7l-1.3-1.2
			l3.5-3.6l1.3,1.2L527.5,66.7z M534.4,59.4l-1.3-1.2l3.5-3.6l1.3,1.2L534.4,59.4z M541.3,52.2L540,51l3.5-3.6l1.3,1.2L541.3,52.2z
			 M548.2,45l-1.3-1.2l3.5-3.6l1.3,1.2L548.2,45z M555.1,37.7l-1.3-1.2l3.5-3.6l1.3,1.2L555.1,37.7z"/>
		<path class="st0" d="M498.4,95.2l-1.3-4.8l1.7-0.5l1.3,4.8L498.4,95.2z M495.8,85.6l-1.3-4.8l1.7-0.5l1.3,4.8L495.8,85.6z
			 M493.1,75.9l-1.3-4.8l1.7-0.5l1.3,4.8L493.1,75.9z M490.5,66.3l-1.3-4.8l1.7-0.5l1.3,4.8L490.5,66.3z M487.8,56.7l-1.3-4.8
			l1.7-0.5l1.3,4.8L487.8,56.7z M485.2,47l-1.3-4.8l1.7-0.5l1.3,4.8L485.2,47z M482.6,37.4l-1.3-4.8l1.7-0.5l1.3,4.8L482.6,37.4z
			 M479.9,27.7l-1.3-4.8l1.7-0.5l1.3,4.8L479.9,27.7z M477.3,18.1l-1.3-4.8l1.7-0.5l1.3,4.8L477.3,18.1z"/>
		<path class="st0" d="M565,30.2l-0.3-1.7l4.9-0.9l0.3,1.7L565,30.2z M574.9,28.5l-0.3-1.7l4.9-0.9l0.3,1.7L574.9,28.5z M584.7,26.7
			l-0.3-1.7l4.9-0.9l0.3,1.7L584.7,26.7z M594.6,25l-0.3-1.7l4.9-0.9l0.3,1.7L594.6,25z M604.4,23.2l-0.3-1.7l4.9-0.9l0.3,1.7
			L604.4,23.2z M614.3,21.5l-0.3-1.7l4.9-0.9l0.3,1.7L614.3,21.5z M624.1,19.7l-0.3-1.7l4.9-0.9l0.3,1.7L624.1,19.7z M633.9,18
			l-0.3-1.7l4.9-0.9l0.3,1.7L633.9,18z M643.8,16.2l-0.3-1.7l4.9-0.9l0.3,1.7L643.8,16.2z M653.6,14.5l-0.3-1.7l4.9-0.9l0.3,1.7
			L653.6,14.5z M663.5,12.7l-0.3-1.7l4.9-0.9l0.3,1.7L663.5,12.7z"/>
		<path class="st0" d="M499.3,95.9l-0.2-1.7l5-0.5l0.2,1.7L499.3,95.9z M509.3,94.9l-0.2-1.7l5-0.5l0.2,1.7L509.3,94.9z M519.2,94
			l-0.2-1.7l5-0.5l0.2,1.7L519.2,94z M529.2,93l-0.2-1.7l5-0.5l0.2,1.7L529.2,93z M539.2,92.1l-0.2-1.7l5-0.5l0.2,1.7L539.2,92.1z
			 M549.1,91.1l-0.2-1.7l5-0.5l0.2,1.7L549.1,91.1z M559.1,90.2l-0.2-1.7l5-0.5l0.2,1.7L559.1,90.2z M569,89.3l-0.2-1.7l5-0.5
			l0.2,1.7L569,89.3z M579,88.3l-0.2-1.7l5-0.5l0.2,1.7L579,88.3z M588.9,87.4l-0.2-1.7l5-0.5l0.2,1.7L588.9,87.4z M598.9,86.4
			l-0.2-1.7l5-0.5l0.2,1.7L598.9,86.4z M608.8,85.5l-0.2-1.7l5-0.5l0.2,1.7L608.8,85.5z M618.8,84.5l-0.2-1.7l5-0.5l0.2,1.7
			L618.8,84.5z M628.8,83.6l-0.2-1.7l5-0.5l0.2,1.7L628.8,83.6z M638.7,82.6l-0.2-1.7l5-0.5l0.2,1.7L638.7,82.6z M648.7,81.7
			l-0.2-1.7l5-0.5l0.2,1.7L648.7,81.7z"/>
		<path class="st0" d="M298.9,95.8l-4.5-2.1l0.7-1.6l4.5,2.1L298.9,95.8z M289.8,91.6l-4.5-2.1l0.7-1.6l4.5,2.1L289.8,91.6z
			 M280.7,87.4l-4.5-2.1l0.7-1.6l4.5,2.1L280.7,87.4z M271.7,83.2l-4.5-2.1l0.7-1.6l4.5,2.1L271.7,83.2z M262.6,79l-4.5-2.1l0.7-1.6
			l4.5,2.1L262.6,79z M253.5,74.8l-4.5-2.1l0.7-1.6l4.5,2.1L253.5,74.8z M244.5,70.5l-4.5-2.1l0.7-1.6l4.5,2.1L244.5,70.5z
			 M235.4,66.3l-4.5-2.1l0.7-1.6l4.5,2.1L235.4,66.3z M226.3,62.1l-4.5-2.1l0.7-1.6l4.5,2.1L226.3,62.1z M217.2,57.9l-4.5-2.1
			l0.7-1.6l4.5,2.1L217.2,57.9z M208.2,53.7l-4.5-2.1l0.7-1.6l4.5,2.1L208.2,53.7z"/>
		<path class="st0" d="M307.4,209.1l-0.3-4.3l1.7-0.1l0.3,4.3L307.4,209.1z M306.6,199.7l-0.4-5l1.7-0.1l0.4,5L306.6,199.7z
			 M305.9,189.8l-0.4-5l1.7-0.1l0.4,5L305.9,189.8z M305.1,179.8l-0.4-5l1.7-0.1l0.4,5L305.1,179.8z M304.3,169.8l-0.4-5l1.7-0.1
			l0.4,5L304.3,169.8z M303.5,159.9l-0.4-5l1.7-0.1l0.4,5L303.5,159.9z M302.7,149.9l-0.4-5l1.7-0.1l0.4,5L302.7,149.9z
			 M301.9,139.9l-0.4-5l1.7-0.1l0.4,5L301.9,139.9z M301.1,130l-0.4-5l1.7-0.1l0.4,5L301.1,130z M300.3,120l-0.4-5l1.7-0.1l0.4,5
			L300.3,120z M299.6,110l-0.4-5l1.7-0.1l0.4,5L299.6,110z M298.8,100.1l-0.4-5l1.7-0.1l0.4,5L298.8,100.1z"/>
		<path class="st0" d="M386.1,218.9l-5-0.6l0.2-1.7l5,0.6L386.1,218.9z M376.2,217.7l-5-0.6l0.2-1.7l5,0.6L376.2,217.7z
			 M366.3,216.6l-5-0.6l0.2-1.7l5,0.6L366.3,216.6z M356.3,215.4l-5-0.6l0.2-1.7l5,0.6L356.3,215.4z M346.4,214.3l-5-0.6l0.2-1.7
			l5,0.6L346.4,214.3z M336.5,213.1l-5-0.6l0.2-1.7l5,0.6L336.5,213.1z M326.5,212l-5-0.6l0.2-1.7l5,0.6L326.5,212z M316.6,210.8
			l-5-0.6l0.2-1.7l5,0.6L316.6,210.8z"/>
		<path class="st0" d="M216.4,258.1l-0.4-5l1.7-0.1l0.4,5L216.4,258.1z M215.6,248.1l-0.4-5l1.7-0.1l0.4,5L215.6,248.1z
			 M214.9,238.1l-0.4-5l1.7-0.1l0.4,5L214.9,238.1z M214.1,228.2l-0.4-5l1.7-0.1l0.4,5L214.1,228.2z M213.4,218.2l-0.4-5l1.7-0.1
			l0.4,5L213.4,218.2z M212.6,208.2l-0.4-5l1.7-0.1l0.4,5L212.6,208.2z M211.9,198.2l-0.4-5l1.7-0.1l0.4,5L211.9,198.2z
			 M211.1,188.3l-0.4-5l1.7-0.1l0.4,5L211.1,188.3z M210.4,178.3l-0.4-5l1.7-0.1l0.4,5L210.4,178.3z M209.6,168.3l-0.4-5l1.7-0.1
			l0.4,5L209.6,168.3z M208.9,158.3l-0.4-5l1.7-0.1l0.4,5L208.9,158.3z"/>
		<path class="st0" d="M217.7,258.8l-0.8-1.5l4.4-2.4l0.8,1.5L217.7,258.8z M226.5,254l-0.8-1.5l4.4-2.4l0.8,1.5L226.5,254z
			 M235.3,249.3l-0.8-1.5l4.4-2.4l0.8,1.5L235.3,249.3z M244.1,244.5l-0.8-1.5l4.4-2.4l0.8,1.5L244.1,244.5z M252.9,239.8l-0.8-1.5
			l4.4-2.4l0.8,1.5L252.9,239.8z M261.7,235.1l-0.8-1.5l4.4-2.4l0.8,1.5L261.7,235.1z M270.5,230.3l-0.8-1.5l4.4-2.4l0.8,1.5
			L270.5,230.3z M279.3,225.6l-0.8-1.5l4.4-2.4l0.8,1.5L279.3,225.6z M288.1,220.8l-0.8-1.5l4.4-2.4l0.8,1.5L288.1,220.8z
			 M296.9,216.1l-0.8-1.5l4.4-2.4l0.8,1.5L296.9,216.1z M305.7,211.4l-0.8-1.5l3-1.6l0.8,1.5L305.7,211.4z"/>
		<path class="st0" d="M806.2,245.2c-0.8-1.5-1.6-2.9-2.4-4.4l1.5-0.9c0.8,1.5,1.6,2.9,2.4,4.4L806.2,245.2z M801.2,236.5
			c-0.8-1.4-1.7-2.9-2.5-4.3l1.5-0.9c0.9,1.4,1.7,2.9,2.5,4.3L801.2,236.5z M796.2,227.9c-0.9-1.4-1.7-2.8-2.6-4.3l1.5-0.9
			c0.9,1.4,1.8,2.8,2.6,4.3L796.2,227.9z M790.9,219.5c-0.9-1.4-1.8-2.8-2.7-4.2l1.5-1c0.9,1.4,1.8,2.8,2.7,4.2L790.9,219.5z
			 M785.4,211.1c-0.9-1.4-1.9-2.8-2.8-4.1l1.4-1c0.9,1.4,1.9,2.8,2.8,4.2L785.4,211.1z M779.8,202.8c-1-1.4-1.9-2.7-2.9-4.1l1.4-1
			c1,1.4,1.9,2.7,2.9,4.1L779.8,202.8z M774,194.7c-1-1.3-2-2.7-3-4l1.4-1c1,1.3,2,2.7,3,4L774,194.7z M768,186.7
			c-1-1.3-2-2.6-3.1-4l1.4-1.1c1,1.3,2.1,2.6,3.1,4L768,186.7z M761.8,178.9c-1-1.3-2.1-2.6-3.1-3.9l1.4-1.1
			c1.1,1.3,2.1,2.6,3.2,3.9L761.8,178.9z M755.5,171.1c-1.1-1.3-2.1-2.5-3.2-3.8l1.3-1.1c1.1,1.3,2.2,2.5,3.2,3.8L755.5,171.1z
			 M749,163.5c-1.1-1.3-2.2-2.5-3.3-3.7l1.3-1.2c1.1,1.2,2.2,2.5,3.3,3.8L749,163.5z M742.4,156.1c-1.1-1.2-2.2-2.5-3.4-3.7l1.3-1.2
			c1.1,1.2,2.3,2.5,3.4,3.7L742.4,156.1z M735.6,148.8c-1.1-1.2-2.3-2.4-3.5-3.6l1.3-1.2c1.2,1.2,2.3,2.4,3.5,3.6L735.6,148.8z
			 M728.6,141.6c-1.2-1.2-2.3-2.4-3.5-3.5l1.2-1.2c1.2,1.2,2.4,2.4,3.5,3.5L728.6,141.6z M721.5,134.6c-1.2-1.2-2.4-2.3-3.6-3.4
			l1.2-1.3c1.2,1.1,2.4,2.3,3.6,3.5L721.5,134.6z M714.3,127.8c-1.2-1.1-2.4-2.3-3.7-3.4l1.2-1.3c1.2,1.1,2.5,2.2,3.7,3.4
			L714.3,127.8z M706.9,121.1c-1.2-1.1-2.5-2.2-3.8-3.3l1.1-1.3c1.3,1.1,2.5,2.2,3.8,3.3L706.9,121.1z M699.3,114.5
			c-1.3-1.1-2.5-2.1-3.8-3.2l1.1-1.3c1.3,1.1,2.6,2.1,3.8,3.2L699.3,114.5z M691.7,108.2c-1.3-1-2.6-2.1-3.9-3.1l1.1-1.4
			c1.3,1,2.6,2.1,3.9,3.1L691.7,108.2z M683.8,102c-1.3-1-2.6-2-4-3l1.1-1.4c1.3,1,2.7,2,4,3L683.8,102z M675.9,95.9
			c-1.3-1-2.7-2-4-3l1-1.4c1.4,1,2.7,2,4,3L675.9,95.9z M667.8,90.1c-1.4-1-2.7-1.9-4.1-2.9l1-1.4c1.4,1,2.7,1.9,4.1,2.9L667.8,90.1
			z M659.7,84.4c-1.4-0.9-2.8-1.9-4.1-2.8l1-1.5c1.4,0.9,2.8,1.9,4.2,2.8L659.7,84.4z M146.5,80.5l-1-1.5c1.4-0.9,2.8-1.8,4.2-2.7
			l0.9,1.5C149.3,78.7,147.9,79.6,146.5,80.5z M651.3,78.9c-1.4-0.9-2.8-1.8-4.2-2.7l0.9-1.5c1.4,0.9,2.8,1.8,4.2,2.7L651.3,78.9z
			 M154.9,75.1l-0.9-1.5c1.4-0.9,2.8-1.8,4.3-2.6l0.9,1.5C157.8,73.3,156.3,74.2,154.9,75.1z M642.9,73.6c-1.4-0.9-2.8-1.7-4.3-2.6
			l0.9-1.5c1.4,0.9,2.9,1.7,4.3,2.6L642.9,73.6z M163.5,69.9l-0.9-1.5c1.4-0.9,2.9-1.7,4.3-2.5l0.9,1.5
			C166.3,68.2,164.9,69,163.5,69.9z M634.4,68.4c-1.4-0.8-2.9-1.7-4.3-2.5l0.9-1.5c1.4,0.8,2.9,1.7,4.3,2.5L634.4,68.4z M172.1,64.9
			l-0.9-1.5c1.5-0.8,2.9-1.6,4.4-2.5l0.8,1.5C175,63.2,173.5,64,172.1,64.9z M625.7,63.5c-1.4-0.8-2.9-1.6-4.4-2.4l0.8-1.5
			c1.5,0.8,2.9,1.6,4.4,2.4L625.7,63.5z M180.8,60l-0.8-1.5c1.5-0.8,2.9-1.6,4.4-2.4l0.8,1.5C183.8,58.5,182.3,59.2,180.8,60z
			 M617,58.7c-1.5-0.8-2.9-1.6-4.4-2.3l0.8-1.6c1.5,0.8,3,1.5,4.4,2.3L617,58.7z M189.7,55.4l-0.8-1.6c1.5-0.8,3-1.5,4.5-2.3
			l0.8,1.6C192.6,53.9,191.2,54.6,189.7,55.4z M608.1,54.1c-1.5-0.7-3-1.5-4.5-2.2l0.8-1.6c1.5,0.7,3,1.5,4.5,2.2L608.1,54.1z
			 M198.6,50.9l-0.8-1.6c1.5-0.7,3-1.4,4.5-2.2l0.7,1.6C201.6,49.5,200.1,50.2,198.6,50.9z M599.2,49.7c-1.5-0.7-3-1.4-4.5-2.1
			l0.7-1.6c1.5,0.7,3,1.4,4.5,2.1L599.2,49.7z M207.6,46.7l-0.7-1.6c1.5-0.7,3-1.4,4.6-2.1l0.7,1.6C210.7,45.3,209.2,46,207.6,46.7z
			 M590.2,45.5c-1.5-0.7-3-1.4-4.5-2l0.7-1.6c1.5,0.7,3,1.3,4.6,2L590.2,45.5z M216.8,42.6l-0.7-1.6c1.5-0.7,3.1-1.3,4.6-2l0.7,1.6
			C219.8,41.3,218.3,42,216.8,42.6z M581,41.6c-1.5-0.6-3.1-1.3-4.6-1.9l0.7-1.6c1.5,0.6,3.1,1.3,4.6,1.9L581,41.6z M226,38.8
			l-0.7-1.6c1.5-0.6,3.1-1.3,4.7-1.9l0.6,1.6C229.1,37.5,227.5,38.1,226,38.8z M571.8,37.8c-1.5-0.6-3.1-1.2-4.6-1.8l0.6-1.6
			c1.6,0.6,3.1,1.2,4.6,1.8L571.8,37.8z M235.3,35.1l-0.6-1.6c1.6-0.6,3.1-1.2,4.7-1.8l0.6,1.6C238.4,33.9,236.8,34.5,235.3,35.1z
			 M562.6,34.2c-1.6-0.6-3.1-1.2-4.7-1.7l0.6-1.6c1.6,0.6,3.1,1.1,4.7,1.7L562.6,34.2z M244.7,31.6l-0.6-1.6
			c1.6-0.6,3.2-1.1,4.7-1.7l0.6,1.7C247.8,30.5,246.2,31.1,244.7,31.6z M553.2,30.8c-1.6-0.5-3.1-1.1-4.7-1.6l0.6-1.7
			c1.6,0.5,3.2,1.1,4.7,1.6L553.2,30.8z M254.1,28.4l-0.6-1.7c1.6-0.5,3.2-1,4.8-1.6l0.5,1.7C257.3,27.3,255.7,27.9,254.1,28.4z
			 M543.8,27.6c-1.6-0.5-3.2-1-4.7-1.5l0.5-1.7c1.6,0.5,3.2,1,4.8,1.5L543.8,27.6z M263.6,25.3l-0.5-1.7c1.6-0.5,3.2-1,4.8-1.5
			l0.5,1.7C266.8,24.4,265.2,24.8,263.6,25.3z M534.3,24.6c-1.6-0.5-3.2-0.9-4.8-1.4l0.5-1.7c1.6,0.5,3.2,0.9,4.8,1.4L534.3,24.6z
			 M273.2,22.5l-0.5-1.7c1.6-0.5,3.2-0.9,4.8-1.3l0.5,1.7C276.4,21.6,274.8,22,273.2,22.5z M524.8,21.8c-1.6-0.4-3.2-0.9-4.8-1.3
			l0.5-1.7c1.6,0.4,3.2,0.9,4.8,1.3L524.8,21.8z M282.9,19.9l-0.4-1.7c1.6-0.4,3.2-0.8,4.9-1.2l0.4,1.7
			C286.1,19,284.5,19.4,282.9,19.9z M515.1,19.3c-1.6-0.4-3.2-0.8-4.8-1.2l0.4-1.7c1.6,0.4,3.2,0.8,4.8,1.2L515.1,19.3z M292.6,17.4
			l-0.4-1.7c1.6-0.4,3.3-0.8,4.9-1.1l0.4,1.7C295.8,16.7,294.2,17.1,292.6,17.4z M505.5,16.9c-1.6-0.4-3.2-0.7-4.9-1.1l0.4-1.7
			c1.6,0.4,3.3,0.7,4.9,1.1L505.5,16.9z M302.3,15.2l-0.4-1.7c1.6-0.4,3.3-0.7,4.9-1l0.3,1.7C305.6,14.5,303.9,14.9,302.3,15.2z
			 M495.7,14.8c-1.6-0.3-3.3-0.7-4.9-1l0.3-1.7c1.6,0.3,3.3,0.7,4.9,1L495.7,14.8z M312.1,13.2l-0.3-1.7c1.6-0.3,3.3-0.6,4.9-0.9
			l0.3,1.7C315.4,12.6,313.7,12.9,312.1,13.2z M485.9,12.8c-1.6-0.3-3.3-0.6-4.9-0.9l0.3-1.7c1.6,0.3,3.3,0.6,4.9,0.9L485.9,12.8z
			 M321.9,11.5l-0.3-1.7c1.6-0.3,3.3-0.6,5-0.8l0.3,1.7C325.2,10.9,323.6,11.2,321.9,11.5z M476.1,11.1c-1.6-0.3-3.3-0.5-4.9-0.8
			l0.3-1.7c1.7,0.3,3.3,0.5,4.9,0.8L476.1,11.1z M331.8,9.9l-0.3-1.7c1.7-0.2,3.3-0.5,5-0.7l0.2,1.7C335.1,9.4,333.5,9.6,331.8,9.9z
			 M466.2,9.6c-1.6-0.2-3.3-0.5-4.9-0.7l0.2-1.7c1.7,0.2,3.3,0.4,5,0.7L466.2,9.6z M341.7,8.5l-0.2-1.7c1.7-0.2,3.3-0.4,5-0.6
			l0.2,1.7C345,8.1,343.4,8.3,341.7,8.5z M456.4,8.3c-1.7-0.2-3.3-0.4-5-0.6l0.2-1.7c1.7,0.2,3.3,0.4,5,0.6L456.4,8.3z M351.7,7.4
			l-0.2-1.7c1.7-0.2,3.3-0.3,5-0.5l0.2,1.7C355,7,353.3,7.2,351.7,7.4z M446.4,7.2c-1.7-0.2-3.3-0.3-5-0.5l0.2-1.7
			c1.7,0.1,3.3,0.3,5,0.5L446.4,7.2z M361.6,6.5l-0.1-1.7c1.7-0.1,3.3-0.3,5-0.4l0.1,1.7C365,6.2,363.3,6.3,361.6,6.5z M436.5,6.3
			c-1.7-0.1-3.3-0.2-5-0.4l0.1-1.7c1.7,0.1,3.3,0.2,5,0.4L436.5,6.3z M371.6,5.7L371.5,4c1.7-0.1,3.3-0.2,5-0.3l0.1,1.7
			C374.9,5.5,373.3,5.6,371.6,5.7z M426.5,5.6c-1.7-0.1-3.3-0.2-5-0.3l0.1-1.7c1.7,0.1,3.3,0.2,5,0.3L426.5,5.6z M381.6,5.2
			l-0.1-1.7c1.7-0.1,3.3-0.1,5-0.2l0,1.7C384.9,5.1,383.3,5.2,381.6,5.2z M416.6,5.2c-1.7-0.1-3.3-0.1-5-0.1l0-1.7
			c1.7,0,3.3,0.1,5,0.1L416.6,5.2z M391.6,5l0-1.8c1.7,0,3.3-0.1,5-0.1l0,1.8C394.9,4.9,393.3,4.9,391.6,5z M406.6,4.9
			c-1.7,0-3.3,0-5,0l0-1.8c1.7,0,3.3,0,5,0L406.6,4.9z"/>
	</g>
	<g>
		<path class="st1" d="M112.2,69.1c0-22.9-18.6-41.6-41.6-41.6C47.7,27.6,29,46.2,29,69.1c0,17,10.3,31.7,25,38.1l1.6-6.5
			c-11.8-5.6-20-17.7-20-31.6c0-19.3,15.7-35,35-35c19.3,0,35,15.7,35,35c0,13.3-7.5,25-18.5,30.9l1.6,6.6
			C102.6,99.8,112.2,85.6,112.2,69.1z"/>
		<path class="st1" d="M122.7,69.1c0-28.7-23.4-52.1-52.1-52.1S18.5,40.4,18.5,69.1c0,22,13.7,40.8,32.9,48.4l1.6-6.4
			c-16.4-6.9-27.9-23.1-27.9-42c0-25.1,20.4-45.5,45.5-45.5c25.1,0,45.5,20.4,45.5,45.5c0,18.3-10.9,34.1-26.5,41.3l1.6,6.5
			C109.8,109,122.7,90.5,122.7,69.1z"/>
		<path class="st1" d="M133.3,69.1c0-34.6-28.1-62.7-62.7-62.7S7.9,34.6,7.9,69.1c0,26.9,17,49.9,40.8,58.8l1.6-6.4
			c-21-8.1-35.9-28.5-35.9-52.3c0-30.9,25.2-56.1,56.1-56.1s56.1,25.2,56.1,56.1c0,23.3-14.2,43.2-34.4,51.7l1.6,6.5
			C116.9,118.1,133.3,95.5,133.3,69.1z"/>
		<path class="st2" d="M137.1,65.5c-1.8-33.9-29.4-61.3-63.3-62.9C35.6,0.7,4,31.3,4,69.1c0,28.7,18.3,53.3,43.8,62.6l1-3.9
			C24.9,119,7.9,96,7.9,69.1c0-35.6,29.8-64.3,65.8-62.6c31.8,1.5,57.7,27.2,59.5,59c1.6,27.9-15.2,52.1-39.3,61.8l1,3.9
			C120.7,121.1,138.8,95.2,137.1,65.5z"/>
		<g id="XMLID_3_">
			<g>
				<path class="st3" d="M105.6,69.1c0,13.3-7.5,25-18.5,30.9l-1-4c9.3-5.4,15.6-15.4,15.6-26.9c0-17.8-15-32.1-33-30.9
					c-15.6,1-28.2,13.8-29,29.5c-0.6,12.7,6.5,23.8,17,29.2l-1,3.9c-12.5-5.9-21-19.1-19.9-34.1c1.2-17.8,16-32,33.8-32.5
					C89.3,33.6,105.6,49.5,105.6,69.1z"/>
			</g>
			<g>
			</g>
		</g>
		<g id="XMLID_2_">
			<g>
				<path class="st4" d="M126.7,69.1c0,23.3-14.2,43.2-34.4,51.7l-1-3.9c18.5-8,31.4-26.4,31.4-47.8c0-30.1-25.6-54.3-56.2-52
					c-25.6,1.9-46.2,22.7-48,48.3c-1.6,23.5,12.5,44,32.8,52.1l-1,3.9C28.3,112.9,13,90.8,14.6,65.4C16.5,37,39.9,14.3,68.3,13.1
					C100.3,11.8,126.7,37.4,126.7,69.1z"/>
			</g>
			<g>
			</g>
		</g>
		<g id="XMLID_1_">
			<g>
				<path class="st5" d="M116.1,69.1c0,18.3-10.9,34.1-26.5,41.3l-1-3.9c13.9-6.7,23.5-21,23.5-37.4c0-23.9-20.3-43.2-44.6-41.5
					c-20.7,1.5-37.3,18.3-38.5,39c-1,18.1,9.5,33.8,24.9,40.5l-1,3.9C35.6,103.8,23.7,86,25.2,65.6c1.7-22.9,20.6-41,43.5-42
					C94.7,22.6,116.1,43.4,116.1,69.1z"/>
			</g>
			<g>
			</g>
		</g>
		<g>
			<polygon class="st0" points="59.4,137.9 71.4,126.5 83.8,137.9 86.6,135 74.5,123.6 80.5,117.9 80.7,112.1 71.6,120.8 
				62.6,112.1 61.9,117.7 68.5,123.8 56.7,135 			"/>
			<polygon class="st0" points="43.4,195.3 71.5,168.9 99.9,195.3 101.7,191.5 74.4,166.2 91.1,150.4 88.4,147.6 71.5,163.5 
				56.7,149.6 54,152.5 68.6,166.2 45.1,188 			"/>
			<polygon class="st0" points="120.3,269.6 74.3,225.5 102.6,198.4 99.8,195.6 71.5,222.8 44.2,196.6 41.4,199.5 68.6,225.5 
				22.6,269.6 25.4,272.5 71.5,228.3 117.6,272.5 			"/>
		</g>
		<polygon class="st1" points="24.3,277.5 117.9,277.5 71.5,91.9 		"/>
		<g>
			<path class="st6" d="M76.1,88.7c-1.7,0.5-3.6,0.8-5.5,0.8c-1.3,0-2.6-0.1-3.8-0.4L18.9,277.5h5.4L71.5,91.9l46.4,185.6h5.4
				L76.1,88.7z"/>
			<path class="st7" d="M76.1,88.7c8.6-2.4,14.9-10.3,14.9-19.6c0-11.2-9.1-20.3-20.3-20.3s-20.3,9.1-20.3,20.3
				c0,9.9,7.1,18.2,16.5,20c1.2,0.2,2.5,0.4,3.8,0.4C72.5,89.5,74.3,89.2,76.1,88.7z M55.2,69.1c0-8.5,6.9-15.4,15.4-15.4
				c8.5,0,15.4,6.9,15.4,15.4c0,7-4.7,12.9-11,14.8c-0.2,0-0.3,0.1-0.5,0.1c-1.2,0.3-2.5,0.5-3.9,0.5c-0.6,0-1.2,0-1.8-0.1
				c-0.2,0-0.4-0.1-0.6-0.1C60.8,83.2,55.2,76.8,55.2,69.1z"/>
		</g>
		<circle class="st7" cx="70.6" cy="69.1" r="9.3"/>
	</g>
	<g>
		<path class="st7" d="M807.8,231.1c0,4.8-3.8,8.6-8.6,8.6H620.4c-4.8,0-8.6-3.8-8.6-8.6v-104c0-4.8,3.8-8.6,8.6-8.6h178.8
			c4.8,0,8.6,3.8,8.6,8.6V231.1z"/>
		<rect x="617.9" y="126.8" class="st8" width="183.6" height="94.3"/>
		<path class="st9" d="M776.9,145H642.3v-18.2H777V145H776.9z"/>
		<polygon class="st3" points="735.9,273.5 683.6,273.5 691.2,238.2 728.3,238.2 		"/>
		<polygon class="st10" points="732.6,258.2 728.3,238.2 691.2,238.2 686.9,258.2 		"/>
		<path class="st11" d="M746.8,277.5h-74.1c-4,0-4.6-5.3-4.6-5.3h83.2C751.3,272.4,750.8,277.5,746.8,277.5z"/>
		<path class="st11" d="M611.6,228.8v17c0,4.8,3.8,8.6,8.6,8.6h179c4.8,0,8.6-3.8,8.6-8.6v-17H611.6z"/>
		<circle class="st3" cx="709.7" cy="241.2" r="6.3"/>
		<rect x="642.3" y="150" class="st3" width="134.7" height="18.4"/>
		<rect x="642.3" y="173.2" class="st4" width="40" height="24.4"/>
		<rect x="689.7" y="173.2" class="st7" width="40" height="24.4"/>
		<rect x="737.1" y="173.2" class="st2" width="40" height="24.4"/>
		<g>
			<rect x="642.3" y="201.4" class="st6" width="40" height="3.5"/>
			<rect x="642.3" y="207.5" class="st0" width="40" height="3.5"/>
			<rect x="642.3" y="213.6" class="st0" width="40" height="3.5"/>
		</g>
		<g>
			<rect x="689.7" y="201.4" class="st6" width="40" height="3.5"/>
			<rect x="689.7" y="207.5" class="st0" width="40" height="3.5"/>
			<rect x="689.7" y="213.6" class="st0" width="40" height="3.5"/>
		</g>
		<g>
			<rect x="737.1" y="201.4" class="st6" width="40" height="3.5"/>
			<rect x="737.1" y="207.5" class="st0" width="40" height="3.5"/>
			<rect x="737.1" y="213.6" class="st0" width="40" height="3.5"/>
		</g>
		<ellipse class="st12" cx="768.8" cy="135.9" rx="4.2" ry="4.3"/>
		<g>
			<rect x="645.5" y="132.8" class="st12" width="7.1" height="1.2"/>
			<rect x="645.5" y="135.3" class="st12" width="7.1" height="1.2"/>
			<rect x="645.5" y="137.8" class="st12" width="7.1" height="1.2"/>
		</g>
	</g>
	<path class="st7" d="M495.7,277.5c-3,0-5.6-2.6-5.6-5.6v-114c0-3,2.6-5.6,5.6-5.6H572c3,0,5.6,2.6,5.6,5.6v114c0,3-2.6,5.6-5.6,5.6
		H495.7z"/>
	<rect x="495.9" y="164.4" class="st8" width="75.6" height="101"/>
	<path class="st5" d="M539.7,271.9c0,1.1-0.9,2.2-2.2,2.2H531c-1.1,0-2.2-0.9-2.2-2.2l0,0c0-1.1,0.9-2.2,2.2-2.2h6.5
		C538.8,269.7,539.7,270.6,539.7,271.9L539.7,271.9z"/>
	<g>
		<rect x="500" y="185.2" class="st3" width="67.6" height="28"/>
		<rect x="500" y="218.5" class="st4" width="30.8" height="18.9"/>
		<rect x="536.4" y="218.5" class="st7" width="30.8" height="18.9"/>
		<g>
			<rect x="500" y="242.2" class="st6" width="30.8" height="2.6"/>
			<rect x="500" y="247.6" class="st0" width="30.8" height="2.6"/>
			<rect x="500" y="253" class="st0" width="30.8" height="2.6"/>
			<rect x="500" y="258.4" class="st0" width="30.8" height="2.6"/>
		</g>
		<g>
			<rect x="536.4" y="242.2" class="st6" width="30.8" height="2.6"/>
			<rect x="536.4" y="247.6" class="st0" width="30.8" height="2.6"/>
			<rect x="536.4" y="253" class="st0" width="30.8" height="2.6"/>
			<rect x="536.4" y="258.4" class="st0" width="30.8" height="2.6"/>
		</g>
	</g>
	<g>
		<path class="st7" d="M468.7,206.4c0,3.2-2.4,5.7-5.5,5.7H418c-3.1,0-5.5-2.5-5.5-5.7v-88.7c0-3.2,2.4-5.7,5.5-5.7h45.1
			c3.1,0,5.5,2.5,5.5,5.7V206.4z"/>
		<rect x="415.9" y="124.6" class="st8" width="49.5" height="73.4"/>
		<ellipse class="st3" cx="440.6" cy="118.9" rx="2.2" ry="2.2"/>
		<path class="st3" d="M446.4,205.1c0,1.2-1,2.5-2.4,2.5h-7.2c-1.2,0-2.4-1-2.4-2.5l0,0c0-1.2,1-2.5,2.4-2.5h7.2
			C445.4,202.9,446.4,203.9,446.4,205.1L446.4,205.1z"/>
		<g>
			<rect x="420.7" y="157.1" class="st3" width="39.8" height="9.6"/>
			<rect x="420.7" y="144.9" class="st2" width="39.8" height="9.6"/>
			<rect x="420.7" y="169.3" class="st4" width="39.8" height="22.6"/>
		</g>
		<g>
			<path class="st9" d="M465.3,138.3h-49.4v-13.8h49.5L465.3,138.3L465.3,138.3z"/>
			<ellipse class="st12" cx="458.8" cy="131.6" rx="4.2" ry="4.3"/>
			<g>
				<rect x="418.5" y="128.6" class="st12" width="7.1" height="1.2"/>
				<rect x="418.5" y="131" class="st12" width="7.1" height="1.2"/>
				<rect x="418.5" y="133.5" class="st12" width="7.1" height="1.2"/>
			</g>
		</g>
	</g>
	<circle class="st5" cx="386.3" cy="218" r="7.5"/>
	<circle class="st13" cx="359.3" cy="131" r="7.5"/>
	<circle class="st13" cx="140.3" cy="145" r="7.5"/>
	<circle class="st5" cx="476.3" cy="11" r="7.5"/>
	<circle class="st13" cx="668.3" cy="11" r="7.5"/>
	<g>
		<circle class="st11" cx="308.3" cy="210" r="22.5"/>
		<g>
			<g>
				<path class="st14" d="M303.7,213.4h3.1l0.6,4l4.5-4h7.2c1.9,0,3.5-1.7,3.5-3.7v-7.9c0-2-1.6-3.7-3.5-3.7h-15.5
					c-1.9,0-3.5,1.7-3.5,3.7v7.9C300.2,211.7,301.8,213.4,303.7,213.4z"/>
			</g>
			<g>
				<path class="st11" d="M301.1,225.5c-0.2,0-0.4,0-0.6-0.1c-0.6-0.2-1.1-0.8-1.2-1.4l-0.4-2.5h-1.5c-2.9,0-5.3-2.5-5.3-5.5v-7.9
					c0-3,2.4-5.5,5.3-5.5h15.5c2.9,0,5.3,2.5,5.3,5.5v7.9c0,3-2.4,5.5-5.3,5.5h-6.6l-4,3.5C301.9,225.3,301.5,225.5,301.1,225.5z"/>
				<path class="st14" d="M297.4,219.7h3.1l0.6,4l4.5-4h7.2c1.9,0,3.5-1.7,3.5-3.7v-7.9c0-2-1.6-3.7-3.5-3.7h-15.5
					c-1.9,0-3.5,1.7-3.5,3.7v7.9C293.9,218,295.5,219.7,297.4,219.7z"/>
				<g>
					<circle class="st11" cx="310.6" cy="211.7" r="1.8"/>
					<circle class="st11" cx="305.1" cy="211.7" r="1.8"/>
					<circle class="st11" cx="299.6" cy="211.7" r="1.8"/>
				</g>
			</g>
		</g>
	</g>
	<g>
		<path class="st11" d="M394.3,95.9c-6.5,6.5-9.5,15.8-8,25l3.8-0.6c-1.3-7.9,1.3-16,6.9-21.6c5.6-5.6,13.7-8.2,21.6-6.9l0.6-3.8
			C410.1,86.4,400.8,89.4,394.3,95.9z"/>
		<path class="st3" d="M397.6,119c-0.9-5.5,0.9-11.1,4.8-15c3.9-3.9,9.5-5.7,15-4.8l0.6-3.8c-6.7-1.1-13.5,1.1-18.3,5.9
			c-4.8,4.8-7,11.6-5.9,18.3L397.6,119z"/>
		<path class="st7" d="M416.1,106.7l0.6-3.8c-4.3-0.7-8.6,0.7-11.6,3.7c-3,3-4.4,7.4-3.7,11.6l3.8-0.6c-0.5-3,0.5-6.2,2.7-8.3
			C410,107.2,413.1,106.2,416.1,106.7z"/>
	</g>
	<g>
		<path class="st15" d="M570.9,126.9l0.6,3.8c7.9-1.3,16,1.3,21.6,6.9c5.6,5.6,8.2,13.7,6.9,21.6l3.8,0.6c1.5-9.1-1.5-18.5-8-25
			C589.4,128.4,580,125.4,570.9,126.9z"/>
		<path class="st5" d="M596.3,158.6c1.1-6.7-1.1-13.5-5.9-18.3c-4.8-4.8-11.6-7-18.3-5.9l0.6,3.8c5.5-0.9,11.1,0.9,15,4.8
			s5.7,9.5,4.8,15L596.3,158.6z"/>
		<path class="st4" d="M582.4,148.4c2.2,2.2,3.2,5.3,2.7,8.3l3.8,0.6c0.7-4.3-0.7-8.6-3.7-11.6c-3-3-7.4-4.4-11.6-3.7l0.6,3.8
			C577.1,145.2,580.2,146.2,582.4,148.4z"/>
	</g>
	<g>
		<path class="st13" d="M798.9,94.9l0.6,3.8c7.9-1.3,16,1.3,21.6,6.9c5.6,5.6,8.2,13.7,6.9,21.6l3.8,0.6c1.5-9.1-1.5-18.5-8-25
			C817.4,96.4,808,93.4,798.9,94.9z"/>
		<path class="st9" d="M824.3,126.6c1.1-6.7-1.1-13.5-5.9-18.3c-4.8-4.8-11.6-7-18.3-5.9l0.6,3.8c5.5-0.9,11.1,0.9,15,4.8
			s5.7,9.5,4.8,15L824.3,126.6z"/>
		<path class="st2" d="M810.4,116.4c2.2,2.2,3.2,5.3,2.7,8.3l3.8,0.6c0.7-4.3-0.7-8.6-3.7-11.6c-3-3-7.4-4.4-11.6-3.7l0.6,3.8
			C805.1,113.2,808.2,114.2,810.4,116.4z"/>
	</g>
	<g>
		<circle class="st9" cx="561.3" cy="30" r="22.5"/>
		<g>
			<g>
				<path class="st14" d="M573.1,32.2c-0.9-0.9-2.1-1.5-3.4-1.6c1.1-1,1.8-2.4,1.8-4.1c0-3-2.5-5.5-5.5-5.5c-2.9,0-5.3,2.2-5.5,5.1
					c2.6,1.1,4.4,3.7,4.4,6.6c0,1.1-0.2,2.1-0.7,3.1c0.7,0.3,1.3,0.8,1.8,1.3c1.4,1.4,2.1,3.3,2.1,5.2l0,0l0,0l0,0.9h6.6l0.1-7.3
					C574.8,34.7,574.2,33.2,573.1,32.2z"/>
				<path class="st14" d="M561.4,36.8c1.1-1,1.8-2.4,1.8-4.1c0-3-2.5-5.5-5.5-5.5c-3,0-5.5,2.5-5.5,5.5c0,1.6,0.7,3.1,1.8,4.1
					c-2.8,0.2-5.1,2.6-5.1,5.5l-0.1,1.1h8.3h9.1l0.1-1c0-1.5-0.6-2.9-1.6-3.9C563.9,37.5,562.7,36.9,561.4,36.8z"/>
				<path class="st14" d="M551.3,23.2v2c0,0.8,0.7,1.5,1.5,1.5c0.8,0,1.5-0.7,1.5-1.5v-2h2c0.8,0,1.5-0.7,1.5-1.5
					c0-0.8-0.7-1.5-1.5-1.5h-2v-2c0-0.8-0.7-1.5-1.5-1.5c-0.8,0-1.5,0.7-1.5,1.5v2h-2c-0.8,0-1.5,0.7-1.5,1.5c0,0.8,0.7,1.5,1.5,1.5
					L551.3,23.2L551.3,23.2z"/>
			</g>
		</g>
	</g>
	<g>
		<circle class="st2" cx="376.8" cy="39.5" r="17.5"/>
		<g>
			<g>
				
					<rect x="366.1" y="38.4" transform="matrix(0.9961 -8.877382e-02 8.877382e-02 0.9961 -2.4233 33.1595)" class="st14" width="10.9" height="10.9"/>
				
					<rect x="367" y="39.3" transform="matrix(-0.9961 8.877382e-02 -8.877382e-02 -0.9961 745.3248 52.577)" class="st2" width="9" height="7.1"/>
			</g>
			<g>
				
					<rect x="369.8" y="28.2" transform="matrix(-0.1162 0.9932 -0.9932 -0.1162 460.9133 -334.631)" class="st2" width="19.1" height="19.1"/>
				
					<rect x="371.7" y="30.1" transform="matrix(0.9932 0.1162 -0.1162 0.9932 6.9548 -43.814)" class="st14" width="15.3" height="15.3"/>
				
					<rect x="373.2" y="31.4" transform="matrix(-0.9932 -0.1162 0.1162 -0.9932 752.1985 116.6633)" class="st2" width="12.6" height="9.9"/>
			</g>
		</g>
	</g>
	<g>
		<circle class="st5" cx="657.3" cy="80" r="17.5"/>
		<g>
			<path class="st14" d="M657.9,80.5c-0.2,0.1-0.4,0.2-0.6,0.2c-0.2,0-0.4-0.1-0.6-0.2l-9.1-6.3v11.9c0,0.5,0.4,1,1,1h17.3
				c0.5,0,1-0.4,1-1V74.4L657.9,80.5z"/>
			<path class="st14" d="M657.3,78.5l8.3-5.7H649L657.3,78.5z"/>
		</g>
	</g>
	<g>
		<circle class="st5" cx="202.3" cy="50" r="22.5"/>
		<path class="st14" d="M211.8,54.3c2.9,0,5.3-2.3,5.3-5.2c0-2.2-1.5-4.2-3.6-4.9c-0.3-2.4-2.6-4.2-5.1-3.7c-1.6-2.2-4.2-3.6-7-3.6
			c-3.5,0-6.6,2.1-7.9,5.2c-3.3,0.1-6,2.8-6,6.1c0,3.4,2.8,6.1,6.1,6.1h7.8v1.9c-0.7,0.3-1.3,0.8-1.6,1.6H196
			c-0.4-1-1.3-1.7-2.5-1.7s-2.1,0.7-2.5,1.7h-3.7v1.7h3.7c0.4,1,1.3,1.7,2.5,1.7s2.1-0.7,2.5-1.7h3.8c0.4,1,1.3,1.7,2.5,1.7
			s2.1-0.7,2.5-1.7h3.8c0.4,1,1.3,1.7,2.5,1.7s2.1-0.7,2.5-1.7h3.7v-1.7h-3.7c-0.4-1-1.3-1.7-2.5-1.7s-2.1,0.7-2.5,1.7h-3.8
			c-0.3-0.7-0.8-1.3-1.6-1.6v-1.9H211.8z"/>
	</g>
	<g>
		<circle class="st4" cx="299.3" cy="95" r="17.5"/>
		<g>
			<path class="st14" d="M306.2,98.8c-1.2-1-2.3-1.6-3.5-0.6l-0.7,0.6c-0.5,0.4-1.4,2.5-5-1.7c-3.6-4.1-1.5-4.8-1-5.2l0.7-0.6
				c1.1-1,0.7-2.2-0.1-3.5l-0.5-0.8c-0.8-1.3-1.7-2.1-2.9-1.1l-0.6,0.5c-0.5,0.4-1.9,1.6-2.3,3.8c-0.4,2.7,0.9,5.9,3.9,9.3
				c3,3.4,5.9,5.2,8.7,5.1c2.3,0,3.7-1.3,4.1-1.7l0.6-0.5c1.1-1,0.4-2-0.7-3L306.2,98.8z"/>
		</g>
	</g>
	<g>
		<circle class="st3" cx="209.8" cy="150.5" r="17.5"/>
		<path class="st14" d="M209.1,153c-0.7,0-1.5-0.2-2.2-0.6c-1.1-0.6-1.8-1.5-2.1-2.7l-0.5-1.8c-0.3-1.1-0.2-2.4,0.4-3.4
			c0.6-1.1,1.5-1.8,2.7-2.1l7.7-2.2c2.4-0.7,4.9,0.7,5.5,3.1l0.5,1.8c0.3,1.1,0.2,2.4-0.4,3.4c-0.6,1.1-1.5,1.8-2.7,2.1l-7.7,2.2
			C209.9,152.9,209.5,153,209.1,153z M216.2,142c-0.2,0-0.4,0-0.7,0.1l-7.7,2.2c-0.6,0.2-1.1,0.6-1.4,1.1c-0.3,0.6-0.4,1.2-0.2,1.8
			l0.5,1.8c0.2,0.6,0.6,1.1,1.1,1.4c0.6,0.3,1.2,0.4,1.8,0.2l7.7-2.2c0.6-0.2,1.1-0.6,1.4-1.1s0.4-1.2,0.2-1.8l-0.5-1.8
			C218.2,142.7,217.2,142,216.2,142z"/>
		<path class="st3" d="M202.9,160.3c-2.4,0-4.6-1.6-5.3-4l-0.5-1.8c-0.4-1.4-0.2-2.9,0.5-4.2c0.7-1.3,1.9-2.2,3.3-2.6l7.7-2.2
			c0.5-0.1,1-0.2,1.5-0.2c0.9,0,1.8,0.2,2.6,0.7c1.3,0.7,2.2,1.9,2.6,3.3l0.5,1.8c0.4,1.4,0.2,2.9-0.5,4.2c-0.7,1.3-1.9,2.2-3.3,2.6
			l-7.7,2.2C203.9,160.3,203.4,160.3,202.9,160.3z M210,149.4c-0.1,0-0.3,0-0.4,0.1l-7.7,2.2c-0.4,0.1-0.6,0.3-0.8,0.7
			s-0.2,0.7-0.1,1.1l0.5,1.8c0.2,0.6,0.7,1,1.3,1h0c0.1,0,0.3,0,0.4-0.1l7.7-2.2c0.4-0.1,0.6-0.3,0.8-0.7s0.2-0.7,0.1-1.1l-0.5-1.8
			c-0.1-0.4-0.3-0.6-0.7-0.8C210.5,149.5,210.3,149.4,210,149.4z"/>
	</g>
	<path class="st14" d="M202.9,159.3c-1.9,0-3.7-1.3-4.3-3.2l-0.5-1.8c-0.3-1.1-0.2-2.4,0.4-3.4c0.6-1.1,1.5-1.8,2.7-2.1l7.7-2.2
		c1.1-0.3,2.4-0.2,3.4,0.4c1.1,0.6,1.8,1.5,2.1,2.7l0.5,1.8c0.3,1.1,0.2,2.4-0.4,3.4c-0.6,1.1-1.5,1.8-2.7,2.1l-7.7,2.2
		C203.8,159.3,203.3,159.3,202.9,159.3z M210,148.4c-0.2,0-0.4,0-0.7,0.1l-7.7,2.2c-0.6,0.2-1.1,0.6-1.4,1.1s-0.4,1.2-0.2,1.8
		l0.5,1.8c0.4,1.3,1.7,2,3,1.6l7.7-2.2c0.6-0.2,1.1-0.6,1.4-1.1s0.4-1.2,0.2-1.8l-0.5-1.8c-0.2-0.6-0.6-1.1-1.1-1.4
		C210.8,148.5,210.4,148.4,210,148.4z"/>
	<g>
		<circle class="st11" cx="498.8" cy="95" r="17.5"/>
		<g>
			<polygon class="st16" points="506.5,89.7 498.2,102.8 490,89.7 			"/>
			<circle class="st14" cx="505.9" cy="90.3" r="2.6"/>
			<circle class="st14" cx="490.6" cy="90.4" r="2.6"/>
			<circle class="st14" cx="498.2" cy="102.5" r="2.6"/>
		</g>
	</g>
	<g>
		<circle class="st9" cx="216.8" cy="257.5" r="17.5"/>
		<g>
			<path class="st14" d="M226.6,248.8h-19.7c-0.5,0-0.9,0.5-0.9,0.9V263c0,0.5,0.5,0.9,0.9,0.9h19.7c0.5,0,0.9-0.5,0.9-0.9v-13.3
				C227.4,249.2,227,248.8,226.6,248.8z M225.7,262.2h-18.1v-11.7h18.1V262.2L225.7,262.2z"/>
			<g>
				<path class="st14" d="M216.2,263.9c-0.8,0-1.9,0.5-2.6,1l-0.3,0.3c-0.6,0.6-0.5,1,0.5,1h6c0.8,0,1-0.5,0.5-1l-0.3-0.3
					c-0.6-0.6-1.8-1-2.6-1H216.2z"/>
			</g>
			<g>
				<g>
					<rect x="217.6" y="252.2" class="st14" width="6.4" height="7.8"/>
				</g>
				<path class="st14" d="M209.5,252.2v6.5h6v-6.5H209.5z M212.6,253.1c0.7,0,1.2,0.5,1.2,1.2s-0.5,1.2-1.2,1.2
					c-0.7,0-1.2-0.5-1.2-1.2C211.4,253.6,211.9,253.1,212.6,253.1z M214.6,258.2h-4V258c0-1.1,0.9-2,2-2
					C213.7,256,214.6,256.8,214.6,258.2L214.6,258.2z"/>
			</g>
		</g>
	</g>
	<path class="st9" d="M571.5,179.8h-75.6v-15.4h75.6L571.5,179.8L571.5,179.8z"/>
	<ellipse class="st12" cx="563.8" cy="172.3" rx="4.2" ry="4.3"/>
	<g>
		<rect x="498.5" y="169.2" class="st12" width="7.1" height="1.2"/>
		<rect x="498.5" y="171.7" class="st12" width="7.1" height="1.2"/>
		<rect x="498.5" y="174.2" class="st12" width="7.1" height="1.2"/>
	</g>
</g>
</svg>
