<?xml version="1.0" encoding="utf-8"?>
<!-- Generator: Adobe Illustrator 16.2.0, SVG Export Plug-In . SVG Version: 6.00 Build 0)  -->
<!DOCTYPE svg PUBLIC "-//W3C//DTD SVG 1.1//EN" "http://www.w3.org/Graphics/SVG/1.1/DTD/svg11.dtd">
<svg version="1.1" id="Layer_1" xmlns:sketch="http://www.bohemiancoding.com/sketch/ns"
	 xmlns="http://www.w3.org/2000/svg" xmlns:xlink="http://www.w3.org/1999/xlink" x="0px" y="0px" width="84px" height="84px"
	 viewBox="0 0 84 84" enable-background="new 0 0 84 84" xml:space="preserve">
<g sketch:type="MSShapeGroup">
	<g id="path-1">
		<path fill="#EEEEEE" d="M41.007,81.75c-21.37,0-38.756-17.386-38.756-38.756v-1.988c0-21.37,17.386-38.756,38.756-38.756h1.988
			c21.37,0,38.756,17.386,38.756,38.756v1.988c0,21.37-17.386,38.756-38.756,38.756H41.007z"/>
		<path fill="#FFFFFF" d="M42.995,3.25c20.818,0,37.756,16.938,37.756,37.756v1.988c0,20.818-16.938,37.756-37.756,37.756h-1.988
			c-20.819,0-37.756-16.938-37.756-37.756v-1.988c0-20.819,16.938-37.756,37.756-37.756H42.995 M42.995,1.25h-1.988
			c-21.956,0-39.756,17.8-39.756,39.756v1.988c0,21.957,17.8,39.756,39.756,39.756h1.988c21.957,0,39.756-17.799,39.756-39.756
			v-1.988C82.751,19.05,64.952,1.25,42.995,1.25L42.995,1.25z"/>
	</g>
</g>
<g>
	<path id="path-1_1_" fill="none" stroke="#F2EDED" d="M41.007,1.25h1.988c21.957,0,39.756,17.8,39.756,39.756v1.988
		c0,21.957-17.799,39.756-39.756,39.756h-1.988c-21.956,0-39.756-17.799-39.756-39.756v-1.988C1.251,19.05,19.051,1.25,41.007,1.25z
		"/>
</g>
<g>
	<path fill="#005EB8" d="M26.057,39.571l0.503-1.318C26.252,38.605,26.057,39.068,26.057,39.571L26.057,39.571z M26.057,39.571"/>
	<path fill="#005EB8" d="M57.338,38.14l0.607,1.431C57.945,39.015,57.707,38.501,57.338,38.14L57.338,38.14z M57.338,38.14"/>
	<path fill="#005EB8" d="M55.824,37.556c0.607,0,1.152,0.277,1.523,0.697l-0.072-0.163c0.031,0.02,0.051,0.03,0.072,0.05
		l-0.484-1.151l-4.064-10.664c0-1.112-0.908-2.019-2.018-2.019H33.118c-1.112,0-2.018,0.907-2.018,2.019l-4.055,10.664L26.56,38.14
		c0.021-0.021,0.042-0.039,0.063-0.05l-0.063,0.163c0.372-0.42,0.907-0.697,1.515-0.697H55.824z M37.729,26.067l1.153-0.627
		c0.268-0.113,0.617-0.063,0.782,0.124l2.213,2.44c0.154,0.184,0.103,0.433-0.186,0.554l-1.287,0.485
		c-0.535,0.279-0.227,0.813,0.144,1.348l1.884,2.089c0.905,0.812,1.42,1.194,1.965,1.01l1.123-0.659
		c0.268-0.125,0.617-0.075,0.791,0.121l2.203,2.439c0.154,0.188,0.104,0.432-0.186,0.557l-1.316,0.442
		c-0.854,0.297-4.262,0.393-8.009-3.871C35.393,28.404,37.05,26.489,37.729,26.067L37.729,26.067z M37.729,26.067"/>
	<path fill="#005EB8" d="M55.928,39.521H28.075c-1.113,0-2.018,0.904-2.018,2.016v5.897c0,1.113,0.905,2.019,2.018,2.019h12.443
		v4.961h-1.791c-0.926,0-1.749,0.475-2.212,1.205H26.375v2.861h10.139c0.473,0.73,1.287,1.214,2.212,1.214h6.443
		c0.938,0,1.75-0.483,2.225-1.214h10.127v-2.861H47.395c-0.475-0.73-1.287-1.205-2.225-1.205h-1.791v-4.961h12.549
		c1.109,0,2.018-0.905,2.018-2.019v-5.897C57.945,40.425,57.037,39.521,55.928,39.521L55.928,39.521z M54.146,45.243h-5.549v-1.515
		h5.549V45.243z M54.146,45.243"/>
</g>
</svg>
