<svg width="50" height="50" viewBox="0 0 50 50" fill="none" xmlns="http://www.w3.org/2000/svg">
<path d="M25 0C11.1929 0 0 11.1929 0 25C0 38.8071 11.1929 50 25 50C38.8071 50 50 38.8071 50 25C49.9844 11.1994 38.8006 0.015625 25 0ZM25 48.3333C12.1133 48.3333 1.66667 37.8867 1.66667 25C1.66667 12.1133 12.1133 1.66667 25 1.66667C37.8867 1.66667 48.3333 12.1133 48.3333 25C48.3186 37.8805 37.8805 48.3186 25 48.3333Z" fill="#2855AF"/>
<path d="M24.9987 3.33337C13.0326 3.33337 3.33203 13.0339 3.33203 25C3.33203 36.9662 13.0326 46.6667 24.9987 46.6667C36.9648 46.6667 46.6654 36.9662 46.6654 25C46.652 13.0394 36.9593 3.34671 24.9987 3.33337ZM24.9987 45C13.953 45 4.9987 36.0458 4.9987 25C4.9987 13.9543 13.953 5.00004 24.9987 5.00004C36.0444 5.00004 44.9987 13.9543 44.9987 25C44.9859 36.0404 36.039 44.9872 24.9987 45Z" fill="#2855AF"/>
<path d="M9.16536 24.1666H5.83203V25.8333H9.16536V24.1666Z" fill="#2855AF"/>
<path d="M44.1654 24.1666H40.832V25.8333H44.1654V24.1666Z" fill="#2855AF"/>
<path d="M10.8714 32.1967L7.98438 33.863L8.81754 35.3065L11.7045 33.6402L10.8714 32.1967Z" fill="#2855AF"/>
<path d="M41.1839 14.695L38.2969 16.3613L39.13 17.8048L42.017 16.1385L41.1839 14.695Z" fill="#2855AF"/>
<path d="M8.81754 14.6947L7.98438 16.1382L10.8714 17.8045L11.7045 16.361L8.81754 14.6947Z" fill="#2855AF"/>
<path d="M39.13 32.1909L38.2969 33.6344L41.1839 35.3007L42.0171 33.8572L39.13 32.1909Z" fill="#2855AF"/>
<path d="M16.1349 7.98446L14.6914 8.81763L16.3577 11.7046L17.8012 10.8715L16.1349 7.98446Z" fill="#2855AF"/>
<path d="M25.8346 5.83337H24.168V9.16671H25.8346V5.83337Z" fill="#2855AF"/>
<path d="M33.8616 7.98324L32.1953 10.8702L33.6388 11.7034L35.3051 8.81641L33.8616 7.98324Z" fill="#2855AF"/>
<path d="M6.70086 19.2337L6.26953 20.8435L8.68428 21.4905L9.11562 19.8807L6.70086 19.2337Z" fill="#2855AF"/>
<path d="M41.3063 28.5072L40.875 30.1171L43.2898 30.7641L43.7211 29.1542L41.3063 28.5072Z" fill="#2855AF"/>
<path d="M12.034 10.8576L10.8555 12.0361L12.6232 13.8039L13.8017 12.6254L12.034 10.8576Z" fill="#2855AF"/>
<path d="M20.8403 6.27155L19.2305 6.70288L19.8775 9.11763L21.4873 8.6863L20.8403 6.27155Z" fill="#2855AF"/>
<path d="M29.1548 6.27592L28.5078 8.69067L30.1177 9.12201L30.7647 6.70726L29.1548 6.27592Z" fill="#2855AF"/>
<path d="M37.9631 10.8601L36.1953 12.6278L37.3738 13.8063L39.1416 12.0386L37.9631 10.8601Z" fill="#2855AF"/>
<path d="M43.3015 19.2339L40.8867 19.8809L41.318 21.4907L43.7328 20.8437L43.3015 19.2339Z" fill="#2855AF"/>
<path d="M8.68428 28.5084L6.26953 29.1554L6.70086 30.7652L9.11561 30.1182L8.68428 28.5084Z" fill="#2855AF"/>
<path d="M28.5364 11.2882C20.9596 9.33668 13.2354 13.8967 11.2838 21.4734C10.3592 25.0629 10.8782 28.872 12.7298 32.0833C12.9719 32.4746 13.4855 32.5957 13.8769 32.3535C14.2517 32.1216 14.3812 31.6379 14.1723 31.2499C10.7246 25.2689 12.7784 17.6254 18.7594 14.1777C24.7404 10.73 32.3839 12.7838 35.8316 18.7648C37.465 21.5985 37.9227 24.9594 37.1066 28.1266C36.9915 28.5725 37.2598 29.0273 37.7057 29.1424C38.1517 29.2575 38.6065 28.9892 38.7216 28.5433V28.5408C40.6731 20.9641 36.113 13.2399 28.5364 11.2882Z" fill="#2855AF"/>
<path d="M37.196 31.0217L28.0293 23.5217C28.0043 23.5064 27.9784 23.4924 27.9518 23.48C27.1153 21.8458 25.1124 21.1991 23.4782 22.0357C21.8439 22.8722 21.1973 24.8751 22.0338 26.5093C22.5712 27.5591 23.6246 28.2456 24.8018 28.3134L36.3852 32.4509C36.476 32.4838 36.572 32.5005 36.6685 32.5C37.1287 32.4999 37.5017 32.1268 37.5017 31.6665C37.5016 31.4166 37.3895 31.1799 37.196 31.0217ZM25.0018 26.6667C24.0813 26.6667 23.3352 25.9206 23.3352 25C23.3352 24.0795 24.0813 23.3334 25.0018 23.3334C25.9224 23.3334 26.6685 24.0795 26.6685 25C26.6685 25.9206 25.9224 26.6667 25.0018 26.6667ZM27.2727 27.4267C27.7334 26.9951 28.0613 26.4409 28.2177 25.8292L32.4185 29.2617L27.2727 27.4267Z" fill="#7CCCDB"/>
<path d="M28.3333 33.3334H21.6667C19.3655 33.3334 17.5 35.1989 17.5 37.5C17.5 39.8012 19.3655 41.6667 21.6667 41.6667H28.3333C30.6345 41.6667 32.5 39.8012 32.5 37.5C32.5 35.1989 30.6345 33.3334 28.3333 33.3334ZM28.3333 40H21.6667C20.2859 40 19.1667 38.8808 19.1667 37.5C19.1667 36.1193 20.2859 35 21.6667 35H28.3333C29.7141 35 30.8333 36.1193 30.8333 37.5C30.8333 38.8808 29.7141 40 28.3333 40Z" fill="#7CCCDB"/>
<path d="M23.332 36.6666H21.6654C21.2052 36.6666 20.832 37.0398 20.832 37.5C20.832 37.9602 21.2052 38.3333 21.6654 38.3333H23.332C23.7922 38.3333 24.1654 37.9602 24.1654 37.5C24.1654 37.0398 23.7922 36.6666 23.332 36.6666Z" fill="#7CCCDB"/>
<path d="M28.332 36.6666H26.6654C26.2052 36.6666 25.832 37.0398 25.832 37.5C25.832 37.9602 26.2052 38.3333 26.6654 38.3333H28.332C28.7922 38.3333 29.1654 37.9602 29.1654 37.5C29.1654 37.0398 28.7922 36.6666 28.332 36.6666Z" fill="#7CCCDB"/>
</svg>
