<svg width="50" height="50" viewBox="0 0 50 50" fill="none" xmlns="http://www.w3.org/2000/svg">
<path d="M44.5312 4.6875H39.8438V3.90625C39.8438 3.28465 39.5968 2.68851 39.1573 2.24897C38.7177 1.80943 38.1216 1.5625 37.5 1.5625C36.8784 1.5625 36.2823 1.80943 35.8427 2.24897C35.4032 2.68851 35.1562 3.28465 35.1562 3.90625V4.6875H27.3438V3.90625C27.3438 3.28465 27.0968 2.68851 26.6573 2.24897C26.2177 1.80943 25.6216 1.5625 25 1.5625C24.3784 1.5625 23.7823 1.80943 23.3427 2.24897C22.9032 2.68851 22.6562 3.28465 22.6562 3.90625V4.6875H14.8438V3.90625C14.8438 3.28465 14.5968 2.68851 14.1573 2.24897C13.7177 1.80943 13.1216 1.5625 12.5 1.5625C11.8784 1.5625 11.2823 1.80943 10.8427 2.24897C10.4032 2.68851 10.1562 3.28465 10.1562 3.90625V4.6875H5.46875C4.43311 4.68866 3.44021 5.10059 2.7079 5.8329C1.97559 6.56521 1.56366 7.5581 1.5625 8.59375V44.5312C1.56366 45.5669 1.97559 46.5598 2.7079 47.2921C3.44021 48.0244 4.43311 48.4363 5.46875 48.4375H44.5312C45.5669 48.4363 46.5598 48.0244 47.2921 47.2921C48.0244 46.5598 48.4363 45.5669 48.4375 44.5312V8.59375C48.4363 7.5581 48.0244 6.56521 47.2921 5.8329C46.5598 5.10059 45.5669 4.68866 44.5312 4.6875ZM36.7188 3.90625C36.7188 3.69905 36.8011 3.50034 36.9476 3.35382C37.0941 3.20731 37.2928 3.125 37.5 3.125C37.7072 3.125 37.9059 3.20731 38.0524 3.35382C38.1989 3.50034 38.2812 3.69905 38.2812 3.90625V8.59375C38.2812 8.80095 38.1989 8.99966 38.0524 9.14618C37.9059 9.29269 37.7072 9.375 37.5 9.375C37.2928 9.375 37.0941 9.29269 36.9476 9.14618C36.8011 8.99966 36.7188 8.80095 36.7188 8.59375V3.90625ZM24.2188 3.90625C24.2188 3.69905 24.3011 3.50034 24.4476 3.35382C24.5941 3.20731 24.7928 3.125 25 3.125C25.2072 3.125 25.4059 3.20731 25.5524 3.35382C25.6989 3.50034 25.7812 3.69905 25.7812 3.90625V8.59375C25.7812 8.80095 25.6989 8.99966 25.5524 9.14618C25.4059 9.29269 25.2072 9.375 25 9.375C24.7928 9.375 24.5941 9.29269 24.4476 9.14618C24.3011 8.99966 24.2188 8.80095 24.2188 8.59375V3.90625ZM11.7188 3.90625C11.7188 3.69905 11.8011 3.50034 11.9476 3.35382C12.0941 3.20731 12.2928 3.125 12.5 3.125C12.7072 3.125 12.9059 3.20731 13.0524 3.35382C13.1989 3.50034 13.2812 3.69905 13.2812 3.90625V8.59375C13.2812 8.80095 13.1989 8.99966 13.0524 9.14618C12.9059 9.29269 12.7072 9.375 12.5 9.375C12.2928 9.375 12.0941 9.29269 11.9476 9.14618C11.8011 8.99966 11.7188 8.80095 11.7188 8.59375V3.90625ZM5.46875 6.25H10.1562V8.59375C10.1562 9.21535 10.4032 9.81149 10.8427 10.251C11.2823 10.6906 11.8784 10.9375 12.5 10.9375C13.1216 10.9375 13.7177 10.6906 14.1573 10.251C14.5968 9.81149 14.8438 9.21535 14.8438 8.59375V6.25H22.6562V8.59375C22.6562 9.21535 22.9032 9.81149 23.3427 10.251C23.7823 10.6906 24.3784 10.9375 25 10.9375C25.6216 10.9375 26.2177 10.6906 26.6573 10.251C27.0968 9.81149 27.3438 9.21535 27.3438 8.59375V6.25H35.1562V8.59375C35.1562 9.21535 35.4032 9.81149 35.8427 10.251C36.2823 10.6906 36.8784 10.9375 37.5 10.9375C38.1216 10.9375 38.7177 10.6906 39.1573 10.251C39.5968 9.81149 39.8438 9.21535 39.8438 8.59375V6.25H44.5312C45.1526 6.25072 45.7483 6.49789 46.1877 6.93727C46.6271 7.37665 46.8743 7.97237 46.875 8.59375V14.0625H3.125V8.59375C3.12572 7.97237 3.37289 7.37665 3.81227 6.93727C4.25165 6.49789 4.84737 6.25072 5.46875 6.25ZM44.5312 46.875H5.46875C4.84737 46.8743 4.25165 46.6271 3.81227 46.1877C3.37289 45.7483 3.12572 45.1526 3.125 44.5312V15.625H46.875V44.5312C46.8743 45.1526 46.6271 45.7483 46.1877 46.1877C45.7483 46.6271 45.1526 46.8743 44.5312 46.875Z" fill="#2855AF"/>
<path d="M42.9688 21.0938H39.8438C39.6365 21.0938 39.4378 21.1761 39.2913 21.3226C39.1448 21.4691 39.0625 21.6678 39.0625 21.875V25C39.0625 25.2072 39.1448 25.4059 39.2913 25.5524C39.4378 25.6989 39.6365 25.7812 39.8438 25.7812H42.9688C43.176 25.7812 43.3747 25.6989 43.5212 25.5524C43.6677 25.4059 43.75 25.2072 43.75 25V21.875C43.75 21.6678 43.6677 21.4691 43.5212 21.3226C43.3747 21.1761 43.176 21.0938 42.9688 21.0938ZM42.1875 24.2188H40.625V22.6562H42.1875V24.2188Z" fill="#2855AF"/>
<path d="M27.3438 36.7188H24.2188C24.0115 36.7188 23.8128 36.8011 23.6663 36.9476C23.5198 37.0941 23.4375 37.2928 23.4375 37.5V40.625C23.4375 40.8322 23.5198 41.0309 23.6663 41.1774C23.8128 41.3239 24.0115 41.4062 24.2188 41.4062H27.3438C27.551 41.4062 27.7497 41.3239 27.8962 41.1774C28.0427 41.0309 28.125 40.8322 28.125 40.625V37.5C28.125 37.2928 28.0427 37.0941 27.8962 36.9476C27.7497 36.8011 27.551 36.7188 27.3438 36.7188ZM26.5625 39.8438H25V38.2812H26.5625V39.8438Z" fill="#2855AF"/>
<path d="M19.5312 21.0938H16.4062C16.199 21.0938 16.0003 21.1761 15.8538 21.3226C15.7073 21.4691 15.625 21.6678 15.625 21.875V25C15.625 25.2072 15.7073 25.4059 15.8538 25.5524C16.0003 25.6989 16.199 25.7812 16.4062 25.7812H19.5312C19.7385 25.7812 19.9372 25.6989 20.0837 25.5524C20.2302 25.4059 20.3125 25.2072 20.3125 25V21.875C20.3125 21.6678 20.2302 21.4691 20.0837 21.3226C19.9372 21.1761 19.7385 21.0938 19.5312 21.0938ZM18.75 24.2188H17.1875V22.6562H18.75V24.2188Z" fill="#2855AF"/>
<path d="M11.7188 28.9062H8.59375C8.38655 28.9062 8.18784 28.9886 8.04132 29.1351C7.89481 29.2816 7.8125 29.4803 7.8125 29.6875V32.8125C7.8125 33.0197 7.89481 33.2184 8.04132 33.3649C8.18784 33.5114 8.38655 33.5938 8.59375 33.5938H11.7188C11.926 33.5938 12.1247 33.5114 12.2712 33.3649C12.4177 33.2184 12.5 33.0197 12.5 32.8125V29.6875C12.5 29.4803 12.4177 29.2816 12.2712 29.1351C12.1247 28.9886 11.926 28.9062 11.7188 28.9062ZM10.9375 32.0312H9.375V30.4688H10.9375V32.0312Z" fill="#2855AF"/>
<path d="M19.5312 28.9062H16.4062C16.199 28.9062 16.0003 28.9886 15.8538 29.1351C15.7073 29.2816 15.625 29.4803 15.625 29.6875V32.8125C15.625 33.0197 15.7073 33.2184 15.8538 33.3649C16.0003 33.5114 16.199 33.5938 16.4062 33.5938H19.5312C19.7385 33.5938 19.9372 33.5114 20.0837 33.3649C20.2302 33.2184 20.3125 33.0197 20.3125 32.8125V29.6875C20.3125 29.4803 20.2302 29.2816 20.0837 29.1351C19.9372 28.9886 19.7385 28.9062 19.5312 28.9062ZM18.75 32.0312H17.1875V30.4688H18.75V32.0312Z" fill="#2855AF"/>
<path d="M11.7188 36.7188H8.59375C8.38655 36.7188 8.18784 36.8011 8.04132 36.9476C7.89481 37.0941 7.8125 37.2928 7.8125 37.5V40.625C7.8125 40.8322 7.89481 41.0309 8.04132 41.1774C8.18784 41.3239 8.38655 41.4062 8.59375 41.4062H11.7188C11.926 41.4062 12.1247 41.3239 12.2712 41.1774C12.4177 41.0309 12.5 40.8322 12.5 40.625V37.5C12.5 37.2928 12.4177 37.0941 12.2712 36.9476C12.1247 36.8011 11.926 36.7188 11.7188 36.7188ZM10.9375 39.8438H9.375V38.2812H10.9375V39.8438Z" fill="#2855AF"/>
<path d="M19.5312 36.7188H16.4062C16.199 36.7188 16.0003 36.8011 15.8538 36.9476C15.7073 37.0941 15.625 37.2928 15.625 37.5V40.625C15.625 40.8322 15.7073 41.0309 15.8538 41.1774C16.0003 41.3239 16.199 41.4062 16.4062 41.4062H19.5312C19.7385 41.4062 19.9372 41.3239 20.0837 41.1774C20.2302 41.0309 20.3125 40.8322 20.3125 40.625V37.5C20.3125 37.2928 20.2302 37.0941 20.0837 36.9476C19.9372 36.8011 19.7385 36.7188 19.5312 36.7188ZM18.75 39.8438H17.1875V38.2812H18.75V39.8438Z" fill="#2855AF"/>
<path d="M36.0551 24.3147L32.1488 23.7178L30.3943 19.9804C30.3313 19.8461 30.2313 19.7325 30.1061 19.653C29.9808 19.5734 29.8355 19.5311 29.6871 19.5311C29.5387 19.5311 29.3934 19.5734 29.2682 19.653C29.1429 19.7325 29.0429 19.8461 28.9799 19.9804L27.2262 23.7178L23.3199 24.3147C23.1779 24.3363 23.0445 24.3967 22.9345 24.4893C22.8246 24.5818 22.7422 24.7028 22.6966 24.8391C22.651 24.9754 22.6439 25.1216 22.676 25.2617C22.7081 25.4018 22.7783 25.5303 22.8787 25.6331L25.7284 28.5537L25.0546 32.6871C25.0313 32.8316 25.049 32.9797 25.1058 33.1146C25.1626 33.2495 25.2562 33.3658 25.3758 33.4501C25.4954 33.5344 25.6363 33.5834 25.7825 33.5916C25.9286 33.5997 26.0741 33.5666 26.2024 33.4961L29.6871 31.5699L33.1719 33.4961C33.3002 33.567 33.4459 33.6004 33.5923 33.5924C33.7387 33.5845 33.8799 33.5354 33.9998 33.451C34.1196 33.3666 34.2133 33.2501 34.2701 33.1149C34.3269 32.9797 34.3445 32.8313 34.3209 32.6866L33.6471 28.5532L36.4968 25.6326C36.5972 25.5298 36.6674 25.4013 36.6995 25.2612C36.7316 25.1211 36.7245 24.9749 36.6789 24.8386C36.6333 24.7024 36.5509 24.5813 36.441 24.4888C36.331 24.3963 36.1976 24.3359 36.0556 24.3142L36.0551 24.3147ZM32.2529 27.7441C32.1675 27.8316 32.1039 27.938 32.0671 28.0546C32.0303 28.1712 32.0213 28.2948 32.041 28.4155L32.5195 31.3502L30.0649 29.9927C29.9492 29.9288 29.8191 29.8953 29.6869 29.8953C29.5547 29.8953 29.4247 29.9288 29.309 29.9927L26.8543 31.3502L27.3328 28.4155C27.3525 28.2948 27.3436 28.1712 27.3068 28.0546C27.27 27.938 27.2063 27.8316 27.1209 27.7441L25.0582 25.6297L27.8739 25.2C28.0007 25.1806 28.1208 25.1303 28.2236 25.0535C28.3263 24.9767 28.4086 24.8758 28.4631 24.7596L29.6871 22.1511L30.9112 24.7592C30.9657 24.8753 31.048 24.9762 31.1508 25.053C31.2535 25.1298 31.3736 25.1801 31.5004 25.1995L34.3161 25.6292L32.2529 27.7441Z" fill="#7CCCDB"/>
<path d="M42.9688 28.9062H39.8438C39.6365 28.9062 39.4378 28.9886 39.2913 29.1351C39.1448 29.2816 39.0625 29.4803 39.0625 29.6875V32.8125C39.0625 33.0197 39.1448 33.2184 39.2913 33.3649C39.4378 33.5114 39.6365 33.5938 39.8438 33.5938H42.9688C43.176 33.5938 43.3747 33.5114 43.5212 33.3649C43.6677 33.2184 43.75 33.0197 43.75 32.8125V29.6875C43.75 29.4803 43.6677 29.2816 43.5212 29.1351C43.3747 28.9886 43.176 28.9062 42.9688 28.9062ZM42.1875 32.0312H40.625V30.4688H42.1875V32.0312Z" fill="#2855AF"/>
<path d="M42.9688 36.7188H39.8438C39.6365 36.7188 39.4378 36.8011 39.2913 36.9476C39.1448 37.0941 39.0625 37.2928 39.0625 37.5V40.625C39.0625 40.8322 39.1448 41.0309 39.2913 41.1774C39.4378 41.3239 39.6365 41.4062 39.8438 41.4062H42.9688C43.176 41.4062 43.3747 41.3239 43.5212 41.1774C43.6677 41.0309 43.75 40.8322 43.75 40.625V37.5C43.75 37.2928 43.6677 37.0941 43.5212 36.9476C43.3747 36.8011 43.176 36.7188 42.9688 36.7188ZM42.1875 39.8438H40.625V38.2812H42.1875V39.8438Z" fill="#2855AF"/>
<path d="M35.1562 36.7188H32.0312C31.824 36.7188 31.6253 36.8011 31.4788 36.9476C31.3323 37.0941 31.25 37.2928 31.25 37.5V40.625C31.25 40.8322 31.3323 41.0309 31.4788 41.1774C31.6253 41.3239 31.824 41.4062 32.0312 41.4062H35.1562C35.3635 41.4062 35.5622 41.3239 35.7087 41.1774C35.8552 41.0309 35.9375 40.8322 35.9375 40.625V37.5C35.9375 37.2928 35.8552 37.0941 35.7087 36.9476C35.5622 36.8011 35.3635 36.7188 35.1562 36.7188ZM34.375 39.8438H32.8125V38.2812H34.375V39.8438Z" fill="#2855AF"/>
</svg>
