<svg width="50" height="50" viewBox="0 0 50 50" fill="none" xmlns="http://www.w3.org/2000/svg">
<path d="M25.6626 30.9772C25.4758 30.5835 25.0048 30.4155 24.6109 30.6025C23.9701 30.9066 23.2982 31.158 22.6141 31.3494C22.3278 31.4295 22.1109 31.6634 22.0527 31.9549L21.2176 36.1305C21.1352 36.5428 20.7701 36.8421 20.3496 36.8421H18.0714C17.6509 36.8421 17.2859 36.5429 17.2034 36.1305L16.3683 31.9549C16.31 31.6634 16.093 31.4295 15.8069 31.3494C14.8403 31.0789 13.9075 30.6924 13.0344 30.2006C12.7753 30.0547 12.4563 30.0667 12.209 30.2315L8.66543 32.5938C8.31563 32.8271 7.8459 32.7805 7.54844 32.4832L5.9375 30.8722C5.64014 30.5748 5.59375 30.1051 5.82686 29.7552L8.18916 26.2116C8.3541 25.9643 8.36611 25.6453 8.22012 25.3862C7.72822 24.513 7.3417 23.5801 7.07129 22.6137C6.99121 22.3274 6.75732 22.1105 6.46582 22.0523L2.29023 21.2172C1.87793 21.1348 1.57861 20.7697 1.57861 20.3492V18.071C1.57861 17.6505 1.87783 17.2855 2.29023 17.203L6.46582 16.3679C6.75732 16.3096 6.99121 16.0926 7.07129 15.8065C7.3418 14.8399 7.72832 13.9071 8.22012 13.034C8.36602 12.775 8.354 12.456 8.18916 12.2086L5.82705 8.66543C5.59385 8.31553 5.64033 7.8459 5.9377 7.54844L7.54863 5.9375C7.846 5.64014 8.31582 5.59375 8.66563 5.82686L12.2092 8.18916C12.4564 8.3541 12.7756 8.36602 13.0346 8.22012C13.9077 7.72832 14.8405 7.3418 15.8071 7.07129C16.0934 6.99121 16.3103 6.75732 16.3685 6.46582L17.2036 2.29023C17.286 1.87793 17.6511 1.57861 18.0716 1.57861H20.3498C20.7703 1.57861 21.1353 1.87783 21.2178 2.29023L22.0529 6.46582C22.1112 6.75732 22.3282 6.99121 22.6143 7.07129C23.5809 7.3418 24.5137 7.72832 25.3868 8.22012C25.6459 8.36602 25.9649 8.354 26.2122 8.18916L29.7558 5.82686C30.1056 5.59365 30.5752 5.64023 30.8728 5.9375L32.4837 7.54844C32.7811 7.8458 32.8274 8.31553 32.5943 8.66543L30.232 12.209C30.0671 12.4563 30.0551 12.7753 30.2011 13.0344C30.6929 13.9075 31.0794 14.8403 31.3499 15.8069C31.43 16.0932 31.6639 16.3101 31.9554 16.3683L36.131 17.2034C36.5433 17.2858 36.8426 17.6509 36.8426 18.0714V20.3496C36.8426 20.7701 36.5434 21.1351 36.131 21.2176L31.9554 22.0527C31.6639 22.111 31.43 22.328 31.3499 22.6143C31.1537 23.3154 30.8948 24.0032 30.5804 24.6586C30.3917 25.0517 30.5575 25.5232 30.9506 25.7118C31.3437 25.9006 31.8153 25.7347 32.0038 25.3416C32.2876 24.7501 32.5313 24.1352 32.7306 23.5079L36.4406 22.7659C37.588 22.5362 38.421 21.52 38.421 20.3495V18.0713C38.421 16.9008 37.588 15.8847 36.4401 15.655L32.7302 14.913C32.4868 14.147 32.1784 13.4022 31.8089 12.6895L33.9077 9.54111C34.5569 8.56719 34.4275 7.25957 33.5998 6.43184L31.9889 4.8209C31.161 3.99316 29.8534 3.86387 28.8796 4.51299L25.7313 6.61182C25.0185 6.24238 24.2737 5.93389 23.5077 5.69053L22.7657 1.98057C22.5363 0.833008 21.5201 0 20.3496 0H18.0714C16.9009 0 15.8848 0.833008 15.6551 1.98086L14.9131 5.69082C14.1471 5.93418 13.4023 6.24258 12.6896 6.61211L9.54141 4.51328C8.56758 3.86406 7.25986 3.99336 6.43213 4.82119L4.82119 6.43213C3.99355 7.25986 3.86406 8.56738 4.51328 9.54141L6.61211 12.6897C6.24268 13.4025 5.93418 14.1472 5.69082 14.9133L1.98076 15.6553C0.833008 15.8848 0 16.901 0 18.0715V20.3497C0 21.5202 0.833008 22.5363 1.98086 22.766L5.69082 23.508C5.93408 24.2739 6.24258 25.0187 6.61211 25.7315L4.51328 28.8799C3.86406 29.8538 3.99346 31.1614 4.82119 31.9892L6.43213 33.6001C7.25986 34.4278 8.56748 34.5571 9.54141 33.908L12.6897 31.8092C13.4025 32.1786 14.1472 32.4871 14.9133 32.7305L15.6553 36.4406C15.8848 37.5881 16.901 38.4212 18.0715 38.4212H20.3497C21.5202 38.4212 22.5363 37.5882 22.766 36.4403L23.508 32.7304C24.1163 32.5371 24.7134 32.3021 25.2881 32.0292C25.6819 31.8421 25.8497 31.3712 25.6626 30.9772Z" fill="#2855AF"/>
<path d="M26.0483 23.5971C26.1636 23.6562 26.2866 23.6843 26.4079 23.6843C26.6946 23.6843 26.9713 23.5275 27.111 23.2549C27.7478 22.0132 28.0844 20.6146 28.0844 19.2104C28.0844 14.3172 24.1034 10.3361 19.2101 10.3361C16.8821 10.3361 14.6823 11.2308 13.0157 12.8557C12.7035 13.16 12.6972 13.6599 13.0015 13.9721C13.3058 14.2842 13.8056 14.2907 14.1178 13.9863C15.4878 12.6508 17.2962 11.9151 19.2099 11.9151C23.2325 11.9151 26.5053 15.1878 26.5053 19.2105C26.5053 20.3818 26.2363 21.5002 25.706 22.5346C25.5071 22.9223 25.6604 23.398 26.0483 23.5971Z" fill="#2855AF"/>
<path d="M11.8201 15.8327C11.4077 15.6908 10.9587 15.91 10.8168 16.3223C10.4978 17.2499 10.3359 18.2217 10.3359 19.2107C10.3359 24.1041 14.317 28.085 19.2103 28.085C21.0922 28.085 22.8902 27.5034 24.4102 26.4027C24.7633 26.1469 24.8423 25.6533 24.5866 25.3002C24.331 24.947 23.8372 24.868 23.4841 25.1237C22.2353 26.0279 20.7574 26.5059 19.2102 26.5059C15.1874 26.5059 11.9147 23.2332 11.9147 19.2105C11.9147 18.3966 12.0476 17.5975 12.3097 16.8357C12.4515 16.4235 12.2323 15.9744 11.8201 15.8327Z" fill="#2855AF"/>
<path d="M48.4811 34.5036L46.1982 34.047C46.0592 33.6332 45.8917 33.2292 45.6976 32.8387L46.9892 30.9014C47.4871 30.1543 47.3879 29.1514 46.753 28.5167L45.6944 27.4581C45.0596 26.8233 44.0566 26.724 43.3097 27.2219L41.3724 28.5135C40.9818 28.3194 40.5778 28.1519 40.1641 28.0129L39.7075 25.73C39.5314 24.8497 38.752 24.2107 37.8543 24.2107H36.3571C35.4595 24.2107 34.68 24.8497 34.5039 25.73L34.0474 28.0129C33.6336 28.152 33.2296 28.3195 32.8391 28.5135L30.9018 27.2219C30.1547 26.7241 29.1518 26.8232 28.517 27.4581L27.4584 28.5167C26.8235 29.1515 26.7243 30.1544 27.2223 30.9014L28.5139 32.8387C28.2469 33.3756 28.0306 33.9379 27.8688 34.5162C27.7514 34.9361 27.9966 35.3716 28.4164 35.4892C28.8363 35.6067 29.2719 35.3616 29.3895 34.9416C29.5613 34.3272 29.807 33.7344 30.1195 33.1796C30.2654 32.9206 30.2534 32.6015 30.0886 32.3542L28.5361 30.0256C28.4542 29.9027 28.4705 29.7376 28.575 29.6332L29.6336 28.5746C29.7381 28.4702 29.9031 28.454 30.0261 28.5357L32.3547 30.0881C32.602 30.2531 32.921 30.265 33.1801 30.1191C33.735 29.8066 34.3276 29.5609 34.9421 29.389C35.2283 29.3089 35.4452 29.075 35.5034 28.7835L36.0521 26.0397C36.0811 25.8949 36.2094 25.7897 36.3571 25.7897H37.8543C38.002 25.7897 38.1303 25.8949 38.1593 26.0397L38.708 28.7837C38.7663 29.0752 38.9833 29.3091 39.2693 29.3892C39.8838 29.5611 40.4766 29.8068 41.0313 30.1193C41.2903 30.2652 41.6095 30.2532 41.8567 30.0883L44.1853 28.5359C44.3083 28.454 44.4733 28.4702 44.5778 28.5748L45.6364 29.6333C45.7408 29.7378 45.7571 29.9029 45.6753 30.0258L44.1228 32.3544C43.9579 32.6018 43.9459 32.9207 44.0919 33.1798C44.4044 33.7347 44.6501 34.3274 44.822 34.9418C44.902 35.2281 45.1359 35.445 45.4274 35.5032L48.1713 36.0519C48.3161 36.0808 48.4213 36.2091 48.4213 36.3569V37.8541C48.4213 38.0017 48.3161 38.13 48.1713 38.159L45.4272 38.7078C45.1357 38.7661 44.9019 38.9831 44.8218 39.2691C44.6499 39.8835 44.4042 40.4763 44.0917 41.0311C43.9458 41.2902 43.9578 41.6092 44.1227 41.8565L45.6751 44.1851C45.757 44.3081 45.7407 44.4731 45.6362 44.5776L44.5776 45.6362C44.4732 45.7407 44.3082 45.7569 44.1852 45.675L41.8565 44.1226C41.6093 43.9578 41.2901 43.9457 41.0311 44.0916C40.4763 44.4041 39.8836 44.6499 39.2691 44.8217C38.9829 44.9018 38.766 45.1357 38.7078 45.4272L38.1591 48.171C38.1302 48.3159 38.0019 48.421 37.8541 48.421H36.3569C36.2093 48.421 36.081 48.3159 36.052 48.171L35.5032 45.427C35.4449 45.1355 35.2279 44.9016 34.9419 44.8215C34.3274 44.6497 33.7347 44.404 33.1799 44.0915C32.9208 43.9456 32.6017 43.9576 32.3545 44.1224L30.0259 45.6749C29.9029 45.7568 29.7379 45.7406 29.6334 45.636L28.5748 44.5774C28.4704 44.4729 28.4541 44.3079 28.5359 44.1849L30.0884 41.8563C30.2533 41.6089 30.2653 41.29 30.1193 41.0309C29.8068 40.476 29.5611 39.8833 29.3893 39.2689C29.3092 38.9827 29.0753 38.7658 28.7838 38.7076L26.0399 38.1588C25.8951 38.1299 25.7899 38.0016 25.7899 37.8539V36.3567C25.7899 36.209 25.8951 36.0807 26.0399 36.0517L26.2079 36.0181C26.6355 35.9326 26.9128 35.5167 26.8271 35.0891C26.7416 34.6616 26.3262 34.3847 25.898 34.4699L25.7301 34.5035C24.8499 34.6796 24.2109 35.459 24.2109 36.3568V37.854C24.2109 38.7516 24.8499 39.5311 25.7303 39.7072L28.0132 40.1637C28.1522 40.5775 28.3197 40.9815 28.5138 41.372L27.2222 43.3093C26.7241 44.0564 26.8234 45.0593 27.4583 45.6941L28.5169 46.7527C29.1518 47.3875 30.1547 47.4868 30.9017 46.9888L32.839 45.6972C33.2295 45.8914 33.6335 46.0588 34.0473 46.1978L34.5038 48.4807C34.6801 49.3611 35.4595 50 36.3572 50H37.8544C38.752 50 39.5315 49.3611 39.7076 48.4807L40.1642 46.1978C40.5779 46.0587 40.9819 45.8913 41.3725 45.6971L43.3098 46.9887C44.0568 47.4867 45.0598 47.3874 45.6945 46.7526L46.7531 45.694C47.388 45.0591 47.4872 44.0562 46.9893 43.3092L45.6977 41.3719C45.8918 40.9814 46.0593 40.5774 46.1982 40.1636L48.4811 39.7071C49.3614 39.531 50.0004 38.7516 50.0004 37.8539V36.3567C50.0005 35.459 49.3615 34.6796 48.4811 34.5036Z" fill="#7CCCDB"/>
<path d="M37.1048 34.2631C38.672 34.2631 39.9469 35.538 39.9469 37.1052C39.9469 37.5413 40.3004 37.8947 40.7363 37.8947C41.1723 37.8947 41.5258 37.5412 41.5258 37.1052C41.5258 34.6674 39.5425 32.6841 37.1047 32.6841C34.6669 32.6841 32.6836 34.6674 32.6836 37.1052C32.6836 39.543 34.6669 41.5263 37.1047 41.5263C38.0921 41.5263 39.0261 41.2079 39.8058 40.6055C40.1508 40.3389 40.2144 39.8431 39.9479 39.498C39.6813 39.153 39.1854 39.0893 38.8403 39.3559C38.3396 39.7427 37.7394 39.9473 37.1047 39.9473C35.5375 39.9473 34.2626 38.6724 34.2626 37.1052C34.2627 35.538 35.5376 34.2631 37.1048 34.2631Z" fill="#7CCCDB"/>
<path d="M24.0221 19.2106C24.0221 16.5585 21.8643 14.4008 19.2122 14.4008C16.5601 14.4008 14.4023 16.5586 14.4023 19.2106C14.4023 21.8628 16.5601 24.0205 19.2122 24.0205C21.8644 24.0205 24.0221 21.8627 24.0221 19.2106ZM15.9812 19.2106C15.9812 17.4292 17.4308 15.9797 19.2122 15.9797C20.9937 15.9797 22.4432 17.4292 22.4432 19.2106C22.4432 20.9921 20.9938 22.4416 19.2122 22.4416C17.4306 22.4416 15.9812 20.9921 15.9812 19.2106Z" fill="#2855AF"/>
</svg>
