<svg width="50" height="50" viewBox="0 0 50 50" fill="none" xmlns="http://www.w3.org/2000/svg">
<path d="M18.0611 43.3252L18.0597 43.3479V43.3706C18.0597 44.9864 16.7961 46.25 15.1803 46.25C13.5644 46.25 12.3008 44.9864 12.3008 43.3706C12.3008 41.7547 13.5644 40.4911 15.1803 40.4911C16.8405 40.4911 18.1544 41.7862 18.0611 43.3252ZM39.0997 43.3252L39.0983 43.3479V43.3706C39.0983 44.9864 37.8347 46.25 36.2189 46.25C34.6031 46.25 33.3394 44.9864 33.3394 43.3706C33.3394 41.7547 34.6031 40.4911 36.2189 40.4911C37.9847 40.4911 39.194 41.7699 39.0997 43.3252Z" stroke="#7CCCDB" stroke-width="1.5"/>
<path d="M15.2737 12.8646L15.4514 13.3623H15.98H44.7579V24.2389C44.7579 25.9745 44.1478 26.914 43.6088 27.4231C43.3298 27.6866 43.0522 27.8509 42.8488 27.9481C42.7475 27.9965 42.666 28.0275 42.6143 28.0454C42.5885 28.0542 42.5704 28.0598 42.5611 28.0625C42.5588 28.0631 42.5571 28.0636 42.5559 28.064L42.5541 28.0645L42.5523 28.0648L42.5431 28.0673L18.9709 34.4689L9.79483 9.27977L9.61513 8.78648H9.09013H3.75V4.75H12.3756L15.2737 12.8646Z" stroke="#2855AF" stroke-width="1.5"/>
</svg>
