<svg width="50" height="50" viewBox="0 0 50 50" fill="none" xmlns="http://www.w3.org/2000/svg">
<path d="M44.0875 16.4647C43.7475 15.8263 43.0871 15.4297 42.3637 15.4297H36.8159C36.3527 12.8247 34.073 10.8398 31.337 10.8398C28.6009 10.8398 26.3212 12.8247 25.8581 15.4297H20.2374C20.6783 14.7551 20.9357 13.9502 20.9357 13.0859C20.9357 10.7166 19.0082 8.78906 16.6388 8.78906C14.2695 8.78906 12.3419 10.7166 12.3419 13.0859C12.3419 13.9502 12.5994 14.7551 13.0402 15.4297H8.45757C7.73423 15.4297 7.07378 15.8263 6.73374 16.4647C6.3938 17.1031 6.43325 17.8726 6.83686 18.4728L19.9419 37.9606V49.0234C19.9419 49.3527 20.1079 49.6599 20.3833 49.8402C20.5448 49.946 20.7312 50 20.9186 50C21.0508 50 21.1835 49.9731 21.3084 49.9188L30.2928 46.0063C30.6491 45.8512 30.8794 45.4996 30.8794 45.111V37.9605L43.9844 18.4727C44.388 17.8726 44.4276 17.1031 44.0875 16.4647ZM31.337 12.793C32.991 12.793 34.3878 13.9104 34.8151 15.4297H27.8589C28.2861 13.9104 29.6831 12.793 31.337 12.793ZM16.6389 10.7422C17.9312 10.7422 18.9827 11.7937 18.9827 13.0859C18.9827 14.3782 17.9312 15.4297 16.6389 15.4297C15.3466 15.4297 14.2952 14.3782 14.2952 13.0859C14.2952 11.7937 15.3466 10.7422 16.6389 10.7422ZM29.0924 37.1178C28.9841 37.2788 28.9262 37.4686 28.9262 37.6627V44.4712L21.895 47.533V38.6393H25.423C25.9624 38.6393 26.3996 38.202 26.3996 37.6627C26.3996 37.1233 25.9624 36.6861 25.423 36.6861H21.4385L11.6101 22.0703H31.337C31.8763 22.0703 32.3135 21.6331 32.3135 21.0938C32.3135 20.5544 31.8763 20.1172 31.337 20.1172H10.2967L8.45796 17.3828H42.3636L29.0924 37.1178Z" fill="#2855AF"/>
<path d="M28.7422 0C26.3729 0 24.4453 1.92754 24.4453 4.29688C24.4453 6.66621 26.3729 8.59375 28.7422 8.59375C31.1115 8.59375 33.0391 6.66621 33.0391 4.29688C33.0391 1.92754 31.1115 0 28.7422 0ZM28.7422 6.64062C27.4499 6.64062 26.3984 5.58916 26.3984 4.29688C26.3984 3.00459 27.4499 1.95312 28.7422 1.95312C30.0345 1.95312 31.0859 3.00459 31.0859 4.29688C31.0859 5.58916 30.0345 6.64062 28.7422 6.64062Z" fill="#7CCCDB"/>
<path d="M39.1797 4.71997C38.6403 4.71997 38.2031 5.15718 38.2031 5.69653V11.2467C38.2031 11.7862 38.6403 12.2234 39.1797 12.2234C39.719 12.2234 40.1562 11.7862 40.1562 11.2468V5.69653C40.1562 5.15718 39.719 4.71997 39.1797 4.71997Z" fill="#7CCCDB"/>
<path d="M39.8701 1.7998C39.6885 1.61816 39.4365 1.51367 39.1797 1.51367C38.9229 1.51367 38.6709 1.61816 38.4893 1.7998C38.3076 1.98145 38.2031 2.2334 38.2031 2.49023C38.2031 2.74707 38.3076 2.99902 38.4893 3.18066C38.6709 3.3623 38.9229 3.4668 39.1797 3.4668C39.4365 3.4668 39.6885 3.3623 39.8701 3.18066C40.0518 2.99902 40.1562 2.74707 40.1562 2.49023C40.1562 2.2334 40.0518 1.98145 39.8701 1.7998Z" fill="#7CCCDB"/>
<path d="M19.957 1.24573C19.4177 1.24573 18.9805 1.68293 18.9805 2.22229V6.22619C18.9805 6.76555 19.4177 7.20275 19.957 7.20275C20.4964 7.20275 20.9336 6.76555 20.9336 6.22619V2.22229C20.9336 1.68293 20.4964 1.24573 19.957 1.24573Z" fill="#7CCCDB"/>
<path d="M6.66016 0C6.1208 0 5.68359 0.437207 5.68359 0.976562V7.34062C5.68359 7.87998 6.1208 8.31719 6.66016 8.31719C7.19951 8.31719 7.63672 7.87998 7.63672 7.34062V0.976562C7.63672 0.437207 7.19951 0 6.66016 0Z" fill="#7CCCDB"/>
<path d="M7.35059 10.3126C7.16895 10.13 6.91699 10.0265 6.66016 10.0265C6.40332 10.0265 6.15137 10.13 5.96973 10.3126C5.78809 10.4943 5.68359 10.7452 5.68359 11.0031C5.68359 11.2599 5.78809 11.5118 5.96973 11.6935C6.15137 11.8751 6.40332 11.9796 6.66016 11.9796C6.91699 11.9796 7.16895 11.8751 7.35059 11.6935C7.53223 11.5118 7.63672 11.2599 7.63672 11.0031C7.63672 10.7452 7.53223 10.4943 7.35059 10.3126Z" fill="#7CCCDB"/>
<path d="M36.3701 20.4033C36.1885 20.2217 35.9365 20.1172 35.6797 20.1172C35.4219 20.1172 35.1699 20.2217 34.9893 20.4033C34.8066 20.585 34.7031 20.8369 34.7031 21.0938C34.7031 21.3506 34.8066 21.6025 34.9893 21.7842C35.1709 21.9658 35.4219 22.0703 35.6797 22.0703C35.9365 22.0703 36.1875 21.9658 36.3701 21.7842C36.5518 21.6025 36.6562 21.3506 36.6562 21.0938C36.6562 20.8369 36.5518 20.585 36.3701 20.4033Z" fill="#7CCCDB"/>
</svg>
