<svg width="50" height="50" viewBox="0 0 50 50" fill="none" xmlns="http://www.w3.org/2000/svg">
<g clip-path="url(#clip0)">
<path d="M14.812 21.6929L14.8102 21.7247C14.687 23.8824 15.8957 25.9038 17.8902 26.8729L17.9107 26.8829C18.6138 27.2192 19.1902 27.7738 19.5538 28.4633L19.562 28.4783C20.567 30.3919 22.6456 31.5519 24.8615 31.4356L24.8952 31.4337C25.6988 31.3887 26.4965 31.596 27.1765 32.0269C29.0529 33.2006 31.4347 33.2006 33.311 32.0269C33.991 31.596 34.7887 31.3887 35.5924 31.4337L35.626 31.4356C37.8383 31.5528 39.9196 30.3919 40.9269 28.4751L40.9319 28.4647C41.2969 27.7733 41.8746 27.2179 42.58 26.881L42.5964 26.8729C44.5909 25.9033 45.8 23.8824 45.6764 21.7243L45.6746 21.6943C45.6337 20.9343 45.8446 20.182 46.2755 19.5543C47.5159 17.7452 47.5159 15.3598 46.2759 13.5502C45.8455 12.923 45.6337 12.1711 45.6746 11.4111L45.6764 11.3793C45.8 9.22116 44.5909 7.20026 42.5946 6.23027L42.5764 6.22118C41.8746 5.88573 41.2996 5.33391 40.9355 4.64619L40.9251 4.62573C39.9196 2.71211 37.8383 1.55257 35.626 1.66848L35.5919 1.6703C34.7887 1.7153 33.991 1.50803 33.3115 1.07712H33.3106C31.4342 -0.0965078 29.0524 -0.0965078 27.176 1.07712C26.4961 1.50757 25.6983 1.71484 24.8947 1.66984L24.8611 1.66803C22.6483 1.55075 20.5675 2.71166 19.5625 4.62483L19.5547 4.63892C19.1906 5.32982 18.6138 5.88482 17.9097 6.22163L17.8907 6.23072C15.8961 7.19981 14.687 9.22116 14.8107 11.3793L14.8125 11.4093C14.8534 12.1693 14.6425 12.9216 14.2116 13.5489C12.9711 15.3584 12.9711 17.7443 14.2116 19.5534C14.642 20.1806 14.8534 20.9329 14.812 21.6929ZM15.7438 14.6061C16.4088 13.638 16.7348 12.477 16.6711 11.3043L16.6693 11.2725C16.6038 9.84252 17.4066 8.51435 18.7025 7.90662L18.7184 7.8989C19.7815 7.38981 20.652 6.55163 21.2011 5.50891L21.2102 5.49164C21.8779 4.21983 23.2765 3.44892 24.762 3.52801L24.7947 3.52938C25.9833 3.5962 27.1629 3.28983 28.1683 2.65257C29.4379 1.85848 31.0488 1.85848 32.3183 2.65257C33.3237 3.28893 34.5033 3.59574 35.6914 3.52983L35.7242 3.52801C37.2169 3.44983 38.6087 4.21983 39.2746 5.488L39.2869 5.51118C39.836 6.55254 40.7055 7.38935 41.7673 7.89799L41.7828 7.90571C43.0991 8.54571 43.8982 9.86707 43.8178 11.273L43.8159 11.3061C43.7523 12.4789 44.0787 13.6393 44.7437 14.6075C45.5473 15.7798 45.5468 17.3252 44.7428 18.497C44.0782 19.4656 43.7523 20.6265 43.8159 21.7993L43.8178 21.8306C43.8982 23.2365 43.0991 24.5583 41.7823 25.1988L41.7687 25.2052C40.7046 25.7151 39.8332 26.5542 39.2837 27.5988L39.2769 27.6124C38.6087 28.8842 37.2123 29.6556 35.7246 29.576L35.6924 29.5742C34.5037 29.5079 33.3237 29.8147 32.3178 30.4515C31.0488 31.2451 29.4379 31.2451 28.1688 30.4515C27.2542 29.8719 26.1933 29.5647 25.1106 29.5656C25.0056 29.5656 24.9002 29.5683 24.7947 29.5742L24.762 29.5756C23.2961 29.6688 21.9093 28.9015 21.2088 27.6101L21.1993 27.5924C20.6511 26.5515 19.782 25.7151 18.7206 25.2065L18.7034 25.1979C17.3866 24.5579 16.5875 23.2361 16.6684 21.8306L16.6702 21.7974C16.7334 20.6247 16.407 19.4638 15.7425 18.4961C14.9393 17.3238 14.9398 15.7784 15.7438 14.607V14.6061Z" fill="#7CCCDB"/>
<path d="M24.2351 26.1754C24.671 26.4477 25.2451 26.3145 25.5174 25.8786L36.545 8.21233C36.725 7.93006 36.74 7.57279 36.5836 7.27688C36.4273 6.98052 36.1237 6.79143 35.7891 6.78097C35.4546 6.77052 35.14 6.94052 34.9655 7.22643L23.9383 24.8927C23.666 25.3291 23.7987 25.9031 24.2351 26.1754Z" fill="#7CCCDB"/>
<path d="M25.2242 16.5975C27.491 16.5975 29.3355 14.4944 29.3355 11.9094C29.3355 9.32439 27.491 7.22168 25.2242 7.22168C22.9574 7.22168 21.1133 9.32439 21.1133 11.9094C21.1133 14.4944 22.9574 16.5975 25.2242 16.5975ZM25.2242 9.08349C26.4646 9.08349 27.4737 10.3512 27.4737 11.9094C27.4737 13.4675 26.4646 14.7357 25.2242 14.7357C23.9842 14.7357 22.9751 13.4671 22.9751 11.9094C22.9751 10.3517 23.9842 9.08349 25.2242 9.08349Z" fill="#7CCCDB"/>
<path d="M31.1484 21.195C31.1484 23.78 32.9925 25.8827 35.2593 25.8827C37.5261 25.8827 39.3706 23.7795 39.3706 21.195C39.3706 18.6109 37.5266 16.5073 35.2598 16.5073C32.9925 16.5073 31.1484 18.6096 31.1484 21.195ZM37.5088 21.195C37.5088 22.7532 36.4998 24.0209 35.2593 24.0209C34.0193 24.0209 33.0102 22.7532 33.0102 21.195C33.0102 19.6368 34.0193 18.3691 35.2593 18.3691C36.4998 18.3691 37.5088 19.6359 37.5088 21.195Z" fill="#7CCCDB"/>
<path d="M49.8792 36.6529C48.6464 34.4652 45.9128 33.6321 43.6697 34.7602L36.3774 38.2057C35.3706 36.3334 33.4393 35.1416 31.3138 35.0816L24.582 34.8961C23.5161 34.8657 22.4702 34.5952 21.5225 34.1061L20.8375 33.7512C17.3303 31.923 13.1498 31.9275 9.64621 33.763L9.68894 32.2112C9.70303 31.6971 9.29803 31.2689 8.78394 31.2548L1.40217 31.0516C0.888079 31.0375 0.460354 31.4425 0.446263 31.9566L0.000356817 48.156C-0.0137341 48.6701 0.391264 49.0983 0.905352 49.1124L8.28713 49.3156H8.31304C8.81712 49.3151 9.22939 48.9138 9.24349 48.4101L9.26439 47.6351L11.1821 46.6083C11.9348 46.2033 12.8153 46.107 13.6376 46.3397L25.0888 49.5538C25.1088 49.5597 25.1288 49.5642 25.1493 49.5688C25.977 49.7419 26.8207 49.8288 27.6666 49.8283C29.4575 49.8292 31.2274 49.4433 32.8552 48.696C32.8952 48.6779 32.9338 48.6569 32.9706 48.6333L49.5742 37.8929C49.9883 37.6257 50.1219 37.0816 49.8792 36.6529ZM1.88716 47.2765L2.28171 32.9389L7.80258 33.0907L7.40759 47.4288L1.88716 47.2765ZM32.0161 47.0324C29.9938 47.9451 27.7352 48.197 25.5616 47.7524L14.1407 44.5474C12.8557 44.1838 11.4794 44.3347 10.3035 44.967L9.32349 45.4915L9.58621 35.9584C12.6912 33.893 16.6739 33.6807 19.9812 35.4039L20.6661 35.7589C21.8634 36.377 23.1843 36.7184 24.5311 36.757L31.2629 36.9425C33.1538 36.9966 34.7597 38.3429 35.1433 40.1956L25.1161 39.9197C24.602 39.9057 24.1743 40.3106 24.1602 40.8247C24.1461 41.3388 24.5511 41.767 25.0652 41.7811L36.1311 42.0856H36.1574C36.6611 42.0852 37.0733 41.6838 37.0874 41.1802C37.0988 40.7756 37.0683 40.3706 36.9974 39.9725L44.4756 36.4384L44.4974 36.4279C45.5583 35.8907 46.8414 36.0702 47.7137 36.8779L32.0161 47.0324Z" fill="#2855AF"/>
</g>
<defs>
<clipPath id="clip0">
<rect width="50" height="50" fill="white"/>
</clipPath>
</defs>
</svg>
