<svg width="50" height="50" viewBox="0 0 50 50" fill="none" xmlns="http://www.w3.org/2000/svg">
<path d="M24.999 3.90735C24.4582 3.90735 24.0234 4.3429 24.0234 4.88293C24.0234 5.38557 24.4016 5.80383 24.9014 5.85344C25.48 5.91086 25.9746 5.46018 25.9746 4.88293C25.9746 4.34211 25.5391 3.90735 24.999 3.90735Z" fill="#2855AF"/>
<path d="M44.5312 5.85938C41.8389 5.85938 39.6484 3.66895 39.6484 0.976562C39.6484 0.437305 39.2111 0 38.6719 0H11.3281C10.7889 0 10.3516 0.437305 10.3516 0.976562C10.3516 3.66895 8.16113 5.85938 5.46875 5.85938C4.92949 5.85938 4.49219 6.29668 4.49219 6.83594V22.7725C4.49219 35.1921 12.5874 46.3208 24.7195 49.9589C24.811 49.9862 24.9055 50 25 50C25.0945 50 25.1892 49.9862 25.2806 49.9588C37.1499 46.3983 45.5078 35.4638 45.5078 22.7725V6.83594C45.5078 6.29668 45.0705 5.85938 44.5312 5.85938ZM43.5547 22.7725C43.5547 34.4373 36.1112 44.5393 25 48.0022C13.9773 44.5669 6.44531 34.3734 6.44531 22.7725V7.74297C9.43467 7.31348 11.8057 4.94248 12.2352 1.95312H37.7648C38.1943 4.94248 40.5653 7.31348 43.5547 7.74297V22.7725Z" fill="#2855AF"/>
<path d="M41.0168 9.03223C38.9803 8.14033 37.3675 6.52754 36.4756 4.49102C36.3199 4.13574 35.9689 3.90625 35.5811 3.90625H28.9043C28.365 3.90625 27.9277 4.34355 27.9277 4.88281C27.9277 5.42207 28.365 5.85938 28.9043 5.85938H34.9636C35.9953 7.879 37.6288 9.5124 39.6484 10.5442V22.7725C39.6484 32.3294 33.9112 40.5755 25 43.8764C16.0888 40.5754 10.3516 32.3294 10.3516 22.7725V10.5442C12.3712 9.5124 14.0046 7.879 15.0364 5.85938H21.0957C21.635 5.85938 22.0723 5.42207 22.0723 4.88281C22.0723 4.34355 21.635 3.90625 21.0957 3.90625H14.4189C14.0311 3.90625 13.6801 4.13584 13.5244 4.49102C12.6325 6.52754 11.0197 8.14033 8.9832 9.03223C8.62803 9.18789 8.39844 9.53897 8.39844 9.92676V22.7725C8.39844 33.2425 14.8741 42.3675 24.6742 45.8355C24.7796 45.8728 24.8897 45.8915 25 45.8915C25.1103 45.8915 25.2204 45.8728 25.3258 45.8355C35.1177 42.3704 41.6016 33.251 41.6016 22.7725V9.92676C41.6016 9.53887 41.372 9.18789 41.0168 9.03223Z" fill="#2855AF"/>
<path d="M25 14.2578C20.1537 14.2578 16.2109 18.2006 16.2109 23.0469C16.2109 27.8932 20.1537 31.8359 25 31.8359C29.8463 31.8359 33.7891 27.8932 33.7891 23.0469C33.7891 18.2006 29.8463 14.2578 25 14.2578ZM25 29.8828C21.2307 29.8828 18.1641 26.8162 18.1641 23.0469C18.1641 19.2775 21.2307 16.2109 25 16.2109C28.7693 16.2109 31.8359 19.2775 31.8359 23.0469C31.8359 26.8162 28.7693 29.8828 25 29.8828Z" fill="#7CCCDB"/>
<path d="M29.5969 20.4031C29.2154 20.0219 28.5972 20.0219 28.2157 20.4031L24.0235 24.5954L22.7609 23.3329C22.3795 22.9517 21.7613 22.9517 21.3798 23.3329C20.9984 23.7143 20.9984 24.3326 21.3798 24.7141L23.3329 26.6672C23.5237 26.8577 23.7735 26.9531 24.0235 26.9531C24.2735 26.9531 24.5233 26.8577 24.714 26.6671L29.5969 21.7843C29.9782 21.4029 29.9782 20.7846 29.5969 20.4031Z" fill="#7CCCDB"/>
</svg>
