<svg width="50" height="50" viewBox="0 0 50 50" fill="none" xmlns="http://www.w3.org/2000/svg">
<path d="M29.6406 19.3281C29.1662 19.3281 28.7812 19.7131 28.7812 20.1875C28.7812 20.6619 29.1662 21.0469 29.6406 21.0469C30.115 21.0469 30.5 20.6619 30.5 20.1875C30.5 19.7131 30.115 19.3281 29.6406 19.3281Z" fill="#7CCCDB"/>
<path d="M45.9929 41.1321L34.522 29.6612C36.3907 26.8464 37.375 23.5868 37.375 20.1875C37.375 10.7103 29.6647 3 20.1875 3C10.7103 3 3 10.7103 3 20.1875C3 29.6647 10.7103 37.375 20.1875 37.375C23.5868 37.375 26.8465 36.3906 29.6612 34.522L32.8318 37.6927C32.8323 37.6931 32.8327 37.6936 32.8332 37.6941L41.132 45.9929C41.7815 46.6423 42.6446 47 43.5625 47C44.4804 47 45.3435 46.6423 45.9926 45.9932C46.6422 45.3441 47 44.4809 47 43.5625C47 42.6441 46.6422 41.7809 45.9929 41.1321ZM29.257 32.7109C29.257 32.711 29.2569 32.711 29.2568 32.7111C26.6042 34.6378 23.4682 35.6562 20.1875 35.6562C11.658 35.6562 4.71875 28.717 4.71875 20.1875C4.71875 11.658 11.658 4.71875 20.1875 4.71875C28.717 4.71875 35.6562 11.658 35.6562 20.1875C35.6562 23.4682 34.6378 26.6042 32.711 29.2569C31.747 30.5849 30.585 31.747 29.257 32.7109ZM31.06 33.49C31.9494 32.7624 32.7625 31.9493 33.49 31.06L35.9282 33.4981C35.1867 34.3732 34.3732 35.1868 33.4981 35.9282L31.06 33.49ZM44.7776 44.7776C44.4527 45.1024 44.0212 45.2812 43.5625 45.2812C43.1038 45.2812 42.6723 45.1024 42.3474 44.7776L34.7166 37.1468C35.5869 36.3999 36.3999 35.587 37.1467 34.7167L44.7777 42.3478C45.1024 42.6721 45.2812 43.1034 45.2812 43.5625C45.2812 44.0216 45.1024 44.4529 44.7776 44.7776Z" fill="#2855AF"/>
<path d="M20.1875 6.4375C12.6057 6.4375 6.4375 12.6057 6.4375 20.1875C6.4375 27.7693 12.6057 33.9375 20.1875 33.9375C27.7693 33.9375 33.9375 27.7693 33.9375 20.1875C33.9375 12.6057 27.7693 6.4375 20.1875 6.4375ZM20.1875 32.2188C13.5535 32.2188 8.15625 26.8215 8.15625 20.1875C8.15625 13.5535 13.5535 8.15625 20.1875 8.15625C26.8215 8.15625 32.2188 13.5535 32.2188 20.1875C32.2188 26.8215 26.8215 32.2188 20.1875 32.2188Z" fill="#7CCCDB"/>
<path d="M29.8181 16.4985C29.0781 14.5724 27.7896 12.9257 26.0918 11.7364C24.3537 10.5187 22.312 9.875 20.1875 9.875C19.713 9.875 19.3281 10.2598 19.3281 10.7344C19.3281 11.2089 19.713 11.5937 20.1875 11.5937C23.7194 11.5937 26.9449 13.8125 28.2137 17.115C28.345 17.4567 28.6707 17.6663 29.0161 17.6663C29.1186 17.6663 29.2228 17.6479 29.3241 17.6089C29.7671 17.4387 29.9883 16.9416 29.8181 16.4985Z" fill="#7CCCDB"/>
</svg>
