<svg width="50" height="50" viewBox="0 0 50 50" fill="none" xmlns="http://www.w3.org/2000/svg">
<path d="M26.6654 39.1667C26.6654 40.0871 25.9191 40.8333 24.9987 40.8333C24.0783 40.8333 23.332 40.0871 23.332 39.1667C23.332 38.2463 24.0783 37.5 24.9987 37.5C25.9191 37.5 26.6654 38.2463 26.6654 39.1667Z" fill="#2855AF"/>
<path d="M44.1654 8.33337H37.4987V10H44.1654C44.6256 10.0004 44.9983 10.3732 44.9987 10.8334V34.1667H4.9987V10.8334C4.9991 10.3732 5.37183 10.0004 5.83203 10H12.4987V8.33337H5.83203C4.45182 8.335 3.33366 9.45317 3.33203 10.8334V41.6667C3.33366 43.0469 4.45182 44.1651 5.83203 44.1667H20.832V48.3334H17.4987V50H32.4987V48.3334H29.1654V44.1667H44.1654C45.5456 44.1651 46.6637 43.0469 46.6654 41.6667V10.8334C46.6637 9.45317 45.5456 8.335 44.1654 8.33337ZM27.4987 48.3334H22.4987V44.1667H27.4987V48.3334ZM44.9987 41.6667C44.9983 42.1269 44.6256 42.4996 44.1654 42.5H5.83203C5.37183 42.4996 4.9991 42.1269 4.9987 41.6667V35.8334H44.9987V41.6667Z" fill="#2855AF"/>
<path d="M16.668 0C15.2878 0.0016276 14.1696 1.11979 14.168 2.5V30C14.1696 31.3802 15.2878 32.4984 16.668 32.5H33.3346C34.7148 32.4984 35.833 31.3802 35.8346 30V2.5C35.833 1.11979 34.7148 0.0016276 33.3346 0H16.668ZM34.168 30C34.1676 30.4602 33.7948 30.8329 33.3346 30.8333H16.668C16.2078 30.8329 15.835 30.4602 15.8346 30V24.1667H34.168V30ZM34.168 2.5V22.5H15.8346V2.5C15.835 2.03979 16.2078 1.66707 16.668 1.66667H33.3346C33.7948 1.66707 34.1676 2.03979 34.168 2.5Z" fill="#7CCCDB"/>
<path d="M26.6654 27.5C26.6654 28.4205 25.9191 29.1667 24.9987 29.1667C24.0783 29.1667 23.332 28.4205 23.332 27.5C23.332 26.5796 24.0783 25.8334 24.9987 25.8334C25.9191 25.8334 26.6654 26.5796 26.6654 27.5Z" fill="#7CCCDB"/>
<path d="M23.332 3.33337H26.6654V5.00004H23.332V3.33337Z" fill="#7CCCDB"/>
</svg>
