<svg width="103" height="50" viewBox="0 0 103 50" fill="none" xmlns="http://www.w3.org/2000/svg">
<path d="M52.5728 41.2939L52.5724 41.2938C50.909 41.1829 48.98 40.8914 47.4379 40.4448L47.4377 40.4448C47.1276 40.3549 45.9467 39.9211 45.6195 39.771L45.617 39.7698C40.2194 37.2695 36.4543 31.8095 36.4543 25.4699C36.4543 16.7787 43.5239 9.70038 52.2211 9.70038C60.5929 9.70038 67.4566 16.2626 67.9563 24.5112H71.8867C71.3828 14.0993 62.7566 5.78203 52.2211 5.78203C41.3665 5.78203 32.5306 14.613 32.5306 25.4699C32.5306 32.9507 36.7366 39.4613 42.9025 42.7897C44.0085 43.3743 45.6161 43.985 46.1425 44.1467C47.9026 44.6703 50.0849 45.0238 52.0371 45.1719C52.6813 45.2201 55.0089 45.2472 55.71 45.2499H92.3173V41.3463H55.7714C55.2847 41.3463 53.0885 41.328 52.5728 41.2939ZM52.8696 32.7628L52.869 32.7628C52.2275 32.7083 51.2416 32.6088 50.5815 32.4577L50.5681 32.4547L50.5549 32.4511C49.8527 32.2631 49.1502 32.0046 48.7856 31.805C46.5396 30.5895 45.0057 28.2113 45.0057 25.4699C45.0057 21.4845 48.2334 18.2518 52.2211 18.2518C55.8802 18.2518 58.8959 20.9784 59.3668 24.5112H63.1001C62.6167 18.9257 57.934 14.5407 52.2211 14.5407C46.1831 14.5407 41.2893 19.4336 41.2893 25.4699C41.2893 29.7242 43.7269 33.4008 47.2835 35.2029L47.3039 35.2133L47.3236 35.2248C47.8191 35.5151 48.8398 35.8528 49.1301 35.9285L49.1318 35.9289C50.1429 36.1949 51.533 36.3827 52.677 36.4665L52.6847 36.4671C53.0789 36.5001 55.1504 36.5165 55.6207 36.5194L56.3663 36.5238V36.5274H92.316V32.8109H55.7714C55.3966 32.8109 53.2908 32.7983 52.8696 32.7628ZM22.9765 9.71242H23.7265V10.4624V45.2299H27.6876V5.74994H15.746V9.71242H22.9765ZM15.746 18.4442V45.2299H19.4932V13.9417H9.75V17.6942H14.996H15.746V18.4442Z" stroke="#2855AF" stroke-width="1.5"/>
</svg>
