<svg width="478" height="459" viewBox="0 0 478 459" fill="none" xmlns="http://www.w3.org/2000/svg">
<path d="M10.0818 364.142C13.2378 363.911 19.3604 360.492 19.3709 360.492C19.3815 360.492 15.8888 357.125 15.6363 356.936C12.7644 354.832 5.96846 352.36 2.70726 354.685C2.17553 355.085 1.73418 355.593 1.41199 356.175C1.08981 356.757 0.894038 357.401 0.837454 358.064C0.78087 358.727 0.864744 359.395 1.0836 360.024C1.30247 360.652 1.65139 361.227 2.10762 361.712C3.96966 363.847 7.42022 364.331 10.0818 364.142Z" fill="#2855AF"/>
<path d="M21.7263 381.027C24.5667 380.028 29.2692 375.494 29.6374 375.125C32.2258 377.825 34.9917 380.348 37.9166 382.679C39.6103 384.036 41.3566 385.361 43.1766 386.666C42.2719 386.192 41.4724 385.772 41.3566 385.729C38.0218 384.425 30.8366 383.867 28.2803 386.971C27.8631 387.496 27.5623 388.104 27.3978 388.755C27.2334 389.405 27.2091 390.083 27.3264 390.743C27.4438 391.404 27.7002 392.032 28.0787 392.586C28.4571 393.14 28.949 393.607 29.5216 393.956C31.8781 395.524 35.3392 395.082 37.8535 394.188C40.3678 393.293 44.5021 389.506 45.5752 388.486C46.259 388.98 46.9322 389.485 47.616 389.969C50.9088 392.326 54.2121 394.661 57.3786 397.049C58.4937 397.891 59.5562 398.764 60.6293 399.626C59.8298 399.206 59.1565 398.858 59.0513 398.816C55.7164 397.512 48.5313 396.954 45.9749 400.058C45.5685 400.585 45.2776 401.193 45.1214 401.84C44.9651 402.488 44.9469 403.161 45.068 403.816C45.1891 404.471 45.4467 405.093 45.8241 405.641C46.2014 406.19 46.6901 406.653 47.2584 407.001C49.6148 408.558 53.0759 408.116 55.5902 407.232C58.1045 406.349 61.8391 402.909 63.112 401.709C64.164 402.625 65.216 403.54 66.268 404.487C66.9308 405.139 67.6146 405.728 68.2458 406.422L70.1499 408.442C71.3071 409.757 72.5169 411.114 73.611 412.44C74.3894 413.355 75.1048 414.228 75.8307 415.122C74.7787 414.27 72.5379 412.65 72.3486 412.534C69.1926 410.746 62.2178 409.094 59.2406 411.788C58.7586 412.246 58.3786 412.801 58.1254 413.417C57.8723 414.032 57.7518 414.694 57.7716 415.359C57.7915 416.024 57.9513 416.677 58.2407 417.276C58.53 417.875 58.9425 418.407 59.451 418.836C61.555 420.73 65.0372 420.824 67.6566 420.33C70.5496 419.772 75.6939 416.174 76.3356 415.722C77.5244 417.195 78.6816 418.647 79.7441 420.025C82.6161 423.728 85.0041 427.02 86.8451 429.682L89.2016 428.441C87.2449 425.748 84.699 422.36 81.6062 418.552C80.3964 417.048 79.0708 415.47 77.7032 413.86C79.0129 412.325 80.2285 410.713 81.3432 409.031C84.1941 410.083 90.0537 409.883 90.8112 409.862C91.0005 411.756 91.1583 413.586 91.2846 415.333C91.6212 419.867 91.7895 423.843 91.8842 427.031L94.4406 425.674C94.2828 422.686 94.0408 419.13 93.6516 415.154C93.4727 413.229 93.2413 411.188 92.9783 409.084C93.7147 408.873 99.7637 407.106 101.994 405.191C104.035 403.456 106.139 400.678 105.97 397.827C105.953 397.162 105.795 396.507 105.508 395.907C105.221 395.306 104.81 394.772 104.303 394.341C103.796 393.909 103.204 393.589 102.565 393.401C101.926 393.214 101.255 393.162 100.595 393.251C96.6498 393.893 93.5253 400.405 92.9888 403.94C92.9888 404.15 92.8626 406.454 92.831 407.906C92.7258 407.054 92.6206 406.222 92.5049 405.339C92.2629 403.592 91.9789 401.857 91.6843 399.995C91.509 399.104 91.3301 398.199 91.1478 397.28C90.99 396.365 90.706 395.429 90.485 394.493C89.938 392.326 89.2647 390.169 88.5494 388.002C90.0748 387.802 95.482 386.95 97.7649 385.572C100.048 384.194 102.541 381.732 102.804 378.923C102.887 378.262 102.83 377.592 102.637 376.954C102.444 376.317 102.119 375.728 101.683 375.224C101.248 374.72 100.712 374.313 100.109 374.03C99.5067 373.747 98.8514 373.593 98.1857 373.579C94.1881 373.579 90.1168 379.586 89.0438 383.047C88.9807 383.268 88.4862 385.803 88.2443 387.202C87.8024 385.898 87.3711 384.604 86.8767 383.31C85.467 379.565 83.91 375.82 82.3846 372.075L81.0065 368.634C81.5536 368.561 88.0023 367.73 90.5587 366.152C92.831 364.742 95.3348 362.312 95.5872 359.503C95.686 358.837 95.6416 358.157 95.4572 357.509C95.2727 356.861 94.9524 356.26 94.5174 355.745C94.0825 355.23 93.543 354.814 92.9348 354.525C92.3266 354.235 91.6636 354.078 90.99 354.064C86.9819 354.064 82.9106 360.071 81.8481 363.48C81.764 363.743 81.0696 367.393 80.9329 368.329C79.8809 365.805 78.9446 363.269 78.082 360.744C76.9017 357.331 75.9424 353.845 75.21 350.309C75.4625 350.309 82.2058 349.435 84.8253 347.815C87.0871 346.406 89.5908 343.976 89.8538 341.167C89.9381 340.507 89.8825 339.836 89.6908 339.199C89.499 338.562 89.1753 337.972 88.7408 337.468C88.3062 336.964 87.7705 336.557 87.1685 336.274C86.5664 335.99 85.9114 335.836 85.2461 335.823C81.238 335.823 77.1667 341.83 76.1042 345.238C76.02 345.512 75.2626 349.446 75.1784 350.161C75.1784 349.951 75.0732 349.751 75.0312 349.541C74.3944 345.971 74.074 342.352 74.0738 338.726C74.0738 336.727 74.137 334.813 74.2632 332.951C75.5361 332.951 81.3432 332.74 83.868 331.541C86.3928 330.342 89.0228 328.248 89.6014 325.481C89.7558 324.834 89.7728 324.162 89.6512 323.508C89.5295 322.854 89.272 322.233 88.8952 321.684C88.5185 321.136 88.0309 320.673 87.4639 320.325C86.8969 319.977 86.2632 319.752 85.6038 319.664C81.6167 319.264 76.9142 324.745 75.473 328.027C75.3994 328.206 74.7997 330.131 74.421 331.488C74.4946 330.657 74.5472 329.784 74.6314 328.985C74.9365 325.965 75.4099 323.23 75.8412 320.8C76.0937 319.422 76.3567 318.191 76.6092 317.034C77.8505 316.35 82.7844 313.562 84.436 311.374C86.0877 309.186 87.5079 306.114 86.7294 303.358C86.5696 302.708 86.2743 302.1 85.8629 301.573C85.4515 301.046 84.9333 300.611 84.3422 300.298C83.7512 299.986 83.1006 299.801 82.4333 299.757C81.766 299.713 81.0969 299.811 80.47 300.044C76.7459 301.517 75.1048 308.555 75.3362 312.121C75.3362 312.437 76.2304 317.223 76.2936 317.181H76.3672C76.1042 318.286 75.8307 319.475 75.5572 320.79C75.0732 323.209 74.5052 325.944 74.1685 328.964C73.7286 332.211 73.4792 335.481 73.4216 338.758C73.3408 342.43 73.5872 346.102 74.158 349.73C74.158 349.73 74.158 349.814 74.158 349.856C73.632 348.804 72.054 345.922 71.9067 345.722C69.8027 342.797 64.1535 338.358 60.3347 339.547C59.706 339.763 59.1298 340.109 58.6435 340.563C58.1571 341.016 57.7715 341.567 57.5116 342.179C57.2517 342.791 57.1234 343.45 57.1349 344.115C57.1464 344.78 57.2976 345.435 57.5785 346.038C58.6831 348.636 61.7865 350.182 64.406 350.835C67.3305 351.561 73.7477 350.372 74.2632 350.277C74.9303 353.953 75.8441 357.58 76.9984 361.134C77.6612 363.238 78.387 365.279 79.1024 367.341C78.6185 366.446 78.1766 365.657 78.103 365.552C75.999 362.628 70.3498 358.188 66.531 359.377C65.9023 359.593 65.3261 359.939 64.8397 360.393C64.3534 360.846 63.9678 361.397 63.7079 362.009C63.448 362.621 63.3197 363.281 63.3312 363.945C63.3427 364.61 63.4938 365.265 63.7748 365.868C64.8794 368.477 67.9828 370.013 70.5917 370.665C73.2007 371.317 78.7237 370.423 80.1754 370.16C80.4805 370.949 80.7646 371.738 81.0696 372.527C82.5109 376.314 83.9732 380.08 85.2776 383.815C85.7405 385.13 86.1508 386.445 86.5716 387.76C86.1403 386.971 85.7616 386.308 85.6984 386.213C83.5944 383.289 77.9347 378.849 74.1264 380.038C73.4968 380.253 72.9195 380.599 72.432 381.052C71.9445 381.505 71.5577 382.055 71.2968 382.667C71.0359 383.279 70.9067 383.939 70.9175 384.605C70.9283 385.27 71.079 385.926 71.3597 386.529C72.4748 389.127 75.5677 390.674 78.1872 391.326C80.8066 391.978 85.7826 391.158 87.5079 390.863C87.8971 392.22 88.2864 393.577 88.5599 394.913C88.7492 395.829 89.0017 396.702 89.149 397.628C89.2963 398.553 89.4646 399.458 89.6224 400.352C89.8538 402.099 90.1168 403.898 90.3062 405.612C90.443 406.801 90.5587 407.937 90.6744 409.073C90.222 407.758 89.2963 405.202 89.1911 404.992C87.6952 402.235 85.5232 399.904 82.8791 398.217C82.7232 397.903 82.5402 397.604 82.332 397.323C81.9501 396.777 81.4578 396.319 80.8869 395.976C80.3161 395.634 79.6796 395.415 79.0188 395.335C78.358 395.254 77.6877 395.314 77.0514 395.51C76.4152 395.705 75.8272 396.033 75.3257 396.47C72.3801 399.185 73.3795 406.338 74.8734 409.589C74.968 409.778 76.1568 411.745 76.9774 412.976C76.4093 412.324 75.9254 411.682 75.2836 411.02C74.1264 409.694 72.9272 408.4 71.6542 407.011L69.708 405.034C69.0768 404.371 68.3194 403.74 67.604 403.077C65.9524 401.583 64.2061 400.142 62.4177 398.743C63.5749 397.691 67.6777 394.061 68.7297 391.621C69.7817 389.18 70.5917 385.793 69.2557 383.299C68.9678 382.698 68.5559 382.164 68.0472 381.732C67.5384 381.301 66.9443 380.982 66.3036 380.796C65.6629 380.61 64.9902 380.562 64.3296 380.654C63.669 380.747 63.0354 380.978 62.4703 381.332C59.146 383.573 59.0408 390.8 60.0296 394.24C60.0928 394.451 61.0816 396.839 61.6497 398.133C60.5977 397.301 59.5457 396.46 58.3675 395.65C55.1273 393.304 51.7609 391.032 48.4261 388.759L45.3753 386.655C45.7961 386.298 50.7089 382.047 51.9713 379.291C53.0864 376.861 53.8334 373.463 52.4973 370.97C52.2023 370.38 51.787 369.858 51.2782 369.439C50.7694 369.019 50.1784 368.711 49.5432 368.533C48.9079 368.356 48.2426 368.314 47.59 368.409C46.9374 368.504 46.3119 368.735 45.754 369.087C42.4297 371.317 42.3245 378.555 43.3239 381.984C43.3975 382.237 44.8282 385.677 45.228 386.529C42.9978 384.972 40.7886 383.373 38.6635 381.774C35.7922 379.582 33.0654 377.206 30.5 374.662C30.6894 374.494 35.8547 370.076 37.1381 367.298C38.2532 364.879 39.0107 361.47 37.6746 358.977C37.3798 358.38 36.9626 357.852 36.4503 357.427C35.938 357.002 35.342 356.69 34.7011 356.51C34.0601 356.331 33.3886 356.288 32.73 356.385C32.0715 356.482 31.4407 356.716 30.8787 357.073C27.5544 359.314 27.4492 366.541 28.4486 369.971C28.5222 370.244 30.0687 373.937 30.3948 374.578L29.9319 374.147C27.4275 371.525 25.1636 368.684 23.1676 365.657C22.0419 363.995 21.0636 362.354 20.1378 360.734C21.1898 360.008 25.9238 356.642 27.365 354.254C28.8063 351.866 29.8583 348.668 28.8063 346.048C28.5799 345.422 28.2243 344.85 27.7625 344.37C27.3006 343.891 26.743 343.513 26.1258 343.263C25.5086 343.013 24.8456 342.896 24.1801 342.919C23.5145 342.942 22.8613 343.105 22.2628 343.397C18.7176 345.259 17.8234 352.434 18.4336 355.958C18.4336 356.147 19.0122 358.062 19.4856 359.44C19.0858 358.704 18.6545 357.946 18.2863 357.231C16.8766 354.548 15.751 351.971 14.7726 349.751C14.2361 348.457 13.7206 347.279 13.3419 346.174C13.9941 344.933 16.5715 339.862 16.7398 337.148C16.9082 334.434 16.298 331.015 14.194 329.174C13.7045 328.723 13.1256 328.38 12.4947 328.167C11.8639 327.954 11.1954 327.876 10.5326 327.939C9.86976 328.001 9.22753 328.203 8.64762 328.53C8.06771 328.857 7.56312 329.302 7.16664 329.837C4.87328 333.119 7.38756 339.894 9.55468 342.745C9.74404 342.997 13.1104 346.5 13.142 346.437V346.364C13.5312 347.416 13.9626 348.583 14.4465 349.825C15.3828 352.108 16.4558 354.685 17.8024 357.41C19.2352 360.363 20.8406 363.229 22.61 365.994C24.5669 369.099 26.7953 372.025 29.2692 374.736L29.3638 374.831C28.3118 374.242 25.4399 372.727 25.1558 372.622C21.821 371.317 14.6358 370.76 12.09 373.863C11.6833 374.389 11.3919 374.995 11.235 375.641C11.078 376.287 11.059 376.959 11.1791 377.613C11.2991 378.267 11.5557 378.889 11.932 379.437C12.3082 379.985 12.7958 380.448 13.3629 380.796C15.751 382.384 19.2015 381.921 21.7263 381.027Z" fill="#2855AF"/>
<path d="M73.7387 332.372C73.8123 332.372 72.6867 327.638 72.5815 327.343C71.3717 323.977 67.048 318.191 63.0399 318.328C62.3765 318.371 61.7297 318.554 61.1411 318.863C60.5526 319.172 60.0355 319.601 59.6231 320.123C59.2107 320.644 58.9122 321.246 58.747 321.89C58.5817 322.534 58.5533 323.206 58.6635 323.861C59.0528 326.67 61.6512 328.984 63.9867 330.289C66.7219 331.825 73.7282 332.372 73.7387 332.372Z" fill="#2855AF"/>
<path d="M87.0273 181.031L87.9005 181.61" stroke="#2855AF" stroke-miterlimit="10"/>
<path d="M89.668 182.756L250.866 287.567" stroke="#2855AF" stroke-miterlimit="10" stroke-dasharray="2 2"/>
<path d="M251.746 288.146L252.619 288.714L252.051 287.841" stroke="#2855AF" stroke-miterlimit="10"/>
<path d="M250.916 286.084L112.641 73.4746" stroke="#2855AF" stroke-miterlimit="10" stroke-dasharray="1.98 1.98"/>
<path d="M112.064 72.6014L111.496 71.7178" stroke="#2855AF" stroke-miterlimit="10"/>
<path d="M418.229 181.031L417.355 181.61" stroke="#2855AF" stroke-miterlimit="10"/>
<path d="M415.585 182.756L254.387 287.567" stroke="#2855AF" stroke-miterlimit="10" stroke-dasharray="2 2"/>
<path d="M253.505 288.146L252.621 288.714L253.2 287.841" stroke="#2855AF" stroke-miterlimit="10"/>
<path d="M254.336 286.084L392.611 73.4746" stroke="#2855AF" stroke-miterlimit="10" stroke-dasharray="1.98 1.98"/>
<path d="M393.18 72.6014L393.758 71.7178" stroke="#2855AF" stroke-miterlimit="10"/>
<path d="M252.621 39.085V40.137" stroke="#2855AF" stroke-miterlimit="10"/>
<path d="M252.621 42.251V286.61" stroke="#2855AF" stroke-miterlimit="10" stroke-dasharray="2.01 2.01"/>
<path d="M252.621 287.661V288.713" stroke="#2855AF" stroke-miterlimit="10"/>
<path d="M254.587 66.6785C272.453 66.6785 286.936 52.1953 286.936 34.3295C286.936 16.4636 272.453 1.98047 254.587 1.98047C236.721 1.98047 222.238 16.4636 222.238 34.3295C222.238 52.1953 236.721 66.6785 254.587 66.6785Z" fill="#2855AF" stroke="#2855AF" stroke-width="2" stroke-miterlimit="10"/>
<path d="M254.59 34.3293L281.816 16.8661C277.793 10.6036 271.738 5.91583 264.668 3.58984L254.59 34.3293Z" fill="#7CCCDB" stroke="#2855AF" stroke-miterlimit="10"/>
<path d="M254.59 34.3294L269.833 62.8491C273.766 60.741 277.22 57.8422 279.978 54.3348C282.736 50.8275 284.738 46.7876 285.86 42.4689C286.981 38.1503 287.197 33.6464 286.494 29.2403C285.791 24.8342 284.183 20.6212 281.774 16.8662L254.59 34.3294Z" fill="white" stroke="#2855AF" stroke-miterlimit="10"/>
<path d="M411.233 94.3794C423.862 81.7505 423.862 61.2749 411.233 48.6459C398.604 36.017 378.129 36.017 365.5 48.6459C352.871 61.2749 352.871 81.7505 365.5 94.3795C378.129 107.008 398.604 107.008 411.233 94.3794Z" stroke="#2855AF" stroke-miterlimit="10"/>
<path d="M388.36 99.553C403.844 99.553 416.396 87.001 416.396 71.5172C416.396 56.0335 403.844 43.4814 388.36 43.4814C372.876 43.4814 360.324 56.0335 360.324 71.5172C360.324 87.001 372.876 99.553 388.36 99.553Z" fill="#2855AF"/>
<path d="M404.488 71.5174L377.336 55.832V87.1922L404.488 71.5174Z" fill="white"/>
<path d="M467.524 184.871C471.866 166.745 460.691 148.532 442.566 144.19C424.44 139.849 406.226 151.023 401.885 169.149C397.543 187.275 408.717 205.488 426.843 209.83C444.969 214.172 463.183 202.997 467.524 184.871Z" fill="#2855AF"/>
<path d="M458.171 182.632C461.261 169.684 453.269 156.684 440.322 153.595C427.375 150.506 414.374 158.497 411.285 171.444C408.196 184.392 416.187 197.392 429.135 200.481C442.082 203.571 455.082 195.579 458.171 182.632Z" fill="white"/>
<path d="M448.755 180.346C450.601 172.573 445.797 164.776 438.024 162.93C430.251 161.084 422.454 165.888 420.608 173.661C418.762 181.433 423.567 189.231 431.339 191.077C439.112 192.923 446.909 188.118 448.755 180.346Z" fill="#2855AF"/>
<path d="M442.308 178.839C443.3 174.655 440.712 170.46 436.528 169.469C432.344 168.478 428.149 171.066 427.158 175.249C426.167 179.433 428.755 183.628 432.938 184.619C437.122 185.61 441.317 183.022 442.308 178.839Z" fill="white"/>
<path d="M477.706 160.833L473.414 159.16L475.286 158.245C475.395 158.195 475.492 158.125 475.573 158.037C475.654 157.949 475.716 157.847 475.757 157.734C475.797 157.622 475.815 157.503 475.809 157.384C475.802 157.265 475.772 157.149 475.721 157.042C475.669 156.934 475.596 156.839 475.507 156.76C475.417 156.681 475.313 156.621 475.2 156.583C475.087 156.545 474.968 156.53 474.849 156.539C474.73 156.548 474.614 156.581 474.508 156.635L473.151 157.298L475.308 152.627L467.302 156.204L466.134 160.696L434.311 176.192C434.205 176.243 434.111 176.315 434.033 176.404C433.955 176.492 433.895 176.595 433.857 176.706C433.819 176.818 433.803 176.935 433.81 177.053C433.818 177.171 433.849 177.285 433.901 177.391C433.95 177.498 434.021 177.593 434.108 177.672C434.195 177.75 434.297 177.811 434.408 177.849C434.519 177.887 434.636 177.903 434.754 177.895C434.871 177.886 434.985 177.855 435.09 177.801L467.018 162.253L470.5 164.22L477.706 160.833Z" fill="#2855AF"/>
<path d="M114.316 103.845C132.949 103.845 148.053 88.7405 148.053 70.1078C148.053 51.475 132.949 36.3701 114.316 36.3701C95.683 36.3701 80.5781 51.475 80.5781 70.1078C80.5781 88.7405 95.683 103.845 114.316 103.845Z" fill="white" stroke="#2855AF" stroke-width="2" stroke-miterlimit="10"/>
<path d="M114.313 103.845C127.827 103.845 138.783 88.7405 138.783 70.1078C138.783 51.475 127.827 36.3701 114.313 36.3701C100.799 36.3701 89.8438 51.475 89.8438 70.1078C89.8438 88.7405 100.799 103.845 114.313 103.845Z" fill="white" stroke="#2855AF" stroke-miterlimit="10"/>
<path d="M114.313 103.845C120.065 103.845 124.728 88.7405 124.728 70.1078C124.728 51.475 120.065 36.3701 114.313 36.3701C108.561 36.3701 103.898 51.475 103.898 70.1078C103.898 88.7405 108.561 103.845 114.313 103.845Z" fill="white" stroke="#2855AF" stroke-miterlimit="10"/>
<path d="M96.4414 41.6094H132.788" stroke="#2855AF" stroke-miterlimit="10"/>
<path d="M84.2188 54.833H144.362" stroke="#2855AF" stroke-miterlimit="10"/>
<path d="M80.7461 68.0459H147.99" stroke="#2855AF" stroke-miterlimit="10"/>
<path d="M82.2305 81.2695H146.013" stroke="#2855AF" stroke-miterlimit="10"/>
<path d="M91.3164 94.4824H137.909" stroke="#2855AF" stroke-miterlimit="10"/>
<path d="M70.1517 210.76C88.7845 210.76 103.889 195.656 103.889 177.023C103.889 158.39 88.7845 143.285 70.1517 143.285C51.5189 143.285 36.4141 158.39 36.4141 177.023C36.4141 195.656 51.5189 210.76 70.1517 210.76Z" fill="#2855AF" stroke="#2855AF" stroke-width="2" stroke-miterlimit="10"/>
<path d="M91.5267 161.074H46.7852V196.874H91.5267V161.074Z" fill="white" stroke="#2855AF" stroke-width="2" stroke-miterlimit="10"/>
<path d="M94.3265 161.074H43.9883V175.613H94.3265V161.074Z" fill="white" stroke="#2855AF" stroke-width="2" stroke-miterlimit="10"/>
<path d="M69.1116 160.717C69.1116 160.717 58.5916 148.398 56.7927 148.987C54.9938 149.576 50.3439 157.782 52.9844 158.666C55.625 159.549 69.1116 160.717 69.1116 160.717Z" fill="#7CCCDB"/>
<path d="M69.2031 160.717C69.2031 160.717 79.7231 148.398 81.522 148.987C83.321 149.576 87.9813 157.782 85.3408 158.666C82.7003 159.549 69.2031 160.717 69.2031 160.717Z" fill="#7CCCDB"/>
<path d="M72.3394 186.238L69.1729 180.736L65.8906 186.238V161.601H72.3394V186.238Z" fill="#7CCCDB"/>
<path d="M85.0898 269.967L252.505 175.739L424.023 269.967V406.569H87.1518L85.0898 269.967Z" fill="#2855AF" stroke="#2855AF" stroke-linecap="round" stroke-linejoin="round"/>
<path d="M379.869 201.155H129.262V424.032H379.869V201.155Z" fill="white" stroke="#2855AF" stroke-miterlimit="10"/>
<path d="M158.016 240.185H348.028" stroke="#2855AF" stroke-miterlimit="10"/>
<path d="M158.016 259.699H348.028" stroke="#2855AF" stroke-miterlimit="10"/>
<path d="M158.016 279.214H348.028" stroke="#2855AF" stroke-miterlimit="10"/>
<path d="M158.016 298.729H348.028" stroke="#2855AF" stroke-miterlimit="10"/>
<path d="M158.016 318.243H348.028" stroke="#2855AF" stroke-miterlimit="10"/>
<path d="M158.016 337.758H348.028" stroke="#2855AF" stroke-miterlimit="10"/>
<path d="M424.023 457.928H85.0898V269.967L254.567 385.003L424.023 269.967V457.928Z" fill="#7CCCDB" stroke="#2855AF" stroke-miterlimit="10"/>
<path d="M85.0898 457.928L208.321 353.559" stroke="#2855AF" stroke-miterlimit="10"/>
<path d="M423.488 457.928L301.172 353.391" stroke="#2855AF" stroke-miterlimit="10"/>
<path d="M291.222 139.025C291.222 139.025 289.949 144.979 291.653 146.894C293.357 148.809 299.733 155.615 299.733 156.678C299.733 157.74 297.629 188.374 297.629 188.374L287.845 181.358L281.891 199.652C281.891 199.652 296.776 206.037 303.804 207.31C310.831 208.583 312.094 206.669 312.094 201.146C312.094 195.623 306.56 153.28 306.56 153.28C306.56 153.28 308.264 143.496 308.264 141.792C308.264 140.088 308.906 139.235 307.412 138.383C305.918 137.531 293.799 136.279 293.799 136.279C293.799 136.279 291.222 137.321 291.222 139.025Z" fill="white" stroke="#2855AF" stroke-linecap="round" stroke-linejoin="round"/>
<path opacity="0.1" d="M288.063 183.936L284.834 200.326L281.867 199.652L288.063 183.936Z" fill="#2855AF" stroke="#2855AF" stroke-linecap="round" stroke-linejoin="round"/>
<path d="M311.914 143.801L287.812 140.561V134.554C287.812 134.275 287.923 134.007 288.121 133.81C288.318 133.613 288.585 133.502 288.865 133.502C289.144 133.502 289.411 133.613 289.608 133.81C289.806 134.007 289.917 134.275 289.917 134.554V138.762L310.062 141.476L310.409 136.616C310.387 136.46 310.4 136.302 310.448 136.152C310.495 136.003 310.575 135.865 310.682 135.751C310.789 135.636 310.92 135.546 311.067 135.489C311.213 135.432 311.37 135.408 311.526 135.419C311.683 135.43 311.835 135.476 311.971 135.554C312.108 135.632 312.225 135.739 312.315 135.868C312.404 135.997 312.464 136.144 312.489 136.299C312.515 136.454 312.505 136.612 312.461 136.763L311.914 143.801Z" fill="#2855AF"/>
<path d="M293.355 141.792L306.537 143.065L307.389 138.384L293.776 136.259L293.355 141.792Z" fill="white" stroke="#2855AF" stroke-linecap="round" stroke-linejoin="round"/>
<path d="M291.012 142.433C291.012 142.433 291.012 137.11 291.653 136.689C292.295 136.269 301.437 136.9 301.437 138.173C301.437 139.446 301.437 140.087 300.385 140.087C299.333 140.087 297.229 140.298 297.229 140.298C297.229 140.298 302.121 144.769 300.627 148.808" fill="white"/>
<path d="M291.012 142.433C291.012 142.433 291.012 137.11 291.653 136.689C292.295 136.269 301.437 136.9 301.437 138.173C301.437 139.446 301.437 140.087 300.385 140.087C299.333 140.087 297.229 140.298 297.229 140.298C297.229 140.298 302.121 144.769 300.627 148.808" stroke="#2855AF" stroke-linecap="round" stroke-linejoin="round"/>
<path d="M297.606 188.374L296.754 197.737" stroke="#2855AF" stroke-linecap="round" stroke-linejoin="round"/>
<path d="M189.576 184.293C189.576 184.293 159.51 207.753 160.288 210.288C161.067 212.823 183.369 234.147 190.744 239.376C198.118 244.604 202.189 246.95 202.189 246.95L206.839 249.854C206.839 249.854 204.904 253.01 206.071 253.546C207.239 254.083 211.5 256.26 212.078 255.093C212.657 253.925 215.771 245.204 215.382 243.068C214.992 240.933 203.736 239.186 202.968 238.408C202.2 237.629 183.758 208.952 183.758 208.952L198.118 197.706L189.576 184.293Z" fill="white" stroke="#2855AF" stroke-linecap="round" stroke-linejoin="round"/>
<path opacity="0.1" d="M189.059 185.071L194.518 199.873L198.116 197.674L189.059 185.071Z" fill="#2855AF" stroke="#2855AF" stroke-linecap="round" stroke-linejoin="round"/>
<path d="M206.84 249.832C206.84 249.832 208.207 252.746 210.532 252.988" stroke="#2855AF" stroke-linecap="round" stroke-linejoin="round"/>
<path d="M183.757 208.92L179.875 202.135" stroke="#2855AF" stroke-linecap="round" stroke-linejoin="round"/>
<path d="M209.566 421.329L209.25 438.572L223.378 438.877L224.63 420.088L209.566 421.329Z" fill="white" stroke="#2855AF" stroke-linecap="round" stroke-linejoin="round"/>
<path opacity="0.1" d="M209.617 420.394V424.654L224.272 425.338L224.608 420.909L209.617 420.394Z" fill="#2855AF" stroke="#2855AF" stroke-linecap="round" stroke-linejoin="round"/>
<path d="M216.235 434.069C216.235 434.069 214.373 426.768 211.575 426.611C208.776 426.453 207.367 428.63 206.315 430.65C205.263 432.67 198.393 439.498 196.058 441.17C193.722 442.843 188.61 445.052 187.831 450.018C187.053 454.983 189.998 457.013 192.039 457.476C194.08 457.939 203.222 458.097 208.661 457.476C214.099 456.856 228.922 458.328 229.785 457.476C230.647 456.624 231.805 453.899 231.026 452.037C230.416 450.682 229.687 449.383 228.849 448.156C228.849 448.156 230.405 443.653 229.469 441.17C228.533 438.688 226.671 435.574 226.986 434.175C227.302 432.775 230.711 429.83 228.386 429.672C226.061 429.514 222.326 432.312 219.97 433.091C218.758 433.534 217.508 433.862 216.235 434.069Z" fill="#2855AF" stroke="#2855AF" stroke-linecap="round" stroke-linejoin="round"/>
<path d="M226.174 448.818C223.996 449.133 215.654 453.163 210.331 454.414C205.008 455.666 200.4 455.803 197.907 454.562C195.413 453.32 193.246 449.596 191.384 447.261C189.522 444.925 187.976 450.838 187.976 450.838L187.713 450.953C187.397 455.277 190.111 457.076 192.005 457.518C193.898 457.96 203.188 458.139 208.626 457.518C214.065 456.897 228.888 458.37 229.751 457.518C230.613 456.666 231.77 453.941 230.992 452.079C230.382 450.723 229.653 449.424 228.814 448.197C227.889 448.039 228.351 448.513 226.174 448.818Z" fill="white" stroke="#2855AF" stroke-linecap="round" stroke-linejoin="round"/>
<path d="M203.557 434.984C203.557 434.984 207.765 434.058 213.025 439.192L210.237 441.517C210.237 441.517 204.798 437.309 201.379 437.309L203.557 434.984Z" fill="white" stroke="#2855AF" stroke-linecap="round" stroke-linejoin="round"/>
<path d="M199.623 438.14C199.623 438.14 203.831 437.204 209.091 442.348L206.303 444.683C206.303 444.683 200.864 440.475 197.445 440.475L199.623 438.14Z" fill="white" stroke="#2855AF" stroke-linecap="round" stroke-linejoin="round"/>
<path d="M211.891 437.636L216.235 434.069" stroke="#2855AF" stroke-linecap="round" stroke-linejoin="round"/>
<path d="M206.304 444.632C206.304 444.632 207.356 446.956 205.526 448.356C203.695 449.755 191.387 447.419 191.544 445.715C191.702 444.011 197.446 440.455 197.446 440.455C200.657 441.217 203.673 442.64 206.304 444.632Z" fill="white" stroke="#2855AF" stroke-linecap="round" stroke-linejoin="round"/>
<path d="M298.678 421.329L298.983 438.572L284.855 438.877L283.613 420.088L298.678 421.329Z" fill="white" stroke="#2855AF" stroke-linecap="round" stroke-linejoin="round"/>
<path opacity="0.1" d="M283.887 423.286V425.843L298.878 425.674L298.71 421.929L283.551 421.761L283.887 423.286Z" fill="#2855AF" stroke="#2855AF" stroke-linecap="round" stroke-linejoin="round"/>
<path d="M291.997 434.069C291.997 434.069 293.859 426.768 296.657 426.611C299.456 426.453 300.865 428.63 301.917 430.65C302.969 432.67 309.839 439.498 312.164 441.17C314.489 442.843 319.623 445.052 320.391 450.018C321.158 454.983 318.223 457.013 316.183 457.476C314.142 457.939 305 458.097 299.561 457.476C294.122 456.856 279.299 458.328 278.447 457.476C277.595 456.624 276.427 453.899 277.195 452.037C277.806 450.682 278.534 449.383 279.373 448.156C279.373 448.156 277.816 443.653 278.752 441.17C279.689 438.688 281.551 435.574 281.235 434.175C280.919 432.775 277.511 429.83 279.836 429.672C282.161 429.514 285.895 432.312 288.252 433.091C289.466 433.536 290.72 433.864 291.997 434.069Z" fill="#2855AF" stroke="#2855AF" stroke-linecap="round" stroke-linejoin="round"/>
<path d="M282.057 448.818C284.234 449.133 292.577 453.163 297.9 454.414C303.223 455.666 307.841 455.803 310.324 454.562C312.806 453.32 314.984 449.596 316.846 447.261C318.708 444.925 320.265 450.838 320.265 450.838L320.518 450.953C320.833 455.277 318.119 457.076 316.225 457.518C314.332 457.96 305.043 458.139 299.604 457.518C294.165 456.897 279.342 458.37 278.49 457.518C277.638 456.666 276.47 453.941 277.238 452.079C277.849 450.723 278.577 449.424 279.416 448.197C280.352 448.039 279.879 448.513 282.057 448.818Z" fill="white" stroke="#2855AF" stroke-linecap="round" stroke-linejoin="round"/>
<path d="M304.73 434.984C304.73 434.984 300.522 434.058 295.262 439.192L298.06 441.517C298.06 441.517 303.488 437.309 306.907 437.309L304.73 434.984Z" fill="white" stroke="#2855AF" stroke-linecap="round" stroke-linejoin="round"/>
<path d="M308.609 438.14C308.609 438.14 304.401 437.204 299.141 442.348L301.939 444.683C301.939 444.683 307.367 440.475 310.786 440.475L308.609 438.14Z" fill="white" stroke="#2855AF" stroke-linecap="round" stroke-linejoin="round"/>
<path d="M296.345 437.636L292 434.069" stroke="#2855AF" stroke-linecap="round" stroke-linejoin="round"/>
<path d="M301.939 444.632C301.939 444.632 300.887 446.956 302.707 448.356C304.527 449.755 316.846 447.419 316.688 445.715C316.53 444.011 310.786 440.455 310.786 440.455C307.579 441.216 304.565 442.639 301.939 444.632Z" fill="white" stroke="#2855AF" stroke-linecap="round" stroke-linejoin="round"/>
<path d="M216.053 239.312C216.053 239.312 207.837 272.861 204.754 301.286C201.672 329.711 196.875 422.823 196.875 422.823H234.537C234.537 422.823 245.835 328.322 247.55 311.553C249.265 294.784 249.254 284.201 249.254 284.201L270.483 422.865H315.33C315.33 422.865 298.214 334.876 291.366 294.521C284.517 254.167 274.933 238.376 274.933 238.376L216.053 239.312Z" fill="white" stroke="#2855AF" stroke-linecap="round" stroke-linejoin="round"/>
<path d="M248.235 241.742C247.909 242.721 238.988 256.123 241.724 257.143C244.459 258.164 249.603 258.195 249.603 255.439V244.477C249.603 244.477 250.287 259.889 253.369 259.205C256.452 258.522 260.554 259.205 259.534 255.776C258.513 252.346 250.634 241.416 250.634 241.416C250.634 241.416 249.256 238.66 248.235 241.742Z" fill="#7CCCDB" stroke="#2855AF" stroke-linecap="round" stroke-linejoin="round"/>
<path d="M249.645 242.868C249.645 242.868 257.408 253.893 256.661 254.893C255.914 255.892 254.905 256.891 254.158 255.397C253.411 253.904 249.645 242.868 249.645 242.868Z" stroke="#2855AF" stroke-miterlimit="10"/>
<path d="M249.393 241.616C249.393 241.616 243.628 253.893 244.385 254.387C244.655 254.554 244.961 254.654 245.278 254.68C245.594 254.705 245.912 254.654 246.206 254.531C246.499 254.409 246.758 254.219 246.963 253.976C247.168 253.733 247.312 253.445 247.383 253.136C247.888 251.389 249.393 241.616 249.393 241.616Z" stroke="#2855AF" stroke-miterlimit="10"/>
<path d="M272.789 276.605C273.105 278.341 273.378 279.982 273.568 281.455" stroke="#2855AF" stroke-linecap="round" stroke-linejoin="round"/>
<path d="M264.668 242.773C264.668 242.773 268.939 258.027 271.685 270.978" stroke="#2855AF" stroke-linecap="round" stroke-linejoin="round"/>
<path d="M261.586 242.773C261.586 242.773 264.321 261.941 265.689 267.075" stroke="#2855AF" stroke-linecap="round" stroke-linejoin="round"/>
<path d="M224.322 269.315C224.174 270.641 224.048 271.851 223.922 272.892" stroke="#2855AF" stroke-linecap="round" stroke-linejoin="round"/>
<path d="M227.006 242.773C227.006 242.773 225.87 254.482 224.902 264.161" stroke="#2855AF" stroke-linecap="round" stroke-linejoin="round"/>
<path d="M224.273 243.457L222.895 259.889" stroke="#2855AF" stroke-linecap="round" stroke-linejoin="round"/>
<path d="M248.256 103.078C248.256 103.078 261.016 104.351 258.039 110.947C255.062 117.543 252.085 118.816 251.443 118.816C250.801 118.816 245.699 110.947 245.699 110.947L248.256 103.078Z" fill="#2855AF" stroke="white" stroke-linecap="round" stroke-linejoin="round"/>
<path d="M246.761 109.243C246.761 109.243 251.653 112.01 253.147 117.112C254.641 122.214 258.459 123.708 259.532 123.498C260.605 123.287 262.078 126.475 260.805 128.6L259.532 130.704C259.532 130.704 260.584 145.169 259.312 147.083C258.039 148.998 250.17 147.936 250.17 147.936C250.17 147.936 248.465 154.742 249.959 159.003C251.453 163.263 255.914 165.378 257.618 165.378C259.322 165.378 262.93 163.274 267.822 165.809C272.714 168.344 289.094 180.695 289.094 180.695L280.352 204.596L270.989 199.705L277.585 240.333L213.77 241.827C213.77 241.827 214.412 212.897 212.718 207.573C211.535 204.046 210.039 200.631 208.247 197.369L200.168 203.744L188.891 184.177C188.891 184.177 205.481 167.587 212.035 166.093C218.589 164.599 226.5 166.524 229.056 163.326C231.612 160.128 229.477 145.032 229.477 145.032C229.477 145.032 223.312 142.928 219.693 132.061C216.074 121.194 228.414 109.969 228.414 109.969C228.414 109.969 234 104.141 246.761 109.243Z" fill="white" stroke="#2855AF" stroke-linecap="round" stroke-linejoin="round"/>
<path opacity="0.1" d="M250.172 147.957L244.418 146.989L249.036 152.302L250.172 147.957Z" fill="#2855AF" stroke="#2855AF" stroke-linecap="round" stroke-linejoin="round"/>
<path d="M247.469 120.762C247.469 120.762 247.469 116.723 251.088 116.723" stroke="#2855AF" stroke-width="2" stroke-linecap="round" stroke-linejoin="round"/>
<path d="M256.976 135.406L249.528 131.787C249.528 131.787 248.897 139.446 251.632 139.235C254.367 139.025 256.976 135.406 256.976 135.406Z" fill="white" stroke="#2855AF" stroke-linecap="round" stroke-linejoin="round"/>
<path d="M249.688 124.708C249.688 124.708 252.086 122.109 254.085 124.308" stroke="#2855AF" stroke-linecap="round" stroke-linejoin="round"/>
<path d="M249.476 134.217L256.167 136.395C256.454 136.08 256.725 135.75 256.977 135.406L249.528 131.798C249.528 131.798 249.444 132.881 249.476 134.217Z" fill="white" stroke="#2855AF" stroke-linecap="round" stroke-linejoin="round"/>
<path d="M207.84 118.396C207.84 118.396 203.158 108.823 196.562 109.885C189.966 110.948 184.864 118.175 186.989 128.39C186.989 128.39 188.041 131.156 188.904 133.492C188.904 133.492 180.614 130.946 176.143 136.469C171.672 141.992 175.091 147.747 180.182 150.513C185.274 153.28 188.272 153.07 188.272 153.07C188.272 153.07 176.995 156.468 181.035 160.728C185.074 164.989 197.414 162.212 194.858 158.624C192.302 155.037 190.397 155.468 190.397 155.468C190.397 155.468 200.602 151.639 199.539 148.872C198.477 146.105 193.375 143.98 193.375 143.98C193.375 143.98 203.158 147.389 208.481 144.191C213.804 140.993 209.112 127.359 209.112 127.359L207.84 118.396Z" fill="#2855AF" stroke="white" stroke-linecap="round" stroke-linejoin="round"/>
<path d="M250.591 98.3969C250.591 98.3969 252.295 104.351 249.318 109.453C246.341 114.556 239.955 123.287 239.103 133.071C238.251 142.854 241.018 154.984 242.722 159.024C244.426 163.063 240.618 163.915 237.83 163.705C235.043 163.495 234.001 161.79 234.001 157.961C234.001 154.132 233.149 147.325 233.149 147.325C233.149 147.325 222.303 146.273 217.201 143.275C212.098 140.277 204.65 130.094 207.838 118.395C211.025 106.697 219.536 103.289 224.67 101.164C229.804 99.0386 236.799 99.249 241.691 98.1865C246.583 97.124 250.381 95.8405 250.591 98.3969Z" fill="#2855AF" stroke="white" stroke-linecap="round" stroke-linejoin="round"/>
<path d="M235.119 128.179L233.204 135.837C233.204 135.837 229.164 133.923 228.523 130.514C227.881 127.106 232.731 125.412 236.181 128.41" fill="white"/>
<path d="M235.119 128.179L233.204 135.837C233.204 135.837 229.164 133.923 228.523 130.514C227.881 127.106 232.731 125.412 236.181 128.41" stroke="#2855AF" stroke-linecap="round" stroke-linejoin="round"/>
<path d="M297.185 140.298L294.418 140.519" stroke="#2855AF" stroke-linecap="round" stroke-linejoin="round"/>
<path d="M277.282 134.154L348.187 144.075L338.55 91.6221L275.094 122.183L277.282 134.154Z" fill="#7CCCDB" stroke="#2855AF" stroke-linecap="round" stroke-linejoin="round"/>
<path d="M275.089 122.185L264.555 124.111L266.734 136.033L277.269 134.107L275.089 122.185Z" fill="#7CCCDB" stroke="#2855AF" stroke-linecap="round" stroke-linejoin="round"/>
<path d="M289.095 180.716C289.095 180.716 272.716 168.376 267.824 165.83C262.932 163.284 259.408 165.346 257.693 165.399C255.413 168.683 252.342 171.34 248.764 173.125C245.186 174.91 241.217 175.766 237.221 175.613C223.23 175.435 219.337 167.65 218.496 165.377C216.355 165.398 214.22 165.62 212.121 166.04C205.525 167.534 188.977 184.124 188.977 184.124L200.254 203.691L208.333 197.316C210.125 200.578 211.621 203.993 212.804 207.521C214.509 212.844 213.856 241.774 213.856 241.774L277.671 240.28L271.075 199.652L280.353 204.596L289.095 180.716Z" fill="#2855AF" stroke="white" stroke-linecap="round" stroke-linejoin="round"/>
</svg>
