<?xml version="1.0" encoding="utf-8"?>
<!-- Generator: Adobe Illustrator 21.0.2, SVG Export Plug-In . SVG Version: 6.00 Build 0)  -->
<svg version="1.1" id="Layer_1" xmlns:sketch="http://www.bohemiancoding.com/sketch/ns"
	 xmlns="http://www.w3.org/2000/svg" xmlns:xlink="http://www.w3.org/1999/xlink" x="0px" y="0px" viewBox="0 0 84 84"
	 style="enable-background:new 0 0 84 84;" xml:space="preserve">
<style type="text/css">
	.st0{fill:#EEEEEE;stroke:#FFFFFF;stroke-width:4;}
	.st1{fill:none;stroke:#F2EDED;}
	.st2{fill:#005EB8;}
	.st3{fill:none;stroke:#005EB8;stroke-width:2;stroke-miterlimit:10;}
</style>
<g id="Rectangle-290">
	<g sketch:type="MSShapeGroup">
		<path id="path-1" class="st0" d="M41,1h2c22.1,0,40,17.9,40,40v2c0,22.1-17.9,40-40,40h-2C18.9,83,1,65.1,1,43v-2
			C1,18.9,18.9,1,41,1z"/>
	</g>
	<g>
		<path id="path-1_1_" class="st1" d="M41,1h2c22.1,0,40,17.9,40,40v2c0,22.1-17.9,40-40,40h-2C18.9,83,1,65.1,1,43v-2
			C1,18.9,18.9,1,41,1z"/>
	</g>
</g>
<g>
	<g>
		<g>
			<g>
				<path class="st2" d="M37.1,36.7c0,0.3-0.2,0.5-0.5,0.5h-2.2c-0.3,0-0.5-0.2-0.5-0.5v-2.2c0-0.3,0.2-0.5,0.5-0.5h2.2
					c0.3,0,0.5,0.2,0.5,0.5V36.7z"/>
			</g>
		</g>
	</g>
	<g>
		<g>
			<g>
				<path class="st2" d="M41.5,36.7c0,0.3-0.2,0.5-0.5,0.5h-2.2c-0.3,0-0.5-0.2-0.5-0.5v-2.2c0-0.3,0.2-0.5,0.5-0.5h2.2
					c0.3,0,0.5,0.2,0.5,0.5V36.7z"/>
			</g>
		</g>
	</g>
	<g>
		<g>
			<g>
				<path class="st2" d="M45.8,36.7c0,0.3-0.2,0.5-0.5,0.5h-2.2c-0.3,0-0.5-0.2-0.5-0.5v-2.2c0-0.3,0.2-0.5,0.5-0.5h2.2
					c0.3,0,0.5,0.2,0.5,0.5V36.7z"/>
			</g>
		</g>
	</g>
	<g>
		<g>
			<g>
				<path class="st2" d="M37.1,41c0,0.3-0.2,0.5-0.5,0.5h-2.2c-0.3,0-0.5-0.2-0.5-0.5v-2.2c0-0.3,0.2-0.5,0.5-0.5h2.2
					c0.3,0,0.5,0.2,0.5,0.5V41z"/>
			</g>
		</g>
	</g>
	<g>
		<g>
			<g>
				<path class="st2" d="M41.5,41c0,0.3-0.2,0.5-0.5,0.5h-2.2c-0.3,0-0.5-0.2-0.5-0.5v-2.2c0-0.3,0.2-0.5,0.5-0.5h2.2
					c0.3,0,0.5,0.2,0.5,0.5V41z"/>
			</g>
		</g>
	</g>
	<g>
		<g>
			<g>
				<path class="st2" d="M45.8,41c0,0.3-0.2,0.5-0.5,0.5h-2.2c-0.3,0-0.5-0.2-0.5-0.5v-2.2c0-0.3,0.2-0.5,0.5-0.5h2.2
					c0.3,0,0.5,0.2,0.5,0.5V41z"/>
			</g>
		</g>
	</g>
	<g>
		<g>
			<g>
				<path class="st2" d="M37.1,45.3c0,0.3-0.2,0.5-0.5,0.5h-2.2c-0.3,0-0.5-0.2-0.5-0.5V43c0-0.3,0.2-0.5,0.5-0.5h2.2
					c0.3,0,0.5,0.2,0.5,0.5V45.3z"/>
			</g>
		</g>
	</g>
	<g>
		<g>
			<g>
				<path class="st2" d="M32.7,36.7c0,0.3-0.2,0.5-0.5,0.5H30c-0.3,0-0.5-0.2-0.5-0.5v-2.2c0-0.3,0.2-0.5,0.5-0.5h2.2
					c0.3,0,0.5,0.2,0.5,0.5V36.7z"/>
			</g>
		</g>
	</g>
	<g>
		<g>
			<g>
				<path class="st2" d="M37.1,32.6c0,0.3-0.2,0.5-0.5,0.5h-2.2c-0.3,0-0.5-0.2-0.5-0.5v-2.2c0-0.3,0.2-0.5,0.5-0.5h2.2
					c0.3,0,0.5,0.2,0.5,0.5V32.6z"/>
			</g>
		</g>
	</g>
	<g>
		<g>
			<g>
				<path class="st2" d="M41.5,32.6c0,0.3-0.2,0.5-0.5,0.5h-2.2c-0.3,0-0.5-0.2-0.5-0.5v-2.2c0-0.3,0.2-0.5,0.5-0.5h2.2
					c0.3,0,0.5,0.2,0.5,0.5V32.6z"/>
			</g>
		</g>
	</g>
	<g>
		<g>
			<g>
				<path class="st2" d="M45.8,32.6c0,0.3-0.2,0.5-0.5,0.5h-2.2c-0.3,0-0.5-0.2-0.5-0.5v-2.2c0-0.3,0.2-0.5,0.5-0.5h2.2
					c0.3,0,0.5,0.2,0.5,0.5V32.6z"/>
			</g>
		</g>
	</g>
	<g>
		<g>
			<g>
				<path class="st2" d="M32.7,32.6c0,0.3-0.2,0.5-0.5,0.5H30c-0.3,0-0.5-0.2-0.5-0.5v-2.2c0-0.3,0.2-0.5,0.5-0.5h2.2
					c0.3,0,0.5,0.2,0.5,0.5V32.6z"/>
			</g>
		</g>
	</g>
	<g>
		<g>
			<g>
				<path class="st2" d="M32.7,41c0,0.3-0.2,0.5-0.5,0.5H30c-0.3,0-0.5-0.2-0.5-0.5v-2.2c0-0.3,0.2-0.5,0.5-0.5h2.2
					c0.3,0,0.5,0.2,0.5,0.5V41z"/>
			</g>
		</g>
	</g>
	<g>
		<g>
			<g>
				<path class="st2" d="M32.7,45.3c0,0.3-0.2,0.5-0.5,0.5H30c-0.3,0-0.5-0.2-0.5-0.5V43c0-0.3,0.2-0.5,0.5-0.5h2.2
					c0.3,0,0.5,0.2,0.5,0.5V45.3z"/>
			</g>
		</g>
	</g>
	<g>
		<g>
			<g>
				<path class="st2" d="M41.5,45.3c0,0.3-0.2,0.5-0.5,0.5h-2.2c-0.3,0-0.5-0.2-0.5-0.5V43c0-0.3,0.2-0.5,0.5-0.5h2.2
					c0.3,0,0.5,0.2,0.5,0.5V45.3z"/>
			</g>
		</g>
	</g>
	<g>
		<g>
			<g>
				<path class="st2" d="M45.9,45.3c0,0.3-0.2,0.5-0.5,0.5h-2.2c-0.3,0-0.5-0.2-0.5-0.5V43c0-0.3,0.2-0.5,0.5-0.5h2.2
					c0.3,0,0.5,0.2,0.5,0.5V45.3z"/>
			</g>
		</g>
	</g>
	<g>
		<g>
			<g>
				<path class="st2" d="M50.1,36.7c0,0.3-0.2,0.5-0.5,0.5h-2.2c-0.3,0-0.5-0.2-0.5-0.5v-2.2c0-0.3,0.2-0.5,0.5-0.5h2.2
					c0.3,0,0.5,0.2,0.5,0.5V36.7z"/>
			</g>
		</g>
	</g>
	<g>
		<g>
			<g>
				<path class="st2" d="M50.1,41c0,0.3-0.2,0.5-0.5,0.5h-2.2c-0.3,0-0.5-0.2-0.5-0.5v-2.2c0-0.3,0.2-0.5,0.5-0.5h2.2
					c0.3,0,0.5,0.2,0.5,0.5V41z"/>
			</g>
		</g>
	</g>
	<g>
		<g>
			<g>
				<path class="st2" d="M50.1,32.6c0,0.3-0.2,0.5-0.5,0.5h-2.2c-0.3,0-0.5-0.2-0.5-0.5v-2.2c0-0.3,0.2-0.5,0.5-0.5h2.2
					c0.3,0,0.5,0.2,0.5,0.5V32.6z"/>
			</g>
		</g>
	</g>
	<g>
		<g>
			<g>
				<path class="st2" d="M50.1,45.3c0,0.3-0.2,0.5-0.5,0.5h-2.2c-0.3,0-0.5-0.2-0.5-0.5V43c0-0.3,0.2-0.5,0.5-0.5h2.2
					c0.3,0,0.5,0.2,0.5,0.5V45.3z"/>
			</g>
		</g>
	</g>
	<g>
		<g>
			<g>
				<path class="st2" d="M37.1,49.5c0,0.3-0.2,0.5-0.5,0.5h-2.2c-0.3,0-0.5-0.2-0.5-0.5v-2.2c0-0.3,0.2-0.5,0.5-0.5h2.2
					c0.3,0,0.5,0.2,0.5,0.5V49.5z"/>
			</g>
		</g>
	</g>
	<g>
		<g>
			<g>
				<path class="st2" d="M32.7,49.5c0,0.3-0.2,0.5-0.5,0.5H30c-0.3,0-0.5-0.2-0.5-0.5v-2.2c0-0.3,0.2-0.5,0.5-0.5h2.2
					c0.3,0,0.5,0.2,0.5,0.5V49.5z"/>
			</g>
		</g>
	</g>
	<g>
		<g>
			<g>
				<path class="st2" d="M41.5,49.5c0,0.3-0.2,0.5-0.5,0.5h-2.2c-0.3,0-0.5-0.2-0.5-0.5v-2.2c0-0.3,0.2-0.5,0.5-0.5h2.2
					c0.3,0,0.5,0.2,0.5,0.5V49.5z"/>
			</g>
		</g>
	</g>
	<g>
		<g>
			<g>
				<path class="st2" d="M45.9,49.5c0,0.3-0.2,0.5-0.5,0.5h-2.2c-0.3,0-0.5-0.2-0.5-0.5v-2.2c0-0.3,0.2-0.5,0.5-0.5h2.2
					c0.3,0,0.5,0.2,0.5,0.5V49.5z"/>
			</g>
		</g>
	</g>
	<g>
		<g>
			<g>
				<path class="st2" d="M50.1,49.5c0,0.3-0.2,0.5-0.5,0.5h-2.2c-0.3,0-0.5-0.2-0.5-0.5v-2.2c0-0.3,0.2-0.5,0.5-0.5h2.2
					c0.3,0,0.5,0.2,0.5,0.5V49.5z"/>
			</g>
		</g>
	</g>
	<g>
		<g>
			<g>
				<path class="st2" d="M54.6,36.7c0,0.3-0.2,0.5-0.5,0.5h-2.2c-0.3,0-0.5-0.2-0.5-0.5v-2.2c0-0.3,0.2-0.5,0.5-0.5H54
					c0.3,0,0.5,0.2,0.5,0.5V36.7z"/>
			</g>
		</g>
	</g>
	<g>
		<g>
			<g>
				<path class="st2" d="M54.6,41c0,0.3-0.2,0.5-0.5,0.5h-2.2c-0.3,0-0.5-0.2-0.5-0.5v-2.2c0-0.3,0.2-0.5,0.5-0.5H54
					c0.3,0,0.5,0.2,0.5,0.5V41z"/>
			</g>
		</g>
	</g>
	<g>
		<g>
			<g>
				<path class="st2" d="M54.6,32.6c0,0.3-0.2,0.5-0.5,0.5h-2.2c-0.3,0-0.5-0.2-0.5-0.5v-2.2c0-0.3,0.2-0.5,0.5-0.5H54
					c0.3,0,0.5,0.2,0.5,0.5V32.6z"/>
			</g>
		</g>
	</g>
	<g>
		<g>
			<g>
				<path class="st2" d="M54.6,45.3c0,0.3-0.2,0.5-0.5,0.5h-2.2c-0.3,0-0.5-0.2-0.5-0.5V43c0-0.3,0.2-0.5,0.5-0.5H54
					c0.3,0,0.5,0.2,0.5,0.5V45.3z"/>
			</g>
		</g>
	</g>
	<g>
		<g>
			<g>
				<path class="st2" d="M54.6,49.5c0,0.3-0.2,0.5-0.5,0.5h-2.2c-0.3,0-0.5-0.2-0.5-0.5v-2.2c0-0.3,0.2-0.5,0.5-0.5H54
					c0.3,0,0.5,0.2,0.5,0.5V49.5z"/>
			</g>
		</g>
	</g>
	<g>
		<g>
			<g>
				<path class="st2" d="M37.1,53.8c0,0.3-0.2,0.5-0.5,0.5h-2.2c-0.3,0-0.5-0.2-0.5-0.5v-2.2c0-0.3,0.2-0.5,0.5-0.5h2.2
					c0.3,0,0.5,0.2,0.5,0.5V53.8z"/>
			</g>
		</g>
	</g>
	<g>
		<g>
			<g>
				<path class="st2" d="M32.7,53.8c0,0.3-0.2,0.5-0.5,0.5H30c-0.3,0-0.5-0.2-0.5-0.5v-2.2c0-0.3,0.2-0.5,0.5-0.5h2.2
					c0.3,0,0.5,0.2,0.5,0.5V53.8z"/>
			</g>
		</g>
	</g>
	<g>
		<g>
			<g>
				<path class="st2" d="M41.5,53.8c0,0.3-0.2,0.5-0.5,0.5h-2.2c-0.3,0-0.5-0.2-0.5-0.5v-2.2c0-0.3,0.2-0.5,0.5-0.5h2.2
					c0.3,0,0.5,0.2,0.5,0.5V53.8z"/>
			</g>
		</g>
	</g>
	<g>
		<g>
			<g>
				<path class="st2" d="M45.9,53.8c0,0.3-0.2,0.5-0.5,0.5h-2.2c-0.3,0-0.5-0.2-0.5-0.5v-2.2c0-0.3,0.2-0.5,0.5-0.5h2.2
					c0.3,0,0.5,0.2,0.5,0.5V53.8z"/>
			</g>
		</g>
	</g>
	<g>
		<g>
			<g>
				<path class="st2" d="M50.1,53.8c0,0.3-0.2,0.5-0.5,0.5h-2.2c-0.3,0-0.5-0.2-0.5-0.5v-2.2c0-0.3,0.2-0.5,0.5-0.5h2.2
					c0.3,0,0.5,0.2,0.5,0.5V53.8z"/>
			</g>
		</g>
	</g>
	<g>
		<g>
			<g>
				<path class="st2" d="M54.6,53.8c0,0.3-0.2,0.5-0.5,0.5h-2.2c-0.3,0-0.5-0.2-0.5-0.5v-2.2c0-0.3,0.2-0.5,0.5-0.5H54
					c0.3,0,0.5,0.2,0.5,0.5V53.8z"/>
			</g>
		</g>
	</g>
</g>
<g>
	<g>
		<line class="st3" x1="42" y1="15.5" x2="42" y2="24.6"/>
		<g>
			<polygon class="st2" points="38.6,20.6 42,24 45.4,20.6 45.4,23.5 42,26.8 38.6,23.5 			"/>
		</g>
	</g>
</g>
<g>
	<g>
		<line class="st3" x1="42" y1="68.2" x2="42" y2="59.1"/>
		<g>
			<polygon class="st2" points="45.4,63.1 42,59.7 38.6,63.1 38.6,60.2 42,56.8 45.4,60.2 			"/>
		</g>
	</g>
</g>
<g>
	<g>
		<line class="st3" x1="68.3" y1="41.8" x2="59.3" y2="41.8"/>
		<g>
			<polygon class="st2" points="63.3,38.4 59.9,41.8 63.3,45.2 60.4,45.2 57,41.8 60.4,38.4 			"/>
		</g>
	</g>
</g>
<g>
	<g>
		<line class="st3" x1="15.7" y1="41.8" x2="24.7" y2="41.8"/>
		<g>
			<polygon class="st2" points="20.7,45.2 24.1,41.8 20.7,38.4 23.6,38.4 27,41.8 23.6,45.2 			"/>
		</g>
	</g>
</g>
</svg>
