<?xml version="1.0" encoding="utf-8"?>
<!-- Generator: Adobe Illustrator 16.2.0, SVG Export Plug-In . SVG Version: 6.00 Build 0)  -->
<!DOCTYPE svg PUBLIC "-//W3C//DTD SVG 1.1//EN" "http://www.w3.org/Graphics/SVG/1.1/DTD/svg11.dtd">
<svg version="1.1" id="Layer_1" xmlns:sketch="http://www.bohemiancoding.com/sketch/ns"
	 xmlns="http://www.w3.org/2000/svg" xmlns:xlink="http://www.w3.org/1999/xlink" x="0px" y="0px" width="84px" height="84px"
	 viewBox="0 0 84 84" enable-background="new 0 0 84 84" xml:space="preserve">
<g id="Rectangle-290">
	<g sketch:type="MSShapeGroup">
		<path id="path-1" fill="#EEEEEE" stroke="#FFFFFF" stroke-width="4" d="M41,1h2c22.092,0,40,17.909,40,40v2
			c0,22.092-17.908,40-40,40h-2C18.909,83,1,65.092,1,43v-2C1,18.909,18.909,1,41,1z"/>
	</g>
	<g>
		<path id="path-1_1_" fill="none" stroke="#F2EDED" d="M41,1h2c22.092,0,40,17.909,40,40v2c0,22.092-17.908,40-40,40h-2
			C18.909,83,1,65.092,1,43v-2C1,18.909,18.909,1,41,1z"/>
	</g>
</g>
<g>
	<path fill="#005EB8" d="M45.007,57.257v-3.91H28.627v-26.37c0-0.713,0.582-1.295,1.294-1.295h19.131
		c0.713,0,1.295,0.583,1.295,1.295v5.445h3.289v-5.445c0-2.53-2.057-4.586-4.584-4.586H29.922c-2.529,0-4.585,2.056-4.585,4.586V55
		c0,2.53,2.056,4.583,4.585,4.583h15.768C45.345,59.032,45.007,58.297,45.007,57.257L45.007,57.257z M39.49,58.37
		c-0.561,0-1.044-0.265-1.381-0.662c-0.271-0.317-0.457-0.721-0.457-1.173c0-1.014,0.824-1.838,1.838-1.838
		c1.012,0,1.836,0.821,1.836,1.838c0,0.452-0.186,0.855-0.455,1.173C40.531,58.105,40.047,58.37,39.49,58.37L39.49,58.37z"/>
	<path fill="#005EB8" d="M60.199,34.478H49.415c-1.294,0-2.352,1.053-2.352,2.349v20.43c0,1.297,1.058,2.352,2.352,2.352h10.784
		c1.296,0,2.354-1.055,2.354-2.352v-20.43C62.554,35.531,61.495,34.478,60.199,34.478L60.199,34.478z M49.533,36.944h10.552v18.093
		H49.533V36.944z M53.635,57.195c0-0.646,0.523-1.174,1.172-1.174c0.651,0,1.18,0.528,1.18,1.174c0,0.65-0.528,1.178-1.18,1.178
		C54.158,58.373,53.635,57.846,53.635,57.195L53.635,57.195z"/>
</g>
</svg>
