<svg width="182" height="149" viewBox="0 0 182 149" fill="none" xmlns="http://www.w3.org/2000/svg">
<path opacity="0.05" d="M40.68 148.44C33.72 148.44 27.52 146.72 22.08 143.28C16.64 139.84 12.36 134.88 9.24 128.4C6.2 121.84 4.68 114.04 4.68 105C4.68 95.96 6.2 88.2 9.24 81.72C12.36 75.16 16.64 70.16 22.08 66.72C27.52 63.28 33.72 61.56 40.68 61.56C47.64 61.56 53.84 63.28 59.28 66.72C64.72 70.16 68.96 75.16 72 81.72C75.12 88.2 76.68 95.96 76.68 105C76.68 114.04 75.12 121.84 72 128.4C68.96 134.88 64.72 139.84 59.28 143.28C53.84 146.72 47.64 148.44 40.68 148.44ZM40.68 132C45.8 132 49.8 129.8 52.68 125.4C55.64 121 57.12 114.2 57.12 105C57.12 95.8 55.64 89 52.68 84.6C49.8 80.2 45.8 78 40.68 78C35.64 78 31.64 80.2 28.68 84.6C25.8 89 24.36 95.8 24.36 105C24.36 114.2 25.8 121 28.68 125.4C31.64 129.8 35.64 132 40.68 132ZM117.822 63V147H98.3822V78.6H81.5822V63H117.822Z" fill="#2855AF"/>
<rect x="45" y="4" width="133" height="116" stroke="#2855AF" stroke-width="8"/>
<path d="M132.526 59.4865C130.654 58.5509 127.146 58.54 126.997 58.54C126.552 58.54 126.191 58.9008 126.191 59.3457C126.191 59.7906 126.552 60.1514 126.997 60.1514C127.903 60.1515 130.531 60.2909 131.805 60.9278C131.921 60.9857 132.044 61.013 132.165 61.013C132.461 61.013 132.745 60.8497 132.886 60.5675C133.085 60.1695 132.924 59.6856 132.526 59.4865Z" fill="#7CCCDB"/>
<path d="M136.541 70.9573L133.214 70.0066C133.07 69.9656 132.97 69.8326 132.97 69.6831V68.5725C133.241 68.385 133.499 68.175 133.74 67.9408C134.91 66.8055 135.554 65.2828 135.554 63.653V62.1204L135.876 61.4771C136.229 60.7708 136.416 59.9801 136.416 59.1905V55.0386C136.416 54.5937 136.055 54.233 135.61 54.233H127.857C125.038 54.233 122.744 56.5266 122.744 59.3458V59.3938C122.744 60.0504 122.9 60.7079 123.193 61.2951L123.606 62.1203V63.4362C123.606 65.5217 124.633 67.3929 126.19 68.5189L126.19 69.6829C126.19 69.8624 126.19 69.9368 125.525 70.1269L123.901 70.5908L119.205 68.883C119.222 68.6613 119.147 68.436 118.985 68.2661L117.484 66.6894V64.0425C117.643 63.9118 117.8 63.7775 117.951 63.6355C119.844 61.8609 120.93 59.3554 120.93 56.7615V54.6476C121.502 53.4036 121.792 52.0871 121.792 50.7313V42.1172C121.792 41.6722 121.431 41.3115 120.986 41.3115H108.926C104.682 41.3115 101.229 44.7645 101.229 49.0086V50.7316C101.229 52.0873 101.518 53.4038 102.09 54.6478V56.4666C102.09 59.4783 103.429 62.1915 105.536 63.9803V66.6895L104.035 68.2662C103.873 68.4361 103.799 68.6615 103.816 68.8831L98.8586 70.6855C98.4994 70.8161 98.1656 70.993 97.8626 71.2074L97.0842 70.8182C99.4013 69.8096 100.135 68.3911 100.171 68.3206C100.284 68.0938 100.284 67.8268 100.171 67.6C99.5897 66.4384 99.5193 64.3091 99.4628 62.5983C99.444 62.0288 99.4262 61.4907 99.3922 61.0116C99.1175 57.1472 96.1797 54.233 92.5585 54.233C88.9373 54.233 85.9994 57.1471 85.7249 61.0116C85.6908 61.4908 85.673 62.0289 85.6542 62.5986C85.5977 64.3093 85.5272 66.4382 84.9465 67.5999C84.8331 67.8267 84.8331 68.0937 84.9465 68.3205C84.9817 68.391 85.7142 69.8066 88.0359 70.8163L85.8739 71.8973C84.718 72.4757 84 73.6374 84 74.9296V80.8818C84 81.3267 84.3607 81.6874 84.8057 81.6874C85.2506 81.6874 85.6113 81.3267 85.6113 80.8818V74.9296C85.6113 74.2516 85.9881 73.642 86.5945 73.3387L89.2868 71.9926L90.2233 72.8826C90.8781 73.5049 91.7182 73.8159 92.5585 73.8159C93.3987 73.8159 94.2391 73.5047 94.8938 72.8826L95.8302 71.9927L96.708 72.4316C96.2946 73.093 96.06 73.8686 96.06 74.6811V80.882C96.06 81.3269 96.4208 81.6876 96.8657 81.6876C97.3106 81.6876 97.6714 81.3269 97.6714 80.882V74.6811C97.6714 73.575 98.3697 72.5779 99.4092 72.1999L104.636 70.2995L106.811 73.5631C107.089 73.9803 107.535 74.2479 108.034 74.2973C108.09 74.3028 108.145 74.3055 108.2 74.3055C108.64 74.3055 109.062 74.1322 109.377 73.8172L110.704 72.4899V80.8821C110.704 81.327 111.065 81.6878 111.51 81.6878C111.955 81.6878 112.316 81.327 112.316 80.8821V72.4899L113.643 73.8172C113.958 74.1323 114.38 74.3056 114.82 74.3056C114.875 74.3056 114.931 74.3029 114.986 74.2975C115.485 74.248 115.931 73.9804 116.209 73.5632L118.385 70.2997L123.611 72.2001C124.65 72.5782 125.349 73.5753 125.349 74.6813V80.8822C125.349 81.3271 125.71 81.6879 126.154 81.6879C126.599 81.6879 126.96 81.3271 126.96 80.8822V74.6813C126.96 73.5611 126.515 72.5105 125.769 71.7335L125.968 71.6767C126.168 71.6193 126.442 71.5408 126.717 71.406L128.774 73.463V80.8822C128.774 81.3271 129.135 81.6879 129.58 81.6879C130.025 81.6879 130.386 81.3271 130.386 80.8822V73.463L132.428 71.4203C132.537 71.4755 132.651 71.5221 132.771 71.5564L136.099 72.507C136.858 72.724 137.389 73.4273 137.389 74.2173V80.8822C137.389 81.3271 137.749 81.6879 138.194 81.6879C138.639 81.6879 139 81.3271 139 80.8822V74.2173C139 72.7115 137.989 71.371 136.541 70.9573ZM89.1686 69.5343C87.6616 68.992 86.9057 68.269 86.583 67.8743C86.803 67.2991 86.9456 66.6404 87.0422 65.9451C87.4865 67.0104 88.2306 67.9198 89.1686 68.5686V69.5343ZM93.784 71.7147C93.0968 72.3676 92.0203 72.3675 91.3334 71.7146L90.5841 71.0026C90.7105 70.7657 90.78 70.4972 90.78 70.2158V69.3571C91.3421 69.5328 91.9396 69.6275 92.5587 69.6275C93.1772 69.6275 93.7743 69.5323 94.3373 69.3577L94.3372 70.2157C94.3372 70.4972 94.4066 70.7658 94.5331 71.0028L93.784 71.7147ZM92.5589 68.0162C90.1531 68.0162 88.196 66.0589 88.196 63.6532C88.196 63.2083 87.8353 62.8476 87.3903 62.8476C87.3452 62.8476 87.3012 62.8522 87.2581 62.8594C87.2605 62.7901 87.2627 62.7207 87.2651 62.6521C87.283 62.0981 87.3003 61.5748 87.3322 61.126C87.4351 59.6784 88.0136 58.3444 88.9611 57.3697C89.917 56.3861 91.1947 55.8445 92.5587 55.8445C93.9228 55.8445 95.2003 56.3861 96.1564 57.3697C97.1039 58.3444 97.6823 59.6784 97.7852 61.126C97.817 61.5747 97.8344 62.0979 97.8527 62.6517C97.8543 62.6993 97.8559 62.7476 97.8575 62.7955C96.981 61.445 95.6272 60.4497 93.8781 59.8877C92.2621 59.3685 90.8723 59.4006 90.8137 59.4021C90.6027 59.408 90.4025 59.4963 90.256 59.6482L88.8024 61.1558C88.4936 61.4761 88.5028 61.9862 88.8231 62.295C89.1435 62.6038 89.6535 62.5945 89.9623 62.2743L91.1719 61.0199C92.2136 61.0708 95.5648 61.4605 96.8682 64.3305C96.5402 66.4454 94.7224 68.0162 92.5589 68.0162ZM95.9484 69.5369L95.9485 68.5761C96.8858 67.9308 97.631 67.0231 98.0756 65.9497C98.1722 66.6434 98.3147 67.3006 98.5343 67.8745C98.2134 68.2655 97.4539 68.9949 95.9484 69.5369ZM103.701 56.4665V54.4676C103.701 54.3463 103.674 54.2265 103.621 54.1173C103.103 53.0437 102.84 51.9046 102.84 50.7316V49.0087C102.84 45.653 105.57 42.923 108.926 42.923H120.18V50.7317C120.18 51.9047 119.917 53.0438 119.399 54.1174C119.346 54.2266 119.319 54.3464 119.319 54.4677V56.7617C119.319 58.9435 118.442 60.9673 116.849 62.4601C116.65 62.6464 116.444 62.821 116.231 62.9838C116.226 62.987 116.221 62.9905 116.217 62.9939C114.725 64.1266 112.897 64.6772 110.989 64.5535C106.902 64.289 103.701 60.7367 103.701 56.4665ZM108.238 72.6776C108.232 72.6832 108.219 72.6964 108.193 72.6936C108.167 72.6911 108.156 72.6757 108.152 72.669L105.646 68.9106L106.453 68.0633L110.254 70.6615L108.238 72.6776ZM111.51 69.5685L107.147 66.5863V65.0824C108.276 65.6926 109.54 66.0743 110.885 66.1613C111.097 66.1751 111.308 66.1818 111.518 66.1818C113.059 66.1818 114.542 65.8136 115.873 65.1146V66.5863L111.51 69.5685ZM114.868 72.6693C114.864 72.6759 114.854 72.6913 114.828 72.6939C114.801 72.6972 114.788 72.6833 114.783 72.6779L112.767 70.6619L116.568 68.0635L117.374 68.9108L114.868 72.6693ZM129.58 71.9895L127.752 70.1613C127.784 70.0164 127.802 69.8577 127.801 69.6827L127.801 69.3427C128.309 69.5092 128.843 69.6081 129.397 69.6246C129.459 69.6265 129.52 69.6274 129.582 69.6274C130.194 69.6274 130.791 69.535 131.359 69.3587V69.6831C131.359 69.8438 131.379 70.0013 131.417 70.1527L129.58 71.9895ZM132.618 66.7845C131.764 67.6131 130.636 68.0508 129.445 68.014C127.114 67.9441 125.217 65.8905 125.217 63.4365V61.9303C125.217 61.8051 125.188 61.6818 125.132 61.57L124.634 60.5746C124.452 60.2099 124.356 59.8017 124.356 59.394V59.3459C124.356 57.4151 125.926 55.8444 127.857 55.8444H134.804V59.1906C134.804 59.7314 134.677 60.2729 134.435 60.7566L134.028 61.57C133.972 61.6819 133.943 61.8051 133.943 61.9303V63.6531C133.943 64.8434 133.473 65.9554 132.618 66.7845Z" fill="#2855AF"/>
<path d="M134.747 74.9082C134.302 74.9082 133.941 75.2689 133.941 75.7139V80.8825C133.941 81.3274 134.302 81.6881 134.747 81.6881C135.192 81.6881 135.553 81.3274 135.553 80.8825V75.7139C135.553 75.269 135.192 74.9082 134.747 74.9082Z" fill="#7CCCDB"/>
<path d="M88.251 75.9727C87.806 75.9727 87.4453 76.3334 87.4453 76.7783V80.8819C87.4453 81.3269 87.806 81.6876 88.251 81.6876C88.6959 81.6876 89.0566 81.3269 89.0566 80.8819V76.7783C89.0566 76.3335 88.6959 75.9727 88.251 75.9727Z" fill="#7CCCDB"/>
<path d="M118.111 51.0234C115.064 47.9763 108.689 48.5588 106.089 48.9507C105.27 49.0741 104.676 49.7671 104.676 50.5984V52.4545C104.676 52.8994 105.037 53.2601 105.481 53.2601C105.926 53.2601 106.287 52.8994 106.287 52.4545V50.5983C106.287 50.5709 106.305 50.5475 106.329 50.5439C107.368 50.3874 109.428 50.1459 111.563 50.2882C114.076 50.4555 115.895 51.0861 116.972 52.1627C117.287 52.4774 117.797 52.4774 118.111 52.1627C118.426 51.8481 118.426 51.3379 118.111 51.0234Z" fill="#7CCCDB"/>
<path d="M102.036 76.6309C101.591 76.6309 101.23 76.9916 101.23 77.4365V80.8823C101.23 81.3272 101.591 81.688 102.036 81.688C102.481 81.688 102.842 81.3272 102.842 80.8823V77.4365C102.842 76.9917 102.481 76.6309 102.036 76.6309Z" fill="#7CCCDB"/>
<path d="M120.985 76.6309C120.54 76.6309 120.18 76.9916 120.18 77.4365V80.8823C120.18 81.3272 120.54 81.688 120.985 81.688C121.43 81.688 121.791 81.3272 121.791 80.8823V77.4365C121.791 76.9917 121.43 76.6309 120.985 76.6309Z" fill="#7CCCDB"/>
</svg>
