<svg width="50" height="50" viewBox="0 0 50 50" fill="none" xmlns="http://www.w3.org/2000/svg">
<path fill-rule="evenodd" clip-rule="evenodd" d="M49.9603 29.8558C49.7072 26.4003 48.2828 22.5265 45.9248 18.9468C40.8608 11.2457 33.3122 7.46498 28.7544 10.3313C24.1969 13.2137 24.6083 21.4882 29.6723 29.205C33.597 35.1708 38.9934 38.7809 43.3453 38.7809C44.6272 38.7809 45.7983 38.4712 46.8428 37.8205C49.1216 36.3792 50.2294 33.5438 49.9603 29.8558ZM36.8728 38.5178C30.9384 35.3566 24.6716 27.4692 24.1969 18.5287C24.1652 17.9241 23.627 17.4904 23.01 17.4904C22.3928 17.5213 21.918 18.0481 21.9497 18.6527C21.9523 18.6947 21.9555 18.7363 21.9589 18.7775L21.9705 18.9056L21.9812 19.0166L21.998 19.1914C22.0037 19.2539 22.0089 19.3169 22.013 19.381C20.4147 19.2722 18.753 19.1948 17.0438 19.1948C15.303 19.1948 0 19.3188 0 23.7816C0 28.2441 15.303 28.368 17.0438 28.368C19.5917 28.368 22.1238 28.2287 24.4025 27.9808C24.8141 28.8486 25.2412 29.6852 25.7319 30.4909C23.1681 30.8628 20.1456 31.0798 17.0438 31.0798C8.05502 31.0798 2.70614 29.4837 2.24714 28.6934C2.24714 28.0892 1.74073 27.5933 1.12362 27.5933C0.506402 27.5933 0 28.0892 0 28.6934C0 33.1562 15.303 33.2802 17.0438 33.2802C20.7153 33.2802 24.1809 33.017 27.077 32.5211C27.6625 33.3267 28.2798 34.1172 28.9128 34.8453C26.0325 35.5889 21.6964 36.0539 17.0438 36.0539C8.05502 36.0539 2.70614 34.4578 2.24714 33.6678C2.24714 33.0631 1.74073 32.5677 1.12362 32.5677C0.506402 32.5677 0 33.0631 0 33.6678C0 38.1302 15.303 38.2542 17.0438 38.2542C22.5667 38.2542 27.5359 37.6498 30.6219 36.6428C32.2836 38.2389 34.0559 39.5558 35.7967 40.4853C35.9709 40.5784 36.145 40.625 36.3348 40.625C36.7305 40.625 37.1261 40.4236 37.3159 40.0517C37.6166 39.463 37.4109 38.7966 36.8728 38.5178ZM2.29464 23.7663C3.08591 24.6647 8.38738 26.1523 17.0438 26.1523C19.2752 26.1523 21.4748 26.0441 23.4847 25.8427C22.9783 24.4789 22.5827 23.0534 22.3136 21.5969C20.6361 21.4573 18.8638 21.3799 17.0438 21.3799C8.38738 21.3799 3.08591 22.8676 2.29464 23.7663ZM31.5556 28.0117C35.7967 34.4578 42.2375 38.0992 45.6242 35.9611C47.1909 34.9845 47.9347 32.8617 47.7291 30.0106C47.5073 26.9116 46.1939 23.4097 44.0417 20.1401C39.8006 13.6787 33.3597 10.0372 29.973 12.1754C26.5864 14.3139 27.3144 21.5656 31.5556 28.0117Z" fill="#2855AF"/>
<path d="M33.6873 18.3843C33.9089 17.8266 34.5736 17.5473 35.1433 17.7644C35.7131 17.9814 35.998 18.6322 35.7763 19.1899L34.3995 22.63C34.2255 23.0638 33.7981 23.3274 33.3552 23.3274L33.3139 23.3262C33.2844 23.3251 33.255 23.3228 33.2258 23.319C33.1277 23.3068 33.0317 23.282 32.9436 23.2499C32.3739 23.0329 32.0891 22.3821 32.3106 21.8244L33.6873 18.3843Z" fill="#7CCCDB"/>
<path d="M38.6408 19.8255C38.8623 19.2677 39.5111 18.9885 40.0966 19.2056C40.6664 19.4379 40.9513 20.0734 40.7297 20.6311L37.6755 28.2548C37.5013 28.6888 37.0741 28.9521 36.6309 28.9521C36.5506 28.9521 36.4703 28.9423 36.3927 28.9251C36.3328 28.9121 36.2747 28.8949 36.2194 28.8746C35.6497 28.6576 35.3648 28.0068 35.5866 27.4492L38.6408 19.8255Z" fill="#7CCCDB"/>
<path d="M43.2617 25.4656C42.6919 25.2484 42.0272 25.5277 41.8056 26.0854L40.4289 29.5254C40.2073 30.0832 40.4922 30.734 41.0619 30.951C41.1886 30.9971 41.3309 31.0285 41.4734 31.0285C41.9166 31.0285 42.3438 30.7649 42.518 30.3312L43.8947 26.891C44.132 26.3177 43.8472 25.6826 43.2617 25.4656Z" fill="#7CCCDB"/>
</svg>
