<svg width="50" height="50" viewBox="0 0 50 50" fill="none" xmlns="http://www.w3.org/2000/svg">
<path d="M49.9977 40.6312C49.9972 40.6239 49.9973 40.6166 49.9966 40.6093C49.9939 40.5803 49.9897 40.5519 49.9838 40.5241C49.9832 40.5213 49.9823 40.5186 49.9816 40.5158C49.9759 40.4903 49.9688 40.4653 49.9604 40.4408C49.9581 40.4343 49.9557 40.428 49.9532 40.4215C49.945 40.3993 49.9357 40.3778 49.9255 40.3568C49.9237 40.3531 49.9226 40.3492 49.9207 40.3455L46.0035 32.6192V7.19924C46.0035 6.41741 45.3675 5.78137 44.5856 5.78137H5.41416C4.63232 5.78137 3.99629 6.41741 3.99629 7.19924V32.619L0.0791992 40.3454C0.0773437 40.3491 0.0761719 40.353 0.0744141 40.3567C0.0641602 40.3777 0.0549805 40.3992 0.0466797 40.4213C0.0442383 40.4278 0.0417969 40.4342 0.0395508 40.4408C0.03125 40.4653 0.0240234 40.4904 0.0182617 40.5159C0.0176758 40.5186 0.0167969 40.5212 0.0162109 40.5239C0.0102539 40.5518 0.00605469 40.5802 0.00341797 40.6092C0.00273437 40.6164 0.00273437 40.6238 0.00234375 40.631C0.00136719 40.6462 0 40.6613 0 40.6767V42.5347C0 43.4633 0.755371 44.2187 1.68398 44.2187H48.316C49.2446 44.2187 50 43.4633 50 42.5347V40.6767C50 40.6613 49.9986 40.6462 49.9977 40.6312ZM5.46123 7.24641H44.5388V32.0617H5.46123V7.24641ZM5.17861 33.5265H44.8213L48.075 39.9442H31.9832L31.1755 37.0156C31.011 36.4194 30.4644 36.003 29.8459 36.003H20.1539C19.5354 36.003 18.9887 36.4194 18.8243 37.0155L18.0166 39.9442H1.9249L5.17861 33.5265ZM30.4637 39.9443H19.5363L20.2192 37.4679H29.7808L30.4637 39.9443ZM48.5352 42.5346C48.5352 42.6554 48.4368 42.7537 48.316 42.7537H1.68398C1.56318 42.7537 1.46484 42.6554 1.46484 42.5346V41.409H48.5352V42.5346Z" fill="#2855AF"/>
<path d="M42.2436 20.8748C41.839 20.8748 41.5111 21.2026 41.5111 21.6072V29.0344H8.48828V21.6072C8.48828 21.2026 8.16045 20.8748 7.75586 20.8748C7.35127 20.8748 7.02344 21.2026 7.02344 21.6072V29.3507C7.02344 29.984 7.53857 30.4993 8.17197 30.4993H41.8275C42.4608 30.4993 42.9761 29.9841 42.9761 29.3507V21.6072C42.976 21.2028 42.6482 20.8748 42.2436 20.8748Z" fill="#7CCCDB"/>
<path d="M41.8274 8.80896H8.17197C7.53867 8.80896 7.02344 9.3241 7.02344 9.95749V17.701C7.02344 18.1056 7.35127 18.4335 7.75586 18.4335C8.16045 18.4335 8.48828 18.1056 8.48828 17.701V10.2738H41.5111V17.701C41.5111 18.1056 41.839 18.4335 42.2436 18.4335C42.6482 18.4335 42.976 18.1056 42.976 17.701V9.95749C42.976 9.324 42.4608 8.80896 41.8274 8.80896Z" fill="#7CCCDB"/>
</svg>
