<?xml version="1.0" encoding="utf-8"?>
<!-- Generator: Adobe Illustrator 21.0.2, SVG Export Plug-In . SVG Version: 6.00 Build 0)  -->
<svg version="1.1" id="Layer_1" xmlns:sketch="http://www.bohemiancoding.com/sketch/ns"
	 xmlns="http://www.w3.org/2000/svg" xmlns:xlink="http://www.w3.org/1999/xlink" x="0px" y="0px" viewBox="0 0 84 84"
	 style="enable-background:new 0 0 84 84;" xml:space="preserve">
<style type="text/css">
	.st0{fill:#EEEEEE;stroke:#FFFFFF;stroke-width:4;}
	.st1{fill:none;stroke:#F2EDED;}
	.st2{fill:none;stroke:#005EB8;stroke-width:2;stroke-miterlimit:10;}
	.st3{fill:#005EB8;}
</style>
<g id="Rectangle-290">
	<g sketch:type="MSShapeGroup">
		<path id="path-1" class="st0" d="M41,1h2c22.1,0,40,17.9,40,40v2c0,22.1-17.9,40-40,40h-2C18.9,83,1,65.1,1,43v-2
			C1,18.9,18.9,1,41,1z"/>
	</g>
	<g>
		<path id="path-1_1_" class="st1" d="M41,1h2c22.1,0,40,17.9,40,40v2c0,22.1-17.9,40-40,40h-2C18.9,83,1,65.1,1,43v-2
			C1,18.9,18.9,1,41,1z"/>
	</g>
</g>
<g>
	<path class="st2" d="M59,26.1c-1.4-0.2-2.8-0.3-4.2-0.7c-4.4-1.1-8.3-3.4-11.9-6.2c-0.9-0.7-0.9-0.7-1.8,0
		c-4.8,3.7-10,6.4-15.9,6.9c-0.9,0.1-1,0.3-1,1.3c0,5.4,0,10.9,0,16.3c0,1.4,0.2,2.7,0.4,4.1c0.7,3.5,2.4,6.4,4.6,8.9
		c3.5,4,7.8,6.7,12.4,8.6c0.3,0.1,0.6,0.1,0.9,0c1.6-0.8,3.2-1.5,4.8-2.4c3.7-2.2,7-4.9,9.5-8.7c1.7-2.7,2.9-5.6,3-8.9
		c0.1-3,0.1-5.9,0.1-8.9c0-3,0-6.1,0-9.1C59.9,26.4,59.6,26.1,59,26.1z"/>
</g>
<path class="st3" d="M56.2,29.2c-0.9-0.1-1.9-0.3-2.8-0.5c-3.8-0.9-7.5-2.8-11.4-5.7c-4.9,3.6-9.4,5.6-14.2,6.3l0,2.6
	c0,3.8,0,7.7,0,11.5c0,1.1,0.1,2.2,0.4,3.3c0.5,2.5,1.7,4.9,3.7,7.2c2.6,3,5.9,5.3,10,7.1l0.3-0.2c1.2-0.6,2.3-1.1,3.3-1.7
	c3.5-2.1,6.1-4.5,8-7.4c1.5-2.4,2.3-4.7,2.4-7.1c0.1-2.4,0.1-4.8,0.1-7.2L56.2,29.2z M42,52.5c-6.3,0-11.5-5.2-11.5-11.5
	c0-6.3,5.2-11.5,11.5-11.5c6.4,0,11.5,5.2,11.5,11.5C53.5,47.4,48.4,52.5,42,52.5z"/>
<g>
	<path class="st3" d="M49.4,39.5c-0.7,0-1.2,0.4-1.5,1h-1.3c-0.1-0.8-0.4-1.5-0.9-2.2l0.9-0.9c0.6,0.2,1.3,0.1,1.8-0.4
		c0.6-0.6,0.6-1.7,0-2.3c-0.6-0.6-1.7-0.6-2.3,0c-0.5,0.5-0.6,1.2-0.4,1.8l-0.9,0.9c-0.6-0.5-1.4-0.8-2.2-0.9v-1.3
		c0.6-0.3,1-0.8,1-1.5c0-0.9-0.7-1.6-1.6-1.6c-0.9,0-1.6,0.7-1.6,1.6c0,0.7,0.4,1.2,1,1.5v1.3c-0.8,0.1-1.5,0.4-2.2,0.9l-0.9-0.9
		c0.2-0.6,0.1-1.3-0.4-1.8v0c-0.6-0.6-1.7-0.6-2.3,0c-0.6,0.6-0.6,1.7,0,2.3c0.5,0.5,1.2,0.6,1.8,0.4l0.9,0.9
		c-0.5,0.6-0.8,1.4-0.9,2.2h-1.3c-0.3-0.6-0.8-1-1.5-1c-0.9,0-1.6,0.7-1.6,1.6c0,0.9,0.7,1.6,1.6,1.6c0.7,0,1.2-0.4,1.5-1h1.3
		c0.1,0.8,0.4,1.5,0.9,2.2l-0.9,0.9c-0.6-0.2-1.3-0.1-1.8,0.4c-0.6,0.6-0.6,1.7,0,2.3c1.3,1.3,3.3-0.1,2.7-1.8l0.9-0.9
		c0.6,0.5,1.4,0.8,2.2,0.9v1.3c-0.6,0.3-1,0.8-1,1.5c0,0.9,0.7,1.6,1.6,1.6c0.9,0,1.6-0.7,1.6-1.6c0-0.7-0.4-1.2-1-1.5v-1.3
		c0.8-0.1,1.5-0.4,2.2-0.9l0.9,0.9c-0.7,1.6,1.4,3,2.7,1.8c0.6-0.6,0.6-1.7,0-2.3c-0.5-0.5-1.2-0.6-1.8-0.4L45.7,44
		c0.5-0.6,0.8-1.4,0.9-2.2h1.3c0.3,0.6,0.8,1,1.5,1c0.9,0,1.6-0.7,1.6-1.6C51,40.3,50.3,39.5,49.4,39.5L49.4,39.5z M42,42.6
		c-0.8,0-1.4-0.6-1.4-1.4c0-0.8,0.6-1.4,1.4-1.4c0.8,0,1.4,0.6,1.4,1.4C43.4,42,42.8,42.6,42,42.6L42,42.6z M42,42.6"/>
</g>
</svg>
