<?xml version="1.0" encoding="utf-8"?>
<!-- Generator: Adobe Illustrator 21.0.2, SVG Export Plug-In . SVG Version: 6.00 Build 0)  -->
<svg version="1.1" id="Layer_1" xmlns:sketch="http://www.bohemiancoding.com/sketch/ns"
	 xmlns="http://www.w3.org/2000/svg" xmlns:xlink="http://www.w3.org/1999/xlink" x="0px" y="0px" viewBox="0 0 150 150"
	 style="enable-background:new 0 0 150 150;" xml:space="preserve">
<style type="text/css">
	.st0{fill:#EEEEEE;}
	.st1{fill:#FFFFFF;}
	.st2{fill:#005EB8;}
	.st3{fill:#97ACB7;}
	.st4{fill:#48A23F;}
	.st5{fill:#ED8B00;}
	.st6{fill:#7E939E;}
	.st7{fill:#353F49;}
	.st8{fill:#2C353D;}
	.st9{fill:#6DB565;}
	.st10{fill:#0070BC;}
</style>
<g sketch:type="MSShapeGroup">
	<g id="path-1">
		<path class="st0" d="M73,150c-40.4,0-73-32.8-73-73.2V73C0,32.6,32.6,0,73,0h3.8C117.2,0,150,32.8,150,73.2V77
			c0,40.4-32.8,73.2-73.2,73.2H73V150z"/>
		<path class="st1" d="M76.8,3.6c38.4,0,69.7,31.1,69.7,69.7V77c0,38.3-31.2,69.7-69.7,69.7h-3.7c-38.4-0.2-69.6-31.5-69.6-69.8
			v-3.7c0-38.3,31.2-69.5,69.6-69.5L76.8,3.6 M76.7,2h-3.6C33.9,2,2,33.7,2,73.1v3.6C2,116.1,33.9,148,73.3,148h3.6
			c39.2,0,71.1-31.9,71.1-71.3v-3.6C148,33.7,116.1,2,76.7,2L76.7,2z"/>
	</g>
</g>
<g>
	<g>
		<rect x="32.6" y="53" class="st1" width="85.8" height="56.9"/>
		<rect x="32.6" y="40.7" class="st2" width="85.8" height="12.4"/>
		<g>
			<rect x="62.5" y="100.7" class="st3" width="42.3" height="1.8"/>
			<rect x="62.6" y="97.1" class="st3" width="26.7" height="1.8"/>
			<rect x="62.6" y="93.3" class="st3" width="32.6" height="1.8"/>
			<rect x="62.5" y="89.7" class="st3" width="49.6" height="1.8"/>
		</g>
		<g>
			<rect x="62.5" y="71.3" class="st3" width="42.3" height="1.8"/>
			<rect x="62.6" y="67.7" class="st3" width="26.7" height="1.8"/>
			<rect x="62.6" y="64" class="st3" width="32.6" height="1.8"/>
			<rect x="62.5" y="60.4" class="st3" width="49.6" height="1.8"/>
		</g>
		<g>
			<rect x="65.1" y="76.4" class="st3" width="22.9" height="1.8"/>
			<rect x="72.8" y="80.4" class="st3" width="15.2" height="1.8"/>
		</g>
	</g>
	<rect x="37.9" y="60.5" class="st4" width="18.5" height="18.5"/>
	<rect x="37.9" y="84.9" class="st5" width="18.5" height="18.5"/>
</g>
<g>
	<rect x="45.2" y="38.9" class="st3" width="4" height="10.2"/>
	<path class="st6" d="M49.2,45.5c-1.3-0.1-2.7-0.1-4,0v3.6h4V45.5z"/>
	<path class="st7" d="M62.1,83.7c8.3-8.3,8.3-21.6,0-29.9s-21.6-8.3-29.9,0s-8.3,21.6,0,29.9S53.9,92,62.1,83.7z M35.3,56.9
		c6.6-6.6,17.2-6.6,23.8,0s6.6,17.2,0,23.8s-17.2,6.6-23.8,0S28.7,63.5,35.3,56.9z"/>
	<path class="st7" d="M45.2,15.3h3.9c1.4,0,2.6,1.2,2.6,2.6v22.6c0,1.4-1.2,2.6-2.6,2.6h-3.9c-1.4,0-2.6-1.2-2.6-2.6V17.9
		C42.6,16.5,43.8,15.3,45.2,15.3z"/>
	<path class="st8" d="M48,17.9v22.6c0,1.4-1.2,2.6-2.6,2.6h-0.2l0,0h3.9c1.4,0,2.6-1.2,2.6-2.6V17.9c0-1.4-1.2-2.6-2.6-2.6h-3.7
		C46.9,15.3,48,16.5,48,17.9z"/>
	<path class="st3" d="M42.6,38.2v2.3c0,1.4,1.2,2.6,2.6,2.6h3.9c1.4,0,2.6-1.2,2.6-2.6v-2.3H42.6z"/>
	<g>
		<g>
			<path class="st6" d="M48,38.2v2.3c0,1.4-1.2,2.6-2.6,2.6h-0.2l0,0h3.9c1.4,0,2.6-1.2,2.6-2.6v-2.3H48z"/>
		</g>
	</g>
</g>
<g>
	<g>
		<path class="st9" d="M126.7,81.6c0,0-16-6.2-16.5-6.3c-0.3,0.1-16.5,6.3-16.5,6.3v11.6c0,8.1,2.3,18.6,16.5,22.5
			c14.1-3.9,16.4-14.7,16.4-22.5C126.7,89.2,126.7,81.6,126.7,81.6L126.7,81.6z"/>
	</g>
	<path class="st4" d="M93.7,93.2c0,8.1,2.3,18.6,16.5,22.5V75.3c-0.6,0.2-16.5,6.3-16.5,6.3V93.2L93.7,93.2z"/>
	<path class="st10" d="M123.5,83.8c0,0-12.9-5.2-13.3-5.4c-0.3,0.1-13.3,5.1-13.3,5.1v9.8c0,6.8,1.3,16,13.3,19.3
		c11.9-3.3,13.3-12.7,13.3-19.3C123.5,89.9,123.5,83.8,123.5,83.8L123.5,83.8z"/>
	<path class="st2" d="M110.2,78.4c-0.3,0.1-13.3,5.1-13.3,5.1v9.8c0,6.8,1.3,16,13.3,19.3V78.4z"/>
	<path class="st5" d="M116.5,92.4c-0.1-0.3-0.4-0.5-0.7-0.6l-3.3-0.5l-1.4-2.9c-0.2-0.3-0.5-0.5-0.8-0.5s-0.7,0.2-0.8,0.5l-1.4,2.9
		l-3.3,0.5c-0.3,0.1-0.6,0.3-0.7,0.6c-0.1,0.3,0,0.7,0.2,0.9l2.4,2.4l-0.6,3.3c-0.1,0.3,0.1,0.7,0.4,0.9c0.2,0.1,0.3,0.2,0.5,0.2
		s0.3,0,0.4-0.1l2.9-1.5l2.9,1.5c0.1,0.1,0.3,0.1,0.4,0.1c0.2,0,0.4-0.1,0.5-0.2c0.3-0.2,0.4-0.5,0.4-0.9l-0.6-3.3l2.4-2.4
		C116.5,93,116.6,92.7,116.5,92.4L116.5,92.4z"/>
</g>
</svg>
