<?xml version="1.0" encoding="utf-8"?>
<!-- Generator: Adobe Illustrator 21.0.2, SVG Export Plug-In . SVG Version: 6.00 Build 0)  -->
<svg version="1.1" id="Layer_1" xmlns:sketch="http://www.bohemiancoding.com/sketch/ns"
	 xmlns="http://www.w3.org/2000/svg" xmlns:xlink="http://www.w3.org/1999/xlink" x="0px" y="0px" viewBox="0 0 84 84"
	 style="enable-background:new 0 0 84 84;" xml:space="preserve">
<style type="text/css">
	.st0{fill:#EEEEEE;stroke:#FFFFFF;stroke-width:4;}
	.st1{fill:none;stroke:#F2EDED;}
	.st2{fill:#005EB8;}
	.st3{fill:#005EB8;stroke:#005EB8;stroke-width:0.9309;stroke-miterlimit:10;}
</style>
<g id="Rectangle-290">
	<g sketch:type="MSShapeGroup">
		<path id="path-1" class="st0" d="M41,1h2c22.1,0,40,17.9,40,40v2c0,22.1-17.9,40-40,40h-2C18.9,83,1,65.1,1,43v-2
			C1,18.9,18.9,1,41,1z"/>
	</g>
	<g>
		<path id="path-1_1_" class="st1" d="M41,1h2c22.1,0,40,17.9,40,40v2c0,22.1-17.9,40-40,40h-2C18.9,83,1,65.1,1,43v-2
			C1,18.9,18.9,1,41,1z"/>
	</g>
</g>
<g>
	<g>
		<g>
			<g id="search">
				<path class="st2" d="M56.2,50.8H54l-2.5-2.5c2.8-3.1,4.3-7.1,4.3-11.3c0-9.7-7.8-17.5-17.5-17.5c-9.7,0-17.5,7.8-17.5,17.5
					s7.8,17.5,17.5,17.5c0,0,0,0,0.1,0c4.2,0,8.2-1.5,11.3-4.3l2.5,2.5v2.2l7.8,7.8l4-4L56.2,50.8z M38.3,50.9
					c-7.7,0-13.9-6.2-13.9-13.9c0-7.7,6.2-13.9,13.9-13.9c7.7,0,13.9,6.2,13.9,13.9l0,0c0,7.7-6.1,13.9-13.8,13.9
					C38.4,50.9,38.4,50.9,38.3,50.9L38.3,50.9z"/>
			</g>
		</g>
	</g>
</g>
<g>
	<path class="st3" d="M35.1,33.9c0,0,0,0.1-0.1,0.2c-0.4,0.5-1.1,1.1-2.1,1.8c-0.9,0.6-1.7,1-2.4,1.3c-0.1,0-0.2,0.1-0.2,0.1
		c0,0,0.1,0.1,0.2,0.2c0.7,0.3,1.5,0.8,2.4,1.4c0.9,0.6,1.6,1.2,2.1,1.8c0.1,0.1,0.1,0.2,0.1,0.2c0,0-0.1,0.2-0.3,0.6
		s-0.3,0.6-0.4,0.7c0,0.1-0.1,0.1-0.1,0.1c0,0-0.1,0-0.2-0.1c-1.3-1.1-2.1-1.7-2.5-2c-0.9-0.6-1.8-1.2-2.8-1.6
		c-0.2-0.1-0.2-0.2-0.2-0.4v-1.4c0-0.2,0.1-0.3,0.3-0.4c0.4-0.2,1.3-0.7,2.6-1.5c0.4-0.2,0.8-0.6,1.4-1.1c0.6-0.5,1.1-0.9,1.4-1.1
		c0.1-0.1,0.2-0.1,0.2-0.1C34.5,32.5,34.8,33,35.1,33.9z"/>
	<path class="st3" d="M41.3,29.6c0,0,0,0.1,0,0.2c-0.4,1.6-1.1,4.1-1.9,7.4c-0.3,1.1-0.7,2.7-1.2,4.9c-0.1,0.5-0.3,1.3-0.6,2.4
		c0,0.1-0.1,0.2-0.2,0.2c-0.9-0.4-1.4-0.6-1.5-0.6c0,0,0,0,0-0.1c0-0.1,0-0.2,0.1-0.3c0.5-1.6,1.1-4.2,2-7.6c0.4-1.6,0.9-3.9,1.7-7
		c0-0.1,0.1-0.2,0.2-0.2c0,0,0.3,0.1,0.8,0.3C41.1,29.4,41.3,29.5,41.3,29.6z"/>
	<path class="st3" d="M48.7,38.1c0,0.2-0.1,0.3-0.2,0.4c-1.8,0.9-3.5,2.1-5.3,3.7c0,0-0.1,0.1-0.2,0.1c-0.5-0.9-0.8-1.4-0.8-1.4
		c0-0.3,0.7-0.9,2-1.8c1.2-0.8,2-1.3,2.5-1.5c0.1,0,0.2-0.1,0.2-0.2c0,0-0.1-0.1-0.2-0.1c-2-0.9-3.5-1.9-4.5-3.1
		c-0.1-0.1-0.1-0.1-0.1-0.2c0,0,0.1-0.2,0.3-0.6c0.2-0.4,0.3-0.6,0.3-0.7c0-0.1,0-0.1,0.1-0.1c0,0,0.1,0,0.2,0.1
		c0.6,0.5,1.5,1.2,2.7,2.2c0.7,0.5,1.2,0.7,1.3,0.8c0.6,0.3,1,0.6,1.3,0.7c0.2,0.1,0.3,0.2,0.3,0.4L48.7,38.1L48.7,38.1z"/>
</g>
</svg>
