<?xml version="1.0" encoding="utf-8"?>
<!-- Generator: Adobe Illustrator 21.0.2, SVG Export Plug-In . SVG Version: 6.00 Build 0)  -->
<svg version="1.1" id="Layer_1" xmlns:sketch="http://www.bohemiancoding.com/sketch/ns"
	 xmlns="http://www.w3.org/2000/svg" xmlns:xlink="http://www.w3.org/1999/xlink" x="0px" y="0px" viewBox="0 0 84 84"
	 style="enable-background:new 0 0 84 84;" xml:space="preserve">
<style type="text/css">
	.st0{fill:#EEEEEE;stroke:#FFFFFF;stroke-width:4;}
	.st1{fill:none;stroke:#F2EDED;}
	.st2{fill:#005EB8;}
</style>
<g id="Rectangle-290">
	<g sketch:type="MSShapeGroup">
		<path id="path-1" class="st0" d="M41,1h2c22.1,0,40,17.9,40,40v2c0,22.1-17.9,40-40,40h-2C18.9,83,1,65.1,1,43v-2
			C1,18.9,18.9,1,41,1z"/>
	</g>
	<g>
		<path id="path-1_1_" class="st1" d="M41,1h2c22.1,0,40,17.9,40,40v2c0,22.1-17.9,40-40,40h-2C18.9,83,1,65.1,1,43v-2
			C1,18.9,18.9,1,41,1z"/>
	</g>
</g>
<g>
	<g>
		<g>
			<g>
				<rect x="41.3" y="15.3" class="st2" width="1.5" height="8.6"/>
				<polygon class="st2" points="42,56.6 37.7,60.9 46.3,60.9 				"/>
			</g>
		</g>
		<g>
			<g>
				<rect x="41.2" y="60.2" class="st2" width="1.5" height="8.6"/>
				<polygon class="st2" points="46.3,23.1 37.7,23.1 42,27.4 				"/>
			</g>
		</g>
		<g>
			<g>
				<rect x="60.2" y="41.3" class="st2" width="8.6" height="1.5"/>
				<polygon class="st2" points="27.2,41.9 23,37.6 23,46.1 				"/>
			</g>
		</g>
		<g>
			<g>
				<rect x="15.3" y="41.2" class="st2" width="8.6" height="1.5"/>
				<polygon class="st2" points="57,42 61.3,46.3 61.3,37.7 				"/>
			</g>
		</g>
		<g>
			<g>
				
					<rect x="52.9" y="26.1" transform="matrix(0.7072 -0.707 0.707 0.7072 -2.2165 48.2779)" class="st2" width="8.6" height="1.5"/>
				<polygon class="st2" points="31.2,52.8 25.2,52.8 31.2,58.8 				"/>
			</g>
		</g>
		<g>
			<g>
				
					<rect x="22.5" y="56.4" transform="matrix(0.7068 -0.7074 0.7074 0.7068 -32.5862 35.7357)" class="st2" width="8.6" height="1.5"/>
				<polygon class="st2" points="58.8,31.2 52.8,25.2 52.8,31.2 				"/>
			</g>
		</g>
		<g>
			<g>
				
					<rect x="56.4" y="52.9" transform="matrix(0.7071 -0.7071 0.7071 0.7071 -23.6852 57.1816)" class="st2" width="1.5" height="8.6"/>
				<polygon class="st2" points="25.3,31.3 31.3,31.3 31.3,25.3 				"/>
			</g>
		</g>
		<g>
			<g>
				
					<rect x="26.1" y="22.5" transform="matrix(0.7071 -0.7071 0.7071 0.7071 -11.1076 26.817)" class="st2" width="1.5" height="8.6"/>
				<polygon class="st2" points="58.9,52.9 52.9,52.9 52.9,58.9 				"/>
			</g>
		</g>
	</g>
</g>
<g>
	<g>
		<g>
			<path class="st2" d="M42,54.2c-0.1,0-0.3,0-0.4-0.1c-2.6-1.1-4.7-2.6-6.4-4.5c-1.3-1.5-2.1-3-2.4-4.7c-0.1-0.7-0.2-1.4-0.2-2.1
				c0-2,0-4.1,0-6.1l0-2c0-0.6,0.1-1.2,1.1-1.2c2.5-0.2,4.9-1.2,7.6-3.3c0.6-0.5,1-0.5,1.6,0c2,1.6,3.8,2.5,5.7,3
				c0.5,0.1,1,0.2,1.5,0.3l0.5,0.1c0.4,0.1,1,0.3,1,1.1v5.1c0,1.3,0,2.6,0,3.9c-0.1,1.6-0.6,3.2-1.6,4.8c-1.2,1.8-2.8,3.3-4.9,4.5
				c-0.6,0.4-1.3,0.7-1.9,1l-0.5,0.2C42.4,54.2,42.2,54.2,42,54.2z M33.7,34.6C33.7,34.7,33.7,34.7,33.7,34.6l0,2.1c0,2,0,4.1,0,6.1
				c0,0.6,0.1,1.3,0.2,1.9c0.3,1.5,1,2.9,2.2,4.2c1.5,1.7,3.5,3.1,6,4.1l0.5-0.3c0.6-0.3,1.2-0.6,1.8-0.9c2-1.2,3.4-2.5,4.5-4.2
				c0.9-1.4,1.4-2.7,1.4-4.1c0-1.3,0-2.6,0-3.9v-5l-0.5-0.1c-0.5-0.1-1.1-0.1-1.6-0.3c-2-0.5-4-1.5-6.2-3.2c0,0,0,0-0.1-0.1
				c0,0,0,0-0.1,0.1C39.1,33.3,36.4,34.4,33.7,34.6z"/>
		</g>
	</g>
	<path class="st2" d="M48.8,35.9c-0.4-0.1-0.9-0.1-1.4-0.2c-1.8-0.4-3.6-1.3-5.5-2.8c-2.3,1.7-4.5,2.7-6.8,3l0,1.2
		c0,1.8,0,3.7,0,5.6c0,0.5,0.1,1.1,0.2,1.6c0.2,1.2,0.8,2.4,1.8,3.4c1.3,1.4,2.8,2.6,4.8,3.4l0.2-0.1c0.6-0.3,1.1-0.5,1.6-0.8
		c1.7-1,3-2.2,3.9-3.5c0.7-1.1,1.1-2.2,1.2-3.4c0-1.2,0-2.3,0-3.5L48.8,35.9z M46.5,38.4c-2.5,2.3-4.5,5.5-5.1,7
		c0,0-0.1,0.1-0.1,0.1c0,0,0,0,0,0c0,0-0.1,0-0.1,0l-3.7-3.8c0,0,1.1-1,1.1-1l2,1.6c0.8-0.9,2.7-3,5.4-4.7c0,0,0.4,0.6,0.4,0.6
		C46.5,38.3,46.5,38.4,46.5,38.4z"/>
</g>
</svg>
