<svg xmlns="http://www.w3.org/2000/svg" viewBox="0 0 548 390.3"><defs><style>.cls-1{fill:#bdddf4;}.cls-2{fill:none;stroke:#bdddf4;stroke-linecap:round;stroke-linejoin:round;stroke-width:3px;stroke-dasharray:5 10;}.cls-3{fill:#b0bec5;}.cls-4{fill:#e4f2fb;}.cls-5{fill:#f4ae7a;}.cls-6{fill:#81c784;}.cls-7{fill:#6a797f;}.cls-8{fill:#f5fbf7;}.cls-9{fill:#90a4ae;}.cls-10{fill:#95c8ec;}.cls-11,.cls-17{fill:#fff;}.cls-12{fill:#71be71;}.cls-13{fill:#e8e8e8;}.cls-14{fill:#57a7db;}.cls-15{fill:#58686d;}.cls-16{fill:#71be72;}.cls-17{stroke:#d0d8dc;stroke-miterlimit:10;stroke-width:1.53px;}.cls-18{fill:#99cf8c;}.cls-19{fill:#54b958;}.cls-20{opacity:0.2;}.cls-21{fill:#d0d8dc;}.cls-22{fill:#78909c;}.cls-23{fill:#e6e6e6;}.cls-24{fill:#f7cdb9;}.cls-25{fill:#f6ccb8;}.cls-26{fill:#58a6da;}.cls-27{fill:#f7dbd0;}.cls-28{fill:#223238;}.cls-29{fill:#55666b;}.cls-30{fill:#546e7a;}.cls-31{fill:#e6e7e8;}.cls-32{fill:#37474f;}.cls-33{fill:#32303a;}.cls-34{fill:#4c3023;}.cls-35{fill:#af774e;}.cls-36{fill:#bf8858;}.cls-37{fill:#e8b6a3;}.cls-38{fill:#a87148;}</style></defs><title>managed-security-services</title><g id="Layer_5" data-name="Layer 5"><path id="_Path_6" data-name=" Path 6" class="cls-1" d="M69.32,176.39H61.38v6.47H59.79a4.38,4.38,0,0,0-4.39,4.39V227.9a4.38,4.38,0,0,0,4.39,4.39h1.59v6.47h7.93V232.3H70.9a4.38,4.38,0,0,0,4.39-4.39V187.26a4.38,4.38,0,0,0-4.39-4.39H69.32v-6.47Z"/><polyline class="cls-2" points="64.8 197.38 64.8 44.15 525.5 44.15 525.87 350.65 258 350.65"/><path class="cls-3" d="M229.36,81.14H112.69A15.29,15.29,0,0,0,97.49,96.34V318.21a15.29,15.29,0,0,0,15.19,15.19H229.36a15.29,15.29,0,0,0,15.19-15.19V96.34A15.11,15.11,0,0,0,229.36,81.14Z"/><rect class="cls-4" x="122.15" y="105.51" width="97.46" height="203.52"/><path class="cls-3" d="M211.3,245.68H130.46v53.6H211.3ZM203.56,291H138.2V254h65.36Z"/><rect class="cls-5" x="188.08" y="260.3" width="7.74" height="24.37"/><rect class="cls-5" x="175.18" y="260.3" width="8.31" height="24.37"/><path class="cls-6" d="M154.54,285.24a13.19,13.19,0,1,0,0-26.37,13,13,0,0,0-13.19,13.19A13.34,13.34,0,0,0,154.54,285.24Zm0-18.06a5,5,0,0,1,4.87,4.87,4.83,4.83,0,0,1-4.87,4.87,5,5,0,0,1-4.87-4.87A4.83,4.83,0,0,1,154.54,267.18Z"/><path class="cls-3" d="M211.3,180.9H130.46v53.32H211.3Zm-7.74,45H138.2V188.64h65.36Z"/><rect class="cls-5" x="188.08" y="194.94" width="7.74" height="24.37"/><rect class="cls-5" x="175.18" y="194.94" width="8.31" height="24.37"/><path class="cls-6" d="M154.54,220.17A13.15,13.15,0,0,0,167.72,207a13.19,13.19,0,0,0-26.37,0A13.34,13.34,0,0,0,154.54,220.17Zm0-18.06a4.87,4.87,0,1,1-4.87,4.87A4.83,4.83,0,0,1,154.54,202.11Z"/><path class="cls-3" d="M211.3,115.54H130.46v53.32H211.3Zm-7.74,45H138.2V123.28h65.36Z"/><rect class="cls-5" x="188.08" y="129.59" width="7.74" height="24.37"/><rect class="cls-5" x="175.18" y="129.59" width="8.31" height="24.37"/><path class="cls-6" d="M154.54,154.81a13.19,13.19,0,1,0,0-26.37,13,13,0,0,0-13.19,13.19A13.34,13.34,0,0,0,154.54,154.81Zm0-18.06a4.87,4.87,0,1,1-4.87,4.87A4.67,4.67,0,0,1,154.54,136.75Z"/><path class="cls-3" d="M382,81.14H265.37a15.29,15.29,0,0,0-15.19,15.19V318.21a15.29,15.29,0,0,0,15.19,15.19H382a15.29,15.29,0,0,0,15.19-15.19V96.34A15.11,15.11,0,0,0,382,81.14Z"/><rect class="cls-4" x="274.83" y="105.51" width="97.46" height="203.52"/><path class="cls-3" d="M364,245.68H283.14v53.6H364ZM356.24,291H290.88V254h65.36Z"/><rect class="cls-5" x="340.76" y="260.3" width="7.74" height="24.37"/><rect class="cls-5" x="327.86" y="260.3" width="8.31" height="24.37"/><path class="cls-6" d="M307.22,285.24A13.19,13.19,0,1,0,294,272.05,13.34,13.34,0,0,0,307.22,285.24Zm0-18.06a5,5,0,0,1,4.87,4.87,4.83,4.83,0,0,1-4.87,4.87,5,5,0,0,1-4.87-4.87A4.83,4.83,0,0,1,307.22,267.18Z"/><path class="cls-3" d="M364,180.9H283.14v53.32H364Zm-7.74,45H290.88V188.64h65.36Z"/><rect class="cls-5" x="340.76" y="194.94" width="7.74" height="24.37"/><rect class="cls-5" x="327.86" y="194.94" width="8.31" height="24.37"/><path class="cls-6" d="M307.22,220.17A13.15,13.15,0,0,0,320.41,207a13,13,0,0,0-13.19-13.19A13.15,13.15,0,0,0,294,207,13.34,13.34,0,0,0,307.22,220.17Zm0-18.06a4.87,4.87,0,1,1-4.87,4.87A4.83,4.83,0,0,1,307.22,202.11Z"/><path class="cls-3" d="M364,115.54H283.14v53.32H364Zm-7.74,45H290.88V123.28h65.36Z"/><rect class="cls-5" x="340.76" y="129.59" width="7.74" height="24.37"/><rect class="cls-5" x="327.86" y="129.59" width="8.31" height="24.37"/><path class="cls-6" d="M307.22,154.81A13.19,13.19,0,1,0,294,141.63,13.34,13.34,0,0,0,307.22,154.81Zm0-18.06a4.87,4.87,0,1,1-4.87,4.87A4.67,4.67,0,0,1,307.22,136.75Z"/><g id="_Group_6" data-name=" Group 6"><path id="_Path_4" data-name=" Path 4" class="cls-7" d="M44.95,201.53a6.33,6.33,0,0,0-6.27,6.27h0V362.66a6.24,6.24,0,0,0,6.18,6.27h240a6.33,6.33,0,0,0,6.27-6.27h0V207.8a6.33,6.33,0,0,0-6.27-6.27H44.95Z"/><path id="_Path_5" data-name=" Path 5" class="cls-8" d="M24.9,376.05H304.69a13.34,13.34,0,0,0,13.3-13.3H11.51A13.42,13.42,0,0,0,24.9,376.05Z"/><path id="_Path_6-2" data-name=" Path 6" class="cls-3" d="M13.6,369.88a13.86,13.86,0,0,0,11.21,6.27H304.6a12.74,12.74,0,0,0,11.21-6.27Z"/><circle id="_Path_7" data-name=" Path 7" class="cls-9" cx="35.83" cy="365.98" r="1.43"/><circle id="_Path_8" data-name=" Path 8" class="cls-9" cx="31.65" cy="365.98" r="1.62"/><circle id="_Path_9" data-name=" Path 9" class="cls-9" cx="27.47" cy="365.98" r="1.62"/></g><g id="_Group_2-2" data-name=" Group 2-2"><rect class="cls-10" x="48.94" y="211.6" width="231.62" height="144.41"/></g><rect id="_Path_23" data-name=" Path 23" class="cls-1" x="162.57" y="226.51" width="31.26" height="30.88"/><rect id="_Path_24" data-name=" Path 24" class="cls-1" x="59.01" y="226.51" width="93.58" height="30.88"/><rect id="_Path_25" data-name=" Path 25" class="cls-1" x="58.82" y="268.51" width="93.77" height="30.88"/><rect id="_Path_26" data-name=" Path 26" class="cls-1" x="57.49" y="310.59" width="93.77" height="30.88"/><rect id="_Path_27" data-name=" Path 27" class="cls-1" x="201.8" y="226.51" width="31.26" height="30.88"/><rect id="_Path_28" data-name=" Path 28" class="cls-1" x="162.57" y="268.51" width="31.26" height="30.88"/><rect id="_Path_29" data-name=" Path 29" class="cls-1" x="201.8" y="268.51" width="31.26" height="30.88"/><rect id="_Path_30" data-name=" Path 30" class="cls-1" x="240.95" y="268.51" width="31.26" height="30.88"/><rect id="_Path_30-2" data-name=" Path 30-2" class="cls-1" x="240.95" y="226.51" width="31.26" height="30.88"/><rect id="_Path_31" data-name=" Path 31" class="cls-1" x="162.57" y="310.59" width="31.26" height="30.88"/><rect id="_Path_32" data-name=" Path 32" class="cls-1" x="201.8" y="310.59" width="31.26" height="30.88"/><rect id="_Path_33" data-name=" Path 33" class="cls-1" x="240.95" y="310.59" width="31.26" height="30.88"/><polygon class="cls-11" points="261.73 375.15 177.29 375.15 177.29 263.15 261.73 263.15 261.73 375.15"/><path class="cls-3" d="M247.48,291.74H208.83a3.11,3.11,0,0,1-3.15-3.15h0a3.11,3.11,0,0,1,3.15-3.15h38.66a3.11,3.11,0,0,1,3.15,3.15h0A3.17,3.17,0,0,1,247.48,291.74Z"/><circle class="cls-12" cx="192.25" cy="289.29" r="6"/><path class="cls-3" d="M247.48,311.27H208.83a3.11,3.11,0,0,1-3.15-3.15h0a3.11,3.11,0,0,1,3.15-3.15h38.66a3.11,3.11,0,0,1,3.15,3.15h0A3,3,0,0,1,247.48,311.27Z"/><circle class="cls-12" cx="192.25" cy="308.93" r="6"/><path class="cls-3" d="M247.48,331H208.83a3.11,3.11,0,0,1-3.15-3.15h0a3.11,3.11,0,0,1,3.15-3.15h38.66a3.11,3.11,0,0,1,3.15,3.15h0A3.11,3.11,0,0,1,247.48,331Z"/><circle class="cls-12" cx="192.25" cy="328.56" r="6"/><path class="cls-3" d="M247.48,350.64H208.83a3.11,3.11,0,0,1-3.15-3.15h0a3.11,3.11,0,0,1,3.15-3.15h38.66a3.11,3.11,0,0,1,3.15,3.15h0A3.11,3.11,0,0,1,247.48,350.64Z"/><circle class="cls-12" cx="192.25" cy="348.3" r="6"/><path id="_Path_34" data-name=" Path 34" class="cls-13" d="M110.33,129H37.08a11.43,11.43,0,0,1-11.4-11.4V28.19a11.43,11.43,0,0,1,11.4-11.4h73.25a11.43,11.43,0,0,1,11.4,11.4v89.4a11.5,11.5,0,0,1-11.4,11.4Z"/><rect id="_Path_35" data-name=" Path 35" class="cls-1" x="34.8" y="23.63" width="77.62" height="98.9"/><rect id="_Path_37" data-name=" Path 37" class="cls-14" x="34.8" y="112.46" width="77.62" height="9.98"/><rect id="_Path_38" data-name=" Path 38" class="cls-14" x="43.63" y="37.97" width="17.01" height="17.01"/><rect id="_Path_39" data-name=" Path 39" class="cls-14" x="65.11" y="37.97" width="17.01" height="17.01"/><rect id="_Path_40" data-name=" Path 40" class="cls-14" x="86.58" y="37.97" width="17.01" height="17.01"/><rect id="_Path_41" data-name=" Path 41" class="cls-14" x="43.63" y="60.11" width="17.01" height="17.01"/><rect id="_Path_42" data-name=" Path 42" class="cls-14" x="65.11" y="60.11" width="17.01" height="17.01"/><rect id="_Path_43" data-name=" Path 43" class="cls-14" x="86.58" y="60.11" width="17.01" height="17.01"/><rect id="_Path_44" data-name=" Path 44" class="cls-14" x="43.63" y="81.58" width="17.01" height="17.01"/><rect id="_Path_45" data-name=" Path 45" class="cls-14" x="65.11" y="81.58" width="17.01" height="17.01"/><rect id="_Path_46" data-name=" Path 46" class="cls-14" x="86.58" y="81.58" width="17.01" height="17.01"/><polygon class="cls-12" points="487.61 14.88 487.61 26.78 466.96 26.78 466.96 14.88 396.25 14.88 396.25 26.78 375.6 26.78 375.6 14.88 351.97 14.88 351.97 47.43 511.07 47.43 511.07 14.88 487.61 14.88"/><polygon class="cls-13" points="375.6 47.43 351.97 47.43 351.97 174.15 511.07 174.15 511.07 47.43 487.61 47.43 466.96 47.43 396.25 47.43 375.6 47.43"/><path class="cls-7" d="M461,68.08H375.27v85.75H487.61V68.08Zm-26.43,5.78h20.65V94.52H434.58Zm20.49,47.25H434.41V100.46h20.65ZM408,100.46h20.65v20.65H408Zm0-26.6h20.65V94.52H408Zm-26.6,0H402V94.52H381.38Zm0,26.6H402v20.65H381.38ZM402,147.55H381.38V126.9H402Zm26.6,0H408V126.9h20.65Zm26.43,0H434.41V126.9h20.65Zm26.6,0H461V126.9h20.65Zm0-26.43H461V100.46h20.65ZM461,94.52V73.86h20.65V94.52Z"/><rect class="cls-15" x="375.6" y="3.15" width="20.65" height="23.63"/><rect class="cls-15" x="466.96" y="3.15" width="20.65" height="23.63"/><circle class="cls-16" cx="511.37" cy="141.77" r="32.38"/><path class="cls-11" d="M529,138.79h-14.7v-14.7a3,3,0,1,0-5.95,0v17.68a3,3,0,0,0,3,3H529a3,3,0,0,0,0-5.95Z"/><g id="Layer_5-2" data-name="Layer 5"><g id="_Group_5" data-name=" Group 5"><g id="_Group_6-2" data-name=" Group 6"><g id="_Group_7" data-name=" Group 7"><g id="_Group_8" data-name=" Group 8"><g id="_Group_9" data-name=" Group 9"><g id="_Group_10" data-name=" Group 10"><g id="_Group_11" data-name=" Group 11"><g id="_Group_12" data-name=" Group 12"><g id="_Group_13" data-name=" Group 13"><g id="_Group_14" data-name=" Group 14"><path id="_Path_12" data-name=" Path 12" class="cls-17" d="M275.6,375.15c63.3-17.78,53.33-107.52,53.33-107.52-32.26,3.38-53.33-16.48-53.33-16.48S254.36,271,222.27,267.63C222.27,267.63,212.3,357.2,275.6,375.15Z"/></g></g></g></g></g></g></g></g><g id="_Group_15" data-name=" Group 15"><g id="_Group_16" data-name=" Group 16"><g id="_Group_17" data-name=" Group 17"><g id="_Group_18" data-name=" Group 18"><g id="_Group_19" data-name=" Group 19"><g id="_Group_20" data-name=" Group 20"><g id="_Group_21" data-name=" Group 21"><g id="_Group_22" data-name=" Group 22"><path id="_Path_13" data-name=" Path 13" class="cls-16" d="M232.68,279c19.6-.69,34.34-8.5,42.84-14a84.16,84.16,0,0,0,42.84,14c.35,21.59-3.64,71.28-42.84,84.63C236.41,350.09,232.42,300.4,232.68,279Z"/></g></g></g></g></g></g></g></g><g id="_Group_23" data-name=" Group 23"><g id="_Group_24" data-name=" Group 24"><g id="_Group_25" data-name=" Group 25"><g id="_Group_26" data-name=" Group 26"><g id="_Group_27" data-name=" Group 27"><g id="_Group_28" data-name=" Group 28"><g id="_Group_29" data-name=" Group 29"><g id="_Group_30" data-name=" Group 30"><path id="_Path_14" data-name=" Path 14" class="cls-18" d="M236.75,282.45c-.09,19.42,3.3,64,38.41,76h0V270h0A75.39,75.39,0,0,1,236.75,282.45Z"/></g></g></g></g></g></g></g></g><g id="_Group_31" data-name=" Group 31"><g id="_Group_32" data-name=" Group 32"><g id="_Group_33" data-name=" Group 33"><g id="_Group_34" data-name=" Group 34"><g id="_Group_35" data-name=" Group 35"><g id="_Group_36" data-name=" Group 36"><g id="_Group_37" data-name=" Group 37"><g id="_Group_38" data-name=" Group 38"><path id="_Compound_Path_2" data-name=" Compound Path 2" class="cls-19" d="M275.17,364.49c-39.89-13.61-43.7-64.34-43.53-85.59v-1.13h1.13A83.48,83.48,0,0,0,275,263.9l.52-.43.52.43a82.16,82.16,0,0,0,42.32,13.87h1.13v1.13c.35,21.07-3.56,71.8-43.53,85.59l-.43.17Zm.35-98.33a85.43,85.43,0,0,1-41.8,13.7c0,21.33,4.25,69.28,41.8,82.46,37.81-13.18,42-61.22,41.8-82.46A85.43,85.43,0,0,1,275.51,266.15Z"/></g></g></g></g></g></g></g></g></g><g id="_Group_39" data-name=" Group 39"><g id="_Group_40" data-name=" Group 40"><g id="_Group_41" data-name=" Group 41" class="cls-20"><g id="_Group_42" data-name=" Group 42"><path id="_Compound_Path_3" data-name=" Compound Path 3" d="M251.58,306.39v31.3a2.7,2.7,0,0,0,2.69,2.69h38a2.7,2.7,0,0,0,2.69-2.69v-31.3a2.7,2.7,0,0,0-2.69-2.69h-2.17v-5.9a16.71,16.71,0,0,0-16.65-16.65H273a16.71,16.71,0,0,0-16.65,16.65v5.9h-2.17A2.68,2.68,0,0,0,251.58,306.39Zm10.15-2.6v-6A11.25,11.25,0,0,1,273,286.53h.43a11.25,11.25,0,0,1,11.27,11.27v5.9Z"/></g></g><g id="_Group_43" data-name=" Group 43"><g id="_Group_44" data-name=" Group 44"><g id="_Group_45" data-name=" Group 45"><g id="_Group_46" data-name=" Group 46"><path id="_Path_15" data-name=" Path 15" class="cls-21" d="M254,335.26V304a2.7,2.7,0,0,1,2.69-2.69h37.89a2.7,2.7,0,0,1,2.69,2.69v31.3a2.7,2.7,0,0,1-2.69,2.69h-38a2.7,2.7,0,0,1-2.69-2.69Z"/></g></g></g><g id="_Group_47" data-name=" Group 47"><g id="_Group_48" data-name=" Group 48"><g id="_Group_49" data-name=" Group 49"><g id="_Group_50" data-name=" Group 50"><g id="_Group_51" data-name=" Group 51"><g id="_Group_52" data-name=" Group 52"><g id="_Group_53" data-name=" Group 53"><g id="_Group_54" data-name=" Group 54"><path id="_Path_16" data-name=" Path 16" class="cls-11" d="M292.42,301.44v-5.9a16.71,16.71,0,0,0-16.65-16.65h-.43a16.71,16.71,0,0,0-16.65,16.65v5.9H264v-6a11.25,11.25,0,0,1,11.27-11.27h.52A11.25,11.25,0,0,1,287,295.46v5.9Z"/></g></g></g></g></g></g></g></g><g id="_Group_55" data-name=" Group 55"><g id="_Group_56" data-name=" Group 56"><g id="_Group_57" data-name=" Group 57"><g id="_Group_58" data-name=" Group 58"><g id="_Group_59" data-name=" Group 59"><g id="_Group_60" data-name=" Group 60"><g id="_Group_61" data-name=" Group 61"><g id="_Group_62" data-name=" Group 62"><path id="_Path_17" data-name=" Path 17" class="cls-22" d="M273.61,322v8.06h4.08V322a5.78,5.78,0,0,0,4-5.55,6,6,0,0,0-12.05,0A5.78,5.78,0,0,0,273.61,322Z"/></g></g></g></g></g></g></g></g></g></g></g></g></g><g id="man"><rect class="cls-23" x="333.86" y="329.74" width="22.14" height="9.6"/><rect class="cls-24" x="335.67" y="322.42" width="18.53" height="38.86"/><polygon class="cls-25" points="354.29 322.42 354.29 331.45 353.81 331.26 335.67 328.22 335.67 322.42 354.29 322.42"/><polygon class="cls-23" points="350.11 345.41 344.98 350.36 339.85 345.41 336.81 347.22 342.03 352.92 344.98 352.92 347.92 352.92 353.15 347.22 350.11 345.41"/><path class="cls-26" d="M391.81,374.49c-1-9.6-3.8-18.72-5.23-26.6-1.52-8.65-15.49-9.41-30.59-15,0,0,1.33,17.58-11.12,17.58s-11.12-17.58-11.12-17.58c-15,5.7-29.07,6.46-30.59,15-1.43,8.27-4,17.2-4.85,26.6Z"/><polygon class="cls-11" points="356.09 329.74 344.98 350.36 333.86 329.74 325.79 335.91 333.1 350.55 339.18 347.31 344.98 350.36 350.77 347.31 356.76 350.55 364.17 335.91 356.09 329.74"/><g id="man-2" data-name="man"><path class="cls-27" d="M365.31,293.35l.67-8.17c0-10.74-10.17-19.29-20.81-19.29s-20.81,8.65-20.81,19.29l.67,8.17a5,5,0,0,0-1.62.76,3.75,3.75,0,0,0-1.33,2.95v4a3.91,3.91,0,0,0,3.9,3.9c0,10.07,12.16,19.57,19.29,19.57s19.29-9.6,19.29-19.57a3.83,3.83,0,0,0,3.8-3.9v-4A4.15,4.15,0,0,0,365.31,293.35Z"/><circle class="cls-24" cx="336.24" cy="295.73" r="3.04"/><circle class="cls-28" cx="336.24" cy="294.87" r="3.04"/><circle class="cls-11" cx="337.28" cy="293.92" r="0.76"/><circle class="cls-24" cx="354.1" cy="295.73" r="3.04"/><circle class="cls-28" cx="354.1" cy="294.87" r="3.04"/><circle class="cls-11" cx="355.14" cy="293.92" r="0.76"/><path class="cls-29" d="M337.28,260.86c-20.9-6.94-16.82,33-14.73,39.52a12.66,12.66,0,0,0,2,3.14c.67,1.24-1.71,23.85,20.62,23.85s20-22.71,20.62-23.85a12.66,12.66,0,0,0,2-3.14C369.87,293.92,376.23,248.89,337.28,260.86Zm26,42a11.19,11.19,0,0,1-3.8,8,3.22,3.22,0,0,1-3.33.38c-1.81-.76-6-1.52-11.12-1.52s-9.22.67-11.12,1.52a3.22,3.22,0,0,1-3.33-.38,11.56,11.56,0,0,1-3.8-8s-3-11.12-.76-19.19c1.14-4.09,6.08-6.37,10.17-5.32a35.65,35.65,0,0,0,8.74,1,40.32,40.32,0,0,0,8.74-1c4.09-1,9,1.24,10.17,5.32C366.35,291.83,363.31,302.85,363.31,302.85Z"/><path class="cls-30" d="M366.07,289.74h-4.18a12.68,12.68,0,0,0-5.8-1.14c-4.28,0-7.22.86-8.74,2.47a6.35,6.35,0,0,0-2.95-.86,6,6,0,0,0-2.95.86c-1.52-1.62-4.47-2.47-8.74-2.47a13,13,0,0,0-5.8,1.14h-4.18v3l1.43.48A10.47,10.47,0,0,0,324,295c0,4.56,1.43,7.22,8.84,7.22,6.27,0,8.65-1.81,9.79-7a5.92,5.92,0,0,0,.1-1.81,3.93,3.93,0,0,1,1.81-.38,3.06,3.06,0,0,1,1.9.48,3.94,3.94,0,0,0,.1,1.81c1,5.23,3.52,7,9.79,7,7.41,0,8.84-2.66,8.84-7.22a10.47,10.47,0,0,0-.19-1.71l1.33-.48v-3.14Zm-25,5c-1,4.56-2.76,5.8-8.27,5.8-6.75,0-7.22-2.28-7.22-5.61,0-1.14,0-4.75,7.22-4.75,5,0,6.94,1.14,7.79,2.09A3.11,3.11,0,0,1,341.08,294.78Zm15.11,5.7c-5.51,0-7.32-1.24-8.27-5.8a3.26,3.26,0,0,1,.48-2.57c.76-1,2.76-2.09,7.79-2.09,7.22,0,7.22,3.61,7.22,4.75C363.41,298.29,362.84,300.48,356.19,300.48Z"/></g></g><g id="man-3" data-name="man"><polygon class="cls-25" points="489.86 331.64 487.01 330.31 487.01 321.19 468.48 321.19 468.48 330.31 465.63 331.64 466.39 357.57 468.48 357.57 468.48 361.66 487.01 361.66 487.01 357.57 489.1 357.57 489.86 331.64"/><path class="cls-31" d="M524.54,374.58c-1.62-11.88-3.33-20.14-7.41-29.07-3.33-7.41-12.92-9.22-26.51-13.87a7.12,7.12,0,0,0-1.52-.48v.1c-1,5.13-3.42,11.69-11.4,12.45-8-.76-10.55-7.41-11.4-12.45v-.1a7.12,7.12,0,0,1-1.52.48c-13.59,4.75-23.18,6.56-26.6,13.87-4.09,8.93-5.7,17.2-7.41,29.07Z"/><polygon class="cls-16" points="482.26 342.09 480.45 345.51 475.04 345.51 473.33 342.09 477.79 338.38 482.26 342.09"/><path class="cls-11" d="M477.79,338.38l-5.7,6L461,333l7.41-3.33,2.28,2.09Z"/><path class="cls-11" d="M477.79,338.38l5.7,6L494.61,333l-7.41-3.33-2.28,2.09Z"/><polygon class="cls-16" points="481.4 374.58 480.45 346.27 475.04 346.27 474.18 374.58 481.4 374.58"/><path class="cls-27" d="M497.94,295.16l.67-8.17c0-10.74-10.26-19.29-20.81-19.29C467.06,267.7,457,276.35,457,287l.67,8.17a5,5,0,0,0-1.62.76,3.75,3.75,0,0,0-1.33,2.95v4a3.91,3.91,0,0,0,3.9,3.9c0,10.07,12.16,19.57,19.29,19.57s19.29-9.6,19.29-19.57a3.83,3.83,0,0,0,3.8-3.9v-4A3.78,3.78,0,0,0,497.94,295.16Z"/><circle class="cls-24" cx="468.86" cy="297.34" r="3.04"/><circle class="cls-32" cx="468.86" cy="296.68" r="3.04"/><circle class="cls-11" cx="469.91" cy="295.73" r="0.76"/><circle class="cls-24" cx="486.63" cy="297.34" r="3.04"/><circle class="cls-32" cx="486.63" cy="296.68" r="3.04"/><circle class="cls-11" cx="487.68" cy="295.73" r="0.76"/><path class="cls-7" d="M498.32,274.35c.19-2.57-.57-6.27-2.66-11.5a1.71,1.71,0,0,0-2.95-.38c-2.38,2.95-5.51,2.38-10.64.29-8.55-3.52-14.82-1.33-18.43,2.47-15.49,8-6.08,35.72-6.08,35.72s.29-14.44,5.7-21.09a102.07,102.07,0,0,0,14.35,1.81,104.24,104.24,0,0,0,15.58-1.81c5.8,3.42,4.47,21.09,4.47,21.09S503.92,285.47,498.32,274.35Z"/><path class="cls-11" d="M499.36,291.17h-4.18a12.68,12.68,0,0,0-5.8-1.14c-4.28,0-7.22.86-8.74,2.47a6.35,6.35,0,0,0-2.95-.86,6,6,0,0,0-2.95.86c-1.52-1.62-4.47-2.47-8.74-2.47a13,13,0,0,0-5.8,1.14H456v3l1.43.48a10.47,10.47,0,0,0-.19,1.71c0,3.71,1,8.74,8.84,8.74,7,0,8.93-4.37,9.79-8.55a5.92,5.92,0,0,0,.1-1.81,3.93,3.93,0,0,1,1.81-.38,3.06,3.06,0,0,1,1.9.48,3.94,3.94,0,0,0,.1,1.81c.86,4.28,2.76,8.55,9.79,8.55,7.89,0,8.84-4.94,8.84-8.74a10.47,10.47,0,0,0-.19-1.71l1.33-.48v-3.14Zm-25,5c-1,4.37-2.66,7.32-8.27,7.32-6.37,0-7.22-3.42-7.22-7.22,0-1.14,0-4.75,7.22-4.75,5,0,7,1.14,7.79,2.09A3.26,3.26,0,0,1,474.37,296.2Zm15,7.22c-5.61,0-7.32-2.95-8.27-7.32a3.26,3.26,0,0,1,.48-2.57c.76-1,2.76-2.09,7.79-2.09,7.22,0,7.22,3.61,7.22,4.75C496.7,300,495.85,303.42,489.39,303.42Z"/></g><g id="woman"><polygon class="cls-33" points="403.12 330.59 421.55 330.59 421.27 337.43 403.31 337.43 403.12 330.59"/><path class="cls-34" d="M444.26,299.53a3.92,3.92,0,0,0,.67-1,5.49,5.49,0,0,0,1-3,5.08,5.08,0,0,0-2.66-4.56c0-.19.1-.48.1-.67a5.49,5.49,0,0,0-1-3,5.81,5.81,0,0,0,1-3.14,5.63,5.63,0,0,0-3.42-5.13,3.9,3.9,0,0,0,.1-1,5,5,0,0,0-2.28-4.28,3.94,3.94,0,0,0,.29-1.52,4.46,4.46,0,0,0-4.47-4.47,3.9,3.9,0,0,0-1,.1,4.62,4.62,0,0,0-4.47-3.23,4.44,4.44,0,0,0-1.62.29,4.17,4.17,0,0,0-3.71-2.28,6.08,6.08,0,0,0-5.8-4.66,4.63,4.63,0,0,0-1.14.1,6,6,0,0,0-5.13-2.85,6.11,6.11,0,0,0-6,4.94,4.67,4.67,0,0,0-2.85,1.71,4.87,4.87,0,0,0-3.23-1.24,5,5,0,0,0-4.47,2.76,5.92,5.92,0,0,0-5.89,5.89,6.42,6.42,0,0,0,.19,1.33,4.19,4.19,0,0,0-2.95,4v.48a4.59,4.59,0,0,0-3.33,4.37,4.78,4.78,0,0,0,.76,2.57,4.42,4.42,0,0,0-1.62,3.52v.1a6.08,6.08,0,0,0-3.42,5.51,6.24,6.24,0,0,0,1.9,4.47,5.24,5.24,0,0,0,.76,5.23,4,4,0,0,0-.86,2.57,4.35,4.35,0,0,0,1.52,3.23,5,5,0,0,0-.38,2,5.08,5.08,0,0,0,3.23,4.75,6.41,6.41,0,0,0-.19,1.33,4.53,4.53,0,0,0,2.66,4.09v.57a4.5,4.5,0,0,0,4.56,4.56h.19a5.49,5.49,0,0,0,5.51,5,2.93,2.93,0,0,0,1-.1,4.18,4.18,0,0,0,4.28,4.18,2.63,2.63,0,0,0,.86-.1,5.07,5.07,0,0,0,4.28,2.47,4.88,4.88,0,0,0,2.38-.57,5.71,5.71,0,0,0,3.9,1.52,5.84,5.84,0,0,0,5.8-5,4.11,4.11,0,0,0,2.57-1.24,4.52,4.52,0,0,0,6.94-1.81,3.23,3.23,0,0,0,1,.1,5.51,5.51,0,0,0,5.51-5.51v-.57a4.8,4.8,0,0,0,2.66-4,5.44,5.44,0,0,0,3.23-4.94,2.63,2.63,0,0,0-.1-.86,5.11,5.11,0,0,0,1.81-4v-.48a5.11,5.11,0,0,0,3.14-4.66A5.57,5.57,0,0,0,444.26,299.53Z"/><polygon class="cls-35" points="423.93 332.59 420.03 331.83 420.03 322.04 404.64 322.04 404.64 331.83 400.75 332.59 404.64 357 420.03 357 423.93 332.59"/><rect class="cls-11" x="396.75" y="349.97" width="31.16" height="25.08"/><rect class="cls-10" x="396.75" y="349.97" width="31.16" height="25.08"/><path class="cls-7" d="M448.72,375.06c-.1-7.13-.29-12.73-.48-14.82-.86-7.32-2.66-15.87-9.12-22-5.51-5.32-12.26-6.37-17.77-6.37h-.1l-5.13,23.47v19.86l32.59-.1Z"/><path class="cls-7" d="M403.41,331.83h0c-5.61.1-12.35,1.14-17.77,6.37-6.46,6.18-8.27,14.73-9.12,22-.29,2.09-.38,7.79-.48,14.82h32.49V355.29l-5.13-23.47Z"/><polygon class="cls-15" points="394.1 336.77 402.74 340 399.42 344.56 408.44 355.3 403.12 330.59 394.1 336.77"/><polygon class="cls-15" points="430.58 336.77 421.55 330.59 416.14 355.3 425.35 344.56 421.93 340 430.58 336.77"/><path class="cls-36" d="M430.1,295.25v-8.08c0-8.55-9.88-19.29-17.67-19.29s-17.67,10.83-17.67,19.29v8.08a3.85,3.85,0,0,0-3.9,3.9v4a3.91,3.91,0,0,0,3.9,3.9c0,8.55,9.88,19.57,17.67,19.57S430.1,315.49,430.1,307a3.85,3.85,0,0,0,3.9-3.9v-4A3.8,3.8,0,0,0,430.1,295.25Z"/><circle class="cls-34" cx="402.84" cy="299.62" r="3.04"/><circle class="cls-11" cx="403.88" cy="298.67" r="0.76"/><path class="cls-34" d="M406.54,297.25a4.45,4.45,0,0,0-3.61-2.47,4.82,4.82,0,0,0-4.37,2h-.19a2.42,2.42,0,0,1-.67-.19,2.92,2.92,0,0,1-.86-.57h-.1s-.1.1,0,.1a1.18,1.18,0,0,1,.19.29,2.89,2.89,0,0,0,.48.67,2.07,2.07,0,0,0,.76.48.35.35,0,0,0,.29.1h.1a.52.52,0,0,0,.48-.29,4.16,4.16,0,0,1,3.9-2,3.57,3.57,0,0,1,2.95,2,.35.35,0,0,0,.48.19C406.54,297.63,406.64,297.44,406.54,297.25Z"/><circle class="cls-34" cx="422.03" cy="299.62" r="3.04"/><circle class="cls-11" cx="423.07" cy="298.67" r="0.76"/><path class="cls-34" d="M418.32,297.25a4.45,4.45,0,0,1,3.61-2.47,4.82,4.82,0,0,1,4.37,2h.19a2.42,2.42,0,0,0,.67-.19A2.92,2.92,0,0,0,428,296h.1s.1.1,0,.1a1.18,1.18,0,0,0-.19.29,2.89,2.89,0,0,1-.48.67,2.07,2.07,0,0,1-.76.48.35.35,0,0,1-.29.1h-.1a.52.52,0,0,1-.48-.29,4.16,4.16,0,0,0-3.9-2,3.57,3.57,0,0,0-2.95,2,.35.35,0,0,1-.48.19C418.32,297.63,418.23,297.44,418.32,297.25Z"/><path class="cls-14" d="M394,311a.75.75,0,0,1-.76-.76V307a.76.76,0,0,1,1.52,0v3.23A.82.82,0,0,1,394,311Z"/><path class="cls-14" d="M430.86,311a.75.75,0,0,1-.76-.76V307a.75.75,0,0,1,.76-.76.82.82,0,0,1,.76.76v3.23C431.72,310.64,431.34,311,430.86,311Z"/><path class="cls-34" d="M437.8,280.62a4.48,4.48,0,0,0,.09-5.13,4.39,4.39,0,0,0,1-2.85,4.58,4.58,0,0,0-3.61-4.47l-1.14-.57a5.56,5.56,0,0,0,.19-1.24,4.56,4.56,0,0,0-4.56-4.56,4.09,4.09,0,0,0-2.95,1.14,5.22,5.22,0,0,0-5-3.71,5.31,5.31,0,0,0-5.32,5.32,5.15,5.15,0,0,0,.57,2.38,4.36,4.36,0,0,0-1.52.67v-.19a4.81,4.81,0,0,0-1.9-3.8c0-.19.1-.48.1-.76a5.11,5.11,0,0,0-5.13-5.13h-.29a5.84,5.84,0,0,0-1.33-.1,5.66,5.66,0,0,0-4.09,1.62,5,5,0,0,0-4.47,4.94,4.33,4.33,0,0,0-3.42,2.38,5,5,0,0,0-2.38,4.28,4.42,4.42,0,0,0-3,4.28c0,.38.1.76.1,1a5.74,5.74,0,0,0-1.71,4.09,5.68,5.68,0,0,0,2.47,4.75c0,.29-.1.57-.1.86a5.76,5.76,0,0,0,5.8,5.8,6,6,0,0,0,4-1.62,4.29,4.29,0,0,0,3.33-3.23h.1a4.46,4.46,0,0,0,4.47-4.47v-.1a4.36,4.36,0,0,0,3-2.85c.19-.1.48-.1.67-.19a5.79,5.79,0,0,0,5.42,3.71,4.38,4.38,0,0,0,4.47,4H422v.57a4.56,4.56,0,0,0,4.56,4.56,4.75,4.75,0,0,0,4-2.28,5.87,5.87,0,1,0,7.22-9.12Z"/></g><path class="cls-37" d="M341.46,304.94c.48.76,1.43,1.14,2.85,1a5.21,5.21,0,0,0,3.23-1.24"/><path class="cls-37" d="M474.85,308.74c.48.76,1.43,1.14,2.85,1a5.21,5.21,0,0,0,3.23-1.24"/><path class="cls-38" d="M408.92,308.74c.48.76,1.43,1.14,2.85,1a5.21,5.21,0,0,0,3.23-1.24"/><path class="cls-35" d="M406.45,314.92c.86.48,2.66,2.38,5.23,2.47,2.95,0,5-2.09,5.8-2.66"/><path class="cls-37" d="M472.38,315.39c.86.48,2.66,2.38,5.23,2.47,2.95,0,5-2.09,5.8-2.66"/><path class="cls-37" d="M478.84,296.77c.1,1.33.19,2.85.38,4.37a40.58,40.58,0,0,0,1.62,7"/><path class="cls-37" d="M345.45,293.45c.1,1.33.19,2.85.38,4.37a40.58,40.58,0,0,0,1.62,7"/><path class="cls-37" d="M339,314.25c.86.48,2.66,2.38,5.23,2.47,2.95,0,5-2.09,5.8-2.66"/></g></svg>