<svg xmlns="http://www.w3.org/2000/svg" viewBox="0 0 548 390.3"><defs><style>.cls-1,.cls-2{fill:none;}.cls-1{stroke:#d1e7f5;stroke-width:2.56px;stroke-dasharray:2.56;}.cls-1,.cls-14,.cls-2{stroke-miterlimit:10;}.cls-2{stroke:#f4ae7a;stroke-width:3.63px;}.cls-3{fill:#95c8ec;}.cls-4{fill:#b0c2cc;}.cls-5{fill:#778896;}.cls-6{fill:#d1e7f5;}.cls-14,.cls-7{fill:#fff;}.cls-8{fill:#d4f0fc;}.cls-9{fill:#a2cddd;}.cls-10{fill:#57a7db;}.cls-11{fill:#b6e0f4;}.cls-12{fill:#65b4e0;}.cls-13{fill:#bdddf4;}.cls-14{stroke:#d0d8dc;stroke-width:3.06px;}.cls-15{fill:#71be72;}.cls-16{fill:#99cf8c;}.cls-17{fill:#54b958;}.cls-18{opacity:0.2;}.cls-19{fill:#d0d8dc;}.cls-20{fill:#78909c;}.cls-21{fill:#e4f2fb;}.cls-22{fill:#b0bec5;}.cls-23{fill:#f4ae7a;}.cls-24{fill:#81c784;}.cls-25{fill:#b7835c;}.cls-26{fill:#9acae6;}.cls-27{fill:#ccc;}</style></defs><title>managed-it-services</title><g id="Layer_5" data-name="Layer 5"><line class="cls-1" x1="220.47" y1="50.11" x2="171.5" y2="50.11"/><rect class="cls-2" x="66.74" y="49.77" width="96.06" height="84.07"/><polygon class="cls-3" points="72.31 79.21 60.93 79.09 62.02 70.36 71.34 70.49 72.31 79.21"/><path class="cls-4" d="M36.7,29.79V72.06a.78.78,0,0,0,.73.73H96.05a.78.78,0,0,0,.73-.73V29.79a.78.78,0,0,0-.73-.73H37.31A.68.68,0,0,0,36.7,29.79Z"/><path class="cls-5" d="M36.7,29.91V67.34H96.78V29.91a1,1,0,0,0-1-1H37.55A1,1,0,0,0,36.7,29.91Z"/><rect class="cls-6" x="39.36" y="31.48" width="54.51" height="33.19"/><rect class="cls-4" x="57.66" y="78" width="18.05" height="3.15"/><polygon class="cls-3" points="168.37 162.06 156.99 161.94 158.07 153.22 167.4 153.34 168.37 162.06"/><path class="cls-4" d="M132.76,112.64v42.28a.78.78,0,0,0,.73.73h58.63a.78.78,0,0,0,.73-.73V112.64a.78.78,0,0,0-.73-.73H133.48A.64.64,0,0,0,132.76,112.64Z"/><path class="cls-5" d="M132.76,112.76v37.43h60.08V112.76a1,1,0,0,0-1-1H133.61A.94.94,0,0,0,132.76,112.76Z"/><rect class="cls-6" x="135.42" y="114.34" width="54.51" height="33.19"/><rect class="cls-4" x="153.71" y="160.85" width="18.05" height="3.15"/><path class="cls-7" d="M162.8,73.39a23.62,23.62,0,1,1,23.62-23.62A23.73,23.73,0,0,1,162.8,73.39Z"/><circle class="cls-8" cx="162.8" cy="49.77" r="20.83"/><path class="cls-9" d="M146,49.77a21,21,0,0,1,18.9-20.83,11.08,11.08,0,0,0-2.06-.12,20.83,20.83,0,0,0,0,41.67,11.75,11.75,0,0,0,2.06-.12A20.6,20.6,0,0,1,146,49.77Z"/><path class="cls-10" d="M185.21,49.77a22.41,22.41,0,1,0-22.65,22.41H163A22.54,22.54,0,0,0,185.21,49.77Zm-41.79,1.45h7.15a48.36,48.36,0,0,0,1,7.75,29.79,29.79,0,0,0-5,1.57A23,23,0,0,1,143.42,51.23Zm3.39-12.36a40.13,40.13,0,0,0,5,1.57,31.59,31.59,0,0,0-1,7.75h-7.15A17.55,17.55,0,0,1,146.81,38.87Zm35.25,9.33h-7.27a48.36,48.36,0,0,0-1-7.75,29.79,29.79,0,0,0,5-1.57A18.76,18.76,0,0,1,182.06,48.2Zm-10.3,0h-7.51V41.53a57,57,0,0,0,6.54-.61A27.05,27.05,0,0,1,171.76,48.2Zm-7.39-9.69V30.75c2.06.85,4.24,3.51,5.57,7.27C168.13,38.26,166.31,38.39,164.37,38.51Zm-3.15-7.75v7.75c-1.94-.12-3.88-.24-5.57-.48C157,34.15,159.17,31.6,161.22,30.75Zm0,10.78V48.2h-7.51a33,33,0,0,1,1-7.27A38.63,38.63,0,0,0,161.22,41.53Zm-7.51,9.69h7.51v6.66a57,57,0,0,0-6.54.61A42.24,42.24,0,0,1,153.71,51.23ZM161.22,61v7.75c-2.06-.85-4.24-3.51-5.57-7.27A28.06,28.06,0,0,1,161.22,61Zm3.15,7.75V61c1.94.12,3.88.24,5.57.48C168.49,65.4,166.43,67.94,164.37,68.79Zm0-10.9V51.23h7.51a33,33,0,0,1-1,7.27A59.68,59.68,0,0,0,164.37,57.89Zm10.54-6.66h7.15a18.76,18.76,0,0,1-3.27,9.33,40.13,40.13,0,0,0-5-1.57A37.37,37.37,0,0,0,174.91,51.23Zm1.82-14.9A27.71,27.71,0,0,1,173,37.42a21.78,21.78,0,0,0-2.79-5.57A19.08,19.08,0,0,1,176.73,36.33Zm-21.32-4.48a24,24,0,0,0-2.79,5.57,34,34,0,0,1-3.76-1.09A19.08,19.08,0,0,1,155.41,31.84ZM148.87,63.1A27.71,27.71,0,0,1,152.62,62a21.78,21.78,0,0,0,2.79,5.57A17.54,17.54,0,0,1,148.87,63.1Zm21.32,4.48A24,24,0,0,0,173,62a34,34,0,0,1,3.76,1.09A17.54,17.54,0,0,1,170.19,67.58Z"/><polygon class="cls-3" points="72.31 162.06 60.93 161.94 62.02 153.34 71.34 153.34 72.31 162.06"/><path class="cls-4" d="M36.7,112.64v42.28a.78.78,0,0,0,.73.73H96.05a.78.78,0,0,0,.73-.73V112.64a.78.78,0,0,0-.73-.73H37.31A.68.68,0,0,0,36.7,112.64Z"/><path class="cls-5" d="M36.7,112.76v37.43H96.78V112.76a1,1,0,0,0-1-1H37.55A1,1,0,0,0,36.7,112.76Z"/><rect class="cls-6" x="39.36" y="114.34" width="54.51" height="33.19"/><rect class="cls-4" x="57.66" y="160.85" width="18.05" height="3.15"/><path class="cls-6" d="M518.3,189.3v.82A11.4,11.4,0,0,1,507,200.6H436.27A11.23,11.23,0,0,1,425,190.12v-.82a11.27,11.27,0,0,1,11.3-11.3,10.79,10.79,0,0,1,4.34.82A19.11,19.11,0,0,1,459.76,162h2.54a24.64,24.64,0,0,1,45,14v2a11.31,11.31,0,0,1,11,11.3Z"/><g id="_Compound_Path_" data-name=" Compound Path "><path class="cls-7" d="M460.58,182.67h1.72a12.72,12.72,0,0,0,1.39,3.27l-1.15,1.23a1.93,1.93,0,0,0,0,2.7.29.29,0,0,1,.08.16l1.64,1.56a1.93,1.93,0,0,0,2.7,0,.29.29,0,0,1,.16-.08l1.15-1.23a22.76,22.76,0,0,0,3.27,1.31v1.72a2,2,0,0,0,2,2l2.13-.08a2,2,0,0,0,2-2v-1.72a12.72,12.72,0,0,0,3.27-1.39l1.23,1.15a1.93,1.93,0,0,0,2.7,0,.29.29,0,0,1,.16-.08l1.56-1.64a1.93,1.93,0,0,0,0-2.7.29.29,0,0,1-.08-.16l-1.23-1.15a22.76,22.76,0,0,0,1.31-3.27h1.64a2,2,0,0,0,2-2l-.08-2.13a2,2,0,0,0-.65-1.39,2.07,2.07,0,0,0-1.39-.49h-1.72A12.72,12.72,0,0,0,484.9,173L486,171.7a1.93,1.93,0,0,0,0-2.7.29.29,0,0,1-.08-.16l-1.64-1.47a1.93,1.93,0,0,0-2.7,0,.29.29,0,0,1-.16.08l-1.15,1.23a22.76,22.76,0,0,0-3.27-1.31v-1.72a1.87,1.87,0,0,0-.65-1.39,2.07,2.07,0,0,0-1.39-.49l-2.13.08a1.87,1.87,0,0,0-1.39.65,2.07,2.07,0,0,0-.49,1.39v1.72a12.72,12.72,0,0,0-3.27,1.39l-1.15-1.15a1.93,1.93,0,0,0-2.7,0,.29.29,0,0,1-.16.08l-1.56,1.64a1.93,1.93,0,0,0,0,2.7.29.29,0,0,1,.08.16l1.39.9a22.76,22.76,0,0,0-1.31,3.27l-1.72.08a1.87,1.87,0,0,0-1.39.65,2.07,2.07,0,0,0-.49,1.39l.08,2.13a1.72,1.72,0,0,0,1.8,1.8Zm8-8.6a7.68,7.68,0,0,1,2.7-1.88,7.57,7.57,0,0,1,8,1.47,7.71,7.71,0,0,1,.33,10.81h0a7.68,7.68,0,0,1-2.7,1.88,7.6,7.6,0,0,1-8.43-12.2A.08.08,0,0,1,468.61,174.07Z"/></g><path class="cls-6" d="M410.72,53v.51a7.93,7.93,0,0,1-7.82,7.31h-49.1A7.76,7.76,0,0,1,346,53.46V53a7.85,7.85,0,0,1,7.82-7.82,7.12,7.12,0,0,1,2.95.51A13.34,13.34,0,0,1,370.09,34h1.79a17.15,17.15,0,0,1,31.28,9.74v1.41A7.8,7.8,0,0,1,410.72,53Z"/><line class="cls-1" x1="283.98" y1="134.6" x2="283.98" y2="85.63"/><rect class="cls-10" x="198.87" y="136.49" width="196.26" height="246.41"/><rect class="cls-11" x="241.04" y="146.24" width="16.66" height="11.79"/><rect class="cls-11" x="322.57" y="146.24" width="16.66" height="11.79"/><rect class="cls-11" x="267.58" y="146.24" width="45.12" height="11.79"/><rect class="cls-11" x="241.04" y="160.98" width="16.66" height="11.79"/><rect class="cls-11" x="322.57" y="160.98" width="16.66" height="11.79"/><rect class="cls-11" x="267.58" y="160.98" width="45.12" height="11.79"/><rect class="cls-11" x="241.04" y="175.72" width="16.66" height="11.79"/><rect class="cls-11" x="322.57" y="175.72" width="16.66" height="11.79"/><rect class="cls-11" x="267.58" y="175.72" width="45.12" height="11.79"/><rect class="cls-11" x="241.04" y="190.46" width="16.66" height="11.79"/><rect class="cls-11" x="322.57" y="190.46" width="16.66" height="11.79"/><rect class="cls-11" x="267.58" y="190.46" width="45.12" height="11.79"/><rect class="cls-11" x="241.04" y="205.08" width="16.66" height="11.79"/><rect class="cls-11" x="322.57" y="205.08" width="16.66" height="11.79"/><rect class="cls-11" x="267.58" y="205.08" width="45.12" height="11.79"/><rect class="cls-11" x="241.04" y="219.82" width="16.66" height="11.79"/><rect class="cls-11" x="322.57" y="219.82" width="16.66" height="11.79"/><rect class="cls-11" x="267.58" y="219.82" width="45.12" height="11.79"/><rect class="cls-11" x="241.04" y="234.56" width="16.66" height="11.79"/><rect class="cls-11" x="322.57" y="234.56" width="16.66" height="11.79"/><rect class="cls-11" x="267.58" y="234.56" width="45.12" height="11.79"/><rect class="cls-11" x="241.04" y="249.3" width="16.66" height="11.79"/><rect class="cls-11" x="322.57" y="249.3" width="16.66" height="11.79"/><rect class="cls-11" x="267.58" y="249.3" width="45.12" height="11.79"/><rect class="cls-11" x="241.04" y="264.04" width="16.66" height="11.79"/><rect class="cls-11" x="322.57" y="264.04" width="16.66" height="11.79"/><rect class="cls-11" x="267.58" y="264.04" width="45.12" height="11.79"/><rect class="cls-11" x="241.04" y="278.78" width="16.66" height="11.79"/><rect class="cls-11" x="322.57" y="278.78" width="16.66" height="11.79"/><rect class="cls-11" x="267.58" y="278.78" width="45.12" height="11.79"/><rect class="cls-11" x="241.04" y="293.4" width="16.66" height="11.79"/><rect class="cls-11" x="322.57" y="293.4" width="16.66" height="11.79"/><rect class="cls-11" x="267.58" y="293.4" width="45.12" height="11.79"/><rect class="cls-11" x="241.04" y="308.14" width="16.66" height="11.79"/><rect class="cls-11" x="322.57" y="308.14" width="16.66" height="11.79"/><rect class="cls-11" x="267.58" y="308.14" width="45.12" height="11.79"/><rect class="cls-11" x="241.04" y="322.88" width="16.66" height="11.79"/><rect class="cls-11" x="322.57" y="322.88" width="16.66" height="11.79"/><rect class="cls-11" x="267.58" y="322.88" width="45.12" height="11.79"/><rect class="cls-11" x="241.04" y="337.62" width="16.66" height="11.79"/><rect class="cls-11" x="322.57" y="337.62" width="16.66" height="11.79"/><rect class="cls-11" x="267.58" y="337.62" width="45.12" height="11.79"/><rect class="cls-11" x="241.04" y="355.19" width="16.66" height="27.71"/><rect class="cls-11" x="322.57" y="355.19" width="16.66" height="27.71"/><rect class="cls-11" x="267.58" y="355.19" width="45.12" height="27.71"/><path class="cls-3" d="M222.71,350.19a9.46,9.46,0,0,1-9.49,9.49H151.95a9.46,9.46,0,0,1-9.49-9.49V109.57a9.46,9.46,0,0,1,9.49-9.49h61.27a9.46,9.46,0,0,1,9.49,9.49Z"/><rect class="cls-11" x="148.87" y="202.13" width="68.32" height="14.49"/><rect class="cls-11" x="148.87" y="111.24" width="68.32" height="14.49"/><rect class="cls-11" x="148.87" y="129.44" width="68.32" height="14.49"/><rect class="cls-11" x="148.87" y="147.65" width="68.32" height="14.49"/><rect class="cls-11" x="148.87" y="165.72" width="68.32" height="14.49"/><rect class="cls-11" x="148.87" y="183.92" width="68.32" height="14.49"/><rect class="cls-11" x="148.87" y="220.33" width="68.32" height="14.49"/><rect class="cls-11" x="148.87" y="238.53" width="68.32" height="14.49"/><rect class="cls-11" x="148.87" y="256.74" width="68.32" height="14.49"/><rect class="cls-11" x="148.87" y="274.94" width="68.32" height="14.49"/><rect class="cls-3" x="163.61" y="105.73" width="3.72" height="189.34"/><rect class="cls-3" x="180.66" y="105.73" width="3.72" height="189.34"/><rect class="cls-3" x="197.71" y="105.73" width="3.72" height="189.34"/><path class="cls-12" d="M234,382.9V308a9.46,9.46,0,0,0-9.49-9.49H142a9.46,9.46,0,0,0-9.49,9.49V382.9Z"/><rect class="cls-11" x="139.51" y="306.99" width="6.41" height="26.79"/><rect class="cls-11" x="149.77" y="306.99" width="6.41" height="26.79"/><rect class="cls-11" x="159.9" y="306.99" width="6.41" height="26.79"/><rect class="cls-11" x="200.53" y="306.99" width="6.41" height="26.79"/><rect class="cls-11" x="210.66" y="306.99" width="6.41" height="26.79"/><rect class="cls-11" x="220.79" y="306.99" width="6.41" height="26.79"/><rect class="cls-11" x="139.51" y="341.6" width="6.41" height="26.79"/><rect class="cls-11" x="149.77" y="341.6" width="6.41" height="26.79"/><rect class="cls-11" x="159.9" y="341.6" width="6.41" height="26.79"/><rect class="cls-11" x="200.53" y="341.6" width="6.41" height="26.79"/><rect class="cls-11" x="210.66" y="341.6" width="6.41" height="26.79"/><rect class="cls-11" x="220.79" y="341.6" width="6.41" height="26.79"/><rect class="cls-11" x="174.51" y="305.06" width="17.56" height="77.84"/><path class="cls-3" d="M437.55,350.19a9.46,9.46,0,0,1-9.49,9.49H366.79a9.46,9.46,0,0,1-9.49-9.49V109.57a9.46,9.46,0,0,1,9.49-9.49h61.27a9.46,9.46,0,0,1,9.49,9.49Z"/><rect class="cls-11" x="363.72" y="111.24" width="68.32" height="14.49"/><rect class="cls-11" x="363.72" y="129.44" width="68.32" height="14.49"/><rect class="cls-11" x="363.72" y="147.65" width="68.32" height="14.49"/><rect class="cls-11" x="363.72" y="165.72" width="68.32" height="14.49"/><rect class="cls-11" x="363.72" y="183.92" width="68.32" height="14.49"/><rect class="cls-11" x="363.72" y="202.13" width="68.32" height="14.49"/><rect class="cls-11" x="363.72" y="220.33" width="68.32" height="14.49"/><rect class="cls-11" x="363.72" y="238.53" width="68.32" height="14.49"/><rect class="cls-11" x="363.72" y="256.74" width="68.32" height="14.49"/><rect class="cls-11" x="363.72" y="274.94" width="68.32" height="14.49"/><rect class="cls-3" x="378.46" y="105.73" width="3.72" height="189.34"/><rect class="cls-3" x="395.51" y="105.73" width="3.72" height="189.34"/><rect class="cls-3" x="412.69" y="105.73" width="3.72" height="189.34"/><path class="cls-13" d="M448.84,382.9V308a9.46,9.46,0,0,0-9.49-9.49H356.8a9.46,9.46,0,0,0-9.49,9.49V382.9Z"/><rect class="cls-7" x="354.49" y="306.99" width="6.41" height="26.79"/><rect class="cls-7" x="364.61" y="306.99" width="6.41" height="26.79"/><rect class="cls-7" x="374.74" y="306.99" width="6.41" height="26.79"/><rect class="cls-7" x="415.38" y="306.99" width="6.41" height="26.79"/><rect class="cls-7" x="425.63" y="306.99" width="6.41" height="26.79"/><rect class="cls-7" x="435.76" y="306.99" width="6.41" height="26.79"/><rect class="cls-7" x="354.49" y="341.6" width="6.41" height="26.79"/><rect class="cls-7" x="364.61" y="341.6" width="6.41" height="26.79"/><rect class="cls-7" x="374.74" y="341.6" width="6.41" height="26.79"/><rect class="cls-7" x="415.38" y="341.6" width="6.41" height="26.79"/><rect class="cls-7" x="425.63" y="341.6" width="6.41" height="26.79"/><rect class="cls-7" x="435.76" y="341.6" width="6.41" height="26.79"/><rect class="cls-7" x="389.36" y="305.06" width="17.56" height="77.84"/><g id="_Compound_Path_2" data-name=" Compound Path "><path class="cls-10" d="M218.48,63.2l4.74-.13a46.16,46.16,0,0,0,3.85,9L224,75.37a5.38,5.38,0,0,0,0,7.43c.13.13.26.26.26.38l4.49,4.23a5.38,5.38,0,0,0,7.43,0c.13-.13.26-.26.38-.26l3.08-3.33a57.37,57.37,0,0,0,9.23,3.59l.13,4.74a5.59,5.59,0,0,0,5.38,5.38l5.9-.26a5.79,5.79,0,0,0,5.38-5.38l-.13-4.74a46.16,46.16,0,0,0,9-3.85l3.33,3.08a5.38,5.38,0,0,0,7.43,0c.13-.13.26-.26.38-.26l4.23-4.49a5.38,5.38,0,0,0,0-7.43c-.13-.13-.26-.26-.26-.38l-3.33-3.08a57.37,57.37,0,0,0,3.59-9.23l4.49.13a5.79,5.79,0,0,0,5.38-5.38l-.26-5.9a4.38,4.38,0,0,0-1.79-3.72A5.21,5.21,0,0,0,294,45.25l-4.74.13a46.16,46.16,0,0,0-3.85-9l3.08-3.59a5.38,5.38,0,0,0,0-7.43c-.13-.13-.26-.26-.26-.38l-4.49-4.1a5.38,5.38,0,0,0-7.43,0c-.13.13-.26.26-.38.26l-3.08,3.33a57.37,57.37,0,0,0-9.23-3.59l-.13-4.61a4.23,4.23,0,0,0-1.79-3.72A5.21,5.21,0,0,0,258,11.15l-5.9.26a4.23,4.23,0,0,0-3.72,1.79,5.21,5.21,0,0,0-1.41,3.72l.13,4.74a46.16,46.16,0,0,0-9,3.85l-3.33-3.2a5.38,5.38,0,0,0-7.43,0c-.13.13-.26.26-.38.26L222.71,27a5.38,5.38,0,0,0,0,7.43c.13.13.26.26.26.38l4,2.56a57.37,57.37,0,0,0-3.59,9.23l-4.74.26a4.23,4.23,0,0,0-3.72,1.79,5.21,5.21,0,0,0-1.41,3.72l.26,5.9c-.51,2.69,1.67,5,4.74,4.87Zm22.18-23.84a20.33,20.33,0,0,1,7.56-5.13,21,21,0,0,1,22.3,4.1,21.21,21.21,0,0,1,.9,29.87h0a20.33,20.33,0,0,1-7.56,5.13,21,21,0,0,1-23.33-33.71A.45.45,0,0,1,240.66,39.35Z"/></g><g id="_Compound_Path_3" data-name=" Compound Path "><path class="cls-10" d="M293.34,98.45h2.95a22.09,22.09,0,0,0,2.44,5.64l-1.92,2.18a3.37,3.37,0,0,0,0,4.61.45.45,0,0,1,.13.26l2.82,2.69a3.37,3.37,0,0,0,4.61,0,.45.45,0,0,1,.26-.13l1.92-2.18a28.22,28.22,0,0,0,5.77,2.18v2.95a3.39,3.39,0,0,0,3.33,3.33l3.72-.13a3.48,3.48,0,0,0,3.33-3.33v-2.95a22.09,22.09,0,0,0,5.64-2.44l2.18,1.92a3.37,3.37,0,0,0,4.61,0,.45.45,0,0,1,.26-.13l2.69-2.82a3.37,3.37,0,0,0,0-4.61.45.45,0,0,1-.13-.26l-2.18-1.92A28.23,28.23,0,0,0,338,97.55h2.82a3.48,3.48,0,0,0,3.33-3.33L344,90.5a2.74,2.74,0,0,0-1.15-2.31,3.29,3.29,0,0,0-2.31-.9h-2.95a22.09,22.09,0,0,0-2.44-5.64l1.92-2.18a3.37,3.37,0,0,0,0-4.61.45.45,0,0,1-.13-.26L334.11,72a3.37,3.37,0,0,0-4.61,0,.45.45,0,0,1-.26.13l-1.92,2.18a28.22,28.22,0,0,0-5.77-2.18V69.22a2.74,2.74,0,0,0-1.15-2.31,3.29,3.29,0,0,0-2.31-.9l-3.72.13a2.74,2.74,0,0,0-2.31,1.15,3.29,3.29,0,0,0-.9,2.31v2.95A22.09,22.09,0,0,0,305.52,75l-2.05-2.05a3.37,3.37,0,0,0-4.61,0,.45.45,0,0,1-.26.13l-2.69,2.82a3.37,3.37,0,0,0,0,4.61.45.45,0,0,1,.13.26l2.44,1.67a28.23,28.23,0,0,0-2.18,5.77l-2.95.13A2.74,2.74,0,0,0,291,89.47a3.29,3.29,0,0,0-.9,2.31l.13,3.72a2.74,2.74,0,0,0,3.08,2.95Zm14-14.87a12,12,0,0,1,4.74-3.2,13,13,0,0,1,14,2.56,13.2,13.2,0,0,1,.51,18.72h0a12,12,0,0,1-4.74,3.2,13.16,13.16,0,0,1-14.61-21.15A.13.13,0,0,1,307.31,83.58Z"/></g><g id="Layer_5-2" data-name="Layer 5"><g id="_Group_5" data-name=" Group 5"><g id="_Group_6" data-name=" Group 6"><g id="_Group_7" data-name=" Group 7"><g id="_Group_8" data-name=" Group 8"><g id="_Group_9" data-name=" Group 9"><g id="_Group_10" data-name=" Group 10"><g id="_Group_11" data-name=" Group 11"><g id="_Group_12" data-name=" Group 12"><g id="_Group_13" data-name=" Group 13"><g id="_Group_14" data-name=" Group 14"><path id="_Path_12" data-name=" Path 12" class="cls-14" d="M252.44,139.32c-72.23,7.64-120-37-120-37S85,147,12.49,139.32c0,0-22.35,201.7,120,241.79C274.79,340.71,252.44,139.32,252.44,139.32Z"/></g></g></g></g></g></g></g></g><g id="_Group_15" data-name=" Group 15"><g id="_Group_16" data-name=" Group 16"><g id="_Group_17" data-name=" Group 17"><g id="_Group_18" data-name=" Group 18"><g id="_Group_19" data-name=" Group 19"><g id="_Group_20" data-name=" Group 20"><g id="_Group_21" data-name=" Group 21"><g id="_Group_22" data-name=" Group 22"><path id="_Path_13" data-name=" Path 13" class="cls-15" d="M132.78,355.1c-88.21-30-97-141.7-96.4-190.37a191,191,0,0,0,96.4-31.53c19,12.56,52.34,30,96.4,31.53C229.49,213.09,220.62,324.8,132.78,355.1Z"/></g></g></g></g></g></g></g></g><g id="_Group_23" data-name=" Group 23"><g id="_Group_24" data-name=" Group 24"><g id="_Group_25" data-name=" Group 25"><g id="_Group_26" data-name=" Group 26"><g id="_Group_27" data-name=" Group 27"><g id="_Group_28" data-name=" Group 28"><g id="_Group_29" data-name=" Group 29"><g id="_Group_30" data-name=" Group 30"><path id="_Path_14" data-name=" Path 14" class="cls-16" d="M133.38,144.53h0v198.9h0c79-26.93,86.62-127,86.3-170.79A168.53,168.53,0,0,1,133.38,144.53Z"/></g></g></g></g></g></g></g></g><g id="_Group_31" data-name=" Group 31"><g id="_Group_32" data-name=" Group 32"><g id="_Group_33" data-name=" Group 33"><g id="_Group_34" data-name=" Group 34"><g id="_Group_35" data-name=" Group 35"><g id="_Group_36" data-name=" Group 36"><g id="_Group_37" data-name=" Group 37"><g id="_Group_38" data-name=" Group 38"><path id="_Compound_Path_2-2" data-name=" Compound Path 2" class="cls-17" d="M132.78,357.54l-.92-.31C41.92,326.32,33.28,212.15,33.92,164.71v-2.46h2.46A184.16,184.16,0,0,0,131.5,131l1.23-.92L134,131a187.6,187.6,0,0,0,94.88,31.22h2.46v2.46c.31,47.75-8.27,161.9-97.94,192.51Zm-94-190.68c-.31,47.75,8.87,155.78,94,185.48,84.47-29.7,94-137.43,94-185.48A192.51,192.51,0,0,1,132.78,136,192.51,192.51,0,0,1,38.78,166.86Z"/></g></g></g></g></g></g></g></g></g><g id="_Group_39" data-name=" Group 39"><g id="_Group_40" data-name=" Group 40"><g id="_Group_41" data-name=" Group 41" class="cls-18"><g id="_Group_42" data-name=" Group 42"><path id="_Compound_Path_3-2" data-name=" Compound Path 3" d="M180.6,220.42H175.7V207.26a37.5,37.5,0,0,0-37.34-37.34h-1A37.5,37.5,0,0,0,100,207.26v13.16H95.12A6.14,6.14,0,0,0,89,226.54v70.34A6.14,6.14,0,0,0,95.12,303H180.6a6.14,6.14,0,0,0,6.05-6.12V226.49A6.33,6.33,0,0,0,180.6,220.42Zm-68.56,0V207.26a25.34,25.34,0,0,1,25.29-25.39h1a25.34,25.34,0,0,1,25.41,25.27s0,.09,0,.14v13.16Z"/></g></g><g id="_Group_43" data-name=" Group 43"><g id="_Group_44" data-name=" Group 44"><g id="_Group_45" data-name=" Group 45"><g id="_Group_46" data-name=" Group 46"><path id="_Path_15" data-name=" Path 15" class="cls-19" d="M181.13,291.44a6.14,6.14,0,0,1-6.12,6.12H89.62a6.14,6.14,0,0,1-6.12-6.12V221a6.14,6.14,0,0,1,6.12-6.12H175a6.14,6.14,0,0,1,6.12,6.12Z"/></g></g></g><g id="_Group_47" data-name=" Group 47"><g id="_Group_48" data-name=" Group 48"><g id="_Group_49" data-name=" Group 49"><g id="_Group_50" data-name=" Group 50"><g id="_Group_51" data-name=" Group 51"><g id="_Group_52" data-name=" Group 52"><g id="_Group_53" data-name=" Group 53"><g id="_Group_54" data-name=" Group 54"><path id="_Path_16" data-name=" Path 16" class="cls-7" d="M106.76,215.21V202.05A25.34,25.34,0,0,1,132,176.66h1a25.34,25.34,0,0,1,25.41,25.27s0,.09,0,.14v13.16h11.93V202.07a37.5,37.5,0,0,0-37.34-37.34h-.92a37.5,37.5,0,0,0-37.34,37.34v13.16Z"/></g></g></g></g></g></g></g></g><g id="_Group_55" data-name=" Group 55"><g id="_Group_56" data-name=" Group 56"><g id="_Group_57" data-name=" Group 57"><g id="_Group_58" data-name=" Group 58"><g id="_Group_59" data-name=" Group 59"><g id="_Group_60" data-name=" Group 60"><g id="_Group_61" data-name=" Group 61"><g id="_Group_62" data-name=" Group 62"><path id="_Path_17" data-name=" Path 17" class="cls-20" d="M146,249.2a13.47,13.47,0,0,0-26.93,0A13.27,13.27,0,0,0,128,261.76v18.06h9.18V261.74A13.27,13.27,0,0,0,146,249.2Z"/></g></g></g></g></g></g></g></g></g></g></g></g></g><path class="cls-20" d="M458.55,275.81H409a6.49,6.49,0,0,0-6.45,6.45v94.19A6.49,6.49,0,0,0,409,382.9h49.53a6.49,6.49,0,0,0,6.45-6.45V282.26A6.41,6.41,0,0,0,458.55,275.81Z"/><rect class="cls-21" x="413.04" y="286.15" width="41.38" height="86.4"/><path class="cls-22" d="M450.88,345.66H416.56v22.76h34.32Zm-3.29,19.23H419.85v-15.7H447.6Z"/><rect class="cls-23" x="441.03" y="351.87" width="3.29" height="10.34"/><rect class="cls-23" x="435.55" y="351.87" width="3.53" height="10.34"/><path class="cls-24" d="M426.79,362.46a5.6,5.6,0,0,0,0-11.2,5.51,5.51,0,0,0-5.6,5.6A5.66,5.66,0,0,0,426.79,362.46Zm0-7.67a2.13,2.13,0,0,1,2.07,2.07,2.05,2.05,0,0,1-2.07,2.07,2.13,2.13,0,0,1-2.07-2.07A2.05,2.05,0,0,1,426.79,354.79Z"/><path class="cls-22" d="M450.88,318.16H416.56v22.64h34.32Zm-3.29,19.11H419.85V321.44H447.6Z"/><rect class="cls-23" x="441.03" y="324.12" width="3.29" height="10.34"/><rect class="cls-23" x="435.55" y="324.12" width="3.53" height="10.34"/><path class="cls-24" d="M426.79,334.83a5.58,5.58,0,0,0,5.6-5.6,5.6,5.6,0,0,0-11.2,0A5.66,5.66,0,0,0,426.79,334.83Zm0-7.67a2.07,2.07,0,1,1-2.07,2.07A2.05,2.05,0,0,1,426.79,327.16Z"/><path class="cls-22" d="M450.88,290.41H416.56V313h34.32Zm-3.29,19.11H419.85V293.7H447.6Z"/><rect class="cls-23" x="441.03" y="296.37" width="3.29" height="10.34"/><rect class="cls-23" x="435.55" y="296.37" width="3.53" height="10.34"/><path class="cls-24" d="M426.79,307.08a5.6,5.6,0,0,0,0-11.2,5.51,5.51,0,0,0-5.6,5.6A5.66,5.66,0,0,0,426.79,307.08Zm0-7.67a2.07,2.07,0,1,1-2.07,2.07A2,2,0,0,1,426.79,299.42Z"/><path class="cls-20" d="M391.55,275.81H342a6.49,6.49,0,0,0-6.45,6.45v94.19A6.49,6.49,0,0,0,342,382.9h49.53a6.49,6.49,0,0,0,6.45-6.45V282.26A6.41,6.41,0,0,0,391.55,275.81Z"/><rect class="cls-21" x="346.04" y="286.15" width="41.38" height="86.4"/><path class="cls-22" d="M383.88,345.66H349.56v22.76h34.32Zm-3.29,19.23H352.85v-15.7H380.6Z"/><rect class="cls-23" x="374.03" y="351.87" width="3.29" height="10.34"/><rect class="cls-23" x="368.55" y="351.87" width="3.53" height="10.34"/><path class="cls-24" d="M359.79,362.46a5.6,5.6,0,0,0,0-11.2,5.51,5.51,0,0,0-5.6,5.6A5.66,5.66,0,0,0,359.79,362.46Zm0-7.67a2.13,2.13,0,0,1,2.07,2.07,2.05,2.05,0,0,1-2.07,2.07,2.13,2.13,0,0,1-2.07-2.07A2.05,2.05,0,0,1,359.79,354.79Z"/><path class="cls-22" d="M383.88,318.16H349.56v22.64h34.32Zm-3.29,19.11H352.85V321.44H380.6Z"/><rect class="cls-23" x="374.03" y="324.12" width="3.29" height="10.34"/><rect class="cls-23" x="368.55" y="324.12" width="3.53" height="10.34"/><path class="cls-24" d="M359.79,334.83a5.58,5.58,0,0,0,5.6-5.6,5.6,5.6,0,0,0-11.2,0A5.66,5.66,0,0,0,359.79,334.83Zm0-7.67a2.07,2.07,0,1,1-2.07,2.07A2.05,2.05,0,0,1,359.79,327.16Z"/><path class="cls-22" d="M383.88,290.41H349.56V313h34.32Zm-3.29,19.11H352.85V293.7H380.6Z"/><rect class="cls-23" x="374.03" y="296.37" width="3.29" height="10.34"/><rect class="cls-23" x="368.55" y="296.37" width="3.53" height="10.34"/><path class="cls-24" d="M359.79,307.08a5.6,5.6,0,0,0,0-11.2,5.51,5.51,0,0,0-5.6,5.6A5.66,5.66,0,0,0,359.79,307.08Zm0-7.67a2.07,2.07,0,1,1-2.07,2.07A2,2,0,0,1,359.79,299.42Z"/><path class="cls-20" d="M525.55,275.81H476a6.49,6.49,0,0,0-6.45,6.45v94.19A6.49,6.49,0,0,0,476,382.9h49.53a6.49,6.49,0,0,0,6.45-6.45V282.26A6.41,6.41,0,0,0,525.55,275.81Z"/><rect class="cls-21" x="480.04" y="286.15" width="41.38" height="86.4"/><path class="cls-22" d="M517.88,345.66H483.56v22.76h34.32Zm-3.29,19.23H486.85v-15.7H514.6Z"/><rect class="cls-23" x="508.03" y="351.87" width="3.29" height="10.34"/><rect class="cls-23" x="502.55" y="351.87" width="3.53" height="10.34"/><path class="cls-24" d="M493.79,362.46a5.6,5.6,0,0,0,0-11.2,5.51,5.51,0,0,0-5.6,5.6A5.66,5.66,0,0,0,493.79,362.46Zm0-7.67a2.13,2.13,0,0,1,2.07,2.07,2.05,2.05,0,0,1-2.07,2.07,2.13,2.13,0,0,1-2.07-2.07A2.05,2.05,0,0,1,493.79,354.79Z"/><path class="cls-22" d="M517.88,318.16H483.56v22.64h34.32Zm-3.29,19.11H486.85V321.44H514.6Z"/><rect class="cls-23" x="508.03" y="324.12" width="3.29" height="10.34"/><rect class="cls-23" x="502.55" y="324.12" width="3.53" height="10.34"/><path class="cls-24" d="M493.79,334.83a5.58,5.58,0,0,0,5.6-5.6,5.6,5.6,0,0,0-11.2,0A5.66,5.66,0,0,0,493.79,334.83Zm0-7.67a2.07,2.07,0,1,1-2.07,2.07A2.05,2.05,0,0,1,493.79,327.16Z"/><path class="cls-22" d="M517.88,290.41H483.56V313h34.32Zm-3.29,19.11H486.85V293.7H514.6Z"/><rect class="cls-23" x="508.03" y="296.37" width="3.29" height="10.34"/><rect class="cls-23" x="502.55" y="296.37" width="3.53" height="10.34"/><path class="cls-24" d="M493.79,307.08a5.6,5.6,0,0,0,0-11.2,5.51,5.51,0,0,0-5.6,5.6A5.66,5.66,0,0,0,493.79,307.08Zm0-7.67a2.07,2.07,0,1,1-2.07,2.07A2,2,0,0,1,493.79,299.42Z"/><path class="cls-23" d="M501.92,257a1.85,1.85,0,0,1-.54,1.38,1.93,1.93,0,0,1-1.3.46H458.92a2.08,2.08,0,0,1-1.3-.46,1.85,1.85,0,0,1-.54-1.38V229.52H502V257Z"/><path class="cls-25" d="M501.39,258.34a1.93,1.93,0,0,1-1.3.46H458.92a2.08,2.08,0,0,1-1.3-.46l21.93-18.78Z"/><path class="cls-3" d="M501.92,229.52l-6.36,4.6-14.87,10.66a2.19,2.19,0,0,1-2.53,0l-14.8-10.66-6.36-4.6,6.36-4.6L477.24,215l1-.77a2.19,2.19,0,0,1,2.53,0l1,.77,6.67,4.75,3.3,2.38,3.83,2.84Z"/><path class="cls-6" d="M495.56,220.85v13.26l-14.87,10.66a2.19,2.19,0,0,1-2.53,0l-14.8-10.66V216.94a1.87,1.87,0,0,1,1.84-1.84h24.45Z"/><path class="cls-4" d="M489.81,219.32a1.54,1.54,0,0,0,1.53,1.53h4.29L489.81,215v4.29Z"/><path class="cls-10" d="M485,233.89h1.53a5.52,5.52,0,0,1-2.22,2.38,8,8,0,0,1-4.22.92,9.71,9.71,0,0,1-4.14-.84,5.09,5.09,0,0,1-2.61-2.45,7.4,7.4,0,0,1-.84-3.45,8.31,8.31,0,0,1,.92-3.83A6.1,6.1,0,0,1,476,224a9.06,9.06,0,0,1,3.83-.84,7.46,7.46,0,0,1,3.3.77,4.68,4.68,0,0,1,2.15,2.07,6.1,6.1,0,0,1,.77,2.91,5.44,5.44,0,0,1-1.15,3.37,4.19,4.19,0,0,1-3.68,1.84,2.5,2.5,0,0,1-.92-.15,1,1,0,0,1-.38-.69,2.78,2.78,0,0,1-2,.84,2.54,2.54,0,0,1-2-.84,3.07,3.07,0,0,1-.84-2.22,5.78,5.78,0,0,1,.92-3.14,3.43,3.43,0,0,1,3-1.69,2.43,2.43,0,0,1,2,1l.15-.84h2L482,231.59a3,3,0,0,0-.08.69.58.58,0,0,0,.08.31c.08.08.08.08.15.08a2,2,0,0,0,.92-.46,4.17,4.17,0,0,0,1.23-1.53,4.72,4.72,0,0,0,.46-2,3.88,3.88,0,0,0-1.3-3,5,5,0,0,0-3.68-1.23,6.67,6.67,0,0,0-3.37.84,5.26,5.26,0,0,0-2.07,2.22,6.92,6.92,0,0,0-.69,3.07,6,6,0,0,0,.77,2.84,4.18,4.18,0,0,0,2.15,1.84,8.2,8.2,0,0,0,3.14.54,8.75,8.75,0,0,0,3-.46A4.77,4.77,0,0,0,485,233.89Zm-7.9-3a1.86,1.86,0,0,0,.38,1.38,1.2,1.2,0,0,0,.92.46,2.27,2.27,0,0,0,.77-.15,2.86,2.86,0,0,0,.54-.46,4.14,4.14,0,0,0,.69-1.3,6.58,6.58,0,0,0,.31-1.61,1.88,1.88,0,0,0-.38-1.3,1.2,1.2,0,0,0-.92-.46,1.69,1.69,0,0,0-1.15.46,2.5,2.5,0,0,0-.84,1.38A4,4,0,0,0,477.09,230.9Z"/><rect class="cls-20" x="396.5" y="76.15" width="80.39" height="57.95"/><rect class="cls-23" x="402.32" y="82.6" width="38.6" height="1.47"/><rect class="cls-26" x="402.32" y="86.22" width="12.38" height="1.47"/><rect class="cls-27" x="402.32" y="89.84" width="19.93" height="1.47"/><rect class="cls-26" x="411.6" y="93.51" width="11.64" height="1.47"/><rect class="cls-26" x="411.6" y="97.08" width="11.64" height="1.47"/><rect class="cls-26" x="419.68" y="100.69" width="11.33" height="1.47"/><rect class="cls-27" x="418.84" y="86.22" width="21.08" height="1.47"/><rect class="cls-27" x="442.91" y="86.22" width="10.02" height="1.47"/><rect class="cls-27" x="456.86" y="86.22" width="13.58" height="1.47"/><rect class="cls-26" x="425.61" y="89.84" width="11.85" height="1.47"/><rect class="cls-27" x="426.81" y="93.51" width="6.82" height="1.47"/><rect class="cls-27" x="426.81" y="97.08" width="11.64" height="1.47"/><rect class="cls-27" x="436.83" y="93.51" width="12.9" height="1.47"/><rect class="cls-27" x="452.3" y="93.51" width="6.77" height="1.47"/><rect class="cls-27" x="462" y="93.51" width="8.39" height="1.47"/><rect class="cls-27" x="441.02" y="97.08" width="14.68" height="1.47"/><rect class="cls-27" x="457.91" y="97.08" width="4.41" height="1.47"/><rect class="cls-27" x="434.26" y="100.69" width="8.39" height="1.47"/><rect class="cls-26" x="411.6" y="107.93" width="11.64" height="1.47"/><rect class="cls-26" x="411.6" y="111.6" width="11.64" height="1.47"/><rect class="cls-27" x="426.81" y="107.93" width="6.82" height="1.47"/><rect class="cls-27" x="426.81" y="111.6" width="10.44" height="1.47"/><rect class="cls-27" x="436.83" y="107.93" width="9.91" height="1.47"/><rect class="cls-27" x="448.73" y="107.93" width="5.24" height="1.47"/><rect class="cls-27" x="456.18" y="107.93" width="6.45" height="1.47"/><rect class="cls-27" x="447.53" y="111.6" width="11.64" height="1.47"/><rect class="cls-26" x="411.6" y="115.17" width="11.64" height="1.47"/><rect class="cls-26" x="411.6" y="118.79" width="11.64" height="1.47"/><rect class="cls-27" x="426.81" y="115.17" width="6.82" height="1.47"/><rect class="cls-27" x="426.81" y="118.79" width="21.29" height="1.47"/><rect class="cls-27" x="436.83" y="115.17" width="12.9" height="1.47"/><rect class="cls-27" x="452.3" y="115.17" width="6.77" height="1.47"/><rect class="cls-27" x="462" y="115.17" width="8.39" height="1.47"/><rect class="cls-27" x="450.73" y="118.79" width="11.96" height="1.47"/><rect class="cls-27" x="439.66" y="111.6" width="4.93" height="1.47"/><rect class="cls-26" x="402.32" y="126.02" width="12.38" height="1.47"/><rect class="cls-27" x="418.84" y="126.02" width="11.69" height="1.47"/><rect class="cls-27" x="433.58" y="126.02" width="5.93" height="1.47"/><rect class="cls-23" x="443.28" y="126.02" width="18.77" height="1.47"/></g></svg>