<svg xmlns="http://www.w3.org/2000/svg" xmlns:xlink="http://www.w3.org/1999/xlink" viewBox="0 0 548 390.3"><defs><style>.cls-1,.cls-7{fill:none;}.cls-2{fill:#78909c;}.cls-3{fill:#e4f2fb;}.cls-4{fill:#b0bec5;}.cls-5{fill:#f4ae7a;}.cls-6{fill:#81c784;}.cls-7{stroke:#57a7db;stroke-linejoin:round;stroke-width:10px;}.cls-8{fill:#e8e8e8;}.cls-9{fill:#546e7a;}.cls-10{fill:#bdddf4;}.cls-11{fill:#f5f5f5;}.cls-12{fill:#d0d8dc;}.cls-13{fill:#8dcb8e;}.cls-14,.cls-18{fill:#fff;}.cls-15{fill:#57a7db;}.cls-16{fill:#eceff0;}.cls-17{fill:#95c8ec;}.cls-18{stroke:#d0d8dc;stroke-miterlimit:10;stroke-width:1.58px;}.cls-19{fill:#71be72;}.cls-20{fill:#99cf8c;}.cls-21{fill:#54b958;}.cls-22{opacity:0.2;}.cls-23{clip-path:url(#clip-path);}</style><clipPath id="clip-path"><path class="cls-1" d="M118.63,212.82a47.24,47.24,0,0,0,.14-66.78,46.18,46.18,0,0,0-33.46-13.9,47.22,47.22,0,1,0,33.32,80.68Z"/></clipPath></defs><title>one-time-security-services</title><g id="Layer_5" data-name="Layer 5"><path class="cls-2" d="M323.77,67.57H207.25a15.27,15.27,0,0,0-15.17,15.17V304.33a15.27,15.27,0,0,0,15.17,15.17H323.77a15.27,15.27,0,0,0,15.17-15.17V82.75A15.09,15.09,0,0,0,323.77,67.57Z"/><rect class="cls-3" x="216.7" y="91.91" width="97.34" height="203.26"/><path class="cls-4" d="M305.74,231.9H225v53.54h80.73ZM298,277.14H232.73V240.21H298Z"/><rect class="cls-5" x="282.55" y="246.5" width="7.73" height="24.33"/><rect class="cls-5" x="269.66" y="246.5" width="8.3" height="24.33"/><path class="cls-6" d="M249.05,271.41a13.17,13.17,0,0,0,0-26.34,13,13,0,0,0-13.17,13.17A13.32,13.32,0,0,0,249.05,271.41Zm0-18a5,5,0,0,1,4.87,4.87,4.83,4.83,0,0,1-4.87,4.87,5,5,0,0,1-4.87-4.87A4.83,4.83,0,0,1,249.05,253.37Z"/><path class="cls-4" d="M305.74,167.2H225v53.25h80.73ZM298,212.15H232.73V174.93H298Z"/><rect class="cls-5" x="282.55" y="181.23" width="7.73" height="24.33"/><rect class="cls-5" x="269.66" y="181.23" width="8.3" height="24.33"/><path class="cls-6" d="M249.05,206.42a13.13,13.13,0,0,0,13.17-13.17,13.17,13.17,0,1,0-26.34,0A13.32,13.32,0,0,0,249.05,206.42Zm0-18a4.87,4.87,0,1,1-4.87,4.87A4.83,4.83,0,0,1,249.05,188.39Z"/><path class="cls-4" d="M305.74,101.93H225v53.25h80.73ZM298,146.88H232.73V109.66H298Z"/><rect class="cls-5" x="282.55" y="115.96" width="7.73" height="24.33"/><rect class="cls-5" x="269.66" y="115.96" width="8.3" height="24.33"/><path class="cls-6" d="M249.05,141.15a13.17,13.17,0,0,0,0-26.34A13,13,0,0,0,235.88,128,13.32,13.32,0,0,0,249.05,141.15Zm0-18a4.87,4.87,0,1,1-4.87,4.87A4.66,4.66,0,0,1,249.05,123.11Z"/><path class="cls-2" d="M476.26,67.57H359.74a15.27,15.27,0,0,0-15.17,15.17V304.33a15.27,15.27,0,0,0,15.17,15.17H476.26a15.27,15.27,0,0,0,15.17-15.17V82.75A15.09,15.09,0,0,0,476.26,67.57Z"/><rect class="cls-3" x="369.19" y="91.91" width="97.34" height="203.26"/><path class="cls-4" d="M458.22,231.9H377.49v53.54h80.73Zm-7.73,45.23H385.22V240.21h65.27Z"/><rect class="cls-5" x="435.03" y="246.5" width="7.73" height="24.33"/><rect class="cls-5" x="422.15" y="246.5" width="8.3" height="24.33"/><path class="cls-6" d="M401.54,271.41a13.17,13.17,0,1,0-13.17-13.17A13.32,13.32,0,0,0,401.54,271.41Zm0-18a5,5,0,0,1,4.87,4.87,4.83,4.83,0,0,1-4.87,4.87,5,5,0,0,1-4.87-4.87A4.83,4.83,0,0,1,401.54,253.37Z"/><path class="cls-4" d="M458.22,167.2H377.49v53.25h80.73Zm-7.73,44.95H385.22V174.93h65.27Z"/><rect class="cls-5" x="435.03" y="181.23" width="7.73" height="24.33"/><rect class="cls-5" x="422.15" y="181.23" width="8.3" height="24.33"/><path class="cls-6" d="M401.54,206.42a13.13,13.13,0,0,0,13.17-13.17,13,13,0,0,0-13.17-13.17,13.13,13.13,0,0,0-13.17,13.17A13.32,13.32,0,0,0,401.54,206.42Zm0-18a4.87,4.87,0,1,1-4.87,4.87A4.83,4.83,0,0,1,401.54,188.39Z"/><path class="cls-4" d="M458.22,101.93H377.49v53.25h80.73Zm-7.73,44.95H385.22V109.66h65.27Z"/><rect class="cls-5" x="435.03" y="115.96" width="7.73" height="24.33"/><rect class="cls-5" x="422.15" y="115.96" width="8.3" height="24.33"/><path class="cls-6" d="M401.54,141.15A13.17,13.17,0,1,0,388.37,128,13.32,13.32,0,0,0,401.54,141.15Zm0-18a4.87,4.87,0,1,1-4.87,4.87A4.66,4.66,0,0,1,401.54,123.11Z"/><polyline class="cls-7" points="524 276.49 524 370.28 432.43 370.28"/><polyline class="cls-7" points="438.84 29.8 524 29.8 524 116.24"/><polyline class="cls-7" points="27.79 118.08 27.79 29.8 116.61 29.8"/><polyline class="cls-7" points="115.69 370.28 27.79 370.28 27.79 281.09"/><path id="_Path_" data-name="&lt;Path&gt;" class="cls-4" d="M270.46,303.77c2.66,11.07,5.47,22.14,8.13,33.21h-76c2.66-11.07,5.47-22.14,8.13-33.21Z"/><path id="_Path_2" data-name="&lt;Path&gt;" class="cls-8" d="M198,336.43h85.35c2.1,0,3.92,2.1,3.92,4.62v1.68h-93.2v-1.68C194.08,338.53,195.9,336.43,198,336.43Z"/><path id="_Path_3" data-name="&lt;Path&gt;" class="cls-8" d="M369,290.74V309.1a6.43,6.43,0,0,1-6.45,6.45H118.82a6.43,6.43,0,0,1-6.45-6.45V290.74Z"/><path id="_Path_4" data-name="&lt;Path&gt;" class="cls-9" d="M112.51,290.74V135.6a6.43,6.43,0,0,1,6.45-6.45H362.53A6.43,6.43,0,0,1,369,135.6V290.74H112.51Z"/><rect id="_Path_5" data-name="&lt;Path&gt;" class="cls-10" x="123.02" y="139.24" width="235.44" height="140.99"/><path class="cls-11" d="M183.57,223.33h115.9a.66.66,0,0,0,.7-.7V154a.66.66,0,0,0-.7-.7H183.57a.66.66,0,0,0-.7.7v68.67C182.73,223,183.15,223.33,183.57,223.33Z"/><path class="cls-12" d="M177.26,236.64H305.63a.66.66,0,0,0,.7-.7v-76.1a.66.66,0,0,0-.7-.7H177.26a.66.66,0,0,0-.7.7v76.1A.66.66,0,0,0,177.26,236.64Z"/><path class="cls-13" d="M171,250.38H312.08a.66.66,0,0,0,.7-.7V166a.66.66,0,0,0-.7-.7H171a.66.66,0,0,0-.7.7v83.67A.66.66,0,0,0,171,250.38Z"/><rect class="cls-14" x="150.07" y="170.91" width="182.89" height="109.31"/><rect class="cls-15" x="150.07" y="170.91" width="182.89" height="27.89"/><rect class="cls-16" x="244.25" y="205.53" width="81.7" height="9.25"/><rect class="cls-16" x="292.88" y="220.39" width="33.07" height="9.25"/><rect class="cls-16" x="256.58" y="220.39" width="30.27" height="9.25"/><rect class="cls-16" x="244.25" y="235.38" width="81.7" height="9.25"/><rect class="cls-16" x="264.15" y="250.24" width="61.8" height="9.25"/><rect class="cls-16" x="244.25" y="250.24" width="12.33" height="9.25"/><rect class="cls-16" x="244.25" y="265.09" width="81.7" height="9.25"/><rect class="cls-17" x="200.77" y="205.53" width="35.77" height="30.65"/><rect class="cls-17" x="158.58" y="205.53" width="35.77" height="30.65"/><rect class="cls-17" x="200.77" y="244.03" width="35.77" height="30.65"/><rect class="cls-17" x="158.58" y="244.03" width="35.77" height="30.65"/><path class="cls-14" d="M317.27,191.66l7-7-7-7-1.68,1.68,5.47,5.47-5.47,5.47Zm-9.53,0-7-7,7-7,1.68,1.68L304,184.79l5.47,5.47Z"/><g id="Layer_5-2" data-name="Layer 5"><g id="_Group_5" data-name=" Group 5"><g id="_Group_6" data-name=" Group 6"><g id="_Group_7" data-name=" Group 7"><g id="_Group_8" data-name=" Group 8"><g id="_Group_9" data-name=" Group 9"><g id="_Group_10" data-name=" Group 10"><g id="_Group_11" data-name=" Group 11"><g id="_Group_12" data-name=" Group 12"><g id="_Group_13" data-name=" Group 13"><g id="_Group_14" data-name=" Group 14"><path id="_Path_12" data-name=" Path 12" class="cls-18" d="M148.17,222.82C60,198,73.87,73.08,73.87,73.08c44.92,4.74,74.3-22.93,74.3-22.93s29.57,27.67,74.3,22.93C222.47,73.08,236.31,197.8,148.17,222.82Z"/></g></g></g></g></g></g></g></g><g id="_Group_15" data-name=" Group 15"><g id="_Group_16" data-name=" Group 16"><g id="_Group_17" data-name=" Group 17"><g id="_Group_18" data-name=" Group 18"><g id="_Group_19" data-name=" Group 19"><g id="_Group_20" data-name=" Group 20"><g id="_Group_21" data-name=" Group 21"><g id="_Group_22" data-name=" Group 22"><path id="_Path_13" data-name=" Path 13" class="cls-19" d="M208.06,88.82c-27.29-1-47.92-11.75-59.7-19.53a118.26,118.26,0,0,1-59.7,19.53c-.39,30.14,5.08,99.32,59.7,117.89C202.76,187.94,208.26,118.76,208.06,88.82Z"/></g></g></g></g></g></g></g></g><g id="_Group_23" data-name=" Group 23"><g id="_Group_24" data-name=" Group 24"><g id="_Group_25" data-name=" Group 25"><g id="_Group_26" data-name=" Group 26"><g id="_Group_27" data-name=" Group 27"><g id="_Group_28" data-name=" Group 28"><g id="_Group_29" data-name=" Group 29"><g id="_Group_30" data-name=" Group 30"><path id="_Path_14" data-name=" Path 14" class="cls-20" d="M202.18,93.71c.19,27.11-4.54,89.09-53.45,105.77h0V76.31h0A104.37,104.37,0,0,0,202.18,93.71Z"/></g></g></g></g></g></g></g></g><g id="_Group_31" data-name=" Group 31"><g id="_Group_32" data-name=" Group 32"><g id="_Group_33" data-name=" Group 33"><g id="_Group_34" data-name=" Group 34"><g id="_Group_35" data-name=" Group 35"><g id="_Group_36" data-name=" Group 36"><g id="_Group_37" data-name=" Group 37"><g id="_Group_38" data-name=" Group 38"><path id="_Compound_Path_2" data-name=" Compound Path 2" class="cls-21" d="M148.36,208.22l-.57-.19C92.1,188.89,86.74,118.19,87.14,88.81V87.29h1.52A114,114,0,0,0,147.57,68l.76-.57.76.57a116.18,116.18,0,0,0,58.76,19.33h1.52v1.52c.19,29.57-5.12,100.26-60.65,119.22ZM90.15,90.13C90,119.71,95.65,186.61,148.34,205c52.31-18.39,58.19-85.11,58.19-114.86A119.22,119.22,0,0,1,148.36,71,119.22,119.22,0,0,1,90.15,90.13Z"/></g></g></g></g></g></g></g></g></g><g id="_Group_39" data-name=" Group 39"><g id="_Group_40" data-name=" Group 40"><g id="_Group_41" data-name=" Group 41" class="cls-22"><g id="_Group_42" data-name=" Group 42"><path id="_Compound_Path_3" data-name=" Compound Path 3" d="M178,123.31h-3v-8.15A23.22,23.22,0,0,0,151.82,92h-.62a23.22,23.22,0,0,0-23.12,23.12v8.15h-3a3.8,3.8,0,0,0-3.79,3.79v43.56a3.8,3.8,0,0,0,3.79,3.79H178a3.8,3.8,0,0,0,3.75-3.79V127.06A3.92,3.92,0,0,0,178,123.31Zm-42.46,0v-8.15a15.69,15.69,0,0,1,15.66-15.72h.59a15.69,15.69,0,0,1,15.73,15.65s0,.06,0,.09v8.15Z"/></g></g><g id="_Group_43" data-name=" Group 43"><g id="_Group_44" data-name=" Group 44"><g id="_Group_45" data-name=" Group 45"><g id="_Group_46" data-name=" Group 46"><path id="_Path_15" data-name=" Path 15" class="cls-12" d="M178.31,123.69a3.8,3.8,0,0,0-3.79-3.79H121.64a3.8,3.8,0,0,0-3.79,3.79v43.59a3.8,3.8,0,0,0,3.79,3.79h52.88a3.8,3.8,0,0,0,3.79-3.79Z"/></g></g></g><g id="_Group_47" data-name=" Group 47"><g id="_Group_48" data-name=" Group 48"><g id="_Group_49" data-name=" Group 49"><g id="_Group_50" data-name=" Group 50"><g id="_Group_51" data-name=" Group 51"><g id="_Group_52" data-name=" Group 52"><g id="_Group_53" data-name=" Group 53"><g id="_Group_54" data-name=" Group 54"><path id="_Path_16" data-name=" Path 16" class="cls-14" d="M124.86,120.09v-8.15A23.22,23.22,0,0,1,148,88.82h.57a23.22,23.22,0,0,1,23.12,23.12v8.15h-7.39v-8.15s0-.06,0-.09a15.69,15.69,0,0,0-15.73-15.65h-.64a15.69,15.69,0,0,0-15.66,15.72v8.15Z"/></g></g></g></g></g></g></g></g><g id="_Group_55" data-name=" Group 55"><g id="_Group_56" data-name=" Group 56"><g id="_Group_57" data-name=" Group 57"><g id="_Group_58" data-name=" Group 58"><g id="_Group_59" data-name=" Group 59"><g id="_Group_60" data-name=" Group 60"><g id="_Group_61" data-name=" Group 61"><g id="_Group_62" data-name=" Group 62"><path id="_Path_17" data-name=" Path 17" class="cls-2" d="M151.06,148.89v11.19h-5.69V148.9a8.22,8.22,0,0,1-5.49-7.78,8.34,8.34,0,0,1,16.68,0A8.22,8.22,0,0,1,151.06,148.89Z"/></g></g></g></g></g></g></g></g></g></g></g></g></g><path id="_Path_6" data-name="&lt;Path&gt;" class="cls-2" d="M85,355.33h0A16.22,16.22,0,0,1,68.72,339l.14-70.19A16.34,16.34,0,0,1,85,252.67h0A16.4,16.4,0,0,1,101.34,269l-.14,70.19A16.34,16.34,0,0,1,85,355.33Z"/><path id="_Path_7" data-name="&lt;Path&gt;" class="cls-4" d="M80.07,350.08a6.29,6.29,0,0,1-6.24-6.24L74,273.65a6.24,6.24,0,0,1,12.48,0l.14,70.19a6.35,6.35,0,0,1-6.52,6.24Z"/><g id="_Group_" data-name="&lt;Group&gt;"><path id="_Path_8" data-name="&lt;Path&gt;" class="cls-9" d="M84.89,261.88a8,8,0,0,1-8.08-8.08l.28-14.46a8,8,0,0,1,8.08-8.08h0a8,8,0,0,1,8.08,8.08L93,253.8a8,8,0,0,1-8.08,8.08Z"/></g><path class="cls-2" d="M148.84,179.5A63.42,63.42,0,0,0,85.31,116a62.48,62.48,0,0,0-44.81,18.43A63.38,63.38,0,0,0,85.31,242.74a62.48,62.48,0,0,0,44.81-18.43A61.94,61.94,0,0,0,148.84,179.5ZM85.31,226.58a47.22,47.22,0,1,1,0-94.43,47.2,47.2,0,0,1,47.22,47.22,47.2,47.2,0,0,1-47.22,47.22Z"/><g class="cls-23"><g id="Layer_5-3" data-name="Layer 5"><g id="_Group_5-2" data-name=" Group 5"><g id="_Group_6-2" data-name=" Group 6"><g id="_Group_7-2" data-name=" Group 7"><g id="_Group_8-2" data-name=" Group 8"><g id="_Group_9-2" data-name=" Group 9"><g id="_Group_10-2" data-name=" Group 10"><g id="_Group_11-2" data-name=" Group 11"><g id="_Group_12-2" data-name=" Group 12"><g id="_Group_13-2" data-name=" Group 13"><g id="_Group_14-2" data-name=" Group 14"><path id="_Path_12-2" data-name=" Path 12" class="cls-18" d="M148.17,237.11C45.45,208.17,61.57,62.59,61.57,62.59c52.35,5.53,86.6-26.73,86.6-26.73s34.47,32.24,86.6,26.73C234.77,62.59,250.89,207.94,148.17,237.11Z"/></g></g></g></g></g></g></g></g><g id="_Group_15-2" data-name=" Group 15"><g id="_Group_16-2" data-name=" Group 16"><g id="_Group_17-2" data-name=" Group 17"><g id="_Group_18-2" data-name=" Group 18"><g id="_Group_19-2" data-name=" Group 19"><g id="_Group_20-2" data-name=" Group 20"><g id="_Group_21-2" data-name=" Group 21"><g id="_Group_22-2" data-name=" Group 22"><path id="_Path_13-2" data-name=" Path 13" class="cls-19" d="M218,80.93c-31.81-1.11-55.85-13.69-69.58-22.76A137.83,137.83,0,0,1,78.81,80.93c-.45,35.13,5.92,115.76,69.58,137.4C211.8,196.46,218.2,115.83,218,80.93Z"/></g></g></g></g></g></g></g></g><g id="_Group_23-2" data-name=" Group 23"><g id="_Group_24-2" data-name=" Group 24"><g id="_Group_25-2" data-name=" Group 25"><g id="_Group_26-2" data-name=" Group 26"><g id="_Group_27-2" data-name=" Group 27"><g id="_Group_28-2" data-name=" Group 28"><g id="_Group_29-2" data-name=" Group 29"><g id="_Group_30-2" data-name=" Group 30"><path id="_Path_14-2" data-name=" Path 14" class="cls-20" d="M211.12,86.63c.22,31.59-5.29,103.84-62.29,123.27h0V66.35h0A121.64,121.64,0,0,0,211.12,86.63Z"/></g></g></g></g></g></g></g></g><g id="_Group_31-2" data-name=" Group 31"><g id="_Group_32-2" data-name=" Group 32"><g id="_Group_33-2" data-name=" Group 33"><g id="_Group_34-2" data-name=" Group 34"><g id="_Group_35-2" data-name=" Group 35"><g id="_Group_36-2" data-name=" Group 36"><g id="_Group_37-2" data-name=" Group 37"><g id="_Group_38-2" data-name=" Group 38"><path id="_Compound_Path_2-2" data-name=" Compound Path 2" class="cls-21" d="M148.4,220.09l-.66-.22C82.82,197.56,76.58,115.16,77,80.92V79.14h1.77a132.92,132.92,0,0,0,68.66-22.53l.89-.66.89.66a135.41,135.41,0,0,0,68.48,22.53h1.77v1.77c.22,34.47-6,116.85-70.69,139ZM80.55,82.46c-.22,34.47,6.4,112.44,67.82,133.87,61-21.43,67.82-99.19,67.82-133.87a139,139,0,0,1-67.8-22.25A139,139,0,0,1,80.55,82.46Z"/></g></g></g></g></g></g></g></g></g><g id="_Group_39-2" data-name=" Group 39"><g id="_Group_40-2" data-name=" Group 40"><g id="_Group_41-2" data-name=" Group 41" class="cls-22"><g id="_Group_42-2" data-name=" Group 42"><path id="_Compound_Path_3-2" data-name=" Compound Path 3" d="M182.91,121.12h-3.53v-9.5a27.06,27.06,0,0,0-27-27h-.72a27.06,27.06,0,0,0-27,27v9.5h-3.53a4.43,4.43,0,0,0-4.42,4.42v50.77a4.43,4.43,0,0,0,4.42,4.42h61.69a4.43,4.43,0,0,0,4.37-4.42V125.51A4.57,4.57,0,0,0,182.91,121.12Zm-49.48,0v-9.5A18.29,18.29,0,0,1,151.68,93.3h.69a18.29,18.29,0,0,1,18.34,18.24s0,.07,0,.1v9.5Z"/></g></g><g id="_Group_43-2" data-name=" Group 43"><g id="_Group_44-2" data-name=" Group 44"><g id="_Group_45-2" data-name=" Group 45"><g id="_Group_46-2" data-name=" Group 46"><path id="_Path_15-2" data-name=" Path 15" class="cls-12" d="M183.3,121.57a4.43,4.43,0,0,0-4.42-4.42H117.25a4.43,4.43,0,0,0-4.42,4.42v50.81a4.43,4.43,0,0,0,4.42,4.42h61.63a4.43,4.43,0,0,0,4.42-4.42Z"/></g></g></g><g id="_Group_47-2" data-name=" Group 47"><g id="_Group_48-2" data-name=" Group 48"><g id="_Group_49-2" data-name=" Group 49"><g id="_Group_50-2" data-name=" Group 50"><g id="_Group_51-2" data-name=" Group 51"><g id="_Group_52-2" data-name=" Group 52"><g id="_Group_53-2" data-name=" Group 53"><g id="_Group_54-2" data-name=" Group 54"><path id="_Path_16-2" data-name=" Path 16" class="cls-14" d="M121,117.38v-9.5a27.06,27.06,0,0,1,27-27h.66a27.06,27.06,0,0,1,27,27v9.5H167v-9.5s0-.07,0-.1a18.29,18.29,0,0,0-18.34-18.24h-.75a18.29,18.29,0,0,0-18.25,18.33v9.5Z"/></g></g></g></g></g></g></g></g><g id="_Group_55-2" data-name=" Group 55"><g id="_Group_56-2" data-name=" Group 56"><g id="_Group_57-2" data-name=" Group 57"><g id="_Group_58-2" data-name=" Group 58"><g id="_Group_59-2" data-name=" Group 59"><g id="_Group_60-2" data-name=" Group 60"><g id="_Group_61-2" data-name=" Group 61"><g id="_Group_62-2" data-name=" Group 62"><path id="_Path_17-2" data-name=" Path 17" class="cls-2" d="M151.54,150.95v13h-6.63V151a9.57,9.57,0,0,1-6.4-9.06,9.72,9.72,0,0,1,19.44,0A9.57,9.57,0,0,1,151.54,150.95Z"/></g></g></g></g></g></g></g></g></g></g></g></g></g></g></g></svg>