<?xml version="1.0" encoding="utf-8"?>
<!-- Generator: Adobe Illustrator 16.2.0, SVG Export Plug-In . SVG Version: 6.00 Build 0)  -->
<!DOCTYPE svg PUBLIC "-//W3C//DTD SVG 1.1//EN" "http://www.w3.org/Graphics/SVG/1.1/DTD/svg11.dtd">
<svg version="1.1" id="Layer_1" xmlns:sketch="http://www.bohemiancoding.com/sketch/ns"
	 xmlns="http://www.w3.org/2000/svg" xmlns:xlink="http://www.w3.org/1999/xlink" x="0px" y="0px" width="84px" height="84px"
	 viewBox="0 0 84 84" enable-background="new 0 0 84 84" xml:space="preserve">
<g sketch:type="MSShapeGroup">
	<g id="path-1">
		<path fill="#EEEEEE" d="M41.007,81.75c-21.37,0-38.756-17.386-38.756-38.756v-1.988c0-21.37,17.386-38.756,38.756-38.756h1.988
			c21.37,0,38.756,17.386,38.756,38.756v1.988c0,21.37-17.386,38.756-38.756,38.756H41.007z"/>
		<path fill="#FFFFFF" d="M42.995,3.25c20.817,0,37.756,16.938,37.756,37.756v1.988c0,20.818-16.938,37.756-37.756,37.756h-1.988
			c-20.819,0-37.756-16.938-37.756-37.756v-1.988c0-20.819,16.938-37.756,37.756-37.756H42.995 M42.995,1.25h-1.988
			c-21.956,0-39.756,17.8-39.756,39.756v1.988c0,21.957,17.8,39.756,39.756,39.756h1.988c21.957,0,39.756-17.799,39.756-39.756
			v-1.988C82.751,19.05,64.952,1.25,42.995,1.25L42.995,1.25z"/>
	</g>
</g>
<g>
	<path id="path-1_1_" fill="none" stroke="#F2EDED" d="M41.007,1.25h1.988c21.957,0,39.756,17.8,39.756,39.756v1.988
		c0,21.957-17.799,39.756-39.756,39.756h-1.988c-21.956,0-39.756-17.799-39.756-39.756v-1.988C1.251,19.05,19.051,1.25,41.007,1.25z
		"/>
</g>
<g>
	<g>
		<path fill="#005EB8" d="M57.42,59.48H26.582l-0.461-0.478c-4.024-4.147-6.241-9.614-6.241-15.392
			c0-12.197,9.924-22.12,22.121-22.12c2.112,0,4.204,0.298,6.216,0.887c0.832,0.244,1.309,1.115,1.065,1.946
			c-0.243,0.832-1.114,1.309-1.945,1.065c-1.727-0.505-3.522-0.761-5.336-0.761c-10.467,0-18.983,8.516-18.983,18.982
			c0,4.739,1.738,9.234,4.908,12.73h28.151c3.17-3.498,4.908-7.993,4.908-12.73c0-4.873-1.845-9.508-5.194-13.05
			c-0.596-0.629-0.568-1.623,0.062-2.218c0.63-0.596,1.622-0.568,2.218,0.062c3.902,4.127,6.053,9.528,6.053,15.206
			c0,5.775-2.217,11.242-6.239,15.392L57.42,59.48z"/>
	</g>
	<g>
		<path fill="#005EB8" d="M45.19,44.183l8.871-19.806L40.383,40.39c-0.333,0.199-0.634,0.456-0.888,0.775
			c-1.122,1.425-0.878,3.482,0.542,4.607c1.421,1.118,3.481,0.876,4.604-0.545C44.893,44.905,45.075,44.555,45.19,44.183z"/>
	</g>
	<g>
		<path fill="#005EB8" d="M42.001,30.293c-0.867,0-1.569-0.702-1.569-1.569v-4.348c0-0.867,0.702-1.569,1.569-1.569
			c0.866,0,1.569,0.702,1.569,1.569v4.348C43.57,29.591,42.867,30.293,42.001,30.293z"/>
	</g>
	<g>
		<path fill="#005EB8" d="M34.552,32.293c-0.542,0-1.068-0.282-1.36-0.784l-2.176-3.763c-0.434-0.75-0.178-1.71,0.573-2.144
			c0.749-0.433,1.709-0.177,2.143,0.573l2.176,3.763c0.434,0.75,0.178,1.71-0.572,2.144C35.089,32.225,34.818,32.293,34.552,32.293z
			"/>
	</g>
	<g>
		<path fill="#005EB8" d="M29.1,37.752c-0.266,0-0.536-0.068-0.782-0.209l-3.768-2.169c-0.751-0.432-1.009-1.392-0.576-2.143
			c0.431-0.751,1.392-1.008,2.142-0.577l3.768,2.169c0.751,0.432,1.009,1.392,0.576,2.143C30.17,37.47,29.642,37.752,29.1,37.752z"
			/>
	</g>
	<g>
		<path fill="#005EB8" d="M22.768,45.213c-0.865,0-1.567-0.7-1.569-1.565c-0.001-0.866,0.7-1.57,1.566-1.571l4.349-0.009
			c0.001,0,0.002,0,0.003,0c0.865,0,1.568,0.701,1.569,1.565c0.002,0.866-0.7,1.57-1.565,1.572l-4.349,0.008
			C22.77,45.213,22.769,45.213,22.768,45.213z"/>
	</g>
	<g>
		<path fill="#005EB8" d="M25.367,54.832c-0.542,0-1.067-0.28-1.358-0.783c-0.435-0.749-0.179-1.708,0.57-2.144l3.762-2.181
			c0.749-0.434,1.71-0.18,2.145,0.571c0.434,0.749,0.179,1.709-0.571,2.144l-3.762,2.181C25.905,54.764,25.634,54.832,25.367,54.832
			z"/>
	</g>
	<g>
		<path fill="#005EB8" d="M58.699,54.722c-0.265,0-0.532-0.066-0.777-0.207l-3.775-2.157c-0.752-0.43-1.015-1.388-0.585-2.141
			c0.433-0.753,1.393-1.012,2.142-0.584l3.775,2.157c0.753,0.43,1.015,1.388,0.585,2.141C59.773,54.438,59.244,54.722,58.699,54.722
			z"/>
	</g>
	<g>
		<path fill="#005EB8" d="M56.885,45.104c-0.863,0-1.565-0.698-1.569-1.563c-0.004-0.866,0.696-1.571,1.562-1.575l4.351-0.02
			c0.002,0,0.005,0,0.007,0c0.863,0,1.565,0.697,1.569,1.562c0.004,0.866-0.696,1.571-1.562,1.576l-4.351,0.02
			C56.89,45.104,56.887,45.104,56.885,45.104z"/>
	</g>
	<g>
		<path fill="#005EB8" d="M54.849,37.666c-0.538,0-1.063-0.278-1.355-0.777c-0.437-0.748-0.186-1.709,0.563-2.146l3.754-2.195
			c0.744-0.438,1.708-0.187,2.146,0.562c0.437,0.748,0.186,1.709-0.563,2.146l-3.755,2.195
			C55.392,37.597,55.118,37.666,54.849,37.666z"/>
	</g>
</g>
</svg>
