<?xml version="1.0" encoding="utf-8"?>
<!-- Generator: Adobe Illustrator 21.0.2, SVG Export Plug-In . SVG Version: 6.00 Build 0)  -->
<svg version="1.1" id="Layer_1" xmlns:sketch="http://www.bohemiancoding.com/sketch/ns"
	 xmlns="http://www.w3.org/2000/svg" xmlns:xlink="http://www.w3.org/1999/xlink" x="0px" y="0px" viewBox="0 0 150 150"
	 style="enable-background:new 0 0 150 150;" xml:space="preserve">
<style type="text/css">
	.st0{fill:#EEEEEE;}
	.st1{fill:#FFFFFF;}
	.st2{fill:#353F49;}
	.st3{fill:#0071BC;}
	.st4{fill:#48A4D8;}
	.st5{fill:#ED8B00;}
	.st6{fill:#48A23F;}
	.st7{fill:#698A9E;}
	.st8{fill:#5A4146;}
	.st9{fill:#694B4B;}
	.st10{fill:#E6AF78;}
	.st11{fill:#D29B6E;}
	.st12{fill:#F0C087;}
	.st13{fill:#6DB565;}
	.st14{fill:#005EB8;}
	.st15{fill:#F1A233;}
	.st16{fill:#0070BC;}
</style>
<g sketch:type="MSShapeGroup">
	<g id="path-1">
		<path class="st0" d="M73,149.9c-40.4,0-73-32.8-73-73.2v-3.8c0-40.4,32.6-73,73-73h3.8c40.4,0,73.2,32.8,73.2,73.2v3.8
			c0,40.4-32.8,73.2-73.2,73.2H73V149.9z"/>
		<path class="st1" d="M76.8,3.5c38.4,0,69.7,31.1,69.7,69.7v3.7c0,38.3-31.2,69.7-69.7,69.7h-3.7c-38.4-0.2-69.6-31.5-69.6-69.8
			v-3.7c0-38.3,31.2-69.5,69.6-69.5L76.8,3.5 M76.7,1.9h-3.6C33.9,1.9,2,33.6,2,73v3.6c0,39.4,31.9,71.3,71.3,71.3h3.6
			c39.2,0,71.1-31.9,71.1-71.3V73C148,33.6,116.1,1.9,76.7,1.9L76.7,1.9z"/>
	</g>
</g>
<g>
	<path class="st2" d="M109.1,65.7V37.8c0-1.7-1.4-3.1-3.1-3.1H44.1c-1.7,0-3.1,1.4-3.1,3.1v73.4c0,1.7,1.4,3.1,3.1,3.1h61.8
		c1.7,0,3.1-1.4,3.1-3.1V65.7z"/>
	<path class="st1" d="M98,37.3h8.4v34.5v27.8v12.2H96.3H71.5H43.5V37.3H52L98,37.3z"/>
	<path class="st3" d="M69.3,42.1h11.4v11.4H69.3V42.1z"/>
	<path class="st2" d="M69.3,70h11.4v11.4H69.3V70z"/>
	<path class="st4" d="M60.3,96.2h11.4v11.4H60.3V96.2z"/>
	<path class="st5" d="M87.6,70h11.4v11.4H87.6V70z"/>
	<path class="st6" d="M50.9,70h11.4v11.4H50.9V70z"/>
	<g>
		<path class="st7" d="M93.6,60.9H76.9V59c0-1-0.8-1.9-1.9-1.9S73.1,58,73.1,59v1.9H56.4c-1,0-1.9,0.8-1.9,1.9v1.9
			c0,1,0.8,1.9,1.9,1.9s1.9-0.8,1.9-1.9h14.9c0,1,0.8,1.9,1.9,1.9s1.9-0.8,1.9-1.9h14.9c0,1,0.8,1.9,1.9,1.9s1.9-0.8,1.9-1.9v-1.9
			C95.5,61.7,94.6,60.9,93.6,60.9z"/>
		<path class="st7" d="M65.7,92.5c-1,0-1.9-0.8-1.9-1.9v-1.9c0-1,0.8-1.9,1.9-1.9h26c0-1,0.8-1.9,1.9-1.9s1.9,0.8,1.9,1.9v1.9
			c0,1-0.8,1.9-1.9,1.9h-26C67.6,91.7,66.7,92.5,65.7,92.5z"/>
	</g>
</g>
<g>
	<path class="st8" d="M38.8,86.4h-1.9V97h2.9l1.5-4.5c0.2-0.8,0.3-1.6,0.3-2.4v-0.6C41.5,87.7,40.2,86.4,38.8,86.4z"/>
	<path class="st9" d="M28,89.2v-1.8c0-1.1,0.8-1.9,1.9-1.9h6.7c1.6,0,2.9,1.3,2.9,2.9l0,0c0,1.1-0.8,1.9-1.9,1.9L30,96.9l-1.6-5.7
		C28.2,90.6,28,90,28,89.2z"/>
	<rect x="31.9" y="99.9" class="st10" width="5.8" height="4.2"/>
	<path class="st11" d="M37.8,101.7v-1.8H32v1.8c1,0.3,1.9,0.5,2.9,0.5C36,102.1,37,102,37.8,101.7L37.8,101.7z"/>
	<path class="st6" d="M25.4,106.4v7c0,0.5,0.5,1,1,1h17.4c0.5,0,1-0.5,1-1v-7c0-1.3-0.8-2.4-2.1-2.8l-4.7-1.3l-2.9,1.9l-2.9-1.9
		l-4.7,1.3C26.1,103.9,25.3,105.1,25.4,106.4z"/>
	<path class="st12" d="M29.2,95.2v-1.3c0-0.5,0.2-1,0.5-1.3c1.5-1.5,4.2-2.1,7.3-2.3c0.6-0.2,1.1,0.2,1.5,0.5l1.8,1.8
		c0.3,0.3,0.5,0.8,0.5,1.3V95c0,3.2-2.6,5.8-5.8,5.8l0,0C31.6,100.8,29,98.2,29.2,95.2z"/>
	<path class="st10" d="M37.8,94.2l-0.2,2.6c0,1.3-0.5,2.6-1.3,3.6c2.4-0.6,4.2-2.9,4.2-5.5v-1.1c0-0.5-0.2-1-0.5-1.3l-1.8-1.8
		c-0.5-0.3-1-0.5-1.5-0.5l0,0l0,0c-3.1,0.2-5.8,0.8-7.3,2.3c-0.3,0.3-0.5,0.8-0.5,1.1c1.8-0.8,4.7-1.1,6.7-1.3
		C36.8,92.2,37.8,93,37.8,94.2L37.8,94.2z"/>
	<g>
		<path class="st13" d="M37.5,101.7c0.2-0.2,0.5-0.2,0.6,0l0.6,1l-1.5,2.6c-0.2,0.3-0.5,0.3-0.8,0.2l-1.6-1.3L37.5,101.7z"/>
		<path class="st13" d="M32.3,101.7c-0.2-0.2-0.5-0.2-0.6,0l-0.6,1l1.5,2.6c0.2,0.3,0.5,0.3,0.8,0.2l1.6-1.3L32.3,101.7z"/>
	</g>
	<path class="st8" d="M68.2,101.8c0.8,0.3,2.8,1.1,5,1.5H79c2.3-0.3,4.2-1.1,5-1.5c0.5-0.3,0.6-0.8,0.5-1.3
		c-0.8-2.1-1.5-5.8-1.6-7.8c-0.3-3.6-3.1-6.7-6.8-6.7c-3.7,0-6.5,2.9-6.8,6.7c-0.2,1.9-0.8,5.7-1.6,7.8
		C67.5,101,67.7,101.5,68.2,101.8z"/>
	<path class="st9" d="M73.2,103.1h1.9l2.1-11.7c0,0,0.2,0,0.3-0.2c2.4-1.5,1.5-5.4-1.5-5.4l0,0c-3.7,0-6.5,2.9-6.8,6.7
		c-0.2,1.9-0.8,5.7-1.6,7.8c-0.2,0.5,0,1.1,0.5,1.3C69,102.1,70.9,103,73.2,103.1z"/>
	<path class="st10" d="M67.7,107.7v5.7c0,0.5,0.5,1,1,1h15.4c0.5,0,1-0.5,1-1v-5.7c0-1.1-0.6-2.1-1.6-2.6l-3.1-1.6
		c-0.6-0.3-1.1-1.1-1.1-1.8v-2.9h-5.8v2.9c0,0.8-0.5,1.5-1.1,1.8l-3.1,1.6C68.2,105.6,67.5,106.5,67.7,107.7z"/>
	<path class="st11" d="M79,102.1c0,0,0-0.2,0-0.3v-2.9h-5.8v2.9c0,0.2,0,0.2,0,0.3c1,0.5,1.9,0.6,2.9,0.6
		C77.3,102.8,78.2,102.6,79,102.1z"/>
	<path class="st14" d="M67.7,107.7v5.7c0,0.5,0.5,1,1,1h15.4c0.5,0,1-0.5,1-1v-5.7c0-1.1-0.6-2.1-1.6-2.6l-2.3-1.1
		c-1.1,1.6-2.8,2.6-4.9,2.6s-3.9-1-4.9-2.6l-2.3,1.1C68.2,105.6,67.5,106.5,67.7,107.7z"/>
	<path class="st12" d="M70.4,95.6c0-0.3,0.2-0.6,0.3-0.8c0.8-0.8,3.1-2.6,6.5-3.4c0.5-0.2,1,0,1.1,0.5c0.2,0.5,0.6,1.1,1.3,1.8
		c0.5,0.5,1.1,1,1.6,1.1c0.3,0.2,0.5,0.5,0.5,1c-0.3,2.9-2.8,5-5.7,5l0,0C73.2,100.8,70.8,98.6,70.4,95.6z"/>
	<path class="st10" d="M70.3,95.8c0.2,0.6,0.3,1.3,0.5,1.8c0.5-0.5,1-1,1.1-1.1c0.6-0.6,2.4-1.9,5-2.8c0.3,0.6,0.8,1.1,1.3,1.6
		c0.2,0.2,0.5,0.3,0.6,0.5v1.3c0,1.9-0.8,2.9-1.9,3.7c2.6-0.5,4.5-2.4,4.9-5c0-0.3-0.2-0.8-0.5-1s-1-0.6-1.6-1.1
		c-0.2-0.2-0.3-0.3-0.5-0.5l0,0c-0.3-0.5-0.6-1-0.8-1.3c-0.3-0.3-0.6-0.6-1.1-0.5c-3.4,1-5.7,2.8-6.5,3.4
		C70.6,95,70.4,95.3,70.3,95.8z"/>
	<g>
		<path class="st5" d="M40.5,108.2v5.4c0,0.5,0.3,0.8,0.8,0.8h27.5c0.5,0,0.8-0.3,0.8-0.8v-5.4c0-1.5-1-2.8-2.3-3.2l-7.1-2.6
			l-5.2,1.8l-5.2-1.8l-7.1,2.6C41.3,105.4,40.4,106.7,40.5,108.2z"/>
		<path class="st8" d="M45.9,87.2l0.3,0.8c0.2,0.3,0.2,0.5,0.2,0.8v0.5h17.2v-0.5c0-0.3,0-0.5,0.2-0.8l0.3-0.8
			c0.3-1,0.5-1.8,0.5-2.8v-2.1c0-3.7-3.1-6.8-6.8-6.8H47.4c-1,0-1.8,0.8-1.8,1.8v7.3C45.6,85.6,45.7,86.4,45.9,87.2z"/>
		<path class="st9" d="M56.6,75.5h-9.4c-1,0-1.8,0.8-1.8,1.8v7.3c0,1,0.2,1.9,0.5,2.8l0.3,0.8c0.2,0.3,0.2,0.5,0.2,0.8v0.5H56
			l0.2-6.8h0.5c1.9,0,3.6-1.6,3.6-3.6C60.2,77.3,58.6,75.7,56.6,75.5z"/>
		<rect x="49.8" y="96.3" class="st10" width="10.4" height="7.8"/>
		<path class="st11" d="M60.2,99.2v-2.9H49.8v2.9c1.6,1,3.2,1.5,5.2,1.5S58.7,100,60.2,99.2L60.2,99.2z"/>
		<g>
			<path class="st15" d="M59.9,101c0.5-0.3,1.1-0.2,1.3,0.3L62,103l-2.9,3.7c-0.3,0.5-1,0.5-1.3,0.2l-2.8-2.8L59.9,101z"/>
			<path class="st15" d="M50.1,101c-0.5-0.3-1.1-0.2-1.3,0.3L48,103l2.9,3.7c0.3,0.5,1,0.5,1.3,0.2l2.8-2.8L50.1,101z"/>
		</g>
		<path class="st12" d="M46.5,90.3v-1c0-0.3,0.2-0.8,0.5-1.1l0.6-0.6c0.3-0.2,0.5-0.6,0.5-1.1V86c0-0.3,0.2-0.6,0.5-0.8
			c4.4-3.2,10.6-2.1,12.7-1.6c0.3,0,0.6,0.5,0.6,0.8v2.1c0,0.3,0.2,0.8,0.5,1.1l0.6,0.6c0.3,0.2,0.5,0.6,0.5,1.1v1
			c0,4.7-3.9,8.6-8.6,8.6l0,0C50.3,98.9,46.4,95,46.5,90.3z"/>
		<path class="st10" d="M48,85.4v0.5c2.9-1.8,6.7-1.6,8.8-1.3c0.8,0.2,1.5,1,1.5,1.8v6.3c0,2.4-1,4.4-2.4,6c4.4-0.6,7.6-4.2,7.6-8.6
			v-1c0-0.3-0.2-0.8-0.5-1.1l-0.6-0.6c-0.3-0.2-0.5-0.6-0.5-1.1v-2.1c0-0.3-0.3-0.6-0.6-0.8c-0.6-0.2-1.6-0.3-2.8-0.5
			c-2.9-0.3-6.8-0.3-9.9,1.9C48.3,84.9,48.2,85.3,48,85.4z"/>
	</g>
</g>
<g>
	<g>
		<path class="st13" d="M123.6,34.9c0,0-16-6.2-16.5-6.3c-0.3,0.1-16.5,6.3-16.5,6.3v11.6c0,8.1,2.3,18.6,16.5,22.5
			c14.1-3.9,16.4-14.7,16.4-22.5C123.6,42.5,123.6,34.9,123.6,34.9L123.6,34.9z"/>
	</g>
	<path class="st6" d="M90.6,46.5c0,8.1,2.3,18.6,16.5,22.5V28.6c-0.6,0.2-16.5,6.3-16.5,6.3V46.5L90.6,46.5z"/>
	<path class="st16" d="M120.4,37.1c0,0-12.9-5.2-13.3-5.4c-0.3,0.1-13.3,5.1-13.3,5.1v9.8c0,6.8,1.3,16,13.3,19.3
		c11.9-3.3,13.3-12.7,13.3-19.3C120.4,43.2,120.4,37.1,120.4,37.1L120.4,37.1z"/>
	<path class="st14" d="M107.1,31.7c-0.3,0.1-13.3,5.1-13.3,5.1v9.8c0,6.8,1.3,16,13.3,19.3V31.7z"/>
	<path class="st1" d="M113.4,45.7c-0.1-0.3-0.4-0.5-0.7-0.6l-3.3-0.5l-1.4-2.9c-0.2-0.3-0.5-0.5-0.8-0.5s-0.7,0.2-0.8,0.5l-1.4,2.9
		l-3.3,0.5c-0.3,0.1-0.6,0.3-0.7,0.6c-0.1,0.3,0,0.7,0.2,0.9l2.4,2.4l-0.6,3.3c-0.1,0.3,0.1,0.7,0.4,0.9c0.2,0.1,0.3,0.2,0.5,0.2
		s0.3,0,0.4-0.1l2.9-1.5l2.9,1.5c0.1,0.1,0.3,0.1,0.4,0.1c0.2,0,0.4-0.1,0.5-0.2c0.3-0.2,0.4-0.5,0.4-0.9l-0.6-3.3l2.4-2.4
		C113.4,46.3,113.5,46,113.4,45.7L113.4,45.7z"/>
</g>
</svg>
