<?xml version="1.0" encoding="utf-8"?>
<!-- Generator: Adobe Illustrator 16.2.0, SVG Export Plug-In . SVG Version: 6.00 Build 0)  -->
<!DOCTYPE svg PUBLIC "-//W3C//DTD SVG 1.1//EN" "http://www.w3.org/Graphics/SVG/1.1/DTD/svg11.dtd">
<svg version="1.1" id="Layer_1" xmlns:sketch="http://www.bohemiancoding.com/sketch/ns"
	 xmlns="http://www.w3.org/2000/svg" xmlns:xlink="http://www.w3.org/1999/xlink" x="0px" y="0px" width="84px" height="84px"
	 viewBox="0 0 84 84" enable-background="new 0 0 84 84" xml:space="preserve">
<g sketch:type="MSShapeGroup">
	<g id="path-1">
		<path fill="#EEEEEE" d="M41.007,81.75c-21.37,0-38.756-17.386-38.756-38.756v-1.988c0-21.37,17.386-38.756,38.756-38.756h1.988
			c21.37,0,38.756,17.386,38.756,38.756v1.988c0,21.37-17.386,38.756-38.756,38.756H41.007z"/>
		<path fill="#FFFFFF" d="M42.995,3.25c20.817,0,37.756,16.938,37.756,37.756v1.988c0,20.818-16.938,37.756-37.756,37.756h-1.988
			c-20.819,0-37.756-16.938-37.756-37.756v-1.988c0-20.819,16.938-37.756,37.756-37.756H42.995 M42.995,1.25h-1.988
			c-21.956,0-39.756,17.8-39.756,39.756v1.988c0,21.957,17.8,39.756,39.756,39.756h1.988c21.957,0,39.756-17.799,39.756-39.756
			v-1.988C82.751,19.05,64.952,1.25,42.995,1.25L42.995,1.25z"/>
	</g>
</g>
<g>
	<path id="path-1_1_" fill="none" stroke="#F2EDED" d="M41.007,1.25h1.988c21.957,0,39.756,17.8,39.756,39.756v1.988
		c0,21.957-17.799,39.756-39.756,39.756h-1.988c-21.956,0-39.756-17.799-39.756-39.756v-1.988C1.251,19.05,19.051,1.25,41.007,1.25z
		"/>
</g>
<g>
	<path fill="#005EB8" d="M63.586,22.222h-17.58c-1.012,0-1.838,0.72-1.838,1.605v1.346v1.316v9.634l-3.418,4.704l6.535-1.644h16.301
		c1.013,0,1.84-0.825,1.84-1.842V26.489v-1.316v-1.346C65.426,22.942,64.599,22.222,63.586,22.222z M64.109,37.343
		c0,0.29-0.233,0.525-0.523,0.525H47.202l-3.259,0.799l1.536-2.117V26.159h18.628L64.109,37.343L64.109,37.343z"/>
	<path fill="#005EB8" d="M34.705,41.532c3.804,0,6.899-3.096,6.899-6.899s-3.096-6.898-6.899-6.898
		c-3.804,0-6.899,3.095-6.899,6.898C27.807,38.438,30.9,41.532,34.705,41.532z"/>
	<path fill="#005EB8" d="M32.844,42.922l1.219,2.207l-2.849,4.601l3.589,9.855l3.385-9.855l-2.741-4.589l1.269-2.22
		c9.668,1.005,11.881,9.352,11.962,16.479c-4.246,1.666-9.074,2.548-13.973,2.548c-4.897,0-9.726-0.882-13.973-2.548
		C20.845,51.872,24.122,43.908,32.844,42.922z"/>
</g>
<path fill="#005EB8" d="M58.073,31.051h-0.19v-0.882c0-1.637-1.294-3.003-2.911-3.033c-0.048-0.001-0.136-0.001-0.179,0
	c-1.622,0.031-2.92,1.396-2.92,3.033v0.882h-0.188c-0.293,0-0.527,0.302-0.527,0.671v4.439c0,0.369,0.234,0.671,0.527,0.671h6.39
	c0.29,0,0.524-0.302,0.524-0.671v-4.439C58.6,31.353,58.365,31.051,58.073,31.051z M55.479,33.937v1.354
	c0,0.156-0.127,0.287-0.281,0.287h-0.643c-0.155,0-0.285-0.131-0.285-0.287v-1.354c-0.146-0.149-0.232-0.353-0.232-0.583
	c0-0.428,0.333-0.799,0.754-0.816c0.04,0,0.129,0,0.181,0c0.418,0.018,0.75,0.388,0.75,0.816
	C55.723,33.581,55.635,33.787,55.479,33.937z M56.644,31.049h-1.672h-0.179H53.12v-0.883c0-0.974,0.79-1.781,1.76-1.781
	c0.969,0,1.764,0.807,1.764,1.781V31.049z"/>
</svg>
