<?xml version="1.0" encoding="utf-8"?>
<!-- Generator: Adobe Illustrator 21.0.2, SVG Export Plug-In . SVG Version: 6.00 Build 0)  -->
<svg version="1.1" id="Layer_1" xmlns:sketch="http://www.bohemiancoding.com/sketch/ns"
	 xmlns="http://www.w3.org/2000/svg" xmlns:xlink="http://www.w3.org/1999/xlink" x="0px" y="0px" viewBox="0 0 84 84"
	 style="enable-background:new 0 0 84 84;" xml:space="preserve">
<style type="text/css">
	.st0{fill:#EEEEEE;stroke:#FFFFFF;stroke-width:4;}
	.st1{fill:none;stroke:#F2EDED;}
	.st2{fill:#005EB8;}
</style>
<g id="Rectangle-290">
	<g sketch:type="MSShapeGroup">
		<path id="path-1" class="st0" d="M41,1h2c22.1,0,40,17.9,40,40v2c0,22.1-17.9,40-40,40h-2C18.9,83,1,65.1,1,43v-2
			C1,18.9,18.9,1,41,1z"/>
	</g>
	<g>
		<path id="path-1_1_" class="st1" d="M41,1h2c22.1,0,40,17.9,40,40v2c0,22.1-17.9,40-40,40h-2C18.9,83,1,65.1,1,43v-2
			C1,18.9,18.9,1,41,1z"/>
	</g>
</g>
<g>
	<g>
		<path class="st2" d="M28,44.9c-1.3,0-2.4,1.1-2.4,2.4v1.8c0.8-0.2,1.6-0.3,2.4-0.3c0.8,0,1.6,0.1,2.4,0.3v-1.8
			C30.4,46,29.3,44.9,28,44.9z"/>
		<path class="st2" d="M28,40.6c-5.3,0-9.7,4.3-9.7,9.7c0,5.3,4.3,9.7,9.7,9.7c5.3,0,9.7-4.3,9.7-9.7C37.7,44.9,33.3,40.6,28,40.6z
			 M32.5,54.8c0,0.2-0.1,0.4-0.3,0.4C30.8,55.7,29.4,56,28,56c-1.4,0-2.8-0.3-4.2-0.8c-0.2-0.1-0.3-0.3-0.3-0.4V50
			c0-0.2,0.1-0.4,0.3-0.4c0.1-0.1,0.3-0.1,0.5-0.2c0,0,0.1,0,0.1-0.1v-2.1c0-2,1.6-3.6,3.6-3.6c2,0,3.6,1.6,3.6,3.6v2.1
			c0,0,0,0.1,0.1,0.1c0.2,0.1,0.4,0.1,0.5,0.2c0.2,0.1,0.3,0.3,0.3,0.4V54.8z"/>
		<path class="st2" d="M28,50.5c-0.5,0-1,0.4-1,1c0,0.4,0.2,0.7,0.5,0.8v1.6c0,0.3,0.2,0.5,0.5,0.5c0.3,0,0.5-0.2,0.5-0.5v-1.6
			c0.3-0.2,0.5-0.5,0.5-0.8C29,50.9,28.5,50.5,28,50.5z"/>
	</g>
	<path class="st2" d="M62.6,25.1c-0.7-0.7-1.4-1-2.5-1H25.9c-0.9,0-1.7,0.3-2.5,1c-0.7,0.7-1,1.4-1,2.5v11.9c0.9-0.5,1.8-0.8,2.8-1
		V27.6c0-0.2,0.1-0.3,0.2-0.5c0.1-0.1,0.3-0.2,0.5-0.2h34.2c0.2,0,0.3,0.1,0.5,0.2c0.1,0.1,0.2,0.3,0.2,0.5v17.8V48
		c0,0.2-0.1,0.3-0.2,0.5c-0.1,0.1-0.3,0.2-0.5,0.2H39.9c0.1,0.5,0.1,1,0.1,1.5c0,3.4-1.4,6.5-3.8,8.7c0.1,0.2,0.2,0.4,0.4,0.5
		c0.3,0.3,0.6,0.4,0.9,0.4h11c0.4,0,0.7-0.1,0.9-0.4c0.3-0.3,0.4-0.6,0.4-0.9c0-0.2-0.1-0.5-0.3-0.9c-0.2-0.4-0.4-0.9-0.7-1.5
		c-0.2-0.6-0.3-1.1-0.3-1.6h11.6c0.9,0,1.7-0.3,2.5-1s1-1.4,1-2.5V27.6C63.7,26.7,63.4,25.9,62.6,25.1z"/>
	<path class="st2" d="M54.5,38.3l-2.2-3.7c-0.2-0.3-0.6-0.5-1-0.4c-0.4,0-0.7,0.3-0.8,0.6l-1.3,5.7l-1.6-10.6
		c-0.1-0.4-0.5-0.6-0.9-0.7c-0.4,0-0.9,0.3-1,0.7L43.8,39l-1.2-2.3c-0.2-0.3-0.5-0.5-0.9-0.5c-0.4,0-0.7,0.2-0.9,0.5l-1.7,4.1
		l-1.4-2.2c-0.2-0.3-0.5-0.4-0.8-0.4v0h-7.6c1.7,0.2,3.3,0.7,4.8,1.6h2.2l2.2,3.4c0.2,0.3,0.5,0.4,0.9,0.4c0.4,0,0.7-0.2,0.8-0.5
		l1.6-3.9l1.4,2.8c0.2,0.3,0.6,0.5,1,0.5c0.4,0,0.8-0.3,0.8-0.6l1.3-6.9l1.6,10.4c0.1,0.4,0.5,0.7,0.9,0.7h0c0.5,0,0.9-0.3,0.9-0.6
		l1.9-8.1l1.2,2c0.2,0.3,0.5,0.5,0.9,0.5h5v-1.6H54.5z"/>
</g>
</svg>
