<?xml version="1.0" encoding="utf-8"?>
<!-- Generator: Adobe Illustrator 16.2.0, SVG Export Plug-In . SVG Version: 6.00 Build 0)  -->
<!DOCTYPE svg PUBLIC "-//W3C//DTD SVG 1.1//EN" "http://www.w3.org/Graphics/SVG/1.1/DTD/svg11.dtd">
<svg version="1.1" id="Layer_1" xmlns:sketch="http://www.bohemiancoding.com/sketch/ns"
	 xmlns="http://www.w3.org/2000/svg" xmlns:xlink="http://www.w3.org/1999/xlink" x="0px" y="0px" width="84px" height="84px"
	 viewBox="0 0 84 84" enable-background="new 0 0 84 84" xml:space="preserve">
<g id="Rectangle-290">
	<g sketch:type="MSShapeGroup">
		<path id="path-1" fill="#EEEEEE" stroke="#FFFFFF" stroke-width="4" d="M41,1h2c22.092,0,40,17.909,40,40v2
			c0,22.092-17.908,40-40,40h-2C18.909,83,1,65.092,1,43v-2C1,18.909,18.909,1,41,1z"/>
	</g>
	<g>
		<path id="path-1_1_" fill="none" stroke="#F2EDED" d="M41,1h2c22.092,0,40,17.909,40,40v2c0,22.092-17.908,40-40,40h-2
			C18.909,83,1,65.092,1,43v-2C1,18.909,18.909,1,41,1z"/>
	</g>
</g>
<g>
	<path fill="#005EB8" d="M62.286,24.537H21.713c-1.294,0-2.346,1.053-2.346,2.345v30.235c0,1.294,1.052,2.347,2.346,2.347h40.573
		c1.293,0,2.347-1.053,2.347-2.347V26.881C64.633,25.59,63.58,24.537,62.286,24.537z M35.536,27.253c0.962,0,1.74,0.778,1.74,1.741
		c0,0.957-0.778,1.738-1.74,1.738c-0.961,0-1.741-0.782-1.741-1.738C33.795,28.031,34.575,27.253,35.536,27.253z M30.435,27.253
		c0.959,0,1.738,0.778,1.738,1.741c0,0.957-0.779,1.738-1.738,1.738c-0.962,0-1.743-0.782-1.743-1.738
		C28.691,28.031,29.473,27.253,30.435,27.253z M25.328,27.253c0.961,0,1.741,0.778,1.741,1.741c0,0.957-0.78,1.738-1.741,1.738
		c-0.96,0-1.741-0.782-1.741-1.738C23.586,28.031,24.368,27.253,25.328,27.253z M62.581,57.116c0,0.164-0.133,0.297-0.294,0.297
		H21.713c-0.163,0-0.295-0.133-0.295-0.297V32.613h41.163V57.116z"/>
</g>
<path fill="#005EB8" d="M42.001,35.072c-5.553,0-10.071,4.519-10.071,10.072c0,5.551,4.518,10.068,10.071,10.068
	c5.553,0,10.069-4.518,10.069-10.068C52.07,39.59,47.554,35.072,42.001,35.072z M39.949,49.153
	c-0.415-1.121-0.641-2.194-0.722-3.211h5.547c-0.081,1.017-0.307,2.09-0.721,3.211H39.949z M43.243,50.94
	c-0.349,0.645-0.753,1.301-1.242,1.968c-0.488-0.667-0.895-1.323-1.242-1.968H43.243z M33.722,45.942h3.769
	c0.064,1.023,0.248,2.097,0.603,3.211h-3.377C34.18,48.184,33.833,47.098,33.722,45.942z M44.139,41.163
	c0.313,0.895,0.551,1.898,0.638,2.992h-5.55c0.086-1.094,0.323-2.097,0.637-2.992H44.139z M40.645,39.375
	c0.475-0.9,0.975-1.609,1.356-2.091c0.381,0.482,0.88,1.191,1.355,2.091H40.645z M37.5,44.154h-3.754
	c0.129-1.072,0.456-2.084,0.953-2.992h3.37C37.788,42.077,37.58,43.08,37.5,44.154z M46.51,45.942h3.769
	c-0.11,1.155-0.459,2.241-0.995,3.211h-3.375C46.262,48.039,46.446,46.966,46.51,45.942z M46.502,44.154
	c-0.081-1.074-0.288-2.077-0.569-2.992h3.369c0.497,0.908,0.825,1.919,0.953,2.992H46.502z M47.98,39.375h-2.726
	c-0.41-0.907-0.864-1.681-1.278-2.304C45.526,37.45,46.906,38.261,47.98,39.375z M40.026,37.07
	c-0.416,0.624-0.869,1.397-1.279,2.304H36.02C37.094,38.261,38.475,37.45,40.026,37.07z M36.047,50.94h2.75
	c0.351,0.75,0.785,1.517,1.303,2.292C38.533,52.864,37.135,52.057,36.047,50.94z M43.901,53.232
	c0.519-0.775,0.954-1.542,1.304-2.292h2.748C46.866,52.057,45.469,52.864,43.901,53.232z"/>
<g>
	<rect x="24.17" y="36.538" fill="#005EB8" width="6.483" height="2.161"/>
</g>
<g>
	<rect x="24.17" y="44.062" fill="#005EB8" width="4.322" height="2.161"/>
</g>
<g>
	<rect x="24.17" y="51.585" fill="#005EB8" width="6.483" height="2.161"/>
</g>
<g>
	<rect x="53.346" y="51.585" fill="#005EB8" width="6.483" height="2.161"/>
</g>
<g>
	<rect x="55.507" y="44.062" fill="#005EB8" width="4.322" height="2.161"/>
</g>
<g>
	<rect x="53.346" y="36.538" fill="#005EB8" width="6.483" height="2.161"/>
</g>
</svg>
