<svg width="506" height="462" viewBox="0 0 506 462" fill="none" xmlns="http://www.w3.org/2000/svg">
<path d="M106.186 132.576H100.723C94.8601 132.576 89.2374 134.905 85.0918 139.051C80.9462 143.196 78.6172 148.819 78.6172 154.682V275.986C78.6172 281.849 80.9462 287.472 85.0918 291.617C89.2374 295.763 94.8601 298.092 100.723 298.092H175.679C181.542 298.092 187.164 295.763 191.31 291.617C195.456 287.472 197.785 281.849 197.785 275.986" stroke="white" stroke-width="1.10311" stroke-linecap="round" stroke-linejoin="round" stroke-dasharray="4.41 4.41"/>
<path d="M192.523 110.501V86.5401C192.523 82.9549 193.946 79.5161 196.478 76.9782C199.01 74.4403 202.446 73.0104 206.031 73.0024H303.506C307.096 73.0024 310.539 74.4287 313.078 76.9675C315.617 79.5063 317.043 82.9497 317.043 86.5401" stroke="#00091F" stroke-width="1.10311" stroke-linecap="round" stroke-linejoin="round" stroke-dasharray="4.41 4.41"/>
<path opacity="0.1" d="M293.055 461.345C399.676 461.345 486.109 449.268 486.109 434.37C486.109 419.473 399.676 407.396 293.055 407.396C186.434 407.396 100 419.473 100 434.37C100 449.268 186.434 461.345 293.055 461.345Z" fill="#7CCCDB"/>
<path d="M461.36 50.2615V231.764C461.36 237.698 459.004 243.388 454.81 247.584C450.615 251.781 444.926 254.14 438.992 254.142H119.755C113.821 254.14 108.132 251.781 103.937 247.584C99.743 243.388 97.3867 237.698 97.3867 231.764V50.2615C97.3867 49.7272 97.3867 49.2534 97.4573 48.689C97.8502 43.0428 100.37 37.7558 104.508 33.8946C108.646 30.0333 114.095 27.8852 119.755 27.8835H438.992C444.659 27.8859 450.113 30.0396 454.252 33.9093C458.391 37.779 460.907 43.0759 461.29 48.7293C461.34 49.2131 461.36 49.7373 461.36 50.2615Z" fill="white" stroke="white" stroke-width="1.10311" stroke-linecap="round" stroke-linejoin="round"/>
<path d="M108.273 57.0757H451.613V224.739C451.613 230.299 449.404 235.632 445.472 239.564C441.54 243.496 436.207 245.705 430.646 245.705H129.25C123.689 245.705 118.357 243.496 114.425 239.564C110.493 235.632 108.284 230.299 108.284 224.739V57.0757H108.273Z" fill="#7CCCDB"/>
<path d="M461.293 48.7295H97.4609C97.8539 43.0833 100.374 37.7964 104.512 33.9351C108.65 30.0739 114.098 27.9257 119.758 27.9241H438.996C444.656 27.9257 450.104 30.0739 454.243 33.9351C458.381 37.7964 460.9 43.0833 461.293 48.7295Z" fill="#2855AF" stroke="white" stroke-width="1.10311" stroke-miterlimit="10"/>
<path d="M142.161 38.2862C142.161 39.0697 141.929 39.8356 141.494 40.4871C141.058 41.1386 140.44 41.6463 139.716 41.9461C138.992 42.246 138.195 42.3244 137.427 42.1716C136.658 42.0187 135.953 41.6414 135.399 41.0874C134.845 40.5334 134.467 39.8275 134.314 39.0591C134.162 38.2906 134.24 37.4941 134.54 36.7702C134.84 36.0463 135.347 35.4276 135.999 34.9923C136.65 34.557 137.416 34.3247 138.2 34.3247C139.25 34.3247 140.258 34.7421 141.001 35.485C141.744 36.2279 142.161 37.2355 142.161 38.2862Z" fill="white"/>
<path d="M158.915 38.2862C158.915 39.0697 158.683 39.8356 158.248 40.4871C157.812 41.1386 157.194 41.6463 156.47 41.9461C155.746 42.246 154.949 42.3244 154.181 42.1716C153.412 42.0187 152.707 41.6414 152.152 41.0874C151.598 40.5334 151.221 39.8275 151.068 39.0591C150.915 38.2906 150.994 37.4941 151.294 36.7702C151.594 36.0463 152.101 35.4276 152.753 34.9923C153.404 34.557 154.17 34.3247 154.954 34.3247C156.004 34.3247 157.012 34.7421 157.755 35.485C158.498 36.2279 158.915 37.2355 158.915 38.2862Z" fill="white"/>
<path d="M171.708 42.2477C173.895 42.2477 175.669 40.4741 175.669 38.2862C175.669 36.0983 173.895 34.3247 171.708 34.3247C169.52 34.3247 167.746 36.0983 167.746 38.2862C167.746 40.4741 169.52 42.2477 171.708 42.2477Z" fill="white"/>
<path d="M451.614 57.0757V224.739C451.614 230.299 449.405 235.632 445.473 239.564C441.541 243.496 436.208 245.705 430.647 245.705H129.251C124.398 245.704 119.695 244.02 115.945 240.939C112.195 237.858 109.63 233.572 108.688 228.811V228.75C108.431 227.422 108.303 226.072 108.305 224.718V57.0757H451.614Z" stroke="#2855AF" stroke-width="1.10311" stroke-miterlimit="10"/>
<path opacity="0.2" d="M451.293 83.0016C449.824 82.1762 448.26 81.5298 446.636 81.0763L444.751 72.6594H436.748L434.883 81.0763C433.25 81.5217 431.679 82.1684 430.206 83.0016L422.978 78.3749L417.323 84.0097L421.87 91.2371C421.037 92.7108 420.391 94.2818 419.944 95.9143L411.527 97.7791V105.783L419.944 107.668C420.386 109.308 421.032 110.887 421.87 112.365L417.243 119.643L422.908 125.298L430.176 120.671C431.646 121.506 433.213 122.156 434.843 122.606L436.718 131.013H444.691L446.566 122.606C448.191 122.151 449.754 121.501 451.223 120.671L451.596 120.913V82.8L451.293 83.0016ZM440.77 112.234C438.724 112.234 436.724 111.627 435.023 110.49C433.322 109.353 431.996 107.738 431.214 105.847C430.431 103.957 430.227 101.877 430.627 99.8704C431.027 97.864 432.013 96.0212 433.46 94.5752C434.908 93.1292 436.751 92.145 438.758 91.7471C440.765 91.3492 442.845 91.5554 444.735 92.3397C446.624 93.1241 448.239 94.4512 449.374 96.1533C450.509 97.8554 451.114 99.856 451.112 101.902C451.112 103.26 450.844 104.604 450.325 105.858C449.805 107.112 449.043 108.252 448.082 109.211C447.122 110.171 445.982 110.932 444.727 111.45C443.472 111.969 442.127 112.235 440.77 112.234Z" fill="#2855AF"/>
<path opacity="0.2" d="M307.046 91.1163V74.2422L289.305 70.3008C288.348 66.8728 286.995 63.5678 285.273 60.4525L287.42 57.0757H203.654L205.721 60.3618C203.978 63.4633 202.624 66.7676 201.689 70.2L183.938 74.1514V91.0659L201.689 95.0274C202.624 98.4855 203.978 101.816 205.721 104.946L195.973 120.278L207.918 132.213L223.24 122.455C226.348 124.204 229.654 125.575 233.088 126.538L237.04 144.229H253.873L257.845 126.498C261.268 125.53 264.563 124.159 267.663 122.415L282.995 132.173L294.93 120.238L285.243 104.906C286.96 101.796 288.313 98.4979 289.275 95.0778L307.046 91.1163ZM245.557 104.483C241.245 104.483 237.03 103.204 233.444 100.808C229.859 98.4123 227.064 95.007 225.414 91.023C223.763 87.039 223.332 82.655 224.173 78.4256C225.014 74.1962 227.091 70.3112 230.14 67.262C233.189 64.2127 237.074 62.1361 241.304 61.2948C245.533 60.4536 249.917 60.8853 253.901 62.5356C257.885 64.1858 261.29 66.9804 263.686 70.5659C266.082 74.1515 267.361 78.3669 267.361 82.6792C267.362 85.5429 266.799 88.3787 265.704 91.0246C264.608 93.6705 263.002 96.0746 260.978 98.0995C258.953 100.124 256.549 101.73 253.903 102.826C251.257 103.921 248.421 104.484 245.557 104.483Z" fill="#2855AF"/>
<path d="M195.084 206.987L195.799 193.591L181.919 189.68C181.275 186.927 180.321 184.255 179.076 181.717L187.463 169.943L178.471 159.974L165.912 167.03C163.511 165.519 160.944 164.292 158.261 163.371L155.862 149.138L142.475 148.523L138.605 162.443C135.847 163.062 133.173 164.009 130.641 165.266L118.878 156.889L108.888 165.871L116.005 178.441C114.479 180.831 113.247 183.396 112.336 186.081L108.304 186.747V204.891L111.247 205.717C111.858 208.479 112.802 211.157 114.059 213.691L108.273 221.805L108.656 228.751V228.811L114.634 235.434L127.214 228.327C129.611 229.868 132.187 231.111 134.885 232.027L137.244 245.695L137.355 246.27L150.741 246.975L151.094 245.695L154.612 233.065C157.382 232.445 160.069 231.497 162.615 230.242L174.359 238.609L184.338 229.638L177.282 217.058C178.794 214.67 180.009 212.108 180.901 209.427L195.084 206.987ZM159.531 186.071C157.238 183.521 154.24 181.708 150.916 180.861C147.593 180.015 144.093 180.173 140.859 181.316C137.625 182.46 134.803 184.536 132.75 187.283C130.697 190.031 129.504 193.325 129.324 196.75C129.143 200.175 129.983 203.577 131.736 206.525C133.489 209.472 136.077 211.834 139.172 213.311C142.268 214.788 145.732 215.313 149.126 214.821C152.52 214.329 155.692 212.841 158.241 210.546C161.643 207.472 163.69 203.174 163.931 198.595C164.173 194.016 162.591 189.527 159.531 186.112V186.071Z" fill="#2855AF"/>
<path opacity="0.2" d="M302.156 187.019C302.674 184.944 302.948 182.816 302.973 180.678L312.599 175.638L309.938 165.87L299.072 166.374C297.971 164.549 296.662 162.858 295.171 161.334L298.386 150.942L289.616 145.902L282.278 153.905C280.207 153.405 278.088 153.135 275.958 153.099L270.918 143.472L261.16 146.123L261.674 157C259.849 158.1 258.157 159.409 256.634 160.901L246.231 157.685L241.191 166.445L249.256 173.773C248.734 175.84 248.467 177.962 248.459 180.094L238.812 185.134L241.474 194.891L252.36 194.377C253.439 196.212 254.743 197.905 256.241 199.417L253.005 209.759L261.785 214.799L269.083 206.856C271.156 207.378 273.286 207.646 275.424 207.653L280.464 217.289L290.221 214.638L289.788 205.344L289.717 203.752C291.569 202.662 293.281 201.352 294.818 199.851L305.21 203.076L309.505 195.577L310.23 194.307L302.156 187.019ZM279.103 192.946C276.601 193.636 273.95 193.567 271.486 192.749C269.023 191.93 266.859 190.398 265.267 188.348C263.675 186.297 262.729 183.82 262.547 181.231C262.365 178.642 262.956 176.057 264.246 173.804C265.535 171.551 267.464 169.732 269.789 168.577C272.114 167.422 274.729 166.984 277.303 167.318C279.877 167.651 282.294 168.742 284.248 170.451C286.201 172.16 287.603 174.411 288.276 176.918C289.172 180.26 288.711 183.82 286.992 186.822C285.274 189.825 282.438 192.026 279.103 192.946Z" fill="#2855AF"/>
<path opacity="0.2" d="M413.762 204.195L415.979 190.789L402.411 185.335C402.103 182.478 401.45 179.669 400.466 176.969L410.234 166.092L402.331 155.004L388.864 160.72C386.628 158.928 384.184 157.411 381.586 156.204L380.8 141.598L367.393 139.38L361.899 152.888C359.055 153.222 356.258 153.881 353.563 154.853L342.656 145.085L331.619 152.988L337.344 166.445C335.768 168.412 334.4 170.537 333.262 172.786C333.111 173.098 332.949 173.411 332.808 173.723L318.212 174.53L315.984 187.916L318.182 188.803L329.552 193.39C329.863 196.233 330.516 199.029 331.498 201.716L321.71 212.663L329.623 223.751L343.08 218.005C345.308 219.813 347.749 221.343 350.348 222.561L351.104 237.097L364.5 239.315L369.984 225.908C372.835 225.597 375.637 224.94 378.33 223.952L389.217 233.72L400.305 225.807L394.579 212.34C396.403 210.102 397.944 207.648 399.166 205.032L413.762 204.195ZM376.163 203.591C373.342 205.614 369.985 206.756 366.516 206.871C363.047 206.987 359.621 206.071 356.672 204.239C353.724 202.408 351.384 199.743 349.95 196.582C348.516 193.42 348.052 189.905 348.616 186.48C349.18 183.055 350.747 179.874 353.119 177.34C355.491 174.805 358.561 173.031 361.942 172.242C365.322 171.452 368.86 171.683 372.109 172.905C375.358 174.127 378.172 176.285 380.195 179.106C382.904 182.89 383.999 187.596 383.239 192.187C382.479 196.779 379.927 200.881 376.143 203.591H376.163Z" fill="#2855AF"/>
<path d="M232.078 104.946H126.66C119.362 104.946 113.445 110.863 113.445 118.161V264.112C113.445 271.41 119.362 277.327 126.66 277.327H232.078C239.377 277.327 245.294 271.41 245.294 264.112V118.161C245.294 110.863 239.377 104.946 232.078 104.946Z" fill="#2855AF" stroke="white" stroke-width="1.10311" stroke-miterlimit="10"/>
<path opacity="0.2" d="M232.078 104.946H126.66C119.362 104.946 113.445 110.863 113.445 118.161V264.112C113.445 271.41 119.362 277.327 126.66 277.327H232.078C239.377 277.327 245.294 271.41 245.294 264.112V118.161C245.294 110.863 239.377 104.946 232.078 104.946Z" fill="#00091F"/>
<path d="M257.561 131.185V277.135C257.562 278.872 257.221 280.591 256.558 282.196C255.894 283.8 254.921 285.258 253.694 286.486C252.466 287.715 251.009 288.689 249.405 289.354C247.801 290.018 246.082 290.36 244.346 290.36H138.928C137.192 290.359 135.474 290.016 133.871 289.351C132.268 288.685 130.812 287.711 129.586 286.483C128.36 285.255 127.388 283.797 126.725 282.193C126.062 280.589 125.721 278.871 125.723 277.135V131.185C125.723 127.682 127.114 124.322 129.59 121.844C132.066 119.366 135.425 117.973 138.928 117.97H244.346C247.851 117.97 251.212 119.362 253.69 121.841C256.168 124.319 257.561 127.68 257.561 131.185Z" fill="white" stroke="white" stroke-width="1.10311" stroke-linecap="round" stroke-linejoin="round"/>
<path d="M257.561 131.185V138.997H125.723V131.185C125.723 127.682 127.114 124.322 129.59 121.844C132.066 119.366 135.425 117.973 138.928 117.97H244.346C247.851 117.97 251.212 119.362 253.69 121.841C256.168 124.319 257.561 127.68 257.561 131.185Z" fill="#2855AF" stroke="white" stroke-width="1.10311" stroke-miterlimit="10"/>
<path d="M170.559 148.049H138.121V153.492H170.559V148.049Z" fill="#2855AF"/>
<path d="M170.559 196.827H138.121V202.27H170.559V196.827Z" fill="#2855AF"/>
<path d="M170.559 241.058H138.121V246.502H170.559V241.058Z" fill="#2855AF"/>
<path d="M230.243 161.526H138.121V165.518H230.243V161.526Z" fill="#7CCCDB"/>
<path d="M213.631 169.157H138.121V173.048H213.631V169.157Z" fill="#7CCCDB"/>
<path d="M223.52 176.667H138.121V180.557H223.52V176.667Z" fill="#7CCCDB"/>
<path d="M223.52 184.166H138.121V188.057H223.52V184.166Z" fill="#7CCCDB"/>
<path d="M230.243 205.758H138.121V209.75H230.243V205.758Z" fill="#7CCCDB"/>
<path d="M213.631 213.388H138.121V217.279H213.631V213.388Z" fill="#7CCCDB"/>
<path d="M223.52 220.898H138.121V224.789H223.52V220.898Z" fill="#7CCCDB"/>
<path d="M230.243 254.324H138.121V258.316H230.243V254.324Z" fill="#7CCCDB"/>
<path d="M213.631 261.965H138.121V265.856H213.631V261.965Z" fill="#7CCCDB"/>
<path d="M223.52 269.474H138.121V273.365H223.52V269.474Z" fill="#7CCCDB"/>
<path d="M406.152 16.7653V75.7543C406.152 77.8241 405.745 79.8737 404.952 81.7859C404.16 83.6981 402.998 85.4354 401.534 86.8985C400.07 88.3616 398.332 89.522 396.42 90.3131C394.507 91.1043 392.457 91.5109 390.387 91.5095H254.527C252.457 91.5109 250.407 91.1043 248.495 90.3131C246.582 89.522 244.844 88.3616 243.38 86.8985C241.916 85.4354 240.754 83.6981 239.962 81.7859C239.17 79.8737 238.762 77.8241 238.762 75.7543V16.7653C238.764 12.5849 240.426 8.5765 243.382 5.6205C246.338 2.66451 250.347 1.00267 254.527 1H390.387C394.568 1 398.578 2.66098 401.535 5.61756C404.491 8.57413 406.152 12.5841 406.152 16.7653Z" fill="white" stroke="white" stroke-width="1.10311" stroke-miterlimit="10"/>
<path d="M406.152 16.7653V18.1161H238.762V16.7653C238.764 12.5849 240.426 8.5765 243.382 5.6205C246.338 2.66451 250.347 1.00267 254.527 1H390.387C394.568 1 398.578 2.66098 401.535 5.61756C404.491 8.57413 406.152 12.5841 406.152 16.7653Z" fill="#2855AF" stroke="white" stroke-width="1.10311" stroke-miterlimit="10"/>
<path d="M263.359 12.3805C263.02 12.7194 262.589 12.9504 262.12 13.0442C261.65 13.1381 261.164 13.0905 260.721 12.9076C260.279 12.7246 259.901 12.4146 259.635 12.0166C259.369 11.6186 259.227 11.1507 259.227 10.6719C259.227 10.1932 259.369 9.72522 259.635 9.32726C259.901 8.92929 260.279 8.61921 260.721 8.43628C261.164 8.25334 261.65 8.20578 262.12 8.2996C262.589 8.39342 263.02 8.62442 263.359 8.96334C263.809 9.41816 264.061 10.0321 264.061 10.6719C264.061 11.3117 263.809 11.9257 263.359 12.3805Z" fill="white"/>
<path d="M274.566 12.3805C274.227 12.7194 273.796 12.9504 273.327 13.0442C272.858 13.1381 272.371 13.0905 271.928 12.9076C271.486 12.7246 271.108 12.4146 270.842 12.0166C270.576 11.6186 270.434 11.1507 270.434 10.6719C270.434 10.1932 270.576 9.72522 270.842 9.32726C271.108 8.92929 271.486 8.61921 271.928 8.43628C272.371 8.25334 272.858 8.20578 273.327 8.2996C273.796 8.39342 274.227 8.62442 274.566 8.96334C275.016 9.41816 275.268 10.0321 275.268 10.6719C275.268 11.3117 275.016 11.9257 274.566 12.3805Z" fill="white"/>
<path d="M285.773 12.3805C285.434 12.7194 285.003 12.9504 284.534 13.0442C284.065 13.1381 283.578 13.0905 283.135 12.9076C282.693 12.7246 282.315 12.4146 282.049 12.0166C281.783 11.6186 281.641 11.1507 281.641 10.6719C281.641 10.1932 281.783 9.72522 282.049 9.32726C282.315 8.92929 282.693 8.61921 283.135 8.43628C283.578 8.25334 284.065 8.20578 284.534 8.2996C285.003 8.39342 285.434 8.62442 285.773 8.96334C286.223 9.41816 286.475 10.0321 286.475 10.6719C286.475 11.3117 286.223 11.9257 285.773 12.3805Z" fill="white"/>
<path d="M304.152 28.9624H249.438V76.2584H304.152V28.9624Z" stroke="#2855AF" stroke-width="1.10311" stroke-linecap="round" stroke-linejoin="round" stroke-dasharray="4.41 4.41"/>
<path d="M375.572 28.9624H312.602V32.2889H375.572V28.9624Z" fill="#2855AF"/>
<path d="M360.906 35.8472H312.602V39.1635H360.906V35.8472Z" fill="#2855AF"/>
<path d="M384.523 42.7017H312.602V46.0584H384.523V42.7017Z" fill="#2855AF"/>
<path d="M373.848 49.3848H312.602V52.7415H373.848V49.3848Z" fill="#2855AF"/>
<path d="M426.463 194.539H395.668C392.033 194.539 389.086 197.486 389.086 201.121V219.195C389.086 222.83 392.033 225.777 395.668 225.777H426.463C430.098 225.777 433.045 222.83 433.045 219.195V201.121C433.045 197.486 430.098 194.539 426.463 194.539Z" fill="white" stroke="#2855AF" stroke-width="1.10311" stroke-linecap="round" stroke-linejoin="round"/>
<path d="M403.266 203.934L394.809 209.236L402.661 216.191" stroke="#2855AF" stroke-width="1.10311" stroke-linecap="round" stroke-linejoin="round"/>
<path d="M418.669 216.695L426.27 210.224L417.5 204.478" stroke="#2855AF" stroke-width="1.10311" stroke-linecap="round" stroke-linejoin="round"/>
<path d="M407.383 220.686L413.622 201.111" stroke="#2855AF" stroke-width="1.10311" stroke-linecap="round" stroke-linejoin="round"/>
<path d="M340.29 429.4C340.29 429.4 311.058 437.777 306.975 439.229C303.266 440.539 293.206 444.067 285.656 442.968C284.927 442.863 284.206 442.709 283.499 442.505C275.848 440.226 272.411 438.1 271.403 433.291C270.395 428.483 274.205 424.935 277.874 422.667C281.543 420.399 301.441 418.03 301.441 418.03L306.25 419.441L340.29 429.4Z" fill="#7CCCDB"/>
<path d="M285.656 442.968C284.927 442.863 284.206 442.709 283.499 442.505C275.848 440.226 272.411 438.1 271.403 433.291C270.395 428.483 274.205 424.935 277.874 422.667C281.543 420.399 301.441 418.03 301.441 418.03L306.25 419.441C301.895 421.457 285.686 422.556 282.148 424.592C278.61 426.628 276.906 430.459 278.993 435.68C280.112 438.402 283.096 441.073 285.656 442.968Z" fill="white"/>
<path d="M335.897 430.59C335.897 430.59 313.942 436.275 305.233 439.914C296.524 443.553 279.922 445.146 273.984 437.646C268.047 430.146 273.299 423.675 279.216 422.234C285.133 420.792 297.098 418.524 303.63 419.441" stroke="#00091F" stroke-width="1.10311" stroke-linecap="round" stroke-linejoin="round"/>
<path d="M286.089 442.575C286.089 442.575 274.92 436.446 278.63 427.858C281.372 421.528 296.27 422.899 303.649 419.441" stroke="#00091F" stroke-width="1.10311" stroke-linecap="round" stroke-linejoin="round"/>
<path d="M429.329 444.329C429.027 447.353 427.968 450.185 424.944 451.97C422.928 453.159 420.065 453.865 415.963 453.824C405.711 453.693 386.438 446.365 386.438 446.365L368.395 436.386L377.779 421.538L380.35 417.506L386.982 418.997C386.982 418.997 392.476 422.112 398 424.592C403.524 427.072 416.94 427.616 421.668 431.416C426.396 435.216 429.843 439.349 429.329 444.329Z" fill="#7CCCDB"/>
<path d="M429.327 444.329C429.025 447.353 427.966 450.185 424.942 451.97C425.813 448.997 425.635 445.815 424.438 442.958C422.422 438.432 415.86 434.44 407.232 433.775C398.603 433.11 392 429.078 388.543 427.273C385.841 425.872 380.146 422.808 377.777 421.538L380.348 417.506L386.981 418.997C386.981 418.997 392.474 422.112 397.998 424.592C403.522 427.072 416.939 427.616 421.666 431.416C426.394 435.216 429.841 439.349 429.327 444.329Z" fill="white"/>
<path d="M372.394 439.188C385.383 446.738 399.737 451.641 414.63 453.613C417.916 454.006 421.737 454.067 423.934 451.597C424.519 450.884 424.954 450.06 425.214 449.175C425.474 448.29 425.553 447.362 425.446 446.446C425.053 441.809 421.152 438.14 416.878 436.295C412.604 434.451 407.897 434.027 403.351 433.009C398.829 431.99 394.459 430.391 390.347 428.251C387.081 426.548 383.926 424.481 380.327 423.715C376.729 422.949 372.445 423.877 370.52 427.022" stroke="#00091F" stroke-width="1.10311" stroke-linecap="round" stroke-linejoin="round"/>
<path d="M422.724 452.857C424.413 452.048 425.889 450.856 427.036 449.375C428.182 447.895 428.966 446.167 429.326 444.329C429.982 439.964 427.492 435.57 423.994 432.888C420.496 430.207 416.111 428.937 411.787 428.04C407.463 427.143 403.037 426.538 398.894 424.895C392.574 422.415 386.335 417.536 379.742 419.28" stroke="#00091F" stroke-width="1.10311" stroke-linecap="round" stroke-linejoin="round"/>
<path d="M392.759 283.027L362.226 271.415L361.843 271.263C361.843 271.263 361.954 270.457 362.045 269.247C362.236 266.808 362.337 262.836 361.188 261.496C359.484 259.48 354.666 261.173 349.958 259.016C345.251 256.859 336.552 260.72 336.552 260.72C336.552 260.72 330.262 259.56 327.48 264.096C326.069 267.755 326.552 273.169 326.552 273.169L325.978 273.37C322.339 274.731 302.541 282.18 298.358 285.174C293.731 288.45 288.611 322.087 286.968 331.966C285.325 341.844 282.401 350.745 283.883 354.142C285.365 357.539 306.634 373.919 318.871 378.143C331.109 382.367 374.504 381.167 374.504 381.167C374.504 381.167 375.209 380.976 376.469 380.572C383.808 378.214 409.845 368.476 423.664 345.614C423.685 345.655 410.298 301.776 392.759 283.027ZM310.263 339.607C308.015 341.199 309.255 347.368 309.255 347.368L305.434 344.002L315.031 320.404L319.123 338.548C319.123 338.548 312.511 338.024 310.263 339.607ZM387.033 354.596C385.975 355.14 390.057 343.8 388.122 341.23C386.186 338.659 380.35 338.901 380.35 338.901L380.844 335.806L384.301 318.065L385.451 316.705C385.451 316.705 397.325 337.056 399.452 344.233C399.452 344.254 386.509 354.596 387.033 354.596Z" fill="#2855AF"/>
<path d="M335.112 209.431L319.347 226.164C319.347 226.164 317.18 228.09 318.036 232.938C318.893 237.787 320.909 242.01 322.431 242.293C323.636 242.504 324.857 242.611 326.08 242.615C326.08 242.615 329.457 249.933 331.856 252.806C331.856 252.806 332.683 264.106 332.239 267.241C332.239 267.241 337.904 272.19 343.237 272.815C348.569 273.44 356.805 265.275 356.805 265.275L358.821 255.276C358.821 255.276 363.659 247.938 363.982 245.982C364.304 244.026 366.522 244.53 367.611 243.563C368.699 242.595 371.209 238.291 371.643 234.218C372.076 230.146 372.086 225.469 367.358 226.84C363.256 225.741 365.826 217.072 365.826 217.072L358.619 210.722L335.112 209.431Z" fill="white"/>
<path opacity="0.5" d="M362.224 271.414C361.986 272.037 361.714 272.646 361.408 273.239C358.807 278.138 347.477 287.482 347.477 287.482L344.05 276.948L342.175 287.482C338.395 285.829 326.863 275.839 326.863 275.839C326.863 275.839 326.47 274.902 325.996 273.44L326.571 273.239C326.571 273.239 326.087 267.785 327.498 264.167C330.26 259.631 336.57 260.79 336.57 260.79C336.57 260.79 345.269 256.929 349.977 259.086C354.684 261.243 359.502 259.57 361.206 261.566C362.91 263.562 361.861 271.303 361.861 271.303L362.224 271.414Z" fill="white"/>
<path opacity="0.2" d="M392.756 283.027L362.223 271.415L361.84 271.263C361.84 271.263 361.951 270.457 362.042 269.247L361.407 273.209L356.891 279.338C361.718 281.115 366.431 283.189 371.003 285.547C373.192 286.719 374.977 288.523 376.128 290.723C377.278 292.923 377.74 295.419 377.454 297.885L371.829 346.018L369.521 373.345L376.486 380.572C383.825 378.214 409.862 368.476 423.682 345.614C423.682 345.655 410.295 301.776 392.756 283.027ZM387.03 354.596C385.972 355.14 390.054 343.8 388.119 341.23C386.184 338.659 380.347 338.901 380.347 338.901L380.841 335.806L384.299 318.065L385.448 316.705C385.448 316.705 397.322 337.056 399.449 344.233C399.449 344.254 386.506 354.596 387.03 354.596Z" fill="#00091F"/>
<path opacity="0.2" d="M321.149 341.23L316.401 325.364C316.401 325.364 307.883 296.323 302.047 289.166L303.579 309.588C303.579 309.588 298.539 333.982 293.932 341.23C289.326 348.477 288.297 350.302 293.932 350.302C299.567 350.302 313.286 361.229 313.286 361.229L312.228 352.157L321.149 341.23ZM309.183 347.368L305.363 344.002L314.959 320.404L319.052 338.548C319.052 338.548 312.48 338.054 310.232 339.637C307.984 341.22 309.183 347.368 309.183 347.368Z" fill="#00091F"/>
<path d="M331.852 260.75C330.935 260.99 330.076 261.414 329.326 261.994C328.576 262.574 327.95 263.299 327.487 264.127C325.884 266.949 326.852 275.83 326.852 275.83C326.852 275.83 335.128 284.015 342.174 287.472L344.25 275.789L347.476 287.472C347.476 287.472 358.383 279.761 361.407 273.239C361.407 273.239 362.415 265.629 361.407 263.159C361.178 262.473 360.741 261.875 360.158 261.447C359.575 261.019 358.874 260.783 358.151 260.77" stroke="white" stroke-width="1.10311" stroke-linecap="round" stroke-linejoin="round"/>
<path d="M331.852 252.806C331.852 252.806 332.718 261.364 331.852 265.276" stroke="#2855AF" stroke-width="1.10311" stroke-linecap="round" stroke-linejoin="round"/>
<path d="M357.68 264.126C357.689 261.375 358.007 258.632 358.627 255.951" stroke="#2855AF" stroke-width="1.10311" stroke-linecap="round" stroke-linejoin="round"/>
<path d="M359.966 215.812C359.966 215.812 365.147 222.314 364.875 227.233C364.603 232.152 364.22 237.979 364.351 243.684C364.482 249.389 355.188 261.344 350.41 262.403C345.632 263.461 341.519 263.733 338.465 260.679C335.41 257.625 332.356 253.381 328.385 247.938C324.413 242.495 325.361 230.55 325.361 230.55" stroke="#2855AF" stroke-width="1.10311" stroke-linecap="round" stroke-linejoin="round"/>
<path d="M347.486 235.096C347.17 236.882 347.035 238.695 347.083 240.509C346.979 242.037 347.454 243.548 348.413 244.742C348.988 245.327 349.815 245.801 349.926 246.607C349.923 246.97 349.822 247.326 349.634 247.636C349.446 247.947 349.177 248.201 348.857 248.371C348.211 248.697 347.587 249.068 346.992 249.48" stroke="#2855AF" stroke-width="1.10311" stroke-linecap="round" stroke-linejoin="round"/>
<path d="M339.293 250.105C339.293 250.105 339.888 253.966 345.059 254.772" stroke="#2855AF" stroke-width="1.10311" stroke-linecap="round" stroke-linejoin="round"/>
<path d="M339.825 238.039C339.825 239.158 339.341 240.055 338.747 240.055C338.152 240.055 337.668 239.158 337.668 238.039C337.668 236.92 338.152 236.023 338.747 236.023C339.341 236.023 339.825 236.93 339.825 238.039Z" fill="#2855AF"/>
<path d="M355.259 238.523C355.259 239.642 354.775 240.539 354.18 240.539C353.585 240.539 353.102 239.632 353.102 238.523C353.102 237.414 353.585 236.507 354.18 236.507C354.775 236.507 355.259 237.404 355.259 238.523Z" fill="#2855AF"/>
<path d="M352.145 233.634C352.145 233.634 357.185 228.594 361.408 234.219" stroke="#2855AF" stroke-width="2.20621" stroke-linecap="round" stroke-linejoin="round"/>
<path d="M341.529 233.735C341.529 233.735 338.344 230.166 333.324 233.735" stroke="#2855AF" stroke-width="2.20621" stroke-linecap="round" stroke-linejoin="round"/>
<path d="M331.359 253.028C331.359 253.028 335.311 266.032 342.176 268.441C349.04 270.85 358.072 257.06 358.072 257.06V255.548C358.072 255.548 351.701 264.499 345.059 263.179C338.416 261.858 335.895 257.564 332.367 253.028H331.359Z" fill="#2855AF"/>
<path d="M326.076 242.293C326.076 242.293 321.984 243.734 320.895 240.549C319.806 237.364 316.077 228.967 319.343 226.165C322.609 223.362 325.23 229.864 325.23 229.864" stroke="#2855AF" stroke-width="1.10311" stroke-linecap="round" stroke-linejoin="round"/>
<path d="M364.344 244.027C364.344 244.027 368.144 244.793 369.233 241.608C370.321 238.422 374.051 230.025 370.785 227.223C367.519 224.421 364.898 230.923 364.898 230.923" stroke="#2855AF" stroke-width="1.10311" stroke-linecap="round" stroke-linejoin="round"/>
<path d="M325.228 238.039C326.65 237.815 327.933 237.058 328.817 235.922C329.357 234.925 329.699 233.833 329.825 232.707C330.199 230.563 330.388 228.391 330.389 226.215C330.345 225.365 330.423 224.513 330.621 223.685C330.924 222.852 331.39 222.088 331.992 221.437C333.413 219.764 335.137 218.353 336.498 216.619C337.227 215.801 337.782 214.842 338.129 213.802C338.476 212.763 338.607 211.663 338.514 210.571C341.632 213.142 345.276 214.999 349.19 216.011C353.103 217.022 357.19 217.165 361.164 216.427C368.371 215.016 375.276 208.696 374.44 200.753C374.282 199.421 373.71 198.172 372.807 197.181C371.903 196.191 370.711 195.508 369.399 195.229C365.841 194.342 362.646 196.237 359.42 197.456C353.543 199.674 347.788 195.864 341.85 195.229C336.81 194.674 330.53 195.309 327.889 200.36C327.889 200.36 318.817 201.428 314.785 208.928C310.753 216.427 318.384 226.8 318.384 226.8C318.384 226.8 321.408 223.09 325.369 230.59L325.228 238.039Z" fill="#2855AF"/>
<path d="M360.592 213.897C360.592 213.897 358.233 226.195 364.392 232.152C364.392 232.152 365.743 228.453 367.104 227.546C368.085 225.363 368.501 222.969 368.312 220.583C368.124 218.198 367.337 215.898 366.025 213.897C361.469 206.74 360.592 213.897 360.592 213.897Z" fill="#2855AF"/>
<path opacity="0.2" d="M371.823 199.906C371.282 201.584 370.365 203.116 369.143 204.386C367.92 205.656 366.423 206.63 364.767 207.234C356.219 210.722 347.923 206.861 339.355 206.105C332.369 205.48 324.658 211.79 324.164 218.968" stroke="white" stroke-width="1.10311" stroke-linecap="round" stroke-linejoin="round"/>
<path opacity="0.2" d="M318.891 217.073C318.995 214.24 319.904 211.496 321.511 209.162C323.117 206.827 325.355 204.998 327.963 203.888" stroke="white" stroke-width="1.10311" stroke-linecap="round" stroke-linejoin="round"/>
<path d="M329.879 264.127C333.638 268.044 338.173 271.134 343.195 273.199C343.195 273.199 353.426 270.225 358.627 263.119" stroke="white" stroke-width="1.10311" stroke-linecap="round" stroke-linejoin="round"/>
<path d="M340.334 246.247C344.878 244.163 346.872 238.789 344.788 234.245C342.704 229.701 337.33 227.707 332.786 229.792C328.242 231.876 326.248 237.249 328.333 241.793C330.417 246.337 335.79 248.331 340.334 246.247Z" stroke="#7CCCDB" stroke-width="1.10311" stroke-linecap="round" stroke-linejoin="round"/>
<path d="M357.874 247.044C362.836 246.435 366.365 241.918 365.756 236.956C365.146 231.994 360.63 228.466 355.668 229.075C350.706 229.684 347.177 234.2 347.787 239.162C348.396 244.124 352.912 247.653 357.874 247.044Z" stroke="#7CCCDB" stroke-width="1.10311" stroke-linecap="round" stroke-linejoin="round"/>
<path d="M318.892 338.911C318.892 338.911 315.656 317.239 311.352 308.398" stroke="white" stroke-width="1.10311" stroke-linecap="round" stroke-linejoin="round"/>
<path d="M302.047 289.166C304.553 292.727 306.79 296.471 308.74 300.365" stroke="white" stroke-width="1.10311" stroke-linecap="round" stroke-linejoin="round"/>
<path d="M387.031 305.344C387.9 301.721 389.091 298.182 390.59 294.77" stroke="white" stroke-width="1.10311" stroke-linecap="round" stroke-linejoin="round"/>
<path d="M380.348 338.911C380.348 338.911 382.676 324.053 385.458 311.816" stroke="white" stroke-width="1.10311" stroke-linecap="round" stroke-linejoin="round"/>
<path d="M384.301 318.045C386.551 315.061 389.716 312.894 393.312 311.876" stroke="white" stroke-width="1.10311" stroke-linecap="round" stroke-linejoin="round"/>
<path d="M361.852 271.263C361.852 271.263 380.631 278.773 392.757 283.037C392.757 283.037 407.676 297.058 423.673 345.655C423.673 345.655 409.017 370.311 381.135 378.213" stroke="white" stroke-width="1.10311" stroke-linecap="round" stroke-linejoin="round"/>
<path d="M385.973 355.473L399.45 344.254C399.45 344.254 406.576 338.84 413.985 342.54" stroke="white" stroke-width="1.10311" stroke-linecap="round" stroke-linejoin="round"/>
<path d="M385.461 316.704C385.461 316.704 396.599 333.165 399.452 344.253" stroke="white" stroke-width="1.10311" stroke-linecap="round" stroke-linejoin="round"/>
<path d="M309.335 347.993L305.393 344.254C305.393 344.254 299.547 343.246 292.914 347.671" stroke="white" stroke-width="1.10311" stroke-linecap="round" stroke-linejoin="round"/>
<path d="M305.391 344.253C305.391 344.253 310.29 328.125 315.118 319.87" stroke="white" stroke-width="1.10311" stroke-linecap="round" stroke-linejoin="round"/>
<path d="M326.57 273.239C326.57 273.239 299.545 283.38 296.894 286.343C294.243 289.307 284.173 346.008 283.9 352.499C283.668 358.305 304.716 371.339 315.149 376.833" stroke="white" stroke-width="1.10311" stroke-linecap="round" stroke-linejoin="round"/>
<path d="M346.779 292.401C346.779 292.754 346.675 293.099 346.479 293.392C346.283 293.686 346.004 293.914 345.678 294.05C345.352 294.185 344.993 294.22 344.647 294.151C344.301 294.082 343.983 293.912 343.734 293.663C343.484 293.413 343.314 293.095 343.245 292.749C343.176 292.403 343.212 292.044 343.347 291.718C343.482 291.392 343.71 291.114 344.004 290.918C344.297 290.722 344.642 290.617 344.995 290.617C345.23 290.616 345.462 290.661 345.679 290.75C345.897 290.839 346.094 290.971 346.26 291.137C346.426 291.302 346.557 291.5 346.646 291.717C346.735 291.934 346.781 292.166 346.779 292.401Z" fill="white"/>
<path d="M378.051 387.376H316.563C316.18 387.376 315.814 387.224 315.543 386.954C315.273 386.684 315.121 386.317 315.121 385.935C315.121 385.553 315.273 385.186 315.543 384.916C315.814 384.645 316.18 384.493 316.563 384.493H378.051C378.434 384.493 378.8 384.645 379.071 384.916C379.341 385.186 379.493 385.553 379.493 385.935C379.493 386.317 379.341 386.684 379.071 386.954C378.8 387.224 378.434 387.376 378.051 387.376Z" fill="#00091F"/>
<path d="M380.206 382.558L388.441 343.85C388.569 343.25 388.561 342.629 388.417 342.032C388.274 341.436 387.999 340.879 387.612 340.402C387.226 339.926 386.737 339.542 386.183 339.278C385.629 339.015 385.023 338.879 384.409 338.881H312.538C311.929 338.881 311.328 339.016 310.779 339.276C310.229 339.537 309.743 339.916 309.358 340.386C308.972 340.857 308.696 341.407 308.548 341.997C308.401 342.588 308.386 343.203 308.506 343.8L315.894 381.217C316.075 382.136 316.565 382.966 317.282 383.569C317.998 384.172 318.899 384.512 319.836 384.534L376.073 385.824C377.034 385.845 377.973 385.531 378.727 384.935C379.481 384.338 380.004 383.498 380.206 382.558Z" fill="white" stroke="#2855AF" stroke-width="1.10311" stroke-linecap="round" stroke-linejoin="round"/>
<path d="M353.979 361.218C353.977 362.352 353.639 363.46 353.007 364.402C352.376 365.344 351.48 366.078 350.431 366.51C349.383 366.943 348.23 367.055 347.118 366.832C346.006 366.61 344.985 366.063 344.184 365.26C343.383 364.458 342.838 363.436 342.617 362.324C342.397 361.211 342.511 360.058 342.945 359.011C343.38 357.964 344.115 357.068 345.058 356.439C346.001 355.809 347.109 355.473 348.243 355.473C348.997 355.473 349.744 355.621 350.441 355.91C351.137 356.199 351.77 356.622 352.303 357.156C352.835 357.69 353.258 358.323 353.545 359.02C353.833 359.717 353.98 360.464 353.979 361.218Z" fill="#2855AF"/>
<path d="M365.258 342.58H373.796" stroke="#2855AF" stroke-width="1.10311" stroke-linecap="round" stroke-linejoin="round"/>
<path d="M324.484 342.58H356.892" stroke="#2855AF" stroke-width="1.10311" stroke-linecap="round" stroke-linejoin="round"/>
<path d="M379.976 423.225L380.24 423.166C392.843 420.376 406.101 413.828 416.389 407.007C421.531 403.598 425.916 400.13 429.098 397.042C430.689 395.497 431.971 394.056 432.895 392.771C433.826 391.477 434.365 390.381 434.52 389.525C435.184 385.865 433.783 382.253 430.629 379.228C427.47 376.197 422.566 373.777 416.319 372.565C412.383 371.803 405.694 372.278 398.918 373.485C392.288 374.666 385.675 376.528 381.607 378.535C381.401 380.668 380.839 382.753 379.945 384.702L379.82 384.976L379.518 384.992L379.491 384.493C379.518 384.992 379.518 384.992 379.518 384.992L379.516 384.992L379.509 384.993L379.48 384.994L379.368 385.001L378.93 385.024C378.547 385.045 377.984 385.075 377.266 385.113C375.83 385.189 373.775 385.296 371.298 385.419C366.344 385.666 359.701 385.979 352.945 386.244C346.191 386.509 339.32 386.727 333.913 386.783C331.21 386.812 328.867 386.799 327.084 386.732C326.193 386.698 325.436 386.651 324.84 386.587C324.265 386.525 323.782 386.442 323.481 386.314L323.473 386.31L323.464 386.306C320.704 385.008 318.075 383.449 315.611 381.651L315.608 381.649C315.48 381.555 315.269 381.461 314.958 381.384C314.652 381.308 314.279 381.256 313.851 381.224C312.996 381.161 311.969 381.184 310.911 381.246C309.933 381.303 308.945 381.393 308.058 381.473C307.987 381.479 307.916 381.485 307.846 381.492C306.919 381.575 306.096 381.646 305.564 381.647M379.976 423.225L305.563 381.147M379.976 423.225L379.88 423.476M379.976 423.225L379.88 423.476M305.564 381.647C305.564 381.647 305.563 381.647 305.563 381.647V381.147M305.564 381.647C305.564 381.647 305.565 381.647 305.565 381.647L305.563 381.147M305.564 381.647C301.599 381.661 297.637 381.882 293.694 382.309M305.563 381.147C301.579 381.161 297.599 381.383 293.638 381.812M293.694 382.309C293.695 382.309 293.696 382.309 293.696 382.308L293.638 381.812M293.694 382.309C290.558 382.675 286.653 383.351 283.328 384.829C280.002 386.307 277.336 388.548 276.515 392.007L276.515 392.008C275.862 394.732 276.782 397.658 278.227 400.202M293.694 382.309C293.693 382.309 293.693 382.309 293.692 382.309L293.638 381.812M293.638 381.812L278.227 400.202M278.227 400.202L277.792 400.45L278.227 400.203C278.227 400.203 278.227 400.203 278.227 400.202ZM379.88 423.476L373.486 440.258M379.88 423.476L373.486 440.258M373.486 440.258L373.328 440.673L373.796 440.851C373.918 440.366 373.918 440.366 373.918 440.366L373.917 440.366L373.915 440.366L373.905 440.363L373.869 440.354L373.724 440.318C373.66 440.302 373.581 440.282 373.486 440.258Z" fill="#00091F" stroke="white"/>
<path d="M380.347 423.655C380.347 423.655 364.451 419.441 351.468 410.672C338.484 401.902 328.344 391.721 310.25 393.828" stroke="white" stroke-width="1.10311" stroke-linecap="round" stroke-linejoin="round"/>
<path d="M348.492 408.605C356.697 406.246 362.715 400.934 369.298 395.844C376.24 390.272 383.696 385.371 391.565 381.207" stroke="white" stroke-width="1.10311" stroke-linecap="round" stroke-linejoin="round"/>
<path d="M345.602 239.47H348.011" stroke="#7CCCDB" stroke-width="1.10311" stroke-linecap="round" stroke-linejoin="round"/>
<path d="M500.351 102.81H418.324C415.537 102.81 413.277 105.069 413.277 107.857V168.75C413.277 171.537 415.537 173.796 418.324 173.796H500.351C503.139 173.796 505.398 171.537 505.398 168.75V107.857C505.398 105.069 503.139 102.81 500.351 102.81Z" fill="#2855AF" stroke="white" stroke-linecap="round" stroke-linejoin="round"/>
<path d="M472.807 118.452C472.807 116.867 472.337 115.317 471.456 113.999C470.576 112.681 469.324 111.654 467.859 111.047C466.395 110.44 464.783 110.282 463.229 110.591C461.674 110.9 460.246 111.664 459.125 112.785C458.004 113.905 457.241 115.334 456.931 116.888C456.622 118.443 456.781 120.055 457.387 121.519C457.994 122.984 459.021 124.235 460.339 125.116C461.657 125.997 463.207 126.467 464.792 126.467C465.845 126.467 466.887 126.259 467.859 125.857C468.832 125.454 469.715 124.864 470.46 124.119C471.204 123.375 471.794 122.491 472.197 121.519C472.6 120.547 472.807 119.504 472.807 118.452Z" fill="white" stroke="white" stroke-linecap="round" stroke-linejoin="round"/>
<path d="M418.641 173.796H500.023C501.449 173.796 502.816 173.23 503.825 172.221C504.833 171.213 505.399 169.845 505.399 168.419V143.213L479.692 124.947L461.368 156.29L446.098 141.02L415.988 173.122C416.799 173.573 417.713 173.805 418.641 173.796Z" fill="white" stroke="white" stroke-linecap="round" stroke-linejoin="round"/>
<path d="M116.701 167.87C114.59 169.812 112.585 171.865 110.693 174.021C109.174 175.744 107.856 177.634 106.765 179.656C106.765 179.656 106.119 178.781 102.707 174.05C99.2945 169.318 99.6386 165.619 99.6386 165.619L104.972 160.5C104.972 160.5 115.31 161.948 116.701 167.87Z" fill="white" stroke="#2855AF" stroke-linecap="round" stroke-linejoin="round"/>
<path d="M125.609 146.362C125.609 146.362 126.139 150.664 127.358 151.094C128.577 151.524 132.677 150.592 131.588 153.632C130.842 155.532 129.354 157.027 127.547 157.975C127.547 157.975 126.297 168.543 125.451 169.948C124.605 171.353 123.558 172.357 119.902 171.067L113.221 168.686C112.333 168.645 111.448 168.559 110.568 168.428C108.934 168.185 108.934 168.428 106.869 164.543C104.804 160.657 102.568 163.109 104.346 157.99C106.123 152.872 107.686 149.574 111.299 147.094C114.913 144.613 125.609 146.362 125.609 146.362Z" fill="white" stroke="#2855AF" stroke-linecap="round" stroke-linejoin="round"/>
<path d="M125.765 153.059C125.852 154.292 125.665 155.324 125.335 155.353C125.006 155.382 124.661 154.392 124.561 153.145C124.461 151.898 124.661 150.88 124.991 150.851C125.321 150.822 125.622 151.797 125.765 153.059Z" fill="#2855AF"/>
<path d="M87.4817 135.681C87.4817 135.681 85.0586 122.849 85.0586 118.347C85.0586 113.844 93.6613 85.7422 93.6613 85.7422C93.6613 85.7422 86.9369 76.0498 86.3777 75.3329C85.8185 74.616 86.3777 73.2539 87.8115 74.3006C88.8722 75.2113 89.8033 76.2629 90.5787 77.4262L86.7648 69.7841C86.7648 69.7841 86.7648 67.9346 88.0839 68.3504C89.403 68.7662 92.6577 74.7164 92.6577 74.7164L88.8438 66.042C88.8821 65.7817 88.9856 65.5354 89.1445 65.3257C89.3034 65.1161 89.5126 64.95 89.7528 64.8427C89.993 64.7355 90.2564 64.6906 90.5186 64.7123C90.7808 64.7339 91.0332 64.8214 91.2526 64.9666C92.3566 65.5831 95.4392 71.9492 95.4392 71.9492L94.3926 65.3537C94.3926 65.3537 95.8263 63.0453 97.1741 66.042C97.8336 67.4757 100.63 77.5123 100.63 77.5123L105.547 75.0461C105.907 74.8655 106.322 74.8303 106.706 74.9478C107.091 75.0653 107.415 75.3265 107.612 75.677C107.794 75.9954 107.858 76.3671 107.796 76.7282C107.733 77.0893 107.546 77.4172 107.268 77.6557C105.963 78.7453 103.784 80.6093 103.067 81.3261C101.829 82.7627 100.671 84.2656 99.5972 85.8282L97.848 119.15L99.5972 134.376L87.4817 135.681Z" fill="white"/>
<path d="M90.6959 135.308C90.6959 131.609 90.6959 128.139 90.5239 125.73C90.1081 116.611 93.7355 85.7419 93.7355 85.7419C93.7355 85.7419 85.1328 113.83 85.1328 118.346C85.1328 122.863 87.5559 135.681 87.5559 135.681L90.6959 135.308Z" fill="#7CCCDB"/>
<path opacity="0.5" d="M90.6959 135.308C90.6959 131.609 90.6959 128.139 90.5239 125.73C90.1081 116.611 93.7355 85.7419 93.7355 85.7419C93.7355 85.7419 85.1328 113.83 85.1328 118.346C85.1328 122.863 87.5559 135.681 87.5559 135.681L90.6959 135.308Z" fill="white"/>
<path d="M87.4817 135.681C87.4817 135.681 85.0586 122.849 85.0586 118.347C85.0586 113.844 93.6613 85.7422 93.6613 85.7422C93.6613 85.7422 86.9369 76.0498 86.3777 75.3329C85.8185 74.616 86.3777 73.2539 87.8115 74.3006C88.8722 75.2113 89.8033 76.2629 90.5787 77.4262L86.7648 69.7841C86.7648 69.7841 86.7648 67.9346 88.0839 68.3504C89.403 68.7662 92.6577 74.7164 92.6577 74.7164L88.8438 66.042C88.8821 65.7817 88.9856 65.5354 89.1445 65.3257C89.3034 65.1161 89.5126 64.95 89.7528 64.8427C89.993 64.7355 90.2564 64.6906 90.5186 64.7123C90.7808 64.7339 91.0332 64.8214 91.2526 64.9666C92.3566 65.5831 95.4392 71.9492 95.4392 71.9492L94.3926 65.3537C94.3926 65.3537 95.8263 63.0453 97.1741 66.042C97.8336 67.4757 100.63 77.5123 100.63 77.5123L105.547 75.0461C105.907 74.8655 106.322 74.8303 106.706 74.9478C107.091 75.0653 107.415 75.3265 107.612 75.677C107.794 75.9954 107.858 76.3671 107.796 76.7282C107.733 77.0893 107.546 77.4172 107.268 77.6557C105.963 78.7453 103.784 80.6093 103.067 81.3261C101.829 82.7627 100.671 84.2656 99.5972 85.8282L97.848 119.15L99.5972 134.376L87.4817 135.681Z" stroke="#2855AF" stroke-linecap="round" stroke-linejoin="round"/>
<path d="M117.664 246.255C119.58 248.34 122.2 249.642 125.019 249.911C129.521 250.213 167.904 243.244 167.904 243.244C167.904 243.244 177.138 250.557 177.812 251.173C178.485 251.79 179.89 251.302 178.944 249.854C178.105 248.735 177.116 247.736 176.005 246.886L183.375 251.188C183.375 251.188 185.224 251.374 184.966 249.954C184.708 248.535 178.916 244.994 178.916 244.994L187.318 249.295C187.58 249.274 187.834 249.188 188.054 249.043C188.275 248.898 188.455 248.699 188.578 248.466C188.701 248.233 188.763 247.972 188.758 247.708C188.754 247.445 188.682 247.187 188.551 246.958C188.006 245.825 181.855 242.341 181.855 242.341L188.364 243.775C188.364 243.775 190.744 242.556 187.848 240.907C186.414 240.162 176.65 236.706 176.65 236.706L179.417 231.96C179.623 231.616 179.687 231.206 179.596 230.815C179.505 230.425 179.266 230.085 178.93 229.867C178.625 229.664 178.259 229.574 177.894 229.613C177.53 229.652 177.191 229.818 176.937 230.082C175.761 231.315 173.768 233.38 173.008 234.039C171.489 235.179 169.909 236.237 168.277 237.208L127.199 235.774L119.829 234.14L117.664 246.255Z" fill="white" stroke="#2855AF" stroke-linecap="round" stroke-linejoin="round"/>
<path d="M106.149 177.835C106.149 177.835 118.723 190.925 119.139 193.305C119.554 195.685 89.5022 234.455 84.9571 238.254C80.412 242.054 70.992 251.488 70.992 251.488L43.75 236.39C43.75 236.39 76.5838 186.466 78.4477 182.308C80.3116 178.15 85.6166 166.665 85.6166 166.665C85.6166 166.665 85.717 152.026 85.0001 140.613C84.2832 129.2 85.4302 124.168 86.0324 122.462C86.6346 120.755 91.8966 119.451 95.7679 120.196C99.6391 120.942 99.1659 121.401 99.1659 121.401C99.1659 121.401 103.467 142.692 103.668 143.739C103.869 144.786 106.149 177.835 106.149 177.835Z" fill="white"/>
<path d="M107.126 185.864C108.789 181.72 105.047 178.408 100.072 174.25C98.6662 173.151 97.6292 171.649 97.099 169.946C96.5687 168.242 96.5703 166.418 97.1036 164.715L90.5368 157.661C90.5368 157.661 90.9526 134.864 90.5368 125.731C90.5368 124.297 90.5368 122.433 90.5368 120.21C88.1997 120.612 86.2355 121.472 85.9057 122.462C85.3035 124.168 84.1565 129.186 84.8734 140.613C85.5903 152.041 85.4899 166.665 85.4899 166.665L84.4719 168.859L85.0741 174.25L52.7852 226.927L71.8546 238.957L99.2256 211.17L102.452 217.149C104.688 214.281 106.911 211.342 108.961 208.546C107.484 197.793 106.38 187.685 107.126 185.864Z" fill="#7CCCDB"/>
<path opacity="0.5" d="M107.126 185.864C108.789 181.72 105.047 178.408 100.072 174.25C98.6662 173.151 97.6292 171.649 97.099 169.946C96.5687 168.242 96.5703 166.418 97.1036 164.715L90.5368 157.661C90.5368 157.661 90.9526 134.864 90.5368 125.731C90.5368 124.297 90.5368 122.433 90.5368 120.21C88.1997 120.612 86.2355 121.472 85.9057 122.462C85.3035 124.168 84.1565 129.186 84.8734 140.613C85.5903 152.041 85.4899 166.665 85.4899 166.665L84.4719 168.859L85.0741 174.25L52.7852 226.927L71.8546 238.957L99.2256 211.17L102.452 217.149C104.688 214.281 106.911 211.342 108.961 208.546C107.484 197.793 106.38 187.685 107.126 185.864Z" fill="white"/>
<path d="M106.149 177.835C106.149 177.835 118.723 190.925 119.139 193.305C119.554 195.685 89.5022 234.455 84.9571 238.254C80.412 242.054 70.992 251.488 70.992 251.488L43.75 236.39C43.75 236.39 76.5838 186.466 78.4477 182.308C80.3116 178.15 85.6166 166.665 85.6166 166.665C85.6166 166.665 85.717 152.026 85.0001 140.613C84.2832 129.2 85.4302 124.168 86.0324 122.462C86.6346 120.755 91.8966 119.451 95.7679 120.196C99.6391 120.942 99.1659 121.401 99.1659 121.401C99.1659 121.401 103.467 142.692 103.668 143.739C103.869 144.786 106.149 177.835 106.149 177.835Z" stroke="#2855AF" stroke-linecap="round" stroke-linejoin="round"/>
<path d="M102.308 165.303C103.161 167.395 104.118 169.443 105.175 171.439C106.609 173.848 108.989 175.038 109.348 176.759C109.706 178.479 112.057 184.301 112.057 184.301C112.057 184.301 104.028 180.931 100.501 176.486C96.974 172.042 97.0313 164.715 97.0313 164.715C97.0313 164.715 100.63 163.74 102.308 165.303Z" fill="white" stroke="#2855AF" stroke-linecap="round" stroke-linejoin="round"/>
<path d="M95.4648 207.857C95.4648 207.857 103.752 221.335 107.681 229.106C111.609 236.877 116.8 248.305 121.345 248.964C125.89 249.624 128.514 242.899 128.772 240.433C129.03 237.967 125.374 233.178 123.868 223.07C122.363 212.962 119.137 193.305 119.137 193.305L115.982 189.634" fill="white"/>
<path d="M107.537 197.133L95.4648 207.858C95.4648 207.858 96.5545 209.635 98.1317 212.274L99.2214 211.17L113.33 237.293C113.33 237.293 109.172 212.374 107.537 197.133Z" fill="#7CCCDB"/>
<path opacity="0.5" d="M107.537 197.133L95.4648 207.858C95.4648 207.858 96.5545 209.635 98.1317 212.274L99.2214 211.17L113.33 237.293C113.33 237.293 109.172 212.374 107.537 197.133Z" fill="white"/>
<path d="M95.4648 207.858C95.4648 207.858 103.752 221.335 107.681 229.106C111.609 236.878 116.8 248.305 121.345 248.964C125.89 249.624 128.514 242.899 128.772 240.433C129.03 237.967 125.374 233.178 123.868 223.07C122.363 212.962 119.334 192.751 119.334 192.751L116.919 189.853" stroke="#2855AF" stroke-linecap="round" stroke-linejoin="round"/>
<path d="M128.775 240.434C128.918 239.001 129.449 234.785 127.026 234.011C125.233 235.946 123.048 237.476 120.617 238.499C118.397 239.508 116.054 240.221 113.648 240.621C116.201 245.051 118.867 248.607 121.348 248.965C125.907 249.639 128.546 242.9 128.775 240.434Z" fill="white" stroke="#2855AF" stroke-linecap="round" stroke-linejoin="round"/>
<path d="M100.513 128.526L99.0797 121.357C99.0797 121.357 99.5672 120.898 95.6816 120.153C91.7961 119.407 83.6521 120.253 83.0356 121.959C82.6772 122.992 81.3867 126.103 84.7848 129.931C87.1754 128.646 89.8017 127.859 92.5052 127.617C95.2086 127.376 97.933 127.685 100.513 128.526Z" fill="white"/>
<path d="M90.5909 127.924C90.5909 127.136 90.5909 126.39 90.5909 125.731C90.5909 124.297 90.5909 122.29 90.5909 119.996C87.0494 120.182 83.4219 120.928 83.0491 122.032C82.6763 123.136 81.4003 126.175 84.7983 130.003C86.627 129.053 88.5754 128.354 90.5909 127.924Z" fill="#7CCCDB"/>
<path opacity="0.5" d="M90.5909 127.924C90.5909 127.136 90.5909 126.39 90.5909 125.731C90.5909 124.297 90.5909 122.29 90.5909 119.996C87.0494 120.182 83.4219 120.928 83.0491 122.032C82.6763 123.136 81.4003 126.175 84.7983 130.003C86.627 129.053 88.5754 128.354 90.5909 127.924Z" fill="white"/>
<path d="M100.513 128.526L99.0797 121.357C99.0797 121.357 99.5672 120.898 95.6816 120.153C91.7961 119.407 83.6521 120.253 83.0356 121.959C82.6772 122.992 81.3867 126.103 84.7848 129.931C87.1754 128.646 89.8017 127.859 92.5052 127.617C95.2086 127.376 97.933 127.685 100.513 128.526V128.526Z" stroke="#2855AF" stroke-linecap="round" stroke-linejoin="round"/>
<path d="M101.13 218.397C97.0743 215.019 92.7052 212.038 88.082 209.493" stroke="#2855AF" stroke-linecap="round" stroke-linejoin="round"/>
<path d="M116.168 153.632C116.168 153.632 132.04 146.592 129.674 136.842C127.309 127.092 121.688 122.705 115.336 124.21C108.985 125.716 110.132 129.2 110.132 129.2C110.132 129.2 103.823 127.652 100.568 131.982C99.6203 133.182 99.0255 134.623 98.8508 136.142C98.676 137.662 98.9282 139.2 99.579 140.584C96.7743 143.124 94.8468 146.487 94.0733 150.191C92.9406 156.299 101.701 167.296 103.723 168.357C105.744 169.418 108.153 166.507 108.153 166.507C108.153 166.507 106.232 160.342 107.766 159.869C109.3 159.396 112.067 163.123 112.067 163.123C112.067 163.123 113.501 164.987 114.763 161.331C115.585 158.842 116.058 156.251 116.168 153.632Z" fill="#2855AF" stroke="#2855AF" stroke-linecap="round" stroke-linejoin="round"/>
<path d="M127.67 134.62C127.67 134.62 130.71 138.692 125.476 143.939C120.243 149.187 108.156 151.61 105.188 154.678C102.22 157.747 102.321 165.303 102.321 165.303" stroke="white" stroke-width="0.75" stroke-linecap="round" stroke-linejoin="round"/>
<path d="M116.168 153.633C116.168 153.633 108.396 156.93 107.766 159.898" stroke="white" stroke-width="0.75" stroke-linecap="round" stroke-linejoin="round"/>
<path d="M87.1368 381.031L103.081 389.634C103.274 389.733 103.43 389.893 103.525 390.089C103.62 390.285 103.649 390.507 103.606 390.72C103.564 390.934 103.454 391.128 103.292 391.274C103.13 391.419 102.925 391.508 102.708 391.526L81.1006 393.62C80.61 393.667 80.1152 393.603 79.6527 393.432C79.1903 393.262 78.7721 392.99 78.4292 392.636C78.0863 392.282 77.8274 391.855 77.6718 391.388C77.5162 390.92 77.4679 390.424 77.5304 389.935L78.405 383.239L87.1368 381.031Z" fill="#7CCCDB" stroke="#2855AF" stroke-linecap="round" stroke-linejoin="round"/>
<path d="M103.213 389.634C98.166 390.221 90.3088 389.72 84.9465 390.609C82.5357 391.133 80.0535 391.244 77.6055 390.938C77.7678 391.725 78.2142 392.425 78.8595 392.903C79.5048 393.382 80.3038 393.606 81.1039 393.533L102.711 391.44C102.913 391.421 103.105 391.341 103.261 391.21C103.417 391.08 103.529 390.905 103.584 390.71C103.638 390.514 103.632 390.306 103.566 390.114C103.499 389.922 103.376 389.754 103.213 389.634Z" fill="white" stroke="#2855AF" stroke-linecap="round" stroke-linejoin="round"/>
<path d="M7.0604 379.597L1.88442 384.759C1.60437 385.034 1.38192 385.362 1.23006 385.723C1.07821 386.085 1 386.474 1 386.866C1 387.259 1.07821 387.647 1.23006 388.009C1.38192 388.371 1.60437 388.699 1.88442 388.974L11.4191 398.121L23.1045 399.154C23.4443 399.171 23.7819 399.09 24.0759 398.918C24.37 398.747 24.6076 398.494 24.7598 398.189C24.912 397.885 24.9721 397.543 24.9327 397.205C24.8934 396.867 24.7563 396.548 24.5383 396.286L17.8998 388.314L15.362 382.665L7.0604 379.597Z" fill="#7CCCDB" stroke="#2855AF" stroke-linecap="round" stroke-linejoin="round"/>
<path d="M25.0258 397.778C20.9251 396.803 14.5735 395.312 12.8672 395.097C10.7596 394.838 4.39355 387.311 2.11383 384.53L1.88442 384.759C1.60437 385.034 1.38192 385.362 1.23006 385.724C1.07821 386.086 1 386.474 1 386.867C1 387.259 1.07821 387.648 1.23006 388.009C1.38192 388.371 1.60437 388.699 1.88442 388.974L11.5 398.5L23.1045 399.154C23.5383 399.203 23.9749 399.09 24.3298 398.835C24.6847 398.581 24.9327 398.204 25.0258 397.778Z" fill="white" stroke="#2855AF" stroke-linecap="round" stroke-linejoin="round"/>
<path d="M77.5877 243.659L51.335 225.121C51.335 225.121 40.0081 238.025 38.9758 245.194C38.8611 245.997 38.7751 246.843 38.7034 247.703C38.0967 256.285 39.7011 264.88 43.3632 272.665L64.7266 318.819L78.448 383.138L87.1798 380.988L84.3122 312.653L67.838 260.134L77.5877 243.659Z" fill="#2855AF" stroke="white" stroke-linecap="round" stroke-linejoin="round"/>
<path d="M41.5705 253.126L48.2514 267.346L40.5232 319.851L7.05859 379.583L15.2885 382.666L60.5963 326.031L71.407 263.231L75.0202 247.775" fill="#2855AF"/>
<path d="M41.5705 253.126L48.2514 267.346L40.5232 319.851L7.05859 379.583L15.2885 382.666L60.5963 326.031L71.407 263.231L75.0202 247.775" stroke="white" stroke-linecap="round" stroke-linejoin="round"/>
<path d="M69.1049 276.31L64.3711 313.385" stroke="white" stroke-width="0.75" stroke-linecap="round" stroke-linejoin="round"/>
<path d="M45.6276 276.866L46.1008 263.288L43.5039 256.99" stroke="white" stroke-width="0.75" stroke-linecap="round" stroke-linejoin="round"/>
<path d="M74.1455 242.699C74.1455 242.699 70.4033 251.589 61.9727 251.589" stroke="white" stroke-width="0.75" stroke-linecap="round" stroke-linejoin="round"/>
<path d="M69.5165 239.416L64.828 243.631V247.373L58.2756 245.968L61.5589 255.331L51.25 319.479" stroke="white" stroke-width="0.75" stroke-linecap="round" stroke-linejoin="round"/>
<path d="M49.8449 323.221L47.5078 326.49" stroke="white" stroke-width="0.75" stroke-linecap="round" stroke-linejoin="round"/>
</svg>
