<svg width="109" height="111" viewBox="0 0 109 111" fill="none" xmlns="http://www.w3.org/2000/svg">
<path opacity="0.1" d="M36.8475 49.78C42.1255 50.872 46.1598 53.056 48.9505 56.332C51.8018 59.5473 53.2275 63.4603 53.2275 68.071C53.2275 71.8323 52.1961 75.3207 50.1335 78.536C48.1315 81.7513 45.0375 84.36 40.8515 86.362C36.7261 88.3033 31.5998 89.274 25.4725 89.274C20.9831 89.274 16.5241 88.728 12.0955 87.636C7.72747 86.544 3.93581 84.997 0.720473 82.995L7.27247 69.436C9.75981 71.1347 12.5505 72.439 15.6445 73.349C18.7991 74.259 21.8931 74.714 24.9265 74.714C28.0205 74.714 30.4775 74.1377 32.2975 72.985C34.1175 71.8323 35.0275 70.1943 35.0275 68.071C35.0275 63.9457 31.7818 61.883 25.2905 61.883H17.7375V50.508L29.1125 38.223H3.99647V24.3H50.0425V35.584L36.8475 49.78Z" fill="#2855AF"/>
<circle cx="69" cy="56" r="40" fill="url(#paint0_radial)"/>
<path d="M86.2706 72.5415H52.7292C52.3267 72.5415 52 72.8681 52 73.2706C52 73.6731 52.3267 73.9998 52.7292 73.9998H86.2707C86.6732 73.9998 86.9999 73.6731 86.9999 73.2706C86.9998 72.8681 86.6731 72.5415 86.2706 72.5415Z" fill="white"/>
<path d="M58.5612 63.7915H54.1862C53.7837 63.7915 53.457 64.1182 53.457 64.5207V73.2706C53.457 73.6731 53.7837 73.9998 54.1862 73.9998H58.5612C58.9637 73.9998 59.2904 73.6731 59.2904 73.2706V64.5206C59.2904 64.1181 58.9637 63.7915 58.5612 63.7915ZM57.832 72.5415H54.9154V65.2498H57.8321V72.5415H57.832Z" fill="white"/>
<path d="M67.3112 56.5H62.9362C62.5337 56.5 62.207 56.8267 62.207 57.2292V73.2708C62.207 73.6733 62.5337 74 62.9362 74H67.3112C67.7137 74 68.0404 73.6733 68.0404 73.2708V57.2292C68.0404 56.8267 67.7137 56.5 67.3112 56.5ZM66.582 72.5416H63.6653V57.9583H66.582V72.5416Z" fill="white"/>
<path d="M76.0612 59.4165H71.6862C71.2837 59.4165 70.957 59.7432 70.957 60.1457V73.2706C70.957 73.6731 71.2837 73.9998 71.6862 73.9998H76.0612C76.4637 73.9998 76.7904 73.6731 76.7904 73.2706V60.1457C76.7904 59.7431 76.4637 59.4165 76.0612 59.4165ZM75.332 72.5414H72.4153V60.8748H75.332V72.5414Z" fill="white"/>
<path d="M84.8112 50.6665H80.4362C80.0337 50.6665 79.707 50.9932 79.707 51.3957V73.2706C79.707 73.6731 80.0337 73.9998 80.4362 73.9998H84.8112C85.2137 73.9998 85.5404 73.6731 85.5404 73.2706V51.3957C85.5404 50.9931 85.2137 50.6665 84.8112 50.6665ZM84.082 72.5414H81.1653V52.1248H84.082V72.5414Z" fill="white"/>
<path d="M56.3737 52.125C54.7651 52.125 53.457 53.4331 53.457 55.0417C53.457 56.6502 54.7651 57.9583 56.3737 57.9583C57.9823 57.9583 59.2904 56.6502 59.2904 55.0417C59.2904 53.4331 57.9823 52.125 56.3737 52.125ZM56.3737 56.5C55.5687 56.5 54.9154 55.8452 54.9154 55.0417C54.9154 54.2381 55.5687 53.5834 56.3737 53.5834C57.1787 53.5834 57.832 54.2382 57.832 55.0417C57.832 55.8452 57.1787 56.5 56.3737 56.5Z" fill="white"/>
<path d="M65.1237 44.833C63.5151 44.833 62.207 46.1411 62.207 47.7497C62.207 49.3582 63.5151 50.6664 65.1237 50.6664C66.7323 50.6664 68.0404 49.3582 68.0404 47.7497C68.0404 46.1411 66.7323 44.833 65.1237 44.833ZM65.1237 49.208C64.3187 49.208 63.6654 48.5532 63.6654 47.7497C63.6654 46.9461 64.3187 46.2914 65.1237 46.2914C65.9287 46.2914 66.582 46.9462 66.582 47.7497C66.582 48.5532 65.9287 49.208 65.1237 49.208Z" fill="white"/>
<path d="M73.8737 47.75C72.2651 47.75 70.957 49.0581 70.957 50.6667C70.957 52.2752 72.2651 53.5833 73.8737 53.5833C75.4823 53.5833 76.7904 52.2752 76.7904 50.6667C76.7904 49.0581 75.4823 47.75 73.8737 47.75ZM73.8737 52.125C73.0687 52.125 72.4154 51.4702 72.4154 50.6667C72.4154 49.8631 73.0687 49.2084 73.8737 49.2084C74.6787 49.2084 75.332 49.8632 75.332 50.6667C75.332 51.4702 74.6787 52.125 73.8737 52.125Z" fill="white"/>
<path d="M82.6237 39C81.0151 39 79.707 40.3081 79.707 41.9167C79.707 43.5252 81.0151 44.8333 82.6237 44.8333C84.2323 44.8333 85.5404 43.5252 85.5404 41.9167C85.5404 40.3081 84.2323 39 82.6237 39ZM82.6237 43.375C81.8187 43.375 81.1654 42.7202 81.1654 41.9167C81.1654 41.1131 81.8187 40.4584 82.6237 40.4584C83.4287 40.4584 84.082 41.1132 84.082 41.9167C84.082 42.7202 83.4287 43.375 82.6237 43.375Z" fill="white"/>
<path d="M81.594 42.9462C81.3097 42.6618 80.8473 42.6618 80.563 42.9462L74.9047 48.6045C74.6203 48.8888 74.6203 49.3512 74.9047 49.6355C75.0476 49.777 75.2342 49.8485 75.4209 49.8485C75.6061 49.8485 75.7928 49.7785 75.9357 49.6355L81.594 43.9772C81.8784 43.6929 81.8784 43.2306 81.594 42.9462Z" fill="white"/>
<path d="M72.1123 48.9833L67.4281 47.6475C67.0358 47.5338 66.6377 47.7612 66.5283 48.1492C66.4175 48.5371 66.642 48.9396 67.0285 49.0504L71.7126 50.3862C71.7797 50.4052 71.8468 50.4139 71.9125 50.4139C72.2304 50.4139 72.522 50.2054 72.6139 49.8845C72.7248 49.4981 72.5002 49.0941 72.1123 48.9833Z" fill="white"/>
<path d="M63.988 48.6584C63.7372 48.3434 63.2793 48.2924 62.9643 48.5417L57.4664 52.9255C57.1514 53.1778 57.0989 53.6356 57.3512 53.9506C57.4956 54.1315 57.7085 54.2248 57.9214 54.2248C58.0803 54.2248 58.2407 54.1723 58.3749 54.0673L63.8728 49.6836C64.1878 49.4313 64.2403 48.9734 63.988 48.6584Z" fill="white"/>
<defs>
<radialGradient id="paint0_radial" cx="0" cy="0" r="1" gradientUnits="userSpaceOnUse" gradientTransform="translate(36.7519 23.7519) rotate(47.6978) scale(83.8495)">
<stop stop-color="#64CDFF"/>
<stop offset="1" stop-color="#1277A7"/>
</radialGradient>
</defs>
</svg>
