<svg width="109" height="111" viewBox="0 0 109 111" fill="none" xmlns="http://www.w3.org/2000/svg">
<path opacity="0.1" d="M53.5872 73.713V88H3.99221V76.716L27.8342 54.421C30.1395 52.237 31.6865 50.3867 32.4752 48.87C33.2639 47.2927 33.6582 45.7153 33.6582 44.138C33.6582 42.0753 32.9605 40.4677 31.5652 39.315C30.1699 38.1623 28.1375 37.586 25.4682 37.586C23.1022 37.586 20.9182 38.132 18.9162 39.224C16.9749 40.2553 15.3672 41.772 14.0932 43.774L0.716207 36.312C3.20354 32.1867 6.69187 28.941 11.1812 26.575C15.6705 24.209 20.9789 23.026 27.1062 23.026C31.9595 23.026 36.2365 23.8147 39.9372 25.392C43.6985 26.9693 46.6105 29.2443 48.6732 32.217C50.7965 35.129 51.8582 38.5263 51.8582 42.409C51.8582 45.867 51.0999 49.143 49.5832 52.237C48.1272 55.2703 45.2759 58.7283 41.0292 62.611L29.0172 73.713H53.5872Z" fill="#2855AF"/>
<circle cx="69" cy="56" r="40" fill="url(#paint0_radial)"/>
<path d="M60.8962 61.2674C61.2416 61.0682 61.3598 60.626 61.1606 60.2806C60.9611 59.9354 60.5192 59.8169 60.1738 60.0161C59.8284 60.2156 59.7099 60.6578 59.9094 61.003C60.1086 61.3484 60.5508 61.4669 60.8962 61.2674Z" fill="white"/>
<path d="M57.934 66.2534L61.572 72.555C62.3571 73.9163 64.123 74.4203 65.5196 73.613C66.9015 72.8144 67.3764 71.0487 66.5769 69.6657L64.4097 65.9114L66.2866 64.8278C66.632 64.628 66.7505 64.1864 66.551 63.841L65.6116 62.2139C65.7236 62.1921 66.4601 62.0477 79.4485 59.4997C81.0542 59.4126 82.0162 57.6565 81.2052 56.2526L78.8043 52.0942L80.3386 49.7704C80.4892 49.5418 80.4983 49.248 80.3614 49.011L78.9166 46.5085C78.7797 46.2715 78.5198 46.1326 78.2475 46.1487L75.4682 46.3155L72.8029 41.6988C72.4169 41.0301 71.7252 40.6251 70.9532 40.6155C70.9438 40.6152 70.9348 40.6152 70.9255 40.6152C70.1794 40.6152 69.5021 40.9866 69.1009 41.6145L59.6638 53.6364L53.5287 57.1784C51.1157 58.5711 50.2798 61.6667 51.6778 64.0862C52.955 66.2986 55.6477 67.1689 57.934 66.2534ZM65.326 70.3884C65.725 71.0786 65.4888 71.9619 64.7966 72.3617C64.1021 72.7633 63.2177 72.5167 62.8232 71.8329L59.2112 65.5759L61.7137 64.1311C65.894 71.3727 65.2588 70.2724 65.326 70.3884ZM63.6873 64.6599L62.9649 63.4087L64.2161 62.6863L64.9385 63.9375L63.6873 64.6599ZM77.8886 47.6175L78.887 49.3468L77.9967 50.6951L76.2759 47.7143L77.8886 47.6175ZM70.3092 42.4066C70.5031 42.0894 70.8107 42.0567 70.9354 42.0601C71.0587 42.0615 71.366 42.0998 71.5514 42.421L79.9539 56.975C80.2277 57.4488 79.895 58.0445 79.3461 58.058C79.2476 58.0603 79.2022 58.0781 78.9499 58.1252L70.0617 42.7303C70.2482 42.4904 70.2722 42.4673 70.3092 42.4066ZM69.1003 43.955L77.4512 58.4192L64.848 60.8912L61.0158 54.2538L69.1003 43.955ZM52.929 63.3638C52.6119 62.8149 52.4442 62.1919 52.4442 61.5614C52.4442 60.273 53.1367 59.0731 54.2511 58.4297L59.8817 55.1788L63.4937 61.435L57.8632 64.6861C56.1381 65.6817 53.9249 65.0885 52.929 63.3638Z" fill="white"/>
<path d="M58.655 61.7251C58.4555 61.3797 58.0136 61.2611 57.6682 61.4607L56.417 62.1831C56.0721 62.3823 55.6294 62.2635 55.4302 61.9187C55.2306 61.5733 54.7887 61.4547 54.4433 61.6542C54.0979 61.8538 53.9794 62.2957 54.1789 62.6411C54.7735 63.6711 56.0998 64.0343 57.1394 63.4343L58.3906 62.7119C58.736 62.5124 58.8545 62.0708 58.655 61.7251Z" fill="white"/>
<path d="M86.9123 42.1602L82.8869 44.4003C82.5384 44.5944 82.4128 45.0344 82.607 45.3829C82.8005 45.7311 83.2402 45.8572 83.5895 45.6628L87.6147 43.4228C87.9635 43.2286 88.0888 42.7887 87.8947 42.4402C87.7008 42.0914 87.2609 41.9661 86.9123 42.1602Z" fill="white"/>
<path d="M86.49 49.6422L83.6988 48.8944C83.3133 48.7912 82.9171 49.0197 82.8139 49.4052C82.7106 49.7907 82.9394 50.1866 83.3249 50.2899L86.1163 51.0377C86.5041 51.1418 86.8983 50.9096 87.001 50.5269C87.1043 50.1414 86.8754 49.7452 86.49 49.6422Z" fill="white"/>
<path d="M79.4766 39.5356L78.7279 42.327C78.6247 42.7125 78.8532 43.1084 79.2387 43.212C79.6239 43.315 80.0201 43.0869 80.1236 42.7012L80.872 39.9098C80.9753 39.5243 80.7467 39.1281 80.3613 39.0248C79.9761 38.9215 79.5799 39.1501 79.4766 39.5356Z" fill="white"/>
<defs>
<radialGradient id="paint0_radial" cx="0" cy="0" r="1" gradientUnits="userSpaceOnUse" gradientTransform="translate(36.7519 23.7519) rotate(47.6978) scale(83.8495)">
<stop stop-color="#64CDFF"/>
<stop offset="1" stop-color="#1277A7"/>
</radialGradient>
</defs>
</svg>
