<svg width="101" height="111" viewBox="0 0 101 111" fill="none" xmlns="http://www.w3.org/2000/svg">
<path opacity="0.1" d="M30.4541 24.3V88H12.4361V38.223H0.606059V24.3H30.4541Z" fill="#2855AF"/>
<circle cx="61" cy="56" r="40" fill="url(#paint0_radial)"/>
<path d="M78.1257 47.5244C77.6495 47.5244 77.3321 47.8419 77.3321 48.318V64.1909C77.3321 64.6671 77.0146 64.9845 76.5385 64.9845H73.3639C72.8877 64.9845 72.5703 65.302 72.5703 65.7782C72.5703 66.2544 72.8878 66.5718 73.3639 66.5718H76.5385C77.8877 66.5718 78.9194 65.5401 78.9194 64.1909V48.3181C78.9194 47.8419 78.6019 47.5244 78.1257 47.5244Z" fill="white"/>
<path d="M47.9694 42.7611C48.4077 42.7611 48.763 42.4057 48.763 41.9674C48.763 41.5291 48.4077 41.1738 47.9694 41.1738C47.5311 41.1738 47.1758 41.5291 47.1758 41.9674C47.1758 42.4057 47.5311 42.7611 47.9694 42.7611Z" fill="white"/>
<path d="M50.3483 42.7611C50.7866 42.7611 51.1419 42.4057 51.1419 41.9674C51.1419 41.5291 50.7866 41.1738 50.3483 41.1738C49.91 41.1738 49.5547 41.5291 49.5547 41.9674C49.5547 42.4057 49.91 42.7611 50.3483 42.7611Z" fill="white"/>
<path d="M52.7311 42.7611C53.1694 42.7611 53.5247 42.4057 53.5247 41.9674C53.5247 41.5291 53.1694 41.1738 52.7311 41.1738C52.2928 41.1738 51.9375 41.5291 51.9375 41.9674C51.9375 42.4057 52.2928 42.7611 52.7311 42.7611Z" fill="white"/>
<path d="M74.9504 41.1738H55.903C55.4268 41.1738 55.1094 41.4913 55.1094 41.9674C55.1094 42.4436 55.4269 42.7611 55.903 42.7611H74.9504C75.4266 42.7611 75.744 42.4436 75.744 41.9674C75.744 41.4913 75.4266 41.1738 74.9504 41.1738Z" fill="white"/>
<path d="M72.3329 57.5244L71.3012 57.2863C71.0631 56.572 70.825 55.9371 70.4282 55.2228L70.9837 54.3498C71.5392 53.3974 71.3805 52.2069 70.5869 51.4132L70.1901 51.0164C69.3964 50.2228 68.206 50.064 67.2536 50.6196L66.3806 51.1751C65.7456 50.8577 65.0313 50.5402 64.3171 50.3021L64.079 49.2704C63.8409 48.2387 62.8885 47.5244 61.7774 47.5244H61.0631C59.952 47.5244 58.9996 48.2387 58.7616 49.3498L58.5235 50.3815C57.8092 50.6196 57.1743 50.8577 56.46 51.2545L55.587 50.699C54.6346 50.1435 53.4442 50.3022 52.6505 51.0958L52.2537 51.4926C51.4601 52.2863 51.3013 53.4767 51.8569 54.4291L52.4124 55.3021C52.0949 55.9371 51.7775 56.6514 51.5394 57.3656L50.5077 57.6037C49.476 57.8418 48.7617 58.7942 48.7617 59.9052V60.6195C48.7617 61.7306 49.476 62.683 50.5871 62.921L51.6188 63.1591C51.8569 63.8734 52.095 64.5083 52.4918 65.2226L51.9363 66.0956C51.3014 66.9686 51.4601 68.1591 52.2538 68.9528L52.73 69.429C53.5236 70.2226 54.7141 70.3813 55.6665 69.8258L56.5395 69.2702C57.1744 69.5877 57.8887 69.9052 58.603 70.1433L58.8411 71.175C59.0792 72.2067 60.0316 73.0004 61.1427 73.0004H61.8568C62.9679 73.0004 63.9203 72.2861 64.1583 71.175L64.3964 70.1433C65.1107 69.9052 65.7456 69.6671 66.4599 69.2702L67.3329 69.8258C68.2853 70.3813 69.4758 70.2226 70.2695 69.429L70.7457 68.9528C71.5393 68.1591 71.698 66.9686 71.1425 66.0163L70.5869 65.1432C70.9044 64.5083 71.2218 63.794 71.4599 63.0797L72.333 62.8416C73.3647 62.6035 74.1584 61.6512 74.1584 60.5401V59.8259C74.1583 58.7148 73.444 57.7624 72.3329 57.5244ZM72.571 60.5402C72.571 60.937 72.3329 61.2545 71.9361 61.3338L70.5076 61.7306C70.1901 61.81 70.0314 61.9687 69.952 62.2861C69.7139 63.1591 69.3964 63.9528 68.9202 64.7464C68.7615 64.9845 68.7615 65.302 68.9202 65.5401L69.7139 66.8099C69.8726 67.1274 69.8726 67.5242 69.5552 67.7623L69.079 68.2385C68.8409 68.4766 68.4441 68.556 68.1266 68.3972L66.8568 67.6036C66.6187 67.4449 66.3012 67.4449 66.0631 67.6036C65.2695 68.0798 64.4758 68.3972 63.6028 68.6353C63.2853 68.7147 63.1266 68.9528 63.0473 69.1909L62.6505 70.6194C62.5711 70.9369 62.2537 71.2543 61.8569 71.2543H61.1426C60.7458 71.2543 60.4283 71.0162 60.349 70.6194L59.9522 69.1909C59.8728 68.8734 59.6347 68.7147 59.3966 68.6353C58.5236 68.3972 57.73 68.0798 56.9363 67.6036C56.7776 67.5242 56.6982 67.5242 56.5395 67.5242C56.3808 67.5242 56.222 67.5242 56.1427 67.6036L54.8728 68.3972C54.5553 68.5559 54.1585 68.556 53.9204 68.2385L53.4442 67.7623C53.2061 67.5242 53.1267 67.1274 53.2855 66.8099L54.0791 65.5401C54.2378 65.302 54.2378 64.9845 54.0791 64.7465C53.6029 63.9529 53.2855 63.1592 53.0474 62.2862C52.968 61.9687 52.7299 61.81 52.4918 61.7307L51.0632 61.3339C50.7458 61.2545 50.4283 60.9371 50.4283 60.5403V59.8259C50.4283 59.4291 50.6664 59.1116 51.0632 59.0323L52.4918 58.6355C52.8093 58.5561 52.968 58.318 53.0474 58.0799C53.2855 57.2069 53.6029 56.4133 54.0791 55.6196C54.2378 55.3815 54.2378 55.0641 54.0791 54.826L53.2855 53.5562C53.1267 53.2387 53.1267 52.8419 53.4442 52.6038L53.9204 52.1276C54.1585 51.8895 54.5553 51.8101 54.8728 51.9689L56.1426 52.7625C56.3807 52.9212 56.6981 52.9212 56.9362 52.7625C57.7298 52.2863 58.5235 51.9689 59.3965 51.7308C59.714 51.6514 59.8727 51.4133 59.952 51.1752L60.3488 49.7467C60.4282 49.4292 60.7456 49.1118 61.1424 49.1118H61.8568C62.2536 49.1118 62.5711 49.3499 62.6504 49.7467L63.0472 51.1752C63.1266 51.4927 63.3647 51.6514 63.6028 51.7308C64.4758 51.9689 65.2694 52.2863 66.0631 52.7625C66.3012 52.9212 66.6186 52.9212 66.8567 52.7625L68.1265 51.9689C68.444 51.8102 68.8408 51.8102 69.0789 52.1276L69.5551 52.6038C69.7932 52.8419 69.8726 53.2387 69.7138 53.5562L68.9202 54.826C68.7615 55.0641 68.7615 55.3815 68.9202 55.6196C69.3964 56.4133 69.7138 57.2069 69.9519 58.0799C70.0313 58.3974 70.2694 58.5561 70.5075 58.6355L71.936 59.0323C72.2535 59.1117 72.5709 59.4291 72.5709 59.8259V60.5402H72.571Z" fill="white"/>
<path d="M76.5393 38H46.3809C45.0317 38 44 39.0317 44 40.3809V64.1902C44 65.5394 45.0317 66.5711 46.3809 66.5711H49.5555C50.0317 66.5711 50.3491 66.2536 50.3491 65.7775C50.3491 65.3013 50.0316 64.9839 49.5555 64.9839H46.3809C45.9047 64.9839 45.5873 64.6664 45.5873 64.1903V40.3809C45.5873 39.9047 45.9048 39.5873 46.3809 39.5873H76.5393C77.0155 39.5873 77.3329 39.9048 77.3329 40.3809V44.3491H47.9682C47.492 44.3491 47.1746 44.6666 47.1746 45.1428C47.1746 45.6189 47.4921 45.9364 47.9682 45.9364H78.1266C78.6028 45.9364 78.9202 45.6189 78.9202 45.1428V40.3809C78.9202 39.0317 77.8885 38 76.5393 38Z" fill="white"/>
<path d="M65.1093 54.9837C64.7124 54.7456 64.2362 54.825 63.9981 55.1424C63.76 55.5392 63.8394 56.0154 64.1569 56.2535C65.4267 57.2059 66.2204 58.6344 66.2204 60.2217C66.2204 60.7773 66.141 61.3328 65.9029 61.8883L62.2521 59.7455V54.6662C62.2521 54.19 61.9346 53.8726 61.4585 53.8726C57.9665 53.8726 55.1094 56.7297 55.1094 60.2217C55.1094 63.7137 57.9665 66.5708 61.4585 66.5708C64.9505 66.5708 67.8077 63.7137 67.8077 60.2217C67.8077 58.1583 66.7759 56.1742 65.1093 54.9837ZM56.6967 60.2217C56.6967 57.8408 58.4427 55.9361 60.6649 55.5392V59.7455L57.0142 61.8883C56.776 61.3328 56.6967 60.7773 56.6967 60.2217ZM61.4585 64.9835C59.9506 64.9835 58.6808 64.3486 57.8078 63.2375L61.4585 61.0947L65.1093 63.2375C64.2362 64.3486 62.9664 64.9835 61.4585 64.9835Z" fill="white"/>
<defs>
<radialGradient id="paint0_radial" cx="0" cy="0" r="1" gradientUnits="userSpaceOnUse" gradientTransform="translate(28.7519 23.7519) rotate(47.6978) scale(83.8495)">
<stop stop-color="#64CDFF"/>
<stop offset="1" stop-color="#1277A7"/>
</radialGradient>
</defs>
</svg>
