<svg width="55" height="55" viewBox="0 0 55 55" fill="none" xmlns="http://www.w3.org/2000/svg">
<g clip-path="url(#clip0)">
<path d="M46.9799 20.0764L45.9011 21.1559C45.7558 21.3 45.6116 21.4258 45.4681 21.5417C46.71 24.3234 47.4075 27.4005 47.4075 30.6387C47.4075 42.9832 37.364 53.026 25.0189 53.026C12.6731 53.026 2.62968 42.9832 2.62968 30.6387C2.62968 18.2955 12.6732 8.25345 25.0189 8.25345C27.5904 8.25345 30.0589 8.69496 32.3612 9.49589V9.49514C32.5806 9.14666 32.8367 8.79958 33.1872 8.44649L33.7413 7.89165C31.0322 6.85224 28.0933 6.2771 25.0196 6.2771C11.5649 6.27796 0.654297 17.1853 0.654297 30.6379C0.654297 44.0927 11.5649 55 25.019 55C38.475 55 49.3831 44.0926 49.3831 30.6379C49.383 26.8548 48.5205 23.2714 46.9799 20.0764Z" fill="#2855AF"/>
<path d="M39.9526 23.0513H37.7381C38.8646 25.1112 39.5059 27.4718 39.5059 29.9797C39.5059 37.9671 33.0072 44.4652 25.0196 44.4652C17.0315 44.4652 10.5328 37.967 10.5328 29.9797C10.5327 21.9933 17.0314 15.4953 25.0196 15.4953C27.2649 15.4953 29.3936 16.0088 31.2923 16.9252V14.7612C29.3587 13.9635 27.2407 13.52 25.0196 13.52C15.9272 13.52 8.55664 20.8899 8.55664 29.9798C8.55664 39.0696 15.9271 46.4408 25.0196 46.4408C34.1101 46.4408 41.4819 39.0696 41.4819 29.9798C41.482 27.5038 40.9312 25.1577 39.9526 23.0513Z" fill="#2855AF"/>
<path d="M54.1924 8.14196C54.0385 7.84321 53.7896 7.63439 53.5434 7.50849C53.2951 7.38141 53.0416 7.32179 52.7823 7.29504L48.0801 6.82604C47.9844 6.81884 47.8338 6.75267 47.716 6.63225C47.5954 6.5143 47.5293 6.36369 47.5227 6.26808L47.0518 1.56407C47.015 1.22021 46.924 0.878289 46.6844 0.559997C46.5651 0.402731 46.4021 0.2561 46.2049 0.153942C46.0083 0.0517833 45.7817 -0.000638661 45.5683 5.87199e-06C45.2938 0.000757827 45.0502 0.0778869 44.8452 0.183375C44.6401 0.290797 44.466 0.428298 44.3087 0.584812L34.8181 10.0754C34.4324 10.4665 34.1579 10.9368 33.9469 11.4397C33.7413 11.9447 33.6018 12.472 33.5978 13.0215V18.4415C33.5991 18.8128 33.6948 19.1587 33.8513 19.4692L29.7676 23.6748C28.4444 22.6779 26.8052 22.0786 25.0209 22.0786C20.656 22.0786 17.1191 25.6167 17.1191 29.9796C17.1191 34.3424 20.656 37.8806 25.0209 37.8806C29.3837 37.8806 32.9226 34.3424 32.9226 29.9796C32.9226 28.1129 32.271 26.4001 31.1877 25.0476L35.4175 20.6926C35.5748 20.726 35.7359 20.7457 35.9035 20.7463H41.3267C41.8762 20.7425 42.4035 20.6036 42.9077 20.3979C43.4114 20.1862 43.8816 19.9119 44.2733 19.5261L53.762 10.0381C53.9185 9.8808 54.0554 9.70667 54.1629 9.50106C54.2684 9.29599 54.3463 9.05247 54.3463 8.77865C54.3483 8.56574 54.2959 8.33854 54.1924 8.14196ZM25.0209 35.9061C21.7526 35.9061 19.0939 33.2481 19.0939 29.9803C19.0939 26.7133 21.7525 24.0546 25.0209 24.0546C26.2674 24.0546 27.424 24.4437 28.3796 25.1038L24.3121 29.293C23.9322 29.6841 23.9414 30.3096 24.3325 30.6894C24.7235 31.0694 25.3497 31.0601 25.7297 30.669L29.7945 26.4836C30.5155 27.4649 30.9472 28.6714 30.9472 29.9801C30.9472 33.2481 28.2886 35.9061 25.0209 35.9061ZM35.5746 17.6969V13.0224C35.5707 12.8481 35.642 12.5068 35.7737 12.1964C35.8989 11.8846 36.0901 11.5931 36.2165 11.4726L45.1649 2.52496L45.5586 6.46596C45.5861 6.73118 45.662 6.97686 45.7629 7.20674L35.5746 17.6969ZM42.8769 18.1305C42.7551 18.2563 42.4648 18.4468 42.1531 18.5733C41.8427 18.705 41.5015 18.7763 41.3271 18.7724H37.2832L47.1663 8.59538C47.3903 8.6911 47.6267 8.76371 47.8841 8.79121L51.8231 9.18417L42.8769 18.1305Z" fill="#7CCCDB"/>
</g>
<defs>
<clipPath id="clip0">
<rect width="55" height="55" fill="white"/>
</clipPath>
</defs>
</svg>
