<?xml version="1.0" encoding="utf-8"?>
<!-- Generator: Adobe Illustrator 21.1.0, SVG Export Plug-In . SVG Version: 6.00 Build 0)  -->
<svg version="1.1" id="Layer_1" xmlns="http://www.w3.org/2000/svg" xmlns:xlink="http://www.w3.org/1999/xlink" x="0px" y="0px"
	 viewBox="0 0 482 459" style="enable-background:new 0 0 482 459;" xml:space="preserve">
<style type="text/css">
	.st0{fill:none;stroke:#DCDCDC;stroke-miterlimit:10;}
	.st1{fill:none;stroke:#E0E0E0;stroke-miterlimit:10;}
	.st2{fill:none;stroke:#E8E8E8;stroke-miterlimit:10;}
	.st3{fill:none;stroke:#F4F4F4;stroke-miterlimit:10;}
	.st4{fill:none;stroke:#FFFFFF;stroke-miterlimit:10;}
	.st5{fill:none;stroke:#DDDDDD;stroke-miterlimit:10;}
	.st6{fill:none;stroke:#DFDFDF;stroke-miterlimit:10;}
	.st7{fill:none;stroke:#E2E2E2;stroke-miterlimit:10;}
	.st8{fill:none;stroke:#E6E6E6;stroke-miterlimit:10;}
	.st9{fill:none;stroke:#EBEBEB;stroke-miterlimit:10;}
	.st10{fill:none;stroke:#F1F1F1;stroke-miterlimit:10;}
	.st11{fill:#242F3D;}
	.st12{fill:#FFFFFF;}
	.st13{fill:#252F3E;}
	.st14{fill:#FF9900;}
	.st15{fill:#535B64;}
</style>
<g>
	<polygon class="st0" points="6,6 476,6 476,459 6,459 6,6 	"/>
	<polygon class="st1" points="5,5 477,5 477,459 5,459 5,5 	"/>
	<polygon class="st2" points="4,4 478,4 478,459 4,459 4,4 	"/>
	<polygon class="st3" points="3,3 479,3 479,459 3,459 3,3 	"/>
	<path class="st4" d="M2,2h478v457H2V2L2,2z M1,1h480v458H1V1L1,1z M0,0h482v459H0V0L0,0z"/>
	<line class="st0" x1="6" y1="453" x2="476" y2="453"/>
	<line class="st5" x1="6" y1="454" x2="476" y2="454"/>
	<line class="st6" x1="6" y1="455" x2="476" y2="455"/>
	<line class="st7" x1="6" y1="456" x2="476" y2="456"/>
	<line class="st8" x1="6" y1="457" x2="476" y2="457"/>
	<line class="st9" x1="6" y1="458" x2="476" y2="458"/>
	<line class="st10" x1="6" y1="459" x2="476" y2="459"/>
	<polygon class="st11" points="6,0 476,0 476,13 6,13 6,0 	"/>
	<polygon class="st12" points="6,13 476,13 476,452 6,452 6,13 	"/>
	<path class="st13" d="M147.6,104.2c1.1,0.7,2.8,1.3,4.9,1.7c2.1,0.6,4.3,0.7,6.6,0.7c2.2,0,4.2-0.3,6-0.8c1.8-0.6,3.4-1.4,4.8-2.4
		c1.3-1,2.4-2.2,3.1-3.8c0.7-1.5,1.1-3.1,1.1-5c0-2.2-0.7-4.2-2-6c-1.3-1.7-3.5-3.1-6.6-4.1l-6-2c-2.2-0.7-3.9-1.5-4.8-2.4
		c-0.8-0.8-1.3-1.8-1.3-3.1c0-1.7,0.7-3.1,2-3.8c1.4-0.8,3.2-1.3,5.7-1.3c3.1,0,5.7,0.6,8.3,1.7c0.7,0.3,1.3,0.6,1.7,0.6
		c0.7,0,1-0.4,1-1.4v-1.7c0-0.6-0.1-1.1-0.4-1.4c-0.3-0.4-0.7-0.8-1.3-1.1c-0.4-0.3-1.1-0.6-1.8-0.7c-0.7-0.3-1.5-0.4-2.4-0.7
		c-0.8-0.1-1.8-0.4-2.8-0.4c-1-0.3-2-0.3-2.9-0.3c-2,0-3.6,0.3-5.3,0.7c-1.7,0.6-3.2,1.3-4.5,2.2c-1.3,1-2.2,2.1-3.1,3.5
		c-0.8,1.4-1.1,2.9-1.1,4.8c0,2.2,0.7,4.3,2.1,6.2c1.4,2,3.6,3.4,6.9,4.3l6.2,2c2.1,0.7,3.5,1.4,4.3,2.2c0.8,0.8,1.1,1.8,1.1,2.9
		c0,1.7-0.7,3.1-2.2,4.1c-1.5,1-3.5,1.4-6.3,1.4c-1.7,0-3.4-0.1-5-0.6c-1.7-0.3-3.2-0.8-4.8-1.5c-0.4-0.1-0.8-0.3-1.1-0.4
		c-0.3-0.1-0.6-0.1-0.8-0.1c-0.7,0-1,0.4-1,1.4v2.1c0,0.4,0.1,0.8,0.3,1.3C146.5,103.5,146.9,103.8,147.6,104.2L147.6,104.2z"/>
	<path class="st13" d="M75.2,83.5c-1.5-0.3-3.1-0.3-4.5-0.3c-4.3,0-7.8,1.1-10.5,3.4c-2.7,2.2-3.9,5.2-3.9,8.8c0,3.5,1,6.2,3.1,8.3
		c2.1,2.1,4.9,3.1,8.5,3.1c5,0,9.2-2,12.6-5.9c0.4,1,0.8,1.8,1.3,2.5s1,1.4,1.5,2c0.4,0.4,0.8,0.6,1.3,0.6c0.3,0,0.7-0.1,1.1-0.4
		l2.7-1.8c0.6-0.4,0.8-0.8,0.8-1.3c0-0.3-0.1-0.6-0.3-1c-0.6-1.1-1.1-2.1-1.4-3.1c-0.3-1-0.4-2.2-0.4-3.8v-14
		c0-4.6-1.1-8.1-3.5-10.5s-6-3.5-11.2-3.5c-2.4,0-4.6,0.3-6.7,0.8c-2,0.6-3.8,1.1-5.3,2c-0.6,0.3-1,0.6-1.1,0.8
		C59,70.5,59,71.1,59,71.8v2.1c0,0.8,0.3,1.4,0.8,1.4c0.1,0,0.4,0,0.7-0.1c0.3-0.1,0.8-0.3,1.5-0.6c1.5-0.6,3.1-1.1,4.6-1.4
		c1.5-0.4,3.1-0.6,4.6-0.6c3.4,0,5.6,0.7,7,2c1.4,1.3,2,3.6,2,6.9v3.1C78.4,84.1,76.9,83.8,75.2,83.5L75.2,83.5z M80.1,91.1
		c0,1.4-0.1,2.7-0.4,3.6c-0.3,1-0.7,2-1.4,2.7c-1.1,1.3-2.5,2.2-4.1,2.7c-1.5,0.6-3.1,0.8-4.5,0.8c-2,0-3.5-0.6-4.5-1.5
		c-1-1-1.5-2.5-1.5-4.5c0-2.1,0.7-3.8,2.1-4.9c1.4-1.1,3.5-1.7,6.3-1.7c1.3,0,2.7,0.1,4.1,0.3c1.4,0.1,2.7,0.4,3.9,0.7V91.1
		L80.1,91.1z"/>
	<path class="st13" d="M101.7,103.5c0.3,0.8,0.6,1.4,0.8,1.7c0.3,0.3,0.8,0.4,1.7,0.4h3.6c0.8,0,1.4-0.1,1.7-0.4s0.6-0.8,0.8-1.7
		l6.6-27.6l6.7,27.6c0.1,0.8,0.4,1.4,0.8,1.7c0.3,0.3,1,0.4,1.7,0.4h3.6c0.7,0,1.3-0.1,1.7-0.4c0.3-0.3,0.7-0.8,0.8-1.7l10.4-33
		c0.1-0.4,0.3-0.8,0.3-1c0-0.3,0.1-0.4,0.1-0.7c0-0.7-0.3-1-1-1h-3.9c-0.8,0-1.4,0.1-1.7,0.4c-0.3,0.3-0.6,0.8-0.8,1.7l-7.4,28.7
		l-6.9-28.8c-0.1-0.8-0.4-1.4-0.8-1.7c-0.3-0.3-1-0.4-1.7-0.4h-3.5c-0.8,0-1.4,0.1-1.7,0.4s-0.6,0.8-0.8,1.7l-6.7,28.3L99,69.8
		c-0.3-0.8-0.6-1.4-0.8-1.7c-0.3-0.3-0.8-0.4-1.7-0.4h-4.2c-0.7,0-1,0.3-1,1c0,0.3,0.1,0.8,0.4,1.7L101.7,103.5L101.7,103.5z"/>
	<path class="st14" d="M165.1,124.3c-15.7,6.7-32.9,9.9-48.4,9.9c-23.1,0-45.5-6.3-63.6-16.9c-1.5-1-2.8,0.7-1.4,2
		c16.8,15.1,38.9,24.2,63.6,24.2c17.5,0,37.9-5.5,52.1-16C169.4,125.8,167.5,123.3,165.1,124.3L165.1,124.3z"/>
	<path class="st14" d="M156.3,118.4c-1.3,0.8-1,2.1,0.3,2c4.5-0.6,14.7-1.8,16.4,0.6c1.8,2.2-2,11.8-3.6,16.1
		c-0.6,1.3,0.6,1.8,1.8,0.8c7.6-6.3,9.5-19.6,8-21.4C177.6,114.3,164.3,112.8,156.3,118.4L156.3,118.4z"/>
	<path class="st13" d="M212.8,96.8c-0.3,0-0.6-0.1-0.6-0.6V73.1c0-0.3,0.1-0.6,0.6-0.6h0.7c0.4,0,0.6,0.1,0.6,0.6l0.1,1.4
		c1-0.8,2.1-1.4,3.1-1.8c1-0.4,2-0.6,3.1-0.6c2.2,0,3.9,0.8,5.2,2.4c1.3,1.5,2,3.8,2,6.4c0,2.8-0.7,5-2,6.7
		c-1.4,1.7-3.1,2.5-5.5,2.5c-2.1,0-3.9-0.8-5.7-2.4v8.4c0,0.3-0.1,0.6-0.6,0.6H212.8L212.8,96.8z M219.8,88.4c1.8,0,3.2-0.6,4.2-1.8
		c1-1.3,1.4-3.1,1.4-5.5c0-4.8-1.8-7.1-5.5-7.1c-1.8,0-3.8,0.7-5.6,2.2v9.9c1,0.8,1.8,1.4,2.7,1.8C217.9,88.1,218.9,88.4,219.8,88.4
		L219.8,88.4z"/>
	<path class="st13" d="M235.8,90.1c-1.5,0-2.8-0.4-3.8-1.4c-1-0.8-1.4-2.1-1.4-3.6c0-1.7,0.6-2.9,1.7-3.9c1.1-1,2.7-1.4,4.6-1.4
		c1.5,0,3.1,0.3,4.9,0.8v-2.8c0-1.4-0.3-2.4-1-2.9c-0.7-0.6-1.7-0.8-3.2-0.8c-1.5,0-3.2,0.3-4.9,0.8c-0.1,0-0.4,0.1-0.6,0.1
		c-0.3,0-0.3-0.1-0.3-0.4v-0.7c0-0.1,0-0.3,0.1-0.4c0.1-0.1,0.1-0.1,0.3-0.3c1.8-0.7,3.6-1.1,5.7-1.1c2,0,3.5,0.4,4.5,1.3
		c1,0.8,1.4,2.1,1.4,3.8v12c0,0.3-0.1,0.6-0.6,0.6h-0.7c-0.3,0-0.6-0.1-0.6-0.6l-0.1-1.4C240,89.4,237.9,90.1,235.8,90.1L235.8,90.1
		z M236.1,88.4c0.8,0,1.8-0.1,2.8-0.6c1-0.4,2-0.8,3.1-1.5v-4.2c-1.5-0.4-2.9-0.6-4.5-0.6c-3.2,0-4.8,1.3-4.8,3.6
		c0,1,0.3,1.8,0.8,2.4C234.1,88.1,235,88.4,236.1,88.4L236.1,88.4z"/>
	<path class="st13" d="M249.7,89.8c-0.3,0-0.6-0.1-0.6-0.6V73.1c0-0.3,0.1-0.6,0.6-0.6h0.7c0.4,0,0.6,0.1,0.6,0.6l0.1,2
		c0.8-1,1.7-1.7,2.5-2c0.8-0.4,1.8-0.6,2.8-0.6c0.4,0,0.7,0,0.8,0c0.3,0,0.6,0.1,0.6,0.6V74c0,0.1,0,0.1-0.1,0.3
		c0,0.1-0.1,0.1-0.3,0.1c-0.1,0-0.4,0-0.6,0s-0.4,0-0.7,0c-1,0-2,0.1-2.8,0.6c-0.8,0.4-1.5,1-2.4,1.8v12.5c0,0.3-0.1,0.6-0.6,0.6
		L249.7,89.8L249.7,89.8z"/>
	<path class="st13" d="M266.7,90c-1.4,0-2.4-0.4-3.1-1.1s-1.1-1.7-1.1-3.1V74.4h-2.7c-0.3,0-0.6-0.1-0.6-0.6v-0.3
		c0-0.1,0-0.3,0.1-0.4c0-0.1,0.1-0.1,0.4-0.1l2.8-0.3l0.3-4.5c0-0.1,0.1-0.3,0.1-0.4c0.1-0.1,0.1-0.1,0.4-0.1h0.6
		c0.3,0,0.6,0.1,0.6,0.6v4.5h4.9c0.3,0,0.6,0.1,0.6,0.6V74c0,0.3-0.1,0.6-0.6,0.6h-4.9v11.3c0,1,0.1,1.5,0.6,2
		c0.4,0.4,1.1,0.6,2,0.6c0.7,0,1.3,0,1.7-0.1c0.3,0,0.4-0.1,0.6-0.1s0.3,0,0.3,0c0.3,0,0.4,0.1,0.4,0.4v0.6c0,0.4-0.1,0.6-0.4,0.7
		C268.8,89.8,267.9,90,266.7,90L266.7,90z"/>
	<path class="st13" d="M274.3,89.8c-0.3,0-0.6-0.1-0.6-0.6V73.1c0-0.3,0.1-0.6,0.6-0.6h0.7c0.4,0,0.6,0.1,0.6,0.6l0.1,1.4
		c1.1-0.8,2.2-1.4,3.5-1.8c1.3-0.4,2.4-0.7,3.5-0.7c1.7,0,2.9,0.4,3.8,1.3c0.8,0.8,1.3,2.1,1.3,3.9v11.9c0,0.3-0.1,0.6-0.6,0.6h-1
		c-0.3,0-0.6-0.1-0.6-0.6V78.2c0-1.5-0.3-2.5-0.8-3.2c-0.6-0.7-1.5-1-2.7-1c-2.2,0-4.5,0.7-6.6,2.2v13.2c0,0.3-0.1,0.6-0.6,0.6h-0.7
		V89.8z"/>
	<path class="st13" d="M300.3,90.2c-2.7,0-4.8-0.7-6-2.2c-1.4-1.5-2.1-3.8-2.1-6.9c0-2.8,0.7-5,2.1-6.6c1.4-1.5,3.4-2.4,5.7-2.4
		c2.1,0,3.6,0.6,4.8,1.8c1.1,1.1,1.7,2.8,1.7,5c0,0.8,0,1.5-0.1,2.1c0,0.3-0.3,0.6-0.6,0.6h-11.5c0,2.4,0.6,4.2,1.5,5.3
		s2.7,1.7,4.8,1.7c1.7,0,3.2-0.3,4.6-0.8c0.3-0.1,0.6-0.1,0.6-0.1c0.1,0,0.1,0,0.3,0.1c0,0.1,0.1,0.1,0.1,0.3v0.6
		c0,0.4-0.1,0.6-0.4,0.7C304,89.8,302.3,90.2,300.3,90.2L300.3,90.2z M304.5,80c0-0.3,0-0.7,0-1.1c0-1.7-0.4-2.8-1.1-3.6
		c-0.8-0.8-2-1.3-3.5-1.3c-3.6,0-5.5,2-5.7,6H304.5L304.5,80z"/>
	<path class="st13" d="M311.1,89.8c-0.3,0-0.6-0.1-0.6-0.6V73.1c0-0.3,0.1-0.6,0.6-0.6h0.7c0.4,0,0.6,0.1,0.6,0.6l0.1,2
		c0.8-1,1.7-1.7,2.5-2c0.8-0.4,1.8-0.6,2.8-0.6c0.4,0,0.7,0,0.8,0c0.3,0,0.6,0.1,0.6,0.6V74c0,0.1,0,0.1-0.1,0.3
		c0,0.1-0.1,0.1-0.3,0.1s-0.4,0-0.6,0s-0.4,0-0.7,0c-1,0-2,0.1-2.8,0.6c-0.8,0.4-1.5,1-2.4,1.8v12.5c0,0.3-0.1,0.6-0.6,0.6
		L311.1,89.8L311.1,89.8z"/>
	<path class="st13" d="M212.8,127.5c-0.3,0-0.6-0.1-0.6-0.6v-16c0-0.3,0.1-0.6,0.6-0.6h0.7c0.4,0,0.6,0.1,0.6,0.6l0.1,1.4
		c1.1-0.8,2.2-1.4,3.5-1.8c1.3-0.4,2.4-0.7,3.5-0.7c1.7,0,2.9,0.4,3.8,1.3c0.8,0.8,1.3,2.1,1.3,3.9v11.9c0,0.3-0.1,0.6-0.6,0.6h-1
		c-0.3,0-0.6-0.1-0.6-0.6v-11.1c0-1.5-0.3-2.5-0.8-3.2c-0.6-0.7-1.5-1-2.7-1c-2.2,0-4.5,0.7-6.6,2.2V127c0,0.3-0.1,0.6-0.6,0.6h-0.7
		V127.5z"/>
	<path class="st13" d="M238.9,128c-2.7,0-4.8-0.7-6-2.2c-1.4-1.5-2.1-3.8-2.1-6.9c0-2.8,0.7-5,2.1-6.6c1.4-1.5,3.4-2.4,5.7-2.4
		c2.1,0,3.6,0.6,4.8,1.8c1.1,1.1,1.7,2.8,1.7,5c0,0.8,0,1.5-0.1,2.1c0,0.3-0.3,0.6-0.6,0.6h-11.5c0,2.4,0.6,4.2,1.5,5.3
		c1,1.1,2.7,1.7,4.8,1.7c1.7,0,3.2-0.3,4.6-0.8c0.3-0.1,0.6-0.1,0.6-0.1c0.1,0,0.1,0,0.3,0.1c0,0.1,0.1,0.1,0.1,0.3v0.6
		c0,0.4-0.1,0.6-0.4,0.7C242.7,127.6,240.8,128,238.9,128L238.9,128z M243.1,117.7c0-0.3,0-0.7,0-1.1c0-1.7-0.4-2.8-1.1-3.6
		c-0.8-0.8-2-1.3-3.5-1.3c-3.6,0-5.5,2-5.7,6H243.1L243.1,117.7z"/>
	<path class="st13" d="M254.6,127.8c-1.4,0-2.4-0.4-3.1-1.1s-1.1-1.7-1.1-3.1v-11.5h-2.7c-0.3,0-0.6-0.1-0.6-0.6v-0.3
		c0-0.1,0-0.3,0.1-0.4c0-0.1,0.1-0.1,0.4-0.1l2.8-0.3l0.3-4.5c0-0.1,0.1-0.3,0.1-0.4c0.1-0.1,0.1-0.1,0.4-0.1h0.6
		c0.3,0,0.6,0.1,0.6,0.6v4.5h4.9c0.3,0,0.6,0.1,0.6,0.6v0.7c0,0.3-0.1,0.6-0.6,0.6h-4.9v11.3c0,1,0.1,1.5,0.6,2s1.1,0.6,2,0.6
		c0.7,0,1.3,0,1.7-0.1c0.3,0,0.4-0.1,0.6-0.1c0.1,0,0.3,0,0.3,0c0.3,0,0.4,0.1,0.4,0.4v0.6c0,0.4-0.1,0.6-0.4,0.7
		C256.7,127.6,255.7,127.8,254.6,127.8L254.6,127.8z"/>
	<path class="st13" d="M265.6,127.5c-0.3,0-0.6-0.1-0.7-0.4l-5.3-15.8c-0.1-0.3-0.1-0.4-0.1-0.6s0.1-0.3,0.4-0.3h1.1
		c0.3,0,0.4,0.1,0.6,0.4l4.6,14.4l4.1-14.4c0.1-0.3,0.3-0.4,0.7-0.4h1.3c0.3,0,0.6,0.1,0.7,0.4l4.1,14.4l4.8-14.6
		c0.1-0.3,0.3-0.4,0.6-0.4h1c0.3,0,0.4,0.1,0.4,0.3c0,0.1,0,0.3-0.1,0.6l-5.6,15.8c-0.1,0.3-0.3,0.4-0.7,0.4h-1.1
		c-0.3,0-0.6-0.1-0.7-0.4l-4.1-14.4l-4.1,14.4c-0.1,0.3-0.3,0.4-0.7,0.4h-1V127.5z"/>
	<path class="st13" d="M293.8,128c-2.5,0-4.5-0.8-5.9-2.4c-1.4-1.5-2.1-3.8-2.1-6.7c0-2.8,0.7-5,2.1-6.7c1.4-1.5,3.4-2.4,5.9-2.4
		c2.5,0,4.5,0.8,5.9,2.4c1.4,1.5,2.1,3.8,2.1,6.7c0,2.8-0.7,5-2.1,6.7C298.2,127.2,296.3,128,293.8,128L293.8,128z M293.8,126.2
		c3.9,0,5.9-2.4,5.9-7.3c0-4.9-2-7.3-5.9-7.3c-3.9,0-5.9,2.4-5.9,7.3C287.9,123.8,289.8,126.2,293.8,126.2L293.8,126.2z"/>
	<path class="st13" d="M306.6,127.5c-0.3,0-0.6-0.1-0.6-0.6v-16c0-0.3,0.1-0.6,0.6-0.6h0.7c0.4,0,0.6,0.1,0.6,0.6l0.1,2
		c0.8-1,1.7-1.7,2.5-2c0.8-0.4,1.8-0.6,2.8-0.6c0.4,0,0.7,0,0.8,0c0.3,0,0.6,0.1,0.6,0.6v0.8c0,0.1,0,0.1-0.1,0.3s-0.1,0.1-0.3,0.1
		c-0.1,0-0.4,0-0.6,0c-0.1,0-0.4,0-0.7,0c-1,0-2,0.1-2.8,0.6c-0.8,0.4-1.5,1-2.4,1.8v12.5c0,0.3-0.1,0.6-0.6,0.6h-0.7V127.5z"/>
	<path class="st13" d="M318.3,127.5c-0.3,0-0.6-0.1-0.6-0.6v-24.1c0-0.3,0.1-0.6,0.6-0.6h1c0.3,0,0.6,0.1,0.6,0.6V118l8.1-7.3
		c0.3-0.3,0.6-0.3,0.8-0.3h1.3c0.3,0,0.4,0.1,0.4,0.3s-0.1,0.3-0.4,0.6l-8.3,7.3l9,8.3c0.1,0.1,0.3,0.3,0.3,0.4
		c0,0.3-0.1,0.3-0.4,0.3h-1.4c-0.3,0-0.6-0.1-0.7-0.3l-8.7-8.1v7.8c0,0.3-0.1,0.6-0.6,0.6H318.3L318.3,127.5z"/>
	<path class="st15" d="M57.9,235.3c-1.9-0.7-3.3-1.6-4.1-2.6c-0.8-1-1.3-2.3-1.3-3.9c0-2,0.7-3.6,2.2-4.8c1.5-1.2,3.5-1.8,6-1.8
		c2.1,0,4.1,0.4,6.1,1.2v3.6c-2.1-0.6-4-1-5.8-1c-2.5,0-3.8,0.8-3.8,2.4c0,0.6,0.2,1.1,0.6,1.5c0.4,0.4,1.3,0.8,2.5,1.2l2.4,0.9
		c2,0.7,3.4,1.6,4.2,2.5c0.8,1,1.3,2.2,1.3,3.8c0,2.2-0.8,3.9-2.4,5.2c-1.6,1.3-3.7,1.9-6.5,1.9c-1.2,0-2.4-0.1-3.6-0.3
		c-1.2-0.2-2.2-0.5-3.1-0.9v-3.7c1.1,0.3,2.2,0.6,3.4,0.8c1.2,0.2,2.3,0.3,3.3,0.3c1.3,0,2.2-0.2,2.9-0.7c0.7-0.5,1-1.1,1-2
		c0-0.7-0.2-1.2-0.6-1.6c-0.4-0.4-1.3-0.8-2.5-1.3L57.9,235.3L57.9,235.3z M75.5,238c0.1,1.4,0.5,2.4,1.3,3.1c0.8,0.6,2,0.9,3.6,0.9
		c1.4,0,3.1-0.3,5-0.8v3.1c-0.7,0.4-1.6,0.7-2.7,0.9c-1,0.2-2.1,0.3-3.2,0.3c-2.7,0-4.8-0.7-6.2-2.2c-1.4-1.5-2.1-3.6-2.1-6.5
		c0-2.7,0.7-4.8,2.1-6.4c1.4-1.5,3.4-2.3,5.9-2.3c2.1,0,3.7,0.6,4.9,1.7c1.1,1.2,1.7,2.8,1.7,5c0,0.5,0,1-0.1,1.6
		c-0.1,0.6-0.1,1.1-0.2,1.5H75.5L75.5,238z M78.9,231.4c-1.1,0-1.9,0.3-2.5,0.9c-0.6,0.6-0.9,1.5-1,2.7h6.3v-0.5
		C81.7,232.4,80.8,231.4,78.9,231.4L78.9,231.4z M96.5,244.7c-0.9,0.4-1.9,0.5-2.9,0.5c-2.9,0-4.3-1.6-4.3-4.8v-19.1h4.7V240
		c0,0.6,0.1,1,0.3,1.3c0.2,0.2,0.5,0.4,1,0.4c0.3,0,0.7,0,1.2-0.1V244.7L96.5,244.7z M103.2,238c0.1,1.4,0.5,2.4,1.3,3.1
		c0.8,0.6,2,0.9,3.6,0.9c1.4,0,3.1-0.3,5-0.8v3.1c-0.7,0.4-1.6,0.7-2.7,0.9c-1,0.2-2.1,0.3-3.2,0.3c-2.7,0-4.8-0.7-6.2-2.2
		c-1.4-1.5-2.1-3.6-2.1-6.5c0-2.7,0.7-4.8,2.1-6.4c1.4-1.5,3.4-2.3,5.9-2.3c2.1,0,3.7,0.6,4.9,1.7c1.1,1.2,1.7,2.8,1.7,5
		c0,0.5,0,1-0.1,1.6c-0.1,0.6-0.1,1.1-0.2,1.5H103.2L103.2,238z M106.7,231.4c-1.1,0-1.9,0.3-2.5,0.9c-0.6,0.6-0.9,1.5-1,2.7h6.3
		v-0.5C109.4,232.4,108.5,231.4,106.7,231.4L106.7,231.4z M128.8,244.3c-0.6,0.3-1.3,0.6-2.1,0.8c-0.8,0.2-1.7,0.3-2.5,0.3
		c-2.6,0-4.6-0.7-6-2.2c-1.4-1.5-2.1-3.6-2.1-6.3c0-2.7,0.7-4.8,2.2-6.3c1.5-1.5,3.5-2.3,6-2.3c1.6,0,3,0.3,4.3,1v3.1
		c-1.3-0.4-2.4-0.5-3.5-0.5c-1.5,0-2.6,0.4-3.3,1.1c-0.7,0.8-1,2-1,3.6v0.5c0,1.6,0.3,2.8,1,3.6c0.7,0.8,1.8,1.1,3.2,1.1
		c1,0,2.3-0.2,3.6-0.6V244.3L128.8,244.3z M141.8,244.6c-1.2,0.4-2.4,0.7-3.9,0.7c-1.8,0-3.2-0.4-4-1.3c-0.9-0.9-1.3-2.2-1.3-4v-7.9
		h-2.5v-2.9l2.6-0.5l0.7-4.5h3.8v4.4h4.4v3.5h-4.4v7.7c0,0.7,0.2,1.2,0.5,1.5c0.3,0.3,0.9,0.4,1.7,0.4c0.7,0,1.4-0.1,2.3-0.2V244.6
		L141.8,244.6z"/>
	<path class="st15" d="M77.7,315.8c-7.3,0-12.7-2-16.5-6.1c-3.7-4.1-5.6-10.1-5.6-18c0-7.9,1.9-13.9,5.8-18
		c3.9-4.2,9.4-6.2,16.6-6.2c3.3,0,6.5,0.5,9.7,1.5c0.3,0.1,0.5,0.2,0.6,0.4c0.1,0.2,0.2,0.5,0.2,0.9v1.5c0,0.6-0.3,0.9-0.8,0.9
		c-0.2,0-0.9-0.1-2-0.4c-1-0.3-2.2-0.5-3.5-0.6c-1.4-0.2-2.6-0.3-3.7-0.3c-6.2,0-10.8,1.6-13.9,4.9c-3.1,3.2-4.6,8.1-4.6,14.6v1.7
		c0,13,6,19.5,18,19.5c2.9,0,5.8-0.4,8.7-1.2c0.8-0.2,1.4-0.3,1.6-0.3c0.5,0,0.8,0.3,0.8,0.9v1.5c0,0.4-0.1,0.7-0.2,0.9
		c-0.1,0.2-0.3,0.3-0.6,0.4C84.9,315.2,81.4,315.8,77.7,315.8L77.7,315.8z M110.9,316c-5,0-8.9-1.6-11.6-4.8
		c-2.8-3.2-4.1-7.7-4.1-13.4c0-5.7,1.4-10.1,4.1-13.3c2.8-3.2,6.7-4.8,11.6-4.8c5,0,8.9,1.6,11.6,4.8c2.8,3.2,4.2,7.6,4.2,13.3
		c0,5.7-1.4,10.2-4.2,13.4C119.8,314.4,115.9,316,110.9,316L110.9,316z M110.9,312.5c7.8,0,11.8-4.9,11.8-14.6
		c0-9.7-3.9-14.5-11.8-14.5c-7.8,0-11.8,4.8-11.8,14.5C99.1,307.6,103.1,312.5,110.9,312.5L110.9,312.5z M136.5,315
		c-0.7,0-1-0.3-1-1v-32.2c0-0.7,0.3-1,1-1h1.4c0.7,0,1.1,0.3,1.2,1l0.3,2.9c2.2-1.6,4.6-2.8,7-3.7c2.4-0.9,4.8-1.3,7.1-1.3
		c3.3,0,5.8,0.9,7.6,2.6c1.8,1.7,2.6,4.3,2.6,7.7V314c0,0.7-0.3,1-1,1h-1.8c-0.7,0-1-0.3-1-1v-22.2c0-2.9-0.6-5.1-1.7-6.4
		c-1.1-1.3-2.9-2-5.4-2c-4.5,0-8.9,1.4-13.3,4.3V314c0,0.7-0.3,1-1,1H136.5L136.5,315z M182.8,316c-1.8,0-3.6-0.2-5.4-0.5
		c-1.8-0.4-3.4-0.8-4.9-1.5c-0.5-0.2-0.8-0.7-0.8-1.4v-1.2c0-0.6,0.3-0.8,0.8-0.8c0.1,0,0.3,0,0.6,0.1s1,0.3,1.9,0.6
		c2.5,0.8,5.2,1.2,8,1.2c2.8,0,4.9-0.6,6.3-1.7c1.5-1.1,2.2-2.7,2.2-4.9c0-1.2-0.4-2.3-1.3-3.1c-0.9-0.9-2.4-1.7-4.5-2.5l-6.2-2.3
		c-4.9-1.8-7.3-4.8-7.3-8.9c0-2.8,1.1-5.1,3.2-6.8c2.1-1.8,4.9-2.6,8.3-2.6c3,0,6,0.6,8.9,1.7c0.5,0.2,0.8,0.7,0.8,1.4v1
		c0,0.6-0.2,0.9-0.7,0.9c-0.3,0-0.9-0.1-1.7-0.3c-2.9-0.8-5.3-1.2-7.5-1.2c-2.4,0-4.3,0.5-5.6,1.5c-1.3,1-1.9,2.4-1.9,4.3
		c0,1.5,0.4,2.7,1.3,3.6c0.9,0.8,2.6,1.7,5.2,2.7l5.4,2c2.5,0.9,4.4,2.1,5.5,3.5s1.7,3.1,1.7,5.1c0,3.1-1.1,5.5-3.4,7.3
		C189.7,315.1,186.6,316,182.8,316L182.8,316z M212.6,316c-3.3,0-5.8-0.9-7.5-2.6c-1.7-1.8-2.6-4.4-2.6-7.8v-23.8c0-0.7,0.3-1,1-1
		h1.8c0.7,0,1,0.3,1,1V304c0,3,0.6,5.2,1.7,6.5c1.1,1.3,2.9,2,5.4,2c2.2,0,4.3-0.3,6.2-1c1.9-0.7,4-1.8,6.3-3.3v-26.3
		c0-0.7,0.3-1,1-1h1.8c0.7,0,1,0.3,1,1V314c0,0.7-0.3,1-1,1h-1.4c-0.7,0-1.1-0.3-1.2-1l-0.3-2.7C221.7,314.4,217.3,316,212.6,316
		L212.6,316z M246.2,315.2c-1.8,0-3.2-0.5-4.3-1.6c-1-1.1-1.5-2.5-1.5-4.5v-43.5c0-0.7,0.3-1,1-1h1.8c0.7,0,1,0.3,1,1v43.4
		c0,1,0.2,1.7,0.6,2.1c0.4,0.4,1.1,0.6,2.1,0.6c0.3,0,0.6,0,0.9-0.1c0.3,0,0.6-0.1,0.8-0.1c0.6,0,1,0.3,1,1v1.3c0,0.6-0.3,0.9-0.9,1
		C248.1,315.1,247.2,315.2,246.2,315.2L246.2,315.2z M268,315.4c-2.7,0-4.7-0.7-6.1-2.1s-2.1-3.5-2.1-6.2v-22.8h-5.4
		c-0.7,0-1-0.3-1-1v-0.7c0-0.4,0.1-0.6,0.2-0.8c0.1-0.2,0.4-0.3,0.8-0.3l5.5-0.5l0.5-9c0-0.4,0.1-0.6,0.3-0.8s0.4-0.2,0.7-0.2h1.2
		c0.7,0,1,0.3,1,1v8.9h9.9c0.7,0,1,0.3,1,1v1.4c0,0.7-0.3,1-1,1h-9.9v22.6c0,1.9,0.4,3.2,1.2,3.9c0.8,0.8,2.1,1.2,4,1.2
		c1.3,0,2.5-0.1,3.5-0.3c0.5-0.1,0.9-0.2,1.2-0.2c0.3-0.1,0.5-0.1,0.7-0.1c0.5,0,0.8,0.3,0.8,0.8v1c0,0.8-0.3,1.3-0.8,1.4
		C272.3,315.1,270.3,315.4,268,315.4L268,315.4z M283.4,315c-0.7,0-1-0.3-1-1v-32.2c0-0.7,0.3-1,1-1h1.8c0.7,0,1,0.3,1,1V314
		c0,0.7-0.3,1-1,1H283.4L283.4,315z M284.3,273.5c-0.9,0-1.6-0.3-2.1-0.8c-0.5-0.6-0.8-1.3-0.8-2.2s0.3-1.6,0.8-2.2
		c0.5-0.5,1.2-0.8,2.1-0.8s1.6,0.3,2.1,0.8c0.5,0.5,0.8,1.3,0.8,2.2s-0.3,1.6-0.8,2.2C285.9,273.2,285.2,273.5,284.3,273.5
		L284.3,273.5z M298.1,315c-0.7,0-1-0.3-1-1v-32.2c0-0.7,0.3-1,1-1h1.4c0.7,0,1.1,0.3,1.2,1l0.3,2.9c2.2-1.6,4.6-2.8,7-3.7
		c2.4-0.9,4.8-1.3,7.1-1.3c3.3,0,5.8,0.9,7.6,2.6c1.8,1.7,2.6,4.3,2.6,7.7V314c0,0.7-0.3,1-1,1h-1.8c-0.7,0-1-0.3-1-1v-22.2
		c0-2.9-0.6-5.1-1.7-6.4c-1.1-1.3-2.9-2-5.4-2c-4.5,0-8.9,1.4-13.3,4.3V314c0,0.7-0.3,1-1,1H298.1L298.1,315z M347.8,329.8
		c-1.9,0-3.8-0.2-5.6-0.6c-1.8-0.4-3.4-0.9-4.8-1.6c-0.5-0.2-0.8-0.7-0.8-1.4v-1c0-0.6,0.3-0.9,0.8-0.9c0.1,0,0.3,0,0.4,0.1
		c0.2,0,0.5,0.1,0.9,0.3c3.2,1,6.2,1.6,8.8,1.6c4.2,0,7.3-1,9.3-3.1c2-2.1,3-5.4,3-9.9V310c-1.7,1.4-3.5,2.5-5.6,3.3
		c-2,0.8-4,1.2-5.8,1.2c-4.4,0-7.8-1.6-10.5-4.7c-2.6-3.1-3.9-7.2-3.9-12.3c0-5.5,1.3-9.8,3.9-13c2.6-3.2,6.2-4.8,10.7-4.8
		c4.3,0,8,1.5,11.3,4.5l0.3-2.5c0.1-0.7,0.5-1,1.2-1h1.4c0.7,0,1,0.3,1,1v31.6c0,5.3-1.4,9.4-4.1,12.2S352.9,329.8,347.8,329.8
		L347.8,329.8z M349.3,311c3.4,0,6.9-1.4,10.5-4.3v-18.9c-1.9-1.5-3.6-2.7-5.4-3.4c-1.7-0.7-3.6-1.1-5.5-1.1c-3.6,0-6.4,1.2-8.2,3.5
		c-1.8,2.4-2.8,5.8-2.8,10.5c0,4.4,1,7.8,2.9,10.2S345.6,311,349.3,311L349.3,311z"/>
	<path class="st15" d="M58,385c-0.7,0-1-0.3-1-1v-45.1c0-0.7,0.3-1,1-1h15.2c4.3,0,7.7,1.3,10.3,3.8c2.6,2.5,3.8,5.9,3.8,10.2
		c0,4.2-1.3,7.6-3.8,10.1c-2.6,2.5-6,3.8-10.3,3.8H60.9V384c0,0.7-0.3,1-1,1H58L58,385z M73.1,362.2c6.7,0,10.1-3.4,10.1-10.3
		c0-6.9-3.4-10.4-10.1-10.4H60.9v20.7H73.1L73.1,362.2z M104,385.8c-3.1,0-5.6-0.9-7.5-2.7c-1.8-1.8-2.8-4.2-2.8-7.2
		c0-3.3,1.1-5.9,3.4-7.8c2.3-1.9,5.4-2.9,9.3-2.9c3,0,6.3,0.5,9.7,1.6v-5.7c0-2.8-0.7-4.7-2-5.9c-1.3-1.2-3.5-1.8-6.5-1.8
		c-3.1,0-6.4,0.6-9.9,1.7c-0.4,0.1-0.8,0.2-1,0.2c-0.4,0-0.7-0.3-0.7-0.9v-1.1c0-0.4,0.1-0.6,0.2-0.8c0.1-0.2,0.4-0.4,0.7-0.5
		c3.6-1.4,7.4-2.1,11.4-2.1c4,0,6.9,0.8,8.9,2.5s2.9,4.2,2.9,7.6V384c0,0.7-0.3,1-1,1h-1.4c-0.7,0-1-0.3-1.1-1l-0.3-2.9
		C112.3,384.2,108.2,385.8,104,385.8L104,385.8z M104.5,382.2c1.7,0,3.6-0.3,5.6-1c2-0.7,4-1.7,6.1-3v-8.5c-3-0.8-6-1.2-8.8-1.2
		c-6.3,0-9.5,2.4-9.5,7.3c0,2.1,0.6,3.7,1.7,4.8C100.6,381.7,102.3,382.2,104.5,382.2L104.5,382.2z M131.5,385c-0.7,0-1-0.3-1-1
		v-32.2c0-0.7,0.3-1,1-1h1.3c0.7,0,1.1,0.3,1.2,1l0.3,4c1.7-1.9,3.4-3.3,5.1-4c1.7-0.8,3.5-1.2,5.6-1.2c0.7,0,1.3,0,1.8,0.1
		c0.7,0,1,0.4,1,1.1v1.7c0,0.2-0.1,0.4-0.2,0.5c-0.1,0.2-0.3,0.2-0.5,0.2c-0.4,0-0.7,0-1,0c-0.3,0-0.8,0-1.4,0
		c-2.1,0-3.9,0.4-5.5,1.2c-1.6,0.8-3.2,2-4.6,3.7v25c0,0.7-0.3,1-1,1H131.5L131.5,385z M164.4,385.4c-2.7,0-4.7-0.7-6.1-2.1
		s-2.1-3.5-2.1-6.2v-22.8h-5.4c-0.7,0-1-0.3-1-1v-0.7c0-0.4,0.1-0.6,0.2-0.8c0.1-0.2,0.4-0.3,0.8-0.3l5.5-0.5l0.5-9
		c0-0.4,0.1-0.6,0.3-0.8c0.2-0.2,0.4-0.2,0.7-0.2h1.2c0.7,0,1,0.3,1,1v8.9h9.9c0.7,0,1,0.3,1,1v1.4c0,0.7-0.3,1-1,1h-9.9v22.6
		c0,1.9,0.4,3.2,1.2,3.9c0.8,0.8,2.1,1.2,4,1.2c1.3,0,2.5-0.1,3.5-0.3c0.5-0.1,0.9-0.2,1.2-0.2c0.3-0.1,0.5-0.1,0.7-0.1
		c0.5,0,0.8,0.3,0.8,0.8v1c0,0.8-0.2,1.3-0.8,1.4C168.8,385.1,166.7,385.4,164.4,385.4L164.4,385.4z M179.5,385c-0.7,0-1-0.3-1-1
		v-32.2c0-0.7,0.3-1,1-1h1.4c0.7,0,1.1,0.3,1.2,1l0.3,2.9c2.2-1.6,4.6-2.8,7-3.7c2.4-0.9,4.8-1.3,7.1-1.3c3.3,0,5.8,0.9,7.6,2.6
		c1.8,1.7,2.6,4.3,2.6,7.7V384c0,0.7-0.3,1-1,1h-1.8c-0.7,0-1-0.3-1-1v-22.2c0-2.9-0.6-5.1-1.7-6.4c-1.1-1.3-2.9-2-5.4-2
		c-4.5,0-8.9,1.4-13.3,4.3V384c0,0.7-0.3,1-1,1H179.5L179.5,385z M231.6,386c-5.4,0-9.4-1.5-12.2-4.6c-2.7-3.1-4.1-7.6-4.1-13.6
		c0-5.7,1.4-10.1,4.1-13.3c2.8-3.2,6.6-4.7,11.5-4.7c4.1,0,7.3,1.2,9.5,3.5c2.2,2.4,3.3,5.7,3.3,10.1c0,1.8-0.1,3.2-0.3,4.1
		c-0.1,0.7-0.5,1-1.2,1h-23c0,4.8,1.1,8.3,3.1,10.5c2,2.3,5.2,3.4,9.5,3.4c3.3,0,6.4-0.6,9.3-1.7c0.6-0.2,1-0.3,1.2-0.3
		c0.2,0,0.3,0.1,0.5,0.2c0.1,0.2,0.2,0.3,0.2,0.6v1c0,0.7-0.2,1.2-0.8,1.4C239.1,385.2,235.5,386,231.6,386L231.6,386z M240,365.4
		c0-0.6,0.1-1.4,0.1-2.3c0-3.3-0.8-5.7-2.4-7.4c-1.6-1.7-3.9-2.5-7-2.5c-7.2,0-11,4.1-11.4,12.2H240L240,365.4z M253.4,385
		c-0.7,0-1-0.3-1-1v-32.2c0-0.7,0.3-1,1-1h1.3c0.7,0,1.1,0.3,1.2,1l0.3,4c1.7-1.9,3.4-3.3,5.1-4c1.7-0.8,3.5-1.2,5.6-1.2
		c0.7,0,1.3,0,1.8,0.1c0.7,0,1,0.4,1,1.1v1.7c0,0.2-0.1,0.4-0.2,0.5c-0.1,0.2-0.3,0.2-0.5,0.2c-0.4,0-0.7,0-1,0c-0.3,0-0.8,0-1.4,0
		c-2.1,0-3.9,0.4-5.5,1.2c-1.6,0.8-3.2,2-4.6,3.7v25c0,0.7-0.3,1-1,1H253.4L253.4,385z"/>
</g>
</svg>
