<svg xmlns="http://www.w3.org/2000/svg" viewBox="0 0 527.23 197.5"><defs><style>.cls-1{fill:#856a1a;}.cls-2{fill:#080808;}.cls-3{fill:#777471;}.cls-4{fill:#e34c22;}.cls-5{fill:#6dbb29;}.cls-6{fill:#599dd5;}.cls-7{fill:#f3bf00;}.cls-8{fill:none;stroke:#000;stroke-miterlimit:10;stroke-width:0.53px;}</style></defs><title>microsoft-gold-partner-8-competences</title><g id="Layer_2" data-name="Layer 2"><g id="Layer_1-2" data-name="Layer 1"><path class="cls-1" d="M274.92,13.18a8.85,8.85,0,0,1-4.46,1.14,6.54,6.54,0,0,1-3.33-.85,5.69,5.69,0,0,1-2.25-2.39,7.53,7.53,0,0,1-.79-3.49A7,7,0,0,1,266,2.54a6.63,6.63,0,0,1,5-2,8.43,8.43,0,0,1,3.65.71V3a7,7,0,0,0-3.83-1,5,5,0,0,0-2.63.7,4.81,4.81,0,0,0-1.82,2,6.19,6.19,0,0,0-.66,2.85,5.68,5.68,0,0,0,1.32,4,4.64,4.64,0,0,0,3.61,1.45,5.54,5.54,0,0,0,2.71-.63V8.55h-2.92V7.14h4.48Z"/><path class="cls-1" d="M286.45,9.3a5.13,5.13,0,0,1-1.29,3.65,4.5,4.5,0,0,1-3.45,1.38A4.4,4.4,0,0,1,278.34,13a5,5,0,0,1-1.26-3.54,5.22,5.22,0,0,1,1.29-3.73,4.65,4.65,0,0,1,3.56-1.37,4.25,4.25,0,0,1,3.32,1.32A5.21,5.21,0,0,1,286.45,9.3Zm-1.56.06a4.2,4.2,0,0,0-.79-2.75,2.79,2.79,0,0,0-2.27-1,2.93,2.93,0,0,0-2.32,1,4.08,4.08,0,0,0-.85,2.77,3.87,3.87,0,0,0,.86,2.67,3,3,0,0,0,2.32,1,2.8,2.8,0,0,0,2.28-.95A4.15,4.15,0,0,0,284.89,9.35Z"/><path class="cls-1" d="M290.34,14.09h-1.52V0h1.52Z"/><path class="cls-1" d="M301.48,14.09H300V12.47h0a3.82,3.82,0,0,1-6.14.55,5.27,5.27,0,0,1-1.07-3.46,5.76,5.76,0,0,1,1.18-3.79,3.91,3.91,0,0,1,3.17-1.43,3.06,3.06,0,0,1,2.85,1.54h0V0h1.52ZM300,9.79V8.38a2.65,2.65,0,0,0-.79-2,2.61,2.61,0,0,0-1.91-.78,2.64,2.64,0,0,0-2.18,1,4.42,4.42,0,0,0-.81,2.82,4,4,0,0,0,.76,2.59,2.5,2.5,0,0,0,2.05,1,2.64,2.64,0,0,0,2.06-.91A3.37,3.37,0,0,0,300,9.79Z"/><path class="cls-1" d="M319.52,14.09h-1.73l-1.4-3.73h-5.66l-1.33,3.73h-1.73L312.76.76h1.62ZM315.87,9l-2.09-5.67a7.83,7.83,0,0,1-.21-.9h0a4.34,4.34,0,0,1-.21.9L311.25,9Z"/><path class="cls-1" d="M330,9a5.86,5.86,0,0,1-1.18,3.85,3.89,3.89,0,0,1-3.16,1.43,3.15,3.15,0,0,1-2.85-1.6h0v5.74h-1.52V4.57h1.52V6.25h0a3.6,3.6,0,0,1,3.29-1.91A3.52,3.52,0,0,1,329,5.6,5.19,5.19,0,0,1,330,9Zm-1.56,0a3.87,3.87,0,0,0-.73-2.46,2.4,2.4,0,0,0-2-.92,2.73,2.73,0,0,0-2.13.91,3.34,3.34,0,0,0-.82,2.32v1.33a2.77,2.77,0,0,0,.79,2,2.6,2.6,0,0,0,1.94.81A2.54,2.54,0,0,0,327.68,12,4.84,4.84,0,0,0,328.47,9Z"/><path class="cls-1" d="M341.15,9A5.86,5.86,0,0,1,340,12.89a3.89,3.89,0,0,1-3.16,1.43,3.15,3.15,0,0,1-2.85-1.6h0v5.74h-1.52V4.57h1.52V6.25h0a3.6,3.6,0,0,1,3.29-1.91,3.52,3.52,0,0,1,2.84,1.26A5.19,5.19,0,0,1,341.15,9Zm-1.56,0a3.87,3.87,0,0,0-.73-2.46,2.4,2.4,0,0,0-2-.92,2.73,2.73,0,0,0-2.13.91,3.34,3.34,0,0,0-.82,2.32v1.33a2.77,2.77,0,0,0,.79,2,2.6,2.6,0,0,0,1.94.81A2.54,2.54,0,0,0,338.8,12,4.84,4.84,0,0,0,339.59,9Z"/><path class="cls-1" d="M345,14.09h-1.52V0H345Z"/><path class="cls-1" d="M349.91,1.16a.94.94,0,0,1-.3.71,1,1,0,0,1-1.41,0,1,1,0,0,1-.29-.72,1,1,0,0,1,.28-.69,1,1,0,0,1,.71-.29,1,1,0,0,1,.72.29A1,1,0,0,1,349.91,1.16Zm-.26,12.93h-1.52V4.57h1.52Z"/><path class="cls-1" d="M359.15,13.65a5,5,0,0,1-2.61.67,4.58,4.58,0,0,1-2.34-.6,4.14,4.14,0,0,1-1.61-1.7A5.21,5.21,0,0,1,352,9.56a5.29,5.29,0,0,1,1.35-3.79A4.72,4.72,0,0,1,357,4.34a4.83,4.83,0,0,1,2.2.48V6.39a3.91,3.91,0,0,0-2.27-.74,3,3,0,0,0-2.4,1.06,4,4,0,0,0-.92,2.73,3.77,3.77,0,0,0,.88,2.63,3,3,0,0,0,2.36,1,3.85,3.85,0,0,0,2.34-.82Z"/><path class="cls-1" d="M368.19,14.09h-1.52V12.6h0a3.19,3.19,0,0,1-2.93,1.72,3.16,3.16,0,0,1-2.2-.75,2.58,2.58,0,0,1-.83-2q0-2.66,3.14-3.1l2.85-.4q0-2.42-2-2.42A4.71,4.71,0,0,0,361.6,6.8V5.24A4.65,4.65,0,0,1,363,4.63a6.58,6.58,0,0,1,1.8-.29q3.36,0,3.36,3.56Zm-1.52-4.81-2.31.33a3.4,3.4,0,0,0-1.65.56,1.57,1.57,0,0,0-.47,1.28,1.43,1.43,0,0,0,.51,1.15,2,2,0,0,0,1.31.43,2.44,2.44,0,0,0,1.87-.8,2.83,2.83,0,0,0,.74-2Z"/><path class="cls-1" d="M375.48,14a2.92,2.92,0,0,1-1.43.31q-2.49,0-2.49-2.81V5.87h-1.64V4.57h1.64V2.25l1.52-.49V4.57h2.4V5.87h-2.4v5.37a2.2,2.2,0,0,0,.33,1.36,1.32,1.32,0,0,0,1.09.4,1.62,1.62,0,0,0,1-.31Z"/><path class="cls-1" d="M379.3,1.16a.94.94,0,0,1-.3.71,1,1,0,0,1-1.41,0,1,1,0,0,1-.29-.72,1,1,0,0,1,.28-.69,1,1,0,0,1,.71-.29,1,1,0,0,1,.72.29A1,1,0,0,1,379.3,1.16ZM379,14.09h-1.52V4.57H379Z"/><path class="cls-1" d="M390.77,9.3a5.13,5.13,0,0,1-1.29,3.65A4.5,4.5,0,0,1,386,14.32,4.4,4.4,0,0,1,382.66,13a5,5,0,0,1-1.26-3.54,5.22,5.22,0,0,1,1.29-3.73,4.65,4.65,0,0,1,3.56-1.37,4.25,4.25,0,0,1,3.32,1.32A5.21,5.21,0,0,1,390.77,9.3Zm-1.56.06a4.2,4.2,0,0,0-.79-2.75,2.79,2.79,0,0,0-2.27-1,2.93,2.93,0,0,0-2.32,1A4.08,4.08,0,0,0,383,9.39a3.87,3.87,0,0,0,.86,2.67,3,3,0,0,0,2.32,1,2.8,2.8,0,0,0,2.28-.95A4.15,4.15,0,0,0,389.21,9.35Z"/><path class="cls-1" d="M401,14.09h-1.52V8.66q0-3-2.21-3a2.42,2.42,0,0,0-1.88.85,3.14,3.14,0,0,0-.76,2.17v5.43h-1.52V4.57h1.52V6.15h0a3.42,3.42,0,0,1,3.12-1.81,2.89,2.89,0,0,1,2.39,1,4.52,4.52,0,0,1,.82,2.9Z"/><path class="cls-1" d="M419.26,7.26a7.1,7.1,0,0,1-.89,3.59,6,6,0,0,1-2.54,2.4,8.15,8.15,0,0,1-3.76.84h-3.52V.76h3.68Q419.26.76,419.26,7.26Zm-1.64,0q0-5.12-5.44-5.12H410.1v10.5h2a5.63,5.63,0,0,0,4.09-1.41A5.28,5.28,0,0,0,417.62,7.3Z"/><path class="cls-1" d="M429.26,9.71h-6.72a3.54,3.54,0,0,0,.85,2.46,3,3,0,0,0,2.25.85,4.67,4.67,0,0,0,2.95-1V13.4a5.44,5.44,0,0,1-3.31.92A4,4,0,0,1,422.1,13,5.37,5.37,0,0,1,421,9.37a5.79,5.79,0,0,1,.57-2.58A4.37,4.37,0,0,1,423.11,5a4.06,4.06,0,0,1,2.23-.64,3.6,3.6,0,0,1,2.89,1.2,5,5,0,0,1,1,3.37ZM427.7,8.42a3.15,3.15,0,0,0-.64-2,2.16,2.16,0,0,0-1.74-.73,2.46,2.46,0,0,0-1.81.76,3.56,3.56,0,0,0-.95,2Z"/><path class="cls-1" d="M439,4.57l-3.79,9.52h-1.51l-3.6-9.52h1.68l2.42,6.91a7.42,7.42,0,0,1,.32,1.34h0a6,6,0,0,1,.3-1.29l2.54-7Z"/><path class="cls-1" d="M448.19,9.71h-6.72a3.54,3.54,0,0,0,.85,2.46,3,3,0,0,0,2.25.85,4.67,4.67,0,0,0,2.95-1V13.4a5.44,5.44,0,0,1-3.31.92A4,4,0,0,1,441,13a5.37,5.37,0,0,1-1.14-3.64,5.79,5.79,0,0,1,.57-2.58A4.37,4.37,0,0,1,442,5a4.06,4.06,0,0,1,2.23-.64,3.6,3.6,0,0,1,2.89,1.2,5,5,0,0,1,1,3.37Zm-1.56-1.29a3.15,3.15,0,0,0-.64-2,2.16,2.16,0,0,0-1.74-.73,2.46,2.46,0,0,0-1.81.76,3.56,3.56,0,0,0-.95,2Z"/><path class="cls-1" d="M451.94,14.09h-1.52V0h1.52Z"/><path class="cls-1" d="M463.67,9.3a5.13,5.13,0,0,1-1.29,3.65,4.5,4.5,0,0,1-3.45,1.38A4.4,4.4,0,0,1,455.56,13a5,5,0,0,1-1.26-3.54,5.22,5.22,0,0,1,1.29-3.73,4.65,4.65,0,0,1,3.56-1.37,4.25,4.25,0,0,1,3.32,1.32A5.21,5.21,0,0,1,463.67,9.3Zm-1.56.06a4.2,4.2,0,0,0-.79-2.75,2.79,2.79,0,0,0-2.27-1,2.93,2.93,0,0,0-2.32,1,4.08,4.08,0,0,0-.85,2.77,3.87,3.87,0,0,0,.86,2.67A3,3,0,0,0,459,13a2.8,2.8,0,0,0,2.28-.95A4.15,4.15,0,0,0,462.11,9.35Z"/><path class="cls-1" d="M474.79,9a5.86,5.86,0,0,1-1.18,3.85,3.89,3.89,0,0,1-3.16,1.43,3.15,3.15,0,0,1-2.85-1.6h0v5.74H466V4.57h1.52V6.25h0a3.6,3.6,0,0,1,3.29-1.91,3.52,3.52,0,0,1,2.84,1.26A5.19,5.19,0,0,1,474.79,9Zm-1.56,0a3.87,3.87,0,0,0-.73-2.46,2.4,2.4,0,0,0-2-.92,2.73,2.73,0,0,0-2.13.91,3.34,3.34,0,0,0-.82,2.32v1.33a2.77,2.77,0,0,0,.79,2,2.6,2.6,0,0,0,1.94.81A2.54,2.54,0,0,0,472.44,12,4.84,4.84,0,0,0,473.23,9Z"/><path class="cls-1" d="M490.67,14.09h-1.52V8.63a4.09,4.09,0,0,0-.49-2.29A1.87,1.87,0,0,0,487,5.64a2,2,0,0,0-1.66.89,3.4,3.4,0,0,0-.68,2.13v5.43h-1.52V8.44q0-2.8-2.17-2.8a2,2,0,0,0-1.66.84,3.46,3.46,0,0,0-.65,2.18v5.43h-1.52V4.57h1.52V6.08h0a3.23,3.23,0,0,1,2.95-1.74,2.85,2.85,0,0,1,1.67.52,2.68,2.68,0,0,1,1,1.46,3.39,3.39,0,0,1,3.16-2q3.14,0,3.14,3.89Z"/><path class="cls-1" d="M501.12,9.71H494.4a3.54,3.54,0,0,0,.85,2.46,3,3,0,0,0,2.25.85,4.67,4.67,0,0,0,2.95-1V13.4a5.44,5.44,0,0,1-3.31.92A4,4,0,0,1,494,13a5.37,5.37,0,0,1-1.14-3.64,5.79,5.79,0,0,1,.57-2.58A4.37,4.37,0,0,1,495,5a4.06,4.06,0,0,1,2.23-.64,3.6,3.6,0,0,1,2.89,1.2,5,5,0,0,1,1,3.37Zm-1.56-1.29a3.15,3.15,0,0,0-.64-2,2.16,2.16,0,0,0-1.74-.73,2.46,2.46,0,0,0-1.81.76,3.56,3.56,0,0,0-.95,2Z"/><path class="cls-1" d="M511.25,14.09h-1.52V8.66q0-3-2.21-3a2.42,2.42,0,0,0-1.88.85,3.14,3.14,0,0,0-.76,2.17v5.43h-1.52V4.57h1.52V6.15h0A3.42,3.42,0,0,1,508,4.34a2.89,2.89,0,0,1,2.39,1,4.52,4.52,0,0,1,.82,2.9Z"/><path class="cls-1" d="M518.54,14a2.92,2.92,0,0,1-1.43.31q-2.49,0-2.49-2.81V5.87H513V4.57h1.64V2.25l1.52-.49V4.57h2.4V5.87h-2.4v5.37a2.2,2.2,0,0,0,.33,1.36,1.32,1.32,0,0,0,1.09.4,1.62,1.62,0,0,0,1-.31Z"/><path class="cls-1" d="M274.92,38.74a8.85,8.85,0,0,1-4.46,1.14,6.54,6.54,0,0,1-3.33-.85,5.69,5.69,0,0,1-2.25-2.39,7.53,7.53,0,0,1-.79-3.49A7,7,0,0,1,266,28.1a6.63,6.63,0,0,1,5-2,8.43,8.43,0,0,1,3.65.71v1.73a7,7,0,0,0-3.83-1,5,5,0,0,0-2.63.7,4.81,4.81,0,0,0-1.82,2,6.19,6.19,0,0,0-.66,2.85A5.68,5.68,0,0,0,267,37a4.64,4.64,0,0,0,3.61,1.45,5.54,5.54,0,0,0,2.71-.63V34.11h-2.92V32.7h4.48Z"/><path class="cls-1" d="M286.45,34.86a5.13,5.13,0,0,1-1.29,3.65,4.5,4.5,0,0,1-3.45,1.38,4.4,4.4,0,0,1-3.37-1.34A5,5,0,0,1,277.09,35a5.22,5.22,0,0,1,1.29-3.73,4.65,4.65,0,0,1,3.56-1.37,4.25,4.25,0,0,1,3.32,1.32A5.21,5.21,0,0,1,286.45,34.86Zm-1.56.06a4.2,4.2,0,0,0-.79-2.75,2.79,2.79,0,0,0-2.27-1,2.93,2.93,0,0,0-2.32,1,4.08,4.08,0,0,0-.85,2.77,3.87,3.87,0,0,0,.86,2.67,3,3,0,0,0,2.32,1,2.8,2.8,0,0,0,2.28-.95A4.15,4.15,0,0,0,284.89,34.91Z"/><path class="cls-1" d="M290.34,39.65h-1.52V25.56h1.52Z"/><path class="cls-1" d="M301.48,39.65H300V38h0a3.82,3.82,0,0,1-6.14.55,5.27,5.27,0,0,1-1.07-3.46,5.76,5.76,0,0,1,1.18-3.79,3.91,3.91,0,0,1,3.17-1.43,3.06,3.06,0,0,1,2.85,1.54h0V25.56h1.52ZM300,35.35v-1.4a2.65,2.65,0,0,0-.79-2,2.61,2.61,0,0,0-1.91-.78,2.64,2.64,0,0,0-2.18,1,4.42,4.42,0,0,0-.81,2.82,4,4,0,0,0,.76,2.59,2.5,2.5,0,0,0,2.05,1,2.64,2.64,0,0,0,2.06-.91A3.37,3.37,0,0,0,300,35.35Z"/><path class="cls-1" d="M319.52,39.65h-1.73l-1.4-3.73h-5.66l-1.33,3.73h-1.73l5.09-13.33h1.62Zm-3.65-5.14-2.09-5.67a7.83,7.83,0,0,1-.21-.9h0a4.34,4.34,0,0,1-.21.9l-2.07,5.67Z"/><path class="cls-1" d="M330,34.61a5.86,5.86,0,0,1-1.18,3.85,3.89,3.89,0,0,1-3.16,1.43,3.15,3.15,0,0,1-2.85-1.6h0V44h-1.52V30.14h1.52v1.67h0a3.6,3.6,0,0,1,3.29-1.91A3.52,3.52,0,0,1,329,31.17,5.19,5.19,0,0,1,330,34.61Zm-1.56,0a3.87,3.87,0,0,0-.73-2.46,2.4,2.4,0,0,0-2-.92,2.73,2.73,0,0,0-2.13.91,3.34,3.34,0,0,0-.82,2.32v1.33a2.77,2.77,0,0,0,.79,2,2.6,2.6,0,0,0,1.94.81,2.54,2.54,0,0,0,2.16-1.06A4.84,4.84,0,0,0,328.47,34.59Z"/><path class="cls-1" d="M341.15,34.61A5.86,5.86,0,0,1,340,38.45a3.89,3.89,0,0,1-3.16,1.43,3.15,3.15,0,0,1-2.85-1.6h0V44h-1.52V30.14h1.52v1.67h0a3.6,3.6,0,0,1,3.29-1.91,3.52,3.52,0,0,1,2.84,1.26A5.19,5.19,0,0,1,341.15,34.61Zm-1.56,0a3.87,3.87,0,0,0-.73-2.46,2.4,2.4,0,0,0-2-.92,2.73,2.73,0,0,0-2.13.91,3.34,3.34,0,0,0-.82,2.32v1.33a2.77,2.77,0,0,0,.79,2,2.6,2.6,0,0,0,1.94.81,2.54,2.54,0,0,0,2.16-1.06A4.84,4.84,0,0,0,339.59,34.59Z"/><path class="cls-1" d="M345,39.65h-1.52V25.56H345Z"/><path class="cls-1" d="M349.91,26.72a.94.94,0,0,1-.3.71,1,1,0,0,1-1.41,0,1,1,0,0,1-.29-.72,1,1,0,0,1,.28-.69,1,1,0,0,1,.71-.29,1,1,0,0,1,.72.29A1,1,0,0,1,349.91,26.72Zm-.26,12.93h-1.52V30.14h1.52Z"/><path class="cls-1" d="M359.15,39.22a5,5,0,0,1-2.61.67,4.58,4.58,0,0,1-2.34-.6,4.14,4.14,0,0,1-1.61-1.7,5.21,5.21,0,0,1-.58-2.46,5.29,5.29,0,0,1,1.35-3.79A4.72,4.72,0,0,1,357,29.9a4.83,4.83,0,0,1,2.2.48v1.56a3.91,3.91,0,0,0-2.27-.74,3,3,0,0,0-2.4,1.06,4,4,0,0,0-.92,2.73,3.77,3.77,0,0,0,.88,2.63,3,3,0,0,0,2.36,1,3.85,3.85,0,0,0,2.34-.82Z"/><path class="cls-1" d="M368.19,39.65h-1.52V38.17h0a3.19,3.19,0,0,1-2.93,1.72,3.16,3.16,0,0,1-2.2-.75,2.58,2.58,0,0,1-.83-2q0-2.66,3.14-3.1l2.85-.4q0-2.42-2-2.42a4.71,4.71,0,0,0-3.11,1.16V30.8A4.65,4.65,0,0,1,363,30.2a6.58,6.58,0,0,1,1.8-.29q3.36,0,3.36,3.56Zm-1.52-4.81-2.31.33a3.4,3.4,0,0,0-1.65.56,1.57,1.57,0,0,0-.47,1.28,1.43,1.43,0,0,0,.51,1.15,2,2,0,0,0,1.31.43,2.44,2.44,0,0,0,1.87-.8,2.83,2.83,0,0,0,.74-2Z"/><path class="cls-1" d="M375.48,39.56a2.92,2.92,0,0,1-1.43.31q-2.49,0-2.49-2.81V31.43h-1.64V30.14h1.64V27.81l1.52-.49v2.82h2.4v1.29h-2.4V36.8a2.2,2.2,0,0,0,.33,1.36,1.32,1.32,0,0,0,1.09.4,1.62,1.62,0,0,0,1-.31Z"/><path class="cls-1" d="M379.3,26.72a.94.94,0,0,1-.3.71,1,1,0,0,1-1.41,0,1,1,0,0,1-.29-.72,1,1,0,0,1,.28-.69,1,1,0,0,1,.71-.29A1,1,0,0,1,379,26,1,1,0,0,1,379.3,26.72ZM379,39.65h-1.52V30.14H379Z"/><path class="cls-1" d="M390.77,34.86a5.13,5.13,0,0,1-1.29,3.65A4.5,4.5,0,0,1,386,39.89a4.4,4.4,0,0,1-3.37-1.34A5,5,0,0,1,381.4,35a5.22,5.22,0,0,1,1.29-3.73,4.65,4.65,0,0,1,3.56-1.37,4.25,4.25,0,0,1,3.32,1.32A5.21,5.21,0,0,1,390.77,34.86Zm-1.56.06a4.2,4.2,0,0,0-.79-2.75,2.79,2.79,0,0,0-2.27-1,2.93,2.93,0,0,0-2.32,1A4.08,4.08,0,0,0,383,35a3.87,3.87,0,0,0,.86,2.67,3,3,0,0,0,2.32,1,2.8,2.8,0,0,0,2.28-.95A4.15,4.15,0,0,0,389.21,34.91Z"/><path class="cls-1" d="M401,39.65h-1.52V34.23q0-3-2.21-3a2.42,2.42,0,0,0-1.88.85,3.14,3.14,0,0,0-.76,2.17v5.43h-1.52V30.14h1.52v1.58h0a3.42,3.42,0,0,1,3.12-1.81,2.89,2.89,0,0,1,2.39,1,4.52,4.52,0,0,1,.82,2.9Z"/><path class="cls-1" d="M410.1,39.65h-1.56V26.32h1.56Z"/><path class="cls-1" d="M421.3,39.65h-1.52V34.23q0-3-2.21-3a2.42,2.42,0,0,0-1.88.85,3.14,3.14,0,0,0-.76,2.17v5.43H413.4V30.14h1.52v1.58h0a3.42,3.42,0,0,1,3.12-1.81,2.89,2.89,0,0,1,2.39,1,4.52,4.52,0,0,1,.82,2.9Z"/><path class="cls-1" d="M428.59,39.56a2.92,2.92,0,0,1-1.43.31q-2.49,0-2.49-2.81V31.43H423V30.14h1.64V27.81l1.52-.49v2.82h2.4v1.29h-2.4V36.8a2.2,2.2,0,0,0,.33,1.36,1.32,1.32,0,0,0,1.09.4,1.62,1.62,0,0,0,1-.31Z"/><path class="cls-1" d="M438.2,35.28h-6.72a3.54,3.54,0,0,0,.85,2.46,3,3,0,0,0,2.25.85,4.67,4.67,0,0,0,2.95-1V39a5.44,5.44,0,0,1-3.31.92A4,4,0,0,1,431,38.57a5.37,5.37,0,0,1-1.14-3.64,5.79,5.79,0,0,1,.57-2.58A4.37,4.37,0,0,1,432,30.54a4.06,4.06,0,0,1,2.23-.64,3.6,3.6,0,0,1,2.89,1.2,5,5,0,0,1,1,3.37ZM436.64,34a3.15,3.15,0,0,0-.64-2,2.16,2.16,0,0,0-1.74-.73,2.46,2.46,0,0,0-1.81.76,3.56,3.56,0,0,0-.95,2Z"/><path class="cls-1" d="M448.48,38.89q0,5.23-5,5.23a6.89,6.89,0,0,1-3.09-.66V41.94a6.28,6.28,0,0,0,3.06.89q3.52,0,3.52-3.73V38.06h0a3.56,3.56,0,0,1-3.27,1.83,3.66,3.66,0,0,1-3.45-2.22,5.83,5.83,0,0,1-.49-2.46,5.88,5.88,0,0,1,1.18-3.87,3.91,3.91,0,0,1,3.17-1.43,3.1,3.1,0,0,1,2.85,1.54h0V30.14h1.52ZM447,35.35v-1.4a2.66,2.66,0,0,0-.79-1.95,2.57,2.57,0,0,0-1.89-.79,2.64,2.64,0,0,0-2.22,1,4.61,4.61,0,0,0-.79,2.87,3.93,3.93,0,0,0,.76,2.52,2.47,2.47,0,0,0,2,1,2.66,2.66,0,0,0,2.08-.91A3.37,3.37,0,0,0,447,35.35Z"/><path class="cls-1" d="M456.53,31.68a2,2,0,0,0-2.81.65,4.41,4.41,0,0,0-.63,2.48v4.85h-1.52V30.14h1.52v2h0a3.36,3.36,0,0,1,1-1.56,2.24,2.24,0,0,1,1.51-.57,2.49,2.49,0,0,1,.91.13Z"/><path class="cls-1" d="M464.94,39.65h-1.52V38.17h0a3.19,3.19,0,0,1-2.93,1.72,3.16,3.16,0,0,1-2.2-.75,2.58,2.58,0,0,1-.83-2q0-2.66,3.14-3.1l2.85-.4q0-2.42-2-2.42a4.71,4.71,0,0,0-3.11,1.16V30.8a4.65,4.65,0,0,1,1.43-.61,6.58,6.58,0,0,1,1.8-.29q3.36,0,3.36,3.56Zm-1.52-4.81-2.31.33a3.4,3.4,0,0,0-1.65.56A1.57,1.57,0,0,0,459,37a1.43,1.43,0,0,0,.51,1.15,2,2,0,0,0,1.31.43,2.44,2.44,0,0,0,1.87-.8,2.83,2.83,0,0,0,.74-2Z"/><path class="cls-1" d="M472.22,39.56a2.92,2.92,0,0,1-1.43.31q-2.49,0-2.49-2.81V31.43h-1.64V30.14h1.64V27.81l1.52-.49v2.82h2.4v1.29h-2.4V36.8a2.2,2.2,0,0,0,.33,1.36,1.32,1.32,0,0,0,1.09.4,1.62,1.62,0,0,0,1-.31Z"/><path class="cls-1" d="M476,26.72a.94.94,0,0,1-.3.71,1,1,0,0,1-1.41,0,1,1,0,0,1-.29-.72,1,1,0,0,1,.28-.69,1,1,0,0,1,.71-.29,1,1,0,0,1,.72.29A1,1,0,0,1,476,26.72Zm-.26,12.93h-1.52V30.14h1.52Z"/><path class="cls-1" d="M487.52,34.86a5.13,5.13,0,0,1-1.29,3.65,4.5,4.5,0,0,1-3.45,1.38,4.4,4.4,0,0,1-3.37-1.34A5,5,0,0,1,478.15,35a5.22,5.22,0,0,1,1.29-3.73A4.65,4.65,0,0,1,483,29.9a4.25,4.25,0,0,1,3.32,1.32A5.21,5.21,0,0,1,487.52,34.86Zm-1.56.06a4.2,4.2,0,0,0-.79-2.75,2.79,2.79,0,0,0-2.27-1,2.93,2.93,0,0,0-2.32,1,4.08,4.08,0,0,0-.85,2.77,3.87,3.87,0,0,0,.86,2.67,3,3,0,0,0,2.32,1,2.8,2.8,0,0,0,2.28-.95A4.15,4.15,0,0,0,486,34.91Z"/><path class="cls-1" d="M497.78,39.65h-1.52V34.23q0-3-2.21-3a2.42,2.42,0,0,0-1.88.85,3.14,3.14,0,0,0-.76,2.17v5.43h-1.52V30.14h1.52v1.58h0a3.42,3.42,0,0,1,3.12-1.81,2.89,2.89,0,0,1,2.39,1,4.52,4.52,0,0,1,.82,2.9Z"/><path class="cls-1" d="M274.92,64.3a8.85,8.85,0,0,1-4.46,1.14,6.54,6.54,0,0,1-3.33-.85,5.69,5.69,0,0,1-2.25-2.39,7.53,7.53,0,0,1-.79-3.49A7,7,0,0,1,266,53.66a6.63,6.63,0,0,1,5-2,8.43,8.43,0,0,1,3.65.71V54.1a7,7,0,0,0-3.83-1,5,5,0,0,0-2.63.7,4.81,4.81,0,0,0-1.82,2,6.19,6.19,0,0,0-.66,2.85,5.68,5.68,0,0,0,1.32,4A4.64,4.64,0,0,0,270.65,64a5.54,5.54,0,0,0,2.71-.63V59.68h-2.92V58.26h4.48Z"/><path class="cls-1" d="M286.45,60.42a5.13,5.13,0,0,1-1.29,3.65,4.5,4.5,0,0,1-3.45,1.38,4.4,4.4,0,0,1-3.37-1.34,5,5,0,0,1-1.26-3.54,5.22,5.22,0,0,1,1.29-3.73,4.65,4.65,0,0,1,3.56-1.37,4.25,4.25,0,0,1,3.32,1.32A5.21,5.21,0,0,1,286.45,60.42Zm-1.56.06a4.2,4.2,0,0,0-.79-2.75,2.79,2.79,0,0,0-2.27-1,2.93,2.93,0,0,0-2.32,1,4.08,4.08,0,0,0-.85,2.77,3.87,3.87,0,0,0,.86,2.67,3,3,0,0,0,2.32,1,2.8,2.8,0,0,0,2.28-.95A4.15,4.15,0,0,0,284.89,60.48Z"/><path class="cls-1" d="M290.34,65.22h-1.52V51.12h1.52Z"/><path class="cls-1" d="M301.48,65.22H300V63.6h0a3.82,3.82,0,0,1-6.14.55,5.27,5.27,0,0,1-1.07-3.46,5.76,5.76,0,0,1,1.18-3.79,3.91,3.91,0,0,1,3.17-1.43A3.06,3.06,0,0,1,299.91,57h0V51.12h1.52ZM300,60.91v-1.4a2.65,2.65,0,0,0-.79-2,2.61,2.61,0,0,0-1.91-.78,2.64,2.64,0,0,0-2.18,1,4.42,4.42,0,0,0-.81,2.82,4,4,0,0,0,.76,2.59,2.5,2.5,0,0,0,2.05,1,2.64,2.64,0,0,0,2.06-.91A3.37,3.37,0,0,0,300,60.91Z"/><path class="cls-1" d="M318.26,64.67a7.76,7.76,0,0,1-3.67.78,6.44,6.44,0,0,1-3.28-.83,5.57,5.57,0,0,1-2.21-2.35,7.53,7.53,0,0,1-.78-3.47,7.77,7.77,0,0,1,.86-3.68,6.27,6.27,0,0,1,2.43-2.55,6.83,6.83,0,0,1,3.5-.91,7.86,7.86,0,0,1,3.14.55v1.65a6.37,6.37,0,0,0-3.16-.8,5.14,5.14,0,0,0-2.68.7,4.7,4.7,0,0,0-1.82,2,6.51,6.51,0,0,0-.65,3,6.21,6.21,0,0,0,.6,2.8,4.38,4.38,0,0,0,1.71,1.87,4.86,4.86,0,0,0,2.53.66,6.47,6.47,0,0,0,3.46-.89Z"/><path class="cls-1" d="M329.43,60.42a5.13,5.13,0,0,1-1.29,3.65,4.5,4.5,0,0,1-3.45,1.38,4.4,4.4,0,0,1-3.37-1.34,5,5,0,0,1-1.26-3.54,5.22,5.22,0,0,1,1.29-3.73,4.65,4.65,0,0,1,3.56-1.37,4.25,4.25,0,0,1,3.32,1.32A5.21,5.21,0,0,1,329.43,60.42Zm-1.56.06a4.2,4.2,0,0,0-.79-2.75,2.79,2.79,0,0,0-2.27-1,2.93,2.93,0,0,0-2.32,1,4.08,4.08,0,0,0-.85,2.77,3.87,3.87,0,0,0,.86,2.67,3,3,0,0,0,2.32,1,2.8,2.8,0,0,0,2.28-.95A4.15,4.15,0,0,0,327.87,60.48Z"/><path class="cls-1" d="M333.31,65.22h-1.52V51.12h1.52Z"/><path class="cls-1" d="M337.92,65.22H336.4V51.12h1.52Z"/><path class="cls-1" d="M347.75,65.22h-1.52V63.73h0a3.19,3.19,0,0,1-2.93,1.72,3.16,3.16,0,0,1-2.2-.75,2.58,2.58,0,0,1-.83-2q0-2.66,3.14-3.1l2.85-.4q0-2.42-2-2.42a4.71,4.71,0,0,0-3.11,1.16V56.37a4.65,4.65,0,0,1,1.43-.61,6.58,6.58,0,0,1,1.8-.29q3.36,0,3.36,3.56Zm-1.52-4.81-2.31.33a3.4,3.4,0,0,0-1.65.56,1.57,1.57,0,0,0-.47,1.28,1.43,1.43,0,0,0,.51,1.15,2,2,0,0,0,1.31.43,2.44,2.44,0,0,0,1.87-.8,2.83,2.83,0,0,0,.74-2Z"/><path class="cls-1" d="M359.38,60.17A5.91,5.91,0,0,1,358.21,64,3.86,3.86,0,0,1,355,65.45a3.15,3.15,0,0,1-2.85-1.6h0v1.37h-1.52V51.12h1.52v6.25h0a3.6,3.6,0,0,1,3.29-1.91,3.52,3.52,0,0,1,2.84,1.26A5.19,5.19,0,0,1,359.38,60.17Zm-1.56,0a3.87,3.87,0,0,0-.73-2.46,2.4,2.4,0,0,0-2-.92,2.73,2.73,0,0,0-2.13.91,3.34,3.34,0,0,0-.82,2.32v1.33a2.77,2.77,0,0,0,.79,2,2.6,2.6,0,0,0,1.94.81A2.54,2.54,0,0,0,357,63.09,4.84,4.84,0,0,0,357.82,60.15Z"/><path class="cls-1" d="M370.38,60.42a5.13,5.13,0,0,1-1.29,3.65,4.5,4.5,0,0,1-3.45,1.38,4.4,4.4,0,0,1-3.37-1.34A5,5,0,0,1,361,60.57a5.22,5.22,0,0,1,1.29-3.73,4.65,4.65,0,0,1,3.56-1.37,4.25,4.25,0,0,1,3.32,1.32A5.21,5.21,0,0,1,370.38,60.42Zm-1.56.06a4.2,4.2,0,0,0-.79-2.75,2.79,2.79,0,0,0-2.27-1,2.93,2.93,0,0,0-2.32,1,4.08,4.08,0,0,0-.85,2.77,3.87,3.87,0,0,0,.86,2.67,3,3,0,0,0,2.32,1A2.8,2.8,0,0,0,368,63.2,4.15,4.15,0,0,0,368.82,60.48Z"/><path class="cls-1" d="M377.71,57.24a2,2,0,0,0-2.81.65,4.41,4.41,0,0,0-.63,2.48v4.85h-1.52V55.7h1.52v2h0a3.36,3.36,0,0,1,1-1.56,2.24,2.24,0,0,1,1.51-.57,2.49,2.49,0,0,1,.91.13Z"/><path class="cls-1" d="M386.11,65.22h-1.52V63.73h0a3.19,3.19,0,0,1-2.93,1.72,3.16,3.16,0,0,1-2.2-.75,2.58,2.58,0,0,1-.83-2q0-2.66,3.14-3.1l2.85-.4q0-2.42-2-2.42a4.71,4.71,0,0,0-3.11,1.16V56.37a4.65,4.65,0,0,1,1.43-.61,6.58,6.58,0,0,1,1.8-.29q3.36,0,3.36,3.56Zm-1.52-4.81-2.31.33a3.4,3.4,0,0,0-1.65.56,1.57,1.57,0,0,0-.47,1.28,1.43,1.43,0,0,0,.51,1.15,2,2,0,0,0,1.31.43,2.44,2.44,0,0,0,1.87-.8,2.83,2.83,0,0,0,.74-2Z"/><path class="cls-1" d="M393.4,65.12a2.92,2.92,0,0,1-1.43.31q-2.49,0-2.49-2.81V57h-1.64V55.7h1.64V53.37l1.52-.49V55.7h2.4V57H391v5.37a2.2,2.2,0,0,0,.33,1.36,1.32,1.32,0,0,0,1.09.4,1.62,1.62,0,0,0,1-.31Z"/><path class="cls-1" d="M397.22,52.29a.94.94,0,0,1-.3.71,1,1,0,0,1-1.41,0,1,1,0,0,1-.29-.72,1,1,0,0,1,.28-.69,1,1,0,0,1,.71-.29,1,1,0,0,1,.72.29A1,1,0,0,1,397.22,52.29ZM397,65.22h-1.52V55.7H397Z"/><path class="cls-1" d="M408.69,60.42a5.13,5.13,0,0,1-1.29,3.65,4.5,4.5,0,0,1-3.45,1.38,4.4,4.4,0,0,1-3.37-1.34,5,5,0,0,1-1.26-3.54,5.22,5.22,0,0,1,1.29-3.73,4.65,4.65,0,0,1,3.56-1.37,4.25,4.25,0,0,1,3.32,1.32A5.21,5.21,0,0,1,408.69,60.42Zm-1.56.06a4.2,4.2,0,0,0-.79-2.75,2.79,2.79,0,0,0-2.27-1,2.93,2.93,0,0,0-2.32,1,4.08,4.08,0,0,0-.85,2.77,3.87,3.87,0,0,0,.86,2.67,3,3,0,0,0,2.32,1,2.8,2.8,0,0,0,2.28-.95A4.15,4.15,0,0,0,407.13,60.48Z"/><path class="cls-1" d="M419,65.22h-1.52V59.79q0-3-2.21-3a2.42,2.42,0,0,0-1.88.85,3.14,3.14,0,0,0-.76,2.17v5.43h-1.52V55.7h1.52v1.58h0a3.42,3.42,0,0,1,3.12-1.81,2.89,2.89,0,0,1,2.39,1,4.52,4.52,0,0,1,.82,2.9Z"/><path class="cls-1" d="M433,65.22h-1.52V63.73h0a3.19,3.19,0,0,1-2.93,1.72,3.16,3.16,0,0,1-2.2-.75,2.58,2.58,0,0,1-.83-2q0-2.66,3.14-3.1l2.85-.4q0-2.42-2-2.42a4.71,4.71,0,0,0-3.11,1.16V56.37a4.65,4.65,0,0,1,1.43-.61,6.58,6.58,0,0,1,1.8-.29Q433,55.46,433,59Zm-1.52-4.81-2.31.33a3.4,3.4,0,0,0-1.65.56,1.57,1.57,0,0,0-.47,1.28,1.43,1.43,0,0,0,.51,1.15,2,2,0,0,0,1.31.43,2.44,2.44,0,0,0,1.87-.8,2.83,2.83,0,0,0,.74-2Z"/><path class="cls-1" d="M443.77,65.22h-1.52V59.79q0-3-2.21-3a2.42,2.42,0,0,0-1.88.85,3.14,3.14,0,0,0-.76,2.17v5.43h-1.52V55.7h1.52v1.58h0a3.42,3.42,0,0,1,3.12-1.81,2.89,2.89,0,0,1,2.39,1,4.52,4.52,0,0,1,.82,2.9Z"/><path class="cls-1" d="M454.69,65.22h-1.52V63.6h0a3.82,3.82,0,0,1-6.14.55,5.27,5.27,0,0,1-1.07-3.46,5.76,5.76,0,0,1,1.18-3.79,3.91,3.91,0,0,1,3.17-1.43A3.06,3.06,0,0,1,453.13,57h0V51.12h1.52Zm-1.52-4.3v-1.4a2.65,2.65,0,0,0-.79-2,2.61,2.61,0,0,0-1.91-.78,2.64,2.64,0,0,0-2.18,1,4.42,4.42,0,0,0-.81,2.82,4,4,0,0,0,.76,2.59,2.5,2.5,0,0,0,2.05,1,2.64,2.64,0,0,0,2.06-.91A3.37,3.37,0,0,0,453.17,60.91Z"/><path class="cls-1" d="M471.48,64.67a7.76,7.76,0,0,1-3.67.78,6.44,6.44,0,0,1-3.28-.83,5.57,5.57,0,0,1-2.21-2.35,7.53,7.53,0,0,1-.78-3.47,7.77,7.77,0,0,1,.86-3.68,6.27,6.27,0,0,1,2.43-2.55,6.83,6.83,0,0,1,3.5-.91,7.86,7.86,0,0,1,3.14.55v1.65a6.37,6.37,0,0,0-3.16-.8,5.14,5.14,0,0,0-2.68.7,4.7,4.7,0,0,0-1.82,2,6.51,6.51,0,0,0-.65,3,6.21,6.21,0,0,0,.6,2.8,4.38,4.38,0,0,0,1.71,1.87A4.86,4.86,0,0,0,468,64a6.47,6.47,0,0,0,3.46-.89Z"/><path class="cls-1" d="M482.65,60.42a5.13,5.13,0,0,1-1.29,3.65,4.5,4.5,0,0,1-3.45,1.38,4.4,4.4,0,0,1-3.37-1.34,5,5,0,0,1-1.26-3.54,5.22,5.22,0,0,1,1.29-3.73,4.65,4.65,0,0,1,3.56-1.37,4.25,4.25,0,0,1,3.32,1.32A5.21,5.21,0,0,1,482.65,60.42Zm-1.56.06a4.2,4.2,0,0,0-.79-2.75,2.79,2.79,0,0,0-2.27-1,2.93,2.93,0,0,0-2.32,1,4.08,4.08,0,0,0-.85,2.77,3.87,3.87,0,0,0,.86,2.67,3,3,0,0,0,2.32,1,2.8,2.8,0,0,0,2.28-.95A4.15,4.15,0,0,0,481.08,60.48Z"/><path class="cls-1" d="M492.91,65.22h-1.52V59.79q0-3-2.21-3a2.42,2.42,0,0,0-1.88.85,3.14,3.14,0,0,0-.76,2.17v5.43H485V55.7h1.52v1.58h0a3.42,3.42,0,0,1,3.12-1.81,2.89,2.89,0,0,1,2.39,1,4.52,4.52,0,0,1,.82,2.9Z"/><path class="cls-1" d="M500.2,65.12a2.92,2.92,0,0,1-1.43.31q-2.49,0-2.49-2.81V57h-1.64V55.7h1.64V53.37l1.52-.49V55.7h2.4V57h-2.4v5.37a2.2,2.2,0,0,0,.33,1.36,1.32,1.32,0,0,0,1.09.4,1.62,1.62,0,0,0,1-.31Z"/><path class="cls-1" d="M509.81,60.84h-6.72a3.54,3.54,0,0,0,.85,2.46,3,3,0,0,0,2.25.85,4.67,4.67,0,0,0,2.95-1v1.42a5.44,5.44,0,0,1-3.31.92,4,4,0,0,1-3.18-1.32,5.37,5.37,0,0,1-1.14-3.64,5.79,5.79,0,0,1,.57-2.58,4.37,4.37,0,0,1,1.58-1.81,4.06,4.06,0,0,1,2.23-.64,3.6,3.6,0,0,1,2.89,1.2,5,5,0,0,1,1,3.37Zm-1.56-1.29a3.15,3.15,0,0,0-.64-2,2.16,2.16,0,0,0-1.74-.73,2.46,2.46,0,0,0-1.81.76,3.56,3.56,0,0,0-.95,2Z"/><path class="cls-1" d="M519.94,65.22h-1.52V59.79q0-3-2.21-3a2.42,2.42,0,0,0-1.88.85,3.14,3.14,0,0,0-.76,2.17v5.43H512V55.7h1.52v1.58h0a3.42,3.42,0,0,1,3.12-1.81,2.89,2.89,0,0,1,2.39,1,4.52,4.52,0,0,1,.82,2.9Z"/><path class="cls-1" d="M527.23,65.12a2.92,2.92,0,0,1-1.43.31q-2.49,0-2.49-2.81V57h-1.64V55.7h1.64V53.37l1.52-.49V55.7h2.4V57h-2.4v5.37a2.2,2.2,0,0,0,.33,1.36,1.32,1.32,0,0,0,1.09.4,1.62,1.62,0,0,0,1-.31Z"/><path class="cls-1" d="M274.92,89.87A8.85,8.85,0,0,1,270.46,91a6.54,6.54,0,0,1-3.33-.85,5.69,5.69,0,0,1-2.25-2.39,7.53,7.53,0,0,1-.79-3.49A7,7,0,0,1,266,79.22a6.63,6.63,0,0,1,5-2,8.43,8.43,0,0,1,3.65.71v1.73a7,7,0,0,0-3.83-1,5,5,0,0,0-2.63.7,4.81,4.81,0,0,0-1.82,2,6.19,6.19,0,0,0-.66,2.85,5.68,5.68,0,0,0,1.32,4,4.64,4.64,0,0,0,3.61,1.45,5.54,5.54,0,0,0,2.71-.63V85.24h-2.92V83.82h4.48Z"/><path class="cls-1" d="M286.45,86a5.13,5.13,0,0,1-1.29,3.65A4.5,4.5,0,0,1,281.71,91a4.4,4.4,0,0,1-3.37-1.34,5,5,0,0,1-1.26-3.54,5.22,5.22,0,0,1,1.29-3.73A4.65,4.65,0,0,1,281.94,81a4.25,4.25,0,0,1,3.32,1.32A5.21,5.21,0,0,1,286.45,86Zm-1.56.06a4.2,4.2,0,0,0-.79-2.75,2.79,2.79,0,0,0-2.27-1,2.93,2.93,0,0,0-2.32,1,4.08,4.08,0,0,0-.85,2.77,3.87,3.87,0,0,0,.86,2.67,3,3,0,0,0,2.32,1,2.8,2.8,0,0,0,2.28-.95A4.15,4.15,0,0,0,284.89,86Z"/><path class="cls-1" d="M290.34,90.78h-1.52V76.69h1.52Z"/><path class="cls-1" d="M301.48,90.78H300V89.16h0a3.82,3.82,0,0,1-6.14.55,5.27,5.27,0,0,1-1.07-3.46,5.76,5.76,0,0,1,1.18-3.79A3.91,3.91,0,0,1,297.06,81a3.06,3.06,0,0,1,2.85,1.54h0V76.69h1.52ZM300,86.47v-1.4a2.65,2.65,0,0,0-.79-2,2.61,2.61,0,0,0-1.91-.78,2.64,2.64,0,0,0-2.18,1,4.42,4.42,0,0,0-.81,2.82,4,4,0,0,0,.76,2.59,2.5,2.5,0,0,0,2.05,1,2.64,2.64,0,0,0,2.06-.91A3.37,3.37,0,0,0,300,86.47Z"/><path class="cls-1" d="M319.92,83.95a7.1,7.1,0,0,1-.89,3.59,6,6,0,0,1-2.54,2.4,8.15,8.15,0,0,1-3.76.84H309.2V77.45h3.68Q319.92,77.45,319.92,83.95Zm-1.64,0q0-5.12-5.44-5.12h-2.08v10.5h2A5.63,5.63,0,0,0,316.83,88,5.28,5.28,0,0,0,318.28,84Z"/><path class="cls-1" d="M329.08,90.78h-1.52V89.29h0A3.19,3.19,0,0,1,324.59,91a3.16,3.16,0,0,1-2.2-.75,2.58,2.58,0,0,1-.83-2q0-2.66,3.14-3.1l2.85-.4q0-2.42-2-2.42a4.71,4.71,0,0,0-3.11,1.16V81.93a4.65,4.65,0,0,1,1.43-.61,6.58,6.58,0,0,1,1.8-.29q3.36,0,3.36,3.56ZM327.56,86l-2.31.33a3.4,3.4,0,0,0-1.65.56,1.57,1.57,0,0,0-.47,1.28,1.43,1.43,0,0,0,.51,1.15,2,2,0,0,0,1.31.43,2.44,2.44,0,0,0,1.87-.8,2.83,2.83,0,0,0,.74-2Z"/><path class="cls-1" d="M336.37,90.68a2.92,2.92,0,0,1-1.43.31q-2.49,0-2.49-2.81V82.55h-1.64V81.26h1.64V78.94l1.52-.49v2.82h2.4v1.29H334v5.37a2.2,2.2,0,0,0,.33,1.36,1.32,1.32,0,0,0,1.09.4,1.62,1.62,0,0,0,1-.31Z"/><path class="cls-1" d="M345.15,90.78h-1.52V89.29h0A3.19,3.19,0,0,1,340.66,91a3.16,3.16,0,0,1-2.2-.75,2.58,2.58,0,0,1-.83-2q0-2.66,3.14-3.1l2.85-.4q0-2.42-2-2.42a4.71,4.71,0,0,0-3.11,1.16V81.93a4.65,4.65,0,0,1,1.43-.61,6.58,6.58,0,0,1,1.8-.29q3.36,0,3.36,3.56ZM343.62,86l-2.31.33a3.4,3.4,0,0,0-1.65.56,1.57,1.57,0,0,0-.47,1.28,1.43,1.43,0,0,0,.51,1.15,2,2,0,0,0,1.31.43,2.44,2.44,0,0,0,1.87-.8,2.83,2.83,0,0,0,.74-2Z"/><path class="cls-1" d="M363,90.78h-1.73L359.84,87h-5.66l-1.33,3.73h-1.73l5.09-13.33h1.62Zm-3.65-5.14L357.23,80a7.83,7.83,0,0,1-.21-.9h0a4.34,4.34,0,0,1-.21.9l-2.07,5.67Z"/><path class="cls-1" d="M372.63,90.78h-1.52V85.35q0-3-2.21-3a2.42,2.42,0,0,0-1.88.85,3.14,3.14,0,0,0-.76,2.17v5.43h-1.52V81.26h1.52v1.58h0A3.42,3.42,0,0,1,369.42,81a2.89,2.89,0,0,1,2.39,1,4.52,4.52,0,0,1,.82,2.9Z"/><path class="cls-1" d="M382.24,90.78h-1.52V89.29h0A3.19,3.19,0,0,1,377.76,91a3.16,3.16,0,0,1-2.2-.75,2.58,2.58,0,0,1-.83-2q0-2.66,3.14-3.1l2.85-.4q0-2.42-2-2.42a4.71,4.71,0,0,0-3.11,1.16V81.93a4.65,4.65,0,0,1,1.43-.61,6.58,6.58,0,0,1,1.8-.29q3.36,0,3.36,3.56ZM380.72,86l-2.31.33a3.4,3.4,0,0,0-1.65.56,1.57,1.57,0,0,0-.47,1.28,1.43,1.43,0,0,0,.51,1.15,2,2,0,0,0,1.31.43,2.44,2.44,0,0,0,1.87-.8,2.83,2.83,0,0,0,.74-2Z"/><path class="cls-1" d="M386.64,90.78h-1.52V76.69h1.52Z"/><path class="cls-1" d="M397.3,81.26l-4.38,11q-1.17,2.95-3.29,2.95a3.75,3.75,0,0,1-1-.11V93.77a2.75,2.75,0,0,0,.89.17,1.87,1.87,0,0,0,1.74-1.37l.76-1.81-3.72-9.5H390l2.57,7.32.2.73h.06c0-.14.09-.37.19-.7l2.71-7.35Z"/><path class="cls-1" d="M403.35,90.68a2.92,2.92,0,0,1-1.43.31q-2.49,0-2.49-2.81V82.55H397.8V81.26h1.64V78.94l1.52-.49v2.82h2.4v1.29H401v5.37a2.2,2.2,0,0,0,.33,1.36,1.32,1.32,0,0,0,1.09.4,1.62,1.62,0,0,0,1-.31Z"/><path class="cls-1" d="M407.18,77.85a.94.94,0,0,1-.3.71,1,1,0,0,1-1.41,0,1,1,0,0,1-.29-.72,1,1,0,0,1,.28-.69,1,1,0,0,1,.71-.29,1,1,0,0,1,.72.29A1,1,0,0,1,407.18,77.85Zm-.26,12.93h-1.52V81.26h1.52Z"/><path class="cls-1" d="M416.42,90.34a5,5,0,0,1-2.61.67,4.58,4.58,0,0,1-2.34-.6,4.14,4.14,0,0,1-1.61-1.7,5.21,5.21,0,0,1-.58-2.46,5.29,5.29,0,0,1,1.35-3.79,4.72,4.72,0,0,1,3.6-1.43,4.83,4.83,0,0,1,2.2.48v1.56a3.91,3.91,0,0,0-2.27-.74,3,3,0,0,0-2.4,1.06,4,4,0,0,0-.92,2.73,3.77,3.77,0,0,0,.88,2.63,3,3,0,0,0,2.36,1,3.85,3.85,0,0,0,2.34-.82Z"/><path class="cls-1" d="M423.92,88.23a2.46,2.46,0,0,1-1,2,3.9,3.9,0,0,1-2.53.77,4.69,4.69,0,0,1-2.36-.58V88.8a3.84,3.84,0,0,0,2.47.91q1.81,0,1.81-1.33a1.16,1.16,0,0,0-.35-.88,6.74,6.74,0,0,0-1.61-.92,4.77,4.77,0,0,1-1.78-1.16,2.65,2.65,0,0,1,.43-3.61,3.63,3.63,0,0,1,2.41-.79,4.57,4.57,0,0,1,2,.45V83a3.56,3.56,0,0,0-2.16-.68,1.87,1.87,0,0,0-1.21.37,1.17,1.17,0,0,0-.46,1,1.28,1.28,0,0,0,.35,1,5.26,5.26,0,0,0,1.46.8,5.25,5.25,0,0,1,1.91,1.21A2.34,2.34,0,0,1,423.92,88.23Z"/><path class="cls-1" d="M274.92,115.43a8.85,8.85,0,0,1-4.46,1.14,6.54,6.54,0,0,1-3.33-.85,5.69,5.69,0,0,1-2.25-2.39,7.53,7.53,0,0,1-.79-3.49,7,7,0,0,1,1.94-5.07,6.63,6.63,0,0,1,5-2,8.42,8.42,0,0,1,3.65.71v1.73a7,7,0,0,0-3.83-1,5,5,0,0,0-2.63.7,4.81,4.81,0,0,0-1.82,2,6.19,6.19,0,0,0-.66,2.85,5.68,5.68,0,0,0,1.32,4,4.64,4.64,0,0,0,3.61,1.45,5.53,5.53,0,0,0,2.71-.63V110.8h-2.92v-1.41h4.48Z"/><path class="cls-1" d="M286.45,111.54a5.14,5.14,0,0,1-1.29,3.65,4.5,4.5,0,0,1-3.45,1.38,4.4,4.4,0,0,1-3.37-1.34,5,5,0,0,1-1.26-3.54,5.22,5.22,0,0,1,1.29-3.73,4.65,4.65,0,0,1,3.56-1.37,4.25,4.25,0,0,1,3.32,1.33A5.21,5.21,0,0,1,286.45,111.54Zm-1.56.06a4.2,4.2,0,0,0-.79-2.75,2.79,2.79,0,0,0-2.27-1,2.93,2.93,0,0,0-2.32,1,4.08,4.08,0,0,0-.85,2.77,3.87,3.87,0,0,0,.86,2.67,3,3,0,0,0,2.32,1,2.8,2.8,0,0,0,2.28-.95A4.15,4.15,0,0,0,284.89,111.6Z"/><path class="cls-1" d="M290.34,116.34h-1.52V102.25h1.52Z"/><path class="cls-1" d="M301.48,116.34H300v-1.62h0a3.82,3.82,0,0,1-6.14.55,5.27,5.27,0,0,1-1.07-3.46,5.76,5.76,0,0,1,1.18-3.79,3.91,3.91,0,0,1,3.17-1.43,3.06,3.06,0,0,1,2.85,1.54h0v-5.88h1.52ZM300,112v-1.4a2.65,2.65,0,0,0-.79-2,2.61,2.61,0,0,0-1.91-.78,2.64,2.64,0,0,0-2.18,1,4.43,4.43,0,0,0-.81,2.82,4,4,0,0,0,.76,2.59,2.5,2.5,0,0,0,2.05,1,2.64,2.64,0,0,0,2.06-.91A3.37,3.37,0,0,0,300,112Z"/><path class="cls-1" d="M319.92,109.51a7.1,7.1,0,0,1-.89,3.59,6,6,0,0,1-2.54,2.4,8.16,8.16,0,0,1-3.76.84H309.2V103h3.68Q319.92,103,319.92,109.51Zm-1.64,0q0-5.12-5.44-5.12h-2.08v10.5h2a5.63,5.63,0,0,0,4.09-1.41A5.28,5.28,0,0,0,318.28,109.54Z"/><path class="cls-1" d="M329.08,116.34h-1.52v-1.49h0a3.19,3.19,0,0,1-2.93,1.72,3.16,3.16,0,0,1-2.2-.75,2.58,2.58,0,0,1-.83-2q0-2.66,3.14-3.1l2.85-.4q0-2.42-2-2.42a4.71,4.71,0,0,0-3.11,1.16v-1.56a4.66,4.66,0,0,1,1.43-.61,6.58,6.58,0,0,1,1.8-.29q3.36,0,3.36,3.56Zm-1.52-4.81-2.31.33a3.4,3.4,0,0,0-1.65.56,1.57,1.57,0,0,0-.47,1.28,1.43,1.43,0,0,0,.51,1.15,2,2,0,0,0,1.31.43,2.44,2.44,0,0,0,1.87-.8,2.83,2.83,0,0,0,.74-2Z"/><path class="cls-1" d="M336.37,116.25a2.92,2.92,0,0,1-1.43.31q-2.49,0-2.49-2.81v-5.63h-1.64v-1.29h1.64V104.5L334,104v2.82h2.4v1.29H334v5.37a2.21,2.21,0,0,0,.33,1.36,1.32,1.32,0,0,0,1.09.4,1.62,1.62,0,0,0,1-.31Z"/><path class="cls-1" d="M345.15,116.34h-1.52v-1.49h0a3.19,3.19,0,0,1-2.93,1.72,3.16,3.16,0,0,1-2.2-.75,2.58,2.58,0,0,1-.83-2q0-2.66,3.14-3.1l2.85-.4q0-2.42-2-2.42a4.71,4.71,0,0,0-3.11,1.16v-1.56a4.66,4.66,0,0,1,1.43-.61,6.58,6.58,0,0,1,1.8-.29q3.36,0,3.36,3.56Zm-1.52-4.81-2.31.33a3.4,3.4,0,0,0-1.65.56,1.57,1.57,0,0,0-.47,1.28,1.43,1.43,0,0,0,.51,1.15,2,2,0,0,0,1.31.43,2.44,2.44,0,0,0,1.87-.8,2.83,2.83,0,0,0,.74-2Z"/><path class="cls-1" d="M360.81,107a4,4,0,0,1-1.33,3.12,5.07,5.07,0,0,1-3.5,1.19h-1.76v5h-1.56V103h3.66a4.82,4.82,0,0,1,3.31,1A3.72,3.72,0,0,1,360.81,107Zm-1.64.08q0-2.65-3.12-2.65h-1.83v5.47h1.64a3.69,3.69,0,0,0,2.46-.73A2.59,2.59,0,0,0,359.17,107.07Z"/><path class="cls-1" d="M364.64,116.34h-1.52V102.25h1.52Z"/><path class="cls-1" d="M374.46,116.34h-1.52v-1.49h0a3.19,3.19,0,0,1-2.93,1.72,3.16,3.16,0,0,1-2.2-.75,2.58,2.58,0,0,1-.83-2q0-2.66,3.14-3.1l2.85-.4q0-2.42-2-2.42a4.71,4.71,0,0,0-3.11,1.16v-1.56a4.66,4.66,0,0,1,1.43-.61,6.58,6.58,0,0,1,1.8-.29q3.36,0,3.36,3.56Zm-1.52-4.81-2.31.33a3.4,3.4,0,0,0-1.65.56,1.57,1.57,0,0,0-.47,1.28,1.43,1.43,0,0,0,.51,1.15,2,2,0,0,0,1.31.43,2.44,2.44,0,0,0,1.87-.8,2.83,2.83,0,0,0,.74-2Z"/><path class="cls-1" d="M381.75,116.25a2.92,2.92,0,0,1-1.43.31q-2.49,0-2.49-2.81v-5.63h-1.64v-1.29h1.64V104.5l1.52-.49v2.82h2.4v1.29h-2.4v5.37a2.21,2.21,0,0,0,.33,1.36,1.32,1.32,0,0,0,1.09.4,1.62,1.62,0,0,0,1-.31Z"/><path class="cls-1" d="M388.49,103.59a2,2,0,0,0-1-.25q-1.6,0-1.6,2v1.47h2.23v1.29h-2.23v8.23h-1.52v-8.23h-1.62v-1.29h1.62v-1.54a3.25,3.25,0,0,1,.85-2.34,2.88,2.88,0,0,1,2.18-.89,3,3,0,0,1,1.11.17Z"/><path class="cls-1" d="M398.39,111.54a5.14,5.14,0,0,1-1.29,3.65,4.5,4.5,0,0,1-3.45,1.38,4.4,4.4,0,0,1-3.37-1.34,5,5,0,0,1-1.26-3.54,5.22,5.22,0,0,1,1.29-3.73,4.65,4.65,0,0,1,3.56-1.37,4.25,4.25,0,0,1,3.32,1.33A5.21,5.21,0,0,1,398.39,111.54Zm-1.56.06a4.2,4.2,0,0,0-.79-2.75,2.79,2.79,0,0,0-2.27-1,2.93,2.93,0,0,0-2.32,1,4.08,4.08,0,0,0-.85,2.77,3.87,3.87,0,0,0,.86,2.67,3,3,0,0,0,2.32,1,2.8,2.8,0,0,0,2.28-.95A4.15,4.15,0,0,0,396.83,111.6Z"/><path class="cls-1" d="M405.72,108.36a2,2,0,0,0-2.81.65,4.41,4.41,0,0,0-.63,2.48v4.85h-1.52v-9.52h1.52v2h0a3.36,3.36,0,0,1,1-1.56,2.25,2.25,0,0,1,1.51-.57,2.49,2.49,0,0,1,.91.13Z"/><path class="cls-1" d="M420.9,116.34h-1.52v-5.47a4.09,4.09,0,0,0-.49-2.29,1.87,1.87,0,0,0-1.64-.69,2,2,0,0,0-1.66.89,3.4,3.4,0,0,0-.68,2.13v5.43h-1.52v-5.65q0-2.8-2.17-2.8a2,2,0,0,0-1.66.84,3.47,3.47,0,0,0-.65,2.18v5.43h-1.52v-9.52h1.52v1.51h0a3.23,3.23,0,0,1,2.95-1.74,2.85,2.85,0,0,1,1.67.52,2.68,2.68,0,0,1,1,1.46,3.39,3.39,0,0,1,3.16-2q3.14,0,3.14,3.89Z"/><path class="cls-1" d="M274.92,141a8.85,8.85,0,0,1-4.46,1.14,6.55,6.55,0,0,1-3.33-.85,5.69,5.69,0,0,1-2.25-2.39,7.52,7.52,0,0,1-.79-3.49,7,7,0,0,1,1.94-5.07,6.64,6.64,0,0,1,5-2,8.44,8.44,0,0,1,3.65.71v1.73a7,7,0,0,0-3.83-1,5,5,0,0,0-2.63.7,4.8,4.8,0,0,0-1.82,2,6.19,6.19,0,0,0-.66,2.85,5.68,5.68,0,0,0,1.32,4,4.64,4.64,0,0,0,3.61,1.46,5.54,5.54,0,0,0,2.71-.63v-3.73h-2.92v-1.41h4.48Z"/><path class="cls-1" d="M286.45,137.1a5.13,5.13,0,0,1-1.29,3.65,4.49,4.49,0,0,1-3.45,1.38,4.4,4.4,0,0,1-3.37-1.34,5,5,0,0,1-1.26-3.54,5.22,5.22,0,0,1,1.29-3.73,4.65,4.65,0,0,1,3.56-1.37,4.25,4.25,0,0,1,3.32,1.32A5.21,5.21,0,0,1,286.45,137.1Zm-1.56.06a4.2,4.2,0,0,0-.79-2.75,2.78,2.78,0,0,0-2.27-1,2.92,2.92,0,0,0-2.32,1,4.08,4.08,0,0,0-.85,2.77,3.87,3.87,0,0,0,.86,2.67,3,3,0,0,0,2.32,1,2.79,2.79,0,0,0,2.28-.95A4.15,4.15,0,0,0,284.89,137.16Z"/><path class="cls-1" d="M290.34,141.9h-1.52V127.81h1.52Z"/><path class="cls-1" d="M301.48,141.9H300v-1.62h0a3.82,3.82,0,0,1-6.14.55,5.27,5.27,0,0,1-1.07-3.46,5.75,5.75,0,0,1,1.18-3.79,3.91,3.91,0,0,1,3.17-1.43,3.06,3.06,0,0,1,2.85,1.54h0v-5.88h1.52ZM300,137.6v-1.4a2.65,2.65,0,0,0-.79-2,2.61,2.61,0,0,0-1.91-.78,2.64,2.64,0,0,0-2.18,1,4.42,4.42,0,0,0-.81,2.82,4,4,0,0,0,.76,2.59,2.5,2.5,0,0,0,2.05,1,2.63,2.63,0,0,0,2.06-.91A3.37,3.37,0,0,0,300,137.6Z"/><path class="cls-1" d="M319.92,135.07a7.1,7.1,0,0,1-.89,3.59,6,6,0,0,1-2.54,2.4,8.16,8.16,0,0,1-3.76.84H309.2V128.57h3.68Q319.92,128.57,319.92,135.07Zm-1.64,0q0-5.12-5.44-5.12h-2.08v10.5h2a5.63,5.63,0,0,0,4.09-1.41A5.28,5.28,0,0,0,318.28,135.11Z"/><path class="cls-1" d="M329.08,141.9h-1.52v-1.49h0a3.19,3.19,0,0,1-2.93,1.72,3.16,3.16,0,0,1-2.2-.75,2.58,2.58,0,0,1-.83-2q0-2.66,3.14-3.11l2.85-.4q0-2.42-2-2.42a4.71,4.71,0,0,0-3.11,1.16v-1.56a4.64,4.64,0,0,1,1.43-.61,6.58,6.58,0,0,1,1.8-.29q3.36,0,3.36,3.56Zm-1.52-4.82-2.31.33a3.41,3.41,0,0,0-1.65.56,1.57,1.57,0,0,0-.47,1.28,1.43,1.43,0,0,0,.51,1.15,2,2,0,0,0,1.31.43,2.44,2.44,0,0,0,1.87-.8,2.83,2.83,0,0,0,.74-2Z"/><path class="cls-1" d="M336.37,141.81a2.92,2.92,0,0,1-1.43.31q-2.49,0-2.49-2.81v-5.63h-1.64v-1.29h1.64v-2.32l1.52-.49v2.82h2.4v1.29H334V139a2.2,2.2,0,0,0,.33,1.36,1.32,1.32,0,0,0,1.09.4,1.62,1.62,0,0,0,1-.31Z"/><path class="cls-1" d="M345.15,141.9h-1.52v-1.49h0a3.19,3.19,0,0,1-2.93,1.72,3.16,3.16,0,0,1-2.2-.75,2.58,2.58,0,0,1-.83-2q0-2.66,3.14-3.11l2.85-.4q0-2.42-2-2.42a4.71,4.71,0,0,0-3.11,1.16v-1.56a4.64,4.64,0,0,1,1.43-.61,6.58,6.58,0,0,1,1.8-.29q3.36,0,3.36,3.56Zm-1.52-4.82-2.31.33a3.41,3.41,0,0,0-1.65.56,1.57,1.57,0,0,0-.47,1.28,1.43,1.43,0,0,0,.51,1.15,2,2,0,0,0,1.31.43,2.44,2.44,0,0,0,1.87-.8,2.83,2.83,0,0,0,.74-2Z"/><path class="cls-1" d="M354.43,141.46a5,5,0,0,1-2.61.67,4.59,4.59,0,0,1-2.34-.6,4.13,4.13,0,0,1-1.61-1.7,5.21,5.21,0,0,1-.58-2.46,5.29,5.29,0,0,1,1.35-3.79,4.72,4.72,0,0,1,3.6-1.43,4.83,4.83,0,0,1,2.2.48v1.56a3.9,3.9,0,0,0-2.27-.74,3,3,0,0,0-2.4,1.06,4,4,0,0,0-.92,2.73,3.76,3.76,0,0,0,.88,2.63,3,3,0,0,0,2.36,1,3.85,3.85,0,0,0,2.34-.82Z"/><path class="cls-1" d="M364.31,137.52h-6.72a3.54,3.54,0,0,0,.85,2.46,3,3,0,0,0,2.25.85,4.66,4.66,0,0,0,2.95-1v1.42a5.44,5.44,0,0,1-3.31.92,4,4,0,0,1-3.18-1.32,5.37,5.37,0,0,1-1.14-3.64,5.79,5.79,0,0,1,.57-2.58,4.36,4.36,0,0,1,1.58-1.81,4.06,4.06,0,0,1,2.23-.64,3.6,3.6,0,0,1,2.89,1.2,5,5,0,0,1,1,3.37Zm-1.56-1.29a3.15,3.15,0,0,0-.64-2,2.16,2.16,0,0,0-1.74-.73,2.46,2.46,0,0,0-1.81.76,3.56,3.56,0,0,0-.95,2Z"/><path class="cls-1" d="M374.45,141.9h-1.52v-5.43q0-3-2.21-3a2.42,2.42,0,0,0-1.88.85,3.14,3.14,0,0,0-.76,2.17v5.43h-1.52v-9.52h1.52V134h0a3.42,3.42,0,0,1,3.12-1.81,2.89,2.89,0,0,1,2.39,1,4.52,4.52,0,0,1,.82,2.9Z"/><path class="cls-1" d="M381.73,141.81a2.92,2.92,0,0,1-1.43.31q-2.49,0-2.49-2.81v-5.63h-1.64v-1.29h1.64v-2.32l1.52-.49v2.82h2.4v1.29h-2.4V139a2.2,2.2,0,0,0,.33,1.36,1.32,1.32,0,0,0,1.09.4,1.62,1.62,0,0,0,1-.31Z"/><path class="cls-1" d="M391.34,137.52h-6.72a3.54,3.54,0,0,0,.85,2.46,3,3,0,0,0,2.25.85,4.66,4.66,0,0,0,2.95-1v1.42a5.44,5.44,0,0,1-3.31.92,4,4,0,0,1-3.18-1.32,5.37,5.37,0,0,1-1.14-3.64,5.79,5.79,0,0,1,.57-2.58,4.36,4.36,0,0,1,1.58-1.81,4.06,4.06,0,0,1,2.23-.64,3.6,3.6,0,0,1,2.89,1.2,5,5,0,0,1,1,3.37Zm-1.56-1.29a3.15,3.15,0,0,0-.64-2,2.16,2.16,0,0,0-1.74-.73,2.46,2.46,0,0,0-1.81.76,3.56,3.56,0,0,0-.95,2Z"/><path class="cls-1" d="M398.54,133.93a2,2,0,0,0-2.81.65,4.41,4.41,0,0,0-.63,2.48v4.85h-1.52v-9.52h1.52v2h0a3.36,3.36,0,0,1,1-1.56,2.24,2.24,0,0,1,1.51-.57,2.49,2.49,0,0,1,.91.13Z"/><path class="cls-1" d="M274.92,166.55a8.85,8.85,0,0,1-4.46,1.14,6.55,6.55,0,0,1-3.33-.85,5.69,5.69,0,0,1-2.25-2.39,7.53,7.53,0,0,1-.79-3.49,7,7,0,0,1,1.94-5.07,6.64,6.64,0,0,1,5-2,8.44,8.44,0,0,1,3.65.71v1.73a7,7,0,0,0-3.83-1,5,5,0,0,0-2.63.7,4.8,4.8,0,0,0-1.82,2,6.19,6.19,0,0,0-.66,2.85,5.68,5.68,0,0,0,1.32,4,4.64,4.64,0,0,0,3.61,1.46,5.54,5.54,0,0,0,2.71-.63v-3.73h-2.92v-1.41h4.48Z"/><path class="cls-1" d="M286.45,162.67a5.13,5.13,0,0,1-1.29,3.65,4.49,4.49,0,0,1-3.45,1.38,4.4,4.4,0,0,1-3.37-1.34,5,5,0,0,1-1.26-3.54,5.22,5.22,0,0,1,1.29-3.73,4.65,4.65,0,0,1,3.56-1.37,4.25,4.25,0,0,1,3.32,1.32A5.21,5.21,0,0,1,286.45,162.67Zm-1.56.06a4.2,4.2,0,0,0-.79-2.75,2.78,2.78,0,0,0-2.27-1,2.92,2.92,0,0,0-2.32,1,4.08,4.08,0,0,0-.85,2.77,3.87,3.87,0,0,0,.86,2.67,3,3,0,0,0,2.32,1,2.79,2.79,0,0,0,2.28-.95A4.15,4.15,0,0,0,284.89,162.72Z"/><path class="cls-1" d="M290.34,167.46h-1.52V153.37h1.52Z"/><path class="cls-1" d="M301.48,167.46H300v-1.62h0a3.82,3.82,0,0,1-6.14.55,5.27,5.27,0,0,1-1.07-3.46,5.76,5.76,0,0,1,1.18-3.79,3.91,3.91,0,0,1,3.17-1.43,3.06,3.06,0,0,1,2.85,1.54h0v-5.88h1.52Zm-1.52-4.3v-1.4a2.65,2.65,0,0,0-.79-2,2.61,2.61,0,0,0-1.91-.78,2.64,2.64,0,0,0-2.18,1,4.43,4.43,0,0,0-.81,2.82,4,4,0,0,0,.76,2.59,2.5,2.5,0,0,0,2.05,1,2.63,2.63,0,0,0,2.06-.91A3.37,3.37,0,0,0,300,163.16Z"/><path class="cls-1" d="M318.26,166.91a7.76,7.76,0,0,1-3.67.78,6.43,6.43,0,0,1-3.28-.83,5.57,5.57,0,0,1-2.21-2.35,7.52,7.52,0,0,1-.78-3.47,7.76,7.76,0,0,1,.86-3.68,6.27,6.27,0,0,1,2.43-2.55,6.83,6.83,0,0,1,3.5-.91,7.87,7.87,0,0,1,3.14.55v1.66a6.37,6.37,0,0,0-3.16-.8,5.14,5.14,0,0,0-2.68.7,4.7,4.7,0,0,0-1.82,2,6.51,6.51,0,0,0-.65,3,6.21,6.21,0,0,0,.6,2.8,4.38,4.38,0,0,0,1.71,1.87,4.87,4.87,0,0,0,2.53.66,6.46,6.46,0,0,0,3.46-.89Z"/><path class="cls-1" d="M322.31,167.46h-1.52V153.37h1.52Z"/><path class="cls-1" d="M334,162.67a5.13,5.13,0,0,1-1.29,3.65,4.49,4.49,0,0,1-3.45,1.38,4.4,4.4,0,0,1-3.37-1.34,5,5,0,0,1-1.26-3.54,5.22,5.22,0,0,1,1.29-3.73,4.65,4.65,0,0,1,3.56-1.37,4.25,4.25,0,0,1,3.32,1.32A5.21,5.21,0,0,1,334,162.67Zm-1.56.06a4.2,4.2,0,0,0-.79-2.75,2.78,2.78,0,0,0-2.27-1,2.92,2.92,0,0,0-2.32,1,4.08,4.08,0,0,0-.85,2.77,3.87,3.87,0,0,0,.86,2.67,3,3,0,0,0,2.32,1,2.79,2.79,0,0,0,2.28-.95A4.15,4.15,0,0,0,332.48,162.72Z"/><path class="cls-1" d="M344.09,167.46h-1.52V166h0a3.12,3.12,0,0,1-2.93,1.74q-3.41,0-3.41-4.06v-5.69h1.52v5.45q0,3,2.31,3a2.31,2.31,0,0,0,1.84-.82,3.17,3.17,0,0,0,.71-2.14v-5.48h1.52Z"/><path class="cls-1" d="M355.22,167.46H353.7v-1.62h0a3.82,3.82,0,0,1-6.14.55,5.27,5.27,0,0,1-1.07-3.46,5.76,5.76,0,0,1,1.18-3.79,3.91,3.91,0,0,1,3.17-1.43,3.06,3.06,0,0,1,2.85,1.54h0v-5.88h1.52Zm-1.52-4.3v-1.4a2.65,2.65,0,0,0-.79-2A2.61,2.61,0,0,0,351,159a2.64,2.64,0,0,0-2.18,1,4.43,4.43,0,0,0-.81,2.82,4,4,0,0,0,.76,2.59,2.5,2.5,0,0,0,2.05,1,2.63,2.63,0,0,0,2.06-.91A3.37,3.37,0,0,0,353.7,163.16Z"/><path class="cls-1" d="M371.1,158.11a4,4,0,0,1-1.33,3.12,5.07,5.07,0,0,1-3.5,1.18h-1.76v5h-1.56V154.13h3.66a4.82,4.82,0,0,1,3.31,1A3.72,3.72,0,0,1,371.1,158.11Zm-1.64.08q0-2.65-3.12-2.65h-1.83V161h1.64a3.69,3.69,0,0,0,2.46-.73A2.59,2.59,0,0,0,369.46,158.2Z"/><path class="cls-1" d="M374.93,167.46H373.4V153.37h1.52Z"/><path class="cls-1" d="M384.75,167.46h-1.52V166h0a3.19,3.19,0,0,1-2.93,1.72,3.16,3.16,0,0,1-2.2-.75,2.58,2.58,0,0,1-.83-2q0-2.66,3.14-3.1l2.85-.4q0-2.42-2-2.42a4.71,4.71,0,0,0-3.11,1.16v-1.56a4.69,4.69,0,0,1,1.43-.61,6.58,6.58,0,0,1,1.8-.29q3.36,0,3.36,3.56Zm-1.52-4.82-2.31.33a3.41,3.41,0,0,0-1.65.56,1.57,1.57,0,0,0-.47,1.28,1.43,1.43,0,0,0,.51,1.15,2,2,0,0,0,1.31.43,2.44,2.44,0,0,0,1.87-.8,2.83,2.83,0,0,0,.74-2Z"/><path class="cls-1" d="M392,167.37a2.92,2.92,0,0,1-1.43.31q-2.49,0-2.49-2.81v-5.63h-1.64v-1.29h1.64v-2.32l1.52-.49v2.82H392v1.29h-2.4v5.37A2.2,2.2,0,0,0,390,166a1.32,1.32,0,0,0,1.09.4,1.62,1.62,0,0,0,1-.31Z"/><path class="cls-1" d="M398.78,154.71a2,2,0,0,0-1-.25q-1.6,0-1.6,2v1.47h2.23v1.29h-2.23v8.23h-1.52v-8.23H393v-1.29h1.62V156.4a3.25,3.25,0,0,1,.85-2.34,2.89,2.89,0,0,1,2.18-.89,3,3,0,0,1,1.11.17Z"/><path class="cls-1" d="M408.68,162.67a5.13,5.13,0,0,1-1.29,3.65,4.49,4.49,0,0,1-3.45,1.38,4.4,4.4,0,0,1-3.37-1.34,5,5,0,0,1-1.26-3.54,5.22,5.22,0,0,1,1.29-3.73,4.65,4.65,0,0,1,3.56-1.37,4.25,4.25,0,0,1,3.32,1.32A5.21,5.21,0,0,1,408.68,162.67Zm-1.56.06a4.2,4.2,0,0,0-.79-2.75,2.78,2.78,0,0,0-2.27-1,2.92,2.92,0,0,0-2.32,1,4.08,4.08,0,0,0-.85,2.77,3.87,3.87,0,0,0,.86,2.67,3,3,0,0,0,2.32,1,2.79,2.79,0,0,0,2.28-.95A4.15,4.15,0,0,0,407.12,162.72Z"/><path class="cls-1" d="M416,159.49a2,2,0,0,0-2.81.65,4.41,4.41,0,0,0-.63,2.48v4.85H411v-9.52h1.52v2h0a3.36,3.36,0,0,1,1-1.56,2.25,2.25,0,0,1,1.51-.57,2.49,2.49,0,0,1,.91.13Z"/><path class="cls-1" d="M431.19,167.46h-1.52V162a4.09,4.09,0,0,0-.49-2.29,1.87,1.87,0,0,0-1.64-.69,2,2,0,0,0-1.66.89,3.4,3.4,0,0,0-.68,2.13v5.43h-1.52v-5.65q0-2.8-2.17-2.8a2,2,0,0,0-1.66.84,3.46,3.46,0,0,0-.65,2.18v5.43h-1.52v-9.52h1.52v1.51h0a3.22,3.22,0,0,1,2.95-1.74,2.85,2.85,0,0,1,1.67.52,2.68,2.68,0,0,1,1,1.46,3.4,3.4,0,0,1,3.16-2q3.14,0,3.14,3.89Z"/><path class="cls-1" d="M274.92,192.11a8.85,8.85,0,0,1-4.46,1.14,6.55,6.55,0,0,1-3.33-.85,5.69,5.69,0,0,1-2.25-2.39,7.53,7.53,0,0,1-.79-3.49,7,7,0,0,1,1.94-5.07,6.64,6.64,0,0,1,5-2,8.44,8.44,0,0,1,3.65.71v1.73a7,7,0,0,0-3.83-1,5,5,0,0,0-2.63.7,4.8,4.8,0,0,0-1.82,2,6.19,6.19,0,0,0-.66,2.85,5.68,5.68,0,0,0,1.32,4,4.64,4.64,0,0,0,3.61,1.46,5.54,5.54,0,0,0,2.71-.63v-3.73h-2.92v-1.41h4.48Z"/><path class="cls-1" d="M286.45,188.23a5.13,5.13,0,0,1-1.29,3.65,4.49,4.49,0,0,1-3.45,1.38,4.4,4.4,0,0,1-3.37-1.34,5,5,0,0,1-1.26-3.54,5.22,5.22,0,0,1,1.29-3.73,4.65,4.65,0,0,1,3.56-1.37,4.25,4.25,0,0,1,3.32,1.32A5.21,5.21,0,0,1,286.45,188.23Zm-1.56.06a4.2,4.2,0,0,0-.79-2.75,2.78,2.78,0,0,0-2.27-1,2.92,2.92,0,0,0-2.32,1,4.08,4.08,0,0,0-.85,2.77,3.87,3.87,0,0,0,.86,2.67,3,3,0,0,0,2.32,1,2.79,2.79,0,0,0,2.28-.95A4.15,4.15,0,0,0,284.89,188.28Z"/><path class="cls-1" d="M290.34,193h-1.52V178.93h1.52Z"/><path class="cls-1" d="M301.48,193H300v-1.62h0a3.82,3.82,0,0,1-6.14.55,5.27,5.27,0,0,1-1.07-3.46,5.76,5.76,0,0,1,1.18-3.79,3.91,3.91,0,0,1,3.17-1.43,3.06,3.06,0,0,1,2.85,1.54h0v-5.88h1.52Zm-1.52-4.3v-1.4a2.65,2.65,0,0,0-.79-2,2.61,2.61,0,0,0-1.91-.78,2.64,2.64,0,0,0-2.18,1,4.43,4.43,0,0,0-.81,2.82A4,4,0,0,0,295,191a2.5,2.5,0,0,0,2.05,1,2.63,2.63,0,0,0,2.06-.91A3.37,3.37,0,0,0,300,188.72Z"/><path class="cls-1" d="M322.8,193h-1.56v-9q0-1.06.13-2.58h0a8.29,8.29,0,0,1-.4,1.29L316.39,193h-.76l-4.55-10.17a7.71,7.71,0,0,1-.4-1.37h0q.07.8.08,2.6V193H309.2V179.69h2.06l4.09,9.3a11.92,11.92,0,0,1,.6,1.6H316q.46-1.28.64-1.64l4.17-9.26h2Z"/><path class="cls-1" d="M333.67,188.65h-6.72a3.54,3.54,0,0,0,.85,2.46A3,3,0,0,0,330,192a4.66,4.66,0,0,0,2.95-1v1.42a5.44,5.44,0,0,1-3.31.92,4,4,0,0,1-3.18-1.32,5.37,5.37,0,0,1-1.14-3.64,5.79,5.79,0,0,1,.57-2.58,4.37,4.37,0,0,1,1.58-1.81,4.06,4.06,0,0,1,2.23-.64,3.6,3.6,0,0,1,2.89,1.2,5,5,0,0,1,1,3.37Zm-1.56-1.29a3.15,3.15,0,0,0-.64-2,2.16,2.16,0,0,0-1.74-.73,2.46,2.46,0,0,0-1.81.76,3.56,3.56,0,0,0-.95,2Z"/><path class="cls-1" d="M341.09,190.48a2.46,2.46,0,0,1-1,2,3.9,3.9,0,0,1-2.53.77,4.69,4.69,0,0,1-2.36-.58V191a3.84,3.84,0,0,0,2.47.91q1.81,0,1.81-1.33a1.16,1.16,0,0,0-.35-.88,6.74,6.74,0,0,0-1.61-.92,4.77,4.77,0,0,1-1.78-1.16,2.65,2.65,0,0,1,.43-3.61,3.63,3.63,0,0,1,2.41-.79,4.56,4.56,0,0,1,2,.45v1.53a3.56,3.56,0,0,0-2.16-.68,1.87,1.87,0,0,0-1.21.37,1.18,1.18,0,0,0-.46,1,1.28,1.28,0,0,0,.35,1,5.23,5.23,0,0,0,1.46.8,5.24,5.24,0,0,1,1.91,1.21A2.34,2.34,0,0,1,341.09,190.48Z"/><path class="cls-1" d="M348.52,190.48a2.46,2.46,0,0,1-1,2,3.9,3.9,0,0,1-2.53.77,4.69,4.69,0,0,1-2.36-.58V191a3.84,3.84,0,0,0,2.47.91q1.81,0,1.81-1.33a1.16,1.16,0,0,0-.35-.88,6.74,6.74,0,0,0-1.61-.92,4.77,4.77,0,0,1-1.78-1.16,2.65,2.65,0,0,1,.43-3.61,3.63,3.63,0,0,1,2.41-.79,4.56,4.56,0,0,1,2,.45v1.53a3.56,3.56,0,0,0-2.16-.68,1.87,1.87,0,0,0-1.21.37,1.18,1.18,0,0,0-.46,1,1.28,1.28,0,0,0,.35,1,5.23,5.23,0,0,0,1.46.8,5.24,5.24,0,0,1,1.91,1.21A2.34,2.34,0,0,1,348.52,190.48Z"/><path class="cls-1" d="M357.49,193H356v-1.49h0a3.19,3.19,0,0,1-2.93,1.72,3.16,3.16,0,0,1-2.2-.75,2.58,2.58,0,0,1-.83-2q0-2.66,3.14-3.1L356,187q0-2.42-2-2.42a4.71,4.71,0,0,0-3.11,1.16v-1.56a4.69,4.69,0,0,1,1.43-.61,6.58,6.58,0,0,1,1.8-.29q3.36,0,3.36,3.56ZM356,188.21l-2.31.33a3.41,3.41,0,0,0-1.65.56,1.57,1.57,0,0,0-.47,1.28,1.43,1.43,0,0,0,.51,1.15,2,2,0,0,0,1.31.43,2.44,2.44,0,0,0,1.87-.8,2.83,2.83,0,0,0,.74-2Z"/><path class="cls-1" d="M368.41,192.26q0,5.23-5,5.23a6.9,6.9,0,0,1-3.09-.66v-1.52a6.29,6.29,0,0,0,3.06.89q3.52,0,3.52-3.73v-1h0a3.56,3.56,0,0,1-3.27,1.83,3.66,3.66,0,0,1-3.45-2.22,6.71,6.71,0,0,1,.69-6.33,3.91,3.91,0,0,1,3.17-1.43,3.1,3.1,0,0,1,2.85,1.54h0v-1.31h1.52Zm-1.52-3.54v-1.4a2.66,2.66,0,0,0-.79-1.95,2.57,2.57,0,0,0-1.89-.79,2.64,2.64,0,0,0-2.22,1,4.61,4.61,0,0,0-.79,2.87A3.93,3.93,0,0,0,362,191a2.47,2.47,0,0,0,2,1,2.66,2.66,0,0,0,2.08-.91A3.36,3.36,0,0,0,366.89,188.72Z"/><path class="cls-1" d="M373.28,180.1a.94.94,0,0,1-.3.71,1,1,0,0,1-1.41,0,1,1,0,0,1-.29-.72,1,1,0,0,1,.28-.69,1,1,0,0,1,.71-.29,1,1,0,0,1,.72.29A1,1,0,0,1,373.28,180.1ZM373,193H371.5v-9.52H373Z"/><path class="cls-1" d="M384,193h-1.52V187.6q0-3-2.21-3a2.42,2.42,0,0,0-1.88.85,3.14,3.14,0,0,0-.76,2.17V193h-1.52v-9.52h1.52v1.58h0a3.42,3.42,0,0,1,3.12-1.81,2.89,2.89,0,0,1,2.39,1,4.52,4.52,0,0,1,.82,2.9Z"/><path class="cls-1" d="M394.93,192.26q0,5.23-5,5.23a6.9,6.9,0,0,1-3.09-.66v-1.52a6.29,6.29,0,0,0,3.06.89q3.52,0,3.52-3.73v-1h0a3.56,3.56,0,0,1-3.27,1.83,3.66,3.66,0,0,1-3.45-2.22,6.71,6.71,0,0,1,.69-6.33,3.91,3.91,0,0,1,3.17-1.43,3.1,3.1,0,0,1,2.85,1.54h0v-1.31h1.52Zm-1.52-3.54v-1.4a2.66,2.66,0,0,0-.79-1.95,2.57,2.57,0,0,0-1.89-.79,2.64,2.64,0,0,0-2.22,1,4.61,4.61,0,0,0-.79,2.87,3.93,3.93,0,0,0,.76,2.52,2.47,2.47,0,0,0,2,1,2.66,2.66,0,0,0,2.08-.91A3.36,3.36,0,0,0,393.41,188.72Z"/><path class="cls-2" d="M40.19,60.91H35.57V34.37q0-3.14.38-7.66h-.11a24.7,24.7,0,0,1-1.18,3.83L21.23,60.91H19L5.52,30.76a22.79,22.79,0,0,1-1.18-4.05H4.23q.22,2.37.22,7.72V60.91H0V21.39H6.1L18.18,48.95A35.07,35.07,0,0,1,20,53.69h.19q1.37-3.8,1.9-4.85L34.39,21.39h5.8V60.91"/><path class="cls-2" d="M53,60.91H48.51V32.69H53V60.91m.77-38.33a2.8,2.8,0,0,1-.88,2.11,3,3,0,0,1-4.18,0,2.82,2.82,0,0,1-.85-2.14,2.86,2.86,0,0,1,.84-2.05,2.8,2.8,0,0,1,2.1-.87,2.87,2.87,0,0,1,2.12.85,2.82,2.82,0,0,1,.85,2.07"/><path class="cls-2" d="M79.68,59.61a14.59,14.59,0,0,1-7.72,2,13.51,13.51,0,0,1-6.91-1.78,12.24,12.24,0,0,1-4.77-5,15.49,15.49,0,0,1-1.7-7.3q0-7,4-11.24A13.93,13.93,0,0,1,73.22,32a14.23,14.23,0,0,1,6.51,1.43v4.63a11.52,11.52,0,0,0-6.7-2.2A9,9,0,0,0,65.93,39a11.84,11.84,0,0,0-2.73,8.09,11.18,11.18,0,0,0,2.6,7.8,8.93,8.93,0,0,0,7,2.87,11.35,11.35,0,0,0,6.92-2.42v4.3"/><path class="cls-2" d="M99.75,37.27a6,6,0,0,0-8.3,1.92,13.09,13.09,0,0,0-1.87,7.34V60.91H85.08V32.69h4.51v5.81h.11a10,10,0,0,1,2.88-4.62,6.63,6.63,0,0,1,4.48-1.69,7.34,7.34,0,0,1,2.69.39v4.68"/><path class="cls-2" d="M123.45,46.86q0-5.32-2.35-8.16a8.23,8.23,0,0,0-6.72-2.84,8.63,8.63,0,0,0-6.87,2.91Q105,41.68,105,47q0,5.07,2.54,7.92a8.72,8.72,0,0,0,6.85,2.85,8.25,8.25,0,0,0,6.73-2.81q2.33-2.81,2.33-8.07m4.61-.17q0,6.72-3.8,10.82a13.26,13.26,0,0,1-10.2,4.09,13,13,0,0,1-10-4q-3.72-4-3.72-10.49,0-7,3.82-11.06T114.72,32q6.26,0,9.81,3.93t3.54,10.76"/><path class="cls-2" d="M149,53.36a7.31,7.31,0,0,1-2.82,6,11.51,11.51,0,0,1-7.49,2.29,13.84,13.84,0,0,1-7-1.71V55a11.32,11.32,0,0,0,7.31,2.7q5.36,0,5.36-3.94a3.46,3.46,0,0,0-1-2.6,20,20,0,0,0-4.75-2.71,14.09,14.09,0,0,1-5.27-3.43,7.31,7.31,0,0,1-1.54-4.86,7.31,7.31,0,0,1,2.8-5.84A10.72,10.72,0,0,1,141.69,32a13.46,13.46,0,0,1,6,1.32v4.55a10.5,10.5,0,0,0-6.37-2,5.52,5.52,0,0,0-3.58,1.1,3.49,3.49,0,0,0-1.36,2.84,3.81,3.81,0,0,0,1,2.88,15.48,15.48,0,0,0,4.31,2.38,15.54,15.54,0,0,1,5.63,3.58A7,7,0,0,1,149,53.36"/><path class="cls-2" d="M175.11,46.86q0-5.32-2.35-8.16A8.23,8.23,0,0,0,166,35.86a8.63,8.63,0,0,0-6.87,2.91q-2.53,2.91-2.53,8.2,0,5.07,2.54,7.92A8.72,8.72,0,0,0,166,57.74a8.25,8.25,0,0,0,6.73-2.81q2.33-2.81,2.33-8.07m4.61-.17q0,6.72-3.8,10.82a13.26,13.26,0,0,1-10.2,4.09,13,13,0,0,1-10-4q-3.72-4-3.72-10.49,0-7,3.82-11.06T166.38,32q6.26,0,9.81,3.93t3.54,10.76"/><path class="cls-2" d="M198.18,23.1a6,6,0,0,0-3-.74q-4.73,0-4.72,6v4.35h6.59v3.83h-6.59V60.91H186V36.52h-4.78V32.69H186V28.12a9.63,9.63,0,0,1,2.53-6.94,8.5,8.5,0,0,1,6.43-2.65,8.8,8.8,0,0,1,3.27.5V23.1"/><path class="cls-2" d="M214.55,60.63a8.61,8.61,0,0,1-4.23.91q-7.36,0-7.36-8.32V36.52h-4.83V32.69H203V25.8l4.5-1.46v8.35h7.09v3.83h-7.09V52.45a6.54,6.54,0,0,0,1,4,3.89,3.89,0,0,0,3.21,1.2,4.78,4.78,0,0,0,2.91-.91v3.86"/><path class="cls-2" d="M65.59,87.86q0-7.85-9.23-7.85H50.95v16.2h4.83q4.75,0,7.28-2.16a7.7,7.7,0,0,0,2.53-6.19m4.83-.25a11.79,11.79,0,0,1-3.94,9.25q-3.94,3.51-10.34,3.51H50.95v15H46.33V75.81H57.16q6.32,0,9.79,3.1t3.47,8.69"/><path class="cls-2" d="M89.43,101.06l-6.81,1a10,10,0,0,0-4.89,1.67,4.67,4.67,0,0,0-1.4,3.79,4.24,4.24,0,0,0,1.51,3.4,5.78,5.78,0,0,0,3.87,1.28,7.2,7.2,0,0,0,5.54-2.37,8.41,8.41,0,0,0,2.18-5.92v-2.81m4.51,14.27H89.43v-4.41h-.11a9.42,9.42,0,0,1-8.65,5.1,9.32,9.32,0,0,1-6.51-2.22,7.66,7.66,0,0,1-2.44-6q0-7.88,9.28-9.2l8.43-1.18q0-7.16-5.8-7.16a13.89,13.89,0,0,0-9.17,3.44V89.1a13.73,13.73,0,0,1,4.23-1.8A19.4,19.4,0,0,1,84,86.42q9.92,0,9.92,10.55v18.35"/><path class="cls-2" d="M115.68,91.69a6,6,0,0,0-8.3,1.92,13.09,13.09,0,0,0-1.87,7.34v14.38H101V87.11h4.51v5.81h.11a10,10,0,0,1,2.88-4.62A6.63,6.63,0,0,1,113,86.62a7.34,7.34,0,0,1,2.69.39v4.68"/><path class="cls-2" d="M136.68,115.06a8.61,8.61,0,0,1-4.23.91q-7.36,0-7.36-8.32V90.94h-4.83V87.11h4.83V80.22l4.5-1.46v8.35h7.09v3.83h-7.09v15.93a6.54,6.54,0,0,0,1,4,3.89,3.89,0,0,0,3.21,1.2,4.78,4.78,0,0,0,2.91-.91v3.86"/><path class="cls-2" d="M166.32,115.33h-4.51V99.24q0-9-6.54-9a7.14,7.14,0,0,0-5.56,2.52,9.33,9.33,0,0,0-2.24,6.43v16.09H143V87.11h4.51V91.8h.11a10.1,10.1,0,0,1,9.23-5.37,8.53,8.53,0,0,1,7.07,3q2.43,3,2.43,8.6v17.28"/><path class="cls-2" d="M191.18,98.52a9.37,9.37,0,0,0-1.88-6.08,6.37,6.37,0,0,0-5.15-2.16,7.25,7.25,0,0,0-5.36,2.26,10.57,10.57,0,0,0-2.8,6h15.19m4.61,3.83H175.93q.11,4.77,2.51,7.29a8.76,8.76,0,0,0,6.66,2.52,13.76,13.76,0,0,0,8.71-3.09v4.22Q190.13,116,184,116t-9.39-3.9q-3.38-3.9-3.38-10.79A17.19,17.19,0,0,1,173,93.68a12.94,12.94,0,0,1,4.66-5.36,12,12,0,0,1,6.59-1.9A10.64,10.64,0,0,1,192.73,90q3.06,3.57,3.06,10v2.37"/><path class="cls-2" d="M215.65,91.69a6,6,0,0,0-8.3,1.92,13.09,13.09,0,0,0-1.87,7.34v14.38H201V87.11h4.5v5.81h.11a10,10,0,0,1,2.88-4.62A6.63,6.63,0,0,1,213,86.62a7.34,7.34,0,0,1,2.69.39v4.68"/><path class="cls-3" d="M119.93,164.5l-.87,2.43h0a23.42,23.42,0,0,0-.82-2.41l-4.64-11.68H109v18.57h3V160c0-.7,0-1.56,0-2.53,0-.49-.07-.89-.08-1.19h.07c.15.7.31,1.23.42,1.59l5.56,13.54H120l5.52-13.67a12.13,12.13,0,0,0,.38-1.47H126c-.07,1.35-.13,2.59-.14,3.33v11.8H129V152.85h-4.36l-4.76,11.65"/><polyline class="cls-3" points="132.05 171.41 135.17 171.41 135.17 161.37 135.17 158.11 132.05 158.11 132.05 164.65 132.05 171.41"/><path class="cls-3" d="M133.65,152.45a1.88,1.88,0,0,0-1.33.52,1.73,1.73,0,0,0-.56,1.31,1.68,1.68,0,0,0,.55,1.28,1.9,1.9,0,0,0,1.34.51,1.92,1.92,0,0,0,1.34-.51,1.67,1.67,0,0,0,.56-1.28A1.76,1.76,0,0,0,135,153a1.86,1.86,0,0,0-1.36-.54"/><path class="cls-3" d="M146.22,158a8.61,8.61,0,0,0-1.74-.19,7.68,7.68,0,0,0-3.79.92,6.15,6.15,0,0,0-2.5,2.58,8.23,8.23,0,0,0-.86,3.82,7.08,7.08,0,0,0,.84,3.43,5.88,5.88,0,0,0,2.33,2.37,6.94,6.94,0,0,0,3.41.83,7.45,7.45,0,0,0,3.76-.88l0,0V168l-.13.1a5.87,5.87,0,0,1-1.53.8,4.6,4.6,0,0,1-1.5.29,3.83,3.83,0,0,1-2.92-1.14,4.45,4.45,0,0,1-1.08-3.16,4.61,4.61,0,0,1,1.12-3.25,3.82,3.82,0,0,1,2.93-1.21,5,5,0,0,1,3,1l.13.1v-3l0,0a5.16,5.16,0,0,0-1.44-.49"/><path class="cls-3" d="M156.5,157.88a3.19,3.19,0,0,0-2.09.75,4.24,4.24,0,0,0-1.2,1.78h0v-2.3h-3.12v13.31h3.12v-6.81a4.76,4.76,0,0,1,.78-2.83,2.38,2.38,0,0,1,2-1.07,3.66,3.66,0,0,1,.94.14,2.38,2.38,0,0,1,.73.3l.13.1v-3.16l-.05,0a3.22,3.22,0,0,0-1.22-.19"/><path class="cls-3" d="M167.45,168a3.16,3.16,0,0,1-2.62,1.11,3.34,3.34,0,0,1-2.69-1.13,4.82,4.82,0,0,1-1-3.2,5,5,0,0,1,1-3.28,3.29,3.29,0,0,1,2.66-1.15,3.24,3.24,0,0,1,2.59,1.1,4.91,4.91,0,0,1,.95,3.26,5.24,5.24,0,0,1-.89,3.3M165,157.79a6.91,6.91,0,0,0-5.16,1.91,7.18,7.18,0,0,0-1.87,5.22,6.8,6.8,0,0,0,1.82,5,6.6,6.6,0,0,0,4.89,1.84,6.73,6.73,0,0,0,5.06-1.94,7.16,7.16,0,0,0,1.86-5.17,7,7,0,0,0-1.75-5,6.43,6.43,0,0,0-4.86-1.83"/><path class="cls-3" d="M178.5,163.61a6.78,6.78,0,0,1-1.87-1,1.37,1.37,0,0,1-.38-1,1.14,1.14,0,0,1,.48-.95,2.14,2.14,0,0,1,1.34-.38,5.49,5.49,0,0,1,1.6.25,5.15,5.15,0,0,1,1.4.65l.13.09v-2.89l-.05,0a6.89,6.89,0,0,0-1.42-.4,8.67,8.67,0,0,0-1.56-.16,5.7,5.7,0,0,0-3.66,1.13,3.62,3.62,0,0,0-1.42,3,4.14,4.14,0,0,0,.31,1.65,3.3,3.3,0,0,0,.94,1.24,8.21,8.21,0,0,0,1.92,1.08,14.28,14.28,0,0,1,1.6.75,2.21,2.21,0,0,1,.7.58,1.3,1.3,0,0,1,.2.75c0,.89-.67,1.33-2,1.33a5.59,5.59,0,0,1-1.73-.32,6.49,6.49,0,0,1-1.77-.9l-.13-.09V171l0,0a7.85,7.85,0,0,0,1.67.52,9,9,0,0,0,1.79.21,6.05,6.05,0,0,0,3.86-1.14,3.7,3.7,0,0,0,1.44-3,3.48,3.48,0,0,0-.77-2.29,6.62,6.62,0,0,0-2.63-1.68"/><path class="cls-3" d="M192.77,168a3.16,3.16,0,0,1-2.62,1.11,3.34,3.34,0,0,1-2.69-1.13,4.82,4.82,0,0,1-1-3.2,5,5,0,0,1,1-3.28,3.29,3.29,0,0,1,2.66-1.15,3.24,3.24,0,0,1,2.59,1.1,4.91,4.91,0,0,1,.95,3.26,5.24,5.24,0,0,1-.89,3.3m-2.48-10.25a6.91,6.91,0,0,0-5.16,1.91,7.18,7.18,0,0,0-1.87,5.22,6.8,6.8,0,0,0,1.82,5,6.6,6.6,0,0,0,4.89,1.84A6.73,6.73,0,0,0,195,169.8a7.16,7.16,0,0,0,1.87-5.17,7,7,0,0,0-1.75-5,6.43,6.43,0,0,0-4.86-1.83"/><path class="cls-3" d="M213.53,160.66v-2.55h-3.16v-4l-.11,0-3,.91-.06,0v3h-4.68v-1.67a2.66,2.66,0,0,1,.52-1.77,1.81,1.81,0,0,1,1.45-.59,3.36,3.36,0,0,1,1.37.31l.12.05v-2.69l-.05,0a5.33,5.33,0,0,0-1.75-.24,5.14,5.14,0,0,0-2.49.6,4.26,4.26,0,0,0-1.71,1.69,5.05,5.05,0,0,0-.61,2.48v1.84h-2.2v2.55h2.2v10.75h3.16V160.66h4.68v6.83c0,2.81,1.32,4.24,3.93,4.24a6.4,6.4,0,0,0,1.34-.15,3.67,3.67,0,0,0,1-.31l0,0v-2.58l-.13.09a2.18,2.18,0,0,1-.63.28,2.41,2.41,0,0,1-.62.11,1.69,1.69,0,0,1-1.35-.49,2.65,2.65,0,0,1-.43-1.71v-6.28h3.16"/><polyline class="cls-4" points="83.55 161.37 68.87 161.37 68.87 146.65 83.55 146.65 83.55 161.37"/><polyline class="cls-5" points="99.75 161.37 85.08 161.37 85.08 146.65 99.75 146.65 99.75 161.37"/><polyline class="cls-6" points="83.55 177.63 68.87 177.63 68.87 162.91 83.55 162.91 83.55 177.63"/><polyline class="cls-7" points="99.75 177.63 85.08 177.63 85.08 162.91 99.75 162.91 99.75 177.63"/><line class="cls-8" x1="238" y1="8.76" x2="238" y2="184.21"/></g></g></svg>