<svg xmlns="http://www.w3.org/2000/svg" width="100" height="100" viewBox="0 0 100 100">
    <g fill="none" fill-rule="evenodd">
        <g>
            <g>
                <g>
                    <path fill="#005BAB" d="M0 0H100V100H0z" transform="translate(-135 -5036) translate(135 5006) translate(0 30)"/>
                    <g fill="#FFF" fill-rule="nonzero">
                        <path d="M33.908 37.75c0-3.962-2.634-7.175-10.18-10.75-5.88-2.788-12.458-6.25-12.826-14.8-.278-4.9 2.066-9.568 6.126-12.2H0v50h13.549c13.266 0 20.359-4.175 20.359-12.25zM37.277 33.337c.402 1.07.65 2.195.735 3.338h11.025v-3.337h-11.76zM32.034 26.663c1.304.948 2.479 2.07 3.491 3.337H49v-3.337H32.034zM49 40H38.085c-.167 1.145-.467 2.265-.894 3.337H49V40zM49 3.337V0H34.95c-5.415 0-11.246.662-15.264 3.337H49zM35.292 46.663c-1.036 1.31-2.278 2.438-3.675 3.337H49v-3.337H35.292z" transform="translate(-135 -5036) translate(135 5006) translate(0 30) translate(25 25)"/>
                        <path d="M16.452 6.662C15.846 7.69 15.43 8.82 15.227 10H49V6.662H16.452zM19.857 20c1.702 1.063 3.474 2.003 5.305 2.813l1.127.524H49V20H19.857zM15.264 13.338c.126 1.2.548 2.347 1.224 3.337H49v-3.338H15.264z" transform="translate(-135 -5036) translate(135 5006) translate(0 30) translate(25 25)"/>
                    </g>
                </g>
            </g>
        </g>
    </g>
</svg>
