<svg width="282" height="229" viewBox="0 0 282 229" fill="none" xmlns="http://www.w3.org/2000/svg">
<path d="M240.508 178.953C238.527 181.501 237.988 178.848 241.614 166.836C243.315 161.236 247.004 149.777 252.534 154.096C257.84 158.254 245.058 173.073 245.058 173.073L240.508 178.953ZM248.607 183.111C248.607 183.111 265.512 173.248 261.837 167.592C258.015 161.705 250.812 171.323 247.375 176.097C240.046 186.275 239.675 188.956 242.398 187.199L248.607 183.111ZM247.907 196.082C247.907 196.082 262.257 190.993 260.269 186.135C258.169 181.081 251.295 187.395 247.977 190.538C240.9 197.258 240.242 199.26 242.566 198.308L247.907 196.082ZM247.669 209.158C247.669 209.158 262.026 204.062 260.038 199.211C257.938 194.157 251.064 200.464 247.746 203.614C240.669 210.334 240.004 212.336 242.328 211.377L247.669 209.158ZM233.795 178.785C233.795 178.785 219.578 165.338 215.182 170.455C210.611 175.775 221.867 179.982 227.411 181.942C239.241 186.142 241.915 185.701 239.465 183.601L233.795 178.785ZM233.424 189.026C233.424 189.026 216.813 178.666 213.523 184.553C210.1 190.678 221.965 192.568 227.789 193.387C240.214 195.123 242.755 194.185 239.934 192.617L233.424 189.026ZM234.593 200.632C234.593 200.632 220.299 192.26 217.639 197.3C214.888 202.564 224.968 203.887 229.91 204.44C240.452 205.623 242.58 204.769 240.158 203.509L234.593 200.632ZM234.53 209.9C234.53 209.9 221.23 200.065 218.045 204.804C214.748 209.746 224.632 212.133 229.49 213.204C239.85 215.5 242.055 214.884 239.78 213.365L234.53 209.9ZM236.98 163.441C236.98 163.441 236.196 140.341 227.376 141.986C218.199 143.694 224.772 155.881 228.118 161.768C235.258 174.368 238.128 175.901 237.792 172.128L236.98 163.441Z" fill="#7CCCDB"/>
<path opacity="0.4" d="M240.508 178.953C238.527 181.501 237.988 178.848 241.614 166.836C243.315 161.236 247.004 149.777 252.534 154.096C257.84 158.254 245.058 173.073 245.058 173.073L240.508 178.953ZM248.607 183.111C248.607 183.111 265.512 173.248 261.837 167.592C258.015 161.705 250.812 171.323 247.375 176.097C240.046 186.275 239.675 188.956 242.398 187.199L248.607 183.111ZM247.907 196.082C247.907 196.082 262.257 190.993 260.269 186.135C258.169 181.081 251.295 187.395 247.977 190.538C240.9 197.258 240.242 199.26 242.566 198.308L247.907 196.082ZM247.669 209.158C247.669 209.158 262.026 204.062 260.038 199.211C257.938 194.157 251.064 200.464 247.746 203.614C240.669 210.334 240.004 212.336 242.328 211.377L247.669 209.158ZM233.795 178.785C233.795 178.785 219.578 165.338 215.182 170.455C210.611 175.775 221.867 179.982 227.411 181.942C239.241 186.142 241.915 185.701 239.465 183.601L233.795 178.785ZM233.424 189.026C233.424 189.026 216.813 178.666 213.523 184.553C210.1 190.678 221.965 192.568 227.789 193.387C240.214 195.123 242.755 194.185 239.934 192.617L233.424 189.026ZM234.593 200.632C234.593 200.632 220.299 192.26 217.639 197.3C214.888 202.564 224.968 203.887 229.91 204.44C240.452 205.623 242.58 204.769 240.158 203.509L234.593 200.632ZM234.53 209.9C234.53 209.9 221.23 200.065 218.045 204.804C214.748 209.746 224.632 212.133 229.49 213.204C239.85 215.5 242.055 214.884 239.78 213.365L234.53 209.9ZM236.98 163.441C236.98 163.441 236.196 140.341 227.376 141.986C218.199 143.694 224.772 155.881 228.118 161.768C235.258 174.368 238.128 175.901 237.792 172.128L236.98 163.441Z" fill="white"/>
<path d="M228.461 150.471C228.461 150.471 239.612 176.203 240.725 187.809C242.006 201.144 241.194 215.851 238.625 227.226" stroke="#7CCCDB" stroke-width="1.25197" stroke-linecap="round" stroke-linejoin="round"/>
<path d="M239.27 180.024L247.313 160.816" stroke="#7CCCDB" stroke-width="1.25197" stroke-linecap="round" stroke-linejoin="round"/>
<path d="M240.727 187.809L254.097 173.543" stroke="#7CCCDB" stroke-width="1.25197" stroke-linecap="round" stroke-linejoin="round"/>
<path d="M240.179 184.974L223.211 176.168" stroke="#7CCCDB" stroke-width="1.25197" stroke-linecap="round" stroke-linejoin="round"/>
<path d="M241.41 198.26L255.438 189.209" stroke="#7CCCDB" stroke-width="1.25197" stroke-linecap="round" stroke-linejoin="round"/>
<path d="M241.062 193.862L227.496 189.865" stroke="#7CCCDB" stroke-width="1.25197" stroke-linecap="round" stroke-linejoin="round"/>
<path d="M240.866 204.475L230.324 201.92" stroke="#7CCCDB" stroke-width="1.25197" stroke-linecap="round" stroke-linejoin="round"/>
<path d="M241.215 211.384L248.915 205.539" stroke="#7CCCDB" stroke-width="1.25197" stroke-linecap="round" stroke-linejoin="round"/>
<path d="M240.832 214.269L228.812 210.188" stroke="#7CCCDB" stroke-width="1.25197" stroke-linecap="round" stroke-linejoin="round"/>
<path d="M264.399 203.732C262.299 204.201 263.16 202.619 270.041 198.006C273.268 195.85 279.939 191.552 280.954 196.074C281.927 200.421 269.187 202.633 269.187 202.633L264.399 203.732ZM266.793 209.248C266.793 209.248 279.561 211.292 280.051 206.868C280.562 202.262 272.855 204.152 269.103 205.146C261.102 207.246 259.793 208.499 261.914 208.73L266.793 209.248ZM260.99 215.548C260.99 215.548 270.454 218.957 271.49 215.646C272.547 212.195 266.38 212.531 263.363 212.748C256.937 213.21 255.761 213.959 257.35 214.442L260.99 215.548ZM255.39 222.121C255.39 222.121 264.854 225.537 265.89 222.226C266.954 218.775 260.787 219.104 257.77 219.328C251.344 219.79 250.168 220.539 251.75 221.022L255.39 222.121ZM261.011 200.799C261.011 200.799 259.387 187.975 254.998 188.745C250.434 189.55 254.417 196.41 256.433 199.735C260.724 206.819 262.264 207.729 261.893 205.629L261.011 200.799ZM256.531 205.867C256.531 205.867 252.387 193.624 248.243 195.248C243.931 196.942 249.202 202.878 251.834 205.748C257.434 211.838 259.135 212.426 258.351 210.445L256.531 205.867ZM252.268 212.286C252.268 212.286 248.481 202.024 245.009 203.501C241.404 205.034 245.996 209.927 248.285 212.279C253.185 217.305 254.585 217.76 253.885 216.101L252.268 212.286ZM248.348 217.018C248.348 217.018 245.674 206.413 242.048 207.512C238.296 208.653 242.342 214.008 244.372 216.612C248.698 222.121 250.084 222.73 249.559 221.008L248.348 217.018ZM269.068 194.317C269.068 194.317 278.343 182.2 273.149 179.344C267.745 176.369 265.995 185.343 265.239 189.753C263.622 199.161 264.434 201.163 265.841 199.091L269.068 194.317Z" fill="#7CCCDB"/>
<path opacity="0.4" d="M264.399 203.732C262.299 204.201 263.16 202.619 270.041 198.006C273.268 195.85 279.939 191.552 280.954 196.074C281.927 200.421 269.187 202.633 269.187 202.633L264.399 203.732ZM266.793 209.248C266.793 209.248 279.561 211.292 280.051 206.868C280.562 202.262 272.855 204.152 269.103 205.146C261.102 207.246 259.793 208.499 261.914 208.73L266.793 209.248ZM260.99 215.548C260.99 215.548 270.454 218.957 271.49 215.646C272.547 212.195 266.38 212.531 263.363 212.748C256.937 213.21 255.761 213.959 257.35 214.442L260.99 215.548ZM255.39 222.121C255.39 222.121 264.854 225.537 265.89 222.226C266.954 218.775 260.787 219.104 257.77 219.328C251.344 219.79 250.168 220.539 251.75 221.022L255.39 222.121ZM261.011 200.799C261.011 200.799 259.387 187.975 254.998 188.745C250.434 189.55 254.417 196.41 256.433 199.735C260.724 206.819 262.264 207.729 261.893 205.629L261.011 200.799ZM256.531 205.867C256.531 205.867 252.387 193.624 248.243 195.248C243.931 196.942 249.202 202.878 251.834 205.748C257.434 211.838 259.135 212.426 258.351 210.445L256.531 205.867ZM252.268 212.286C252.268 212.286 248.481 202.024 245.009 203.501C241.404 205.034 245.996 209.927 248.285 212.279C253.185 217.305 254.585 217.76 253.885 216.101L252.268 212.286ZM248.348 217.018C248.348 217.018 245.674 206.413 242.048 207.512C238.296 208.653 242.342 214.008 244.372 216.612C248.698 222.121 250.084 222.73 249.559 221.008L248.348 217.018ZM269.068 194.317C269.068 194.317 278.343 182.2 273.149 179.344C267.745 176.369 265.995 185.343 265.239 189.753C263.622 199.161 264.434 201.163 265.841 199.091L269.068 194.317Z" fill="white"/>
<path d="M270.161 184.141C270.161 184.141 265.079 201.949 260.788 208.347C255.92 215.603 249.996 222.091 243.211 227.597" stroke="#7CCCDB" stroke-width="1.25197" stroke-linecap="round" stroke-linejoin="round"/>
<path d="M263.301 203.76L275.453 197.32" stroke="#7CCCDB" stroke-width="1.25197" stroke-linecap="round" stroke-linejoin="round"/>
<path d="M260.789 208.347L273.585 206.66" stroke="#7CCCDB" stroke-width="1.25197" stroke-linecap="round" stroke-linejoin="round"/>
<path d="M261.692 206.665L256.715 195.066" stroke="#7CCCDB" stroke-width="1.25197" stroke-linecap="round" stroke-linejoin="round"/>
<path d="M256.758 213.967L267.713 215.22" stroke="#7CCCDB" stroke-width="1.25197" stroke-linecap="round" stroke-linejoin="round"/>
<path d="M258.421 211.573L253.164 203.852" stroke="#7CCCDB" stroke-width="1.25197" stroke-linecap="round" stroke-linejoin="round"/>
<path d="M253.871 216.913L249.559 211.188" stroke="#7CCCDB" stroke-width="1.25197" stroke-linecap="round" stroke-linejoin="round"/>
<path d="M251.156 220.59L257.54 220.828" stroke="#7CCCDB" stroke-width="1.25197" stroke-linecap="round" stroke-linejoin="round"/>
<path d="M249.755 221.898L245.324 214.779" stroke="#7CCCDB" stroke-width="1.25197" stroke-linecap="round" stroke-linejoin="round"/>
<path d="M15.4169 196.516C17.0199 197.916 17.0409 196.138 13.1979 188.816C11.3989 185.379 7.5979 178.421 4.5319 181.907C1.6059 185.26 11.7349 193.289 11.7349 193.289L15.4169 196.516ZM10.6849 200.219C10.6849 200.219 -1.5091 195.921 0.1849 191.819C1.9349 187.528 7.8009 192.869 10.6219 195.536C16.5999 201.213 17.1949 202.9 15.1999 202.102L10.6849 200.219ZM12.7849 208.549C12.7849 208.549 2.8379 207.023 3.5309 203.649C4.2309 200.114 9.5019 203.348 12.0499 204.979C17.4749 208.479 18.1539 209.676 16.5229 209.347L12.7849 208.549ZM14.5559 216.998C14.5559 216.998 4.6159 215.472 5.3019 212.098C6.0019 208.563 11.2799 211.797 13.8209 213.428C19.2459 216.928 19.9249 218.125 18.3009 217.796L14.5559 216.998ZM19.7849 195.571C19.7849 195.571 27.3449 185.071 30.8239 187.871C34.4569 190.755 27.6739 194.871 24.3209 196.838C17.1669 201.038 15.3819 201.08 16.7119 199.414L19.7849 195.571ZM21.2829 202.2C21.2829 202.2 30.7679 193.422 33.6309 196.831C36.6129 200.38 29.1509 203.082 25.4759 204.335C17.6359 207.002 15.8719 206.708 17.5029 205.343L21.2829 202.2ZM21.9829 209.9C21.9829 209.9 30.2149 202.697 32.5529 205.644C34.9959 208.717 28.6189 210.824 25.4829 211.797C18.7909 213.897 17.3069 213.589 18.7209 212.497L21.9829 209.9ZM23.1659 215.927C23.1659 215.927 30.5789 207.891 33.2249 210.572C35.9759 213.372 29.8649 216.172 26.8479 217.439C20.4079 220.239 18.9029 220.092 20.1909 218.839L23.1659 215.927ZM15.7879 186.03C15.7879 186.03 13.4289 170.959 19.3509 170.924C25.5179 170.924 22.7669 179.618 21.3319 183.853C18.2589 192.89 16.5999 194.262 16.3409 191.77L15.7879 186.03Z" fill="#7CCCDB"/>
<path opacity="0.4" d="M15.4169 196.516C17.0199 197.916 17.0409 196.138 13.1979 188.816C11.3989 185.379 7.5979 178.421 4.5319 181.907C1.6059 185.26 11.7349 193.289 11.7349 193.289L15.4169 196.516ZM10.6849 200.219C10.6849 200.219 -1.5091 195.921 0.1849 191.819C1.9349 187.528 7.8009 192.869 10.6219 195.536C16.5999 201.213 17.1949 202.9 15.1999 202.102L10.6849 200.219ZM12.7849 208.549C12.7849 208.549 2.8379 207.023 3.5309 203.649C4.2309 200.114 9.5019 203.348 12.0499 204.979C17.4749 208.479 18.1539 209.676 16.5229 209.347L12.7849 208.549ZM14.5559 216.998C14.5559 216.998 4.6159 215.472 5.3019 212.098C6.0019 208.563 11.2799 211.797 13.8209 213.428C19.2459 216.928 19.9249 218.125 18.3009 217.796L14.5559 216.998ZM19.7849 195.571C19.7849 195.571 27.3449 185.071 30.8239 187.871C34.4569 190.755 27.6739 194.871 24.3209 196.838C17.1669 201.038 15.3819 201.08 16.7119 199.414L19.7849 195.571ZM21.2829 202.2C21.2829 202.2 30.7679 193.422 33.6309 196.831C36.6129 200.38 29.1509 203.082 25.4759 204.335C17.6359 207.002 15.8719 206.708 17.5029 205.343L21.2829 202.2ZM21.9829 209.9C21.9829 209.9 30.2149 202.697 32.5529 205.644C34.9959 208.717 28.6189 210.824 25.4829 211.797C18.7909 213.897 17.3069 213.589 18.7209 212.497L21.9829 209.9ZM23.1659 215.927C23.1659 215.927 30.5789 207.891 33.2249 210.572C35.9759 213.372 29.8649 216.172 26.8479 217.439C20.4079 220.239 18.9029 220.092 20.1909 218.839L23.1659 215.927ZM15.7879 186.03C15.7879 186.03 13.4289 170.959 19.3509 170.924C25.5179 170.924 22.7669 179.618 21.3319 183.853C18.2589 192.89 16.5999 194.262 16.3409 191.77L15.7879 186.03Z" fill="white"/>
<path d="M19.7026 176.545C19.7026 176.545 15.6636 194.619 16.3776 202.291C17.1855 210.991 19.2926 219.521 22.6286 227.596" stroke="#7CCCDB" stroke-width="1.25197" stroke-linecap="round" stroke-linejoin="round"/>
<path d="M16.3629 197.062L8.75391 185.596" stroke="#7CCCDB" stroke-width="1.25197" stroke-linecap="round" stroke-linejoin="round"/>
<path d="M16.3745 202.291L5.9375 194.689" stroke="#7CCCDB" stroke-width="1.25197" stroke-linecap="round" stroke-linejoin="round"/>
<path d="M16.3828 200.38L26.2948 192.568" stroke="#7CCCDB" stroke-width="1.25197" stroke-linecap="round" stroke-linejoin="round"/>
<path d="M17.2317 209.151L7.01172 205.021" stroke="#7CCCDB" stroke-width="1.25197" stroke-linecap="round" stroke-linejoin="round"/>
<path d="M16.9141 206.252L25.2161 201.982" stroke="#7CCCDB" stroke-width="1.25197" stroke-linecap="round" stroke-linejoin="round"/>
<path d="M18.3555 213.12L24.8795 210.152" stroke="#7CCCDB" stroke-width="1.25197" stroke-linecap="round" stroke-linejoin="round"/>
<path d="M18.9885 217.642L13.2695 214.807" stroke="#7CCCDB" stroke-width="1.25197" stroke-linecap="round" stroke-linejoin="round"/>
<path d="M19.5977 219.47L26.8917 215.326" stroke="#7CCCDB" stroke-width="1.25197" stroke-linecap="round" stroke-linejoin="round"/>
<path d="M170.775 218.488C170.775 218.488 159.883 226.272 159.883 226.776C159.883 227.28 161.059 227.945 161.724 227.777C162.389 227.609 172.455 227.742 175.024 227.777C175.192 227.779 175.355 227.721 175.483 227.613C175.612 227.505 175.697 227.355 175.724 227.189C175.953 225.781 176.089 224.359 176.13 222.933C176.133 221.705 176.278 220.481 176.564 219.286L170.775 218.488Z" fill="#7CCCDB" stroke="#2855AF" stroke-linecap="round" stroke-linejoin="round"/>
<path d="M221.734 218.488C221.734 218.488 232.619 226.272 232.619 226.776C232.619 227.28 231.45 227.945 230.785 227.777C230.12 227.609 220.054 227.742 217.485 227.777C217.318 227.779 217.155 227.721 217.026 227.613C216.898 227.505 216.812 227.355 216.785 227.189C216.553 225.782 216.417 224.36 216.379 222.933C216.376 221.705 216.231 220.481 215.945 219.286L221.734 218.488Z" fill="#7CCCDB" stroke="#2855AF" stroke-linecap="round" stroke-linejoin="round"/>
<path d="M210.611 85.9571C210.611 85.9571 202.988 83.0661 198.907 83.5911C194.826 84.1161 191.284 86.0901 188.519 87.6651C185.754 89.2401 177.214 95.9531 175.499 97.2621C173.784 98.5711 174.05 105.662 179.699 104.892C185.348 104.122 193.111 97.7941 193.111 97.7941L194.427 115.294C194.427 115.294 191.403 119.893 188.127 128.594C184.851 137.295 183.129 149.629 182.604 153.57C182.079 157.511 177.081 188.899 177.081 188.899L170.781 218.481C170.781 218.481 172.622 219.797 176.563 219.272L196.947 162.572L203.646 143.903L204.962 143.378L216.232 219.195L221.363 218.404C221.363 218.404 223.505 189.662 223.505 175.984C223.505 162.306 221.79 141.803 220.348 133.389C218.906 124.975 216.799 117.247 216.799 117.247L222.98 106.6C222.98 106.6 230.337 121.587 232.08 125.402C233.823 129.217 241.677 145.002 241.677 145.002C241.677 145.002 239.836 147.494 239.703 148.418C239.57 149.342 239.178 151.176 239.045 151.967C238.912 152.758 239.969 153.017 240.494 152.492C241.019 151.967 241.803 149.468 241.803 149.468L243.903 153.668C243.903 153.668 243.903 157.868 244.694 157.616C245.485 157.364 245.611 156.034 245.744 155.642C245.877 155.25 246.927 154.592 246.927 152.352C246.927 150.112 246.402 146.57 245.478 145.254C244.881 144.378 244.355 143.456 243.903 142.496C243.903 142.496 237.603 123.295 236.938 120.67C236.273 118.045 233.382 108.308 232.199 103.31C231.016 98.3121 229.308 95.0291 226.417 92.9291C223.526 90.8291 210.611 85.9571 210.611 85.9571Z" fill="#2855AF"/>
<g opacity="0.2">
<path opacity="0.2" d="M216.225 219.231L216.54 219.182L213.299 189.6C213.299 189.6 217.149 194.85 217.149 193.1C217.149 191.588 207.979 156.532 205.508 147.117L216.225 219.231Z" fill="white"/>
<path opacity="0.2" d="M182.604 153.536C182.079 157.484 177.081 188.907 177.081 188.907L170.781 218.489C170.861 218.545 170.945 218.594 171.033 218.636C173.749 211.902 188.533 175.145 189.156 170.7C189.856 165.8 183.556 177.7 183.556 177.7L192.299 131.5C193.349 125.9 194.441 115.281 194.441 115.281C194.441 115.281 191.417 119.88 188.141 128.581C184.865 137.282 183.129 149.595 182.604 153.536Z" fill="white"/>
</g>
<path d="M210.611 85.9571C210.611 85.9571 202.988 83.0661 198.907 83.5911C194.826 84.1161 191.284 86.0901 188.519 87.6651C185.754 89.2401 177.214 95.9531 175.499 97.2621C173.784 98.5711 174.05 105.662 179.699 104.892C185.348 104.122 193.111 97.7941 193.111 97.7941L194.427 115.294C194.427 115.294 191.403 119.893 188.127 128.594C184.851 137.295 183.129 149.629 182.604 153.57C182.079 157.511 177.081 188.899 177.081 188.899L170.781 218.481C170.781 218.481 172.622 219.797 176.563 219.272L196.947 162.572L203.646 143.903L204.962 143.378L216.232 219.195L221.363 218.404C221.363 218.404 223.505 189.662 223.505 175.984C223.505 162.306 221.79 141.803 220.348 133.389C218.906 124.975 216.799 117.247 216.799 117.247L222.98 106.6C222.98 106.6 230.337 121.587 232.08 125.402C233.823 129.217 241.677 145.002 241.677 145.002C241.677 145.002 239.836 147.494 239.703 148.418C239.57 149.342 239.178 151.176 239.045 151.967C238.912 152.758 239.969 153.017 240.494 152.492C241.019 151.967 241.803 149.468 241.803 149.468L243.903 153.668C243.903 153.668 243.903 157.868 244.694 157.616C245.485 157.364 245.611 156.034 245.744 155.642C245.877 155.25 246.927 154.592 246.927 152.352C246.927 150.112 246.402 146.57 245.478 145.254C244.881 144.378 244.355 143.456 243.903 142.496C243.903 142.496 237.603 123.295 236.938 120.67C236.273 118.045 233.382 108.308 232.199 103.31C231.016 98.3121 229.308 95.0291 226.417 92.9291C223.526 90.8291 210.611 85.9571 210.611 85.9571Z" stroke="white" stroke-linecap="round" stroke-linejoin="round"/>
<path d="M239.011 151.961C238.878 152.752 239.935 153.011 240.46 152.486C240.985 151.961 241.769 149.462 241.769 149.462L243.869 153.662C243.869 153.662 243.869 157.862 244.66 157.61C245.451 157.358 245.577 156.028 245.71 155.636C245.843 155.244 246.893 154.586 246.893 152.346C246.893 150.106 246.368 146.564 245.444 145.248C244.847 144.372 244.321 143.449 243.869 142.49C243.869 142.49 239.389 128.868 237.569 123.002L231.535 124.332L232.025 125.396C233.733 129.211 241.622 144.996 241.622 144.996C241.622 144.996 239.781 147.488 239.648 148.412C239.515 149.336 239.144 151.17 239.011 151.961Z" fill="white" stroke="#2855AF" stroke-linecap="round" stroke-linejoin="round"/>
<path d="M232.199 103.311C231.016 98.3197 229.308 95.0297 226.417 92.9297C223.526 90.8297 210.639 85.9297 210.639 85.9297C210.639 85.9297 203.016 83.0387 198.935 83.5637C194.854 84.0887 191.312 86.0627 188.547 87.6377C185.782 89.2127 177.214 95.9537 175.499 97.2627C173.784 98.5717 174.05 105.663 179.699 104.893C185.348 104.123 193.111 97.7947 193.111 97.7947L194.427 115.295C194.427 115.295 191.403 119.894 188.127 128.595L188.022 128.868C189.763 131.805 192.214 134.257 195.149 136.001C198.084 137.745 201.41 138.725 204.822 138.85C212.893 139.263 217.681 136.554 220.404 133.908C220.404 133.754 220.355 133.6 220.334 133.46C218.885 125.06 216.785 117.283 216.785 117.283L222.966 106.636C222.966 106.636 230.323 121.623 232.066 125.438C232.318 126.012 232.717 126.838 233.207 127.881C235.094 127.486 236.862 126.651 238.366 125.445C237.666 123.17 237.099 121.385 236.966 120.706C236.252 118.039 233.354 108.309 232.199 103.311Z" fill="white"/>
<path opacity="0.4" d="M238.346 125.41C237.646 123.135 237.079 121.35 236.946 120.671C236.288 118.039 233.391 108.309 232.208 103.311C231.025 98.3129 229.316 95.0299 226.425 92.9299C223.534 90.8299 210.647 85.9299 210.647 85.9299L210.521 85.8809L209.268 85.9929C209.268 85.9929 203.228 86.0699 200.267 87.8479C197.306 89.6259 196.109 94.1479 195.521 93.9799C194.933 93.8119 195.324 89.4299 194.925 90.2209C194.526 91.0119 181.45 99.7339 177.096 102.1C176.522 102.415 175.968 102.766 175.438 103.15C176.221 104.361 177.586 105.18 179.714 104.886C180.881 104.697 182.02 104.371 183.109 103.913C188.009 101.113 193.126 97.7879 193.126 97.7879C193.126 97.7879 198.25 113.769 200.231 114.357C202.212 114.945 209.912 113.174 208.533 115.344C207.154 117.514 202.996 118.508 201.61 118.711C200.224 118.914 205.565 118.907 206.356 118.907C207.147 118.907 198.657 124.64 195.087 127.209C192.84 128.833 190.83 130.38 190.802 132.445C192.603 134.374 194.766 135.93 197.168 137.022C199.571 138.113 202.165 138.72 204.802 138.808C212.873 139.221 217.661 136.512 220.384 133.866C220.384 133.712 220.335 133.558 220.314 133.418C218.865 125.018 216.766 117.241 216.766 117.241L222.912 106.657L223.129 105.257C223.129 105.257 230.051 117.122 231.038 117.71C232.025 118.298 232.62 115.932 232.816 117.122C232.935 117.822 234.762 122.939 236.155 126.782C236.928 126.396 237.662 125.937 238.346 125.41Z" fill="#2855AF" fill-opacity="0.44"/>
<path d="M232.199 103.311C231.016 98.3197 229.308 95.0297 226.417 92.9297C223.526 90.8297 210.639 85.9297 210.639 85.9297C210.639 85.9297 203.016 83.0387 198.935 83.5637C194.854 84.0887 191.312 86.0627 188.547 87.6377C185.782 89.2127 177.214 95.9537 175.499 97.2627C173.784 98.5717 174.05 105.663 179.699 104.893C185.348 104.123 193.111 97.7947 193.111 97.7947L194.427 115.295C194.427 115.295 191.403 119.894 188.127 128.595L188.022 128.868C189.763 131.805 192.214 134.257 195.149 136.001C198.084 137.745 201.41 138.725 204.822 138.85C212.893 139.263 217.681 136.554 220.404 133.908C220.404 133.754 220.355 133.6 220.334 133.46C218.885 125.06 216.785 117.283 216.785 117.283L222.966 106.636C222.966 106.636 230.323 121.623 232.066 125.438C232.318 126.012 232.717 126.838 233.207 127.881C235.094 127.486 236.862 126.651 238.366 125.445C237.666 123.17 237.099 121.385 236.966 120.706C236.252 118.039 233.354 108.309 232.199 103.311Z" stroke="#2855AF" stroke-linecap="round" stroke-linejoin="round"/>
<path d="M215.932 116.799C215.932 116.799 211.627 122.021 201.477 124.177" stroke="#2855AF" stroke-linecap="round" stroke-linejoin="round"/>
<path d="M211.2 117.289C211.2 117.289 206.433 119.592 197.977 120.824" stroke="#2855AF" stroke-linecap="round" stroke-linejoin="round"/>
<path d="M205.164 90.3809C205.164 90.3809 203.764 96.5269 207.166 101.448" stroke="#2855AF" stroke-linecap="round" stroke-linejoin="round"/>
<path d="M219.311 92.2227C219.311 92.2227 219.927 95.0226 217.617 98.6836" stroke="#2855AF" stroke-linecap="round" stroke-linejoin="round"/>
<path d="M226.231 102.527L222.969 106.601L228.695 102.373" stroke="#2855AF" stroke-linecap="round" stroke-linejoin="round"/>
<path d="M186.153 96.0799L184.599 102.1C183.92 102.854 183.029 103.383 182.042 103.618C181.056 103.853 180.021 103.783 179.076 103.416C175.527 102.233 175.527 99.3419 176.444 97.7669C177.361 96.1919 181.967 93.6859 181.967 93.6859C181.967 93.6859 187.336 92.1389 186.153 96.0799Z" fill="white" stroke="#2855AF" stroke-linecap="round" stroke-linejoin="round"/>
<path d="M190.103 89.4994L188.101 93.6994C187.428 94.9516 186.297 95.8948 184.944 96.3314C184.944 96.3314 184.818 100.146 182.844 100.405C180.87 100.664 179.421 99.2224 180.212 95.4074C180.471 93.9818 181.126 92.658 182.103 91.5882C183.08 90.5183 184.339 89.7458 185.735 89.3594C187.183 89.0713 188.677 89.1192 190.103 89.4994V89.4994Z" fill="white" stroke="#2855AF" stroke-linecap="round" stroke-linejoin="round"/>
<path d="M207.938 79.832C207.938 79.832 207.672 85.481 207.546 89.429C207.42 93.377 210.696 98.368 214.378 96.268C218.061 94.168 219.012 83.304 219.012 83.304C219.012 83.304 218.061 85.355 213.853 82.604C209.646 79.853 207.938 79.832 207.938 79.832Z" fill="white" stroke="#2855AF" stroke-linecap="round" stroke-linejoin="round"/>
<path d="M178.664 96.3455C178.664 96.3455 177.215 98.0534 178.664 99.5024C180.113 100.951 180.897 100.685 180.631 99.2365C180.365 97.7875 180.372 97.0035 180.631 96.4785C180.89 95.9535 179.322 95.2955 178.664 96.3455Z" fill="white" stroke="#2855AF" stroke-linecap="round" stroke-linejoin="round"/>
<path d="M178.921 92.7969C178.417 93.5896 178.103 94.4879 178.004 95.4219C178.004 96.6119 181.553 98.8449 182.47 98.3199C183.387 97.7949 182.736 96.8709 181.686 95.5549C180.636 94.2389 179.579 92.7969 178.921 92.7969Z" fill="white" stroke="#2855AF" stroke-linecap="round" stroke-linejoin="round"/>
<path d="M179.979 88.7227C179.979 88.7227 177.48 91.4807 177.879 92.6637C178.278 93.8467 181.561 97.2627 182.744 96.8637C183.927 96.4647 182.219 94.2317 181.827 92.7897C181.435 91.3477 180.763 88.8487 179.979 88.7227Z" fill="white" stroke="#2855AF" stroke-linecap="round" stroke-linejoin="round"/>
<path d="M184.843 81.8826L181.945 92.1377L182.47 95.4207L184.843 92.9286L187.993 83.1986C187.993 83.1986 187.867 81.7496 186.81 81.4906C186.473 81.4227 186.125 81.4224 185.788 81.4897C185.45 81.557 185.129 81.6905 184.843 81.8826Z" fill="white" stroke="#2855AF" stroke-linecap="round" stroke-linejoin="round"/>
<path d="M186.812 81.4906C186.475 81.4227 186.127 81.4224 185.789 81.4897C185.452 81.557 185.131 81.6905 184.845 81.8826L184.285 83.8497C184.851 83.7141 185.442 83.7219 186.004 83.8722C186.566 84.0226 187.082 84.3107 187.505 84.7107L187.995 83.1987C187.995 83.1987 187.869 81.7496 186.812 81.4906Z" fill="#2855AF" stroke="#2855AF" stroke-linecap="round" stroke-linejoin="round"/>
<path d="M182.5 95.4218L184.502 93.3218C183.787 92.8298 182.924 92.5998 182.059 92.6708L182.5 95.4218Z" fill="#2855AF" stroke="#2855AF" stroke-linecap="round" stroke-linejoin="round"/>
<path d="M189.837 85.6977C189.837 85.6977 185.105 88.3227 184.937 89.6387C184.769 90.9547 185.994 91.4797 187.835 90.9547C188.593 90.8091 189.302 90.4768 189.898 89.9878C190.495 89.4989 190.96 88.8688 191.251 88.1547C192.077 86.6147 190.628 85.4317 189.837 85.6977Z" fill="white" stroke="#2855AF" stroke-linecap="round" stroke-linejoin="round"/>
<path d="M183.656 90.8222C183.656 90.8222 183.264 86.4822 182.739 85.0402C182.214 83.5982 179.848 84.9072 179.848 86.4822C179.848 88.0572 180.107 92.0052 181.948 92.1382C183.789 92.2712 183.656 90.8222 183.656 90.8222Z" fill="white" stroke="#2855AF" stroke-linecap="round" stroke-linejoin="round"/>
<path d="M215.528 57.2155C215.528 57.2155 207.065 58.7695 203.453 62.5845C199.841 66.3995 201.178 74.0504 200.457 77.4524C199.736 80.8544 198.084 82.4084 197.048 82.4084C196.012 82.4084 196.635 85.6074 199.939 85.8174C203.243 86.0274 203.866 85.2994 203.866 85.2994C203.866 85.2994 202.214 87.4694 201.899 87.4694C201.584 87.4694 202.725 88.2954 205 88.1694C206.093 88.1032 207.128 87.6522 207.921 86.8964C208.714 86.1405 209.214 85.1285 209.333 84.0394C209.543 81.8764 208.304 79.2934 209.746 77.3334C211.188 75.3734 217.39 73.0984 217.908 72.5805C218.426 72.0625 221.828 76.7104 220.897 79.7064C219.966 82.7024 218.419 85.5864 218.524 86.7064C218.616 87.2826 218.859 87.8241 219.228 88.2763C219.597 88.7286 220.078 89.0756 220.624 89.2824C221.66 89.6954 222.584 89.9824 222.584 89.9824C222.584 89.9824 221.66 88.1204 222.486 86.9864C223.312 85.8524 226.098 86.5734 226.686 83.7874C227.061 82.0925 227.165 80.3489 226.994 78.6215C227.607 79.1821 228.354 79.5751 229.164 79.7624C229.812 79.8112 230.459 79.6675 231.026 79.3494L229.57 78.2994C230.598 78.0574 231.576 77.6381 232.461 77.0604C232.888 76.7496 233.212 76.3181 233.392 75.8215C233.392 75.8215 230.809 75.2055 229.57 70.7675C228.331 66.3295 228.639 62.8155 224.824 59.7145C221.009 56.6135 217.18 56.0815 215.528 57.2155Z" fill="#2855AF" stroke="#2855AF" stroke-linecap="round" stroke-linejoin="round"/>
<path d="M218.325 60.9961C218.535 62.2185 218.6 63.4613 218.521 64.6991C218.325 66.0991 212.48 70.9361 207.412 72.1051C202.344 73.2741 203.121 80.8761 203.121 80.8761" stroke="white" stroke-linecap="round" stroke-linejoin="round"/>
<path d="M216.799 60.6035C216.799 60.6035 216.603 62.9485 210.177 64.5025C203.751 66.0565 201.777 67.8205 201.777 72.3005" stroke="white" stroke-linecap="round" stroke-linejoin="round"/>
<path d="M219.888 63.9219C219.888 63.9219 218.327 68.5979 223.591 72.8889C228.855 77.1799 231.186 76.7809 231.186 76.7809" stroke="white" stroke-linecap="round" stroke-linejoin="round"/>
<path d="M219.143 67.8555C218.308 69.305 217.044 70.4594 215.524 71.1595C212.843 72.4965 209.126 73.9595 208.713 74.6595C208.481 75.0451 208.307 75.4625 208.195 75.8985C208.195 75.8985 207.579 73.0985 206.13 74.6595C204.681 76.2205 204.786 78.9995 205.822 80.1335C206.858 81.2675 207.579 81.1625 207.579 81.1625C207.823 82.8682 208.384 84.5133 209.231 86.0135C210.47 87.8755 213.774 90.3535 214.831 90.1435C215.888 89.9335 221.026 86.4265 221.957 84.3615C222.888 82.2965 223.714 78.4815 224.225 77.3615C224.538 76.6724 224.748 75.9413 224.848 75.1915C224.848 75.1915 219.451 69.7105 219.143 67.8555Z" fill="white" stroke="#2855AF" stroke-linecap="round" stroke-linejoin="round"/>
<path d="M218.731 77.9707C218.526 78.6039 218.419 79.265 218.416 79.9307C218.521 80.5537 218.731 81.5827 217.387 81.2747L216.043 80.9667" stroke="#2855AF" stroke-linecap="round" stroke-linejoin="round"/>
<path d="M213.047 82.3105C213.504 82.8791 214.088 83.3332 214.751 83.637C215.415 83.9408 216.14 84.0858 216.869 84.0606" stroke="#2855AF" stroke-linecap="round" stroke-linejoin="round"/>
<path d="M217.178 74.3592C216.775 73.7683 216.21 73.3074 215.55 73.0327C214.89 72.758 214.164 72.6813 213.461 72.8122" stroke="#2855AF" stroke-linecap="round" stroke-linejoin="round"/>
<path d="M219.656 74.9736C219.656 74.9736 222.134 74.1476 222.862 76.0096" stroke="#2855AF" stroke-linecap="round" stroke-linejoin="round"/>
<path d="M214.902 76.634C214.853 77.229 214.51 77.691 214.139 77.656C213.768 77.621 213.516 77.117 213.565 76.522C213.614 75.927 213.999 75.5 214.328 75.5C214.657 75.5 214.958 76.039 214.902 76.634Z" fill="#2855AF"/>
<path d="M220.3 78.0817C220.251 78.6767 219.908 79.1317 219.537 79.1037C219.166 79.0757 218.914 78.5577 218.963 77.9627C219.012 77.3677 219.362 76.9127 219.726 76.9407C220.09 76.9687 220.3 77.4797 220.3 78.0817Z" fill="#2855AF"/>
<path d="M55.2634 59.854C55.1119 59.8646 54.9599 59.8646 54.8084 59.854C54.2195 59.7934 53.6538 59.5919 53.1591 59.2666C52.6645 58.9413 52.2554 58.5017 51.9664 57.985C51.8455 57.7848 51.7713 57.5598 51.7494 57.327C49.5864 58.727 48.2494 59.273 47.1014 59.049C46.7913 58.9884 46.4978 58.8621 46.2406 58.6786C45.9834 58.495 45.7685 58.2585 45.6104 57.985C45.422 57.7225 45.3092 57.4133 45.2846 57.0911C45.2599 56.7689 45.3241 56.4461 45.4704 56.158L41.2284 58.608C41.0348 58.7217 40.8206 58.7959 40.5981 58.8262C40.3757 58.8564 40.1494 58.8421 39.9325 58.7841C39.7157 58.7262 39.5124 58.6257 39.3347 58.4885C39.157 58.3513 39.0084 58.1801 38.8974 57.985C38.3514 57.04 38.5754 56.116 39.3734 55.094C38.8064 55.514 38.2114 55.955 37.5884 56.403C36.9654 56.851 36.3074 57.327 35.9784 57.593L35.7894 57.803C35.6105 58.0056 35.3859 58.1627 35.1342 58.2612C34.8825 58.3597 34.6109 58.3968 34.342 58.3695C34.0731 58.3421 33.8145 58.251 33.5878 58.1038C33.3611 57.9566 33.1728 57.7575 33.0384 57.523C32.8021 57.189 32.7071 56.7753 32.7739 56.3716C32.8407 55.968 33.064 55.607 33.3954 55.367L33.9204 54.793C33.5759 54.6563 33.2857 54.4104 33.0944 54.093L33.0384 54.002C32.2754 52.679 32.8984 51.307 33.5634 50.194C33.3507 50.0466 33.1718 49.8557 33.0384 49.634C32.8124 49.2421 32.7511 48.7766 32.8679 48.3396C32.9847 47.9026 33.27 47.5298 33.6614 47.303C33.7981 47.2215 33.947 47.1624 34.1024 47.128C34.3544 46.981 34.8024 46.673 35.2574 46.386C35.4523 46.2544 35.6721 46.1642 35.9033 46.1208C36.1344 46.0775 36.372 46.082 36.6014 46.134C36.8296 46.1865 37.0445 46.2857 37.2325 46.4255C37.4205 46.5652 37.5774 46.7425 37.6934 46.946C37.8888 47.2867 38.0104 47.6647 38.0502 48.0554C38.09 48.4461 38.0471 48.8409 37.9244 49.214L42.9364 46.316C43.3136 46.0995 43.759 46.0344 44.1824 46.134C45.4467 45.3635 46.9019 44.9633 48.3824 44.979C49.0043 45.0344 49.6031 45.2423 50.1256 45.5841C50.6481 45.926 51.0784 46.3913 51.3784 46.939C51.5482 47.2056 51.6487 47.5106 51.6707 47.826C51.6927 48.1414 51.6356 48.4573 51.5044 48.745L55.7044 46.316C56.0106 46.1448 56.362 46.0721 56.7109 46.1077C57.0599 46.1433 57.3894 46.2854 57.6547 46.5148C57.9201 46.7442 58.1083 47.0498 58.194 47.3899C58.2796 47.73 58.2585 48.0883 58.1334 48.416C60.9334 46.379 62.2634 45.721 63.4044 45.952C63.6837 46.007 63.9481 46.1211 64.1798 46.2865C64.4116 46.4518 64.6054 46.6647 64.7484 46.911C65.0564 47.45 65.7284 48.612 63.9224 50.957C65.4554 49.557 66.9954 48.08 68.3744 46.603C68.5561 46.4073 68.7814 46.2572 69.0319 46.1648C69.2824 46.0724 69.5511 46.0402 69.8164 46.071C70.0814 46.0989 70.3359 46.1896 70.5587 46.3357C70.7815 46.4818 70.9662 46.6791 71.0974 46.911C71.8534 48.22 71.3494 48.899 67.0164 53.064C69.9101 51.0404 72.68 48.8455 75.3114 46.491C75.4995 46.3225 75.7227 46.1981 75.9648 46.1267C76.207 46.0552 76.462 46.0386 76.7114 46.078C76.9619 46.117 77.2004 46.2121 77.4089 46.3564C77.6174 46.5007 77.7906 46.6903 77.9154 46.911C78.0781 47.138 78.177 47.4046 78.2016 47.6828C78.2262 47.9611 78.1757 48.2409 78.0554 48.493L81.8774 46.288C82.2446 46.0728 82.6792 46.0032 83.0953 46.0928C83.5114 46.1824 83.8788 46.4247 84.1249 46.772C84.3711 47.1192 84.4781 47.5461 84.4249 47.9684C84.3716 48.3907 84.162 48.7777 83.8374 49.053C81.8704 50.74 79.7354 52.672 78.0694 54.275C78.8184 53.813 79.7144 53.225 80.7854 52.476C82.8854 50.089 86.3364 47.814 88.8984 46.295C89.0713 46.1736 89.2694 46.0929 89.4779 46.0589C89.6864 46.025 89.8999 46.0387 90.1024 46.099C90.4425 46.16 90.756 46.3232 91.001 46.5668C91.2461 46.8104 91.4112 47.1229 91.4743 47.4627C91.5374 47.8024 91.4955 48.1533 91.3542 48.4687C91.2129 48.784 90.9789 49.0489 90.6834 49.228L89.8994 49.851C87.2534 51.951 84.9994 53.722 83.0394 55.094C82.8105 55.3468 82.6066 55.621 82.4304 55.913C84.5304 55.213 89.2554 51.321 91.4044 49.55C95.0794 46.533 95.9894 45.826 97.1584 46.05C97.4197 46.097 97.6678 46.2002 97.8853 46.3525C98.1029 46.5048 98.2847 46.7025 98.4184 46.932C98.7489 47.4731 98.9188 48.097 98.9084 48.731L103.108 46.309C103.437 46.1211 103.818 46.0475 104.193 46.0998C104.568 46.1522 104.914 46.3275 105.179 46.5982C105.443 46.869 105.61 47.2198 105.653 47.5957C105.697 47.9715 105.614 48.3512 105.418 48.675L109.513 46.309C109.767 46.1636 110.054 46.0859 110.346 46.0831C110.639 46.0803 110.927 46.1527 111.183 46.2931C111.44 46.4336 111.656 46.6376 111.811 46.8855C111.966 47.1334 112.054 47.4169 112.068 47.709C114.511 46.204 115.764 45.77 116.779 45.994C117.109 46.0647 117.416 46.2136 117.675 46.428C119.418 45.441 121.105 44.846 122.519 45.028C123.1 45.0783 123.66 45.2617 124.158 45.564C124.656 45.8663 125.077 46.2793 125.389 46.771C126.957 45.763 128.287 45.287 129.505 45.483C129.959 45.5549 130.39 45.729 130.766 45.9922C131.142 46.2554 131.453 46.6007 131.675 47.002C132.48 48.402 132.004 49.949 129.869 52.161C131.991 50.4443 134.013 48.6073 135.924 46.659C136.103 46.4735 136.323 46.332 136.566 46.2458C136.809 46.1595 137.068 46.1308 137.324 46.162C137.585 46.1939 137.834 46.2857 138.052 46.4303C138.271 46.5748 138.453 46.7681 138.584 46.995C139.025 47.7643 139.164 48.6696 138.976 49.536C140.432 48.535 141.902 47.492 143.295 46.477C143.487 46.3137 143.713 46.1951 143.956 46.1297C144.2 46.0643 144.454 46.0538 144.702 46.099C144.936 46.1475 145.156 46.2449 145.349 46.3849C145.542 46.5248 145.704 46.7042 145.822 46.911C146.096 47.3789 146.245 47.909 146.256 48.451L150.008 46.288C150.401 46.0626 150.866 46.0022 151.303 46.12C151.519 46.1766 151.721 46.2758 151.898 46.4116C152.074 46.5474 152.222 46.7172 152.332 46.911C152.487 47.1473 152.586 47.4158 152.621 47.696C152.656 47.9762 152.627 48.2608 152.535 48.528L156.413 46.288C156.806 46.0639 157.27 46.0036 157.707 46.1202C158.143 46.2369 158.516 46.521 158.744 46.911C158.997 47.3134 159.122 47.7826 159.103 48.2572C159.084 48.7318 158.923 49.1897 158.639 49.571C159.864 48.598 161.11 47.555 162.335 46.484C162.507 46.3311 162.709 46.2148 162.927 46.1423C163.145 46.0698 163.376 46.0426 163.606 46.0622C163.835 46.0819 164.058 46.148 164.26 46.2566C164.463 46.3653 164.642 46.5141 164.785 46.694C166.227 45.595 167.585 44.965 168.922 45.119C169.438 45.1808 169.931 45.3633 170.363 45.6515C170.795 45.9397 171.153 46.3257 171.407 46.778C172.884 45.672 174.27 45.042 175.607 45.203C176.123 45.2703 176.614 45.4607 177.041 45.7579C177.467 46.0552 177.816 46.4507 178.057 46.911C178.232 47.2115 178.31 47.5585 178.281 47.905C180.731 46.281 182.194 45.651 183.342 45.889C183.635 45.9499 183.911 46.0725 184.153 46.2488C184.394 46.425 184.595 46.6508 184.742 46.911C185.115 47.5281 185.247 48.2607 185.113 48.969L189.768 46.281C189.962 46.1692 190.175 46.0967 190.397 46.0676C190.619 46.0384 190.844 46.0532 191.059 46.111C191.275 46.1689 191.478 46.2687 191.655 46.4047C191.832 46.5408 191.981 46.7104 192.092 46.904C193.352 49.088 190.811 50.593 187.892 52.336C186.492 53.155 183.426 54.989 182.866 56.025C184.903 55.689 190.916 51.482 196.383 46.498C196.57 46.3267 196.793 46.1994 197.035 46.1255C197.277 46.0516 197.533 46.0329 197.783 46.071C198.035 46.1109 198.275 46.2063 198.486 46.3504C198.697 46.4945 198.873 46.6835 199.001 46.904C199.27 47.4158 199.402 47.9885 199.383 48.5663C199.365 49.1441 199.197 49.7073 198.896 50.201C199.029 50.3501 199.146 50.5119 199.246 50.684C199.713 51.538 199.634 52.6136 199.008 53.911C199.104 54.0073 199.186 54.1155 199.253 54.233C199.366 54.4268 199.44 54.6409 199.469 54.8632C199.499 55.0855 199.485 55.3114 199.427 55.528C199.369 55.7447 199.269 55.9477 199.132 56.1255C198.995 56.3033 198.825 56.4523 198.63 56.564L195.13 58.594C194.788 58.7953 194.387 58.8708 193.995 58.8073C193.603 58.7438 193.246 58.5453 192.985 58.2463C192.725 57.9472 192.576 57.5664 192.567 57.1697C192.557 56.773 192.686 56.3854 192.932 56.074C191.567 57.033 190.174 57.894 188.97 58.594C188.615 58.8002 188.197 58.8712 187.793 58.7941C187.389 58.7169 187.027 58.4967 186.772 58.174L186.688 58.055C184.854 59.021 183.188 59.588 181.963 59.399C181.531 59.3386 181.117 59.1813 180.753 58.9389C180.39 58.6965 180.086 58.3752 179.863 57.999C179.546 57.4799 179.375 56.8851 179.366 56.277L175.299 58.629C175.106 58.7407 174.892 58.8132 174.671 58.8424C174.449 58.8715 174.224 58.8568 174.008 58.7989C173.793 58.7411 173.59 58.6413 173.413 58.5052C173.236 58.3691 173.087 58.1995 172.975 58.006C172.667 57.4857 172.511 56.8887 172.527 56.284C169.286 58.594 168.075 59.182 166.927 58.944C166.656 58.8888 166.4 58.7766 166.176 58.6149C165.951 58.4532 165.764 58.2456 165.625 58.006C165.496 57.7871 165.397 57.5516 165.331 57.306C163.616 58.804 162.272 59.553 160.935 59.406C160.512 59.3488 160.107 59.1922 159.756 58.9489C159.404 58.7055 159.115 58.3824 158.912 58.006C158.817 57.841 158.751 57.6611 158.716 57.474C157.12 58.874 155.79 59.616 154.481 59.462C154.046 59.4093 153.629 59.2552 153.265 59.012C152.9 58.7688 152.597 58.4434 152.381 58.062C150.568 59 148.944 59.539 147.775 59.35C147.364 59.2907 146.971 59.1389 146.627 58.9062C146.283 58.6734 145.996 58.3656 145.787 58.006C145.533 57.5826 145.396 57.0996 145.388 56.606L141.888 58.601C141.695 58.7136 141.481 58.7869 141.26 58.8166C141.038 58.8462 140.813 58.8317 140.597 58.7737C140.38 58.7158 140.178 58.6157 140.001 58.4791C139.824 58.3425 139.675 58.1722 139.564 57.978C139.278 57.5089 139.178 56.9493 139.284 56.41L138.549 56.837C137.149 57.719 135.945 58.363 135.427 58.636C135.03 58.8425 134.568 58.8849 134.14 58.754C133.712 58.6231 133.352 58.3293 133.138 57.936C133.036 57.7469 132.969 57.5404 132.942 57.327C130.567 58.601 128.934 59.1446 128.042 58.958C127.6 58.87 127.197 58.6417 126.894 58.307C125.109 59.28 123.394 59.854 122.071 59.707C121.533 59.6466 121.016 59.4598 120.564 59.1618C120.111 58.8637 119.736 58.4629 119.467 57.992C118.683 56.641 119.838 55.808 120.762 55.143C125.263 51.895 127.209 50.075 128.042 49.081C126.264 50.012 123.142 52.84 121.462 54.338C117.696 57.726 115.82 59.35 114.098 59.07C113.772 59.0217 113.461 58.8995 113.189 58.7127C112.918 58.5258 112.692 58.2793 112.53 57.992C112.279 57.5618 112.118 57.0846 112.057 56.5897C111.997 56.0949 112.039 55.593 112.18 55.115C111.774 55.514 111.368 55.92 110.969 56.326L109.1 58.307C108.794 58.6393 108.368 58.8363 107.917 58.8547C107.465 58.8731 107.025 58.7113 106.692 58.405C106.36 58.0986 106.163 57.6729 106.145 57.2213C106.126 56.7697 106.288 56.3293 106.594 55.997C106.867 55.696 107.294 55.206 107.903 54.597L107.728 54.723C102.373 58.475 101.323 59.119 100.154 58.86C99.9077 58.8078 99.6749 58.7041 99.471 58.5557C99.2672 58.4073 99.0969 58.2176 98.9714 57.999C98.8354 57.7474 98.7641 57.4659 98.7641 57.18C98.7641 56.894 98.8354 56.6125 98.9714 56.361L95.0514 58.622C94.8581 58.7346 94.6445 58.8079 94.4227 58.8376C94.201 58.8672 93.9756 58.8527 93.7596 58.7947C93.5435 58.7368 93.341 58.6367 93.1639 58.5001C92.9867 58.3635 92.8384 58.1932 92.7274 57.999C92.569 57.7739 92.4618 57.5169 92.4134 57.246C92.3651 56.9751 92.3766 56.6969 92.4474 56.431L88.6464 58.622C88.4531 58.7346 88.2395 58.8079 88.0178 58.8376C87.796 58.8672 87.5706 58.8527 87.3546 58.7947C87.1385 58.7368 86.936 58.6367 86.7589 58.5001C86.5817 58.3635 86.4334 58.1932 86.3224 57.999C86.2806 57.9375 86.2454 57.8718 86.2174 57.803C84.2504 59.014 82.6124 59.623 81.3174 59.385C80.9033 59.3151 80.5103 59.153 80.1674 58.9106C79.8245 58.6683 79.5405 58.3519 79.3364 57.985C79.2734 57.8742 79.2173 57.7596 79.1684 57.642C76.8234 58.972 75.1784 59.455 74.0024 59.238C73.6274 59.173 73.2711 59.0273 72.958 58.811C72.645 58.5946 72.3827 58.3128 72.1894 57.985C71.8954 57.467 71.6154 56.977 72.2594 55.85L67.4854 58.608C67.1301 58.8108 66.714 58.8799 66.3123 58.8029C65.9105 58.7259 65.5495 58.5078 65.2944 58.188C63.5794 59.056 62.0394 59.539 60.9054 59.357C60.3364 59.2802 59.803 59.0367 59.3724 58.657C58.1174 59.377 56.7087 59.7873 55.2634 59.854V59.854ZM45.3094 49.354C45.067 49.8608 44.7561 50.3319 44.3854 50.754V50.754C45.2814 50.054 46.4854 49.158 47.3114 48.43C46.6043 48.6365 45.9285 48.9379 45.3024 49.326L45.3094 49.354ZM35.7964 47.646C35.8671 47.7239 35.9303 47.8083 35.9854 47.898C35.9323 47.7961 35.8689 47.7 35.7964 47.611V47.646Z" fill="#7CCCDB"/>
<path d="M43.0396 168.383H42.8086C42.5173 168.347 42.2386 168.243 41.9953 168.078C41.752 167.914 41.551 167.695 41.4086 167.438C41.3487 167.337 41.3106 167.225 41.2966 167.109C40.2116 167.809 39.5256 168.089 38.9586 167.977C38.8031 167.947 38.6558 167.884 38.5267 167.792C38.3975 167.7 38.2894 167.582 38.2096 167.445C38.1134 167.313 38.0558 167.156 38.0435 166.993C38.0311 166.83 38.0644 166.666 38.1396 166.521L35.9976 167.753C35.9006 167.811 35.7931 167.849 35.6813 167.864C35.5695 167.88 35.4557 167.873 35.3466 167.844C35.1289 167.783 34.9432 167.64 34.8286 167.445C34.7006 167.209 34.6546 166.938 34.6976 166.673C34.7407 166.408 34.8705 166.165 35.0666 165.982L34.1636 166.647C33.8626 166.864 33.5196 167.109 33.3586 167.242L33.2606 167.347C33.1742 167.446 33.0659 167.523 32.9444 167.573C32.8229 167.623 32.6916 167.644 32.5606 167.634C32.4253 167.619 32.2953 167.573 32.1811 167.498C32.0668 167.424 31.9715 167.325 31.9026 167.207C31.8432 167.124 31.8008 167.03 31.7778 166.93C31.7548 166.831 31.7516 166.728 31.7685 166.627C31.7854 166.526 31.822 166.43 31.8763 166.343C31.9305 166.256 32.0013 166.181 32.0846 166.122L32.3436 165.835C32.1712 165.76 32.0267 165.633 31.9306 165.471V165.422C31.794 165.109 31.7466 164.764 31.7935 164.426C31.8404 164.087 31.9799 163.768 32.1966 163.504C32.086 163.434 31.9945 163.338 31.9306 163.224C31.8165 163.026 31.7855 162.791 31.8446 162.571C31.9037 162.35 32.0479 162.162 32.2456 162.048C32.3139 162.009 32.3868 161.978 32.4626 161.957C32.5886 161.887 32.8336 161.733 33.0506 161.586C33.1512 161.516 33.2659 161.468 33.3867 161.446C33.5076 161.424 33.6318 161.429 33.7506 161.46C33.8652 161.487 33.9732 161.537 34.0682 161.607C34.1632 161.677 34.2432 161.765 34.3036 161.866C34.4028 162.038 34.464 162.23 34.4833 162.428C34.5026 162.626 34.4796 162.826 34.4156 163.014L36.9426 161.551C37.1344 161.445 37.3585 161.412 37.5726 161.46C38.2044 161.074 38.932 160.872 39.6726 160.879C39.9868 160.905 40.2896 161.009 40.5536 161.181C40.8176 161.353 41.0344 161.589 41.1846 161.866C41.2711 162 41.3222 162.154 41.3332 162.313C41.3442 162.472 41.3148 162.631 41.2476 162.776L43.3476 161.551C43.5363 161.443 43.7587 161.411 43.9703 161.46C44.1819 161.509 44.3671 161.637 44.4886 161.817C44.5687 161.934 44.6179 162.069 44.6313 162.21C44.6448 162.35 44.6222 162.492 44.5656 162.622C45.9656 161.6 46.6656 161.264 47.2256 161.383C47.3706 161.407 47.5085 161.463 47.6295 161.547C47.7504 161.63 47.8515 161.739 47.9256 161.866C48.0866 162.139 48.4226 162.72 47.5126 163.903C48.2896 163.203 49.0596 162.454 49.7596 161.712C49.8477 161.616 49.9566 161.542 50.078 161.494C50.1993 161.447 50.3298 161.428 50.4596 161.439C50.5937 161.455 50.7223 161.502 50.8352 161.576C50.9482 161.65 51.0424 161.749 51.1106 161.866C51.4886 162.524 51.2296 162.867 49.0526 164.967C50.5152 163.945 51.9175 162.84 53.2526 161.656C53.3459 161.571 53.4574 161.507 53.5786 161.471C53.6998 161.435 53.8276 161.426 53.9526 161.446C54.0779 161.467 54.1969 161.515 54.301 161.588C54.4052 161.661 54.4918 161.756 54.5546 161.866C54.6363 161.981 54.6858 162.115 54.6981 162.256C54.7104 162.396 54.685 162.537 54.6246 162.664L56.5496 161.551C56.7356 161.445 56.9542 161.411 57.1636 161.456C57.3729 161.502 57.5581 161.623 57.6836 161.796C57.8077 161.971 57.8615 162.186 57.8342 162.399C57.807 162.611 57.7007 162.806 57.5366 162.944C56.5496 163.798 55.4716 164.764 54.6316 165.576C55.0096 165.345 55.4576 165.044 56.0316 164.666C57.2409 163.445 58.6145 162.399 60.1126 161.558C60.1962 161.497 60.2924 161.455 60.394 161.436C60.4957 161.417 60.6004 161.42 60.7006 161.446C60.8723 161.477 61.0303 161.56 61.1539 161.683C61.2775 161.806 61.3607 161.964 61.3926 162.136C61.4245 162.307 61.4035 162.485 61.3324 162.644C61.2614 162.803 61.1435 162.937 60.9946 163.028C60.9246 163.077 60.7916 163.189 60.6026 163.343C59.2656 164.414 58.1246 165.289 57.1446 165.982C57.0302 166.111 56.9271 166.249 56.8366 166.395C57.8796 166.045 60.2736 164.078 61.3586 163.189C63.2066 161.67 63.6686 161.313 64.2566 161.418C64.3888 161.442 64.5142 161.495 64.6242 161.572C64.7342 161.65 64.8261 161.75 64.8936 161.866C65.057 162.139 65.1418 162.451 65.1386 162.769L67.2386 161.551C67.4283 161.44 67.6535 161.407 67.8673 161.457C68.0812 161.508 68.2671 161.64 68.3866 161.824C68.4722 161.962 68.5176 162.121 68.5176 162.283C68.5176 162.445 68.4722 162.603 68.3866 162.741L70.4516 161.551C70.6327 161.445 70.8469 161.409 71.0526 161.452C71.2583 161.495 71.4408 161.612 71.5646 161.782C71.6669 161.912 71.7256 162.072 71.7326 162.237C72.9646 161.474 73.5946 161.257 74.1126 161.376C74.2774 161.411 74.4313 161.485 74.5606 161.593C75.289 161.126 76.1383 160.882 77.0036 160.893C77.2955 160.92 77.5774 161.013 77.8274 161.166C78.0775 161.319 78.289 161.527 78.4456 161.775C79.0401 161.304 79.789 161.072 80.5456 161.124C80.7742 161.161 80.9916 161.249 81.1819 161.381C81.3721 161.513 81.5302 161.686 81.6446 161.887C82.0436 162.587 81.8056 163.371 80.7346 164.491C81.8005 163.615 82.8171 162.68 83.7796 161.691C83.8694 161.599 83.9791 161.528 84.1005 161.484C84.2218 161.44 84.3514 161.425 84.4796 161.439C84.6109 161.455 84.7367 161.502 84.8472 161.575C84.9576 161.647 85.0498 161.745 85.1166 161.859C85.3388 162.247 85.4087 162.704 85.3126 163.14C86.0476 162.636 86.7896 162.111 87.4896 161.6C87.5879 161.525 87.7016 161.472 87.8225 161.445C87.9435 161.419 88.0688 161.419 88.1896 161.446C88.3073 161.472 88.4184 161.523 88.5159 161.594C88.6134 161.665 88.6954 161.755 88.7566 161.859C88.894 162.095 88.9687 162.363 88.9736 162.636L90.8636 161.544C91.0617 161.432 91.2961 161.402 91.5161 161.461C91.7361 161.52 91.9241 161.663 92.0396 161.859C92.1157 161.978 92.164 162.113 92.181 162.254C92.198 162.394 92.1831 162.537 92.1376 162.671L94.0906 161.544C94.2883 161.43 94.5233 161.399 94.7438 161.458C94.9644 161.517 95.1524 161.661 95.2666 161.859C95.3943 162.061 95.4573 162.297 95.4473 162.536C95.4373 162.775 95.3547 163.005 95.2106 163.196C95.8266 162.706 96.4566 162.188 97.0726 161.642C97.1676 161.56 97.2794 161.499 97.4003 161.464C97.5211 161.428 97.6482 161.42 97.7726 161.439C97.9811 161.475 98.1699 161.584 98.3046 161.747C98.8741 161.219 99.6281 160.935 100.405 160.956C100.664 160.987 100.913 161.078 101.13 161.223C101.348 161.368 101.529 161.562 101.658 161.789C102.232 161.269 102.983 160.986 103.758 160.998C104.017 161.032 104.264 161.128 104.479 161.278C104.693 161.428 104.868 161.627 104.99 161.859C105.078 162.011 105.118 162.188 105.102 162.363C106.334 161.537 107.076 161.222 107.65 161.341C107.795 161.375 107.933 161.439 108.053 161.528C108.173 161.617 108.274 161.73 108.35 161.859C108.537 162.17 108.601 162.539 108.532 162.895L110.877 161.544C110.974 161.486 111.081 161.448 111.193 161.433C111.305 161.417 111.418 161.424 111.528 161.453C111.749 161.514 111.938 161.66 112.053 161.859C112.683 162.951 111.402 163.714 109.953 164.589C109.253 165.002 107.699 165.926 107.419 166.451C108.448 166.283 111.472 164.162 114.23 161.649C114.325 161.563 114.438 161.499 114.562 161.463C114.685 161.426 114.814 161.418 114.941 161.438C115.068 161.458 115.189 161.506 115.295 161.579C115.4 161.652 115.489 161.748 115.553 161.859C115.688 162.115 115.754 162.403 115.744 162.692C115.734 162.982 115.649 163.264 115.497 163.511C115.563 163.589 115.621 163.674 115.672 163.763C115.794 164.021 115.847 164.306 115.826 164.591C115.805 164.875 115.711 165.15 115.553 165.387C115.602 165.434 115.645 165.489 115.679 165.548C115.793 165.746 115.824 165.981 115.765 166.201C115.706 166.422 115.561 166.61 115.364 166.724L113.593 167.746C113.42 167.843 113.219 167.878 113.023 167.844C112.828 167.811 112.65 167.71 112.52 167.56C112.39 167.411 112.315 167.22 112.309 167.022C112.303 166.824 112.366 166.629 112.487 166.472C111.787 166.955 111.087 167.389 110.492 167.746C110.312 167.85 110.101 167.886 109.898 167.846C109.694 167.806 109.512 167.693 109.386 167.529C109.366 167.514 109.349 167.495 109.337 167.473C108.63 167.931 107.806 168.174 106.964 168.173C106.744 168.145 106.533 168.067 106.348 167.946C106.162 167.824 106.007 167.663 105.893 167.473C105.732 167.212 105.645 166.912 105.641 166.605L103.59 167.788C103.492 167.844 103.385 167.881 103.273 167.896C103.162 167.91 103.048 167.903 102.94 167.873C102.831 167.844 102.729 167.794 102.64 167.725C102.551 167.656 102.476 167.571 102.421 167.473C102.263 167.214 102.185 166.915 102.197 166.612C100.566 167.774 99.9566 168.068 99.3966 167.949C99.2597 167.92 99.1305 167.863 99.0172 167.781C98.9038 167.699 98.8089 167.594 98.7386 167.473C98.6779 167.364 98.6286 167.249 98.5916 167.13C97.7306 167.879 97.0516 168.257 96.3796 168.173C96.167 168.143 95.9642 168.064 95.787 167.942C95.6097 167.821 95.4628 167.66 95.3576 167.473C95.3086 167.391 95.2754 167.301 95.2596 167.207C94.4546 167.907 93.7826 168.285 93.1596 168.208C92.942 168.182 92.7336 168.105 92.5513 167.983C92.3689 167.861 92.2176 167.699 92.1096 167.508C91.4165 167.944 90.6112 168.168 89.7926 168.152C89.5837 168.119 89.3851 168.038 89.2117 167.917C89.0384 167.796 88.8947 167.637 88.7916 167.452C88.6611 167.242 88.5909 167 88.5886 166.752L86.8456 167.76C86.7485 167.817 86.6409 167.855 86.5292 167.871C86.4175 167.886 86.3037 167.88 86.1946 167.851C85.9739 167.792 85.7853 167.649 85.6696 167.452C85.5267 167.215 85.4769 166.933 85.5296 166.661L85.1586 166.871C84.4586 167.319 83.8496 167.641 83.5906 167.781C83.3915 167.886 83.159 167.909 82.9431 167.845C82.7272 167.781 82.545 167.635 82.4356 167.438C82.3794 167.344 82.3458 167.239 82.3376 167.13C81.1406 167.767 80.3146 168.04 79.8666 167.949C79.6423 167.906 79.4383 167.79 79.2856 167.62C78.5625 168.087 77.7175 168.331 76.8566 168.32C76.5848 168.288 76.3243 168.193 76.0958 168.042C75.8673 167.891 75.6772 167.689 75.5406 167.452C75.1486 166.752 75.7296 166.353 76.1916 166.017C77.5222 165.134 78.7543 164.111 79.8666 162.965C78.6808 163.742 77.57 164.628 76.5486 165.611C74.6516 167.319 73.7066 168.138 72.8386 167.998C72.6743 167.972 72.518 167.909 72.3811 167.815C72.2442 167.72 72.1303 167.596 72.0476 167.452C71.9224 167.235 71.8423 166.994 71.8122 166.745C71.7821 166.496 71.8027 166.244 71.8726 166.003C71.6696 166.206 71.4596 166.409 71.2636 166.612L70.3186 167.613C70.1645 167.78 69.9504 167.879 69.7232 167.888C69.4961 167.898 69.2747 167.816 69.1076 167.662C68.9405 167.508 68.8415 167.294 68.8323 167.067C68.8231 166.84 68.9045 166.618 69.0586 166.451C69.1986 166.297 69.4226 166.045 69.7166 165.751L69.6326 165.814C66.9306 167.704 66.4056 168.033 65.8176 167.914C65.6933 167.886 65.576 167.833 65.4726 167.758C65.3692 167.684 65.2818 167.589 65.2156 167.48C65.147 167.353 65.1111 167.211 65.1111 167.067C65.1111 166.923 65.147 166.781 65.2156 166.654L63.2416 167.795C63.0439 167.909 62.8089 167.94 62.5884 167.881C62.3678 167.822 62.1798 167.678 62.0656 167.48C61.9873 167.366 61.9343 167.236 61.9102 167.1C61.886 166.963 61.8913 166.823 61.9256 166.689L60.0146 167.795C59.9175 167.852 59.8099 167.89 59.6981 167.905C59.5864 167.92 59.4728 167.913 59.3639 167.883C59.255 167.854 59.1531 167.803 59.0641 167.734C58.9751 167.665 58.9008 167.578 58.8456 167.48C58.8243 167.449 58.8056 167.416 58.7896 167.382C58.0795 167.929 57.2006 168.211 56.3046 168.18C56.097 168.146 55.8997 168.065 55.7277 167.944C55.5556 167.822 55.413 167.664 55.3106 167.48C55.2771 167.427 55.2489 167.371 55.2266 167.312C54.0436 167.977 53.2106 168.222 52.6226 168.11C52.4331 168.081 52.2528 168.009 52.0952 167.9C51.9375 167.791 51.8067 167.647 51.7126 167.48C51.5928 167.327 51.5277 167.139 51.5277 166.945C51.5277 166.75 51.5928 166.562 51.7126 166.409L49.3046 167.809C49.1261 167.914 48.9156 167.951 48.7121 167.912C48.5086 167.873 48.3262 167.762 48.1986 167.599C47.5334 168.004 46.7652 168.208 45.9866 168.187C45.7 168.143 45.4324 168.017 45.2166 167.823C44.549 168.188 43.8006 168.381 43.0396 168.383ZM38.0206 163.077C37.8996 163.331 37.7442 163.566 37.5586 163.777V163.777C38.0066 163.434 38.6016 162.979 39.0356 162.608C38.6785 162.72 38.3374 162.878 38.0206 163.077V163.077ZM33.2326 162.251C33.2668 162.29 33.2973 162.332 33.3236 162.377C33.2984 162.321 33.268 162.267 33.2326 162.216V162.251Z" fill="#7CCCDB"/>
<path d="M48.5001 197.047C48.4233 197.054 48.3459 197.054 48.2691 197.047C47.9781 197.013 47.6994 196.91 47.456 196.747C47.2126 196.584 47.0114 196.365 46.8691 196.109C46.8093 196.008 46.7711 195.896 46.7571 195.78C45.6721 196.48 44.9861 196.76 44.4191 196.641C44.2631 196.612 44.1153 196.55 43.986 196.458C43.8566 196.366 43.7488 196.247 43.6701 196.109C43.5731 195.977 43.5151 195.82 43.5028 195.657C43.4904 195.494 43.5241 195.33 43.6001 195.185L41.4581 196.424C41.3608 196.48 41.2532 196.517 41.1417 196.532C41.0301 196.546 40.9168 196.539 40.8082 196.509C40.6995 196.48 40.5978 196.43 40.5087 196.361C40.4196 196.292 40.345 196.207 40.2891 196.109C40.1617 195.874 40.1159 195.604 40.159 195.34C40.2021 195.077 40.3316 194.835 40.5271 194.653L39.6241 195.311L38.8191 195.906L38.7211 196.018C38.63 196.121 38.5158 196.2 38.3879 196.25C38.26 196.301 38.122 196.319 37.9853 196.306C37.8487 196.292 37.7172 196.246 37.6018 196.172C37.4863 196.098 37.3901 195.997 37.3211 195.878C37.2008 195.709 37.1523 195.499 37.1865 195.294C37.2206 195.09 37.3344 194.907 37.5031 194.786L37.7621 194.499C37.5881 194.427 37.4428 194.299 37.3491 194.135V194.093C37.2117 193.78 37.1638 193.435 37.2108 193.096C37.2578 192.758 37.3977 192.439 37.6151 192.175C37.5074 192.099 37.4168 192.001 37.3491 191.888C37.2918 191.791 37.2545 191.683 37.2393 191.572C37.2242 191.46 37.2315 191.346 37.2608 191.237C37.2902 191.128 37.3409 191.026 37.4102 190.937C37.4795 190.848 37.5658 190.774 37.6641 190.719C37.7329 190.676 37.8087 190.645 37.8881 190.628C38.0141 190.558 38.2521 190.397 38.4691 190.257C38.5661 190.189 38.6763 190.142 38.7925 190.12C38.9087 190.097 39.0284 190.099 39.1438 190.125C39.2592 190.151 39.3678 190.202 39.4626 190.273C39.5574 190.344 39.6363 190.434 39.6941 190.537C39.7934 190.708 39.8553 190.898 39.8759 191.095C39.8964 191.291 39.875 191.49 39.8131 191.678L42.3331 190.222C42.5228 190.109 42.7494 190.077 42.9631 190.131C43.5945 189.743 44.322 189.539 45.0631 189.543C45.3754 189.572 45.6758 189.678 45.9381 189.85C46.2004 190.022 46.4167 190.255 46.5681 190.53C46.6546 190.664 46.7057 190.818 46.7167 190.977C46.7277 191.136 46.6983 191.295 46.6311 191.44L48.7311 190.222C48.8861 190.131 49.0658 190.091 49.2446 190.108C49.4234 190.126 49.5923 190.199 49.7273 190.317C49.8622 190.436 49.9563 190.594 49.9961 190.769C50.0359 190.944 50.0195 191.128 49.9491 191.293C51.3491 190.264 52.0491 189.935 52.6091 190.054C52.7543 190.075 52.8928 190.129 53.014 190.211C53.1353 190.294 53.2362 190.403 53.3091 190.53C53.4701 190.803 53.8061 191.391 52.8961 192.567C53.6731 191.867 54.4431 191.125 55.1431 190.376C55.2345 190.272 55.3494 190.192 55.4782 190.142C55.6069 190.093 55.7458 190.074 55.8831 190.09C56.0204 190.105 56.152 190.153 56.2669 190.229C56.3818 190.306 56.4765 190.409 56.5431 190.53C56.9211 191.195 56.6691 191.531 54.4851 193.631C55.9494 192.611 57.3518 191.506 58.6851 190.32C58.7792 190.234 58.8915 190.171 59.0136 190.134C59.1357 190.098 59.2645 190.089 59.3903 190.109C59.5161 190.13 59.6357 190.178 59.7403 190.251C59.8448 190.323 59.9316 190.419 59.9941 190.53C60.0758 190.645 60.1253 190.779 60.1376 190.92C60.1499 191.06 60.1245 191.201 60.0641 191.328L61.9891 190.215C62.1759 190.109 62.3951 190.077 62.6045 190.123C62.8139 190.17 62.9987 190.292 63.1231 190.467C63.2457 190.642 63.2985 190.857 63.2713 191.069C63.2441 191.282 63.1389 191.476 62.9761 191.615C61.9891 192.462 60.8761 193.435 60.0711 194.24C60.4491 194.009 60.9041 193.715 61.4711 193.337C62.6784 192.112 64.0522 191.063 65.5521 190.222V190.222C65.6363 190.162 65.7327 190.122 65.8344 190.104C65.936 190.086 66.0404 190.09 66.1401 190.117C66.3122 190.146 66.4711 190.228 66.5955 190.35C66.7199 190.473 66.8037 190.631 66.8358 190.802C66.8678 190.974 66.8465 191.151 66.7747 191.31C66.7028 191.469 66.584 191.603 66.4341 191.692L66.0421 192.007C64.7051 193.078 63.5641 193.953 62.5841 194.646C62.4697 194.775 62.3666 194.913 62.2761 195.059C63.3191 194.716 65.7131 192.749 66.7981 191.853C68.6461 190.334 69.1081 189.977 69.6961 190.089C69.8274 190.113 69.9521 190.165 70.0619 190.241C70.1717 190.317 70.2641 190.416 70.3331 190.53C70.4979 190.802 70.5829 191.115 70.5781 191.433L72.6781 190.215C72.8434 190.122 73.0346 190.087 73.2222 190.114C73.4098 190.141 73.5832 190.229 73.7156 190.364C73.848 190.5 73.932 190.675 73.9545 190.864C73.977 191.052 73.9368 191.242 73.8401 191.405L75.9401 190.215C76.1217 190.11 76.3354 190.076 76.5406 190.118C76.7459 190.161 76.9283 190.278 77.0531 190.446C77.1542 190.577 77.2128 190.736 77.2211 190.901C78.4531 190.145 79.0831 189.928 79.6011 190.04C79.766 190.075 79.9198 190.149 80.0491 190.257C80.7757 189.786 81.6263 189.542 82.4921 189.557C82.7836 189.582 83.0652 189.674 83.3153 189.826C83.5654 189.978 83.7771 190.185 83.9341 190.432C84.5302 189.964 85.2779 189.732 86.0341 189.781C86.2635 189.818 86.4816 189.907 86.6719 190.04C86.8622 190.173 87.0199 190.348 87.1331 190.551C87.5321 191.251 87.2941 192.035 86.2231 193.148C87.2908 192.274 88.3074 191.339 89.2681 190.348C89.3588 190.257 89.4687 190.187 89.5898 190.143C89.7108 190.1 89.8401 190.084 89.9681 190.096C90.1002 190.113 90.2267 190.16 90.3373 190.234C90.4479 190.308 90.5396 190.407 90.6051 190.523C90.8275 190.908 90.8974 191.363 90.8011 191.797C91.5011 191.293 92.2781 190.768 92.9781 190.257C93.0752 190.186 93.1862 190.136 93.3038 190.111C93.4214 190.086 93.543 190.086 93.6607 190.111C93.7783 190.136 93.8893 190.186 93.9864 190.257C94.0835 190.328 94.1645 190.419 94.2241 190.523C94.3615 190.757 94.4363 191.022 94.4411 191.293L96.3311 190.208C96.4282 190.151 96.5358 190.113 96.6475 190.097C96.7593 190.082 96.873 190.088 96.9821 190.117C97.2028 190.176 97.3914 190.319 97.5071 190.516C97.5834 190.637 97.6317 190.773 97.6487 190.914C97.6656 191.056 97.6508 191.2 97.6051 191.335L99.5581 190.201C99.7567 190.091 99.9904 190.062 100.21 190.12C100.429 190.179 100.617 190.321 100.734 190.516C100.861 190.719 100.924 190.956 100.915 191.195C100.906 191.435 100.826 191.666 100.685 191.86C101.301 191.37 101.924 190.845 102.54 190.306C102.627 190.229 102.729 190.171 102.839 190.134C102.95 190.098 103.066 190.084 103.182 190.094C103.298 190.104 103.41 190.137 103.513 190.192C103.616 190.246 103.706 190.321 103.779 190.411C104.349 189.882 105.102 189.596 105.879 189.613C106.139 189.646 106.388 189.739 106.605 189.884C106.823 190.03 107.003 190.225 107.132 190.453C107.705 189.929 108.456 189.644 109.232 189.655C109.491 189.691 109.738 189.788 109.952 189.937C110.166 190.087 110.341 190.285 110.464 190.516C110.551 190.669 110.59 190.845 110.576 191.02C111.815 190.201 112.55 189.886 113.124 190.005C113.27 190.037 113.408 190.099 113.528 190.187C113.649 190.275 113.749 190.387 113.824 190.516C114.01 190.827 114.075 191.196 114.006 191.552L116.351 190.201C116.449 190.144 116.556 190.108 116.668 190.093C116.78 190.079 116.893 190.087 117.002 190.117C117.112 190.146 117.214 190.196 117.304 190.264C117.394 190.333 117.47 190.418 117.527 190.516C118.157 191.615 116.876 192.371 115.427 193.253C114.727 193.666 113.173 194.59 112.893 195.108C113.922 194.94 116.946 192.819 119.704 190.313C119.798 190.228 119.909 190.164 120.03 190.127C120.151 190.09 120.279 190.079 120.404 190.096C120.531 190.117 120.652 190.165 120.759 190.238C120.865 190.31 120.954 190.405 121.02 190.516C121.156 190.774 121.222 191.062 121.212 191.353C121.203 191.644 121.117 191.927 120.964 192.175C121.032 192.25 121.091 192.332 121.139 192.42C121.261 192.678 121.314 192.963 121.294 193.248C121.273 193.532 121.179 193.807 121.02 194.044C121.07 194.094 121.112 194.15 121.146 194.212C121.202 194.309 121.239 194.417 121.254 194.528C121.268 194.64 121.261 194.753 121.232 194.862C121.202 194.971 121.152 195.072 121.083 195.161C121.014 195.251 120.929 195.325 120.831 195.381L119.06 196.403C118.888 196.507 118.685 196.546 118.487 196.515C118.289 196.484 118.108 196.384 117.976 196.233C117.844 196.082 117.77 195.889 117.766 195.689C117.762 195.488 117.828 195.292 117.954 195.136C117.254 195.619 116.554 196.053 115.959 196.403C115.781 196.508 115.57 196.545 115.367 196.506C115.163 196.467 114.981 196.356 114.853 196.193L114.804 196.13C114.1 196.594 113.274 196.838 112.431 196.83C112.211 196.802 112.001 196.725 111.815 196.603C111.63 196.482 111.474 196.32 111.36 196.13C111.199 195.866 111.112 195.564 111.108 195.255L109.057 196.438C108.96 196.495 108.853 196.532 108.742 196.547C108.63 196.562 108.517 196.555 108.409 196.526C108.3 196.498 108.198 196.448 108.109 196.38C108.02 196.312 107.945 196.227 107.888 196.13C107.735 195.867 107.657 195.567 107.664 195.262C106.033 196.424 105.424 196.718 104.864 196.599C104.727 196.573 104.598 196.517 104.484 196.436C104.371 196.355 104.276 196.251 104.206 196.13C104.145 196.019 104.096 195.901 104.059 195.78C103.198 196.536 102.519 196.914 101.847 196.83C101.634 196.8 101.432 196.721 101.254 196.599C101.077 196.478 100.93 196.317 100.825 196.13C100.775 196.046 100.742 195.954 100.727 195.857C99.9221 196.557 99.2501 196.942 98.5921 196.858C98.3745 196.832 98.1662 196.755 97.9838 196.633C97.8014 196.511 97.6501 196.349 97.5421 196.158C96.8498 196.596 96.0444 196.823 95.2251 196.809C95.0162 196.776 94.8176 196.695 94.6443 196.574C94.4709 196.453 94.3272 196.294 94.2241 196.109C94.0936 195.899 94.0234 195.657 94.0211 195.409L92.2781 196.417C92.08 196.529 91.8456 196.559 91.6256 196.5C91.4056 196.441 91.2176 196.298 91.1021 196.102C90.9586 195.865 90.9087 195.583 90.9621 195.311L90.5911 195.521C89.8911 195.969 89.2821 196.298 89.0231 196.431C88.824 196.536 88.5916 196.559 88.3756 196.495C88.1597 196.431 87.9775 196.285 87.8681 196.088C87.8157 195.993 87.7824 195.888 87.7701 195.78C86.5731 196.417 85.7471 196.697 85.2991 196.599C85.0748 196.556 84.8708 196.44 84.7181 196.27C83.9964 196.74 83.1505 196.984 82.2891 196.97C82.0168 196.939 81.7556 196.845 81.5269 196.694C81.2982 196.543 81.1084 196.34 80.9731 196.102C80.5811 195.402 81.1621 195.003 81.6241 194.702C82.9599 193.826 84.1926 192.802 85.2991 191.65C84.1133 192.427 83.0025 193.313 81.9811 194.296C80.0841 196.004 79.1391 196.823 78.2711 196.683C78.1067 196.657 77.9502 196.595 77.8132 196.5C77.6763 196.406 77.5624 196.282 77.4801 196.137C77.3549 195.92 77.2748 195.679 77.2447 195.43C77.2147 195.181 77.2352 194.929 77.3051 194.688L76.6961 195.297L75.7511 196.298C75.597 196.465 75.3829 196.564 75.1558 196.573C74.9287 196.583 74.7072 196.501 74.5401 196.347C74.373 196.193 74.274 195.979 74.2648 195.752C74.2556 195.525 74.337 195.303 74.4911 195.136C74.6311 194.982 74.8551 194.737 75.1491 194.436L75.0651 194.492C72.3631 196.382 71.8381 196.711 71.2501 196.592C71.1256 196.564 71.0082 196.511 70.9057 196.435C70.8032 196.359 70.7178 196.262 70.6551 196.151C70.5846 196.026 70.5475 195.885 70.5475 195.742C70.5475 195.598 70.5846 195.457 70.6551 195.332L68.6811 196.466C68.4834 196.58 68.2484 196.611 68.0279 196.552C67.8074 196.493 67.6193 196.349 67.5051 196.151C67.4259 196.037 67.3728 195.907 67.3498 195.77C67.3268 195.634 67.3344 195.494 67.3721 195.36L65.4541 196.466C65.357 196.523 65.2494 196.561 65.1377 196.576C65.0259 196.591 64.9123 196.584 64.8034 196.554C64.6945 196.525 64.5926 196.474 64.5036 196.405C64.4146 196.336 64.3403 196.249 64.2851 196.151C64.2624 196.121 64.2436 196.088 64.2291 196.053C63.5195 196.601 62.6403 196.884 61.7441 196.851C61.5365 196.817 61.3393 196.736 61.1672 196.615C60.9951 196.493 60.8525 196.335 60.7501 196.151C60.7165 196.096 60.6883 196.037 60.6661 195.976C59.4831 196.676 58.6501 196.893 58.0621 196.781C57.8736 196.749 57.6945 196.676 57.5373 196.567C57.38 196.458 57.2486 196.316 57.1521 196.151C57.0367 195.993 56.9774 195.801 56.9838 195.606C56.9901 195.411 57.0617 195.223 57.1871 195.073L54.7791 196.473C54.5995 196.574 54.3902 196.608 54.1879 196.57C53.9856 196.531 53.8033 196.423 53.6731 196.263C53.0079 196.668 52.2397 196.872 51.4611 196.851C51.1739 196.805 50.9063 196.676 50.6911 196.48C50.02 196.85 49.2665 197.045 48.5001 197.047V197.047ZM43.4811 191.748C43.3569 192 43.2017 192.235 43.0191 192.448V192.448C43.4741 192.098 44.0691 191.643 44.4961 191.279C44.1367 191.385 43.7948 191.543 43.4811 191.748V191.748ZM38.6931 190.866C38.7274 190.908 38.7579 190.952 38.7841 190.999C38.7572 190.957 38.7268 190.917 38.6931 190.88V190.866Z" fill="#7CCCDB"/>
<path d="M114.602 45.9169C118.046 45.7629 121.49 45.6438 124.934 45.5808C128.378 45.5178 131.822 45.4338 135.266 45.3988C138.71 45.3638 142.154 45.3428 145.598 45.3638C149.042 45.3848 152.486 45.4758 155.93 45.5529C159.374 45.6299 162.818 45.7278 166.262 45.7558C169.706 45.7838 173.15 45.7558 176.594 45.7558C183.482 45.6578 190.37 45.4618 197.251 45.3848H197.874V46.0218L197.965 57.1449V57.8449H197.265C193.569 57.8799 189.873 57.8449 186.17 57.8449C182.467 57.8449 178.771 57.7959 175.075 57.7259C171.379 57.6559 167.676 57.6209 163.973 57.5229C160.27 57.4249 156.581 57.3269 152.878 57.1799V57.0399C156.583 56.8952 160.281 56.7809 163.973 56.6969C167.676 56.5919 171.372 56.5359 175.075 56.4869C178.778 56.4379 182.474 56.3889 186.17 56.3679C189.866 56.3469 193.569 56.3679 197.265 56.3679L196.565 57.0679L196.656 45.9448L197.279 46.5678C190.398 46.4978 183.51 46.3018 176.622 46.2038C173.178 46.2038 169.734 46.1339 166.29 46.1689C162.846 46.2039 159.402 46.2948 155.958 46.3788C152.514 46.4628 149.07 46.5468 145.626 46.5678C142.182 46.5888 138.738 46.5679 135.294 46.5259C131.85 46.4839 128.406 46.4349 124.962 46.3509C121.518 46.2669 118.074 46.1619 114.63 46.0149L114.602 45.9169Z" fill="#2855AF"/>
<path d="M130.766 57.1815C126.755 57.3285 122.744 57.4475 118.726 57.5105C114.708 57.5735 110.704 57.6575 106.693 57.6855C98.6706 57.7555 90.6486 57.7765 82.6266 57.5665C74.6046 57.3565 66.5826 57.2445 58.5606 57.3565C50.5386 57.4685 42.5166 57.6435 34.4946 57.7065H33.8996V57.1115L33.8086 45.9885V45.2885H34.5086C39.3386 45.2535 44.1756 45.2185 49.0056 45.2255C53.8356 45.2325 58.6796 45.2255 63.5096 45.3235C68.3396 45.4215 73.1766 45.4215 78.0136 45.5335C82.8506 45.6455 87.6806 45.7365 92.5176 45.9045V46.0445C87.6783 46.2032 82.8436 46.3245 78.0136 46.4085C73.1766 46.5275 68.3466 46.5555 63.5096 46.6255C58.6726 46.6955 53.8426 46.7095 49.0056 46.7235C44.1686 46.7375 39.3386 46.7235 34.5086 46.6605L35.2086 45.9605L35.1106 57.0835L34.5226 56.4885C42.5446 56.5515 50.5666 56.7895 58.5886 56.8385C66.6106 56.8875 74.6326 56.7895 82.6546 56.6215C90.6766 56.4535 98.6986 56.4395 106.721 56.5025C110.732 56.5025 114.743 56.6075 118.754 56.6845C122.765 56.7615 126.783 56.8665 130.794 57.0135L130.766 57.1815Z" fill="#2855AF"/>
<path d="M34.8422 108.399C34.4195 104.768 34.2371 101.113 34.2962 97.458C34.3452 95.631 34.5132 93.804 34.6252 91.984C34.7197 90.1606 34.7197 88.3335 34.6252 86.51C34.5342 84.683 34.3872 82.863 34.3102 81.036C34.2332 79.209 34.2192 77.389 34.1702 75.562C34.0932 71.915 34.2262 68.268 34.4782 64.621V64.166H34.8702C35.5282 64.222 36.1862 64.25 36.8442 64.32C37.5022 64.39 38.1602 64.439 38.8112 64.523V64.663C38.1602 64.747 37.5022 64.796 36.8442 64.859C36.1862 64.922 35.5282 64.957 34.8702 65.013L35.2902 64.593C35.5422 68.24 35.6752 71.887 35.5982 75.534C35.5492 77.361 35.5282 79.181 35.4582 81.008C35.3882 82.835 35.2272 84.655 35.1432 86.482C35.0487 88.3055 35.0487 90.1326 35.1432 91.956C35.2552 93.776 35.4232 95.603 35.4722 97.43C35.5313 101.085 35.3489 104.74 34.9262 108.371L34.8422 108.399Z" fill="#2855AF"/>
<path d="M97.2342 116.359C92.0402 116.807 86.8462 116.919 81.6522 116.912C79.0552 116.912 76.4582 116.723 73.8612 116.611C71.2642 116.499 68.6672 116.485 66.0772 116.541C63.4872 116.597 60.8832 116.737 58.2862 116.828C55.6892 116.919 53.0922 116.954 50.4952 116.996C45.3012 117.101 40.1072 116.996 34.9132 116.807H34.3672V116.303L34.5492 112.362L34.6752 110.388C34.6752 109.73 34.7592 109.072 34.8152 108.414H34.9552C35.0112 109.072 35.0532 109.73 35.0952 110.388L35.2212 112.362L35.4032 116.303L34.8852 115.785C40.0792 115.596 45.2732 115.498 50.4672 115.603C53.0642 115.603 55.6612 115.68 58.2582 115.764C60.8552 115.848 63.4522 115.995 66.0492 116.058C68.6462 116.121 71.2362 116.107 73.8332 115.981C76.4302 115.855 79.0272 115.701 81.6242 115.68C86.8182 115.68 92.0122 115.785 97.2062 116.233L97.2342 116.359Z" fill="#2855AF"/>
<path d="M100.39 64.5516C102.161 64.4256 103.939 64.3626 105.717 64.2716C107.495 64.1806 109.266 64.1526 111.037 64.1106C114.586 64.0336 118.135 63.9776 121.691 63.9986H122.3V64.6216C122.3 66.7706 122.23 68.9266 122.153 71.0756L121.943 77.5366C121.854 81.8392 121.877 86.1442 122.013 90.4516L122.202 96.9126C122.244 99.0686 122.307 101.218 122.321 103.374C122.37 107.679 122.44 111.984 122.419 116.289V117.045H121.677C117.596 117.01 113.522 116.961 109.448 116.849L103.33 116.653C101.293 116.576 99.2558 116.485 97.2188 116.366V116.226C99.2558 116.114 101.293 116.016 103.33 115.946L109.448 115.743C113.522 115.631 117.596 115.582 121.677 115.547L120.928 116.296C120.928 111.991 120.977 107.686 121.026 103.381C121.026 101.225 121.103 99.0756 121.145 96.9196L121.334 90.4586C121.474 86.1512 121.497 81.8462 121.404 77.5436L121.194 71.0826C121.124 68.9336 121.054 66.7776 121.054 64.6286L121.677 65.2516C118.121 65.2516 114.572 65.2096 111.023 65.1396C109.252 65.0906 107.474 65.0416 105.703 64.9716C103.932 64.9016 102.147 64.8176 100.376 64.6986L100.39 64.5516Z" fill="#2855AF"/>
<path d="M38.8555 64.5517C41.4245 64.2997 43.9865 64.1527 46.5555 64.0757C49.1245 63.9987 51.6865 63.9567 54.2555 64.0337C56.8245 64.1107 59.3865 64.3417 61.9555 64.3907C64.5245 64.4397 67.0795 64.3907 69.6555 64.2367C72.2315 64.0827 74.7795 63.9987 77.3555 63.9637C79.9315 63.9287 82.4865 63.8517 85.0555 63.8727C90.1865 63.9287 95.3105 64.1037 100.455 64.5727V64.7127C95.3245 65.1537 90.2005 65.3287 85.0555 65.4127C82.4935 65.4127 79.9315 65.3777 77.3555 65.3287C74.7795 65.2797 72.2315 65.1887 69.6555 65.0487C67.0795 64.9087 64.5245 64.8387 61.9555 64.8947C59.3865 64.9507 56.8245 65.1467 54.2555 65.2517C51.6865 65.3567 49.1315 65.2867 46.5555 65.2097C43.9795 65.1327 41.4315 64.9857 38.8555 64.7407V64.5517Z" fill="#2855AF"/>
<path d="M44.4057 73.3219C43.4467 73.4199 42.4107 73.5109 41.3327 73.5599C40.2464 73.6264 39.157 73.6264 38.0707 73.5599H37.8047V73.3289C37.8537 72.4749 37.9377 71.6209 37.9447 70.7669C37.9517 69.9129 37.9447 69.0589 37.8607 68.2049V68.0229H38.0637C39.1137 67.9529 40.1637 67.8969 41.2207 67.8829C42.2777 67.8689 43.3207 67.8199 44.3707 67.8829H44.7417V68.2329C44.7417 69.1289 44.6647 70.0249 44.6227 70.8929C44.5807 71.7609 44.4827 72.5379 44.4057 73.3219ZM44.3567 73.2729L44.1397 70.6339C44.0977 69.7939 44.0277 68.9819 44.0207 68.1699L44.3777 68.5269C43.3277 68.5619 42.2777 68.5269 41.2277 68.5269C40.1777 68.5269 39.1277 68.4569 38.0707 68.3799L38.2597 68.1909C38.2037 69.0449 38.1617 69.8989 38.1757 70.7529C38.1897 71.6069 38.2667 72.4609 38.3227 73.3149L38.0707 73.0629C39.0846 72.9964 40.1018 72.9964 41.1157 73.0629C42.1447 73.0839 43.2017 73.1679 44.3567 73.2729Z" fill="#2855AF"/>
<path d="M68.8352 76.4175L81.3582 76.2775L93.8812 76.2005L118.927 76.1445H119.235V76.4525C119.235 81.9732 119.21 87.4962 119.158 93.0215L119.053 109.584V109.717H118.927C112.193 109.675 105.452 109.717 98.7112 109.717L78.4952 109.808L58.2862 109.899L38.0702 109.934H37.6992V109.563V93.0005L37.7832 76.4315V76.2005H38.0492L53.4492 76.2845L68.8492 76.4315V76.5015L53.4492 76.6485L38.0492 76.7325L38.3152 76.4665L38.3992 93.0355V109.598L38.0352 109.234L58.2512 109.269L78.4602 109.353L98.6762 109.451C105.417 109.451 112.158 109.507 118.892 109.451L118.766 109.577L118.703 93.0005C118.652 87.4752 118.626 81.9522 118.626 76.4315L118.927 76.7395L93.8812 76.6905L81.3582 76.6065L68.8352 76.4665V76.4175Z" fill="#2855AF"/>
<path d="M76.8867 93.6433C80.3027 91.9843 83.7747 90.4863 87.2957 89.1003C89.0667 88.4003 90.8587 87.8053 92.6227 87.1123C94.3867 86.4193 96.1227 85.6564 97.8447 84.8864C101.303 83.3254 104.803 81.8483 108.303 80.3993C111.803 78.9503 115.352 77.5993 118.936 76.4023V76.4723C115.52 78.1103 112.048 79.6223 108.555 81.0853C105.062 82.5483 101.555 83.8853 97.9847 85.2223C96.2067 85.9223 94.4427 86.5663 92.6997 87.3223C90.9567 88.0783 89.2417 88.8693 87.5127 89.6393C84.0127 91.1163 80.5127 92.4883 76.9077 93.7063L76.8867 93.6433Z" fill="#2855AF"/>
<path d="M38.056 109.555C41.199 108.008 44.412 106.615 47.667 105.355C49.305 104.732 50.957 104.165 52.567 103.528C54.177 102.891 55.794 102.184 57.39 101.428C60.575 99.979 63.795 98.628 67.029 97.284C70.263 95.94 73.546 94.743 76.864 93.623V93.686C73.714 95.219 70.508 96.619 67.288 97.9771C64.068 99.3351 60.792 100.581 57.488 101.785C55.843 102.394 54.212 103.017 52.588 103.703C50.964 104.389 49.403 105.145 47.8 105.859C44.587 107.259 41.325 108.491 38 109.597L38.056 109.555Z" fill="#2855AF"/>
<path d="M97.263 8.26519L122.071 8.11819L146.879 8.05519L171.694 7.99219L196.502 8.04119H196.761V8.30019L196.67 41.4312V41.5992H196.502L176.475 41.5432L156.455 41.5782L116.408 41.6832L96.381 41.7462L76.354 41.7602L36.307 41.7742H35.964V41.4312L35.957 24.8692L36.013 8.30019V8.00619H36.307L66.785 8.10419L97.263 8.26519V8.33519L66.785 8.49619L36.307 8.59419L36.601 8.30019L36.657 24.8692L36.65 41.4312L36.307 41.0882L76.354 41.1092L96.381 41.1162L116.408 41.1792L156.455 41.2912L176.475 41.3192L196.502 41.2632L196.334 41.4312L196.243 8.30019L196.502 8.55919L171.694 8.60819L146.879 8.54519L122.071 8.48219L97.263 8.33519V8.26519Z" fill="#2855AF"/>
<path d="M113.238 25.4838C120.126 23.8178 127.047 22.3012 134 20.9338C137.5 20.2338 141 19.6528 144.437 18.9458C147.874 18.2388 151.374 17.4968 154.832 16.7198C161.748 15.1612 168.676 13.6725 175.615 12.2538C182.555 10.8352 189.517 9.51683 196.503 8.29883V8.36883C189.611 10.0162 182.695 11.5585 175.755 12.9958C168.816 14.4332 161.865 15.8122 154.902 17.1328C151.402 17.7908 147.944 18.4628 144.479 19.2328C141.014 20.0028 137.57 20.7868 134.112 21.5498C127.182 23.0338 120.231 24.3988 113.245 25.6028L113.238 25.4838Z" fill="#2855AF"/>
<path d="M36.3008 41.3947C42.6661 39.8407 49.0594 38.4407 55.4808 37.1947C58.7008 36.5787 61.9278 36.0257 65.1338 35.3747C68.3398 34.7237 71.5458 34.0377 74.7378 33.3167C81.1218 31.8701 87.5221 30.4887 93.9388 29.1727C100.355 27.8567 106.788 26.6364 113.238 25.5117V25.5817C106.868 27.1217 100.477 28.5544 94.0648 29.8797C87.6528 31.2051 81.2314 32.4744 74.8008 33.6877C71.5808 34.2967 68.3678 34.9127 65.1688 35.6127C61.9698 36.3127 58.7848 37.0617 55.5858 37.7687C49.1878 39.1687 42.7618 40.4007 36.3008 41.4927V41.3947Z" fill="#2855AF"/>
<path d="M142.441 129.596C146.921 129.519 151.394 129.442 155.874 129.407C160.354 129.372 164.827 129.358 169.3 129.33H169.601V129.631C169.601 132.396 169.601 135.154 169.601 137.919C169.601 140.684 169.601 143.435 169.538 146.2C169.482 151.723 169.419 157.246 169.412 162.762V162.874H169.3C162.076 162.874 154.852 162.937 147.6 163C140.348 163.063 133.152 163.105 125.9 163.126H125.543V146.2L125.599 137.919L125.669 129.631V129.4H125.9L134.146 129.47L142.392 129.596V129.666L134.146 129.792L125.9 129.862L126.131 129.631L126.201 137.919L126.25 146.2V162.762L125.893 162.405C133.117 162.405 140.35 162.447 147.593 162.531C154.824 162.594 162.048 162.664 169.293 162.657L169.181 162.762C169.181 157.246 169.111 151.723 169.055 146.2C169.02 143.435 168.992 140.677 168.992 137.919C168.992 135.161 168.992 132.396 168.992 129.631L169.293 129.932C164.82 129.932 160.34 129.932 155.867 129.855C151.394 129.778 146.914 129.743 142.434 129.666L142.441 129.596Z" fill="#2855AF"/>
<path d="M146.746 146.823C148.48 145.211 150.31 143.705 152.227 142.315C153.193 141.615 154.194 140.999 155.146 140.306C156.098 139.613 157.015 138.858 157.946 138.095C159.745 136.548 161.593 135.077 163.469 133.643C165.345 132.208 167.291 130.843 169.307 129.604L169.349 129.66C167.606 131.27 165.779 132.775 163.924 134.238C162.069 135.701 160.137 137.038 158.177 138.396C157.204 139.095 156.238 139.753 155.314 140.495C154.39 141.237 153.515 142.028 152.605 142.784C150.76 144.278 148.822 145.653 146.802 146.9L146.746 146.823Z" fill="#2855AF"/>
<path d="M125.926 162.733C127.512 161.221 129.198 159.818 130.973 158.533C131.876 157.91 132.8 157.329 133.682 156.685C134.564 156.041 135.411 155.348 136.237 154.634C137.896 153.234 139.604 151.834 141.333 150.511C143.062 149.188 144.875 147.956 146.744 146.801L146.786 146.857C145.19 148.362 143.503 149.755 141.788 151.106C140.073 152.457 138.288 153.717 136.475 154.942C135.572 155.558 134.676 156.188 133.822 156.867C132.968 157.546 132.163 158.267 131.33 158.967C129.629 160.344 127.838 161.604 125.968 162.74L125.926 162.733Z" fill="#2855AF"/>
<path d="M142.441 168.446C146.921 168.369 151.394 168.292 155.874 168.257C160.354 168.222 164.827 168.201 169.3 168.18H169.601V168.481C169.601 171.239 169.601 174.004 169.601 176.762C169.601 179.52 169.601 182.285 169.538 185.05C169.482 190.566 169.419 196.089 169.412 201.612V201.724H169.3C162.076 201.724 154.852 201.787 147.6 201.85C140.348 201.913 133.152 201.955 125.9 201.969H125.543V185.05L125.599 176.762L125.669 168.481V168.25H125.9L134.146 168.32L142.392 168.446V168.516L134.146 168.642L125.9 168.712L126.131 168.481L126.201 176.762L126.25 185.05V201.612L125.893 201.255C133.117 201.255 140.35 201.297 147.593 201.381C154.824 201.437 162.048 201.514 169.293 201.5L169.181 201.612C169.181 196.089 169.111 190.566 169.055 185.05C169.02 182.285 168.992 179.527 168.992 176.762C168.992 173.997 168.992 171.239 168.992 168.481L169.293 168.782C164.82 168.782 160.34 168.782 155.867 168.705C151.394 168.628 146.914 168.593 142.434 168.516L142.441 168.446Z" fill="#2855AF"/>
<path d="M146.746 185.673C148.476 184.056 150.307 182.551 152.227 181.165C153.193 180.465 154.194 179.849 155.146 179.156C156.098 178.463 157.015 177.707 157.946 176.937C159.745 175.397 161.593 173.927 163.469 172.492C165.345 171.057 167.291 169.692 169.307 168.453L169.349 168.509C167.606 170.119 165.779 171.617 163.924 173.08C162.069 174.543 160.137 175.915 158.177 177.28C157.204 177.945 156.238 178.638 155.314 179.38C154.39 180.122 153.515 180.92 152.605 181.676C150.764 183.164 148.83 184.534 146.816 185.778L146.746 185.673Z" fill="#2855AF"/>
<path d="M125.926 201.584C127.512 200.072 129.198 198.669 130.973 197.384C131.876 196.761 132.8 196.18 133.682 195.536C134.564 194.892 135.411 194.192 136.237 193.485C137.896 192.05 139.604 190.685 141.333 189.362C143.062 188.039 144.875 186.8 146.744 185.652L146.786 185.708C145.19 187.213 143.503 188.599 141.788 189.957C140.073 191.315 138.288 192.568 136.475 193.786C135.572 194.402 134.676 195.039 133.822 195.718C132.968 196.397 132.163 197.118 131.33 197.818C129.628 199.193 127.837 200.454 125.968 201.591L125.926 201.584Z" fill="#2855AF"/>
<path d="M35.307 127.691C42.3396 127.463 49.3746 127.379 56.412 127.439C59.912 127.481 63.412 127.6 66.961 127.607C70.51 127.614 73.996 127.607 77.517 127.537C84.517 127.411 91.58 127.341 98.615 127.369C105.65 127.397 112.685 127.474 119.72 127.691V127.761C112.683 127.976 105.648 128.086 98.615 128.09C91.5823 128.095 84.545 128.039 77.503 127.922C74.003 127.866 70.468 127.817 66.947 127.852C63.426 127.887 59.912 127.971 56.398 128.02C49.363 128.069 42.328 128.02 35.293 127.761L35.307 127.691Z" fill="#2855AF"/>
<path d="M79.8828 147.02C83.2008 146.789 86.5188 146.719 89.8368 146.768C91.5028 146.817 93.1618 146.915 94.8208 146.943C96.4798 146.971 98.1388 146.943 99.7978 146.866C103.123 146.733 106.441 146.684 109.759 146.684C113.077 146.684 116.402 146.803 119.72 147.02V147.09C116.402 147.314 113.077 147.398 109.759 147.433C106.441 147.468 103.123 147.384 99.7978 147.251C98.1388 147.188 96.4798 147.153 94.8208 147.174C93.1618 147.195 91.5028 147.3 89.8368 147.349C86.5188 147.398 83.2008 147.349 79.8828 147.09V147.02Z" fill="#2855AF"/>
<path d="M35.3047 147.02C39.0217 146.789 42.7387 146.719 46.4487 146.768C48.3037 146.817 50.1657 146.915 52.0487 146.943C53.9317 146.971 55.7657 146.943 57.6487 146.866C61.3657 146.733 65.0757 146.684 68.7927 146.684C72.5097 146.684 76.2197 146.803 79.9367 147.02V147.09C76.2197 147.314 72.5027 147.398 68.7927 147.433C65.0827 147.468 61.3657 147.384 57.6487 147.251C55.7937 147.188 53.9317 147.153 52.0487 147.174C50.1657 147.195 48.3317 147.3 46.4487 147.349C42.7387 147.398 39.0217 147.349 35.3047 147.09V147.02Z" fill="#2855AF"/>
<path d="M36.9727 133.838H54.9627" stroke="#2855AF" stroke-miterlimit="10"/>
<path d="M36.9727 137.078H71.5177" stroke="#2855AF" stroke-miterlimit="10"/>
<path d="M36.9727 140.32H96.7037" stroke="#2855AF" stroke-miterlimit="10"/>
<path d="M36.9727 143.736H94.9047" stroke="#2855AF" stroke-miterlimit="10"/>
<path d="M35.3047 153.466C42.3047 153.228 49.3747 153.158 56.4097 153.207C59.9097 153.256 63.4097 153.368 66.9587 153.375C70.5077 153.382 73.9937 153.375 77.5147 153.305C84.5427 153.179 91.5754 153.123 98.6127 153.137C105.65 153.151 112.685 153.261 119.718 153.466V153.536C112.68 153.755 105.645 153.863 98.6127 153.858C91.6127 153.858 84.5427 153.816 77.5147 153.69C74.0147 153.634 70.4797 153.585 66.9587 153.62C63.4377 153.655 59.9237 153.746 56.4097 153.788C49.3723 153.844 42.3374 153.76 35.3047 153.536V153.466Z" fill="#2855AF"/>
<path d="M157.008 114.412C159.333 114.181 161.671 114.096 164.008 114.16C165.17 114.209 166.339 114.307 167.508 114.335C168.677 114.363 169.832 114.335 171.008 114.258C173.332 114.125 175.656 114.076 178.008 114.076C180.36 114.076 182.663 114.195 185.008 114.412V114.482C182.684 114.706 180.353 114.79 178.008 114.825C175.663 114.86 173.353 114.776 171.008 114.643C169.839 114.58 168.677 114.545 167.508 114.559C166.339 114.573 165.177 114.692 164.008 114.741C161.671 114.803 159.333 114.716 157.008 114.482V114.412Z" fill="#2855AF"/>
<path d="M126.93 114.412C129.475 114.182 132.032 114.097 134.588 114.16C135.869 114.209 137.143 114.307 138.417 114.335C139.691 114.363 140.972 114.335 142.246 114.258C144.801 114.125 147.349 114.076 149.904 114.076C152.459 114.076 155.007 114.195 157.562 114.412V114.482C155.007 114.706 152.452 114.79 149.904 114.825C147.356 114.86 144.801 114.776 142.246 114.643C140.972 114.58 139.691 114.545 138.417 114.559C137.143 114.573 135.869 114.692 134.588 114.741C132.032 114.802 129.475 114.715 126.93 114.482V114.412Z" fill="#2855AF"/>
<path d="M128.078 101.232H140.44" stroke="#2855AF" stroke-miterlimit="10"/>
<path d="M128.078 104.473H151.808" stroke="#2855AF" stroke-miterlimit="10"/>
<path d="M128.078 107.713H169.119" stroke="#2855AF" stroke-miterlimit="10"/>
<path d="M128.078 111.129H167.88" stroke="#2855AF" stroke-miterlimit="10"/>
<path d="M126.93 120.86C131.767 120.622 136.597 120.552 141.434 120.601C143.849 120.643 146.264 120.762 148.686 120.769C151.108 120.776 153.516 120.769 155.931 120.699C160.766 120.573 165.601 120.517 170.435 120.531C175.265 120.531 180.102 120.643 184.932 120.86V120.93C180.102 121.147 175.265 121.245 170.435 121.252C165.605 121.259 160.803 121.21 155.903 121.084C153.488 121.028 151.073 120.979 148.658 121.014C146.243 121.049 143.821 121.14 141.406 121.182C136.567 121.238 131.732 121.154 126.902 120.93L126.93 120.86Z" fill="#2855AF"/>
<path d="M79.8828 175.949C83.2008 175.711 86.5188 175.641 89.8368 175.69C91.5028 175.739 93.1618 175.844 94.8208 175.865C96.4798 175.886 98.1388 175.865 99.7978 175.788C103.123 175.655 106.441 175.613 109.759 175.606C113.077 175.599 116.402 175.725 119.72 175.949V176.019C116.402 176.236 113.077 176.32 109.759 176.355C106.441 176.39 103.123 176.306 99.7978 176.173C98.1388 176.11 96.4798 176.075 94.8208 176.096C93.1618 176.117 91.5028 176.222 89.8368 176.271C86.5188 176.32 83.2008 176.271 79.8828 176.019V175.949Z" fill="#2855AF"/>
<path d="M35.3047 175.949C39.0217 175.711 42.7387 175.641 46.4487 175.69C48.3037 175.739 50.1657 175.844 52.0487 175.865C53.9317 175.886 55.7657 175.865 57.6487 175.788C61.3657 175.655 65.0757 175.613 68.7927 175.606C72.5097 175.599 76.2197 175.725 79.9367 175.949V176.019C76.2197 176.236 72.5027 176.32 68.7927 176.355C65.0827 176.39 61.3657 176.306 57.6487 176.173C55.7937 176.11 53.9317 176.075 52.0487 176.096C50.1657 176.117 48.3317 176.222 46.4487 176.271C42.7387 176.32 39.0217 176.271 35.3047 176.019V175.949Z" fill="#2855AF"/>
<path d="M36.9727 162.77H54.9627" stroke="#2855AF" stroke-miterlimit="10"/>
<path d="M36.9727 166.002H71.5177" stroke="#2855AF" stroke-miterlimit="10"/>
<path d="M36.9727 169.244H96.7037" stroke="#2855AF" stroke-miterlimit="10"/>
<path d="M36.9727 172.66H94.9047" stroke="#2855AF" stroke-miterlimit="10"/>
<path d="M79.8828 200.8C83.2008 200.562 86.5188 200.492 89.8368 200.541C91.5028 200.59 93.1618 200.695 94.8208 200.716C96.4798 200.737 98.1388 200.716 99.7978 200.639C103.123 200.506 106.441 200.457 109.759 200.457C113.077 200.457 116.402 200.576 119.72 200.8V200.87C116.402 201.087 113.077 201.171 109.759 201.206C106.441 201.241 103.123 201.157 99.7978 201.024C98.1388 200.961 96.4798 200.926 94.8208 200.947C93.1618 200.968 91.5028 201.073 89.8368 201.122C86.5188 201.171 83.2008 201.122 79.8828 200.87V200.8Z" fill="#2855AF"/>
<path d="M35.3047 200.8C39.0217 200.562 42.7387 200.492 46.4487 200.541C48.3037 200.59 50.1657 200.695 52.0487 200.716C53.9317 200.737 55.7657 200.716 57.6487 200.639C61.3657 200.506 65.0757 200.457 68.7927 200.457C72.5097 200.457 76.2197 200.576 79.9367 200.8V200.87C76.2197 201.087 72.5027 201.171 68.7927 201.206C65.0827 201.241 61.3657 201.157 57.6487 201.024C55.7937 200.961 53.9317 200.926 52.0487 200.947C50.1657 200.968 48.3317 201.073 46.4487 201.122C42.7387 201.171 39.0217 201.122 35.3047 200.87V200.8Z" fill="#2855AF"/>
<path d="M36.9727 187.619H54.9627" stroke="#2855AF" stroke-miterlimit="10"/>
<path d="M36.9727 190.854H71.5177" stroke="#2855AF" stroke-miterlimit="10"/>
<path d="M36.9727 194.094H96.7037" stroke="#2855AF" stroke-miterlimit="10"/>
<path d="M36.9727 197.51H94.9047" stroke="#2855AF" stroke-miterlimit="10"/>
<path d="M154.02 63.8316C155.314 63.5869 156.624 63.4278 157.94 63.3556C159.244 63.2635 160.553 63.2518 161.86 63.3206C163.169 63.4046 164.478 63.6356 165.787 63.6706C167.095 63.71 168.405 63.6586 169.707 63.5166C171.016 63.3766 172.318 63.2786 173.627 63.2366C174.936 63.1946 176.245 63.1386 177.547 63.1526C180.176 63.191 182.799 63.425 185.394 63.8526V63.9926C182.798 64.4168 180.176 64.6507 177.547 64.6926C176.245 64.6926 174.936 64.6926 173.627 64.6086C172.318 64.5246 171.016 64.4686 169.707 64.3286C168.405 64.19 167.095 64.1386 165.787 64.1746C164.478 64.2166 163.169 64.4406 161.86 64.5316C160.553 64.5981 159.244 64.584 157.94 64.4896C156.624 64.4232 155.314 64.2665 154.02 64.0206V63.8316Z" fill="#2855AF"/>
<path d="M131.122 95.4913C130.086 95.6173 129.022 95.6663 128.014 95.7573H127.706V95.3933C127.542 92.7707 127.449 90.1457 127.426 87.5183C127.426 86.2023 127.426 84.8863 127.426 83.5773C127.426 82.2683 127.552 80.9453 127.622 79.6363C127.797 77.0043 127.839 74.3793 127.769 71.7543C127.699 69.1293 127.517 66.4973 127.44 63.8723V63.3193H128.028C130.198 63.2353 132.361 63.2213 134.531 63.1723C136.701 63.1233 138.864 63.1373 141.027 63.1723C143.19 63.2073 145.367 63.2773 147.53 63.3823L150.778 63.5573C151.863 63.6413 152.948 63.7043 154.033 63.8163V63.9563C152.948 64.0613 151.863 64.1243 150.778 64.2083L147.53 64.3903C145.369 64.4883 143.201 64.5583 141.027 64.6003C138.864 64.6353 136.694 64.6493 134.531 64.6003C132.368 64.5513 130.198 64.5443 128.028 64.4603L128.602 63.8863C128.525 66.5113 128.336 69.1363 128.273 71.7683C128.21 74.4003 128.273 77.0183 128.42 79.6503C128.49 80.9593 128.567 82.2753 128.616 83.5913C128.665 84.9073 128.665 86.2163 128.616 87.5323C128.588 90.1597 128.494 92.7847 128.336 95.4073L128 95.0783C129.036 95.1693 130.1 95.2183 131.108 95.3373L131.122 95.4913Z" fill="#2855AF"/>
<path d="M182.5 95.4919C180.4 95.7649 178.223 95.8769 176.081 95.9679C173.939 96.0589 171.804 96.0869 169.662 96.0099C167.52 95.9329 165.385 95.7019 163.243 95.6529C161.101 95.6039 158.966 95.6879 156.824 95.8069C154.682 95.9259 152.547 96.0519 150.405 96.0869C148.263 96.1219 146.128 96.1919 143.986 96.1709C139.709 96.1149 135.432 95.9399 131.148 95.4709V95.3309C135.432 94.8899 139.709 94.7149 143.986 94.6309C146.128 94.6309 148.27 94.6309 150.405 94.7149C152.54 94.7989 154.689 94.8549 156.824 94.9949C158.959 95.1349 161.108 95.2049 163.243 95.1489C165.378 95.0929 167.527 94.8969 169.662 94.7919C171.797 94.6869 173.946 94.7919 176.081 94.8339C178.216 94.8759 180.365 95.0369 182.5 95.3029V95.4919Z" fill="#2855AF"/>
<path d="M152.402 85.4318C151.247 85.008 150.276 84.1933 149.658 83.1288C149.387 82.5871 149.172 82.0196 149.014 81.4348C148.832 80.8678 148.65 80.3008 148.517 79.7128C148.241 78.5092 148.311 77.252 148.72 76.0868C149.132 74.9284 149.893 73.9259 150.897 73.2168L150.946 73.2658C150.291 74.207 149.779 75.2403 149.427 76.3318C149.243 76.8626 149.105 77.4083 149.014 77.9628C148.94 78.5385 148.902 79.1183 148.902 79.6988C148.906 80.2789 149.018 80.8532 149.231 81.3928C149.471 81.9182 149.782 82.4081 150.155 82.8488C150.836 83.7731 151.602 84.6309 152.444 85.4108L152.402 85.4318Z" fill="#2855AF"/>
<path d="M163.966 76.7383C164.288 77.4609 164.452 78.2434 164.449 79.0343C164.471 79.8335 164.331 80.6289 164.036 81.3723C163.717 82.0949 163.298 82.7689 162.79 83.3743C162.32 84.0006 161.788 84.5776 161.201 85.0963C160.614 85.6363 159.93 86.0613 159.185 86.3493C158.811 86.4948 158.427 86.6164 158.037 86.7133C157.643 86.7975 157.243 86.8467 156.84 86.8603C155.24 86.9472 153.663 86.4496 152.402 85.4603L152.437 85.4043C153.813 85.9984 155.311 86.2529 156.805 86.1463C158.286 86.0757 159.723 85.6171 160.97 84.8163C161.62 84.4253 162.177 83.8974 162.601 83.2693C163.016 82.6415 163.315 81.9444 163.483 81.2113C163.912 79.7761 164.055 78.2705 163.903 76.7803L163.966 76.7383Z" fill="#2855AF"/>
<path d="M150.895 73.2175C151.721 72.0629 152.945 71.255 154.332 70.9495C155.025 70.8363 155.73 70.8035 156.432 70.8515C157.123 70.8789 157.812 70.9444 158.497 71.0475C159.194 71.1659 159.867 71.4027 160.485 71.7475C161.119 72.0717 161.696 72.4973 162.193 73.0075C163.188 74.0217 163.814 75.3403 163.971 76.7524H163.908C163.371 75.5415 162.608 74.4439 161.661 73.5185C160.734 72.5955 159.622 71.8797 158.399 71.4185C157.769 71.186 157.103 71.0698 156.432 71.0755C155.768 71.1272 155.115 71.2733 154.493 71.5095C153.23 71.9136 152.036 72.5059 150.951 73.2665L150.895 73.2175Z" fill="#2855AF"/>
<path d="M153.695 81.4218C153.499 80.3994 153.366 79.3662 153.296 78.3278C153.254 77.8098 153.219 77.2918 153.219 76.7738C153.219 76.2558 153.254 75.7308 153.268 75.2128V74.9258L153.499 75.0378C154.639 75.5586 155.825 75.9733 157.041 76.2768C158.252 76.5988 159.442 76.9768 160.632 77.3968L161.283 77.6138L160.723 78.0478C159.981 78.6218 159.204 79.1608 158.42 79.6788C157.636 80.1968 156.831 80.7078 155.998 81.1698L155.956 81.1138C156.656 80.4138 157.356 79.8118 158.056 79.2098C158.756 78.6078 159.512 78.0058 160.275 77.4528L160.366 78.0968C159.204 77.6488 158.035 77.2008 156.866 76.6968C155.742 76.1558 154.57 75.72 153.366 75.3948L153.611 75.2198C153.674 75.7308 153.751 76.2488 153.8 76.7668C153.849 77.2848 153.856 77.8028 153.87 78.3208C153.894 79.3631 153.852 80.4058 153.744 81.4428L153.695 81.4218Z" fill="#2855AF"/>
<path d="M26.0077 171.918C26.2409 174.204 26.3274 176.502 26.2667 178.799C26.2177 179.947 26.1127 181.095 26.0917 182.243C26.0707 183.391 26.0917 184.532 26.1687 185.68C26.3017 187.976 26.3437 190.272 26.3507 192.568C26.3577 194.864 26.2317 197.153 26.0077 199.449H25.9377C25.7207 197.153 25.6367 194.857 25.6017 192.568C25.5667 190.279 25.6507 187.976 25.7837 185.68C25.8467 184.532 25.8817 183.391 25.8607 182.243C25.8397 181.095 25.7347 179.947 25.6857 178.799C25.6262 176.502 25.7103 174.204 25.9377 171.918H26.0077Z" fill="#2855AF"/>
<path d="M26.0077 125.9C26.2457 129.736 26.3157 133.6 26.2667 137.408C26.2247 139.326 26.1057 141.237 26.0987 143.155C26.0917 145.073 26.0987 146.991 26.1687 148.909C26.3017 152.745 26.3437 156.609 26.3507 160.41C26.3577 164.211 26.2317 168.11 26.0077 171.918H25.9377C25.7207 168.082 25.6367 164.218 25.6017 160.41C25.5667 156.602 25.6507 152.745 25.7837 148.909C25.8397 146.991 25.8887 145.073 25.8537 143.155C25.8187 141.237 25.7277 139.326 25.6857 137.408C25.6297 133.572 25.6857 129.708 25.9377 125.9H26.0077Z" fill="#2855AF"/>
<path d="M26.0077 82.1504C26.2457 85.7974 26.3157 89.4444 26.2667 93.0914C26.2177 94.9114 26.1127 96.7314 26.0917 98.5584C26.0707 100.385 26.0917 102.205 26.1687 104.025C26.3017 107.672 26.3437 111.319 26.3507 114.966C26.3577 118.613 26.2317 122.253 26.0077 125.9H25.9377C25.7207 122.253 25.6367 118.613 25.6017 114.966C25.5667 111.319 25.6507 107.672 25.7837 104.025C25.8467 102.205 25.8817 100.378 25.8607 98.5584C25.8397 96.7384 25.7347 94.9114 25.6857 93.0914C25.6367 89.4444 25.6857 85.7974 25.9377 82.1504H26.0077Z" fill="#2855AF"/>
<path d="M26.0077 6.94922C26.2457 11.2822 26.3157 15.6222 26.2667 19.9622C26.2247 22.1252 26.1057 24.2952 26.0987 26.4652C26.0917 28.6352 26.0987 30.8052 26.1687 32.9682C26.3017 37.3082 26.3437 41.6482 26.3507 45.9812C26.3577 50.3142 26.2317 54.6542 26.0077 58.9942H25.9377C25.7207 54.6542 25.6367 50.3212 25.6017 45.9812C25.5667 41.6412 25.6507 37.3082 25.7837 32.9682C25.8397 30.8052 25.8887 28.6352 25.8537 26.4652C25.8187 24.2952 25.7277 22.1252 25.6857 19.9622C25.6297 15.6222 25.7137 11.2846 25.9377 6.94922H26.0077Z" fill="#2855AF"/>
<path d="M20.9835 143.238C21.2108 145.524 21.295 147.823 21.2355 150.119C21.1865 151.267 21.0815 152.415 21.0605 153.556C21.0395 154.697 21.0605 155.852 21.1375 157C21.2705 159.296 21.3195 161.592 21.3195 163.881C21.3195 166.17 21.2005 168.473 20.9835 170.769H20.9135C20.6895 168.473 20.6055 166.177 20.5705 163.881C20.5355 161.585 20.6195 159.296 20.7525 157C20.8155 155.852 20.8505 154.704 20.8295 153.556C20.8085 152.408 20.7035 151.267 20.6545 150.119C20.5938 147.822 20.6803 145.524 20.9135 143.238H20.9835Z" fill="#2855AF"/>
<path d="M20.9835 97.1992C21.2145 101.035 21.2915 104.899 21.2355 108.7C21.1935 110.618 21.0745 112.536 21.0675 114.454C21.0605 116.372 21.0675 118.29 21.1375 120.208C21.2705 124.044 21.3195 127.908 21.3195 131.709C21.3195 135.51 21.2005 139.409 20.9835 143.217H20.9135C20.6895 139.381 20.6055 135.517 20.5705 131.709C20.5355 127.901 20.6195 124.044 20.7525 120.208C20.8085 118.29 20.8575 116.372 20.8225 114.454C20.7875 112.536 20.6965 110.618 20.6545 108.7C20.6055 104.871 20.6545 101 20.9135 97.1992H20.9835Z" fill="#2855AF"/>
<path d="M20.9835 53.4707C21.2145 57.1177 21.2845 60.7647 21.2355 64.4047C21.1865 66.2317 21.0815 68.0517 21.0605 69.8787C21.0395 71.7057 21.0605 73.5257 21.1375 75.3457C21.2705 78.9927 21.3195 82.6397 21.3195 86.2867C21.3195 89.9337 21.2005 93.5737 20.9835 97.2207H20.9135C20.6895 93.5737 20.6055 89.9267 20.5705 86.2867C20.5355 82.6467 20.6195 78.9927 20.7525 75.3457C20.8155 73.5257 20.8505 71.6987 20.8295 69.8787C20.8085 68.0587 20.7035 66.2317 20.6545 64.4047C20.6055 60.7647 20.6545 57.1177 20.9135 53.4707H20.9835Z" fill="#2855AF"/>
<path d="M35.7109 122.617H121.293" stroke="#2855AF" stroke-width="6" stroke-miterlimit="10"/>
<path d="M35.7109 3.51172H121.293" stroke="#2855AF" stroke-width="6" stroke-miterlimit="10"/>
<path d="M126.57 165.311H169.207" stroke="#2855AF" stroke-width="6" stroke-miterlimit="10"/>
<path d="M256.831 227.807H4.35547" stroke="#2855AF" stroke-linecap="round" stroke-linejoin="round"/>
</svg>
