<svg width="340" height="273" viewBox="0 0 340 273" fill="none" xmlns="http://www.w3.org/2000/svg">
<path d="M40.9688 9.66797V254.78" stroke="#2855AF" stroke-miterlimit="10"/>
<path d="M40.9688 0.21875V4.90874" stroke="#2855AF" stroke-miterlimit="10"/>
<path d="M130.227 0.21875V254.781" stroke="#2855AF" stroke-miterlimit="10"/>
<path d="M219.484 0.21875V254.781" stroke="#2855AF" stroke-miterlimit="10"/>
<path d="M308.738 36.5137V254.781" stroke="#2855AF" stroke-miterlimit="10"/>
<path d="M308.738 0.21875V30.3958" stroke="#2855AF" stroke-miterlimit="10"/>
<path d="M261.569 35.0098H57.1758V156.145H261.569V35.0098Z" fill="#2855AF"/>
<path d="M260.411 38.4531H58.3281V152.7H260.411V38.4531Z" fill="white" stroke="#2855AF" stroke-linecap="round" stroke-linejoin="round"/>
<path d="M262.716 32.9375H54.8438V39.4335H262.716V32.9375Z" fill="#2855AF"/>
<path d="M161.665 32.8462C164.893 32.8462 167.51 30.2293 167.51 27.0012C167.51 23.7731 164.893 21.1562 161.665 21.1562C158.437 21.1562 155.82 23.7731 155.82 27.0012C155.82 30.2293 158.437 32.8462 161.665 32.8462Z" fill="white" stroke="#2855AF" stroke-linecap="round" stroke-linejoin="round"/>
<path d="M164.746 27.0007C164.747 27.6102 164.568 28.2064 164.23 28.7138C163.893 29.2212 163.412 29.6171 162.849 29.8513C162.287 30.0855 161.667 30.1475 161.069 30.0294C160.471 29.9114 159.922 29.6186 159.491 29.1881C159.059 28.7576 158.765 28.2088 158.646 27.6112C158.526 27.0135 158.587 26.3939 158.82 25.8307C159.053 25.2675 159.447 24.786 159.954 24.4473C160.461 24.1086 161.056 23.9277 161.666 23.9277C162.482 23.9277 163.264 24.2513 163.841 24.8274C164.419 25.4035 164.744 26.1851 164.746 27.0007V27.0007Z" fill="#7CCCDB" stroke="#2855AF" stroke-miterlimit="10"/>
<path d="M95.0268 112.646H70.0508V87.3203H112.527V112.646H99.7798" stroke="#2855AF" stroke-miterlimit="10"/>
<path d="M137.467 124.771H103.566V144.988H137.467V124.771Z" stroke="#2855AF" stroke-miterlimit="10"/>
<path d="M174.883 87.3203H179.16V112.646H136.684V87.3203H170.809" stroke="#2855AF" stroke-miterlimit="10"/>
<path d="M140.218 50.2969H190.072V75.6299H125.777V50.2969H135.465" stroke="#2855AF" stroke-miterlimit="10"/>
<path d="M245.406 87.3203H202.93V112.646H245.406V87.3203Z" stroke="#2855AF" stroke-miterlimit="10"/>
<path d="M122.268 62.7715C122.268 62.7715 99.7284 65.9005 86.4844 84.9965" stroke="#2855AF" stroke-miterlimit="10"/>
<path d="M107.848 115.377L110.83 124.085" stroke="#2855AF" stroke-miterlimit="10"/>
<path d="M138.636 114.592L135.906 122.775" stroke="#2855AF" stroke-miterlimit="10"/>
<path d="M107.555 121.215L110.831 124.085L111.65 120.193" stroke="#2855AF" stroke-miterlimit="10"/>
<path d="M134.566 120.193L135.791 123.469L139.27 121.418" stroke="#2855AF" stroke-miterlimit="10"/>
<path d="M87.0934 81.1113L86.4844 84.9963L90.7754 82.3363" stroke="#2855AF" stroke-miterlimit="10"/>
<path d="M180.402 99.3184H201.682" stroke="#2855AF" stroke-miterlimit="10"/>
<path d="M197.184 96.6582L201.895 99.3182L197.597 101.978" stroke="#2855AF" stroke-miterlimit="10"/>
<path d="M113.23 99.3184H134.51" stroke="#2855AF" stroke-miterlimit="10"/>
<path d="M130.012 96.6582L134.716 99.3182L130.425 101.978" stroke="#2855AF" stroke-miterlimit="10"/>
<path d="M157.766 77.6543V84.1293" stroke="#2855AF" stroke-miterlimit="10"/>
<path d="M160.418 79.6211L157.758 84.3321L155.105 80.0341" stroke="#2855AF" stroke-miterlimit="10"/>
<path d="M201.48 106.969H181.012" stroke="#2855AF" stroke-miterlimit="10"/>
<path d="M185.338 104.309L180.816 106.969L184.946 109.629" stroke="#2855AF" stroke-miterlimit="10"/>
<path d="M139.07 58.1934H177.542" stroke="#2855AF" stroke-miterlimit="10"/>
<path d="M139.07 61.875H177.542" stroke="#2855AF" stroke-miterlimit="10"/>
<path d="M139.07 65.5566H177.542" stroke="#2855AF" stroke-miterlimit="10"/>
<path d="M73.9961 96.6582H108.583" stroke="#2855AF" stroke-miterlimit="10"/>
<path d="M73.9961 100.348H108.583" stroke="#2855AF" stroke-miterlimit="10"/>
<path d="M73.9961 104.029H108.583" stroke="#2855AF" stroke-miterlimit="10"/>
<path d="M141.121 96.6582H175.701" stroke="#2855AF" stroke-miterlimit="10"/>
<path d="M141.121 100.348H175.701" stroke="#2855AF" stroke-miterlimit="10"/>
<path d="M141.121 104.029H175.701" stroke="#2855AF" stroke-miterlimit="10"/>
<path d="M205.777 96.6582H240.357" stroke="#2855AF" stroke-miterlimit="10"/>
<path d="M205.777 100.348H240.357" stroke="#2855AF" stroke-miterlimit="10"/>
<path d="M205.777 104.029H240.357" stroke="#2855AF" stroke-miterlimit="10"/>
<path d="M107.969 131.652H134.366" stroke="#2855AF" stroke-miterlimit="10"/>
<path d="M107.969 135.334H134.366" stroke="#2855AF" stroke-miterlimit="10"/>
<path d="M107.969 139.023H134.366" stroke="#2855AF" stroke-miterlimit="10"/>
<path d="M225.023 61.4065C224.948 61.4049 224.876 61.3792 224.817 61.3334C224.757 61.2875 224.714 61.2239 224.694 61.1518C224.674 61.0797 224.677 61.003 224.704 60.9329C224.73 60.8629 224.778 60.8031 224.841 60.7625L225.107 60.5945L225.009 60.6505C224.931 60.6842 224.844 60.6884 224.763 60.6625C224.682 60.6365 224.614 60.5821 224.57 60.5093C224.526 60.4366 224.511 60.3505 224.526 60.267C224.541 60.1835 224.586 60.1084 224.652 60.0555L226.052 59.1665L224.827 59.8665C224.749 59.9058 224.658 59.9143 224.574 59.8901C224.49 59.866 224.418 59.8111 224.372 59.7363C224.326 59.6615 224.31 59.5722 224.327 59.4861C224.344 59.4 224.392 59.3234 224.463 59.2715L226.969 57.6335L224.596 59.0335C224.518 59.0779 224.425 59.0903 224.338 59.0681C224.25 59.046 224.175 58.9909 224.127 58.9145C224.081 58.8367 224.066 58.7442 224.086 58.6558C224.105 58.5675 224.158 58.4898 224.232 58.4385L228.138 55.8275L224.33 58.0185C224.254 58.0632 224.163 58.0764 224.077 58.0555C223.99 58.0347 223.916 57.9813 223.868 57.9065C223.843 57.8698 223.826 57.8285 223.817 57.785C223.808 57.7415 223.807 57.6966 223.816 57.653C223.824 57.6094 223.841 57.5679 223.866 57.5309C223.89 57.4939 223.922 57.4622 223.959 57.4375L229.818 53.2375L223.966 56.6185C223.888 56.6629 223.795 56.6753 223.708 56.6531C223.62 56.631 223.545 56.5759 223.497 56.4995C223.449 56.424 223.432 56.3327 223.451 56.2451C223.469 56.1574 223.521 56.0804 223.595 56.0305L227.795 53.1185L223.665 55.5055C223.589 55.5491 223.499 55.5625 223.414 55.5431C223.328 55.5236 223.253 55.4728 223.203 55.4005C223.155 55.325 223.138 55.2337 223.157 55.1461C223.175 55.0584 223.227 54.9815 223.301 54.9315L225.681 53.3285L223.434 54.6235C223.356 54.6679 223.263 54.6803 223.176 54.6581C223.088 54.636 223.013 54.5809 222.965 54.5045C222.918 54.4282 222.902 54.3363 222.922 54.2486C222.941 54.1609 222.995 54.0844 223.07 54.0355L224.603 52.9995L223.203 53.8045C223.127 53.8402 223.04 53.8471 222.959 53.8239C222.878 53.8007 222.808 53.749 222.762 53.6782C222.716 53.6075 222.697 53.5226 222.708 53.439C222.72 53.3555 222.762 53.279 222.825 53.2235L226.92 50.1925L222.867 52.5305C222.79 52.5717 222.701 52.5828 222.616 52.5615C222.532 52.5402 222.458 52.4881 222.41 52.4154C222.362 52.3427 222.342 52.2547 222.356 52.1685C222.369 52.0823 222.414 52.0042 222.482 51.9495L226.108 49.1495L222.503 51.2005C222.425 51.2439 222.334 51.2564 222.247 51.2357C222.16 51.2149 222.084 51.1624 222.034 51.0885C221.985 51.0139 221.968 50.9231 221.985 50.8356C222.002 50.748 222.052 50.6705 222.125 50.6195L223.896 49.3105L222.258 50.2625C222.18 50.3059 222.089 50.3184 222.002 50.2977C221.915 50.2769 221.839 50.2244 221.789 50.1505C221.741 50.0762 221.723 49.9865 221.739 49.8995C221.755 49.8125 221.803 49.7347 221.873 49.6815L223.322 48.5825L222.013 49.3385C221.937 49.3832 221.846 49.3964 221.76 49.3755C221.673 49.3547 221.599 49.3013 221.551 49.2265C221.502 49.1538 221.482 49.0652 221.495 48.9784C221.508 48.8915 221.553 48.8127 221.621 48.7575L222.321 48.1905L221.761 48.5125C221.692 48.5535 221.611 48.569 221.531 48.5562C221.452 48.5434 221.38 48.5032 221.327 48.4425C221.278 48.3796 221.251 48.302 221.251 48.222C221.251 48.1421 221.278 48.0644 221.327 48.0015L222.433 46.6015L221.425 47.1825C221.368 47.2202 221.301 47.2402 221.233 47.2402C221.164 47.2402 221.097 47.2202 221.04 47.1825C220.987 47.1417 220.946 47.0864 220.922 47.0232C220.898 46.9601 220.893 46.8915 220.907 46.8255L221.012 46.3985C220.953 46.3945 220.895 46.3766 220.844 46.3462C220.793 46.3158 220.75 46.2738 220.718 46.2235C220.675 46.1423 220.664 46.0475 220.689 45.9588C220.714 45.8701 220.772 45.7944 220.851 45.7475L221.355 45.4535C221.414 45.4206 221.482 45.4056 221.549 45.4103C221.617 45.415 221.682 45.4391 221.736 45.4799C221.79 45.5207 221.831 45.5762 221.854 45.6399C221.877 45.7035 221.881 45.7725 221.866 45.8385L221.775 46.1955L223.623 45.1315C223.693 45.0927 223.775 45.0792 223.854 45.0933C223.933 45.1074 224.005 45.1482 224.057 45.2089C224.11 45.2696 224.14 45.3465 224.142 45.4267C224.145 45.507 224.12 45.5856 224.071 45.6495L222.972 47.0495L226.283 45.1385C226.36 45.0965 226.449 45.084 226.534 45.1033C226.619 45.1227 226.694 45.1726 226.745 45.2435C226.794 45.317 226.813 45.4062 226.798 45.4931C226.784 45.58 226.738 45.6584 226.668 45.7125L225.968 46.2865L227.718 45.2715C227.795 45.2303 227.884 45.2193 227.969 45.2405C228.054 45.2618 228.127 45.3139 228.175 45.3866C228.224 45.4593 228.243 45.5474 228.229 45.6336C228.216 45.7197 228.171 45.7978 228.103 45.8525L226.654 46.9515L229.041 45.5515C229.119 45.5082 229.211 45.4956 229.297 45.5164C229.384 45.5371 229.46 45.5896 229.51 45.6635C229.558 45.7379 229.576 45.8275 229.56 45.9145C229.545 46.0015 229.497 46.0794 229.426 46.1325L227.648 47.4415L230.315 45.9015C230.353 45.8762 230.395 45.8586 230.44 45.8497C230.484 45.8408 230.53 45.8407 230.574 45.8495C230.619 45.8582 230.661 45.8757 230.699 45.9008C230.737 45.926 230.769 45.9583 230.795 45.996C230.82 46.0337 230.838 46.076 230.846 46.1205C230.855 46.165 230.855 46.2108 230.847 46.2553C230.838 46.2999 230.82 46.3422 230.795 46.38C230.77 46.4178 230.738 46.4502 230.7 46.4755L227.074 49.2755L231.855 46.4755C231.933 46.4322 232.025 46.4196 232.111 46.4404C232.198 46.4611 232.274 46.5136 232.324 46.5875C232.372 46.6619 232.39 46.7515 232.374 46.8385C232.359 46.9255 232.311 47.0034 232.24 47.0565L228.138 50.0875L233.192 47.1755C233.27 47.1305 233.362 47.117 233.449 47.1379C233.536 47.1587 233.612 47.2123 233.661 47.2875C233.71 47.3641 233.727 47.4565 233.708 47.5453C233.69 47.6341 233.638 47.7123 233.563 47.7635L232.023 48.7925L234.011 47.6445C234.089 47.6075 234.177 47.6002 234.259 47.6239C234.342 47.6477 234.412 47.7009 234.458 47.7735C234.504 47.846 234.522 47.9328 234.508 48.0175C234.494 48.1021 234.449 48.1786 234.382 48.2325L232.009 49.8355L234.809 48.2115C234.887 48.1745 234.975 48.1672 235.057 48.1909C235.14 48.2147 235.21 48.2679 235.256 48.3405C235.302 48.413 235.32 48.4998 235.306 48.5845C235.292 48.6691 235.247 48.7456 235.18 48.7995L230.98 51.7115L235.754 48.9535C235.832 48.9165 235.92 48.9092 236.002 48.9329C236.085 48.9567 236.155 49.0099 236.201 49.0825C236.247 49.155 236.265 49.2418 236.251 49.3265C236.237 49.4111 236.192 49.4876 236.125 49.5415L230.266 53.7415L236.79 49.9685C236.869 49.9242 236.961 49.9118 237.049 49.9339C237.136 49.9561 237.211 50.0111 237.259 50.0875C237.284 50.1246 237.301 50.1663 237.309 50.2101C237.318 50.2539 237.318 50.2989 237.308 50.3426C237.299 50.3862 237.282 50.4276 237.256 50.4644C237.231 50.5011 237.199 50.5324 237.161 50.5565L233.248 53.1815L237.497 50.7245C237.576 50.6852 237.666 50.6768 237.75 50.7009C237.835 50.725 237.907 50.7799 237.953 50.8548C237.998 50.9296 238.014 51.0189 237.997 51.105C237.98 51.191 237.932 51.2676 237.861 51.3195L235.355 52.9575L238.036 51.4105C238.114 51.3643 238.207 51.3509 238.295 51.3732C238.383 51.3955 238.459 51.4517 238.505 51.5295C238.53 51.5671 238.546 51.6091 238.554 51.6532C238.562 51.6972 238.561 51.7424 238.551 51.7861C238.542 51.8298 238.523 51.8711 238.497 51.9076C238.471 51.9441 238.438 51.975 238.4 51.9985L237 52.8945L238.449 52.0545C238.527 52.0083 238.62 51.9949 238.708 52.0172C238.796 52.0395 238.872 52.0957 238.918 52.1735C238.964 52.2514 238.979 52.3439 238.96 52.4322C238.94 52.5206 238.888 52.5983 238.813 52.6495L238.547 52.8175L238.848 52.6425C238.926 52.6055 239.014 52.5982 239.096 52.6219C239.179 52.6457 239.249 52.6989 239.295 52.7715C239.341 52.844 239.359 52.9308 239.345 53.0155C239.331 53.1001 239.286 53.1766 239.219 53.2305L235.187 56.1005L239.387 53.6715C239.464 53.6247 239.557 53.6102 239.645 53.6312C239.732 53.6522 239.808 53.7069 239.856 53.7835C239.905 53.8601 239.922 53.9525 239.903 54.0413C239.885 54.1301 239.833 54.2083 239.758 54.2595L239.667 54.3155C239.745 54.2711 239.837 54.2583 239.924 54.2796C240.011 54.301 240.087 54.3549 240.135 54.4303C240.183 54.5057 240.201 54.5968 240.184 54.6848C240.168 54.7729 240.118 54.8511 240.045 54.9035L239.261 55.4565L240.003 55.0365C240.074 54.9911 240.158 54.9731 240.241 54.986C240.324 54.9989 240.4 55.0417 240.453 55.1064C240.507 55.1711 240.535 55.2531 240.532 55.337C240.529 55.4209 240.495 55.5008 240.437 55.5615L239.107 57.0945L240.395 56.3525C240.457 56.3157 240.53 56.2999 240.602 56.3074C240.673 56.315 240.741 56.3455 240.794 56.3945C240.849 56.4417 240.888 56.5047 240.905 56.5749C240.923 56.6451 240.918 56.7191 240.892 56.7865L240.752 57.1155C240.82 57.108 240.889 57.1205 240.95 57.1516C241.011 57.1827 241.061 57.231 241.095 57.2905C241.141 57.3705 241.154 57.4653 241.13 57.5544C241.106 57.6436 241.049 57.7198 240.969 57.7665L240.227 58.1935C240.165 58.2312 240.092 58.2479 240.019 58.2413C239.946 58.2346 239.877 58.2049 239.823 58.1565C239.768 58.108 239.73 58.0434 239.715 57.972C239.7 57.9006 239.707 57.8262 239.737 57.7595L239.856 57.4655L237.651 58.7395C237.58 58.7775 237.497 58.7895 237.418 58.7735C237.338 58.7574 237.267 58.7144 237.216 58.6516C237.165 58.5889 237.137 58.5103 237.137 58.4293C237.137 58.3484 237.166 58.27 237.217 58.2075L238.547 56.6745L233.444 59.6005C233.367 59.6434 233.277 59.6558 233.191 59.635C233.106 59.6142 233.031 59.5619 232.982 59.4885C232.957 59.4518 232.94 59.4105 232.931 59.367C232.922 59.3235 232.921 59.2787 232.93 59.235C232.938 59.1914 232.955 59.1499 232.98 59.1129C233.004 59.0759 233.036 59.0442 233.073 59.0195L233.857 58.4595L230.952 60.1325C230.874 60.1769 230.781 60.1893 230.694 60.1671C230.606 60.1449 230.531 60.0899 230.483 60.0135C230.436 59.9372 230.42 59.8453 230.44 59.7576C230.459 59.6698 230.513 59.5934 230.588 59.5445L230.672 59.4815L228.733 60.6015C228.657 60.6461 228.566 60.6594 228.48 60.6385C228.393 60.6177 228.319 60.5643 228.271 60.4895C228.246 60.4528 228.229 60.4115 228.22 60.368C228.211 60.3245 228.21 60.2796 228.219 60.236C228.227 60.1924 228.244 60.1509 228.269 60.1139C228.293 60.0769 228.325 60.0452 228.362 60.0205L232.415 57.1715L225.198 61.3365C225.148 61.3772 225.087 61.4016 225.023 61.4065Z" fill="#7CCCDB"/>
<path d="M214.237 71.2057C212.655 69.8598 211.381 68.1893 210.501 66.3075C209.622 64.4257 209.158 62.3767 209.141 60.2997C209.141 52.0397 216.302 45.3477 225.136 45.3477C233.97 45.3477 241.138 52.0397 241.138 60.2997C241.138 68.5597 233.977 75.2517 225.136 75.2517C222.821 75.252 220.531 74.7754 218.409 73.8517" stroke="#2855AF" stroke-miterlimit="10"/>
<path d="M195.047 57.0742H205.148" stroke="#2855AF" stroke-miterlimit="10"/>
<path d="M195.047 60.5527H205.148" stroke="#2855AF" stroke-miterlimit="10"/>
<path d="M195.047 64.0391H205.148" stroke="#2855AF" stroke-miterlimit="10"/>
<path d="M72.9453 116.469H90.7113" stroke="#2855AF" stroke-miterlimit="10"/>
<path d="M72.9453 119.955H90.7113" stroke="#2855AF" stroke-miterlimit="10"/>
<path d="M69.2578 71.1777H87.0238" stroke="#2855AF" stroke-miterlimit="10"/>
<path d="M72.9453 123.434H90.7113" stroke="#2855AF" stroke-miterlimit="10"/>
<path d="M72.9453 130.748H90.7113" stroke="#2855AF" stroke-miterlimit="10"/>
<path d="M72.9453 134.234H90.7113" stroke="#2855AF" stroke-miterlimit="10"/>
<path d="M72.9453 137.721H90.7113" stroke="#2855AF" stroke-miterlimit="10"/>
<path d="M220.879 45.7266L225.198 61.3576L240.997 57.7526" stroke="#2855AF" stroke-miterlimit="10"/>
<path d="M69.4453 49.7305V67.1325H97.3893" stroke="#2855AF" stroke-miterlimit="10"/>
<path d="M78.1467 52.1035H72.3438V67.1325H78.1467V52.1035Z" fill="#7CCCDB" stroke="#2855AF" stroke-miterlimit="10"/>
<path d="M92.9124 55.5273H87.1094V67.1264H92.9124V55.5273Z" fill="#7CCCDB" stroke="#2855AF" stroke-miterlimit="10"/>
<path d="M85.5335 47.3574H79.7305V67.1324H85.5335V47.3574Z" fill="#7CCCDB" stroke="#2855AF" stroke-miterlimit="10"/>
<path d="M35.8033 161.876C35.8033 161.876 35.8033 158.95 31.7083 154.876C27.6133 150.802 24.9813 148.443 24.9813 148.443C24.9813 148.443 22.9303 155.17 26.7383 159.265C29.534 162.146 32.5662 164.787 35.8033 167.161V161.876Z" fill="#7CCCDB"/>
<path d="M29.8628 180.146C29.8628 180.146 29.8628 177.22 25.7678 173.146C21.6728 169.072 19.0408 166.699 19.0408 166.699C19.0408 166.699 16.9898 173.426 20.7908 177.521C23.5988 180.402 26.6427 183.043 29.8908 185.417L29.8628 180.146Z" fill="#7CCCDB"/>
<path d="M35.5452 166.861C35.5452 166.861 35.8602 163.949 40.3612 160.309C44.8622 156.669 47.7322 154.625 47.7322 154.625C47.7322 154.625 49.0622 161.527 44.8482 165.202C41.7594 167.769 38.4627 170.075 34.9922 172.097L35.5452 166.861Z" fill="#7CCCDB"/>
<path d="M28.3702 188.435C28.3702 188.435 28.9792 185.579 33.8442 182.429C38.7092 179.279 41.7682 177.529 41.7682 177.529C41.7682 177.529 42.3632 184.529 37.7852 187.742C34.4527 189.971 30.9406 191.919 27.2852 193.566L28.3702 188.435Z" fill="#7CCCDB"/>
<path d="M29.7155 211.962C29.7155 211.962 29.7155 209.036 33.8175 204.962C37.9195 200.888 40.5445 198.529 40.5445 198.529C40.5445 198.529 42.5885 205.256 38.7875 209.351C35.9813 212.234 32.9372 214.875 29.6875 217.247L29.7155 211.962Z" fill="#7CCCDB"/>
<path d="M29.6513 217.702C29.6513 217.702 30.0643 214.811 26.5923 210.17C23.1203 205.529 20.8453 202.848 20.8453 202.848C20.8453 202.848 17.8633 209.218 21.0483 213.81C23.4072 217.057 26.0344 220.101 28.9023 222.91L29.6513 217.702Z" fill="#7CCCDB"/>
<path d="M25.6131 234.725C25.6131 234.725 25.6131 231.799 29.7081 227.725C33.8031 223.651 36.4351 221.285 36.4351 221.285C36.4351 221.285 38.4861 228.012 34.6781 232.107C31.8725 234.993 28.8284 237.637 25.5781 240.01L25.6131 234.725Z" fill="#7CCCDB"/>
<path d="M28.3442 250.153C28.3442 250.153 27.6092 247.318 30.5282 242.32C33.4472 237.322 35.4282 234.389 35.4282 234.389C35.4282 234.389 39.1102 240.381 36.4712 245.309C34.4912 248.804 32.2248 252.128 29.6952 255.249L28.3442 250.153Z" fill="#7CCCDB"/>
<path d="M36.1762 161.1C35.9698 164.151 35.5959 167.189 35.0562 170.2C33.4392 178.6 29.3862 183.962 27.7692 191.515C26.1522 199.068 30.8002 208.805 29.5542 218.507C28.3082 228.209 24.5352 233.613 25.6132 240.088C26.6912 246.563 32.3612 264.098 32.3612 264.098" stroke="#2855AF" stroke-linecap="round" stroke-linejoin="round"/>
<path d="M35.5117 168.806L39.9217 165.418" stroke="#2855AF" stroke-linecap="round" stroke-linejoin="round"/>
<path d="M35.7152 164.9L33.8672 161.617" stroke="#2855AF" stroke-linecap="round" stroke-linejoin="round"/>
<path d="M28.0156 191.199C28.0156 191.199 31.7116 188.399 35.5126 185.662" stroke="#2855AF" stroke-linecap="round" stroke-linejoin="round"/>
<path d="M29.8629 185.411C29.8629 185.411 26.7829 179.377 23.2969 175.373" stroke="#2855AF" stroke-linecap="round" stroke-linejoin="round"/>
<path d="M29.8633 216.126C31.9733 212.237 34.6352 208.675 37.7663 205.549" stroke="#2855AF" stroke-linecap="round" stroke-linejoin="round"/>
<path d="M29.1477 220.229C28.0253 217.591 26.686 215.051 25.1437 212.634C22.9877 209.456 22.6797 209.043 22.6797 209.043" stroke="#2855AF" stroke-linecap="round" stroke-linejoin="round"/>
<path d="M25.6133 240.101C26.5481 237.774 27.6597 235.523 28.9383 233.367C30.2178 231.37 31.66 229.483 33.2503 227.725" stroke="#2855AF" stroke-linecap="round" stroke-linejoin="round"/>
<path d="M29.6793 255.249C29.4646 253.029 29.8464 250.791 30.7853 248.767C32.3253 245.792 34.0683 241.886 34.7893 240.367" stroke="#2855AF" stroke-linecap="round" stroke-linejoin="round"/>
<path d="M9.00175 200.957C9.00175 200.957 8.67975 199.123 10.8078 196.113C12.9358 193.103 14.3078 191.346 14.3078 191.346C14.3078 191.346 16.3238 195.343 14.3778 198.346C12.9373 200.456 11.3216 202.442 9.54776 204.282L9.00175 200.957Z" fill="#7CCCDB"/>
<path d="M14.701 211.773C14.701 211.773 14.379 209.939 16.507 206.922C18.635 203.905 20.007 202.162 20.007 202.162C20.007 202.162 22.016 206.159 20.077 209.162C18.6355 211.274 17.0199 213.262 15.247 215.105L14.701 211.773Z" fill="#7CCCDB"/>
<path d="M9.7016 204.058C9.7016 204.058 9.1906 202.266 5.9706 200.474C2.75061 198.682 0.734605 197.674 0.734605 197.674C0.734605 197.674 0.650605 202.154 3.6956 203.974C5.90048 205.275 8.21176 206.388 10.6046 207.299L9.7016 204.058Z" fill="#7CCCDB"/>
<path d="M16.5314 216.805C16.5314 216.805 15.8314 215.083 12.4434 213.634C9.05541 212.185 6.94141 211.436 6.94141 211.436C6.94141 211.436 7.33341 215.895 10.5534 217.407C12.891 218.435 15.3096 219.268 17.7844 219.899L16.5314 216.805Z" fill="#7CCCDB"/>
<path d="M18.2418 231.707C18.2418 231.707 17.9268 229.873 14.9098 227.745C11.8928 225.617 10.0098 224.441 10.0098 224.441C10.0098 224.441 9.44975 228.886 12.2848 231.042C14.3425 232.545 16.5225 233.873 18.8018 235.011L18.2418 231.707Z" fill="#7CCCDB"/>
<path d="M18.9076 235.3C18.9076 235.3 18.3336 233.529 20.0066 230.246C21.6796 226.963 22.8066 225.031 22.8066 225.031C22.8066 225.031 25.3686 228.699 23.8706 231.926C22.7473 234.22 21.4312 236.414 19.9366 238.485L18.9076 235.3Z" fill="#7CCCDB"/>
<path d="M24.0468 250.098C24.0468 250.098 24.2638 248.25 27.1478 245.954C30.0318 243.658 31.8728 242.377 31.8728 242.377C31.8728 242.377 32.6778 246.78 29.9758 249.09C28.0008 250.71 25.8934 252.162 23.6758 253.43L24.0468 250.098Z" fill="#7CCCDB"/>
<path d="M23.2873 245.534C23.2873 245.534 23.0003 243.7 19.9553 241.6C16.9103 239.5 15.0553 238.289 15.0553 238.289C15.0553 238.289 14.5023 242.734 17.3373 244.89C19.4021 246.393 21.589 247.721 23.8753 248.859L23.2873 245.534Z" fill="#7CCCDB"/>
<path d="M23.2447 255.508C23.2447 255.508 23.4057 253.653 21.0257 250.832C18.6457 248.011 17.1057 246.387 17.1057 246.387C17.1057 246.387 15.4467 250.545 17.6377 253.345C19.2669 255.326 21.0606 257.167 22.9997 258.847L23.2447 255.508Z" fill="#7CCCDB"/>
<path d="M8.67188 200.531C9.132 202.427 9.69517 204.297 10.3589 206.131C12.2839 211.206 15.4059 214.146 17.2469 218.731C19.0879 223.316 17.2469 229.931 19.0529 235.853C20.8589 241.775 23.8409 244.778 23.8689 248.957C23.8969 253.136 22.2449 264.7 22.2449 264.7" stroke="#2855AF" stroke-linecap="round" stroke-linejoin="round"/>
<path d="M9.92506 205.27L6.78906 203.625" stroke="#2855AF" stroke-linecap="round" stroke-linejoin="round"/>
<path d="M9.37109 202.847L10.1761 200.586" stroke="#2855AF" stroke-linecap="round" stroke-linejoin="round"/>
<path d="M17.0529 218.499C17.0529 218.499 14.4349 217.162 11.7539 215.832" stroke="#2855AF" stroke-linecap="round" stroke-linejoin="round"/>
<path d="M15.3008 215.076C16.0696 212.646 17.0852 210.3 18.3318 208.076" stroke="#2855AF" stroke-linecap="round" stroke-linejoin="round"/>
<path d="M18.604 234.334C16.857 232.126 14.8012 230.181 12.5 228.559" stroke="#2855AF" stroke-linecap="round" stroke-linejoin="round"/>
<path d="M19.5 236.832C19.9155 235.055 20.4774 233.316 21.18 231.631C22.188 229.405 22.335 229.111 22.335 229.111" stroke="#2855AF" stroke-linecap="round" stroke-linejoin="round"/>
<path d="M23.7031 252.1C24.7235 250.837 25.8525 249.666 27.0771 248.6C27.8705 248.018 28.615 247.372 29.3031 246.668" stroke="#2855AF" stroke-linecap="round" stroke-linejoin="round"/>
<path d="M23.868 248.908C23.0338 247.551 22.0978 246.259 21.068 245.044C20.0479 243.93 18.9382 242.903 17.75 241.971" stroke="#2855AF" stroke-linecap="round" stroke-linejoin="round"/>
<path d="M23.0027 258.847C22.8942 257.43 22.4111 256.067 21.6027 254.899C20.3147 253.205 18.8027 250.944 18.1797 250.055" stroke="#2855AF" stroke-linecap="round" stroke-linejoin="round"/>
<path d="M324.796 77.2711C327.97 63.613 319.47 49.9684 305.812 46.795C292.154 43.6217 278.509 52.1213 275.336 65.7795C272.162 79.4376 280.662 93.0823 294.32 96.2556C307.978 99.4289 321.623 90.9293 324.796 77.2711Z" fill="#2855AF" stroke="#2855AF" stroke-miterlimit="10"/>
<path d="M308.452 91.3844C319.421 86.7399 324.547 74.0833 319.903 63.1149C315.258 52.1466 302.602 47.0202 291.633 51.6647C280.665 56.3091 275.539 68.9658 280.183 79.9341C284.827 90.9024 297.484 96.0289 308.452 91.3844Z" fill="white" stroke="#2855AF" stroke-miterlimit="10"/>
<path d="M306.707 57.6816L300.043 71.5066H309.563" stroke="#2855AF" stroke-miterlimit="10"/>
<path d="M302.465 71.499C302.466 71.9783 302.326 72.4473 302.06 72.8465C301.795 73.2457 301.417 73.5572 300.975 73.7416C300.532 73.926 300.045 73.975 299.575 73.8823C299.105 73.7896 298.672 73.5595 298.333 73.2211C297.994 72.8826 297.762 72.4511 297.668 71.9811C297.574 71.5111 297.622 71.0237 297.805 70.5808C297.988 70.1378 298.298 69.7591 298.697 69.4927C299.095 69.2262 299.564 69.084 300.043 69.084C300.361 69.0831 300.676 69.1449 300.969 69.2658C301.263 69.3868 301.53 69.5645 301.755 69.7889C301.98 70.0132 302.159 70.2797 302.281 70.5732C302.402 70.8666 302.465 71.1813 302.465 71.499Z" fill="#7CCCDB" stroke="#2855AF" stroke-miterlimit="10"/>
<path d="M162.765 137.105L159.503 132.359C159.503 132.359 160.147 124.729 159.419 123.539C158.691 122.349 146.903 120.97 146.203 121.852C145.503 122.734 147.981 123.532 147.981 123.532C147.981 123.532 146.301 124.274 146.476 125.121C146.735 126.367 148.884 126.521 148.884 126.521C148.884 126.521 147.176 127.662 147.386 128.404C147.554 128.992 149.262 129.454 149.262 129.454C149.262 129.454 147.533 130.238 148.947 131.239C150.361 132.24 151.558 133.276 151.558 133.276C151.558 133.276 150.578 135.376 153.231 137.203C155.884 139.03 160.469 142.355 160.469 142.355L162.765 137.105Z" fill="white" stroke="#2855AF" stroke-linecap="round" stroke-linejoin="round"/>
<path d="M146.642 118.674L144.031 118.457V119.262L146.131 120.445C146.251 119.841 146.422 119.249 146.642 118.674V118.674Z" fill="#2855AF" stroke="#2855AF" stroke-linecap="round" stroke-linejoin="round"/>
<path d="M156.905 123.958C156.788 123.963 156.672 123.946 156.562 123.909L146.202 120.64C146.067 120.604 145.94 120.541 145.83 120.455C145.72 120.368 145.629 120.26 145.561 120.138C145.494 120.015 145.452 119.88 145.439 119.741C145.425 119.602 145.44 119.461 145.482 119.328C145.524 119.194 145.592 119.071 145.684 118.965C145.775 118.858 145.886 118.772 146.012 118.71C146.137 118.648 146.274 118.613 146.414 118.605C146.554 118.597 146.693 118.618 146.825 118.666L157.185 121.935C157.418 122.009 157.617 122.163 157.748 122.37C157.878 122.577 157.931 122.823 157.898 123.065C157.864 123.307 157.746 123.53 157.564 123.693C157.383 123.856 157.149 123.95 156.905 123.958V123.958Z" fill="white" stroke="#2855AF" stroke-linecap="round" stroke-linejoin="round"/>
<path d="M162.302 125.997C162.145 125.997 161.989 125.974 161.84 125.927L156.492 124.24C156.29 124.212 156.097 124.14 155.926 124.029C155.755 123.919 155.61 123.772 155.501 123.6C155.392 123.428 155.323 123.234 155.297 123.032C155.271 122.83 155.289 122.625 155.35 122.431C155.412 122.237 155.515 122.058 155.652 121.908C155.79 121.758 155.958 121.639 156.146 121.561C156.334 121.483 156.537 121.446 156.741 121.454C156.944 121.462 157.143 121.515 157.325 121.608L162.673 123.295C163.018 123.409 163.306 123.653 163.475 123.976C163.643 124.299 163.68 124.675 163.576 125.024C163.488 125.297 163.319 125.537 163.092 125.711C162.864 125.885 162.588 125.984 162.302 125.997Z" fill="#2855AF" stroke="#2855AF" stroke-linecap="round" stroke-linejoin="round"/>
<path d="M157.991 127.557C157.509 126.159 156.948 124.789 156.311 123.455C155.576 122.097 154.162 120.928 153.602 119.563C153.042 118.198 151.544 120.312 152.097 121.334C152.65 122.356 153.903 123.875 153.924 124.568C153.945 125.261 154.127 125.772 153.329 128.068C152.531 130.364 152.09 132.968 153.875 134.802" fill="white"/>
<path d="M157.991 127.557C157.509 126.159 156.948 124.789 156.311 123.455C155.576 122.097 154.162 120.928 153.602 119.563C153.042 118.198 151.544 120.312 152.097 121.334C152.65 122.356 153.903 123.875 153.924 124.568C153.945 125.261 154.127 125.772 153.329 128.068C152.531 130.364 152.09 132.968 153.875 134.802" stroke="#2855AF" stroke-linecap="round" stroke-linejoin="round"/>
<path d="M148.008 123.531L153.923 124.567" stroke="#2855AF" stroke-linecap="round" stroke-linejoin="round"/>
<path d="M148.91 126.527C149.61 126.331 153.327 128.039 153.327 128.039" stroke="#2855AF" stroke-linecap="round" stroke-linejoin="round"/>
<path d="M149.289 129.461L152.362 130.49" stroke="#2855AF" stroke-linecap="round" stroke-linejoin="round"/>
<path d="M204.182 127.984C204.182 127.984 202.418 126.941 201.641 129.734C200.864 132.527 198.582 137.434 197.574 138.498C196.566 139.562 186.654 149.376 186.654 149.376C186.654 149.376 182.398 146.037 181.397 147.276C180.976 147.89 180.391 148.375 179.71 148.676L162.714 135.341L156.414 144.868C156.414 144.868 179.514 165.98 181.446 166.617C183.378 167.254 184.743 167.037 185.429 166.673C186.115 166.309 198.799 156.761 198.799 156.761C198.799 156.761 206.534 131.799 207.199 130.917C207.864 130.035 204.182 127.984 204.182 127.984Z" fill="#7CCCDB" stroke="#2855AF" stroke-linecap="round" stroke-linejoin="round"/>
<path d="M181.355 149.432C181.355 149.432 184.799 153.408 184.799 158.441Z" fill="#7CCCDB"/>
<path d="M181.355 149.432C181.355 149.432 184.799 153.408 184.799 158.441" stroke="#2855AF" stroke-linecap="round" stroke-linejoin="round"/>
<path d="M186.919 151.021C186.919 151.021 187.976 153.674 186.387 159.498Z" fill="#7CCCDB"/>
<path d="M186.919 151.021C186.919 151.021 187.976 153.674 186.387 159.498" stroke="#2855AF" stroke-linecap="round" stroke-linejoin="round"/>
<path d="M211.755 97.177C211.755 97.177 204.251 92.277 205.14 87.622C206.029 82.967 222.857 79.222 232.531 82.365C242.205 85.508 244.172 99.984 242.898 108.916C241.624 117.848 240.854 138.232 240.854 138.232L208.031 139.198C208.031 139.198 211.09 115.328 211.727 107.782C212.364 100.236 211.755 97.177 211.755 97.177Z" fill="#2855AF" stroke="#2855AF" stroke-linecap="round" stroke-linejoin="round"/>
<path d="M194.956 228.602C195.656 235.735 196.986 267.165 197.756 271.82H231.882C231.812 266.458 231.721 230.24 232.491 227.279C233.464 223.576 234.829 211.228 233.324 204.144C231.819 197.06 229.992 193.644 229.992 193.644L194.572 193.609L194.677 196.514C194.677 196.514 194.011 218.501 194.956 228.602Z" fill="#2855AF" stroke="#2855AF" stroke-linecap="round" stroke-linejoin="round"/>
<path d="M202.531 207.211C203.931 208.17 205.331 208.856 205.331 210.242C206.031 222.688 208.789 257.646 209.762 270.239" stroke="white" stroke-linecap="round" stroke-linejoin="round"/>
<path d="M212.701 127.5L230.019 128.144C230.019 128.144 216.117 149.543 216.236 161.303C216.355 173.063 218.686 197.437 218.686 197.437C218.686 197.437 211.07 203.464 203.195 202.337C202.341 202.211 201.886 195.155 201.886 195.155C201.886 195.155 201.382 202.008 200.801 201.903C196.391 201.112 194.676 196.555 194.676 196.555L195.593 173C195.593 173 195.593 157.551 197.315 153.113C199.037 148.675 210.671 128.963 210.671 128.963L212.701 127.5Z" fill="white" stroke="#2855AF" stroke-linecap="round" stroke-linejoin="round"/>
<path d="M212.002 141.137C212.002 141.137 206.647 152.267 204.687 158.791C202.727 165.315 201.887 195.128 201.887 195.128" stroke="#2855AF" stroke-linecap="round" stroke-linejoin="round"/>
<path d="M227.934 127.977C227.934 127.977 215.789 146.093 213.444 152.617C211.099 159.141 209.531 184.117 209.839 194.701C210.147 205.285 213.493 216.961 213.493 216.961C223.341 218.532 233.416 217.841 242.956 214.938C242.956 214.938 238.714 196.157 236.656 189.99C235.371 185.948 234.402 181.812 233.758 177.621C233.758 177.621 247.702 133.157 247.702 132.471C247.702 131.785 247.429 131.071 246.036 130.672C244.643 130.273 227.934 127.977 227.934 127.977Z" fill="#7CCCDB" stroke="#2855AF" stroke-linecap="round" stroke-linejoin="round"/>
<path d="M216.805 197.278L234.83 195.836L235.068 198.72L227.382 199.679" fill="#7CCCDB"/>
<path d="M216.805 197.278L234.83 195.836L235.068 198.72L227.382 199.679" stroke="#2855AF" stroke-linecap="round" stroke-linejoin="round"/>
<path d="M212.538 129.81C212.538 129.81 198.069 155.381 197.747 160.001C197.425 164.621 195.283 185.901 194.093 192.628C192.903 199.355 187.758 212.417 187.758 212.417C187.758 212.417 186.435 206.691 186.82 204.143C187.205 201.595 192.777 187.133 193.372 183.885C193.967 180.637 194.772 169.08 194.632 164.012C194.492 158.944 194.142 155.262 195.192 151.545C196.242 147.828 204.18 127.983 204.18 127.983L215.695 127.416L212.538 129.81Z" fill="#7CCCDB" stroke="#2855AF" stroke-linecap="round" stroke-linejoin="round"/>
<path d="M209.404 127.697L206.996 138.722L213.184 133.92L209.404 127.697Z" fill="white" stroke="#2855AF" stroke-linecap="round" stroke-linejoin="round"/>
<path d="M216.777 122.35L209.406 127.698L212.185 134.971L212.031 141.138L220.389 128.741L216.777 122.35Z" fill="white" stroke="#2855AF" stroke-linecap="round" stroke-linejoin="round"/>
<path d="M216.347 119.451C216.347 119.451 214.947 129.762 214.506 132.506C214.065 135.25 212 141.137 212 141.137C212 141.137 225.139 128.432 225.79 127.382C226.441 126.332 228.709 116.182 228.709 116.182C228.709 116.182 220.281 119.339 216.347 119.451Z" fill="white" stroke="#2855AF" stroke-linecap="round" stroke-linejoin="round"/>
<path d="M215.949 122.342C217.741 123.462 219.134 123.462 221.206 123.14C223.278 122.818 226.106 120.872 228.01 119.339C228.43 117.554 228.71 116.182 228.71 116.182C228.71 116.182 220.254 119.339 216.32 119.451C216.348 119.451 216.201 120.655 215.949 122.342Z" fill="#2855AF" stroke="#2855AF" stroke-linecap="round" stroke-linejoin="round"/>
<path d="M220.555 88.1953L210.86 95.8323C210.86 95.8323 209.88 103.217 209.516 108.362C209.323 110.479 209.638 112.611 210.436 114.581C211.233 116.551 212.49 118.302 214.101 119.688C216.901 122.173 218.455 122.299 221.178 121.872C223.901 121.445 227.919 118.253 229.417 116.839C230.915 115.425 233.701 111.239 233.701 111.239C233.701 111.239 235.934 111.687 236.592 110.644C236.921 110.155 237.191 109.629 237.397 109.076C237.397 109.076 228.178 103.875 224.391 97.3163C220.604 90.7573 220.555 88.1953 220.555 88.1953Z" fill="white" stroke="#2855AF" stroke-linecap="round" stroke-linejoin="round"/>
<path d="M217.538 101.797C217.396 102.877 217.079 103.927 216.6 104.905C215.949 105.948 213.401 106.536 214.801 107.705C215.865 108.44 217.133 108.822 218.427 108.797" stroke="#2855AF" stroke-linecap="round" stroke-linejoin="round"/>
<path d="M214.723 110.778C214.723 110.778 219.917 113.018 223.256 110.008" stroke="#2855AF" stroke-linecap="round" stroke-linejoin="round"/>
<path d="M216.461 111.583C216.461 111.583 217.231 114.467 218.925 113.9C220.619 113.333 222.089 111.1 222.089 111.1C220.226 111.388 218.346 111.55 216.461 111.583V111.583Z" stroke="#2855AF" stroke-linecap="round" stroke-linejoin="round"/>
<path d="M224.076 103.141C224.076 103.897 223.775 104.541 223.376 104.541C222.977 104.541 222.592 103.953 222.571 103.197C222.55 102.441 222.872 101.797 223.271 101.797C223.67 101.797 224.055 102.392 224.076 103.141Z" fill="#2855AF"/>
<path d="M215.92 102.19C215.92 102.946 215.619 103.59 215.22 103.59C214.821 103.59 214.436 103.002 214.415 102.246C214.394 101.49 214.716 100.846 215.115 100.846C215.514 100.846 215.899 101.434 215.92 102.19Z" fill="#2855AF"/>
<path d="M213.176 99.0177C213.431 98.75 213.739 98.538 214.08 98.3949C214.422 98.2517 214.789 98.1806 215.158 98.1858C215.528 98.1911 215.893 98.2726 216.23 98.4254C216.567 98.5782 216.869 98.7989 217.117 99.0737" stroke="#2855AF" stroke-linecap="round" stroke-linejoin="round"/>
<path d="M221.059 99.5003C221.059 99.5003 224.951 98.0233 226.589 101.39" stroke="#2855AF" stroke-linecap="round" stroke-linejoin="round"/>
<path d="M218.901 130.672L212.027 141.137L222.128 135.705L218.901 130.672Z" fill="white" stroke="#2855AF" stroke-linecap="round" stroke-linejoin="round"/>
<path d="M230.438 121.6L218.902 130.672L222.262 140.15L233.343 127.333L230.438 121.6Z" fill="white" stroke="#2855AF" stroke-linecap="round" stroke-linejoin="round"/>
<path d="M216.417 175.367C214.86 174.933 213.372 174.277 212 173.421C209.417 171.881 206.666 172.42 204.363 172.49C202.06 172.56 200.457 173.071 200.716 173.981C200.975 174.891 203.278 174.828 203.971 174.807C204.664 174.786 205.847 175.906 205.847 175.906L200.086 177.306C200.086 177.306 198.28 178.517 199.701 179.854C201.122 181.191 201.381 180.89 201.381 180.89C201.381 180.89 203.558 184.285 205.868 184.446C208.178 184.607 217.565 182.255 217.565 182.255L216.417 175.367Z" fill="white" stroke="#2855AF" stroke-linecap="round" stroke-linejoin="round"/>
<path d="M232.741 148.907C233.014 150.307 234.505 170.908 234.505 170.908L215.5 175.388L216.515 186.203C216.515 186.203 250.528 182.199 251.158 180.106C251.788 178.013 249.569 141.865 249.758 139.786C249.947 137.707 252.719 130.686 244.417 130.686" fill="#7CCCDB"/>
<path d="M232.741 148.907C233.014 150.307 234.505 170.908 234.505 170.908L215.5 175.388L216.515 186.203C216.515 186.203 250.528 182.199 251.158 180.106C251.788 178.013 249.569 141.865 249.758 139.786C249.947 137.707 252.719 130.686 244.417 130.686" stroke="#2855AF" stroke-linecap="round" stroke-linejoin="round"/>
<path d="M235.922 145.464C235.922 145.464 241.48 138.31 247.577 138.576Z" fill="#7CCCDB"/>
<path d="M235.922 145.464C235.922 145.464 241.48 138.31 247.577 138.576" stroke="#2855AF" stroke-linecap="round" stroke-linejoin="round"/>
<path d="M235.922 148.109C235.922 148.109 240.689 145.463 245.456 145.463Z" fill="#7CCCDB"/>
<path d="M235.922 148.109C235.922 148.109 240.689 145.463 245.456 145.463" stroke="#2855AF" stroke-linecap="round" stroke-linejoin="round"/>
<path d="M23.4639 271.819V231.317C23.4639 230.998 23.3371 230.692 23.1113 230.466C22.8855 230.24 22.5793 230.113 22.2599 230.113H17.2969C16.977 230.113 16.67 230.24 16.4431 230.466C16.2162 230.691 16.0878 230.997 16.0859 231.317V271.819H23.4639Z" fill="white" stroke="#2855AF" stroke-linecap="round" stroke-linejoin="round"/>
<path d="M17.2834 271.819V231.317C17.2816 230.997 17.1532 230.691 16.9263 230.466C16.6994 230.24 16.3924 230.113 16.0724 230.113H11.1024C10.7831 230.113 10.4769 230.24 10.2511 230.466C10.0253 230.692 9.89844 230.998 9.89844 231.317V271.819H17.2834Z" fill="#2855AF" stroke="#2855AF" stroke-linecap="round" stroke-linejoin="round"/>
<path d="M20.0767 271.818H108.676C108.057 270.253 107.008 268.894 105.652 267.898C101.634 265.364 63.3647 259.442 63.3647 259.442L23.6117 258.805L21.7077 259.442C21.7077 259.442 19.6077 262.403 19.8107 263.88C19.9157 264.629 19.9647 268.255 20.0767 271.818Z" fill="#2855AF" stroke="#2855AF" stroke-linecap="round" stroke-linejoin="round"/>
<path d="M56.172 182.688C56.172 182.688 46.869 187.973 43.698 190.934C40.527 193.895 35.242 203.625 34.815 209.54C34.388 215.455 29.74 238.1 29.74 238.1C29.74 238.1 20.199 256.692 21.704 259.443C23.209 262.194 62.304 259.443 63.361 259.443C64.418 259.443 62.304 247.816 62.304 247.816C62.304 247.816 77.102 224.975 77.704 218.843C78.306 212.711 73.896 196.009 73.049 192.201C72.202 188.393 58.076 181.841 56.172 182.688Z" fill="white" stroke="#2855AF" stroke-linecap="round" stroke-linejoin="round"/>
<path d="M48.9023 215C48.9023 215 56.3013 222 59.4023 224.345" stroke="#2855AF" stroke-linecap="round" stroke-linejoin="round"/>
<path d="M45.4023 220.439C45.4023 220.439 59.0313 225.108 62.5313 225.5" stroke="#2855AF" stroke-linecap="round" stroke-linejoin="round"/>
<path d="M85.1408 158.999C85.1408 158.999 86.1978 166.825 85.9878 169.149C85.7778 171.473 83.6638 179.509 83.0268 181.203C82.3898 182.897 81.7598 184.794 79.4358 184.584C78.0822 184.478 76.775 184.043 75.6278 183.317L73.3038 191.136L57.2038 181.833L59.3038 177.633C59.3038 177.633 56.9798 173.832 56.3428 167.483C55.7058 161.134 59.3038 153.952 63.9588 151.208C68.6138 148.464 76.6428 149.514 78.9668 151.418C81.2908 153.322 85.1408 158.999 85.1408 158.999Z" fill="white" stroke="#2855AF" stroke-linecap="round" stroke-linejoin="round"/>
<path d="M56.3832 178.67C57.2302 178.887 75.4162 187.133 75.6262 189.247C75.8362 191.361 76.6832 197.913 76.6832 197.913C72.9521 194.706 68.9146 191.874 64.6292 189.457C61.2352 187.666 57.9845 185.616 54.9062 183.325L56.3832 178.67Z" fill="white" stroke="#2855AF" stroke-linecap="round" stroke-linejoin="round"/>
<path d="M72.457 141.668C72.457 141.668 77.952 139.344 82.39 140.401C86.828 141.458 88.522 146.533 88.522 150.761C88.522 154.989 86.198 160.064 85.351 160.274C84.504 160.484 82.39 150.341 78.351 147.38C76.1117 145.781 74.1249 143.856 72.457 141.668V141.668Z" fill="#7CCCDB" stroke="#2855AF" stroke-linecap="round" stroke-linejoin="round"/>
<path d="M65.7023 142.942C65.7023 142.942 74.3753 138.287 81.9843 144.839C89.5933 151.391 87.0593 157.95 85.3653 160.274C83.6713 162.598 83.6783 167.043 82.4043 167.89C81.1303 168.737 80.9273 164.509 79.4503 163.69C77.9733 162.871 78.1623 166 76.4753 170.2C74.7883 174.4 67.1723 180.56 63.1753 180.14C59.1783 179.72 54.2923 175.24 51.5413 165.972C48.7903 156.704 50.7013 146.729 55.7413 143.572C57.219 142.648 58.9032 142.107 60.6422 141.997C62.3811 141.887 64.1201 142.212 65.7023 142.942Z" fill="#7CCCDB" stroke="#2855AF" stroke-linecap="round" stroke-linejoin="round"/>
<path d="M82.4994 146.924C82.4994 146.924 84.1794 151.782 79.8814 157.193C75.5834 162.604 69.8014 165.593 65.5104 162.982C61.2194 160.371 61.0234 157.382 61.0234 157.382" stroke="#2855AF" stroke-linecap="round" stroke-linejoin="round"/>
<path d="M54.1385 158.299C54.1385 158.299 53.2005 172.88 61.9785 174.399C70.7565 175.918 75.6075 166.699 75.6075 166.699" stroke="#2855AF" stroke-linecap="round" stroke-linejoin="round"/>
<path d="M56.9147 158.586C61.7627 158.586 65.6927 154.609 65.6927 149.703C65.6927 144.797 61.7627 140.82 56.9147 140.82C52.0668 140.82 48.1367 144.797 48.1367 149.703C48.1367 154.609 52.0668 158.586 56.9147 158.586Z" fill="#7CCCDB" stroke="#2855AF" stroke-linecap="round" stroke-linejoin="round"/>
<path d="M55.0664 148.423C55.0664 148.423 56.1864 142.634 59.3574 141.885" stroke="#2855AF" stroke-linecap="round" stroke-linejoin="round"/>
<path d="M54.6953 149.2C54.6953 149.2 61.0373 146.96 64.0263 149.389" stroke="#2855AF" stroke-linecap="round" stroke-linejoin="round"/>
<path d="M54.3198 150.285C54.3198 150.285 51.5198 152.154 52.4578 156.452" stroke="#2855AF" stroke-linecap="round" stroke-linejoin="round"/>
<path d="M80.7006 168.52C80.7006 168.52 80.0636 162.178 78.1596 162.388C76.2556 162.598 77.1026 172.118 78.1596 173.588C78.2527 173.777 78.3924 173.94 78.5656 174.06C78.7387 174.181 78.9397 174.256 79.1495 174.277C79.3594 174.299 79.5714 174.267 79.7655 174.184C79.9597 174.102 80.1297 173.971 80.2596 173.805" fill="white"/>
<path d="M80.7006 168.52C80.7006 168.52 80.0636 162.178 78.1596 162.388C76.2556 162.598 77.1026 172.118 78.1596 173.588C78.2527 173.777 78.3924 173.94 78.5656 174.06C78.7387 174.181 78.9397 174.256 79.1495 174.277C79.3594 174.299 79.5714 174.267 79.7655 174.184C79.9597 174.102 80.1297 173.971 80.2596 173.805" stroke="#2855AF" stroke-linecap="round" stroke-linejoin="round"/>
<path d="M259.412 263.23H63.0625L69.6845 246.562H215.235L259.412 263.23Z" fill="white" stroke="#2855AF" stroke-linecap="round" stroke-linejoin="round"/>
<path d="M256.716 266.562H65.2383V271.819H256.716V266.562Z" fill="#2855AF" stroke="#2855AF" stroke-linecap="round" stroke-linejoin="round"/>
<path d="M259.412 263.23H63.0625V269.418H259.412V263.23Z" fill="white" stroke="#2855AF" stroke-linecap="round" stroke-linejoin="round"/>
<path d="M137.029 248.697L142.72 257.678H96.625L101.112 248.697H137.029Z" fill="white"/>
<path d="M128.352 251.393L134.043 260.367H87.9414L92.4354 251.393H128.352Z" fill="white"/>
<path d="M72.2465 201.93L81.1015 243.16L115.57 248.025C115.57 248.025 125.93 243.825 126.77 243.825C127.61 243.825 129.094 246.359 129.731 247.206C130.368 248.053 131.418 249.306 131.831 249.957C132.244 250.608 132.461 253.758 131.831 254.605C131.201 255.452 129.927 257.776 128.653 257.566C127.379 257.356 128.653 253.975 128.653 253.975C128.653 253.975 121.254 256.929 118.93 256.929C116.606 256.929 111.93 254.829 111.93 254.829C111.93 254.829 72.7015 259.232 70.3425 258.399C69.3807 258.101 68.49 257.61 67.7254 256.955C66.9609 256.3 66.3388 255.496 65.8975 254.591C65.0575 252.904 51.5195 207.649 51.5195 207.649" fill="white"/>
<path d="M72.2465 201.93L81.1015 243.16L115.57 248.025C115.57 248.025 125.93 243.825 126.77 243.825C127.61 243.825 129.094 246.359 129.731 247.206C130.368 248.053 131.418 249.306 131.831 249.957C132.244 250.608 132.461 253.758 131.831 254.605C131.201 255.452 129.927 257.776 128.653 257.566C127.379 257.356 128.653 253.975 128.653 253.975C128.653 253.975 121.254 256.929 118.93 256.929C116.606 256.929 111.93 254.829 111.93 254.829C111.93 254.829 72.7015 259.232 70.3425 258.399C69.3807 258.101 68.49 257.61 67.7254 256.955C66.9609 256.3 66.3388 255.496 65.8975 254.591C65.0575 252.904 51.5195 207.649 51.5195 207.649" stroke="#2855AF" stroke-linecap="round" stroke-linejoin="round"/>
<path d="M129.756 247.199C129.119 246.352 127.656 243.818 126.795 243.818C125.934 243.818 115.595 248.018 115.595 248.018L95.9531 245.218C97.2334 248.792 97.5592 252.638 96.8981 256.376C105.095 255.536 111.997 254.752 111.997 254.752C111.997 254.752 116.652 256.852 118.997 256.852C121.342 256.852 128.699 253.947 128.699 253.947C128.699 253.947 127.432 257.328 128.699 257.538C129.966 257.748 131.24 255.438 131.877 254.577C132.514 253.716 132.297 250.559 131.877 249.929C131.457 249.299 130.386 248.025 129.756 247.199Z" fill="white" stroke="#2855AF" stroke-linecap="round" stroke-linejoin="round"/>
<path d="M4.63281 271.818H339.401" stroke="#2855AF" stroke-linecap="round" stroke-linejoin="round"/>
<path d="M188.522 257.96H225.734V256.763L170.336 248.475L171.68 249.672L188.522 257.96Z" fill="white" stroke="#2855AF" stroke-linecap="round" stroke-linejoin="round"/>
<path d="M188.522 256.763H225.734L206.078 248.671L171.68 248.475L188.522 256.763Z" fill="white" stroke="#2855AF" stroke-linecap="round" stroke-linejoin="round"/>
<path d="M194.583 250.316H198.069L196.291 249.574L192.875 249.602L194.583 250.316Z" fill="white" stroke="#2855AF" stroke-width="0.75" stroke-linecap="round" stroke-linejoin="round"/>
<path d="M201.66 253.277L203.445 254.026H206.931L205.146 253.277H201.66Z" fill="white" stroke="#2855AF" stroke-width="0.75" stroke-linecap="round" stroke-linejoin="round"/>
<path d="M208.123 252.156H204.266L205.288 252.583H209.159L208.123 252.156Z" fill="white" stroke="#2855AF" stroke-width="0.75" stroke-linecap="round" stroke-linejoin="round"/>
<path d="M199.995 252.583H203.488L202.466 252.156H198.98L199.995 252.583Z" fill="white" stroke="#2855AF" stroke-width="0.75" stroke-linecap="round" stroke-linejoin="round"/>
<path d="M202.606 251.464H206.435L205.343 251.016H201.535L202.606 251.464Z" fill="white" stroke="#2855AF" stroke-width="0.75" stroke-linecap="round" stroke-linejoin="round"/>
<path d="M189.291 250.315H192.783L191.111 249.615L187.688 249.65L189.291 250.315Z" fill="white" stroke="#2855AF" stroke-width="0.75" stroke-linecap="round" stroke-linejoin="round"/>
<path d="M196.242 251.016L197.313 251.464H200.806L199.735 251.016H196.242Z" fill="white" stroke="#2855AF" stroke-width="0.75" stroke-linecap="round" stroke-linejoin="round"/>
<path d="M213.342 255.959H217.353L214.357 254.727H210.395L213.342 255.959Z" fill="white" stroke="#2855AF" stroke-width="0.75" stroke-linecap="round" stroke-linejoin="round"/>
<path d="M205.105 254.727L208.052 255.959H211.546L208.599 254.727H205.105Z" fill="white" stroke="#2855AF" stroke-width="0.75" stroke-linecap="round" stroke-linejoin="round"/>
<path d="M199.812 254.727L202.759 255.959H206.253L203.305 254.727H199.812Z" fill="white" stroke="#2855AF" stroke-width="0.75" stroke-linecap="round" stroke-linejoin="round"/>
<path d="M198.013 254.727H191.195L193.631 255.959H200.96L198.013 254.727Z" fill="white" stroke="#2855AF" stroke-width="0.75" stroke-linecap="round" stroke-linejoin="round"/>
<path d="M199.875 250.316H203.648L201.723 249.525L198.055 249.56L199.875 250.316Z" fill="white" stroke="#2855AF" stroke-width="0.75" stroke-linecap="round" stroke-linejoin="round"/>
<path d="M206.953 253.277L208.738 254.026H212.672L210.852 253.277H206.953Z" fill="white" stroke="#2855AF" stroke-width="0.75" stroke-linecap="round" stroke-linejoin="round"/>
<path d="M201.645 254.026L199.853 253.277H196.367L198.152 254.026H201.645Z" fill="white" stroke="#2855AF" stroke-width="0.75" stroke-linecap="round" stroke-linejoin="round"/>
<path d="M187.49 250.315L185.922 249.664L181.281 249.699L182.492 250.315H187.49Z" fill="white" stroke="#2855AF" stroke-width="0.75" stroke-linecap="round" stroke-linejoin="round"/>
<path d="M197.173 252.156H193.688L194.703 252.583H198.195L197.173 252.156Z" fill="white" stroke="#2855AF" stroke-width="0.75" stroke-linecap="round" stroke-linejoin="round"/>
<path d="M190.949 251.016L192.02 251.464H195.513L194.442 251.016H190.949Z" fill="white" stroke="#2855AF" stroke-width="0.75" stroke-linecap="round" stroke-linejoin="round"/>
<path d="M192.905 252.583L191.89 252.156H186.129L186.976 252.583H192.905Z" fill="white" stroke="#2855AF" stroke-width="0.75" stroke-linecap="round" stroke-linejoin="round"/>
<path d="M184.753 251.464H190.22L189.149 251.016H183.871L184.753 251.464Z" fill="white" stroke="#2855AF" stroke-width="0.75" stroke-linecap="round" stroke-linejoin="round"/>
<path d="M194.571 253.277H188.348L189.825 254.026H196.356L194.571 253.277Z" fill="white" stroke="#2855AF" stroke-width="0.75" stroke-linecap="round" stroke-linejoin="round"/>
<path d="M188.521 256.763H187.177L161.438 219.649L162.711 219.264H179.561L188.521 256.763Z" fill="white" stroke="#2855AF" stroke-linecap="round" stroke-linejoin="round"/>
<path d="M187.177 256.763L170.335 248.475L161.375 219.264H178.217L187.177 256.763Z" fill="white" stroke="#2855AF" stroke-linecap="round" stroke-linejoin="round"/>
<path d="M334.445 271.818V226.822C334.445 226.501 334.317 226.193 334.09 225.966C333.863 225.739 333.555 225.611 333.234 225.611H316.84C316.519 225.611 316.211 225.739 315.984 225.966C315.756 226.193 315.629 226.501 315.629 226.822V271.818H334.445Z" fill="#2855AF" stroke="#2855AF" stroke-linecap="round" stroke-linejoin="round"/>
<path d="M328.516 271.818V226.822C328.517 226.663 328.486 226.505 328.426 226.358C328.365 226.21 328.276 226.077 328.163 225.964C328.051 225.851 327.917 225.762 327.77 225.702C327.622 225.641 327.464 225.61 327.305 225.611H310.918C310.759 225.61 310.601 225.641 310.454 225.702C310.306 225.762 310.172 225.851 310.06 225.964C309.947 226.077 309.858 226.21 309.797 226.358C309.737 226.505 309.706 226.663 309.707 226.822V271.818H328.516Z" fill="white" stroke="#2855AF" stroke-linecap="round" stroke-linejoin="round"/>
<path d="M262.836 200.083C262.836 200.083 255.612 204.899 254.702 207.86C253.792 210.821 248.402 227.677 247.849 228.972C247.296 230.267 242.851 237.12 242.851 237.12L219.149 238.226C219.149 238.226 208.411 235.825 207.48 235.825C206.549 235.825 197.295 241.936 196.553 243.602C195.811 245.268 194.152 247.676 194.887 248.229C195.622 248.782 196.742 247.858 196.742 247.858C196.742 247.858 197.113 250.448 201.74 249.524C206.367 248.6 211.001 245.268 211.001 245.268C211.001 245.268 216.741 248.068 218.96 247.487L219.149 247.431V249.895C219.149 249.895 250.446 251.561 251.741 251.19C253.036 250.819 259.889 242.489 259.889 242.489L267.848 199.523C267.848 199.523 267.463 195.449 262.836 200.083Z" fill="#7CCCDB" stroke="#2855AF" stroke-linecap="round" stroke-linejoin="round"/>
<path d="M219.644 238.869L219.196 238.225H219.133C219.133 238.225 208.395 235.824 207.464 235.824C206.533 235.824 197.279 241.935 196.537 243.601C195.795 245.267 194.136 247.675 194.871 248.228C195.606 248.781 196.726 247.857 196.726 247.857C196.726 247.857 197.097 250.447 201.724 249.523C206.351 248.599 210.985 245.267 210.985 245.267C210.985 245.267 216.725 248.067 218.944 247.486L219.133 247.43V249.894L219.644 238.869Z" fill="white" stroke="#2855AF" stroke-linecap="round" stroke-linejoin="round"/>
<path d="M263.715 271.818H264.45C263.883 270.474 263.386 269.242 263.183 268.57C262.595 266.596 255.483 240.892 254.685 237.14C253.887 233.388 254.286 228.04 256.267 220.529C258.248 213.018 262.833 200.082 262.833 200.082L256.267 209.266C256.267 209.266 250.73 230.616 250.73 233.381C250.73 236.146 253.495 250.181 256.267 257.104C257.87 261.115 261.202 267.31 263.715 271.818Z" fill="#7CCCDB" stroke="#2855AF" stroke-linecap="round" stroke-linejoin="round"/>
<path d="M265.795 194.895C265.795 194.895 258.949 205.633 257.094 213.046C255.239 220.459 253.762 226.934 253.762 233.598C253.762 240.262 261.168 259.155 262.281 261.563C263.394 263.971 275.427 264.706 279.13 253.226C282.833 241.746 284.499 208.601 282.28 201.006C280.061 193.411 270.429 189.897 265.795 194.895Z" fill="white" stroke="#2855AF" stroke-linecap="round" stroke-linejoin="round"/>
<path d="M263.87 193.34C263.415 194.04 257.262 197.442 257.262 197.442L257.031 203.819L258.858 200.403L261.7 208.866L264.759 193.109L263.87 193.34Z" fill="#7CCCDB" stroke="#2855AF" stroke-linecap="round" stroke-linejoin="round"/>
<path d="M264.556 271.818H314.956C313.297 267.38 306.885 250.188 306.689 249.418C306.458 248.501 301.222 207.943 295.748 200.418C290.274 192.893 277.548 190.163 274.79 191.759C274.79 191.759 265.69 210.218 262.253 218.877C258.816 227.536 256.555 244.623 256.555 247.129C256.555 249.635 261.343 265.329 261.343 265.329L264.556 271.818Z" fill="#7CCCDB" stroke="#2855AF" stroke-linecap="round" stroke-linejoin="round"/>
<path d="M300.857 258.26L279.066 264.749L280.459 267.528L292.513 263.825" stroke="#2855AF" stroke-linecap="round" stroke-linejoin="round"/>
<path d="M253.097 161.26C253.097 161.26 251.347 166.664 251.305 167.777C251.288 168.606 251.314 169.436 251.382 170.262C251.404 170.705 251.297 171.145 251.074 171.529C250.71 172.117 246.615 176.058 247.098 176.849C247.581 177.64 250.409 180.783 250.409 180.783C250.409 180.783 252.39 190.226 255.043 191.318C257.696 192.41 261.441 191.738 261.441 191.738L262.792 195.427L279.34 190.002L279.088 184.563C279.088 184.563 280.747 174.875 278.843 167.917C276.939 160.959 260.384 153.399 253.097 161.26Z" fill="white" stroke="#2855AF" stroke-linecap="round" stroke-linejoin="round"/>
<path d="M253.631 172.362C253.435 173.167 253.022 173.762 252.714 173.685C252.406 173.608 252.308 172.894 252.504 172.089C252.7 171.284 253.106 170.689 253.421 170.766C253.736 170.843 253.82 171.557 253.631 172.362Z" fill="#2855AF"/>
<path d="M252.453 168.695C252.787 168.602 253.136 168.577 253.48 168.62C253.824 168.663 254.156 168.773 254.458 168.945C254.759 169.117 255.023 169.346 255.235 169.621C255.447 169.895 255.603 170.208 255.694 170.543" fill="white"/>
<path d="M252.453 168.695C252.787 168.602 253.136 168.577 253.48 168.62C253.824 168.663 254.156 168.773 254.458 168.945C254.759 169.117 255.023 169.346 255.235 169.621C255.447 169.895 255.603 170.208 255.694 170.543" stroke="#2855AF" stroke-linecap="round" stroke-linejoin="round"/>
<path d="M250.836 182.1C250.836 182.1 252.684 183.955 255.925 182.8Z" fill="white"/>
<path d="M250.836 182.1C250.836 182.1 252.684 183.955 255.925 182.8" stroke="#2855AF" stroke-linecap="round" stroke-linejoin="round"/>
<path d="M263.24 148.016C262.714 146.725 261.875 145.585 260.798 144.699C259.721 143.813 258.441 143.209 257.073 142.941C252.355 142.031 248.981 148.611 250.164 151.138C251.347 153.665 251.879 154.239 249.611 154.365C247.343 154.491 242.996 160.392 246.811 164.011C250.626 167.63 255.253 162.457 255.484 164.305C255.715 166.153 255.092 167.805 257.311 167.882C259.53 167.959 263.177 167.728 262.603 169.163C262.029 170.598 261.903 173.923 264.003 174.434C266.103 174.945 267.419 172.334 268.903 172.705C270.387 173.076 272.403 177.801 271.08 180.405C269.757 183.009 268.882 183.016 268.728 183.653C268.574 184.29 272.683 188.637 276.904 187.853C281.125 187.069 286.613 185.711 287.257 181.161C287.901 176.611 286.557 175.617 288.307 174.021C290.057 172.425 291.73 171.921 291.233 169.345C290.736 166.769 289.133 165.929 289.651 163.808C290.169 161.687 288.062 151.999 278.99 147.799C269.918 143.599 263.24 148.016 263.24 148.016Z" fill="#2855AF" stroke="#2855AF" stroke-linecap="round" stroke-linejoin="round"/>
<path d="M281.083 184.885L260.223 196.988L261.721 208.867L283.981 191.171L281.083 184.885Z" fill="white" stroke="#2855AF" stroke-linecap="round" stroke-linejoin="round"/>
<path d="M226.503 241.193C226.503 241.193 222.303 239.632 219.643 238.869C215.079 237.56 210.802 235.614 209.206 236.069C207.61 236.524 199.84 241.872 199.84 241.872C199.84 241.872 197.103 248.48 197.334 249.397C197.565 250.314 199.231 248.837 199.231 248.837C199.231 248.837 198.244 250.076 199.154 250.993C200.064 251.91 200.981 250.076 200.981 250.076C200.981 250.076 200.75 252.358 202.115 252.127C202.466 252.114 202.803 251.985 203.073 251.761C203.344 251.537 203.534 251.231 203.613 250.888C203.613 250.888 203.711 252.127 204.852 252.127C205.993 252.127 208.499 247.346 208.499 247.346L212.825 247.57C212.825 247.57 216.248 249.397 218.299 249.621C220.35 249.845 222.856 248.48 222.856 248.48L225.586 249.18L227.868 242.572L226.503 241.193Z" fill="white" stroke="#2855AF" stroke-linecap="round" stroke-linejoin="round"/>
<path d="M199.23 248.837C199.23 248.837 201.561 243.237 201.932 242.873C202.303 242.509 206.965 239.891 206.965 239.891" stroke="#2855AF" stroke-linecap="round" stroke-linejoin="round"/>
<path d="M200.98 250.077C200.98 250.077 203.78 244.365 204.081 244.085C204.382 243.805 207.896 242.041 207.896 242.041" stroke="#2855AF" stroke-linecap="round" stroke-linejoin="round"/>
<path d="M203.602 250.889C203.602 250.889 206.304 245.674 206.773 245.394C207.242 245.114 208.446 244.463 208.446 244.463" stroke="#2855AF" stroke-linecap="round" stroke-linejoin="round"/>
<path d="M286.899 199.949C286.899 199.949 272.542 209.287 272.773 212.934C273.004 216.581 274.138 216.581 274.138 216.581L266.844 243.923C266.844 243.923 264.569 242.103 264.338 244.385L264.114 246.66L226.055 240.283L222.184 249.852C222.184 249.852 237.906 256.005 248.847 259.876C259.788 263.747 271.177 268.08 272.311 266.029C273.445 263.978 295.999 230.252 297.399 227.746C298.799 225.24 298.799 220.683 298.799 220.683" fill="#7CCCDB"/>
<path d="M286.899 199.949C286.899 199.949 272.542 209.287 272.773 212.934C273.004 216.581 274.138 216.581 274.138 216.581L266.844 243.923C266.844 243.923 264.569 242.103 264.338 244.385L264.114 246.66L226.055 240.283L222.184 249.852C222.184 249.852 237.906 256.005 248.847 259.876C259.788 263.747 271.177 268.08 272.311 266.029C273.445 263.978 295.999 230.252 297.399 227.746C298.799 225.24 298.799 220.683 298.799 220.683" stroke="#2855AF" stroke-linecap="round" stroke-linejoin="round"/>
<path d="M274.125 216.581C274.125 216.581 278.451 207.698 288.937 207.012" stroke="#2855AF" stroke-linecap="round" stroke-linejoin="round"/>
</svg>
