<svg width="237" height="311" viewBox="0 0 237 311" fill="none" xmlns="http://www.w3.org/2000/svg">
<path d="M116.113 310.36C175.853 310.36 224.281 300.675 224.281 288.728C224.281 276.781 175.853 267.096 116.113 267.096C56.3738 267.096 7.94531 276.781 7.94531 288.728C7.94531 300.675 56.3738 310.36 116.113 310.36Z" fill="#7CCCDB"/>
<path opacity="0.5" d="M116.113 310.36C175.853 310.36 224.281 300.675 224.281 288.728C224.281 276.781 175.853 267.096 116.113 267.096C56.3738 267.096 7.94531 276.781 7.94531 288.728C7.94531 300.675 56.3738 310.36 116.113 310.36Z" fill="white"/>
<path d="M230.945 0.958984H152.953C150.289 0.958984 148.129 3.11876 148.129 5.78299V91.759C148.129 94.4232 150.289 96.583 152.953 96.583H230.945C233.609 96.583 235.769 94.4232 235.769 91.759V5.78299C235.769 3.11876 233.609 0.958984 230.945 0.958984Z" fill="white" stroke="#2855AF" stroke-linecap="round" stroke-linejoin="round"/>
<path d="M152.953 0.959045H230.937C232.21 0.959045 233.431 1.46476 234.331 2.36493C235.231 3.26511 235.737 4.486 235.737 5.75904V10.767H148.129V5.78305C148.126 5.14866 148.248 4.51993 148.49 3.93322C148.731 3.34651 149.086 2.81345 149.535 2.36487C149.983 1.91629 150.516 1.56107 151.103 1.31977C151.69 1.07847 152.319 0.955865 152.953 0.959045V0.959045Z" fill="#2855AF" stroke="#2855AF" stroke-linecap="round" stroke-linejoin="round"/>
<path d="M152.906 52.0156H188.17" stroke="#2855AF" stroke-linecap="round" stroke-linejoin="round"/>
<path d="M152.906 56.5664H188.17" stroke="#2855AF" stroke-linecap="round" stroke-linejoin="round"/>
<path d="M152.906 61.1191H188.17" stroke="#2855AF" stroke-linecap="round" stroke-linejoin="round"/>
<path d="M152.906 65.6719H188.17" stroke="#2855AF" stroke-linecap="round" stroke-linejoin="round"/>
<path d="M152.906 70.2227H188.17" stroke="#2855AF" stroke-linecap="round" stroke-linejoin="round"/>
<path d="M152.906 74.7832H188.17" stroke="#2855AF" stroke-linecap="round" stroke-linejoin="round"/>
<path d="M152.906 79.3359H188.17" stroke="#2855AF" stroke-linecap="round" stroke-linejoin="round"/>
<path d="M152.906 83.8867H188.17" stroke="#2855AF" stroke-linecap="round" stroke-linejoin="round"/>
<path d="M152.906 88.4395H188.17" stroke="#2855AF" stroke-linecap="round" stroke-linejoin="round"/>
<path d="M194.367 52.0156H229.631" stroke="#2855AF" stroke-linecap="round" stroke-linejoin="round"/>
<path d="M194.367 56.5664H229.631" stroke="#2855AF" stroke-linecap="round" stroke-linejoin="round"/>
<path d="M194.367 61.1191H229.631" stroke="#2855AF" stroke-linecap="round" stroke-linejoin="round"/>
<path d="M194.367 65.6719H229.631" stroke="#2855AF" stroke-linecap="round" stroke-linejoin="round"/>
<path d="M194.367 70.2227H229.631" stroke="#2855AF" stroke-linecap="round" stroke-linejoin="round"/>
<path d="M194.367 74.7832H229.631" stroke="#2855AF" stroke-linecap="round" stroke-linejoin="round"/>
<path d="M194.367 79.3359H229.631" stroke="#2855AF" stroke-linecap="round" stroke-linejoin="round"/>
<path d="M194.367 83.8867H229.631" stroke="#2855AF" stroke-linecap="round" stroke-linejoin="round"/>
<path d="M194.367 88.4395H229.631" stroke="#2855AF" stroke-linecap="round" stroke-linejoin="round"/>
<path d="M176.489 23.1918C176.663 22.6513 176.755 22.0877 176.761 21.5198C176.761 19.4478 174.657 19.3278 172.593 19.3278H172.073V18.8398H181.081V19.3278C178.737 19.3278 177.881 20.8238 177.153 23.0398L172.353 37.3678C171.993 38.4318 171.689 39.2238 170.561 39.2238H170.465L166.241 25.5358L162.313 37.3998C161.945 38.4638 161.641 39.2558 160.513 39.2558H160.425L154.281 19.3278H152.121V18.8398H160.025V19.3278H157.777L162.337 35.0238H162.521L165.961 24.5998L164.361 19.3678H162.201V18.8398H170.113V19.3278H167.865L172.425 35.0238H172.601L176.489 23.1918Z" fill="#7CCCDB"/>
<path d="M229.882 14.3027H193.594V47.1027H229.882V14.3027Z" fill="#7CCCDB" stroke="#2855AF" stroke-width="2" stroke-linecap="round" stroke-linejoin="round"/>
<path d="M229.882 28.0156C228.665 28.085 227.456 28.2535 226.266 28.5196C220.754 29.7196 219.314 37.6316 213.082 37.6316C207.562 37.6316 207.09 30.1996 199.178 29.2396C197.253 28.9364 195.282 29.2856 193.578 30.2316V47.1036H229.882V28.0156Z" fill="#2855AF" stroke="#2855AF" stroke-linecap="round" stroke-linejoin="round"/>
<path d="M205.648 21.8064C205.65 22.614 205.412 23.4039 204.964 24.0761C204.516 24.7483 203.879 25.2725 203.133 25.5823C202.387 25.8921 201.566 25.9735 200.774 25.8164C199.982 25.6592 199.254 25.2704 198.683 24.6994C198.112 24.1283 197.723 23.4006 197.566 22.6084C197.409 21.8162 197.491 20.9952 197.8 20.2493C198.11 19.5035 198.634 18.8664 199.307 18.4187C199.979 17.9709 200.769 17.7328 201.576 17.7344C202.656 17.7344 203.692 18.1634 204.456 18.927C205.219 19.6907 205.648 20.7264 205.648 21.8064V21.8064Z" fill="white" stroke="#2855AF" stroke-linecap="round" stroke-linejoin="round"/>
<path d="M231.538 3.83008H150.762V6.94208H231.538V3.83008Z" fill="white" stroke="#2855AF" stroke-linecap="round" stroke-linejoin="round"/>
<path d="M226.498 115.662H191.53C190.156 115.662 188.837 116.208 187.865 117.18C186.893 118.153 186.346 119.471 186.346 120.846V139.55C186.346 140.925 186.893 142.244 187.865 143.216C188.837 144.188 190.156 144.734 191.53 144.734H192.602C191.514 147.134 189.402 150.814 186.066 152.998C186.066 152.998 193.162 152.502 200.554 144.734H226.482C227.857 144.734 229.176 144.188 230.148 143.216C231.12 142.244 231.666 140.925 231.666 139.55V120.846C231.666 119.474 231.122 118.158 230.154 117.186C229.185 116.214 227.871 115.666 226.498 115.662V115.662Z" fill="#2855AF" stroke="#2855AF" stroke-linecap="round" stroke-linejoin="round"/>
<path d="M203 129.535C203.002 129.006 202.846 128.489 202.553 128.048C202.26 127.607 201.843 127.264 201.354 127.06C200.866 126.857 200.328 126.804 199.809 126.906C199.29 127.009 198.813 127.264 198.439 127.638C198.065 128.012 197.81 128.489 197.707 129.008C197.604 129.527 197.658 130.065 197.861 130.554C198.064 131.042 198.408 131.459 198.849 131.752C199.289 132.045 199.807 132.201 200.336 132.199C201.042 132.197 201.719 131.916 202.218 131.417C202.717 130.918 202.998 130.241 203 129.535V129.535Z" fill="#7CCCDB" stroke="#2855AF" stroke-linecap="round" stroke-linejoin="round"/>
<path d="M212.066 129.535C212.066 129.008 211.91 128.493 211.617 128.055C211.325 127.617 210.909 127.276 210.422 127.074C209.935 126.872 209.399 126.819 208.883 126.922C208.366 127.025 207.891 127.279 207.519 127.651C207.146 128.024 206.892 128.499 206.789 129.015C206.687 129.532 206.739 130.068 206.941 130.555C207.143 131.041 207.484 131.457 207.922 131.75C208.36 132.043 208.875 132.199 209.402 132.199C210.108 132.197 210.785 131.916 211.284 131.417C211.783 130.917 212.064 130.241 212.066 129.535V129.535Z" fill="#7CCCDB" stroke="#2855AF" stroke-linecap="round" stroke-linejoin="round"/>
<path d="M221.137 129.535C221.139 129.007 220.983 128.489 220.691 128.049C220.398 127.608 219.981 127.265 219.493 127.061C219.005 126.858 218.467 126.804 217.949 126.906C217.43 127.008 216.953 127.262 216.578 127.635C216.204 128.009 215.949 128.485 215.845 129.003C215.741 129.522 215.794 130.059 215.996 130.548C216.198 131.037 216.54 131.455 216.98 131.749C217.419 132.043 217.936 132.199 218.465 132.199C219.172 132.197 219.849 131.916 220.349 131.417C220.85 130.918 221.133 130.242 221.137 129.535Z" fill="#7CCCDB" stroke="#2855AF" stroke-linecap="round" stroke-linejoin="round"/>
<path d="M34.1987 12.3047H91.7987C93.1693 12.3047 94.4838 12.8492 95.453 13.8184C96.4222 14.7875 96.9667 16.102 96.9667 17.4727V57.4007H29.0547V17.4727C29.0547 16.1062 29.5959 14.7953 30.5599 13.8268C31.5239 12.8583 32.8322 12.311 34.1987 12.3047V12.3047Z" fill="#7CCCDB" stroke="#2855AF" stroke-linecap="round" stroke-linejoin="round"/>
<path d="M96.9347 50.9609H29.0547V57.3769H96.9347V50.9609Z" fill="#2855AF" stroke="#2855AF" stroke-linecap="round" stroke-linejoin="round"/>
<path d="M93.832 53.1523H32.168V55.1843H93.832V53.1523Z" fill="white" stroke="#2855AF" stroke-linecap="round" stroke-linejoin="round"/>
<path d="M62.9971 42.1446C68.1753 42.1446 72.3731 37.9468 72.3731 32.7686C72.3731 27.5904 68.1753 23.3926 62.9971 23.3926C57.8189 23.3926 53.6211 27.5904 53.6211 32.7686C53.6211 37.9468 57.8189 42.1446 62.9971 42.1446Z" fill="#2855AF" stroke="#2855AF" stroke-linecap="round" stroke-linejoin="round"/>
<path d="M58.7656 26.9375L68.8856 32.7775L58.7656 38.6175V26.9375Z" fill="white" stroke="#2855AF" stroke-linecap="round" stroke-linejoin="round"/>
<path d="M67.5745 73.8008H3.15053C1.90458 73.8008 0.894531 74.8108 0.894531 76.0568V100.609C0.894531 101.855 1.90458 102.865 3.15053 102.865H67.5745C68.8205 102.865 69.8305 101.855 69.8305 100.609V76.0568C69.8305 74.8108 68.8205 73.8008 67.5745 73.8008Z" fill="#2855AF" stroke="#2855AF" stroke-linecap="round" stroke-linejoin="round"/>
<path d="M9.1017 77.7598L9.4377 78.3198C7.9177 79.1678 6.5017 80.6558 6.5017 82.3998C6.48224 82.6994 6.52278 82.9998 6.62094 83.2835C6.71909 83.5673 6.87288 83.8285 7.0733 84.052C7.27373 84.2756 7.51675 84.4568 7.78812 84.5852C8.0595 84.7136 8.35377 84.7866 8.6537 84.7998C8.8777 84.7998 9.0297 84.6878 9.0297 84.4638C9.0297 84.2398 8.9177 84.1678 8.6937 84.1278C8.39163 84.0459 8.12846 83.8594 7.95115 83.6015C7.77385 83.3436 7.69395 83.0311 7.7257 82.7198C7.73152 82.4714 7.78781 82.2267 7.89114 82.0008C7.99448 81.7748 8.14269 81.5722 8.32678 81.4054C8.51087 81.2385 8.72699 81.1108 8.96198 81.0301C9.19697 80.9493 9.44592 80.9173 9.6937 80.9358C9.96324 80.9367 10.2299 80.9917 10.4778 81.0974C10.7257 81.2032 10.9499 81.3576 11.1371 81.5516C11.3243 81.7455 11.4708 81.975 11.5677 82.2265C11.6647 82.478 11.7103 82.7464 11.7017 83.0158C11.6978 83.3543 11.6257 83.6887 11.4897 83.9987C11.3537 84.3088 11.1566 84.5883 10.9102 84.8206C10.6638 85.0528 10.3731 85.233 10.0555 85.3504C9.73791 85.4677 9.39991 85.5199 9.0617 85.5038C8.64123 85.531 8.21973 85.4696 7.82451 85.3235C7.42929 85.1774 7.06917 84.9499 6.76749 84.6558C6.4658 84.3616 6.22928 84.0074 6.07324 83.616C5.9172 83.2246 5.84513 82.8048 5.8617 82.3838C5.8377 80.3598 7.3977 78.7278 9.1017 77.7598ZM15.9737 77.7598L16.3097 78.3198C14.7817 79.1678 13.3737 80.6558 13.3737 82.3998C13.3531 82.6996 13.3929 83.0005 13.4906 83.2847C13.5884 83.5689 13.7421 83.8306 13.9427 84.0543C14.1434 84.2781 14.3868 84.4594 14.6587 84.5874C14.9306 84.7154 15.2254 84.7876 15.5257 84.7998C15.7497 84.7998 15.9017 84.6878 15.9017 84.4638C15.9017 84.2398 15.7897 84.1678 15.5657 84.1278C15.2636 84.0459 15.0005 83.8594 14.8232 83.6015C14.6458 83.3436 14.5659 83.0311 14.5977 82.7198C14.6024 82.471 14.6579 82.2258 14.7608 81.9993C14.8638 81.7728 15.012 81.5698 15.1963 81.4027C15.3807 81.2356 15.5973 81.1079 15.8327 81.0276C16.0682 80.9473 16.3177 80.9161 16.5657 80.9358C16.8352 80.9367 17.1019 80.9917 17.3498 81.0974C17.5977 81.2032 17.8219 81.3576 18.0091 81.5516C18.1963 81.7455 18.3428 81.975 18.4397 82.2265C18.5367 82.478 18.5823 82.7464 18.5737 83.0158C18.5687 83.354 18.4958 83.6878 18.3595 83.9974C18.2231 84.3069 18.026 84.586 17.7798 84.818C17.5336 85.05 17.2434 85.2303 16.9263 85.348C16.6092 85.4658 16.2716 85.5188 15.9337 85.5038C15.5135 85.5297 15.0926 85.4674 14.6979 85.3209C14.3033 85.1744 13.9437 84.9469 13.6422 84.653C13.3408 84.3591 13.1043 84.0053 12.9478 83.6145C12.7913 83.2237 12.7184 82.8045 12.7337 82.3838C12.7017 80.3598 14.2617 78.7278 15.9737 77.7598Z" fill="#7CCCDB"/>
<path d="M22.5508 83.6816H61.7828" stroke="white" stroke-linecap="round" stroke-linejoin="round"/>
<path d="M22.5508 87.0488H61.7828" stroke="white" stroke-linecap="round" stroke-linejoin="round"/>
<path d="M22.5508 90.416H61.7828" stroke="white" stroke-linecap="round" stroke-linejoin="round"/>
<path d="M22.5508 93.793H61.7828" stroke="white" stroke-linecap="round" stroke-linejoin="round"/>
<path d="M54.8427 147.929C62.9403 146.607 68.4333 138.971 67.1116 130.874C65.7899 122.776 58.1541 117.283 50.0565 118.605C41.9589 119.927 36.466 127.562 37.7876 135.66C39.1093 143.758 46.7452 149.251 54.8427 147.929Z" fill="#2855AF" stroke="#2855AF" stroke-linecap="round" stroke-linejoin="round"/>
<path d="M61.8724 141.555C66.441 136.353 65.9274 128.432 60.7253 123.863C55.5232 119.295 47.6024 119.808 43.0339 125.01C38.4653 130.213 38.9789 138.133 44.181 142.702C49.3831 147.27 57.3039 146.757 61.8724 141.555Z" fill="white" stroke="#2855AF" stroke-linecap="round" stroke-linejoin="round"/>
<path d="M52.4531 124.201V133.265H58.5811" stroke="#2855AF" stroke-width="2" stroke-linecap="round" stroke-linejoin="round"/>
<path d="M145.401 133.296C145.401 133.296 153.921 151.48 153.921 152.44C153.921 153.4 146.361 157.512 144.921 158.376C143.804 159.012 142.653 159.587 141.473 160.096L142.337 168.52C142.337 168.52 155.353 165.552 160.809 162.584C166.265 159.616 166.073 156.264 164.809 151.288C163.545 146.312 155.137 127.08 155.137 127.08L145.401 133.296Z" fill="white"/>
<g style="mix-blend-mode:multiply" opacity="0.5">
<path d="M160.783 162.584C166.239 159.616 166.047 156.264 164.783 151.288C163.519 146.312 155.111 127.08 155.111 127.08L153.751 127.944L153.319 128.744C153.319 128.744 161.167 148.008 161.639 154.424C161.959 158.736 153.279 164.112 147.543 167.184C151.799 166.056 157.591 164.32 160.783 162.584Z" fill="#7CCCDB"/>
</g>
<path d="M145.401 133.296C145.401 133.296 153.921 151.48 153.921 152.44C153.921 153.4 146.361 157.512 144.921 158.376C143.804 159.012 142.653 159.587 141.473 160.096L142.337 168.52C142.337 168.52 155.353 165.552 160.809 162.584C166.265 159.616 166.073 156.264 164.809 151.288C163.545 146.312 155.137 127.08 155.137 127.08L145.401 133.296Z" stroke="#2855AF" stroke-linecap="round" stroke-linejoin="round"/>
<path d="M83.9254 129.281C83.9254 129.281 77.7094 152.057 77.5254 156.081C77.3414 160.105 89.8694 168.041 90.3254 168.521C90.7814 169.001 89.6134 154.681 89.6134 154.681L93.8614 133.881L83.9254 129.281Z" fill="white"/>
<g style="mix-blend-mode:multiply" opacity="0.5">
<path d="M86.7734 131.145L86.6374 130.529L83.9254 129.281C83.9254 129.281 77.7094 152.057 77.5254 156.081C77.3414 160.105 89.8694 168.041 90.3254 168.521C90.5094 168.713 90.4374 166.569 90.2854 163.921C86.5574 160.761 81.2054 156.313 80.5814 154.441" fill="#7CCCDB"/>
</g>
<path d="M83.9254 129.281C83.9254 129.281 77.7094 152.057 77.5254 156.081C77.3414 160.105 89.8694 168.041 90.3254 168.521C90.7814 169.001 89.6134 154.681 89.6134 154.681L93.8614 133.881L83.9254 129.281Z" stroke="#2855AF" stroke-linecap="round" stroke-linejoin="round"/>
<path d="M113.118 106.401C113.118 106.401 110.718 108.129 106.038 108.321C101.358 108.513 101.134 105.121 95.3177 105.121C88.2697 105.121 79.4297 127.417 79.4297 127.417C79.4297 127.417 83.8297 131.729 88.1417 133.545C90.527 134.59 93.0349 135.329 95.6057 135.745L96.2777 150.393H143.75L144.318 135.745L159.158 126.121C159.158 126.121 151.878 113.105 148.342 108.225C144.806 103.345 138.862 105.161 137.046 106.401C135.23 107.641 129.846 107.937 127.862 107.649C125.273 107.076 122.716 106.374 120.198 105.545C120.198 105.545 117.142 103.001 113.118 106.401Z" fill="#7CCCDB" stroke="#2855AF" stroke-linecap="round" stroke-linejoin="round"/>
<path d="M96.0865 111.568L95.8945 135.88" stroke="#2855AF" stroke-width="0.5" stroke-linecap="round" stroke-linejoin="round"/>
<path d="M97.8086 113.777C97.8086 113.777 98.4806 125.641 101.009 132.249" stroke="#2855AF" stroke-width="0.5" stroke-linecap="round" stroke-linejoin="round"/>
<path d="M101.445 133.201C101.991 134.814 102.663 136.381 103.453 137.889" stroke="#2855AF" stroke-width="0.5" stroke-linecap="round" stroke-linejoin="round"/>
<path d="M99.3359 112.434C100.244 116.748 101.526 120.974 103.168 125.066" stroke="#2855AF" stroke-width="0.5" stroke-linecap="round" stroke-linejoin="round"/>
<path d="M140.597 114.537C140.597 114.537 138.301 123.921 136.285 128.137" stroke="#2855AF" stroke-width="0.5" stroke-linecap="round" stroke-linejoin="round"/>
<path d="M144.319 135.784L144.223 116.832" stroke="#2855AF" stroke-width="0.5" stroke-linecap="round" stroke-linejoin="round"/>
<path d="M143.272 117.217C143.272 117.217 141.544 129.217 137.336 135.497" stroke="#2855AF" stroke-width="0.5" stroke-linecap="round" stroke-linejoin="round"/>
<path d="M141.166 133.105C141.166 133.105 139.246 136.745 137.91 138.657" stroke="#2855AF" stroke-width="0.5" stroke-linecap="round" stroke-linejoin="round"/>
<path d="M110.438 107.842C110.438 107.842 111.781 116.074 113.693 120.282C115.605 124.49 118.957 125.354 121.829 124.114C124.701 122.874 126.805 116.738 126.629 108.914" stroke="#2855AF" stroke-width="0.5" stroke-linecap="round" stroke-linejoin="round"/>
<path d="M103.648 90.6081C103.648 90.6081 101.824 87.4562 100.392 89.0802C98.9595 90.7042 101.544 94.4402 102.976 95.6801C104.408 96.9201 105.464 96.1601 105.376 94.8241C105.288 93.4881 103.648 90.6081 103.648 90.6081Z" fill="#7CCCDB" stroke="#2855AF" stroke-linecap="round" stroke-linejoin="round"/>
<path opacity="0.5" d="M103.648 90.6081C103.648 90.6081 101.824 87.4562 100.392 89.0802C98.9595 90.7042 101.544 94.4402 102.976 95.6801C104.408 96.9201 105.464 96.1601 105.376 94.8241C105.288 93.4881 103.648 90.6081 103.648 90.6081Z" fill="white"/>
<path d="M103.648 90.6081C103.648 90.6081 101.824 87.4562 100.392 89.0802C98.9595 90.7042 101.544 94.4402 102.976 95.6801C104.408 96.9201 105.464 96.1601 105.376 94.8241C105.288 93.4881 103.648 90.6081 103.648 90.6081Z" stroke="#2855AF" stroke-linecap="round" stroke-linejoin="round"/>
<path d="M132.597 90.6081C132.597 90.6081 134.413 87.4562 135.853 89.0802C137.293 90.7042 134.701 94.4402 133.269 95.6801C131.837 96.9201 130.773 96.1601 130.869 94.8241C130.965 93.4881 132.597 90.6081 132.597 90.6081Z" fill="#7CCCDB" stroke="#2855AF" stroke-linecap="round" stroke-linejoin="round"/>
<path opacity="0.5" d="M132.597 90.6081C132.597 90.6081 134.413 87.4562 135.853 89.0802C137.293 90.7042 134.701 94.4402 133.269 95.6801C131.837 96.9201 130.773 96.1601 130.869 94.8241C130.965 93.4881 132.597 90.6081 132.597 90.6081Z" fill="white"/>
<path d="M132.597 90.6081C132.597 90.6081 134.413 87.4562 135.853 89.0802C137.293 90.7042 134.701 94.4402 133.269 95.6801C131.837 96.9201 130.773 96.1601 130.869 94.8241C130.965 93.4881 132.597 90.6081 132.597 90.6081Z" stroke="#2855AF" stroke-linecap="round" stroke-linejoin="round"/>
<path d="M112.254 105.736C113.158 109.821 114.309 113.847 115.702 117.792C117.43 122.096 120.678 122.096 122.022 119.32C123.366 116.544 124.222 106.2 124.222 106.2C124.222 106.2 115.222 107.456 112.254 105.736Z" fill="white" stroke="#2855AF" stroke-linecap="round" stroke-linejoin="round"/>
<path d="M103.84 91.6657C103.84 91.6657 106.328 100.466 111.04 105.642C115.752 110.818 117.44 112.042 119.944 111.666C122.448 111.29 125.112 108.034 128.84 101.266C132.568 94.4977 132.84 89.3057 133.152 88.8257C133.464 88.3457 132.352 78.7777 127.024 74.6577C121.696 70.5377 115.728 68.7297 110.56 73.2257C105.392 77.7217 102.112 85.0577 103.84 91.6657Z" fill="white"/>
<g style="mix-blend-mode:multiply" opacity="0.5">
<path d="M126.998 74.6241C121.638 70.5121 115.702 68.6961 110.534 73.1921C105.366 77.6881 102.11 85.0561 103.838 91.6641C103.838 91.6641 104.31 93.3601 105.246 95.6641C105.243 95.3691 105.284 95.0753 105.366 94.7921C106.51 91.1681 109.886 84.1521 121.246 87.3681C130.27 89.9121 129.166 97.8481 128.326 102.08L128.814 101.2C132.55 94.4081 132.814 89.2401 133.126 88.7601C133.438 88.2801 132.358 78.7441 126.998 74.6241Z" fill="#7CCCDB"/>
</g>
<path d="M103.84 91.6657C103.84 91.6657 106.328 100.466 111.04 105.642C115.752 110.818 117.44 112.042 119.944 111.666C122.448 111.29 125.112 108.034 128.84 101.266C132.568 94.4977 132.84 89.3057 133.152 88.8257C133.464 88.3457 132.352 78.7777 127.024 74.6577C121.696 70.5377 115.728 68.7297 110.56 73.2257C105.392 77.7217 102.112 85.0577 103.84 91.6657Z" stroke="#2855AF" stroke-linecap="round" stroke-linejoin="round"/>
<path d="M119.918 96.2578C119.621 98.1263 119.461 100.014 119.438 101.906C119.534 103.818 120.11 104.394 119.246 104.586C118.382 104.778 117.43 103.434 117.43 103.434" stroke="#2855AF" stroke-linecap="round" stroke-linejoin="round"/>
<path d="M110.344 97.793C110.898 98.1935 111.561 98.417 112.245 98.4342C112.929 98.4513 113.602 98.2612 114.176 97.889" stroke="#2855AF" stroke-linecap="round" stroke-linejoin="round"/>
<path d="M122.504 97.793C123.057 98.1928 123.719 98.416 124.401 98.4331C125.083 98.4502 125.755 98.2605 126.328 97.889" stroke="#2855AF" stroke-linecap="round" stroke-linejoin="round"/>
<path d="M116.453 94.5692C116.453 94.5692 114.629 90.0652 108.605 92.1692" stroke="#2855AF" stroke-linecap="round" stroke-linejoin="round"/>
<path d="M121.473 94.017C121.473 94.017 123.001 89.609 128.457 92.193" stroke="#2855AF" stroke-linecap="round" stroke-linejoin="round"/>
<path d="M117.616 98.1208C117.616 100.585 114.792 102.577 111.304 102.577C107.816 102.577 104.984 100.585 104.984 98.1208C104.984 95.6568 107.624 94.6328 111.112 94.6328C114.6 94.6328 117.616 95.6648 117.616 98.1208Z" stroke="#2855AF" stroke-linecap="round" stroke-linejoin="round"/>
<path d="M132.167 98.1208C132.167 100.585 129.335 102.577 125.847 102.577C122.359 102.577 119.535 100.585 119.535 98.1208C119.535 95.6568 122.167 94.6328 125.655 94.6328C129.143 94.6328 132.167 95.6648 132.167 98.1208Z" stroke="#2855AF" stroke-linecap="round" stroke-linejoin="round"/>
<path d="M51.5014 174.865L51.1094 271.849C51.1094 272.155 51.2307 272.448 51.4468 272.664C51.6628 272.88 51.9558 273.001 52.2614 273.001V273.001C52.5593 273.001 52.8456 272.885 53.0592 272.678C53.2728 272.47 53.397 272.187 53.4054 271.889L56.1734 175.001L51.5014 174.865Z" fill="white" stroke="#2855AF" stroke-linecap="round" stroke-linejoin="round"/>
<path d="M44.9737 197.537L44.5977 297.801C44.5966 297.953 44.6257 298.103 44.6832 298.243C44.7407 298.383 44.8255 298.511 44.9327 298.618C45.0399 298.725 45.1673 298.81 45.3076 298.868C45.4478 298.925 45.5981 298.954 45.7497 298.953V298.953C46.0471 298.953 46.333 298.839 46.5478 298.633C46.7625 298.427 46.8893 298.146 46.9017 297.849L49.6617 197.665L44.9737 197.537Z" fill="white" stroke="#2855AF" stroke-linecap="round" stroke-linejoin="round"/>
<path d="M185.582 174.865L185.974 271.849C185.975 272 185.946 272.15 185.889 272.29C185.832 272.429 185.748 272.556 185.642 272.663C185.535 272.77 185.409 272.855 185.27 272.913C185.13 272.971 184.981 273.001 184.83 273.001V273.001C184.531 273.001 184.244 272.886 184.029 272.678C183.814 272.471 183.688 272.188 183.678 271.889L180.918 175.001L185.582 174.865Z" fill="white" stroke="#2855AF" stroke-linecap="round" stroke-linejoin="round"/>
<path d="M192.117 197.537L192.509 297.801C192.51 297.953 192.481 298.103 192.424 298.243C192.366 298.383 192.281 298.511 192.174 298.618C192.067 298.725 191.94 298.81 191.799 298.868C191.659 298.925 191.509 298.954 191.357 298.953V298.953C191.061 298.953 190.776 298.838 190.562 298.632C190.349 298.426 190.224 298.146 190.213 297.849L187.445 197.665L192.117 197.537Z" fill="white" stroke="#2855AF" stroke-linecap="round" stroke-linejoin="round"/>
<path d="M90.4329 201.705L90.2009 290.697C90.1756 290.919 90.2372 291.142 90.373 291.32C90.5087 291.497 90.708 291.615 90.9289 291.649V291.649C91.1445 291.619 91.3407 291.508 91.4774 291.339C91.6141 291.169 91.6812 290.954 91.6649 290.737L93.4009 201.809L90.4329 201.705Z" fill="white" stroke="#2855AF" stroke-linecap="round" stroke-linejoin="round"/>
<path d="M146.758 198.842L146.974 276.506C146.992 276.694 146.938 276.882 146.822 277.031C146.706 277.179 146.537 277.278 146.35 277.306C146.164 277.278 145.996 277.179 145.881 277.03C145.766 276.881 145.713 276.693 145.734 276.506L144.254 198.906L146.758 198.842Z" fill="white" stroke="#2855AF" stroke-linecap="round" stroke-linejoin="round"/>
<path d="M89.5587 198.842L89.7747 276.506C89.7932 276.694 89.7387 276.882 89.6226 277.031C89.5064 277.179 89.3375 277.278 89.1507 277.306C88.9645 277.278 88.7963 277.179 88.6815 277.03C88.5666 276.881 88.514 276.693 88.5347 276.506L87.0547 198.906L89.5587 198.842Z" fill="white" stroke="#2855AF" stroke-linecap="round" stroke-linejoin="round"/>
<path d="M145.151 201.705L145.399 290.697C145.425 290.919 145.363 291.142 145.227 291.32C145.091 291.497 144.892 291.615 144.671 291.649C144.456 291.617 144.261 291.506 144.125 291.337C143.989 291.168 143.921 290.954 143.935 290.737L142.199 201.809L145.151 201.705Z" fill="white" stroke="#2855AF" stroke-linecap="round" stroke-linejoin="round"/>
<path d="M117.401 207.936C137.062 207.936 153.001 204.293 153.001 199.8C153.001 195.307 137.062 191.664 117.401 191.664C97.7394 191.664 81.8008 195.307 81.8008 199.8C81.8008 204.293 97.7394 207.936 117.401 207.936Z" fill="white" stroke="#2855AF" stroke-linecap="round" stroke-linejoin="round"/>
<path d="M100.062 268.866C100.062 268.866 98.198 271.538 99.534 272.866C100.87 274.194 102.198 273.666 102.062 275.002C101.926 276.338 99.798 280.866 97.934 285.666C96.07 290.466 99.934 295.266 103.534 293.938C107.134 292.61 106.734 279.266 107.262 276.866C107.79 274.466 108.198 274.066 108.062 271.802C107.926 269.538 107.798 267.138 106.062 266.866C104.326 266.594 100.862 267.938 100.062 268.866Z" fill="white" stroke="#2855AF" stroke-linecap="round" stroke-linejoin="round"/>
<path d="M105.785 290.256C103.385 289.344 99.7048 289.528 97.6328 289.736C98.3288 292.752 100.993 294.872 103.537 293.936C104.601 293.544 105.297 292.12 105.785 290.256Z" fill="#7CCCDB" stroke="#2855AF" stroke-linecap="round" stroke-linejoin="round"/>
<path d="M95.9336 263C95.9336 263 99.7976 269.536 100.862 271.264C101.926 272.992 105.534 272.464 105.934 270.064C106.334 267.664 104.462 261 104.462 261L96.4616 263H95.9336Z" fill="white" stroke="#2855AF" stroke-linecap="round" stroke-linejoin="round"/>
<path d="M86.7369 252.6C86.7369 252.6 85.6649 254.336 86.2009 255.536C86.7369 256.736 88.2009 260.2 89.1369 261.936C90.0729 263.672 94.3369 264.736 99.2649 263.936C104.193 263.136 107.001 260.864 107.137 258.864C107.273 256.864 106.337 254.2 105.665 251C104.993 247.8 103.265 247.936 100.865 247.936C98.4649 247.936 88.7369 250.736 86.7369 252.6Z" fill="#7CCCDB" stroke="#2855AF" stroke-linecap="round" stroke-linejoin="round"/>
<path d="M101.135 213.402C101.207 210.122 103.103 208.506 103.247 206.258C103.473 203.286 103.227 200.297 102.519 197.402L98.871 192.418C88.375 192.554 80.855 192.73 80.735 192.77C80.335 192.898 80.063 195.17 79.799 197.034C79.799 197.034 75.343 197.602 76.143 210.002C76.255 211.73 80.751 231.722 81.079 234.002C83.079 247.93 87.535 254.906 87.535 254.906C87.535 254.906 87.935 256.642 93.135 256.242C98.335 255.842 103.535 252.378 103.535 252.378C103.535 252.378 100.863 225.266 101.135 213.402Z" fill="#2855AF" stroke="white" stroke-linecap="round" stroke-linejoin="round"/>
<path d="M79.0786 195.001C79.0786 195.001 73.5666 195.801 70.1906 199.657C66.8146 203.513 69.6786 206.057 76.2386 205.369C82.7986 204.681 90.3665 197.969 90.6865 197.609C91.0065 197.249 83.8466 192.689 79.0786 195.001Z" fill="white" stroke="#2855AF" stroke-linecap="round" stroke-linejoin="round"/>
<path d="M88.863 197.402C92.3748 197.582 95.8593 198.118 99.263 199.002C103.799 200.338 111.799 203.002 113.663 203.002C115.527 203.002 114.999 196.066 114.999 194.738C114.999 193.41 90.999 192.602 88.063 192.602C85.127 192.602 88.863 197.402 88.863 197.402Z" fill="white" stroke="#2855AF" stroke-linecap="round" stroke-linejoin="round"/>
<path d="M114.999 194.737C114.999 194.737 112.863 195.801 112.063 199.801C111.263 203.801 110.199 205.937 111.799 207.001C113.399 208.065 120.335 208.865 121.399 207.801C122.463 206.737 125.399 201.401 125.935 197.937C126.471 194.473 114.999 194.737 114.999 194.737Z" fill="#7CCCDB" stroke="#2855AF" stroke-linecap="round" stroke-linejoin="round"/>
<path d="M124.065 196.064C122.825 197.488 121.835 199.111 121.137 200.864C120.571 202.7 120.125 204.571 119.801 206.464C122.353 207.164 124.848 208.057 127.265 209.137C131.537 211.001 138.737 212.337 145.665 213.937C152.593 215.537 154.465 217.137 156.865 217.137C159.265 217.137 162.201 215.265 165.937 210.737C169.673 206.209 166.465 196.6 162.737 193.664C159.009 190.728 139.001 188.337 136.337 189.137C133.673 189.937 124.065 196.064 124.065 196.064Z" fill="#2855AF" stroke="white" stroke-linecap="round" stroke-linejoin="round"/>
<path d="M74.0302 205.441C73.5033 203.047 72.4361 200.806 70.9102 198.889C70.6622 199.121 70.4222 199.361 70.1902 199.625C67.2222 203.001 69.0782 205.401 74.0302 205.441Z" fill="#7CCCDB" stroke="#2855AF" stroke-linecap="round" stroke-linejoin="round"/>
<path d="M100.727 207.553C100.727 207.553 97.9754 237.001 92.3594 241.585" stroke="white" stroke-width="0.5" stroke-linecap="round" stroke-linejoin="round"/>
<path d="M98.7831 235.506C98.7831 235.506 96.5991 245.106 90.8711 248.922" stroke="white" stroke-width="0.5" stroke-linecap="round" stroke-linejoin="round"/>
<path d="M134.199 202.201C134.199 202.201 125.663 202.737 131.263 206.465C136.863 210.193 146.999 212.601 146.999 212.601" stroke="white" stroke-width="0.5" stroke-linecap="round" stroke-linejoin="round"/>
<path d="M196.167 192.113L193.287 189.521L186.631 175.121C186.315 174.466 185.82 173.915 185.202 173.531C184.584 173.147 183.87 172.947 183.143 172.953H53.8631C53.1346 172.945 52.4187 173.145 51.7995 173.529C51.1804 173.912 50.6835 174.465 50.3671 175.121L42.0711 193.057L40.7031 192.553V196.657L40.7671 196.609C40.8486 197.157 41.1265 197.656 41.549 198.014C41.9715 198.372 42.5096 198.563 43.0631 198.553H193.935C194.518 198.567 195.083 198.353 195.512 197.958C195.94 197.562 196.198 197.016 196.231 196.433L196.167 192.113Z" fill="#2855AF" stroke="#2855AF" stroke-linecap="round" stroke-linejoin="round"/>
<path d="M193.933 194.802H43.0613C42.6877 194.816 42.3164 194.736 41.9823 194.568C41.6482 194.4 41.3622 194.15 41.1511 193.842C40.94 193.533 40.8108 193.176 40.7755 192.804C40.7402 192.431 40.8 192.056 40.9493 191.714L50.3653 171.37C50.6801 170.712 51.1766 170.158 51.7962 169.774C52.4157 169.39 53.1324 169.191 53.8613 169.202H183.141C183.869 169.193 184.584 169.392 185.202 169.776C185.82 170.16 186.315 170.713 186.629 171.37L196.045 191.714C196.195 192.056 196.254 192.431 196.219 192.804C196.184 193.176 196.055 193.533 195.844 193.842C195.632 194.15 195.346 194.4 195.012 194.568C194.678 194.736 194.307 194.816 193.933 194.802V194.802Z" fill="white" stroke="#2855AF" stroke-linecap="round" stroke-linejoin="round"/>
<g style="mix-blend-mode:multiply" opacity="0.5">
<path d="M50.7013 181.138C50.7013 181.138 47.2853 183.482 49.4213 184.338C51.5573 185.194 76.1093 184.554 79.1013 183.698C82.0933 182.842 85.5013 174.946 85.5013 173.666C85.5013 172.386 81.1973 171.466 79.6133 171.394C78.0293 171.322 57.1013 172.594 57.1013 172.594L50.7013 181.138Z" fill="#7CCCDB"/>
</g>
<g style="mix-blend-mode:multiply" opacity="0.5">
<path d="M172.83 185.194C177.664 185.194 181.582 183.568 181.582 181.562C181.582 179.556 177.664 177.93 172.83 177.93C167.997 177.93 164.078 179.556 164.078 181.562C164.078 183.568 167.997 185.194 172.83 185.194Z" fill="#7CCCDB"/>
</g>
<g style="mix-blend-mode:multiply" opacity="0.5">
<path d="M117.111 189.681C134.443 189.681 148.495 187.053 148.495 183.809C148.495 180.566 134.443 177.938 117.111 177.938C99.7777 177.938 85.7266 180.566 85.7266 183.809C85.7266 187.053 99.7777 189.681 117.111 189.681Z" fill="#7CCCDB"/>
</g>
<path d="M166.432 167.273C166.432 167.273 165.856 164.977 163.944 165.745C162.032 166.513 162.224 171.585 162.6 174.457C162.976 177.329 165.568 175.985 165.568 175.985V174.265C165.568 174.265 164.616 175.025 164.136 173.977C163.656 172.929 163.752 167.657 164.232 167.753C164.712 167.849 165.664 169.473 165.664 169.473C165.664 169.473 165.952 169.289 166.432 167.273Z" fill="#7CCCDB" stroke="#2855AF" stroke-linecap="round" stroke-linejoin="round"/>
<path d="M165.055 167.656V180.232C165.055 181.712 168.455 182.912 172.655 182.912C176.855 182.912 180.247 181.712 180.247 180.232V167.656H165.055Z" fill="#7CCCDB" stroke="#2855AF" stroke-linecap="round" stroke-linejoin="round"/>
<path d="M180.247 167.658C180.247 168.938 176.847 169.97 172.655 169.97C168.463 169.97 165.055 168.938 165.055 167.658C165.055 166.378 168.455 165.346 172.655 165.346C176.855 165.346 180.247 166.386 180.247 167.658Z" fill="white" stroke="#2855AF" stroke-linecap="round" stroke-linejoin="round"/>
<path d="M179.255 167.656C179.255 168.768 176.295 169.664 172.655 169.664C169.015 169.664 166.047 168.768 166.047 167.656C166.047 166.544 169.007 165.648 172.655 165.648C176.303 165.648 179.255 166.544 179.255 167.656Z" fill="white" stroke="#2855AF" stroke-linecap="round" stroke-linejoin="round"/>
<path d="M167.559 168.937C170.884 169.907 174.417 169.907 177.743 168.937C174.417 167.966 170.884 167.966 167.559 168.937V168.937Z" fill="#2855AF" stroke="#2855AF" stroke-linecap="round" stroke-linejoin="round"/>
<path d="M49.7578 173.402L49.8538 177.706L78.8538 177.994V173.018L49.7578 173.402Z" fill="white" stroke="#2855AF" stroke-linecap="round" stroke-linejoin="round"/>
<path d="M78.8561 177.993L83.0721 168.905V166.225L78.6641 173.881L78.8561 177.993Z" fill="white" stroke="#2855AF" stroke-linecap="round" stroke-linejoin="round"/>
<path d="M49.7578 177.321L49.8538 181.633L78.8538 181.921V176.945L49.7578 177.321Z" fill="white" stroke="#2855AF" stroke-linecap="round" stroke-linejoin="round"/>
<path d="M78.8561 181.921L83.0721 172.825V170.145L78.6641 177.801L78.8561 181.921Z" fill="white" stroke="#2855AF" stroke-linecap="round" stroke-linejoin="round"/>
<path d="M60.9604 162.488C60.9604 162.488 61.6324 161.152 60.6724 160.576C59.7124 160 58.6644 161.376 58.0884 161.816C57.5124 162.256 45.4564 170.24 45.0724 171.488C44.6884 172.736 45.0724 175.488 47.6564 175.792C50.2404 176.096 52.5364 174.36 53.6884 174.072C54.8404 173.784 55.2884 173.688 55.2884 173.688L63.2324 162.968L60.9604 162.488Z" fill="white" stroke="#2855AF" stroke-linecap="round" stroke-linejoin="round"/>
<path d="M47.6567 175.801C50.2407 176.089 52.5367 174.369 53.6887 174.081C54.8407 173.793 55.2887 173.697 55.2887 173.697L55.5767 173.305L48.1127 171.785C47.7069 171.403 47.1852 171.167 46.6301 171.115C46.0751 171.062 45.5186 171.197 45.0487 171.497C44.6887 172.729 45.0727 175.505 47.6567 175.801Z" fill="white" stroke="#2855AF" stroke-linecap="round" stroke-linejoin="round"/>
<path d="M48.1367 171.802H70.5367C77.5287 171.802 79.6327 171.418 79.6327 171.418L83.9367 162.514C83.9367 162.514 70.3367 163.378 66.1367 163.09C64.4012 163.04 62.6727 162.847 60.9687 162.514L48.1367 171.802Z" fill="white" stroke="#2855AF" stroke-linecap="round" stroke-linejoin="round"/>
<path d="M48.1367 171.8L48.5207 173.52C48.5207 173.52 66.7047 173.616 71.4887 173.616C76.2727 173.616 79.9127 173.808 79.9127 173.808L79.6247 171.408L48.1367 171.8Z" fill="white" stroke="#2855AF" stroke-linecap="round" stroke-linejoin="round"/>
<path d="M79.9091 173.784L83.9251 164.592V162.488L79.6211 171.392L79.9091 173.784Z" fill="white" stroke="#2855AF" stroke-linecap="round" stroke-linejoin="round"/>
<path d="M144.518 184.537H89.678C89.5565 184.538 89.436 184.515 89.3235 184.47C89.2109 184.424 89.1086 184.356 89.0223 184.271C88.936 184.185 88.8675 184.083 88.8208 183.971C88.7741 183.859 88.75 183.739 88.75 183.617C88.75 183.496 88.7741 183.376 88.8208 183.263C88.8675 183.151 88.936 183.049 89.0223 182.964C89.1086 182.878 89.2109 182.811 89.3235 182.765C89.436 182.719 89.5565 182.696 89.678 182.697H144.518C144.639 182.696 144.759 182.719 144.871 182.765C144.983 182.811 145.085 182.879 145.171 182.964C145.257 183.05 145.324 183.152 145.37 183.264C145.416 183.376 145.439 183.496 145.438 183.617C145.439 183.738 145.416 183.859 145.37 183.971C145.324 184.083 145.257 184.185 145.171 184.27C145.085 184.356 144.983 184.424 144.871 184.469C144.759 184.515 144.639 184.538 144.518 184.537V184.537Z" fill="white" stroke="#2855AF" stroke-linecap="round" stroke-linejoin="round"/>
<path d="M144.985 182.682H89.2089C89.0048 182.682 88.8082 182.604 88.6595 182.465C88.5108 182.325 88.4211 182.134 88.4089 181.93L85.3769 145.49C85.3632 145.377 85.3738 145.263 85.4078 145.154C85.4419 145.046 85.4986 144.946 85.5743 144.861C85.65 144.776 85.7429 144.708 85.8468 144.662C85.9507 144.616 86.0632 144.593 86.1769 144.594H148.025C148.139 144.593 148.251 144.616 148.355 144.662C148.459 144.708 148.552 144.776 148.627 144.861C148.703 144.946 148.76 145.046 148.794 145.154C148.828 145.263 148.839 145.377 148.825 145.49L145.793 181.93C145.781 182.135 145.69 182.327 145.539 182.467C145.389 182.607 145.19 182.684 144.985 182.682V182.682Z" fill="white" stroke="#2855AF" stroke-linecap="round" stroke-linejoin="round"/>
<path d="M122.36 164.266C122.36 166.442 120 168.202 117.096 168.202C114.192 168.202 111.824 166.442 111.824 164.266C111.824 162.09 114.184 160.338 117.096 160.338C120.008 160.338 122.36 162.098 122.36 164.266Z" fill="white" stroke="#2855AF" stroke-linecap="round" stroke-linejoin="round"/>
<path d="M176.863 135.8C177.719 135.133 178.32 134.193 178.567 133.136C178.747 132.344 178.728 131.519 178.511 130.736" stroke="#2855AF" stroke-linecap="round" stroke-linejoin="round"/>
<path d="M170.481 164.328C170.481 164.328 175.801 161.128 174.065 157.472C172.329 153.816 166.457 151.392 166.457 145.696C166.457 140.784 171.681 138.968 175.089 137" stroke="#2855AF" stroke-linecap="round" stroke-linejoin="round"/>
<path d="M175.393 164.224C175.393 164.224 178.361 162.248 178.361 159.112C178.361 157.008 176.113 155.632 173.145 152.248" stroke="#2855AF" stroke-linecap="round" stroke-linejoin="round"/>
<path d="M171.503 150.201C171.503 150.201 169.559 148.673 170.991 145.801" stroke="#2855AF" stroke-linecap="round" stroke-linejoin="round"/>
<path d="M130.831 62.225C129.713 64.8184 128.157 65.8222 127.102 66.2148C126.996 66.1455 126.889 66.0775 126.783 66.0107L130.831 62.225ZM130.831 62.225C130.853 62.1767 130.864 62.1247 130.865 62.0719M130.831 62.225L130.865 62.0719M130.865 62.0719C130.866 62.0192 130.857 61.9668 130.837 61.9177M130.865 62.0719L130.837 61.9177M130.837 61.9177C130.818 61.8686 130.789 61.8239 130.752 61.786M130.837 61.9177L130.752 61.786M130.752 61.786C130.716 61.7481 130.672 61.7178 130.623 61.697L130.752 61.786ZM125.162 66.1823L125.001 66.3773L125.364 66.3077L126.2 66.8259C131.085 69.8554 135.206 75.5826 134.574 82.1208L134.573 82.1241C134.396 84.0932 134.042 85.8806 133.64 87.2998C133.234 88.7343 132.794 89.7419 132.469 90.1926C132.467 90.1938 132.442 90.2181 132.366 90.2534C132.276 90.2957 132.143 90.3392 131.964 90.3781C131.607 90.4556 131.118 90.5022 130.531 90.509C129.358 90.5225 127.855 90.3771 126.343 90.0559L125.975 89.9776L125.82 90.2682C125.468 90.3403 125.112 90.3884 124.753 90.4123L124.837 89.583C123.628 89.2492 122.484 88.7152 121.452 88.0032C119.56 86.5816 118.012 84.7529 116.922 82.6523C115.831 80.5488 115.227 78.2266 115.155 75.8579L114.188 75.6944L114.084 75.9664L114.058 76.0341L114.053 76.1064C114.001 76.7736 113.96 77.5806 113.961 78.4548L113.13 78.2882C112.202 80.5102 111.142 82.6749 109.956 84.7708L109.955 84.7734C108.468 87.4398 106.439 89.7628 104.001 91.5939C102.169 88.9466 101.047 85.8705 100.746 82.66C100.468 77.5565 102.673 71.44 106.228 68.2387C106.841 67.7013 107.51 67.232 108.224 66.8391L109.151 66.3295L108.313 65.9943L108.382 65.998L107.715 65.135C106.542 63.6189 105.904 61.7572 105.899 59.8404C105.9 54.6257 110.755 50.293 116.887 50.293C123.02 50.293 127.874 54.6249 127.875 59.839C127.861 61.836 127.158 63.7669 125.886 65.3065L125.181 66.1594L125.139 66.1682L125.162 66.1823ZM115.54 85.3964C115.54 85.3963 115.539 85.3962 115.539 85.3961L115.871 85.193L115.54 85.3964Z" fill="#2855AF" stroke="white"/>
<path d="M116.009 72.6016C116.009 72.6016 115.353 77.4496 121.513 82.2016C127.673 86.9536 133.513 85.0816 133.513 85.0816" stroke="white" stroke-width="0.5" stroke-linecap="round" stroke-linejoin="round"/>
<path d="M116.91 71C116.91 71 123.398 80.448 132.358 77.984" stroke="white" stroke-width="0.5" stroke-linecap="round" stroke-linejoin="round"/>
<path d="M113.703 67.8565C112.68 67.337 111.534 67.1085 110.39 67.196C109.245 67.2834 108.147 67.6835 107.215 68.3525C103.767 70.6485 102.039 76.0725 102.039 76.0725" stroke="white" stroke-width="0.5" stroke-linecap="round" stroke-linejoin="round"/>
<path d="M113.871 70.4894C113.871 70.4894 111.079 69.7454 109.351 71.4733C108.509 72.2365 107.788 73.1242 107.215 74.1054" stroke="white" stroke-width="0.5" stroke-linecap="round" stroke-linejoin="round"/>
</svg>
