<svg width="283" height="242" viewBox="0 0 283 242" fill="none" xmlns="http://www.w3.org/2000/svg">
<path d="M239.365 74.9124C242.317 74.2181 244.996 72.6639 247.065 70.4464L252 72.1194L254.457 67.8564L250.551 64.4194C251.428 61.5115 251.428 58.4093 250.551 55.5014L254.457 52.0644L252 47.7944L247.065 49.4674C244.998 47.2495 242.317 45.6973 239.365 45.0084L238.343 39.8984H235.879" stroke="#2855AF" stroke-miterlimit="10"/>
<path d="M233.401 39.8984L232.379 45.0084C229.427 45.6988 226.747 47.2509 224.679 49.4674L219.779 47.7944L217.322 52.0644L221.228 55.5014C220.35 58.4093 220.35 61.5115 221.228 64.4194L217.301 67.8564L219.758 72.1194L224.658 70.4464C226.727 72.6626 229.407 74.2165 232.358 74.9124L233.38 80.0154H238.28L239.302 74.9124" stroke="#2855AF" stroke-miterlimit="10"/>
<path d="M235.562 68.1723C226.784 67.5563 225.139 54.7743 233.91 52.5273" stroke="#2855AF" stroke-miterlimit="10"/>
<path d="M241.101 54.291C245.469 58.288 244.09 66.1 238.301 67.864" stroke="#2855AF" stroke-miterlimit="10"/>
<path d="M236.898 52.3516C237.662 52.4421 238.408 52.6474 239.11 52.9606" stroke="#2855AF" stroke-miterlimit="10"/>
<path d="M265.516 78.7981L266.552 77.5591C268.481 78.088 270.524 78.0369 272.425 77.4121L274.749 79.9251" stroke="#2855AF" stroke-miterlimit="10"/>
<path d="M261.688 59.4004L262.143 60.6254C260.721 62.031 259.747 63.826 259.343 65.7844L256.004 66.5474L256.081 69.7884L259.462 70.3764C259.714 71.3381 260.106 72.2578 260.624 73.1064C261.142 73.9549 261.784 74.7216 262.528 75.3814L261.513 78.6574L264.362 80.2044" stroke="#2855AF" stroke-miterlimit="10"/>
<path d="M274.749 79.9235L277.5 78.2295L276.324 75.0095C277.744 73.6024 278.717 71.808 279.124 69.8505L282.463 69.0945L282.379 65.8535L279.005 65.2655C278.5 63.3308 277.433 61.5891 275.939 60.2605L276.954 56.9845L274.105 55.4375L271.9 58.0695C269.973 57.5336 267.931 57.5848 266.034 58.2165L263.703 55.7035L260.938 57.3975" stroke="#2855AF" stroke-miterlimit="10"/>
<path d="M274.335 66.624C275.294 70.6419 271.472 74.5129 267.433 72.8819C263.583 71.3209 263.023 65.672 266.6 63.502" stroke="#2855AF" stroke-miterlimit="10"/>
<path d="M271.031 63.0117C271.836 63.2973 272.558 63.7784 273.131 64.4117" stroke="#2855AF" stroke-miterlimit="10"/>
<path d="M49.1758 146.201L54.4398 151.458C54.2164 152.397 54.2373 153.378 54.5004 154.307C54.7635 155.237 55.2601 156.083 55.943 156.766C56.6258 157.449 57.4721 157.945 58.4012 158.208C59.3303 158.471 60.3113 158.492 61.2508 158.269L57.9468 154.972L58.8428 151.626L62.1818 150.73L65.4858 154.034C65.7092 153.094 65.6883 152.113 65.4252 151.184C65.1621 150.255 64.6654 149.409 63.9826 148.726C63.2998 148.043 62.4535 147.547 61.5244 147.284C60.5953 147.02 59.6143 147 58.6748 147.223L53.8308 142.379" stroke="#2855AF" stroke-miterlimit="10"/>
<path d="M46.1361 134.706L41.3131 129.883C41.5272 128.945 41.4991 127.968 41.2317 127.045C40.9642 126.121 40.4661 125.28 39.7843 124.602C39.1024 123.923 38.2592 123.429 37.3339 123.167C36.4086 122.904 35.4317 122.881 34.4951 123.1L37.7991 126.404L36.9031 129.743L33.5641 130.639L30.2601 127.3C30.0389 128.24 30.0615 129.221 30.3257 130.15C30.59 131.079 31.0872 131.925 31.7701 132.608C32.453 133.291 33.2991 133.788 34.228 134.052C35.1569 134.317 36.138 134.339 37.0781 134.118L41.9011 138.941" stroke="#2855AF" stroke-miterlimit="10"/>
<path d="M51.5546 139.781L58.2816 133.054C58.6138 132.724 58.9937 132.445 59.4086 132.228L60.7596 131.528L65.6596 125.928L62.6006 122.918L57.0006 127.818L56.3006 129.169C56.0874 129.586 55.8086 129.967 55.4746 130.296L50.1406 135.637" stroke="#2855AF" stroke-miterlimit="10"/>
<path d="M33.6494 157.401C34.1061 157.692 34.651 157.81 35.187 157.736C35.7229 157.661 36.215 157.399 36.5754 156.995L48.2304 145.34C48.5088 145.09 48.719 144.773 48.8414 144.419C48.9639 144.065 48.9945 143.686 48.9304 143.317L50.9534 141.294L51.0794 141.413C51.1485 141.483 51.2307 141.539 51.3215 141.577C51.4122 141.615 51.5096 141.635 51.6079 141.635C51.7063 141.635 51.8037 141.615 51.8944 141.577C51.9851 141.539 52.0674 141.483 52.1364 141.413C52.2745 141.272 52.3519 141.082 52.3519 140.885C52.3519 140.687 52.2745 140.498 52.1364 140.356L48.1464 136.366C48.0053 136.226 47.8143 136.148 47.6155 136.148C47.4166 136.149 47.2261 136.229 47.0859 136.37C46.9458 136.511 46.8674 136.702 46.868 136.901C46.8687 137.1 46.9483 137.29 47.0894 137.43L47.2154 137.549L45.1924 139.572C44.8235 139.508 44.4442 139.538 44.0903 139.66C43.7363 139.783 43.4194 139.993 43.1694 140.272L31.5284 151.976C31.2605 152.215 31.0533 152.514 30.9243 152.849C30.7952 153.184 30.748 153.545 30.7864 153.901" stroke="#2855AF" stroke-miterlimit="10"/>
<path d="M31.2539 155.133C31.5272 155.569 31.8515 155.971 32.2199 156.33C32.6304 156.763 33.102 157.133 33.6199 157.429" stroke="#2855AF" stroke-miterlimit="10"/>
<path d="M34.8398 153.892L36.8768 151.855" stroke="#2855AF" stroke-miterlimit="10"/>
<path d="M39.625 149.105L48.235 140.312" stroke="#2855AF" stroke-miterlimit="10"/>
<path d="M227.491 0.431641H40.8711V121.672H227.491V0.431641Z" fill="white"/>
<path d="M41.3711 121.172V0.931641H226.991V121.172H91.8871H60.6041H41.3711Z" fill="white" stroke="#2855AF"/>
<path d="M227.491 0.431641H40.8711V16.2936H227.491V0.431641Z" fill="white"/>
<path d="M227.491 0.431641H40.8711V16.2936H227.491V0.431641Z" fill="#2855AF"/>
<path d="M221.771 2.95898H214.631C213.618 2.95898 212.797 3.78009 212.797 4.79298V11.933C212.797 12.9459 213.618 13.767 214.631 13.767H221.771C222.784 13.767 223.605 12.9459 223.605 11.933V4.79298C223.605 3.78009 222.784 2.95898 221.771 2.95898Z" fill="white"/>
<path d="M208.515 2.95898H201.403C200.382 2.95898 199.555 3.78636 199.555 4.80698V11.919C199.555 12.9396 200.382 13.767 201.403 13.767H208.515C209.535 13.767 210.363 12.9396 210.363 11.919V4.80698C210.363 3.78636 209.535 2.95898 208.515 2.95898Z" fill="white"/>
<path d="M195.283 2.95898H188.143C187.13 2.95898 186.309 3.78009 186.309 4.79298V11.933C186.309 12.9459 187.13 13.767 188.143 13.767H195.283C196.295 13.767 197.117 12.9459 197.117 11.933V4.79298C197.117 3.78009 196.295 2.95898 195.283 2.95898Z" fill="white"/>
<path d="M216.837 23.293H51.5251C49.507 23.293 47.8711 24.9289 47.8711 26.947V111.017C47.8711 113.035 49.507 114.671 51.5251 114.671H216.837C218.855 114.671 220.491 113.035 220.491 111.017V26.947C220.491 24.9289 218.855 23.293 216.837 23.293Z" fill="#2855AF" stroke="#2855AF" stroke-linecap="round" stroke-linejoin="round"/>
<path d="M215.887 10.6789L220.521 6.04492" stroke="#2855AF" stroke-linecap="round" stroke-linejoin="round"/>
<path d="M215.887 6.04492L220.521 10.6789" stroke="#2855AF" stroke-linecap="round" stroke-linejoin="round"/>
<path d="M208.044 7.36914H201.863V11.4501H208.044V7.36914Z" stroke="#2855AF" stroke-linecap="round" stroke-linejoin="round"/>
<path d="M194.802 11.4492H188.621" stroke="#2855AF" stroke-linecap="round" stroke-linejoin="round"/>
<path d="M209.64 85.4113H197.369C196.997 85.4113 196.641 85.2638 196.379 85.0013C196.116 84.7387 195.969 84.3826 195.969 84.0113C195.969 83.64 196.116 83.2839 196.379 83.0214C196.641 82.7588 196.997 82.6113 197.369 82.6113H209.64C210.011 82.6113 210.367 82.7588 210.63 83.0214C210.892 83.2839 211.04 83.64 211.04 84.0113C211.04 84.3826 210.892 84.7387 210.63 85.0013C210.367 85.2638 210.011 85.4113 209.64 85.4113V85.4113Z" fill="#7CCCDB"/>
<path d="M209.639 95.0988H175.388C175.017 95.0988 174.661 94.9513 174.398 94.6888C174.136 94.4262 173.988 94.0701 173.988 93.6988C173.988 93.3275 174.136 92.9714 174.398 92.7089C174.661 92.4463 175.017 92.2988 175.388 92.2988H209.639C210.011 92.2988 210.367 92.4463 210.629 92.7089C210.892 92.9714 211.039 93.3275 211.039 93.6988C211.039 94.0701 210.892 94.4262 210.629 94.6888C210.367 94.9513 210.011 95.0988 209.639 95.0988Z" fill="#7CCCDB"/>
<path d="M209.641 104.78H134.181C133.81 104.78 133.454 104.633 133.191 104.37C132.929 104.108 132.781 103.752 132.781 103.38C132.781 103.009 132.929 102.653 133.191 102.391C133.454 102.128 133.81 101.98 134.181 101.98H209.641C210.013 101.98 210.369 102.128 210.631 102.391C210.894 102.653 211.041 103.009 211.041 103.38C211.041 103.752 210.894 104.108 210.631 104.37C210.369 104.633 210.013 104.78 209.641 104.78Z" fill="#7CCCDB"/>
<path d="M60.8221 75.7316H55.1031C54.7318 75.7316 54.3757 75.5841 54.1132 75.3216C53.8506 75.059 53.7031 74.7029 53.7031 74.3316C53.7031 73.9603 53.8506 73.6042 54.1132 73.3417C54.3757 73.0791 54.7318 72.9316 55.1031 72.9316H60.8221C61.1934 72.9316 61.5495 73.0791 61.8121 73.3417C62.0746 73.6042 62.2221 73.9603 62.2221 74.3316C62.2221 74.7029 62.0746 75.059 61.8121 75.3216C61.5495 75.5841 61.1934 75.7316 60.8221 75.7316Z" fill="white"/>
<path d="M60.8221 85.4113H55.1031C54.7318 85.4113 54.3757 85.2638 54.1132 85.0013C53.8506 84.7387 53.7031 84.3826 53.7031 84.0113C53.7031 83.64 53.8506 83.2839 54.1132 83.0214C54.3757 82.7588 54.7318 82.6113 55.1031 82.6113H60.8221C61.1934 82.6113 61.5495 82.7588 61.8121 83.0214C62.0746 83.2839 62.2221 83.64 62.2221 84.0113C62.2221 84.3826 62.0746 84.7387 61.8121 85.0013C61.5495 85.2638 61.1934 85.4113 60.8221 85.4113Z" fill="white"/>
<path d="M60.8221 95.0988H55.1031C54.7318 95.0988 54.3757 94.9513 54.1132 94.6888C53.8506 94.4262 53.7031 94.0701 53.7031 93.6988C53.7031 93.3275 53.8506 92.9714 54.1132 92.7089C54.3757 92.4463 54.7318 92.2988 55.1031 92.2988H60.8221C61.1934 92.2988 61.5495 92.4463 61.8121 92.7089C62.0746 92.9714 62.2221 93.3275 62.2221 93.6988C62.2221 94.0701 62.0746 94.4262 61.8121 94.6888C61.5495 94.9513 61.1934 95.0988 60.8221 95.0988Z" fill="white"/>
<path d="M60.8221 104.78H55.1031C54.7318 104.78 54.3757 104.633 54.1132 104.37C53.8506 104.108 53.7031 103.752 53.7031 103.38C53.7031 103.009 53.8506 102.653 54.1132 102.391C54.3757 102.128 54.7318 101.98 55.1031 101.98H60.8221C61.1934 101.98 61.5495 102.128 61.8121 102.391C62.0746 102.653 62.2221 103.009 62.2221 103.38C62.2221 103.752 62.0746 104.108 61.8121 104.37C61.5495 104.633 61.1934 104.78 60.8221 104.78Z" fill="white"/>
<g opacity="0.7">
<path opacity="0.7" d="M60.8221 75.7316H55.1031C54.7318 75.7316 54.3757 75.5841 54.1132 75.3216C53.8506 75.059 53.7031 74.7029 53.7031 74.3316C53.7031 73.9603 53.8506 73.6042 54.1132 73.3417C54.3757 73.0791 54.7318 72.9316 55.1031 72.9316H60.8221C61.1934 72.9316 61.5495 73.0791 61.8121 73.3417C62.0746 73.6042 62.2221 73.9603 62.2221 74.3316C62.2221 74.7029 62.0746 75.059 61.8121 75.3216C61.5495 75.5841 61.1934 75.7316 60.8221 75.7316Z" fill="white"/>
</g>
<g opacity="0.7">
<path opacity="0.7" d="M60.8221 85.4113H55.1031C54.7318 85.4113 54.3757 85.2638 54.1132 85.0013C53.8506 84.7387 53.7031 84.3826 53.7031 84.0113C53.7031 83.64 53.8506 83.2839 54.1132 83.0214C54.3757 82.7588 54.7318 82.6113 55.1031 82.6113H60.8221C61.1934 82.6113 61.5495 82.7588 61.8121 83.0214C62.0746 83.2839 62.2221 83.64 62.2221 84.0113C62.2221 84.3826 62.0746 84.7387 61.8121 85.0013C61.5495 85.2638 61.1934 85.4113 60.8221 85.4113Z" fill="white"/>
</g>
<g opacity="0.7">
<path opacity="0.7" d="M60.8221 95.0988H55.1031C54.7318 95.0988 54.3757 94.9513 54.1132 94.6888C53.8506 94.4262 53.7031 94.0701 53.7031 93.6988C53.7031 93.3275 53.8506 92.9714 54.1132 92.7089C54.3757 92.4463 54.7318 92.2988 55.1031 92.2988H60.8221C61.1934 92.2988 61.5495 92.4463 61.8121 92.7089C62.0746 92.9714 62.2221 93.3275 62.2221 93.6988C62.2221 94.0701 62.0746 94.4262 61.8121 94.6888C61.5495 94.9513 61.1934 95.0988 60.8221 95.0988Z" fill="white"/>
</g>
<g opacity="0.7">
<path opacity="0.7" d="M60.8221 104.78H55.1031C54.7318 104.78 54.3757 104.633 54.1132 104.37C53.8506 104.108 53.7031 103.752 53.7031 103.38C53.7031 103.009 53.8506 102.653 54.1132 102.391C54.3757 102.128 54.7318 101.98 55.1031 101.98H60.8221C61.1934 101.98 61.5495 102.128 61.8121 102.391C62.0746 102.653 62.2221 103.009 62.2221 103.38C62.2221 103.752 62.0746 104.108 61.8121 104.37C61.5495 104.633 61.1934 104.78 60.8221 104.78Z" fill="white"/>
</g>
<path d="M175.391 66.0422H55.1031C54.7318 66.0422 54.3757 65.8947 54.1132 65.6321C53.8506 65.3696 53.7031 65.0135 53.7031 64.6422C53.7031 64.2709 53.8506 63.9148 54.1132 63.6522C54.3757 63.3897 54.7318 63.2422 55.1031 63.2422H175.391C175.762 63.2422 176.119 63.3897 176.381 63.6522C176.644 63.9148 176.791 64.2709 176.791 64.6422C176.791 65.0135 176.644 65.3696 176.381 65.6321C176.119 65.8947 175.762 66.0422 175.391 66.0422Z" fill="white"/>
<path d="M209.64 46.6809H197.369C196.997 46.6809 196.641 46.5334 196.379 46.2708C196.116 46.0083 195.969 45.6522 195.969 45.2809C195.969 44.9096 196.116 44.5535 196.379 44.2909C196.641 44.0284 196.997 43.8809 197.369 43.8809H209.64C210.011 43.8809 210.367 44.0284 210.63 44.2909C210.892 44.5535 211.04 44.9096 211.04 45.2809C211.04 45.6522 210.892 46.0083 210.63 46.2708C210.367 46.5334 210.011 46.6809 209.64 46.6809V46.6809Z" fill="#7CCCDB"/>
<path d="M192.239 46.6809H180.521C180.15 46.6809 179.794 46.5334 179.531 46.2708C179.269 46.0083 179.121 45.6522 179.121 45.2809C179.121 44.9096 179.269 44.5535 179.531 44.2909C179.794 44.0284 180.15 43.8809 180.521 43.8809H192.239C192.61 43.8809 192.966 44.0284 193.229 44.2909C193.492 44.5535 193.639 44.9096 193.639 45.2809C193.639 45.6522 193.492 46.0083 193.229 46.2708C192.966 46.5334 192.61 46.6809 192.239 46.6809Z" fill="#7CCCDB"/>
<path d="M175.391 46.6809H55.1031C54.7318 46.6809 54.3757 46.5334 54.1132 46.2708C53.8506 46.0083 53.7031 45.6522 53.7031 45.2809C53.7031 44.9096 53.8506 44.5535 54.1132 44.2909C54.3757 44.0284 54.7318 43.8809 55.1031 43.8809H175.391C175.762 43.8809 176.119 44.0284 176.381 44.2909C176.644 44.5535 176.791 44.9096 176.791 45.2809C176.791 45.6522 176.644 46.0083 176.381 46.2708C176.119 46.5334 175.762 46.6809 175.391 46.6809Z" fill="#7CCCDB"/>
<path d="M209.64 75.7316H197.369C196.997 75.7316 196.641 75.5841 196.379 75.3216C196.116 75.059 195.969 74.7029 195.969 74.3316C195.969 73.9603 196.116 73.6042 196.379 73.3417C196.641 73.0791 196.997 72.9316 197.369 72.9316H209.64C210.011 72.9316 210.367 73.0791 210.63 73.3417C210.892 73.6042 211.04 73.9603 211.04 74.3316C211.04 74.7029 210.892 75.059 210.63 75.3216C210.367 75.5841 210.011 75.7316 209.64 75.7316V75.7316Z" fill="white"/>
<path d="M192.241 75.7316H67.1227C66.7514 75.7316 66.3953 75.5841 66.1327 75.3216C65.8702 75.059 65.7227 74.7029 65.7227 74.3316C65.7227 73.9603 65.8702 73.6042 66.1327 73.3417C66.3953 73.0791 66.7514 72.9316 67.1227 72.9316H192.241C192.612 72.9316 192.968 73.0791 193.231 73.3417C193.493 73.6042 193.641 73.9603 193.641 74.3316C193.641 74.7029 193.493 75.059 193.231 75.3216C192.968 75.5841 192.612 75.7316 192.241 75.7316Z" fill="white"/>
<path d="M103.054 85.4113H67.1227C66.7514 85.4113 66.3953 85.2638 66.1327 85.0013C65.8702 84.7387 65.7227 84.3826 65.7227 84.0113C65.7227 83.64 65.8702 83.2839 66.1327 83.0214C66.3953 82.7588 66.7514 82.6113 67.1227 82.6113H103.054C103.425 82.6113 103.781 82.7588 104.044 83.0214C104.306 83.2839 104.454 83.64 104.454 84.0113C104.454 84.3826 104.306 84.7387 104.044 85.0013C103.781 85.2638 103.425 85.4113 103.054 85.4113V85.4113Z" fill="white"/>
<path d="M103.054 95.0988H67.1227C66.7514 95.0988 66.3953 94.9513 66.1327 94.6888C65.8702 94.4262 65.7227 94.0701 65.7227 93.6988C65.7227 93.3275 65.8702 92.9714 66.1327 92.7089C66.3953 92.4463 66.7514 92.2988 67.1227 92.2988H103.054C103.425 92.2988 103.781 92.4463 104.044 92.7089C104.306 92.9714 104.454 93.3275 104.454 93.6988C104.454 94.0701 104.306 94.4262 104.044 94.6888C103.781 94.9513 103.425 95.0988 103.054 95.0988V95.0988Z" fill="white"/>
<path d="M103.054 104.78H67.1227C66.7514 104.78 66.3953 104.633 66.1327 104.37C65.8702 104.108 65.7227 103.752 65.7227 103.38C65.7227 103.009 65.8702 102.653 66.1327 102.391C66.3953 102.128 66.7514 101.98 67.1227 101.98H103.054C103.425 101.98 103.781 102.128 104.044 102.391C104.306 102.653 104.454 103.009 104.454 103.38C104.454 103.752 104.306 104.108 104.044 104.37C103.781 104.633 103.425 104.78 103.054 104.78V104.78Z" fill="white"/>
<path d="M79.4564 228.967C79.4564 228.967 75.7884 235.267 77.2304 235.512C78.6724 235.757 81.7034 230.276 81.7034 230.276L89.9984 228.099L83.7474 227.455L79.4564 228.967Z" fill="white" stroke="#2855AF" stroke-linecap="round" stroke-linejoin="round"/>
<path opacity="0.3" d="M79.4564 228.967C79.4564 228.967 75.7884 235.267 77.2304 235.512C78.6724 235.757 81.7034 230.276 81.7034 230.276L89.9984 228.099L83.7474 227.455L79.4564 228.967Z" fill="#2855AF" stroke="#2855AF" stroke-linecap="round" stroke-linejoin="round"/>
<path d="M82.2459 224.656C82.2459 224.656 77.1079 223.438 75.6939 225.846C74.2799 228.254 70.0939 235.401 71.6759 236.213C73.2579 237.025 74.5949 234.393 74.5949 234.393L82.2459 224.656Z" fill="white" stroke="#2855AF" stroke-linecap="round" stroke-linejoin="round"/>
<path d="M103.262 231.977C99.8926 233.141 96.301 233.52 92.7624 233.083L86.9174 235.029C86.9174 235.029 81.7794 237.556 79.3854 236.282C76.9914 235.008 85.4754 232.194 85.4754 232.194C85.4754 232.194 91.1804 229.723 89.4794 229.128C87.7784 228.533 81.3384 228.652 80.0784 229.618C78.8184 230.584 75.4934 236.877 73.0784 236.513C70.6634 236.149 74.0864 232.733 74.9474 231.417C75.8084 230.101 77.7474 224.851 81.6394 224.627C85.5314 224.403 98.6984 225.082 98.6984 225.082L114.161 223.43L117.808 232.229L103.262 231.977Z" fill="white" stroke="#2855AF" stroke-linecap="round" stroke-linejoin="round"/>
<path d="M111.334 234.154C111.765 234.463 112.284 234.626 112.815 234.619C113.345 234.611 113.859 234.434 114.281 234.112C114.747 234.31 115.261 234.367 115.759 234.275C116.257 234.183 116.717 233.946 117.081 233.594C118.208 232.355 118.306 221.484 115.184 220.259C114.281 219.909 112.027 219.944 111.684 221.204C111.444 221.106 111.183 221.067 110.925 221.088C110.666 221.11 110.416 221.193 110.195 221.329C109.974 221.465 109.789 221.652 109.653 221.873C109.518 222.095 109.437 222.345 109.416 222.604C109.108 224.564 111.054 226.391 110.403 232.026C110.347 232.432 110.404 232.846 110.568 233.222C110.732 233.597 110.997 233.92 111.334 234.154V234.154Z" fill="#7CCCDB" stroke="#2855AF" stroke-linecap="round" stroke-linejoin="round"/>
<path opacity="0.3" d="M111.334 234.154C111.765 234.463 112.284 234.626 112.815 234.619C113.345 234.611 113.859 234.434 114.281 234.112C114.747 234.31 115.261 234.367 115.759 234.275C116.257 234.183 116.717 233.946 117.081 233.594C118.208 232.355 118.306 221.484 115.184 220.259C114.281 219.909 112.027 219.944 111.684 221.204C111.444 221.106 111.183 221.067 110.925 221.088C110.666 221.11 110.416 221.193 110.195 221.329C109.974 221.465 109.789 221.652 109.653 221.873C109.518 222.095 109.437 222.345 109.416 222.604C109.108 224.564 111.054 226.391 110.403 232.026C110.347 232.432 110.404 232.846 110.568 233.222C110.732 233.597 110.997 233.92 111.334 234.154V234.154Z" fill="#2855AF" stroke="#2855AF" stroke-linecap="round" stroke-linejoin="round"/>
<path d="M114.903 231.599C114.899 228.637 114.269 225.71 113.055 223.01" stroke="#2855AF" stroke-linecap="round" stroke-linejoin="round"/>
<path d="M188.493 227.673C187.975 231.656 187.387 235.968 186.715 240.651H126.627L126.914 232.909C123.323 233.777 116.344 233.245 116.344 233.245V221.8C120.586 219.399 121.244 220.071 121.244 220.071C121.244 220.071 121.461 192.141 124.002 185.169C124.971 182.543 126.701 180.267 128.972 178.631V178.631C129.576 178.181 130.21 177.772 130.869 177.406L130.96 177.35C131.66 176.979 132.507 176.587 133.473 176.181L133.739 176.076C143.147 172.233 163.678 167.774 182.809 175.95C184.146 176.524 195.066 181.739 195.997 189.25C196.501 193.569 193.575 214.947 188.493 227.673Z" fill="#7CCCDB"/>
<path opacity="0.2" d="M178.972 193.24L172.98 221.051C172.049 220.316 169.368 220.267 165.98 220.589C166.717 219.779 167.328 218.864 167.793 217.873C176.83 198.273 178.797 193.632 178.972 193.24Z" fill="#2855AF"/>
<path opacity="0.2" d="M189.919 223.795C188.46 229.332 187.389 234.965 186.713 240.651H126.625L127.178 231.733C130.923 231.201 137.496 230.655 144.321 229.444C144.844 231.579 144.899 233.802 144.482 235.961C144.482 235.961 172.118 239.391 181.393 237.158C184.039 236.521 186.433 232.825 188.484 227.736C188.981 226.497 189.457 225.174 189.919 223.795Z" fill="#2855AF"/>
<path opacity="0.3" d="M121.936 220.596C121.936 220.596 120.585 219.399 116.336 221.8V233.245C116.336 233.245 123.336 233 126.08 231.509C128.446 232.972 128.026 206.183 128.446 191.756C125.016 192.701 124.743 199.225 124.211 205.364C123.772 210.484 123.012 215.571 121.936 220.596Z" fill="#2855AF"/>
<path d="M188.493 227.673C187.975 231.656 187.387 235.968 186.715 240.651H126.627L126.914 232.909C123.323 233.777 116.344 233.245 116.344 233.245V221.8C120.586 219.399 121.244 220.071 121.244 220.071C121.244 220.071 121.461 192.141 124.002 185.169C124.971 182.543 126.701 180.267 128.972 178.631V178.631C129.576 178.181 130.21 177.772 130.869 177.406L130.96 177.35C131.66 176.979 132.507 176.587 133.473 176.181L133.739 176.076C143.147 172.233 163.678 167.774 182.809 175.95C184.146 176.524 195.066 181.739 195.997 189.25C196.501 193.569 193.575 214.947 188.493 227.673Z" stroke="#2855AF" stroke-linecap="round" stroke-linejoin="round"/>
<path d="M195.968 189.27C195.968 189.438 196.01 189.634 196.017 189.851C196.325 195.227 193.399 215.513 188.485 227.735C186.434 232.824 184.04 236.52 181.394 237.157C172.119 239.39 144.483 235.96 144.483 235.96C145.204 232.167 144.467 228.242 142.418 224.97C142.418 224.97 169.55 218.334 172.98 221.05L178.986 193.211" stroke="#2855AF" stroke-linecap="round" stroke-linejoin="round"/>
<path d="M174.871 222.568C176.805 223.498 178.463 224.917 179.68 226.684" stroke="#2855AF" stroke-linecap="round" stroke-linejoin="round"/>
<path d="M105.753 223.564C105.753 223.564 103.219 223.032 102.19 224.187C101.161 225.342 96.7513 231.964 98.2423 233.224C99.7333 234.484 102.764 227.561 102.764 227.561L105.753 223.564Z" fill="white" stroke="#2855AF" stroke-linecap="round" stroke-linejoin="round"/>
<path d="M110.837 223.444C110.837 223.444 105.237 222.24 103.956 223.955C102.675 225.67 95.6121 234.546 100.022 234.826L107.022 226.93L110.837 223.444Z" fill="white" stroke="#2855AF" stroke-linecap="round" stroke-linejoin="round"/>
<path d="M123.533 232.881C123.533 232.881 117.758 234.141 115.413 234.603C113.068 235.065 108.714 238.103 106.138 236.892C103.562 235.681 114.538 231.222 114.538 231.222L118.318 229.703L123.533 232.881Z" fill="#7CCCDB" stroke="#2855AF" stroke-linecap="round" stroke-linejoin="round"/>
<path d="M128.211 198.329C128.295 196.138 128.372 193.947 128.456 191.756" stroke="#2855AF" stroke-linecap="round" stroke-linejoin="round"/>
<path d="M126.629 240.651C127.7 227.4 128.099 201.311 128.099 201.311" stroke="#2855AF" stroke-linecap="round" stroke-linejoin="round"/>
<path d="M144.498 225.734H124.569C124.569 225.734 109.113 221.093 106.544 224.698C103.975 228.303 98.4727 233.798 100.02 234.827C101.567 235.856 108.098 228.394 108.098 228.394L113.768 228.443C113.768 228.443 108.959 230.543 107.93 231.565C106.901 232.587 104.668 235.513 105.83 236.031C106.992 236.549 110.814 232.769 110.814 232.769C110.814 232.769 116.477 231.369 117.849 232.069C122.251 234.322 127.344 234.822 132.101 233.469L147.298 235.359L144.498 225.734Z" fill="white" stroke="#2855AF" stroke-linecap="round" stroke-linejoin="round"/>
<path d="M176.909 202.85C176.36 199.662 176.338 196.406 176.846 193.211" stroke="#2855AF" stroke-linecap="round" stroke-linejoin="round"/>
<path d="M181.422 186.155C181.422 186.155 191.082 173.429 195.968 189.27" stroke="#2855AF" stroke-linecap="round" stroke-linejoin="round"/>
<path d="M140.396 224.158C140.738 223.751 141.2 223.464 141.716 223.338C142.232 223.213 142.775 223.254 143.266 223.458C143.667 223.149 144.151 222.965 144.657 222.93C145.163 222.895 145.668 223.011 146.108 223.262C147.508 224.186 150.308 234.686 147.585 236.653C146.801 237.213 144.61 237.738 143.938 236.611C143.728 236.766 143.484 236.869 143.226 236.911C142.969 236.954 142.705 236.936 142.456 236.857C142.207 236.779 141.98 236.643 141.794 236.46C141.607 236.277 141.466 236.053 141.383 235.806C140.599 233.979 142.034 231.732 139.983 226.433C139.837 226.052 139.799 225.639 139.872 225.238C139.945 224.837 140.126 224.463 140.396 224.158V224.158Z" fill="#7CCCDB"/>
<path opacity="0.3" d="M140.396 224.158C140.738 223.751 141.2 223.464 141.716 223.338C142.232 223.213 142.775 223.254 143.266 223.458C143.667 223.149 144.151 222.965 144.657 222.93C145.163 222.895 145.668 223.011 146.108 223.262C147.508 224.186 150.308 234.686 147.585 236.653C146.801 237.213 144.61 237.738 143.938 236.611C143.728 236.766 143.484 236.869 143.226 236.911C142.969 236.954 142.705 236.936 142.456 236.857C142.207 236.779 141.98 236.643 141.794 236.46C141.607 236.277 141.466 236.053 141.383 235.806C140.599 233.979 142.034 231.732 139.983 226.433C139.837 226.052 139.799 225.639 139.872 225.238C139.945 224.837 140.126 224.463 140.396 224.158V224.158Z" fill="#2855AF"/>
<path d="M140.396 224.158C140.738 223.751 141.2 223.464 141.716 223.338C142.232 223.213 142.775 223.254 143.266 223.458C143.667 223.149 144.151 222.965 144.657 222.93C145.163 222.895 145.668 223.011 146.108 223.262C147.508 224.186 150.308 234.686 147.585 236.653C146.801 237.213 144.61 237.738 143.938 236.611C143.728 236.766 143.484 236.869 143.226 236.911C142.969 236.954 142.705 236.936 142.456 236.857C142.207 236.779 141.98 236.643 141.794 236.46C141.607 236.277 141.466 236.053 141.383 235.806C140.599 233.979 142.034 231.732 139.983 226.433C139.837 226.052 139.799 225.639 139.872 225.238C139.945 224.837 140.126 224.463 140.396 224.158V224.158Z" stroke="#2855AF" stroke-linecap="round" stroke-linejoin="round"/>
<path d="M144.82 229.611C145.067 231.234 145.086 232.883 144.876 234.511" stroke="#2855AF" stroke-linecap="round" stroke-linejoin="round"/>
<path d="M153.599 198.173C153.585 198.443 153.491 198.703 153.329 198.919C153.167 199.135 152.945 199.299 152.69 199.388C152.436 199.478 152.16 199.491 151.898 199.424C151.637 199.357 151.401 199.214 151.22 199.013C151.04 198.812 150.923 198.562 150.885 198.295C150.847 198.027 150.889 197.755 151.005 197.511C151.122 197.268 151.309 197.064 151.541 196.927C151.773 196.789 152.041 196.724 152.311 196.738C152.669 196.767 153.002 196.932 153.242 197.199C153.481 197.466 153.609 197.815 153.599 198.173Z" fill="white" stroke="#2855AF" stroke-linecap="round" stroke-linejoin="round"/>
<path d="M152.592 219.313C152.575 219.581 152.479 219.837 152.317 220.05C152.154 220.264 151.932 220.424 151.679 220.511C151.425 220.598 151.152 220.609 150.892 220.541C150.633 220.473 150.4 220.329 150.222 220.129C150.044 219.929 149.929 219.68 149.892 219.414C149.855 219.149 149.897 218.878 150.014 218.637C150.13 218.396 150.316 218.194 150.547 218.058C150.777 217.921 151.044 217.857 151.311 217.871C151.672 217.893 152.01 218.057 152.25 218.327C152.49 218.598 152.613 218.952 152.592 219.313V219.313Z" fill="white" stroke="#2855AF" stroke-linecap="round" stroke-linejoin="round"/>
<path d="M165.094 172.289L164.1 158.184L149.498 161.6L148.7 172.891C147.783 173.003 146.908 173.136 146.047 173.262L149.617 181.823L156.617 182.74L167.775 172.457C166.9 172.387 165.976 172.331 165.094 172.289Z" fill="white"/>
<path d="M149.281 166.556C149.379 176.594 161.104 173.514 164.352 163.49L164.093 158.184L149.498 161.6L149.281 166.556Z" fill="#2855AF"/>
<path d="M165.094 172.289L164.1 158.184L149.498 161.6L148.7 172.891C147.783 173.003 146.908 173.136 146.047 173.262L149.617 181.823L156.617 182.74L167.775 172.457C166.9 172.387 165.976 172.331 165.094 172.289Z" stroke="#2855AF" stroke-linecap="round" stroke-linejoin="round"/>
<path d="M140.34 146.277C140.34 146.277 135.006 137.051 134.222 132.186C131.779 117.157 142.622 122.225 142.622 122.225C142.622 122.225 150.322 115.358 159.849 116.562C169.376 117.766 171.924 121.833 178.357 124.332C178.357 124.332 173.527 148.832 167.346 154.334C161.165 159.836 140.34 146.277 140.34 146.277Z" fill="#2855AF" stroke="#2855AF" stroke-linecap="round" stroke-linejoin="round"/>
<path d="M143.146 124.457C143.146 124.457 140.745 118.619 146.835 114.16" stroke="#2855AF" stroke-linecap="round" stroke-linejoin="round"/>
<path d="M153.633 120.951C160.766 117.801 163.951 123.051 171.91 124.451" stroke="white" stroke-miterlimit="10"/>
<path d="M148.125 124.458C148.773 123.642 149.557 122.943 150.442 122.393" stroke="white" stroke-miterlimit="10"/>
<path d="M155.445 126.746C155.445 126.746 158.532 123.785 164.657 127.635C166.506 128.852 168.587 129.672 170.768 130.043" stroke="white" stroke-miterlimit="10"/>
<path d="M164.883 133.159C156.007 133.39 146.837 129.379 146.837 129.379C138.563 134.37 139.795 142.483 139.795 142.483C141.685 161.873 144.24 167.039 153.298 167.039C162.356 167.039 169.72 157.239 170.315 143.274C166.899 143.435 164.883 133.159 164.883 133.159Z" fill="white" stroke="#2855AF" stroke-linecap="round" stroke-linejoin="round"/>
<path d="M169.553 142.482C169.756 142.182 170.026 141.932 170.342 141.754C170.658 141.575 171.011 141.472 171.373 141.453C172.983 141.453 174.173 143.553 173.606 146.178C173.039 148.803 172.297 150.896 170.687 150.896C170.319 150.883 169.964 150.758 169.669 150.538C169.374 150.318 169.153 150.013 169.035 149.664" fill="white"/>
<path d="M169.553 142.482C169.756 142.182 170.026 141.932 170.342 141.754C170.658 141.575 171.011 141.472 171.373 141.453C172.983 141.453 174.173 143.553 173.606 146.178C173.039 148.803 172.297 150.896 170.687 150.896C170.319 150.883 169.964 150.758 169.669 150.538C169.374 150.318 169.153 150.013 169.035 149.664" stroke="#2855AF" stroke-linecap="round" stroke-linejoin="round"/>
<path d="M151.903 152.003C151.903 152.003 152.988 153.487 150.909 154.6C148.83 155.713 147.178 155.692 146.646 154.418C146.114 153.144 148.424 142.518 148.424 142.518" stroke="#2855AF" stroke-linecap="round" stroke-linejoin="round"/>
<path d="M148.075 144.219C146.955 143.652 142.475 141.692 138.219 144.366L138.492 148.482C138.492 148.482 140.06 149.343 143.658 149.343C144.835 149.365 146.01 149.242 147.158 148.979" stroke="#2855AF" stroke-linecap="round" stroke-linejoin="round"/>
<path d="M151.793 144.365L153.095 148.656C153.095 148.656 153.627 149.356 157.232 149.356C160.837 149.356 162.02 148.495 162.02 148.495L161.915 144.379C161.915 144.379 156.686 141.299 151.793 144.365Z" stroke="#2855AF" stroke-linecap="round" stroke-linejoin="round"/>
<path d="M148.363 144.365H151.793" stroke="#2855AF" stroke-linecap="round" stroke-linejoin="round"/>
<path d="M149.09 158.492C150.964 159.025 152.957 158.964 154.795 158.317C156.209 157.783 157.441 156.855 158.344 155.643" stroke="#2855AF" stroke-linecap="round" stroke-linejoin="round"/>
<path d="M154.797 140.305C159.298 138.45 161.286 140.676 161.286 140.676" stroke="#2855AF" stroke-linecap="round" stroke-linejoin="round"/>
<path d="M142.918 140.123C143.691 139.752 144.554 139.608 145.406 139.706C146.258 139.803 147.065 140.14 147.734 140.676" stroke="#2855AF" stroke-linecap="round" stroke-linejoin="round"/>
<path d="M156.588 143.434C157.008 143.434 157.288 144.134 157.288 144.953C157.288 145.772 156.938 146.465 156.532 146.465C156.126 146.465 155.832 145.765 155.832 144.953C155.832 144.141 156.175 143.434 156.588 143.434Z" fill="#2855AF"/>
<path d="M145.408 143.246C145.821 143.246 146.108 143.946 146.108 144.765C146.108 145.584 145.758 146.277 145.352 146.277C144.946 146.277 144.652 145.577 144.652 144.765C144.652 143.953 145.002 143.246 145.408 143.246Z" fill="#2855AF"/>
<path d="M137.945 135.518C138.09 136.343 138.324 137.151 138.645 137.926" stroke="white" stroke-miterlimit="10"/>
<path d="M143.317 126.269C138.893 125.079 137.143 127.739 137.472 131.939" stroke="white" stroke-miterlimit="10"/>
<path d="M148 172.232L153.39 181.934L166.333 171.721L170.316 172.281L161.916 187.086C161.839 187.219 161.737 187.335 161.614 187.428C161.492 187.521 161.352 187.588 161.203 187.625C161.054 187.662 160.899 187.669 160.747 187.645C160.595 187.621 160.45 187.566 160.32 187.485L153.159 182.963L147.559 186.379C147.395 186.479 147.209 186.536 147.017 186.545C146.825 186.554 146.634 186.514 146.462 186.43C146.289 186.345 146.141 186.219 146.031 186.062C145.92 185.905 145.851 185.722 145.83 185.532L144.43 172.89L148 172.232Z" fill="#7CCCDB"/>
<path opacity="0.3" d="M147.522 172.169L153.388 181.934L166.562 171.539L170.524 172.169L161.935 187.086C161.859 187.219 161.756 187.336 161.634 187.428C161.511 187.521 161.371 187.588 161.222 187.625C161.073 187.663 160.918 187.669 160.766 187.645C160.615 187.621 160.469 187.567 160.339 187.485L153.178 182.963L147.578 186.379C147.414 186.479 147.228 186.536 147.036 186.545C146.845 186.554 146.654 186.515 146.481 186.43C146.309 186.346 146.161 186.219 146.05 186.062C145.94 185.905 145.871 185.723 145.849 185.532L144.449 172.89L147.522 172.169Z" fill="#2855AF"/>
<path d="M148 172.232L153.39 181.934L166.333 171.721L170.316 172.281L161.916 187.086C161.839 187.219 161.737 187.335 161.614 187.428C161.492 187.521 161.352 187.588 161.203 187.625C161.054 187.662 160.899 187.669 160.747 187.645C160.595 187.621 160.45 187.566 160.32 187.485L153.159 182.963L147.559 186.379C147.395 186.479 147.209 186.536 147.017 186.545C146.825 186.554 146.634 186.514 146.462 186.43C146.289 186.345 146.141 186.219 146.031 186.062C145.92 185.905 145.851 185.722 145.83 185.532L144.43 172.89L148 172.232Z" stroke="#2855AF" stroke-linecap="round" stroke-linejoin="round"/>
<path d="M67.7438 235.961H102.94V240.651H67.7438C67.3724 240.651 67.0164 240.503 66.7538 240.241C66.4912 239.978 66.3438 239.622 66.3438 239.251V237.34C66.3493 236.972 66.4992 236.622 66.7611 236.364C67.0231 236.106 67.3761 235.961 67.7438 235.961Z" fill="#2855AF" stroke="#2855AF" stroke-linecap="round" stroke-linejoin="round"/>
<path d="M133.223 240.651H102.941V235.961L133.3 237.956C133.543 237.974 133.77 238.082 133.936 238.26C134.102 238.438 134.195 238.672 134.196 238.915V239.692C134.196 239.819 134.171 239.945 134.122 240.062C134.073 240.179 134.001 240.286 133.911 240.375C133.82 240.464 133.713 240.535 133.595 240.582C133.477 240.629 133.351 240.653 133.223 240.651V240.651Z" fill="#7CCCDB" stroke="#2855AF" stroke-linecap="round" stroke-linejoin="round"/>
<path d="M161.938 145.058L169.553 142.482L168.65 143.623" stroke="#2855AF" stroke-linecap="round" stroke-linejoin="round"/>
<path d="M210.72 153.823C210.72 153.823 201.949 127.041 224.02 125.165C246.091 123.289 248.674 143.841 250.697 154.145C252.279 162.202 267.343 176.937 255.681 187.934C243.515 199.421 213.877 195.585 212.169 179.261C210.461 162.937 212.008 159.591 210.72 153.823Z" fill="#2855AF" stroke="#2855AF" stroke-linecap="round" stroke-linejoin="round"/>
<path d="M236.45 158.1C236.45 158.1 235.491 170 241.616 180.185C241.616 180.185 233.363 182.88 224.753 180.318C225.11 177.165 224.935 173.976 224.235 170.882L223.941 169.587L230.199 164.176L236.45 158.1Z" fill="white"/>
<path d="M221.305 167.04C222.446 173.431 223.489 174.824 228.907 173.683C232.918 172.836 236.341 166.816 236.537 162.441C236.34 160.454 236.244 158.459 236.25 156.463L230.202 164.163L221.305 167.04Z" fill="#2855AF"/>
<path d="M236.45 158.1C236.45 158.1 235.491 170 241.616 180.185C241.616 180.185 233.363 182.88 224.753 180.318C225.11 177.165 224.935 173.976 224.235 170.882L223.941 169.587L230.199 164.176L236.45 158.1Z" stroke="#2855AF" stroke-linecap="round" stroke-linejoin="round"/>
<path d="M175.041 226.05C175.041 226.05 162.826 220.45 162.14 225.084C161.454 229.718 164.443 236.872 175.629 233.351L199.1 236.445C199.1 236.445 203.117 228.444 198.826 224.083C198.819 224.083 178.142 227.296 175.041 226.05Z" fill="white" stroke="#2855AF" stroke-linecap="round" stroke-linejoin="round"/>
<path d="M156.218 231.061C156.218 231.061 154.286 231.684 153.999 232.965C153.712 234.246 153.089 236.059 153.831 236.066C154.573 236.073 155.476 233.518 155.476 233.518L157.359 233.028L156.218 231.061Z" fill="white" stroke="#2855AF" stroke-linecap="round" stroke-linejoin="round"/>
<path d="M169.011 218.902L156.312 220.232L158.207 238.319L170.906 236.989L169.011 218.902Z" fill="white" stroke="#2855AF" stroke-linecap="round" stroke-linejoin="round"/>
<path d="M156.308 220.231L154.414 220.43L156.309 238.517L158.202 238.318L156.308 220.231Z" fill="#7CCCDB" stroke="#2855AF" stroke-linecap="round" stroke-linejoin="round"/>
<path d="M165.597 216.285C164.871 216.369 164.207 216.734 163.746 217.302C163.286 217.87 163.066 218.595 163.133 219.323C163.144 219.386 163.158 219.449 163.175 219.512L163.812 219.449L164.512 219.379C164.496 219.314 164.485 219.249 164.477 219.183C164.45 218.932 164.489 218.678 164.591 218.448C164.693 218.217 164.854 218.017 165.058 217.869C165.262 217.72 165.501 217.628 165.752 217.601C166.003 217.574 166.256 217.614 166.486 217.717C166.717 217.819 166.916 217.981 167.064 218.185C167.213 218.389 167.305 218.628 167.331 218.879C167.357 219.13 167.317 219.383 167.214 219.613C167.111 219.844 166.949 220.043 166.745 220.191C166.826 220.416 166.971 220.613 167.16 220.759C167.35 220.906 167.577 220.995 167.816 221.017C168.23 220.618 168.51 220.101 168.616 219.536C168.722 218.971 168.649 218.387 168.407 217.866C168.165 217.344 167.766 216.912 167.266 216.628C166.766 216.345 166.19 216.225 165.618 216.285H165.597Z" fill="white" stroke="#2855AF" stroke-linecap="round" stroke-linejoin="round"/>
<path d="M158.703 223.983L163.078 223.521" stroke="#2855AF" stroke-linecap="round" stroke-linejoin="round"/>
<path d="M158.914 225.973L167.405 225.084" stroke="#2855AF" stroke-linecap="round" stroke-linejoin="round"/>
<path d="M159.121 227.966L163.37 227.525" stroke="#2855AF" stroke-linecap="round" stroke-linejoin="round"/>
<path d="M159.332 229.963L166.423 229.221" stroke="#2855AF" stroke-linecap="round" stroke-linejoin="round"/>
<path d="M159.543 231.958L163.785 231.51" stroke="#2855AF" stroke-linecap="round" stroke-linejoin="round"/>
<path d="M159.754 233.946L169.064 232.973" stroke="#2855AF" stroke-linecap="round" stroke-linejoin="round"/>
<path d="M159.957 235.939L164.332 235.484" stroke="#2855AF" stroke-linecap="round" stroke-linejoin="round"/>
<path d="M163.246 216.529C162.522 216.615 161.859 216.981 161.4 217.548C160.941 218.116 160.722 218.84 160.789 219.567C160.797 219.633 160.809 219.698 160.824 219.763L161.468 219.693L162.168 219.623C162.147 219.559 162.133 219.493 162.126 219.427C162.112 219.061 162.238 218.703 162.479 218.426C162.719 218.15 163.055 217.975 163.42 217.937C163.784 217.9 164.149 218.003 164.441 218.225C164.732 218.447 164.928 218.771 164.989 219.133C165.016 219.383 164.975 219.636 164.871 219.865C164.766 220.095 164.601 220.291 164.394 220.435C164.476 220.66 164.62 220.857 164.81 221.004C164.999 221.15 165.227 221.239 165.465 221.261C165.88 220.863 166.16 220.345 166.265 219.78C166.371 219.215 166.298 218.631 166.056 218.11C165.814 217.589 165.415 217.156 164.915 216.872C164.415 216.589 163.839 216.469 163.267 216.529H163.246Z" fill="white" stroke="#2855AF" stroke-linecap="round" stroke-linejoin="round"/>
<path d="M160.895 216.774C160.17 216.861 159.508 217.226 159.049 217.794C158.59 218.361 158.371 219.086 158.438 219.812C158.438 219.882 158.438 219.938 158.438 220.008L159.082 219.938L159.782 219.868C159.764 219.806 159.75 219.743 159.74 219.679C159.711 219.427 159.75 219.172 159.851 218.939C159.953 218.706 160.114 218.505 160.319 218.354C160.524 218.204 160.764 218.111 161.017 218.083C161.269 218.056 161.524 218.095 161.757 218.198C161.989 218.301 162.19 218.464 162.339 218.669C162.488 218.874 162.581 219.115 162.607 219.368C162.633 219.621 162.592 219.876 162.488 220.107C162.384 220.339 162.221 220.539 162.015 220.687C162.094 220.912 162.236 221.109 162.425 221.254C162.614 221.4 162.841 221.487 163.079 221.506C163.385 221.219 163.62 220.865 163.766 220.471C163.912 220.078 163.964 219.656 163.919 219.238C163.834 218.515 163.471 217.853 162.906 217.393C162.342 216.933 161.62 216.711 160.895 216.774V216.774Z" fill="white" stroke="#2855AF" stroke-linecap="round" stroke-linejoin="round"/>
<path d="M158.55 217.02C157.824 217.104 157.16 217.469 156.7 218.037C156.239 218.605 156.019 219.33 156.086 220.058C156.096 220.124 156.11 220.189 156.128 220.254L156.765 220.184L157.465 220.114C157.45 220.051 157.438 219.988 157.43 219.925C157.403 219.674 157.442 219.42 157.544 219.19C157.646 218.959 157.807 218.759 158.011 218.611C158.215 218.462 158.454 218.37 158.705 218.343C158.956 218.317 159.209 218.356 159.44 218.459C159.67 218.561 159.869 218.723 160.018 218.927C160.166 219.131 160.258 219.37 160.284 219.621C160.31 219.872 160.27 220.125 160.167 220.355C160.064 220.586 159.902 220.785 159.698 220.933C159.78 221.157 159.924 221.353 160.114 221.498C160.304 221.644 160.531 221.731 160.769 221.752C161.073 221.463 161.306 221.108 161.452 220.715C161.597 220.322 161.651 219.901 161.609 219.484C161.524 218.754 161.156 218.086 160.584 217.625C160.012 217.164 159.281 216.947 158.55 217.02Z" fill="white" stroke="#2855AF" stroke-linecap="round" stroke-linejoin="round"/>
<path d="M155.057 220.169C155.027 219.916 155.065 219.66 155.167 219.427C155.268 219.194 155.43 218.991 155.635 218.841C155.84 218.69 156.081 218.596 156.334 218.568C156.587 218.541 156.842 218.581 157.075 218.684C157.307 218.788 157.508 218.951 157.658 219.157C157.807 219.363 157.899 219.605 157.924 219.858C157.949 220.111 157.907 220.367 157.802 220.598C157.697 220.83 157.532 221.03 157.325 221.177C157.407 221.401 157.551 221.598 157.741 221.743C157.931 221.888 158.158 221.976 158.396 221.996C158.794 221.615 159.068 221.124 159.184 220.586C159.301 220.048 159.253 219.487 159.048 218.976C158.843 218.465 158.489 218.028 158.033 217.719C157.577 217.411 157.039 217.246 156.488 217.246C155.938 217.246 155.4 217.411 154.944 217.719C154.488 218.028 154.134 218.465 153.929 218.976C153.724 219.487 153.676 220.048 153.793 220.586C153.909 221.124 154.183 221.615 154.581 221.996L154.42 220.421L155.12 220.351C155.093 220.293 155.072 220.232 155.057 220.169Z" fill="white" stroke="#2855AF" stroke-linecap="round" stroke-linejoin="round"/>
<path d="M152.949 225.299C153.068 225.563 153.206 225.818 153.362 226.062C153.227 226.545 153.202 227.051 153.289 227.544C153.376 228.037 153.573 228.505 153.866 228.911C153.866 228.911 153.922 230.906 154.629 231.221C155.336 231.536 156.463 231.921 156.442 231.361C156.421 230.801 156.092 229.128 154.818 228.757C154.818 228.757 156.281 229.044 156.12 228.232C155.959 227.42 155.679 226.244 154.783 225.908L154.3 225.698C154.3 225.698 155.462 225.908 155.364 225.033C155.266 224.158 155.168 223.129 154.503 222.884C154.349 222.828 154.174 222.779 153.992 222.73C153.012 222.499 152.382 224.039 152.949 225.299Z" fill="white" stroke="#2855AF" stroke-linecap="round" stroke-linejoin="round"/>
<path d="M173.67 225.895C173.67 225.895 172.305 222.871 170.072 221.296C167.839 219.721 166.999 216.655 166.089 217.397C165.179 218.139 166.005 221.394 167.419 222.507C168.833 223.62 167.251 226.105 170.73 229.171" fill="white"/>
<path d="M173.67 225.895C173.67 225.895 172.305 222.871 170.072 221.296C167.839 219.721 166.999 216.655 166.089 217.397C165.179 218.139 166.005 221.394 167.419 222.507C168.833 223.62 167.251 226.105 170.73 229.171" stroke="#2855AF" stroke-linecap="round" stroke-linejoin="round"/>
<path d="M255.897 234.723C255.589 236.627 255.26 238.603 254.91 240.652H206.904C206.827 240.008 207.282 238.713 207.716 236.452C202.368 238.265 193.016 235.451 193.016 235.451C194.178 232.392 193.373 224.622 193.373 224.622L198.819 223.467C198.819 223.467 201.08 199.793 202.802 193.01C204.629 185.814 214.625 177.96 248.246 180.277C248.246 180.277 263.758 179.983 266.166 190.266C268.434 199.863 256.541 234.282 255.897 234.723Z" fill="#7CCCDB"/>
<path opacity="0.2" d="M207.716 236.458C203.999 237.718 198.364 236.745 195.27 236.031C196.075 235.415 196.579 234.155 196.768 232.531C199.288 232.139 201.808 228.135 203.467 209.935C203.859 205.665 204.699 202.984 205.777 201.178C204.69 205.274 204.646 209.577 205.651 213.694C206.253 216.137 208.143 222.017 208.311 224.453C208.647 228.463 208.447 232.5 207.716 236.458V236.458Z" fill="#2855AF"/>
<path opacity="0.2" d="M255.889 234.729C255.591 236.633 255.264 238.607 254.909 240.651H206.903C207.764 238.019 209.878 225.49 206.903 217.873C206.784 217.565 217.214 213.183 224.2 214.975C253.81 222.57 243.611 198.098 252.067 193.646L244.773 222.255L240.79 223.522C249.414 224.054 246.922 236.983 246.922 236.983C250.09 237.404 253.298 236.598 255.889 234.729V234.729Z" fill="#2855AF"/>
<path d="M255.897 234.723C255.589 236.627 255.26 238.603 254.91 240.652H206.904C206.827 240.008 207.282 238.713 207.716 236.452C202.368 238.265 193.016 235.451 193.016 235.451C194.178 232.392 193.373 224.622 193.373 224.622L198.819 223.467C198.819 223.467 201.08 199.793 202.802 193.01C204.629 185.814 214.625 177.96 248.246 180.277C248.246 180.277 263.758 179.983 266.166 190.266C268.434 199.863 256.541 234.282 255.897 234.723Z" stroke="#2855AF" stroke-linecap="round" stroke-linejoin="round"/>
<path d="M194.268 223.291C194.268 223.291 196.088 224.264 196.683 228.541C197.278 232.818 196.361 236.5 193.988 236.444C191.615 236.388 191.188 235.457 191.678 234.575C192.168 233.693 193.204 232.51 192.413 228.849C191.419 224.264 189.375 224.684 189.375 224.684C189.375 224.684 192.098 222.073 194.268 223.291Z" fill="#7CCCDB" stroke="#2855AF" stroke-linecap="round" stroke-linejoin="round"/>
<path opacity="0.2" d="M196.767 232.56C196.578 234.156 196.067 235.416 195.269 236.06C194.904 236.345 194.45 236.491 193.988 236.473C191.608 236.417 191.188 235.486 191.678 234.604C192.168 233.722 193.204 232.539 192.413 228.878C191.419 224.293 189.375 224.713 189.375 224.713C189.375 224.713 192.105 222.102 194.275 223.313C194.275 223.313 196.095 224.286 196.69 228.563C196.879 229.887 196.905 231.229 196.767 232.56Z" fill="#2855AF"/>
<path d="M240.002 171.723C240.002 171.723 227.934 175.384 222.446 173.431L221.305 180.76C221.305 180.76 226.646 185.408 243.754 179.689L240.002 171.723Z" fill="#7CCCDB" stroke="#2855AF" stroke-linecap="round" stroke-linejoin="round"/>
<path d="M197.118 221.157C198.553 225.826 199.834 229.557 198.567 229.97C197.3 230.383 196.257 226.533 194.822 221.857C193.387 217.181 192.106 213.457 193.373 213.051C194.64 212.645 195.683 216.481 197.118 221.157Z" fill="#7CCCDB" stroke="#2855AF" stroke-linecap="round" stroke-linejoin="round"/>
<path d="M194.64 221.267L196.936 220.567C196.6 219.468 196.285 218.418 195.984 217.48L193.695 218.18C193.975 219.125 194.297 220.161 194.64 221.267Z" fill="#2855AF"/>
<path d="M194.43 215.263C194.43 215.263 195.501 213.114 196.488 214.633C197.475 216.152 197.678 220.765 198.378 220.772" stroke="#2855AF" stroke-linecap="round" stroke-linejoin="round"/>
<path d="M208.669 192.4C207.794 195.081 206.569 198 205.778 201.213C204.691 205.309 204.648 209.612 205.652 213.729C206.254 216.172 208.144 222.052 208.312 224.488C208.646 228.489 208.446 232.517 207.717 236.465C207.283 238.719 206.828 240.014 206.905 240.665" stroke="#2855AF" stroke-linecap="round" stroke-linejoin="round"/>
<path d="M238.385 224.32C238.385 224.32 218.855 226.987 212.268 227.12C211.26 227.12 208.236 226.77 208.236 226.77L203.553 223.641C203.553 223.641 199.948 223.109 198.177 223.508L196.161 226.147C196.161 226.147 193.648 226.959 195.083 228.863C194.934 229.309 194.917 229.79 195.035 230.246C195.153 230.702 195.401 231.114 195.748 231.432C195.748 231.432 195.86 233.091 196.966 233.756C196.966 233.756 197.183 235.303 198.401 235.744C199.619 236.185 207.242 234.967 209.566 234.309C211.89 233.651 234.43 237.179 243.271 236.962C243.271 236.976 250.845 228.1 238.385 224.32Z" fill="white" stroke="#2855AF" stroke-linecap="round" stroke-linejoin="round"/>
<path d="M238.684 150.401C238.684 150.401 233.532 152.41 230.48 146.852C229.157 144.444 226.483 139.425 226.483 139.425C225.72 141.392 226.658 144.388 226.658 144.388C224.908 143.625 221.534 143.443 221.534 143.443C220.337 141.441 219.987 136.891 219.987 136.891C218.328 139.691 218.804 143.639 218.804 143.639C216.096 143.899 213.533 144.984 211.461 146.747C211.902 148.532 212.056 151.318 211.909 157.107C211.72 164.66 215.353 166.732 218.909 169.56C222.465 172.388 232.146 173.844 235.492 159.06C235.492 159.06 242.492 156.449 239.076 150.968L238.684 150.401Z" fill="white" stroke="#2855AF" stroke-linecap="round" stroke-linejoin="round"/>
<path d="M232.945 141.301C233.988 143.551 235.508 145.548 237.399 147.152C239.291 148.756 241.509 149.929 243.9 150.59" stroke="white" stroke-miterlimit="10"/>
<path d="M231.105 135.699C231.269 136.619 231.503 137.524 231.805 138.408" stroke="white" stroke-miterlimit="10"/>
<path d="M234.605 136.043C234.605 136.043 238.581 143.631 244.797 143.813" stroke="white" stroke-miterlimit="10"/>
<path d="M246.789 155.342C246.789 155.342 256.904 171.722 256.904 181.242" stroke="white" stroke-miterlimit="10"/>
<path d="M244.117 159.711C244.117 159.711 246.616 168.846 250.641 173.431" stroke="white" stroke-miterlimit="10"/>
<path d="M212.329 135.959C212.027 137.307 211.828 138.676 211.734 140.054" stroke="white" stroke-miterlimit="10"/>
<path d="M220.612 127.377C220.612 127.377 215.901 128.259 212.828 133.81" stroke="white" stroke-miterlimit="10"/>
<path d="M214.645 169.791C214.645 169.791 214.491 177.141 218.243 181.271" stroke="white" stroke-miterlimit="10"/>
<path d="M221.305 147.3C226.408 146.299 228.641 148.896 228.641 148.896" stroke="#2855AF" stroke-linecap="round" stroke-linejoin="round"/>
<path d="M212.805 149.448C213.368 148.879 214.042 148.433 214.785 148.137C215.528 147.841 216.324 147.701 217.124 147.725" stroke="#2855AF" stroke-linecap="round" stroke-linejoin="round"/>
<path d="M224.628 164.4C226.203 163.504 227.078 161.166 227.078 161.166L226.749 161.348C224.696 162.446 222.459 163.158 220.148 163.448C220.688 164.075 221.419 164.508 222.228 164.68C223.037 164.852 223.88 164.753 224.628 164.4V164.4Z" stroke="#2855AF" stroke-linecap="round" stroke-linejoin="round"/>
<path d="M218.385 159.542C217.72 159.458 215.823 158.562 215.662 157.274C215.613 156.889 215.893 156.539 216.306 156.231C217.123 155.657 217.78 154.884 218.215 153.985C218.65 153.086 218.848 152.09 218.791 151.093C218.791 150.953 218.791 150.869 218.791 150.869" stroke="#2855AF" stroke-linecap="round" stroke-linejoin="round"/>
<path d="M224.91 149.349C225.393 149.286 225.89 150.091 226.016 151.134C226.142 152.177 225.862 153.066 225.372 153.129C224.882 153.192 224.399 152.387 224.266 151.344C224.133 150.301 224.427 149.405 224.91 149.349Z" fill="#2855AF"/>
<path d="M216.495 152.366C216.621 153.388 216.341 154.263 215.865 154.319C215.389 154.375 214.906 153.619 214.78 152.576C214.654 151.533 214.934 150.672 215.41 150.616C215.886 150.56 216.369 151.337 216.495 152.366Z" fill="#2855AF"/>
<path d="M232.163 150.226C232.163 150.226 231.512 148.378 232.254 147.426" stroke="#2855AF" stroke-linecap="round" stroke-linejoin="round"/>
<path d="M255.891 234.73C253.298 236.601 250.087 237.408 246.917 236.984C246.917 236.984 249.409 224.054 240.785 223.522L244.768 222.255L252.062 193.646" stroke="#2855AF" stroke-linecap="round" stroke-linejoin="round"/>
<path d="M246.918 222.256C246.918 222.256 251.538 223.474 252.833 227.45" stroke="#2855AF" stroke-linecap="round" stroke-linejoin="round"/>
<path d="M228.066 176.216C232.462 176.186 236.803 175.232 240.806 173.416" stroke="#2855AF" stroke-linecap="round" stroke-linejoin="round"/>
<path d="M222.117 175.529C223.105 175.787 224.111 175.965 225.127 176.061" stroke="#2855AF" stroke-linecap="round" stroke-linejoin="round"/>
<path d="M241.801 183.734C243.047 183.296 244.353 182.78 245.721 182.188" stroke="#2855AF" stroke-linecap="round" stroke-linejoin="round"/>
<path d="M220.176 183.84C220.176 183.84 224.873 188.299 237.298 185.114" stroke="#2855AF" stroke-linecap="round" stroke-linejoin="round"/>
<path d="M224.238 206.002C224.238 206.002 224.938 216.761 232.946 220.772" stroke="#2855AF" stroke-linecap="round" stroke-linejoin="round"/>
<path d="M238.188 224.488C238.188 224.488 239.756 221.03 244.446 222.738C244.446 222.738 248.877 224.264 250.207 228.821C251.537 233.378 249.871 237.445 246.637 237.613C243.403 237.781 242.815 237.529 243.361 236.535C243.934 235.449 244.255 234.248 244.299 233.021C244.342 231.795 244.108 230.574 243.613 229.451C241.604 224.642 238.188 224.488 238.188 224.488Z" fill="#7CCCDB"/>
<g opacity="0.2">
<path opacity="0.2" d="M238.188 224.488C238.188 224.488 239.756 221.03 244.446 222.738C244.446 222.738 248.877 224.264 250.207 228.821C251.537 233.378 249.871 237.445 246.637 237.613C243.403 237.781 242.815 237.529 243.361 236.535C243.934 235.449 244.255 234.248 244.299 233.021C244.342 231.795 244.108 230.574 243.613 229.451C241.604 224.642 238.188 224.488 238.188 224.488Z" fill="#2855AF"/>
</g>
<path d="M238.188 224.488C238.188 224.488 239.756 221.03 244.446 222.738C244.446 222.738 248.877 224.264 250.207 228.821C251.537 233.378 249.871 237.445 246.637 237.613C243.403 237.781 242.815 237.529 243.361 236.535C243.934 235.449 244.255 234.248 244.299 233.021C244.342 231.795 244.108 230.574 243.613 229.451C241.604 224.642 238.188 224.488 238.188 224.488Z" stroke="#2855AF" stroke-linecap="round" stroke-linejoin="round"/>
<path d="M23.7067 210.257C23.7067 210.257 21.2987 189.67 0.0117188 198C0.0117188 198 18.1277 197.867 21.1937 213.4L23.9937 213.099L23.7067 210.257Z" fill="#7CCCDB"/>
<path opacity="0.1" d="M23.7067 210.257C23.7067 210.257 21.2987 189.67 0.0117188 198C0.0117188 198 18.1277 197.867 21.1937 213.4L23.9937 213.099L23.7067 210.257Z" fill="#2855AF"/>
<path d="M24.0004 209.902C24.0004 209.902 22.1594 187.95 18.1484 170.891C18.1484 170.891 30.3984 183.848 27.5984 208.243L24.0004 209.902Z" fill="#7CCCDB"/>
<path opacity="0.1" d="M24.0004 209.902C24.0004 209.902 22.1594 187.95 18.1484 170.891C18.1484 170.891 30.3984 183.848 27.5984 208.243L24.0004 209.902Z" fill="#2855AF"/>
<path d="M22.8123 224.448C22.8123 224.448 19.3122 194.208 7.53125 183.848C7.53125 183.848 28.5313 189.077 25.4373 221.193L22.8123 224.448Z" fill="#7CCCDB"/>
<path d="M26.5079 223.201C26.5079 223.201 31.6529 193.192 43.9449 183.455C43.9449 183.455 22.6789 187.543 24.0649 219.785L26.5079 223.201Z" fill="#7CCCDB"/>
<path d="M37.2953 213.359H12.4453V217.678H13.2713V232.917C13.2713 234.963 14.0814 236.925 15.5245 238.374C16.9675 239.824 18.9259 240.643 20.9713 240.652H28.6713C30.7234 240.652 32.6916 239.838 34.1433 238.387C35.595 236.937 36.4115 234.969 36.4133 232.917V217.678H37.2393L37.2953 213.359Z" fill="white" stroke="#2855AF" stroke-miterlimit="10"/>
<path d="M29.5938 217.475H32.8978Z" fill="white"/>
<path d="M29.5938 217.475H32.8978" stroke="#2855AF" stroke-miterlimit="10"/>
<path d="M16.6367 217.475H26.1987Z" fill="white"/>
<path d="M16.6367 217.475H26.1987" stroke="#2855AF" stroke-miterlimit="10"/>
<path d="M121.4 221.639L115.03 169.769C114.909 168.958 114.507 168.215 113.894 167.67C113.281 167.125 112.497 166.813 111.677 166.787H104.383L112.825 224.6H118.796C119.171 224.607 119.543 224.532 119.887 224.381C120.23 224.23 120.536 224.005 120.784 223.723C121.032 223.442 121.216 223.109 121.322 222.749C121.428 222.389 121.455 222.01 121.4 221.639V221.639Z" fill="#7CCCDB" stroke="#2855AF" stroke-linecap="round" stroke-linejoin="round"/>
<path d="M117.199 224.601H43.8114C42.993 224.574 42.2099 224.26 41.5985 223.716C40.9871 223.171 40.5862 222.429 40.4654 221.619L34.0954 169.749C34.0392 169.377 34.0649 168.998 34.1707 168.638C34.2765 168.277 34.4599 167.944 34.708 167.662C34.9561 167.38 35.2629 167.155 35.6069 167.004C35.951 166.853 36.3238 166.779 36.6994 166.788H110.115C110.934 166.815 111.717 167.128 112.328 167.673C112.94 168.218 113.341 168.96 113.461 169.77L119.831 221.64C119.887 222.013 119.86 222.395 119.752 222.757C119.644 223.119 119.458 223.453 119.207 223.735C118.956 224.017 118.646 224.241 118.299 224.391C117.952 224.54 117.577 224.612 117.199 224.601V224.601Z" fill="#2855AF"/>
<path opacity="0.1" d="M117.199 224.601H43.8114C42.993 224.574 42.2099 224.26 41.5985 223.716C40.9871 223.171 40.5862 222.429 40.4654 221.619L34.0954 169.749C34.0392 169.377 34.0649 168.998 34.1707 168.638C34.2765 168.277 34.4599 167.944 34.708 167.662C34.9561 167.38 35.2629 167.155 35.6069 167.004C35.951 166.853 36.3238 166.779 36.6994 166.788H110.115C110.934 166.815 111.717 167.128 112.328 167.673C112.94 168.218 113.341 168.96 113.461 169.77L119.831 221.64C119.887 222.013 119.86 222.395 119.752 222.757C119.644 223.119 119.458 223.453 119.207 223.735C118.956 224.017 118.646 224.241 118.299 224.391C117.952 224.54 117.577 224.612 117.199 224.601V224.601Z" fill="white"/>
<path d="M117.199 224.601H43.8114C42.993 224.574 42.2099 224.26 41.5985 223.716C40.9871 223.171 40.5862 222.429 40.4654 221.619L34.0954 169.749C34.0392 169.377 34.0649 168.998 34.1707 168.638C34.2765 168.277 34.4599 167.944 34.708 167.662C34.9561 167.38 35.2629 167.155 35.6069 167.004C35.951 166.853 36.3238 166.779 36.6994 166.788H110.115C110.934 166.815 111.717 167.128 112.328 167.673C112.94 168.218 113.341 168.96 113.461 169.77L119.831 221.64C119.887 222.013 119.86 222.395 119.752 222.757C119.644 223.119 119.458 223.453 119.207 223.735C118.956 224.017 118.646 224.241 118.299 224.391C117.952 224.54 117.577 224.612 117.199 224.601V224.601Z" stroke="#2855AF" stroke-linecap="round" stroke-linejoin="round"/>
<path d="M82.9887 236.41L85.9217 202.999C85.9342 202.807 85.9072 202.616 85.8425 202.435C85.7777 202.255 85.6766 202.089 85.5453 201.949C85.414 201.81 85.2555 201.698 85.0794 201.622C84.9033 201.546 84.7135 201.507 84.5217 201.508H66.0207C65.6736 201.506 65.338 201.633 65.0793 201.865C64.8206 202.096 64.6572 202.416 64.6207 202.761L61.4287 239.161C61.4163 239.352 61.4433 239.544 61.508 239.725C61.5728 239.905 61.6739 240.07 61.8052 240.21C61.9364 240.35 62.095 240.461 62.2711 240.537C62.4472 240.613 62.637 240.652 62.8287 240.652H99.5367C99.908 240.652 100.264 240.504 100.527 240.242C100.789 239.979 100.937 239.623 100.937 239.252C100.937 238.881 100.789 238.524 100.527 238.262C100.264 237.999 99.908 237.852 99.5367 237.852H84.3537C84.1693 237.847 83.9875 237.806 83.8189 237.731C83.6503 237.656 83.4982 237.549 83.3714 237.415C83.2445 237.281 83.1454 237.123 83.0797 236.95C83.0141 236.778 82.9831 236.594 82.9887 236.41V236.41Z" fill="#2855AF" stroke="#2855AF" stroke-linecap="round" stroke-linejoin="round"/>
<path d="M100.908 239.3C100.908 238.929 100.76 238.572 100.498 238.31C100.235 238.047 99.8792 237.9 99.5079 237.9H84.3529C84.1605 237.9 83.9701 237.861 83.7935 237.785C83.6169 237.708 83.458 237.596 83.3266 237.456C83.1953 237.315 83.0943 237.149 83.03 236.968C82.9657 236.786 82.9395 236.594 82.9529 236.402L85.8859 202.991C85.9462 202.792 85.9613 202.581 85.93 202.375C85.8988 202.17 85.822 201.973 85.7053 201.801C85.5885 201.628 85.4348 201.484 85.2553 201.379C85.0757 201.273 84.8749 201.209 84.6675 201.191C84.46 201.173 84.2511 201.201 84.0561 201.274C83.861 201.347 83.6846 201.462 83.5398 201.612C83.395 201.762 83.2854 201.942 83.219 202.139C83.1526 202.336 83.131 202.546 83.1559 202.753L79.9639 239.153C79.9516 239.341 79.9775 239.53 80.0402 239.708C80.1028 239.887 80.2008 240.05 80.3283 240.19C80.4558 240.329 80.6102 240.441 80.7822 240.519C80.9541 240.597 81.1401 240.64 81.3289 240.644H99.5289C99.8871 240.639 100.23 240.497 100.486 240.247C100.743 239.997 100.894 239.658 100.908 239.3Z" fill="#7CCCDB" stroke="#2855AF" stroke-linecap="round" stroke-linejoin="round"/>
<path d="M16.75 240.652H279.25" stroke="#2855AF" stroke-linecap="round" stroke-linejoin="round"/>
<path d="M261.686 113.529H247.889C247.03 113.529 246.205 113.871 245.598 114.479C244.99 115.086 244.648 115.911 244.648 116.77V123.49C244.648 124.35 244.99 125.174 245.598 125.782C246.205 126.39 247.03 126.731 247.889 126.731H251.494L252.551 132.926L258.081 126.731H261.686C262.113 126.732 262.535 126.649 262.929 126.487C263.323 126.324 263.681 126.086 263.983 125.784C264.284 125.483 264.524 125.126 264.687 124.732C264.85 124.339 264.934 123.916 264.934 123.49V116.798C264.937 116.37 264.855 115.945 264.693 115.549C264.531 115.152 264.292 114.792 263.991 114.488C263.689 114.184 263.33 113.943 262.934 113.779C262.539 113.614 262.115 113.529 261.686 113.529V113.529Z" fill="white" stroke="#2855AF" stroke-linecap="round" stroke-linejoin="round"/>
<path d="M240.533 93.6992H226.736C226.31 93.6983 225.888 93.7815 225.494 93.9439C225.1 94.1064 224.742 94.345 224.44 94.646C224.138 94.9471 223.899 95.3047 223.736 95.6983C223.572 96.092 223.488 96.514 223.488 96.9402V103.653C223.488 104.515 223.83 105.341 224.44 105.95C225.049 106.559 225.875 106.901 226.736 106.901H230.341L233.078 113.096L236.928 106.901H240.533C241.395 106.901 242.221 106.559 242.83 105.95C243.439 105.341 243.781 104.515 243.781 103.653V96.9402C243.781 96.514 243.697 96.092 243.534 95.6983C243.371 95.3047 243.131 94.9471 242.83 94.646C242.528 94.345 242.17 94.1064 241.776 93.9439C241.382 93.7815 240.959 93.6983 240.533 93.6992V93.6992Z" fill="white" stroke="#2855AF" stroke-linecap="round" stroke-linejoin="round"/>
<path d="M213.682 100.637H200.648C199.835 100.637 199.055 100.96 198.48 101.535C197.905 102.11 197.582 102.89 197.582 103.703V110.045C197.582 110.858 197.905 111.638 198.48 112.213C199.055 112.788 199.835 113.111 200.648 113.111H204.057L207.613 118.956L210.273 113.111H213.682C214.495 113.111 215.275 112.788 215.85 112.213C216.425 111.638 216.748 110.858 216.748 110.045V103.703C216.748 102.89 216.425 102.11 215.85 101.535C215.275 100.96 214.495 100.637 213.682 100.637Z" fill="white" stroke="#2855AF" stroke-linecap="round" stroke-linejoin="round"/>
<path d="M205.402 105.376V106.139C205.402 107.077 204.954 107.588 204.002 107.588H203.561V109.8H202.637V103.92H204.002C204.933 103.92 205.402 104.431 205.402 105.376ZM203.589 104.76V106.748H204.002C204.296 106.748 204.45 106.615 204.45 106.195V105.313C204.45 104.893 204.296 104.76 204.002 104.76H203.589Z" fill="#2855AF"/>
<path d="M206.803 109.8H205.879V103.92H206.803V106.44H207.853V103.92H208.791V109.8H207.853V107.28H206.803V109.8Z" fill="#2855AF"/>
<path d="M212.176 105.376V106.139C212.176 107.077 211.728 107.588 210.776 107.588H210.342V109.8H209.418V103.92H210.776C211.7 103.92 212.176 104.431 212.176 105.376ZM210.363 104.76V106.748H210.797C211.091 106.748 211.252 106.615 211.252 106.195V105.313C211.252 104.893 211.091 104.76 210.797 104.76H210.363Z" fill="#2855AF"/>
<path d="M231.659 101.176V101.96C231.659 102.898 231.19 103.437 230.259 103.437C229.328 103.437 228.859 102.898 228.859 101.96V98.9008C228.859 97.9628 229.328 97.4238 230.259 97.4238C231.19 97.4238 231.659 97.9628 231.659 98.9008V99.4748H230.784V98.8448C230.784 98.4248 230.602 98.2638 230.308 98.2638C230.014 98.2638 229.832 98.4248 229.832 98.8448V102.016C229.832 102.436 230.014 102.59 230.308 102.59C230.602 102.59 230.784 102.436 230.784 102.016V101.176H231.659Z" fill="#2855AF"/>
<path d="M233.876 100.105H235.003V100.756H233.876V101.911H233.218V100.756H232.098V100.105H233.218V98.9707H233.876V100.105Z" fill="#2855AF"/>
<path d="M237.201 100.105H238.3V100.756H237.173V101.911H236.522V100.756H235.395V100.105H236.522V98.9707H237.173L237.201 100.105Z" fill="#2855AF"/>
<path d="M248.316 120.775V119.879L252.061 118.479V119.389L249.499 120.299L252.068 121.216V122.126L248.316 120.775Z" fill="#2855AF"/>
<path d="M255.745 116.309H256.83L253.701 124.345H252.609L255.745 116.309Z" fill="#2855AF"/>
<path d="M257.348 122.154V121.244L259.917 120.327L257.348 119.41V118.5L261.093 119.9V120.796L257.348 122.154Z" fill="#2855AF"/>
</svg>
