<svg width="504" height="414" viewBox="0 0 504 414" fill="none" xmlns="http://www.w3.org/2000/svg">
<path d="M482.855 96.3757C482.855 96.3757 483.762 91.7535 478.548 84.0078C473.333 76.2621 469.895 71.7532 469.895 71.7532C469.895 71.7532 464.58 81.8289 469.328 89.3857C472.859 94.8073 476.841 99.9219 481.23 104.676L482.855 96.3757Z" fill="#7CCCDB"/>
<path d="M467.816 123.429C467.816 123.429 468.71 118.807 463.508 111.061C458.307 103.315 454.856 98.8064 454.856 98.8064C454.856 98.8064 449.541 108.807 454.289 116.439C457.822 121.856 461.799 126.97 466.179 131.729L467.816 123.429Z" fill="#7CCCDB"/>
<path d="M480.953 104.172C480.953 104.172 482.338 99.6755 490.587 95.3555C498.837 91.0355 504.001 88.6426 504.001 88.6426C504.001 88.6426 504.001 99.9778 496.167 104.474C490.483 107.565 484.551 110.177 478.434 112.283L480.953 104.172Z" fill="#7CCCDB"/>
<path d="M462.889 136.099C462.889 136.099 464.741 131.767 473.393 128.291C482.046 124.814 487.436 123.013 487.436 123.013C487.436 123.013 486.177 134.286 477.99 137.938C472.015 140.423 465.843 142.407 459.539 143.87L462.889 136.099Z" fill="#7CCCDB"/>
<path d="M457.752 173.682C457.752 173.682 458.659 169.059 466.392 163.845C474.125 158.631 478.987 155.747 478.987 155.747C478.987 155.747 480.146 167.082 472.866 172.321C467.554 176.013 461.943 179.253 456.09 182.007L457.752 173.682Z" fill="#7CCCDB"/>
<path d="M455.876 182.699C455.876 182.699 457.425 178.254 453.357 169.84C449.289 161.427 446.53 156.49 446.53 156.49C446.53 156.49 439.855 165.634 443.457 173.883C446.185 179.75 449.4 185.379 453.067 190.71L455.876 182.699Z" fill="#7CCCDB"/>
<path d="M444.226 208.393C444.226 208.393 445.133 203.77 452.879 198.556C460.625 193.342 465.473 190.458 465.473 190.458C465.473 190.458 466.632 201.73 459.352 207.032C454.048 210.718 448.445 213.954 442.602 216.705L444.226 208.393Z" fill="#7CCCDB"/>
<path d="M443.783 233.632C443.783 233.632 443.494 228.922 449.653 221.932C455.811 214.942 459.816 210.899 459.816 210.899C459.816 210.899 463.796 221.504 458.104 228.531C453.896 233.443 449.287 237.997 444.325 242.146L443.783 233.632Z" fill="#7CCCDB"/>
<path d="M483.672 95.3052C482.401 100.058 480.87 104.738 479.087 109.323C473.949 122.044 465.875 129.323 460.989 140.81C456.102 152.296 460.434 169.085 455.472 184.034C450.51 198.984 442.878 206.365 442.563 216.932C442.248 227.499 445.812 257.008 445.812 257.008" stroke="#2855AF" stroke-width="0.5" stroke-linecap="round" stroke-linejoin="round"/>
<path d="M480.234 107.232L488.27 103.24" stroke="#2855AF" stroke-width="0.5" stroke-linecap="round" stroke-linejoin="round"/>
<path d="M481.769 101.137L479.867 95.3682" stroke="#2855AF" stroke-width="0.5" stroke-linecap="round" stroke-linejoin="round"/>
<path d="M461.48 140.293C461.48 140.293 468.181 137.056 475.045 133.845" stroke="#2855AF" stroke-width="0.5" stroke-linecap="round" stroke-linejoin="round"/>
<path d="M466.178 131.754C464.367 125.552 461.928 119.551 458.898 113.844" stroke="#2855AF" stroke-width="0.5" stroke-linecap="round" stroke-linejoin="round"/>
<path d="M456.695 180.306C461.232 174.81 466.544 170.003 472.464 166.037" stroke="#2855AF" stroke-width="0.5" stroke-linecap="round" stroke-linejoin="round"/>
<path d="M454.291 186.579C453.338 182.058 452.007 177.626 450.311 173.329C447.893 167.636 447.527 166.881 447.527 166.881" stroke="#2855AF" stroke-width="0.5" stroke-linecap="round" stroke-linejoin="round"/>
<path d="M442.562 216.894C444.76 213.507 447.215 210.295 449.905 207.284C452.545 204.531 455.41 202.004 458.47 199.727" stroke="#2855AF" stroke-width="0.5" stroke-linecap="round" stroke-linejoin="round"/>
<path d="M444.328 242.096C444.682 238.518 445.987 235.1 448.107 232.196C451.469 227.965 455.424 222.335 457.036 220.118" stroke="#2855AF" stroke-width="0.5" stroke-linecap="round" stroke-linejoin="round"/>
<path d="M428.38 149.878C428.38 149.878 428.443 146.88 432.725 142.774C437.007 138.669 439.765 136.326 439.765 136.326C439.765 136.326 441.718 143.266 437.725 147.384C434.797 150.28 431.629 152.921 428.254 155.281L428.38 149.878Z" fill="#7CCCDB"/>
<path d="M434.063 168.732C434.063 168.732 434.126 165.735 438.42 161.629C442.715 157.523 445.461 155.18 445.461 155.18C445.461 155.18 447.413 162.12 443.42 166.238C440.49 169.131 437.321 171.772 433.949 174.135L434.063 168.732Z" fill="#7CCCDB"/>
<path d="M428.534 154.991C428.534 154.991 428.282 152.006 423.735 148.177C419.189 144.349 416.317 142.182 416.317 142.182C416.317 142.182 414.806 149.235 419.038 153.089C422.146 155.789 425.474 158.224 428.987 160.369L428.534 154.991Z" fill="#7CCCDB"/>
<path d="M435.408 177.271C435.408 177.271 434.841 174.324 429.929 170.974C425.017 167.624 421.919 165.797 421.919 165.797C421.919 165.797 421.151 172.964 425.773 176.352C429.147 178.712 432.711 180.789 436.428 182.561L435.408 177.271Z" fill="#7CCCDB"/>
<path d="M433.51 201.352C433.51 201.352 433.573 198.354 429.467 194.06C425.361 189.765 422.716 187.322 422.716 187.322C422.716 187.322 420.462 194.173 424.278 198.455C427.078 201.47 430.129 204.242 433.396 206.742L433.51 201.352Z" fill="#7CCCDB"/>
<path d="M433.459 207.234C433.459 207.234 433.094 204.261 436.759 199.589C440.424 194.916 442.805 192.196 442.805 192.196C442.805 192.196 445.726 198.795 442.364 203.43C439.869 206.711 437.106 209.778 434.102 212.599L433.459 207.234Z" fill="#7CCCDB"/>
<path d="M437.007 232.221C437.007 232.221 437.914 229.362 443.191 226.629C448.469 223.896 451.756 222.423 451.756 222.423C451.756 222.423 451.668 229.64 446.718 232.499C443.083 234.446 439.292 236.085 435.383 237.398L437.007 232.221Z" fill="#7CCCDB"/>
<path d="M437.212 224.766C437.212 224.766 437.287 221.768 433.169 217.486C429.05 213.204 426.418 210.735 426.418 210.735C426.418 210.735 424.176 217.587 427.98 221.869C430.782 224.885 433.832 227.662 437.098 230.169L437.212 224.766Z" fill="#7CCCDB"/>
<path d="M434.073 240.522C434.073 240.522 434.892 237.637 432.008 232.448C429.124 227.259 427.184 224.211 427.184 224.211C427.184 224.211 423.267 230.269 425.924 235.37C427.854 238.984 430.083 242.43 432.587 245.673L434.073 240.522Z" fill="#7CCCDB"/>
<path d="M428.055 149.11C428.2 152.235 428.515 155.351 428.999 158.442C430.473 167.044 434.503 172.674 436.002 180.445C437.501 188.216 432.513 198.078 433.571 208.078C434.629 218.078 438.382 223.657 437.135 230.282C435.889 236.907 429.692 254.741 429.692 254.741" stroke="#2855AF" stroke-width="0.5" stroke-linecap="round" stroke-linejoin="round"/>
<path d="M428.533 156.981L424.074 153.417" stroke="#2855AF" stroke-width="0.5" stroke-linecap="round" stroke-linejoin="round"/>
<path d="M428.406 152.989L430.371 149.664" stroke="#2855AF" stroke-width="0.5" stroke-linecap="round" stroke-linejoin="round"/>
<path d="M435.713 180.092C435.713 180.092 431.935 177.17 428.156 174.236" stroke="#2855AF" stroke-width="0.5" stroke-linecap="round" stroke-linejoin="round"/>
<path d="M433.949 174.135C435.915 170.524 438.245 167.122 440.901 163.984" stroke="#2855AF" stroke-width="0.5" stroke-linecap="round" stroke-linejoin="round"/>
<path d="M433.27 205.609C431.192 201.579 428.541 197.871 425.398 194.601" stroke="#2855AF" stroke-width="0.5" stroke-linecap="round" stroke-linejoin="round"/>
<path d="M433.91 209.841C435.118 207.158 436.546 204.58 438.18 202.133C440.459 198.921 440.787 198.506 440.787 198.506" stroke="#2855AF" stroke-width="0.5" stroke-linecap="round" stroke-linejoin="round"/>
<path d="M435.887 235.244C437.891 233.559 440.04 232.054 442.31 230.748C443.717 230.079 445.068 229.3 446.353 228.418" stroke="#2855AF" stroke-width="0.5" stroke-linecap="round" stroke-linejoin="round"/>
<path d="M437.096 230.282C436.186 227.877 435.096 225.545 433.834 223.305C432.566 221.23 431.129 219.263 429.539 217.423" stroke="#2855AF" stroke-width="0.5" stroke-linecap="round" stroke-linejoin="round"/>
<path d="M432.587 245.673C432.86 243.404 432.521 241.103 431.604 239.01C430.093 235.924 428.38 231.882 427.688 230.295" stroke="#2855AF" stroke-width="0.5" stroke-linecap="round" stroke-linejoin="round"/>
<path d="M33.7279 219.74C33.7279 219.74 32.141 215.307 23.6522 211.327C15.1634 207.347 9.94922 205.219 9.94922 205.219C9.94922 205.219 10.5034 216.554 18.4884 220.672C24.296 223.529 30.3333 225.892 36.5365 227.738L33.7279 219.74Z" fill="#7CCCDB"/>
<path d="M34.6342 250.711C34.6342 250.711 33.0472 246.265 24.5584 242.285C16.0697 238.305 10.8555 236.176 10.8555 236.176C10.8555 236.176 11.4096 247.511 19.3946 251.642C25.2041 254.491 31.2411 256.85 37.4428 258.696L34.6342 250.711Z" fill="#7CCCDB"/>
<path d="M36.0454 227.448C36.0454 227.448 34.9371 222.864 39.8238 214.853C44.7105 206.843 47.9222 202.259 47.9222 202.259C47.9222 202.259 53.6779 212.007 49.2824 219.891C45.9931 225.463 42.2436 230.75 38.0732 235.698L36.0454 227.448Z" fill="#7CCCDB"/>
<path d="M36.8636 264.061C36.8636 264.061 36.2464 259.388 41.9014 251.983C47.5564 244.577 51.2718 240.27 51.2718 240.27C51.2718 240.27 55.9696 250.572 50.7681 257.902C46.9206 263.103 42.6399 267.97 37.9719 272.449L36.8636 264.061Z" fill="#7CCCDB"/>
<path d="M51.6874 299.011C51.6874 299.011 50.1004 294.578 54.0803 286.139C58.0603 277.701 60.7933 272.726 60.7933 272.726C60.7933 272.726 67.5566 281.819 64.0049 290.094C61.3298 295.982 58.1659 301.636 54.5464 306.996L51.6874 299.011Z" fill="#7CCCDB"/>
<path d="M54.6996 307.752C54.6996 307.752 53.755 303.142 45.9841 297.991C38.2132 292.84 33.2887 290.006 33.2887 290.006C33.2887 290.006 32.2181 301.278 39.586 306.517C44.9321 310.163 50.5731 313.356 56.4502 316.064L54.6996 307.752Z" fill="#7CCCDB"/>
<path d="M57.7735 335.762C57.7735 335.762 56.174 331.316 60.1665 322.89C64.159 314.465 66.8795 309.477 66.8795 309.477C66.8795 309.477 73.6428 318.57 70.0911 326.845C67.416 332.733 64.2521 338.387 60.6325 343.747L57.7735 335.762Z" fill="#7CCCDB"/>
<path d="M70.3676 357.677C70.3676 357.677 67.7101 353.785 69.423 344.616C71.1359 335.447 72.5213 329.931 72.5213 329.931C72.5213 329.931 81.3375 337.022 80.0781 345.926C78.984 352.303 77.3535 358.577 75.2039 364.68L70.3676 357.677Z" fill="#7CCCDB"/>
<path d="M33.8438 218.405C35.1839 223.137 36.2644 227.939 37.0806 232.788C39.1587 246.353 35.9597 256.718 37.597 269.074C39.2343 281.429 51.6274 293.658 55.0028 309.049C58.3781 324.44 55.5821 334.679 60.7333 343.911C65.8845 353.143 84.0082 376.657 84.0082 376.657" stroke="#2855AF" stroke-width="0.5" stroke-linecap="round" stroke-linejoin="round"/>
<path d="M37.0391 230.408L41.888 222.876" stroke="#2855AF" stroke-width="0.5" stroke-linecap="round" stroke-linejoin="round"/>
<path d="M35.229 224.388L30.6445 220.408" stroke="#2855AF" stroke-width="0.5" stroke-linecap="round" stroke-linejoin="round"/>
<path d="M37.8203 268.419C37.8203 268.419 41.9262 262.209 46.1706 255.95" stroke="#2855AF" stroke-width="0.5" stroke-linecap="round" stroke-linejoin="round"/>
<path d="M37.494 258.67C32.7649 254.269 27.5996 250.361 22.0781 247.008" stroke="#2855AF" stroke-width="0.5" stroke-linecap="round" stroke-linejoin="round"/>
<path d="M54.168 305.245C55.2737 298.201 57.3949 291.353 60.4653 284.917" stroke="#2855AF" stroke-width="0.5" stroke-linecap="round" stroke-linejoin="round"/>
<path d="M55.2529 311.858C52.1602 308.468 48.7899 305.342 45.1772 302.512C40.1393 298.86 39.4844 298.406 39.4844 298.406" stroke="#2855AF" stroke-width="0.5" stroke-linecap="round" stroke-linejoin="round"/>
<path d="M60.7305 343.911C60.8916 339.876 61.3589 335.86 62.1285 331.896C62.9827 328.174 64.1454 324.53 65.6046 321.001" stroke="#2855AF" stroke-width="0.5" stroke-linecap="round" stroke-linejoin="round"/>
<path d="M75.128 364.679C73.6005 361.428 72.9658 357.829 73.2892 354.251C74.0071 348.898 74.5487 342.034 74.788 339.301" stroke="#2855AF" stroke-width="0.5" stroke-linecap="round" stroke-linejoin="round"/>
<path d="M14.271 293.532C14.271 293.532 12.7975 290.925 14.3844 285.195C15.9713 279.464 17.13 276.063 17.13 276.063C17.13 276.063 22.3568 281.026 21.0343 286.605C19.9932 290.588 18.6197 294.477 16.9285 298.23L14.271 293.532Z" fill="#7CCCDB"/>
<path d="M28.8023 306.883C28.8023 306.883 27.3287 304.263 28.9156 298.545C30.5025 292.827 31.6613 289.401 31.6613 289.401C31.6613 289.401 36.888 294.376 35.5656 299.943C34.5258 303.931 33.1523 307.823 31.4597 311.581L28.8023 306.883Z" fill="#7CCCDB"/>
<path d="M17.0154 297.89C17.0154 297.89 15.2773 295.459 9.45858 294.49C3.63985 293.52 0 293.129 0 293.129C0 293.129 2.31741 299.968 7.92203 301.114C11.9753 301.848 16.083 302.24 20.2018 302.286L17.0154 297.89Z" fill="#7CCCDB"/>
<path d="M34.3195 313.52C34.3195 313.52 32.3295 311.278 26.3974 310.925C20.4654 310.573 16.8633 310.573 16.8633 310.573C16.8633 310.573 19.8734 317.122 25.5788 317.676C29.6853 317.975 33.8094 317.933 37.9089 317.55L34.3195 313.52Z" fill="#7CCCDB"/>
<path d="M44.9994 335.183C44.9994 335.183 43.5258 332.576 37.7952 330.989C32.0647 329.402 28.5508 328.646 28.5508 328.646C28.5508 328.646 30.1251 335.687 35.5786 337.462C39.5268 338.64 43.5672 339.482 47.6569 339.981L44.9994 335.183Z" fill="#7CCCDB"/>
<path d="M47.9608 340.271C47.9608 340.271 46.1346 337.903 46.8902 332.009C47.6459 326.115 48.3134 322.576 48.3134 322.576C48.3134 322.576 54.1951 326.745 53.6662 332.45C53.2039 336.54 52.3992 340.585 51.2606 344.541L47.9608 340.271Z" fill="#7CCCDB"/>
<path d="M63.791 359.919C63.791 359.919 63.1109 357.009 66.3099 351.959C69.509 346.909 71.5241 343.961 71.5241 343.961C71.5241 343.961 75.1388 350.259 72.2924 355.183C70.1758 358.713 67.7659 362.058 65.0883 365.183L63.791 359.919Z" fill="#7CCCDB"/>
<path d="M60.1643 353.42C60.1643 353.42 58.6908 350.8 52.9602 349.226C47.2296 347.652 43.7031 346.883 43.7031 346.883C43.7031 346.883 45.2775 353.911 50.7435 355.7C54.6935 356.87 58.7333 357.712 62.8218 358.218L60.1643 353.42Z" fill="#7CCCDB"/>
<path d="M65.5175 368.559C65.5175 368.559 64.7492 365.662 59.6106 362.677C54.472 359.692 51.2604 358.067 51.2604 358.067C51.2604 358.067 50.9959 365.272 55.8322 368.332C59.3636 370.452 63.0669 372.272 66.9029 373.773L65.5175 368.559Z" fill="#7CCCDB"/>
<path d="M13.5625 293.104C15.2833 295.726 17.1502 298.249 19.1545 300.661C24.8221 307.311 31.1572 310.082 36.4218 316.001C41.6863 321.921 42.442 332.953 48.4623 340.976C54.4825 348.999 60.5657 351.908 62.8705 358.231C65.1754 364.553 68.9915 383.068 68.9915 383.068" stroke="#2855AF" stroke-width="0.5" stroke-linecap="round" stroke-linejoin="round"/>
<path d="M18.0369 299.615L12.3945 298.822" stroke="#2855AF" stroke-width="0.5" stroke-linecap="round" stroke-linejoin="round"/>
<path d="M15.8837 296.24L15.8711 292.374" stroke="#2855AF" stroke-width="0.5" stroke-linecap="round" stroke-linejoin="round"/>
<path d="M36.0189 315.787C36.0189 315.787 31.3211 315.183 26.5352 314.628" stroke="#2855AF" stroke-width="0.5" stroke-linecap="round" stroke-linejoin="round"/>
<path d="M31.4609 311.581C31.3057 307.471 31.5715 303.356 32.2544 299.301" stroke="#2855AF" stroke-width="0.5" stroke-linecap="round" stroke-linejoin="round"/>
<path d="M46.9791 338.974C43.1341 336.568 38.9592 334.735 34.5859 333.533" stroke="#2855AF" stroke-width="0.5" stroke-linecap="round" stroke-linejoin="round"/>
<path d="M49.6868 342.274C49.3548 339.347 49.2663 336.398 49.4224 333.457C49.7372 329.528 49.8128 329.011 49.8128 329.011" stroke="#2855AF" stroke-width="0.5" stroke-linecap="round" stroke-linejoin="round"/>
<path d="M64.3828 363.093C65.239 360.621 66.3138 358.232 67.5945 355.951C68.468 354.66 69.2347 353.299 69.8867 351.883" stroke="#2855AF" stroke-width="0.5" stroke-linecap="round" stroke-linejoin="round"/>
<path d="M62.8727 358.206C60.8851 356.61 58.78 355.166 56.5754 353.886C54.4255 352.748 52.1842 351.791 49.875 351.027" stroke="#2855AF" stroke-width="0.5" stroke-linecap="round" stroke-linejoin="round"/>
<path d="M66.9034 373.773C65.9695 371.686 64.4956 369.886 62.6338 368.559C59.7622 366.682 56.2357 364.075 54.8125 363.067" stroke="#2855AF" stroke-width="0.5" stroke-linecap="round" stroke-linejoin="round"/>
<path d="M248.947 0.618408H81.8031C71.7032 0.618408 63.5156 8.80596 63.5156 18.9058V379.894C63.5156 389.993 71.7032 398.181 81.8031 398.181H248.947C259.046 398.181 267.234 389.993 267.234 379.894V18.9058C267.234 8.80596 259.046 0.618408 248.947 0.618408Z" fill="#2855AF"/>
<path opacity="0.2" d="M81.0856 0.618408C76.4223 0.618365 71.9488 2.46569 68.6442 5.7561C65.3396 9.04652 63.4731 13.512 63.4531 18.1754V380.624C63.4533 383.192 64.0174 385.729 65.1055 388.056C66.1937 390.382 67.7793 392.441 69.7504 394.088L188.606 0.618408H81.0856Z" fill="white"/>
<path d="M172.307 386.732C172.307 385.362 171.901 384.023 171.14 382.884C170.379 381.745 169.297 380.857 168.031 380.333C166.765 379.808 165.372 379.671 164.029 379.939C162.685 380.206 161.451 380.866 160.482 381.834C159.513 382.803 158.854 384.037 158.586 385.381C158.319 386.725 158.456 388.118 158.98 389.383C159.505 390.649 160.393 391.731 161.532 392.492C162.671 393.253 164.01 393.66 165.38 393.66C167.217 393.66 168.979 392.93 170.278 391.631C171.577 390.332 172.307 388.57 172.307 386.732V386.732Z" stroke="white" stroke-linecap="round" stroke-linejoin="round"/>
<path d="M248.947 0.618408H81.8031C71.7032 0.618408 63.5156 8.80596 63.5156 18.9058V379.894C63.5156 389.993 71.7032 398.181 81.8031 398.181H248.947C259.046 398.181 267.234 389.993 267.234 379.894V18.9058C267.234 8.80596 259.046 0.618408 248.947 0.618408Z" stroke="#2855AF" stroke-linecap="round" stroke-linejoin="round"/>
<path d="M258.193 27.6086H72.5859V374.579H258.193V27.6086Z" fill="white" stroke="#2855AF" stroke-linecap="round" stroke-linejoin="round"/>
<path d="M241.761 393.469C241.59 393.305 241.443 393.119 241.325 392.914L240.186 391.241C239.196 389.775 237.86 387.627 236.226 384.953C232.939 379.607 228.622 372.082 223.978 363.695C219.334 355.309 215.067 347.754 211.928 342.338L208.096 335.941C207.69 335.248 207.353 334.674 207.106 334.199C206.971 334 206.864 333.783 206.789 333.555C206.954 333.727 207.101 333.916 207.225 334.12C207.532 334.575 207.908 335.11 208.354 335.793C209.344 337.248 210.69 339.397 212.314 342.07C215.601 347.427 219.908 354.942 224.562 363.339C229.216 371.735 233.473 379.28 236.612 384.686L240.385 391.082L241.375 392.835C241.53 393.029 241.66 393.242 241.761 393.469Z" fill="#E0E0E0"/>
<path d="M160.31 320.218H86V374H160.31V320.218Z" fill="#F5F5F5"/>
<path d="M151.538 362.735C145.489 354.289 132.646 348.506 122.21 350.061C113.755 351.318 106.269 355.249 102.17 363.645C101.895 364.193 101.757 364.8 101.766 365.413C101.776 366.026 101.933 366.627 102.224 367.167C102.516 367.706 102.933 368.167 103.441 368.511C103.948 368.854 104.531 369.07 105.14 369.141C119.229 370.823 133.471 370.776 147.548 369.002C149.716 368.725 152.301 368.121 152.449 365.438C152.463 364.459 152.142 363.505 151.538 362.735Z" fill="#7CCCDB"/>
<g opacity="0.5">
<path opacity="0.5" d="M151.536 362.735C145.487 354.289 132.644 348.506 122.208 350.061C113.753 351.318 106.267 355.249 102.168 363.645" fill="white"/>
</g>
<path d="M118.13 362.309C118.08 362.309 117.645 361.922 117.07 361.13C116.303 360.083 115.758 358.89 115.466 357.625C115.219 356.367 115.113 355.085 115.15 353.803C115.105 353.275 115.149 352.743 115.278 352.229C115.443 352.734 115.523 353.262 115.516 353.793C115.583 355.04 115.731 356.28 115.962 357.506C116.256 358.712 116.73 359.867 117.368 360.932C117.679 361.357 117.935 361.819 118.13 362.309Z" fill="#F5F5F5"/>
<path d="M127.09 361.903C126.941 361.903 127.159 359.507 126.842 356.596C126.526 353.685 125.852 351.397 125.981 351.348C127.436 354.666 127.824 358.355 127.09 361.903Z" fill="#F5F5F5"/>
<path d="M136.36 360.526C136.212 360.467 136.915 358.873 137.083 356.774C137.251 354.675 136.865 352.982 137.014 352.942C137.512 354.168 137.712 355.494 137.598 356.813C137.485 358.131 137.061 359.404 136.36 360.526Z" fill="#F5F5F5"/>
<g opacity="0.3">
<path opacity="0.3" d="M125.445 350.457L125.525 350.605L125.445 350.457Z" fill="#2855AF"/>
</g>
<path d="M161.171 80H86V192.688H161.171V80Z" fill="#F5F5F5"/>
<path d="M161.171 201.183H86V313.871H161.171V201.183Z" fill="#F5F5F5"/>
<path d="M243.503 179.905H168.332V285.117H243.503V179.905Z" fill="#F5F5F5"/>
<path d="M242.886 292.514H167.715V374H242.886V292.514Z" fill="#F5F5F5"/>
<path d="M243.503 80H168.332V173.073H243.503V80Z" fill="#F5F5F5"/>
<path d="M135.4 113.695V144.933C135.4 146.3 134.301 147.716 132.281 148.785C129.574 150.056 126.607 150.673 123.617 150.587H123.568C116.191 150.587 111.785 147.676 111.785 144.933V113.635C111.785 110.585 114.033 107.407 116.29 104.258C117.805 102.159 118.172 99.1394 118.271 97.3275C118.271 97.1196 118.271 96.9314 118.271 96.7532H118.063C117.63 96.786 117.201 96.6462 116.871 96.3642C116.541 96.0822 116.336 95.681 116.3 95.2482V93.9313C116.333 93.496 116.537 93.0913 116.867 92.8056C117.197 92.52 117.627 92.3765 118.063 92.4065H129.142C129.471 92.3971 129.796 92.4779 130.083 92.6403C130.369 92.8026 130.605 93.0402 130.766 93.3273C130.857 93.5156 130.905 93.7221 130.905 93.9313V95.2482C130.867 95.68 130.661 96.0797 130.331 96.3611C130.002 96.6426 129.575 96.7834 129.142 96.7532H128.885C128.885 96.9314 128.885 97.1196 128.885 97.3275C128.954 99.1097 129.321 102.13 130.865 104.258C133.123 107.407 135.36 110.585 135.37 113.635L135.4 113.695Z" fill="#FAFAFA"/>
<path d="M135.397 113.694V113.378C135.37 113.065 135.327 112.755 135.268 112.447C135.003 111.266 134.562 110.131 133.961 109.08C132.995 107.409 131.927 105.799 130.763 104.258C129.4 102.008 128.713 99.4129 128.782 96.7828V96.6046H128.881C129.272 96.6637 129.67 96.5759 129.999 96.3582C130.328 96.1406 130.565 95.8085 130.664 95.4263C130.664 95.0303 130.664 94.5451 130.664 94.0996C130.688 93.8952 130.659 93.6881 130.581 93.4976C130.503 93.3071 130.378 93.1395 130.218 93.0104C129.88 92.7386 129.453 92.6011 129.02 92.6242H124.555H118.178C117.93 92.6023 117.679 92.6333 117.444 92.7152C117.208 92.7972 116.993 92.9281 116.812 93.0995C116.647 93.272 116.537 93.4889 116.495 93.7233C116.479 93.9937 116.479 94.2648 116.495 94.5352C116.495 94.8125 116.495 95.1392 116.495 95.3669C116.526 95.6086 116.634 95.834 116.802 96.0105C116.986 96.1964 117.21 96.3384 117.457 96.4258C117.704 96.5132 117.967 96.5439 118.228 96.5155H118.455V96.763C118.444 98.0411 118.304 99.3148 118.039 100.565C117.782 101.878 117.275 103.128 116.544 104.248C114.879 106.367 113.504 108.697 112.455 111.179C112.232 111.82 112.085 112.485 112.019 113.16C112.019 113.823 112.019 114.556 112.019 115.259V119.556C112.019 122.46 112.019 125.404 112.019 128.388C112.019 133.636 112.019 138.765 112.019 143.715C111.989 144.311 112.016 144.908 112.099 145.498C112.242 146.051 112.525 146.559 112.92 146.973C113.726 147.829 114.705 148.504 115.792 148.953C117.932 149.811 120.209 150.278 122.515 150.33C124.71 150.444 126.91 150.247 129.05 149.745C131.07 149.346 132.924 148.353 134.377 146.894C134.688 146.535 134.924 146.118 135.07 145.666C135.181 145.206 135.221 144.732 135.189 144.26V141.389C135.189 139.507 135.189 137.705 135.189 135.982C135.189 129.121 135.248 123.566 135.268 119.685C135.268 117.784 135.268 116.298 135.268 115.249C135.268 114.199 135.317 113.704 135.317 113.704C135.369 114.217 135.389 114.733 135.377 115.249C135.377 116.298 135.377 117.784 135.426 119.685C135.426 123.566 135.426 129.121 135.506 135.982C135.506 137.705 135.506 139.507 135.506 141.389V144.26C135.543 144.771 135.503 145.286 135.387 145.785C135.225 146.294 134.963 146.766 134.614 147.171C133.109 148.699 131.176 149.735 129.07 150.141C126.889 150.666 124.646 150.876 122.406 150.765C120.03 150.719 117.681 150.243 115.475 149.359C114.322 148.897 113.281 148.191 112.425 147.29C111.977 146.812 111.653 146.23 111.485 145.597C111.389 144.968 111.356 144.331 111.386 143.696C111.386 138.745 111.386 133.616 111.386 128.368C111.386 125.378 111.386 122.434 111.386 119.536V115.239C111.386 114.516 111.386 113.843 111.386 113.1C111.45 112.385 111.603 111.679 111.841 111.001C112.907 108.477 114.309 106.109 116.01 103.961C117.285 101.778 117.923 99.2807 117.851 96.7531L118.089 96.9908C117.764 97.0184 117.438 96.9731 117.133 96.8584C116.828 96.7436 116.552 96.5622 116.327 96.3274C116.096 96.0814 115.947 95.7701 115.901 95.4363C115.901 95.0897 115.901 94.8422 115.901 94.5451C115.882 94.2517 115.882 93.9573 115.901 93.6639C115.959 93.3385 116.115 93.0383 116.346 92.8025C116.567 92.5867 116.832 92.4203 117.122 92.3145C117.412 92.2086 117.722 92.1657 118.03 92.1886H124.406H128.872C129.393 92.1733 129.902 92.3454 130.307 92.6738C130.505 92.8416 130.66 93.0538 130.76 93.293C130.859 93.5322 130.901 93.7916 130.882 94.0501C130.882 94.5154 130.882 94.9313 130.882 95.4263C130.773 95.8916 130.494 96.2996 130.1 96.5706C129.707 96.8416 129.226 96.9561 128.753 96.8918L128.921 96.7234C128.826 99.2937 129.473 101.837 130.783 104.05C131.932 105.614 132.984 107.248 133.931 108.942C134.523 110.013 134.938 111.174 135.159 112.378C135.21 112.689 135.24 113.003 135.248 113.318C135.321 113.433 135.372 113.561 135.397 113.694Z" fill="#2855AF"/>
<path d="M128.3 96.7136C125.008 97.0597 121.69 97.0597 118.398 96.7136C121.69 96.3676 125.008 96.3676 128.3 96.7136Z" fill="#2855AF"/>
<path d="M134.408 117.863C133.878 117.604 133.291 117.482 132.701 117.508C132.111 117.534 131.537 117.707 131.032 118.011C130.02 118.627 128.927 119.097 127.784 119.408C126.39 119.537 124.993 119.187 123.823 118.417C122.656 117.656 121.428 116.994 120.15 116.437C118.882 116.006 117.517 115.939 116.213 116.246C114.909 116.552 113.717 117.219 112.773 118.17V144.904C112.773 144.904 114.249 149.468 124.606 148.755C134.962 148.042 134.141 143.468 134.141 143.468L134.408 117.863Z" fill="#7CCCDB"/>
<path d="M214.442 330.466V361.447C214.442 362.814 213.353 364.21 211.333 365.279C208.647 366.548 205.698 367.162 202.729 367.071C195.392 367.071 191.016 364.17 191.016 361.447V330.505C191.016 330.505 191.016 330.505 191.016 330.436C191.016 327.406 193.253 324.248 195.491 321.129C197.006 319.04 197.362 316.03 197.471 314.267C197.471 314.059 197.471 313.871 197.471 313.703H197.204C196.773 313.733 196.347 313.592 196.019 313.31C195.691 313.028 195.487 312.629 195.451 312.198V310.891C195.484 310.459 195.687 310.058 196.016 309.775C196.345 309.493 196.772 309.353 197.204 309.386H208.214C208.541 309.375 208.864 309.454 209.149 309.615C209.434 309.776 209.669 310.011 209.828 310.297C209.915 310.483 209.959 310.686 209.957 310.891V312.198C209.924 312.628 209.722 313.028 209.396 313.309C209.069 313.591 208.645 313.733 208.214 313.703H208.006C208.006 313.871 208.006 314.059 208.006 314.267C208.076 316.03 208.432 319.04 209.937 321.129C212.185 324.248 214.403 327.406 214.423 330.436C214.452 330.426 214.442 330.446 214.442 330.466Z" fill="#FAFAFA"/>
<path d="M214.439 330.466C214.446 330.36 214.446 330.254 214.439 330.149C214.418 329.837 214.378 329.526 214.32 329.218C214.056 328.048 213.619 326.923 213.023 325.881C212.065 324.217 211 322.616 209.835 321.089C208.478 318.854 207.791 316.277 207.855 313.663V313.475H208.023C208.411 313.533 208.806 313.445 209.132 313.227C209.458 313.009 209.691 312.677 209.786 312.297C209.786 311.911 209.786 311.425 209.786 310.98C209.804 310.777 209.773 310.573 209.696 310.385C209.618 310.197 209.496 310.031 209.34 309.901C209.003 309.634 208.581 309.496 208.152 309.514H203.716H197.379C197.132 309.493 196.884 309.524 196.65 309.606C196.416 309.688 196.202 309.819 196.023 309.99C195.856 310.161 195.746 310.378 195.706 310.613C195.69 310.881 195.69 311.148 195.706 311.415C195.706 311.683 195.706 312.01 195.706 312.237C195.737 312.479 195.845 312.704 196.013 312.881C196.195 313.063 196.416 313.203 196.659 313.288C196.903 313.374 197.162 313.404 197.419 313.376H197.656V313.623C197.645 314.892 197.505 316.156 197.241 317.396C196.987 318.698 196.482 319.939 195.755 321.05C194.097 323.167 192.731 325.498 191.696 327.981C191.47 328.62 191.327 329.285 191.27 329.961C191.27 330.614 191.27 331.347 191.27 332.04C191.27 333.446 191.27 334.872 191.27 336.317V345.07C191.27 350.288 191.27 355.388 191.27 360.309C191.24 360.897 191.266 361.487 191.349 362.071C191.495 362.624 191.778 363.131 192.171 363.546C192.972 364.399 193.944 365.074 195.023 365.527C197.138 366.358 199.384 366.807 201.657 366.853C203.838 366.967 206.025 366.771 208.152 366.269C210.159 365.879 212.002 364.892 213.439 363.437C213.75 363.082 213.986 362.668 214.132 362.22C214.24 361.762 214.276 361.292 214.241 360.823C214.241 359.833 214.241 358.903 214.241 357.972C214.241 356.1 214.241 354.318 214.241 352.605C214.241 345.783 214.301 340.258 214.32 336.407C214.32 334.515 214.32 333.04 214.37 332.01C214.419 330.981 214.37 330.476 214.37 330.476C214.429 330.985 214.449 331.498 214.429 332.01C214.429 333.001 214.429 334.515 214.429 336.407C214.429 340.258 214.479 345.783 214.518 352.605C214.518 354.318 214.518 356.1 214.518 357.972C214.518 358.903 214.518 359.853 214.518 360.823C214.557 361.332 214.514 361.844 214.39 362.338C214.23 362.844 213.971 363.311 213.627 363.715C212.134 365.238 210.215 366.273 208.122 366.685C205.955 367.209 203.725 367.419 201.498 367.309C199.149 367.26 196.828 366.787 194.646 365.913C193.553 365.443 192.569 364.752 191.755 363.883C191.311 363.407 190.992 362.829 190.824 362.2C190.729 361.578 190.696 360.947 190.725 360.318V332.02C190.725 331.307 190.725 330.634 190.725 329.901C190.791 329.186 190.944 328.481 191.181 327.802C192.239 325.299 193.631 322.951 195.32 320.822C196.581 318.651 197.216 316.173 197.151 313.663L197.379 313.891C197.058 313.917 196.736 313.873 196.435 313.76C196.133 313.647 195.861 313.468 195.637 313.237C195.405 312.993 195.259 312.68 195.221 312.346C195.221 312.01 195.221 311.762 195.221 311.465C195.201 311.172 195.201 310.877 195.221 310.584C195.283 310.263 195.438 309.967 195.666 309.732C195.886 309.518 196.149 309.352 196.437 309.246C196.726 309.141 197.033 309.097 197.34 309.118H203.676H208.112C208.631 309.101 209.138 309.273 209.538 309.604C209.735 309.77 209.889 309.98 209.989 310.218C210.089 310.455 210.131 310.713 210.112 310.97C210.112 311.435 210.112 311.851 210.112 312.336C209.992 312.793 209.712 313.192 209.324 313.461C208.935 313.729 208.463 313.85 207.993 313.802L208.162 313.633C208.07 316.182 208.709 318.704 210.003 320.901C211.153 322.45 212.199 324.074 213.132 325.763C213.722 326.828 214.137 327.981 214.36 329.179C214.413 329.486 214.44 329.797 214.439 330.109C214.469 330.357 214.459 330.466 214.439 330.466Z" fill="#2855AF"/>
<path d="M207.392 313.584C204.134 313.927 200.848 313.927 197.59 313.584C200.848 313.241 204.134 313.241 207.392 313.584Z" fill="#2855AF"/>
<path d="M213.459 334.605C212.933 334.344 212.35 334.22 211.763 334.244C211.176 334.268 210.605 334.44 210.102 334.743C209.1 335.356 208.017 335.826 206.884 336.139C205.49 336.264 204.095 335.916 202.924 335.149C201.765 334.386 200.543 333.723 199.27 333.169C198.011 332.742 196.657 332.679 195.363 332.985C194.069 333.292 192.888 333.956 191.953 334.902V361.497C191.953 361.497 193.409 366.042 203.696 365.329C213.984 364.616 213.182 360.071 213.182 360.071L213.459 334.605Z" fill="#7CCCDB"/>
<g opacity="0.5">
<path opacity="0.5" d="M213.459 334.605C212.933 334.344 212.35 334.22 211.763 334.244C211.176 334.268 210.605 334.44 210.102 334.743C209.1 335.356 208.017 335.826 206.884 336.139C205.49 336.264 204.095 335.916 202.924 335.149C201.765 334.386 200.543 333.723 199.27 333.169C198.011 332.742 196.657 332.679 195.363 332.985C194.069 333.292 192.888 333.956 191.953 334.902V361.497C191.953 361.497 193.409 366.042 203.696 365.329C213.984 364.616 213.182 360.071 213.182 360.071L213.459 334.605Z" fill="white"/>
</g>
<path d="M230.559 217.877C230.221 217.739 229.853 217.688 229.489 217.73C229.126 217.771 228.779 217.904 228.48 218.115C228.332 218.214 228.173 218.333 228.025 218.451C222.998 222.168 216.888 224.127 210.638 224.026C198.469 224.026 188.389 217.204 186.587 208.293V206.609C186.602 206.441 186.582 206.271 186.528 206.111C186.474 205.95 186.388 205.803 186.273 205.678C186.159 205.553 186.02 205.453 185.866 205.385C185.711 205.317 185.543 205.282 185.374 205.282C185.205 205.282 185.038 205.317 184.883 205.385C184.728 205.453 184.589 205.553 184.475 205.678C184.361 205.803 184.274 205.95 184.22 206.111C184.166 206.271 184.146 206.441 184.161 206.609V211.322C184.169 211.434 184.192 211.544 184.231 211.649C183.394 213.498 182.952 215.501 182.934 217.531C182.934 227.818 193.825 236.175 207.301 236.175C218.598 236.175 228.094 230.303 230.866 222.313C230.9 222.278 230.921 222.233 230.926 222.184C231.246 221.547 231.425 220.848 231.45 220.135C231.524 219.713 231.48 219.279 231.323 218.88C231.165 218.482 230.901 218.135 230.559 217.877Z" fill="#7CCCDB"/>
<g opacity="0.3">
<path opacity="0.3" d="M185.676 212.887C185.676 212.887 197.152 239.284 228.252 220.808C228.252 220.808 220.242 229.125 209.796 231.145C200.33 232.957 186.309 227.62 185.676 212.887Z" fill="#2855AF"/>
</g>
<path d="M231.41 219.204C231.222 219.659 230.48 219.788 229.757 219.481C229.034 219.174 228.598 218.55 228.767 218.095C228.935 217.64 229.697 217.521 230.42 217.828C231.143 218.135 231.608 218.748 231.41 219.204Z" fill="#2855AF"/>
<path d="M126.089 239.531C126.382 237.633 126.298 235.695 125.839 233.829C125.38 231.964 124.557 230.207 123.417 228.661C122.277 227.115 120.842 225.809 119.195 224.82C117.548 223.831 115.722 223.177 113.821 222.897C113.611 222.815 113.382 222.797 113.162 222.847C112.942 222.896 112.743 223.01 112.588 223.174C112.434 223.338 112.332 223.545 112.296 223.767C112.26 223.989 112.291 224.217 112.385 224.422C112.732 228.124 114.243 231.621 116.702 234.41C119.16 237.2 122.44 239.138 126.069 239.947" fill="#2855AF"/>
<path d="M105.683 266.414C109.357 273.988 114.595 279.088 121.179 279.335C122.486 279.335 123.476 278.523 124.724 278.444C125.453 278.61 126.157 278.876 126.813 279.236C127.162 279.384 127.534 279.467 127.912 279.484C134.665 279.117 140.427 274.365 144.309 266.414C149.705 255.275 148.042 243.314 140.586 239.68C139.605 239.191 138.58 238.793 137.526 238.492C136.322 238.155 135.073 238.009 133.823 238.056C130.915 238.241 128.054 238.886 125.347 239.967L124.981 240.106C118.921 237.422 114.09 237.413 109.386 239.68C101.931 243.314 100.277 255.275 105.683 266.414Z" fill="#7CCCDB"/>
<path d="M105.813 255.136C105.464 254.438 105.255 253.677 105.199 252.898C104.978 251.014 105.205 249.105 105.863 247.326C106.52 245.546 107.589 243.948 108.982 242.66C109.525 242.099 110.179 241.657 110.903 241.363C110.952 241.432 110.209 241.917 109.229 242.918C107.966 244.225 106.988 245.779 106.356 247.484C105.723 249.188 105.451 251.004 105.556 252.819C105.655 254.255 105.902 255.106 105.813 255.136Z" fill="#FAFAFA"/>
<path d="M107.181 260.423C107.042 260.423 106.804 259.928 106.646 259.255C106.488 258.582 106.478 257.997 106.646 257.958C106.814 257.918 107.022 258.453 107.181 259.136C107.339 259.819 107.319 260.394 107.181 260.423Z" fill="#FAFAFA"/>
<path d="M141.509 221.303C141.509 221.402 140.103 221.936 138.003 223.194C136.779 223.936 135.611 224.767 134.508 225.679C133.189 226.821 131.97 228.073 130.865 229.422C129.75 230.785 128.756 232.243 127.894 233.779C127.216 235.037 126.634 236.344 126.151 237.69C125.33 240.006 125.092 241.512 124.993 241.492C124.986 241.132 125.026 240.772 125.112 240.422C125.165 240.005 125.248 239.591 125.359 239.185C125.48 238.643 125.629 238.107 125.805 237.581C126.241 236.19 126.801 234.841 127.478 233.551C129.144 230.382 131.435 227.583 134.211 225.323C135.335 224.41 136.534 223.596 137.795 222.887C138.28 222.609 138.779 222.357 139.291 222.134C139.667 221.947 140.054 221.782 140.449 221.639C140.788 221.486 141.143 221.373 141.509 221.303Z" fill="#2855AF"/>
<path d="M233.205 117.685C227.155 109.249 214.313 103.466 203.877 105.021C195.421 106.278 187.936 110.209 183.837 118.606C183.564 119.154 183.427 119.76 183.438 120.372C183.449 120.984 183.606 121.585 183.897 122.123C184.188 122.662 184.605 123.123 185.111 123.467C185.617 123.811 186.199 124.028 186.807 124.101C200.896 125.783 215.137 125.736 229.215 123.962C231.393 123.685 233.967 123.081 234.116 120.398C234.129 119.416 233.808 118.459 233.205 117.685Z" fill="#7CCCDB"/>
<path d="M199.798 117.269C199.749 117.269 199.313 116.883 198.739 116.091C197.974 115.042 197.428 113.85 197.135 112.586C196.887 111.327 196.781 110.045 196.818 108.764C196.78 108.232 196.824 107.698 196.947 107.179C197.114 107.684 197.195 108.213 197.184 108.744C197.255 109.993 197.407 111.237 197.64 112.467C197.925 113.676 198.399 114.832 199.046 115.893C199.354 116.317 199.607 116.78 199.798 117.269Z" fill="#2855AF"/>
<path d="M208.766 116.853C208.607 116.853 208.825 114.457 208.518 111.546C208.211 108.635 207.528 106.348 207.657 106.298C208.457 107.918 208.922 109.683 209.023 111.486C209.294 113.275 209.207 115.099 208.766 116.853Z" fill="#2855AF"/>
<path d="M217.995 115.487C217.856 115.427 218.549 113.823 218.718 111.724C218.886 109.625 218.5 107.932 218.648 107.902C219.146 109.128 219.346 110.455 219.233 111.773C219.119 113.091 218.695 114.364 217.995 115.487Z" fill="#2855AF"/>
<g opacity="0.3">
<path opacity="0.3" d="M207.105 105.457L207.185 105.605L207.105 105.457Z" fill="#2855AF"/>
</g>
<g opacity="0.3">
<path opacity="0.3" d="M207.192 105.565C206.268 107.26 205.913 109.207 206.181 111.118C206.448 113.03 207.324 114.804 208.678 116.18C209.554 112.582 209.022 108.785 207.192 105.565Z" fill="#2855AF"/>
</g>
<g opacity="0.3">
<path opacity="0.3" d="M198.578 115.784C197.618 114.042 197.044 112.113 196.895 110.13C196.906 109.254 196.779 108.382 196.519 107.546C195.478 108.841 194.965 110.482 195.083 112.14C195.224 113.882 196.042 115.499 197.36 116.645C197.558 116.829 197.795 116.965 198.054 117.041C198.184 117.073 198.321 117.064 198.447 117.017C198.572 116.969 198.68 116.884 198.757 116.774C198.935 116.467 198.757 116.091 198.578 115.784Z" fill="#2855AF"/>
</g>
<g opacity="0.3">
<path opacity="0.3" d="M218.837 108.684C218.802 108.338 218.702 108.002 218.54 107.694C218.457 107.545 218.332 107.422 218.181 107.341C218.03 107.26 217.859 107.225 217.688 107.239C217.223 107.318 216.995 107.843 216.857 108.298C216.078 110.252 215.842 112.38 216.173 114.457C216.282 114.922 216.589 115.447 217.074 115.447C217.56 115.447 217.688 115.051 217.857 114.724C218.806 112.863 219.149 110.751 218.837 108.684Z" fill="#2855AF"/>
</g>
<path d="M103.615 172.083V173.014H102.932V172.093C102.201 172.075 101.492 171.833 100.902 171.4L101.269 170.568C101.755 170.925 102.331 171.141 102.932 171.192V169.539C102.011 169.311 101.021 169.014 101.021 167.855C101.021 167.014 101.635 166.271 102.932 166.152V165.162H103.615V166.083C104.209 166.112 104.787 166.285 105.299 166.588L104.952 167.43C104.543 167.189 104.087 167.037 103.615 166.984V168.657C104.536 168.875 105.536 169.172 105.536 170.321C105.536 171.222 104.912 171.945 103.615 172.083ZM102.932 168.529V167.053C102.348 167.142 102.091 167.449 102.091 167.806C102.091 168.162 102.447 168.39 102.932 168.529ZM104.477 170.449C104.477 170.043 104.11 169.845 103.615 169.707V171.172C104.219 171.083 104.477 170.806 104.477 170.449Z" fill="#2855AF"/>
<path d="M110.495 166.211V172.014H109.415V167.112H108.188V166.211H110.495Z" fill="#2855AF"/>
<path d="M112.971 171.38C112.957 171.631 112.893 171.877 112.782 172.103L112.357 173.271H111.683L112.02 171.994C111.9 171.945 111.798 171.859 111.729 171.749C111.659 171.639 111.626 171.51 111.634 171.38C111.622 171.285 111.631 171.189 111.659 171.098C111.688 171.007 111.735 170.924 111.798 170.852C111.861 170.781 111.939 170.724 112.026 170.685C112.113 170.645 112.207 170.625 112.302 170.625C112.398 170.625 112.492 170.645 112.579 170.685C112.666 170.724 112.743 170.781 112.806 170.852C112.869 170.924 112.917 171.007 112.945 171.098C112.973 171.189 112.982 171.285 112.971 171.38Z" fill="#2855AF"/>
<path d="M117.893 170.231C117.893 171.222 117.161 172.103 115.596 172.103C114.817 172.115 114.054 171.879 113.418 171.429L113.873 170.588C114.364 170.966 114.967 171.168 115.586 171.162C116.349 171.162 116.814 170.825 116.814 170.271C116.814 169.717 116.448 169.37 115.25 169.37H113.854L114.151 166.211H117.557V167.112H115.022L114.893 168.459H115.448C117.21 168.459 117.893 169.202 117.893 170.231Z" fill="#2855AF"/>
<path d="M118.516 169.113C118.516 167.202 119.565 166.142 120.941 166.142C122.318 166.142 123.367 167.221 123.367 169.113C123.367 171.004 122.328 172.083 120.941 172.083C119.555 172.083 118.516 171.023 118.516 169.113ZM122.288 169.113C122.288 167.707 121.734 167.063 120.941 167.063C120.149 167.063 119.605 167.707 119.605 169.113C119.605 170.519 120.149 171.162 120.941 171.162C121.734 171.162 122.288 170.509 122.288 169.113Z" fill="#2855AF"/>
<path d="M147.37 179.41C147.37 179.559 136.726 179.667 123.607 179.667C110.488 179.667 99.8438 179.559 99.8438 179.41C99.8438 179.262 110.488 179.153 123.607 179.153C136.726 179.153 147.37 179.271 147.37 179.41Z" fill="#2855AF"/>
<path d="M121.953 183.282C121.953 183.43 117.003 183.539 110.913 183.539C104.824 183.539 99.8633 183.43 99.8633 183.282C99.8633 183.133 104.814 183.024 110.913 183.024C117.013 183.024 121.953 183.143 121.953 183.282Z" fill="#2855AF"/>
<path d="M186.956 148.339V149.27H186.312V148.349C185.6 148.319 184.912 148.082 184.332 147.666L184.698 146.825C185.181 147.191 185.758 147.411 186.362 147.458V145.795C185.441 145.577 184.451 145.27 184.451 144.121C184.451 143.28 185.065 142.537 186.362 142.409V141.478H187.045V142.399C187.64 142.42 188.22 142.593 188.728 142.904L188.382 143.735C187.972 143.495 187.517 143.343 187.045 143.29V144.963C187.966 145.191 188.966 145.478 188.966 146.636C188.877 147.478 188.293 148.211 186.956 148.339ZM186.273 144.795V143.319C185.679 143.409 185.431 143.706 185.431 144.072C185.431 144.438 185.788 144.656 186.312 144.795H186.273ZM187.817 146.706C187.817 146.3 187.451 146.112 186.956 145.973V147.438C187.56 147.349 187.817 147.042 187.817 146.706Z" fill="#2855AF"/>
<path d="M196.032 147.369V148.28H191.745V147.557L194.052 145.369C194.617 144.825 194.716 144.488 194.716 144.161C194.716 143.636 194.349 143.329 193.636 143.329C193.379 143.316 193.121 143.363 192.886 143.468C192.65 143.573 192.442 143.733 192.28 143.933L191.527 143.349C191.791 143.024 192.127 142.764 192.508 142.592C192.89 142.42 193.307 142.34 193.725 142.359C194.993 142.359 195.805 142.993 195.805 144.023C195.793 144.384 195.698 144.737 195.526 145.055C195.354 145.373 195.111 145.647 194.815 145.854L193.26 147.339L196.032 147.369Z" fill="#2855AF"/>
<path d="M198.066 147.646C198.05 147.894 197.986 148.136 197.878 148.359L197.452 149.528H196.779L197.115 148.26C196.994 148.211 196.891 148.126 196.82 148.016C196.749 147.906 196.714 147.777 196.719 147.646C196.719 147.468 196.79 147.297 196.916 147.17C197.043 147.044 197.214 146.973 197.393 146.973C197.571 146.973 197.742 147.044 197.869 147.17C197.995 147.297 198.066 147.468 198.066 147.646Z" fill="#2855AF"/>
<path d="M203.056 147.369V148.28H198.769V147.557L201.076 145.369C201.64 144.824 201.739 144.488 201.739 144.161C201.739 143.636 201.373 143.329 200.66 143.329C200.402 143.316 200.145 143.363 199.909 143.468C199.673 143.573 199.466 143.733 199.303 143.933L198.551 143.349C198.815 143.022 199.153 142.762 199.536 142.59C199.92 142.418 200.339 142.339 200.759 142.359C202.016 142.359 202.828 142.993 202.828 144.022C202.817 144.384 202.721 144.737 202.549 145.055C202.378 145.373 202.134 145.647 201.838 145.854L200.284 147.339L203.056 147.369Z" fill="#2855AF"/>
<path d="M207.897 146.498C207.897 147.488 207.165 148.359 205.6 148.359C204.82 148.376 204.056 148.14 203.422 147.686L203.877 146.854C204.366 147.227 204.966 147.426 205.58 147.419C206.353 147.419 206.808 147.082 206.808 146.537C206.808 145.993 206.452 145.627 205.254 145.627H203.848L204.155 142.468H207.561V143.379H205.066L204.937 144.716H205.491C207.214 144.716 207.897 145.468 207.897 146.498Z" fill="#2855AF"/>
<path d="M230.71 155.676C230.71 155.815 220.066 155.934 206.947 155.934C193.828 155.934 183.184 155.815 183.184 155.676C183.184 155.538 193.837 155.419 206.947 155.419C220.056 155.419 230.71 155.538 230.71 155.676Z" fill="#2855AF"/>
<path d="M205.313 159.548C205.313 159.687 200.362 159.805 194.263 159.805C188.163 159.805 183.223 159.687 183.223 159.548C183.223 159.409 188.173 159.291 194.263 159.291C200.352 159.291 205.313 159.409 205.313 159.548Z" fill="#2855AF"/>
<path d="M101.713 292.593V293.524H101.03V292.593C100.299 292.573 99.5909 292.331 99 291.9L99.3763 291.068C99.8566 291.43 100.43 291.646 101.03 291.692V290.038C100.109 289.811 99.1287 289.514 99.1287 288.365C99.1287 287.514 99.7426 286.781 101.03 286.652V285.711H101.713V286.652C102.307 286.681 102.885 286.854 103.396 287.157L103.06 287.999C102.646 287.759 102.188 287.608 101.713 287.553V289.226C102.634 289.454 103.634 289.741 103.634 290.89C103.634 291.722 103.02 292.454 101.713 292.593ZM101.03 289.038V287.563C100.446 287.662 100.198 287.959 100.198 288.325C100.198 288.692 100.555 288.89 101.03 289.028V289.038ZM102.574 290.959C102.574 290.553 102.208 290.365 101.713 290.217V291.692C102.317 291.603 102.574 291.306 102.574 290.949V290.959Z" fill="#2855AF"/>
<path d="M106.586 289.623C106.586 287.712 107.635 286.652 109.012 286.652C110.388 286.652 111.438 287.721 111.438 289.623C111.438 291.524 110.398 292.593 109.012 292.593C107.626 292.593 106.586 291.524 106.586 289.623ZM110.358 289.623C110.358 288.226 109.804 287.573 109.012 287.573C108.22 287.573 107.675 288.226 107.675 289.623C107.675 291.019 108.22 291.672 109.012 291.672C109.804 291.672 110.358 291.019 110.358 289.623Z" fill="#2855AF"/>
<path d="M113.396 291.89C113.381 292.138 113.317 292.38 113.208 292.603L112.782 293.771H112.119L112.446 292.504C112.327 292.452 112.227 292.366 112.158 292.257C112.089 292.147 112.055 292.019 112.06 291.89C112.048 291.795 112.057 291.7 112.085 291.609C112.113 291.518 112.161 291.434 112.224 291.362C112.287 291.291 112.365 291.234 112.452 291.195C112.538 291.156 112.633 291.135 112.728 291.135C112.823 291.135 112.917 291.156 113.004 291.195C113.091 291.234 113.169 291.291 113.232 291.362C113.295 291.434 113.343 291.518 113.371 291.609C113.399 291.7 113.408 291.795 113.396 291.89Z" fill="#2855AF"/>
<path d="M118.319 290.732C118.319 291.722 117.586 292.603 116.022 292.603C115.242 292.62 114.478 292.383 113.844 291.93L114.299 291.088C114.787 291.465 115.386 291.667 116.002 291.662C116.775 291.662 117.23 291.326 117.23 290.771C117.23 290.217 116.874 289.87 115.676 289.87H114.27L114.576 286.712H117.992V287.642H115.497L115.369 288.989H115.923C117.636 288.959 118.319 289.702 118.319 290.732Z" fill="#2855AF"/>
<path d="M118.98 289.623C118.98 287.712 120.03 286.652 121.406 286.652C122.783 286.652 123.832 287.721 123.832 289.623C123.832 291.524 122.793 292.593 121.406 292.593C120.02 292.593 118.98 291.524 118.98 289.623ZM122.753 289.623C122.753 288.226 122.198 287.573 121.406 287.573C120.614 287.573 120.07 288.226 120.07 289.623C120.07 291.019 120.614 291.672 121.406 291.672C122.198 291.672 122.713 291.019 122.713 289.623H122.753Z" fill="#2855AF"/>
<path d="M145.476 299.92C145.476 300.059 134.822 300.177 121.713 300.177C108.603 300.177 97.9492 300.059 97.9492 299.92C97.9492 299.781 108.593 299.663 121.713 299.663C134.832 299.663 145.476 299.771 145.476 299.92Z" fill="#2855AF"/>
<path d="M120.072 303.791C120.072 303.93 115.122 304.049 109.032 304.049C102.943 304.049 97.9922 303.93 97.9922 303.791C97.9922 303.653 102.943 303.534 109.032 303.534C115.122 303.534 120.072 303.643 120.072 303.791Z" fill="#2855AF"/>
<path d="M183.092 261.166V262.097H182.419V261.176C181.684 261.157 180.973 260.915 180.379 260.483L180.755 259.651C181.239 260.014 181.816 260.23 182.419 260.275V258.621C181.498 258.394 180.508 258.097 180.508 256.948C180.508 256.096 181.122 255.364 182.419 255.235V254.294H183.092V255.215C183.686 255.244 184.263 255.417 184.775 255.72L184.438 256.562C184.026 256.321 183.567 256.169 183.092 256.116V257.79C184.013 258.017 185.013 258.304 185.013 259.453C185.013 260.305 184.399 261.037 183.092 261.166ZM182.419 257.611V256.136C181.825 256.235 181.577 256.532 181.577 256.899C181.577 257.265 181.933 257.473 182.419 257.611ZM183.953 259.532C183.953 259.126 183.587 258.938 183.092 258.79V260.265C183.696 260.166 183.953 259.918 183.953 259.532Z" fill="#2855AF"/>
<path d="M189.975 255.294V261.097H188.896V256.195H187.668V255.294H189.975Z" fill="#2855AF"/>
<path d="M192.46 260.473C192.445 260.72 192.381 260.963 192.272 261.186L191.846 262.354H191.173L191.5 261.087C191.381 261.035 191.281 260.949 191.212 260.839C191.143 260.73 191.109 260.602 191.114 260.473C191.114 260.294 191.185 260.123 191.311 259.997C191.437 259.87 191.608 259.8 191.787 259.8C191.966 259.8 192.137 259.87 192.263 259.997C192.389 260.123 192.46 260.294 192.46 260.473Z" fill="#2855AF"/>
<path d="M193.055 258.196C193.055 256.285 194.104 255.225 195.481 255.225C196.857 255.225 197.906 256.294 197.906 258.196C197.906 260.097 196.916 261.166 195.481 261.166C194.045 261.166 193.055 260.106 193.055 258.196ZM196.827 258.196C196.827 256.799 196.273 256.146 195.481 256.146C194.688 256.146 194.144 256.799 194.144 258.196C194.144 259.592 194.688 260.245 195.481 260.245C196.273 260.245 196.827 259.602 196.827 258.196Z" fill="#2855AF"/>
<path d="M198.637 258.196C198.637 256.285 199.686 255.225 201.063 255.225C202.439 255.225 203.488 256.294 203.488 258.196C203.488 260.097 202.449 261.166 201.063 261.166C199.676 261.166 198.637 260.106 198.637 258.196ZM202.409 258.196C202.409 256.799 201.855 256.146 201.063 256.146C200.27 256.146 199.726 256.799 199.726 258.196C199.726 259.592 200.27 260.245 201.063 260.245C201.855 260.245 202.409 259.602 202.409 258.196Z" fill="#2855AF"/>
<path d="M226.906 268.503C226.906 268.642 216.252 268.76 203.142 268.76C190.033 268.76 179.379 268.642 179.379 268.503C179.379 268.364 190.023 268.236 203.142 268.236C216.262 268.236 226.906 268.354 226.906 268.503Z" fill="#2855AF"/>
<path d="M201.451 272.374C201.451 272.513 196.501 272.632 190.411 272.632C184.322 272.632 179.371 272.513 179.371 272.374C179.371 272.236 184.322 272.107 190.411 272.107C196.501 272.107 201.451 272.226 201.451 272.374Z" fill="#2855AF"/>
<path d="M251.867 31.2109H236.477V39.6493H251.867V31.2109Z" stroke="#2855AF" stroke-width="0.821067" stroke-linecap="round" stroke-linejoin="round"/>
<path d="M248.479 31.2109H236.477V39.6493H248.479V31.2109Z" fill="#2855AF" stroke="#2855AF" stroke-width="0.725073" stroke-linecap="round" stroke-linejoin="round"/>
<path d="M253.998 33.5786H251.832V37.294H253.998V33.5786Z" fill="#2855AF" stroke="#2855AF" stroke-width="0.725073" stroke-linecap="round" stroke-linejoin="round"/>
<path d="M79.5751 33.8306H76.7539V38.6669H79.5751V33.8306Z" fill="#2855AF" stroke="#2855AF" stroke-width="0.883086" stroke-linecap="round" stroke-linejoin="round"/>
<path d="M84.0087 32.1301H81.1875V38.6668H84.0087V32.1301Z" fill="#2855AF" stroke="#2855AF" stroke-width="0.883086" stroke-linecap="round" stroke-linejoin="round"/>
<path d="M88.454 30.1277H85.6328V38.6669H88.454V30.1277Z" fill="#2855AF" stroke="#2855AF" stroke-width="0.883086" stroke-linecap="round" stroke-linejoin="round"/>
<path d="M218.492 305.522H112.256C109.48 305.522 107.23 307.772 107.23 310.548V332.399C107.23 335.175 109.48 337.424 112.256 337.424H218.492C221.267 337.424 223.517 335.175 223.517 332.399V310.548C223.517 307.772 221.267 305.522 218.492 305.522Z" fill="#7CCCDB" stroke="#2855AF" stroke-linecap="round" stroke-linejoin="round"/>
<path d="M128.517 324.339H119.902C119.647 324.337 119.398 324.258 119.189 324.112C118.98 323.965 118.82 323.759 118.731 323.52L115.708 315.409H111.93V312.89H116.552C116.807 312.892 117.056 312.971 117.265 313.117C117.474 313.263 117.634 313.47 117.723 313.709L120.796 321.82H127.736L130.482 315.787L133.001 315.976L129.638 323.596C129.54 323.813 129.383 323.998 129.185 324.129C128.986 324.261 128.755 324.333 128.517 324.339Z" fill="#2855AF"/>
<path d="M122.989 327.072C122.991 327.379 122.902 327.68 122.733 327.937C122.564 328.194 122.322 328.394 122.038 328.513C121.755 328.632 121.442 328.664 121.141 328.604C120.839 328.545 120.562 328.397 120.344 328.18C120.127 327.962 119.979 327.685 119.92 327.383C119.86 327.082 119.892 326.769 120.011 326.486C120.13 326.202 120.33 325.96 120.587 325.791C120.844 325.622 121.145 325.533 121.452 325.535C121.86 325.535 122.251 325.697 122.539 325.985C122.827 326.273 122.989 326.664 122.989 327.072Z" fill="#2855AF"/>
<path d="M123.882 319.427C123.882 319.731 123.792 320.028 123.623 320.28C123.454 320.533 123.214 320.73 122.933 320.846C122.652 320.963 122.343 320.993 122.045 320.934C121.747 320.874 121.474 320.728 121.259 320.513C121.044 320.298 120.897 320.025 120.838 319.726C120.779 319.428 120.809 319.119 120.926 318.839C121.042 318.558 121.239 318.318 121.491 318.149C121.744 317.98 122.041 317.89 122.345 317.89C122.752 317.893 123.141 318.056 123.428 318.344C123.715 318.631 123.878 319.02 123.882 319.427Z" fill="#2855AF"/>
<path d="M127.811 319.427C127.811 319.731 127.721 320.028 127.552 320.28C127.384 320.533 127.144 320.73 126.863 320.846C126.582 320.963 126.273 320.993 125.975 320.934C125.677 320.874 125.403 320.728 125.188 320.513C124.973 320.298 124.827 320.025 124.768 319.726C124.709 319.428 124.739 319.119 124.855 318.839C124.972 318.558 125.168 318.318 125.421 318.149C125.674 317.98 125.971 317.89 126.275 317.89C126.477 317.89 126.676 317.93 126.863 318.007C127.049 318.084 127.219 318.198 127.361 318.34C127.504 318.483 127.617 318.652 127.694 318.839C127.772 319.025 127.811 319.225 127.811 319.427Z" fill="#2855AF"/>
<path d="M122.722 315.825C122.722 316.129 122.631 316.426 122.463 316.678C122.294 316.931 122.054 317.128 121.773 317.244C121.492 317.36 121.183 317.391 120.885 317.332C120.587 317.272 120.313 317.126 120.098 316.911C119.884 316.696 119.737 316.422 119.678 316.124C119.619 315.826 119.649 315.517 119.765 315.237C119.882 314.956 120.079 314.716 120.331 314.547C120.584 314.378 120.881 314.288 121.185 314.288C121.591 314.291 121.98 314.454 122.268 314.742C122.555 315.029 122.718 315.418 122.722 315.825Z" fill="#2855AF"/>
<path d="M126.176 315.825C126.179 316.132 126.09 316.432 125.921 316.689C125.753 316.945 125.512 317.146 125.229 317.265C124.946 317.384 124.634 317.416 124.333 317.358C124.031 317.3 123.754 317.153 123.536 316.937C123.318 316.721 123.17 316.445 123.109 316.144C123.048 315.843 123.078 315.531 123.195 315.247C123.312 314.964 123.51 314.721 123.765 314.55C124.02 314.379 124.32 314.288 124.627 314.288C125.036 314.288 125.428 314.45 125.718 314.737C126.008 315.025 126.173 315.416 126.176 315.825Z" fill="#2855AF"/>
<path d="M129.561 315.825C129.561 316.129 129.471 316.426 129.302 316.678C129.134 316.931 128.894 317.128 128.613 317.244C128.332 317.36 128.023 317.391 127.725 317.332C127.427 317.272 127.153 317.126 126.938 316.911C126.723 316.696 126.577 316.422 126.518 316.124C126.459 315.826 126.489 315.517 126.605 315.237C126.722 314.956 126.918 314.716 127.171 314.547C127.424 314.378 127.721 314.288 128.025 314.288C128.227 314.288 128.426 314.328 128.613 314.405C128.799 314.482 128.969 314.595 129.111 314.738C129.254 314.881 129.367 315.05 129.444 315.237C129.522 315.423 129.561 315.623 129.561 315.825Z" fill="#2855AF"/>
<path d="M128.214 327.072C128.214 327.376 128.124 327.673 127.955 327.925C127.786 328.178 127.546 328.375 127.265 328.491C126.984 328.608 126.675 328.638 126.377 328.579C126.079 328.519 125.806 328.373 125.591 328.158C125.376 327.943 125.229 327.67 125.17 327.371C125.111 327.073 125.141 326.764 125.258 326.484C125.374 326.203 125.571 325.963 125.824 325.794C126.076 325.625 126.373 325.535 126.677 325.535C127.085 325.535 127.476 325.697 127.764 325.985C128.052 326.273 128.214 326.664 128.214 327.072Z" fill="#2855AF"/>
<path d="M147.99 324.351H143.657L143.04 325.976C142.982 326.179 142.858 326.356 142.688 326.48C142.534 326.591 142.348 326.649 142.159 326.644C141.919 326.644 141.687 326.559 141.504 326.404C141.415 326.328 141.344 326.233 141.296 326.127C141.248 326.02 141.225 325.904 141.227 325.787C141.229 325.667 141.251 325.548 141.29 325.434L144.275 317.978C144.389 317.582 144.617 317.228 144.93 316.958C145.199 316.793 145.508 316.706 145.824 316.706C146.139 316.706 146.449 316.793 146.718 316.958C147.026 317.231 147.253 317.584 147.373 317.978L150.358 325.434C150.397 325.548 150.418 325.667 150.421 325.787C150.421 325.905 150.394 326.021 150.344 326.128C150.294 326.234 150.222 326.329 150.131 326.404C149.951 326.564 149.717 326.649 149.476 326.644C149.287 326.645 149.102 326.588 148.947 326.48C148.784 326.349 148.662 326.174 148.595 325.976L147.99 324.351ZM145.824 318.558L144.149 323.041H147.499L145.824 318.558Z" fill="#2855AF"/>
<path d="M152.697 326.278C152.243 325.965 151.889 325.528 151.677 325.019C151.444 324.447 151.328 323.835 151.337 323.218C151.29 322.306 151.581 321.409 152.156 320.699C152.435 320.393 152.779 320.152 153.162 319.993C153.545 319.834 153.958 319.761 154.372 319.779C154.794 319.749 155.216 319.833 155.593 320.024C155.97 320.215 156.288 320.505 156.513 320.862V317.789C156.505 317.666 156.522 317.542 156.564 317.425C156.605 317.308 156.669 317.201 156.753 317.109C156.835 317.028 156.934 316.964 157.042 316.923C157.151 316.882 157.267 316.864 157.382 316.87C157.494 316.866 157.605 316.886 157.709 316.927C157.813 316.968 157.908 317.03 157.987 317.109C158.147 317.299 158.228 317.542 158.214 317.789V325.699C158.23 325.956 158.144 326.209 157.974 326.404C157.896 326.489 157.801 326.557 157.694 326.602C157.588 326.648 157.473 326.671 157.357 326.669C157.131 326.68 156.91 326.603 156.74 326.454C156.665 326.369 156.607 326.269 156.57 326.161C156.534 326.053 156.519 325.939 156.526 325.825V325.585C156.3 325.975 155.968 326.292 155.569 326.499C155.17 326.706 154.72 326.796 154.272 326.757C153.709 326.767 153.158 326.599 152.697 326.278ZM156.098 325.019C156.411 324.486 156.556 323.872 156.513 323.255C156.519 322.862 156.46 322.47 156.337 322.097C156.228 321.766 156.022 321.476 155.745 321.265C155.456 321.035 155.094 320.919 154.725 320.938C154.445 320.933 154.168 320.998 153.919 321.127C153.698 321.257 153.515 321.444 153.39 321.668C153.264 321.898 153.171 322.144 153.113 322.399C153.045 322.675 153.011 322.958 153.012 323.243C153.016 323.518 153.045 323.792 153.1 324.061C153.166 324.321 153.254 324.574 153.365 324.817C153.494 325.062 153.688 325.267 153.926 325.409C154.163 325.551 154.435 325.625 154.712 325.623C154.976 325.649 155.241 325.607 155.484 325.501C155.726 325.395 155.938 325.229 156.098 325.019Z" fill="#2855AF"/>
<path d="M161.049 326.278C160.595 325.965 160.241 325.528 160.029 325.019C159.795 324.447 159.68 323.835 159.689 323.218C159.64 322.303 159.937 321.404 160.52 320.699C160.797 320.392 161.138 320.151 161.519 319.992C161.9 319.833 162.312 319.76 162.724 319.779C163.146 319.747 163.568 319.831 163.946 320.022C164.323 320.213 164.641 320.504 164.865 320.862V317.789C164.855 317.54 164.94 317.297 165.104 317.109C165.187 317.028 165.285 316.964 165.394 316.923C165.502 316.882 165.618 316.864 165.734 316.87C165.846 316.865 165.958 316.884 166.062 316.925C166.166 316.966 166.261 317.029 166.339 317.109C166.503 317.297 166.589 317.54 166.578 317.789V325.699C166.59 325.958 166.5 326.211 166.326 326.404C166.248 326.489 166.152 326.557 166.046 326.602C165.939 326.648 165.825 326.671 165.709 326.669C165.487 326.679 165.27 326.603 165.104 326.454C165.024 326.371 164.963 326.272 164.924 326.164C164.885 326.055 164.869 325.94 164.878 325.825V325.585C164.652 325.975 164.32 326.292 163.921 326.499C163.522 326.706 163.071 326.796 162.623 326.757C162.061 326.767 161.51 326.599 161.049 326.278ZM164.449 325.019C164.763 324.486 164.908 323.872 164.865 323.255C164.871 322.862 164.811 322.47 164.689 322.097C164.58 321.77 164.379 321.481 164.109 321.265C163.815 321.036 163.449 320.92 163.077 320.938C162.796 320.933 162.519 320.998 162.271 321.127C162.049 321.257 161.867 321.444 161.742 321.668C161.616 321.898 161.523 322.144 161.465 322.399C161.397 322.675 161.363 322.958 161.364 323.243C161.368 323.518 161.397 323.792 161.452 324.061C161.516 324.323 161.609 324.576 161.729 324.817C161.839 325.062 162.025 325.265 162.258 325.396C162.498 325.552 162.779 325.631 163.064 325.623C163.323 325.645 163.584 325.601 163.822 325.495C164.059 325.389 164.267 325.225 164.424 325.019H164.449Z" fill="#2855AF"/>
<path d="M173.266 326.102C172.899 325.648 172.715 325.073 172.749 324.49V320.976H172.094C172.011 320.984 171.928 320.973 171.849 320.945C171.771 320.916 171.7 320.871 171.641 320.812C171.54 320.697 171.484 320.549 171.484 320.396C171.484 320.243 171.54 320.096 171.641 319.981C171.7 319.926 171.77 319.885 171.846 319.859C171.921 319.833 172.002 319.823 172.082 319.83H172.8L173.001 318.155C173.016 317.931 173.105 317.718 173.253 317.55C173.327 317.468 173.419 317.404 173.522 317.362C173.624 317.321 173.735 317.303 173.845 317.311C173.933 317.307 174.021 317.323 174.101 317.358C174.182 317.393 174.254 317.446 174.311 317.512C174.43 317.686 174.488 317.894 174.475 318.104V319.83H175.571C175.65 319.823 175.729 319.834 175.803 319.863C175.877 319.891 175.944 319.936 175.999 319.993C176.051 320.051 176.091 320.119 176.117 320.192C176.143 320.266 176.154 320.344 176.15 320.422C176.153 320.496 176.141 320.569 176.115 320.638C176.089 320.708 176.05 320.771 175.999 320.825C175.939 320.878 175.869 320.918 175.794 320.944C175.718 320.97 175.638 320.981 175.558 320.976H174.475V324.061C174.453 324.393 174.509 324.725 174.639 325.031C174.691 325.138 174.775 325.226 174.878 325.284C174.981 325.343 175.1 325.369 175.218 325.359H175.709C175.795 325.358 175.88 325.375 175.958 325.41C176.036 325.444 176.106 325.496 176.162 325.56C176.264 325.684 176.318 325.841 176.314 326.001C176.334 326.097 176.334 326.195 176.314 326.291C176.28 326.373 176.217 326.44 176.137 326.48C176.065 326.534 175.984 326.576 175.898 326.606C175.79 326.623 175.679 326.623 175.571 326.606H175.218H174.676C174.158 326.629 173.652 326.448 173.266 326.102Z" fill="#2855AF"/>
<path d="M179.172 326.391C178.744 326.226 178.363 325.958 178.063 325.611C177.79 325.279 177.573 324.904 177.421 324.502C177.284 324.096 177.211 323.671 177.207 323.243C177.208 322.886 177.255 322.53 177.346 322.185C177.434 321.85 177.574 321.532 177.761 321.24C178.159 320.63 178.762 320.183 179.461 319.981C179.869 319.855 180.294 319.792 180.721 319.792C181.147 319.786 181.572 319.845 181.98 319.968C182.34 320.081 182.676 320.256 182.975 320.485C183.254 320.697 183.493 320.957 183.681 321.253C183.878 321.546 184.027 321.87 184.122 322.21C184.213 322.564 184.26 322.928 184.26 323.293C184.258 323.642 184.212 323.989 184.122 324.326C184.031 324.66 183.89 324.978 183.706 325.271C183.52 325.568 183.286 325.832 183.013 326.051C182.71 326.285 182.37 326.464 182.006 326.58C181.598 326.706 181.173 326.77 180.746 326.769C180.201 326.75 179.666 326.622 179.172 326.391ZM182.144 324.918C182.457 324.399 182.623 323.805 182.623 323.199C182.623 322.593 182.457 321.998 182.144 321.48C181.971 321.288 181.759 321.134 181.522 321.03C181.286 320.925 181.03 320.87 180.771 320.87C180.513 320.87 180.257 320.925 180.02 321.03C179.784 321.134 179.572 321.288 179.399 321.48C179.043 321.987 178.87 322.599 178.907 323.218C178.872 323.828 179.045 324.432 179.399 324.931C179.573 325.121 179.785 325.272 180.022 325.376C180.258 325.48 180.513 325.534 180.771 325.534C181.029 325.534 181.285 325.48 181.521 325.376C181.757 325.272 181.97 325.121 182.144 324.931V324.918Z" fill="#2855AF"/>
<path d="M191.768 326.165C191.057 325.743 190.48 325.127 190.106 324.389C189.69 323.562 189.482 322.645 189.501 321.719C189.488 320.98 189.612 320.246 189.866 319.553C190.082 318.941 190.426 318.383 190.874 317.915C191.309 317.471 191.833 317.124 192.411 316.895C193.019 316.65 193.669 316.526 194.325 316.53C195.202 316.541 196.065 316.756 196.844 317.16C196.982 317.219 197.1 317.317 197.183 317.442C197.265 317.568 197.31 317.715 197.31 317.865C197.308 318.069 197.232 318.266 197.096 318.419C197.03 318.495 196.949 318.555 196.858 318.597C196.766 318.638 196.667 318.659 196.567 318.658C196.479 318.675 196.39 318.675 196.302 318.658L196.05 318.558L195.723 318.419L195.37 318.293C195.218 318.25 195.062 318.221 194.904 318.205C194.732 318.192 194.56 318.192 194.388 318.205C193.991 318.181 193.595 318.248 193.228 318.401C192.861 318.554 192.534 318.788 192.272 319.087C191.782 319.882 191.522 320.797 191.522 321.731C191.522 322.666 191.782 323.581 192.272 324.376C192.538 324.686 192.872 324.929 193.248 325.089C193.624 325.248 194.031 325.319 194.438 325.296C195.149 325.268 195.841 325.065 196.453 324.704C196.579 324.634 196.725 324.61 196.865 324.638C197.006 324.666 197.132 324.743 197.222 324.855C197.344 325.004 197.411 325.191 197.411 325.384C197.412 325.522 197.378 325.658 197.312 325.78C197.246 325.901 197.15 326.003 197.033 326.077C196.165 326.627 195.151 326.903 194.123 326.87C193.289 326.853 192.475 326.609 191.768 326.165Z" fill="#2855AF"/>
<path d="M199.161 326.165C198.945 325.998 198.774 325.781 198.66 325.533C198.546 325.286 198.493 325.014 198.506 324.742C198.502 324.5 198.527 324.259 198.581 324.024C198.633 323.832 198.714 323.65 198.821 323.482C198.933 323.325 199.079 323.196 199.249 323.104C199.438 323.002 199.636 322.918 199.841 322.852C200.101 322.781 200.366 322.73 200.634 322.701C200.949 322.701 201.277 322.638 201.604 322.626H202.788V322.097C202.802 321.929 202.783 321.76 202.731 321.6C202.679 321.44 202.596 321.292 202.486 321.165C202.233 320.953 201.907 320.849 201.579 320.875H201.352H201.075H200.836L200.597 320.938L200.382 321.001L200.156 321.064L199.979 321.14H199.79L199.639 321.203C199.577 321.218 199.512 321.218 199.45 321.203C199.373 321.2 199.297 321.181 199.227 321.146C199.157 321.111 199.096 321.062 199.047 321.001C198.94 320.874 198.882 320.714 198.884 320.548C198.879 320.446 198.905 320.346 198.959 320.26C199.013 320.175 199.092 320.108 199.186 320.069C199.975 319.707 200.836 319.526 201.705 319.54C202.083 319.537 202.46 319.584 202.826 319.679C203.139 319.774 203.433 319.923 203.695 320.119C203.959 320.337 204.163 320.619 204.287 320.938C204.431 321.32 204.5 321.726 204.488 322.135V325.586C204.495 325.7 204.478 325.815 204.439 325.923C204.4 326.032 204.34 326.131 204.262 326.215C204.106 326.364 203.898 326.446 203.682 326.442C203.577 326.443 203.473 326.424 203.376 326.385C203.279 326.346 203.19 326.289 203.115 326.215C203.033 326.133 202.969 326.035 202.928 325.926C202.887 325.818 202.869 325.701 202.876 325.586V325.359C202.725 325.701 202.481 325.993 202.171 326.203C201.79 326.427 201.353 326.536 200.911 326.518C200.305 326.601 199.688 326.477 199.161 326.165ZM202.259 325.082C202.602 324.713 202.788 324.225 202.775 323.722V323.52H201.705C201.452 323.531 201.2 323.557 200.949 323.596C200.763 323.617 200.582 323.677 200.42 323.772C200.309 323.86 200.218 323.972 200.156 324.099C200.09 324.263 200.06 324.439 200.068 324.616C200.058 324.747 200.077 324.879 200.123 325.003C200.168 325.127 200.24 325.24 200.332 325.334C200.431 325.422 200.547 325.489 200.672 325.532C200.798 325.576 200.93 325.594 201.063 325.586C201.286 325.588 201.507 325.544 201.713 325.457C201.919 325.371 202.104 325.243 202.259 325.082Z" fill="#2855AF"/>
<path d="M206.492 326.366C206.407 326.273 206.342 326.164 206.301 326.045C206.26 325.926 206.243 325.799 206.252 325.674V320.636C206.246 320.523 206.266 320.41 206.309 320.305C206.353 320.2 206.42 320.107 206.504 320.031C206.675 319.893 206.889 319.817 207.109 319.817C207.327 319.816 207.539 319.887 207.713 320.019C207.796 320.088 207.861 320.175 207.905 320.273C207.949 320.371 207.969 320.478 207.965 320.586V321.291C208.091 320.883 208.331 320.52 208.658 320.245C208.977 319.962 209.39 319.805 209.817 319.805C209.908 319.801 209.998 319.819 210.081 319.856C210.164 319.893 210.237 319.949 210.295 320.019C210.409 320.161 210.467 320.34 210.459 320.523C210.461 320.702 210.408 320.878 210.308 321.026C210.264 321.095 210.202 321.152 210.129 321.189C210.056 321.227 209.974 321.245 209.892 321.24C209.653 321.219 209.413 321.219 209.174 321.24C208.969 321.292 208.77 321.368 208.582 321.467C208.386 321.584 208.232 321.761 208.142 321.971C208.034 322.226 207.982 322.501 207.99 322.777V325.649C208.001 325.898 207.915 326.141 207.751 326.329C207.668 326.409 207.569 326.472 207.461 326.513C207.353 326.554 207.237 326.573 207.121 326.568C206.893 326.586 206.667 326.514 206.492 326.366Z" fill="#2855AF"/>
<path d="M212.547 326.102C212.174 325.651 211.989 325.073 212.03 324.49V320.976H211.426C211.343 320.981 211.26 320.969 211.182 320.941C211.104 320.913 211.033 320.869 210.972 320.812C210.92 320.754 210.88 320.687 210.854 320.613C210.828 320.54 210.817 320.462 210.821 320.384C210.818 320.31 210.83 320.236 210.856 320.167C210.882 320.098 210.922 320.035 210.972 319.981C211.031 319.927 211.101 319.885 211.177 319.859C211.253 319.833 211.333 319.823 211.413 319.83H212.118L212.333 318.155C212.342 317.93 212.431 317.715 212.584 317.55C212.657 317.47 212.747 317.407 212.847 317.365C212.947 317.324 213.056 317.305 213.164 317.311C213.252 317.304 213.341 317.318 213.422 317.354C213.503 317.389 213.574 317.443 213.63 317.512C213.759 317.681 213.822 317.892 213.806 318.104V319.83H214.889C214.97 319.824 215.051 319.835 215.127 319.864C215.203 319.892 215.273 319.936 215.33 319.993C215.382 320.051 215.422 320.119 215.448 320.192C215.474 320.266 215.485 320.344 215.481 320.422C215.484 320.496 215.472 320.569 215.446 320.638C215.42 320.708 215.381 320.771 215.33 320.825C215.27 320.878 215.2 320.919 215.125 320.944C215.049 320.97 214.969 320.981 214.889 320.976H213.806V324.062C213.788 324.392 213.839 324.722 213.957 325.031C214.011 325.137 214.095 325.224 214.198 325.282C214.301 325.34 214.419 325.367 214.537 325.359H214.612H215.103C215.187 325.356 215.271 325.372 215.348 325.407C215.424 325.442 215.491 325.495 215.544 325.56C215.655 325.68 215.714 325.838 215.708 326.001C215.728 326.097 215.728 326.195 215.708 326.291C215.674 326.373 215.611 326.44 215.532 326.48C215.459 326.534 215.378 326.576 215.292 326.606C215.184 326.624 215.073 326.624 214.965 326.606H214.612H213.945C213.69 326.618 213.435 326.579 213.195 326.493C212.956 326.407 212.735 326.274 212.547 326.102Z" fill="#2855AF"/>
<path d="M253.797 44.3469H75.5703V57.7476H253.797V44.3469Z" fill="#2855AF"/>
<path d="M176.289 45.7954H98.1641V52.332H176.289V45.7954Z" fill="white"/>
<path d="M314.134 222.121H440.408C445.836 222.121 451.042 224.277 454.88 228.115C458.718 231.953 460.875 237.159 460.875 242.587V393.723C460.875 395.042 460.35 396.308 459.417 397.24C458.484 398.173 457.219 398.698 455.9 398.698H298.643C297.323 398.698 296.058 398.173 295.125 397.24C294.192 396.308 293.668 395.042 293.668 393.723V242.587C293.668 237.159 295.824 231.953 299.662 228.115C303.501 224.277 308.706 222.121 314.134 222.121Z" fill="#2855AF" stroke="white" stroke-linecap="round" stroke-linejoin="round"/>
<path d="M300.708 220.949H426.97C429.658 220.949 432.319 221.479 434.802 222.507C437.285 223.536 439.541 225.043 441.442 226.944C443.342 228.844 444.85 231.1 445.878 233.583C446.907 236.067 447.436 238.728 447.436 241.416V392.551C447.436 393.871 446.912 395.136 445.979 396.069C445.046 397.002 443.781 397.526 442.461 397.526H285.217C283.898 397.526 282.632 397.002 281.699 396.069C280.766 395.136 280.242 393.871 280.242 392.551V241.416C280.242 238.728 280.772 236.067 281.8 233.583C282.829 231.1 284.336 228.844 286.237 226.944C288.137 225.043 290.393 223.536 292.876 222.507C295.359 221.479 298.021 220.949 300.708 220.949Z" fill="#93AAD7" stroke="white" stroke-linecap="round" stroke-linejoin="round"/>
<path d="M300.634 260.698H274.928C272.18 260.698 269.953 262.925 269.953 265.673V393.685C269.953 396.432 272.18 398.66 274.928 398.66H300.634C303.381 398.66 305.609 396.432 305.609 393.685V265.673C305.609 262.925 303.381 260.698 300.634 260.698Z" fill="#93AAD7" stroke="#2855AF" stroke-linecap="round" stroke-linejoin="round"/>
<path d="M405.85 299.288H268.48V333.772H405.85V299.288Z" fill="#93AAD7" stroke="#2855AF" stroke-linecap="round" stroke-linejoin="round"/>
<path d="M405.85 308.633H268.48V343.117H405.85V308.633Z" fill="#93AAD7" stroke="#2855AF" stroke-linecap="round" stroke-linejoin="round"/>
<path d="M276.942 260.698H251.237C248.489 260.698 246.262 262.925 246.262 265.673V393.685C246.262 396.432 248.489 398.66 251.237 398.66H276.942C279.69 398.66 281.917 396.432 281.917 393.685V265.673C281.917 262.925 279.69 260.698 276.942 260.698Z" fill="#93AAD7" stroke="#2855AF" stroke-linecap="round" stroke-linejoin="round"/>
<path d="M444.137 340.787H286.893C284.145 340.787 281.918 343.015 281.918 345.762V393.685C281.918 396.432 284.145 398.66 286.893 398.66H444.137C446.885 398.66 449.112 396.432 449.112 393.685V345.762C449.112 343.015 446.885 340.787 444.137 340.787Z" fill="#93AAD7" stroke="#2855AF" stroke-linecap="round" stroke-linejoin="round"/>
<path d="M360.482 103.731C356.398 102.996 352.188 103.465 348.366 105.078C342.434 107.774 321.917 127.749 320.657 132.547C319.398 137.346 326.035 145.218 328.466 151.956C330.897 158.694 333.58 165.419 331.967 172.699C330.355 179.979 326.035 182.12 326.035 182.12C326.035 182.12 325.771 182.397 334.121 184.815C342.471 187.233 351.905 183.467 357.295 175.923C362.686 168.379 364.298 155.457 363.492 142.258C362.686 129.059 360.482 103.731 360.482 103.731Z" fill="#2855AF" stroke="white" stroke-linecap="round" stroke-linejoin="round"/>
<path d="M390.66 282.071C385.139 281.726 379.647 281.006 374.224 279.917C364.526 278.028 332.737 260.786 325.999 259.766C321.78 259.086 315.86 257.99 311.905 259.325C307.736 257.239 303.258 255.836 298.643 255.169C298.643 255.169 282.27 254.854 280.066 265.56C277.862 276.265 282.27 321.606 283.845 341.442C285.419 361.279 292.976 388.672 290.772 397.803C288.567 406.934 283.215 410.398 283.845 411.657C284.474 412.917 294.865 411.657 299.273 409.453C303.681 407.249 304.626 400.322 304.626 396.859C304.626 393.395 303.681 388.987 306.2 386.468C308.719 383.949 311.553 382.06 309.978 377.337C308.404 372.614 300.532 368.521 300.532 368.521C299.509 356.002 300.144 343.404 302.422 331.052C305.028 317.569 306.189 303.848 305.885 290.119C305.885 280.988 305.57 272.801 305.57 272.801C305.57 272.801 317.85 296.051 328.556 303.923C339.261 311.794 362.561 309.59 362.561 309.59L362.46 309.439C372.889 309.124 389.967 308.18 392.549 300.384C395.509 291.504 390.66 282.071 390.66 282.071Z" fill="#7CCCDB" stroke="#2855AF" stroke-linecap="round" stroke-linejoin="round"/>
<path d="M300.532 368.47C299.614 357.404 300.011 346.269 301.716 335.296C296.181 338.252 289.929 339.601 283.668 339.188C283.731 339.944 283.794 340.687 283.844 341.392C285.419 361.229 292.975 388.622 290.771 397.753C288.567 406.884 283.215 410.348 283.844 411.607C284.474 412.867 294.865 411.607 299.273 409.403C303.681 407.199 304.625 400.272 304.625 396.808C304.625 393.345 303.681 388.937 306.2 386.418C308.719 383.899 311.553 382.01 309.978 377.287C308.404 372.564 300.532 368.47 300.532 368.47Z" fill="white" stroke="#2855AF" stroke-linecap="round" stroke-linejoin="round"/>
<path d="M299.271 409.403C303.679 407.199 304.624 400.272 304.624 396.808C304.624 393.345 303.679 388.937 306.198 386.418C308.717 383.899 311.551 382.01 309.977 377.287C308.402 372.564 300.531 368.47 300.531 368.47C300.531 368.47 300.329 366.644 300.191 363.433C298.024 364.843 292.634 367.929 287.596 367.35C289.888 380.309 292.042 392.262 290.732 397.715C288.528 406.846 283.175 410.31 283.805 411.569C284.435 412.829 294.863 411.607 299.271 409.403Z" fill="#7CCCDB" stroke="#2855AF" stroke-linecap="round" stroke-linejoin="round"/>
<path d="M348.09 170.268C348.176 173.026 347.718 175.773 346.742 178.354C345.13 182.661 321.969 186.704 320.886 189.4C319.802 192.095 316.843 205.559 315.231 218.493C313.618 231.428 311.188 244.942 311.188 244.942C311.188 244.942 310.105 252.751 310.923 257.335C311.742 261.92 358.065 281.265 372.07 282.663C386.075 284.061 390.66 284.275 392.008 281.58C392.73 280.339 393.189 278.963 393.355 277.537C393.643 275.7 393.362 273.819 392.549 272.146C389.4 266.491 384.992 255.773 384.992 250.055C384.992 244.337 400.106 195.369 399.539 192.12C398.972 188.871 371.831 178.921 371.831 178.921C371.831 178.921 362.939 176.755 361.591 174.336C360.244 171.918 360.244 161.137 360.244 161.137L348.09 170.268Z" fill="#6B6B6B" stroke="#2855AF" stroke-linecap="round" stroke-linejoin="round"/>
<path d="M371.804 178.921C371.804 178.921 362.912 176.755 361.565 174.336C360.217 171.918 360.217 161.137 360.217 161.137L348.088 170.294C348.174 173.051 347.716 175.799 346.741 178.379C346.111 180.08 342.081 181.755 337.383 183.304C337.698 187.586 339.259 196.856 347.018 200.735C356.564 205.508 367.068 195.974 374.121 179.777L371.804 178.921Z" fill="white" stroke="#2855AF" stroke-linecap="round" stroke-linejoin="round"/>
<path d="M351.869 196.125C359.993 196.755 365.22 183.531 367.172 177.498C364.779 176.654 362.235 175.52 361.567 174.311C360.219 171.88 360.219 161.112 360.219 161.112L348.091 170.268C348.177 173.026 347.719 175.774 346.743 178.354C346.026 179.496 344.942 180.362 343.67 180.81C343.393 183.556 342.587 195.42 351.869 196.125Z" fill="white" stroke="#2855AF" stroke-linecap="round" stroke-linejoin="round"/>
<path d="M347.021 123.391L328.695 136.099C328.695 136.099 330.043 155.218 331.932 159.802C333.821 164.387 338.129 173.266 344.867 172.46C351.605 171.654 359.414 162.22 359.414 162.22C359.414 162.22 361.832 138.215 347.021 123.391Z" fill="white" stroke="#2855AF" stroke-linecap="round" stroke-linejoin="round"/>
<path d="M332.738 146.565C333.385 147.095 334.195 147.385 335.031 147.385C335.866 147.385 336.676 147.095 337.323 146.565" fill="white"/>
<path d="M332.738 146.565C333.385 147.095 334.195 147.385 335.031 147.385C335.866 147.385 336.676 147.095 337.323 146.565" stroke="#2855AF" stroke-linecap="round" stroke-linejoin="round"/>
<path d="M344.59 146.83C344.59 146.83 348.633 148.983 349.98 146.565L344.59 146.83Z" fill="white"/>
<path d="M344.59 146.83C344.59 146.83 348.633 148.983 349.98 146.565" stroke="#2855AF" stroke-linecap="round" stroke-linejoin="round"/>
<path d="M331.664 140.633C331.664 140.633 333.818 136.59 338.125 139.827L331.664 140.633Z" fill="white"/>
<path d="M331.664 140.633C331.664 140.633 333.818 136.59 338.125 139.827" stroke="#2855AF" stroke-linecap="round" stroke-linejoin="round"/>
<path d="M343.242 140.092C343.242 140.092 346.744 137.132 349.98 141.439L343.242 140.092Z" fill="white"/>
<path d="M343.242 140.092C343.242 140.092 346.744 137.132 349.98 141.439" stroke="#2855AF" stroke-linecap="round" stroke-linejoin="round"/>
<path d="M339.199 144.676C339.199 144.676 340.018 149.525 340.018 150.873C340.018 152.22 336.781 154.915 338.67 155.986C339.557 156.577 340.571 156.948 341.63 157.069" fill="white"/>
<path d="M339.199 144.676C339.199 144.676 340.018 149.525 340.018 150.873C340.018 152.22 336.781 154.915 338.67 155.986C339.557 156.577 340.571 156.948 341.63 157.069" stroke="#2855AF" stroke-linecap="round" stroke-linejoin="round"/>
<path d="M343.781 159.764C345.314 160.048 346.897 159.73 348.202 158.876C349.506 158.022 350.431 156.698 350.784 155.18" fill="white"/>
<path d="M343.781 159.764C345.314 160.048 346.897 159.73 348.202 158.876C349.506 158.022 350.431 156.698 350.784 155.18" stroke="#2855AF" stroke-linecap="round" stroke-linejoin="round"/>
<path d="M344.59 120.986C348.798 129.88 352.138 139.159 354.565 148.694C358.066 163.241 357.789 171.855 357.26 175.898C357.069 177.072 356.53 178.162 355.712 179.027C354.895 179.891 353.837 180.49 352.676 180.747C357.506 182.536 362.641 183.362 367.789 183.178C375.346 182.636 387.726 177.523 388.797 168.064C389.868 158.606 382.6 138.429 378.835 127.119C375.069 115.809 369.401 105.028 363.482 103.403C357.562 101.779 348.116 110.406 345.421 116.074" fill="#2855AF"/>
<path d="M344.59 120.986C348.798 129.88 352.138 139.159 354.565 148.694C358.066 163.241 357.789 171.855 357.26 175.898C357.069 177.072 356.53 178.162 355.712 179.027C354.895 179.891 353.837 180.49 352.676 180.747C357.506 182.536 362.641 183.362 367.789 183.178C375.346 182.636 387.726 177.523 388.797 168.064C389.868 158.606 382.6 138.429 378.835 127.119C375.069 115.809 369.401 105.028 363.482 103.403C357.562 101.779 348.116 110.406 345.421 116.074" stroke="white" stroke-linecap="round" stroke-linejoin="round"/>
<path d="M284.21 228.04L296.149 251.454C296.298 251.745 296.521 251.993 296.795 252.171C297.068 252.35 297.384 252.455 297.711 252.474L307.699 253.053C308.008 253.069 308.316 253.007 308.595 252.874C308.874 252.741 309.116 252.54 309.299 252.291C309.481 252.041 309.599 251.749 309.64 251.443C309.682 251.136 309.647 250.824 309.537 250.534L299.588 225.924C299.442 225.564 299.188 225.258 298.861 225.048C298.534 224.838 298.15 224.735 297.761 224.753L285.809 225.357C285.499 225.37 285.197 225.459 284.931 225.618C284.664 225.776 284.441 225.999 284.283 226.265C284.124 226.532 284.034 226.834 284.021 227.144C284.008 227.453 284.073 227.762 284.21 228.04Z" fill="#2855AF" stroke="#2855AF" stroke-linecap="round" stroke-linejoin="round"/>
<path d="M286.05 247.877C286.05 247.877 284.79 251.655 286.994 253.859C289.198 256.063 294.891 257.638 297.385 255.433C299.879 253.229 292.662 251.655 290.773 249.766C289.472 248.596 287.798 247.927 286.05 247.877Z" fill="white" stroke="#2855AF" stroke-linecap="round" stroke-linejoin="round"/>
<path d="M287.936 242.839C287.936 242.839 283.213 246.617 285.102 249.451C286.992 252.285 297.067 255.434 298.012 253.544C298.956 251.655 287.936 242.839 287.936 242.839Z" fill="white" stroke="#2855AF" stroke-linecap="round" stroke-linejoin="round"/>
<path d="M289.828 237.801C289.828 237.801 286.365 241.894 286.994 244.413C287.624 246.932 298.04 256.491 297.713 252.499C297.385 248.506 290.458 241.579 290.458 241.579L289.828 237.801Z" fill="white" stroke="#2855AF" stroke-linecap="round" stroke-linejoin="round"/>
<path d="M323.152 215.785C322.22 221.68 321.401 228.38 321.968 230.609C323.038 234.929 327.887 248.935 327.887 248.935" stroke="#2855AF" stroke-linecap="round" stroke-linejoin="round"/>
<path d="M324.927 205.559C324.927 205.559 324.663 206.919 324.285 209.01" stroke="#2855AF" stroke-linecap="round" stroke-linejoin="round"/>
<path d="M376.919 294.792C376.919 294.792 355.911 271.089 340.016 260.043C324.122 248.998 300.129 241.844 297.711 252.562C295.293 263.28 293.139 302.072 287.484 323.885C281.829 345.699 267.005 378.042 262.421 384.239C257.836 390.436 245.179 402.552 242.269 404.705C239.36 406.859 235.808 409.025 237.962 410.36C240.115 411.695 248.466 413.874 253.856 411.443C259.247 409.013 265.443 404.982 268.97 404.441C272.496 403.899 275.166 403.093 275.695 397.703C276.224 392.312 275.166 384.503 276.779 380.461C278.391 376.418 295.104 348.407 302.635 340.057C310.167 331.707 313.971 323.621 316.918 311.492C319.865 299.364 319.071 284.288 319.071 284.288C319.071 284.288 327.963 305.296 349.79 308.218C371.616 311.14 377.8 307.135 377.8 307.135" fill="#7CCCDB"/>
<path d="M376.919 294.792C376.919 294.792 355.911 271.089 340.016 260.043C324.122 248.998 300.129 241.844 297.711 252.562C295.293 263.28 293.139 302.072 287.484 323.885C281.829 345.699 267.005 378.042 262.421 384.239C257.836 390.436 245.179 402.552 242.269 404.705C239.36 406.859 235.808 409.025 237.962 410.36C240.115 411.695 248.466 413.874 253.856 411.443C259.247 409.013 265.443 404.982 268.97 404.441C272.496 403.899 275.166 403.093 275.695 397.703C276.224 392.312 275.166 384.503 276.779 380.461C278.391 376.418 295.104 348.407 302.635 340.057C310.167 331.707 313.971 323.621 316.918 311.492C319.865 299.364 319.071 284.288 319.071 284.288C319.071 284.288 327.963 305.296 349.79 308.218C371.616 311.14 377.8 307.135 377.8 307.135" stroke="#2855AF" stroke-linecap="round" stroke-linejoin="round"/>
<path d="M294.335 351.09L280.595 344.906C273.983 362.425 265.657 379.806 262.421 384.176C257.849 390.372 245.179 402.488 242.269 404.642C239.36 406.796 235.808 408.962 237.962 410.297C240.115 411.632 248.466 413.811 253.856 411.38C259.247 408.95 265.443 404.919 268.97 404.378C272.496 403.836 275.166 403.03 275.695 397.64C276.224 392.249 275.166 384.44 276.779 380.397C277.849 377.526 286.64 362.513 294.335 351.09Z" fill="white" stroke="#2855AF" stroke-linecap="round" stroke-linejoin="round"/>
<path d="M277.169 379.402L267.257 375.624C265.849 378.585 264.233 381.443 262.421 384.176C257.849 390.372 245.179 402.488 242.269 404.642C239.36 406.796 235.808 408.962 237.962 410.297C240.115 411.632 248.466 413.811 253.856 411.38C259.247 408.949 265.443 404.919 268.97 404.378C272.496 403.836 275.166 403.03 275.695 397.639C276.224 392.249 275.166 384.44 276.779 380.397C276.804 380.158 276.917 379.805 277.169 379.402Z" fill="#7CCCDB" stroke="#2855AF" stroke-linecap="round" stroke-linejoin="round"/>
<path d="M321.969 245.975C319.243 244.395 316.858 242.289 314.954 239.778C311.994 235.735 306.075 235.458 305.256 235.458H303.367L304.715 237.624L290.772 240.043C290.772 240.043 288.896 240.849 291.314 243.544C293.732 246.239 295.621 251.101 299.941 253.242C304.261 255.383 315.294 255.673 315.294 255.673L319.601 256.743L321.969 245.975Z" fill="white" stroke="#2855AF" stroke-linecap="round" stroke-linejoin="round"/>
<path d="M291.25 243.544C291.25 243.544 301.212 243.809 304.449 243.28L291.25 243.544Z" fill="white"/>
<path d="M291.25 243.544C291.25 243.544 301.212 243.809 304.449 243.28" stroke="#2855AF" stroke-linecap="round" stroke-linejoin="round"/>
<path d="M293.402 245.975C293.402 245.975 300.682 249.476 306.602 248.67L293.402 245.975Z" fill="white"/>
<path d="M293.402 245.975C293.402 245.975 300.682 249.476 306.602 248.67" stroke="#2855AF" stroke-linecap="round" stroke-linejoin="round"/>
<path d="M296.098 250.282C296.098 250.282 303.654 252.977 307.949 252.171L296.098 250.282Z" fill="white"/>
<path d="M296.098 250.282C296.098 250.282 303.654 252.977 307.949 252.171" stroke="#2855AF" stroke-linecap="round" stroke-linejoin="round"/>
<path d="M382.572 199.904L368.303 247.323C368.303 247.323 345.632 249.476 337.043 248.393C331.357 247.628 325.762 246.294 320.342 244.413L318.453 256.806C318.453 256.806 324.385 258.96 334.625 261.932C344.864 264.905 374.764 271.353 378.807 268.658C382.85 265.963 385.268 255.736 385.545 254.653C385.822 253.57 397.925 211.831 399.815 205.899C401.704 199.967 402.774 195.118 399.55 192.158C397.425 190.258 395.073 188.63 392.547 187.309" fill="#6B6B6B"/>
<path d="M382.572 199.904L368.303 247.323C368.303 247.323 345.632 249.476 337.043 248.393C331.357 247.628 325.762 246.294 320.342 244.413L318.453 256.806C318.453 256.806 324.385 258.96 334.625 261.932C344.864 264.905 374.764 271.353 378.807 268.658C382.85 265.963 385.268 255.736 385.545 254.653C385.822 253.57 397.925 211.831 399.815 205.899C401.704 199.967 402.774 195.118 399.55 192.158C397.425 190.258 395.073 188.63 392.547 187.309" stroke="#2855AF" stroke-linecap="round" stroke-linejoin="round"/>
<path d="M443.544 260.698H417.838C415.091 260.698 412.863 262.925 412.863 265.673V393.685C412.863 396.432 415.091 398.66 417.838 398.66H443.544C446.291 398.66 448.519 396.432 448.519 393.685V265.673C448.519 262.925 446.291 260.698 443.544 260.698Z" fill="#2855AF" stroke="white" stroke-linecap="round" stroke-linejoin="round"/>
<path d="M417.462 260.698H391.756C389.009 260.698 386.781 262.925 386.781 265.673V393.685C386.781 396.432 389.009 398.66 391.756 398.66H417.462C420.209 398.66 422.437 396.432 422.437 393.685V265.673C422.437 262.925 420.209 260.698 417.462 260.698Z" fill="#93AAD7" stroke="#2855AF" stroke-linecap="round" stroke-linejoin="round"/>
</svg>
