<svg width="512" height="458" viewBox="0 0 512 458" fill="none" xmlns="http://www.w3.org/2000/svg">
<path d="M445.911 431.566C445.911 431.566 410.367 377.344 415.691 364.907C421.014 352.471 439.681 373.787 439.681 373.787C439.681 373.787 412.204 300.911 430.801 284.917C449.398 268.924 455.686 350.681 455.686 350.681C455.686 350.681 472.562 303.584 485.906 321.356C499.249 339.127 465.472 376.461 465.472 376.461C465.472 376.461 488.579 377.344 482.349 392.454C476.119 407.564 459.242 423.557 459.242 423.557L445.911 431.566Z" fill="#7CCCDB"/>
<path d="M436.136 419.117C436.136 419.117 414.807 388.897 425.477 382.679C436.147 376.461 441.471 395.127 441.471 395.127C441.471 395.127 442.366 313.359 459.242 319.577C476.119 325.796 469.912 375.566 469.912 375.566C469.912 375.566 491.241 361.351 490.357 381.784C489.474 402.217 461.021 420.012 461.021 420.012" stroke="#2855AF" stroke-linecap="round" stroke-linejoin="round"/>
<path d="M455.697 420.896L437.031 400.451" stroke="#2855AF" stroke-linecap="round" stroke-linejoin="round"/>
<path d="M456.58 430.67L455.697 380.017" stroke="#2855AF" stroke-linecap="round" stroke-linejoin="round"/>
<path d="M457.464 413.782L474.352 391.57" stroke="#2855AF" stroke-linecap="round" stroke-linejoin="round"/>
<path d="M472.574 415.561H425.478L430.185 457.334H467.867L472.574 415.561Z" fill="#2855AF" stroke="#2855AF" stroke-linecap="round" stroke-linejoin="round"/>
<path d="M401.964 1H178.208C173.284 1 169.293 4.99134 169.293 9.9149V448.419C169.293 453.342 173.284 457.334 178.208 457.334H401.964C406.887 457.334 410.879 453.342 410.879 448.419V9.9149C410.879 4.99134 406.887 1 401.964 1Z" fill="white" stroke="#2855AF" stroke-linecap="round" stroke-linejoin="round"/>
<path d="M314.012 26.1874H266.16C265.293 26.1874 264.463 25.8433 263.85 25.2308C263.238 24.6183 262.894 23.7876 262.894 22.9214V22.9214C262.894 22.0551 263.238 21.2244 263.85 20.6119C264.463 19.9994 265.293 19.6553 266.16 19.6553H314.012C314.878 19.6553 315.709 19.9994 316.321 20.6119C316.934 21.2244 317.278 22.0551 317.278 22.9214V22.9214C317.278 23.3503 317.193 23.775 317.029 24.1712C316.865 24.5675 316.625 24.9275 316.321 25.2308C316.018 25.5341 315.658 25.7747 315.262 25.9388C314.865 26.103 314.441 26.1874 314.012 26.1874V26.1874Z" fill="#2855AF"/>
<path d="M303.133 427.335C303.133 424.753 302.367 422.23 300.933 420.083C299.499 417.937 297.46 416.264 295.075 415.276C292.69 414.288 290.066 414.029 287.534 414.533C285.002 415.037 282.676 416.28 280.851 418.105C279.025 419.931 277.782 422.257 277.278 424.789C276.775 427.32 277.033 429.945 278.021 432.33C279.009 434.715 280.682 436.754 282.829 438.188C284.975 439.622 287.499 440.388 290.08 440.388C293.542 440.388 296.862 439.012 299.31 436.565C301.758 434.117 303.133 430.797 303.133 427.335Z" fill="white" stroke="#2855AF" stroke-width="0.704333" stroke-linecap="round" stroke-linejoin="round"/>
<path d="M296.694 420.721H283.467V433.948H296.694V420.721Z" fill="#2855AF"/>
<path d="M400.139 51.1069H180.033V407.226H400.139V51.1069Z" fill="#7CCCDB" stroke="#2855AF" stroke-linecap="round" stroke-linejoin="round"/>
<path d="M400.139 51.1069H180.033V73.9579H400.139V51.1069Z" fill="#2855AF" stroke="#2855AF" stroke-linecap="round" stroke-linejoin="round"/>
<path d="M279.654 79.5723H304.342" stroke="#2855AF" stroke-linecap="round" stroke-linejoin="round"/>
<path d="M264.033 84.105H322.985" stroke="#2855AF" stroke-linecap="round" stroke-linejoin="round"/>
<path d="M215.646 118.951C215.424 118.951 215.207 118.894 215.013 118.785C214.82 118.677 214.657 118.522 214.541 118.333C214.424 118.144 214.358 117.929 214.348 117.708C214.338 117.487 214.385 117.266 214.484 117.068L233.58 78.5376C233.686 78.3197 233.851 78.1364 234.057 78.0088C234.263 77.8812 234.501 77.8147 234.743 77.8169C234.988 77.822 235.226 77.8954 235.432 78.0289C235.637 78.1624 235.801 78.3506 235.905 78.5724L253.34 116.429C253.447 116.584 253.519 116.761 253.551 116.948C253.583 117.134 253.574 117.325 253.524 117.507C253.475 117.69 253.387 117.859 253.265 118.004C253.144 118.149 252.992 118.265 252.821 118.346C252.65 118.426 252.464 118.468 252.275 118.469C252.086 118.47 251.899 118.43 251.727 118.352C251.555 118.273 251.403 118.159 251.28 118.015C251.157 117.872 251.066 117.703 251.015 117.521L234.743 82.1407L216.866 118.172C216.762 118.407 216.59 118.607 216.373 118.745C216.156 118.883 215.903 118.955 215.646 118.951V118.951Z" fill="#2855AF"/>
<path d="M210.288 113.965H257.524L269.391 153.332C269.974 155.25 270.098 157.278 269.753 159.253C269.408 161.228 268.603 163.093 267.404 164.7C266.213 166.317 264.658 167.632 262.865 168.536C261.072 169.441 259.091 169.91 257.082 169.907H212.147C210.119 169.905 208.119 169.424 206.311 168.503C204.503 167.582 202.939 166.247 201.745 164.607L201.233 163.898C200.086 162.32 199.313 160.501 198.972 158.58C198.632 156.659 198.734 154.685 199.269 152.809L210.288 113.965Z" fill="white" stroke="#2855AF" stroke-linecap="round" stroke-linejoin="round"/>
<path d="M305.806 119.323H386.203V160.945C386.203 163.325 385.258 165.607 383.575 167.29C381.892 168.973 379.61 169.918 377.23 169.918H314.779C312.4 169.918 310.117 168.973 308.435 167.29C306.752 165.607 305.806 163.325 305.806 160.945V119.334V119.323Z" fill="white" stroke="#2855AF" stroke-linecap="round" stroke-linejoin="round"/>
<path d="M305.806 119.323L314.489 141.941C315.187 143.761 316.421 145.326 318.027 146.43C319.633 147.534 321.536 148.125 323.485 148.125H369.303C371.303 148.125 373.254 147.503 374.885 146.346C376.515 145.188 377.746 143.551 378.404 141.662L386.203 119.323" stroke="#2855AF" stroke-linecap="round" stroke-linejoin="round"/>
<path d="M356.378 144.104H338.63V151.81H356.378V144.104Z" fill="white" stroke="#2855AF" stroke-linecap="round" stroke-linejoin="round"/>
<path d="M332.935 118.986L301.111 152.146L303.121 155.168L337.63 119.648L332.935 118.986Z" fill="white" stroke="#2855AF" stroke-linecap="round" stroke-linejoin="round"/>
<path d="M247.854 177.926H219.563C216.353 177.926 213.751 180.528 213.751 183.738V185.133C213.751 188.342 216.353 190.944 219.563 190.944H247.854C251.063 190.944 253.665 188.342 253.665 185.133V183.738C253.665 180.528 251.063 177.926 247.854 177.926Z" fill="#2855AF"/>
<path d="M358.377 177.926H330.087C326.877 177.926 324.275 180.528 324.275 183.738V185.133C324.275 188.342 326.877 190.944 330.087 190.944H358.377C361.587 190.944 364.189 188.342 364.189 185.133V183.738C364.189 180.528 361.587 177.926 358.377 177.926Z" fill="#2855AF"/>
<path d="M257.303 230.765C257.011 230.763 256.728 230.664 256.498 230.483C256.269 230.302 256.106 230.049 256.036 229.765C256.036 229.545 250.783 208.6 235.01 209.657C218.575 210.75 212.717 228.905 212.659 229.091C212.555 229.422 212.324 229.698 212.017 229.859C211.71 230.02 211.351 230.053 211.02 229.951C210.857 229.901 210.705 229.819 210.574 229.71C210.443 229.6 210.335 229.466 210.256 229.315C210.177 229.164 210.129 228.998 210.115 228.828C210.1 228.658 210.119 228.487 210.172 228.324C210.172 228.115 216.599 208.274 234.836 207.066C252.77 205.903 258.512 228.929 258.57 229.149C258.644 229.479 258.585 229.824 258.407 230.111C258.229 230.398 257.945 230.603 257.617 230.684C257.518 230.729 257.412 230.757 257.303 230.765Z" fill="#2855AF"/>
<path d="M209.683 225.779C209.683 225.779 227.118 231.462 258.256 225.779L264.277 262.554C264.49 263.85 264.445 265.174 264.146 266.453C263.847 267.731 263.299 268.938 262.533 270.005L261.906 270.865C260.978 272.154 259.756 273.204 258.341 273.926C256.925 274.647 255.358 275.021 253.77 275.014H214.251C212.37 275.015 210.528 274.484 208.936 273.482C207.344 272.481 206.068 271.05 205.255 269.354V269.354C204.405 267.584 204.094 265.604 204.36 263.658L209.683 225.779Z" fill="white" stroke="#2855AF" stroke-linecap="round" stroke-linejoin="round"/>
<path d="M258.256 225.779C258.256 225.779 257.617 251.605 235.138 251.605C212.659 251.605 209.683 225.814 209.683 225.814" stroke="#2855AF" stroke-linecap="round" stroke-linejoin="round"/>
<path d="M240.833 246.212H228.768V256.591H240.833V246.212Z" stroke="#2855AF" stroke-linecap="round" stroke-linejoin="round"/>
<path d="M324.949 224.058C324.729 224.055 324.513 223.996 324.321 223.887C324.13 223.778 323.969 223.623 323.853 223.435C323.737 223.248 323.67 223.034 323.659 222.814C323.647 222.594 323.691 222.374 323.787 222.176L342.884 194.001C342.987 193.782 343.152 193.597 343.358 193.469C343.564 193.341 343.803 193.275 344.046 193.281C344.291 193.286 344.53 193.359 344.735 193.492C344.94 193.626 345.104 193.814 345.208 194.036L362.643 221.548C362.785 221.861 362.798 222.217 362.678 222.54C362.558 222.862 362.316 223.124 362.004 223.268C361.689 223.411 361.331 223.424 361.006 223.304C360.682 223.184 360.418 222.942 360.272 222.629L344 197.604L326.112 223.338C326.004 223.554 325.838 223.736 325.633 223.863C325.427 223.99 325.191 224.058 324.949 224.058V224.058Z" fill="#2855AF"/>
<path d="M319.591 219.061H366.874L378.753 258.44C379.329 260.358 379.45 262.385 379.105 264.359C378.76 266.332 377.958 268.198 376.765 269.807V269.807C375.568 271.419 374.009 272.729 372.215 273.631C370.421 274.533 368.44 275.003 366.432 275.002H321.451C319.423 275.003 317.423 274.524 315.615 273.605C313.808 272.686 312.243 271.353 311.048 269.714L310.537 269.005C309.392 267.43 308.619 265.616 308.277 263.7C307.934 261.783 308.031 259.813 308.561 257.94L319.591 219.061Z" fill="white" stroke="#2855AF" stroke-linecap="round" stroke-linejoin="round"/>
<path d="M314.837 235.821L311.606 247.212H375.3L371.872 235.821H314.837Z" fill="#2855AF"/>
<path d="M308.561 257.951C308.09 259.624 307.962 261.376 308.186 263.1C308.409 264.824 308.98 266.484 309.863 267.982H377.823C379.336 265.038 379.649 261.621 378.694 258.451L378.125 256.591H308.944L308.561 257.951Z" fill="#2855AF"/>
<path d="M319.591 219.072L317.499 226.441H369.047L366.816 219.072H319.591Z" fill="#2855AF"/>
<path d="M247.854 280.837H219.563C216.353 280.837 213.751 283.439 213.751 286.648V288.043C213.751 291.253 216.353 293.855 219.563 293.855H247.854C251.063 293.855 253.665 291.253 253.665 288.043V286.648C253.665 283.439 251.063 280.837 247.854 280.837Z" fill="#2855AF"/>
<path d="M358.377 280.837H330.087C326.877 280.837 324.275 283.439 324.275 286.648V288.043C324.275 291.253 326.877 293.855 330.087 293.855H358.377C361.587 293.855 364.189 291.253 364.189 288.043V286.648C364.189 283.439 361.587 280.837 358.377 280.837Z" fill="#2855AF"/>
<path d="M217.936 336.047C217.765 336.047 217.596 336.013 217.438 335.948C217.28 335.882 217.136 335.786 217.015 335.665C216.894 335.545 216.799 335.401 216.733 335.243C216.668 335.085 216.634 334.916 216.634 334.745V322.855C216.64 318.464 218.39 314.255 221.498 311.154C224.605 308.052 228.818 306.312 233.209 306.315H233.546C237.926 306.327 242.124 308.074 245.219 311.174C248.315 314.274 250.056 318.474 250.062 322.855V334.129C250.062 334.474 249.925 334.805 249.681 335.049C249.437 335.294 249.105 335.431 248.76 335.431C248.415 335.431 248.084 335.294 247.84 335.049C247.596 334.805 247.458 334.474 247.458 334.129V322.855C247.458 319.155 245.989 315.608 243.373 312.992C240.758 310.376 237.21 308.907 233.511 308.907H233.209C229.509 308.907 225.962 310.376 223.346 312.992C220.73 315.608 219.261 319.155 219.261 322.855V334.745C219.261 334.918 219.226 335.089 219.16 335.249C219.093 335.408 218.995 335.553 218.871 335.674C218.748 335.795 218.602 335.89 218.441 335.954C218.28 336.018 218.109 336.05 217.936 336.047Z" fill="#2855AF"/>
<path d="M207.951 329.771C207.951 329.771 223.294 334.42 259.918 329.771L266.369 369.115C266.596 370.5 266.548 371.916 266.226 373.282C265.905 374.648 265.318 375.938 264.498 377.076L263.835 378.006C262.845 379.381 261.543 380.5 260.035 381.272C258.528 382.044 256.858 382.447 255.164 382.446H212.88C210.868 382.444 208.898 381.875 207.196 380.804C205.494 379.733 204.128 378.203 203.256 376.391C202.352 374.496 202.021 372.38 202.303 370.3L207.951 329.771Z" fill="white" stroke="#2855AF" stroke-linecap="round" stroke-linejoin="round"/>
<path d="M217.599 375.286C217.599 371.645 216.153 368.152 213.579 365.576C211.005 363 207.513 361.551 203.872 361.548H203.523L202.303 370.288C202.021 372.368 202.352 374.485 203.256 376.379C204.128 378.191 205.494 379.721 207.196 380.792C208.898 381.863 210.868 382.432 212.88 382.435H215.565C216.895 380.288 217.599 377.812 217.599 375.286V375.286Z" fill="#2855AF"/>
<path d="M250.434 375.286C250.431 377.816 251.136 380.296 252.468 382.446H255.164C256.858 382.446 258.528 382.044 260.035 381.272C261.543 380.5 262.846 379.381 263.835 378.006L264.498 377.076C265.318 375.937 265.905 374.648 266.227 373.282C266.548 371.915 266.596 370.499 266.369 369.114L265.137 361.594C264.812 361.594 264.498 361.594 264.161 361.594C260.527 361.597 257.043 363.04 254.47 365.606C251.897 368.172 250.446 371.653 250.434 375.286Z" fill="#2855AF"/>
<path d="M233.011 332.072V382.655" stroke="#2855AF" stroke-linecap="round" stroke-linejoin="round"/>
<path d="M377.183 340.104H310.13C308.48 340.104 307.143 341.441 307.143 343.091V379.657C307.143 381.307 308.48 382.644 310.13 382.644H377.183C378.833 382.644 380.17 381.307 380.17 379.657V343.091C380.17 341.441 378.833 340.104 377.183 340.104Z" fill="white" stroke="#2855AF" stroke-linecap="round" stroke-linejoin="round"/>
<path d="M307.48 342.114L340.082 366.523C341.007 367.23 342.138 367.613 343.302 367.613C344.466 367.613 345.597 367.23 346.522 366.523L378.834 341.533" stroke="#2855AF" stroke-linecap="round" stroke-linejoin="round"/>
<path d="M339.304 340.44H346.673V370.66C346.673 371.533 346.327 372.369 345.71 372.986C345.093 373.603 344.256 373.95 343.384 373.95H342.594C341.721 373.95 340.884 373.603 340.268 372.986C339.651 372.369 339.304 371.533 339.304 370.66V340.44Z" fill="white" stroke="#2855AF" stroke-linecap="round" stroke-linejoin="round"/>
<path d="M247.854 388.443H219.563C216.353 388.443 213.751 391.045 213.751 394.255V395.65C213.751 398.859 216.353 401.461 219.563 401.461H247.854C251.063 401.461 253.665 398.859 253.665 395.65V394.255C253.665 391.045 251.063 388.443 247.854 388.443Z" fill="#2855AF"/>
<path d="M358.377 388.443H330.087C326.877 388.443 324.275 391.045 324.275 394.255V395.65C324.275 398.859 326.877 401.461 330.087 401.461H358.377C361.587 401.461 364.189 398.859 364.189 395.65V394.255C364.189 391.045 361.587 388.443 358.377 388.443Z" fill="#2855AF"/>
<path d="M55.8288 246.956C55.8288 246.956 48.0181 260.625 45.74 287.962C43.4618 315.3 58.4324 341.649 66.5685 354.667C74.7047 367.685 64.6158 379.389 63.3141 387.212C62.0123 395.034 62.6632 408.959 70.4855 418.396C78.3078 427.834 80.2489 444.107 79.9234 449.628C79.598 455.149 80.5743 456.462 82.2481 456.462C83.9218 456.462 113.479 458.415 118.361 456.462L126.172 455.811C126.172 455.811 127.473 452.882 124.87 451.58C122.266 450.279 114.409 447.675 111.852 442.805C109.295 437.935 108.842 429.438 109.841 425.556C110.841 421.674 117.001 402.124 118.303 390.083C119.605 378.041 120.256 356.899 120.256 352.017C120.256 347.135 132.297 331.839 133.924 313.661C135.551 295.482 129.368 258.579 129.368 258.579L55.8288 246.956Z" fill="white" stroke="#2855AF" stroke-linecap="round" stroke-linejoin="round"/>
<path d="M124.812 451.58C122.208 450.279 114.351 447.675 111.794 442.805C111.068 441.367 110.525 439.845 110.178 438.272C109.016 438.388 105.052 438.946 103.657 441.178C102.549 442.817 100.956 444.068 99.1013 444.758L91.9414 444.107C91.9414 444.107 91.616 450.93 92.9178 454.184C93.2897 455.091 91.7555 455.486 93.0224 456.509C102.146 456.846 118.593 457.601 122.743 456.776L126.113 455.846C126.113 455.846 127.438 452.882 124.812 451.58Z" fill="#7CCCDB" stroke="#2855AF" stroke-linecap="round" stroke-linejoin="round"/>
<path d="M113.746 452.557C108.539 450.93 101.379 445.409 99.4267 443.13C98.333 441.818 97.0097 440.715 95.5213 439.876C95.5213 439.876 91.2905 438.249 89.9887 441.503L88.6869 444.758L79.6907 444.002C79.8977 445.87 79.9715 447.75 79.9115 449.628C79.5861 455.16 80.5624 456.462 82.2361 456.462C83.6774 456.462 107.377 458.02 115.943 456.974C116.315 455.126 116.036 453.277 113.746 452.557Z" fill="#7CCCDB" stroke="#2855AF" stroke-linecap="round" stroke-linejoin="round"/>
<path d="M109.841 425.556C110.818 421.651 117.001 402.124 118.303 390.083C119.605 378.041 120.256 356.899 120.256 352.017C120.256 347.135 132.297 331.839 133.924 313.661C135.551 295.482 129.368 258.579 129.368 258.579L55.8288 246.956C55.8288 246.956 48.0181 260.625 45.74 287.962C43.4618 315.3 58.4324 341.649 66.5685 354.667C74.7047 367.685 64.6158 379.389 63.3141 387.212C62.0123 395.034 62.6632 408.959 70.4855 418.396C72.9946 421.572 74.9585 425.142 76.297 428.962C79.784 430.601 85.4328 431.286 93.9176 426.533C93.9176 426.533 99.9268 431.286 109.458 428.253C109.513 427.345 109.642 426.443 109.841 425.556V425.556Z" fill="#2855AF" stroke="white" stroke-linecap="round" stroke-linejoin="round"/>
<path d="M110.492 299.26L101.705 304.13C101.705 304.13 100.403 348.065 100.403 363.686C100.403 379.308 96.172 383.899 94.8935 405.378C93.615 426.858 95.5444 439.876 95.5444 439.876" stroke="#93AAD7" stroke-linecap="round" stroke-linejoin="round"/>
<path d="M127.229 175.334C127.229 175.334 138.422 179.158 142.525 189.538C146.628 199.917 147.709 219.305 147.709 229.138C147.709 238.971 150.987 247.153 146.617 253.441C142.246 259.73 133.506 258.904 129.414 253.163C125.323 247.421 125.858 243.864 127.497 231.079C129.135 218.293 128.589 193.664 127.229 188.747C125.869 183.831 120.941 175.09 120.941 175.09C120.941 175.09 124.765 173.73 127.229 175.334Z" fill="#7CCCDB" stroke="#2855AF" stroke-linecap="round" stroke-linejoin="round"/>
<path d="M148.22 236.797C147.855 236.424 147.467 236.075 147.058 235.751C144.972 233.956 142.469 232.714 139.779 232.137C137.088 231.561 134.296 231.668 131.657 232.45L126.601 238.262C125.823 245.549 126.183 248.722 129.391 253.197C133.482 258.939 142.176 259.753 146.593 253.476C149.801 248.874 148.929 243.283 148.22 236.797Z" fill="white" stroke="#2855AF" stroke-linecap="round" stroke-linejoin="round"/>
<path d="M128.322 244.701C128.322 244.701 130.228 236.506 134.331 235.135C138.434 233.763 146.349 237.599 149.081 242.516C151.812 247.432 146.349 254.534 146.349 254.534C146.349 254.534 151.266 253.441 151.812 243.329C152.358 233.217 140.886 229.382 135.423 229.137C129.961 228.893 126.95 240.877 128.322 244.701Z" fill="white" stroke="#2855AF" stroke-linecap="round" stroke-linejoin="round"/>
<path d="M133.506 195.268C135.419 204.048 136.336 213.016 136.237 222.001C135.97 231.834 130.774 238.657 130.507 243.841C130.239 249.025 132.692 258.323 131.867 259.683C131.041 261.043 117.129 268.982 98.8223 267.064C80.5159 265.146 58.9551 260.264 55.3752 253.988C51.7953 247.711 58.9319 203.73 59.1992 198.813C59.4665 193.897 63.8484 172.08 72.31 169.325C80.7716 166.571 100.705 166.861 100.705 166.861C100.705 166.861 122.545 173.417 123.37 173.696C124.195 173.975 119.814 172.057 125.823 174.788C131.832 177.52 132.924 185.981 133.203 187.353" fill="#7CCCDB"/>
<path d="M133.506 195.268C135.419 204.048 136.336 213.016 136.237 222.001C135.97 231.834 130.774 238.657 130.507 243.841C130.239 249.025 132.692 258.323 131.867 259.683C131.041 261.043 117.129 268.982 98.8223 267.064C80.5159 265.146 58.9551 260.264 55.3752 253.988C51.7953 247.711 58.9319 203.73 59.1992 198.813C59.4665 193.897 63.8484 172.08 72.31 169.325C80.7716 166.571 100.705 166.861 100.705 166.861C100.705 166.861 122.545 173.417 123.37 173.696C124.195 173.975 119.814 172.057 125.823 174.788C131.832 177.52 132.924 185.981 133.203 187.353" stroke="#2855AF" stroke-linecap="round" stroke-linejoin="round"/>
<path d="M95.5447 161.398C95.5447 161.398 88.9893 165.501 88.9893 168.233C88.9893 170.964 91.9996 195.814 91.9996 195.814L111.666 187.678L127.229 196.686C127.229 196.686 123.951 181.867 120.941 175.055C119.615 171.818 117.615 168.9 115.074 166.495C112.533 164.09 109.509 162.254 106.203 161.108C99.6476 158.946 95.5447 161.398 95.5447 161.398Z" fill="white" stroke="#2855AF" stroke-linecap="round" stroke-linejoin="round"/>
<path d="M95.8234 163.27C95.8234 163.27 98.0085 175.276 100.194 180.704C102.925 187.527 108.388 200.092 108.388 200.092C108.388 200.092 113.851 191.351 115.49 183.982C117.128 176.613 118.756 164.583 118.756 164.583C118.756 164.583 100.461 159.399 99.6474 158.853C98.8337 158.307 94.7308 160.585 95.8234 163.27Z" fill="white" stroke="#2855AF" stroke-linecap="round" stroke-linejoin="round"/>
<path d="M146.895 110.059C146.895 110.059 132.145 94.217 119 95.5886C105.854 96.9601 91.1044 116.336 84.3165 128.133C77.5287 139.931 87.048 162.538 100.705 166.908C114.362 171.278 120.906 168.547 120.906 168.547C120.906 168.547 130.739 175.927 140.026 170.464C149.313 165.002 149.592 157.075 148.767 150.252C147.941 143.429 155.868 142.337 158.6 133.863C161.331 125.39 146.895 110.059 146.895 110.059Z" fill="#2855AF" stroke="white" stroke-linecap="round" stroke-linejoin="round"/>
<path d="M138.155 125.355C138.155 125.355 137.062 128.9 140.886 136.548C144.71 144.196 145.256 148.567 144.71 153.483C144.164 158.4 140.607 163.27 136.737 166.861C132.866 170.453 127.438 173.15 122.266 172.324C117.094 171.499 112.712 163.863 112.712 162.77C112.712 161.678 106.749 134.096 138.155 125.355Z" fill="white" stroke="#2855AF" stroke-linecap="round" stroke-linejoin="round"/>
<path d="M139.794 145.568L137.899 148.02C137.899 148.02 136.539 155.668 135.714 155.668C134.324 155.408 132.957 155.043 131.623 154.576" stroke="#2855AF" stroke-linecap="round" stroke-linejoin="round"/>
<path d="M128.868 160.306C128.868 160.306 123.951 160.038 124.498 156.214" stroke="#2855AF" stroke-linecap="round" stroke-linejoin="round"/>
<path d="M130.925 144.952C130.274 146.393 129.135 147.277 128.38 146.951C127.624 146.626 127.531 145.161 128.182 143.72C128.833 142.279 129.961 141.395 130.728 141.721C131.495 142.046 131.565 143.511 130.925 144.952Z" fill="#2855AF"/>
<path d="M142.665 148.776C142.014 150.217 140.875 151.1 140.119 150.775C139.364 150.449 139.271 148.985 139.922 147.544C140.572 146.102 141.711 145.219 142.467 145.544C143.222 145.87 143.315 147.323 142.665 148.776Z" fill="#2855AF"/>
<path d="M127.229 138.187C127.229 138.187 131.321 135.456 135.145 138.466" stroke="#2855AF" stroke-linecap="round" stroke-linejoin="round"/>
<path d="M140.886 143.104C141.435 142.798 142.08 142.713 142.689 142.866C143.298 143.019 143.826 143.4 144.164 143.929" stroke="#2855AF" stroke-linecap="round" stroke-linejoin="round"/>
<path d="M82.3406 168.372C82.3406 168.372 66.8703 168.779 58.1297 171.778C49.3892 174.776 46.9367 190.084 46.9367 197.72C46.9367 205.357 44.4726 251.256 46.0766 254.534C47.6806 257.812 104.529 232.45 104.529 232.45C104.529 232.45 105.622 233.543 108.62 233.543C110.44 233.537 112.227 233.069 113.816 232.183L113.27 235.728C113.27 235.728 108.62 237.646 110.538 239.006C112.456 240.365 119.546 237.646 120.36 237.099C121.173 236.553 128.554 234.368 129.925 232.183C131.297 229.998 128.833 223.988 128.833 223.988C130.997 225.141 133.093 226.417 135.109 227.812C137.295 229.451 139.212 230.823 140.305 227.812C141.397 224.802 133.749 221.803 131.006 220.164C128.386 218.302 125.189 217.433 121.987 217.712C117.896 217.979 99.3219 224.535 99.3219 224.535C99.3219 224.535 98.2758 224.779 91.1858 225.36C84.0957 225.941 67.9396 226.453 67.9396 226.453L75.0413 196.407" fill="white"/>
<path d="M82.3406 168.372C82.3406 168.372 66.8703 168.779 58.1297 171.778C49.3892 174.776 46.9367 190.084 46.9367 197.72C46.9367 205.357 44.4726 251.256 46.0766 254.534C47.6806 257.812 104.529 232.45 104.529 232.45C104.529 232.45 105.622 233.543 108.62 233.543C110.44 233.537 112.227 233.069 113.816 232.183L113.27 235.728C113.27 235.728 108.62 237.646 110.538 239.006C112.456 240.365 119.546 237.646 120.36 237.099C121.173 236.553 128.554 234.368 129.925 232.183C131.297 229.998 128.833 223.988 128.833 223.988C130.997 225.141 133.093 226.417 135.109 227.812C137.295 229.451 139.212 230.823 140.305 227.812C141.397 224.802 133.749 221.803 131.006 220.164C128.386 218.302 125.189 217.433 121.987 217.712C117.896 217.979 99.3219 224.535 99.3219 224.535C99.3219 224.535 98.2758 224.779 91.1858 225.36C84.0957 225.941 67.9396 226.453 67.9396 226.453L75.0413 196.407" stroke="#2855AF" stroke-linecap="round" stroke-linejoin="round"/>
<path d="M94.6844 224.697C94.6844 224.697 93.1734 231.671 97.3345 235.309L100.938 234.147C100.938 234.147 97.6018 228.51 99.3685 224.465C99.6126 223.93 96.056 223.71 94.6844 224.697Z" fill="#2855AF"/>
<path d="M96.393 231.52C98.0684 231.52 99.4266 230.204 99.4266 228.58C99.4266 226.956 98.0684 225.639 96.393 225.639C94.7176 225.639 93.3594 226.956 93.3594 228.58C93.3594 230.204 94.7176 231.52 96.393 231.52Z" fill="white" stroke="#2855AF" stroke-linecap="round" stroke-linejoin="round"/>
<path d="M118.488 226.953C118.488 226.953 122.859 235.089 120.394 237.053" stroke="#2855AF" stroke-linecap="round" stroke-linejoin="round"/>
<path d="M123.405 223.942C123.405 223.942 128.322 229.684 125.858 234.042" stroke="#2855AF" stroke-linecap="round" stroke-linejoin="round"/>
<path d="M82.341 168.372C77.4942 168.639 63.5697 169.906 58.1301 171.778C49.3896 174.788 46.9371 190.084 46.9371 197.72C46.9371 204.194 45.1704 238.052 45.6237 250.292C50.7727 232.717 67.9633 226.406 67.9633 226.406L76.3667 193.338" fill="#7CCCDB"/>
<path d="M82.341 168.372C77.4942 168.639 63.5697 169.906 58.1301 171.778C49.3896 174.788 46.9371 190.084 46.9371 197.72C46.9371 204.194 45.1704 238.052 45.6237 250.292C50.7727 232.717 67.9633 226.406 67.9633 226.406L76.3667 193.338" stroke="#2855AF" stroke-linecap="round" stroke-linejoin="round"/>
<path d="M67.9629 226.406C67.9629 226.406 58.6645 234.321 55.6774 243.608C52.6902 252.895 54.0385 252.907 54.0385 252.907C53.8285 253.829 53.3939 254.685 52.7734 255.399C52.1529 256.112 51.3658 256.662 50.4818 256.998C47.4831 258.091 41.7413 255.092 41.1834 251.268C40.6255 247.444 42.2759 244.166 49.1103 234.879C55.9447 225.593 64.6736 223.942 67.9629 226.406Z" fill="white" stroke="#2855AF" stroke-linecap="round" stroke-linejoin="round"/>
<path d="M149.894 222.85L135.423 244.422L149.894 245.515L166.283 223.942L149.894 222.85Z" fill="#2855AF" stroke="#2855AF" stroke-linecap="round" stroke-linejoin="round"/>
<path d="M139.515 244.422C139.515 244.422 135.144 246.061 138.701 248.792C142.258 251.524 148 250.431 149.894 246.886C151.789 243.341 139.515 244.422 139.515 244.422Z" fill="white" stroke="#2855AF" stroke-linecap="round" stroke-linejoin="round"/>
<path d="M150.987 244.422C150.987 244.422 141.154 241.423 139.515 244.422C137.876 247.421 148.255 248.525 150.72 248.525C153.184 248.525 152.358 244.968 150.987 244.422Z" fill="white" stroke="#2855AF" stroke-linecap="round" stroke-linejoin="round"/>
<path d="M154.811 241.97C154.811 241.97 144.978 238.959 143.339 241.97C141.7 244.98 152.079 246.061 154.544 246.061C157.008 246.061 156.182 242.516 154.811 241.97Z" fill="white" stroke="#2855AF" stroke-linecap="round" stroke-linejoin="round"/>
<path d="M157.542 237.657C157.542 237.657 147.709 234.647 146.07 237.657C144.431 240.668 154.811 241.749 157.263 241.749C159.716 241.749 158.902 238.145 157.542 237.657Z" fill="white" stroke="#2855AF" stroke-linecap="round" stroke-linejoin="round"/>
<path d="M32.1294 457.333H511" stroke="#2855AF" stroke-linecap="round" stroke-linejoin="round"/>
<path d="M0.74707 457.333H15.8571" stroke="#2855AF" stroke-linecap="round" stroke-linejoin="round"/>
</svg>
