<svg width="50" height="50" viewBox="0 0 50 50" fill="none" xmlns="http://www.w3.org/2000/svg">
<g clip-path="url(#clip0)">
<path d="M42.7099 18.2513L41.7292 19.2326C41.5971 19.3636 41.466 19.4779 41.3355 19.5833C42.4645 22.1121 43.0986 24.9095 43.0986 27.8533C43.0986 39.0756 33.9681 48.2054 22.7454 48.2054C11.5219 48.2054 2.39151 39.0756 2.39151 27.8533C2.39151 16.6322 11.522 7.5031 22.7454 7.5031C25.0831 7.5031 27.3272 7.90447 29.4202 8.6326V8.63192C29.6196 8.31512 29.8524 7.99959 30.1711 7.67859L30.6748 7.1742C28.212 6.22927 25.5403 5.70642 22.7459 5.70642C10.5145 5.7072 0.595703 15.6229 0.595703 27.8527C0.595703 40.0842 10.5145 50 22.7455 50C34.9782 50 44.8946 40.0841 44.8946 27.8527C44.8945 24.4134 44.1104 21.1558 42.7099 18.2513Z" fill="#7CCCDB"/>
<path d="M36.3211 20.9558H34.3079C35.332 22.8284 35.915 24.9744 35.915 27.2543C35.915 34.5157 30.0071 40.423 22.7456 40.423C15.4837 40.423 9.57579 34.5156 9.57579 27.2543C9.57569 19.994 15.4836 14.0867 22.7456 14.0867C24.7869 14.0867 26.722 14.5535 28.4481 15.3866V13.4193C26.6903 12.6941 24.7648 12.291 22.7456 12.291C14.4798 12.291 7.7793 18.9909 7.7793 27.2544C7.7793 35.5179 14.4797 42.219 22.7456 42.219C31.0097 42.219 37.7114 35.5179 37.7114 27.2544C37.7115 25.0035 37.2107 22.8707 36.3211 20.9558Z" fill="#7CCCDB"/>
<path d="M49.2655 7.40178C49.1256 7.13019 48.8993 6.94035 48.6755 6.8259C48.4498 6.71037 48.2193 6.65617 47.9836 6.63185L43.7088 6.20549C43.6218 6.19894 43.4849 6.13879 43.3778 6.02931C43.2682 5.92209 43.2081 5.78517 43.2021 5.69826L42.774 1.42188C42.7406 1.10928 42.6579 0.798444 42.44 0.509088C42.3316 0.366119 42.1834 0.232818 42.0041 0.139947C41.8253 0.0470757 41.6194 -0.0005806 41.4253 5.33818e-06C41.1758 0.000688933 40.9543 0.0708063 40.768 0.166705C40.5816 0.264361 40.4233 0.389362 40.2803 0.531647L31.6525 9.15949C31.3018 9.51496 31.0523 9.9425 30.8605 10.3997C30.6736 10.8588 30.5467 11.3382 30.5431 11.8377V16.765C30.5443 17.1026 30.6313 17.417 30.7736 17.6993L27.0611 21.5225C25.8582 20.6163 24.368 20.0714 22.7459 20.0714C18.7778 20.0714 15.5625 23.2879 15.5625 27.2542C15.5625 31.2204 18.7778 34.4369 22.7459 34.4369C26.7121 34.4369 29.9293 31.2204 29.9293 27.2542C29.9293 25.5572 29.3369 24 28.3521 22.7706L32.1974 18.8115C32.3404 18.8418 32.4869 18.8597 32.6392 18.8603H37.5694C38.0689 18.8568 38.5483 18.7305 39.0067 18.5435C39.4646 18.3511 39.892 18.1017 40.2481 17.751L48.8742 9.12551C49.0165 8.98254 49.1409 8.82424 49.2386 8.63733C49.3345 8.4509 49.4053 8.22951 49.4053 7.98059C49.4072 7.78703 49.3595 7.58049 49.2655 7.40178ZM22.7459 32.6419C19.7747 32.6419 17.3577 30.2255 17.3577 27.2548C17.3577 24.2848 19.7746 21.8678 22.7459 21.8678C23.8791 21.8678 24.9306 22.2215 25.7992 22.8216L22.1016 26.63C21.7562 26.9855 21.7646 27.5542 22.1201 27.8995C22.4756 28.2449 23.0448 28.2365 23.3902 27.8809L27.0856 24.076C27.741 24.9681 28.1334 26.0649 28.1334 27.2546C28.1334 30.2255 25.7165 32.6419 22.7459 32.6419ZM32.3402 16.0881V11.8385C32.3367 11.6801 32.4015 11.3699 32.5212 11.0876C32.635 10.8042 32.8088 10.5392 32.9238 10.4296L41.0586 2.29542L41.4166 5.87814C41.4416 6.11926 41.5106 6.34259 41.6023 6.55158L32.3402 16.0881ZM38.9787 16.4823C38.8679 16.5966 38.604 16.7699 38.3207 16.8848C38.0384 17.0045 37.7283 17.0694 37.5698 17.0659H33.8935L42.8781 7.81398C43.0817 7.901 43.2966 7.96701 43.5306 7.99201L47.1116 8.34924L38.9787 16.4823Z" fill="#2855AF"/>
</g>
<defs>
<clipPath id="clip0">
<rect width="50" height="50" fill="white"/>
</clipPath>
</defs>
</svg>
