<svg width="50" height="50" viewBox="0 0 50 50" fill="none" xmlns="http://www.w3.org/2000/svg">
<g clip-path="url(#clip0)">
<path d="M24.9996 30.4688C24.9363 30.4688 24.8718 30.4631 24.8093 30.4501C24.7467 30.4375 24.6853 30.418 24.6258 30.3936C24.567 30.3692 24.5106 30.3391 24.4579 30.3036C24.4041 30.2685 24.3542 30.2277 24.3095 30.1827C24.2645 30.1377 24.2233 30.0881 24.1875 30.0343C24.152 29.9816 24.1219 29.9248 24.0974 29.8653C24.073 29.8066 24.0543 29.7451 24.0417 29.6826C24.0292 29.62 24.0234 29.5555 24.0234 29.4922C24.0234 29.2355 24.1276 28.9833 24.3095 28.8018C24.3546 28.7568 24.4041 28.7159 24.4579 28.6808C24.5106 28.6446 24.567 28.6152 24.6258 28.5908C24.6853 28.5664 24.7471 28.5469 24.8096 28.5351C24.9344 28.5099 25.0645 28.5099 25.1904 28.5351C25.2529 28.5469 25.3143 28.5664 25.3727 28.5908C25.4326 28.6152 25.489 28.6446 25.5417 28.6808C25.5955 28.7159 25.6454 28.7568 25.6901 28.8018C25.7351 28.8468 25.7763 28.8964 25.8114 28.9502C25.8465 29.0028 25.8766 29.0596 25.901 29.1191C25.9254 29.1779 25.9441 29.2393 25.9567 29.3019C25.9697 29.3644 25.9762 29.4289 25.9762 29.4922C25.9762 29.5555 25.9697 29.62 25.9567 29.6826C25.9441 29.7451 25.9254 29.8066 25.901 29.8653C25.8766 29.9248 25.8465 29.9816 25.8114 30.0343C25.7763 30.0881 25.7351 30.1377 25.6901 30.1827C25.5085 30.3643 25.2567 30.4688 24.9996 30.4688Z" fill="#7CCCDB"/>
<path d="M34.864 34.4357L29.882 34.4357L29.882 24.4129C34.4654 22.496 37.6942 17.9653 37.6942 12.6946C37.6942 5.69496 31.9992 0 24.9992 0C17.9996 0 12.3047 5.69496 12.3047 12.6946C12.3047 17.9653 15.5334 22.496 20.1168 24.4129L20.1168 49.0234C20.1168 49.5628 20.554 50 21.0934 50H28.9055C29.4449 50 29.882 49.5628 29.882 49.0234V47.966L34.864 47.966C35.4031 47.966 35.8406 47.5288 35.8406 46.9894V42.7116C35.8406 42.1722 35.4031 41.7351 34.864 41.7351L33.5949 41.7351V40.6666L34.864 40.6666C35.4031 40.6666 35.8406 40.2294 35.8406 39.69V35.4122C35.8406 34.8728 35.4031 34.4357 34.864 34.4357ZM14.2578 12.6946C14.2578 6.77185 19.0765 1.95313 24.9992 1.95313C30.9223 1.95313 35.741 6.77185 35.741 12.6946C35.741 18.6176 30.9223 23.4364 24.9992 23.4364C19.0765 23.4364 14.2578 18.6176 14.2578 12.6946ZM27.9289 48.0469H25.9758V33.7238C25.9758 33.1844 25.5386 32.7473 24.9992 32.7473C24.4602 32.7473 24.0227 33.1844 24.0227 33.7238V48.0469H22.0699L22.0699 25.0481C23.0106 25.2712 23.9914 25.3895 24.9992 25.3895C26.0075 25.3895 26.9882 25.2712 27.9289 25.0481L27.9289 48.0469ZM33.8875 38.7138L32.6183 38.7138C32.0793 38.7138 31.6418 39.151 31.6418 39.6904V42.7116C31.6418 43.251 32.0793 43.6882 32.6183 43.6882L33.8875 43.6882V46.0129L29.882 46.0129V36.3888L33.8875 36.3888V38.7138Z" fill="#2855AF"/>
<path d="M30.4747 12.6946C30.4747 9.67599 28.0188 7.22009 24.9999 7.22009C21.9813 7.22009 19.5254 9.67599 19.5254 12.6946C19.5254 15.7135 21.9813 18.169 24.9999 18.169C28.0188 18.169 30.4747 15.7135 30.4747 12.6946ZM21.4785 12.6946C21.4785 10.7529 23.0582 9.17322 24.9999 9.17322C26.9419 9.17322 28.5216 10.7529 28.5216 12.6946C28.5216 14.6362 26.9419 16.2159 24.9999 16.2159C23.0582 16.2159 21.4785 14.6362 21.4785 12.6946Z" fill="#2855AF"/>
<path d="M24.9999 22.0753C19.8275 22.0753 15.6191 17.8673 15.6191 12.6945C15.6191 7.5222 19.8275 3.31421 24.9999 3.31421C25.5393 3.31421 25.9764 3.75137 25.9764 4.29077C25.9764 4.83017 25.5393 5.26733 24.9999 5.26733C20.9044 5.26733 17.5723 8.59909 17.5723 12.6949C17.5723 16.7904 20.9044 20.1225 24.9999 20.1225C29.0957 20.1225 32.4278 16.7904 32.4278 12.6949C32.4278 12.1555 32.865 11.7184 33.4044 11.7184C33.9434 11.7184 34.381 12.1555 34.381 12.6949C34.381 17.8673 30.1726 22.0753 24.9999 22.0753ZM24.9999 18.169C21.9813 18.169 19.5254 15.7135 19.5254 12.6945C19.5254 9.67598 21.9813 7.22008 24.9999 7.22008C28.0188 7.22008 30.4747 9.67598 30.4747 12.6945C30.4747 15.7135 28.0188 18.169 24.9999 18.169ZM24.9999 9.17358C23.0582 9.17358 21.4785 10.7533 21.4785 12.6949C21.4785 14.6366 23.0582 16.2163 24.9999 16.2163C26.9419 16.2163 28.5216 14.6366 28.5216 12.6949C28.5216 10.7529 26.9419 9.17358 24.9999 9.17358Z" fill="#7CCCDB"/>
</g>
<defs>
<clipPath id="clip0">
<rect width="50" height="50" fill="white"/>
</clipPath>
</defs>
</svg>
