<svg width="50" height="50" viewBox="0 0 50 50" fill="none" xmlns="http://www.w3.org/2000/svg">
<g clip-path="url(#clip0)">
<path d="M48.8094 13.6055C48.1291 13.6055 47.6756 14.059 47.6756 14.7392V37.415C47.6756 38.0953 47.2221 38.5488 46.5419 38.5488H42.0068C41.3265 38.5488 40.873 39.0023 40.873 39.6825C40.873 40.3628 41.3266 40.8163 42.0068 40.8163H46.5419C48.4693 40.8163 49.9432 39.3424 49.9432 37.4149V14.7393C49.9432 14.059 49.4897 13.6055 48.8094 13.6055Z" fill="#2855AF"/>
<path d="M5.72555 6.80266C6.3517 6.80266 6.8593 6.29506 6.8593 5.66891C6.8593 5.04275 6.3517 4.53516 5.72555 4.53516C5.09939 4.53516 4.5918 5.04275 4.5918 5.66891C4.5918 6.29506 5.09939 6.80266 5.72555 6.80266Z" fill="#2855AF"/>
<path d="M9.12691 6.80266C9.75307 6.80266 10.2607 6.29506 10.2607 5.66891C10.2607 5.04275 9.75307 4.53516 9.12691 4.53516C8.50076 4.53516 7.99316 5.04275 7.99316 5.66891C7.99316 6.29506 8.50076 6.80266 9.12691 6.80266Z" fill="#2855AF"/>
<path d="M12.5283 6.80266C13.1544 6.80266 13.662 6.29506 13.662 5.66891C13.662 5.04275 13.1544 4.53516 12.5283 4.53516C11.9021 4.53516 11.3945 5.04275 11.3945 5.66891C11.3945 6.29506 11.9021 6.80266 12.5283 6.80266Z" fill="#2855AF"/>
<path d="M44.2743 4.53503H17.0634C16.3831 4.53503 15.9297 4.98859 15.9297 5.66878C15.9297 6.34898 16.3832 6.80254 17.0634 6.80254H44.2743C44.9546 6.80254 45.4081 6.34898 45.4081 5.66878C45.4081 4.98859 44.9546 4.53503 44.2743 4.53503Z" fill="#2855AF"/>
<path d="M40.5328 27.8913L39.0589 27.5511C38.7188 26.5307 38.3786 25.6237 37.8118 24.6032L38.6054 23.3561C39.399 21.9955 39.1722 20.2949 38.0385 19.161L37.4716 18.5941C36.3379 17.4604 34.6371 17.2335 33.2766 18.0273L32.0294 18.8209C31.1224 18.3673 30.1019 17.9138 29.0815 17.5737L28.7414 16.0998C28.4012 14.6259 27.0406 13.6055 25.4534 13.6055H24.433C22.8457 13.6055 21.4851 14.6259 21.1451 16.2132L20.8049 17.6871C19.7845 18.0273 18.8775 18.3674 17.857 18.9343L16.6099 18.1407C15.2493 17.3471 13.5487 17.5738 12.4148 18.7075L11.8479 19.2744C10.7142 20.4082 10.4874 22.1089 11.2811 23.4695L12.0747 24.7166C11.6211 25.6237 11.1676 26.6441 10.8275 27.6645L9.3537 28.0046C7.87981 28.3447 6.85938 29.7053 6.85938 31.2925V32.3129C6.85938 33.9002 7.87981 35.2608 9.46712 35.6009L10.941 35.941C11.2812 36.9615 11.6213 37.8685 12.1882 38.8889L11.3946 40.1361C10.4876 41.3832 10.7143 43.084 11.8481 44.2177L12.5284 44.898C13.6622 46.0317 15.3629 46.2586 16.7235 45.4649L17.9706 44.6713C18.8777 45.1248 19.8981 45.5783 20.9185 45.9184L21.2587 47.3923C21.5988 48.8662 22.9594 50.0001 24.5466 50.0001H25.5668C27.1542 50.0001 28.5147 48.9796 28.8548 47.3923L29.1949 45.9184C30.2154 45.5783 31.1224 45.2381 32.1428 44.6713L33.39 45.4649C34.7506 46.2586 36.4512 46.0317 37.585 44.898L38.2653 44.2177C39.3991 43.084 39.6259 41.3832 38.8322 40.0227L38.0386 38.7755C38.4921 37.8685 38.9456 36.848 39.2858 35.8276L40.5329 35.4875C42.0068 35.1473 43.1407 33.7867 43.1407 32.1995V31.1792C43.1406 29.5919 42.1201 28.2313 40.5328 27.8913ZM40.873 32.1996C40.873 32.7665 40.5328 33.2201 39.9659 33.3334L37.9252 33.9002C37.4716 34.0137 37.2449 34.2404 37.1315 34.6939C36.7913 35.941 36.3379 37.0748 35.6576 38.2086C35.4308 38.5488 35.4308 39.0023 35.6576 39.3424L36.7913 41.1565C37.0181 41.6101 37.0181 42.1769 36.5646 42.5171L35.8843 43.1974C35.5442 43.5375 34.9773 43.6509 34.5237 43.4241L32.7097 42.2903C32.3695 42.0636 31.9161 42.0636 31.5759 42.2903C30.4422 42.9706 29.3083 43.4241 28.0612 43.7642C27.6076 43.8777 27.3809 44.2178 27.2676 44.5578L26.7007 46.5986C26.5873 47.0522 26.1338 47.5056 25.5669 47.5056H24.5465C23.9796 47.5056 23.5261 47.1655 23.4128 46.5986L22.8459 44.5578C22.7325 44.1043 22.3923 43.8776 22.0523 43.7642C20.8051 43.4241 19.6714 42.9706 18.5375 42.2903C18.3108 42.1769 18.1974 42.1769 17.9706 42.1769C17.7439 42.1769 17.5171 42.1769 17.4038 42.2903L15.5895 43.4241C15.136 43.6508 14.5691 43.6508 14.2289 43.1974L13.5487 42.5171C13.2085 42.1769 13.0951 41.6101 13.3219 41.1565L14.4557 39.3425C14.6824 39.0023 14.6824 38.5488 14.4557 38.2087C13.7754 37.075 13.3219 35.9411 12.9818 34.6939C12.8684 34.2404 12.5282 34.0137 12.1881 33.9003L10.1473 33.3335C9.69375 33.2201 9.24029 32.7666 9.24029 32.1997V31.1792C9.24029 30.6123 9.58043 30.1588 10.1473 30.0454L12.1881 29.4786C12.6416 29.3651 12.8684 29.025 12.9818 28.685C13.3219 27.4378 13.7754 26.304 14.4557 25.1702C14.6824 24.83 14.6824 24.3766 14.4557 24.0364L13.3219 22.2224C13.0952 21.7688 13.0952 21.202 13.5487 20.8618L14.2289 20.1815C14.5691 19.8414 15.136 19.728 15.5895 19.9548L17.4036 21.0886C17.7437 21.3153 18.1972 21.3153 18.5373 21.0886C19.6711 20.4083 20.8049 19.9548 22.0521 19.6147C22.5056 19.5012 22.7324 19.1611 22.8457 18.821L23.4126 16.7802C23.526 16.3266 23.9794 15.8732 24.5463 15.8732H25.5668C26.1337 15.8732 26.5873 16.2133 26.7006 16.7802L27.2675 18.821C27.3809 19.2745 27.721 19.5012 28.0611 19.6147C29.3082 19.9548 30.442 20.4083 31.5758 21.0886C31.916 21.3153 32.3694 21.3153 32.7096 21.0886L34.5236 19.9548C34.9772 19.7281 35.5441 19.7281 35.8842 20.1815L36.5645 20.8618C36.9046 21.202 37.0181 21.7688 36.7912 22.2224L35.6575 24.0364C35.4307 24.3766 35.4307 24.83 35.6575 25.1702C36.3378 26.3039 36.7912 27.4378 37.1314 28.685C37.2448 29.1385 37.5849 29.3652 37.9251 29.4786L39.9658 30.0454C40.4194 30.1589 40.8729 30.6123 40.8729 31.1792V32.1996H40.873Z" fill="#7CCCDB"/>
<path d="M46.5419 0H3.45799C1.53054 0 0.0566406 1.4739 0.0566406 3.40135V37.4149C0.0566406 39.3424 1.53054 40.8163 3.45799 40.8163H7.99309C8.67338 40.8163 9.12684 40.3627 9.12684 39.6825C9.12684 39.0023 8.67328 38.5488 7.99309 38.5488H3.45799C2.7777 38.5488 2.32424 38.0952 2.32424 37.415V3.40135C2.32424 2.72106 2.7778 2.2676 3.45799 2.2676H46.5419C47.2222 2.2676 47.6756 2.72116 47.6756 3.40135V9.0703H5.72559C5.0453 9.0703 4.59184 9.52386 4.59184 10.204C4.59184 10.8842 5.0454 11.3378 5.72559 11.3378H48.8095C49.4898 11.3378 49.9432 10.8842 49.9432 10.204V3.40135C49.9432 1.4739 48.4693 0 46.5419 0Z" fill="#2855AF"/>
<path d="M30.2154 24.263C29.6485 23.9228 28.9682 24.0362 28.6281 24.4897C28.2879 25.0566 28.4013 25.7369 28.8548 26.077C30.6688 27.4376 31.8027 29.4784 31.8027 31.746C31.8027 32.5397 31.6893 33.3333 31.3491 34.1269L26.1337 31.0657V23.8094C26.1337 23.1291 25.6802 22.6757 25 22.6757C20.0113 22.6757 15.9297 26.7573 15.9297 31.746C15.9297 36.7346 20.0113 40.8162 25 40.8162C29.9886 40.8162 34.0703 36.7346 34.0703 31.746C34.0703 28.7982 32.5963 25.9637 30.2154 24.263ZM18.1973 31.746C18.1973 28.3446 20.6916 25.6235 23.8662 25.0566V31.0657L18.6508 34.1269C18.3106 33.3333 18.1973 32.5397 18.1973 31.746ZM25 38.5487C22.8458 38.5487 21.0318 37.6416 19.7846 36.0543L25 32.9931L30.2154 36.0543C28.9682 37.6416 27.1542 38.5487 25 38.5487Z" fill="#2855AF"/>
</g>
<defs>
<clipPath id="clip0">
<rect width="50" height="50" fill="white"/>
</clipPath>
</defs>
</svg>
