<svg width="50" height="50" viewBox="0 0 50 50" fill="none" xmlns="http://www.w3.org/2000/svg">
<g clip-path="url(#clip0)">
<path d="M14.9992 5.00061H4.16602V6.66726H14.9992V5.00061Z" fill="#2855AF"/>
<path d="M14.9992 8.33386H4.16602V10.0005H14.9992V8.33386Z" fill="#2855AF"/>
<path d="M11.6659 11.6671H4.16602V13.3338H11.6659V11.6671Z" fill="#2855AF"/>
<path d="M11.6659 15.0005H4.16602V16.6671H11.6659V15.0005Z" fill="#2855AF"/>
<path d="M49.9994 48.3334H0V50H49.9994V48.3334Z" fill="#7CCCDB"/>
<path d="M48.2464 7.12797L44.9131 0.461388C44.7076 0.049518 44.2073 -0.117771 43.7955 0.0877468C43.7952 0.0878509 43.795 0.0879551 43.7948 0.0880593L37.1282 3.42135C36.7164 3.62708 36.5492 4.1278 36.7549 4.53967C36.9606 4.95154 37.4614 5.11873 37.8732 4.913L42.7015 2.50053L41.384 6.26215C35.5932 22.7544 20.6778 34.3247 3.26367 35.8334L3.40534 37.5001C21.4756 35.9347 36.9522 23.9268 42.9582 6.81214L44.3032 2.96886L46.7548 7.87296C46.9605 8.28483 47.4612 8.45202 47.8731 8.24629C48.2851 8.04056 48.4522 7.53994 48.2464 7.12797Z" fill="#2855AF"/>
<path d="M10.0006 40.0001H4.16731C3.7071 40.0001 3.33398 40.3732 3.33398 40.8334V45.8334C3.33398 46.2936 3.7071 46.6667 4.16731 46.6667H10.0006C10.4608 46.6667 10.8339 46.2936 10.8339 45.8334V40.8334C10.8339 40.3732 10.4608 40.0001 10.0006 40.0001ZM9.16725 45.0001H5.00063V41.6668H9.16725V45.0001Z" fill="#7CCCDB"/>
<path d="M19.1666 37.5002H13.3333C12.8731 37.5002 12.5 37.8734 12.5 38.3336V45.8335C12.5 46.2937 12.8731 46.6668 13.3333 46.6668H19.1666C19.6268 46.6668 19.9999 46.2937 19.9999 45.8335V38.3336C19.9999 37.8734 19.6268 37.5002 19.1666 37.5002ZM18.3333 45.0001H14.1666V39.1669H18.3333V45.0001Z" fill="#7CCCDB"/>
<path d="M28.3326 33.3336H22.4993C22.0391 33.3336 21.666 33.7067 21.666 34.1669V45.8335C21.666 46.2937 22.0391 46.6668 22.4993 46.6668H28.3326C28.7928 46.6668 29.1659 46.2937 29.1659 45.8335V34.1669C29.1659 33.7067 28.7928 33.3336 28.3326 33.3336ZM27.4993 45.0001H23.3327V35.0003H27.4993V45.0001Z" fill="#7CCCDB"/>
<path d="M37.5006 27.5002H31.6673C31.2071 27.5002 30.834 27.8734 30.834 28.3336V45.8333C30.834 46.2936 31.2071 46.6667 31.6673 46.6667H37.5006C37.9608 46.6667 38.3339 46.2936 38.3339 45.8333V28.3336C38.3339 27.8734 37.9608 27.5002 37.5006 27.5002ZM36.6672 45H32.5006V29.1669H36.6672V45Z" fill="#7CCCDB"/>
<path d="M46.6666 15.8337H40.8333C40.3731 15.8337 40 16.2069 40 16.6671V45.8334C40 46.2936 40.3731 46.6667 40.8333 46.6667H46.6666C47.1268 46.6667 47.4999 46.2936 47.4999 45.8334V16.6671C47.4999 16.2069 47.1268 15.8337 46.6666 15.8337ZM45.8333 45H41.6666V17.5004H45.8333V45Z" fill="#7CCCDB"/>
</g>
<defs>
<clipPath id="clip0">
<rect width="50" height="50" fill="white"/>
</clipPath>
</defs>
</svg>
