<svg width="55" height="55" viewBox="0 0 55 55" fill="none" xmlns="http://www.w3.org/2000/svg">
<path d="M15.4688 5.15625H17.1875V6.875H15.4688V5.15625Z" fill="#2855AF"/>
<path d="M18.9062 5.15625H25.7812V6.875H18.9062V5.15625Z" fill="#2855AF"/>
<path d="M35.2344 38.6719C35.2331 39.8111 34.7799 40.9032 33.9744 41.7087C33.1689 42.5142 32.0767 42.9674 30.9375 42.9688H15.2385L18.193 37.852C18.0996 38.1154 18.0502 38.3924 18.0469 38.6719C18.0469 39.3556 18.3185 40.0114 18.802 40.4949C19.2855 40.9784 19.9413 41.25 20.625 41.25H24.0625C24.7463 41.25 25.4021 40.9784 25.8856 40.4949C26.369 40.0114 26.6407 39.3556 26.6407 38.6719C26.6407 37.9881 26.369 37.3324 25.8856 36.8489C25.4021 36.3654 24.7463 36.0938 24.0625 36.0938H20.625C20.2159 36.0945 19.8128 36.1929 19.4492 36.3808C19.0857 36.5687 18.7723 36.8406 18.535 37.174C18.8763 36.37 18.8979 35.4661 18.5954 34.6467C18.293 33.8273 17.6892 33.1542 16.9074 32.7649C16.1255 32.3755 15.2246 32.2991 14.3884 32.5514C13.5522 32.8037 12.8437 33.3655 12.4077 34.1223L9.48582 39.1858C9.46462 39.0153 9.45371 38.8437 9.45317 38.6719V7.73438C9.45453 6.59519 9.90767 5.50306 10.7132 4.69753C11.5187 3.89201 12.6109 3.43886 13.75 3.4375H30.9375C31.6914 3.43925 32.4317 3.63853 33.0846 4.01549C33.7375 4.39245 34.2802 4.93391 34.6586 5.58594L36.1462 4.72656C35.6165 3.81385 34.8568 3.05588 33.9429 2.52815C33.0291 2.00042 31.9928 1.72135 30.9375 1.71875H13.75C12.1552 1.72057 10.6261 2.35494 9.49836 3.4827C8.37061 4.61045 7.73624 6.13949 7.73442 7.73438V24.3203C7.18753 24.5748 6.74719 25.013 6.49004 25.5587L2.58934 34.0209C2.01189 35.2622 1.71468 36.6154 1.71879 37.9844V53.2812H3.43754V37.9844C3.43371 36.865 3.67666 35.7585 4.1491 34.7437L7.73442 26.9646V38.6719C7.73383 39.6983 7.9969 40.7076 8.4984 41.6032C8.5631 41.7481 8.66666 41.8722 8.79759 41.9619C8.92852 42.0515 9.08172 42.1032 9.2402 42.1111C9.39869 42.119 9.55627 42.0829 9.69549 42.0068C9.83471 41.9306 9.95012 41.8174 10.0289 41.6797L13.8961 34.9817C14.1257 34.5902 14.5008 34.3053 14.9396 34.1893C15.3783 34.0733 15.8452 34.1356 16.2383 34.3625C16.6313 34.5894 16.9187 34.9626 17.0376 35.4006C17.1565 35.8386 17.0973 36.3059 16.873 36.7005L13.0058 43.3984C12.929 43.5314 12.8892 43.6825 12.8905 43.8361C12.8919 43.9896 12.9344 44.14 13.0136 44.2716L14.8543 47.3309C15.2559 48.0002 15.4682 48.7659 15.4688 49.5464V53.2727H17.1875V49.5464C17.1874 48.4541 16.8904 47.3823 16.3282 46.4458L15.2703 44.6875H30.9375C32.5324 44.6857 34.0615 44.0513 35.1892 42.9236C36.317 41.7958 36.9513 40.2668 36.9532 38.6719V34.375H35.2344V38.6719ZM20.625 37.8125H24.0625C24.2905 37.8125 24.509 37.903 24.6702 38.0642C24.8314 38.2254 24.9219 38.444 24.9219 38.6719C24.9219 38.8998 24.8314 39.1184 24.6702 39.2795C24.509 39.4407 24.2905 39.5312 24.0625 39.5312H20.625C20.3971 39.5312 20.1785 39.4407 20.0174 39.2795C19.8562 39.1184 19.7657 38.8998 19.7657 38.6719C19.7657 38.444 19.8562 38.2254 20.0174 38.0642C20.1785 37.903 20.3971 37.8125 20.625 37.8125Z" fill="#2855AF"/>
<path d="M50.7993 11.8765C48.8665 9.11005 45.9839 7.15099 42.7003 6.37229C39.4167 5.5936 35.9614 6.04967 32.9922 7.65367C30.0231 9.25766 27.7475 11.8976 26.5987 15.0707C25.45 18.2439 25.5083 21.7287 26.7625 24.8616L23.8579 29.7859C23.7741 29.9276 23.7328 30.0904 23.7389 30.255C23.745 30.4195 23.7982 30.5788 23.8922 30.714C23.9887 30.8489 24.1215 30.9536 24.2751 31.016C24.4288 31.0783 24.597 31.0958 24.7602 31.0663L30.3719 30.0179C32.2774 31.7261 34.6234 32.8663 37.1438 33.3093C37.9358 33.4455 38.7379 33.5145 39.5415 33.5155C42.0568 33.5148 44.5238 32.8242 46.6738 31.5187C48.8239 30.2132 50.5747 28.343 51.7356 26.1116C52.8965 23.8802 53.423 21.373 53.258 18.8631C53.0929 16.3532 52.2425 13.9366 50.7993 11.8765ZM51.3836 21.8538C51.0057 23.9976 50.0531 25.9987 48.6276 27.6439C47.202 29.289 45.3568 30.5165 43.2885 31.1956C41.2203 31.8748 39.0066 31.98 36.8832 31.5002C34.7599 31.0204 32.8065 29.9735 31.2313 28.471C31.0701 28.3214 30.8582 28.2385 30.6383 28.239C30.5866 28.2376 30.5349 28.2404 30.4836 28.2476L26.2985 29.0296L28.4641 25.3687C28.5314 25.2508 28.5711 25.1191 28.58 24.9836C28.5889 24.8481 28.5669 24.7124 28.5157 24.5866C27.5572 22.4176 27.2669 20.012 27.6821 17.6773C28.2359 14.5342 30.0157 11.74 32.6297 9.90914C33.9241 9.00261 35.3843 8.3599 36.9271 8.0177C38.4698 7.67551 40.0649 7.64053 41.6211 7.91477C43.1774 8.189 44.6644 8.76708 45.9973 9.616C47.3301 10.4649 48.4827 11.5681 49.3893 12.8624C50.2958 14.1568 50.9385 15.617 51.2807 17.1598C51.6229 18.7025 51.6579 20.2976 51.3836 21.8538Z" fill="#7CCCDB"/>
<path d="M45.5469 14.6094H42.9688V13.75C42.9688 12.8383 42.6066 11.964 41.9619 11.3193C41.3173 10.6747 40.4429 10.3125 39.5312 10.3125C38.6196 10.3125 37.7452 10.6747 37.1006 11.3193C36.4559 11.964 36.0938 12.8383 36.0938 13.75V14.6094H33.5156C33.2877 14.6094 33.0691 14.6999 32.908 14.8611C32.7468 15.0222 32.6562 15.2408 32.6562 15.4688V25.7812C32.6583 26.4644 32.9306 27.119 33.4136 27.602C33.8967 28.0851 34.5512 28.3573 35.2344 28.3594H43.8281C44.5113 28.3573 45.1658 28.0851 45.6489 27.602C46.1319 27.119 46.4042 26.4644 46.4062 25.7812V15.4688C46.4062 15.2408 46.3157 15.0222 46.1545 14.8611C45.9934 14.6999 45.7748 14.6094 45.5469 14.6094ZM37.8125 13.75C37.8125 13.2942 37.9936 12.857 38.3159 12.5347C38.6382 12.2123 39.0754 12.0312 39.5312 12.0312C39.9871 12.0312 40.4243 12.2123 40.7466 12.5347C41.0689 12.857 41.25 13.2942 41.25 13.75V14.6094H37.8125V13.75ZM44.6875 25.7812C44.6875 26.0092 44.597 26.2278 44.4358 26.3889C44.2746 26.5501 44.056 26.6406 43.8281 26.6406H35.2344C35.0065 26.6406 34.7879 26.5501 34.6267 26.3889C34.4655 26.2278 34.375 26.0092 34.375 25.7812V24.9219H44.6875V25.7812ZM44.6875 23.2031H34.375V16.3281H36.0938V18.0469H37.8125V16.3281H41.25V18.0469H42.9688V16.3281H44.6875V23.2031Z" fill="#7CCCDB"/>
<path d="M19.1564 13.1421L17.833 14.4655C16.9422 13.8759 15.8641 13.6382 14.808 13.7984C13.7518 13.9586 12.7927 14.5053 12.1168 15.3326C11.441 16.1598 11.0964 17.2086 11.15 18.2756C11.2035 19.3425 11.6515 20.3515 12.4068 21.1068C13.1622 21.8622 14.1712 22.3101 15.2381 22.3637C16.3051 22.4173 17.3538 22.0727 18.1811 21.3968C19.0084 20.7209 19.5551 19.7619 19.7153 18.7057C19.8755 17.6495 19.6378 16.5715 19.0482 15.6807L20.3716 14.3572L19.1564 13.1421ZM18.0453 18.0465C18.0453 18.5564 17.8941 19.0549 17.6108 19.4789C17.3275 19.9028 16.9248 20.2333 16.4538 20.4284C15.9827 20.6235 15.4643 20.6746 14.9642 20.5751C14.4641 20.4756 14.0047 20.2301 13.6441 19.8695C13.2836 19.509 13.038 19.0496 12.9386 18.5495C12.8391 18.0494 12.8901 17.531 13.0853 17.0599C13.2804 16.5888 13.6108 16.1862 14.0348 15.9029C14.4588 15.6196 14.9572 15.4684 15.4671 15.4684C15.85 15.4699 16.2275 15.558 16.5714 15.7262L14.0002 18.2975L15.2154 19.5126L17.7875 16.9422C17.9556 17.2862 18.0438 17.6637 18.0453 18.0465Z" fill="#2855AF"/>
<path d="M21.4844 15.4688H24.9219V17.1875H21.4844V15.4688Z" fill="#2855AF"/>
<path d="M21.4844 18.9062H24.9219V20.625H21.4844V18.9062Z" fill="#2855AF"/>
</svg>
