<svg width="55" height="55" viewBox="0 0 55 55" fill="none" xmlns="http://www.w3.org/2000/svg">
<path d="M50.6763 6.5874H14.996C14.502 6.5874 14.1016 6.98787 14.1016 7.4818C14.1016 7.97572 14.502 8.37619 14.996 8.37619H50.6761C52.073 8.37619 53.2093 9.51271 53.2093 10.9094V44.0903C53.2093 45.4873 52.0728 46.6236 50.6761 46.6236H22.3703C21.8764 46.6236 21.476 47.024 21.476 47.518C21.476 48.0119 21.8764 48.4123 22.3703 48.4123H50.6761C53.0593 48.4123 54.9981 46.4736 54.9982 44.0903V10.9094C54.9983 8.52615 53.0594 6.5874 50.6763 6.5874Z" fill="#2855AF"/>
<path d="M18.7946 46.6245H4.322C2.92509 46.6245 1.78879 45.488 1.78879 44.0913V10.9103C1.78879 9.51347 2.92509 8.37716 4.322 8.37716H11.4201C11.914 8.37716 12.3145 7.9767 12.3145 7.48277C12.3145 6.98885 11.914 6.58838 11.4201 6.58838H4.322C1.93875 6.58838 0 8.52713 0 10.9103V44.0913C0 46.4745 1.93875 48.4132 4.322 48.4132H18.7945C19.2884 48.4132 19.6889 48.0128 19.6889 47.5188C19.6889 47.0249 19.2885 46.6245 18.7946 46.6245Z" fill="#2855AF"/>
<path d="M48.9973 18.1199H5.99986C5.50594 18.1199 5.10547 18.5203 5.10547 19.0143V42.2741C5.10547 42.768 5.50594 43.1685 5.99986 43.1685H37.8244C38.3183 43.1685 38.7188 42.768 38.7188 42.2741C38.7188 41.7801 38.3183 41.3797 37.8244 41.3797H6.89425V19.9087H48.1029V41.3797H41.402C40.908 41.3797 40.5076 41.7801 40.5076 42.2741C40.5076 42.768 40.908 43.1685 41.402 43.1685H48.9973C49.4912 43.1685 49.8917 42.768 49.8917 42.2741V19.0143C49.8917 18.5203 49.4912 18.1199 48.9973 18.1199Z" fill="#7CCCDB"/>
<path d="M47.0196 15.2282C48.1134 15.2282 49.0001 14.3414 49.0001 13.2476C49.0001 12.1538 48.1134 11.2671 47.0196 11.2671C45.9258 11.2671 45.0391 12.1538 45.0391 13.2476C45.0391 14.3414 45.9258 15.2282 47.0196 15.2282Z" fill="#2855AF"/>
<path d="M41.0548 15.2282C42.1486 15.2282 43.0353 14.3414 43.0353 13.2476C43.0353 12.1538 42.1486 11.2671 41.0548 11.2671C39.9609 11.2671 39.0742 12.1538 39.0742 13.2476C39.0742 14.3414 39.9609 15.2282 41.0548 15.2282Z" fill="#2855AF"/>
<path d="M35.0899 15.2282C36.1837 15.2282 37.0704 14.3414 37.0704 13.2476C37.0704 12.1538 36.1837 11.2671 35.0899 11.2671C33.9961 11.2671 33.1094 12.1538 33.1094 13.2476C33.1094 14.3414 33.9961 15.2282 35.0899 15.2282Z" fill="#2855AF"/>
</svg>
