<svg width="55" height="55" viewBox="0 0 55 55" fill="none" xmlns="http://www.w3.org/2000/svg">
<path d="M33.5998 31.0004H32.7198C32.3888 31.001 32.0927 30.7945 31.979 30.4836C31.8814 30.2276 31.7766 29.9772 31.6638 29.7292C31.5236 29.4276 31.5876 29.0705 31.8238 28.8364L32.451 28.2084C33.3821 27.2691 33.3804 25.7543 32.447 24.8172L30.1862 22.5565C29.2479 21.6237 27.7325 21.6237 26.7942 22.5565L26.167 23.1829C25.9324 23.4182 25.5759 23.4821 25.2742 23.3429C25.0262 23.2301 24.7758 23.1253 24.519 23.0229C24.2066 22.91 23.9987 22.6128 23.9999 22.2805V21.4005C23.9999 20.075 22.9254 19.0005 21.5999 19.0005H18.3999C17.0744 19.0005 15.9999 20.075 15.9999 21.4005V22.2805C16.0005 22.6115 15.794 22.9076 15.4831 23.0213C15.2271 23.1189 14.9767 23.2237 14.7287 23.3365C14.427 23.476 14.0704 23.4121 13.8359 23.1765L13.2079 22.5493C12.2697 21.6171 10.755 21.6171 9.81676 22.5493L7.55597 24.8172C6.62318 25.7555 6.62318 27.2709 7.55597 28.2092L8.18237 28.8364C8.41857 29.0705 8.48257 29.4276 8.34237 29.7292C8.22957 29.9772 8.12477 30.2276 8.02637 30.4844C7.91187 30.7971 7.61297 31.0038 7.27998 31.0004H6.39998C5.07449 31.0004 4 32.0749 4 33.4004V36.6004C4 37.9258 5.07449 39.0003 6.39998 39.0003H7.27998C7.61097 38.9997 7.90707 39.2062 8.02077 39.5171C8.11837 39.7731 8.22317 40.0235 8.33597 40.2715C8.47617 40.5731 8.41217 40.9302 8.17597 41.1643L7.54877 41.7923C6.61658 42.7305 6.61658 44.2453 7.54877 45.1835L9.80956 47.4443C10.7479 48.3771 12.2632 48.3771 13.2015 47.4443L13.8287 46.8179C14.0633 46.5826 14.4198 46.5187 14.7215 46.6579C14.9695 46.7707 15.2199 46.8755 15.4767 46.9779C15.7908 47.0895 16.0005 47.387 15.9999 47.7203V48.6003C15.9999 49.9258 17.0744 51.0002 18.3999 51.0002H21.5999C22.9254 51.0002 23.9999 49.9258 23.9999 48.6003V47.7203C23.9993 47.3893 24.2058 47.0932 24.5166 46.9795C24.7726 46.8819 25.023 46.7771 25.271 46.6643C25.5727 46.5248 25.9293 46.5887 26.1638 46.8243L26.7918 47.4515C27.7313 48.3822 29.2457 48.3804 30.183 47.4475L32.4438 45.1867C33.3766 44.2484 33.3766 42.733 32.4438 41.7947L31.8174 41.1675C31.5812 40.9334 31.5172 40.5763 31.6574 40.2747C31.7702 40.0267 31.875 39.7763 31.9774 39.5195C32.0903 39.207 32.3875 38.9991 32.7198 39.0003H33.5998C34.9253 39.0003 35.9998 37.9258 35.9998 36.6004V33.4004C35.9998 32.0749 34.9253 31.0004 33.5998 31.0004ZM34.3998 36.6004C34.3998 37.0422 34.0416 37.4004 33.5998 37.4004H32.7198C31.7253 37.4041 30.8353 38.0187 30.4798 38.9475C30.395 39.1715 30.3033 39.392 30.2046 39.6091C29.7933 40.5171 29.9841 41.5847 30.6846 42.2939L31.3102 42.9203C31.6228 43.2325 31.6231 43.7391 31.3108 44.0517C31.3106 44.0519 31.3104 44.0521 31.3102 44.0523L29.0494 46.3131C28.737 46.6254 28.2306 46.6254 27.9182 46.3131L27.291 45.6867C26.5821 44.9856 25.5141 44.7947 24.6062 45.2067C24.3895 45.3051 24.1687 45.3971 23.9463 45.4819C23.0182 45.8373 22.4039 46.7265 22.3999 47.7203V48.6003C22.3999 49.0421 22.0417 49.4003 21.5999 49.4003H18.3999C17.9581 49.4003 17.5999 49.0421 17.5999 48.6003V47.7203C17.5962 46.7258 16.9815 45.8358 16.0527 45.4803C15.8287 45.3955 15.6082 45.3038 15.3911 45.2051C14.4831 44.794 13.4156 44.9849 12.7063 45.6851L12.0799 46.3107C11.7677 46.6233 11.2611 46.6236 10.9485 46.3113C10.9483 46.3111 10.9481 46.3109 10.9479 46.3107L8.68717 44.0523C8.37487 43.7399 8.37487 43.2335 8.68717 42.9211L9.31356 42.2939C10.0141 41.5847 10.2049 40.5171 9.79356 39.6091C9.69516 39.3923 9.60316 39.1715 9.51836 38.9491C9.16376 38.02 8.27437 37.4048 7.27998 37.4004H6.39998C5.95819 37.4004 5.59999 37.0422 5.59999 36.6004V33.4004C5.59999 32.9586 5.95819 32.6004 6.39998 32.6004H7.27998C8.27447 32.5967 9.16446 31.982 9.51996 31.0532C9.60476 30.8292 9.69646 30.6087 9.79516 30.3916C10.2065 29.4836 10.0156 28.416 9.31516 27.7068L8.68637 27.0804C8.37377 26.7682 8.37347 26.2616 8.68577 25.949C8.68597 25.9488 8.68617 25.9486 8.68637 25.9484L10.9471 23.6877C11.2595 23.3754 11.7659 23.3754 12.0783 23.6877L12.7055 24.314C13.4144 25.0151 14.4824 25.206 15.3903 24.794C15.6071 24.6956 15.8279 24.6036 16.0503 24.5188C16.9797 24.1646 17.5954 23.2751 17.5999 22.2805V21.4005C17.5999 20.9587 17.9581 20.6005 18.3999 20.6005H21.5999C22.0417 20.6005 22.3999 20.9587 22.3999 21.4005V22.2805C22.4036 23.275 23.0183 24.1649 23.9471 24.5204C24.1711 24.6052 24.3916 24.6969 24.6086 24.7956C25.5165 25.2076 26.5845 25.0167 27.2934 24.3156L27.9198 23.6901C28.2334 23.3799 28.7382 23.3799 29.0518 23.6901L31.3126 25.9508C31.6249 26.2632 31.6249 26.7696 31.3126 27.082L30.6862 27.7092C29.9858 28.4184 29.7949 29.486 30.2062 30.394C30.3046 30.6108 30.3966 30.8316 30.4814 31.054C30.8368 31.9821 31.726 32.5964 32.7198 32.6004H33.5998C34.0416 32.6004 34.3998 32.9586 34.3998 33.4004V36.6004Z" fill="#2855AF"/>
<path d="M27.1849 34.6793C27.1769 34.4873 27.1633 34.2961 27.1401 34.1057C27.1145 33.9009 27.0841 33.6977 27.0417 33.4985C27.0137 33.3681 26.9769 33.2393 26.9417 33.1097C26.8969 32.9449 26.8465 32.7825 26.7905 32.6225C26.7513 32.5113 26.7105 32.4009 26.6689 32.2913C26.5659 32.0351 26.4481 31.785 26.3161 31.5425C26.3057 31.5241 26.2993 31.5041 26.2889 31.4857C26.0808 31.1153 25.8398 30.7642 25.5689 30.4369C25.5457 30.4081 25.5193 30.3809 25.4953 30.3529C25.3849 30.2225 25.2713 30.0961 25.1521 29.9753C25.0897 29.9105 25.0241 29.8497 24.9585 29.7873C24.8785 29.7129 24.7985 29.6393 24.7185 29.5689C24.6214 29.4846 24.5225 29.403 24.4217 29.3241L24.2905 29.2265C23.0526 28.2993 21.5476 27.7985 20.001 27.7993C19.921 27.7993 19.841 27.8113 19.761 27.8145C19.5906 27.8193 19.4194 27.8289 19.2474 27.8465C19.157 27.8561 19.0658 27.8665 18.9754 27.8793C18.7146 27.9136 18.4558 27.962 18.2002 28.0241C14.3481 29.0195 12.0323 32.9493 13.0277 36.8014C13.6837 39.3397 15.6669 41.3213 18.2058 41.9752C18.2186 41.9752 18.2322 41.9792 18.2458 41.9824C18.5221 42.0513 18.802 42.1048 19.0842 42.1424C19.2706 42.1656 19.457 42.1704 19.6442 42.1792C19.769 42.1856 19.8842 42.204 20.0146 42.204C20.2426 42.204 20.4794 42.1888 20.721 42.1648C20.7466 42.1648 20.7722 42.1576 20.801 42.1544C20.9954 42.1328 21.1922 42.104 21.393 42.064C21.473 42.0488 21.5474 42.0288 21.6242 42.0112C21.765 41.9784 21.905 41.944 22.049 41.9016C22.161 41.868 22.2698 41.8288 22.3794 41.7904C22.489 41.752 22.6025 41.7104 22.7161 41.6672C22.8297 41.624 22.9249 41.5744 23.0281 41.5264C23.1625 41.4648 23.2961 41.404 23.4281 41.332H23.4329C24.1795 40.9323 24.8691 40.4343 25.4833 39.8512C25.6492 39.6964 25.7935 39.5198 25.9121 39.3264C26.5365 38.3254 26.9467 37.206 27.1169 36.0385C27.1393 35.8841 27.1593 35.7297 27.1713 35.5721C27.1825 35.4273 27.1905 35.2833 27.1937 35.1393C27.1937 35.0937 27.2001 35.0505 27.2001 35.0049C27.2009 34.8921 27.1897 34.7881 27.1849 34.6793ZM25.5905 35.2033C25.5905 35.2697 25.5849 35.3361 25.5809 35.4017C25.5665 35.5953 25.5417 35.7889 25.5089 35.9833C25.2099 37.6466 24.1772 39.0865 22.6978 39.9032C22.5986 39.9552 22.501 40.004 22.4034 40.0488L22.337 40.0808C21.8722 40.2918 21.3816 40.4403 20.8778 40.5224C20.8426 40.528 20.8066 40.5344 20.7706 40.5392C20.6706 40.5536 20.5722 40.5656 20.4746 40.5744C20.3458 40.5856 20.2162 40.592 20.0842 40.5944C20.0282 40.5944 19.973 40.5944 19.917 40.5944C19.7277 40.5922 19.5387 40.5805 19.3506 40.5592L19.2546 40.548C19.0346 40.5192 18.8164 40.4781 18.601 40.4248C15.6048 39.6579 13.7976 36.6074 14.5644 33.6112C15.0711 31.6314 16.6161 30.0848 18.5954 29.5761V29.5753C19.055 29.4594 19.527 29.4002 20.001 29.3993C20.2297 29.4006 20.4582 29.4161 20.685 29.4457C20.7458 29.4529 20.8058 29.4641 20.8658 29.4729C21.0386 29.5001 21.2098 29.5345 21.3786 29.5777C21.4338 29.5921 21.489 29.6049 21.5434 29.6201C21.9688 29.7429 22.3783 29.9153 22.7633 30.1337C22.8249 30.1697 22.8849 30.2073 22.9457 30.2449C23.0721 30.3249 23.1945 30.4049 23.3153 30.4961C23.3801 30.5433 23.4457 30.5897 23.5081 30.6401C23.6651 30.7655 23.8154 30.899 23.9585 31.0401C24.0153 31.0977 24.0673 31.1609 24.1225 31.2209C24.2145 31.3209 24.3041 31.4233 24.3897 31.5313C24.4489 31.6057 24.5057 31.6825 24.5617 31.7601C24.6417 31.8753 24.7217 31.9953 24.7937 32.1169C24.8337 32.1833 24.8737 32.2481 24.9145 32.3161C25.0177 32.506 25.1096 32.7018 25.1897 32.9025C25.2217 32.9825 25.2489 33.0625 25.2777 33.1425C25.3297 33.2897 25.3745 33.4385 25.4137 33.5889C25.4337 33.6689 25.4561 33.7401 25.4729 33.8177C25.5196 34.0339 25.5535 34.2527 25.5745 34.4729C25.5793 34.5313 25.5793 34.5905 25.5833 34.6489C25.5945 34.8329 25.5977 35.0177 25.5905 35.2033Z" fill="#2855AF"/>
<path d="M49.6002 19.7999H47.0842C46.7487 19.8033 46.4486 19.592 46.3386 19.2751C46.0905 18.532 45.7903 17.8072 45.4402 17.1063C45.2916 16.8036 45.3535 16.4397 45.5938 16.2031L47.3778 14.4167C48.3142 13.4796 48.3142 11.961 47.3778 11.0239L43.9762 7.62797C43.0391 6.69157 41.5205 6.69157 40.5834 7.62797L38.8002 9.41035C38.5639 9.65055 38.2006 9.71275 37.8979 9.56475C37.1969 9.21285 36.4719 8.91106 35.7283 8.66156C35.4101 8.55266 35.1973 8.25226 35.2003 7.91596V5.39998C35.2003 4.07449 34.1258 3 32.8003 3H28.0003C26.6748 3 25.6003 4.07449 25.6003 5.39998V7.91596C25.6037 8.25146 25.3925 8.55156 25.0755 8.66156C24.3324 8.91096 23.6076 9.21255 22.9068 9.56395C22.6041 9.71305 22.24 9.65115 22.0036 9.41035L20.2172 7.62637C19.279 6.69267 17.7626 6.69267 16.8244 7.62637L13.4292 11.0215C12.4923 11.9587 12.4923 13.4779 13.4292 14.4151L16.0524 17.0431C16.3697 17.3505 16.8762 17.3425 17.1836 17.0251C17.4835 16.7155 17.4842 16.2239 17.1852 15.9135L14.5604 13.2863C14.2481 12.9739 14.2481 12.4675 14.5604 12.1551L17.9556 8.75996C18.268 8.44766 18.7744 8.44766 19.0868 8.75996L20.874 10.5439C21.5971 11.2713 22.7051 11.4531 23.6228 10.9951C24.2565 10.6778 24.9116 10.4054 25.5835 10.1799C26.5533 9.85165 27.2045 8.93986 27.2003 7.91596V5.39998C27.2003 4.95819 27.5585 4.59999 28.0003 4.59999H32.8003C33.2421 4.59999 33.6003 4.95819 33.6003 5.39998V7.91596C33.5962 8.93966 34.2474 9.85115 35.2171 10.1791C35.8893 10.4047 36.5448 10.6773 37.1787 10.9951C38.0965 11.4507 39.203 11.2687 39.9266 10.5431L41.7138 8.75996C42.0262 8.44766 42.5326 8.44766 42.845 8.75996L46.2402 12.1559C46.552 12.4682 46.552 12.974 46.2402 13.2863L44.4562 15.0735C43.7295 15.797 43.5478 16.9045 44.005 17.8223C44.3223 18.456 44.5947 19.1112 44.8202 19.7831C45.1483 20.7531 46.0602 21.4043 47.0842 21.3999H49.6002C50.042 21.3999 50.4002 21.7581 50.4002 22.1999V26.9998C50.4002 27.4416 50.042 27.7998 49.6002 27.7998H47.0842C46.0605 27.7957 45.149 28.4469 44.821 29.4166C44.5955 30.0888 44.3228 30.7443 44.005 31.3782C43.5486 32.296 43.7307 33.4029 44.457 34.1262L46.241 35.9134C46.5533 36.2258 46.5533 36.7322 46.241 37.0445L42.8442 40.4397C42.5319 40.7515 42.0261 40.7515 41.7138 40.4397L39.085 37.8165C38.7776 37.4991 38.2711 37.4911 37.9539 37.7985C37.6365 38.1059 37.6285 38.6124 37.9359 38.9297C37.9422 38.9363 37.9489 38.9429 37.9555 38.9493L40.5834 41.5725C41.5205 42.5089 43.0391 42.5089 43.9762 41.5725L47.3714 38.1781C48.3083 37.2409 48.3083 35.7218 47.3714 34.7846L45.5898 32.9998C45.3498 32.7634 45.2877 32.4001 45.4354 32.0974C45.7873 31.3964 46.0891 30.6714 46.3386 29.9278C46.4475 29.6096 46.7479 29.3968 47.0842 29.3998H49.6002C50.9257 29.3998 52.0001 28.3253 52.0001 26.9998V22.1999C52.0001 20.8744 50.9257 19.7999 49.6002 19.7999Z" fill="#7CCCDB"/>
<path d="M37.7519 17.2465C33.6882 13.1913 27.1086 13.1913 23.0448 17.2465C22.7379 17.5643 22.7467 18.0708 23.0645 18.3777C23.3745 18.6771 23.866 18.6771 24.176 18.3777C27.5895 14.9181 33.1612 14.8808 36.6208 18.2943C40.0803 21.7078 40.1176 27.2795 36.7042 30.739C36.6766 30.767 36.6488 30.7948 36.6208 30.8224C36.303 31.1294 36.2942 31.6358 36.6012 31.9536C36.9082 32.2714 37.4145 32.2802 37.7323 31.9732C37.7389 31.9668 37.7455 31.9602 37.7519 31.9536C41.8072 27.8898 41.8072 21.3103 37.7519 17.2465Z" fill="#7CCCDB"/>
</svg>
