<svg width="55" height="55" viewBox="0 0 55 55" fill="none" xmlns="http://www.w3.org/2000/svg">
<path d="M46.0449 5H8.95508C6.77425 5 5 6.77425 5 8.95508V49.1211C5 49.6065 5.39349 50 5.87891 50H49.1211C49.6065 50 50 49.6065 50 49.1211V8.95508C50 6.77425 48.2258 5 46.0449 5ZM48.2422 48.2422H6.75781V15.1953H40.4199C40.9053 15.1953 41.2988 14.8018 41.2988 14.3164C41.2988 13.831 40.9053 13.4375 40.4199 13.4375H6.75781V8.95508C6.75781 7.74351 7.74351 6.75781 8.95508 6.75781H46.0449C47.2565 6.75781 48.2422 7.74351 48.2422 8.95508V48.2422Z" fill="#2855AF"/>
<path d="M12.3828 7.46094C10.9289 7.46094 9.74609 8.64377 9.74609 10.0977C9.74609 11.5515 10.9289 12.7344 12.3828 12.7344C13.8367 12.7344 15.0195 11.5515 15.0195 10.0977C15.0195 8.64377 13.8367 7.46094 12.3828 7.46094ZM12.3828 10.9766C11.8982 10.9766 11.5039 10.5823 11.5039 10.0977C11.5039 9.61303 11.8982 9.21875 12.3828 9.21875C12.8674 9.21875 13.2617 9.61303 13.2617 10.0977C13.2617 10.5823 12.8674 10.9766 12.3828 10.9766Z" fill="#2855AF"/>
<path d="M19.1328 7.46094C17.6789 7.46094 16.4961 8.64377 16.4961 10.0977C16.4961 11.5515 17.6789 12.7344 19.1328 12.7344C20.5867 12.7344 21.7695 11.5515 21.7695 10.0977C21.7695 8.64377 20.5867 7.46094 19.1328 7.46094ZM19.1328 10.9766C18.6482 10.9766 18.2539 10.5823 18.2539 10.0977C18.2539 9.61303 18.6482 9.21875 19.1328 9.21875C19.6174 9.21875 20.0117 9.61303 20.0117 10.0977C20.0117 10.5823 19.6174 10.9766 19.1328 10.9766Z" fill="#2855AF"/>
<path d="M25.8828 7.46094C24.4289 7.46094 23.2461 8.64377 23.2461 10.0977C23.2461 11.5515 24.4289 12.7344 25.8828 12.7344C27.3367 12.7344 28.5195 11.5515 28.5195 10.0977C28.5195 8.64377 27.3367 7.46094 25.8828 7.46094ZM25.8828 10.9766C25.3982 10.9766 25.0039 10.5823 25.0039 10.0977C25.0039 9.61303 25.3982 9.21875 25.8828 9.21875C26.3674 9.21875 26.7617 9.61303 26.7617 10.0977C26.7617 10.5823 26.3674 10.9766 25.8828 10.9766Z" fill="#2855AF"/>
<path d="M44.375 17.5315H31.6309C31.1454 17.5315 30.752 17.925 30.752 18.4104C30.752 18.8958 31.1454 19.2893 31.6309 19.2893H43.4961V29.4846H11.5039V19.2893H23.457C23.9425 19.2893 24.3359 18.8958 24.3359 18.4104C24.3359 17.925 23.9425 17.5315 23.457 17.5315H10.625C10.1396 17.5315 9.74609 17.925 9.74609 18.4104V30.3635C9.74609 30.849 10.1396 31.2424 10.625 31.2424H44.375C44.8604 31.2424 45.2539 30.849 45.2539 30.3635V18.4104C45.2539 17.9251 44.8604 17.5315 44.375 17.5315Z" fill="#7CCCDB"/>
<path d="M19.7656 34.3555H10.625C10.1396 34.3555 9.74609 34.749 9.74609 35.2344V44.375C9.74609 44.8604 10.1396 45.2539 10.625 45.2539H19.7656C20.251 45.2539 20.6445 44.8604 20.6445 44.375V35.2344C20.6445 34.749 20.251 34.3555 19.7656 34.3555ZM18.8867 43.4961H11.5039V36.1133H18.8867V43.4961Z" fill="#2855AF"/>
<path d="M32.0703 34.3555H22.9297C22.4443 34.3555 22.0508 34.749 22.0508 35.2344V44.375C22.0508 44.8604 22.4443 45.2539 22.9297 45.2539H32.0703C32.5557 45.2539 32.9492 44.8604 32.9492 44.375V35.2344C32.9492 34.749 32.5557 34.3555 32.0703 34.3555ZM31.1914 43.4961H23.8086V36.1133H31.1914V43.4961Z" fill="#2855AF"/>
<path d="M44.375 34.3555H35.2344C34.749 34.3555 34.3555 34.749 34.3555 35.2344V44.375C34.3555 44.8604 34.749 45.2539 35.2344 45.2539H44.375C44.8604 45.2539 45.2539 44.8604 45.2539 44.375V35.2344C45.2539 34.749 44.8604 34.3555 44.375 34.3555ZM43.4961 43.4961H36.1133V36.1133H43.4961V43.4961Z" fill="#2855AF"/>
<path d="M44.9964 13.695C44.8329 13.5315 44.6062 13.4375 44.375 13.4375C44.1438 13.4375 43.9171 13.5315 43.7536 13.695C43.5901 13.8585 43.4961 14.0853 43.4961 14.3164C43.4961 14.5476 43.5901 14.7743 43.7536 14.9378C43.9171 15.1013 44.1438 15.1953 44.375 15.1953C44.6062 15.1953 44.8329 15.1013 44.9964 14.9378C45.1599 14.7743 45.2539 14.5476 45.2539 14.3164C45.2539 14.0853 45.1599 13.8585 44.9964 13.695Z" fill="#2855AF"/>
<path d="M28.262 17.7885C28.0985 17.625 27.8726 17.531 27.6406 17.531C27.4095 17.531 27.1827 17.625 27.0192 17.7885C26.8558 17.952 26.7617 18.1788 26.7617 18.4099C26.7617 18.6419 26.8558 18.8678 27.0192 19.0313C27.1827 19.1957 27.4095 19.2888 27.6406 19.2888C27.8718 19.2888 28.0985 19.1957 28.262 19.0313C28.4255 18.8678 28.5195 18.6419 28.5195 18.4099C28.5195 18.1788 28.4255 17.952 28.262 17.7885Z" fill="#7CCCDB"/>
</svg>
