<svg xmlns="http://www.w3.org/2000/svg" viewBox="0 0 1062.69 325.55"><defs><style>.cls-1{isolation:isolate;}.cls-2,.cls-23,.cls-24,.cls-25,.cls-3,.cls-6{fill:none;}.cls-2{stroke:#c8e5c9;stroke-width:0.89px;}.cls-17,.cls-2,.cls-23,.cls-24,.cls-25,.cls-3,.cls-6{stroke-miterlimit:10;}.cls-3{stroke:#c7c9c7;stroke-width:2px;}.cls-4{fill:#005eb8;}.cls-5{fill:#9fd5f4;}.cls-6{stroke:#bdddf4;}.cls-7{fill:#2fbaba;}.cls-8{fill:#b4dffc;}.cls-9{fill:#50a4ff;}.cls-10{fill:#70bef2;opacity:0.3;mix-blend-mode:multiply;}.cls-11{fill:#bdddf4;}.cls-12{fill:#edf4f9;}.cls-13{fill:#d7eeff;}.cls-14{fill:#3b3e54;}.cls-15{fill:#1a1c2e;}.cls-16,.cls-17{fill:#fff;}.cls-17{stroke:#fff;}.cls-18{fill:#fbb040;}.cls-19{fill:#ed8b00;}.cls-20{fill:#8ce0e0;}.cls-21{fill:#86cef7;}.cls-22{opacity:0.5;}.cls-23{stroke:#fbb040;}.cls-23,.cls-24,.cls-25{stroke-width:3px;}.cls-24{stroke:#50a4ff;}.cls-25{stroke:#8ce0e0;}</style></defs><title>data-analytics</title><g class="cls-1"><g id="Layer_2" data-name="Layer 2"><g id="Design"><path class="cls-2" d="M660.86,227.5a62.18,62.18,0,1,1,24.28-4.9A62,62,0,0,1,660.86,227.5Zm0-124.12a61.74,61.74,0,1,0,61.74,61.74A61.81,61.81,0,0,0,660.86,103.39Z"/><line class="cls-3" x1="620.75" y1="56.37" x2="634.24" y2="56.37"/><line class="cls-3" x1="217.66" y1="204.65" x2="194.17" y2="204.65"/><circle class="cls-4" cx="771.02" cy="219.63" r="56.37"/><path class="cls-5" d="M659.16,320.31c43.24-.9,86.48.9,129.71,0,.12-.24,3-6,0-10.75-2.8-4.41-9.56-6.1-15.39-2.9-.49-.91-4.81-8.62-14.18-10.16a20.39,20.39,0,0,0-16.13,4.61c-.38-1.1-4.49-12.21-15.74-15.36-9.79-2.74-20.83,1.69-26.88,11.14a18.64,18.64,0,0,0-15.36-2.3c-9,2.81-11.71,11.61-11.9,12.29a11.39,11.39,0,0,0-12.67,2.69C657.25,313.17,656.64,316,659.16,320.31Z"/><circle class="cls-6" cx="444.63" cy="153.13" r="96.56"/><path class="cls-6" d="M340.6,275.67A46.78,46.78,0,1,1,358.87,272,46.64,46.64,0,0,1,340.6,275.67Zm0-93.38a46.45,46.45,0,1,0,46.45,46.45A46.51,46.51,0,0,0,340.6,182.29Z"/><circle class="cls-7" cx="262.58" cy="204.65" r="56.37"/><path class="cls-8" d="M232.18,318.16c43.24-.9,86.48.9,129.71,0,.12-.24,3-6,0-10.75-2.8-4.41-9.56-6.1-15.39-2.9-.49-.91-4.81-8.62-14.18-10.16A20.39,20.39,0,0,0,316.2,299c-.38-1.1-4.49-12.21-15.74-15.36-9.79-2.74-20.83,1.69-26.88,11.14a18.64,18.64,0,0,0-15.36-2.3c-9,2.81-11.71,11.61-11.9,12.29a11.39,11.39,0,0,0-12.67,2.69C230.27,311,229.66,313.81,232.18,318.16Z"/><circle class="cls-9" cx="564.74" cy="56.37" r="56.37"/><ellipse class="cls-10" cx="519.89" cy="313.12" rx="186.68" ry="11.24"/><circle class="cls-11" cx="199.25" cy="279.78" r="7.16"/><circle class="cls-11" cx="183.34" cy="250.27" r="4.77"/><circle class="cls-11" cx="700.8" cy="171.17" r="4.93"/><circle class="cls-11" cx="338.57" cy="214.27" r="2.96"/><circle class="cls-11" cx="812.96" cy="291.14" r="2.96"/><path class="cls-8" d="M415.92,90.47h51a2.77,2.77,0,0,0-2-5.16,4.29,4.29,0,0,0-1.59-1.81,4.94,4.94,0,0,0-5.12.25,6.78,6.78,0,0,0-1-5.55,6.71,6.71,0,0,0-7.1-2.33c-4.05-5-10.26-6.5-14.4-4.18A10.14,10.14,0,0,0,431.2,78,5,5,0,0,0,427,79.09a4.73,4.73,0,0,0-1.46,2.63,5.42,5.42,0,0,0-5.35-2.24A5.51,5.51,0,0,0,415.92,85a2.76,2.76,0,0,0,0,5.45Z"/><path class="cls-12" d="M667.36,137h72.2a3.93,3.93,0,0,0-2.89-7.3,6.07,6.07,0,0,0-2.26-2.56,7,7,0,0,0-7.25.35,17.34,17.34,0,0,0-16.44-11.16c-9.24.29-14,8.45-14.26,8.89a13.54,13.54,0,0,0-13.64-5.17c-7,1.55-9.56,8.25-9.71,8.68-5.32-.36-8.9,2-9,4.13S667,136.78,667.36,137Z"/><rect class="cls-13" x="379.78" y="111.94" width="259.15" height="193.89" rx="8.55" ry="8.55"/><path class="cls-14" d="M673.35,101.55H369.48a3.59,3.59,0,0,0-3.59,3.59V312.63a3.59,3.59,0,0,0,3.59,3.59H673.35a3.59,3.59,0,0,0,3.59-3.59V105.14A3.59,3.59,0,0,0,673.35,101.55Zm-39.29,197a3.59,3.59,0,0,1-3.59,3.59H388.25a3.59,3.59,0,0,1-3.59-3.59V119.18a3.59,3.59,0,0,1,3.59-3.59H630.46a3.59,3.59,0,0,1,3.59,3.59Z"/><rect class="cls-15" x="642.92" y="181.89" width="24.8" height="45.56" rx="3.73" ry="3.73"/><polygon class="cls-16" points="556.74 239.35 573.4 216.06 577.07 222.76 589.4 200.18 598.4 224.88 605.4 215 612.73 224.88 623.06 195.6 622.73 239.83 556.74 239.35"/><polygon class="cls-8" points="548.74 239.7 557.74 228.06 565.4 231.94 570.4 227.7 576.07 229.47 580.4 226.65 587.07 230.88 598.07 212.53 607.4 228.41 611.4 219.94 616.4 225.59 622.73 205.12 622.73 239.83 548.74 239.7"/><polygon class="cls-17" points="623.02 240.09 540.55 240.09 540.55 239.58 622.54 239.58 622.54 184.8 623.02 184.8 623.02 240.09"/><rect class="cls-18" x="394.73" y="138.22" width="12.25" height="35.24"/><rect class="cls-19" x="412.64" y="153.88" width="12.25" height="19.58"/><rect class="cls-16" x="430.54" y="122.24" width="12.25" height="51.23"/><rect class="cls-9" x="448.44" y="164.33" width="12.25" height="9.14"/><rect class="cls-20" x="466.35" y="143.44" width="12.25" height="30.02"/><rect class="cls-7" x="484.25" y="129.74" width="12.25" height="43.72"/><rect class="cls-8" x="502.16" y="138.22" width="12.25" height="35.24"/><rect class="cls-21" x="403.84" y="276.19" width="76.82" height="4.87"/><rect class="cls-21" x="403.84" y="285.23" width="76.82" height="4.87"/><rect class="cls-8" x="501.9" y="183.72" width="101.18" height="4.87"/><rect class="cls-8" x="501.9" y="192.76" width="64.41" height="4.87"/><rect class="cls-8" x="501.9" y="200.87" width="64.41" height="4.87"/><rect class="cls-8" x="501.9" y="209.91" width="48.73" height="4.87"/><rect class="cls-8" x="501.9" y="218.03" width="48.73" height="4.87"/><rect class="cls-8" x="501.9" y="227.06" width="26.94" height="4.87"/><rect class="cls-8" x="501.9" y="235.18" width="26.94" height="4.87"/><path class="cls-20" d="M614.3,135.84a20.79,20.79,0,0,0-32.67,14.9q-.1,1-.1,2.09a20.79,20.79,0,0,0,20.79,20.79l.84,0-.84-20.77Z"/><path class="cls-16" d="M602.32,152.84l.84,20.77A20.72,20.72,0,0,0,616.58,168Z"/><path class="cls-18" d="M623.11,152.84a20.77,20.77,0,0,0-8.81-17l-12,17L616.58,168A20.73,20.73,0,0,0,623.11,152.84Z"/><path class="cls-16" d="M564.06,135.84a20.79,20.79,0,0,0-32.67,14.9l20.69,2.09Z"/><path class="cls-4" d="M531.39,150.74q-.1,1-.1,2.09a20.79,20.79,0,0,0,20.79,20.79l.84,0-.84-20.77Z"/><path class="cls-7" d="M572.87,152.84a20.77,20.77,0,0,0-8.81-17l-12,17,.84,20.77A20.79,20.79,0,0,0,572.87,152.84Z"/><rect class="cls-12" x="320.34" y="11.77" width="100.39" height="128.5"/><path class="cls-7" d="M384.84,65.25l11.73-6.79A29.93,29.93,0,0,0,370.83,42.4V55.95A16.4,16.4,0,0,1,384.84,65.25Z"/><path class="cls-20" d="M353.65,72.33A16.4,16.4,0,0,1,370,55.93l.78,0V42.4H370a29.93,29.93,0,0,0-29.93,29.93c0,.35,0,.7,0,1h13.55C353.66,73,353.65,72.68,353.65,72.33Z"/><path class="cls-4" d="M396.58,58.46l-11.73,6.79a16.42,16.42,0,0,1-.5,15.11l12,6.22a30,30,0,0,0,.2-28.12Z"/><path class="cls-9" d="M380.11,85.27l8.32,10.67a30.07,30.07,0,0,0,7.94-9.36l-12-6.22A16.48,16.48,0,0,1,380.11,85.27Z"/><path class="cls-18" d="M353.68,73.37H340.14A29.94,29.94,0,0,0,365.93,102l2.29-13.35A16.4,16.4,0,0,1,353.68,73.37Z"/><path class="cls-8" d="M370,88.72a16.57,16.57,0,0,1-1.83-.1L365.93,102a30.18,30.18,0,0,0,4.12.28,29.8,29.8,0,0,0,18.39-6.32l-8.32-10.67A16.33,16.33,0,0,1,370,88.72Z"/><g class="cls-22"><rect class="cls-7" x="327.72" y="108.34" width="84.99" height="5.13"/><rect class="cls-7" x="327.72" y="117.87" width="84.99" height="5.13"/><rect class="cls-7" x="327.72" y="126.42" width="84.99" height="5.13"/></g><path class="cls-19" d="M119.23,195.62h-3.13v-15h8.59v2.6h-5.47v3.87h5.09v2.59h-5.09Z"/><path class="cls-19" d="M136.49,195.62,135.41,192h-5.47l-1.09,3.57h-3.42l5.29-15.05h3.89l5.31,15.05Zm-1.85-6.23q-1.51-4.85-1.7-5.49t-.27-1q-.34,1.31-1.94,6.49Z"/><path class="cls-19" d="M150.34,191.45a3.87,3.87,0,0,1-1.46,3.2,6.35,6.35,0,0,1-4.07,1.17,9.55,9.55,0,0,1-4.25-.9v-3a17.49,17.49,0,0,0,2.57,1,7.6,7.6,0,0,0,1.92.28,2.73,2.73,0,0,0,1.6-.4,1.37,1.37,0,0,0,.56-1.19,1.31,1.31,0,0,0-.25-.78,2.76,2.76,0,0,0-.72-.66,18.53,18.53,0,0,0-1.94-1,9.21,9.21,0,0,1-2.06-1.24,4.66,4.66,0,0,1-1.1-1.38,4,4,0,0,1-.41-1.85,3.87,3.87,0,0,1,1.35-3.13,5.6,5.6,0,0,1,3.73-1.14,8.81,8.81,0,0,1,2.23.28,15.35,15.35,0,0,1,2.22.78l-1,2.47a15,15,0,0,0-2-.69,6.38,6.38,0,0,0-1.54-.19,2,2,0,0,0-1.38.42,1.39,1.39,0,0,0-.48,1.1,1.36,1.36,0,0,0,.19.73,2.14,2.14,0,0,0,.62.61,19.23,19.23,0,0,0,2,1.05,8,8,0,0,1,2.88,2A3.93,3.93,0,0,1,150.34,191.45Z"/><path class="cls-19" d="M158.53,195.62h-3.18V183.27h-4.07v-2.65H162.6v2.65h-4.07Z"/><path class="cls-19" d="M173.22,195.62h-8.63v-15h8.63v2.6h-5.46v3.29h5.08v2.6h-5.08V193h5.46Z"/><path class="cls-19" d="M179.21,189.87v5.75H176v-15h4.37a7.48,7.48,0,0,1,4.52,1.11,4.44,4.44,0,0,1,.74,5.73,4.82,4.82,0,0,1-2.06,1.61q3.38,5.06,4.41,6.53h-3.53l-3.58-5.75Zm0-2.58h1a3.92,3.92,0,0,0,2.23-.5,1.79,1.79,0,0,0,.72-1.58,1.64,1.64,0,0,0-.73-1.52,4.45,4.45,0,0,0-2.27-.45h-1Z"/><path class="cls-19" d="M12.44,213.18a7.38,7.38,0,0,1-2.11,5.67,8.59,8.59,0,0,1-6.09,2H0v-15H4.71a7.93,7.93,0,0,1,5.7,1.94A7.13,7.13,0,0,1,12.44,213.18Zm-3.3.08q0-4.83-4.27-4.83H3.18v9.76H4.54Q9.14,218.19,9.14,213.26Z"/><path class="cls-19" d="M23.86,220.82H15.23v-15h8.63v2.6H18.41v3.29h5.08v2.6H18.41v3.87h5.46Z"/><path class="cls-19" d="M33,208.26a3.24,3.24,0,0,0-2.78,1.35,6.27,6.27,0,0,0-1,3.76q0,5,3.76,5a11.9,11.9,0,0,0,3.82-.79v2.67a10.62,10.62,0,0,1-4.12.77,6.29,6.29,0,0,1-5-2,8.4,8.4,0,0,1-1.73-5.7,9.3,9.3,0,0,1,.85-4.1,6.15,6.15,0,0,1,2.45-2.7,7.24,7.24,0,0,1,3.74-.94,10.09,10.09,0,0,1,4.39,1.06l-1,2.58a17,17,0,0,0-1.69-.7A5,5,0,0,0,33,208.26Z"/><path class="cls-19" d="M39.74,220.82v-15h3.18v15Z"/><path class="cls-19" d="M55.23,216.65a3.87,3.87,0,0,1-1.46,3.2A6.35,6.35,0,0,1,49.7,221a9.55,9.55,0,0,1-4.25-.9v-3a17.49,17.49,0,0,0,2.57,1,7.6,7.6,0,0,0,1.92.28,2.73,2.73,0,0,0,1.6-.4,1.37,1.37,0,0,0,.56-1.19,1.31,1.31,0,0,0-.25-.78,2.76,2.76,0,0,0-.72-.66,18.53,18.53,0,0,0-1.94-1,9.21,9.21,0,0,1-2.06-1.24,4.66,4.66,0,0,1-1.1-1.38,4,4,0,0,1-.41-1.85A3.87,3.87,0,0,1,47,206.75a5.6,5.6,0,0,1,3.73-1.14,8.81,8.81,0,0,1,2.23.28,15.35,15.35,0,0,1,2.22.78l-1,2.47a15,15,0,0,0-2-.69,6.38,6.38,0,0,0-1.54-.19,2,2,0,0,0-1.38.42,1.39,1.39,0,0,0-.48,1.1,1.36,1.36,0,0,0,.19.73,2.14,2.14,0,0,0,.62.61,19.23,19.23,0,0,0,2,1.05,8,8,0,0,1,2.88,2A3.93,3.93,0,0,1,55.23,216.65Z"/><path class="cls-19" d="M57.63,220.82v-15h3.18v15Z"/><path class="cls-19" d="M77.88,213.3A8.13,8.13,0,0,1,76,219a6.84,6.84,0,0,1-5.29,2,6.84,6.84,0,0,1-5.29-2,8.17,8.17,0,0,1-1.85-5.74,8.05,8.05,0,0,1,1.85-5.72,6.92,6.92,0,0,1,5.31-2,6.82,6.82,0,0,1,5.29,2A8.15,8.15,0,0,1,77.88,213.3Zm-10.94,0a6.26,6.26,0,0,0,1,3.78,3.34,3.34,0,0,0,2.85,1.27q3.8,0,3.8-5.06t-3.78-5.07a3.36,3.36,0,0,0-2.86,1.28A6.23,6.23,0,0,0,66.93,213.3Z"/><path class="cls-19" d="M94,220.82h-4L83.4,209.48h-.09q.19,3,.19,4.29v7.05H80.67v-15h4l6.51,11.23h.07q-.15-2.92-.15-4.13v-7.1H94Z"/><path class="cls-19" d="M96.16,216.47v-2.56h5.51v2.56Z"/><path class="cls-19" d="M110.21,220.82l-3.61-11.76h-.09q.19,3.59.19,4.79v7h-2.84v-15h4.33l3.55,11.46h.06l3.76-11.46h4.33v15h-3v-7.1q0-.5,0-1.16t.14-3.49H117l-3.87,11.74Z"/><path class="cls-19" d="M132.53,220.82l-1.09-3.57H126l-1.09,3.57h-3.42l5.29-15.05h3.89L136,220.82Zm-1.85-6.23q-1.51-4.85-1.7-5.49t-.27-1q-.34,1.31-1.94,6.49Z"/><path class="cls-19" d="M149.58,220.82H146L142,214.5l-1.34,1v5.35h-3.18v-15h3.18v6.86l1.25-1.76,4.06-5.1h3.53l-5.23,6.63Z"/><path class="cls-19" d="M151.16,220.82v-15h3.18v15Z"/><path class="cls-19" d="M171.09,220.82h-4l-6.52-11.34h-.09q.19,3,.19,4.29v7.05h-2.84v-15h4l6.51,11.23h.07q-.15-2.92-.15-4.13v-7.1h2.86Z"/><path class="cls-19" d="M180.24,212.4h5.95v7.77a16.78,16.78,0,0,1-2.72.66,17.81,17.81,0,0,1-2.61.19,6.6,6.6,0,0,1-5.18-2,8.3,8.3,0,0,1-1.79-5.73,7.55,7.55,0,0,1,2.08-5.66,7.88,7.88,0,0,1,5.76-2,11.14,11.14,0,0,1,4.45.92l-1.06,2.54a7.54,7.54,0,0,0-3.41-.82,4.22,4.22,0,0,0-3.3,1.38,5.37,5.37,0,0,0-1.24,3.72,6,6,0,0,0,1,3.73,3.46,3.46,0,0,0,2.91,1.29,10.28,10.28,0,0,0,2-.21V215h-2.84Z"/><path class="cls-19" d="M654.64,49.5H646v-15h8.63v2.6h-5.46V40.4h5.08V43h-5.08v3.87h5.46Z"/><path class="cls-19" d="M670.75,49.5h-4l-6.52-11.34h-.09q.19,3,.19,4.29V49.5h-2.84v-15h4L668,45.73H668q-.15-2.92-.15-4.13V34.5h2.86Z"/><path class="cls-19" d="M686.5,49.5h-3.17V43h-5.94V49.5h-3.18v-15h3.18v5.88h5.94V34.5h3.17Z"/><path class="cls-19" d="M699.14,49.5l-1.09-3.57h-5.46L691.5,49.5h-3.42l5.29-15.05h3.89l5.31,15.05Zm-1.85-6.23q-1.51-4.85-1.7-5.49t-.27-1q-.34,1.31-1.94,6.49Z"/><path class="cls-19" d="M717.44,49.5h-4l-6.52-11.34h-.09q.19,3,.19,4.29V49.5h-2.84v-15h4l6.51,11.23h.07q-.15-2.92-.15-4.13V34.5h2.86Z"/><path class="cls-19" d="M727.26,36.93a3.24,3.24,0,0,0-2.78,1.35,6.27,6.27,0,0,0-1,3.76q0,5,3.76,5a11.9,11.9,0,0,0,3.83-.79v2.67a10.62,10.62,0,0,1-4.12.77,6.29,6.29,0,0,1-5-2,8.4,8.4,0,0,1-1.73-5.7,9.3,9.3,0,0,1,.85-4.1,6.16,6.16,0,0,1,2.45-2.7,7.24,7.24,0,0,1,3.74-.94,10.08,10.08,0,0,1,4.39,1.06l-1,2.58a17,17,0,0,0-1.69-.7A5.05,5.05,0,0,0,727.26,36.93Z"/><path class="cls-19" d="M742.6,49.5H734v-15h8.63v2.6h-5.46V40.4h5.08V43h-5.08v3.87h5.46Z"/><path class="cls-19" d="M757.85,41.86a7.38,7.38,0,0,1-2.11,5.67,8.59,8.59,0,0,1-6.09,2h-4.25v-15h4.71a7.93,7.93,0,0,1,5.7,1.94A7.13,7.13,0,0,1,757.85,41.86Zm-3.3.08q0-4.83-4.27-4.83h-1.69v9.76H750Q754.54,46.87,754.55,41.94Z"/><path class="cls-19" d="M656.36,64.38a4.58,4.58,0,0,1-1.51,3.7,6.47,6.47,0,0,1-4.3,1.28h-1.36V74.7H646v-15h4.79a6.37,6.37,0,0,1,4.15,1.17A4.28,4.28,0,0,1,656.36,64.38Zm-7.18,2.38h1a3.48,3.48,0,0,0,2.19-.58,2,2,0,0,0,.73-1.69,2.08,2.08,0,0,0-.61-1.65,2.86,2.86,0,0,0-1.91-.53h-1.45Z"/><path class="cls-19" d="M662.06,68.94V74.7h-3.18v-15h4.37a7.48,7.48,0,0,1,4.52,1.11,4.44,4.44,0,0,1,.74,5.73,4.83,4.83,0,0,1-2.06,1.61q3.38,5.06,4.41,6.53h-3.53l-3.58-5.75Zm0-2.58h1a3.93,3.93,0,0,0,2.23-.5,1.8,1.8,0,0,0,.72-1.58,1.64,1.64,0,0,0-.73-1.52,4.45,4.45,0,0,0-2.27-.45h-1Z"/><path class="cls-19" d="M686,67.18a8.13,8.13,0,0,1-1.85,5.72,8,8,0,0,1-10.58,0,8.17,8.17,0,0,1-1.85-5.74,8.05,8.05,0,0,1,1.85-5.72,6.92,6.92,0,0,1,5.31-2,6.82,6.82,0,0,1,5.29,2A8.15,8.15,0,0,1,686,67.18Zm-10.94,0A6.27,6.27,0,0,0,676,71a3.34,3.34,0,0,0,2.85,1.27q3.8,0,3.8-5.06t-3.78-5.07a3.36,3.36,0,0,0-2.86,1.28A6.23,6.23,0,0,0,675.09,67.18Z"/><path class="cls-19" d="M701.26,67.06a7.38,7.38,0,0,1-2.11,5.67,8.59,8.59,0,0,1-6.09,2h-4.25v-15h4.71a7.93,7.93,0,0,1,5.7,1.94A7.13,7.13,0,0,1,701.26,67.06Zm-3.3.08q0-4.83-4.27-4.83H692v9.76h1.36Q698,72.07,698,67.14Z"/><path class="cls-19" d="M716.26,59.7v9.7a5.6,5.6,0,0,1-.74,2.91,4.84,4.84,0,0,1-2.15,1.92,7.68,7.68,0,0,1-3.32.67,6.36,6.36,0,0,1-4.49-1.48,5.26,5.26,0,0,1-1.6-4.06V59.7h3.17v9.18a3.84,3.84,0,0,0,.7,2.54,2.9,2.9,0,0,0,2.31.81,2.83,2.83,0,0,0,2.26-.82,3.86,3.86,0,0,0,.7-2.56V59.7Z"/><path class="cls-19" d="M726,62.13a3.24,3.24,0,0,0-2.78,1.35,6.27,6.27,0,0,0-1,3.76q0,5,3.76,5a11.9,11.9,0,0,0,3.83-.79v2.67a10.62,10.62,0,0,1-4.12.77,6.29,6.29,0,0,1-5-2,8.4,8.4,0,0,1-1.73-5.7,9.3,9.3,0,0,1,.85-4.1,6.16,6.16,0,0,1,2.45-2.7,7.24,7.24,0,0,1,3.74-.94,10.08,10.08,0,0,1,4.39,1.06l-1,2.58a17,17,0,0,0-1.69-.7A5.05,5.05,0,0,0,726,62.13Z"/><path class="cls-19" d="M738.46,74.7h-3.18V62.35h-4.07V59.7h11.32v2.65h-4.07Z"/><path class="cls-19" d="M744.53,74.7v-15h3.18v15Z"/><path class="cls-19" d="M759.72,59.7h3.21l-5.1,15h-3.47l-5.09-15h3.21l2.82,8.92q.24.79.49,1.84t.31,1.46a26.24,26.24,0,0,1,.77-3.3Z"/><path class="cls-19" d="M764.5,74.7v-15h3.18v15Z"/><path class="cls-19" d="M776.92,74.7h-3.18V62.35h-4.07V59.7H781v2.65h-4.07Z"/><path class="cls-19" d="M787.65,65.88l3.13-6.17h3.42l-5,9.16V74.7h-3.16V69l-5-9.26h3.45Z"/><path class="cls-19" d="M853.51,208v5.75h-3.18v-15h4.37a7.48,7.48,0,0,1,4.52,1.11,4.44,4.44,0,0,1,.74,5.73,4.83,4.83,0,0,1-2.06,1.62q3.38,5.06,4.41,6.53h-3.53L855.21,208Zm0-2.58h1a3.93,3.93,0,0,0,2.23-.5,1.8,1.8,0,0,0,.72-1.58,1.64,1.64,0,0,0-.73-1.52,4.45,4.45,0,0,0-2.27-.45h-1Z"/><path class="cls-19" d="M872.52,213.71h-8.63v-15h8.63v2.6h-5.46v3.29h5.08v2.6h-5.08v3.87h5.46Z"/><path class="cls-19" d="M887.77,206.07a7.38,7.38,0,0,1-2.11,5.67,8.59,8.59,0,0,1-6.09,2h-4.25v-15H880a7.93,7.93,0,0,1,5.7,1.94A7.13,7.13,0,0,1,887.77,206.07Zm-3.3.08q0-4.83-4.27-4.83h-1.69v9.76h1.36Q884.46,211.08,884.47,206.15Z"/><path class="cls-19" d="M902.76,198.71v9.7a5.6,5.6,0,0,1-.74,2.91,4.84,4.84,0,0,1-2.15,1.92,7.68,7.68,0,0,1-3.32.67,6.36,6.36,0,0,1-4.49-1.48,5.26,5.26,0,0,1-1.6-4.06v-9.66h3.17v9.18a3.84,3.84,0,0,0,.7,2.54,2.9,2.9,0,0,0,2.31.81,2.83,2.83,0,0,0,2.26-.82,3.86,3.86,0,0,0,.7-2.56v-9.16Z"/><path class="cls-19" d="M912.48,201.15a3.24,3.24,0,0,0-2.78,1.35,6.28,6.28,0,0,0-1,3.76q0,5,3.76,5a11.9,11.9,0,0,0,3.83-.79v2.67a10.62,10.62,0,0,1-4.12.77,6.29,6.29,0,0,1-5-2,8.4,8.4,0,0,1-1.73-5.7,9.3,9.3,0,0,1,.85-4.1,6.16,6.16,0,0,1,2.45-2.7,7.24,7.24,0,0,1,3.74-.94,10.08,10.08,0,0,1,4.39,1.06l-1,2.58a17,17,0,0,0-1.69-.7A5,5,0,0,0,912.48,201.15Z"/><path class="cls-19" d="M927.82,213.71h-8.63v-15h8.63v2.6h-5.46v3.29h5.08v2.6h-5.08v3.87h5.46Z"/><path class="cls-19" d="M943.07,206.07a7.38,7.38,0,0,1-2.11,5.67,8.59,8.59,0,0,1-6.09,2h-4.25v-15h4.71a7.93,7.93,0,0,1,5.7,1.94A7.13,7.13,0,0,1,943.07,206.07Zm-3.3.08q0-4.83-4.27-4.83h-1.69v9.76h1.36Q939.77,211.08,939.77,206.15Z"/><path class="cls-19" d="M863.94,231.39a8.13,8.13,0,0,1-1.85,5.72,8,8,0,0,1-10.58,0,8.17,8.17,0,0,1-1.85-5.74,8.05,8.05,0,0,1,1.85-5.72,6.92,6.92,0,0,1,5.31-2,6.82,6.82,0,0,1,5.29,2A8.15,8.15,0,0,1,863.94,231.39Zm-10.94,0a6.27,6.27,0,0,0,1,3.78,3.34,3.34,0,0,0,2.85,1.27q3.8,0,3.8-5.05t-3.78-5.07A3.36,3.36,0,0,0,854,227.6,6.24,6.24,0,0,0,853,231.39Z"/><path class="cls-19" d="M877.09,228.59a4.58,4.58,0,0,1-1.51,3.7,6.47,6.47,0,0,1-4.3,1.28h-1.36v5.33h-3.18v-15h4.79a6.37,6.37,0,0,1,4.15,1.17A4.28,4.28,0,0,1,877.09,228.59ZM869.91,231h1a3.48,3.48,0,0,0,2.19-.58,2,2,0,0,0,.73-1.69,2.08,2.08,0,0,0-.61-1.65,2.86,2.86,0,0,0-1.91-.53h-1.45Z"/><path class="cls-19" d="M888.24,238.91h-8.63v-15h8.63v2.6h-5.46v3.29h5.08v2.6h-5.08v3.87h5.46Z"/><path class="cls-19" d="M894.23,233.15v5.75h-3.18v-15h4.37a7.48,7.48,0,0,1,4.52,1.11,4.44,4.44,0,0,1,.74,5.73,4.83,4.83,0,0,1-2.06,1.62q3.38,5.06,4.41,6.53H899.5l-3.58-5.75Zm0-2.58h1a3.93,3.93,0,0,0,2.23-.5,1.8,1.8,0,0,0,.72-1.58,1.64,1.64,0,0,0-.73-1.52,4.45,4.45,0,0,0-2.27-.45h-1Z"/><path class="cls-19" d="M913.78,238.91l-1.09-3.57h-5.46l-1.09,3.57h-3.42L908,223.85h3.89l5.31,15.05Zm-1.85-6.23q-1.51-4.85-1.7-5.49t-.27-1q-.34,1.31-1.94,6.49Z"/><path class="cls-19" d="M924.56,238.91h-3.18V226.56h-4.07v-2.65h11.32v2.65h-4.07Z"/><path class="cls-19" d="M930.62,238.91v-15h3.18v15Z"/><path class="cls-19" d="M950.86,231.39a8.13,8.13,0,0,1-1.85,5.72,8,8,0,0,1-10.58,0,8.17,8.17,0,0,1-1.85-5.74,8.05,8.05,0,0,1,1.85-5.72,6.92,6.92,0,0,1,5.31-2,6.82,6.82,0,0,1,5.29,2A8.15,8.15,0,0,1,950.86,231.39Zm-10.94,0a6.27,6.27,0,0,0,1,3.78,3.34,3.34,0,0,0,2.85,1.27q3.8,0,3.8-5.05t-3.78-5.07a3.36,3.36,0,0,0-2.86,1.28A6.24,6.24,0,0,0,939.92,231.39Z"/><path class="cls-19" d="M967,238.91h-4l-6.52-11.34h-.09q.19,3,.19,4.29v7.05h-2.84v-15h4l6.51,11.23h.07q-.15-2.92-.15-4.13v-7.1H967Z"/><path class="cls-19" d="M979.59,238.91l-1.09-3.57H973L972,238.91h-3.42l5.29-15.05h3.89L983,238.91Zm-1.85-6.23q-1.51-4.85-1.7-5.49t-.27-1q-.34,1.31-1.94,6.49Z"/><path class="cls-19" d="M984.59,238.91v-15h3.18v12.37h6.08v2.63Z"/><path class="cls-19" d="M1007.64,226.35a3.24,3.24,0,0,0-2.78,1.35,6.28,6.28,0,0,0-1,3.76q0,5,3.76,5a11.9,11.9,0,0,0,3.83-.79v2.67a10.62,10.62,0,0,1-4.12.77,6.29,6.29,0,0,1-5-2,8.4,8.4,0,0,1-1.73-5.7,9.3,9.3,0,0,1,.85-4.1,6.16,6.16,0,0,1,2.45-2.7,7.24,7.24,0,0,1,3.74-.94,10.08,10.08,0,0,1,4.39,1.06l-1,2.58a17,17,0,0,0-1.69-.7A5,5,0,0,0,1007.64,226.35Z"/><path class="cls-19" d="M1028,231.39a8.13,8.13,0,0,1-1.85,5.72,8,8,0,0,1-10.58,0,8.17,8.17,0,0,1-1.85-5.74,8.05,8.05,0,0,1,1.85-5.72,6.92,6.92,0,0,1,5.31-2,6.82,6.82,0,0,1,5.29,2A8.15,8.15,0,0,1,1028,231.39Zm-10.94,0a6.27,6.27,0,0,0,1,3.78,3.34,3.34,0,0,0,2.85,1.27q3.8,0,3.8-5.05t-3.78-5.07a3.36,3.36,0,0,0-2.86,1.28A6.24,6.24,0,0,0,1017,231.39Z"/><path class="cls-19" d="M1039.59,234.74a3.87,3.87,0,0,1-1.46,3.2,6.35,6.35,0,0,1-4.07,1.17,9.55,9.55,0,0,1-4.25-.9v-3a17.52,17.52,0,0,0,2.57,1,7.6,7.6,0,0,0,1.92.28,2.73,2.73,0,0,0,1.6-.4,1.37,1.37,0,0,0,.56-1.19,1.32,1.32,0,0,0-.25-.79,2.76,2.76,0,0,0-.72-.66,18.64,18.64,0,0,0-1.94-1,9.19,9.19,0,0,1-2.06-1.24,4.64,4.64,0,0,1-1.1-1.38A3.94,3.94,0,0,1,1030,228a3.88,3.88,0,0,1,1.35-3.13,5.6,5.6,0,0,1,3.73-1.14,8.81,8.81,0,0,1,2.23.28,15.35,15.35,0,0,1,2.22.78l-1,2.47a15,15,0,0,0-2-.69,6.38,6.38,0,0,0-1.54-.19,2,2,0,0,0-1.38.42,1.39,1.39,0,0,0-.48,1.1,1.35,1.35,0,0,0,.19.73,2.14,2.14,0,0,0,.62.61,19.23,19.23,0,0,0,2,1.05,8,8,0,0,1,2.88,2A3.94,3.94,0,0,1,1039.59,234.74Z"/><path class="cls-19" d="M1047.78,238.91h-3.18V226.56h-4.07v-2.65h11.32v2.65h-4.07Z"/><path class="cls-19" d="M1062.69,234.74a3.87,3.87,0,0,1-1.46,3.2,6.35,6.35,0,0,1-4.07,1.17,9.55,9.55,0,0,1-4.25-.9v-3a17.52,17.52,0,0,0,2.57,1,7.6,7.6,0,0,0,1.92.28,2.73,2.73,0,0,0,1.6-.4,1.37,1.37,0,0,0,.56-1.19,1.32,1.32,0,0,0-.25-.79,2.76,2.76,0,0,0-.72-.66,18.64,18.64,0,0,0-1.94-1,9.19,9.19,0,0,1-2.06-1.24,4.64,4.64,0,0,1-1.1-1.38,3.94,3.94,0,0,1-.41-1.85,3.88,3.88,0,0,1,1.35-3.13,5.6,5.6,0,0,1,3.73-1.14,8.81,8.81,0,0,1,2.23.28,15.35,15.35,0,0,1,2.22.78l-1,2.47a15,15,0,0,0-2-.69,6.38,6.38,0,0,0-1.54-.19,2,2,0,0,0-1.38.42,1.39,1.39,0,0,0-.48,1.1,1.35,1.35,0,0,0,.19.73,2.14,2.14,0,0,0,.62.61,19.23,19.23,0,0,0,2,1.05,8,8,0,0,1,2.88,2A3.94,3.94,0,0,1,1062.69,234.74Z"/><line class="cls-3" x1="828.03" y1="219.63" x2="840.52" y2="219.63"/><path class="cls-16" d="M269.39,185.52h0a1.34,1.34,0,0,0,.61.18.57.57,0,0,0,.41-.16l1.28-1.28c.1-.11.26-.36.06-.83a2.76,2.76,0,0,0-.58-.83,2,2,0,0,0-1.25-.68.57.57,0,0,0-.41.16l-1.28,1.28c-.22.22-.2.58,0,1l-.09.09a12.54,12.54,0,0,0-5.4-2.34.81.81,0,0,0-.79-.66h-.46v-.13c.59-.09,1.24-.28,1.24-.75V179c0-.6-1.15-.82-2.13-.82s-2.13.21-2.13.82v1.59c0,.46.66.66,1.24.75v.13h-.47a.81.81,0,0,0-.79.65,12.57,12.57,0,1,0,10.9,3.39ZM260.63,205a10.45,10.45,0,1,1,10.45-10.45A10.46,10.46,0,0,1,260.63,205Z"/><path class="cls-16" d="M269.39,185.52h0a1.34,1.34,0,0,0,.61.18.57.57,0,0,0,.41-.16l1.28-1.28c.1-.11.26-.36.06-.83a2.76,2.76,0,0,0-.58-.83,2,2,0,0,0-1.25-.68.57.57,0,0,0-.41.16l-1.28,1.28c-.22.22-.2.58,0,1l-.09.09a12.54,12.54,0,0,0-5.4-2.34.81.81,0,0,0-.79-.66h-.46v-.13c.59-.09,1.24-.28,1.24-.75V179c0-.6-1.15-.82-2.13-.82s-2.13.21-2.13.82v1.59c0,.46.66.66,1.24.75v.13h-.47a.81.81,0,0,0-.79.65,12.57,12.57,0,1,0,10.9,3.39ZM260.63,205a10.45,10.45,0,1,1,10.45-10.45A10.46,10.46,0,0,1,260.63,205Z"/><path class="cls-16" d="M269.38,194.49a8.72,8.72,0,0,1-2.57,6.2l-.18.18-6.28-6.28v-8.88h.26A8.79,8.79,0,0,1,269.38,194.49Z"/><path class="cls-16" d="M291.48,204.9a16.73,16.73,0,0,1-3.12-11.12v-.12c.12-1.9.47-7.68-2.62-12.85a21.37,21.37,0,0,0-10.28-8.43,35,35,0,0,0-14.2-3c-10.89,0-20.12,4.94-25.33,13.54a28.86,28.86,0,0,0-2.57,23.67c1.75,5,4.58,8.37,7.32,11.66,3.19,3.85,6.21,7.48,7.6,13.44a15.31,15.31,0,0,1-.24,7.1.68.68,0,0,0,.58.84c4.65.6,20.94-.2,24.65-.45a.68.68,0,0,0,.64-.71,6.5,6.5,0,0,1,.47-2.89,6.62,6.62,0,0,1,.61-1.14,1.15,1.15,0,0,1,1-.52H276c.56,0,1.13.06,1.69.06s.94,0,1.4,0c3.11-.19,6.64-.41,8.37-2.84.86-1.21,1-2.77,1.18-5.9a28.32,28.32,0,0,1,.41-3.55,3.31,3.31,0,0,0-.08-2.08c-.07-.19-.08-.23.14-.67.45-.92.09-1.85-.32-2.94-.18-.46-.37-1-.56-1.59a15.86,15.86,0,0,0,2.37-1.24,5.25,5.25,0,0,0,2.07-1.9C294,208.85,292.76,206.93,291.48,204.9ZM280,196.12a1.36,1.36,0,0,1-1.08,1.33l-3.51.73a1.1,1.1,0,0,0-.79.66l-1,2.44a1.1,1.1,0,0,0,.1,1l2,3a1.36,1.36,0,0,1-.17,1.69l-2.33,2.33a1.36,1.36,0,0,1-1,.39,1.33,1.33,0,0,1-.74-.22l-2.9-1.9-.1-.07a1.1,1.1,0,0,0-.61-.18,1.13,1.13,0,0,0-.42.08l-2.44,1a1.11,1.11,0,0,0-.66.8l-.73,3.52a1.35,1.35,0,0,1-1.33,1.08H259a1.36,1.36,0,0,1-1.33-1.08l-.73-3.52a1.11,1.11,0,0,0-.66-.8l-2.44-1a1.12,1.12,0,0,0-.42-.08,1.1,1.1,0,0,0-.61.18l-3,2a1.33,1.33,0,0,1-.74.22,1.36,1.36,0,0,1-1-.39L245.78,207a1.36,1.36,0,0,1-.17-1.69l1.9-2.9.07-.1a1.11,1.11,0,0,0,.1-1l-1-2.44a1.11,1.11,0,0,0-.8-.66l-3.51-.73a1.35,1.35,0,0,1-1.08-1.33v-3.28a1.35,1.35,0,0,1,1.08-1.33l3.51-.73a1.11,1.11,0,0,0,.8-.66l1-2.44a1.1,1.1,0,0,0-.1-1l-2-3a1.36,1.36,0,0,1,.17-1.69l2.33-2.33a1.37,1.37,0,0,1,1-.39,1.33,1.33,0,0,1,.74.22l3,2a1.09,1.09,0,0,0,.61.18,1.12,1.12,0,0,0,.43-.09l2.43-1a1.1,1.1,0,0,0,.66-.79l.73-3.51a1.35,1.35,0,0,1,1.33-1.08h3.27a1.36,1.36,0,0,1,1.33,1.08l.72,3.51a1.1,1.1,0,0,0,.66.79l2.44,1a1.12,1.12,0,0,0,.43.09,1.1,1.1,0,0,0,.61-.18l3-2a1.35,1.35,0,0,1,1.69.17l2.33,2.33a1.36,1.36,0,0,1,.17,1.69l-2,3a1.1,1.1,0,0,0-.1,1l1,2.44a1.1,1.1,0,0,0,.8.66l3.51.73a1.35,1.35,0,0,1,1.08,1.33Z"/><path class="cls-16" d="M583.08,33.35a23,23,0,1,0,23,23A23.11,23.11,0,0,0,583.08,33.35Zm4.62,39.42h-9.24a2.15,2.15,0,0,1,0-4.31h9.24a2.15,2.15,0,0,1,0,4.31Zm.47-19.59-1.45,1.45a4,4,0,0,1,.41,1.73,4,4,0,1,1-4-4,4,4,0,0,1,1.73.41l1.45-1.45a1.35,1.35,0,0,1,1.91,1.91Zm7.33,15.54,0,0a1.35,1.35,0,0,1-1.91,0h0L589.76,65A1.35,1.35,0,1,1,591.67,63l2.76,2.76a14.61,14.61,0,0,0,3.36-8.09h-3.91a1.35,1.35,0,1,1,0-2.7h4a14.76,14.76,0,0,0-3.37-8.14l-2.81,2.81a1.35,1.35,0,1,1-1.91-1.91L592.57,45a14.76,14.76,0,0,0-8.14-3.37v4a1.35,1.35,0,0,1-2.7,0v-4A14.76,14.76,0,0,0,573.6,45l2.81,2.81a1.35,1.35,0,0,1-1.91,1.91l-2.81-2.81A14.76,14.76,0,0,0,568.32,55h4a1.35,1.35,0,1,1,0,2.7h-3.91a14.61,14.61,0,0,0,3.36,8.09L574.5,63A1.35,1.35,0,1,1,576.41,65l-3.81,3.81h0a1.35,1.35,0,0,1-1.91,0l0,0a17.53,17.53,0,1,1,24.84,0Z"/><path class="cls-16" d="M542.13,81.36a1.5,1.5,0,0,1-.55-.11l-9.87-3.92a1.5,1.5,0,0,1-.84-1.95l1.78-4.47q-.55-.49-1.05-1l-4.42,1.9a1.5,1.5,0,0,1-2-.78L521,61.26a1.5,1.5,0,0,1,.78-2l4.41-1.9q0-.73,0-1.47l-4.47-1.78a1.5,1.5,0,0,1-.84-1.95l3.92-9.87a1.5,1.5,0,0,1,1.95-.84l4.47,1.78q.49-.55,1-1.05l-1.9-4.42a1.5,1.5,0,0,1,.78-2l9.75-4.21a1.5,1.5,0,0,1,2,.78l1.91,4.42,1,0h.47L548,32.33a1.5,1.5,0,0,1,1.95-.84l9.87,3.92a1.5,1.5,0,0,1,.84,1.95l-1.78,4.47c.36.33.72.67,1.05,1l4.42-1.91a1.5,1.5,0,0,1,2,.78l4.21,9.75a1.5,1.5,0,0,1-.78,2l-4.42,1.9q0,.73,0,1.47l4.47,1.78a1.5,1.5,0,0,1,.84,1.95l-3.92,9.87a1.5,1.5,0,0,1-1.95.84l-4.47-1.78q-.49.55-1,1.05l1.9,4.42a1.5,1.5,0,0,1-.78,2l-9.75,4.21a1.5,1.5,0,0,1-2-.78l-1.91-4.42-1,0h-.47l-1.78,4.47a1.5,1.5,0,0,1-1.39.95Z"/><path class="cls-9" d="M549.36,32.88l9.87,3.92-2.17,5.47a18,18,0,0,1,2.45,2.38l5.4-2.33,4.21,9.75-5.4,2.33a18,18,0,0,1,0,3.42L569.23,60l-3.92,9.87-5.47-2.17a18,18,0,0,1-2.38,2.45l2.33,5.4L550,79.74l-2.33-5.4a17.8,17.8,0,0,1-1.95.11q-.74,0-1.47-.06l-2.17,5.47-9.87-3.92,2.17-5.47A18,18,0,0,1,532,68.09l-5.4,2.33-4.21-9.75,5.4-2.33a18,18,0,0,1,0-3.42l-5.47-2.17,3.92-9.87,5.47,2.17A18,18,0,0,1,534,42.6l-2.33-5.4L541.44,33l2.33,5.4a17.81,17.81,0,0,1,1.95-.11q.74,0,1.47.06l2.17-5.47m0-3a3,3,0,0,0-2.79,1.89l-1.15,2.89-1.23-2.85a3,3,0,0,0-3.94-1.57l-9.75,4.21a3,3,0,0,0-1.57,3.94l1.23,2.85-2.89-1.15a3,3,0,0,0-3.9,1.68l-3.92,9.87a3,3,0,0,0,1.68,3.9L524,56.69l-2.85,1.23a3,3,0,0,0-1.57,3.94l4.21,9.75a3,3,0,0,0,3.94,1.57l2.85-1.23-1.15,2.89a3,3,0,0,0,1.68,3.9L541,82.64a3,3,0,0,0,3.9-1.68l1.15-2.89,1.23,2.85a3,3,0,0,0,3.94,1.57L561,78.29a3,3,0,0,0,1.57-3.94l-1.23-2.85,2.89,1.15A3,3,0,0,0,568.1,71L572,61.09a3,3,0,0,0-1.68-3.9l-2.89-1.15,2.85-1.23a3,3,0,0,0,1.57-3.94l-4.21-9.75a3,3,0,0,0-3.94-1.57l-2.85,1.23L562,37.91a3,3,0,0,0-1.68-3.9l-9.87-3.92a3,3,0,0,0-1.11-.21Z"/><circle class="cls-9" cx="545.74" cy="56.37" r="11.74"/><path class="cls-16" d="M541.81,56.37V51.64a1,1,0,0,1,1.5-.87l4.1,2.37,4.1,2.37a1,1,0,0,1,0,1.73l-4.1,2.37L543.31,62a1,1,0,0,1-1.5-.87Z"/><path class="cls-16" d="M566.45,28.11l-2.78,1a.9.9,0,0,0-.52.45L562,32.43l-1-2.78a.9.9,0,0,0-.45-.52L557.68,28l2.78-1a.9.9,0,0,0,.52-.45l1.16-2.83,1,2.78a.9.9,0,0,0,.45.52Z"/><path class="cls-16" d="M578.83,21.93l-3.92,1.45a1.27,1.27,0,0,0-.73.64l-1.64,4-1.45-3.92a1.27,1.27,0,0,0-.64-.73l-4-1.64,3.92-1.45a1.27,1.27,0,0,0,.73-.64l1.64-4,1.45,3.92a1.27,1.27,0,0,0,.64.73Z"/><path class="cls-19" d="M650.58,309.2l.15.39c.15.35.3.69.47,1,0,0,0,0,0,0a17.51,17.51,0,0,0,16.88,9.88h0c.35,0,.72,0,1.07,0l.09,0a17.91,17.91,0,0,0,8.11-32.69,11.89,11.89,0,0,0-2.2-1.23h0a17.78,17.78,0,0,0-19.8,2.6s0,0,0,0A18,18,0,0,0,650.58,309.2Zm23.24-20.44L669,295.55a2.86,2.86,0,0,1-4.22.52l-6.62-5.73a15.37,15.37,0,0,1,15.62-1.57Zm8.79,15.58L675,302a2.86,2.86,0,0,1-1.81-3.83l3.25-7.88a15.38,15.38,0,0,1,6.17,14Zm-12.14,13.39.45-8.89a2.86,2.86,0,0,1,3.23-2.69l7.87,1a15.36,15.36,0,0,1-11.56,10.55ZM664,304.07a3.6,3.6,0,1,1,4.7,1.94A3.6,3.6,0,0,1,664,304.07Zm-9.75,6.7,7.33-2.66a2.86,2.86,0,0,1,3.75,2l2.11,8A15.38,15.38,0,0,1,654.27,310.77Zm1.88-18.61,4.79,7.54a2.86,2.86,0,0,1-1,4l-7.1,4.15A15.37,15.37,0,0,1,656.15,292.16Z"/><path class="cls-18" d="M649.9,311l-3,1.25,2.61,4.58,2.16-1.61,2.46,2.52L652.21,320l3.92,2.62,1.31-2,3.42,1.41-1.06,2.56,4.63.91,1.06-2.56,2.92.2,1,2.42,4.48-1.15-.75-1.81,3-1.25,1,2.42,4.23-1.76-1.51-3.62,2.18-2.2,3.51,1.76,2.05-4.09-2.34-1.17,1.47-2.92,1.75.88,1.47-4.38-2.34-1.17v-2.92l2.63-.87-.58-4.68-2.63.87L685.89,294l2-1.17-2.33-4.1-2.34,1.75-2.34-2.64,1.76-2-4.38-2.93-1.47,2.92-2.92-1.47,1.47-2.92-5-1.76-.88,3.22h-2.92v-2.92l-5.56.87.87,2.63L659,284.85l-1.17-2-4.1,2.33,1.75,2.34-2.35,2.35-2.21-1.91-2.62,3.92,2,1.31L648.61,296,646,294.9l-1.26,5.48,2.92.2-.2,2.92-3.27.65,1.4,5.08,3-1.25Zm.83-1.41a18,18,0,1,1,23.51,9.71A18,18,0,0,1,650.73,309.59Z"/><path class="cls-19" d="M511.76,263.61a4,4,0,0,1-.64,2.24,4.17,4.17,0,0,1-1.84,1.52,6.78,6.78,0,0,1-2.82.54,11.32,11.32,0,0,1-2.26-.19,8.32,8.32,0,0,1-1.9-.66V263.8a10.85,10.85,0,0,0,2.17.84,8,8,0,0,0,2.07.3,2,2,0,0,0,1.19-.28.87.87,0,0,0,.38-.73.81.81,0,0,0-.15-.49,1.79,1.79,0,0,0-.49-.42q-.34-.21-1.8-.87a8.65,8.65,0,0,1-2-1.17,3.6,3.6,0,0,1-1-1.3,4.33,4.33,0,0,1-.32-1.73,3.48,3.48,0,0,1,1.36-2.92,6,6,0,0,1,3.73-1,10.42,10.42,0,0,1,4.27,1l-1.12,2.83a8.06,8.06,0,0,0-3.27-.87,1.7,1.7,0,0,0-1,.25.76.76,0,0,0-.32.62.9.9,0,0,0,.41.71,15.62,15.62,0,0,0,2.23,1.15,6.16,6.16,0,0,1,2.42,1.69A3.69,3.69,0,0,1,511.76,263.61Z"/><path class="cls-19" d="M521.58,267.73h-8V254.17h8v2.94h-4.37v2.13h4v2.94h-4v2.56h4.37Z"/><path class="cls-19" d="M523.66,267.73V254.17h3.65v10.6h5.2v3Z"/><path class="cls-19" d="M538,267.73h-3.59V254.17h8v2.94H538v2.59h4v2.94h-4Z"/><path class="cls-19" d="M543.22,264.08v-2.89h5.22v2.89Z"/><path class="cls-19" d="M558.84,263.61a4,4,0,0,1-.64,2.24,4.17,4.17,0,0,1-1.84,1.52,6.78,6.78,0,0,1-2.82.54,11.32,11.32,0,0,1-2.26-.19,8.32,8.32,0,0,1-1.9-.66V263.8a10.85,10.85,0,0,0,2.17.84,8,8,0,0,0,2.07.3,2,2,0,0,0,1.19-.28.87.87,0,0,0,.38-.73.81.81,0,0,0-.15-.49,1.79,1.79,0,0,0-.49-.42q-.34-.21-1.8-.87a8.65,8.65,0,0,1-2-1.17,3.6,3.6,0,0,1-1-1.3,4.33,4.33,0,0,1-.32-1.73,3.48,3.48,0,0,1,1.36-2.92,6,6,0,0,1,3.73-1,10.42,10.42,0,0,1,4.27,1l-1.12,2.83a8.06,8.06,0,0,0-3.27-.87,1.7,1.7,0,0,0-1,.25.76.76,0,0,0-.32.62.9.9,0,0,0,.41.71,15.62,15.62,0,0,0,2.23,1.15,6.16,6.16,0,0,1,2.42,1.69A3.69,3.69,0,0,1,558.84,263.61Z"/><path class="cls-19" d="M568.65,267.73h-8V254.17h8v2.94h-4.37v2.13h4v2.94h-4v2.56h4.37Z"/><path class="cls-19" d="M574.38,262.79v4.94h-3.65V254.17h4.42q5.5,0,5.5,4a4,4,0,0,1-2.29,3.65l3.93,5.91h-4.14l-2.86-4.94Zm0-2.76h.68q1.91,0,1.91-1.7,0-1.4-1.87-1.4h-.72Z"/><path class="cls-19" d="M590.83,254.17h4.08l-4.42,13.56h-4.29l-4.4-13.56h4.1l1.84,6.87a21.18,21.18,0,0,1,.63,3.19q.06-.65.26-1.62t.34-1.53Z"/><path class="cls-19" d="M596.08,267.73V254.17h3.67v13.56Z"/><path class="cls-19" d="M608.39,257a2.32,2.32,0,0,0-2,1.07,5.19,5.19,0,0,0-.73,3q0,3.92,3,3.92a6,6,0,0,0,1.74-.25,17.45,17.45,0,0,0,1.69-.6v3.1a9.29,9.29,0,0,1-3.82.75,6,6,0,0,1-4.68-1.78,7.37,7.37,0,0,1-1.63-5.15,8.26,8.26,0,0,1,.79-3.7,5.67,5.67,0,0,1,2.27-2.45,6.84,6.84,0,0,1,3.49-.86,9.56,9.56,0,0,1,4.18,1l-1.12,2.88a12.68,12.68,0,0,0-1.5-.59A5.23,5.23,0,0,0,608.39,257Z"/><path class="cls-19" d="M622.38,267.73h-8V254.17h8v2.94H618v2.13h4v2.94h-4v2.56h4.37Z"/><path class="cls-18" d="M519.39,290.53l-.66-2.54h-4.39l-.68,2.54h-4l4.4-13.62h4.87l4.46,13.62ZM518,285l-.58-2.23q-.2-.74-.49-1.92t-.38-1.69q-.08.47-.33,1.56T515.1,285Z"/><path class="cls-18" d="M537.41,290.53h-4.78L527.7,281h-.08q.17,2.25.17,3.44v6.11h-3.23V277h4.76l4.91,9.43h.06q-.13-2.05-.13-3.29V277h3.25Z"/><path class="cls-18" d="M548.32,290.53l-.67-2.54h-4.38l-.68,2.54h-4l4.4-13.62h4.87l4.46,13.62ZM546.9,285l-.58-2.23q-.2-.74-.49-1.92t-.38-1.69q-.08.47-.33,1.56T544,285Z"/><path class="cls-18" d="M553.49,290.53V277h3.65v10.6h5.2v3Z"/><path class="cls-18" d="M569,282l2.33-5h4l-4.44,8.27v5.3h-3.67v-5.19L562.75,277h4Z"/><path class="cls-18" d="M582.43,290.53h-3.65V280h-3.3v-3h10.23v3h-3.29Z"/><path class="cls-18" d="M587.37,290.53V277H591v13.56Z"/><path class="cls-18" d="M599.68,279.78a2.32,2.32,0,0,0-2,1.07,5.19,5.19,0,0,0-.73,3q0,3.92,3,3.92a6,6,0,0,0,1.74-.25,17.45,17.45,0,0,0,1.69-.6V290a9.29,9.29,0,0,1-3.82.75,6,6,0,0,1-4.68-1.78,7.37,7.37,0,0,1-1.63-5.15,8.26,8.26,0,0,1,.79-3.7,5.67,5.67,0,0,1,2.27-2.45,6.84,6.84,0,0,1,3.49-.86,9.56,9.56,0,0,1,4.18,1l-1.12,2.88a12.68,12.68,0,0,0-1.5-.59A5.23,5.23,0,0,0,599.68,279.78Z"/><path class="cls-18" d="M614.48,286.41a4,4,0,0,1-.64,2.24,4.17,4.17,0,0,1-1.84,1.52,6.78,6.78,0,0,1-2.82.54,11.32,11.32,0,0,1-2.26-.19,8.32,8.32,0,0,1-1.9-.66V286.6a10.85,10.85,0,0,0,2.17.84,8,8,0,0,0,2.07.3,2,2,0,0,0,1.19-.28.87.87,0,0,0,.38-.73.81.81,0,0,0-.15-.49,1.79,1.79,0,0,0-.49-.42q-.34-.21-1.8-.87a8.61,8.61,0,0,1-2-1.17,3.58,3.58,0,0,1-1-1.3,4.32,4.32,0,0,1-.32-1.73,3.49,3.49,0,0,1,1.36-2.92,6,6,0,0,1,3.73-1,10.42,10.42,0,0,1,4.27,1l-1.12,2.83a8.06,8.06,0,0,0-3.27-.87,1.7,1.7,0,0,0-1,.25.76.76,0,0,0-.32.62.9.9,0,0,0,.41.71,15.62,15.62,0,0,0,2.23,1.15,6.17,6.17,0,0,1,2.42,1.69A3.69,3.69,0,0,1,614.48,286.41Z"/><path class="cls-3" d="M592.37,335"/><path class="cls-19" d="M697,283.59c.06.2.12.4.19.6.18.54.39,1.07.6,1.59,0,.06,0,0,.06.08,4.19,10.07,13.92,16.74,24.35,16.56h0c.53,0,1.08.09,1.62.07,0,0,.09,0,.14,0a27,27,0,0,0,15.51-48.29,17.91,17.91,0,0,0-3.18-2.07h0a26.78,26.78,0,0,0-30,1.89s0,0,0,0A27.07,27.07,0,0,0,697,283.59Zm37-28.34L726.15,265a4.31,4.31,0,0,1-6.39.35L710.39,256a23.15,23.15,0,0,1,23.63-.77Zm11.63,24.31-11.19-4.25a4.31,4.31,0,0,1-2.34-5.94l5.69-11.51a23.16,23.16,0,0,1,7.84,21.7ZM726,298.44l1.58-13.32a4.31,4.31,0,0,1,5.13-3.72l11.73,2.36A23.13,23.13,0,0,1,726,298.44Zm-8.31-21.19a5.42,5.42,0,1,1,6.87,3.4A5.42,5.42,0,0,1,717.73,277.25Zm-15.33,9.07,11.28-3.25a4.31,4.31,0,0,1,5.43,3.33l2.36,12.22A23.17,23.17,0,0,1,702.4,286.32Zm4.73-27.77,6.43,11.82a4.31,4.31,0,0,1-1.87,5.92l-11.09,5.52A23.15,23.15,0,0,1,707.12,258.55Z"/><path class="cls-18" d="M695.82,286.22l-4.66,1.58,3.46,7.15,3.42-2.19,3.44,4-3.1,3.13,5.62,4.34,2.17-2.81,5,2.47-1.85,3.75,6.86,1.84,1.85-3.75,4.36.6,1.26,3.73,6.85-1.28-.95-2.8,4.66-1.58,1.26,3.73L742,306l-1.89-5.6,3.51-3.08,5.09,3,3.5-5.94-3.39-2,2.5-4.24,2.54,1.5,2.65-6.44-3.39-2,.3-4.39,4-1-.39-7.09-4,1-1.39-5.39,3.2-1.54-3.09-6.39-3.7,2.39-3.24-4.2,2.85-2.89-6.29-4.85-2.5,4.24-4.24-2.5,2.5-4.24-7.29-3.15-1.65,4.74-4.39-.3.3-4.39-8.44.74,1,4-4.55,1.89-1.54-3.2-6.39,3.09,2.39,3.7-3.77,3.29-3.13-3.1-4.34,5.62,2.81,2.17-2.79,4.06-3.75-1.85-2.46,8.11,4.36.6-.6,4.36-5,.64,1.59,7.78,4.66-1.58Zm1.39-2a27.08,27.08,0,1,1,34.33,17A27.08,27.08,0,0,1,697.21,284.19Z"/><path class="cls-8" d="M402.81,191.94V262.6h81.33V191.94Zm77.33,14h-22v-10h22Zm-47.33,39v-9h21.33v9Zm21.33,4v9.67H432.81v-9.67Zm0-39v9H432.81v-9Zm-21.33-4v-10h21.33v10Zm21.33,17v9H432.81v-9Zm-25.33-4h-22v-9h22Zm0,4v9h-22v-9Zm0,13v9h-22v-9Zm29.33,0h22v9h-22Zm0-4v-9h22v9Zm0-13v-9h22v9Zm-29.33-23v10h-22v-10Zm-22,53h22v9.67h-22Zm51.33,9.67v-9.67h22v9.67Z"/><line class="cls-23" x1="412.48" y1="200.94" x2="422.81" y2="200.94"/><line class="cls-23" x1="438.56" y1="200.94" x2="448.89" y2="200.94"/><line class="cls-23" x1="463.98" y1="200.94" x2="474.31" y2="200.94"/><line class="cls-24" x1="412.48" y1="214.6" x2="422.81" y2="214.6"/><line class="cls-25" x1="438.56" y1="214.6" x2="448.89" y2="214.6"/><line class="cls-25" x1="463.98" y1="214.6" x2="474.31" y2="214.6"/><line class="cls-24" x1="412.48" y1="227.27" x2="422.81" y2="227.27"/><line class="cls-25" x1="438.56" y1="227.27" x2="448.89" y2="227.27"/><line class="cls-25" x1="463.98" y1="227.27" x2="474.31" y2="227.27"/><line class="cls-24" x1="412.48" y1="240.1" x2="422.81" y2="240.1"/><line class="cls-25" x1="438.56" y1="240.1" x2="448.89" y2="240.1"/><line class="cls-25" x1="463.98" y1="240.1" x2="474.31" y2="240.1"/><line class="cls-24" x1="412.48" y1="253.77" x2="422.81" y2="253.77"/><line class="cls-25" x1="438.56" y1="253.77" x2="448.89" y2="253.77"/><line class="cls-25" x1="463.98" y1="253.77" x2="474.31" y2="253.77"/><path class="cls-16" d="M773.23,202.21a1.1,1.1,0,0,0-1.1-1.1v2.2A1.1,1.1,0,0,0,773.23,202.21Z"/><path class="cls-16" d="M769.92,196.71a1.1,1.1,0,0,0,0,2.2Z"/><path class="cls-16" d="M771,207.72a7.71,7.71,0,1,0-7.71-7.71A7.71,7.71,0,0,0,771,207.72Zm-4.4-9.91a3.31,3.31,0,0,1,3.3-3.3v-1.1h2.2v1.1a3.31,3.31,0,0,1,3.3,3.3h-2.2a1.1,1.1,0,0,0-1.1-1.1v2.2a3.3,3.3,0,1,1,0,6.61v1.1h-2.2v-1.1a3.31,3.31,0,0,1-3.3-3.3h2.2a1.1,1.1,0,0,0,1.1,1.1v-2.2A3.31,3.31,0,0,1,766.62,197.81Z"/><path class="cls-16" d="M746.8,191.2a1.1,1.1,0,0,0,0,2.2Z"/><path class="cls-16" d="M750.1,196.71a1.1,1.1,0,0,0-1.1-1.1v2.2A1.1,1.1,0,0,0,750.1,196.71Z"/><path class="cls-16" d="M755.61,194.5a7.71,7.71,0,1,0-7.71,7.71A7.71,7.71,0,0,0,755.61,194.5Zm-12.11,2.2h2.2a1.1,1.1,0,0,0,1.1,1.1v-2.2a3.3,3.3,0,0,1,0-6.61v-1.1H749V189a3.3,3.3,0,0,1,3.3,3.3h-2.2a1.1,1.1,0,0,0-1.1-1.1v2.2a3.3,3.3,0,0,1,0,6.61v1.1h-2.2V200A3.3,3.3,0,0,1,743.49,196.71Z"/><path class="cls-16" d="M796.35,196.71a1.1,1.1,0,0,0-1.1-1.1v2.2A1.1,1.1,0,0,0,796.35,196.71Z"/><path class="cls-16" d="M793,191.2a1.1,1.1,0,0,0,0,2.2Z"/><path class="cls-16" d="M794.15,202.21a7.71,7.71,0,1,0-7.71-7.71A7.71,7.71,0,0,0,794.15,202.21Zm-4.4-9.91A3.31,3.31,0,0,1,793,189v-1.1h2.2V189a3.31,3.31,0,0,1,3.3,3.3h-2.2a1.1,1.1,0,0,0-1.1-1.1v2.2a3.3,3.3,0,0,1,0,6.61v1.1H793V200a3.31,3.31,0,0,1-3.3-3.3h2.2a1.1,1.1,0,0,0,1.1,1.1v-2.2A3.31,3.31,0,0,1,789.74,192.3Z"/><path class="cls-16" d="M744.6,206.62h2.2v2.2h-2.2Z"/><path class="cls-16" d="M744.6,211h2.2v2.2h-2.2Z"/><path class="cls-16" d="M749,206.62h2.2v2.2H749Z"/><path class="cls-16" d="M795.25,206.62h2.2v2.2h-2.2Z"/><path class="cls-16" d="M795.25,211h2.2v2.2h-2.2Z"/><path class="cls-16" d="M790.85,206.62H793v2.2h-2.2Z"/><path class="cls-16" d="M769.92,211h2.2v2.2h-2.2Z"/><path class="cls-16" d="M798.55,227.54h-8.81a3.31,3.31,0,0,0-3.3,3.3v4.4a3.31,3.31,0,0,0,3.3,3.3h8.81a3.31,3.31,0,0,0,3.3-3.3v-4.4A3.31,3.31,0,0,0,798.55,227.54Zm-6.61,8.81a3.3,3.3,0,1,1,3.3-3.3A3.3,3.3,0,0,1,791.95,236.35Z"/><circle class="cls-16" cx="791.95" cy="233.05" r="1.1"/><path class="cls-16" d="M784.24,235.25v-4.4a5.51,5.51,0,0,1,5.51-5.51h6.61v-6.61a1.1,1.1,0,0,0-1.1-1.1H747.9a1.1,1.1,0,0,0-1.1,1.1v28.63a1.1,1.1,0,0,0,1.1,1.1h47.35a1.1,1.1,0,0,0,1.1-1.1v-6.61h-6.61A5.51,5.51,0,0,1,784.24,235.25Zm-31.93,9.91h-2.2V220.93h2.2Z"/><rect class="cls-4" x="355.58" y="25.72" width="1.21" height="4.82"/><path class="cls-4" d="M356.18,23.39a.71.71,0,1,0,0,1.42.7.7,0,0,0,.72-.71.71.71,0,0,0-.72-.71Z"/><path class="cls-4" d="M359.57,29.75V28.4h1.69v-.69h-1.69V26.39c0-.05,0-.08.11-.08h1.94v-.59h-2.3a.86.86,0,0,0-.78.31,1.44,1.44,0,0,0-.17.76V29.6a1,1,0,0,0,.22.71.86.86,0,0,0,.63.23h2.4v-.59h-1.81C359.61,29.95,359.57,29.87,359.57,29.75Z"/><path class="cls-4" d="M366.25,28.46l0,0-.64-1c-.32-.48-.62-.91-.87-1.27a1.25,1.25,0,0,0-.35-.35,1,1,0,0,0-1.08.07.76.76,0,0,0-.24.6v4h.7V26.86h0l.49.75,1.27,2,.37.55.16.25a.75.75,0,0,0,.2.21.51.51,0,0,0,.29.08c.19,0,.31-.06.36-.17a1.08,1.08,0,0,0,.06-.42V25.72h-.7Z"/><polygon class="cls-4" points="394.24 25.72 394.24 26.41 395.17 26.41 395.17 30.53 396.38 30.53 396.38 26.41 397.31 26.41 397.31 25.72 394.24 25.72"/><path class="cls-4" d="M375.16,29.75V28.4h1.69v-.69h-1.69V26.39c0-.05,0-.08.11-.08h1.94v-.59h-2.3a.86.86,0,0,0-.78.31,1.43,1.43,0,0,0-.17.76V29.6a1,1,0,0,0,.22.71.86.86,0,0,0,.64.23h2.4v-.59H375.4C375.2,29.95,375.16,29.87,375.16,29.75Z"/><path class="cls-4" d="M371.21,30H371a1,1,0,0,1-1-.57,3.39,3.39,0,0,1-.29-1.45,3.29,3.29,0,0,1,.13-.92,1.53,1.53,0,0,1,.4-.69.91.91,0,0,1,.67-.25,1.47,1.47,0,0,1,1.23.88l.57-.28a2.63,2.63,0,0,0-.85-.91,2,2,0,0,0-1.08-.28,2.33,2.33,0,0,0-1.27.35,2.38,2.38,0,0,0-.86.92,2.62,2.62,0,0,0-.3,1.24.33.33,0,0,0,0,0h0v0c0,.05,0,.1,0,.15s0,0,0,.07a2.58,2.58,0,0,0,.29,1l.08.13,0,.05.1.14.11.14.06.07h0l.19.18.11.09.08.06.1.07a2.35,2.35,0,0,0,1.27.35,2,2,0,0,0,1.08-.28,2.66,2.66,0,0,0,.85-.91l-.57-.28A1.58,1.58,0,0,1,371.21,30Z"/><path class="cls-4" d="M352.51,30h-.18a1,1,0,0,1-1-.57,3.38,3.38,0,0,1-.29-1.45,3.29,3.29,0,0,1,.13-.92,1.53,1.53,0,0,1,.4-.69.91.91,0,0,1,.67-.25,1.48,1.48,0,0,1,1.23.88l.57-.28a2.64,2.64,0,0,0-.85-.91,2,2,0,0,0-1.09-.28,2.34,2.34,0,0,0-1.27.35,2.38,2.38,0,0,0-.86.92,2.59,2.59,0,0,0-.3,1.24s0,0,0,0h0v0c0,.05,0,.1,0,.15v.07a2.58,2.58,0,0,0,.29,1l.08.13,0,.05.1.14.11.14.06.07h0l.19.18.11.09.08.06.1.07a2.35,2.35,0,0,0,1.27.35,2,2,0,0,0,1.09-.28,2.65,2.65,0,0,0,.85-.91l-.57-.28A1.59,1.59,0,0,1,352.51,30Z"/><path class="cls-4" d="M387.17,25.6a2.52,2.52,0,1,0,2.51,2.52A2.52,2.52,0,0,0,387.17,25.6Zm0,4.44c-.64,0-1.15-.85-1.15-1.91s.52-1.91,1.15-1.91,1.15.86,1.15,1.91S387.8,30,387.17,30Z"/><path class="cls-4" d="M392.23,25.72v-1c0-.09,0-.19,0-.27a.27.27,0,0,1,.25-.24h.81v-.69h0c-1.95-.2-2.28,0-2.28,1.26v5.82h1.21V26.41h1.07v-.69Z"/><path class="cls-4" d="M348,29.64a2,2,0,0,0,.38-1.1,1.83,1.83,0,0,0-.5-1.3,4.26,4.26,0,0,0-1.29-.8c-.5-.22-.75-.34-1-.47a1,1,0,0,1,.24-1.91,1.4,1.4,0,0,1,.32,0,1.44,1.44,0,0,1,1.37.94l0,0,.51-.34v0a2,2,0,0,0-.51-.65,2.49,2.49,0,0,0-2.72-.31,2.06,2.06,0,0,0-.82.73,1.93,1.93,0,0,0-.3,1,1.67,1.67,0,0,0,.45,1.24,4.21,4.21,0,0,0,1.24.72,6.25,6.25,0,0,1,1.05.52l.14.1a1.07,1.07,0,0,1,.41.86,1.18,1.18,0,0,1-1.2,1.16h0a1.39,1.39,0,0,1-.78-.21,2.15,2.15,0,0,1-.6-.64l0,0-.54.39,0,0A2.4,2.4,0,0,0,346,30.66a2.43,2.43,0,0,0,1.11-.27A2.19,2.19,0,0,0,348,29.64Z"/><path class="cls-4" d="M383.21,29.64a2,2,0,0,0,.38-1.1,1.83,1.83,0,0,0-.51-1.3,4.24,4.24,0,0,0-1.29-.8c-.5-.22-.75-.34-1-.47a1,1,0,0,1,.24-1.91,1.39,1.39,0,0,1,.32,0,1.44,1.44,0,0,1,1.37.94l0,0,.51-.34v0a2,2,0,0,0-.51-.65,2.49,2.49,0,0,0-2.72-.31,2.07,2.07,0,0,0-.82.73,1.93,1.93,0,0,0-.3,1,1.67,1.67,0,0,0,.45,1.24,4.2,4.2,0,0,0,1.24.72,6.28,6.28,0,0,1,1.05.52l.14.1a1.07,1.07,0,0,1,.41.86A1.18,1.18,0,0,1,381,30h0a1.39,1.39,0,0,1-.79-.21,2.15,2.15,0,0,1-.6-.64l0,0-.54.39,0,0a2.4,2.4,0,0,0,2.21,1.11,2.43,2.43,0,0,0,1.11-.27A2.19,2.19,0,0,0,383.21,29.64Z"/><path class="cls-4" d="M337.55,30.32c0-1-.69-1.68-2.39-2.43-1.45-.65-2.86-1.43-2.86-3.19a3.09,3.09,0,0,1,1.4-2.68H329.9V33h3C335.91,33,337.55,32.1,337.55,30.32Z"/><path class="cls-4" d="M338.31,29.35a2.63,2.63,0,0,1,.17.73h2.42v-.73Z"/><path class="cls-4" d="M337.09,27.89a4,4,0,0,1,.79.73h3v-.73Z"/><path class="cls-4" d="M340.9,30.82h-2.45a3.22,3.22,0,0,1-.2.73h2.65Z"/><path class="cls-4" d="M340.9,22.75V22h-3.16a6.67,6.67,0,0,0-3.47.73Z"/><path class="cls-4" d="M337.82,32.29A3.38,3.38,0,0,1,337,33h3.89v-.73Z"/><path class="cls-4" d="M333.55,23.49a2.15,2.15,0,0,0-.27.73h7.62v-.73Z"/><path class="cls-4" d="M334.35,26.42a9.53,9.53,0,0,0,1.19.62l.25.12h5.1v-.73Z"/><path class="cls-4" d="M333.25,25a1.57,1.57,0,0,0,.28.73h7.37V25Z"/></g></g></g></svg>