<?xml version="1.0" encoding="utf-8"?>
<!-- Generator: Adobe Illustrator 16.2.0, SVG Export Plug-In . SVG Version: 6.00 Build 0)  -->
<!DOCTYPE svg PUBLIC "-//W3C//DTD SVG 1.1//EN" "http://www.w3.org/Graphics/SVG/1.1/DTD/svg11.dtd">
<svg version="1.1" id="Layer_1" xmlns:sketch="http://www.bohemiancoding.com/sketch/ns"
	 xmlns="http://www.w3.org/2000/svg" xmlns:xlink="http://www.w3.org/1999/xlink" x="0px" y="0px" width="84px" height="84px"
	 viewBox="0 0 84 84" enable-background="new 0 0 84 84" xml:space="preserve">
<g id="Rectangle-290">
	<g sketch:type="MSShapeGroup">
		<path id="path-1" fill="#EEEEEE" stroke="#FFFFFF" stroke-width="4" d="M41,1h2c22.092,0,40,17.909,40,40v2
			c0,22.092-17.908,40-40,40h-2C18.909,83,1,65.092,1,43v-2C1,18.909,18.909,1,41,1z"/>
	</g>
	<g>
		<path id="path-1_1_" fill="none" stroke="#F2EDED" d="M41,1h2c22.092,0,40,17.909,40,40v2c0,22.092-17.908,40-40,40h-2
			C18.909,83,1,65.092,1,43v-2C1,18.909,18.909,1,41,1z"/>
	</g>
</g>
<path fill="#005EB8" d="M55.384,34.083c-0.586-6.156-5.777-10.978-12.095-10.978c-4.867,0-9.058,2.848-10.996,6.967
	c-0.649-0.244-1.352-0.37-2.073-0.37c-3.353,0-6.065,2.713-6.065,6.065c0,0.73,0.126,1.433,0.37,2.082
	c-2.641,1.542-4.425,4.417-4.425,7.697c0,4.759,3.74,9.147,8.436,9.409h10.112v-9.499h-4.344c-0.883,0-1.334-1.063-0.721-1.694
	l7.696-7.922c0.397-0.405,1.046-0.405,1.433,0l7.696,7.922c0.613,0.631,0.172,1.694-0.721,1.694h-4.344v9.518h8.985
	c5.345-0.379,9.571-5.074,9.571-10.5C63.909,39.401,60.224,34.913,55.384,34.083L55.384,34.083z M55.384,34.083"/>
</svg>
