<?xml version="1.0" encoding="utf-8"?>
<!-- Generator: Adobe Illustrator 21.0.2, SVG Export Plug-In . SVG Version: 6.00 Build 0)  -->
<svg version="1.1" id="Layer_1" xmlns:sketch="http://www.bohemiancoding.com/sketch/ns"
	 xmlns="http://www.w3.org/2000/svg" xmlns:xlink="http://www.w3.org/1999/xlink" x="0px" y="0px" viewBox="0 0 84 84"
	 style="enable-background:new 0 0 84 84;" xml:space="preserve">
<style type="text/css">
	.st0{fill:#EEEEEE;stroke:#FFFFFF;stroke-width:4;}
	.st1{fill:none;stroke:#F2EDED;}
	.st2{fill:#005EB8;}
</style>
<g id="Rectangle-290">
	<g sketch:type="MSShapeGroup">
		<path id="path-1" class="st0" d="M41,1h2c22.1,0,40,17.9,40,40v2c0,22.1-17.9,40-40,40h-2C18.9,83,1,65.1,1,43v-2
			C1,18.9,18.9,1,41,1z"/>
	</g>
	<g>
		<path id="path-1_1_" class="st1" d="M41,1h2c22.1,0,40,17.9,40,40v2c0,22.1-17.9,40-40,40h-2C18.9,83,1,65.1,1,43v-2
			C1,18.9,18.9,1,41,1z"/>
	</g>
</g>
<g>
	<path class="st2" d="M50.1,35.1h-9.9c-1.2,0-2.2,1-2.2,2.2V56c0,1.2,1,2.2,2.2,2.2h9.9c1.2,0,2.2-1,2.2-2.2V37.2
		C52.2,36,51.3,35.1,50.1,35.1L50.1,35.1z M40.3,37.3H50v16.6h-9.7V37.3z M44.1,55.9c0-0.6,0.5-1.1,1.1-1.1c0.6,0,1.1,0.5,1.1,1.1
		c0,0.6-0.5,1.1-1.1,1.1C44.5,57,44.1,56.5,44.1,55.9L44.1,55.9z"/>
	<path class="st2" d="M36,56v-3.6H22.5V28.2c0-0.7,0.5-1.2,1.2-1.2h17.5c0.7,0,1.2,0.5,1.2,1.2v4.9h3v-4.9c0-2.3-1.9-4.2-4.2-4.2
		H23.7c-2.3,0-4.2,1.9-4.2,4.2v25.7c0,2.3,1.9,4.2,4.2,4.2h12.9C36.3,57.5,36,56.8,36,56z M33.7,56.4C33.4,56.8,33,57,32.5,57
		c-0.5,0-1-0.2-1.3-0.6c-0.2-0.3-0.4-0.7-0.4-1.1c0-0.9,0.8-1.7,1.7-1.7c0.9,0,1.7,0.8,1.7,1.7C34.2,55.7,34,56.1,33.7,56.4z"/>
	<path class="st2" d="M64.4,43.9H54.2v2.3h8.1v9.7h-8.1V56c0,0.8-0.2,1.5-0.6,2.2h10.7c1.2,0,2.2-1,2.2-2.2v-9.9
		C66.5,44.9,65.5,43.9,64.4,43.9z M64.3,52.1c-0.6,0-1.1-0.5-1.1-1.1c0-0.6,0.5-1.1,1.1-1.1c0.6,0,1.1,0.5,1.1,1.1
		C65.4,51.6,64.9,52.1,64.3,52.1z"/>
</g>
<path class="st2" d="M36.8,34.5c-3.3,2-5.6,4.5-6.6,5.7l-2.5-1.9c-0.1,0-1.4,1.1-1.4,1.2l4.5,4.5c0,0,0.1,0.1,0.1,0.1c0,0,0,0,0,0
	c0.1,0,0.1-0.1,0.1-0.1c0.7-1.8,3.1-5.7,6.1-8.5c0.1,0,0.1-0.1,0-0.2C37.4,35.2,36.9,34.4,36.8,34.5L36.8,34.5z"/>
<path class="st2" d="M48.3,43c-2.1,1.3-3.7,2.9-4.3,3.7l-1.6-1.2c0,0-0.9,0.7-0.9,0.8l2.9,3c0,0,0.1,0,0.1,0c0,0,0,0,0,0
	c0,0,0.1,0,0.1-0.1c0.5-1.2,2-3.7,4-5.5c0,0,0-0.1,0-0.1C48.7,43.5,48.4,43,48.3,43L48.3,43z"/>
<path class="st2" d="M59.7,48.6c-1.7,1-2.9,2.3-3.4,2.9l-1.3-1c0,0-0.7,0.6-0.7,0.6l2.3,2.3c0,0,0,0,0.1,0c0,0,0,0,0,0
	c0,0,0.1,0,0.1-0.1c0.4-0.9,1.6-2.9,3.2-4.4c0,0,0-0.1,0-0.1C60,48.9,59.7,48.6,59.7,48.6L59.7,48.6z"/>
</svg>
