<?xml version="1.0" encoding="utf-8"?>
<!-- Generator: Adobe Illustrator 21.0.2, SVG Export Plug-In . SVG Version: 6.00 Build 0)  -->
<svg version="1.1" id="Layer_1" xmlns:sketch="http://www.bohemiancoding.com/sketch/ns"
	 xmlns="http://www.w3.org/2000/svg" xmlns:xlink="http://www.w3.org/1999/xlink" x="0px" y="0px" viewBox="0 0 150 150"
	 style="enable-background:new 0 0 150 150;" xml:space="preserve">
<style type="text/css">
	.st0{fill:#EEEEEE;}
	.st1{fill:#FFFFFF;}
	.st2{fill:#ED8B00;stroke:#ED8B00;stroke-width:1.0093;stroke-miterlimit:10;}
	.st3{fill:#005EB8;}
	.st4{fill:#97ACB7;}
	.st5{fill:#7E939E;}
	.st6{fill:#353F49;}
	.st7{fill:#2C353D;}
	.st8{fill:#48A23F;}
	.st9{fill:#E4F2FB;}
	.st10{fill:#546E7A;}
</style>
<g sketch:type="MSShapeGroup">
	<g id="path-1">
		<path class="st0" d="M73,150c-40.4,0-73-32.8-73-73.2V73C0,32.6,32.6,0,73,0h3.8C117.2,0,150,32.8,150,73.2V77
			c0,40.4-32.8,73.2-73.2,73.2H73V150z"/>
		<path class="st1" d="M76.8,3.6c38.4,0,69.7,31.1,69.7,69.7V77c0,38.3-31.2,69.7-69.7,69.7h-3.7c-38.4-0.2-69.6-31.5-69.6-69.8
			v-3.7c0-38.3,31.2-69.5,69.6-69.5L76.8,3.6 M76.7,2h-3.6C33.9,2,2,33.7,2,73.1v3.6C2,116.1,33.9,148,73.3,148h3.6
			c39.2,0,71.1-31.9,71.1-71.3v-3.6C148,33.7,116.1,2,76.7,2L76.7,2z"/>
	</g>
</g>
<g>
	<path class="st2" d="M103.2,71.8c-27,0-27,0-27,0c0-7.2,0-7.2,0-7.2c-1.4,0-1.4,0-1.4,0c0,7.2,0,7.2,0,7.2c-28.1,0-28.1,0-28.1,0
		c-0.5,0-0.9,0.5-0.9,0.9c0,6.7,0,8,0,8c1.6,0,1.6,0,1.6,0c0-6,0-7.3,0-7.3c54.8,0,54.8,0,54.8,0c0,6,0,7.3,0,7.3c1.6,0,1.6,0,1.6,0
		c0-6.7,0-8,0-8C103.9,72.2,103.7,71.8,103.2,71.8L103.2,71.8z"/>
	<path class="st3" d="M97.8,41.2c-0.7-11.2-9.9-20.4-21.3-21.1l0,0c-1.7,0-1.7,0-1.7,0c-1.4,0-1.4,0-1.4,0l0,0
		c-11.7,0.7-20.6,9.9-21.6,21.1l0,0c0,1.7,0,1.7,0,1.7c0,1.4,0,1.4,0,1.4l0,0c1,11.6,9.9,20.4,21.6,21.1c0,0.3,0,0.3,0,0.3
		c1.4,0,1.4,0,1.4,0c1.7,0,1.7,0,1.7,0c0-0.3,0-0.3,0-0.3c11.3-0.7,20.6-9.5,21.3-21.1l0,0c0-1.4,0-1.4,0-1.4
		C97.8,41.2,97.8,41.2,97.8,41.2L97.8,41.2z M66.3,25.2c-1.4,1.7-2.7,4.1-3.4,7.1c-4.8,0-4.8,0-4.8,0C60.1,29.2,62.9,26.5,66.3,25.2
		L66.3,25.2z M56.7,35c5.1,0,5.1,0,5.1,0c-0.3,2-0.7,4.1-0.7,6.1c-6.2,0-6.2,0-6.2,0C55.3,39.1,55.7,37.1,56.7,35L56.7,35z M55,44.2
		c6.2,0,6.2,0,6.2,0c0,2,0.3,4.1,0.7,6.1c-5.1,0-5.1,0-5.1,0C55.7,48.3,55.3,46.3,55,44.2L55,44.2z M58.1,53.4c4.8,0,4.8,0,4.8,0
		c0.7,2.7,2.1,5.1,3.4,7.1C62.9,58.9,60.1,56.5,58.1,53.4L58.1,53.4z M73.5,62.3c-3.4-0.7-5.8-4.1-7.5-8.9c7.5,0,7.5,0,7.5,0V62.3z
		 M73.5,50.4c-8.6,0-8.6,0-8.6,0c-0.3-2-0.7-4.1-0.7-6.1c9.3,0,9.3,0,9.3,0V50.4z M73.5,41.2c-9.3,0-9.3,0-9.3,0
		c0-2,0.3-4.1,0.7-6.1c8.6,0,8.6,0,8.6,0V41.2z M73.5,32.3c-7.5,0-7.5,0-7.5,0c1.7-4.8,4.1-8.2,7.5-9.2V32.3z M91.7,32.3
		c-4.5,0-4.5,0-4.5,0c-1-3.1-2.4-5.4-3.8-7.1C86.9,26.5,89.6,29.2,91.7,32.3L91.7,32.3z M76.6,23.1c3.1,1,5.8,4.4,7.2,9.2
		c-7.2,0-7.2,0-7.2,0V23.1z M76.6,35c8.2,0,8.2,0,8.2,0c0.3,2,0.7,4.1,0.7,6.1c-8.9,0-8.9,0-8.9,0V35z M76.6,44.2c8.9,0,8.9,0,8.9,0
		c0,2-0.3,4.1-0.7,6.1c-8.2,0-8.2,0-8.2,0V44.2z M76.6,62.3c0-8.9,0-8.9,0-8.9c7.2,0,7.2,0,7.2,0C82.4,58.2,79.7,61.6,76.6,62.3
		L76.6,62.3z M83.4,60.6c1.4-2,2.7-4.4,3.8-7.1c4.5,0,4.5,0,4.5,0C89.6,56.5,86.9,58.9,83.4,60.6L83.4,60.6z M93.4,50.4
		c-5.5,0-5.5,0-5.5,0c0.3-2,0.7-4.1,0.7-6.1c6.2,0,6.2,0,6.2,0C94.4,46.3,94.1,48.3,93.4,50.4L93.4,50.4z M88.6,41.2
		c0-2-0.3-4.1-0.7-6.1c5.5,0,5.5,0,5.5,0c0.7,2,1,4.1,1.4,6.1H88.6z"/>
	<g>
		<path class="st4" d="M51.9,110.3c0.5,1.8,0.9,3.9,1.4,5.8c-13,0-13,0-13,0c0.5-1.8,0.9-3.9,1.4-5.8H51.9z"/>
		<path class="st5" d="M67.6,106.5c0,3,0,3,0,3c0,0.7-0.5,1.2-1.2,1.2l0,0c-41.6,0-39,0-39,0c-0.7,0-1.2-0.5-1.2-1.2l0,0
			c0-3,0-3,0-3H67.6z"/>
		<path class="st6" d="M26.3,106.5c0-26.3,0-26.3,0-26.3c0-0.7,0.5-1.2,1.2-1.2l0,0c41.6,0,39,0,39,0c0.5,0,1.2,0.5,1.2,1.2l0,0
			c0,26.3,0,26.3,0,26.3C23.7,106.5,26.3,106.5,26.3,106.5"/>
		<polygon class="st1" points="28.1,80.8 65.7,80.8 65.7,104.6 28.1,104.6 28.1,80.8 28.1,80.8 		"/>
		<g>
			<path class="st5" d="M54.5,116.7H39.1v-0.2c0-0.4,0.3-0.8,0.7-0.8h13.8c0.4,0,0.9,0.4,0.9,0.8V116.7z"/>
		</g>
	</g>
	<g>
		<path class="st4" d="M108.1,110.3c0.5,1.8,0.9,3.9,1.4,5.8c-13,0-13,0-13,0c0.5-1.8,0.9-3.9,1.4-5.8H108.1z"/>
		<path class="st5" d="M123.8,106.5c0,3,0,3,0,3c0,0.7-0.5,1.2-1.2,1.2l0,0c-41.6,0-39,0-39,0c-0.7,0-1.2-0.5-1.2-1.2l0,0
			c0-3,0-3,0-3H123.8z"/>
		<path class="st6" d="M82.4,106.5c0-26.3,0-26.3,0-26.3c0-0.7,0.5-1.2,1.2-1.2l0,0c41.6,0,39,0,39,0c0.5,0,1.2,0.5,1.2,1.2l0,0
			c0,26.3,0,26.3,0,26.3C79.8,106.5,82.4,106.5,82.4,106.5"/>
		<polygon class="st1" points="84.3,80.8 121.9,80.8 121.9,104.6 84.3,104.6 84.3,80.8 84.3,80.8 		"/>
		<g>
			<path class="st5" d="M110.7,116.7H95.3v-0.2c0-0.4,0.3-0.8,0.7-0.8h13.8c0.4,0,0.9,0.4,0.9,0.8V116.7z"/>
		</g>
	</g>
	<g>
		<path class="st7" d="M74.9,50.9c-4.9,0-8.9,4-8.9,8.9v10.4h2.9V59.8c0-3.3,2.7-6,6-6s6,2.7,6,6v10.4h2.9V59.8
			C83.8,54.9,79.8,50.9,74.9,50.9z"/>
		<rect x="60.9" y="66.2" class="st8" width="28" height="24.7"/>
		<rect x="60.9" y="66.2" class="st4" width="28" height="2.9"/>
		<rect x="60.9" y="88" class="st4" width="28" height="2.9"/>
		<g>
			<path class="st1" d="M74.9,71.2C74.9,71.2,74.8,71.2,74.9,71.2c-4.1,0-7.4,3.3-7.4,7.4c0,4.1,3.3,7.3,7.3,7.3c0,0,0,0,0,0
				c4.1,0,7.4-3.3,7.4-7.4C82.2,74.4,78.9,71.2,74.9,71.2z M74.8,84.2c-3.1,0-5.7-2.6-5.7-5.7c0-3.1,2.6-5.7,5.7-5.7
				c3.1,0,5.7,2.6,5.7,5.7C80.5,81.7,78,84.2,74.8,84.2z"/>
			<circle class="st9" cx="74.8" cy="78.5" r="5.7"/>
		</g>
		<path class="st10" d="M73.5,81.4l0.3-2.5c-0.4-0.3-0.6-0.8-0.6-1.3c0-0.9,0.8-1.7,1.7-1.7c0.9,0,1.7,0.8,1.7,1.7
			c0,0.6-0.3,1.1-0.7,1.4l0.3,2.4H73.5z"/>
	</g>
</g>
</svg>
