<?xml version="1.0" encoding="utf-8"?>
<!-- Generator: Adobe Illustrator 19.1.1, SVG Export Plug-In . SVG Version: 6.00 Build 0)  -->
<svg version="1.1" id="Layer_1" xmlns:sketch="http://www.bohemiancoding.com/sketch/ns"
	 xmlns="http://www.w3.org/2000/svg" xmlns:xlink="http://www.w3.org/1999/xlink" x="0px" y="0px" viewBox="-331 239 84 84"
	 style="enable-background:new -331 239 84 84;" xml:space="preserve">
<style type="text/css">
	.st0{fill:#EEEEEE;}
	.st1{fill:#FFFFFF;}
	.st2{fill:none;stroke:#F2EDED;}
	.st3{fill:#005EB8;}
	.st4{fill:none;stroke:#EEEEEE;stroke-width:5;stroke-miterlimit:10;}
	.st5{fill:#EEEEEE;stroke:#005EB8;stroke-width:3;stroke-miterlimit:10;}
	.st6{fill:#EEEEEE;stroke:#005EB8;stroke-width:3;stroke-linecap:round;stroke-miterlimit:10;}
	.st7{fill:#EEEEEE;stroke:#005EB8;stroke-width:3;stroke-linecap:round;stroke-linejoin:round;stroke-miterlimit:10;}
</style>
<g sketch:type="MSShapeGroup">
	<g id="path-1">
		<path class="st0" d="M-290,320.8c-21.4,0-38.8-17.4-38.8-38.8v-2c0-21.4,17.3-38.7,38.7-38.7h2c21.4,0,38.8,17.4,38.8,38.8v2
			c0,21.4-17.4,38.8-38.8,38.8L-290,320.8L-290,320.8z"/>
		<path class="st1" d="M-288,242.3c20.8,0,37.8,16.9,37.8,37.8v2c0,20.8-16.9,37.8-37.8,37.8h-2c-20.8-0.1-37.8-17.1-37.8-37.9v-2
			c0-20.8,16.9-37.7,37.7-37.7H-288 M-288,240.3h-2c-21.9,0-39.8,17.7-39.8,39.7v2c0,22,17.8,39.8,39.8,39.8h2
			c21.9,0,39.7-17.8,39.7-39.8v-2C-248.2,258-266,240.3-288,240.3L-288,240.3z"/>
	</g>
</g>
<g>
	<path id="path-1_1_" class="st2" d="M-290,240.3h2c22,0,39.8,17.7,39.8,39.7v2c0,22-17.8,39.8-39.8,39.8h-2
		c-21.9,0-39.8-17.8-39.8-39.8v-2C-329.8,258-311.9,240.3-290,240.3z"/>
</g>
<path class="st3" d="M-283.9,278.3c0,3.1-1.6,6.1-4.7,8.8c-1.8,1.6-3.7,2.6-4.5,3c-1.9-1-9.2-5.1-9.2-11.8v-6.4c0-0.5,0.4-1,0.9-1
	c2.9-0.5,5.6-2.1,6.9-3c0.4-0.3,0.9-0.4,1.4-0.4s1,0.1,1.4,0.4c1.3,0.9,4,2.5,6.9,3c0.5,0.1,0.9,0.5,0.9,1V278.3z"/>
<g>
	<g>
		<g>
			<g>
				<path class="st3" d="M-281,264.8c-3.6-0.6-6.9-2.6-8.6-3.7c-1.1-0.7-2.3-1.1-3.6-1.1s-2.6,0.4-3.6,1.1c-1.7,1.1-5,3.1-8.6,3.7
					c-2.1,0.4-3.7,2.2-3.7,4.4v9c0,3,0.8,5.8,2.5,8.6c1.3,2.1,3,4.2,5.3,6.1c3.7,3.2,7.4,4.8,7.6,4.9l0.6,0.3l0.6-0.3
					c0.2-0.1,3.8-1.7,7.6-4.9c2.2-1.9,4-3.9,5.3-6.1c1.6-2.7,2.5-5.6,2.5-8.6v-9C-277.3,267-278.8,265.2-281,264.8z M-280.2,278.1
					c0,4.4-2.2,8.6-6.6,12.3c-2.6,2.2-5.2,3.6-6.3,4.2c-2.6-1.3-12.9-7.2-12.9-16.5v-9c0-0.7,0.5-1.3,1.2-1.5
					c4.1-0.7,7.9-2.9,9.7-4.2c0.6-0.4,1.3-0.6,2-0.6c0.7,0,1.4,0.2,2,0.6c1.8,1.2,5.6,3.4,9.7,4.2c0.7,0.1,1.2,0.7,1.2,1.5V278.1z"
					/>
			</g>
		</g>
	</g>
	<circle class="st4" cx="-282.7" cy="287.2" r="9"/>
	<circle class="st5" cx="-282.7" cy="287.2" r="9"/>
	<line class="st6" x1="-276.1" y1="294" x2="-269" y2="302.1"/>
</g>
<polyline class="st7" points="-286.7,288.2 -283.6,291 -278.5,285 "/>
</svg>
