<svg width="55" height="55" viewBox="0 0 55 55" fill="none" xmlns="http://www.w3.org/2000/svg">
<g clip-path="url(#clip0)">
<path d="M48.5383 9.79355L46.705 4.2936C46.5462 3.81292 46.0277 3.55202 45.547 3.71083C45.5041 3.72504 45.4621 3.74245 45.4217 3.76285L39.9217 6.51283C39.4687 6.73913 39.2848 7.28992 39.5111 7.74298C39.7374 8.19604 40.2882 8.37995 40.7412 8.15365L43.7369 6.65583C35.8536 21.073 21.4767 30.2497 6.41602 30.2497V32.083C22.3457 32.083 37.5256 22.2894 45.6573 6.95741L46.7967 10.3729C46.9566 10.8538 47.4763 11.114 47.9572 10.954C48.4381 10.7941 48.6983 10.2745 48.5383 9.79355Z" fill="#7CCCDB"/>
<path d="M54.0829 0H0.916659C0.410434 0 0 0.410434 0 0.916659V42.1663C0 42.6725 0.410434 43.083 0.916659 43.083H17.092L13.7921 53.8134C13.6432 54.2974 13.9149 54.8104 14.3989 54.9592C14.8829 55.1081 15.3959 54.8364 15.5447 54.3524L17.3184 48.5829H37.6811L39.4567 54.3524C39.6055 54.8364 40.1185 55.1081 40.6025 54.9592C41.0865 54.8104 41.3582 54.2974 41.2093 53.8134L37.9075 43.083H54.0829C54.5891 43.083 54.9995 42.6725 54.9995 42.1663V0.916659C54.9995 0.410434 54.5891 0 54.0829 0ZM17.8822 46.7496L19.0106 43.083H35.989L37.1174 46.7496H17.8822ZM53.1662 41.2497H1.83332V1.83332H53.1662V41.2497Z" fill="#2855AF"/>
<path d="M10.9993 33.9165H7.33267C6.82645 33.9165 6.41602 34.3269 6.41602 34.8332V38.4998C6.41602 39.006 6.82645 39.4165 7.33267 39.4165H10.9993C11.5055 39.4165 11.916 39.006 11.916 38.4998V34.8332C11.916 34.3269 11.5055 33.9165 10.9993 33.9165ZM10.0827 37.5831H8.24933V35.7498H10.0827V37.5831Z" fill="#7CCCDB"/>
<path d="M20.1673 32.083H16.5006C15.9944 32.083 15.584 32.4934 15.584 32.9997V38.4996C15.584 39.0058 15.9944 39.4163 16.5006 39.4163H20.1673C20.6735 39.4163 21.0839 39.0058 21.0839 38.4996V32.9997C21.0839 32.4934 20.6735 32.083 20.1673 32.083ZM19.2506 37.583H17.4173V33.9163H19.2506V37.583Z" fill="#7CCCDB"/>
<path d="M29.3333 28.4165H25.6667C25.1604 28.4165 24.75 28.8269 24.75 29.3332V38.4998C24.75 39.006 25.1604 39.4164 25.6667 39.4164H29.3333C29.8395 39.4164 30.25 39.006 30.25 38.4998V29.3332C30.25 28.8269 29.8395 28.4165 29.3333 28.4165ZM28.4166 37.5831H26.5833V30.2498H28.4166V37.5831Z" fill="#7CCCDB"/>
<path d="M38.4993 22.9165H34.8327C34.3264 22.9165 33.916 23.3269 33.916 23.8332V38.4997C33.916 39.0059 34.3264 39.4164 34.8327 39.4164H38.4993C39.0055 39.4164 39.416 39.0059 39.416 38.4997V23.8332C39.416 23.3269 39.0055 22.9165 38.4993 22.9165ZM37.5827 37.583H35.7493V24.7498H37.5827V37.583Z" fill="#7CCCDB"/>
<path d="M47.6673 12.8333H44.0006C43.4944 12.8333 43.084 13.2437 43.084 13.7499V38.4997C43.084 39.0059 43.4944 39.4164 44.0006 39.4164H47.6673C48.1735 39.4164 48.5839 39.0059 48.5839 38.4997V13.7499C48.5839 13.2437 48.1735 12.8333 47.6673 12.8333ZM46.7506 37.583H44.9173V14.6666H46.7506V37.583Z" fill="#7CCCDB"/>
</g>
<defs>
<clipPath id="clip0">
<rect width="55" height="55" fill="white"/>
</clipPath>
</defs>
</svg>
