<?xml version="1.0" encoding="utf-8"?>
<!-- Generator: Adobe Illustrator 21.1.0, SVG Export Plug-In . SVG Version: 6.00 Build 0)  -->
<svg version="1.1" xmlns="http://www.w3.org/2000/svg" xmlns:xlink="http://www.w3.org/1999/xlink" x="0px" y="0px"
	 viewBox="0 0 835 280" style="enable-background:new 0 0 835 280;" xml:space="preserve">
<style type="text/css">
	.st0{fill:url(#SVGID_1_);}
	.st1{fill:url(#SVGID_2_);}
	.st2{fill:url(#SVGID_3_);}
	.st3{fill:url(#SVGID_4_);}
	.st4{fill:url(#SVGID_5_);}
	.st5{fill:url(#SVGID_6_);}
	.st6{fill:url(#SVGID_7_);}
	.st7{fill:#FBB040;}
	.st8{fill:#FFFFFF;}
	.st9{fill:#707372;}
	.st10{fill:url(#SVGID_8_);}
	.st11{fill:#21333A;}
	.st12{clip-path:url(#SVGID_10_);}
	.st13{fill:url(#SVGID_11_);}
	.st14{opacity:0.2;fill:#0A518D;}
	.st15{opacity:0.5;clip-path:url(#SVGID_13_);}
	
		.st16{opacity:0.5;fill:none;stroke:#FEFEFE;stroke-width:0.6868;stroke-linecap:round;stroke-linejoin:round;stroke-miterlimit:10;}
	.st17{clip-path:url(#SVGID_10_);fill:url(#SVGID_14_);}
	.st18{opacity:0.5;clip-path:url(#SVGID_16_);}
	.st19{opacity:0.2;clip-path:url(#SVGID_10_);fill:url(#SVGID_17_);}
	.st20{fill:url(#SVGID_18_);}
	
		.st21{opacity:0.25;fill:none;stroke:#FFFFFF;stroke-width:0.6868;stroke-linecap:round;stroke-linejoin:round;stroke-miterlimit:10;}
	.st22{opacity:0.2;fill:#5FAE58;}
	.st23{fill:#03426D;}
	.st24{fill:url(#SVGID_19_);}
	.st25{opacity:0.2;fill:url(#SVGID_20_);}
	.st26{opacity:0.5;clip-path:url(#SVGID_22_);}
	.st27{opacity:0.5;fill:none;stroke:#FEFEFE;stroke-width:0.765;stroke-linecap:round;stroke-linejoin:round;stroke-miterlimit:10;}
	.st28{fill:url(#SVGID_23_);}
	.st29{opacity:0.5;clip-path:url(#SVGID_25_);}
	.st30{opacity:0.2;fill:#07559A;}
	.st31{fill:#0B4F87;}
	.st32{fill:#70BEF2;}
	.st33{fill:url(#SVGID_26_);}
	.st34{fill:#ED8B00;}
	.st35{fill:url(#SVGID_27_);}
	.st36{fill:url(#SVGID_28_);}
	.st37{fill:url(#SVGID_29_);}
	.st38{fill:url(#SVGID_30_);}
	.st39{fill:url(#SVGID_31_);}
	.st40{fill:#F9CDAF;}
	.st41{fill:url(#SVGID_32_);}
	.st42{fill:#F44C3D;}
	.st43{fill:url(#SVGID_33_);}
	.st44{fill-rule:evenodd;clip-rule:evenodd;fill:#0B4F87;}
	.st45{fill-rule:evenodd;clip-rule:evenodd;fill:#FF8564;}
	.st46{fill-rule:evenodd;clip-rule:evenodd;fill:#FBB040;}
	.st47{fill-rule:evenodd;clip-rule:evenodd;fill:#F96041;}
	.st48{fill-rule:evenodd;clip-rule:evenodd;fill:#FFFFFF;}
	.st49{fill-rule:evenodd;clip-rule:evenodd;fill:#005EB8;}
	.st50{fill:#FF8564;}
	.st51{fill:#F96041;}
	.st52{fill:url(#SVGID_34_);}
	.st53{fill:#E2E2E2;}
	.st54{fill:url(#SVGID_35_);}
	.st55{fill:url(#SVGID_36_);}
	.st56{fill-rule:evenodd;clip-rule:evenodd;fill:#FFFFFF;stroke:#FFFFFF;stroke-miterlimit:10;}
	.st57{fill:none;stroke:#03426D;stroke-width:1.5;stroke-miterlimit:10;}
</style>
<g id="design">
</g>
<g id="color_palette">
	<g>
		<linearGradient id="SVGID_1_" gradientUnits="userSpaceOnUse" x1="625.3232" y1="102.2241" x2="652.1699" y2="102.2241">
			<stop  offset="0" style="stop-color:#ABD9F7"/>
			<stop  offset="0.1219" style="stop-color:#C1E2F8"/>
			<stop  offset="0.2385" style="stop-color:#CFE8F9"/>
			<stop  offset="0.3405" style="stop-color:#D4EAF9"/>
			<stop  offset="0.3595" style="stop-color:#D5EBF9"/>
			<stop  offset="0.529" style="stop-color:#DCEDF9"/>
			<stop  offset="1" style="stop-color:#DEEEF9"/>
		</linearGradient>
		<path class="st0" d="M638.7,117.9c7.4,0,13.4-7.1,13.4-15.7c0-8.7-6-15.7-13.4-15.7c-7.4,0-13.4,7.1-13.4,15.7
			C625.3,110.9,631.3,117.9,638.7,117.9z M638.7,95.5c2.4,0,4.4,3.1,4.4,6.7c0,3.6-2,6.7-4.4,6.7s-4.4-3.1-4.4-6.7
			C634.3,98.6,636.3,95.5,638.7,95.5z"/>
		<linearGradient id="SVGID_2_" gradientUnits="userSpaceOnUse" x1="634.8936" y1="119.252" x2="681.4785" y2="119.252">
			<stop  offset="0" style="stop-color:#ABD9F7"/>
			<stop  offset="0.1219" style="stop-color:#C1E2F8"/>
			<stop  offset="0.2385" style="stop-color:#CFE8F9"/>
			<stop  offset="0.3405" style="stop-color:#D4EAF9"/>
			<stop  offset="0.3595" style="stop-color:#D5EBF9"/>
			<stop  offset="0.529" style="stop-color:#DCEDF9"/>
			<stop  offset="1" style="stop-color:#DEEEF9"/>
		</linearGradient>
		<polygon class="st1" points="646.3,150.3 681.1,89 681.5,88.2 670.1,88.2 634.9,150.3 		"/>
		<linearGradient id="SVGID_3_" gradientUnits="userSpaceOnUse" x1="0.3991" y1="156.6781" x2="834.601" y2="156.6781">
			<stop  offset="0" style="stop-color:#ABD9F7"/>
			<stop  offset="0.1219" style="stop-color:#C1E2F8"/>
			<stop  offset="0.2385" style="stop-color:#CFE8F9"/>
			<stop  offset="0.3405" style="stop-color:#D4EAF9"/>
			<stop  offset="0.3595" style="stop-color:#D5EBF9"/>
			<stop  offset="0.529" style="stop-color:#DCEDF9"/>
			<stop  offset="1" style="stop-color:#DEEEF9"/>
		</linearGradient>
		<path class="st2" d="M830.4,228.4c-3.7-8.6-10.5-16.5-12.9-25.3c-3.3-12.2,2.5-24.8,0-37.1c-2-9.6-9.5-18.5-20.1-25.3
			c-5.7-3.7-12.4-6.7-19.6-9c-4.7-1.5-9.6-2.7-14.6-3.4c-2.5-0.4-5.1-0.7-7.6-0.9c-5.9-0.5-11.9-0.4-17.8,0
			c-17.8,1.4-34.9,6.9-48,15.1c0.8-2.1,1.3-4.4,1.3-6.8c0-8.7-6-15.7-13.4-15.7c-7.4,0-13.4,7.1-13.4,15.7c0,8.7,6,15.7,13.4,15.7
			c0.2,0,0.4,0,0.6,0c-0.4,0.4-0.9,0.9-1.3,1.3c-6.9,7.1-12.6,16-24.8,18.8c-15.4,3.5-31-4.5-47.2-6.2c-7.8-0.8-15.7,0-23,2
			c-1.1-5.5-2.4-10.8-3.9-16c-4.5-15.1-11.7-29.8-23.6-40.8S525.6,92.6,509.2,95c-17.9,2.6-35.3,15.7-52.4,10
			c-13.6-4.5-19.9-18.8-27.6-30.3C411,47.3,375.9,30,342,33.9c-17.3,2-32.3,11.1-41.2,23.6c-2.8-7.2-8.9-12.2-16-12.2
			c-9.7,0-17.6,9.3-17.6,20.7c0,11.4,7.9,20.7,17.6,20.7c2.7,0,5.2-0.7,7.5-2c0.1,5.1,1.2,10.4,3.3,15.7c6,15,10,30-18.3,48.8
			c-5.5-21.3-31.6-38.5-60.7-41.1c-19.3-1.8-38.9,2.5-54.8,10.8c-1.1-6.4-5.8-11.2-11.6-11.2c-6.5,0-11.8,6.2-11.8,13.8
			c0,4.4,1.8,8.3,4.5,10.8c-1.4,1.3-2.7,2.7-3.9,4.1c-6.8,8-12.4,18-24.5,21.2c-15.2,4-30.6-5.1-46.6-7
			c-14.6-1.7-29.6,3.1-40.1,10.7c-10.5,7.7-16.9,17.9-20.9,28.5C-4,218.7-2.2,255,20,280l800.3,0
			C836.4,266.2,837.6,245.1,830.4,228.4z M153.7,123.6c-1.6,1.1-3.2,2.2-4.7,3.4c-1.5-0.8-2.6-3-2.6-5.5c0-3.1,1.8-5.8,3.8-5.8
			c2,0,3.8,2.7,3.8,5.8C154,122.3,153.9,123,153.7,123.6z M284.8,75.9c-3.6,0-6.7-4.5-6.7-9.8s3.1-9.8,6.7-9.8
			c3.6,0,6.7,4.5,6.7,9.8S288.4,75.9,284.8,75.9z M677.6,142.4c-2.4,0-4.4-3.1-4.4-6.7c0-3.6,2-6.7,4.4-6.7c2.4,0,4.4,3.1,4.4,6.7
			C682,139.3,680,142.4,677.6,142.4z"/>
		<linearGradient id="SVGID_4_" gradientUnits="userSpaceOnUse" x1="104.4263" y1="92.3167" x2="128.0352" y2="92.3167">
			<stop  offset="0" style="stop-color:#ABD9F7"/>
			<stop  offset="0.1219" style="stop-color:#C1E2F8"/>
			<stop  offset="0.2385" style="stop-color:#CFE8F9"/>
			<stop  offset="0.3405" style="stop-color:#D4EAF9"/>
			<stop  offset="0.3595" style="stop-color:#D5EBF9"/>
			<stop  offset="0.529" style="stop-color:#DCEDF9"/>
			<stop  offset="1" style="stop-color:#DEEEF9"/>
		</linearGradient>
		<path class="st3" d="M116.2,106.1c6.5,0,11.8-6.2,11.8-13.8c0-7.6-5.3-13.8-11.8-13.8c-6.5,0-11.8,6.2-11.8,13.8
			C104.4,99.9,109.7,106.1,116.2,106.1z M116.2,86.5c2,0,3.8,2.7,3.8,5.8c0,3.1-1.8,5.8-3.8,5.8s-3.8-2.7-3.8-5.8
			C112.4,89.2,114.2,86.5,116.2,86.5z"/>
		<linearGradient id="SVGID_5_" gradientUnits="userSpaceOnUse" x1="112.7529" y1="107.2114" x2="153.7163" y2="107.2114">
			<stop  offset="0" style="stop-color:#ABD9F7"/>
			<stop  offset="0.1219" style="stop-color:#C1E2F8"/>
			<stop  offset="0.2385" style="stop-color:#CFE8F9"/>
			<stop  offset="0.3405" style="stop-color:#D4EAF9"/>
			<stop  offset="0.3595" style="stop-color:#D5EBF9"/>
			<stop  offset="0.529" style="stop-color:#DCEDF9"/>
			<stop  offset="1" style="stop-color:#DEEEF9"/>
		</linearGradient>
		<polygon class="st4" points="122.9,134.4 153.7,80 143.6,80 112.8,134.4 		"/>
		<linearGradient id="SVGID_6_" gradientUnits="userSpaceOnUse" x1="214.5" y1="20.676" x2="249.603" y2="20.676">
			<stop  offset="0" style="stop-color:#ABD9F7"/>
			<stop  offset="0.1219" style="stop-color:#C1E2F8"/>
			<stop  offset="0.2385" style="stop-color:#CFE8F9"/>
			<stop  offset="0.3405" style="stop-color:#D4EAF9"/>
			<stop  offset="0.3595" style="stop-color:#D5EBF9"/>
			<stop  offset="0.529" style="stop-color:#DCEDF9"/>
			<stop  offset="1" style="stop-color:#DEEEF9"/>
		</linearGradient>
		<path class="st5" d="M232.1,41.4c9.7,0,17.6-9.3,17.6-20.7c0-11.4-7.9-20.7-17.6-20.7c-9.7,0-17.6,9.3-17.6,20.7
			C214.5,32.1,222.4,41.4,232.1,41.4z M232.1,10.9c3.6,0,6.7,4.5,6.7,9.8c0,5.3-3.1,9.8-6.7,9.8c-3.6,0-6.7-4.5-6.7-9.8
			C225.4,15.4,228.4,10.9,232.1,10.9z"/>
		<linearGradient id="SVGID_7_" gradientUnits="userSpaceOnUse" x1="227.9835" y1="43.8021" x2="288.9214" y2="43.8021">
			<stop  offset="0" style="stop-color:#ABD9F7"/>
			<stop  offset="0.1219" style="stop-color:#C1E2F8"/>
			<stop  offset="0.2385" style="stop-color:#CFE8F9"/>
			<stop  offset="0.3405" style="stop-color:#D4EAF9"/>
			<stop  offset="0.3595" style="stop-color:#D5EBF9"/>
			<stop  offset="0.529" style="stop-color:#DCEDF9"/>
			<stop  offset="1" style="stop-color:#DEEEF9"/>
		</linearGradient>
		<polygon class="st6" points="241.9,85.3 288.9,2.3 275,2.3 228,85.3 		"/>
	</g>
	<path class="st7" d="M755.4,127.3c2.6,0.2,5.1,0.5,7.6,0.9l-15.5-3.6l0.6-2.4l42,9.9l-0.6,2.4l-11.8-2.8c7.2,2.3,13.9,5.4,19.6,9
		l12.3-52.1l-59.6-14l-12.4,52.7C743.5,126.9,749.5,126.9,755.4,127.3z M792.4,96c0.2-1,0.8-1.8,1.7-2.2c0.9-0.4,2-0.5,3.4-0.1
		c1.2,0.3,2.3,0.8,3.4,1.7l-1.5,2.2c-0.9-0.7-1.8-1.2-2.6-1.4c-0.4-0.1-0.7-0.1-0.9,0c-0.2,0.1-0.3,0.2-0.4,0.5
		c-0.1,0.2,0,0.5,0.2,0.7c0.2,0.2,0.7,0.7,1.7,1.4c0.9,0.7,1.4,1.3,1.7,1.9s0.3,1.3,0.1,2c-0.2,0.7-0.5,1.3-1,1.8
		c-0.5,0.5-1.1,0.8-1.9,0.9c-0.7,0.1-1.6,0.1-2.5-0.1c-0.8-0.2-1.4-0.4-1.9-0.6c-0.5-0.2-1-0.5-1.5-0.9l0.6-2.7
		c0.5,0.4,1.1,0.8,1.7,1.1c0.6,0.3,1.2,0.5,1.7,0.7c0.5,0.1,0.8,0.1,1.1,0c0.3-0.1,0.4-0.3,0.5-0.5c0-0.2,0-0.3,0-0.4
		s-0.2-0.3-0.3-0.5s-0.6-0.5-1.3-1.1c-0.7-0.5-1.1-1-1.4-1.4c-0.3-0.4-0.5-0.8-0.6-1.3S792.3,96.5,792.4,96z M779,89.5l-0.1,6
		c0,1.3-0.1,2.4-0.1,3.1c0.2-0.5,0.5-1.2,0.9-2.1c0.4-0.9,0.7-1.6,1-2.1l2-4.1l2.9,0.7l0,4.5c0,0.7,0,1.6-0.1,2.5
		c0,0.9-0.1,1.6-0.1,2.1c0.2-0.6,0.6-1.5,1.3-2.9l2.6-5.4l3,0.7l-5.5,10.7l-3.6-0.9l0.1-5.2c0-0.2,0-0.7,0-1.3s0.1-1.2,0.1-1.6
		c-0.1,0.3-0.3,0.7-0.5,1.2c-0.2,0.5-0.4,0.9-0.6,1.3c-0.2,0.4-1,2-2.3,4.8l-3.6-0.9l-0.1-12L779,89.5z M775.1,88.5l-0.6,2.5
		l-3.7-0.9l-0.4,1.8l3.4,0.8l-0.6,2.5l-3.4-0.8l-0.5,2.1l3.7,0.9l-0.6,2.5l-6.8-1.6l2.7-11.4L775.1,88.5z M755,83.8l4,0.9l2.3,8.9
		l0,0c0.2-1.2,0.4-2.1,0.5-2.8l1.2-5.1l2.7,0.6l-2.7,11.4l-4-0.9l-2.3-9l-0.1,0c-0.2,1.3-0.4,2.3-0.5,2.9l-1.2,5.1l-2.7-0.6
		L755,83.8z M749.4,116.7l42,9.9l-0.6,2.4l-42-9.9L749.4,116.7z"/>
	<path class="st8" d="M756.3,90.7c0.2-0.7,0.3-1.6,0.5-2.9l0.1,0l2.3,9l4,0.9l2.7-11.4l-2.7-0.6l-1.2,5.1c-0.2,0.7-0.3,1.6-0.5,2.8
		l0,0l-2.3-8.9l-4-0.9l-2.7,11.4l2.7,0.6L756.3,90.7z"/>
	<polygon class="st8" points="772.4,99.9 773,97.4 769.3,96.5 769.8,94.4 773.2,95.2 773.8,92.7 770.4,91.9 770.8,90.1 774.5,91 
		775.1,88.5 768.3,86.9 765.6,98.3 	"/>
	<path class="st8" d="M779.9,101.7c1.4-2.8,2.1-4.4,2.3-4.8c0.2-0.4,0.4-0.8,0.6-1.3c0.2-0.5,0.4-0.9,0.5-1.2c0,0.4-0.1,1-0.1,1.6
		s0,1.1,0,1.3l-0.1,5.2l3.6,0.9l5.5-10.7l-3-0.7l-2.6,5.4c-0.6,1.4-1.1,2.3-1.3,2.9c0-0.5,0.1-1.2,0.1-2.1c0-0.9,0.1-1.8,0.1-2.5
		l0-4.5l-2.9-0.7l-2,4.1c-0.3,0.6-0.6,1.3-1,2.1c-0.4,0.9-0.7,1.6-0.9,2.1c0.1-0.8,0.1-1.8,0.1-3.1l0.1-6l-3-0.7l0.1,12L779.9,101.7
		z"/>
	<path class="st8" d="M792.9,98.8c0.3,0.4,0.8,0.9,1.4,1.4c0.7,0.6,1.2,0.9,1.3,1.1s0.3,0.3,0.3,0.5s0.1,0.3,0,0.4
		c-0.1,0.2-0.2,0.4-0.5,0.5c-0.3,0.1-0.6,0.1-1.1,0c-0.5-0.1-1.1-0.3-1.7-0.7c-0.6-0.3-1.1-0.7-1.7-1.1l-0.6,2.7
		c0.5,0.4,1,0.7,1.5,0.9c0.5,0.2,1.1,0.4,1.9,0.6c0.9,0.2,1.7,0.2,2.5,0.1c0.7-0.1,1.4-0.4,1.9-0.9c0.5-0.5,0.8-1,1-1.8
		c0.2-0.8,0.1-1.5-0.1-2s-0.8-1.2-1.7-1.9c-0.9-0.7-1.5-1.2-1.7-1.4c-0.2-0.2-0.3-0.5-0.2-0.7c0-0.2,0.2-0.4,0.4-0.5
		c0.2-0.1,0.5-0.1,0.9,0c0.8,0.2,1.6,0.6,2.6,1.4l1.5-2.2c-1.1-0.8-2.2-1.4-3.4-1.7c-1.3-0.3-2.5-0.3-3.4,0.1
		c-0.9,0.4-1.5,1.1-1.7,2.2c-0.1,0.6-0.2,1.1-0.1,1.5S792.6,98.4,792.9,98.8z"/>
	<g>
		<g>
			<path class="st9" d="M292.6,189.9h253.4c4.6,0,8.8,2.3,11.3,6.1l41.1,63.1c1.4,2.2,2.2,4.8,2.2,7.4l0,0c0,7.5-6,13.5-13.5,13.5
				H251.5c-7.5,0-13.5-6-13.5-13.5l0,0c0-2.6,0.8-5.2,2.2-7.4l41.1-63.1C283.7,192.2,288,189.9,292.6,189.9z"/>
			<linearGradient id="SVGID_8_" gradientUnits="userSpaceOnUse" x1="282.7839" y1="225.2536" x2="573.0402" y2="225.2536">
				<stop  offset="1.081080e-02" style="stop-color:#70BEF2"/>
				<stop  offset="1" style="stop-color:#29A0E2"/>
			</linearGradient>
			<path class="st10" d="M375.9,254.4h-3.1h-85.5c-3.5,0-5.7-3.8-4-6.8l25.6-45.8c2-3.5,5.7-5.7,9.7-5.7h217.6c4,0,7.6,2.1,9.6,5.6
				l26.6,45.9c1.8,3-0.4,6.9-3.9,6.9h-91.7h-45.5h-14.4H375.9"/>
			<path class="st11" d="M273.2,225c-1,3.8,1.3,7,5.2,7.1c3.9,0.1,7.9-2.8,8.9-6.6c1-3.8-1.3-7-5.2-7.1
				C278.2,218.3,274.2,221.2,273.2,225z"/>
		</g>
		<path class="st11" d="M238,266.5c0,7.5,6,13.5,13.5,13.5H587c3.7,0,7.1-1.5,9.6-4c2.4-2.4,4-5.8,4-9.6c0-1.4-0.2-2.7-0.6-4H238.6
			C238.2,263.8,238,265.1,238,266.5z"/>
	</g>
	<g>
		<defs>
			<rect id="SVGID_9_" x="260.5" y="118.8" width="357" height="135.6"/>
		</defs>
		<clipPath id="SVGID_10_">
			<use xlink:href="#SVGID_9_"  style="overflow:visible;"/>
		</clipPath>
		<g class="st12">
			
				<linearGradient id="SVGID_11_" gradientUnits="userSpaceOnUse" x1="707.975" y1="203.2381" x2="768.064" y2="203.2381" gradientTransform="matrix(-1 0 0 1 1085.1302 0)">
				<stop  offset="1.081080e-02" style="stop-color:#0B4F87"/>
				<stop  offset="1" style="stop-color:#005EB8"/>
			</linearGradient>
			<path class="st13" d="M377.1,256.8c0,0,3.9-83-59.8-107c0,0-5.6,64.2,34.9,107H377.1z"/>
			<path class="st14" d="M352.2,256.8h10.4c-34-35.9-35.5-87-35.1-102.4c-3.2-1.7-6.5-3.3-10.1-4.6
				C317.3,149.7,311.7,213.9,352.2,256.8z"/>
			<g>
				<defs>
					<path id="SVGID_12_" d="M377.1,256.8c0,0,3.9-83-59.8-107c0,0-5.6,64.2,34.9,107H377.1z"/>
				</defs>
				<clipPath id="SVGID_13_">
					<use xlink:href="#SVGID_12_"  style="overflow:visible;"/>
				</clipPath>
				<g class="st15">
					<path class="st16" d="M317.3,149.7c0,0,32.9,41.5,46.1,107"/>
					<path class="st16" d="M335.5,178.7c0,0-9.5-2.9-17.5-3.8"/>
					<path class="st16" d="M343.4,194.8c0,0,2.2-19.8,1.3-28"/>
					<path class="st16" d="M349.4,209c0,0-11.8-1.6-25.1-2"/>
					<path class="st16" d="M355.1,225.2c0,0,9.3-20.3,7-35.2"/>
					<path class="st16" d="M359.9,241.4c0,0-9.1-3.5-24.2-7.3"/>
					<path class="st16" d="M362,250c0,0,11-16,11.8-26.8"/>
				</g>
			</g>
		</g>
		
			<linearGradient id="SVGID_14_" gradientUnits="userSpaceOnUse" x1="729.2734" y1="223.1442" x2="805.3418" y2="223.1442" gradientTransform="matrix(-1 0 0 1 1085.1302 0)">
			<stop  offset="1.081080e-02" style="stop-color:#005EB8"/>
			<stop  offset="1" style="stop-color:#29A0E2"/>
		</linearGradient>
		<path class="st17" d="M355.9,256.8c0,0,0-69.2-76.1-67.2c0,0,11.5,45.1,50.1,67.2H355.9z"/>
		<g class="st12">
			<defs>
				<path id="SVGID_15_" d="M355.9,256.8c0,0,0-69.2-76.1-67.2c0,0,11.5,45.1,50.1,67.2H355.9z"/>
			</defs>
			<clipPath id="SVGID_16_">
				<use xlink:href="#SVGID_15_"  style="overflow:visible;"/>
			</clipPath>
			<g class="st18">
				<path class="st16" d="M279.8,189.6c0,0,48.4,22.1,63.6,67.2"/>
				<path class="st16" d="M303.8,204.6c0,0-8.6-0.8-18.2,0.6"/>
				<path class="st16" d="M316.3,215.4c0,0-0.7-15.8-5.5-21.9"/>
				<path class="st16" d="M327.6,228c0,0-16.5-1.6-28,1.4"/>
				<path class="st16" d="M335.1,238.8c0,0,3.3-17.5-1.4-32.4"/>
				<path class="st16" d="M340.9,250.2c0,0-10.4-3.1-23.8-2.3"/>
			</g>
		</g>
		
			<linearGradient id="SVGID_17_" gradientUnits="userSpaceOnUse" x1="744.7505" y1="223.1457" x2="805.3385" y2="223.1457" gradientTransform="matrix(-1 0 0 1 1085.1302 0)">
			<stop  offset="1.081080e-02" style="stop-color:#005EB8"/>
			<stop  offset="1" style="stop-color:#29A0E2"/>
		</linearGradient>
		<path class="st19" d="M279.8,189.6c0,0,11.5,45.1,50,67.2h10.5c-37-21.2-49.1-63.6-50-67C287,189.6,283.5,189.5,279.8,189.6z"/>
		<g class="st12">
			
				<linearGradient id="SVGID_18_" gradientUnits="userSpaceOnUse" x1="679.731" y1="232.6257" x2="723.7338" y2="188.6228" gradientTransform="matrix(-1 0 0 1 1085.1302 0)">
				<stop  offset="0" style="stop-color:#34983F"/>
				<stop  offset="1" style="stop-color:#71BE72"/>
			</linearGradient>
			<path class="st20" d="M353.3,247.7c-0.1,3.4,1.5,6.9,4.1,9h35c3.9-3.4,6.3-8.4,7.8-13.4c1.7-6.1,1.1-12.8-1.9-18.4
				c-1.5-2.9-3.6-5.5-4.5-8.7c-0.8-2.8-0.5-5.6,0.3-8.4c0.4-1.7,1-3.5,1.6-5.2c1.6-4.7,3.3-9.3,2.2-14c-1.3-5.4-6-9.2-8.8-13.9
				c-3.4-5.9-3.8-13-4.2-19.8c-0.4-6.8-1-13.9-4.8-19.6c-3.8-5.7-11.7-9.2-17.6-5.7c-4.6,2.7-6.4,8.6-5.9,13.9
				c0.5,5.3,2.7,10.3,4.3,15.3c1.6,5.1,2.7,10.7,0.8,15.7c-1.6,4.2-5.1,7.5-6.4,11.9c-1.6,5,0.1,10.5,2.2,15.3
				c0.1,0.3,0.3,0.6,0.4,0.9c0.8,1.7,1.6,3.5,2.3,5.2c1.1,2.8,2.1,5.7,2.2,8.8c0.3,5.4-2,10.6-4.2,15.6
				C355.8,237.2,353.4,242.3,353.3,247.7z"/>
			<path class="st21" d="M377.6,258c-5.3-2.5-7.6-9-7.2-14.8c0.5-5.8,3.1-11.2,5.3-16.6c2.2-5.4,4.1-11.2,3-17
				c-0.8-4.4-3.3-8.3-3.9-12.7c-0.9-6.4,2.5-12.9,1.3-19.3c-1-5.6-5.4-10.1-6.4-15.7c-0.9-4.8,0.8-9.7,1.7-14.5
				c0.9-4.8,0.8-10.4-2.8-13.8"/>
			<path class="st22" d="M353.3,247.7c-0.1,3.4,1.5,6.9,4.1,9h8.9c-2.6-2.1-4.1-5.6-4.1-9c0.1-5.4,2.5-10.5,4.8-15.4
				c2.3-4.9,4.5-10.1,4.2-15.6c-0.1-3-1.1-5.9-2.2-8.8c-0.7-1.7-1.5-3.5-2.3-5.2c-0.1-0.3-0.3-0.6-0.4-0.9
				c-2.1-4.8-3.8-10.3-2.2-15.3c1.3-4.3,4.9-7.6,6.4-11.9c1.9-5,0.8-10.6-0.8-15.7c-1.6-5.1-3.9-10-4.3-15.3
				c-0.5-5.3,1.3-11.3,5.9-13.9c0.3-0.2,0.6-0.3,0.9-0.5c-3.3-1.2-6.8-1.3-9.8,0.5c-4.6,2.7-6.4,8.6-5.9,13.9
				c0.5,5.3,2.7,10.3,4.3,15.3c1.6,5.1,2.7,10.7,0.8,15.7c-1.6,4.2-5.1,7.5-6.4,11.9c-1.6,5,0.1,10.5,2.2,15.3
				c0.1,0.3,0.3,0.6,0.4,0.9c0.8,1.7,1.6,3.5,2.3,5.2c1.1,2.8,2.1,5.7,2.2,8.8c0.3,5.4-2,10.6-4.2,15.6
				C355.8,237.2,353.4,242.3,353.3,247.7z"/>
		</g>
		<g class="st12">
			<g>
				<path class="st23" d="M352.9,256.8c0,0-17.5-53.5-54.2-63.4c0,0,34.6,12.9,50,63.4H352.9z"/>
				<path class="st23" d="M306.8,196.4c0,0-20.6-12.7-43.2,4.2C263.6,200.6,290.6,208.3,306.8,196.4z"/>
				<path class="st23" d="M323.5,210.1c0,0-16.7-12-5.4-38.8C318,171.3,331.5,187.4,323.5,210.1z"/>
			</g>
			<g>
				<path class="st23" d="M352.9,256.8c0,0-11.9-36.5-36.9-43.2c0,0,23.6,8.8,34.1,43.2H352.9z"/>
				<path class="st23" d="M319.3,214.4c0,0-15.7-5-27.9,9.9C291.4,224.2,310.6,224.9,319.3,214.4z"/>
				<path class="st23" d="M335.3,228c0,0-8-11.5,5.4-26.1C340.8,201.8,345.7,215.2,335.3,228z"/>
			</g>
		</g>
		<g class="st12">
			
				<linearGradient id="SVGID_19_" gradientUnits="userSpaceOnUse" x1="565.8026" y1="206.7253" x2="647.8577" y2="206.7253" gradientTransform="matrix(-0.9933 0.1159 0.1159 0.9933 1057.6661 -67.2138)">
				<stop  offset="1.081080e-02" style="stop-color:#005EB8"/>
				<stop  offset="1" style="stop-color:#29A0E2"/>
			</linearGradient>
			<path class="st24" d="M444.4,267.1l32.3-3.8c12.7-14.4,21-30.6,26.5-46.3c3.6-10.2,5.9-20.2,7.5-29.2c0.1-0.5,0.2-1,0.3-1.5
				c0.2-0.9,0.3-1.8,0.4-2.7c0.2-1.2,0.3-2.4,0.5-3.6c0.1-0.8,0.2-1.7,0.3-2.5c0.1-0.5,0.1-1,0.2-1.5c0-0.5,0.1-0.9,0.1-1.4
				c0.1-1.1,0.2-2.2,0.3-3.3c0.1-0.7,0.1-1.4,0.2-2.1c0-0.5,0.1-0.9,0.1-1.4c0-0.1,0-0.2,0-0.3c0.7-11,0.3-17.9,0.3-17.9
				c-0.4,0.1-0.9,0.3-1.3,0.5c-0.6,0.2-1.1,0.4-1.7,0.7c-0.5,0.2-1,0.4-1.5,0.6c-0.5,0.2-1,0.4-1.4,0.6c-1.9,0.8-3.7,1.7-5.5,2.6
				C474.4,168.9,460,194,452.5,217C444.6,241.3,444.4,263.2,444.4,267.1z"/>
			
				<linearGradient id="SVGID_20_" gradientUnits="userSpaceOnUse" x1="565.8124" y1="206.7302" x2="628.564" y2="206.7302" gradientTransform="matrix(-0.9933 0.1159 0.1159 0.9933 1057.6661 -67.2138)">
				<stop  offset="1.081080e-02" style="stop-color:#005EB8"/>
				<stop  offset="1" style="stop-color:#29A0E2"/>
			</linearGradient>
			<path class="st25" d="M463.6,264.9l13.1-1.5c12.7-14.4,21-30.6,26.5-46.3c3.6-10.2,5.9-20.2,7.5-29.2c0.1-0.5,0.2-1,0.3-1.5
				c0.2-0.9,0.3-1.8,0.4-2.7c0.2-1.2,0.3-2.4,0.5-3.6c0.1-0.8,0.2-1.7,0.3-2.5c0.1-0.5,0.1-1,0.2-1.5c0-0.5,0.1-0.9,0.1-1.4
				c0.1-1.1,0.2-2.2,0.3-3.3c0.1-0.7,0.1-1.4,0.2-2.1c0-0.5,0.1-0.9,0.1-1.4c0-0.1,0-0.2,0-0.3c0.7-11,0.3-17.9,0.3-17.9
				c-0.4,0.1-0.8,0.3-1.3,0.5c-0.6,0.2-1.1,0.4-1.7,0.7c-0.5,0.2-1,0.4-1.5,0.6c-0.5,0.2-1,0.4-1.4,0.6c-1.9,0.8-3.7,1.7-5.5,2.6
				c0.1,9.8-0.8,32.5-8.8,57.5C487.5,229.9,478.4,248.7,463.6,264.9z"/>
			<g>
				<defs>
					<path id="SVGID_21_" d="M443.8,267.2c0,0-1.8-92,69.6-117.4c0,0,5,66-36.6,113.5L443.8,267.2z"/>
				</defs>
				<clipPath id="SVGID_22_">
					<use xlink:href="#SVGID_21_"  style="overflow:visible;"/>
				</clipPath>
				<g class="st26">
					<path class="st27" d="M513.4,149.8c0,0-37.6,45.5-53.7,118.2"/>
					<path class="st27" d="M492.5,181.7c0,0,10.6-3.1,19.6-3.8"/>
					<path class="st27" d="M483.4,199.4c0,0-2-22.1-0.8-31.3"/>
					<path class="st27" d="M476.4,215.1c0,0,13.1-1.6,28-1.6"/>
					<path class="st27" d="M469.6,233c0,0-9.9-22.8-7-39.3"/>
					<path class="st27" d="M463.9,251c0,0,10.2-3.7,27.1-7.6"/>
					<path class="st27" d="M461.4,260.5c0,0-11.9-18.1-12.6-30.1"/>
				</g>
			</g>
		</g>
		<g class="st12">
			
				<linearGradient id="SVGID_23_" gradientUnits="userSpaceOnUse" x1="262.5362" y1="219.1684" x2="347.2705" y2="219.1684" gradientTransform="matrix(1 0 0 1 227.0599 0)">
				<stop  offset="1.081080e-02" style="stop-color:#0B4F87"/>
				<stop  offset="1" style="stop-color:#005EB8"/>
			</linearGradient>
			<path class="st28" d="M489.6,256.6c0,0,0-77,84.7-74.8c0,0-12.8,50.3-55.8,74.8H489.6z"/>
			<g>
				<defs>
					<path id="SVGID_24_" d="M489.6,256.6c0,0,0-77,84.7-74.8c0,0-12.8,50.3-55.8,74.8H489.6z"/>
				</defs>
				<clipPath id="SVGID_25_">
					<use xlink:href="#SVGID_24_"  style="overflow:visible;"/>
				</clipPath>
				<g class="st29">
					<path class="st27" d="M574.3,181.8c0,0-53.9,24.6-70.8,74.8"/>
					<path class="st27" d="M547.6,198.5c0,0,9.6-0.9,20.3,0.7"/>
					<path class="st27" d="M533.6,210.6c0,0,0.8-17.6,6.2-24.4"/>
					<path class="st27" d="M521,224.6c0,0,18.4-1.7,31.2,1.6"/>
					<path class="st27" d="M512.8,236.6c0,0-3.7-19.5,1.5-36.1"/>
					<path class="st27" d="M506.3,249.4c0,0,11.6-3.4,26.5-2.6"/>
				</g>
			</g>
			<path class="st30" d="M574.3,181.8c0,0-12.8,50.3-55.7,74.8h-11.7c41.2-23.6,54.7-70.9,55.7-74.6
				C566.3,181.8,570.2,181.7,574.3,181.8z"/>
		</g>
		<g class="st12">
			<g>
				<path class="st23" d="M485.4,256.6c0,0,24.3-74.2,75.1-87.8c0,0-47.9,17.9-69.3,87.8H485.4z"/>
				<path class="st23" d="M549.1,173c0,0,28.6-17.6,59.9,5.9C609,178.8,571.6,189.4,549.1,173z"/>
				<path class="st23" d="M526.1,192c0,0,23.2-16.6,7.5-53.8C533.6,138.3,514.9,160.5,526.1,192z"/>
			</g>
			<g>
				<path class="st23" d="M484.5,256.6c0,0,14.9-45.6,46.2-54c0,0-29.4,11-42.6,54H484.5z"/>
				<path class="st23" d="M526.4,203.6c0,0,19.7-6.3,34.9,12.4C561.3,216,537.4,216.8,526.4,203.6z"/>
				<path class="st23" d="M506.5,220.6c0,0,10-14.4-6.8-32.7C499.7,187.9,493.4,204.7,506.5,220.6z"/>
			</g>
		</g>
	</g>
	<path class="st31" d="M478.5,254.4c-4.5-15.2-10.4-34.8-13.6-45.2c-0.2-0.6-0.3-1.1-0.5-1.6c-1.1-3.5-1.7-5.6-1.7-5.6
		c-8.1,2.8-15.8,4.6-23.1,5.6c-15.2,2.2-28.2,1.3-36.8,0c-7.3-1.1-11.5-2.5-11.5-2.5c-0.1,0.7-0.2,1.6-0.4,2.5
		c-0.4,2.2-0.6,0.7-2.6,3.1c-3.2,3.9-3.7,11.2-4.3,20.7c-0.1,1-0.7,2-1,3c-2.4,7.1-4.9,14.1-7,20l36.4,0
		c9.1-8.6,17.3-17.4,17.3-17.4c7.3,9.1,10,13,13.3,17.4L478.5,254.4z"/>
	<g>
		<g>
			<path class="st32" d="M512.6,119.8L512.6,119.8c2.4-0.7,3.7-3.2,3-5.6l-14-46.4c-0.7-2.4-3.2-3.7-5.6-3l0,0
				c-2.4,0.7-3.7,3.2-3,5.6l14,46.4C507.7,119.2,510.2,120.6,512.6,119.8z"/>
			
				<linearGradient id="SVGID_26_" gradientUnits="userSpaceOnUse" x1="518.6252" y1="44.2505" x2="607.3382" y2="44.2505" gradientTransform="matrix(-1 0 0 1 1085.1302 0)">
				<stop  offset="0" style="stop-color:#FBD972"/>
				<stop  offset="1" style="stop-color:#ED8B00"/>
			</linearGradient>
			<path class="st33" d="M491,77.5c11.4-3.8,45.4-13,75.5,0.6l-13.3-67.7c0,0-10.8,26.7-69.7,39.6c-2.8,0.6-4.9,2.9-5.4,5.7
				c-0.8,4.9-0.7,12.7,5.4,19.8C485.3,77.6,488.3,78.4,491,77.5z"/>
			<path class="st32" d="M551.6,46.7c4,17.9,12.2,31.7,19.3,33.3c0.8,0.2,1.7,0.2,2.5,0c7.6-1.7,10.2-19.3,5.8-39.4
				c-4.4-20.1-14.2-35-21.8-33.3c-1.5,0.3-2.7,1.2-3.8,2.6C549.1,15.8,548.1,30.5,551.6,46.7z"/>
			<path class="st34" d="M550.1,37.6c0.4,2.9,0.9,6,1.6,9.1c1.2,5.2,2.7,10.1,4.4,14.5c4.2,10.5,9.8,17.7,14.9,18.8
				c3.8-4.9,5.2-16.1,3.3-29.2l0,0c0-0.1,0-0.2,0-0.3c-0.3-2.4-0.8-4.8-1.3-7.2c-0.6-2.7-1.3-5.2-2-7.7c0-0.1,0-0.1-0.1-0.2
				c-4.3-14-11.2-24.1-17.2-25.4C549.9,14.7,548.6,25.2,550.1,37.6z"/>
			
				<linearGradient id="SVGID_27_" gradientUnits="userSpaceOnUse" x1="573.8222" y1="61.371" x2="608.5172" y2="61.371" gradientTransform="matrix(-1 0 0 1 1085.1302 0)">
				<stop  offset="1.081080e-02" style="stop-color:#005EB8"/>
				<stop  offset="1" style="stop-color:#29A0E2"/>
			</linearGradient>
			<path class="st35" d="M503.6,47.1c0.7,5.4,2.5,14.4,7.4,23.1c0.9,1.6,0,3.5-1.7,3.9c-4.1,0.9-10.9,2.5-16.4,4.3
				c-4,1.3-8.5,0.2-11.3-2.9c-3.6-4.1-6.9-11-3.8-21.8c0.7-2.5,2.8-4.5,5.3-5.1c3.9-1,10.1-2.7,15.4-4.5
				C500.9,43.2,503.3,44.7,503.6,47.1z"/>
			<g>
				
					<linearGradient id="SVGID_28_" gradientUnits="userSpaceOnUse" x1="508.2707" y1="48.2544" x2="535.0409" y2="48.2544" gradientTransform="matrix(-1 0 0 1 1085.1302 0)">
					<stop  offset="1.081080e-02" style="stop-color:#005EB8"/>
					<stop  offset="1" style="stop-color:#29A0E2"/>
				</linearGradient>
				<path class="st36" d="M550.1,37.6c0.4,2.9,0.9,6,1.6,9.1c1.2,5.2,2.7,10.1,4.4,14.5c2.8-3.3,13.4-8.3,18.2-10.4l0,0
					c0.2-0.1,0.4-0.2,0.6-0.2c0,0,0,0,0.1,0c1.1-0.5,1.9-1.6,1.9-2.9c0.2-4.4-1.7-8.5-3.1-10.7c-0.6-0.9-1.5-1.5-2.6-1.6
					c-0.1,0-0.2,0-0.4,0c-0.1,0-0.2,0-0.2,0C559.9,36.7,550.5,37.6,550.1,37.6z"/>
				
					<ellipse transform="matrix(0.9764 -0.2161 0.2161 0.9764 4.298 124.9062)" class="st31" cx="573.4" cy="42.8" rx="4.1" ry="7.8"/>
			</g>
			<g>
				
					<linearGradient id="SVGID_29_" gradientUnits="userSpaceOnUse" x1="457.6536" y1="-6.1435" x2="482.6752" y2="-6.1435" gradientTransform="matrix(-0.9836 0.1801 0.1801 0.9836 1069.7982 -66.8064)">
					<stop  offset="1.081080e-02" style="stop-color:#005EB8"/>
					<stop  offset="1" style="stop-color:#29A0E2"/>
				</linearGradient>
				<polygon class="st37" points="595.3,21.7 610.5,0 618.3,8 597.8,24.4 				"/>
				
					<linearGradient id="SVGID_30_" gradientUnits="userSpaceOnUse" x1="449.6741" y1="35.5056" x2="485.0919" y2="30.7688" gradientTransform="matrix(-1 0 0 1 1085.1302 0)">
					<stop  offset="1.081080e-02" style="stop-color:#005EB8"/>
					<stop  offset="1" style="stop-color:#29A0E2"/>
				</linearGradient>
				<polygon class="st38" points="599.6,34.1 633.8,26 635.3,36.6 600.5,40.1 				"/>
				
					<linearGradient id="SVGID_31_" gradientUnits="userSpaceOnUse" x1="464.2893" y1="85.9882" x2="492.1609" y2="82.2607" gradientTransform="matrix(-0.963 -0.2693 -0.2693 0.963 1097.1682 105.6964)">
					<stop  offset="1.081080e-02" style="stop-color:#005EB8"/>
					<stop  offset="1" style="stop-color:#29A0E2"/>
				</linearGradient>
				<polygon class="st39" points="602.5,49.6 628.6,59.6 624.5,67 600.1,54.6 				"/>
			</g>
		</g>
		<path class="st40" d="M517,109.4c1.9-2.4,1.3-5.9,0.6-8.6c-0.2-0.8-0.4-1.6-0.8-2.3c-0.2-0.4-0.5-0.7-0.8-0.9
			c-1.3-0.9-3.2-1-4.7-1.1c-2.3-0.1-4.6,0.4-6.6,1.5c-0.8,0.5-1.7,1.1-2.3,1.8c-0.4-1.3-0.8-2.7-1.7-3.7c-0.5-0.6-1.3-1.1-2-0.9
			c-0.7,0.2-1.2,0.9-1.4,1.6c-0.5,1.5-0.1,3.2,0.2,4.7c0.2,1.2,0.5,2.3,0.7,3.5c0.5,2.3,1,4.6,2.1,6.6c1.1,2,2.6,3.5,4.9,4
			c1.1,2.3,2.1,4.7,3,7.1c0.2,0.6,1,0,1.6,0.1c1.3,0.3,2.7-0.1,3.9,0c0.8,0,1.6-0.3,1.9-1c1.6-2.8,2.1-5.5,2.1-8.9
			c0-1.2-0.4-2.3-1-3.2C516.7,109.7,516.9,109.6,517,109.4z"/>
		
			<linearGradient id="SVGID_32_" gradientUnits="userSpaceOnUse" x1="605.0123" y1="133.7496" x2="696.2574" y2="191.0837" gradientTransform="matrix(-1 2.106552e-03 2.106552e-03 1 1084.7814 -1.3325)">
			<stop  offset="0" style="stop-color:#FFA897"/>
			<stop  offset="1" style="stop-color:#F96041"/>
		</linearGradient>
		<path class="st41" d="M413.7,109.3l18.8,0c0,0,5.8,8.9,14.6,24.2c13.7,10,28.7,14.2,42.5,14.9c7.4,0.4,14.4-6,14.8-13.4
			c0.2-3.2,0.2-7,0-11.4c-0.2-4.7,4.5-8.2,8.8-6.3c0.1,0,0.2,0.1,0.2,0.1c1.9,0.9,3.2,2.6,3.6,4.7c0.5,2.6,1.1,6.8,1.4,12.1
			c1.1,18-13.4,33.1-31.4,33c-7.2,0-26.6-3-35.3-4.4c0.4,1.8,0.9,3.7,1.3,5.7c2,9.5,9.2,24.9,15.7,35.3c0,0-22.3,35.6-82.5,9.6
			C386.2,213.3,392.5,132,413.7,109.3z"/>
		<path class="st42" d="M451.6,162.6l-22-7.1c0,0,1.3,9,23,11.7"/>
		<line class="st42" x1="451.8" y1="162.6" x2="451.6" y2="162.6"/>
	</g>
	<path class="st40" d="M450,74.5l-2.4-31.6l-45,3.5l2.4,31.6c0.3,3.5,1.5,6.8,3.4,9.5v25c0,6.7,5.4,12.1,12.1,12.1
		c6.7,0,12.1-5.4,12.1-12.1V96.3C443.2,93.9,450.8,84.8,450,74.5z"/>
	<g>
		
			<linearGradient id="SVGID_33_" gradientUnits="userSpaceOnUse" x1="706.1666" y1="48.8997" x2="638.7834" y2="165.6107" gradientTransform="matrix(-1 0 0 1 1087.8755 0)">
			<stop  offset="5.405406e-03" style="stop-color:#21333A"/>
			<stop  offset="0.2479" style="stop-color:#414D51"/>
			<stop  offset="0.5507" style="stop-color:#636869"/>
			<stop  offset="0.7149" style="stop-color:#707372"/>
			<stop  offset="0.7965" style="stop-color:#7A7D7F"/>
			<stop  offset="0.9473" style="stop-color:#9498A1"/>
			<stop  offset="1" style="stop-color:#9EA2AF"/>
		</linearGradient>
		<path class="st43" d="M432.6,90.1c4.3-0.4,8.4-2.2,11.4-5.3c10-10.5,0-39.6,0.2-39.9C442,49,434.8,55,430.4,56.6
			c-4.4,1.5-8.7,3.2-12.4,6.1c-5.9,4.7-7.2,14.7-5.4,20c0.2,0.7,6.2,2,9.5,10.9c3.7,10-5,12.5,0.7,19.8c2,2.6,4.8,4.6,6.8,7.3
			c2.7,3.5,3.2,7.4,2.7,11.6c-0.3,2.2-1.6,3.9-3.2,5.4c0,0-0.2,0-0.4,0c2.8-6.3,0.2-11.5-3.7-16.7c0.4,1.9,0.7,3.5,1,5.2
			c0.6,4.1,0.1,8.1-1.8,11.8c-0.9,1.7-2,3.3-3.7,4.3c-1.6,1-3.2,2-4.9,2.8c-2.8,1.3-5.8,1.7-8.9,1.2c-1.2-0.2-2.4-0.3-3.5-0.4
			c-3.6-0.5-6.5,0.6-9,3c-1.1,1.1-2.4,2.2-3.7,3.2c-2.1,1.7-4.5,2.6-7.2,2.9c-1.2,0.1-2.5,0.1-3.7-0.3c-1.8-0.6-3.6-1.5-5.3-2.4
			c-1.7-1-3-2.4-3.9-4.1c-0.4-0.7-0.9-1.4-1.6-2c-2.5-2.3-4.1-5-4.4-8.4c0-0.2-0.1-0.5-0.1-0.5c-2.2-0.7-4.3-1.3-6.3-2.1
			c-3.1-1.3-6-3.1-7.9-5.8c-1-1.4-2.2-2.2-3.9-2.8c-3.3-1.1-5.3-4.1-5.4-7.4c0-3.4,0.8-6.5,2.9-9.2c0.9-1.2,1.7-2.4,1.6-4
			c0-0.8,0.3-1.5,0.6-2.3c0.7-2.1,1.8-4,3.2-5.7c0.5-0.7,1-1.4,1.5-2.1c-0.5-0.3-0.9-0.5-1.3-0.7c-1.1-0.6-2.3-1.1-3.4-1.8
			c-2.3-1.5-4.4-3.3-5.5-5.9c-1.2-2.8-1.7-5.7-1.2-8.7c0.7-4.5,2.7-8.5,5.8-11.9c4.3-4.8,9.8-8,16-10c0.8-0.2,1.4-0.5,1.8-1.3
			c2.8-4.6,7.1-7.2,12.2-8.9c1.5-0.5,2.9-1,4.4-1.5c5.1-2,10.1-4.3,14.1-8.1c1-1,2.1-1.9,3.3-2.7c4.1-2.9,8.7-4.9,13.5-6.5
			c7.9-2.5,15.8-3.1,24-1.1c5,1.3,8.6,4,11.3,8.1c0.8,1.2,1.9,2.2,3.7,2.3c4.4,0.4,8.2,2.2,11.1,5.5c4.4,5,6.2,10.7,6.2,17.1
			c0,1.8,0,3.6,0.1,5.3c0.1,2.1,1,3.9,2.5,5.4c0.7,0.7,1.4,1.4,2.1,2.2c1.6,1.9,3.5,3.3,5.8,4.3c2.5,1.1,4.6,2.7,6.1,4.9
			c0.4,0.6,0.9,1.2,1.4,1.8c2,2.7,3.2,5.7,3.5,9c0.1,1.4,0.3,2.9,0,4.3c-0.7,3.8-3.2,6.6-6.3,8.9c-0.4,0.3-0.7,0.5-1.1,0.8
			c0.1,0.2,0.1,0.3,0.2,0.3c0.5,0.4,1,0.8,1.4,1.2c4.9,4.3,8.8,9.3,10.2,15.7c1.1,5.1,1.3,10.1-1.5,14.8c-0.1,0.1-0.1,0.2-0.1,0.3
			c-1.5,3.7-4.5,5.9-8.4,7.2c-0.9,0.3-1.8,0.5-2.7,0.7c-1.5,0.3-9.9-0.8-17.8-4.7c-10-5-15-8.7-15-8.7s-14.7-23.6-15-23.7
			L432.6,90.1z M483.1,91.5c0.7,3,0,5.7-2,8c-0.7,0.8-1.5,1.6-2.3,2.4c-0.8,0.8-1,1.7-0.3,2.6c0.3,0.4,0.7,0.8,1.2,1.3
			c2.8-1.8,4.7-4.1,5.5-7.2c0.7-2.5,0.5-4.9-0.7-7.2c-0.5-1-0.9-2-1.4-3c-0.3-0.5-0.7-1-1-1.4c-0.1,0.1-0.1,0.1-0.2,0.2
			C482.3,88.7,482.7,90.1,483.1,91.5z M383.3,48.1c-6.7,0.8-13.1,3.4-16.8,6.6C373.5,53.3,380.5,50.5,383.3,48.1z M346.9,123.3
			c-1.1-3.1-1.1-6.2,0.1-9.3c0.3-0.9,0.2-1.6-0.5-2.2c-3.8,2.7-3.2,11.2,1.2,13.9C347.3,124.7,347.1,124,346.9,123.3z M354.8,98.2
			c-0.5-0.1-0.9-0.3-1-0.3c-1.9,1.8-3.6,3.7-4.6,6.1C351.4,102.5,352.9,100.3,354.8,98.2z M348.8,108.3c-0.3,0.4-0.1,1.1-0.2,1.6
			c0.1,0,0.3,0.1,0.4,0.1c0.7-1.2,1.5-2.5,2.2-3.7c-0.1-0.1-0.2-0.2-0.3-0.3C350.2,106.8,349.4,107.5,348.8,108.3z"/>
	</g>
	
		<ellipse transform="matrix(1 -1.997743e-03 1.997743e-03 1 -0.1307 0.8922)" class="st40" cx="446.5" cy="65.9" rx="4.6" ry="4.6"/>
	<g>
		<rect x="646.6" y="247.2" class="st44" width="98.8" height="3"/>
		<g>
			<rect x="683.9" y="196.9" class="st45" width="9.7" height="46"/>
			<rect x="698.4" y="189" class="st45" width="9.7" height="53.9"/>
			<rect x="712.9" y="178.9" class="st46" width="9.7" height="64"/>
			<rect x="727.4" y="168.7" class="st46" width="9.7" height="74.2"/>
			<rect x="654.9" y="213" class="st47" width="9.7" height="30"/>
			<rect x="669.4" y="205.1" class="st47" width="9.7" height="37.9"/>
		</g>
		<g>
			
				<ellipse transform="matrix(0.8088 -0.5881 0.5881 0.8088 17.4543 465.7206)" class="st48" cx="724.9" cy="206" rx="14.1" ry="14.1"/>
			<path class="st49" d="M742.9,204.1c1.1,10-6.2,18.9-16.1,19.9c-10,1.1-18.9-6.2-19.9-16.1c-1-10,6.2-18.9,16.1-19.9
				C732.9,186.9,741.9,194.2,742.9,204.1L742.9,204.1z M738.3,204.6c-0.8-7.4-7.4-12.8-14.8-12c-7.4,0.8-12.8,7.4-12,14.8
				c0.8,7.4,7.4,12.8,14.8,12C733.7,218.6,739.1,212,738.3,204.6z"/>
			<path class="st49" d="M737.5,223.3L737.5,223.3c-2.3,1.7-2.8,4.9-1.1,7.2l8.3-6C743,222.2,739.7,221.7,737.5,223.3L737.5,223.3z
				 M737.6,232.3l8.3-6l14.3,19.6l-8.3,6L737.6,232.3L737.6,232.3z M753.2,253.7c1.7,2.3,4.9,2.8,7.2,1.1l0,0
				c2.3-1.7,2.8-4.9,1.1-7.2L753.2,253.7z"/>
			<g>
				<path class="st31" d="M723.8,214.1c-1.9-0.4-2.9-1.9-2.9-4v-1.1h2.5v1.3c0,1.1,0.5,1.5,1.4,1.5c0.9,0,1.4-0.4,1.4-1.5
					c0-1.2-0.5-2.1-2.3-3.5c-2.2-1.7-3-3.1-3-5c0-2.1,1-3.6,2.8-4v-1.5h2.2v1.5c1.9,0.4,2.9,1.9,2.9,4v0.5h-2.5v-0.7
					c0-1.1-0.5-1.5-1.3-1.5c-0.9,0-1.3,0.5-1.3,1.5c0,1.1,0.5,2,2.3,3.4c2.2,1.8,3,3.1,3,5.1c0,2.2-1,3.7-2.9,4.1v1.7h-2.2V214.1z"
					/>
			</g>
		</g>
	</g>
	<path class="st48" d="M256.9,179.8L256.9,179.8c-2.5,0.4-4.9,0.4-7.5,0.1c-4.6-0.4-9-1.6-13-3.9l0-0.1c-2.4-1.4-4.6-3.1-6.6-5
		c-1.5-1.5-2.8-3-4.1-4.7c-1.1-1.4-2.1-2.8-3.1-4.1l-0.2-0.2l0.3-0.1c1.5-0.8,3-1.7,4.5-2.4c1.9-0.9,3.8-1.8,5.7-2.5
		c1.5-0.5,3-1,4.5-1.3c3.1-1,9.7-1.1,13.2-0.4l0,0l0,0c3.7,0.9,8.6,3.3,11.6,5.8l0,0c1.3,1,2.6,2.1,3.8,3.3c1.5,1.5,2.8,3,4.1,4.7
		c1.1,1.4,2.1,2.8,3.1,4.1l0.2,0.2l-0.3,0.1c-1.5,0.8-3,1.7-4.5,2.4c-1.9,0.9-3.8,1.8-5.7,2.5C261,179,259,179.5,256.9,179.8
		L256.9,179.8L256.9,179.8z M256.8,162.1c1.4,2.2,1.9,4.9,1.3,7.6c-0.6,2.8-2.3,5.1-4.6,6.5c2.8-0.1,5.6-0.7,8.4-1.7
		c2-0.7,3.9-1.6,5.7-2.6l0.1,0l0,0c-1.3-1.7-2.6-3.3-4.1-4.8C261.4,165.1,259.2,163.4,256.8,162.1L256.8,162.1z M241,173.8
		c-1.7-2.2-2.4-5.2-1.8-8.2c0.6-2.9,2.4-5.2,4.8-6.6l-0.7-0.1c-3,0-6,0.6-9,1.7c-2,0.7-3.9,1.6-5.7,2.6l-0.1,0l0,0.1
		c1.3,1.7,2.6,3.3,4.1,4.8c2.4,2.3,5,4.2,7.9,5.5C240.7,173.6,240.8,173.7,241,173.8L241,173.8z M249.6,163.1
		c-2.4-0.5-4.9,1.1-5.4,3.6c-0.6,2.5,1,5,3.4,5.5c2.4,0.5,4.9-1.1,5.4-3.6c0.2-0.9,0.1-1.9-0.2-2.7c-0.4-0.9-0.9-1.6-1.6-2.1
		C250.8,163.5,250.2,163.2,249.6,163.1L249.6,163.1z M250.3,160.1c-4-0.9-8,1.8-9,5.9c-0.9,4.2,1.6,8.2,5.6,9.1c4,0.9,8-1.8,9-5.9
		C256.8,165.1,254.3,161,250.3,160.1z"/>
	<g>
		
			<rect x="33.9" y="83.7" transform="matrix(0.9109 -0.4127 0.4127 0.9109 -35.3085 33.0918)" class="st50" width="50.1" height="29.2"/>
		<polygon class="st51" points="58.9,98.3 75.7,74.6 30.1,95.3 		"/>
	</g>
	
		<linearGradient id="SVGID_34_" gradientUnits="userSpaceOnUse" x1="656.0973" y1="203.0188" x2="591.6584" y2="90.0376" gradientTransform="matrix(0.971 0.239 -0.239 0.971 43.0949 -167.1103)">
		<stop  offset="0" style="stop-color:#34983F"/>
		<stop  offset="9.226006e-02" style="stop-color:#44A24C"/>
		<stop  offset="0.2464" style="stop-color:#58AE5D"/>
		<stop  offset="0.4224" style="stop-color:#66B769"/>
		<stop  offset="0.637" style="stop-color:#6FBC70"/>
		<stop  offset="1" style="stop-color:#71BE72"/>
	</linearGradient>
	<path class="st52" d="M665.3,124.6L573.9,110c-2.2-0.4-4.3,1.1-4.6,3.3l-4.3,26.7c-0.4,2.2,1.1,4.3,3.3,4.6l9,1.4l4.4,0.7
		c0.6,1.1,2.2,4,2.9,5.1c0.6,1,2,1.2,2.9,0.5c1-0.8,3.4-3,4.3-3.9L614,152l45.7,7.3c2.2,0.4,4.3-1.1,4.6-3.3l4.3-26.7
		C669,127.1,667.5,125,665.3,124.6z"/>
	<path class="st8" d="M588.1,130.9c1-0.7,1.8-1.7,2-3l0.3-2.2c0.4-2.4-1.1-4.8-3.5-5.3c-2.5-0.5-4.8,1.2-5.2,3.7l-0.4,2.4
		c-0.2,1.3,0.2,2.6,0.9,3.5c-3.1,0.5-5.8,2.6-7.1,5.5c-0.5,1.1,0.3,2.4,1.5,2.6l14.3,2.3c1.2,0.2,2.4-0.8,2.2-2
		C592.8,135.2,590.9,132.4,588.1,130.9z"/>
	<g>
		<path class="st8" d="M627.4,126.9l-18.2-2.9c-1.5-0.2-2.9,0.8-3.1,2.3l-1.4,8.9c-0.2,1.5,0.8,2.9,2.3,3.1l1.8,0.3
			c0,0,1.9,3.4,2.6,4.5c0.5,0.8,1.6,1,2.4,0.4c1-0.8,3.8-3.5,3.8-3.5l7.6,1.2c1.5,0.2,2.9-0.8,3.1-2.3l1.4-8.9
			C629.9,128.5,628.9,127.1,627.4,126.9z"/>
		<path class="st53" d="M610.1,128.9c-0.6-0.1-0.9-0.7-0.8-1.3c0.1-0.6,0.7-1,1.3-0.9l14.8,2.4c0.6,0.1,1,0.7,0.9,1.3
			c-0.1,0.6-0.7,1-1.3,0.9L610.1,128.9C610.1,128.9,610.1,128.9,610.1,128.9z"/>
		<path class="st53" d="M609.5,132.8c-0.6-0.1-0.9-0.7-0.8-1.3c0.1-0.6,0.7-1,1.3-0.9l14.8,2.4c0.6,0.1,1,0.7,0.9,1.3
			c-0.1,0.6-0.7,1-1.3,0.9L609.5,132.8C609.5,132.8,609.5,132.8,609.5,132.8z"/>
		<path class="st53" d="M608.8,136.7c-0.6-0.1-0.9-0.7-0.8-1.3c0.1-0.6,0.7-1,1.3-0.9l6.7,1.1c0.6,0.1,1,0.7,0.9,1.3
			c-0.1,0.6-0.7,1-1.3,0.9L608.8,136.7C608.9,136.7,608.9,136.7,608.8,136.7z"/>
	</g>
	<path class="st8" d="M657.9,147.3c0.3-1.8,0-3.6-0.8-5.1l0.3-1.9c0.5-3.2-1.4-6.3-4.4-7.4l0.1-0.6c0.1-0.6-0.3-1.2-1-1.3
		c-0.6-0.1-1.2,0.3-1.3,1l-0.1,0.6c-3.2,0.1-6,2.4-6.5,5.6l-0.3,1.9c0,0,0,0,0,0c-1.2,1.2-2.1,2.8-2.4,4.6l-0.1,0.8
		c-0.1,0.4,0.2,0.8,0.6,0.9l3.3,0.5c-0.1,0.2-0.1,0.5,0.1,0.7c1,1,2.2,1.7,3.7,1.9c1.5,0.2,2.9,0,4.1-0.7c0.3-0.1,0.4-0.4,0.4-0.6
		l3.3,0.5c0.4,0.1,0.8-0.2,0.9-0.6L657.9,147.3z"/>
	
		<ellipse transform="matrix(0.1582 -0.9874 0.9874 0.1582 395.5945 754.3597)" class="st51" cx="640.2" cy="145.2" rx="3.5" ry="3.5"/>
	<g>
		<linearGradient id="SVGID_35_" gradientUnits="userSpaceOnUse" x1="219.7126" y1="68.2512" x2="248.2874" y2="84.7489">
			<stop  offset="0" style="stop-color:#34983F"/>
			<stop  offset="9.708208e-02" style="stop-color:#46A34E"/>
			<stop  offset="0.2381" style="stop-color:#59AF5E"/>
			<stop  offset="0.4026" style="stop-color:#67B869"/>
			<stop  offset="0.61" style="stop-color:#6FBD70"/>
			<stop  offset="1" style="stop-color:#71BE72"/>
		</linearGradient>
		<circle class="st54" cx="234" cy="76.5" r="16.5"/>
		<g>
			<path class="st8" d="M240,68c-0.7-0.7-1.8-0.9-2.5-0.2c0,0-2,2.1-4.9,3.9l-1.6-0.6c-0.1-0.1-0.3,0-0.3,0.1l-3.4,8.2
				c-0.1,0.1,0,0.3,0.1,0.3l1.2,0.5c0.2,1.6,1.2,3,2.7,3.6l0.7,0.3l4.5,1.8l1,0.4c0.9,0.4,2-0.1,2.3-1c0.2-0.5,0.2-1,0-1.4l0.7,0.3
				c0.9,0.4,2-0.1,2.3-1c0.2-0.5,0.2-1.1-0.1-1.6c0.7,0,1.5-0.4,1.7-1.1c0.4-0.9-0.1-2-1-2.3l0,0c0.4-0.2,0.8-0.5,1-1
				c0.4-0.9-0.1-2-1-2.3l-6.4-2.6C238.8,71.1,241.1,69.3,240,68z"/>
			<path class="st8" d="M223.1,78.6l2.7,1.1c0.2,0.1,0.4,0,0.5-0.2l3.7-9c0.1-0.2,0-0.4-0.2-0.5l-2.7-1.1c-0.2-0.1-0.4,0-0.5,0.2
				l-3.7,9C222.9,78.3,223,78.5,223.1,78.6z"/>
		</g>
	</g>
	<g>
		
			<linearGradient id="SVGID_36_" gradientUnits="userSpaceOnUse" x1="564.9295" y1="110.9013" x2="607.9219" y2="110.9013" gradientTransform="matrix(0.9832 -0.1824 0.1824 0.9832 -396.7793 110.4398)">
			<stop  offset="1.081080e-02" style="stop-color:#005EB8"/>
			<stop  offset="1" style="stop-color:#29A0E2"/>
		</linearGradient>
		<circle class="st55" cx="200" cy="112.5" r="21.5"/>
		<path class="st50" d="M204.1,99.9c-1.9,0.4-3.9,1.6-5.6,4.5c-2.6-2.1-4.9-2.5-6.8-2.2c-3.9,0.7-6.2,4.8-5.2,8.7
			c2.5,9.9,15.7,13.1,15.7,13.1s11.2-7.7,9.9-17.9C211.6,102.2,208,99.2,204.1,99.9z"/>
	</g>
	<g>
		<path class="st50" d="M737.4,55.7l-3.8,6.3l-2.2-9.1c-0.4-1.8-2.3-3-4.1-2.5l-24.9,5.9c-1.8,0.4-3,2.3-2.5,4.1l5.9,24.9
			c0.4,1.8,2.3,3,4.1,2.5l24.9-5.9c1.8-0.4,3-2.3,2.5-4.1l-2.2-9.1l6.3,3.8c1.5,1,3.5-0.4,3-2.2l-3.4-14.1
			C740.7,54.6,738.3,54.2,737.4,55.7z"/>
		<polyline class="st8" points="714.1,62.4 723.2,68 717.6,77.1 		"/>
	</g>
	<path class="st48" d="M813.5,171.1c-1.4,0.8-3.2,0.5-4.2-0.8c-1-1.3-0.8-3.1,0.4-4.2c-0.7-0.6-1.4-1.2-2.2-1.7
		c-0.8,1.4-2.5,2-4,1.4c-1.5-0.6-2.2-2.3-1.7-3.9c-0.9-0.2-1.8-0.3-2.8-0.4c0,1.6-1.2,3-2.8,3.2c-1.6,0.2-3.1-0.9-3.4-2.5
		c-0.9,0.3-1.8,0.6-2.6,1c0.8,1.4,0.5,3.2-0.8,4.2c-1.3,1-3.1,0.8-4.2-0.4c-0.6,0.7-1.2,1.4-1.7,2.2c1.4,0.8,2,2.5,1.4,4
		c-0.6,1.5-2.3,2.2-3.9,1.7c-0.2,0.9-0.3,1.8-0.4,2.8c1.6,0,3,1.2,3.2,2.8c0.2,1.6-0.9,3.1-2.5,3.4c0.3,0.9,0.6,1.8,1,2.6
		c1.4-0.8,3.2-0.5,4.2,0.8c1,1.3,0.8,3.1-0.4,4.2c0.7,0.6,1.4,1.2,2.2,1.7c0.8-1.4,2.5-2,4-1.4c1.5,0.7,2.2,2.3,1.7,3.9
		c0.9,0.2,1.8,0.3,2.8,0.4c0-1.6,1.2-3,2.8-3.2c1.6-0.2,3.1,0.9,3.4,2.5c0.9-0.3,1.8-0.6,2.6-1c-0.8-1.4-0.5-3.2,0.8-4.2
		c1.3-1,3.1-0.8,4.2,0.4c0.6-0.7,1.2-1.4,1.7-2.2c-1.4-0.8-2-2.5-1.4-4c0.7-1.5,2.3-2.2,3.9-1.7c0.2-0.9,0.3-1.8,0.4-2.8
		c-1.6,0-3-1.1-3.2-2.8c-0.2-1.6,0.9-3.1,2.5-3.4C814.2,172.8,813.9,171.9,813.5,171.1L813.5,171.1z M802.5,185
		c-3.4,2.6-8.3,1.8-10.8-1.6c-2.5-3.4-1.8-8.3,1.6-10.8c3.4-2.6,8.3-1.8,10.8,1.6C806.7,177.6,806,182.4,802.5,185z"/>
	<path class="st48" d="M824.1,194.7c-0.4,0.9-1.4,1.5-2.4,1.1c-1-0.3-1.6-1.3-1.4-2.3c-0.6-0.1-1.2-0.1-1.8-0.1c0.1,1-0.5,2-1.5,2.2
		c-1,0.2-2-0.4-2.3-1.3c-0.5,0.2-1.1,0.5-1.6,0.8c0.6,0.8,0.5,2-0.2,2.7c-0.8,0.7-1.9,0.7-2.7,0c-0.4,0.5-0.7,1-0.9,1.5
		c0.9,0.4,1.5,1.4,1.1,2.4c-0.3,1-1.3,1.6-2.3,1.4c-0.1,0.6-0.1,1.2-0.1,1.8c1-0.1,2,0.5,2.2,1.5c0.2,1-0.4,2-1.3,2.3
		c0.2,0.5,0.5,1.1,0.8,1.6c0.8-0.6,2-0.5,2.7,0.2c0.7,0.8,0.7,1.9,0,2.7c0.5,0.4,1,0.7,1.5,0.9c0.4-0.9,1.4-1.5,2.4-1.1
		c1,0.3,1.6,1.3,1.4,2.3c0.6,0.1,1.2,0.1,1.8,0.1c-0.1-1,0.5-2,1.5-2.2c1-0.2,2,0.4,2.3,1.3c0.5-0.2,1.1-0.5,1.6-0.8
		c-0.6-0.8-0.5-2,0.2-2.7c0.8-0.7,1.9-0.7,2.7,0c0.4-0.5,0.7-1,0.9-1.5c-0.9-0.4-1.5-1.4-1.1-2.4c0.3-1,1.3-1.6,2.3-1.4
		c0.1-0.6,0.1-1.2,0.1-1.8c-1,0.1-2-0.5-2.2-1.5c-0.2-1,0.4-2,1.3-2.3c-0.2-0.5-0.5-1.1-0.8-1.6c-0.8,0.6-2,0.5-2.7-0.2
		c-0.7-0.8-0.7-1.9,0-2.7C825.2,195.3,824.7,195,824.1,194.7L824.1,194.7z M823.7,205.9c-0.8,2.6-3.6,4-6.2,3.2
		c-2.6-0.8-4-3.6-3.2-6.2c0.8-2.6,3.6-4,6.2-3.2C823.1,200.6,824.5,203.3,823.7,205.9z"/>
	<g>
		<path class="st48" d="M44.7,223.2L44.7,223.2l8.6-3.1l0.3,0.9l-8.6,3.1L44.7,223.2L44.7,223.2z M54,221.9L54,221.9l0.3,0.9
			l-8.6,3.1l-0.3-0.9L54,221.9L54,221.9z M54.6,223.6L54.6,223.6l0.3,0.9l-8.6,3.1l-0.3-0.9L54.6,223.6L54.6,223.6z M55.2,225.5
			L55.2,225.5c0.3,2-0.8,4-2.8,4.7l-0.5,0.2c-2,0.7-4.1-0.1-5.2-1.8L55.2,225.5L55.2,225.5z"/>
		<path class="st56" d="M37.6,191L37.6,191c-6.4,2.3-9.7,9.4-7.4,15.8c1.1,2.9,3.1,5.2,5.7,6.6l0,0c0.2,0.1,0.3,0.2,0.5,0.2
			c2.8,1.5,4.9,3.8,5.9,6.7c0.2,0.6,0.8,0.9,1.4,0.7l0.9-0.3c-1.5-3-3.8-5.6-6.7-7.4l0,0l0,0c-0.1-0.1-0.2-0.1-0.4-0.2l0,0l0,0l0,0
			c-2.3-1.4-3.9-3.6-4.9-6.1c-1.5-4.1-0.8-8.9,2.4-12c0.9-0.9,2.1-1.6,3.3-2.1c1.2-0.5,2.5-0.6,3.9-0.5c4.4,0.3,8.1,3.6,9.5,7.7
			c0.9,2.5,1.1,5.3,0.2,7.9l0,0c0,0.1-0.1,0.3-0.1,0.4l0,0l0,0c-1.1,3.2-1.2,6.6-0.4,9.9l0.9-0.3c0.6-0.2,0.9-0.8,0.7-1.4
			c-1.1-2.9-0.9-6,0.2-9c0.1-0.1,0.1-0.3,0.2-0.5l0,0l0,0c1.1-2.7,1.2-5.8,0.1-8.7C51.1,192,44,188.7,37.6,191L37.6,191z"/>
	</g>
	<g>
		<path class="st7" d="M179,264.5h-51.2v-61.9h61.2v51.9C189.1,260,184.6,264.5,179,264.5z"/>
		<rect x="136.9" y="253.4" class="st8" width="43.1" height="2.4"/>
		<rect x="136.9" y="247.7" class="st8" width="43.1" height="2.4"/>
		<polyline class="st57" points="160,176.9 113,203.9 150.7,226.2 160,178.9 		"/>
		<g>
			<g>
				<defs>
					<circle id="SVGID_37_" cx="159.8" cy="176.6" r="16.5"/>
				</defs>
				<linearGradient id="SVGID_38_" gradientUnits="userSpaceOnUse" x1="143.3478" y1="176.5626" x2="176.3478" y2="176.5626">
					<stop  offset="1.081080e-02" style="stop-color:#005EB8"/>
					<stop  offset="1" style="stop-color:#29A0E2"/>
				</linearGradient>
				<use xlink:href="#SVGID_37_"  style="overflow:visible;fill:url(#SVGID_38_);"/>
				<clipPath id="SVGID_39_">
					<use xlink:href="#SVGID_37_"  style="overflow:visible;"/>
				</clipPath>
			</g>
			<path class="st8" d="M162.8,177.1c0.9-0.8,1.5-2,1.5-3.3l0-2.2c0-2.4-1.9-4.6-4.4-4.6c-2.5-0.1-4.6,2-4.6,4.5l0,2.4
				c0,1.3,0.6,2.5,1.5,3.3c-3,1-5.3,3.5-6.1,6.6c-0.3,1.2,0.7,2.4,1.9,2.4l14.4-0.1c1.2,0,2.2-1.2,1.9-2.4
				C168.1,180.6,165.8,178.1,162.8,177.1z"/>
		</g>
		<g>
			<g>
				<defs>
					<circle id="SVGID_40_" cx="150.8" cy="225.6" r="16.5"/>
				</defs>
				<linearGradient id="SVGID_41_" gradientUnits="userSpaceOnUse" x1="134.2678" y1="225.6271" x2="167.2678" y2="225.6271">
					<stop  offset="1.081080e-02" style="stop-color:#005EB8"/>
					<stop  offset="1" style="stop-color:#29A0E2"/>
				</linearGradient>
				<use xlink:href="#SVGID_40_"  style="overflow:visible;fill:url(#SVGID_41_);"/>
				<clipPath id="SVGID_42_">
					<use xlink:href="#SVGID_40_"  style="overflow:visible;"/>
				</clipPath>
			</g>
			<path class="st8" d="M153.7,226.2c0.9-0.8,1.5-2,1.5-3.3l0-2.2c0-2.4-1.9-4.6-4.4-4.6c-2.5-0.1-4.6,2-4.6,4.5l0,2.4
				c0,1.3,0.6,2.5,1.5,3.3c-3,1-5.3,3.5-6.1,6.6c-0.3,1.2,0.7,2.4,1.9,2.4l14.4-0.1c1.2,0,2.2-1.2,1.9-2.4
				C159,229.6,156.7,227.2,153.7,226.2z"/>
		</g>
		<g>
			<g>
				<defs>
					<circle id="SVGID_43_" cx="112.9" cy="201.9" r="16.5"/>
				</defs>
				<linearGradient id="SVGID_44_" gradientUnits="userSpaceOnUse" x1="96.4434" y1="201.8589" x2="129.4434" y2="201.8589">
					<stop  offset="1.081080e-02" style="stop-color:#005EB8"/>
					<stop  offset="1" style="stop-color:#29A0E2"/>
				</linearGradient>
				<use xlink:href="#SVGID_43_"  style="overflow:visible;fill:url(#SVGID_44_);"/>
				<clipPath id="SVGID_45_">
					<use xlink:href="#SVGID_43_"  style="overflow:visible;"/>
				</clipPath>
			</g>
			<path class="st8" d="M115.9,202.4c0.9-0.8,1.5-2,1.5-3.3l0-2.2c0-2.4-1.9-4.6-4.4-4.6c-2.5-0.1-4.6,2-4.6,4.5l0,2.4
				c0,1.3,0.6,2.5,1.5,3.3c-3,1-5.3,3.5-6.1,6.6c-0.3,1.2,0.7,2.4,1.9,2.4l14.4-0.1c1.2,0,2.2-1.2,1.9-2.4
				C121.2,205.9,118.9,203.4,115.9,202.4z"/>
		</g>
	</g>
	<path class="st8" d="M536.7,41l-8.8,24.1l-4.1,0.7l8.8-24.1L536.7,41z M542.9,57.2c0.5,3.1-1.2,5.9-3.8,6.4
		c-2.6,0.4-5.2-1.7-5.7-4.8c-0.5-3.1,1.2-5.9,3.8-6.4C539.8,52,542.4,54.2,542.9,57.2z M539.7,57.8c-0.2-1.3-1.1-2.3-2-2.1
		c-0.9,0.1-1.4,1.4-1.2,2.7c0.2,1.3,1.1,2.3,2,2.1C539.4,60.3,539.9,59.1,539.7,57.8z M523.3,54.1c-2.6,0.4-5.2-1.7-5.7-4.8
		c-0.5-3.1,1.2-5.9,3.8-6.4c2.6-0.4,5.2,1.7,5.7,4.8C527.6,50.8,525.9,53.6,523.3,54.1z M522.7,50.9c0.9-0.1,1.4-1.4,1.2-2.7
		c-0.2-1.3-1.1-2.3-2-2.1c-0.9,0.1-1.4,1.4-1.2,2.7C521,50.1,521.9,51,522.7,50.9z"/>
</g>
</svg>
