<?xml version="1.0" encoding="utf-8"?>
<!-- Generator: Adobe Illustrator 16.2.0, SVG Export Plug-In . SVG Version: 6.00 Build 0)  -->
<!DOCTYPE svg PUBLIC "-//W3C//DTD SVG 1.1//EN" "http://www.w3.org/Graphics/SVG/1.1/DTD/svg11.dtd">
<svg version="1.1" id="Layer_1" xmlns:sketch="http://www.bohemiancoding.com/sketch/ns"
	 xmlns="http://www.w3.org/2000/svg" xmlns:xlink="http://www.w3.org/1999/xlink" x="0px" y="0px" width="84px" height="84px"
	 viewBox="0 0 84 84" enable-background="new 0 0 84 84" xml:space="preserve">
<g sketch:type="MSShapeGroup">
	<g id="path-1">
		<path fill="#EEEEEE" d="M41.007,81.75c-21.37,0-38.756-17.386-38.756-38.756v-1.988c0-21.37,17.386-38.756,38.756-38.756h1.988
			c21.37,0,38.756,17.386,38.756,38.756v1.988c0,21.37-17.386,38.756-38.756,38.756H41.007z"/>
		<path fill="#FFFFFF" d="M42.995,3.25c20.817,0,37.756,16.938,37.756,37.756v1.988c0,20.818-16.938,37.756-37.756,37.756h-1.988
			c-20.819,0-37.756-16.938-37.756-37.756v-1.988c0-20.819,16.938-37.756,37.756-37.756H42.995 M42.995,1.25h-1.988
			c-21.956,0-39.756,17.8-39.756,39.756v1.988c0,21.957,17.8,39.756,39.756,39.756h1.988c21.957,0,39.756-17.799,39.756-39.756
			v-1.988C82.751,19.05,64.952,1.25,42.995,1.25L42.995,1.25z"/>
	</g>
</g>
<g>
	<path id="path-1_1_" fill="none" stroke="#F2EDED" d="M41.007,1.25h1.988c21.957,0,39.756,17.8,39.756,39.756v1.988
		c0,21.957-17.799,39.756-39.756,39.756h-1.988c-21.956,0-39.756-17.799-39.756-39.756v-1.988C1.251,19.05,19.051,1.25,41.007,1.25z
		"/>
</g>
<g>
	<path fill="#005EB8" d="M39.309,38.276c1.284-1.393,1.993-3.264,1.993-5.265c0-3.813-2.723-7.671-7.928-7.671
		c-2.422,0-4.464,0.833-5.909,2.406c-1.278,1.394-1.982,3.264-1.982,5.265c0,3.813,2.711,7.67,7.893,7.67
		C35.806,40.681,37.857,39.85,39.309,38.276 M33.368,29.723c2.282,0,3.321,1.703,3.321,3.284c0,0.861-0.29,1.658-0.816,2.245
		c-0.587,0.654-1.439,1-2.467,1c-2.339,0-3.405-1.703-3.405-3.286C30.001,31.353,31.042,29.723,33.368,29.723"/>
	<path fill="#005EB8" d="M52.305,28.298c-0.474,0.009-1.117,0.302-1.434,0.653L27.458,54.982c-0.313,0.352-0.092,0.844,0.38,0.844
		h4.063c0.473,0,1.116-0.285,1.43-0.639L56.6,29.161c0.316-0.352,0.295-0.923-0.483-0.923L52.305,28.298z"/>
	<path fill="#005EB8" d="M50.743,43.609c-2.375,0-4.38,0.815-5.796,2.36c-1.254,1.367-1.946,3.201-1.946,5.164
		c0,3.74,2.659,7.525,7.742,7.525c2.387,0,4.397-0.816,5.821-2.359c1.261-1.366,1.955-3.202,1.955-5.166
		C58.521,47.396,55.85,43.609,50.743,43.609 M50.785,54.389c-2.275,0-3.313-1.709-3.313-3.297c0-0.863,0.289-1.664,0.813-2.252
		c0.588-0.656,1.438-1.003,2.461-1.003c2.276,0,3.313,1.708,3.313,3.295c0,0.866-0.289,1.666-0.814,2.253
		C52.658,54.041,51.807,54.389,50.785,54.389"/>
</g>
</svg>
