<svg width="40" height="40" viewBox="0 0 40 40" fill="none" xmlns="http://www.w3.org/2000/svg">
<g clip-path="url(#clip0)">
<path d="M20.0003 7.88586C14.2264 7.88994 9.54674 12.5696 9.54266 18.3435C9.59427 22.1125 11.4281 25.6342 14.4861 27.8377V35.39C14.4887 35.4764 14.5062 35.5617 14.538 35.642V35.7013C14.5508 35.7319 14.5657 35.7616 14.5825 35.7903L17.1914 39.6739C17.3294 39.8782 17.56 40.0004 17.8065 40H22.12C22.3665 40.0004 22.5971 39.8782 22.7352 39.6739L25.344 35.7903C25.3608 35.7616 25.3757 35.7319 25.3885 35.7013V35.642C25.4204 35.5617 25.4379 35.4764 25.4404 35.39V27.8377C28.4986 25.6342 30.3323 22.1125 30.3839 18.3435C30.38 12.5984 25.7453 7.93061 20.0003 7.88586ZM21.7643 38.5399H18.2364L16.6207 36.1386H23.3726L21.7643 38.5399ZM15.9759 34.6563V32.6922H24.0248L24.0322 34.6563H15.9759ZM24.3657 26.8223V26.8445C24.1564 26.9823 24.031 27.2165 24.0322 27.4671V31.2322H15.9759V27.4226C15.9771 27.172 15.8516 26.9378 15.6423 26.8001C12.8048 24.9039 11.0812 21.7336 11.0324 18.3213C11.1748 13.3664 15.307 9.46507 20.2619 9.60747C25.0166 9.74412 28.839 13.5665 28.9757 18.3213C28.9342 21.7416 27.2096 24.9217 24.3657 26.8223Z" fill="#2855AF"/>
<path d="M20.2961 11.2433C19.8868 11.2433 19.555 11.5751 19.555 11.9844C19.555 12.3937 19.8868 12.7256 20.2961 12.7256C23.3767 12.7297 25.8729 15.226 25.877 18.3065C25.877 18.7158 26.2089 19.0476 26.6182 19.0476C27.0275 19.0476 27.3593 18.7158 27.3593 18.3065C27.3552 14.4073 24.1953 11.2474 20.2961 11.2433Z" fill="#2855AF"/>
<path d="M7.54864 17.5653H2.21234C1.80304 17.5653 1.47119 17.8972 1.47119 18.3065C1.47119 18.7158 1.80304 19.0476 2.21234 19.0476H7.54864C7.95794 19.0476 8.2898 18.7158 8.2898 18.3065C8.2898 17.8972 7.95794 17.5653 7.54864 17.5653Z" fill="#2855AF"/>
<path d="M37.7875 17.5653H32.4512C32.0419 17.5653 31.71 17.8972 31.71 18.3065C31.71 18.7158 32.0419 19.0476 32.4512 19.0476H37.7875C38.1968 19.0476 38.5286 18.7158 38.5286 18.3065C38.5286 17.8972 38.1968 17.5653 37.7875 17.5653Z" fill="#2855AF"/>
<path d="M11.7947 26.5999C11.5285 26.289 11.0606 26.2528 10.7497 26.519C10.7207 26.5439 10.6937 26.5709 10.6688 26.5999V26.5851L6.88154 30.3872C6.57063 30.6535 6.5344 31.1213 6.80066 31.4322C7.06692 31.7432 7.53477 31.7794 7.84569 31.5131C7.87468 31.4883 7.90174 31.4612 7.92656 31.4322L11.7139 27.6449C12.0248 27.3787 12.061 26.9108 11.7947 26.5999Z" fill="#2855AF"/>
<path d="M33.0373 5.18799C32.7598 4.95036 32.3506 4.95036 32.0731 5.18799L28.2858 8.97528C27.9952 9.26349 27.9933 9.73283 28.2815 10.0235C28.4217 10.1648 28.6129 10.2439 28.8121 10.2426L28.8046 10.2352C29.0016 10.2363 29.191 10.159 29.3309 10.0203L33.1182 6.23301C33.3844 5.9221 33.3482 5.45425 33.0373 5.18799Z" fill="#2855AF"/>
<path d="M33.2656 30.5363C33.224 30.4799 33.1745 30.4297 33.1186 30.3873L29.3313 26.5852C29.0651 26.2742 28.5972 26.238 28.2863 26.5043C27.9754 26.7705 27.9392 27.2384 28.2054 27.5493C28.2303 27.5783 28.2573 27.6053 28.2863 27.6302L32.0736 31.4175C32.3169 31.7466 32.781 31.8162 33.1102 31.5729C33.4394 31.3296 33.5089 30.8655 33.2656 30.5363Z" fill="#2855AF"/>
<path d="M11.7138 8.97528L7.9265 5.18799C7.61558 4.92173 7.14773 4.95795 6.88147 5.26887C6.64384 5.54634 6.64384 5.95555 6.88147 6.23301L10.6688 10.0203C10.9797 10.2866 11.4475 10.2503 11.7138 9.93943C11.9514 9.66196 11.9514 9.25275 11.7138 8.97528Z" fill="#2855AF"/>
<path d="M20.0002 0C19.5909 0 19.2591 0.331851 19.2591 0.741152V6.09968C19.2467 6.5088 19.5685 6.85047 19.9776 6.8627C19.9851 6.86289 19.9926 6.86307 20.0002 6.86307C20.4095 6.86307 20.7414 6.53122 20.7414 6.12192V0.741152C20.7414 0.331851 20.4095 0 20.0002 0Z" fill="#2855AF"/>
</g>
<defs>
<clipPath id="clip0">
<rect width="40" height="40" fill="#2855AF"/>
</clipPath>
</defs>
</svg>
