<svg width="40" height="40" viewBox="0 0 40 40" fill="none" xmlns="http://www.w3.org/2000/svg">
<path d="M24.2188 14.8438C23.7875 14.8438 23.4375 15.1937 23.4375 15.625C23.4375 16.0562 23.7875 16.4062 24.2188 16.4062C24.65 16.4062 25 16.0562 25 15.625C25 15.1937 24.65 14.8438 24.2188 14.8438Z" fill="#2855AF"/>
<path d="M39.0845 34.6655L28.6563 24.2374C30.3552 21.6785 31.25 18.7152 31.25 15.625C31.25 7.00938 24.2406 0 15.625 0C7.00938 0 0 7.00938 0 15.625C0 24.2406 7.00938 31.25 15.625 31.25C18.7153 31.25 21.6786 30.3551 24.2374 28.6564L27.1198 31.5388C27.1202 31.5392 27.1206 31.5396 27.1211 31.5401L34.6655 39.0845C35.2559 39.6748 36.0405 40 36.875 40C37.7095 40 38.4941 39.6748 39.0842 39.0847C39.6748 38.4946 40 37.7099 40 36.875C40 36.0401 39.6748 35.2554 39.0845 34.6655ZM23.87 27.0099C23.87 27.01 23.8699 27.01 23.8698 27.0101C21.4584 28.7616 18.6074 29.6875 15.625 29.6875C7.87094 29.6875 1.5625 23.3791 1.5625 15.625C1.5625 7.87094 7.87094 1.5625 15.625 1.5625C23.3791 1.5625 29.6875 7.87094 29.6875 15.625C29.6875 18.6074 28.7616 21.4584 27.01 23.8699C26.1337 25.0772 25.0773 26.1337 23.87 27.0099ZM25.5091 27.7182C26.3177 27.0567 27.0568 26.3176 27.7182 25.5091L29.9347 27.7255C29.2606 28.5211 28.5211 29.2607 27.7255 29.9347L25.5091 27.7182ZM37.9796 37.9796C37.6843 38.2749 37.292 38.4375 36.875 38.4375C36.458 38.4375 36.0657 38.2749 35.7704 37.9796L28.8333 31.0425C29.6245 30.3635 30.3635 29.6245 31.0424 28.8334L37.9798 35.7707C38.2749 36.0655 38.4375 36.4577 38.4375 36.875C38.4375 37.2923 38.2749 37.6845 37.9796 37.9796Z" fill="#2855AF"/>
<path d="M15.625 3.125C8.73242 3.125 3.125 8.73242 3.125 15.625C3.125 22.5176 8.73242 28.125 15.625 28.125C22.5176 28.125 28.125 22.5176 28.125 15.625C28.125 8.73242 22.5176 3.125 15.625 3.125ZM15.625 26.5625C9.59406 26.5625 4.6875 21.6559 4.6875 15.625C4.6875 9.59406 9.59406 4.6875 15.625 4.6875C21.6559 4.6875 26.5625 9.59406 26.5625 15.625C26.5625 21.6559 21.6559 26.5625 15.625 26.5625Z" fill="#2855AF"/>
<path d="M24.3801 12.2713C23.7073 10.5204 22.536 9.02336 20.9926 7.94219C19.4124 6.83516 17.5563 6.25 15.625 6.25C15.1936 6.25 14.8438 6.59984 14.8438 7.03125C14.8438 7.46266 15.1936 7.8125 15.625 7.8125C18.8359 7.8125 21.768 9.82953 22.9216 12.8318C23.0409 13.1424 23.337 13.333 23.651 13.333C23.7441 13.333 23.8389 13.3162 23.931 13.2809C24.3337 13.1261 24.5348 12.6741 24.3801 12.2713Z" fill="#2855AF"/>
</svg>
