<svg width="55" height="55" viewBox="0 0 55 55" fill="none" xmlns="http://www.w3.org/2000/svg">
<g clip-path="url(#clip0)">
<path d="M4.58482 32.0828C5.09086 32.0828 5.50124 31.6725 5.50124 31.166V10.9996C5.50124 10.4935 5.09086 10.0831 4.58482 10.0831C4.07835 10.0831 3.66797 10.4935 3.66797 10.9996V31.166C3.66797 31.6725 4.07835 32.0828 4.58482 32.0828Z" fill="#2855AF"/>
<path d="M4.58483 8.24974C5.09089 8.24974 5.50127 7.83936 5.50127 7.33288V5.49957C5.50127 4.99351 5.09089 4.58313 4.58483 4.58313C4.07835 4.58313 3.66797 4.99351 3.66797 5.49957V7.33288C3.66797 7.83936 4.07835 8.24974 4.58483 8.24974Z" fill="#2855AF"/>
<path d="M27.4986 18.3331C25.4735 18.3331 23.832 19.9746 23.832 21.9997C23.832 24.0247 25.4735 25.6662 27.4986 25.6662C29.5236 25.6662 31.1651 24.0247 31.1651 21.9997C31.163 19.9755 29.5228 18.3352 27.4986 18.3331ZM27.4986 23.833C26.4861 23.833 25.6653 23.0122 25.6653 21.9997C25.6653 20.9872 26.4861 20.1664 27.4986 20.1664C28.5111 20.1664 29.3319 20.9872 29.3319 21.9997C29.331 23.0118 28.5107 23.8321 27.4986 23.833Z" fill="#7CCCDB"/>
<path d="M37.5991 18.3297H37.5873L35.9026 18.3288C35.6278 17.7036 35.2854 17.1103 34.8809 16.5598L35.728 15.0899C36.219 14.2112 35.9148 13.1009 35.0445 12.5953L31.8794 10.7704C31.4619 10.5233 30.9625 10.454 30.4934 10.5782C30.0214 10.702 29.6177 11.0083 29.371 11.4296L28.5225 12.8932C27.8436 12.8169 27.1575 12.8173 26.4786 12.8949L25.6356 11.4338C25.1283 10.5581 24.0079 10.2581 23.1309 10.7629L19.9562 12.5961C19.0804 13.103 18.78 14.2234 19.2844 15.1004L20.1282 16.561C19.722 17.1107 19.3788 17.7045 19.1052 18.3305L17.4117 18.333C16.9241 18.3364 16.4575 18.5332 16.1142 18.8798C15.7739 19.2209 15.5843 19.6842 15.588 20.1663L15.5859 23.8262C15.588 24.8383 16.4038 25.6598 17.4159 25.6691L19.101 25.6703C19.2382 25.9829 19.3926 26.2876 19.5634 26.5834C19.7338 26.8788 19.9205 27.1646 20.1223 27.4394L19.2743 28.9101C18.7842 29.7892 19.0893 30.8983 19.9591 31.4035L23.123 33.2275C23.5405 33.4751 24.0402 33.5447 24.5098 33.4205C24.9818 33.2967 25.3859 32.9904 25.6327 32.5691L26.4807 31.1051C27.16 31.1819 27.8457 31.1815 28.525 31.1039L29.3676 32.5649C29.6101 32.9866 30.0113 33.2938 30.4812 33.418C30.6373 33.46 30.7985 33.4814 30.96 33.4814C31.2806 33.4814 31.5953 33.3966 31.8723 33.2359L35.047 31.4026C35.9227 30.8953 36.2232 29.7754 35.7188 28.8984L34.8758 27.4377C35.2816 26.888 35.6248 26.2947 35.898 25.6682L37.5915 25.6661C38.0795 25.6628 38.5461 25.466 38.889 25.119C39.2293 24.7778 39.4189 24.3146 39.4156 23.8329L39.4173 20.173C39.4164 19.1651 38.607 18.3444 37.5991 18.3297ZM35.2711 23.8358C34.8813 23.8366 34.5343 24.0842 34.4067 24.4526C34.1092 25.2977 33.6573 26.0803 33.0736 26.7596C32.8206 27.055 32.7815 27.4776 32.9758 27.8145L34.1306 29.8148L30.9554 31.6485L29.8006 29.6478C29.6366 29.3642 29.334 29.1896 29.0067 29.1896C28.9501 29.1896 28.8939 29.1946 28.8381 29.2051C27.9573 29.37 27.0539 29.3705 26.1727 29.206C25.79 29.1317 25.4019 29.3088 25.2072 29.6466L24.0478 31.6452L20.868 29.8148L22.0215 27.8154C22.2162 27.478 22.1763 27.0546 21.9225 26.7596C21.3417 26.0774 20.8902 25.2952 20.5902 24.451C20.4614 24.0838 20.1148 23.8375 19.7254 23.8375L17.4201 23.8308L17.4159 20.1663L19.7321 20.163C20.1223 20.1625 20.4694 19.915 20.5969 19.5461C20.894 18.701 21.3459 17.9189 21.9296 17.2395C22.1826 16.9441 22.2221 16.5212 22.0278 16.1846L20.8726 14.1844L24.0478 12.3507L25.203 14.3514C25.3964 14.6887 25.7829 14.8667 26.1651 14.7941C27.0459 14.6279 27.9497 14.6275 28.8305 14.7928C29.2136 14.8667 29.6009 14.69 29.7964 14.3526L30.9558 12.3532L34.1348 14.1844L32.9813 16.1838C32.787 16.5208 32.8264 16.9441 33.0803 17.2395C33.6615 17.9214 34.1134 18.704 34.4138 19.5482C34.5427 19.9154 34.8892 20.1613 35.2786 20.1617L37.584 20.163L37.5873 23.8329L35.2711 23.8358Z" fill="#7CCCDB"/>
<path d="M54.9957 9.8838C54.8959 6.92261 52.4625 4.57532 49.4993 4.58329H12.8334V1.83317C12.8321 0.821072 12.0122 0.000735532 11.0001 -0.000103687H5.49984C4.04002 -0.00388017 2.63894 0.574342 1.6067 1.60658C0.574464 2.63882 -0.0037581 4.0399 1.83831e-05 5.49972V44.9191C0.10534 47.8807 2.46606 50.2653 5.42683 50.4005C5.45201 50.4026 5.47425 50.4156 5.49984 50.4156H6.13261L7.48921 53.3893C7.55761 53.5366 7.63943 53.6776 7.73258 53.8102C7.76196 53.853 7.79469 53.892 7.82616 53.9332C7.89455 54.0209 7.96798 54.1048 8.04687 54.1837C8.08547 54.2227 8.1224 54.2617 8.16352 54.2982C8.2764 54.3998 8.39724 54.4925 8.52565 54.5743C8.55376 54.5924 8.58523 54.6049 8.6146 54.6217C8.72496 54.6859 8.83993 54.7422 8.95826 54.79C8.9826 54.8001 9.004 54.8152 9.02834 54.8244C9.05897 54.8357 9.09044 54.8399 9.12107 54.85C9.21003 54.8794 9.30024 54.9041 9.39172 54.9243C9.44837 54.9373 9.50376 54.952 9.5604 54.9612C9.67705 54.9792 9.79412 54.9897 9.91203 54.9927C9.93889 54.9935 9.96574 54.9998 9.9926 54.9998C10.3858 54.9994 10.7743 54.9146 11.1318 54.7506L20.636 50.4156H42.1662V53.1657C42.167 54.1778 42.9873 54.9981 43.9994 54.999H49.4993C52.5356 54.9956 54.9957 52.535 54.9991 49.4991V10.0831C54.9991 10.0722 54.9932 10.0634 54.9928 10.0525C54.9928 9.99625 54.9974 9.94045 54.9957 9.8838ZM2.89952 2.90653C3.5902 2.21837 4.52509 1.83233 5.49984 1.83317H11.0001V39.4159H5.49984C4.1466 39.4163 2.84119 39.9161 1.83329 40.8191V5.49972C1.83203 4.52832 2.21514 3.59595 2.89952 2.90653ZM33.5524 42.0574L31.6113 37.8017L37.4795 37.4148L37.665 37.9062L33.5524 42.0574ZM29.773 38.1886L30.5337 39.8569L24.6957 42.5198C24.3928 42.6524 24.1846 42.9381 24.1515 43.2671C24.1183 43.5961 24.2652 43.9175 24.5354 44.1084C24.8057 44.2989 25.1577 44.3291 25.4565 44.1873L31.2945 41.524L32.0553 43.1924L20.0838 48.6528L20.067 48.6603L15.3754 50.8008L14.6142 49.1324L21.2868 46.089C21.7392 45.8746 21.9359 45.3362 21.7278 44.8805C21.5201 44.4248 20.9847 44.2205 20.5261 44.4214L13.8538 47.4645L13.0931 45.7965L29.773 38.1886ZM10.3715 53.0826C9.9112 53.2924 9.3678 53.0897 9.15758 52.6294L7.63565 49.2931C7.42627 48.8324 7.62852 48.289 8.08883 48.0783L11.4256 46.5564L12.5661 49.0577V49.0586L12.5669 49.0598L13.7074 51.5607L10.3715 53.0826ZM24.6554 48.5823L33.6502 44.4798C33.6963 44.4525 33.74 44.421 33.7799 44.3858C33.8298 44.3589 33.8772 44.327 33.9213 44.2909L38.9415 39.2225C39.5201 38.6854 39.6888 37.8378 39.3607 37.1198L39.1483 36.6549C38.8298 35.9462 38.0964 35.5177 37.3226 35.5882L30.1666 36.0595C30.0676 36.0679 29.9702 36.0926 29.8787 36.1329C29.8682 36.1371 29.8569 36.1358 29.8468 36.1404L7.32808 46.4108C6.45907 46.8099 5.86112 47.6327 5.74951 48.5823H5.72014C3.64768 48.6083 1.92812 46.9861 1.83329 44.9157V44.7823C1.90001 42.8072 3.5239 41.2425 5.49984 41.2492H11.0001C12.0122 41.2484 12.8321 40.428 12.8334 39.4159V6.41657H49.4993C51.4752 6.40901 53.0991 7.97416 53.1641 9.94926C53.1901 10.9114 52.8209 11.8421 52.1428 12.5252C51.3921 13.3028 50.359 13.7446 49.2781 13.7497H43.9994C42.9873 13.7505 42.167 14.5708 42.1662 15.5829V48.5823H24.6554ZM49.4993 53.1657H43.9994V15.5829H49.2781C50.7153 15.5758 52.0996 15.0387 53.1658 14.0749V49.4991C53.1637 51.5233 51.5235 53.1636 49.4993 53.1657Z" fill="#2855AF"/>
</g>
<defs>
<clipPath id="clip0">
<rect width="55" height="55" fill="white"/>
</clipPath>
</defs>
</svg>
