<svg width="55" height="55" viewBox="0 0 55 55" fill="none" xmlns="http://www.w3.org/2000/svg">
<path d="M37.4406 8.04297H37.4345C36.8413 8.04297 36.3633 8.5239 36.3633 9.11719C36.3633 9.71048 36.8473 10.1914 37.4405 10.1914C38.0337 10.1914 38.5147 9.71048 38.5147 9.11719C38.5147 8.5239 38.0338 8.04297 37.4406 8.04297Z" fill="#7CCCDB"/>
<path d="M42.6342 8.04297H42.6312C42.038 8.04297 41.5586 8.5239 41.5586 9.11719C41.5586 9.71048 42.041 10.1914 42.6343 10.1914C43.2276 10.1914 43.7085 9.71048 43.7085 9.11719C43.7085 8.5239 43.2274 8.04297 42.6342 8.04297Z" fill="#7CCCDB"/>
<path d="M32.2453 8.04297H32.2392C31.646 8.04297 31.168 8.5239 31.168 9.11719C31.168 9.71048 31.652 10.1914 32.2452 10.1914C32.8384 10.1914 33.3194 9.71048 33.3194 9.11719C33.3194 8.5239 32.8386 8.04297 32.2453 8.04297Z" fill="#7CCCDB"/>
<path d="M21.3426 8.04297H6.87891C6.28572 8.04297 5.80469 8.5239 5.80469 9.11719C5.80469 9.71048 6.28572 10.1914 6.87891 10.1914H21.3426C21.9358 10.1914 22.4168 9.71048 22.4168 9.11719C22.4168 8.5239 21.9358 8.04297 21.3426 8.04297Z" fill="#7CCCDB"/>
<path d="M54.9891 47.6255C54.9104 46.5263 54.4106 45.526 53.582 44.8093L49.5134 41.2863V6.17232C49.5134 4.40803 48.0781 2.97266 46.3138 2.97266H3.19967C1.43537 2.97266 0 4.40803 0 6.17232V41.8211C0 43.5854 1.43537 45.0208 3.19967 45.0208H41.2593L48.1962 51.0288C48.9482 51.6792 49.892 52.0288 50.8813 52.0288C50.9817 52.0288 51.0823 52.0251 51.1834 52.0179C52.2824 51.9394 53.2824 51.4399 53.9979 50.6128C54.7158 49.7852 55.0679 48.7243 54.9891 47.6255ZM2.14844 6.17232C2.14844 5.59268 2.62002 5.12109 3.19967 5.12109H46.3139C46.8935 5.12109 47.3651 5.59268 47.3651 6.17232V13.1097H2.14844V6.17232ZM3.19967 42.8724C2.62002 42.8724 2.14844 42.4008 2.14844 41.8211V15.2581H47.3651V39.4259L39.5534 32.6617C39.5524 32.5256 39.5487 32.3892 39.5388 32.2522C39.518 31.9642 39.4769 31.6809 39.4185 31.4033H43.2841C43.8773 31.4033 44.3584 30.9223 44.3584 30.329V19.0987C44.3584 18.5054 43.8773 18.0245 43.2841 18.0245H29.5755C28.9823 18.0245 28.5013 18.5054 28.5013 19.0987C28.5013 19.692 28.9823 20.1729 29.5755 20.1729H42.2099V29.2548H38.5185C38.2079 28.7875 37.8333 28.3587 37.3973 27.9816C37.3879 27.9735 37.3783 27.9655 37.3686 27.9577C35.8023 26.696 34.5969 26.6952 33.5335 26.6944C32.2794 26.6936 30.9827 26.6926 28.2301 24.4106C27.7802 24.0374 27.1145 24.0929 26.732 24.5348C25.6209 25.8194 25.2282 27.5016 25.3276 29.2548H7.30361V20.1729H19.9289C20.5221 20.1729 21.0031 19.692 21.0031 19.0987C21.0031 18.5054 20.5221 18.0245 19.9289 18.0245H6.22939C5.63621 18.0245 5.15518 18.5054 5.15518 19.0987V30.329C5.15518 30.9223 5.63621 31.4033 6.22939 31.4033H25.6773C26.3072 33.7996 27.6817 36.0815 29.2286 37.4201C30.3722 38.4103 31.804 38.9421 33.3022 38.9421C33.5931 38.9427 33.8825 38.9222 34.1704 38.881L38.7788 42.8724H3.19967ZM36.4058 35.3786C35.691 36.2053 34.6967 36.704 33.6063 36.7827C32.5165 36.8611 31.4608 36.5108 30.6348 35.7957C28.5058 33.9532 26.6748 29.4893 27.8162 26.8146C30.571 28.8407 32.1984 28.842 33.5321 28.843C34.4702 28.8436 35.0382 28.844 36.0061 29.619C36.8245 30.3329 37.318 31.322 37.3958 32.4062C37.4741 33.4964 37.123 34.5516 36.4058 35.3786ZM36.5074 38.063C37.0727 37.7252 37.587 37.2972 38.0299 36.785C38.4744 36.2724 38.8251 35.7011 39.0787 35.0926L47.5416 42.4208L44.9687 45.3913L36.5074 38.063ZM52.374 49.2061C52.0334 49.5998 51.5562 49.8374 51.0301 49.875C50.5033 49.9123 49.9964 49.7453 49.6024 49.4044L46.5927 46.7977L49.1657 43.8269L52.1761 46.4337C52.5705 46.7749 52.8086 47.2526 52.8462 47.7789C52.8839 48.3048 52.7165 48.8112 52.374 49.2061Z" fill="#2855AF"/>
<path d="M13.7617 35.7539H23.1008C23.6939 35.7539 24.175 35.273 24.175 34.6797C24.175 34.0864 23.6939 33.6055 23.1008 33.6055H13.7617C13.1685 33.6055 12.6875 34.0864 12.6875 34.6797C12.6875 35.273 13.1684 35.7539 13.7617 35.7539V35.7539Z" fill="#7CCCDB"/>
<path d="M6.23047 35.7539H9.41252C10.0057 35.7539 10.4867 35.273 10.4867 34.6797C10.4867 34.0864 10.0057 33.6055 9.41252 33.6055H6.23047C5.63729 33.6055 5.15625 34.0864 5.15625 34.6797C5.15625 35.273 5.63729 35.7539 6.23047 35.7539V35.7539Z" fill="#7CCCDB"/>
<path d="M15.0396 37.957H6.23047C5.63729 37.957 5.15625 38.438 5.15625 39.0312C5.15625 39.6245 5.63729 40.1055 6.23047 40.1055H15.0397C15.6329 40.1055 16.1139 39.6245 16.1139 39.0312C16.1139 38.438 15.6329 37.957 15.0396 37.957Z" fill="#7CCCDB"/>
<path d="M25.2794 37.957H20.4805C19.8873 37.957 19.4062 38.438 19.4062 39.0312C19.4062 39.6245 19.8873 40.1055 20.4805 40.1055H25.2794C25.8726 40.1055 26.3537 39.6245 26.3537 39.0312C26.3537 38.438 25.8727 37.957 25.2794 37.957Z" fill="#7CCCDB"/>
<path d="M24.7538 20.1719H24.7599C25.3531 20.1719 25.8311 19.6909 25.8311 19.0977C25.8311 18.5044 25.3471 18.0234 24.7539 18.0234C24.1607 18.0234 23.6797 18.5044 23.6797 19.0977C23.6796 19.6909 24.1605 20.1719 24.7538 20.1719Z" fill="#7CCCDB"/>
</svg>
