<svg width="55" height="55" viewBox="0 0 55 55" fill="none" xmlns="http://www.w3.org/2000/svg">
<g clip-path="url(#clip0)">
<path d="M5.25314 5.14618C5.85247 5.14618 6.33832 4.66033 6.33832 4.06101C6.33832 3.46168 5.85247 2.97583 5.25314 2.97583C4.65382 2.97583 4.16797 3.46168 4.16797 4.06101C4.16797 4.66033 4.65382 5.14618 5.25314 5.14618Z" fill="#2855AF"/>
<path d="M9.70236 5.14618C10.3017 5.14618 10.7875 4.66033 10.7875 4.06101C10.7875 3.46168 10.3017 2.97583 9.70236 2.97583C9.10304 2.97583 8.61719 3.46168 8.61719 4.06101C8.61719 4.66033 9.10304 5.14618 9.70236 5.14618Z" fill="#2855AF"/>
<path d="M14.1516 5.14618C14.7509 5.14618 15.2368 4.66033 15.2368 4.06101C15.2368 3.46168 14.7509 2.97583 14.1516 2.97583C13.5523 2.97583 13.0664 3.46168 13.0664 4.06101C13.0664 4.66033 13.5523 5.14618 14.1516 5.14618Z" fill="#2855AF"/>
<path d="M4.49707 24.8332H21.8592C22.3043 24.8332 22.6649 24.4725 22.6649 24.0275V11.0059C22.6649 10.5609 22.3043 10.2002 21.8592 10.2002H4.49707C4.05202 10.2002 3.69141 10.5609 3.69141 11.0059V24.0275C3.69141 24.4725 4.05202 24.8332 4.49707 24.8332ZM5.30273 11.8115H21.0536V23.2219H5.30273V11.8115Z" fill="#7CCCDB"/>
<path d="M4.49707 28.3057H21.8592C22.3043 28.3057 22.6649 27.9449 22.6649 27.5C22.6649 27.0551 22.3043 26.6943 21.8592 26.6943H4.49707C4.05202 26.6943 3.69141 27.0551 3.69141 27.5C3.69141 27.9449 4.05202 28.3057 4.49707 28.3057Z" fill="#2855AF"/>
<path d="M4.49707 31.6697H18.6038C19.0489 31.6697 19.4095 31.309 19.4095 30.864C19.4095 30.4191 19.0489 30.0583 18.6038 30.0583H4.49707C4.05202 30.0583 3.69141 30.4191 3.69141 30.864C3.69141 31.309 4.05202 31.6697 4.49707 31.6697Z" fill="#2855AF"/>
<path d="M4.49707 35.0336H13.1782C13.6232 35.0336 13.9838 34.6728 13.9838 34.2279C13.9838 33.783 13.6232 33.4222 13.1782 33.4222H4.49707C4.05202 33.4222 3.69141 33.783 3.69141 34.2279C3.69141 34.6728 4.05202 35.0336 4.49707 35.0336Z" fill="#2855AF"/>
<path d="M54.1943 27.9117C54.6394 27.9117 55 27.551 55 27.1061V17.0609C55 15.4319 53.6747 14.1067 52.0459 14.1067H47.6212V2.9541C47.6212 1.32516 46.296 0 44.6671 0H2.9541C1.32526 0 0 1.32516 0 2.9541V12.0804C0 12.5254 0.360615 12.8861 0.805664 12.8861C1.25071 12.8861 1.61133 12.5254 1.61133 12.0804V8.12217H46.0099V14.1067H43.9312V11.0064C43.9312 10.5615 43.5706 10.2008 43.1256 10.2008H25.7641C25.319 10.2008 24.9584 10.5615 24.9584 11.0064V24.0271C24.9584 24.472 25.319 24.8327 25.7641 24.8327H31.4689V26.6943H25.7637C25.3187 26.6943 24.9581 27.0551 24.9581 27.5C24.9581 27.9449 25.3187 28.3057 25.7637 28.3057H31.4689V30.0583H25.7637C25.3187 30.0583 24.9581 30.419 24.9581 30.8639C24.9581 31.3089 25.3187 31.6696 25.7637 31.6696H31.4689V33.4222H25.7637C25.3187 33.4222 24.9581 33.7829 24.9581 34.2278C24.9581 34.6728 25.3187 35.0335 25.7637 35.0335H31.4689V39.282H2.9541C2.21364 39.282 1.61133 38.6797 1.61133 37.9393V15.8447C1.61133 15.3998 1.25071 15.0391 0.805664 15.0391C0.360615 15.0391 0 15.3998 0 15.8447V37.9393C0 39.5682 1.32526 40.8934 2.9541 40.8934H31.4689V52.0459C31.4689 53.6748 32.7942 55 34.423 55H52.0459C53.6747 55 55 53.6748 55 52.0459V30.8771C55 30.4322 54.6394 30.0715 54.1943 30.0715C53.7493 30.0715 53.3887 30.4322 53.3887 30.8771V52.0459C53.3887 52.7864 52.7864 53.3887 52.0459 53.3887H34.423C33.6826 53.3887 33.0802 52.7864 33.0802 52.0459V22.2289H53.3887V27.1062C53.3887 27.5511 53.7493 27.9117 54.1943 27.9117ZM1.61133 6.51084V2.9541C1.61133 2.21364 2.21364 1.61133 2.9541 1.61133H44.6671C45.4075 1.61133 46.0099 2.21364 46.0099 2.9541V6.51084H1.61133ZM26.5697 23.2214V11.8121H42.3199V14.1067H34.423C32.7942 14.1067 31.4689 15.4319 31.4689 17.0609V23.2214H26.5697ZM33.0802 20.6176V17.061C33.0802 16.3205 33.6826 15.7182 34.423 15.7182H52.0459C52.7864 15.7182 53.3887 16.3205 53.3887 17.061V20.6176H33.0802Z" fill="#2855AF"/>
<path d="M51.5277 25.1128C51.5277 24.6679 51.167 24.3071 50.722 24.3071H35.7471C35.302 24.3071 34.9414 24.6679 34.9414 25.1128V38.1345C34.9414 38.5794 35.302 38.9401 35.7471 38.9401H50.7219C51.1669 38.9401 51.5276 38.5794 51.5276 38.1345V25.1128H51.5277ZM49.9163 37.3288H36.5527V25.9185H49.9162V37.3288H49.9163Z" fill="#7CCCDB"/>
<path d="M51.5277 41.6069C51.5277 41.162 51.167 40.8013 50.722 40.8013H35.7471C35.302 40.8013 34.9414 41.162 34.9414 41.6069C34.9414 42.0519 35.302 42.4126 35.7471 42.4126H50.7219C51.1669 42.4126 51.5277 42.0519 51.5277 41.6069Z" fill="#2855AF"/>
<path d="M48.2722 44.9708C48.2722 44.5259 47.9116 44.1652 47.4666 44.1652H35.7471C35.302 44.1652 34.9414 44.5259 34.9414 44.9708C34.9414 45.4158 35.302 45.7765 35.7471 45.7765H47.4666C47.9116 45.7765 48.2722 45.4158 48.2722 44.9708Z" fill="#2855AF"/>
<path d="M35.7471 47.5288C35.302 47.5288 34.9414 47.8895 34.9414 48.3345C34.9414 48.7794 35.302 49.1401 35.7471 49.1401H42.0408C42.4859 49.1401 42.8465 48.7794 42.8465 48.3345C42.8465 47.8895 42.4859 47.5288 42.0408 47.5288H35.7471Z" fill="#2855AF"/>
<path d="M37.9173 17.3622H35.7471C35.302 17.3622 34.9414 17.7229 34.9414 18.1678C34.9414 18.6128 35.302 18.9735 35.7471 18.9735H37.9173C38.3624 18.9735 38.723 18.6128 38.723 18.1678C38.723 17.7229 38.3623 17.3622 37.9173 17.3622Z" fill="#2855AF"/>
</g>
<defs>
<clipPath id="clip0">
<rect width="55" height="55" fill="white"/>
</clipPath>
</defs>
</svg>
