<svg width="55" height="55" viewBox="0 0 55 55" fill="none" xmlns="http://www.w3.org/2000/svg">
<path d="M50.7031 12.0312H41.25V2.57812C41.25 2.3502 41.1595 2.13162 40.9983 1.97046C40.8371 1.80929 40.6185 1.71875 40.3906 1.71875H14.6094C14.3815 1.71875 14.1629 1.80929 14.0017 1.97046C13.8405 2.13162 13.75 2.3502 13.75 2.57812V12.0312H4.29688C3.61374 12.0333 2.95917 12.3056 2.47612 12.7886C1.99307 13.2717 1.72079 13.9262 1.71875 14.6094V42.1094C1.72079 42.7925 1.99307 43.4471 2.47612 43.9301C2.95917 44.4132 3.61374 44.6855 4.29688 44.6875H21.3297L20.7539 48.125H19.7656C19.6324 48.1259 19.5011 48.1574 19.3819 48.217C19.2627 48.2766 19.1588 48.3627 19.0781 48.4688L16.5 51.9062C16.4042 52.0339 16.3459 52.1857 16.3316 52.3447C16.3173 52.5037 16.3475 52.6635 16.4189 52.8062C16.4902 52.9489 16.5999 53.069 16.7357 53.1529C16.8715 53.2368 17.0279 53.2812 17.1875 53.2812H37.8125C37.9721 53.2812 38.1285 53.2368 38.2643 53.1529C38.4001 53.069 38.5098 52.9489 38.5812 52.8062C38.6525 52.6635 38.6827 52.5037 38.6684 52.3447C38.6541 52.1857 38.5958 52.0339 38.5 51.9062L35.9219 48.4688C35.8412 48.3627 35.7373 48.2766 35.6181 48.217C35.4989 48.1574 35.3676 48.1259 35.2344 48.125H34.2461L33.6703 44.6875H50.7031C51.3863 44.6855 52.0408 44.4132 52.5239 43.9301C53.0069 43.4471 53.2792 42.7925 53.2812 42.1094V14.6094C53.2792 13.9262 53.0069 13.2717 52.5239 12.7886C52.0408 12.3056 51.3863 12.0333 50.7031 12.0312ZM15.4688 3.4375H39.5312V20.625H15.4688V3.4375ZM34.8047 49.8438L36.0938 51.5625H18.9062L20.1953 49.8438H34.8047ZM22.4984 48.125L23.0742 44.6875H31.9258L32.5016 48.125H22.4984ZM51.5625 42.1094C51.5625 42.3373 51.472 42.5559 51.3108 42.717C51.1496 42.8782 50.931 42.9688 50.7031 42.9688H4.29688C4.06895 42.9688 3.85037 42.8782 3.68921 42.717C3.52804 42.5559 3.4375 42.3373 3.4375 42.1094V39.5312H51.5625V42.1094ZM51.5625 37.8125H3.4375V14.6094C3.4375 14.3815 3.52804 14.1629 3.68921 14.0017C3.85037 13.8405 4.06895 13.75 4.29688 13.75H13.75V21.4844C13.75 21.7123 13.8405 21.9309 14.0017 22.092C14.1629 22.2532 14.3815 22.3438 14.6094 22.3438H40.3906C40.6185 22.3438 40.8371 22.2532 40.9983 22.092C41.1595 21.9309 41.25 21.7123 41.25 21.4844V13.75H50.7031C50.931 13.75 51.1496 13.8405 51.3108 14.0017C51.472 14.1629 51.5625 14.3815 51.5625 14.6094V37.8125Z" fill="#2855AF"/>
<path d="M48.9844 24.0625H38.6719C38.444 24.0625 38.2254 24.153 38.0642 24.3142C37.903 24.4754 37.8125 24.694 37.8125 24.9219V25.7812H30.9375V24.9219C30.9375 24.694 30.847 24.4754 30.6858 24.3142C30.5246 24.153 30.306 24.0625 30.0781 24.0625H24.9219C24.694 24.0625 24.4754 24.153 24.3142 24.3142C24.153 24.4754 24.0625 24.694 24.0625 24.9219V25.7812H17.1875V24.9219C17.1875 24.694 17.097 24.4754 16.9358 24.3142C16.7746 24.153 16.556 24.0625 16.3281 24.0625H6.01562C5.7877 24.0625 5.56912 24.153 5.40796 24.3142C5.24679 24.4754 5.15625 24.694 5.15625 24.9219V28.3594C5.15625 28.5873 5.24679 28.8059 5.40796 28.967C5.56912 29.1282 5.7877 29.2188 6.01562 29.2188H16.3281C16.556 29.2188 16.7746 29.1282 16.9358 28.967C17.097 28.8059 17.1875 28.5873 17.1875 28.3594V27.5H24.0625V28.3594C24.0625 28.5873 24.153 28.8059 24.3142 28.967C24.4754 29.1282 24.694 29.2188 24.9219 29.2188H26.6406V30.9375H24.9219C24.694 30.9375 24.4754 31.028 24.3142 31.1892C24.153 31.3504 24.0625 31.569 24.0625 31.7969V35.2344C24.0625 35.4623 24.153 35.6809 24.3142 35.842C24.4754 36.0032 24.694 36.0938 24.9219 36.0938H30.0781C30.306 36.0938 30.5246 36.0032 30.6858 35.842C30.847 35.6809 30.9375 35.4623 30.9375 35.2344V31.7969C30.9375 31.569 30.847 31.3504 30.6858 31.1892C30.5246 31.028 30.306 30.9375 30.0781 30.9375H28.3594V29.2188H30.0781C30.306 29.2188 30.5246 29.1282 30.6858 28.967C30.847 28.8059 30.9375 28.5873 30.9375 28.3594V27.5H37.8125V28.3594C37.8125 28.5873 37.903 28.8059 38.0642 28.967C38.2254 29.1282 38.444 29.2188 38.6719 29.2188H48.9844C49.2123 29.2188 49.4309 29.1282 49.592 28.967C49.7532 28.8059 49.8438 28.5873 49.8438 28.3594V24.9219C49.8438 24.694 49.7532 24.4754 49.592 24.3142C49.4309 24.153 49.2123 24.0625 48.9844 24.0625ZM15.4688 27.5H6.875V25.7812H15.4688V27.5ZM29.2188 32.6562V34.375H25.7812V32.6562H29.2188ZM29.2188 27.5H25.7812V25.7812H29.2188V27.5ZM48.125 27.5H39.5312V25.7812H48.125V27.5Z" fill="#2855AF"/>
<path d="M22.5954 6.26721L17.4391 11.4235C17.278 11.5846 17.1875 11.8032 17.1875 12.031C17.1875 12.2589 17.278 12.4775 17.4391 12.6386L22.5954 17.7949L23.8105 16.5797L19.2618 12.031L23.8105 7.48237L22.5954 6.26721Z" fill="#7CCCDB"/>
<path d="M32.4027 6.26721L31.1875 7.48237L35.7362 12.031L31.1875 16.5797L32.4027 17.7949L37.5589 12.6386C37.72 12.4775 37.8105 12.2589 37.8105 12.031C37.8105 11.8032 37.72 11.5846 37.5589 11.4235L32.4027 6.26721Z" fill="#7CCCDB"/>
<path d="M29.2667 4.0254L24.1055 19.4928L25.735 20.0366L30.8963 4.56916L29.2667 4.0254Z" fill="#7CCCDB"/>
</svg>
