<svg width="55" height="55" viewBox="0 0 55 55" fill="none" xmlns="http://www.w3.org/2000/svg">
<path d="M50.7031 1.71875H4.29688C3.61336 1.71955 2.95806 1.99142 2.47474 2.47474C1.99142 2.95806 1.71955 3.61336 1.71875 4.29688V40.3906C1.71955 41.0741 1.99142 41.7294 2.47474 42.2128C2.95806 42.6961 3.61336 42.968 4.29688 42.9688H21.3293L19.8969 51.5625H16.3281C16.1002 51.5625 15.8816 51.653 15.7205 51.8142C15.5593 51.9754 15.4688 52.194 15.4688 52.4219C15.4688 52.6498 15.5593 52.8684 15.7205 53.0295C15.8816 53.1907 16.1002 53.2812 16.3281 53.2812H38.6719C38.8998 53.2812 39.1184 53.1907 39.2795 53.0295C39.4407 52.8684 39.5312 52.6498 39.5312 52.4219C39.5312 52.194 39.4407 51.9754 39.2795 51.8142C39.1184 51.653 38.8998 51.5625 38.6719 51.5625H35.1031L33.6707 42.9688H50.7031C51.3866 42.968 52.0419 42.6961 52.5253 42.2128C53.0086 41.7294 53.2805 41.0741 53.2812 40.3906V4.29688C53.2805 3.61336 53.0086 2.95806 52.5253 2.47474C52.0419 1.99142 51.3866 1.71955 50.7031 1.71875ZM4.29688 3.4375H50.7031C50.931 3.43776 51.1494 3.52838 51.3105 3.68949C51.4716 3.8506 51.5622 4.06903 51.5625 4.29688V8.59375H3.4375V4.29688C3.43776 4.06903 3.52838 3.8506 3.68949 3.68949C3.8506 3.52838 4.06903 3.43776 4.29688 3.4375ZM51.5625 10.3125V32.6562H3.4375V10.3125H51.5625ZM33.3605 51.5625H21.6395L23.0719 42.9688H31.9281L33.3605 51.5625ZM50.7031 41.25H4.29688C4.06903 41.2497 3.8506 41.1591 3.68949 40.998C3.52838 40.8369 3.43776 40.6185 3.4375 40.3906V34.375H51.5625V40.3906C51.5622 40.6185 51.4716 40.8369 51.3105 40.998C51.1494 41.1591 50.931 41.2497 50.7031 41.25Z" fill="#2855AF"/>
<path d="M29.2188 36.0938H25.7812C25.5533 36.0938 25.3347 36.1843 25.1736 36.3455C25.0124 36.5066 24.9219 36.7252 24.9219 36.9531C24.9219 37.181 25.0124 37.3996 25.1736 37.5608C25.3347 37.722 25.5533 37.8125 25.7812 37.8125H29.2188C29.4467 37.8125 29.6653 37.722 29.8264 37.5608C29.9876 37.3996 30.0781 37.181 30.0781 36.9531C30.0781 36.7252 29.9876 36.5066 29.8264 36.3455C29.6653 36.1843 29.4467 36.0938 29.2188 36.0938Z" fill="#2855AF"/>
<path d="M6.01562 6.875C6.49024 6.875 6.875 6.49024 6.875 6.01562C6.875 5.54101 6.49024 5.15625 6.01562 5.15625C5.54101 5.15625 5.15625 5.54101 5.15625 6.01562C5.15625 6.49024 5.54101 6.875 6.01562 6.875Z" fill="#2855AF"/>
<path d="M9.45312 6.875C9.92774 6.875 10.3125 6.49024 10.3125 6.01562C10.3125 5.54101 9.92774 5.15625 9.45312 5.15625C8.97851 5.15625 8.59375 5.54101 8.59375 6.01562C8.59375 6.49024 8.97851 6.875 9.45312 6.875Z" fill="#2855AF"/>
<path d="M12.8906 6.875C13.3652 6.875 13.75 6.49024 13.75 6.01562C13.75 5.54101 13.3652 5.15625 12.8906 5.15625C12.416 5.15625 12.0312 5.54101 12.0312 6.01562C12.0312 6.49024 12.416 6.875 12.8906 6.875Z" fill="#2855AF"/>
<path d="M16.3281 15.4688H7.73438C7.50645 15.4688 7.28787 15.5593 7.12671 15.7205C6.96554 15.8816 6.875 16.1002 6.875 16.3281C6.875 16.556 6.96554 16.7746 7.12671 16.9358C7.28787 17.097 7.50645 17.1875 7.73438 17.1875H11.1719V26.6406C11.1719 26.8685 11.2624 27.0871 11.4236 27.2483C11.5847 27.4095 11.8033 27.5 12.0312 27.5C12.2592 27.5 12.4778 27.4095 12.6389 27.2483C12.8001 27.0871 12.8906 26.8685 12.8906 26.6406V17.1875H16.3281C16.556 17.1875 16.7746 17.097 16.9358 16.9358C17.097 16.7746 17.1875 16.556 17.1875 16.3281C17.1875 16.1002 17.097 15.8816 16.9358 15.7205C16.7746 15.5593 16.556 15.4688 16.3281 15.4688Z" fill="#7CCCDB"/>
<path d="M19.7656 17.1875H47.2656C47.4935 17.1875 47.7121 17.097 47.8733 16.9358C48.0345 16.7746 48.125 16.556 48.125 16.3281C48.125 16.1002 48.0345 15.8816 47.8733 15.7205C47.7121 15.5593 47.4935 15.4688 47.2656 15.4688H19.7656C19.5377 15.4688 19.3191 15.5593 19.158 15.7205C18.9968 15.8816 18.9062 16.1002 18.9062 16.3281C18.9062 16.556 18.9968 16.7746 19.158 16.9358C19.3191 17.097 19.5377 17.1875 19.7656 17.1875Z" fill="#7CCCDB"/>
<path d="M47.2656 20.625H19.7656C19.5377 20.625 19.3191 20.7155 19.158 20.8767C18.9968 21.0379 18.9062 21.2565 18.9062 21.4844C18.9062 21.7123 18.9968 21.9309 19.158 22.092C19.3191 22.2532 19.5377 22.3438 19.7656 22.3438H47.2656C47.4935 22.3438 47.7121 22.2532 47.8733 22.092C48.0345 21.9309 48.125 21.7123 48.125 21.4844C48.125 21.2565 48.0345 21.0379 47.8733 20.8767C47.7121 20.7155 47.4935 20.625 47.2656 20.625Z" fill="#7CCCDB"/>
<path d="M30.0781 24.9219C29.8502 24.9219 29.6316 25.0124 29.4705 25.1736C29.3093 25.3347 29.2188 25.5533 29.2188 25.7812H19.7656C19.5377 25.7812 19.3191 25.8718 19.158 26.033C18.9968 26.1941 18.9062 26.4127 18.9062 26.6406C18.9062 26.8685 18.9968 27.0871 19.158 27.2483C19.3191 27.4095 19.5377 27.5 19.7656 27.5H29.2188C29.2188 27.7279 29.3093 27.9465 29.4705 28.1077C29.6316 28.2688 29.8502 28.3594 30.0781 28.3594C30.306 28.3594 30.5246 28.2688 30.6858 28.1077C30.847 27.9465 30.9375 27.7279 30.9375 27.5V25.7812C30.9375 25.5533 30.847 25.3347 30.6858 25.1736C30.5246 25.0124 30.306 24.9219 30.0781 24.9219Z" fill="#7CCCDB"/>
</svg>
