<svg width="55" height="55" viewBox="0 0 55 55" fill="none" xmlns="http://www.w3.org/2000/svg">
<path d="M51.0985 2.06384H3.90142C1.75021 2.06384 0 3.81405 0 5.96527V37.9762C0 40.1274 1.75021 41.8776 3.90142 41.8776H21.6946V44.2169C21.6946 45.1985 21.2223 46.1233 20.4617 46.6307L18.4481 47.9739H16.8472C15.8107 47.9739 14.9674 48.8171 14.9674 49.8536V51.0564C14.9674 52.0929 15.8107 52.9362 16.8472 52.9362H38.1527C39.1892 52.9362 40.0325 52.0929 40.0325 51.0564V49.8536C40.0325 48.8171 39.1892 47.9739 38.1527 47.9739H36.5518L34.5382 46.6307C33.7777 46.1233 33.3051 45.1985 33.3051 44.2169V41.8776H51.0984C53.2497 41.8776 54.9999 40.1274 54.9999 37.9762V5.96527C55 3.81405 53.2498 2.06384 51.0985 2.06384ZM38.1527 49.5853C38.3008 49.5853 38.4212 49.7057 38.4212 49.8537V51.0565C38.4212 51.2046 38.3008 51.325 38.1527 51.325H16.8473C16.6992 51.325 16.5788 51.2046 16.5788 51.0565V49.8537C16.5788 49.7057 16.6992 49.5853 16.8473 49.5853H38.1527ZM33.6441 47.9712L33.6481 47.9739H21.3519L21.3559 47.9712C22.577 47.1567 23.306 45.7534 23.306 44.217V41.8777H31.6939V44.217C31.6939 45.7533 32.423 47.1567 33.6441 47.9712ZM53.3887 37.9762C53.3887 39.239 52.3613 40.2663 51.0985 40.2663C49.8193 40.2663 5.1314 40.2663 3.90153 40.2663C2.63869 40.2663 1.61142 39.239 1.61142 37.9762V5.96527C1.61142 4.70243 2.63869 3.67516 3.90153 3.67516H51.0985C52.3613 3.67516 53.3887 4.70243 53.3887 5.96527V37.9762Z" fill="#2855AF"/>
<path d="M50.3981 5.41504C48.5035 5.41504 6.50136 5.41504 4.60259 5.41504C3.91273 5.41504 3.35156 5.97631 3.35156 6.66606V37.2756C3.35156 37.9654 3.91284 38.5266 4.60259 38.5266H50.3981C51.088 38.5266 51.6491 37.9653 51.6491 37.2756V23.8507C51.6491 23.4057 51.2885 23.0451 50.8435 23.0451C50.3984 23.0451 50.0378 23.4057 50.0378 23.8507V36.9154H4.96277V11.0105H50.0378V20.091C50.0378 20.5361 50.3984 20.8967 50.8435 20.8967C51.2885 20.8967 51.6491 20.5361 51.6491 20.091C51.6491 19.5096 51.6491 7.31618 51.6491 6.66606C51.6492 5.97631 51.088 5.41504 50.3981 5.41504ZM8.18905 9.39918H4.96277V7.02635H8.18905V9.39918ZM50.0379 9.39918H9.80037V7.02635H50.0378V9.39918H50.0379Z" fill="#2855AF"/>
<path d="M17.0235 12.9932C16.1179 12.0877 14.6524 12.0875 13.7467 12.9931L12.913 13.8268L12.9075 13.8213C12.0018 12.9157 10.5363 12.9156 9.63061 13.8212C8.7273 14.7246 8.7273 16.1946 9.63061 17.0981L11.2745 18.7419C12.1798 19.6475 13.6458 19.6477 14.5513 18.742L17.0235 16.2699C17.9268 15.3665 17.9268 13.8964 17.0235 12.9932ZM15.8842 15.1306L13.412 17.6027C13.1361 17.8786 12.6897 17.8784 12.414 17.6027C12.414 17.6027 12.414 17.6027 12.414 17.6026L10.7701 15.9588C10.4949 15.6836 10.4949 15.2359 10.7701 14.9608C11.0456 14.685 11.4923 14.6846 11.7682 14.9608L12.3433 15.5359C12.6581 15.8504 13.1681 15.8504 13.4825 15.5359L14.8859 14.1327C15.1617 13.8569 15.6082 13.8568 15.8838 14.1328C16.1592 14.4077 16.1592 14.8554 15.8842 15.1306Z" fill="#7CCCDB"/>
<path d="M17.0235 20.9447C16.1179 20.0391 14.6524 20.0389 13.7467 20.9445L12.913 21.7782L12.9075 21.7728C12.0018 20.8671 10.5363 20.867 9.63061 21.7727C8.7273 22.676 8.7273 24.146 9.63061 25.0496L11.2745 26.6933C12.1798 27.5989 13.6458 27.5991 14.5513 26.6934L17.0235 24.2213C17.9268 23.3178 17.9268 21.8479 17.0235 20.9447ZM15.8842 23.0819L13.412 25.554C13.1361 25.8299 12.6897 25.8297 12.414 25.554C12.414 25.554 12.414 25.554 12.414 25.5539L10.7701 23.9101C10.4949 23.6349 10.4949 23.1872 10.7701 22.9121C11.0456 22.6363 11.4923 22.6359 11.7682 22.9121L12.3433 23.4872C12.6581 23.8018 13.1681 23.8018 13.4825 23.4872L14.8859 22.084C15.1617 21.8082 15.6082 21.8081 15.8839 22.0841C16.1592 22.3591 16.1592 22.8068 15.8842 23.0819Z" fill="#7CCCDB"/>
<path d="M13.7467 28.8958L12.913 29.7295L12.9075 29.7241C12.0018 28.8184 10.5363 28.8183 9.63061 29.724C8.7273 30.6273 8.7273 32.0973 9.63061 33.0009L11.2745 34.6446C12.1799 35.5503 13.6458 35.5503 14.5514 34.6447L17.0235 32.1726C17.9268 31.2692 17.9268 29.7993 17.0235 28.8959C16.1178 27.9904 14.6524 27.9902 13.7467 28.8958ZM15.8841 31.0332L13.412 33.5054C13.1361 33.7813 12.6897 33.7811 12.414 33.5054C12.414 33.5054 12.414 33.5054 12.414 33.5053L10.7701 31.8615C10.4949 31.5863 10.4949 31.1386 10.7701 30.8635C11.0456 30.5877 11.4923 30.5873 11.7682 30.8635L12.3433 31.4386C12.6581 31.7531 13.1681 31.7531 13.4825 31.4386L14.8859 30.0354C15.1617 29.7596 15.6082 29.7595 15.8839 30.0355C16.1599 30.311 16.1599 30.7575 15.8841 31.0332Z" fill="#7CCCDB"/>
<path d="M45.7481 23.2329C45.7481 22.2351 44.9362 21.4232 43.9383 21.4232H21.7121C20.7142 21.4232 19.9023 22.2351 19.9023 23.2329V24.4045C19.9023 25.4023 20.7142 26.2142 21.7121 26.2142H43.9383C44.9362 26.2142 45.7481 25.4023 45.7481 24.4045V23.2329ZM44.1367 24.4046C44.1367 24.514 44.0478 24.603 43.9383 24.603H21.7121C21.6026 24.603 21.5137 24.514 21.5137 24.4046V23.233C21.5137 23.1236 21.6026 23.0346 21.7121 23.0346H43.9383C44.0478 23.0346 44.1367 23.1236 44.1367 23.233V24.4046Z" fill="#2855AF"/>
<path d="M43.9383 29.3748H21.7121C20.7142 29.3748 19.9023 30.1866 19.9023 31.1845V32.356C19.9023 33.3538 20.7142 34.1657 21.7121 34.1657H43.9383C44.9362 34.1657 45.7481 33.3538 45.7481 32.356V31.1845C45.7481 30.1866 44.9362 29.3748 43.9383 29.3748ZM44.1367 32.356C44.1367 32.4655 44.0478 32.5544 43.9383 32.5544H21.7121C21.6026 32.5544 21.5137 32.4655 21.5137 32.356V31.1845C21.5137 31.075 21.6026 30.9861 21.7121 30.9861H43.9383C44.0478 30.9861 44.1367 31.075 44.1367 31.1845V32.356Z" fill="#2855AF"/>
<path d="M45.7481 15.2813C45.7481 14.2834 44.9362 13.4716 43.9383 13.4716H34.7051C34.26 13.4716 33.8994 13.8322 33.8994 14.2772C33.8994 14.7223 34.26 15.0829 34.7051 15.0829H43.9383C44.0478 15.0829 44.1367 15.1718 44.1367 15.2813V16.4529C44.1367 16.5623 44.0478 16.6512 43.9383 16.6512H21.7121C21.6026 16.6512 21.5137 16.5623 21.5137 16.4529V15.2813C21.5137 15.1718 21.6026 15.0829 21.7121 15.0829H30.9453C31.3904 15.0829 31.751 14.7223 31.751 14.2772C31.751 13.8322 31.3904 13.4716 30.9453 13.4716H21.7121C20.7142 13.4716 19.9023 14.2834 19.9023 15.2813V16.4529C19.9023 17.4508 20.7142 18.2625 21.7121 18.2625H43.9383C44.9362 18.2625 45.7481 17.4508 45.7481 16.4529V15.2813Z" fill="#2855AF"/>
</svg>
