<svg width="50" height="50" viewBox="0 0 50 50" fill="none" xmlns="http://www.w3.org/2000/svg">
<path d="M25 0C11.1929 0 0 11.1929 0 25C0 38.8071 11.1929 50 25 50C38.8071 50 50 38.8071 50 25C49.9844 11.1994 38.8006 0.015625 25 0ZM25 48.3333C12.1133 48.3333 1.66667 37.8867 1.66667 25C1.66667 12.1133 12.1133 1.66667 25 1.66667C37.8867 1.66667 48.3333 12.1133 48.3333 25C48.3186 37.8805 37.8805 48.3186 25 48.3333Z" fill="#2855AF"/>
<path d="M25.0007 3.33337C13.0345 3.33337 3.33398 13.0339 3.33398 25C3.33398 36.9662 13.0345 46.6667 25.0007 46.6667C36.9668 46.6667 46.6673 36.9662 46.6673 25C46.654 13.0394 36.9613 3.34671 25.0007 3.33337ZM25.0007 45C13.9549 45 5.00065 36.0458 5.00065 25C5.00065 13.9543 13.9549 5.00004 25.0007 5.00004C36.0464 5.00004 45.0007 13.9543 45.0007 25C44.9878 36.0404 36.041 44.9872 25.0007 45Z" fill="#2855AF"/>
<path d="M9.16732 24.1666H5.83398V25.8333H9.16732V24.1666Z" fill="#2855AF"/>
<path d="M44.1673 24.1666H40.834V25.8333H44.1673V24.1666Z" fill="#2855AF"/>
<path d="M10.8694 32.1967L7.98242 33.863L8.81559 35.3065L11.7026 33.6402L10.8694 32.1967Z" fill="#2855AF"/>
<path d="M41.1819 14.695L38.2949 16.3613L39.1281 17.8048L42.0151 16.1385L41.1819 14.695Z" fill="#2855AF"/>
<path d="M8.81754 14.6947L7.98438 16.1382L10.8714 17.8045L11.7045 16.361L8.81754 14.6947Z" fill="#2855AF"/>
<path d="M39.13 32.1909L38.2969 33.6344L41.1839 35.3007L42.0171 33.8572L39.13 32.1909Z" fill="#2855AF"/>
<path d="M16.1349 7.98446L14.6914 8.81763L16.3577 11.7046L17.8012 10.8715L16.1349 7.98446Z" fill="#2855AF"/>
<path d="M25.8327 5.83337H24.166V9.16671H25.8327V5.83337Z" fill="#2855AF"/>
<path d="M33.8597 7.98324L32.1934 10.8702L33.6369 11.7034L35.3032 8.81641L33.8597 7.98324Z" fill="#2855AF"/>
<path d="M6.70086 19.2337L6.26953 20.8435L8.68428 21.4905L9.11562 19.8807L6.70086 19.2337Z" fill="#2855AF"/>
<path d="M41.3083 28.5072L40.877 30.1171L43.2917 30.7641L43.723 29.1542L41.3083 28.5072Z" fill="#2855AF"/>
<path d="M12.0359 10.8576L10.8574 12.0361L12.6252 13.8039L13.8037 12.6254L12.0359 10.8576Z" fill="#2855AF"/>
<path d="M20.8403 6.27155L19.2305 6.70288L19.8775 9.11763L21.4873 8.6863L20.8403 6.27155Z" fill="#2855AF"/>
<path d="M29.1548 6.27592L28.5078 8.69067L30.1177 9.12201L30.7647 6.70726L29.1548 6.27592Z" fill="#2855AF"/>
<path d="M37.9631 10.8601L36.1953 12.6278L37.3738 13.8063L39.1416 12.0386L37.9631 10.8601Z" fill="#2855AF"/>
<path d="M43.3034 19.2339L40.8887 19.8809L41.32 21.4907L43.7347 20.8437L43.3034 19.2339Z" fill="#2855AF"/>
<path d="M8.68623 28.5084L6.27148 29.1554L6.70282 30.7652L9.11757 30.1182L8.68623 28.5084Z" fill="#2855AF"/>
<path d="M28.5344 11.2882C20.9576 9.33668 13.2335 13.8967 11.2818 21.4734C10.3572 25.0629 10.8763 28.872 12.7279 32.0833C12.9699 32.4746 13.4836 32.5957 13.8749 32.3535C14.2497 32.1216 14.3792 31.6379 14.1704 31.2499C10.7226 25.2689 12.7764 17.6254 18.7574 14.1777C24.7385 10.73 32.3819 12.7838 35.8296 18.7648C37.4631 21.5985 37.9208 24.9594 37.1046 28.1266C36.9895 28.5725 37.2579 29.0273 37.7038 29.1424C38.1497 29.2575 38.6045 28.9892 38.7196 28.5433V28.5408C40.6712 20.9641 36.1111 13.2399 28.5344 11.2882Z" fill="#2855AF"/>
<path d="M37.1941 31.0217L28.0274 23.5217C28.0024 23.5064 27.9765 23.4924 27.9499 23.48C27.1133 21.8458 25.1104 21.1991 23.4762 22.0357C21.842 22.8722 21.1953 24.8751 22.0319 26.5093C22.5693 27.5591 23.6226 28.2456 24.7999 28.3134L36.3832 32.4509C36.4741 32.4838 36.57 32.5005 36.6666 32.5C37.1268 32.4999 37.4998 32.1268 37.4998 31.6665C37.4997 31.4166 37.3875 31.1799 37.1941 31.0217ZM24.9999 26.6667C24.0794 26.6667 23.3332 25.9206 23.3332 25C23.3332 24.0795 24.0794 23.3334 24.9999 23.3334C25.9204 23.3334 26.6666 24.0795 26.6666 25C26.6666 25.9206 25.9204 26.6667 24.9999 26.6667ZM27.2707 27.4267C27.7315 26.9951 28.0594 26.4409 28.2157 25.8292L32.4166 29.2617L27.2707 27.4267Z" fill="#7CCCDB"/>
<path d="M28.3333 33.3334H21.6667C19.3655 33.3334 17.5 35.1989 17.5 37.5C17.5 39.8012 19.3655 41.6667 21.6667 41.6667H28.3333C30.6345 41.6667 32.5 39.8012 32.5 37.5C32.5 35.1989 30.6345 33.3334 28.3333 33.3334ZM28.3333 40H21.6667C20.2859 40 19.1667 38.8808 19.1667 37.5C19.1667 36.1193 20.2859 35 21.6667 35H28.3333C29.7141 35 30.8333 36.1193 30.8333 37.5C30.8333 38.8808 29.7141 40 28.3333 40Z" fill="#7CCCDB"/>
<path d="M23.334 36.6666H21.6673C21.2071 36.6666 20.834 37.0398 20.834 37.5C20.834 37.9602 21.2071 38.3333 21.6673 38.3333H23.334C23.7942 38.3333 24.1673 37.9602 24.1673 37.5C24.1673 37.0398 23.7942 36.6666 23.334 36.6666Z" fill="#7CCCDB"/>
<path d="M28.334 36.6666H26.6673C26.2071 36.6666 25.834 37.0398 25.834 37.5C25.834 37.9602 26.2071 38.3333 26.6673 38.3333H28.334C28.7942 38.3333 29.1673 37.9602 29.1673 37.5C29.1673 37.0398 28.7942 36.6666 28.334 36.6666Z" fill="#7CCCDB"/>
</svg>
