<svg width="301" height="263" viewBox="0 0 301 263" fill="none" xmlns="http://www.w3.org/2000/svg">
<path d="M164.85 247.762L54.9152 256.873C51.749 257.134 48.6008 254.5 47.8972 250.982L1.1343 20.9563C0.421668 17.4473 -1.02163 10.8442 11.7516 10.2308L122.94 1.63413C126.097 1.37253 129.254 4.00655 129.958 7.51557L177.424 237.938C178.137 241.032 174.655 247.518 164.85 247.762Z" fill="#2855AF"/>
<path d="M54.4825 257.342C51.2711 257.342 48.168 254.635 47.4554 251.072L0.692519 21.0465C0.25953 18.9447 -0.362891 15.8777 1.54046 13.4331C3.2634 11.223 6.592 10.0233 11.7247 9.82485L122.904 1.2282C126.278 0.948563 129.642 3.75397 130.4 7.47047L177.867 237.848C178.227 239.445 177.578 241.556 176.18 243.342C174.781 245.128 171.534 248.041 164.877 248.213L54.9515 257.315C54.7959 257.333 54.6392 257.342 54.4825 257.342V257.342ZM123.373 2.0581H122.976L11.7879 10.6547C6.98891 10.8803 3.78659 11.9988 2.25308 13.9563C0.61133 16.0852 1.16159 18.7823 1.5585 20.7578L48.3394 250.91C49.007 254.202 51.9477 256.665 54.8794 256.44L164.814 247.32C171.128 247.166 174.168 244.424 175.44 242.809C176.006 242.164 176.433 241.408 176.693 240.59C176.954 239.773 177.043 238.91 176.955 238.056L129.516 7.5697C128.876 4.4215 126.178 2.02201 123.373 2.02201V2.0581Z" fill="#2855AF"/>
<path d="M173.266 243.558L63.3321 252.66C60.1749 252.921 57.0177 250.287 56.3141 246.778L9.55117 16.6986C8.83854 13.1895 10.8231 10.1315 13.9893 9.86995L123.924 0.768142C127.09 0.497524 130.238 3.13155 130.942 6.64959L177.705 236.72C178.417 240.239 176.433 243.296 173.266 243.558Z" fill="white"/>
<path d="M62.9057 253.093C59.6854 253.093 56.5913 250.387 55.8697 246.833L9.10678 16.7528C8.90048 15.8491 8.88704 14.912 9.06734 14.0027C9.24764 13.0934 9.61763 12.2324 10.1532 11.4758C10.599 10.8749 11.1689 10.377 11.8241 10.0159C12.4794 9.65475 13.2047 9.4389 13.9508 9.38297L123.885 0.281166C127.259 -0.00749362 130.624 2.79792 131.381 6.52344L178.135 236.63C178.344 237.535 178.359 238.474 178.178 239.386C177.998 240.297 177.627 241.159 177.089 241.916C176.643 242.517 176.073 243.014 175.418 243.374C174.762 243.733 174.037 243.947 173.291 244L63.3748 253.093H62.9057ZM124.354 1.15617H123.957L14.023 10.267C13.4046 10.3123 12.8032 10.4905 12.2599 10.7894C11.7166 11.0883 11.2442 11.5009 10.8748 11.999C10.4194 12.6469 10.104 13.3825 9.94873 14.1591C9.79342 14.9356 9.80161 15.736 9.97276 16.5093L56.7537 246.688C57.4212 249.972 60.3619 252.453 63.2936 252.209L173.228 243.107C173.846 243.06 174.447 242.881 174.99 242.582C175.533 242.284 176.006 241.872 176.376 241.375C176.84 240.721 177.16 239.976 177.316 239.19C177.471 238.403 177.458 237.592 177.278 236.811L130.515 6.78503C129.857 3.60075 127.16 1.19225 124.354 1.19225V1.15617Z" fill="#2855AF"/>
<path d="M80.2912 19.1256L65.1817 20.3614C64.7283 20.3615 64.2895 20.2013 63.9428 19.9091C63.5962 19.617 63.364 19.2116 63.2874 18.7647V18.7647C63.2297 18.5657 63.2157 18.3565 63.2461 18.1515C63.2766 17.9465 63.3508 17.7505 63.4638 17.5767C63.5768 17.403 63.7258 17.2556 63.9009 17.1446C64.0759 17.0336 64.2727 16.9617 64.4781 16.9336L79.5876 15.6797C80.0416 15.681 80.4807 15.8415 80.8285 16.1333C81.1763 16.425 81.4107 16.8295 81.491 17.2763V17.2763C81.5501 17.4772 81.565 17.6884 81.5348 17.8956C81.5046 18.1028 81.43 18.301 81.3161 18.4766C81.2021 18.6523 81.0515 18.8012 80.8746 18.9132C80.6977 19.0252 80.4987 19.0977 80.2912 19.1256Z" fill="#2855AF"/>
<path d="M166.914 222.017L60.8678 230.794L18.9219 24.4111L44.0533 22.3274L47.409 24.6998C48.5143 25.4898 49.8605 25.8694 51.2157 25.7732L95.5611 22.165C96.212 22.1171 96.8453 21.9315 97.4191 21.6205C97.993 21.3094 98.4942 20.8801 98.8897 20.3609L100.937 17.6547L124.968 15.6611L166.914 222.017Z" fill="#7CCCDB"/>
<path d="M60.8683 231.245C60.7638 231.246 60.6622 231.211 60.5812 231.145C60.5003 231.079 60.4454 230.986 60.4263 230.884L18.4714 24.5011C18.4574 24.4387 18.4575 24.3739 18.4715 24.3116C18.4855 24.2492 18.5132 24.1907 18.5526 24.1402C18.588 24.0882 18.6349 24.0449 18.6896 24.0136C18.7443 23.9824 18.8054 23.964 18.8683 23.9598L44.0087 21.8761C44.1145 21.8665 44.2202 21.8953 44.3064 21.9573L47.6621 24.3297C48.6759 25.0724 49.9165 25.4391 51.1711 25.367L95.5165 21.6866C96.1054 21.6436 96.6783 21.4747 97.1964 21.1915C97.7146 20.9083 98.1661 20.5173 98.5203 20.0449L100.568 17.3387C100.608 17.2897 100.657 17.2494 100.713 17.2199C100.769 17.1905 100.83 17.1726 100.893 17.1673L124.915 15.1737C125.024 15.1669 125.133 15.1995 125.22 15.2657C125.308 15.3319 125.369 15.4273 125.393 15.5346L167.339 221.926C167.353 221.989 167.353 222.053 167.339 222.116C167.324 222.178 167.297 222.237 167.257 222.287C167.218 222.337 167.169 222.378 167.113 222.407C167.057 222.437 166.996 222.454 166.933 222.459L60.8683 231.245ZM19.4636 24.8168L61.2291 230.316L166.41 221.602L124.644 16.1119L101.19 18.0513L99.2691 20.5951C98.8371 21.1683 98.2877 21.6426 97.6577 21.9864C97.0276 22.3302 96.3315 22.5355 95.6157 22.5887L51.2703 26.2601C49.8038 26.3543 48.3509 25.9296 47.166 25.0604L43.9456 22.7872L19.4636 24.8168Z" fill="#2855AF"/>
<path d="M118.603 232.48C118.48 231.786 118.115 231.157 117.574 230.705C117.033 230.253 116.349 230.006 115.644 230.009C115.321 230.051 115.011 230.164 114.735 230.338C114.459 230.512 114.224 230.744 114.047 231.017C113.869 231.291 113.753 231.599 113.707 231.922C113.66 232.245 113.684 232.574 113.777 232.886C113.898 233.582 114.262 234.211 114.804 234.664C115.345 235.116 116.03 235.362 116.736 235.358C117.059 235.315 117.369 235.203 117.645 235.029C117.921 234.855 118.155 234.623 118.333 234.35C118.51 234.076 118.626 233.767 118.673 233.445C118.72 233.122 118.696 232.793 118.603 232.48V232.48Z" fill="#2855AF"/>
<path d="M49.9737 68.6665L38.6438 69.5686C37.7329 69.5735 36.8498 69.2553 36.1512 68.6707C35.4526 68.0861 34.9838 67.2728 34.8281 66.3753L32.2663 53.7464C31.8784 51.8431 32.9609 50.1382 34.6838 50.039L46.0137 49.0918C46.925 49.0909 47.8073 49.4116 48.5053 49.9974C49.2033 50.5832 49.6722 51.3965 49.8294 52.2941L52.3913 64.8688C52.7521 66.8624 51.6967 68.5222 49.9737 68.6665Z" fill="white"/>
<path d="M38.4083 70.0648C37.4363 70.0046 36.5124 69.6212 35.7835 68.9755C35.0545 68.3299 34.5623 67.4591 34.3851 66.5016L31.8232 53.8727C31.7064 53.3533 31.6999 52.8152 31.804 52.2932C31.9081 51.7711 32.1205 51.2767 32.4276 50.8418C32.6891 50.4922 33.0224 50.2026 33.4052 49.9925C33.788 49.7825 34.2113 49.6568 34.6467 49.624L45.9766 48.722C46.9971 48.7104 47.9887 49.0612 48.775 49.7119C49.5612 50.3627 50.0911 51.2713 50.2704 52.2761L52.8322 64.8508C52.9502 65.3721 52.9565 65.9125 52.8508 66.4364C52.7451 66.9604 52.5297 67.456 52.2188 67.8908C51.96 68.241 51.6284 68.5312 51.247 68.7414C50.8655 68.9516 50.4432 69.0768 50.0088 69.1086L38.6789 70.0106L38.4083 70.0648ZM46.2472 49.615H46.0487L34.7188 50.5171C34.4076 50.5452 34.1062 50.6404 33.8352 50.7962C33.5643 50.9519 33.3303 51.1644 33.1492 51.4191C32.9189 51.7538 32.7607 52.1327 32.6847 52.5318C32.6086 52.9309 32.6162 53.3415 32.7072 53.7374L35.2691 66.3663C35.4046 67.155 35.8132 67.871 36.4234 68.3888C37.0335 68.9067 37.8064 69.1934 38.6067 69.1988L49.9366 68.2967C50.2475 68.2721 50.549 68.1784 50.819 68.0223C51.089 67.8662 51.3207 67.6518 51.4972 67.3946C51.731 67.0616 51.8921 66.683 51.9698 66.2836C52.0475 65.8841 52.0401 65.4728 51.9482 65.0763L49.3864 52.5016C49.263 51.7379 48.8864 51.0379 48.3169 50.5143C47.7475 49.9907 47.0185 49.674 46.2472 49.615Z" fill="white"/>
<path d="M75.3019 66.5737L63.972 67.4757C63.0597 67.4803 62.1755 67.1609 61.4768 66.5744C60.778 65.988 60.3101 65.1726 60.1563 64.2734L57.5944 51.6987C57.2065 49.7863 58.289 48.0904 60.0119 47.9822L71.3418 47.0801C72.254 47.0756 73.1383 47.395 73.837 47.9814C74.5358 48.5679 75.0037 49.3833 75.1575 50.2824L77.7194 62.8572C78.0892 64.7696 77.0068 66.4294 75.3019 66.5737Z" fill="white"/>
<path d="M63.7203 67.9718C62.742 67.9094 61.8132 67.5195 61.0834 66.865C60.3536 66.2104 59.8653 65.3293 59.6971 64.3636L57.1353 51.7888C57.0189 51.268 57.0125 50.7285 57.1166 50.2051C57.2206 49.6816 57.4329 49.1856 57.7397 48.7489C58.0028 48.4009 58.3365 48.1125 58.719 47.9027C59.1014 47.6928 59.5239 47.5662 59.9587 47.5311L71.2886 46.629C72.3096 46.6214 73.3003 46.9748 74.086 47.6268C74.8717 48.2787 75.4017 49.1874 75.5824 50.1922L78.1443 62.7579C78.2607 63.2788 78.2671 63.8182 78.163 64.3417C78.0589 64.8651 77.8467 65.3611 77.5399 65.7978C77.2784 66.1475 76.9451 66.4371 76.5623 66.6471C76.1795 66.8572 75.7562 66.9828 75.3209 67.0156L63.991 67.9177L63.7203 67.9718ZM71.5683 47.5221H71.3608L60.0309 48.4241C59.7201 48.454 59.4193 48.55 59.1486 48.7056C58.8779 48.8611 58.6436 49.0727 58.4613 49.3262C58.2315 49.6611 58.0736 50.0401 57.9975 50.4391C57.9215 50.8381 57.9289 51.2485 58.0193 51.6445L60.5811 64.2192C60.7164 65.0089 61.1247 65.7259 61.7347 66.2453C62.3447 66.7646 63.1177 67.0532 63.9188 67.0607L75.2487 66.1587C75.5558 66.1342 75.8544 66.0452 76.1248 65.8975C76.3953 65.7499 76.6316 65.5468 76.8183 65.3017C77.0481 64.9668 77.206 64.5878 77.282 64.1888C77.3581 63.7898 77.3507 63.3794 77.2603 62.9834L74.6984 50.4087C74.5755 49.6464 74.2001 48.9475 73.6325 48.4241C73.0649 47.9006 72.338 47.583 71.5683 47.5221V47.5221Z" fill="white"/>
<path d="M100.56 64.4809L89.2298 65.383C88.318 65.3857 87.4348 65.0656 86.7364 64.4795C86.038 63.8934 85.5696 63.079 85.4141 62.1807L82.8522 49.6059C82.4643 47.6935 83.5468 45.9977 85.2697 45.8894L96.5996 44.9874C97.5105 44.9825 98.3937 45.3006 99.0923 45.8852C99.7909 46.4698 100.26 47.2831 100.415 48.1807L102.977 60.7644C103.401 62.6678 102.364 64.3366 100.56 64.4809Z" fill="white"/>
<path d="M89.0296 65.8792C88.0518 65.8152 87.1237 65.4248 86.3942 64.7705C85.6648 64.1163 85.176 63.236 85.0064 62.2709L82.4445 49.6962C82.3275 49.1754 82.3209 48.6358 82.425 48.1122C82.5291 47.5887 82.7416 47.0927 83.0489 46.6562C83.3104 46.3066 83.6438 46.017 84.0265 45.807C84.4093 45.5969 84.8326 45.4713 85.268 45.4385L96.5979 44.5364C97.6197 44.5252 98.6124 44.8772 99.3988 45.5298C100.185 46.1824 100.714 47.0931 100.892 48.0995L103.454 60.6743C103.57 61.1937 103.577 61.7318 103.473 62.2538C103.369 62.7759 103.156 63.2704 102.849 63.7052C102.588 64.0549 102.254 64.3444 101.872 64.5545C101.489 64.7645 101.065 64.8902 100.63 64.923V64.923L89.3002 65.8251L89.0296 65.8792ZM96.8775 45.4294H96.67L85.3401 46.3315C85.032 46.3519 84.732 46.4392 84.461 46.5872C84.19 46.7352 83.9544 46.9403 83.7706 47.1885C83.5408 47.5234 83.3828 47.9023 83.3068 48.3013C83.2307 48.7003 83.2381 49.1108 83.3285 49.5068L85.8904 62.0815C86.0256 62.8711 86.4339 63.5882 87.0439 64.1075C87.6539 64.6269 88.4269 64.9155 89.228 64.923L100.558 64.0209C100.869 63.9928 101.171 63.8976 101.442 63.7418C101.712 63.5861 101.946 63.3736 102.128 63.1189C102.358 62.7858 102.516 62.4084 102.592 62.0108C102.668 61.6132 102.66 61.2041 102.57 60.8096L100.008 48.2258C99.8667 47.4801 99.4835 46.8017 98.9175 46.296C98.3515 45.7904 97.6344 45.4858 96.8775 45.4294V45.4294Z" fill="white"/>
<path d="M125.907 62.3793L114.577 63.2814C113.665 63.2859 112.781 62.9665 112.082 62.3801C111.383 61.7936 110.916 60.9782 110.762 60.0791L108.2 47.5043C107.812 45.601 108.894 43.8961 110.617 43.7878L121.947 42.8858C122.859 42.8831 123.742 43.2031 124.441 43.7892C125.139 44.3753 125.608 45.1897 125.763 46.0881L128.325 58.6628C128.713 60.5752 127.621 62.235 125.907 62.3793Z" fill="white"/>
<path d="M114.343 63.7774C113.365 63.715 112.436 63.3251 111.706 62.6706C110.977 62.0161 110.488 61.135 110.32 60.1692L107.776 47.6305C107.66 47.1112 107.653 46.573 107.757 46.051C107.861 45.5289 108.074 45.0345 108.381 44.5996C108.642 44.25 108.976 43.9604 109.358 43.7503C109.741 43.5403 110.164 43.4146 110.6 43.3818L121.93 42.4798C122.95 42.4682 123.942 42.819 124.728 43.4697C125.514 44.1205 126.044 45.0291 126.223 46.0339L128.785 58.6086C128.902 59.1295 128.909 59.669 128.805 60.1926C128.701 60.7161 128.488 61.2121 128.181 61.6486C127.919 61.9982 127.586 62.2878 127.203 62.4979C126.821 62.7079 126.397 62.8336 125.962 62.8664V62.8664L114.632 63.7684L114.343 63.7774ZM122.191 43.3277H121.984L110.654 44.2298C110.343 44.2579 110.041 44.3531 109.77 44.5089C109.499 44.6646 109.265 44.8771 109.084 45.1318C108.863 45.4654 108.713 45.8409 108.643 46.2352C108.573 46.6294 108.585 47.0338 108.678 47.4231L111.204 60.0519C111.338 60.8423 111.746 61.5604 112.356 62.08C112.966 62.5997 113.74 62.8877 114.542 62.8934L125.872 61.9914C126.184 61.9656 126.486 61.8714 126.757 61.7155C127.028 61.5596 127.262 61.3458 127.441 61.0893C127.671 60.7543 127.829 60.3754 127.905 59.9764C127.981 59.5774 127.974 59.167 127.883 58.771L125.321 46.1963C125.196 45.4401 124.821 44.7474 124.258 44.2279C123.694 43.7083 122.973 43.3916 122.209 43.3277H122.191Z" fill="white"/>
<path d="M55.8527 97.5951L44.5228 98.4972C43.61 98.5002 42.7255 98.1805 42.0256 97.5945C41.3257 97.0085 40.8555 96.194 40.698 95.2949L38.1452 82.7201C37.7573 80.8078 38.8398 79.1119 40.5537 79.0036L51.8926 78.1016C52.8044 78.0989 53.6876 78.4189 54.386 79.005C55.0844 79.5911 55.5528 80.4055 55.7083 81.3039L58.2612 93.8786C58.6491 95.782 57.5756 97.4508 55.8527 97.5951Z" fill="white"/>
<path d="M44.29 98.9934C43.3111 98.9298 42.3819 98.5397 41.6509 97.8855C40.9199 97.2314 40.4293 96.351 40.2578 95.3851L37.705 82.8104C37.5857 82.2897 37.5779 81.7497 37.6821 81.2258C37.7863 80.7019 38 80.2059 38.3094 79.7704C38.5682 79.4202 38.8998 79.13 39.2812 78.9198C39.6627 78.7096 40.0851 78.5844 40.5194 78.5526L51.8493 77.6506C52.8788 77.6408 53.878 77.9989 54.6668 78.6604C55.4557 79.322 55.9824 80.2434 56.1522 81.2588L58.705 93.8336C58.8235 94.3528 58.8309 94.8913 58.7268 95.4136C58.6226 95.936 58.4092 96.4304 58.1006 96.8645C57.8418 97.2148 57.5102 97.5049 57.1288 97.7151C56.7473 97.9253 56.3249 98.0506 55.8906 98.0823V98.0823L44.5607 98.9843L44.29 98.9934ZM52.129 78.5436H51.9305L40.6006 79.4457C40.2925 79.4661 39.9925 79.5534 39.7215 79.7014C39.4504 79.8493 39.2148 80.0545 39.031 80.3026C38.7971 80.6356 38.6368 81.0145 38.5606 81.4142C38.4843 81.8139 38.4941 82.2253 38.589 82.621L41.1419 95.2318C41.2771 96.0214 41.6854 96.7385 42.2954 97.2578C42.9054 97.7771 43.6784 98.0657 44.4795 98.0733L55.8184 97.1712C56.1284 97.1429 56.4285 97.0476 56.6979 96.8919C56.9674 96.7361 57.1998 96.5236 57.379 96.2691C57.6126 95.9378 57.7729 95.5604 57.8492 95.1622C57.9254 94.764 57.9158 94.3541 57.821 93.9599L55.2681 81.3851C55.1357 80.6297 54.7551 79.94 54.1865 79.4253C53.6179 78.9107 52.8938 78.6004 52.129 78.5436V78.5436Z" fill="white"/>
<path d="M81.1652 95.4936L69.8353 96.3956C68.922 96.4005 68.0366 96.0814 67.3363 95.4951C66.636 94.9088 66.1663 94.0932 66.0105 93.1933L63.4577 80.6186C63.0698 78.7152 64.1523 77.0103 65.8662 76.9021L77.2051 76C78.1169 75.9973 79.0001 76.3174 79.6985 76.9035C80.3969 77.4896 80.8653 78.304 81.0208 79.2023L83.5737 91.7771C83.9616 93.6895 82.8881 95.3492 81.1652 95.4936Z" fill="white"/>
<path d="M69.6017 96.8916C68.6222 96.8295 67.6921 96.44 66.9608 95.7856C66.2295 95.1312 65.7395 94.2499 65.5694 93.2833L63.0166 80.7086C62.8981 80.1893 62.8907 79.6509 62.9949 79.1285C63.099 78.6062 63.3124 78.1118 63.621 77.6777C63.8799 77.3274 64.2114 77.0373 64.5928 76.8271C64.9743 76.6169 65.3967 76.4916 65.831 76.4599L77.1609 75.5578C78.1821 75.5477 79.174 75.8988 79.9613 76.5492C80.7487 77.1995 81.2809 78.1073 81.4638 79.112L84.0166 91.6867C84.1359 92.2074 84.1437 92.7474 84.0395 93.2713C83.9353 93.7952 83.7216 94.2912 83.4122 94.7266C83.1534 95.0769 82.8219 95.3671 82.4404 95.5773C82.0589 95.7874 81.6365 95.9127 81.2022 95.9444L69.8723 96.8465L69.6017 96.8916ZM77.4406 76.4418H77.2421L65.9122 77.3439C65.601 77.3721 65.2996 77.4673 65.0286 77.623C64.7577 77.7787 64.5237 77.9912 64.3426 78.246C64.1105 78.5781 63.9512 78.9555 63.875 79.3534C63.7988 79.7514 63.8076 80.1609 63.9006 80.5552L66.4535 93.139C66.5892 93.9293 66.9991 94.6464 67.6112 95.1644C68.2232 95.6825 68.9983 95.9682 69.8001 95.9715L81.13 95.0694C81.4369 95.0489 81.7355 94.9615 82.0051 94.8135C82.2746 94.6655 82.5086 94.4604 82.6906 94.2125C82.9245 93.8795 83.0848 93.5006 83.161 93.1009C83.2372 92.7012 83.2275 92.2898 83.1326 91.8942L80.5798 79.3194C80.4546 78.5574 80.0771 77.8595 79.5079 77.3377C78.9386 76.8159 78.2106 76.5004 77.4406 76.4418V76.4418Z" fill="white"/>
<path d="M131.789 91.299L120.459 92.2462C119.547 92.2475 118.663 91.9271 117.964 91.3414C117.264 90.7557 116.793 89.9422 116.634 89.0439L114.09 76.4692C113.703 74.5568 114.785 72.8609 116.508 72.7527L127.838 71.8506C128.748 71.8475 129.631 72.1663 130.329 72.7506C131.027 73.3349 131.496 74.1472 131.654 75.0439L134.206 87.6186C134.585 89.4949 133.512 91.1637 131.789 91.299Z" fill="white"/>
<path d="M120.224 92.7063C119.245 92.6427 118.315 92.2526 117.584 91.5985C116.853 90.9443 116.363 90.0639 116.191 89.0981L113.639 76.5594C113.519 76.0387 113.512 75.4987 113.616 74.9748C113.72 74.4509 113.934 73.9549 114.243 73.5195C114.502 73.1692 114.833 72.879 115.215 72.6689C115.596 72.4587 116.019 72.3334 116.453 72.3017L127.792 71.3996C128.812 71.3898 129.803 71.7413 130.589 72.3917C131.374 73.0422 131.905 73.9498 132.086 74.9537L134.639 87.5826C134.757 88.1019 134.765 88.6403 134.66 89.1627C134.556 89.685 134.343 90.1794 134.034 90.6135C133.775 90.9638 133.444 91.254 133.062 91.4642C132.681 91.6743 132.259 91.7996 131.824 91.8313V91.8313L120.494 92.7334L120.224 92.7063ZM128.063 72.2566H127.864L116.534 73.1586C116.226 73.1791 115.926 73.2663 115.655 73.4143C115.384 73.5623 115.148 73.7675 114.965 74.0156C114.732 74.3493 114.573 74.7282 114.497 75.1277C114.421 75.5271 114.429 75.9381 114.523 76.3339L117.075 88.9177C117.208 89.7104 117.616 90.4306 118.229 90.9508C118.841 91.4709 119.618 91.7573 120.422 91.7592L131.752 90.8571C132.062 90.8288 132.362 90.7335 132.632 90.5778C132.901 90.422 133.133 90.2095 133.313 89.955C133.547 89.6223 133.708 89.2434 133.784 88.8436C133.86 88.4438 133.85 88.0324 133.755 87.6367L131.229 75.0981C131.097 74.3377 130.713 73.644 130.138 73.1285C129.564 72.6131 128.833 72.3059 128.063 72.2566V72.2566Z" fill="white"/>
<path d="M61.7699 126.516L50.44 127.418C49.5282 127.421 48.645 127.101 47.9466 126.515C47.2482 125.929 46.7798 125.114 46.6243 124.216L44.0714 111.641C43.6835 109.729 44.757 108.033 46.4799 107.925L57.8098 107.023C58.7231 107.018 59.6085 107.337 60.3088 107.923C61.0091 108.509 61.4788 109.325 61.6346 110.225L64.1874 122.8C64.5302 124.712 63.4477 126.372 61.7699 126.516Z" fill="white"/>
<path d="M50.1613 127.914C49.1835 127.85 48.2555 127.46 47.526 126.806C46.7965 126.151 46.3077 125.271 46.1381 124.306L43.5853 111.731C43.4648 111.211 43.4565 110.67 43.5607 110.146C43.6649 109.622 43.8793 109.126 44.1896 108.691C44.4514 108.344 44.7836 108.056 45.1645 107.846C45.5454 107.636 45.9663 107.509 46.3997 107.473L57.7296 106.571C58.7586 106.563 59.7568 106.922 60.5453 107.583C61.3337 108.245 61.8609 109.165 62.0324 110.18L64.5853 122.754C64.7039 123.275 64.7115 123.815 64.6073 124.339C64.5032 124.863 64.2897 125.359 63.9809 125.794C63.7212 126.144 63.3895 126.433 63.0082 126.643C62.6269 126.853 62.2049 126.979 61.7708 127.012V127.012L50.4319 127.914H50.1613ZM58.0092 107.464H57.8018L46.4719 108.367C46.1619 108.395 45.8618 108.49 45.5923 108.646C45.3229 108.802 45.0905 109.014 44.9113 109.269C44.6776 109.6 44.5173 109.977 44.4411 110.376C44.3649 110.774 44.3745 111.184 44.4693 111.578L47.0221 124.153C47.1557 124.943 47.5635 125.661 48.1738 126.181C48.7842 126.7 49.5582 126.988 50.3598 126.994L61.6896 126.092C62.0004 126.062 62.3012 125.966 62.5719 125.811C62.8426 125.655 63.0769 125.443 63.2592 125.19C63.491 124.856 63.6502 124.477 63.7263 124.078C63.8024 123.678 63.7939 123.268 63.7012 122.872L61.1484 110.297C61.0113 109.544 60.629 108.859 60.0611 108.346C59.4933 107.834 58.7718 107.524 58.0092 107.464V107.464Z" fill="white"/>
<path d="M87.0277 124.423L75.6978 125.325C74.786 125.328 73.9028 125.008 73.2044 124.422C72.506 123.836 72.0376 123.021 71.8821 122.123L69.3292 109.548C68.9413 107.636 70.0148 105.94 71.7377 105.832L83.0676 104.93C83.9809 104.925 84.8663 105.244 85.5666 105.83C86.2669 106.417 86.7366 107.232 86.8924 108.132L89.4452 120.707C89.8421 122.61 88.7596 124.279 87.0277 124.423Z" fill="white"/>
<path d="M75.4815 125.821C74.5026 125.757 73.5733 125.367 72.8423 124.713C72.1113 124.059 71.6208 123.178 71.4492 122.213L68.8964 109.665C68.7771 109.144 68.7694 108.604 68.8735 108.08C68.9777 107.556 69.1914 107.06 69.5008 106.625C69.7597 106.275 70.0912 105.985 70.4726 105.774C70.8541 105.564 71.2765 105.439 71.7108 105.407L83.0408 104.505C84.0632 104.495 85.0561 104.848 85.8437 105.5C86.6312 106.152 87.1626 107.062 87.3436 108.068L89.8964 120.643C90.0149 121.162 90.0224 121.701 89.9182 122.223C89.814 122.745 89.6007 123.24 89.292 123.674C89.0323 124.023 88.7006 124.313 88.3193 124.523C87.9381 124.733 87.5161 124.859 87.082 124.892L75.7431 125.794L75.4815 125.821ZM83.3204 105.371H83.1129L71.783 106.273C71.4724 106.299 71.1714 106.393 70.9016 106.549C70.6318 106.705 70.3998 106.919 70.2224 107.175C69.9885 107.508 69.8282 107.887 69.752 108.287C69.6758 108.686 69.6855 109.098 69.7804 109.493L72.3333 122.068C72.4652 122.859 72.8725 123.578 73.4832 124.098C74.0939 124.618 74.8688 124.906 75.6709 124.91L87.0008 124.008C87.312 123.979 87.6135 123.884 87.8844 123.729C88.1554 123.573 88.3894 123.36 88.5704 123.106C88.8025 122.773 88.9618 122.396 89.038 121.998C89.1142 121.6 89.1055 121.191 89.0124 120.796L86.4596 108.222C86.326 107.466 85.9453 106.776 85.3771 106.26C84.8089 105.744 84.0855 105.431 83.3204 105.371V105.371Z" fill="white"/>
<path d="M112.348 122.294L101.018 123.196C100.106 123.199 99.2231 122.879 98.5247 122.293C97.8263 121.707 97.3579 120.892 97.2024 119.994L94.6495 107.419C94.2617 105.516 95.3351 103.811 97.058 103.703L108.388 102.801C109.301 102.798 110.185 103.117 110.885 103.703C111.585 104.289 112.055 105.104 112.213 106.003L114.766 118.578C115.153 120.49 114.089 122.177 112.348 122.294Z" fill="white"/>
<path d="M100.796 123.72C99.8166 123.658 98.8865 123.268 98.1552 122.614C97.4239 121.959 96.9339 121.078 96.7638 120.112L94.2471 107.573C94.1286 107.054 94.1212 106.515 94.2253 105.993C94.3295 105.47 94.5428 104.976 94.8515 104.542C95.1103 104.192 95.4418 103.902 95.8233 103.691C96.2048 103.481 96.6271 103.356 97.0615 103.324L108.391 102.422C109.413 102.412 110.404 102.763 111.192 103.413C111.979 104.064 112.511 104.972 112.694 105.976L115.247 118.551C115.366 119.072 115.374 119.612 115.27 120.136C115.166 120.659 114.952 121.155 114.643 121.591C114.384 121.941 114.052 122.231 113.671 122.442C113.289 122.652 112.867 122.777 112.433 122.809L101.103 123.711L100.796 123.72ZM108.68 103.27H108.473L97.1427 104.172C96.8327 104.2 96.5326 104.296 96.2632 104.451C95.9937 104.607 95.7613 104.82 95.5821 105.074C95.3485 105.405 95.1882 105.783 95.1119 106.181C95.0357 106.579 95.0453 106.989 95.1401 107.383L97.693 119.958C97.8232 120.75 98.23 121.47 98.8411 121.99C99.4522 122.511 100.228 122.797 101.031 122.8L112.36 121.898C112.669 121.877 112.969 121.79 113.24 121.642C113.511 121.494 113.746 121.289 113.93 121.041C114.162 120.707 114.321 120.328 114.397 119.928C114.473 119.529 114.465 119.118 114.372 118.722L111.819 106.148C111.691 105.387 111.313 104.691 110.744 104.169C110.175 103.648 109.449 103.332 108.68 103.27V103.27Z" fill="white"/>
<path d="M137.669 120.228L126.331 121.13C125.419 121.133 124.536 120.813 123.837 120.227C123.139 119.64 122.67 118.826 122.515 117.928L119.962 105.353C119.574 103.441 120.648 101.745 122.371 101.636L133.7 100.734C134.614 100.73 135.499 101.049 136.199 101.635C136.9 102.221 137.369 103.037 137.525 103.937L140.078 116.511C140.466 118.424 139.347 120.084 137.669 120.228Z" fill="white"/>
<path d="M126.108 121.626C125.129 121.563 124.2 121.172 123.469 120.518C122.738 119.864 122.248 118.984 122.076 118.018L119.505 105.479C119.386 104.959 119.379 104.419 119.483 103.895C119.587 103.371 119.801 102.875 120.109 102.439C120.368 102.089 120.7 101.799 121.081 101.589C121.463 101.379 121.885 101.253 122.32 101.222L133.649 100.319C134.678 100.312 135.677 100.67 136.465 101.331C137.254 101.993 137.781 102.913 137.952 103.928L140.505 116.502C140.624 117.022 140.632 117.56 140.528 118.083C140.424 118.605 140.21 119.1 139.901 119.533C139.641 119.883 139.309 120.174 138.928 120.385C138.547 120.597 138.125 120.724 137.691 120.76L126.361 121.662L126.108 121.626ZM133.938 101.176H133.731L122.401 102.078C122.091 102.108 121.792 102.205 121.523 102.36C121.253 102.516 121.021 102.727 120.84 102.981C120.606 103.314 120.446 103.692 120.37 104.092C120.293 104.492 120.303 104.903 120.398 105.299L122.951 117.874C123.081 118.666 123.488 119.386 124.099 119.906C124.71 120.426 125.486 120.713 126.289 120.715L137.619 119.813C137.93 119.785 138.231 119.69 138.502 119.534C138.773 119.378 139.007 119.166 139.188 118.911C139.422 118.58 139.582 118.202 139.658 117.804C139.734 117.406 139.725 116.996 139.63 116.602L137.077 104.027C136.944 103.271 136.563 102.581 135.995 102.065C135.427 101.549 134.703 101.237 133.938 101.176V101.176Z" fill="white"/>
<path d="M67.6066 155.436L56.2767 156.338C55.3657 156.343 54.4826 156.025 53.784 155.44C53.0854 154.855 52.6166 154.042 52.4609 153.145L49.8991 140.561C49.5112 138.658 50.5937 136.953 52.3166 136.853L63.6465 135.906C64.5578 135.905 65.4401 136.226 66.1381 136.812C66.8361 137.398 67.305 138.211 67.4622 139.109L70.0241 151.683C70.412 153.632 69.3295 155.292 67.6066 155.436Z" fill="white"/>
<path d="M56.0439 156.834C55.0656 156.772 54.1368 156.382 53.407 155.727C52.6772 155.073 52.1889 154.191 52.0207 153.226L49.4589 140.651C49.3408 140.134 49.332 139.598 49.433 139.078C49.5339 138.558 49.7425 138.064 50.0452 137.629C50.3067 137.279 50.6401 136.99 51.0228 136.78C51.4056 136.57 51.8289 136.444 52.2643 136.411L63.5942 135.509C64.6152 135.496 65.6078 135.846 66.3944 136.497C67.181 137.148 67.7104 138.058 67.888 139.063L70.4499 151.638C70.5668 152.159 70.5735 152.698 70.4694 153.222C70.3653 153.746 70.1528 154.242 69.8455 154.678C69.584 155.028 69.2506 155.317 68.8679 155.527C68.4851 155.737 68.0618 155.863 67.6264 155.896L56.2965 156.798L56.0439 156.834ZM63.8919 136.384H63.6844L52.3545 137.286C52.0433 137.314 51.7418 137.41 51.4709 137.565C51.2 137.721 50.9659 137.934 50.7849 138.188C50.5546 138.523 50.3964 138.902 50.3203 139.301C50.2442 139.7 50.2519 140.111 50.3429 140.507L52.9048 153.081C53.04 153.871 53.4483 154.588 54.0583 155.107C54.6683 155.627 55.4413 155.915 56.2424 155.923L67.5723 155.021C67.8835 154.993 68.185 154.897 68.4559 154.742C68.7268 154.586 68.9609 154.373 69.1419 154.119C69.3722 153.784 69.5304 153.405 69.6065 153.006C69.6826 152.607 69.6749 152.196 69.5839 151.8L67.022 139.226C66.89 138.472 66.5107 137.783 65.9439 137.268C65.3771 136.754 64.6551 136.443 63.8919 136.384V136.384Z" fill="white"/>
<path d="M92.9191 153.343L81.5892 154.245C80.6769 154.249 79.7927 153.93 79.094 153.343C78.3952 152.757 77.9273 151.941 77.7734 151.042L75.2116 138.531C74.8237 136.618 75.9062 134.922 77.6291 134.814L88.959 133.912C89.8712 133.908 90.7554 134.227 91.4542 134.813C92.153 135.4 92.6209 136.215 92.7747 137.114L95.3366 149.689C95.7245 151.538 94.642 153.198 92.9191 153.343Z" fill="white"/>
<path d="M81.3531 154.769C80.3748 154.706 79.446 154.316 78.7162 153.662C77.9864 153.007 77.4981 152.126 77.3299 151.161L74.7681 138.586C74.6517 138.065 74.6453 137.525 74.7494 137.002C74.8534 136.479 75.0657 135.983 75.3725 135.546C75.6368 135.199 75.9708 134.912 76.353 134.702C76.7352 134.492 77.1571 134.365 77.5915 134.328L88.9214 133.426C89.9428 133.417 90.9345 133.769 91.7206 134.422C92.5066 135.074 93.0362 135.984 93.2153 136.989L95.7771 149.564C95.8935 150.085 95.8999 150.624 95.7958 151.148C95.6918 151.671 95.4795 152.167 95.1727 152.604C94.9096 152.952 94.5759 153.24 94.1934 153.45C93.811 153.66 93.3885 153.787 92.9537 153.822V153.822L81.6147 154.769H81.3531ZM89.2011 134.319H88.9936L77.6637 135.221C77.3565 135.246 77.058 135.335 76.7875 135.482C76.5171 135.63 76.2808 135.833 76.0941 136.078C75.8643 136.413 75.7064 136.792 75.6303 137.191C75.5543 137.59 75.5617 138 75.6521 138.396L78.214 150.971C78.3459 151.762 78.7532 152.481 79.3639 153.001C79.9746 153.521 80.7495 153.809 81.5516 153.813L92.8815 152.911C93.1887 152.886 93.4872 152.797 93.7577 152.649C94.0281 152.502 94.2644 152.299 94.4511 152.054C94.6809 151.719 94.8388 151.34 94.9149 150.941C94.9909 150.542 94.9835 150.131 94.8931 149.735L92.3312 137.161C92.2047 136.402 91.8277 135.707 91.2604 135.187C90.6932 134.667 89.9682 134.352 89.2011 134.292V134.319Z" fill="white"/>
<path d="M118.231 151.25L106.901 152.153C105.989 152.155 105.106 151.835 104.407 151.249C103.709 150.663 103.241 149.849 103.085 148.95L100.559 136.412C100.171 134.499 101.254 132.803 102.977 132.695L114.307 131.793C115.218 131.788 116.101 132.106 116.799 132.691C117.498 133.276 117.967 134.089 118.122 134.986L120.684 147.615C121.036 149.437 119.954 151.106 118.231 151.25Z" fill="white"/>
<path d="M106.666 152.649C105.688 152.585 104.76 152.194 104.031 151.54C103.301 150.886 102.813 150.005 102.643 149.04L100.081 136.466C99.9643 135.945 99.9576 135.405 100.062 134.882C100.166 134.358 100.378 133.862 100.686 133.426C100.948 133.078 101.282 132.79 101.664 132.581C102.047 132.373 102.47 132.249 102.905 132.217L114.235 131.315C115.257 131.302 116.251 131.653 117.037 132.306C117.824 132.959 118.353 133.871 118.528 134.878L121.09 147.453C121.207 147.972 121.214 148.51 121.109 149.032C121.005 149.554 120.793 150.049 120.486 150.484C120.224 150.833 119.891 151.123 119.508 151.333C119.125 151.543 118.702 151.669 118.267 151.701L106.937 152.603L106.666 152.649ZM114.514 132.199H114.307L102.977 133.101C102.665 133.127 102.363 133.221 102.091 133.377C101.82 133.533 101.587 133.746 101.407 134.003C101.177 134.338 101.02 134.717 100.943 135.116C100.867 135.515 100.875 135.925 100.965 136.321L103.527 148.896C103.662 149.686 104.071 150.403 104.681 150.922C105.291 151.441 106.064 151.73 106.865 151.738L118.195 150.835C118.506 150.807 118.807 150.712 119.078 150.556C119.349 150.401 119.583 150.188 119.764 149.933C119.994 149.6 120.152 149.223 120.229 148.825C120.305 148.428 120.297 148.019 120.206 147.624L117.644 135.04C117.509 134.29 117.128 133.605 116.561 133.094C115.995 132.583 115.275 132.275 114.514 132.217V132.199Z" fill="white"/>
<path d="M143.543 149.149L132.213 150.051C131.3 150.055 130.416 149.736 129.717 149.15C129.019 148.563 128.551 147.748 128.397 146.849L125.817 134.31C125.429 132.407 126.512 130.702 128.235 130.593L139.564 129.691C140.476 129.689 141.359 130.009 142.058 130.595C142.756 131.181 143.225 131.995 143.38 132.894L145.942 145.469C146.348 147.345 145.265 149.005 143.543 149.149Z" fill="white"/>
<path d="M131.978 150.547C131 150.485 130.071 150.095 129.341 149.44C128.612 148.786 128.123 147.905 127.955 146.939L125.393 134.364C125.276 133.844 125.27 133.305 125.376 132.783C125.482 132.261 125.697 131.767 126.007 131.333C126.266 130.983 126.597 130.693 126.979 130.483C127.36 130.272 127.782 130.147 128.217 130.115L139.547 129.213C140.568 129.2 141.56 129.55 142.347 130.201C143.133 130.852 143.663 131.762 143.841 132.767L146.402 145.342C146.519 145.863 146.525 146.402 146.421 146.926C146.317 147.449 146.105 147.945 145.798 148.382C145.536 148.732 145.203 149.021 144.82 149.231C144.438 149.441 144.014 149.567 143.579 149.6L132.249 150.502L131.978 150.547ZM139.817 130.097H139.619L128.289 130.999C127.978 131.028 127.676 131.123 127.405 131.278C127.134 131.434 126.9 131.647 126.719 131.901C126.489 132.234 126.331 132.612 126.255 133.009C126.179 133.407 126.187 133.816 126.277 134.211L128.839 146.785C128.973 147.576 129.381 148.294 129.991 148.814C130.601 149.333 131.375 149.621 132.177 149.627L143.507 148.725C143.814 148.703 144.114 148.615 144.385 148.467C144.655 148.319 144.891 148.115 145.076 147.868C145.306 147.533 145.464 147.154 145.54 146.755C145.616 146.356 145.609 145.946 145.518 145.55L142.956 132.948C142.826 132.191 142.446 131.499 141.877 130.983C141.308 130.466 140.583 130.154 139.817 130.097V130.097Z" fill="white"/>
<path d="M73.4972 184.365L62.1673 185.267C61.2545 185.27 60.37 184.95 59.6701 184.364C58.9702 183.778 58.5 182.964 58.3426 182.064L55.7897 169.49C55.4018 167.577 56.4843 165.881 58.1982 165.773L69.5372 164.871C70.4489 164.868 71.3322 165.188 72.0306 165.775C72.7289 166.361 73.1974 167.175 73.3529 168.073L75.9057 180.648C76.2846 182.552 75.2111 184.22 73.4972 184.365Z" fill="white"/>
<path d="M61.9229 185.763C60.944 185.699 60.0147 185.309 59.2837 184.655C58.5527 184.001 58.0622 183.121 57.8906 182.155L55.3378 169.58C55.2186 169.059 55.2108 168.519 55.3149 167.995C55.4191 167.471 55.6328 166.975 55.9422 166.54C56.201 166.19 56.5326 165.9 56.914 165.689C57.2955 165.479 57.7179 165.354 58.1522 165.322L69.4911 164.42C70.513 164.409 71.5057 164.761 72.2921 165.414C73.0785 166.066 73.6076 166.977 73.785 167.983L76.3378 180.558C76.4563 181.077 76.4637 181.616 76.3596 182.138C76.2554 182.66 76.042 183.155 75.7334 183.589C75.4716 183.943 75.1358 184.235 74.7494 184.445C74.363 184.655 73.9354 184.779 73.4963 184.807L62.1664 185.709L61.9229 185.763ZM69.7618 165.313H69.5633L58.2334 166.215C57.9253 166.236 57.6253 166.323 57.3543 166.471C57.0833 166.619 56.8477 166.824 56.6638 167.072C56.43 167.405 56.2696 167.784 56.1934 168.184C56.1172 168.584 56.1269 168.995 56.2218 169.391L58.7747 181.965C58.9135 182.755 59.324 183.471 59.9352 183.99C60.5463 184.509 61.3196 184.798 62.1213 184.807L73.4512 183.905C73.7612 183.876 74.0613 183.781 74.3307 183.625C74.6002 183.47 74.8326 183.257 75.0118 183.003C75.2454 182.671 75.4057 182.294 75.4819 181.896C75.5582 181.497 75.5486 181.088 75.4538 180.693L72.9009 168.119C72.7599 167.37 72.3757 166.69 71.808 166.183C71.2404 165.675 70.521 165.37 69.7618 165.313V165.313Z" fill="white"/>
<path d="M98.8019 182.263L87.472 183.165C86.56 183.171 85.6756 182.853 84.9755 182.268C84.2755 181.684 83.8049 180.87 83.6472 179.972L81.0944 167.343C80.7065 165.44 81.789 163.735 83.5119 163.627L94.8418 162.725C95.7536 162.722 96.6368 163.042 97.3352 163.628C98.0336 164.214 98.502 165.029 98.6575 165.927L101.21 178.502C101.598 180.459 100.561 182.119 98.8019 182.263Z" fill="white"/>
<path d="M87.2345 183.634C86.2615 183.574 85.3363 183.191 84.6058 182.546C83.8753 181.9 83.3813 181.029 83.2023 180.071L80.6494 167.487C80.5309 166.968 80.5235 166.429 80.6277 165.907C80.7318 165.385 80.9452 164.89 81.2538 164.456C81.5127 164.106 81.8442 163.816 82.2257 163.606C82.6071 163.395 83.0295 163.27 83.4639 163.238L94.8028 162.336C95.8238 162.323 96.8164 162.673 97.603 163.324C98.3896 163.975 98.919 164.885 99.0966 165.89L101.649 178.465C101.769 178.986 101.776 179.526 101.672 180.05C101.568 180.574 101.354 181.07 101.045 181.505C100.786 181.855 100.455 182.145 100.073 182.356C99.6918 182.566 99.2694 182.691 98.835 182.723V182.723L87.5051 183.625L87.2345 183.634ZM95.0734 163.184H94.8749L83.545 164.086C83.2338 164.114 82.9324 164.21 82.6614 164.365C82.3905 164.521 82.1565 164.734 81.9755 164.988C81.7434 165.32 81.584 165.698 81.5078 166.096C81.4317 166.494 81.4404 166.903 81.5335 167.298L84.0863 179.881C84.222 180.672 84.632 181.389 85.244 181.907C85.8561 182.425 86.6311 182.711 87.4329 182.714L98.7538 181.83C99.0644 181.804 99.3654 181.71 99.6352 181.554C99.9051 181.398 100.137 181.184 100.314 180.928C100.548 180.595 100.709 180.216 100.785 179.816C100.861 179.416 100.851 179.005 100.756 178.609L98.2036 166.035C98.0665 165.285 97.6852 164.601 97.119 164.09C96.5528 163.58 95.8336 163.271 95.0734 163.211V163.184Z" fill="white"/>
<path d="M124.114 180.171L112.784 181.073C111.871 181.078 110.986 180.759 110.285 180.172C109.585 179.586 109.115 178.77 108.96 177.87L106.407 165.296C106.019 163.383 107.101 161.687 108.824 161.579L120.154 160.677C121.074 160.664 121.968 160.979 122.676 161.566C123.383 162.153 123.858 162.973 124.015 163.88L126.523 176.418C126.911 178.367 125.819 180.026 124.114 180.171Z" fill="white"/>
<path d="M112.55 181.569C111.57 181.507 110.64 181.117 109.909 180.463C109.178 179.808 108.688 178.927 108.518 177.961L105.974 165.422C105.855 164.901 105.848 164.361 105.952 163.837C106.056 163.314 106.269 162.818 106.578 162.382C106.838 162.033 107.17 161.743 107.551 161.533C107.932 161.323 108.354 161.197 108.788 161.164L120.127 160.262C121.15 160.249 122.143 160.6 122.93 161.253C123.717 161.906 124.245 162.818 124.421 163.825L126.974 176.4C127.095 176.921 127.104 177.461 126.999 177.985C126.895 178.509 126.68 179.005 126.369 179.44C126.111 179.79 125.779 180.08 125.398 180.291C125.016 180.501 124.594 180.626 124.159 180.658L112.83 181.56L112.55 181.569ZM120.407 161.083H120.208L108.878 161.985C108.568 162.015 108.267 162.111 107.996 162.266C107.726 162.422 107.491 162.634 107.309 162.887C107.077 163.221 106.918 163.6 106.842 163.999C106.766 164.399 106.774 164.81 106.867 165.205L109.42 177.78C109.554 178.572 109.963 179.291 110.575 179.811C111.187 180.331 111.963 180.618 112.766 180.622L124.096 179.72C124.406 179.69 124.705 179.594 124.974 179.438C125.244 179.282 125.476 179.071 125.657 178.818C125.891 178.485 126.051 178.106 126.127 177.706C126.203 177.306 126.194 176.895 126.099 176.499L123.546 163.924C123.414 163.169 123.033 162.479 122.464 161.965C121.896 161.45 121.172 161.14 120.407 161.083V161.083Z" fill="white"/>
<path d="M149.423 178.069L138.093 179.016C137.181 179.017 136.297 178.697 135.598 178.111C134.898 177.525 134.427 176.712 134.268 175.813L131.715 163.239C131.328 161.326 132.41 159.63 134.133 159.522L145.463 158.62C146.373 158.617 147.256 158.936 147.954 159.52C148.652 160.104 149.121 160.917 149.279 161.813L151.831 174.442C152.219 176.264 151.146 177.933 149.423 178.069Z" fill="white"/>
<path d="M137.86 179.476C136.881 179.412 135.952 179.022 135.221 178.368C134.49 177.714 134 176.833 133.828 175.868L131.275 163.293C131.156 162.772 131.148 162.232 131.252 161.708C131.357 161.184 131.57 160.688 131.88 160.253C132.139 159.903 132.471 159.614 132.852 159.404C133.234 159.194 133.656 159.068 134.09 159.035L145.429 158.133C146.449 158.123 147.439 158.475 148.225 159.125C149.011 159.776 149.542 160.683 149.722 161.687L152.275 174.271C152.394 174.79 152.401 175.329 152.297 175.851C152.193 176.373 151.98 176.868 151.671 177.302C151.412 177.652 151.081 177.942 150.699 178.152C150.318 178.363 149.895 178.488 149.461 178.52L138.131 179.422L137.86 179.476ZM145.663 159.026H145.465L134.135 159.928C133.823 159.954 133.521 160.048 133.249 160.204C132.978 160.36 132.745 160.574 132.565 160.83C132.333 161.164 132.174 161.543 132.097 161.942C132.021 162.342 132.03 162.753 132.123 163.148L134.676 175.723C134.815 176.513 135.225 177.229 135.837 177.748C136.448 178.267 137.221 178.556 138.023 178.565L149.353 177.663C149.663 177.634 149.963 177.539 150.232 177.383C150.502 177.228 150.734 177.015 150.913 176.761C151.148 176.428 151.308 176.049 151.385 175.649C151.461 175.249 151.451 174.838 151.355 174.442L148.802 161.868C148.671 161.111 148.291 160.421 147.722 159.906C147.153 159.391 146.429 159.081 145.663 159.026V159.026Z" fill="white"/>
<path d="M79.3597 213.285L68.0298 214.187C67.1181 214.189 66.2348 213.869 65.5364 213.283C64.838 212.697 64.3696 211.883 64.2141 210.984L61.6613 198.41C61.2734 196.497 62.3468 194.801 64.0698 194.693L75.3997 193.791C76.3129 193.786 77.1984 194.105 77.8986 194.692C78.5989 195.278 79.0686 196.093 79.2244 196.993L81.7772 209.568C82.1651 211.481 81.0826 213.14 79.3597 213.285Z" fill="#2855AF"/>
<path d="M104.681 211.192L93.3423 212.094C92.4306 212.097 91.5473 211.777 90.8489 211.191C90.1505 210.604 89.6821 209.79 89.5266 208.892L86.9738 196.317C86.5859 194.404 87.6593 192.709 89.3823 192.6L100.712 191.698C101.625 191.693 102.511 192.013 103.211 192.599C103.911 193.185 104.381 194.001 104.537 194.901L107.09 207.475C107.478 209.379 106.395 211.048 104.681 211.192Z" fill="#2855AF"/>
<path d="M129.994 209.09L118.655 209.992C117.743 209.995 116.86 209.675 116.161 209.089C115.463 208.503 114.995 207.688 114.839 206.79L112.286 194.251C111.898 192.348 112.972 190.643 114.695 190.535L126.025 189.633C126.937 189.63 127.822 189.95 128.522 190.536C129.222 191.121 129.692 191.936 129.849 192.835L132.402 205.41C132.79 207.286 131.708 208.946 129.994 209.09Z" fill="#2855AF"/>
<path d="M155.306 206.998L143.967 207.9C143.056 207.902 142.172 207.582 141.474 206.996C140.776 206.41 140.307 205.596 140.152 204.697L137.599 192.123C137.211 190.21 138.284 188.514 140.007 188.406L151.337 187.504C152.25 187.499 153.136 187.818 153.836 188.404C154.536 188.991 155.006 189.806 155.162 190.706L157.715 203.281C158.103 205.193 157.02 206.853 155.306 206.998Z" fill="#2855AF"/>
<path d="M90.8618 105.01C87.4881 105.01 84.2317 102.141 83.474 98.3979L78.2781 72.8516C78.0595 71.905 78.0437 70.9229 78.2319 69.9699C78.42 69.0168 78.8077 68.1144 79.3696 67.3219C79.8281 66.7015 80.4153 66.1876 81.0911 65.8155C81.7669 65.4434 82.5151 65.2218 83.2845 65.166L106.305 63.2536C109.85 62.965 113.386 65.9598 114.18 69.8477L119.376 95.3941C119.594 96.3401 119.611 97.3215 119.424 98.2742C119.238 99.227 118.852 100.13 118.294 100.924C117.831 101.542 117.242 102.055 116.565 102.426C115.888 102.798 115.14 103.021 114.37 103.08L91.349 104.992L90.8618 105.01ZM106.792 63.4611H106.323L83.3026 65.3735C82.5655 65.4284 81.8489 65.6413 81.2014 65.9977C80.5538 66.3542 79.9907 66.8458 79.55 67.4392C79.0065 68.2057 78.6321 69.0791 78.4517 70.0013C78.2713 70.9235 78.289 71.8735 78.5036 72.7884L83.6905 98.3348C84.4662 102.151 87.8941 105.019 91.3309 104.748L114.352 102.836C115.09 102.78 115.807 102.567 116.456 102.21C117.105 101.854 117.67 101.363 118.113 100.77C118.653 100.002 119.025 99.1287 119.205 98.2071C119.386 97.2855 119.37 96.3363 119.16 95.4211L113.964 69.8747C113.188 66.2485 110.067 63.4611 106.792 63.4611Z" fill="#2855AF"/>
<path d="M92.0341 102.07C89.0934 102.07 86.2609 99.5804 85.6024 96.324L81.1733 74.5301C80.9831 73.7058 80.9692 72.8506 81.1324 72.0205C81.2956 71.1904 81.6323 70.4041 82.1205 69.7131C82.5238 69.1692 83.0395 68.7185 83.6326 68.3917C84.2256 68.0648 84.8821 67.8694 85.5573 67.8188L105.195 66.1951C108.28 65.9335 111.365 68.5044 112.06 71.9232L116.489 93.717C116.678 94.542 116.69 95.3975 116.526 96.2277C116.361 97.0578 116.023 97.8437 115.533 98.534C115.129 99.0779 114.614 99.5286 114.021 99.8555C113.428 100.182 112.771 100.378 112.096 100.428L92.4401 102.052C92.3052 102.066 92.1697 102.072 92.0341 102.07V102.07ZM105.628 66.6281C105.496 66.6191 105.363 66.6191 105.231 66.6281L85.5934 68.2518C84.9875 68.3032 84.3996 68.4835 83.8691 68.7807C83.3386 69.0778 82.8777 69.4849 82.5174 69.9747C82.0608 70.6116 81.7444 71.3381 81.5889 72.1062C81.4334 72.8742 81.4424 73.6666 81.6153 74.4309L86.0444 96.2247C86.6939 99.427 89.5354 101.818 92.422 101.592L112.06 99.9683C112.672 99.9241 113.267 99.7481 113.804 99.4522C114.341 99.1564 114.808 98.7477 115.172 98.2544C115.629 97.6174 115.945 96.891 116.101 96.1229C116.256 95.3548 116.247 94.5625 116.074 93.7982L111.636 72.0044C110.995 68.9554 108.361 66.6281 105.628 66.6281V66.6281Z" fill="#2855AF"/>
<path d="M93.5771 98.1546C92.3358 98.073 91.1571 97.5798 90.2275 96.7531C89.2979 95.9265 88.6705 94.8134 88.4444 93.5901L85.0256 76.7396C84.8732 76.0805 84.862 75.3965 84.9926 74.7327C85.1232 74.0689 85.3926 73.4402 85.7833 72.8878C86.1097 72.4491 86.5269 72.0858 87.0063 71.8227C87.4857 71.5597 88.0162 71.403 88.5617 71.3634L103.734 70.1005C106.197 69.902 108.66 71.9046 109.21 74.6559L112.638 91.5064C112.789 92.1662 112.799 92.8505 112.666 93.5143C112.534 94.1781 112.263 94.8065 111.871 95.3582C111.546 95.7967 111.131 96.1599 110.653 96.4231C110.175 96.6862 109.646 96.8429 109.102 96.8827L93.9199 98.1455L93.5771 98.1546ZM104.086 70.768H103.788L88.6158 72.0219C88.1657 72.0558 87.7281 72.1861 87.3328 72.404C86.9375 72.6219 86.5936 72.9223 86.3246 73.2847C85.99 73.76 85.7599 74.3008 85.6495 74.8714C85.5391 75.442 85.5509 76.0296 85.6841 76.5953L89.1119 93.4458C89.599 95.8363 91.7279 97.6404 93.8658 97.46L109.048 96.2061C109.496 96.1709 109.932 96.04 110.326 95.8221C110.719 95.6043 111.062 95.3046 111.33 94.9432C111.664 94.468 111.894 93.9272 112.005 93.3566C112.115 92.786 112.103 92.1984 111.97 91.6327L108.551 74.7822C108.358 73.7125 107.814 72.7374 107.006 72.0107C106.198 71.2839 105.17 70.8468 104.086 70.768Z" fill="#2855AF"/>
<path d="M106.478 93.4281L95.1478 94.3302C94.2345 94.335 93.3491 94.016 92.6488 93.4297C91.9485 92.8434 91.4788 92.0278 91.323 91.1279L88.7702 78.5531C88.3823 76.6408 89.4648 74.9449 91.1787 74.8366L102.518 73.9346C103.429 73.9319 104.313 74.2519 105.011 74.838C105.709 75.4242 106.178 76.2385 106.333 77.1369L108.886 89.7116C109.274 91.624 108.201 93.2567 106.478 93.4281Z" fill="#2855AF"/>
<path d="M169.746 95.3937C169.746 95.3937 128.324 85.7687 125.996 85.3086C123.669 84.8486 114.089 81.989 111.843 82.0792C109.597 82.1694 101.56 83.2519 100.026 84.0728C98.4925 84.8937 99.0067 85.6424 99.8185 85.5341L108.262 84.3975L112.691 86.8782C112.691 86.8782 109.985 89.5844 109.813 91.3885C109.435 95.8988 109.534 96.9543 110.535 96.8009C111.536 96.6475 111.672 91.5328 111.672 91.5328L112.429 91.0187L113.133 94.8164C113.133 94.8164 114.116 96.1334 114.666 94.645C115.045 93.6076 114.288 91.181 114.288 91.181L115.767 89.9633C115.767 89.9633 116.137 93.1115 116.849 93.4993C117.562 93.8872 117.959 93.4993 117.878 92.904C117.797 92.3086 117.445 89.9542 117.445 89.9542L120.061 88.3666C120.061 88.3666 162.16 106.083 166.544 106.724C169.531 107.067 172.556 106.872 175.474 106.146L169.746 95.3937Z" fill="white"/>
<path d="M169.279 107.31C168.343 107.313 167.409 107.25 166.482 107.12C162.197 106.489 123.697 90.3239 120.098 88.8175L117.933 90.1345C118.032 90.784 118.258 92.3175 118.321 92.7866C118.358 92.9859 118.338 93.1917 118.263 93.3801C118.188 93.5685 118.061 93.7317 117.897 93.851C117.707 93.9684 117.489 94.0306 117.266 94.0306C117.043 94.0306 116.824 93.9684 116.634 93.851C115.985 93.4992 115.615 91.9296 115.434 90.775L114.803 91.2982C115.01 92.0198 115.434 93.7969 115.083 94.7531C114.866 95.3484 114.532 95.6551 114.099 95.7453C113.405 95.8536 112.837 95.1229 112.773 95.0417C112.736 94.9837 112.708 94.9196 112.692 94.8523L112.115 91.7763C112.034 94.2389 111.7 97.0623 110.599 97.1886C110.439 97.2156 110.275 97.206 110.119 97.1608C109.962 97.1155 109.818 97.0356 109.697 96.927C109.093 96.3497 109.093 95.0147 109.409 91.2711C109.535 89.7556 111.213 87.7891 112.007 86.9322L108.218 84.8123L99.919 85.9219C99.6714 85.981 99.4109 85.9511 99.1833 85.8372C98.9556 85.7234 98.7754 85.533 98.6741 85.2995C98.5749 84.9657 98.5839 84.3072 99.8649 83.6126C101.534 82.7105 109.788 81.6641 111.871 81.5739C113.531 81.5018 118.889 82.918 122.786 83.9554C124.239 84.3433 125.492 84.668 126.142 84.8574C128.442 85.3626 169.441 94.8884 169.892 94.9876C169.955 95.0012 170.014 95.0284 170.066 95.0674C170.117 95.1063 170.159 95.1561 170.19 95.2131L175.918 105.921C175.947 105.981 175.962 106.047 175.962 106.115C175.962 106.182 175.947 106.248 175.918 106.308C175.892 106.371 175.851 106.427 175.8 106.471C175.748 106.515 175.686 106.546 175.62 106.561C173.544 107.066 171.415 107.317 169.279 107.31V107.31ZM120.062 87.8613C120.118 87.8485 120.177 87.8485 120.233 87.8613C120.657 88.0327 162.333 105.56 166.608 106.191C169.344 106.508 172.113 106.362 174.799 105.758L169.45 95.7453C166.329 95.0237 128.108 86.1564 125.907 85.6693C125.24 85.525 124.031 85.2002 122.516 84.7672C118.907 83.802 113.405 82.3497 111.862 82.4129C109.625 82.5121 101.678 83.5765 100.244 84.3523C99.6484 84.668 99.504 84.9206 99.495 84.9747C99.486 85.0288 99.5491 84.9747 99.6484 84.9747H99.7566L108.209 83.8471C108.306 83.8331 108.404 83.8522 108.489 83.9013L112.918 86.3819C112.979 86.4163 113.031 86.4643 113.07 86.5222C113.109 86.5802 113.134 86.6464 113.143 86.7157C113.151 86.785 113.143 86.8551 113.119 86.9207C113.096 86.9863 113.058 87.0458 113.008 87.0946C112.286 87.8072 110.374 89.9451 110.257 91.2891C110.121 92.994 109.878 95.8446 110.257 96.2234C110.321 96.243 110.39 96.243 110.455 96.2234C110.78 95.9889 111.15 93.7157 111.204 91.3884C111.208 91.3172 111.228 91.2479 111.262 91.1855C111.297 91.1231 111.344 91.0691 111.402 91.0275L112.151 90.5134C112.215 90.4728 112.287 90.4476 112.362 90.4398C112.437 90.4319 112.513 90.4417 112.584 90.4683C112.652 90.4989 112.712 90.5451 112.759 90.603C112.806 90.661 112.839 90.7291 112.855 90.802L113.54 94.4824C113.684 94.6448 113.856 94.7801 113.955 94.7621C114.054 94.744 114.099 94.6719 114.226 94.3561C114.338 93.282 114.206 92.1963 113.838 91.1809C113.813 91.0958 113.814 91.0054 113.839 90.9206C113.865 90.8358 113.915 90.7601 113.982 90.7028L115.462 89.476C115.525 89.4273 115.599 89.3952 115.678 89.3826C115.757 89.37 115.837 89.3773 115.913 89.4038C115.988 89.4352 116.053 89.486 116.102 89.551C116.151 89.6159 116.182 89.6928 116.192 89.7737C116.382 91.2891 116.779 92.7866 117.094 92.976C117.143 93.0021 117.197 93.0157 117.252 93.0157C117.307 93.0157 117.361 93.0021 117.41 92.976C117.41 92.976 117.464 92.8768 117.41 92.7775C117.329 92.1732 116.977 89.8458 116.977 89.8458C116.962 89.7575 116.975 89.6667 117.013 89.5859C117.052 89.5051 117.115 89.4383 117.193 89.3948L119.809 87.7982C119.898 87.7928 119.986 87.8148 120.062 87.8613V87.8613Z" fill="#2855AF"/>
<path d="M290.896 119.443C290.896 119.443 288.082 123.953 288.813 124.278C289.543 124.602 292.475 121.057 292.475 121.057L291.032 125.568C291.032 125.568 290.932 126.47 292.601 125.36C294.27 124.251 293.873 121.319 293.873 121.319L294.053 126.073C294.053 126.073 292.926 127.823 294.486 127.615C296.047 127.408 296.245 123.736 296.101 122.618C295.775 121.287 295.142 120.051 294.252 119.01C293.404 117.972 291.167 118.27 290.896 119.443Z" fill="white"/>
<path d="M294.234 128.076C294.06 128.092 293.885 128.062 293.727 127.989C293.569 127.916 293.432 127.803 293.332 127.661C292.989 127.111 293.332 126.326 293.584 125.956V125.054C293.391 125.327 293.149 125.562 292.871 125.748C291.969 126.371 291.365 126.533 290.95 126.281C290.828 126.203 290.729 126.093 290.667 125.962C290.605 125.831 290.581 125.685 290.598 125.541L291.41 122.997C289.426 125.081 288.848 124.801 288.632 124.702C288.547 124.66 288.473 124.601 288.414 124.528C288.355 124.455 288.312 124.369 288.289 124.278C288.027 123.376 289.714 120.516 290.499 119.281C290.627 118.945 290.842 118.65 291.123 118.426C291.404 118.202 291.74 118.058 292.096 118.009C292.543 117.893 293.013 117.899 293.457 118.025C293.901 118.152 294.303 118.396 294.621 118.73C295.565 119.839 296.23 121.156 296.561 122.573C296.655 123.574 296.6 124.583 296.399 125.568C295.993 127.489 295.181 127.995 294.594 128.076C294.474 128.088 294.354 128.088 294.234 128.076V128.076ZM294.098 127.174C294.2 127.187 294.303 127.187 294.405 127.174C294.856 127.111 295.244 126.452 295.469 125.37C295.65 124.479 295.701 123.568 295.623 122.663C295.305 121.412 294.706 120.249 293.873 119.263C293.66 119.058 293.397 118.913 293.111 118.842C292.824 118.77 292.524 118.776 292.24 118.857C292.044 118.885 291.858 118.963 291.701 119.083C291.543 119.203 291.418 119.361 291.338 119.542C291.329 119.588 291.311 119.631 291.284 119.668C290.431 120.954 289.723 122.331 289.173 123.773C290.271 122.881 291.264 121.868 292.132 120.751C292.2 120.671 292.293 120.616 292.397 120.596C292.5 120.577 292.607 120.593 292.7 120.643C292.792 120.692 292.865 120.773 292.904 120.87C292.944 120.967 292.948 121.075 292.917 121.175L291.563 125.415C291.84 125.296 292.104 125.148 292.348 124.973C292.727 124.635 293.025 124.217 293.218 123.748C293.412 123.279 293.497 122.773 293.467 122.266V121.319C293.464 121.204 293.506 121.092 293.583 121.007C293.66 120.921 293.767 120.868 293.882 120.859C293.997 120.849 294.112 120.883 294.203 120.956C294.294 121.028 294.353 121.132 294.369 121.247C294.408 121.585 294.423 121.926 294.414 122.266L294.549 126.037C294.557 126.133 294.532 126.229 294.477 126.308C294.297 126.557 294.188 126.85 294.161 127.156L294.098 127.174Z" fill="#2855AF"/>
<path d="M259.699 81.9355C259.699 81.9355 264.823 82.8827 267.52 84.344C270.217 85.8054 290.875 107.617 291.425 110.044C292.078 112.572 293.171 114.966 294.654 117.116C295.755 118.568 299.291 122.871 299.526 124.657C299.76 126.443 299.047 127.905 298.199 126.66C297.352 125.415 295.367 122.483 293.842 121.32C292.318 120.156 287.645 119.191 287.645 119.191C287.675 120.653 287.566 122.115 287.321 123.557C286.915 125.658 285.336 127.463 285.192 126.344C284.884 124.406 284.773 122.441 284.858 120.481C285.038 118.406 285.011 114.771 285.011 114.771L285.616 110.82C285.616 110.82 271.949 102.178 266.808 99.4536C261.666 96.7294 256.939 93.7165 256.939 93.7165L253.719 93.4639C253.719 93.4639 253.872 87.7629 255.839 85.4536C256.958 84.1096 258.257 82.9259 259.699 81.9355V81.9355Z" fill="white"/>
<path d="M298.824 127.579C298.615 127.562 298.414 127.492 298.24 127.375C298.066 127.258 297.926 127.099 297.832 126.911C296.993 125.676 295.035 122.798 293.574 121.68C292.446 120.823 289.37 120.047 288.107 119.758C288.104 121.062 287.989 122.362 287.765 123.646C287.458 125.252 286.393 127.173 285.437 127.137C285.25 127.126 285.075 127.044 284.946 126.908C284.817 126.773 284.745 126.593 284.743 126.406C284.436 124.432 284.324 122.431 284.409 120.435C284.589 118.414 284.562 114.806 284.562 114.77L285.13 111.044C283.245 109.854 271.284 102.339 266.593 99.8496C261.902 97.3599 257.518 94.5996 256.797 94.1576L253.685 93.9141C253.57 93.9049 253.463 93.8521 253.386 93.7666C253.308 93.681 253.267 93.5692 253.27 93.454C253.27 93.2195 253.45 87.5636 255.489 85.1551C256.641 83.7766 257.976 82.5625 259.458 81.5468C259.554 81.4845 259.67 81.4619 259.783 81.4837C259.99 81.4837 265.005 82.4579 267.739 83.9373C270.472 85.4167 291.255 107.219 291.869 109.935C292.511 112.398 293.573 114.733 295.008 116.835L295.54 117.512C297.579 120.128 299.771 123.042 299.978 124.593C300.132 125.775 299.933 127.2 299.121 127.507C299.028 127.552 298.927 127.576 298.824 127.579V127.579ZM287.647 118.739H287.737C287.936 118.784 292.536 119.74 294.124 120.958C295.712 122.176 297.732 125.125 298.571 126.37C298.734 126.614 298.833 126.65 298.833 126.65C299.143 126.047 299.229 125.353 299.076 124.692C298.887 123.249 296.145 119.74 294.828 118.053L294.295 117.368C292.779 115.175 291.662 112.732 290.994 110.151C290.534 108.14 270.165 86.3007 267.306 84.7491C264.904 83.6724 262.381 82.8909 259.792 82.4218C258.455 83.3769 257.243 84.4951 256.183 85.7504C254.641 87.5546 254.271 91.713 254.19 93.0571L256.977 93.2826C257.051 93.2857 257.122 93.3075 257.185 93.3458C257.23 93.3458 261.957 96.3767 267.017 99.0648C272.078 101.753 285.726 110.359 285.861 110.449C285.937 110.495 285.997 110.562 286.034 110.642C286.071 110.723 286.083 110.813 286.069 110.9L285.455 114.842C285.455 114.923 285.455 118.45 285.311 120.525C285.23 122.392 285.333 124.262 285.618 126.109C286.271 125.365 286.707 124.458 286.88 123.484C287.122 122.075 287.228 120.646 287.196 119.217C287.195 119.149 287.209 119.081 287.237 119.019C287.266 118.956 287.307 118.901 287.359 118.856C287.436 118.782 287.54 118.74 287.647 118.739V118.739Z" fill="#2855AF"/>
<path d="M291.425 110.044C290.875 107.617 270.217 85.8054 267.52 84.344C264.823 82.8827 259.699 81.9355 259.699 81.9355C258.257 82.9259 256.958 84.1096 255.839 85.4536C253.872 87.7629 253.719 93.4639 253.719 93.4639L256.939 93.7165C256.939 93.7165 257.553 94.1134 258.563 94.7268L260.935 87.8982C260.935 87.8982 283.911 105.128 286.193 107.139C288.475 109.151 290.956 112.66 292.796 114.888C293.156 115.319 293.545 115.726 293.96 116.106C292.83 114.216 291.976 112.175 291.425 110.044V110.044Z" fill="#7CCCDB"/>
<path opacity="0.5" d="M291.425 110.044C290.875 107.617 270.217 85.8054 267.52 84.344C264.823 82.8827 259.699 81.9355 259.699 81.9355C258.257 82.9259 256.958 84.1096 255.839 85.4536C253.872 87.7629 253.719 93.4639 253.719 93.4639L256.939 93.7165C256.939 93.7165 257.553 94.1134 258.563 94.7268L260.935 87.8982C260.935 87.8982 283.911 105.128 286.193 107.139C288.475 109.151 290.956 112.66 292.796 114.888C293.156 115.319 293.545 115.726 293.96 116.106C292.83 114.216 291.976 112.175 291.425 110.044V110.044Z" fill="white"/>
<path d="M226.983 140.272L227.885 151.755C227.885 151.755 223.619 189.641 232.134 200.565C240.65 211.489 268.135 240.121 268.135 240.121L272.456 234.988C272.456 234.988 257.121 205.22 254.262 201.016C251.402 196.813 246.747 185.681 246.747 185.681C246.747 185.681 256.255 146.18 256.923 142.68C257.59 139.18 257.238 129.672 257.112 128.779C256.986 127.886 246.333 133.172 240.027 135.382C233.722 137.592 226.983 140.272 226.983 140.272Z" fill="#2855AF"/>
<path d="M272.302 234.981L268.063 240.018L268.02 239.973C267.96 239.911 267.875 239.823 267.767 239.709C267.549 239.483 267.238 239.158 266.843 238.744C266.053 237.918 264.93 236.74 263.564 235.3C260.832 232.421 257.128 228.497 253.169 224.243C245.245 215.729 236.322 205.92 232.121 200.537C230.093 197.939 228.772 193.72 227.96 188.746C227.15 183.791 226.856 178.161 226.83 172.804C226.778 162.093 227.8 152.533 227.885 151.765L227.89 151.718L227.886 151.67L226.987 140.301C227 140.296 227.015 140.291 227.03 140.285C227.087 140.264 227.168 140.233 227.27 140.193C227.473 140.115 227.767 140 228.134 139.856L228.233 139.817C228.962 139.531 229.963 139.139 231.14 138.684C233.603 137.731 236.832 136.502 239.946 135.395C242.479 134.533 245.753 133.112 248.681 131.842C248.846 131.77 249.01 131.699 249.172 131.629C252.199 130.328 254.093 129.53 255.303 129.097C255.91 128.879 256.318 128.764 256.598 128.718C256.737 128.695 256.828 128.693 256.887 128.697C256.911 128.699 256.928 128.702 256.939 128.705C256.957 128.724 256.971 128.746 256.979 128.771C257.035 129.261 257.155 131.797 257.178 134.692C257.202 137.647 257.123 140.884 256.791 142.632C256.144 146.027 247.372 182.467 246.639 185.482L246.6 185.642L246.664 185.794C246.936 186.442 248.14 189.278 249.604 192.435C251.062 195.58 252.796 199.085 254.126 201.045L254.126 201.045C255.518 203.09 259.9 211.254 264.034 219.105C268.104 226.835 271.907 234.209 272.302 234.981Z" fill="#2855AF" stroke="white"/>
<path d="M243.294 143.095C243.294 143.095 240.327 146.451 241.12 147.254L241.905 148.057C241.905 148.057 225.253 169.85 223.061 175.606C220.869 181.361 216.575 195.126 216.665 195.803C216.756 196.479 219.57 198.825 221.392 198.807C223.214 198.789 279.467 202.649 279.467 202.649L280.757 197.02L239.894 184.049C239.894 184.049 264.457 148.228 265.602 144.89C266.748 141.553 265.287 130.602 265.079 129.032C264.872 127.462 262.752 125.252 260.966 125.487C259.18 125.721 243.827 136.655 243.827 136.655" fill="#2855AF"/>
<path d="M279.466 203.1C278.906 203.1 223.421 199.257 221.436 199.257C219.506 199.257 216.412 196.876 216.276 195.857C216.141 194.837 220.787 180.621 222.708 175.443C224.774 170.031 239.252 150.889 241.372 148.092L240.858 147.569C239.955 146.613 241.805 144.169 243.013 142.797C243.055 142.755 243.105 142.722 243.16 142.699C243.215 142.676 243.274 142.664 243.334 142.664C243.393 142.664 243.452 142.676 243.507 142.699C243.562 142.722 243.612 142.755 243.654 142.797C243.697 142.838 243.731 142.887 243.755 142.941C243.778 142.995 243.791 143.054 243.791 143.113C243.791 143.172 243.778 143.231 243.755 143.285C243.731 143.339 243.697 143.388 243.654 143.429C242.355 144.899 241.29 146.631 241.471 146.983L242.256 147.777C242.326 147.86 242.365 147.965 242.365 148.074C242.365 148.183 242.326 148.289 242.256 148.372C242.093 148.589 225.613 170.175 223.475 175.804C221.256 181.649 217.16 194.882 217.106 195.812C217.251 196.281 219.812 198.391 221.355 198.391C223.312 198.391 273.72 201.846 279.087 202.207L280.196 197.354L239.73 184.518C239.663 184.495 239.602 184.457 239.552 184.407C239.502 184.357 239.464 184.296 239.441 184.229C239.416 184.164 239.408 184.093 239.417 184.024C239.427 183.954 239.454 183.888 239.495 183.832C247.975 171.456 264.257 147.38 265.15 144.782C266.178 141.769 264.988 132.045 264.6 129.131C264.401 128.283 263.937 127.522 263.274 126.957C262.986 126.639 262.633 126.387 262.239 126.218C261.846 126.048 261.42 125.965 260.992 125.974C259.774 126.136 249.941 132.857 244.033 137.06C243.984 137.095 243.929 137.12 243.871 137.133C243.813 137.146 243.753 137.148 243.694 137.138C243.636 137.128 243.58 137.106 243.529 137.074C243.479 137.042 243.436 137.001 243.401 136.952C243.367 136.904 243.342 136.85 243.329 136.793C243.316 136.735 243.314 136.676 243.325 136.618C243.335 136.56 243.356 136.505 243.388 136.455C243.42 136.406 243.461 136.363 243.51 136.33C245.088 135.202 259.025 125.324 260.874 125.081C261.434 125.053 261.993 125.147 262.513 125.356C263.033 125.564 263.502 125.883 263.887 126.29C264.7 126.995 265.263 127.944 265.493 128.996C265.998 132.784 267.071 141.94 265.998 145.053C264.924 148.165 243.681 179.331 240.578 183.841L280.864 196.623C280.973 196.657 281.065 196.73 281.122 196.829C281.179 196.928 281.196 197.045 281.171 197.156L279.872 202.784C279.845 202.873 279.792 202.951 279.719 203.007C279.647 203.064 279.558 203.096 279.466 203.1V203.1Z" fill="white"/>
<path d="M243.203 140.425C243.132 140.426 243.061 140.41 242.997 140.378C242.933 140.347 242.877 140.301 242.834 140.245C242.765 140.147 242.737 140.027 242.756 139.909C242.774 139.791 242.838 139.685 242.933 139.613C243.402 139.27 254.398 131.287 260.866 132.703C260.924 132.716 260.979 132.74 261.028 132.775C261.077 132.809 261.118 132.852 261.15 132.903C261.182 132.953 261.203 133.009 261.213 133.068C261.224 133.126 261.222 133.187 261.209 133.245C261.197 133.302 261.174 133.357 261.14 133.406C261.107 133.455 261.064 133.496 261.015 133.528C260.965 133.56 260.91 133.582 260.851 133.592C260.793 133.602 260.734 133.601 260.676 133.587C254.614 132.261 243.537 140.263 243.465 140.335C243.391 140.394 243.298 140.426 243.203 140.425Z" fill="white"/>
<path d="M243.249 185.627H243.141L237.142 184.192C237.027 184.165 236.927 184.092 236.864 183.991C236.801 183.889 236.782 183.767 236.809 183.651C236.821 183.593 236.846 183.538 236.88 183.49C236.914 183.442 236.958 183.401 237.009 183.37C237.059 183.338 237.115 183.318 237.174 183.309C237.233 183.3 237.292 183.303 237.35 183.317L243.349 184.752C243.468 184.765 243.578 184.825 243.653 184.919C243.728 185.013 243.763 185.133 243.75 185.252C243.737 185.372 243.677 185.482 243.583 185.557C243.489 185.632 243.369 185.667 243.249 185.654V185.627Z" fill="white"/>
<path d="M196.828 88.0868C184.65 91.9657 185.255 91.8845 185.255 91.8845L167.574 94.4554L175.431 109.998L195.98 112.37C195.98 112.37 216.132 131.386 219.912 132.116C223.691 132.847 225.929 137.249 225.929 137.249C225.929 137.249 224.44 139.901 226.434 141.074C228.427 142.247 231.332 142.463 237.466 140.83C243.6 139.198 252.341 134.128 256.409 130.908C260.478 127.687 266.332 123.854 264.474 122.257C262.803 121.054 260.952 120.125 258.989 119.506L240.19 99.9038L255.706 101.104C255.706 101.104 255.534 92.0829 255.76 89.2234C255.985 86.3639 259.702 81.9347 259.702 81.9347C259.702 81.9347 239.856 80.4914 234.2 79.6074C228.545 78.7234 223.06 79.0481 220.76 80.1757C218.46 81.3033 207.978 84.1358 207.373 84.217C206.769 84.2981 196.828 88.0868 196.828 88.0868Z" fill="white"/>
<path d="M230.401 142.445C228.939 142.499 227.49 142.156 226.206 141.453C224.402 140.425 224.871 138.368 225.413 137.25C224.934 136.402 222.896 133.136 219.829 132.55C216.067 131.828 197.548 114.463 195.771 112.795L175.086 110.413L166.887 94.0949L185.19 91.4428C186.092 91.0098 188.798 90.1529 196.664 87.6361C198.36 86.9866 206.677 83.8294 207.299 83.7482C207.922 83.6671 218.358 80.8165 220.55 79.7431C223.058 78.5163 228.669 78.2637 234.253 79.1387C239.836 80.0137 259.51 81.448 259.718 81.457L260.62 81.5201L260.052 82.1967C260.052 82.1967 256.443 86.5085 256.209 89.2328C255.974 91.957 256.164 100.96 256.164 101.068V101.564L241.325 100.418L259.231 119.091C261.218 119.713 263.089 120.658 264.769 121.887C264.936 122.023 265.068 122.196 265.155 122.392C265.243 122.587 265.284 122.801 265.275 123.015C265.221 124.747 262.081 127.128 258.762 129.654C258.049 130.186 257.345 130.719 256.687 131.242C252.754 134.336 243.923 139.532 237.572 141.228C235.243 141.934 232.833 142.344 230.401 142.445ZM175.673 109.574L196.177 111.938L196.285 112.037C201.86 117.305 217.032 131.088 220 131.657C223.951 132.414 226.233 136.844 226.315 137.069L226.423 137.286L226.306 137.493C226.26 137.592 225.061 139.784 226.648 140.713C228.236 141.643 230.581 142.22 237.338 140.416C243.562 138.756 252.249 133.641 256.119 130.592C256.786 130.069 257.49 129.537 258.202 128.996C260.909 126.921 264.327 124.35 264.364 123.051C264.368 122.971 264.352 122.891 264.317 122.818C264.283 122.746 264.23 122.683 264.165 122.636C262.542 121.458 260.743 120.545 258.834 119.93H258.726L258.644 119.849L239.034 99.39L255.271 100.644C255.271 98.7044 255.135 91.7405 255.334 89.2147C255.514 86.8694 257.769 83.7212 258.834 82.35C254.964 82.0614 239.079 80.8526 234.153 80.0859C228.84 79.2469 223.329 79.4725 220.983 80.6091C218.638 81.7456 208.147 84.6052 207.452 84.6954C206.947 84.7856 200.786 87.0949 197.016 88.5382C186.678 91.8397 185.623 92.2547 185.514 92.3088L185.325 91.9029L185.388 92.3539L168.33 94.8256L175.673 109.574Z" fill="#2855AF"/>
<path d="M234.199 79.6075C228.552 78.7054 223.059 79.0482 220.759 80.1758C218.458 81.3033 207.976 84.1358 207.372 84.217C207.255 84.217 206.822 84.3794 206.199 84.5959L208.238 90.4142L213.831 88.7544C213.831 88.7544 225.323 86.2105 230.456 86.2105C235.588 86.2105 255.443 87.9425 255.443 87.9425L256.065 87.7982C256.979 85.694 258.195 83.734 259.673 81.9799C259.673 81.9799 239.846 80.4915 234.199 79.6075Z" fill="#7CCCDB"/>
<path opacity="0.5" d="M234.199 79.6075C228.552 78.7054 223.059 79.0482 220.759 80.1758C218.458 81.3033 207.976 84.1358 207.372 84.217C207.255 84.217 206.822 84.3794 206.199 84.5959L208.238 90.4142L213.831 88.7544C213.831 88.7544 225.323 86.2105 230.456 86.2105C235.588 86.2105 255.443 87.9425 255.443 87.9425L256.065 87.7982C256.979 85.694 258.195 83.734 259.673 81.9799C259.673 81.9799 239.846 80.4915 234.199 79.6075Z" fill="white"/>
<path d="M264.471 122.293C262.801 121.09 260.949 120.161 258.987 119.541L241.279 101.004L236.588 99.4434L220.045 102.15L249.055 113.209C248.532 113.317 247.386 113.579 245.005 114.174C238.988 115.68 220.351 114.174 220.351 114.174C220.351 114.174 234.478 119.884 241.694 122.59C248.911 125.296 251.617 124.701 247.413 126.803C243.209 128.905 238.086 130.113 223.959 128.905C220.27 128.598 216.86 128.318 213.82 128.093C216.599 130.303 218.899 131.9 219.945 132.107C223.734 132.829 225.962 137.24 225.962 137.24C225.962 137.24 224.474 139.892 226.467 141.064C228.461 142.237 231.365 142.454 237.499 140.821C243.633 139.188 252.374 134.119 256.443 130.898C260.511 127.678 266.32 123.853 264.471 122.293Z" fill="#7CCCDB"/>
<path opacity="0.5" d="M264.471 122.293C262.801 121.09 260.949 120.161 258.987 119.541L241.279 101.004L236.588 99.4434L220.045 102.15L249.055 113.209C248.532 113.317 247.386 113.579 245.005 114.174C238.988 115.68 220.351 114.174 220.351 114.174C220.351 114.174 234.478 119.884 241.694 122.59C248.911 125.296 251.617 124.701 247.413 126.803C243.209 128.905 238.086 130.113 223.959 128.905C220.27 128.598 216.86 128.318 213.82 128.093C216.599 130.303 218.899 131.9 219.945 132.107C223.734 132.829 225.962 137.24 225.962 137.24C225.962 137.24 224.474 139.892 226.467 141.064C228.461 142.237 231.365 142.454 237.499 140.821C243.633 139.188 252.374 134.119 256.443 130.898C260.511 127.678 266.32 123.853 264.471 122.293Z" fill="white"/>
<path d="M209.293 102.367L216.807 112.894L218.774 111.108L213.289 104.379" fill="white"/>
<path d="M216.808 113.345H216.763C216.698 113.341 216.635 113.321 216.578 113.288C216.522 113.255 216.474 113.21 216.438 113.156L208.924 102.629C208.889 102.58 208.865 102.525 208.851 102.467C208.838 102.409 208.836 102.349 208.846 102.29C208.856 102.232 208.878 102.175 208.91 102.125C208.942 102.075 208.983 102.031 209.032 101.997C209.131 101.932 209.252 101.907 209.369 101.927C209.486 101.947 209.592 102.011 209.663 102.105L216.88 112.217L218.152 111.063L212.947 104.667C212.909 104.621 212.88 104.568 212.862 104.511C212.844 104.454 212.838 104.393 212.844 104.334C212.85 104.274 212.868 104.216 212.896 104.164C212.925 104.111 212.963 104.064 213.01 104.027C213.102 103.952 213.221 103.917 213.339 103.929C213.457 103.94 213.566 103.998 213.642 104.09L219.117 110.828C219.191 110.916 219.227 111.03 219.219 111.144C219.21 111.259 219.158 111.365 219.072 111.442L217.115 113.246C217.028 113.316 216.919 113.351 216.808 113.345Z" fill="#2855AF"/>
<path d="M195.98 112.813C195.898 112.815 195.816 112.793 195.746 112.75L179.202 102.674C179.146 102.646 179.097 102.607 179.057 102.559C179.017 102.511 178.988 102.455 178.971 102.395C178.953 102.335 178.949 102.272 178.957 102.21C178.966 102.148 178.987 102.089 179.019 102.035C179.052 101.982 179.095 101.936 179.147 101.901C179.198 101.865 179.256 101.84 179.317 101.828C179.378 101.816 179.441 101.817 179.502 101.831C179.563 101.844 179.621 101.87 179.671 101.907L192.571 109.737L184.912 102.521C184.869 102.48 184.834 102.431 184.81 102.376C184.785 102.322 184.772 102.264 184.77 102.204C184.769 102.145 184.779 102.085 184.8 102.03C184.821 101.974 184.853 101.923 184.894 101.88C184.935 101.837 184.984 101.802 185.038 101.778C185.093 101.754 185.151 101.74 185.211 101.738C185.27 101.737 185.329 101.747 185.385 101.768C185.44 101.789 185.491 101.821 185.535 101.862L196.359 112.028C196.442 112.104 196.493 112.209 196.502 112.322C196.51 112.434 196.475 112.545 196.404 112.633C196.359 112.7 196.294 112.754 196.219 112.786C196.144 112.818 196.061 112.827 195.98 112.813V112.813Z" fill="#2855AF"/>
<path d="M240.191 100.355H240.11L226.705 97.9376C226.586 97.9161 226.479 97.8479 226.41 97.7481C226.341 97.6483 226.314 97.525 226.335 97.4054C226.357 97.2858 226.425 97.1796 226.525 97.1103C226.625 97.0409 226.748 97.014 226.868 97.0356L240.272 99.4531C240.389 99.475 240.493 99.5423 240.56 99.6403C240.628 99.7384 240.654 99.8591 240.633 99.9763C240.614 100.081 240.56 100.175 240.48 100.245C240.399 100.314 240.297 100.353 240.191 100.355V100.355Z" fill="#2855AF"/>
<path d="M225.314 100.851C225.195 100.851 225.08 100.803 224.995 100.719C224.911 100.634 224.863 100.52 224.863 100.4C224.863 100.28 224.911 100.166 224.995 100.081C225.08 99.9964 225.195 99.9489 225.314 99.9489L238.845 99.3355C238.905 99.3306 238.965 99.3378 239.021 99.3566C239.078 99.3755 239.13 99.4057 239.175 99.4453C239.22 99.4849 239.256 99.5332 239.281 99.5872C239.307 99.6412 239.321 99.6998 239.323 99.7595C239.326 99.8187 239.316 99.8778 239.296 99.9335C239.276 99.9891 239.244 100.04 239.204 100.084C239.164 100.127 239.115 100.163 239.062 100.187C239.008 100.212 238.95 100.226 238.89 100.229L225.405 100.851H225.314Z" fill="#2855AF"/>
<path d="M252.105 119.317C252.773 119.263 253.44 119.2 254.099 119.109Z" fill="white"/>
<path d="M252.107 119.768C251.988 119.768 251.873 119.72 251.788 119.636C251.704 119.551 251.656 119.436 251.656 119.317C251.656 119.197 251.704 119.083 251.788 118.998C251.873 118.913 251.988 118.866 252.107 118.866C252.766 118.812 253.424 118.74 254.074 118.649C254.193 118.634 254.314 118.666 254.41 118.738C254.506 118.811 254.57 118.918 254.588 119.037C254.603 119.156 254.571 119.275 254.498 119.37C254.426 119.465 254.318 119.527 254.2 119.542C253.533 119.633 252.856 119.705 252.179 119.759L252.107 119.768Z" fill="#2855AF"/>
<path d="M248.229 119.921C241.106 119.787 234.027 118.766 227.157 116.881C227.1 116.864 227.047 116.837 227.001 116.8C226.954 116.763 226.916 116.717 226.888 116.665C226.859 116.613 226.841 116.556 226.835 116.497C226.828 116.438 226.833 116.379 226.85 116.322C226.886 116.208 226.964 116.113 227.068 116.056C227.172 115.999 227.295 115.984 227.409 116.015C227.527 116.015 239.253 119.47 250.259 119.019C250.318 119.015 250.378 119.024 250.434 119.044C250.49 119.064 250.542 119.095 250.586 119.135C250.629 119.176 250.665 119.225 250.689 119.279C250.713 119.333 250.727 119.392 250.728 119.452C250.73 119.511 250.721 119.57 250.7 119.626C250.68 119.682 250.649 119.733 250.608 119.776C250.568 119.82 250.52 119.855 250.466 119.88C250.412 119.905 250.354 119.919 250.295 119.921C249.609 119.912 248.915 119.921 248.229 119.921Z" fill="#2855AF"/>
<path d="M197.758 90.4235C198.797 93.74 199.658 97.1094 200.338 100.518C200.735 103.539 199.273 106.399 201.059 105.93C202.845 105.461 202.773 100.382 202.773 100.382L209.304 101.762L212.2 95.8449C212.2 95.8449 217.558 100.653 217.432 98.2173C217.305 95.7818 211.812 85.3088 211.514 82.8462C211.217 80.3836 208.24 79.8063 206.219 81.5112C204.199 83.216 197.758 90.4235 197.758 90.4235Z" fill="white"/>
<path d="M200.732 106.444C200.613 106.452 200.493 106.436 200.38 106.397C200.267 106.359 200.163 106.298 200.073 106.218C199.577 105.785 199.668 104.947 199.803 103.783C199.959 102.723 199.986 101.647 199.884 100.581C199.205 97.1946 198.35 93.8464 197.322 90.5496L197.25 90.3061L197.412 90.1167C197.683 89.828 203.871 82.9002 205.901 81.1682C206.452 80.6785 207.122 80.3431 207.845 80.1958C208.567 80.0484 209.315 80.0945 210.014 80.3293C210.53 80.5232 210.982 80.8558 211.321 81.2903C211.66 81.7248 211.873 82.2444 211.936 82.7919C212.08 83.8564 213.397 86.8512 214.642 89.7378C216.256 93.3911 217.781 96.828 217.844 98.2082C217.884 98.4185 217.856 98.6364 217.764 98.8296C217.671 99.0228 217.519 99.1812 217.33 99.2816C216.247 99.7868 213.722 97.8112 212.314 96.5754L209.518 102.276L203.204 100.932C203.204 102.466 202.897 105.939 201.147 106.345C201.013 106.393 200.874 106.427 200.732 106.444ZM200.669 105.542C200.76 105.566 200.857 105.566 200.948 105.542C201.941 105.298 202.347 102.403 202.32 100.427V99.8679L209.067 101.293L212.071 95.1502L212.513 95.5561C214.443 97.288 216.518 98.6502 217.023 98.4968C217.023 98.4968 217.023 98.4246 217.023 98.2803C216.96 97.0716 215.327 93.3821 213.893 90.1618C212.522 87.0767 211.187 84.1631 211.079 82.9453C211.038 82.5588 210.889 82.1916 210.65 81.8854C210.411 81.5792 210.091 81.3463 209.725 81.2133C209.178 81.0326 208.593 81 208.029 81.1188C207.465 81.2377 206.942 81.5037 206.514 81.8899C204.71 83.4053 199.298 89.4221 198.296 90.5677C199.322 93.8251 200.162 97.138 200.813 100.49C200.93 101.629 200.902 102.777 200.732 103.909C200.628 104.458 200.628 105.021 200.732 105.569L200.669 105.542Z" fill="#2855AF"/>
<path d="M211.513 82.8461C211.188 80.4376 208.239 79.8061 206.218 81.511C205.935 81.7464 205.664 81.9963 205.406 82.2597L208.266 90.3783L213.786 88.7365C212.854 86.8449 212.093 84.8735 211.513 82.8461V82.8461Z" fill="#7CCCDB"/>
<path opacity="0.5" d="M211.513 82.8461C211.188 80.4376 208.239 79.8061 206.218 81.511C205.935 81.7464 205.664 81.9963 205.406 82.2597L208.266 90.3783L213.786 88.7365C212.854 86.8449 212.093 84.8735 211.513 82.8461V82.8461Z" fill="white"/>
<path d="M189.422 87.8439C191.472 88.851 193.58 89.7336 195.736 90.4869C198.082 91.1995 209.727 104.794 209.321 101.781C208.915 98.7678 208.167 86.9779 207.391 84.2176C206.505 81.57 205.472 78.9741 204.297 76.4418C204.297 76.4418 206.182 75.1609 203.142 73.9341C200.102 72.7073 197.73 75.0617 197.928 76.2704C198.127 77.4792 198.442 80.0861 197.658 80.4019C196.873 80.7176 189.422 87.8439 189.422 87.8439Z" fill="white"/>
<path d="M209.105 102.664C208.203 102.664 206.552 101.149 202.078 96.7197C199.471 94.1308 196.512 91.1991 195.583 90.9194C193.425 90.1475 191.316 89.2438 189.269 88.2133L188.691 87.9336L189.16 87.4826C190.919 85.7957 196.72 80.2661 197.523 79.9414C197.649 79.8512 197.91 79.3099 197.523 76.3331C197.523 75.8803 197.638 75.4349 197.855 75.0378C198.073 74.6407 198.386 74.3044 198.767 74.0599C199.411 73.564 200.176 73.2511 200.983 73.1542C201.79 73.0574 202.607 73.1802 203.35 73.5097C204.622 74.0328 205.28 74.6372 205.352 75.3589C205.367 75.581 205.333 75.8037 205.252 76.0111C205.171 76.2184 205.045 76.4054 204.883 76.5586C206.026 79.0104 207.02 81.5287 207.86 84.0999C208.383 85.9671 208.889 91.7313 209.294 96.3679C209.502 98.6952 209.673 100.707 209.809 101.717C209.881 102.285 209.619 102.511 209.457 102.619C209.346 102.666 209.224 102.682 209.105 102.664V102.664ZM190.207 87.7171C192.038 88.6077 193.921 89.3879 195.845 90.0535C196.909 90.3782 199.146 92.5431 202.709 96.0702C204.883 98.2261 207.788 101.104 208.843 101.663C208.708 100.599 208.537 98.6591 208.338 96.4491C207.941 91.8486 207.436 86.1295 206.94 84.3434C206.063 81.717 205.039 79.142 203.873 76.6308L203.711 76.279L204.026 76.0625C204.135 75.9903 204.432 75.7197 204.405 75.4491C204.378 75.1785 204.207 74.8537 202.962 74.3486C202.365 74.0764 201.706 73.9721 201.054 74.0468C200.402 74.1215 199.783 74.3724 199.264 74.7725C199.015 74.9288 198.805 75.1388 198.649 75.387C198.493 75.6353 198.395 75.9154 198.362 76.2068C198.704 78.7867 198.731 80.4555 197.811 80.8164C197.306 81.0599 193.608 84.4697 190.207 87.7171V87.7171Z" fill="#2855AF"/>
<path d="M207.373 84.2176C206.487 81.57 205.454 78.9741 204.279 76.4418C204.279 76.4418 206.164 75.1609 203.124 73.9341C200.084 72.7073 197.712 75.0617 197.91 76.2704C198.108 77.4792 198.424 80.0861 197.639 80.4019C197.125 80.6003 193.679 83.8117 191.415 85.9495L191.145 87.6093L208.239 90.4147C208.082 88.3327 207.793 86.2627 207.373 84.2176Z" fill="#7CCCDB"/>
<path opacity="0.5" d="M207.373 84.2176C206.487 81.57 205.454 78.9741 204.279 76.4418C204.279 76.4418 206.164 75.1609 203.124 73.9341C200.084 72.7073 197.712 75.0617 197.91 76.2704C198.108 77.4792 198.424 80.0861 197.639 80.4019C197.125 80.6003 193.679 83.8117 191.415 85.9495L191.145 87.6093L208.239 90.4147C208.082 88.3327 207.793 86.2627 207.373 84.2176Z" fill="white"/>
<path d="M182.557 63.4474L182.595 63.4544L182.634 63.4553L187.461 63.5776C187.404 64.4238 187.286 65.2649 187.106 66.0941C187.047 66.2938 187.052 66.5005 187.08 66.6849C187.11 66.882 187.171 67.0874 187.248 67.2906C187.403 67.6966 187.642 68.1442 187.91 68.5826C188.448 69.4613 189.142 70.3658 189.641 70.9347C189.969 71.3091 190.222 71.7041 190.507 72.1489C190.615 72.3184 190.728 72.4952 190.852 72.6808C191.289 73.3358 191.819 74.0324 192.656 74.6954C194.419 76.0918 196.474 75.5727 198.198 75.1371L198.257 75.122C198.682 75.0148 198.856 75.0157 198.917 75.0262C198.923 75.0333 198.931 75.0448 198.943 75.0625C198.951 75.0739 198.96 75.0883 198.971 75.1053C199.035 75.2066 199.156 75.3979 199.354 75.5647C199.594 75.7679 199.924 75.9258 200.403 76.0282C201.239 76.2072 202.186 76.4314 202.925 76.6114C203.294 76.7013 203.611 76.78 203.835 76.8361C203.947 76.8642 204.036 76.8867 204.097 76.9021L204.167 76.9197L204.185 76.9243L204.189 76.9254L204.19 76.9257L204.19 76.9258L204.19 76.9258L204.57 77.0227L204.755 76.6772L204.314 76.4413L204.755 76.6771L204.755 76.677L204.755 76.6763L204.757 76.6737L204.762 76.6632L204.785 76.6219L204.87 76.4629C204.944 76.3248 205.052 76.1249 205.185 75.8782C205.452 75.3848 205.821 74.7042 206.233 73.9557C207.058 72.4552 208.044 70.6928 208.709 69.6133C209.105 68.9695 209.395 67.8078 209.57 66.4605C209.749 65.0873 209.818 63.4413 209.726 61.7713C209.635 60.103 209.383 58.3929 208.911 56.8983C208.441 55.4126 207.737 54.0857 206.704 53.2486C204.678 51.6088 201.922 51.6265 199.494 51.9776C198.447 52.129 197.427 52.3484 196.523 52.5429C196.369 52.5759 196.219 52.6083 196.072 52.6395C195.036 52.8598 194.229 53.011 193.686 52.9931C193.205 52.9773 192.768 52.7841 192.308 52.4552C191.931 52.1858 191.573 51.8517 191.174 51.4799C191.072 51.3852 190.968 51.288 190.86 51.1888C189.828 50.2396 188.553 49.192 186.608 49.2223C184.767 49.251 183.026 49.8646 181.432 50.6519C180.246 51.2377 179.11 51.9367 178.068 52.5777C177.717 52.7937 177.377 53.003 177.05 53.1992C175.609 54.0615 174.617 55.4776 174.328 56.939C174.037 58.4182 174.471 59.9628 175.904 60.9498L175.918 60.9594L175.933 60.968C177.976 62.1806 180.219 63.0202 182.557 63.4474Z" fill="#2855AF" stroke="white"/>
<path d="M204.514 76.9648L204.171 76.8746C204.171 76.8746 202.06 76.3424 200.373 75.9725C200.089 75.9347 199.817 75.8341 199.577 75.6781C199.337 75.5221 199.134 75.3145 198.984 75.0705L198.903 74.9532C198.667 74.9356 198.43 74.9694 198.208 75.0524C196.35 75.5125 194.429 75.9545 192.661 74.6375C191.787 73.9433 191.058 73.0853 190.514 72.1117C190.247 71.6762 189.945 71.2629 189.612 70.8759C189.612 70.8759 186.617 67.439 187.095 66.0499C187.295 65.2155 187.413 64.3635 187.447 63.506L182.512 63.4068C180.163 62.9912 177.909 62.1473 175.864 60.9171C175.334 60.5641 174.904 60.079 174.618 59.5096C174.332 58.9402 174.198 58.3061 174.232 57.6697C174.3 56.7613 174.589 55.8834 175.075 55.1128C175.561 54.3423 176.228 53.7025 177.019 53.2496L178.083 52.6001C180.582 51.0666 183.405 49.3346 186.545 49.2805C188.592 49.2354 189.927 50.4532 191.055 51.5086C191.957 52.3205 192.67 53.0151 193.617 53.0511C194.582 52.9949 195.54 52.8438 196.476 52.6001C199.57 51.9326 203.81 51.0215 206.606 53.2947C210.413 56.3888 210.088 67.1323 208.6 69.595C207.283 71.787 204.667 76.613 204.64 76.6671L204.514 76.9648ZM198.813 74.0421C198.997 74.0381 199.178 74.0847 199.337 74.177C199.496 74.2693 199.627 74.4037 199.715 74.5653C199.841 74.7638 199.958 74.9442 200.545 75.0795C201.826 75.3682 203.359 75.747 204.027 75.9184C204.631 74.8089 206.733 71.0112 207.842 69.1259C209.15 66.9519 209.385 56.7045 206.038 53.9803C203.576 51.9867 199.579 52.8437 196.666 53.4751C195.659 53.7343 194.628 53.8914 193.59 53.9442C192.309 53.9442 191.362 53.0421 190.442 52.14C189.395 51.1568 188.304 50.1465 186.617 50.1465H186.554C183.658 50.1465 180.943 51.8604 178.543 53.3308L177.47 53.9893C176.808 54.3643 176.248 54.896 175.839 55.5376C175.43 56.1792 175.185 56.9113 175.125 57.6697C175.097 58.1547 175.198 58.6383 175.416 59.0722C175.635 59.506 175.963 59.8747 176.369 60.1414C178.298 61.2839 180.415 62.075 182.621 62.4777L188.394 62.5859V63.055C188.359 64.1488 188.217 65.2365 187.97 66.3024C187.808 66.7625 188.971 68.72 190.315 70.2445C190.665 70.6728 190.984 71.1249 191.271 71.5975C191.762 72.4779 192.418 73.2558 193.202 73.8888C194.627 74.9713 196.251 74.5653 197.983 74.1414C198.255 74.0762 198.533 74.0429 198.813 74.0421V74.0421Z" fill="#2855AF"/>
<path d="M206.1 66.0861C205.985 66.0854 205.875 66.0401 205.793 65.9598C202.185 62.4778 193.164 61.6299 193.065 61.6209C192.944 61.6094 192.833 61.5509 192.756 61.458C192.678 61.3652 192.64 61.2454 192.65 61.1247C192.666 61.0068 192.726 60.8992 192.818 60.8238C192.91 60.7484 193.027 60.7109 193.146 60.7188C193.525 60.7188 202.555 61.6209 206.415 65.3103C206.457 65.3515 206.491 65.4006 206.514 65.4548C206.536 65.509 206.548 65.5672 206.548 65.626C206.548 65.6848 206.536 65.743 206.514 65.7973C206.491 65.8515 206.457 65.9006 206.415 65.9417C206.376 65.9863 206.327 66.0221 206.273 66.0469C206.218 66.0718 206.16 66.0851 206.1 66.0861Z" fill="white"/>
<path d="M205.894 69.4143C205.839 69.4155 205.784 69.4057 205.733 69.3855C205.682 69.3654 205.635 69.3353 205.596 69.2971C205.031 68.8045 204.428 68.358 203.792 67.962C203.706 67.8913 203.649 67.792 203.631 67.6825C203.613 67.573 203.635 67.4606 203.693 67.3661C203.752 67.2717 203.842 67.2014 203.948 67.1683C204.054 67.1353 204.168 67.1416 204.27 67.1862C204.96 67.6107 205.615 68.0904 206.227 68.6205C206.298 68.6807 206.348 68.7611 206.371 68.8507C206.394 68.9404 206.389 69.035 206.357 69.1217C206.324 69.2084 206.266 69.283 206.189 69.3353C206.113 69.3877 206.022 69.4153 205.93 69.4143H205.894Z" fill="white"/>
<path d="M201.157 66.6184C201.1 66.627 201.042 66.627 200.985 66.6184C198.434 65.6342 195.76 65.003 193.038 64.7421C192.979 64.7386 192.921 64.7235 192.867 64.6976C192.814 64.6717 192.766 64.6355 192.727 64.5911C192.687 64.5467 192.657 64.4949 192.638 64.4388C192.619 64.3827 192.61 64.3233 192.614 64.264C192.617 64.2043 192.633 64.1458 192.66 64.0922C192.686 64.0386 192.723 63.991 192.769 63.9522C192.814 63.9134 192.867 63.8843 192.924 63.8665C192.982 63.8488 193.042 63.8429 193.101 63.8491C195.917 64.1049 198.684 64.7547 201.319 65.7795C201.439 65.801 201.545 65.8692 201.614 65.969C201.684 66.0688 201.71 66.1921 201.689 66.3117C201.667 66.4313 201.599 66.5375 201.499 66.6068C201.4 66.6762 201.276 66.7031 201.157 66.6815V66.6184Z" fill="white"/>
<path d="M205.017 62.9104C204.946 62.9109 204.876 62.8939 204.813 62.8608C204.75 62.8278 204.696 62.7798 204.656 62.721C203.979 61.9009 203.157 61.2129 202.23 60.6914C202.129 60.6293 202.057 60.5302 202.029 60.4153C202 60.3005 202.018 60.1791 202.079 60.0774C202.139 59.9757 202.237 59.9017 202.351 59.8715C202.466 59.8412 202.587 59.8571 202.69 59.9156C203.736 60.4908 204.656 61.2699 205.396 62.2068C205.43 62.2546 205.455 62.3087 205.468 62.3661C205.481 62.4234 205.483 62.4828 205.473 62.5408C205.463 62.5988 205.441 62.6542 205.409 62.7037C205.378 62.7532 205.336 62.7959 205.288 62.8293C205.209 62.8858 205.114 62.9144 205.017 62.9104V62.9104Z" fill="white"/>
<path d="M181.924 60.953C181.262 60.9581 180.613 60.77 180.056 60.4118C179.737 60.2383 179.466 59.9871 179.268 59.6812C179.071 59.3753 178.955 59.0247 178.929 58.6618C178.83 56.8577 181.157 54.9363 181.428 54.7288C181.521 54.655 181.64 54.6212 181.758 54.6348C181.876 54.6483 181.985 54.708 182.059 54.8009C182.131 54.8967 182.164 55.0164 182.15 55.1355C182.137 55.2546 182.078 55.3641 181.987 55.4414C181.364 55.9285 179.768 57.453 179.831 58.6167C179.852 58.8347 179.928 59.0437 180.053 59.2238C180.178 59.4038 180.347 59.5489 180.544 59.645C181.707 60.3757 182.853 60.0058 184.747 59.3744C187.618 58.3408 190.644 57.8039 193.696 57.7868C196.225 57.7238 198.74 58.1845 201.083 59.1399C201.192 59.1875 201.277 59.2755 201.32 59.3851C201.364 59.4948 201.363 59.6172 201.318 59.7262C201.27 59.8365 201.181 59.9238 201.07 59.9693C200.959 60.0148 200.834 60.015 200.723 59.9698C198.498 59.0584 196.108 58.6221 193.705 58.6888C190.745 58.7036 187.81 59.2253 185.027 60.2314C184.036 60.6318 182.989 60.8753 181.924 60.953V60.953Z" fill="white"/>
<path d="M181.015 61.7286C181.015 61.7286 179.211 68.1513 179.545 69.0984C179.903 70.1308 180.181 71.1894 180.375 72.2647L177.867 76.4863C177.867 76.4863 178.291 78.074 179.121 78.1642C180.115 78.4622 181.067 78.8867 181.954 79.427C181.954 79.427 184.371 88.3214 185.228 88.61C186.085 88.8987 188.06 89.8729 188.836 89.3588C189.612 88.8446 198.759 82.3046 199.841 81.3394C200.924 80.3742 200.5 75.5121 200.5 75.5121C200.5 75.5121 203.314 72.0662 202.187 69.7569C201.059 67.4477 198.497 68.2054 197.676 69.9464C196.856 71.6874 196.585 72.5533 196.585 72.5533C196.585 72.5533 194.627 73.2209 194.267 72.0392L193.906 70.8665C193.906 70.8665 190.478 68.2505 190.397 67.6461C190.316 67.0417 191.524 60.7363 191.524 60.7363L181.015 61.7286Z" fill="white"/>
<path d="M188.22 89.9634C187.33 89.8738 186.461 89.636 185.65 89.2598L185.081 89.0343C184.369 88.7907 183.178 85.6606 181.563 79.725C180.783 79.2458 179.943 78.8727 179.065 78.6155C177.955 78.4892 177.486 76.8114 177.432 76.6039L177.387 76.4235L179.903 72.1748C179.714 71.1856 179.451 70.2118 179.119 69.2611C178.731 68.2508 180.138 63.1451 180.58 61.6116L180.67 61.3139L192.09 60.2314L191.973 60.8178C191.486 63.3616 190.818 67.1322 190.854 67.5923C191.867 68.6695 192.981 69.6454 194.183 70.5059L194.3 70.5961L194.706 71.9132C194.722 71.973 194.751 72.0287 194.789 72.0769C194.828 72.1251 194.877 72.1646 194.932 72.1928C195.36 72.3284 195.82 72.3284 196.249 72.1928C196.384 71.832 196.7 71.0291 197.268 69.7753C197.509 69.2299 197.898 68.7628 198.391 68.4266C198.883 68.0903 199.46 67.8982 200.056 67.8719C200.592 67.883 201.115 68.0489 201.56 68.3497C202.005 68.6506 202.353 69.0736 202.563 69.5678C203.682 71.85 201.481 74.9802 200.94 75.6657C201.03 76.8114 201.255 80.6812 200.11 81.6825C198.964 82.6838 189.817 89.2237 189.059 89.7469C188.807 89.9002 188.515 89.9755 188.22 89.9634V89.9634ZM178.361 76.5498C178.523 77.0639 178.866 77.6864 179.164 77.7134C180.224 78.0167 181.237 78.4628 182.177 79.0395L182.33 79.1296L182.384 79.3101C183.476 83.3423 184.919 87.7804 185.433 88.2134C185.618 88.2703 185.799 88.3396 185.974 88.4209C186.678 88.6915 188.139 89.2688 188.554 88.9892C189.303 88.484 198.477 81.9351 199.514 80.9969C200.155 80.4376 200.2 77.4789 200.019 75.5846V75.4041L200.137 75.2598C200.137 75.2598 202.762 72.0034 201.769 69.9827C201.644 69.6355 201.415 69.3351 201.113 69.1222C200.812 68.9093 200.452 68.794 200.083 68.792C199.659 68.8181 199.251 68.9597 198.903 69.2014C198.555 69.4432 198.28 69.7758 198.107 70.1632C197.34 71.859 197.043 72.716 197.034 72.725L196.97 72.9325L196.754 73.0047C196.04 73.2608 195.258 73.2608 194.544 73.0047C194.38 72.9216 194.234 72.806 194.117 72.6648C193.999 72.5237 193.911 72.36 193.858 72.1838L193.543 71.1464C191.242 69.3423 190.052 68.2237 189.979 67.7095C190.209 65.5407 190.549 63.3849 190.999 61.2508L181.383 62.1528C180.562 65.0665 179.804 68.4132 179.985 68.9364C180.367 69.9943 180.669 71.0799 180.887 72.1838V72.3461L178.361 76.5498Z" fill="#2855AF"/>
<path d="M202.16 69.7569C201.032 67.4567 198.47 68.2054 197.649 69.9464C196.828 71.6874 196.558 72.5533 196.558 72.5533C196.558 72.5533 194.6 73.2209 194.24 72.0392L193.879 70.8665C193.879 70.8665 190.451 68.2505 190.37 67.6461C190.289 67.0417 191.497 60.7363 191.497 60.7363L188.385 61.034C186.996 64.534 185.796 68.3678 186.509 69.8021C187.943 72.6706 189.386 74.1049 189.386 76.1165C189.386 78.1281 190.532 79.851 190.821 81.574C191.046 82.9541 188.701 87.6448 187.754 89.458C188.094 89.5515 188.457 89.5162 188.773 89.3588C189.522 88.8536 198.696 82.3046 199.778 81.3394C200.861 80.3742 200.437 75.5121 200.437 75.5121C200.437 75.5121 203.287 72.0662 202.16 69.7569Z" fill="#7CCCDB"/>
<path opacity="0.5" d="M202.16 69.7569C201.032 67.4567 198.47 68.2054 197.649 69.9464C196.828 71.6874 196.558 72.5533 196.558 72.5533C196.558 72.5533 194.6 73.2209 194.24 72.0392L193.879 70.8665C193.879 70.8665 190.451 68.2505 190.37 67.6461C190.289 67.0417 191.497 60.7363 191.497 60.7363L188.385 61.034C186.996 64.534 185.796 68.3678 186.509 69.8021C187.943 72.6706 189.386 74.1049 189.386 76.1165C189.386 78.1281 190.532 79.851 190.821 81.574C191.046 82.9541 188.701 87.6448 187.754 89.458C188.094 89.5515 188.457 89.5162 188.773 89.3588C189.522 88.8536 198.696 82.3046 199.778 81.3394C200.861 80.3742 200.437 75.5121 200.437 75.5121C200.437 75.5121 203.287 72.0662 202.16 69.7569Z" fill="white"/>
<path d="M114.263 84.7861C114.263 84.7861 110.456 86.933 108.923 87.7539C107.389 88.5748 105.152 88.656 105.892 89.558C106.632 90.4601 110.727 88.9176 110.727 88.9176C110.727 88.9176 115.436 88.9176 117.24 88.656C117.777 88.5701 118.282 88.3439 118.703 88.0001C119.124 87.6564 119.447 87.2073 119.639 86.6985" fill="white"/>
<path d="M106.874 90.324C106.631 90.3521 106.384 90.3262 106.152 90.2483C105.92 90.1703 105.707 90.0422 105.53 89.8729C105.428 89.7616 105.356 89.6265 105.319 89.4799C105.283 89.3334 105.284 89.18 105.323 89.034C105.485 88.4838 106.225 88.2582 107.127 87.9786C107.684 87.8153 108.227 87.6072 108.75 87.3562C110.257 86.5443 114.037 84.4155 114.073 84.3884C114.178 84.3295 114.302 84.3145 114.419 84.3466C114.535 84.3787 114.635 84.4552 114.695 84.5598C114.753 84.6639 114.768 84.7869 114.736 84.9019C114.704 85.0169 114.628 85.1145 114.524 85.1732C114.479 85.1732 110.69 87.3381 109.174 88.15C108.594 88.4306 107.99 88.66 107.37 88.8356C106.977 88.943 106.596 89.0911 106.234 89.2776V89.2776C106.513 89.6294 108.57 89.2776 110.555 88.4928C110.605 88.4835 110.657 88.4835 110.708 88.4928C110.762 88.4928 115.408 88.4928 117.176 88.2402C117.63 88.1657 118.056 87.9732 118.413 87.6819C118.769 87.3905 119.042 87.0107 119.205 86.5804C119.225 86.5241 119.255 86.4723 119.295 86.4278C119.335 86.3833 119.382 86.347 119.436 86.321C119.49 86.2951 119.548 86.2799 119.607 86.2764C119.667 86.2729 119.726 86.2812 119.783 86.3008C119.839 86.3203 119.891 86.3507 119.935 86.3903C119.98 86.4299 120.016 86.4779 120.042 86.5315C120.068 86.5851 120.083 86.6433 120.087 86.7028C120.09 86.7623 120.082 86.8218 120.062 86.8781C119.841 87.4649 119.468 87.9827 118.981 88.3788C118.495 88.7749 117.913 89.0352 117.293 89.1332C115.588 89.3588 111.457 89.3948 110.798 89.3948C109.547 89.9081 108.223 90.2216 106.874 90.324V90.324Z" fill="#2855AF"/>
<path d="M268.088 240.121L267.655 248.826L262.135 260.255C261.774 260.986 262.432 262.492 264.155 261.807C265.878 261.121 269.522 257.675 271.579 256.033C273.636 254.392 276.73 250.341 278.597 248.952C280.464 247.563 282.557 244.559 282.467 243.883C282.377 243.206 272.409 234.988 272.409 234.988L268.088 240.121Z" fill="#7CCCDB"/>
<path d="M263.345 262.429C263.059 262.436 262.776 262.372 262.522 262.242C262.268 262.112 262.05 261.92 261.889 261.684C261.728 261.447 261.63 261.174 261.602 260.89C261.574 260.606 261.618 260.319 261.73 260.056C262.064 259.361 266.728 249.7 267.215 248.708L267.639 240.093C267.64 239.995 267.675 239.899 267.738 239.823L272.059 234.699C272.137 234.608 272.248 234.552 272.368 234.542C272.488 234.532 272.607 234.569 272.699 234.645C282.802 242.98 282.893 243.612 282.92 243.828C283.046 244.73 280.701 247.95 278.869 249.313C277.637 250.374 276.488 251.529 275.432 252.767C274.315 254.052 273.109 255.258 271.824 256.376C271.238 256.845 270.534 257.449 269.777 258.099C267.819 259.785 265.6 261.707 264.292 262.212C263.993 262.343 263.671 262.417 263.345 262.429V262.429ZM268.532 240.292L268.108 248.843C268.107 248.903 268.091 248.962 268.063 249.015L262.542 260.453C262.493 260.592 262.483 260.743 262.514 260.887C262.544 261.032 262.613 261.166 262.713 261.274C262.984 261.572 263.426 261.608 263.994 261.382C265.158 260.922 267.413 258.983 269.226 257.431C269.993 256.773 270.706 256.15 271.301 255.681C272.535 254.589 273.693 253.414 274.765 252.163C275.851 250.864 277.043 249.657 278.328 248.555C279.894 247.32 281.156 245.743 282.018 243.945C281.422 243.115 276.028 238.533 272.465 235.583L268.532 240.292Z" fill="#2855AF"/>
<path d="M278.599 248.952C280.458 247.562 282.559 244.559 282.469 243.882C282.145 243.404 281.75 242.978 281.297 242.619C279.943 244.108 277.237 247.084 274.829 249.682C272.123 252.623 265.105 259.253 262.516 261.689C262.751 261.86 263.029 261.962 263.32 261.983C263.61 262.004 263.9 261.942 264.157 261.806C265.889 261.12 269.525 257.675 271.581 256.033C273.638 254.391 276.732 250.386 278.599 248.952Z" fill="#2855AF"/>
<path d="M263.361 262.42C262.952 262.427 262.552 262.29 262.234 262.032C262.184 261.991 262.143 261.94 262.113 261.883C262.084 261.825 262.067 261.763 262.062 261.698C262.064 261.569 262.116 261.447 262.207 261.355C265.012 258.712 271.814 252.263 274.493 249.376C276.901 246.796 279.58 243.846 280.961 242.313C281 242.268 281.049 242.232 281.103 242.208C281.158 242.183 281.217 242.169 281.276 242.168C281.336 242.166 281.395 242.175 281.45 242.195C281.506 242.215 281.557 242.246 281.601 242.286C282.783 243.386 282.891 243.612 282.918 243.828C283.044 244.73 280.699 247.951 278.868 249.313C277.635 250.375 276.486 251.53 275.431 252.768C274.313 254.052 273.107 255.258 271.823 256.376C271.236 256.845 270.533 257.449 269.775 258.099C267.818 259.786 265.599 261.707 264.291 262.212C263.996 262.336 263.681 262.406 263.361 262.42V262.42ZM263.361 261.518C263.587 261.525 263.81 261.476 264.011 261.373C265.175 260.913 267.43 258.974 269.243 257.422C270.01 256.764 270.722 256.141 271.318 255.672C272.552 254.581 273.709 253.405 274.782 252.154C275.868 250.855 277.059 249.648 278.345 248.546C279.902 247.306 281.162 245.735 282.034 243.945C281.816 243.689 281.584 243.445 281.34 243.215C279.887 244.82 277.407 247.536 275.169 249.944C272.617 252.723 266.401 258.64 263.343 261.527L263.361 261.518Z" fill="#2855AF"/>
<path d="M279.465 202.649L284.264 207.926L291.796 223.324C291.796 223.324 293.672 223.757 294.502 223.189C295.332 222.62 293.916 203.479 293.528 200.574C293.14 197.669 293.654 196.461 292.446 195.937C291.237 195.414 280.764 197.047 280.764 197.047L279.465 202.649Z" fill="#7CCCDB"/>
<path d="M293.167 223.911C292.666 223.906 292.168 223.848 291.679 223.739C291.612 223.725 291.55 223.695 291.497 223.653C291.444 223.611 291.401 223.557 291.372 223.496L283.885 208.161L279.167 202.956C279.117 202.902 279.081 202.837 279.062 202.766C279.043 202.695 279.042 202.621 279.059 202.55L280.358 196.912C280.376 196.823 280.421 196.742 280.488 196.681C280.554 196.62 280.638 196.58 280.728 196.569C282.532 196.298 291.39 194.945 292.653 195.496C293.736 195.965 293.772 196.849 293.817 198.202C293.817 198.806 293.871 199.564 293.997 200.484C293.997 200.7 296.099 222.639 294.782 223.541C294.292 223.82 293.73 223.949 293.167 223.911V223.911ZM292.085 222.9C292.773 223.063 293.492 223.041 294.169 222.837C294.701 221.195 293.528 204.047 293.068 200.601C292.966 199.817 292.906 199.028 292.888 198.238C292.824 196.858 292.77 196.542 292.265 196.325C291.598 196.037 286.131 196.65 281.125 197.417L279.952 202.523L284.598 207.619L284.67 207.728L292.085 222.9Z" fill="#2855AF"/>
<path d="M292.437 195.911C291.97 195.803 291.489 195.769 291.012 195.812C291.607 201.134 293.114 214.529 293.492 217.38C293.711 219.39 293.754 221.415 293.619 223.433C293.937 223.419 294.247 223.326 294.521 223.162C295.351 222.603 293.934 203.452 293.547 200.547C293.159 197.643 293.646 196.434 292.437 195.911Z" fill="#2855AF"/>
<path d="M293.601 223.884C293.483 223.883 293.371 223.838 293.285 223.758C293.239 223.712 293.203 223.657 293.18 223.596C293.156 223.536 293.146 223.471 293.15 223.406C293.284 221.418 293.242 219.423 293.023 217.443C292.645 214.593 291.165 201.405 290.552 195.866C290.542 195.805 290.546 195.743 290.564 195.684C290.581 195.624 290.611 195.57 290.651 195.523C290.737 195.428 290.857 195.37 290.985 195.361C291.527 195.296 292.076 195.342 292.599 195.496V195.496C293.682 195.965 293.718 196.849 293.763 198.202C293.763 198.807 293.817 199.564 293.944 200.484C293.944 200.701 296.045 222.639 294.728 223.541C294.4 223.739 294.029 223.857 293.646 223.884H293.601ZM291.517 196.263C292.166 202.045 293.565 214.566 293.934 217.326C294.147 219.164 294.202 221.017 294.097 222.865H294.169C294.701 221.223 293.529 204.075 293.069 200.629C292.967 199.845 292.907 199.056 292.888 198.265C292.825 196.885 292.771 196.569 292.266 196.353C292.023 196.283 291.77 196.252 291.517 196.263Z" fill="#2855AF"/>
</svg>
