<svg width="55" height="55" viewBox="0 0 55 55" fill="none" xmlns="http://www.w3.org/2000/svg">
<path d="M50.9901 25.358L39.7112 18.833C39.6507 18.8028 39.5878 18.7806 39.5236 18.7647L28.6187 12.4944L4.47634 0.096951C4.38504 0.06043 4.29374 0.0349727 4.20372 0.0199347C4.10565 -0.00208528 4.00382 -0.00584479 3.90017 0.0109119C3.7703 0.0258425 3.64774 0.066123 3.53711 0.131324C3.23151 0.261403 3.07812 0.598147 3.07812 0.935751V54.0677C3.07812 54.4406 3.2646 54.7203 3.5442 54.9066C3.63743 54.9999 3.8238 54.9999 4.01027 54.9999C4.19674 54.9999 4.28987 54.9999 4.47634 54.9066L28.6187 41.4838L39.23 35.331C39.2351 35.3311 39.2399 35.3316 39.2451 35.3316C39.4316 35.3316 39.5247 35.2384 39.7112 35.052C39.7925 35.0248 39.8648 34.9807 39.9281 34.9266L50.9902 28.527C51.5495 28.2474 51.9223 27.5949 51.9223 26.9423C51.9223 26.2898 51.5494 25.7308 50.9901 25.358ZM4.94241 2.74995L30.5631 27.0235L4.94241 51.7903V2.74995ZM37.7537 19.8583L34.5017 23.1627L31.9701 25.7268L20.7421 15.2908L9.61204 4.90279L27.6866 14.0791L37.7537 19.8583ZM27.6866 39.8993L9.77521 49.7782L26.7544 33.3651L31.9702 28.3449L37.7017 34.1499L27.6866 39.8993ZM39.4016 33.1516L33.3639 27.0364L39.4361 20.8863L50.058 27.0358L39.4016 33.1516Z" fill="#2855AF"/>
<path d="M20.7414 15.2908L31.9693 25.7268L33.3632 27.0364L39.4009 33.1516L37.701 34.1499L31.9694 28.3449L4.94922 2.75L9.61133 4.90273L20.7414 15.2908Z" fill="#7CCCDB"/>
</svg>
