<svg width="55" height="55" viewBox="0 0 55 55" fill="none" xmlns="http://www.w3.org/2000/svg">
<path d="M5.58984 21.7785C5.58984 20.4328 6.6808 19.3418 8.02654 19.3418C9.37227 19.3418 10.4632 20.4328 10.4632 21.7785V37.8164C10.4632 39.1621 9.37227 40.2531 8.02654 40.2531C6.6808 40.2531 5.58984 39.1621 5.58984 37.8164V21.7785Z" stroke="#7CCCDB" stroke-width="2"/>
<path d="M44.5391 21.7785C44.5391 20.4328 45.63 19.3418 46.9758 19.3418C48.3216 19.3418 49.4125 20.4327 49.4125 21.7785V37.8164C49.4125 39.1621 48.3215 40.2531 46.9758 40.2531C45.63 40.2531 44.5391 39.1621 44.5391 37.8164V21.7785Z" stroke="#7CCCDB" stroke-width="2"/>
<path d="M14.7559 37.8164V37.8166C14.7554 40.0636 16.3365 42.0004 18.5382 42.4499L19.3382 42.6132V43.4297V51.5631C19.3382 52.9089 20.4291 53.9998 21.7748 53.9998C23.1206 53.9998 24.2115 52.9089 24.2115 51.5631V43.5442V42.5442H25.2115H29.7938H30.7938V43.5442V51.5631C30.7938 52.9089 31.8848 53.9998 33.2305 53.9998C34.5763 53.9998 35.6672 52.9089 35.6672 51.5631V43.4297V42.6132L36.4672 42.4499C38.6689 42.0004 40.25 40.0636 40.2495 37.8166V37.8164V19.4876L14.7559 37.8164ZM14.7559 37.8164V19.4874C14.7559 19.407 14.8211 19.3418 14.9015 19.3418H40.1038M14.7559 37.8164L40.1038 19.3418M40.1038 19.3418C40.1841 19.3418 40.2494 19.4069 40.2495 19.4874L40.1038 19.3418Z" stroke="#2855AF" stroke-width="2"/>
<path d="M34.256 4.91834L35.1223 4.05275L37.9152 1.26216L37.9211 1.25619L37.9272 1.25033C37.985 1.19447 37.9867 1.10226 37.9307 1.04429C37.8749 0.986709 37.783 0.985017 37.7251 1.04072C37.725 1.04079 37.7249 1.04086 37.7249 1.04093L37.7213 1.04454L37.7153 1.05071L37.7092 1.05678L34.4559 4.31025L33.9746 4.79154L33.3503 4.52036C29.6198 2.89985 25.3841 2.89985 21.6536 4.52036L21.0291 4.79164L20.5478 4.31001L17.3036 1.06347C17.2458 1.01104 17.1562 1.01349 17.1012 1.07028L34.256 4.91834ZM34.256 4.91834L35.2773 5.59411M34.256 4.91834L35.2773 5.59411M35.2773 5.59411C38.3979 7.65896 40.267 11.1583 40.2477 14.9V14.9052C40.2477 14.9855 40.1825 15.0508 40.1021 15.0508H14.8997C14.8193 15.0508 14.7541 14.9855 14.7541 14.9052L14.7541 14.9C14.7347 11.1582 16.6037 7.65885 19.7244 5.594L20.7448 4.91879M35.2773 5.59411L20.7448 4.91879M20.7448 4.91879L19.8799 4.05322M20.7448 4.91879L19.8799 4.05322M19.8799 4.05322L17.0982 1.26919C17.0469 1.21279 17.0478 1.12579 17.1012 1.07034L19.8799 4.05322Z" stroke="#2855AF" stroke-width="2"/>
<path d="M21.7706 11.4684C22.4033 11.4684 22.9162 10.9555 22.9162 10.3228C22.9162 9.69015 22.4033 9.17725 21.7706 9.17725C21.1379 9.17725 20.625 9.69015 20.625 10.3228C20.625 10.9555 21.1379 11.4684 21.7706 11.4684Z" fill="#2855AF"/>
<path d="M33.2257 11.4684C33.8584 11.4684 34.3713 10.9555 34.3713 10.3228C34.3713 9.69015 33.8584 9.17725 33.2257 9.17725C32.593 9.17725 32.0801 9.69015 32.0801 10.3228C32.0801 10.9555 32.593 11.4684 33.2257 11.4684Z" fill="#2855AF"/>
</svg>
