<svg width="55" height="55" viewBox="0 0 55 55" fill="none" xmlns="http://www.w3.org/2000/svg">
<g clip-path="url(#clip0)">
<path d="M37.2824 54.9996C34.9775 55.0201 32.7003 54.4956 30.6366 53.4688C29.8594 53.0402 29.0003 52.7808 28.1157 52.7079C27.2312 52.7808 26.3721 53.0402 25.5949 53.4688C23.5312 54.4955 21.254 55.02 18.9491 54.9996C12.9083 54.9996 5.19922 41.5064 5.19922 30.9373C5.19922 19.816 13.5156 13.75 17.8032 13.75C19.8598 13.8481 21.8865 14.2824 23.8028 15.0356C25.1804 15.5899 26.635 15.9291 28.1156 16.0416C29.5963 15.9291 31.0509 15.5898 32.4285 15.0356C34.3447 14.2824 36.3713 13.8481 38.428 13.75C42.5111 14.3841 46.0717 16.8704 48.0736 20.4852C48.4134 21.019 48.2564 21.7272 47.7226 22.0672C47.6391 22.1203 47.5491 22.1625 47.4548 22.1925C43.2553 23.5076 40.917 27.978 42.232 32.1776C43.1602 35.142 45.7266 37.2967 48.8069 37.6978C49.4338 37.7841 49.872 38.3623 49.7857 38.9892C49.7778 39.0469 49.7654 39.104 49.7488 39.1599C47.4825 46.7772 42.0742 54.9996 37.2824 54.9996ZM28.1158 50.4163C29.3268 50.4751 30.5096 50.8022 31.5786 51.3742C33.3469 52.2654 35.3022 52.7226 37.2825 52.7079C39.9958 52.7079 44.6433 47.2195 47.1664 39.6983C41.6978 38.234 38.4517 32.6139 39.9159 27.1453C40.6845 24.2748 42.6609 21.8792 45.333 20.5791C43.7375 18.1973 41.2476 16.561 38.4283 16.0416C36.6201 16.1448 34.8405 16.5388 33.1575 17.2081C31.5487 17.8525 29.8462 18.2325 28.1159 18.3333C26.3857 18.2326 24.6832 17.8525 23.0744 17.2081C21.3915 16.5388 19.6118 16.1448 17.8035 16.0416C14.719 16.0416 7.49115 21.1084 7.49115 30.9373C7.49115 41.1741 14.9665 52.708 18.9494 52.708C20.9296 52.7227 22.8849 52.2654 24.6533 51.3743C25.7221 50.8023 26.9049 50.4751 28.1158 50.4163Z" fill="#2855AF"/>
<path d="M26.972 13.7499C26.3392 13.7499 25.8262 13.2368 25.8262 12.604C25.8351 5.64668 31.4729 0.00880851 38.4303 0C39.0631 0 39.5762 0.513042 39.5762 1.14586C39.5672 8.10318 33.9294 13.7411 26.972 13.7499ZM37.2134 2.36272C32.4833 2.9298 28.7538 6.6573 28.1844 11.3873C32.9146 10.8202 36.644 7.09257 37.2134 2.36272Z" fill="#7CCCDB"/>
</g>
<defs>
<clipPath id="clip0">
<rect width="55" height="55" fill="white"/>
</clipPath>
</defs>
</svg>
