<svg width="55" height="55" viewBox="0 0 55 55" fill="none" xmlns="http://www.w3.org/2000/svg">
<path d="M7.51958 43.1049L7.51972 43.105L10.7766 44.9662L7.51958 43.1049ZM7.51958 43.1049C7.28135 42.9688 7.20301 42.6666 7.33633 42.4383L7.33831 42.4348M7.51958 43.1049L7.33831 42.4348M7.33831 42.4348L22.4214 16.2889L22.4216 16.2885M7.33831 42.4348L22.4216 16.2885M22.4216 16.2885C22.5572 16.053 22.8693 15.9692 23.1045 16.1054L23.1089 16.108M22.4216 16.2885L23.1089 16.108M23.1089 16.108L26.3621 17.9622C26.3627 17.9625 26.3632 17.9628 26.3637 17.9631C26.6018 18.1019 26.6802 18.407 26.5469 18.6382C26.5469 18.6382 26.5469 18.6382 26.5469 18.6382L11.4641 44.7858L11.4639 44.7863M23.1089 16.108L11.4639 44.7863M11.4639 44.7863C11.3317 45.0157 11.0192 45.1043 10.777 44.9664L11.4639 44.7863ZM8.97348 47.7467L5.0865 50.3802L5.60364 45.8879L5.60365 45.8878C5.60846 45.8459 5.61621 45.8162 5.62318 45.7963C5.64405 45.8025 5.67395 45.8142 5.7125 45.8361L8.96794 47.6959C8.96817 47.696 8.96839 47.6961 8.96861 47.6962C8.98395 47.7051 8.99707 47.7134 9.00826 47.7212C8.99838 47.7291 8.98688 47.7376 8.97351 47.7467C8.9735 47.7467 8.97349 47.7467 8.97348 47.7467ZM31.813 17.5432L31.8129 17.5429C31.5305 16.883 31.1603 16.0562 30.7456 15.1301C29.9099 13.2638 28.8937 10.9943 28.0516 8.87429C27.4231 7.29226 26.9122 5.8424 26.6567 4.75334C26.5731 4.3974 26.5222 4.10116 26.4995 3.86423C26.5989 3.97336 26.7103 4.10511 26.8337 4.26115C27.404 4.9825 28.1089 6.0671 28.8942 7.355C29.5339 8.40419 30.2289 9.59291 30.9343 10.7993C31.9274 12.4979 32.941 14.2314 33.8493 15.6596C36.2511 19.442 40.6766 27.8402 42.9312 32.1188C43.5834 33.3565 44.054 34.2495 44.2413 34.5862C44.454 34.9721 44.3848 35.311 44.1071 35.6762C43.8051 36.0734 43.3164 36.392 42.9752 36.5333C42.8482 36.5859 42.7402 36.6323 42.6457 36.6729C42.3542 36.7982 42.1901 36.8688 41.9856 36.8965C41.7851 36.9237 41.4957 36.9068 40.9575 36.646C40.9447 36.6335 40.9133 36.6023 40.8627 36.5405C40.7693 36.4264 40.6496 36.2581 40.5045 36.0312C40.2155 35.5794 39.8597 34.9494 39.4542 34.1808C38.645 32.6469 37.6653 30.6132 36.6697 28.4681C34.6797 24.1806 32.6436 19.486 31.813 17.5432ZM26.5147 3.3336C26.515 3.33398 26.5137 3.33811 26.5101 3.34489C26.5127 3.33662 26.5145 3.33323 26.5147 3.3336ZM51.1252 47.8155C51.3312 48.7478 51.389 49.7858 51.3902 50.6298C51.0805 50.4718 50.7412 50.3275 50.4181 50.1901C50.3684 50.1689 50.3192 50.148 50.2705 50.1272C49.2401 49.6868 48.3059 49.2416 47.7443 48.4525L47.7429 48.4506C47.1407 47.6101 47.1726 47.1096 47.2602 46.8325C47.359 46.5198 47.5817 46.291 47.8254 46.0568C49.0645 45.3834 49.7154 45.5289 50.0829 45.7828C50.5447 46.1019 50.9024 46.8072 51.1252 47.8155ZM47.943 42.2583L47.9439 42.26C48.1144 42.5844 47.9869 43.0056 47.7014 43.1764C47.7012 43.1766 47.701 43.1767 47.7008 43.1768L46.364 43.9727L46.3599 43.9752C46.0847 44.1414 45.6793 44.0563 45.4853 43.7523L43.5248 40.6689C43.5248 40.6688 43.5248 40.6688 43.5247 40.6688C43.347 40.3875 43.4424 40.0948 43.696 39.9639C43.6962 39.9638 43.6965 39.9636 43.6967 39.9635L45.5642 39.0072C45.5646 39.0071 45.5649 39.0069 45.5653 39.0067C45.8457 38.8648 46.2283 38.9748 46.3952 39.2942L47.943 42.2583Z" stroke="#7CCCDB" stroke-width="1.5"/>
<path d="M47.4143 32.8384L47.4124 32.835C47.2471 32.5405 46.8199 31.7283 46.2108 30.5698L46.2107 30.5697C45.4662 29.154 44.4448 27.2191 43.3274 25.1289H53.7498C54.0274 25.1289 54.2495 25.3559 54.2495 25.6217L54.25 33.0851C54.25 33.3538 54.0277 33.5794 53.7504 33.5794H47.7322C47.653 33.3321 47.5498 33.0828 47.4143 32.8384ZM0.75 33.0851V25.6217C0.75 25.3559 0.972219 25.1289 1.24957 25.1289H13.1394L8.26295 33.5795H1.24957C0.972422 33.5795 0.75 33.3539 0.75 33.0851ZM30.456 25.1289L34.4157 33.5795H23.1833L28.0597 25.1289H30.456Z" stroke="#2855AF" stroke-width="1.5"/>
</svg>
