<svg width="50" height="50" viewBox="0 0 50 50" fill="none" xmlns="http://www.w3.org/2000/svg">
<path d="M34.5 0H16.1667C13.8667 0.00270833 12.0027 1.86667 12 4.16667V45.8333C12.0027 48.1333 13.8667 49.9973 16.1667 50H34.5C36.8 49.9973 38.664 48.1333 38.6667 45.8333V4.16667C38.664 1.86667 36.8 0.00270833 34.5 0ZM22.0217 48.3333H16.1667C14.7859 48.3333 13.6667 47.2141 13.6667 45.8333V43.3333H22.0217C20.882 44.8052 20.882 46.8615 22.0217 48.3333ZM25.3333 48.3333C23.9526 48.3333 22.8333 47.2141 22.8333 45.8333C22.8333 44.4526 23.9526 43.3333 25.3333 43.3333C26.7141 43.3333 27.8333 44.4526 27.8333 45.8333C27.8333 47.2141 26.7141 48.3333 25.3333 48.3333ZM37 45.8333C37 47.2141 35.8807 48.3333 34.5 48.3333H28.645C29.7847 46.8615 29.7847 44.8052 28.645 43.3333H37V45.8333ZM37 41.6667H13.6667V9.16667H37V41.6667ZM37 7.5H13.6667V4.16667C13.6667 2.78594 14.7859 1.66667 16.1667 1.66667H34.5C35.8807 1.66667 37 2.78594 37 4.16667V7.5Z" fill="#2855AF"/>
<path d="M27.8333 4.16602H19.5V5.83268H27.8333V4.16602Z" fill="#2855AF"/>
<path d="M22.0013 16.666H18.668C17.2872 16.666 16.168 17.7853 16.168 19.166V22.4993C16.168 23.8801 17.2872 24.9993 18.668 24.9993H22.0013C23.382 24.9993 24.5013 23.8801 24.5013 22.4993V19.166C24.5013 17.7853 23.382 16.666 22.0013 16.666ZM22.8346 22.4993C22.8346 22.9596 22.4615 23.3327 22.0013 23.3327H18.668C18.2078 23.3327 17.8346 22.9596 17.8346 22.4993V19.166C17.8346 18.7058 18.2078 18.3327 18.668 18.3327H22.0013C22.4615 18.3327 22.8346 18.7058 22.8346 19.166V22.4993Z" fill="#7CCCDB"/>
<path d="M32.0013 16.666H28.668C27.2872 16.666 26.168 17.7853 26.168 19.166V22.4993C26.168 23.8801 27.2872 24.9993 28.668 24.9993H32.0013C33.382 24.9993 34.5013 23.8801 34.5013 22.4993V19.166C34.5013 17.7853 33.382 16.666 32.0013 16.666ZM32.8346 22.4993C32.8346 22.9596 32.4615 23.3327 32.0013 23.3327H28.668C28.2078 23.3327 27.8346 22.9596 27.8346 22.4993V19.166C27.8346 18.7058 28.2078 18.3327 28.668 18.3327H32.0013C32.4615 18.3327 32.8346 18.7058 32.8346 19.166V22.4993Z" fill="#7CCCDB"/>
<path d="M22.0013 26.666H18.668C17.2872 26.666 16.168 27.7853 16.168 29.166V32.4993C16.168 33.8801 17.2872 34.9993 18.668 34.9993H22.0013C23.382 34.9993 24.5013 33.8801 24.5013 32.4993V29.166C24.5013 27.7853 23.382 26.666 22.0013 26.666ZM22.8346 32.4993C22.8346 32.9596 22.4615 33.3327 22.0013 33.3327H18.668C18.2078 33.3327 17.8346 32.9596 17.8346 32.4993V29.166C17.8346 28.7058 18.2078 28.3327 18.668 28.3327H22.0013C22.4615 28.3327 22.8346 28.7058 22.8346 29.166V32.4993Z" fill="#7CCCDB"/>
<path d="M32.0013 26.666H28.668C27.2872 26.666 26.168 27.7853 26.168 29.166V32.4993C26.168 33.8801 27.2872 34.9993 28.668 34.9993H32.0013C33.382 34.9993 34.5013 33.8801 34.5013 32.4993V29.166C34.5013 27.7853 33.382 26.666 32.0013 26.666ZM32.8346 32.4993C32.8346 32.9596 32.4615 33.3327 32.0013 33.3327H28.668C28.2078 33.3327 27.8346 32.9596 27.8346 32.4993V29.166C27.8346 28.7058 28.2078 28.3327 28.668 28.3327H32.0013C32.4615 28.3327 32.8346 28.7058 32.8346 29.166V32.4993Z" fill="#7CCCDB"/>
<path d="M18.6693 10.834H16.1693C15.7091 10.834 15.3359 11.2071 15.3359 11.6673V14.1673C15.3359 14.6275 15.7091 15.0007 16.1693 15.0007C16.6295 15.0007 17.0026 14.6275 17.0026 14.1673V12.5007H18.6693C19.1295 12.5007 19.5026 12.1275 19.5026 11.6673C19.5026 11.2071 19.1295 10.834 18.6693 10.834Z" fill="#2855AF"/>
<path d="M23.668 10.834H22.0013C21.5411 10.834 21.168 11.2071 21.168 11.6673C21.168 12.1275 21.5411 12.5007 22.0013 12.5007H23.668C24.1282 12.5007 24.5013 12.1275 24.5013 11.6673C24.5013 11.2071 24.1282 10.834 23.668 10.834Z" fill="#2855AF"/>
<path d="M31.1667 4.16602H29.5V5.83268H31.1667V4.16602Z" fill="#2855AF"/>
</svg>
