<svg width="50" height="50" viewBox="0 0 50 50" fill="none" xmlns="http://www.w3.org/2000/svg">
<path d="M39.0627 14.8438H25C24.4606 14.8438 24.0234 15.281 24.0234 15.8203C24.0234 16.3597 24.4606 16.7969 25 16.7969H39.0627C39.602 16.7969 40.0392 16.3597 40.0392 15.8203C40.0392 15.281 39.602 14.8438 39.0627 14.8438Z" fill="#7CCCDB"/>
<path d="M35.6436 19.8174C35.4619 19.6357 35.21 19.5312 34.9531 19.5312C34.6963 19.5312 34.4443 19.6357 34.2627 19.8174C34.0811 19.999 33.9766 20.251 33.9766 20.5078C33.9766 20.7646 34.0811 21.0166 34.2627 21.1982C34.4443 21.3799 34.6963 21.4844 34.9531 21.4844C35.21 21.4844 35.4619 21.3799 35.6436 21.1982C35.8252 21.0166 35.9297 20.7646 35.9297 20.5078C35.9297 20.251 35.8252 19.999 35.6436 19.8174Z" fill="#7CCCDB"/>
<path d="M25.6904 4.48535C25.5088 4.30371 25.2568 4.19922 25 4.19922C24.7432 4.19922 24.4912 4.30371 24.3096 4.48535C24.1279 4.66699 24.0234 4.91894 24.0234 5.17578C24.0234 5.43261 24.1279 5.68457 24.3096 5.86621C24.4912 6.04785 24.7432 6.15234 25 6.15234C25.2568 6.15234 25.5088 6.04785 25.6904 5.86621C25.8721 5.68457 25.9766 5.43261 25.9766 5.17578C25.9766 4.91894 25.8721 4.66699 25.6904 4.48535Z" fill="#2855AF"/>
<path d="M30.8474 19.5312H25C24.4606 19.5312 24.0234 19.9685 24.0234 20.5078C24.0234 21.0472 24.4606 21.4844 25 21.4844H30.8474C31.3867 21.4844 31.8239 21.0472 31.8239 20.5078C31.8239 19.9685 31.3867 19.5312 30.8474 19.5312Z" fill="#7CCCDB"/>
<path d="M39.0627 25.3906H25C24.4606 25.3906 24.0234 25.8278 24.0234 26.3672C24.0234 26.9065 24.4606 27.3438 25 27.3438H39.0627C39.602 27.3438 40.0392 26.9065 40.0392 26.3672C40.0392 25.8278 39.602 25.3906 39.0627 25.3906Z" fill="#2855AF"/>
<path d="M35.6436 30.3643C35.4619 30.1826 35.21 30.0781 34.9531 30.0781C34.6963 30.0781 34.4443 30.1826 34.2627 30.3643C34.0811 30.5459 33.9766 30.7978 33.9766 31.0547C33.9766 31.3115 34.0811 31.5635 34.2627 31.7451C34.4443 31.9267 34.6963 32.0312 34.9531 32.0312C35.21 32.0312 35.4619 31.9267 35.6436 31.7451C35.8252 31.5635 35.9297 31.3115 35.9297 31.0547C35.9297 30.7978 35.8252 30.5459 35.6436 30.3643Z" fill="#2855AF"/>
<path d="M30.8474 30.0781H25C24.4606 30.0781 24.0234 30.5153 24.0234 31.0547C24.0234 31.594 24.4606 32.0312 25 32.0312H30.8474C31.3867 32.0312 31.8239 31.594 31.8239 31.0547C31.8239 30.5153 31.3867 30.0781 30.8474 30.0781Z" fill="#2855AF"/>
<path d="M39.0627 35.9375H25C24.4606 35.9375 24.0234 36.3747 24.0234 36.9141C24.0234 37.4534 24.4606 37.8906 25 37.8906H39.0627C39.602 37.8906 40.0392 37.4534 40.0392 36.9141C40.0392 36.3747 39.602 35.9375 39.0627 35.9375Z" fill="#2855AF"/>
<path d="M35.6436 40.9111C35.4619 40.7295 35.21 40.625 34.9531 40.625C34.6963 40.625 34.4443 40.7295 34.2627 40.9111C34.0811 41.0928 33.9766 41.3447 33.9766 41.6016C33.9766 41.8584 34.0811 42.1103 34.2627 42.292C34.4443 42.4736 34.6963 42.5781 34.9531 42.5781C35.21 42.5781 35.4619 42.4736 35.6436 42.292C35.8252 42.1103 35.9297 41.8584 35.9297 41.6016C35.9297 41.3447 35.8252 41.0928 35.6436 40.9111Z" fill="#2855AF"/>
<path d="M30.8474 40.625H25C24.4606 40.625 24.0234 41.0622 24.0234 41.6016C24.0234 42.1409 24.4606 42.5781 25 42.5781H30.8474C31.3867 42.5781 31.8239 42.1409 31.8239 41.6016C31.8239 41.0622 31.3867 40.625 30.8474 40.625Z" fill="#2855AF"/>
<path d="M40.9415 3.80868H33.4827C32.4044 2.78124 30.9469 2.14843 29.3435 2.14843H28.488C27.834 0.853709 26.4904 0 24.9999 0C23.5093 0 22.1658 0.853709 21.5117 2.14843H20.6542C19.0508 2.14843 17.5933 2.78124 16.5151 3.80868H9.05839C6.43291 3.80868 4.29688 5.94472 4.29688 8.5702V45.2385C4.29688 47.864 6.43291 50 9.05839 50H40.9414C43.5669 50 45.703 47.864 45.703 45.2385V8.5702C45.703 5.94472 43.567 3.80868 40.9415 3.80868ZM20.6543 4.10155H22.1763C22.6156 4.10155 23.0007 3.80829 23.1176 3.38495C23.3506 2.54189 24.1246 1.95312 25 1.95312C25.8754 1.95312 26.6494 2.54189 26.8822 3.38495C26.9991 3.80829 27.3843 4.10155 27.8235 4.10155H29.3435C31.4631 4.10155 33.2079 5.73729 33.382 7.81258H16.6158C16.7899 5.73729 18.5347 4.10155 20.6543 4.10155ZM43.7499 45.2386C43.7499 46.7871 42.4901 48.047 40.9415 48.047H9.05839C7.50986 48.047 6.25 46.7871 6.25 45.2386V8.5702C6.25 7.02167 7.50986 5.76181 9.05839 5.76181H15.147C14.827 6.4954 14.6484 7.30419 14.6484 8.15438V8.78914C14.6484 9.3285 15.0856 9.7657 15.625 9.7657H34.3729C34.9122 9.7657 35.3495 9.3285 35.3495 8.78914V8.15438C35.3495 7.30428 35.1708 6.4954 34.8509 5.76181H40.9415C42.4901 5.76181 43.7499 7.02167 43.7499 8.5702V45.2386Z" fill="#2855AF"/>
<path d="M18.7919 14.6093C18.4105 14.2279 17.7921 14.2279 17.4108 14.6092L13.2348 18.7852L11.9484 17.4987C11.5671 17.1175 10.9487 17.1175 10.5673 17.4987C10.1859 17.8801 10.1859 18.4984 10.5673 18.8799L12.5443 20.8569C12.735 21.0476 12.9849 21.143 13.2348 21.143C13.4847 21.143 13.7347 21.0476 13.9254 20.8569L18.7919 15.9904C19.1732 15.6091 19.1732 14.9907 18.7919 14.6093Z" fill="#7CCCDB"/>
<path d="M16.4062 35.9375H11.7187C11.1794 35.9375 10.7422 36.3747 10.7422 36.9141V41.6016C10.7422 42.1409 11.1794 42.5781 11.7187 42.5781H16.4062C16.9456 42.5781 17.3828 42.1409 17.3828 41.6016V36.9141C17.3828 36.3747 16.9456 35.9375 16.4062 35.9375ZM15.4297 40.625H12.6953V37.8906H15.4297V40.625Z" fill="#2855AF"/>
<path d="M16.4062 25.3906H11.7187C11.1794 25.3906 10.7422 25.8278 10.7422 26.3672V31.0547C10.7422 31.594 11.1794 32.0312 11.7187 32.0312H16.4062C16.9456 32.0312 17.3828 31.594 17.3828 31.0547V26.3672C17.3828 25.8278 16.9456 25.3906 16.4062 25.3906ZM15.4297 30.0781H12.6953V27.3437H15.4297V30.0781Z" fill="#2855AF"/>
</svg>
