<svg width="50" height="50" viewBox="0 0 50 50" fill="none" xmlns="http://www.w3.org/2000/svg">
<path d="M6.83594 25.7786C6.29688 25.7786 5.85938 26.2161 5.85938 26.7551C5.85938 27.2942 6.29688 27.7317 6.83594 27.7317C7.375 27.7317 7.8125 27.2942 7.8125 26.7551C7.8125 26.2161 7.375 25.7786 6.83594 25.7786Z" fill="#7CCCDB"/>
<path d="M50 29.1965C50 27.8176 49.3611 26.5857 48.3645 25.7794C49.6344 24.7537 50.1905 23.1662 49.9403 21.6295C49.6006 19.5409 47.6585 17.966 45.4228 17.966C44.3451 17.966 37.2661 17.966 36.1202 17.966L36.4097 17.0972C38.0647 12.1331 36.5277 6.82883 32.8849 3.72561C30.8502 1.97033 27.3789 2.55559 26.3126 5.45959C26.2383 5.66193 26.2331 5.88322 26.2978 6.08899C27.109 8.66926 27.1204 10.4042 26.3374 12.0774C25.5255 13.8126 23.7787 15.6346 20.4967 18.1697C19.7089 18.778 19.0202 19.1499 18.3543 19.5096C17.3053 20.0761 16.3093 20.614 15.2796 21.8722H11.7188V20.8956C11.7188 20.3563 11.2815 19.9191 10.7422 19.9191H0.976562C0.437207 19.9191 0 20.3563 0 20.8956V46.2863C0 46.8256 0.437207 47.2628 0.976562 47.2628H10.7422C11.2815 47.2628 11.7188 46.8256 11.7188 46.2863V43.3566H17.1962C20.0354 45.8785 23.6794 47.2628 27.502 47.2628C29.756 47.2628 37.2668 47.2628 39.7461 47.2628C42.1752 47.2628 44.1406 45.2977 44.1406 42.8683C44.1406 41.9655 43.8667 41.1256 43.398 40.4269H43.6523C46.0814 40.4269 48.0469 38.4617 48.0469 36.0323C48.0469 35.0124 47.6967 34.0734 47.1115 33.3268C48.7803 32.7196 50 31.113 50 29.1965ZM9.76562 45.3098H1.95312V21.8723H9.76562V45.3098ZM45.6055 31.6379C44.6557 31.6379 37.2321 31.6379 36.2305 31.6379C35.6912 31.6379 35.2539 32.0751 35.2539 32.6145C35.2539 33.1538 35.6912 33.591 36.2305 33.591H43.6523C44.9985 33.591 46.0938 34.6863 46.0938 36.0324C46.0938 37.382 45.0022 38.4738 43.6523 38.4738C40.9132 38.4738 38.4672 38.4738 36.2305 38.4738C35.6912 38.4738 35.2539 38.9111 35.2539 39.4504C35.2539 39.9898 35.6912 40.427 36.2305 40.427H39.7461C41.0923 40.427 42.1875 41.5222 42.1875 42.8684C42.1875 44.2179 41.096 45.3098 39.7461 45.3098C37.1903 45.3098 29.5969 45.3098 27.502 45.3098C24.0453 45.3098 20.7563 44.0158 18.2408 41.6664C18.06 41.4975 17.8217 41.4035 17.5742 41.4035H11.7188V23.8254H15.7578C16.0683 23.8254 16.3602 23.6779 16.5442 23.4279C17.4251 22.2314 18.2042 21.8106 19.2826 21.2282C19.9831 20.8499 20.7771 20.4211 21.6908 19.7155C28.377 14.551 29.9069 11.3868 28.2688 5.85608C28.9164 4.61106 30.5315 4.27522 31.6786 5.26584C34.7912 7.98674 35.921 12.3884 34.5569 16.4798L34.0617 17.9662H32.8125C32.2732 17.9662 31.8359 18.4034 31.8359 18.9428C31.8359 19.4821 32.2732 19.9194 32.8125 19.9194C34.3122 19.9194 43.8822 19.9194 45.4229 19.9194C46.7115 19.9194 47.8249 20.7895 48.0127 21.9435C48.2672 23.5059 47.0665 24.8022 45.6056 24.8022C44.6051 24.8022 37.1834 24.8022 36.2306 24.8022C35.6913 24.8022 35.254 25.2394 35.254 25.7787C35.254 26.3181 35.6913 26.7553 36.2306 26.7553C37.1804 26.7553 44.6039 26.7553 45.6056 26.7553C46.9518 26.7553 48.047 27.8505 48.047 29.1967C48.0469 30.546 46.9554 31.6379 45.6055 31.6379Z" fill="#2855AF"/>
<path d="M6.83594 29.6848C6.29658 29.6848 5.85938 30.122 5.85938 30.6614V40.427C5.85938 40.9664 6.29658 41.4036 6.83594 41.4036C7.37529 41.4036 7.8125 40.9664 7.8125 40.427V30.6614C7.8125 30.122 7.37529 29.6848 6.83594 29.6848Z" fill="#7CCCDB"/>
</svg>
