<svg width="172" height="149" viewBox="0 0 172 149" fill="none" xmlns="http://www.w3.org/2000/svg">
<path opacity="0.05" d="M40.68 148.44C33.72 148.44 27.52 146.72 22.08 143.28C16.64 139.84 12.36 134.88 9.24 128.4C6.2 121.84 4.68 114.04 4.68 105C4.68 95.96 6.2 88.2 9.24 81.72C12.36 75.16 16.64 70.16 22.08 66.72C27.52 63.28 33.72 61.56 40.68 61.56C47.64 61.56 53.84 63.28 59.28 66.72C64.72 70.16 68.96 75.16 72 81.72C75.12 88.2 76.68 95.96 76.68 105C76.68 114.04 75.12 121.84 72 128.4C68.96 134.88 64.72 139.84 59.28 143.28C53.84 146.72 47.64 148.44 40.68 148.44ZM40.68 132C45.8 132 49.8 129.8 52.68 125.4C55.64 121 57.12 114.2 57.12 105C57.12 95.8 55.64 89 52.68 84.6C49.8 80.2 45.8 78 40.68 78C35.64 78 31.64 80.2 28.68 84.6C25.8 89 24.36 95.8 24.36 105C24.36 114.2 25.8 121 28.68 125.4C31.64 129.8 35.64 132 40.68 132ZM117.822 63V147H98.3822V78.6H81.5822V63H117.822Z" fill="#2855AF"/>
<rect x="51" y="3" width="118" height="118" rx="59" stroke="#2855AF" stroke-width="6"/>
<path d="M129.045 41H91.9551C89.7742 41 88 42.7742 88 44.9551V85.1211C88 85.6065 88.3935 86 88.8789 86H132.121C132.607 86 133 85.6065 133 85.1211V44.9551C133 42.7742 131.226 41 129.045 41ZM131.242 84.2422H89.7578V51.1953H123.42C123.905 51.1953 124.299 50.8018 124.299 50.3164C124.299 49.831 123.905 49.4375 123.42 49.4375H89.7578V44.9551C89.7578 43.7435 90.7435 42.7578 91.9551 42.7578H129.045C130.256 42.7578 131.242 43.7435 131.242 44.9551V84.2422Z" fill="#2855AF"/>
<path d="M95.3828 43.4609C93.9289 43.4609 92.7461 44.6438 92.7461 46.0977C92.7461 47.5515 93.9289 48.7344 95.3828 48.7344C96.8367 48.7344 98.0195 47.5515 98.0195 46.0977C98.0195 44.6438 96.8367 43.4609 95.3828 43.4609ZM95.3828 46.9766C94.8982 46.9766 94.5039 46.5823 94.5039 46.0977C94.5039 45.613 94.8982 45.2188 95.3828 45.2188C95.8674 45.2188 96.2617 45.613 96.2617 46.0977C96.2617 46.5823 95.8674 46.9766 95.3828 46.9766Z" fill="#2855AF"/>
<path d="M102.133 43.4609C100.679 43.4609 99.4961 44.6438 99.4961 46.0977C99.4961 47.5515 100.679 48.7344 102.133 48.7344C103.587 48.7344 104.77 47.5515 104.77 46.0977C104.77 44.6438 103.587 43.4609 102.133 43.4609ZM102.133 46.9766C101.648 46.9766 101.254 46.5823 101.254 46.0977C101.254 45.613 101.648 45.2188 102.133 45.2188C102.617 45.2188 103.012 45.613 103.012 46.0977C103.012 46.5823 102.617 46.9766 102.133 46.9766Z" fill="#2855AF"/>
<path d="M108.883 43.4609C107.429 43.4609 106.246 44.6438 106.246 46.0977C106.246 47.5515 107.429 48.7344 108.883 48.7344C110.337 48.7344 111.52 47.5515 111.52 46.0977C111.52 44.6438 110.337 43.4609 108.883 43.4609ZM108.883 46.9766C108.398 46.9766 108.004 46.5823 108.004 46.0977C108.004 45.613 108.398 45.2188 108.883 45.2188C109.367 45.2188 109.762 45.613 109.762 46.0977C109.762 46.5823 109.367 46.9766 108.883 46.9766Z" fill="#2855AF"/>
<path d="M127.375 53.5312H114.631C114.145 53.5312 113.752 53.9247 113.752 54.4102C113.752 54.8956 114.145 55.2891 114.631 55.2891H126.496V65.4844H94.5039V55.2891H106.457C106.942 55.2891 107.336 54.8956 107.336 54.4102C107.336 53.9247 106.942 53.5312 106.457 53.5312H93.625C93.1396 53.5312 92.7461 53.9247 92.7461 54.4102V66.3633C92.7461 66.8487 93.1396 67.2422 93.625 67.2422H127.375C127.86 67.2422 128.254 66.8487 128.254 66.3633V54.4102C128.254 53.9248 127.86 53.5312 127.375 53.5312Z" fill="#7CCCDB"/>
<path d="M102.766 70.3555H93.625C93.1396 70.3555 92.7461 70.749 92.7461 71.2344V80.375C92.7461 80.8604 93.1396 81.2539 93.625 81.2539H102.766C103.251 81.2539 103.645 80.8604 103.645 80.375V71.2344C103.645 70.749 103.251 70.3555 102.766 70.3555ZM101.887 79.4961H94.5039V72.1133H101.887V79.4961Z" fill="#2855AF"/>
<path d="M115.07 70.3555H105.93C105.444 70.3555 105.051 70.749 105.051 71.2344V80.375C105.051 80.8604 105.444 81.2539 105.93 81.2539H115.07C115.556 81.2539 115.949 80.8604 115.949 80.375V71.2344C115.949 70.749 115.556 70.3555 115.07 70.3555ZM114.191 79.4961H106.809V72.1133H114.191V79.4961Z" fill="#2855AF"/>
<path d="M127.375 70.3555H118.234C117.749 70.3555 117.355 70.749 117.355 71.2344V80.375C117.355 80.8604 117.749 81.2539 118.234 81.2539H127.375C127.86 81.2539 128.254 80.8604 128.254 80.375V71.2344C128.254 70.749 127.86 70.3555 127.375 70.3555ZM126.496 79.4961H119.113V72.1133H126.496V79.4961Z" fill="#2855AF"/>
<path d="M127.996 49.695C127.833 49.5315 127.606 49.4375 127.375 49.4375C127.144 49.4375 126.917 49.5315 126.754 49.695C126.59 49.8585 126.496 50.0853 126.496 50.3164C126.496 50.5476 126.59 50.7743 126.754 50.9378C126.917 51.1013 127.144 51.1953 127.375 51.1953C127.606 51.1953 127.833 51.1013 127.996 50.9378C128.16 50.7743 128.254 50.5476 128.254 50.3164C128.254 50.0853 128.16 49.8585 127.996 49.695Z" fill="#2855AF"/>
<path d="M111.262 53.7888C111.099 53.6253 110.873 53.5312 110.641 53.5312C110.409 53.5312 110.183 53.6253 110.019 53.7888C109.856 53.9522 109.762 54.179 109.762 54.4102C109.762 54.6422 109.856 54.8681 110.019 55.0315C110.183 55.1959 110.409 55.2891 110.641 55.2891C110.872 55.2891 111.099 55.1959 111.262 55.0315C111.425 54.8681 111.52 54.6422 111.52 54.4102C111.52 54.179 111.425 53.9522 111.262 53.7888Z" fill="#7CCCDB"/>
</svg>
