<svg width="172" height="149" viewBox="0 0 172 149" fill="none" xmlns="http://www.w3.org/2000/svg">
<path opacity="0.05" d="M40.68 148.44C33.72 148.44 27.52 146.72 22.08 143.28C16.64 139.84 12.36 134.88 9.24 128.4C6.2 121.84 4.68 114.04 4.68 105C4.68 95.96 6.2 88.2 9.24 81.72C12.36 75.16 16.64 70.16 22.08 66.72C27.52 63.28 33.72 61.56 40.68 61.56C47.64 61.56 53.84 63.28 59.28 66.72C64.72 70.16 68.96 75.16 72 81.72C75.12 88.2 76.68 95.96 76.68 105C76.68 114.04 75.12 121.84 72 128.4C68.96 134.88 64.72 139.84 59.28 143.28C53.84 146.72 47.64 148.44 40.68 148.44ZM40.68 132C45.8 132 49.8 129.8 52.68 125.4C55.64 121 57.12 114.2 57.12 105C57.12 95.8 55.64 89 52.68 84.6C49.8 80.2 45.8 78 40.68 78C35.64 78 31.64 80.2 28.68 84.6C25.8 89 24.36 95.8 24.36 105C24.36 114.2 25.8 121 28.68 125.4C31.64 129.8 35.64 132 40.68 132ZM148.182 131.16V147H84.7022V134.4L117.102 103.8C120.542 100.52 122.862 97.72 124.062 95.4C125.262 93 125.862 90.64 125.862 88.32C125.862 84.96 124.702 82.4 122.382 80.64C120.142 78.8 116.822 77.88 112.422 77.88C108.742 77.88 105.422 78.6 102.462 80.04C99.5022 81.4 97.0222 83.48 95.0222 86.28L80.8622 77.16C84.1422 72.28 88.6622 68.48 94.4222 65.76C100.182 62.96 106.782 61.56 114.222 61.56C120.462 61.56 125.902 62.6 130.542 64.68C135.262 66.68 138.902 69.56 141.462 73.32C144.102 77 145.422 81.36 145.422 86.4C145.422 90.96 144.462 95.24 142.542 99.24C140.622 103.24 136.902 107.8 131.382 112.92L112.062 131.16H148.182Z" fill="#2855AF"/>
<rect x="50" y="3" width="118" height="118" rx="59" stroke="#2855AF" stroke-width="6"/>
<g clip-path="url(#clip0)">
<path d="M135.28 62.1339C133.441 60.6183 130.534 60.4884 128.626 62.5357L123.89 67.6197C123.278 65.6518 121.44 64.2189 119.274 64.2189H110.822C110.181 64.2189 109.966 63.974 108.852 63.1158C104.605 59.4132 98.2256 59.425 93.9913 63.1512L90.8849 65.886C89.4885 65.1469 87.8579 65.1287 86.4539 65.8301L82.891 67.6111C82.095 68.0096 81.7728 68.9774 82.1702 69.7734L91.8376 89.1081C92.2361 89.9041 93.2039 90.2263 93.9999 89.8289L97.5629 88.0469C99.3191 87.1694 100.297 85.3776 100.233 83.5538H119.274C122.804 83.5538 126.178 81.8673 128.296 79.0424L136.031 68.7284C137.532 66.7292 137.295 63.7978 135.28 62.1339ZM96.1212 85.1649L93.9998 86.2261L85.7729 69.7734L87.8954 68.7121C88.6914 68.3147 89.6581 68.6359 90.0566 69.4329L96.8421 83.0038C97.2395 83.7997 96.9172 84.7663 96.1212 85.1649ZM133.453 66.7948L125.719 77.1088C124.205 79.1271 121.796 80.3312 119.274 80.3312H99.1085L93.0707 68.2545L96.1202 65.5703C99.1546 62.9009 103.731 62.9009 106.765 65.5703C108.552 67.1439 109.664 67.4414 110.822 67.4414H119.274C120.162 67.4414 120.885 68.1644 120.885 69.0527C120.885 69.9409 120.162 70.6639 119.274 70.6639H111.045C110.155 70.6639 109.433 71.3858 109.433 72.2751C109.433 73.1645 110.155 73.8863 111.045 73.8863H120.353C121.69 73.8863 122.98 73.3256 123.89 72.3471L130.984 64.7324C131.633 64.0363 132.628 64.0943 133.238 64.6282C133.876 65.1867 133.944 66.1416 133.453 66.7948Z" fill="#2855AF"/>
<path d="M115.878 45.997C116.981 44.8402 117.661 43.2762 117.661 41.5543C117.661 38.0074 114.795 35.002 111.216 35.002C107.664 35.002 104.664 38.002 104.664 41.5543C104.664 43.2235 105.318 44.7993 106.506 46.0099C103.56 47.6619 101.441 50.8328 101.441 54.5516V56.1628C101.441 57.0521 102.163 57.774 103.053 57.774H119.272C120.162 57.774 120.884 57.0521 120.884 56.1628V54.5516C120.883 50.9059 118.878 47.6856 115.878 45.997ZM111.216 38.2245C112.963 38.2245 114.439 39.7498 114.439 41.5544C114.439 43.331 112.993 44.7768 111.216 44.7768C109.412 44.7768 107.886 43.3009 107.886 41.5544C107.886 39.7809 109.443 38.2245 111.216 38.2245ZM104.664 54.5516C104.664 50.9993 107.664 47.9992 111.216 47.9992C114.769 47.9992 117.661 50.9381 117.661 54.5516H104.664Z" fill="#7CCCDB"/>
</g>
<defs>
<clipPath id="clip0">
<rect width="55" height="55" fill="white" transform="translate(82 35)"/>
</clipPath>
</defs>
</svg>
