<svg width="172" height="149" viewBox="0 0 172 149" fill="none" xmlns="http://www.w3.org/2000/svg">
<path opacity="0.05" d="M40.68 148.44C33.72 148.44 27.52 146.72 22.08 143.28C16.64 139.84 12.36 134.88 9.24 128.4C6.2 121.84 4.68 114.04 4.68 105C4.68 95.96 6.2 88.2 9.24 81.72C12.36 75.16 16.64 70.16 22.08 66.72C27.52 63.28 33.72 61.56 40.68 61.56C47.64 61.56 53.84 63.28 59.28 66.72C64.72 70.16 68.96 75.16 72 81.72C75.12 88.2 76.68 95.96 76.68 105C76.68 114.04 75.12 121.84 72 128.4C68.96 134.88 64.72 139.84 59.28 143.28C53.84 146.72 47.64 148.44 40.68 148.44ZM40.68 132C45.8 132 49.8 129.8 52.68 125.4C55.64 121 57.12 114.2 57.12 105C57.12 95.8 55.64 89 52.68 84.6C49.8 80.2 45.8 78 40.68 78C35.64 78 31.64 80.2 28.68 84.6C25.8 89 24.36 95.8 24.36 105C24.36 114.2 25.8 121 28.68 125.4C31.64 129.8 35.64 132 40.68 132ZM124.193 97.2C131.553 98.4 137.193 101.16 141.113 105.48C145.033 109.72 146.993 115 146.993 121.32C146.993 126.2 145.713 130.72 143.153 134.88C140.593 138.96 136.673 142.24 131.393 144.72C126.193 147.2 119.793 148.44 112.193 148.44C106.273 148.44 100.433 147.68 94.6734 146.16C88.9934 144.56 84.1534 142.32 80.1534 139.44L87.7134 124.56C90.9134 126.96 94.5934 128.84 98.7534 130.2C102.993 131.48 107.313 132.12 111.713 132.12C116.593 132.12 120.433 131.2 123.233 129.36C126.033 127.44 127.433 124.76 127.433 121.32C127.433 114.44 122.193 111 111.713 111H102.833V98.16L120.113 78.6H84.3534V63H143.153V75.6L124.193 97.2Z" fill="#2855AF"/>
<rect x="51" y="3" width="118" height="118" rx="59" stroke="#2855AF" stroke-width="6"/>
<path d="M131.526 60.4875C129.654 59.5519 126.146 59.541 125.997 59.541C125.552 59.541 125.191 59.9017 125.191 60.3467C125.191 60.7916 125.552 61.1523 125.997 61.1523C126.903 61.1525 129.531 61.2919 130.805 61.9288C130.921 61.9867 131.044 62.014 131.165 62.014C131.461 62.014 131.745 61.8507 131.886 61.5685C132.085 61.1705 131.924 60.6866 131.526 60.4875Z" fill="#7CCCDB"/>
<path d="M135.541 71.9582L132.214 71.0076C132.07 70.9665 131.97 70.8335 131.97 70.6841V69.5735C132.241 69.3859 132.499 69.176 132.74 68.9417C133.91 67.8065 134.554 66.2838 134.554 64.654V63.1214L134.876 62.4781C135.229 61.7718 135.416 60.981 135.416 60.1915V56.0396C135.416 55.5947 135.055 55.234 134.61 55.234H126.857C124.038 55.234 121.744 57.5276 121.744 60.3468V60.3948C121.744 61.0514 121.9 61.7089 122.193 62.2961L122.606 63.1213V64.4372C122.606 66.5227 123.633 68.3939 125.19 69.5199L125.19 70.6839C125.19 70.8634 125.19 70.9377 124.525 71.1279L122.901 71.5917L118.205 69.8839C118.222 69.6623 118.147 69.437 117.985 69.2671L116.484 67.6904V65.0435C116.643 64.9128 116.8 64.7785 116.951 64.6365C118.844 62.8619 119.93 60.3564 119.93 57.7625V55.6486C120.502 54.4046 120.792 53.0881 120.792 51.7323V43.1182C120.792 42.6732 120.431 42.3125 119.986 42.3125H107.926C103.682 42.3125 100.229 45.7655 100.229 50.0096V51.7325C100.229 53.0883 100.518 54.4048 101.09 55.6488V57.4676C101.09 60.4793 102.429 63.1925 104.536 64.9813V67.6905L103.035 69.2672C102.873 69.4371 102.799 69.6624 102.816 69.884L97.8586 71.6865C97.4994 71.8171 97.1656 71.994 96.8626 72.2083L96.0842 71.8191C98.4013 70.8106 99.1353 69.392 99.1705 69.3216C99.284 69.0948 99.284 68.8278 99.1705 68.601C98.5897 67.4393 98.5193 65.3101 98.4628 63.5993C98.444 63.0298 98.4262 62.4917 98.3922 62.0126C98.1175 58.1482 95.1797 55.234 91.5585 55.234C87.9373 55.234 84.9994 58.1481 84.7249 62.0126C84.6908 62.4918 84.673 63.0299 84.6542 63.5995C84.5977 65.3102 84.5272 67.4392 83.9465 68.6009C83.8331 68.8277 83.8331 69.0947 83.9465 69.3215C83.9817 69.3919 84.7142 70.8075 87.0359 71.8173L84.8739 72.8983C83.718 73.4767 83 74.6384 83 75.9306V81.8827C83 82.3277 83.3607 82.6884 83.8057 82.6884C84.2506 82.6884 84.6113 82.3277 84.6113 81.8827V75.9306C84.6113 75.2526 84.9881 74.6429 85.5945 74.3397L88.2868 72.9936L89.2233 73.8836C89.8781 74.5059 90.7182 74.8169 91.5585 74.8169C92.3987 74.8169 93.2391 74.5057 93.8938 73.8836L94.8302 72.9937L95.708 73.4326C95.2946 74.094 95.06 74.8696 95.06 75.682V81.883C95.06 82.3279 95.4208 82.6886 95.8657 82.6886C96.3106 82.6886 96.6714 82.3279 96.6714 81.883V75.682C96.6714 74.576 97.3697 73.5789 98.4092 73.2009L103.636 71.3005L105.811 74.5641C106.089 74.9813 106.535 75.2489 107.034 75.2983C107.09 75.3038 107.145 75.3065 107.2 75.3065C107.64 75.3065 108.062 75.1332 108.377 74.8181L109.704 73.4908V81.8831C109.704 82.328 110.065 82.6887 110.51 82.6887C110.955 82.6887 111.316 82.328 111.316 81.8831V73.4908L112.643 74.8181C112.958 75.1333 113.38 75.3066 113.82 75.3066C113.875 75.3066 113.931 75.3039 113.986 75.2984C114.485 75.249 114.931 74.9814 115.209 74.5642L117.385 71.3007L122.611 73.2011C123.65 73.5791 124.349 74.5762 124.349 75.6822V81.8832C124.349 82.3281 124.71 82.6888 125.154 82.6888C125.599 82.6888 125.96 82.3281 125.96 81.8832V75.6822C125.96 74.5621 125.515 73.5115 124.769 72.7345L124.968 72.6777C125.168 72.6203 125.442 72.5418 125.717 72.407L127.774 74.464V81.8832C127.774 82.3281 128.135 82.6888 128.58 82.6888C129.025 82.6888 129.386 82.3281 129.386 81.8832V74.464L131.428 72.4212C131.537 72.4765 131.651 72.5231 131.771 72.5573L135.099 73.508C135.858 73.725 136.389 74.4283 136.389 75.2183V81.8832C136.389 82.3281 136.749 82.6888 137.194 82.6888C137.639 82.6888 138 82.3281 138 81.8832V75.2183C138 73.7125 136.989 72.3719 135.541 71.9582ZM88.1686 70.5352C86.6616 69.993 85.9057 69.27 85.583 68.8752C85.803 68.3001 85.9456 67.6414 86.0422 66.9461C86.4865 68.0114 87.2306 68.9208 88.1686 69.5696V70.5352ZM92.784 72.7157C92.0968 73.3686 91.0203 73.3685 90.3334 72.7156L89.5841 72.0036C89.7105 71.7667 89.78 71.4982 89.78 71.2168V70.3581C90.3421 70.5337 90.9396 70.6285 91.5587 70.6285C92.1772 70.6285 92.7743 70.5333 93.3373 70.3586L93.3372 71.2167C93.3372 71.4982 93.4066 71.7668 93.5331 72.0038L92.784 72.7157ZM91.5589 69.0171C89.1531 69.0171 87.196 67.0599 87.196 64.6542C87.196 64.2093 86.8353 63.8485 86.3903 63.8485C86.3452 63.8485 86.3012 63.8532 86.2581 63.8604C86.2605 63.7911 86.2627 63.7217 86.2651 63.653C86.283 63.0991 86.3003 62.5758 86.3322 62.127C86.4351 60.6794 87.0136 59.3454 87.9611 58.3707C88.917 57.3871 90.1947 56.8455 91.5587 56.8455C92.9228 56.8455 94.2003 57.3871 95.1564 58.3707C96.1039 59.3454 96.6823 60.6794 96.7852 62.127C96.817 62.5757 96.8344 63.0988 96.8527 63.6527C96.8543 63.7003 96.8559 63.7485 96.8575 63.7964C95.981 62.4459 94.6272 61.4507 92.8781 60.8886C91.2621 60.3695 89.8723 60.4016 89.8137 60.4031C89.6027 60.409 89.4025 60.4973 89.256 60.6492L87.8024 62.1568C87.4936 62.4771 87.5028 62.9871 87.8231 63.296C88.1435 63.6048 88.6535 63.5955 88.9623 63.2752L90.1719 62.0209C91.2136 62.0718 94.5648 62.4615 95.8682 65.3315C95.5402 67.4464 93.7224 69.0171 91.5589 69.0171ZM94.9484 70.5379L94.9485 69.577C95.8858 68.9317 96.631 68.024 97.0756 66.9507C97.1722 67.6444 97.3147 68.3016 97.5343 68.8755C97.2134 69.2665 96.4539 69.9959 94.9484 70.5379ZM102.701 57.4675V55.4686C102.701 55.3473 102.674 55.2275 102.621 55.1183C102.103 54.0447 101.84 52.9056 101.84 51.7325V50.0097C101.84 46.654 104.57 43.9239 107.926 43.9239H119.18V51.7326C119.18 52.9057 118.917 54.0448 118.399 55.1184C118.346 55.2276 118.319 55.3474 118.319 55.4687V57.7627C118.319 59.9445 117.442 61.9682 115.849 63.4611C115.65 63.6473 115.444 63.822 115.231 63.9848C115.226 63.988 115.221 63.9915 115.217 63.9949C113.725 65.1276 111.897 65.6782 109.989 65.5545C105.902 65.2899 102.701 61.7377 102.701 57.4675ZM107.238 73.6786C107.232 73.6842 107.219 73.6974 107.193 73.6946C107.167 73.692 107.156 73.6767 107.152 73.67L104.646 69.9115L105.453 69.0643L109.254 71.6625L107.238 73.6786ZM110.51 70.5695L106.147 67.5873V66.0834C107.276 66.6936 108.54 67.0753 109.885 67.1623C110.097 67.176 110.308 67.1828 110.518 67.1828C112.059 67.1828 113.542 66.8146 114.873 66.1156V67.5873L110.51 70.5695ZM113.868 73.6702C113.864 73.6769 113.854 73.6923 113.828 73.6948C113.801 73.6982 113.788 73.6843 113.783 73.6788L111.767 71.6628L115.568 69.0645L116.374 69.9118L113.868 73.6702ZM128.58 72.9905L126.752 71.1623C126.784 71.0173 126.802 70.8587 126.801 70.6837L126.801 70.3437C127.309 70.5102 127.843 70.609 128.397 70.6256C128.459 70.6275 128.52 70.6284 128.582 70.6284C129.194 70.6284 129.791 70.536 130.359 70.3597V70.6841C130.359 70.8448 130.379 71.0023 130.417 71.1537L128.58 72.9905ZM131.618 67.7854C130.764 68.6141 129.636 69.0517 128.445 69.015C126.114 68.9451 124.217 66.8915 124.217 64.4374V62.9313C124.217 62.8061 124.188 62.6828 124.132 62.571L123.634 61.5756C123.452 61.2109 123.356 60.8027 123.356 60.3949V60.3469C123.356 58.4161 124.926 56.8454 126.857 56.8454H133.804V60.1916C133.804 60.7323 133.677 61.2739 133.435 61.7576L133.028 62.571C132.972 62.6829 132.943 62.8061 132.943 62.9313V64.6541C132.943 65.8443 132.473 66.9564 131.618 67.7854Z" fill="#2855AF"/>
<path d="M133.747 75.9082C133.302 75.9082 132.941 76.2689 132.941 76.7139V81.8825C132.941 82.3274 133.302 82.6881 133.747 82.6881C134.192 82.6881 134.553 82.3274 134.553 81.8825V76.7139C134.553 76.269 134.192 75.9082 133.747 75.9082Z" fill="#7CCCDB"/>
<path d="M87.251 76.9727C86.806 76.9727 86.4453 77.3334 86.4453 77.7783V81.8819C86.4453 82.3269 86.806 82.6876 87.251 82.6876C87.6959 82.6876 88.0566 82.3269 88.0566 81.8819V77.7783C88.0566 77.3335 87.6959 76.9727 87.251 76.9727Z" fill="#7CCCDB"/>
<path d="M117.111 52.0234C114.064 48.9763 107.689 49.5588 105.089 49.9507C104.27 50.0741 103.676 50.7671 103.676 51.5984V53.4545C103.676 53.8994 104.037 54.2601 104.481 54.2601C104.926 54.2601 105.287 53.8994 105.287 53.4545V51.5983C105.287 51.5709 105.305 51.5475 105.329 51.5439C106.368 51.3874 108.428 51.1459 110.563 51.2882C113.076 51.4555 114.895 52.0861 115.972 53.1627C116.287 53.4774 116.797 53.4774 117.111 53.1627C117.426 52.8481 117.426 52.3379 117.111 52.0234Z" fill="#7CCCDB"/>
<path d="M101.036 77.6309C100.591 77.6309 100.23 77.9916 100.23 78.4365V81.8823C100.23 82.3272 100.591 82.688 101.036 82.688C101.481 82.688 101.842 82.3272 101.842 81.8823V78.4365C101.842 77.9917 101.481 77.6309 101.036 77.6309Z" fill="#7CCCDB"/>
<path d="M119.985 77.6309C119.54 77.6309 119.18 77.9916 119.18 78.4365V81.8823C119.18 82.3272 119.54 82.688 119.985 82.688C120.43 82.688 120.791 82.3272 120.791 81.8823V78.4365C120.791 77.9917 120.43 77.6309 119.985 77.6309Z" fill="#7CCCDB"/>
</svg>
