<svg width="172" height="149" viewBox="0 0 172 149" fill="none" xmlns="http://www.w3.org/2000/svg">
<path opacity="0.05" d="M40.68 148.44C33.72 148.44 27.52 146.72 22.08 143.28C16.64 139.84 12.36 134.88 9.24 128.4C6.2 121.84 4.68 114.04 4.68 105C4.68 95.96 6.2 88.2 9.24 81.72C12.36 75.16 16.64 70.16 22.08 66.72C27.52 63.28 33.72 61.56 40.68 61.56C47.64 61.56 53.84 63.28 59.28 66.72C64.72 70.16 68.96 75.16 72 81.72C75.12 88.2 76.68 95.96 76.68 105C76.68 114.04 75.12 121.84 72 128.4C68.96 134.88 64.72 139.84 59.28 143.28C53.84 146.72 47.64 148.44 40.68 148.44ZM40.68 132C45.8 132 49.8 129.8 52.68 125.4C55.64 121 57.12 114.2 57.12 105C57.12 95.8 55.64 89 52.68 84.6C49.8 80.2 45.8 78 40.68 78C35.64 78 31.64 80.2 28.68 84.6C25.8 89 24.36 95.8 24.36 105C24.36 114.2 25.8 121 28.68 125.4C31.64 129.8 35.64 132 40.68 132ZM163.045 129.36H149.365V147H130.405V129.36H85.1653V116.28L124.765 63H145.165L108.445 113.52H131.005V97.8H149.365V113.52H163.045V129.36Z" fill="#2855AF"/>
<rect x="50" y="3" width="118" height="118" rx="59" stroke="#2855AF" stroke-width="6"/>
<g clip-path="url(#clip0)">
<path d="M127.265 55.4538L121.308 58.5489C120.555 57.5361 119.138 56.8616 117.558 56.8616H112.298C111.166 56.8616 110.636 56.2156 110.104 55.9154C106.038 53.1456 99.9065 53.1456 95.8428 55.9138L94.6943 56.6918H83.561C82.9642 56.6918 82.4805 57.0718 82.4805 57.5408V67.7282C82.4805 68.1971 82.9642 68.5772 83.561 68.5772H94.7788L114.139 71.1125C114.424 71.15 114.718 71.0959 114.953 70.9613L137.358 58.1344C137.838 57.8591 137.946 57.3305 137.598 56.9515C135.226 54.3674 130.69 53.7078 127.265 55.4538ZM114.047 69.3791L95.0459 66.8908C94.9873 66.8832 94.9278 66.8792 94.8682 66.8792H84.6415V58.3898H95.0962C95.7516 58.3898 95.9382 58.0243 97.2563 57.1982C100.515 54.9783 105.43 54.9783 108.689 57.1985C109.142 57.4386 110.204 58.5596 112.298 58.5596H117.558C118.731 58.5596 119.719 59.2891 119.719 60.2108C119.719 61.1261 118.75 61.8706 117.558 61.8706H104.592C103.996 61.8706 103.512 62.2506 103.512 62.7196C103.512 63.1882 103.996 63.5685 104.592 63.5685H117.558C119.908 63.5685 121.826 62.1037 121.879 60.2877L128.449 56.8742C130.588 55.7835 133.337 56.004 135.13 57.309L114.047 69.3791Z" fill="#2855AF"/>
<path d="M117.704 44.2962C117.704 44.7652 117.22 45.1452 116.623 45.1452C116.027 45.1452 115.543 44.7652 115.543 44.2962C115.543 43.8273 116.027 43.4473 116.623 43.4473C117.22 43.4473 117.704 43.8273 117.704 44.2962Z" fill="#7CCCDB"/>
<path d="M103.548 48.5414H129.48C130.077 48.5414 130.56 48.1613 130.56 47.6927V44.379L133.833 31.2209C133.916 30.8846 133.734 30.5417 133.371 30.3516C133.008 30.1616 132.536 30.1616 132.173 30.3516L123.347 34.9746L117.464 28.0402C117.263 27.804 116.926 27.6621 116.565 27.6621C116.204 27.6621 115.866 27.804 115.666 28.0402L109.782 34.9743L100.957 30.3516C100.595 30.162 100.124 30.1613 99.761 30.35C99.3984 30.5387 99.2153 30.8799 99.2963 31.2159L102.468 44.3764V47.6927C102.468 48.1613 102.951 48.5414 103.548 48.5414V48.5414ZM109.483 36.8583C109.979 37.1183 110.65 37.0128 110.981 36.6228L116.565 30.0416L122.149 36.6228C122.48 37.0128 123.15 37.1183 123.647 36.8583L131.215 32.8943L128.59 43.4478H121.484C120.887 43.4478 120.404 43.8279 120.404 44.2968C120.404 44.7657 120.887 45.1458 121.484 45.1458H128.399V46.8437H104.629V45.1458H111.76C112.357 45.1458 112.841 44.7657 112.841 44.2968C112.841 43.8279 112.357 43.4478 111.76 43.4478H104.443L101.898 32.885L109.483 36.8583Z" fill="#7CCCDB"/>
</g>
<defs>
<clipPath id="clip0">
<rect width="55.3216" height="43.4677" fill="white" transform="translate(82.4805 27.6621)"/>
</clipPath>
</defs>
</svg>
