<svg width="90" height="90" viewBox="0 0 90 90" fill="none" xmlns="http://www.w3.org/2000/svg">
<circle cx="45" cy="45" r="45" fill="#ECEBFF"/>
<g clip-path="url(#clip0)">
<path d="M39.5247 34.1667H59.1672C59.6272 34.1667 60.0006 33.7942 60.0006 33.3333C60.0006 32.8725 59.6272 32.5 59.1672 32.5H39.5247C39.0647 32.5 38.6914 32.8725 38.6914 33.3333C38.6914 33.7942 39.0647 34.1667 39.5247 34.1667Z" fill="#2855AF"/>
<path d="M39.5247 46.6667H59.1672C59.6272 46.6667 60.0006 46.2942 60.0006 45.8333C60.0006 45.3725 59.6272 45 59.1672 45H39.5247C39.0647 45 38.6914 45.3725 38.6914 45.8333C38.6914 46.2942 39.0647 46.6667 39.5247 46.6667Z" fill="#2855AF"/>
<path d="M39.5247 59.1667H59.1672C59.6272 59.1667 60.0006 58.7942 60.0006 58.3333C60.0006 57.8725 59.6272 57.5 59.1672 57.5H39.5247C39.0647 57.5 38.6914 57.8725 38.6914 58.3333C38.6914 58.7942 39.0647 59.1667 39.5247 59.1667Z" fill="#2855AF"/>
<rect x="21.5312" y="21.1666" width="47" height="47" rx="4.5" stroke="#2855AF" stroke-width="3"/>
<path d="M30.2821 34.895L32.3054 33.8308L34.3288 34.895L33.9429 32.6416L35.5796 31.045L33.3171 30.7166L32.3054 28.6666L31.2938 30.7166L29.0312 31.045L30.6688 32.6416L30.2821 34.895Z" fill="#7CCCDB"/>
<path d="M30.2821 47.4642L32.3054 46.4L34.3288 47.4642L33.9429 45.2108L35.5796 43.615L33.3171 43.2858L32.3054 41.2358L31.2938 43.2858L29.0312 43.615L30.6688 45.2108L30.2821 47.4642Z" fill="#7CCCDB"/>
<path d="M30.2821 60.3333L32.3054 59.2691L34.3288 60.3333L33.9429 58.08L35.5796 56.4841L33.3171 56.155L32.3054 54.105L31.2938 56.155L29.0312 56.4841L30.6688 58.08L30.2821 60.3333Z" fill="#7CCCDB"/>
</g>
<defs>
<clipPath id="clip0">
<rect width="50" height="50" fill="white" transform="translate(20 20)"/>
</clipPath>
</defs>
</svg>
