<svg width="51" height="50" viewBox="0 0 51 50" fill="none" xmlns="http://www.w3.org/2000/svg">
<g clip-path="url(#clip0)">
<path d="M50.3486 9.17148L41.4619 0.286035C41.2788 0.10293 41.0305 0 40.7715 0H11.7676C10.1521 0 8.83789 1.31426 8.83789 2.92969V4.79141C4.04053 6.67324 0.634766 11.3491 0.634766 16.8058C0.634766 17.345 1.07207 17.7823 1.61133 17.7823H13.5343C14.0735 17.7823 14.5108 17.345 14.5108 16.8058V4.88281C14.5108 4.34355 14.0735 3.90625 13.5343 3.90625C12.5931 3.90625 11.6755 4.0085 10.791 4.20088V2.92969C10.791 2.39121 11.2291 1.95312 11.7676 1.95312H39.7949V7.91016C39.7949 9.52559 41.1092 10.8398 42.7246 10.8398H48.6816V47.0703C48.6816 47.6088 48.2436 48.0469 47.7051 48.0469H11.7676C11.2291 48.0469 10.791 47.6088 10.791 47.0703V38.7044C10.791 38.1651 10.3537 37.7278 9.81445 37.7278C9.2752 37.7278 8.83789 38.1651 8.83789 38.7044V47.0703C8.83789 48.6857 10.1521 50 11.7676 50H47.7051C49.3205 50 50.6348 48.6857 50.6348 47.0703V9.86201C50.6348 9.60303 50.5318 9.35459 50.3486 9.17148ZM12.5576 5.90264V15.8292H2.63105C3.09795 10.5706 7.29912 6.36953 12.5576 5.90264ZM42.7246 8.88672C42.1861 8.88672 41.748 8.44863 41.748 7.91016V3.33398L47.3016 8.88672H42.7246Z" fill="#2855AF"/>
<path d="M10.5048 34.4658C10.3232 34.2841 10.0713 34.1797 9.81445 34.1797C9.55762 34.1797 9.30566 34.2841 9.12402 34.4658C8.94238 34.6475 8.83789 34.8994 8.83789 35.1562C8.83789 35.4131 8.94229 35.665 9.12402 35.8466C9.30566 36.0283 9.55762 36.1328 9.81445 36.1328C10.0713 36.1328 10.3232 36.0283 10.5048 35.8466C10.6865 35.665 10.791 35.4131 10.791 35.1562C10.791 34.8994 10.6865 34.6475 10.5048 34.4658Z" fill="#2855AF"/>
<path d="M17.0322 7.40442C16.493 7.40442 16.0557 7.84172 16.0557 8.38098V19.3273H5.10937C4.57012 19.3273 4.13281 19.7646 4.13281 20.3038C4.13281 27.4166 9.91943 33.2033 17.0322 33.2033C24.145 33.2033 29.9317 27.4166 29.9317 20.3038C29.9317 13.191 24.145 7.40442 17.0322 7.40442ZM18.0088 9.40081C20.2949 9.60374 22.381 10.5129 24.0475 11.9076L18.0088 17.9462V9.40081ZM17.0322 31.2502C11.3255 31.2502 6.62461 26.8607 6.1292 21.2804H17.0322C17.3018 21.2804 17.5457 21.1712 17.7225 20.9947C17.7226 20.9946 17.7227 20.9946 17.7229 20.9944L25.4288 13.2885C27.0197 15.1896 27.9786 17.6368 27.9786 20.3038C27.9786 26.3397 23.0681 31.2502 17.0322 31.2502Z" fill="#2855AF"/>
<path d="M43.4148 30.8207C41.7994 30.8207 40.4852 32.1349 40.4852 33.7504C40.4852 34.1552 40.5678 34.5411 40.7169 34.8922L35.0906 40.5184C34.704 40.3301 34.27 40.2241 33.8118 40.2241C33.3645 40.2241 32.9404 40.3253 32.5608 40.5052L28.8247 36.7691C28.9542 36.4386 29.0261 36.0794 29.0261 35.7034C29.0261 34.088 27.7118 32.7737 26.0964 32.7737C24.481 32.7737 23.1667 34.088 23.1667 35.7034C23.1667 36.1411 23.2639 36.5563 23.4367 36.9297L19.8532 40.5132C19.4715 40.3305 19.0443 40.2281 18.5937 40.2281C16.9783 40.2281 15.6641 41.5424 15.6641 43.1578C15.6641 44.7732 16.9783 46.0875 18.5937 46.0875C20.2092 46.0875 21.5234 44.7732 21.5234 43.1578C21.5234 42.705 21.4201 42.2759 21.2359 41.8927L24.7994 38.3293C25.1907 38.5234 25.631 38.6331 26.0966 38.6331C26.6225 38.6331 27.1159 38.4931 27.543 38.2496L31.1737 41.8803C30.987 42.2656 30.8821 42.6976 30.8821 43.1538C30.8821 44.7692 32.1964 46.0835 33.8118 46.0835C35.4272 46.0835 36.7415 44.7692 36.7415 43.1538C36.7415 42.7087 36.6413 42.2866 36.4629 41.9085L42.0366 36.3347C42.4476 36.5549 42.9169 36.6801 43.4148 36.6801C45.0303 36.6801 46.3445 35.3658 46.3445 33.7504C46.3445 32.1349 45.0303 30.8207 43.4148 30.8207ZM18.5937 44.1344C18.0552 44.1344 17.6171 43.6964 17.6171 43.1579C17.6171 42.6194 18.0552 42.1813 18.5937 42.1813C18.8559 42.1813 19.0937 42.2857 19.2692 42.4545C19.2731 42.4586 19.2766 42.463 19.2806 42.467C19.2853 42.4717 19.2903 42.4756 19.2951 42.4801C19.465 42.6558 19.5702 42.8947 19.5702 43.1579C19.5702 43.6963 19.1321 44.1344 18.5937 44.1344ZM26.0964 36.68C25.5579 36.68 25.1198 36.2419 25.1198 35.7034C25.1198 35.1649 25.5579 34.7268 26.0964 34.7268C26.6349 34.7268 27.0729 35.1649 27.0729 35.7034C27.0729 36.2419 26.6349 36.68 26.0964 36.68ZM33.8116 44.1303C33.2731 44.1303 32.8351 43.6923 32.8351 43.1538C32.8351 42.6153 33.2731 42.1772 33.8116 42.1772C34.3501 42.1772 34.7882 42.6153 34.7882 43.1538C34.7882 43.6923 34.3501 44.1303 33.8116 44.1303ZM43.4146 34.7268C42.8762 34.7268 42.4381 34.2887 42.4381 33.7503C42.4381 33.2118 42.8763 32.7737 43.4146 32.7737C43.9531 32.7737 44.3912 33.2118 44.3912 33.7503C44.3912 34.2887 43.9531 34.7268 43.4146 34.7268Z" fill="#7CCCDB"/>
<path d="M38.5351 22.9492H33.3809C32.8416 22.9492 32.4043 23.3865 32.4043 23.9258C32.4043 24.465 32.8415 24.9023 33.3809 24.9023H38.5351C39.0743 24.9023 39.5116 24.465 39.5116 23.9258C39.5116 23.3865 39.0743 22.9492 38.5351 22.9492Z" fill="#2855AF"/>
<path d="M43.6708 23.2354C43.4893 23.0537 43.2373 22.9492 42.9805 22.9492C42.7236 22.9492 42.4717 23.0536 42.29 23.2354C42.1084 23.417 42.0039 23.6689 42.0039 23.9258C42.0039 24.1826 42.1083 24.4346 42.29 24.6161C42.4717 24.7978 42.7227 24.9023 42.9805 24.9023C43.2373 24.9023 43.4893 24.7979 43.6708 24.6161C43.8524 24.4346 43.957 24.1826 43.957 23.9258C43.957 23.6689 43.8525 23.417 43.6708 23.2354Z" fill="#2855AF"/>
<path d="M45.31 13.5742H33.3809C32.8416 13.5742 32.4043 14.0115 32.4043 14.5508C32.4043 15.09 32.8415 15.5273 33.3809 15.5273H45.31C45.8492 15.5273 46.2865 15.09 46.2865 14.5508C46.2865 14.0115 45.8492 13.5742 45.31 13.5742Z" fill="#2855AF"/>
<path d="M45.31 18.2617H33.3809C32.8416 18.2617 32.4043 18.699 32.4043 19.2383C32.4043 19.7775 32.8415 20.2148 33.3809 20.2148H45.31C45.8492 20.2148 46.2865 19.7775 46.2865 19.2383C46.2865 18.699 45.8492 18.2617 45.31 18.2617Z" fill="#2855AF"/>
</g>
<defs>
<clipPath id="clip0">
<rect width="50" height="50" fill="white" transform="translate(0.634766)"/>
</clipPath>
</defs>
</svg>
