<svg width="54" height="54" viewBox="0 0 54 54" fill="none" xmlns="http://www.w3.org/2000/svg">
<path d="M49.8031 21.2743C50.7809 20.3212 51.1261 18.9224 50.7043 17.6237C50.2823 16.3251 49.1808 15.3965 47.8295 15.2002L36.0138 13.4832C35.7819 13.4496 35.5814 13.304 35.4776 13.0936L30.1935 2.38699C29.5893 1.1625 28.3657 0.401855 27.0002 0.401855C25.6347 0.401855 24.411 1.1625 23.8068 2.38699L18.5227 13.0938C18.4188 13.304 18.2184 13.4496 17.9864 13.4834L6.17093 15.2002C4.81967 15.3965 3.71826 16.3251 3.29617 17.6237C2.87408 18.9224 3.21939 20.3212 4.1973 21.2743L12.7471 29.6084C12.9149 29.772 12.9916 30.0078 12.9519 30.2389L10.9336 42.0066C10.7028 43.3525 11.2456 44.687 12.3502 45.4896C13.4549 46.2925 14.8922 46.3961 16.1007 45.7609L26.6688 40.2049C26.8763 40.0958 27.1241 40.0958 27.3318 40.2049L37.8999 45.7609C38.4256 46.0372 38.9944 46.1738 39.5604 46.1737C40.2956 46.1737 41.026 45.9434 41.6501 45.4895C42.7548 44.6868 43.2976 43.3522 43.0667 42.0065L41.0484 30.2388C41.0088 30.0077 41.0854 29.7719 41.2532 29.6083L49.8031 21.2743ZM38.2407 30.7205L40.2591 42.4885C40.3266 42.8823 40.0835 43.1069 39.9758 43.185C39.868 43.2631 39.5792 43.4252 39.2257 43.2391L28.6575 37.6832C28.1387 37.4105 27.5696 37.274 27.0004 37.274C26.4312 37.274 25.8619 37.4105 25.3433 37.683L14.7752 43.2389C14.4214 43.4249 14.1328 43.263 14.0251 43.1848C13.9174 43.1067 13.6742 42.8821 13.7418 42.4883L15.7601 30.7205C15.9583 29.5651 15.5756 28.3868 14.7359 27.5685L6.18612 19.2345C5.89998 18.9554 5.96474 18.6309 6.00598 18.5043C6.04701 18.3776 6.18549 18.0769 6.58089 18.0196L18.3962 16.3026C19.5563 16.1341 20.5588 15.4059 21.0777 14.3545L26.3618 3.64776C26.5386 3.28948 26.8673 3.25078 27.0005 3.25078C27.1335 3.25078 27.4621 3.28938 27.6391 3.64776V3.64787L32.9232 14.3546C33.442 15.406 34.4444 16.1342 35.6044 16.3027L47.42 18.0197C47.8154 18.077 47.9537 18.3777 47.9949 18.5044C48.036 18.6311 48.1009 18.9557 47.8146 19.2346L39.2648 27.5686C38.4253 28.3868 38.0425 29.5651 38.2407 30.7205Z" fill="#2855AF"/>
<path d="M43.6411 2.38613C43.0045 1.92375 42.1138 2.06487 41.6514 2.70127L40.1393 4.78238C39.677 5.41877 39.818 6.30967 40.4545 6.77204C40.7075 6.95566 41.0004 7.04415 41.2906 7.04415C41.7312 7.04415 42.1655 6.84049 42.4441 6.45701L43.9563 4.3759C44.4186 3.7394 44.2776 2.8485 43.6411 2.38613Z" fill="#7CCCDB"/>
<path d="M13.8547 4.77392L12.3425 2.69281C11.8803 2.05663 10.9895 1.91551 10.3529 2.37767C9.71648 2.84005 9.57536 3.73094 10.0377 4.36734L11.5498 6.44845C11.8286 6.83225 12.2629 7.0358 12.7036 7.0358C12.9939 7.0358 13.2869 6.94732 13.5396 6.76359C14.176 6.30132 14.3171 5.41043 13.8547 4.77392Z" fill="#7CCCDB"/>
<path d="M5.22617 32.3608C4.98306 31.6127 4.17949 31.2032 3.43119 31.4463L0.984635 32.2413C0.236334 32.4844 -0.17299 33.2882 0.0701154 34.0363C0.265654 34.6384 0.824112 35.0211 1.42455 35.0211C1.57041 35.0211 1.7188 34.9984 1.86509 34.9508L4.31165 34.1558C5.05984 33.9127 5.46927 33.1091 5.22617 32.3608Z" fill="#7CCCDB"/>
<path d="M27.0006 48.1768C26.2139 48.1768 25.5762 48.8145 25.5762 49.6012V52.1738C25.5762 52.9605 26.2139 53.5983 27.0006 53.5983C27.7873 53.5983 28.4251 52.9605 28.4251 52.1738V49.6012C28.4251 48.8144 27.7874 48.1768 27.0006 48.1768Z" fill="#7CCCDB"/>
<path d="M53.0148 32.2435L50.5682 31.4484C49.8202 31.2055 49.0163 31.6148 48.7732 32.3631C48.5301 33.1114 48.9395 33.9149 49.6878 34.158L52.1343 34.9531C52.2806 35.0005 52.4289 35.0231 52.5748 35.0231C53.1753 35.0231 53.7338 34.6404 53.9293 34.0383C54.1724 33.2901 53.763 32.4866 53.0148 32.2435Z" fill="#7CCCDB"/>
</svg>
