<svg width="50" height="50" viewBox="0 0 50 50" fill="none" xmlns="http://www.w3.org/2000/svg">
<path d="M24.9994 14.9246C19.4711 14.9246 16.0371 17.7548 16.0371 22.3397C16.0371 22.8606 16.4595 23.2831 16.9805 23.2831H33.0182C33.5392 23.2831 33.9616 22.8606 33.9616 22.3397C33.9616 17.7642 30.5277 14.9246 24.9994 14.9246ZM17.9899 21.3963C18.6126 17.1604 23.4522 16.8114 24.9994 16.8114C26.5465 16.8114 31.3862 17.1604 32.0088 21.3963H17.9899Z" fill="#2855AF"/>
<path d="M25.0007 5.0188C22.5258 5.0188 20.5195 7.02505 20.5195 9.49993C20.5247 11.9727 22.5279 13.9759 25.0007 13.9811C27.4756 13.9811 29.4818 11.9748 29.4818 9.49993C29.4818 7.02505 27.4756 5.0188 25.0007 5.0188ZM25.0007 12.0943C23.5679 12.0943 22.4063 10.9327 22.4063 9.49993C22.4063 8.06715 23.5679 6.90559 25.0007 6.90559C26.4335 6.90559 27.595 8.06715 27.595 9.49993C27.595 10.9327 26.4335 12.0943 25.0007 12.0943Z" fill="#2855AF"/>
<path d="M8.96226 36.6226C3.43396 36.6226 0 39.4527 0 44.0377C0 44.5586 0.422406 44.981 0.943396 44.981H16.9811C17.5021 44.981 17.9245 44.5586 17.9245 44.0377C17.9245 39.4622 14.4906 36.6226 8.96226 36.6226ZM1.95283 43.0943C2.57547 38.8584 7.40566 38.5094 8.96226 38.5094C10.5189 38.5094 15.3491 38.8584 15.9717 43.0943H1.95283Z" fill="#2855AF"/>
<path d="M8.96161 26.717C6.48672 26.717 4.48047 28.7233 4.48047 31.1982C4.48566 33.6709 6.48884 35.6741 8.96161 35.6793C11.4365 35.6793 13.4427 33.6731 13.4427 31.1982C13.4427 28.7233 11.4365 26.717 8.96161 26.717ZM8.96161 33.7925C7.52882 33.7925 6.36726 32.631 6.36726 31.1982C6.36726 29.7654 7.52882 28.6038 8.96161 28.6038C10.3944 28.6038 11.5559 29.7654 11.5559 31.1982C11.5559 32.631 10.3944 33.7925 8.96161 33.7925Z" fill="#2855AF"/>
<path d="M41.0384 36.6226C35.5101 36.6226 32.0762 39.4527 32.0762 44.0377C32.0762 44.5586 32.4986 44.981 33.0196 44.981H49.0573C49.5783 44.981 50.0007 44.5586 50.0007 44.0377C50.0007 39.4622 46.5667 36.6226 41.0384 36.6226ZM34.029 43.0943C34.6516 38.8584 39.4818 38.5094 41.0384 38.5094C42.595 38.5094 47.4252 38.8584 48.0479 43.0943H34.029Z" fill="#2855AF"/>
<path d="M41.0378 26.717C38.5629 26.717 36.5566 28.7233 36.5566 31.1982C36.5618 33.6709 38.565 35.6741 41.0378 35.6793C43.5127 35.6793 45.5189 33.6731 45.5189 31.1982C45.5189 28.7233 43.5127 26.717 41.0378 26.717ZM41.0378 33.7925C39.605 33.7925 38.4434 32.631 38.4434 31.1982C38.4434 29.7654 39.605 28.6038 41.0378 28.6038C42.4706 28.6038 43.6321 29.7654 43.6321 31.1982C43.6321 32.631 42.4706 33.7925 41.0378 33.7925Z" fill="#2855AF"/>
<path d="M29.8767 34.9906L25.9428 31.0378V25.4717C25.9428 24.9507 25.5204 24.5283 24.9994 24.5283C24.4784 24.5283 24.056 24.9507 24.056 25.4717V31.0378L20.122 34.9717C19.7495 35.3391 19.7453 35.9388 20.1126 36.3113C20.4799 36.6839 21.0797 36.6881 21.4522 36.3208L24.9994 32.7642L28.5466 36.3208C28.9423 36.6597 29.5378 36.6136 29.8767 36.2178C30.1792 35.8646 30.1792 35.3438 29.8767 34.9906Z" fill="#7CCCDB"/>
</svg>
