<svg width="50" height="50" viewBox="0 0 50 50" fill="none" xmlns="http://www.w3.org/2000/svg">
<g clip-path="url(#clip0)">
<path d="M49.7768 11.6701C48.5696 4.91495 42.6922 -0.0020523 35.8301 0.00232225C30.5525 0.00857161 25.7154 2.94671 23.2772 7.62738C18.7491 3.05076 11.3683 3.01149 6.7917 7.53947C4.57671 9.73102 3.33122 12.7181 3.3334 15.834V17.5005C3.3334 17.9607 3.70649 18.3338 4.16665 18.3338C4.20082 18.3306 4.23477 18.3252 4.26831 18.318C4.65931 21.6972 6.33445 24.7968 8.947 26.9754C9.01866 27.0346 9.09365 27.0854 9.16614 27.1421V30.2326L2.23685 32.5423C1.92667 32.6455 1.70534 32.9205 1.67107 33.2456L0.00457687 49.0773C-0.0432307 49.535 0.288923 49.9448 0.746689 49.9927C0.775644 49.9958 0.804599 49.9973 0.833659 49.9972H29.1641C29.6243 49.9972 29.9973 49.6241 29.9973 49.164C29.9973 49.1362 29.996 49.1084 29.9932 49.0806L28.3267 33.2489C28.2924 32.9239 28.0711 32.6488 27.7609 32.5457L20.8316 30.2326V27.1421C20.9041 27.0854 20.9791 27.0346 21.0508 26.9754C22.4876 25.7742 23.6543 24.2829 24.4746 22.5992C26.6202 25.4914 29.7867 27.4578 33.3303 28.0986V29.9993H31.6638C31.2037 29.9993 30.8306 30.3723 30.8306 30.8325V34.1655C30.8306 34.6257 31.2037 34.9987 31.6638 34.9987V45.831C31.6638 48.1319 33.5292 49.9972 35.8301 49.9972C38.131 49.9972 39.9963 48.1319 39.9963 45.831V34.9987C40.4565 34.9987 40.8296 34.6257 40.8296 34.1655V30.8325C40.8296 30.3723 40.4565 29.9993 39.9963 29.9993H38.3298V28.0986C46.0275 26.723 51.1525 19.3677 49.7768 11.6701ZM9.16614 48.3307H1.7594L3.27258 33.953L9.16614 31.9882V48.3307ZM4.9999 15.834C4.98865 10.3232 9.44694 5.84683 14.9577 5.83558C17.8714 5.82964 20.6422 7.09754 22.5423 9.30637C21.7696 11.3642 21.5015 13.5772 21.7607 15.7599C19.7791 15.4036 18.3359 13.6811 18.3319 11.6678C18.3323 11.2076 17.9595 10.8342 17.4994 10.8338C17.4383 10.8338 17.3775 10.8404 17.3178 10.8537L16.8179 10.9654C12.6127 11.8944 8.60932 13.574 4.9999 15.9232V15.834ZM10.8326 48.3307V37.266L13.7857 36.2811L11.695 43.947C11.6417 44.1447 11.6624 44.3551 11.7534 44.5386L13.6507 48.3307H10.8326ZM10.8326 35.5087V33.8472L12.8266 34.8471L10.8326 35.5087ZM13.3865 44.0812L14.9989 38.1651L16.6112 44.0812L14.9989 47.3008L13.3865 44.0812ZM19.1651 48.3307H16.3471L18.2485 44.5369C18.3395 44.3534 18.3602 44.143 18.3069 43.9453L16.2163 36.2795L19.1651 37.266V48.3307ZM19.1651 35.5087L17.1712 34.8421L19.1651 33.8472V35.5087ZM19.1651 31.9841L14.9989 34.0672L10.8326 31.9841V28.1911C13.4581 29.491 16.5397 29.491 19.1651 28.1911V31.9841ZM26.7252 33.953L28.2384 48.3307H20.8316V31.9882L26.7252 33.953ZM19.9834 25.6947C17.0964 28.102 12.9014 28.102 10.0144 25.6947C7.52641 23.6157 6.02365 20.5892 5.87148 17.3506C9.2002 15.1753 12.8833 13.5979 16.7545 12.6894C17.2266 15.3127 19.4142 17.284 22.0723 17.4814C22.3567 18.6825 22.798 19.8409 23.3847 20.9269C22.6767 22.7805 21.5057 24.4219 19.9834 25.6947ZM38.3298 45.831C38.3298 47.2116 37.2107 48.3307 35.8301 48.3307C34.4495 48.3307 33.3303 47.2116 33.3303 45.831V34.9987H38.3298V45.831ZM39.1631 31.6658V33.3323H32.4971V31.6658H39.1631ZM34.9968 29.9993V28.2903C35.2743 28.3069 35.5484 28.3328 35.8301 28.3328C36.1117 28.3328 36.3859 28.3069 36.6633 28.2903V29.9993H34.9968ZM35.8301 26.6663C28.9272 26.6663 23.3314 21.0704 23.3314 14.1675C23.3314 7.2647 28.9272 1.66882 35.8301 1.66882C42.7329 1.66882 48.3288 7.2647 48.3288 14.1675C48.321 21.0671 42.7297 26.6585 35.8301 26.6663Z" fill="#2855AF"/>
<path d="M35.8303 3.33557C29.8478 3.33557 24.998 8.18528 24.998 14.1678C24.998 20.1503 29.8478 25 35.8303 25C41.8128 25 46.6625 20.1503 46.6625 14.1678C46.6556 8.1881 41.8099 3.34245 35.8303 3.33557ZM35.8303 23.3335C30.7682 23.3335 26.6645 19.2299 26.6645 14.1678C26.6645 9.10571 30.7682 5.00207 35.8303 5.00207C40.8924 5.00207 44.996 9.10571 44.996 14.1678C44.9901 19.2274 40.8899 23.3275 35.8303 23.3335Z" fill="#7CCCDB"/>
<path d="M41.4185 8.57922L40.2402 9.75744C42.6694 12.1959 42.6694 16.1397 40.2402 18.5782L41.4185 19.7564C44.4981 16.667 44.4981 11.6685 41.4185 8.57922Z" fill="#7CCCDB"/>
<path d="M37.9579 20.0899L38.7031 21.5804L40.3695 20.7472L39.6243 19.2567L37.9579 20.0899Z" fill="#7CCCDB"/>
</g>
<defs>
<clipPath id="clip0">
<rect width="50" height="50" fill="white"/>
</clipPath>
</defs>
</svg>
