<svg width="604" height="436" viewBox="0 0 604 436" fill="none" xmlns="http://www.w3.org/2000/svg">
<path d="M127.246 169.465C130.63 168.663 136.759 163.84 136.77 163.84C136.78 163.84 132.358 160.755 132.059 160.6C128.542 158.77 120.665 157.299 117.507 160.415C116.996 160.947 116.603 161.581 116.353 162.275C116.103 162.969 116.002 163.708 116.058 164.444C116.113 165.18 116.323 165.895 116.674 166.544C117.025 167.194 117.508 167.761 118.094 168.211C120.51 170.216 124.367 170.144 127.246 169.465Z" fill="#7CCCDB"/>
<path d="M142.97 185.899C145.901 184.295 150.252 178.505 150.591 178.042C153.897 180.539 157.367 182.81 160.978 184.84C163.035 186.043 165.225 187.185 167.395 188.296C166.367 187.936 165.338 187.617 165.236 187.586C161.358 186.753 153.378 187.411 151.146 191.247C150.793 191.896 150.581 192.612 150.523 193.348C150.466 194.084 150.564 194.824 150.811 195.52C151.059 196.215 151.45 196.851 151.959 197.385C152.469 197.92 153.086 198.341 153.769 198.621C156.628 199.906 160.34 198.827 162.942 197.407C165.544 195.988 169.38 191.103 170.378 189.797L172.877 191.062C176.898 193.057 180.919 195.032 184.806 197.089C186.174 197.819 187.491 198.58 188.817 199.341C187.871 199.022 187.069 198.755 186.945 198.734C183.068 197.891 175.088 198.549 172.866 202.395C172.514 203.043 172.302 203.758 172.244 204.493C172.186 205.229 172.284 205.968 172.532 206.663C172.779 207.358 173.171 207.993 173.68 208.526C174.19 209.06 174.806 209.48 175.489 209.759C178.348 211.054 182.05 209.964 184.652 208.545C187.254 207.126 190.72 202.714 191.913 201.171C193.239 201.994 194.576 202.807 195.831 203.67C196.674 204.267 197.538 204.791 198.351 205.439L200.778 207.311C202.29 208.555 203.863 209.831 205.282 211.075C206.311 211.939 207.226 212.782 208.182 213.626C206.825 212.885 204.141 211.497 203.904 211.404C200.202 209.985 192.211 209.43 189.434 212.895C188.988 213.483 188.67 214.157 188.501 214.876C188.333 215.594 188.317 216.34 188.456 217.065C188.595 217.789 188.884 218.477 189.306 219.082C189.728 219.687 190.273 220.197 190.905 220.578C193.538 222.285 197.363 221.771 200.161 220.763C203.246 219.652 208.223 214.808 208.841 214.191C210.414 215.6 211.926 216.968 213.335 218.305C217.13 221.853 220.318 225.041 222.817 227.622L225.182 225.853C222.56 223.252 219.176 219.991 215.114 216.361C213.53 214.932 211.802 213.44 209.972 211.918C211.133 210.007 212.181 208.029 213.108 205.995C216.41 206.591 222.796 205.398 223.619 205.234C224.154 207.29 224.647 209.255 225.1 211.137C226.272 216.042 227.157 220.393 227.815 223.838L230.386 221.904C229.676 218.665 228.792 214.808 227.661 210.499C227.116 208.442 226.509 206.231 225.851 203.979C226.622 203.619 232.926 200.616 235.045 198.127C236.957 195.875 238.778 192.461 238.13 189.406C238 188.676 237.717 187.982 237.3 187.369C236.883 186.757 236.341 186.239 235.71 185.85C235.079 185.462 234.372 185.211 233.637 185.115C232.902 185.019 232.155 185.08 231.445 185.293C227.239 186.691 224.966 194.374 225.007 198.343C225.007 198.58 225.316 201.11 225.532 202.714C225.254 201.788 225.007 200.894 224.719 199.958C224.154 198.086 223.537 196.235 222.878 194.25C222.529 193.294 222.169 192.337 221.85 191.371C221.531 190.404 221.038 189.417 220.626 188.44C219.598 186.167 218.569 183.925 217.366 181.683C219.001 181.189 224.781 179.338 227.023 177.384C229.265 175.43 231.579 172.345 231.363 169.218C231.34 168.481 231.162 167.757 230.84 167.093C230.518 166.429 230.059 165.84 229.494 165.366C228.93 164.891 228.271 164.541 227.561 164.338C226.852 164.136 226.108 164.085 225.377 164.189C220.996 164.93 217.592 172.191 217.027 176.109C217.027 176.356 216.903 179.194 216.883 180.788C216.173 179.451 215.464 178.104 214.702 176.777C212.491 172.931 210.136 169.095 207.802 165.269L205.683 161.742C206.269 161.577 213.18 159.531 215.7 157.34C217.942 155.407 220.256 152.311 220.04 149.175C220.015 148.438 219.836 147.714 219.514 147.051C219.191 146.388 218.733 145.8 218.168 145.326C217.604 144.852 216.946 144.501 216.237 144.298C215.528 144.095 214.785 144.043 214.055 144.146C209.674 144.896 206.269 152.147 205.704 156.065C205.704 156.363 205.539 160.487 205.56 161.536C204.007 158.945 202.475 156.394 201.097 153.73C199.195 150.206 197.525 146.561 196.098 142.819C196.366 142.737 203.596 140.628 206.177 138.397C208.409 136.453 210.723 133.358 210.517 130.231C210.491 129.494 210.31 128.77 209.987 128.107C209.663 127.444 209.204 126.856 208.638 126.382C208.073 125.908 207.414 125.558 206.705 125.355C205.996 125.151 205.252 125.099 204.521 125.202C200.14 125.943 196.736 133.193 196.17 137.122C196.17 137.43 195.996 141.863 196.037 142.665C195.954 142.449 195.841 142.233 195.759 142.007C194.433 138.214 193.445 134.311 192.807 130.344C192.427 128.164 192.19 126.045 192.005 123.989C193.394 123.732 199.708 122.497 202.289 120.749C204.871 119.001 207.36 116.245 207.493 113.108C207.55 112.373 207.451 111.633 207.203 110.939C206.956 110.244 206.564 109.609 206.055 109.076C205.546 108.542 204.93 108.122 204.247 107.842C203.565 107.562 202.831 107.429 202.094 107.452C197.662 107.709 193.486 114.537 192.489 118.384C192.437 118.589 192.118 120.77 191.913 122.364C191.841 121.438 191.748 120.471 191.697 119.587C191.501 116.234 191.532 113.149 191.584 110.414C191.584 108.861 191.687 107.462 191.758 106.156C192.993 105.189 197.929 101.261 199.317 98.5867C200.706 95.9128 201.755 92.2413 200.428 89.4029C200.139 88.7235 199.711 88.1125 199.17 87.6097C198.63 87.107 197.989 86.7238 197.29 86.4851C196.592 86.2464 195.851 86.1576 195.116 86.2245C194.38 86.2913 193.668 86.5123 193.023 86.873C189.208 89.1458 188.653 97.1572 189.537 101.003C189.609 101.333 191.409 106.423 191.471 106.372L191.553 106.31C191.45 107.575 191.357 108.922 191.296 110.424C191.183 113.159 191.09 116.255 191.213 119.618C191.307 123.253 191.613 126.879 192.129 130.478C192.689 134.51 193.604 138.485 194.864 142.356C194.877 142.402 194.894 142.447 194.916 142.49C194.155 141.461 191.923 138.561 191.717 138.376C188.951 135.538 181.927 131.691 177.957 133.666C177.306 134.012 176.735 134.492 176.281 135.073C175.827 135.655 175.501 136.325 175.324 137.041C175.146 137.757 175.121 138.502 175.251 139.228C175.38 139.955 175.661 140.645 176.075 141.256C177.751 143.909 181.443 145.051 184.395 145.297C187.717 145.585 194.545 143.148 195.091 142.953C196.446 146.858 198.061 150.668 199.924 154.358C201.014 156.507 202.176 158.646 203.369 160.775C202.68 159.88 202.063 159.099 201.96 158.996C199.194 156.158 192.17 152.301 188.19 154.276C187.539 154.624 186.969 155.105 186.516 155.688C186.063 156.271 185.738 156.942 185.562 157.659C185.385 158.375 185.361 159.121 185.492 159.848C185.622 160.574 185.904 161.265 186.318 161.876C187.984 164.519 191.676 165.66 194.628 165.917C197.579 166.174 203.482 164.21 205.025 163.675C205.498 164.488 205.951 165.3 206.424 166.113C208.676 169.99 210.938 173.857 213.036 177.713C213.787 179.081 214.466 180.438 215.155 181.827C214.538 181.035 214.013 180.377 213.921 180.284C211.154 177.446 204.13 173.589 200.161 175.574C199.509 175.92 198.938 176.4 198.485 176.981C198.031 177.563 197.705 178.233 197.527 178.949C197.35 179.665 197.325 180.41 197.454 181.137C197.584 181.863 197.865 182.553 198.279 183.164C199.955 185.817 203.647 186.959 206.599 187.205C209.55 187.452 214.877 185.694 216.718 185.056C217.376 186.475 218.035 187.895 218.621 189.303C218.991 190.27 219.413 191.175 219.731 192.173L220.76 195.073C221.336 196.934 221.932 198.857 222.436 200.698C222.806 201.974 223.125 203.187 223.465 204.421C222.745 203.053 221.264 200.421 221.12 200.215C218.988 197.451 216.179 195.283 212.964 193.921C212.745 193.601 212.494 193.305 212.214 193.037C211.7 192.507 211.081 192.091 210.396 191.816C209.711 191.541 208.976 191.414 208.239 191.442C207.502 191.47 206.779 191.653 206.117 191.979C205.455 192.306 204.869 192.767 204.398 193.335C201.652 196.821 203.997 204.483 206.218 207.733C206.352 207.918 207.997 209.872 209.067 211.075C208.337 210.458 207.627 209.851 206.866 209.234C205.364 207.98 203.832 206.787 202.187 205.48L199.667 203.722C198.855 203.095 197.919 202.539 197.034 201.943C194.977 200.595 192.797 199.341 190.586 198.117C191.676 196.801 195.471 192.07 196.273 189.201C197.075 186.331 197.302 182.495 195.389 179.945C194.961 179.344 194.412 178.839 193.776 178.464C193.141 178.089 192.434 177.851 191.701 177.767C190.968 177.682 190.225 177.753 189.521 177.974C188.817 178.195 188.167 178.562 187.614 179.05C184.374 182.135 185.557 190.013 187.233 193.602C187.336 193.828 188.838 196.266 189.691 197.582C188.354 196.862 187.028 196.132 185.66 195.443C181.69 193.448 177.618 191.556 173.556 189.653L169.843 187.874C170.244 187.411 174.882 181.889 175.777 178.68C176.569 175.821 176.805 171.964 174.892 169.476C174.465 168.874 173.915 168.37 173.28 167.994C172.644 167.619 171.937 167.382 171.204 167.297C170.471 167.213 169.728 167.284 169.024 167.505C168.32 167.726 167.671 168.092 167.118 168.581C163.878 171.615 165.061 179.544 166.727 183.133C166.86 183.4 169.03 186.907 169.617 187.771C166.902 186.465 164.207 185.138 161.595 183.729C158.065 181.832 154.66 179.709 151.403 177.374C151.588 177.158 156.453 171.419 157.368 168.118C158.17 165.269 158.397 161.413 156.484 158.862C156.057 158.261 155.508 157.756 154.874 157.381C154.239 157.006 153.532 156.769 152.799 156.685C152.066 156.602 151.324 156.674 150.621 156.896C149.918 157.119 149.27 157.488 148.719 157.978C145.469 161.012 146.662 168.93 148.328 172.52C148.462 172.808 150.797 176.572 151.27 177.22C151.085 177.086 150.869 176.962 150.683 176.829C147.482 174.399 144.505 171.687 141.788 168.725C140.266 167.11 138.898 165.485 137.602 163.871C138.63 162.894 143.217 158.379 144.369 155.51C145.521 152.64 146.117 148.948 144.503 146.254C144.143 145.61 143.652 145.048 143.061 144.606C142.471 144.163 141.794 143.85 141.074 143.686C140.355 143.522 139.609 143.511 138.885 143.654C138.161 143.797 137.475 144.091 136.872 144.516C133.313 147.179 133.601 155.181 134.887 158.914C134.959 159.119 135.915 161.115 136.604 162.554C136.039 161.814 135.432 161.063 134.897 160.353C132.84 157.659 131.205 155.078 129.755 152.774C128.932 151.458 128.213 150.254 127.544 149.113C128.048 147.632 129.971 141.647 129.683 138.633C129.395 135.62 128.213 132 125.569 130.406C124.954 129.999 124.26 129.726 123.532 129.605C122.804 129.484 122.058 129.518 121.344 129.704C120.63 129.891 119.964 130.225 119.387 130.686C118.811 131.147 118.339 131.725 118 132.381C116.067 136.381 120.006 143.354 122.885 146.089C123.132 146.326 127.431 149.576 127.462 149.493V149.411C128.079 150.512 128.747 151.694 129.519 152.959C130.938 155.304 132.604 157.937 134.527 160.672C136.61 163.652 138.862 166.509 141.273 169.229C143.965 172.281 146.921 175.089 150.108 177.621L150.221 177.703C149.007 177.25 145.562 176.078 145.284 176.027C141.407 175.183 133.427 175.841 131.195 179.688C130.844 180.336 130.633 181.051 130.576 181.786C130.519 182.521 130.618 183.259 130.865 183.954C131.112 184.648 131.503 185.283 132.012 185.817C132.52 186.35 133.136 186.771 133.817 187.051C136.656 188.409 140.368 187.319 142.97 185.899Z" fill="#7CCCDB"/>
<path d="M191.316 123.505C191.399 123.505 189.342 118.518 189.177 118.209C187.254 114.743 181.495 109.169 177.145 110.033C176.434 110.201 175.765 110.515 175.183 110.956C174.6 111.397 174.116 111.955 173.762 112.594C173.407 113.233 173.19 113.939 173.125 114.667C173.059 115.395 173.146 116.129 173.381 116.821C174.286 119.813 177.546 121.891 180.333 122.909C183.542 124.112 191.316 123.505 191.316 123.505Z" fill="#7CCCDB"/>
<path d="M419.936 10.6466H347.031L343.946 16.2721C342.309 19.2225 339.912 21.6812 337.004 23.3931C334.096 25.105 330.784 26.0078 327.409 26.0078C324.035 26.0078 320.722 25.105 317.814 23.3931C314.906 21.6812 312.51 19.2225 310.872 16.2721L307.838 10.6466H234.985C231.299 10.6 227.746 12.0189 225.106 14.5915C222.466 17.1641 220.955 20.6798 220.906 24.3657V399.8C220.955 403.486 222.466 407.002 225.106 409.574C227.746 412.147 231.299 413.566 234.985 413.519H419.936C423.623 413.566 427.178 412.147 429.819 409.575C432.461 407.003 433.974 403.487 434.025 399.8V24.3657C433.974 20.6789 432.461 17.1632 429.819 14.5909C427.178 12.0185 423.623 10.5999 419.936 10.6466Z" fill="white"/>
<path d="M419.36 16.0457H404.664V24.1084H419.36V16.0457Z" stroke="white" stroke-width="0.910723" stroke-linecap="round" stroke-linejoin="round"/>
<path d="M416.131 16.0457H404.664V24.1084H416.131V16.0457Z" fill="#2855AF" stroke="white" stroke-width="0.804247" stroke-linecap="round" stroke-linejoin="round"/>
<path d="M421.397 18.2981H419.33V21.8461H421.397V18.2981Z" fill="#2855AF" stroke="white" stroke-width="0.804247" stroke-linecap="round" stroke-linejoin="round"/>
<path d="M235.735 18.5449H233.041V23.1625H235.735V18.5449Z" fill="#2855AF" stroke="white" stroke-width="0.979514" stroke-linecap="round" stroke-linejoin="round"/>
<path d="M239.974 16.9199H237.279V23.1624H239.974V16.9199Z" fill="#2855AF" stroke="white" stroke-width="0.979514" stroke-linecap="round" stroke-linejoin="round"/>
<path d="M244.21 15.0071H241.516V23.1624H244.21V15.0071Z" fill="#2855AF" stroke="white" stroke-width="0.979514" stroke-linecap="round" stroke-linejoin="round"/>
<path d="M227.426 26.8645H427.463" stroke="white" stroke-width="1.10919" stroke-linecap="round" stroke-linejoin="round"/>
<path d="M444.402 139.682C444.797 139.682 445.176 139.525 445.456 139.245C445.736 138.966 445.893 138.586 445.893 138.191V98.165C445.893 97.7695 445.736 97.3902 445.456 97.1105C445.176 96.8309 444.797 96.6738 444.402 96.6738H440.514V20.2108C440.514 17.6872 440.017 15.1882 439.051 12.8568C438.085 10.5254 436.669 8.40712 434.884 6.62309C433.099 4.83907 430.98 3.42422 428.648 2.45939C426.316 1.49456 423.817 0.998652 421.293 1H233.627C231.104 0.998652 228.604 1.49456 226.273 2.45939C223.941 3.42422 221.822 4.83907 220.037 6.62309C218.252 8.40712 216.836 10.5254 215.87 12.8568C214.903 15.1882 214.406 17.6872 214.406 20.2108V414.774C214.406 417.297 214.903 419.796 215.87 422.128C216.836 424.459 218.252 426.577 220.037 428.362C221.822 430.146 223.941 431.56 226.273 432.525C228.604 433.49 231.104 433.986 233.627 433.985H421.293C423.817 433.986 426.316 433.49 428.648 432.525C430.98 431.56 433.099 430.146 434.884 428.362C436.669 426.577 438.085 424.459 439.051 422.128C440.017 419.796 440.514 417.297 440.514 414.774V174.124H444.402C444.797 174.124 445.176 173.967 445.456 173.687C445.736 173.407 445.893 173.028 445.893 172.633V154.79C445.893 154.394 445.736 154.015 445.456 153.735C445.176 153.456 444.797 153.298 444.402 153.298H440.514V139.682H444.402ZM434.025 399.8C433.973 403.487 432.461 407.003 429.819 409.575C427.177 412.147 423.623 413.566 419.936 413.519H234.985C231.299 413.566 227.745 412.147 225.105 409.574C222.465 407.002 220.955 403.486 220.906 399.8V24.3657C220.955 20.6797 222.465 17.164 225.105 14.5914C227.745 12.0188 231.299 10.5999 234.985 10.6466H307.889L310.923 16.272C312.561 19.2225 314.957 21.6812 317.865 23.3931C320.773 25.1049 324.086 26.0077 327.46 26.0077C330.835 26.0077 334.147 25.1049 337.055 23.3931C339.963 21.6812 342.36 19.2225 343.997 16.272L347.082 10.6466H419.987C423.674 10.5999 427.229 12.0185 429.87 14.5908C432.512 17.1631 434.025 20.6788 434.076 24.3657L434.025 399.8Z" fill="#2855AF" stroke="white" stroke-width="1.10919" stroke-linecap="round" stroke-linejoin="round"/>
<path d="M332.481 12.796C332.481 11.8034 332.186 10.8331 331.635 10.0078C331.083 9.18248 330.3 8.53922 329.383 8.15937C328.466 7.77952 327.456 7.68013 326.483 7.87378C325.509 8.06742 324.615 8.54541 323.913 9.24729C323.211 9.94916 322.733 10.8434 322.54 11.8169C322.346 12.7905 322.446 13.7996 322.825 14.7166C323.205 15.6336 323.848 16.4174 324.674 16.9689C325.499 17.5204 326.469 17.8147 327.462 17.8147C328.121 17.8161 328.775 17.6872 329.384 17.4354C329.994 17.1837 330.548 16.8141 331.014 16.3478C331.48 15.8815 331.85 15.3277 332.101 14.7182C332.353 14.1087 332.482 13.4555 332.481 12.796Z" fill="white" stroke="white" stroke-width="1.10919" stroke-linecap="round" stroke-linejoin="round"/>
<path d="M353.829 38.239H240.703C238.414 38.239 236.22 39.1481 234.601 40.7662C232.983 42.3844 232.074 44.579 232.074 46.8674V93.2183L242.225 82.3684H353.829C356.117 82.3684 358.312 81.4594 359.93 79.8412C361.548 78.2231 362.457 76.0284 362.457 73.74V46.8674C362.457 44.579 361.548 42.3844 359.93 40.7662C358.312 39.1481 356.117 38.239 353.829 38.239Z" fill="#2855AF"/>
<path d="M257.069 69.1664C263.678 68.09 268.163 61.8594 267.087 55.25C266.01 48.6406 259.78 44.1552 253.171 45.2317C246.561 46.3081 242.076 52.5386 243.152 59.148C244.229 65.7574 250.459 70.2428 257.069 69.1664Z" fill="white"/>
<path d="M261.24 57.4805C261.24 57.4805 262.515 55.7836 262.803 57.4805C263.091 59.1774 260.623 61.3062 260.623 61.3062L261.24 57.4805Z" fill="white" stroke="#2855AF" stroke-width="1.10919" stroke-linecap="round" stroke-linejoin="round"/>
<path d="M249.043 57.4805C249.043 57.4805 247.778 55.7836 247.49 57.4805C247.202 59.1774 249.66 61.3062 249.66 61.3062L249.043 57.4805Z" fill="white" stroke="#2855AF" stroke-width="1.10919" stroke-linecap="round" stroke-linejoin="round"/>
<path d="M255.573 49.1198C255.573 49.1198 250.771 48.7495 249.66 51.9479C248.549 55.1463 249.3 60.3192 249.66 61.3065C250.02 62.2938 253.115 67.0862 253.969 67.477C254.823 67.8678 256.931 67.7239 257.291 67.2302C257.651 66.7366 260.746 62.1807 260.983 60.5866C261.084 58.2345 261.039 55.8783 260.849 53.5317C260.804 52.704 260.527 51.9059 260.048 51.2291C259.57 50.5523 258.91 50.0243 258.144 49.706C257.326 49.3673 256.457 49.1691 255.573 49.1198Z" fill="white" stroke="#2855AF" stroke-width="1.10919" stroke-linecap="round" stroke-linejoin="round"/>
<path d="M260.849 53.5111C260.804 52.6835 260.527 51.8853 260.048 51.2085C259.57 50.5317 258.91 50.0037 258.144 49.6854C257.325 49.3538 256.456 49.1626 255.573 49.1198C255.573 49.1198 250.771 48.7495 249.66 51.9479C249.139 53.771 248.954 55.6738 249.115 57.5631C249.362 57.851 250.143 58.7046 250.041 57.6248C249.897 56.3496 249.753 52.4827 250.75 51.6805C251.748 50.8784 251.881 50.1276 253.29 51.2589C254.699 52.3901 254.566 53.3774 255.985 52.6781C257.404 51.9788 257.682 50.4156 258.947 50.9812C260.212 51.5468 259.8 54.231 259.8 55.5062C259.8 56.7815 259.8 59.1777 260.654 58.0464C260.81 57.8099 260.934 57.5541 261.024 57.2854C260.983 55.9896 260.911 54.6012 260.849 53.5111Z" fill="#2855AF" stroke="#2855AF" stroke-width="1.10919" stroke-linecap="round" stroke-linejoin="round"/>
<path d="M253.527 66.6851C253.527 66.6851 255.049 63.5998 256.016 64.7517C256.619 65.466 257.054 66.3056 257.291 67.2096C256.709 67.5985 256.003 67.7599 255.31 67.6633C254.616 67.5666 253.982 67.2185 253.527 66.6851Z" fill="#2855AF" stroke="#2855AF" stroke-width="1.10919" stroke-linecap="round" stroke-linejoin="round"/>
<path d="M254.215 48.8831C253.976 48.332 253.597 47.8533 253.115 47.4947L252.426 47.0833C252.426 47.0833 254.082 46.3943 254.627 46.9496C254.974 47.2935 255.297 47.6612 255.593 48.05C255.593 48.05 255.871 46.1166 256.56 46.8057C256.952 47.201 257.367 47.5719 257.804 47.9164C257.804 47.9164 255.871 48.4614 255.871 49.8498" fill="#2855AF"/>
<path d="M254.215 48.8831C253.976 48.332 253.597 47.8533 253.115 47.4947L252.426 47.0833C252.426 47.0833 254.082 46.3943 254.627 46.9496C254.974 47.2935 255.297 47.6612 255.593 48.05C255.593 48.05 255.871 46.1166 256.56 46.8057C256.952 47.201 257.367 47.5719 257.804 47.9164C257.804 47.9164 255.871 48.4614 255.871 49.8498" stroke="#2855AF" stroke-width="1.10919" stroke-linecap="round" stroke-linejoin="round"/>
<path d="M274.404 48.5437H299.539" stroke="white" stroke-width="2.21839" stroke-linecap="round" stroke-linejoin="round"/>
<path d="M274.404 57.2957H351.34" stroke="white" stroke-width="1.10919" stroke-linecap="round" stroke-linejoin="round"/>
<path d="M274.404 64.5356H351.34" stroke="white" stroke-width="1.10919" stroke-linecap="round" stroke-linejoin="round"/>
<path d="M274.404 72.5369H351.34" stroke="white" stroke-width="1.10919" stroke-linecap="round" stroke-linejoin="round"/>
<path d="M413.868 100.88H300.681C299.548 100.88 298.427 101.103 297.38 101.537C296.334 101.971 295.383 102.606 294.583 103.408C293.783 104.209 293.148 105.16 292.716 106.207C292.283 107.254 292.061 108.376 292.063 109.508V136.422C292.063 138.709 292.97 140.902 294.586 142.52C296.202 144.137 298.394 145.048 300.681 145.05H412.295L422.497 155.859V109.488C422.491 107.203 421.58 105.014 419.962 103.4C418.345 101.786 416.153 100.88 413.868 100.88Z" fill="#7CCCDB"/>
<path d="M334.441 111.154H359.576" stroke="#2855AF" stroke-width="2.21839" stroke-linecap="round" stroke-linejoin="round"/>
<path d="M334.441 119.916H411.377" stroke="#2855AF" stroke-width="1.10919" stroke-linecap="round" stroke-linejoin="round"/>
<path d="M334.441 127.156H411.377" stroke="#2855AF" stroke-width="1.10919" stroke-linecap="round" stroke-linejoin="round"/>
<path d="M334.441 135.157H411.377" stroke="#2855AF" stroke-width="1.10919" stroke-linecap="round" stroke-linejoin="round"/>
<path d="M315.664 134.489C322.361 134.489 327.789 129.06 327.789 122.364C327.789 115.667 322.361 110.239 315.664 110.239C308.968 110.239 303.539 115.667 303.539 122.364C303.539 129.06 308.968 134.489 315.664 134.489Z" fill="white"/>
<path d="M314.142 113.149C312.887 113.074 311.642 113.419 310.604 114.131C309.567 114.842 308.796 115.879 308.414 117.078C306.996 120.875 306.197 124.875 306.049 128.925C306.049 131.434 311.016 133.419 313.731 133.625C316.446 133.831 322.555 133.728 324.653 130.385C326.751 127.043 323.347 120.256 322.504 116.08C321.66 111.905 317.063 112.943 314.142 113.149Z" fill="#2855AF" stroke="#2855AF" stroke-width="1.10919" stroke-linecap="round" stroke-linejoin="round"/>
<path d="M321.781 121.531C321.781 121.531 323.056 119.834 323.334 121.531C323.612 123.227 321.164 125.346 321.164 125.346L321.781 121.531Z" fill="white" stroke="#2855AF" stroke-width="1.10919" stroke-linecap="round" stroke-linejoin="round"/>
<path d="M309.585 121.531C309.585 121.531 308.309 119.834 308.032 121.531C307.754 123.227 310.202 125.346 310.202 125.346L309.585 121.531Z" fill="white" stroke="#2855AF" stroke-width="1.10919" stroke-linecap="round" stroke-linejoin="round"/>
<path d="M316.115 113.221C316.115 113.221 311.313 112.851 310.202 116.049C309.091 119.247 309.832 124.42 310.202 125.397C310.572 126.374 313.647 131.187 314.511 131.568C315.375 131.948 317.462 131.815 317.833 131.321C318.203 130.827 321.278 126.271 321.525 124.677C321.626 122.325 321.581 119.969 321.391 117.622C321.347 116.794 321.07 115.996 320.592 115.319C320.113 114.642 319.452 114.114 318.686 113.797C317.868 113.462 316.999 113.267 316.115 113.221Z" fill="white" stroke="#2855AF" stroke-width="1.10919" stroke-linecap="round" stroke-linejoin="round"/>
<path d="M312.465 114.404C312.465 114.404 320.229 121.531 321.782 121.531C323.335 121.531 323.541 116.286 321.864 113.776C320.188 111.267 312.218 109.807 312.465 114.404Z" fill="#2855AF" stroke="#2855AF" stroke-width="1.10919" stroke-linecap="round" stroke-linejoin="round"/>
<path d="M353.829 165.341H240.703C238.416 165.341 236.223 166.249 234.605 167.865C232.987 169.481 232.077 171.673 232.074 173.959V220.31L242.276 209.502H353.829C354.961 209.503 356.083 209.281 357.13 208.849C358.177 208.416 359.128 207.781 359.929 206.981C360.731 206.181 361.366 205.23 361.8 204.184C362.234 203.138 362.457 202.016 362.457 200.883V173.959C362.457 172.827 362.234 171.705 361.8 170.659C361.366 169.613 360.731 168.662 359.929 167.862C359.128 167.061 358.177 166.427 357.13 165.994C356.083 165.562 354.961 165.34 353.829 165.341Z" fill="#2855AF"/>
<path d="M266.301 188.954C268.88 182.774 265.961 175.673 259.781 173.094C253.601 170.515 246.5 173.435 243.921 179.615C241.343 185.795 244.262 192.895 250.442 195.474C256.622 198.053 263.722 195.134 266.301 188.954Z" fill="white"/>
<path d="M261.24 184.583C261.24 184.583 262.515 182.886 262.803 184.583C263.091 186.28 260.623 188.398 260.623 188.398L261.24 184.583Z" fill="white" stroke="#2855AF" stroke-width="1.10919" stroke-linecap="round" stroke-linejoin="round"/>
<path d="M249.043 184.583C249.043 184.583 247.778 182.886 247.49 184.583C247.202 186.28 249.66 188.398 249.66 188.398L249.043 184.583Z" fill="white" stroke="#2855AF" stroke-width="1.10919" stroke-linecap="round" stroke-linejoin="round"/>
<path d="M255.573 176.212C255.573 176.212 250.771 175.841 249.66 179.04C248.549 182.238 249.3 187.411 249.66 188.398C250.02 189.386 253.115 194.188 253.969 194.569C254.823 194.949 256.931 194.816 257.291 194.322C257.651 193.828 260.746 189.283 260.983 187.678C261.084 185.326 261.039 182.97 260.849 180.623C260.806 179.797 260.529 178.999 260.05 178.324C259.571 177.648 258.91 177.123 258.144 176.808C257.326 176.47 256.457 176.269 255.573 176.212Z" fill="white" stroke="#2855AF" stroke-width="1.10919" stroke-linecap="round" stroke-linejoin="round"/>
<path d="M260.849 180.603C260.806 179.776 260.529 178.978 260.05 178.303C259.571 177.628 258.91 177.102 258.144 176.787C257.324 176.457 256.456 176.262 255.573 176.212C255.573 176.212 250.771 175.841 249.66 179.04C249.139 180.866 248.954 182.772 249.115 184.665C249.362 184.943 250.143 185.807 250.04 184.727C249.896 183.452 249.753 179.585 250.75 178.783C251.748 177.98 251.881 177.23 253.29 178.361C254.699 179.492 254.566 180.48 255.985 179.77C257.404 179.06 257.682 177.507 258.947 178.073C260.212 178.639 259.8 181.323 259.8 182.598C259.8 183.873 259.8 186.28 260.654 185.149C260.809 184.908 260.934 184.649 261.024 184.377C260.983 183.092 260.911 181.683 260.849 180.603Z" fill="#2855AF" stroke="#2855AF" stroke-width="1.10919" stroke-linecap="round" stroke-linejoin="round"/>
<path d="M253.527 193.777C253.527 193.777 255.049 190.692 256.016 191.843C256.617 192.559 257.052 193.398 257.291 194.301C256.709 194.69 256.003 194.852 255.31 194.755C254.616 194.658 253.982 194.31 253.527 193.777Z" fill="#2855AF" stroke="#2855AF" stroke-width="1.10919" stroke-linecap="round" stroke-linejoin="round"/>
<path d="M254.215 175.954C253.977 175.406 253.597 174.93 253.115 174.576L252.426 174.165C252.426 174.165 254.082 173.476 254.627 174.021C254.973 174.37 255.296 174.741 255.593 175.132C255.593 175.132 255.871 173.198 256.56 173.887C256.95 174.281 257.366 174.649 257.804 174.988C257.804 174.988 255.871 175.543 255.871 176.921" fill="#2855AF"/>
<path d="M254.215 175.954C253.977 175.406 253.597 174.93 253.115 174.576L252.426 174.165C252.426 174.165 254.082 173.476 254.627 174.021C254.973 174.37 255.296 174.741 255.593 175.132C255.593 175.132 255.871 173.198 256.56 173.887C256.95 174.281 257.366 174.649 257.804 174.988C257.804 174.988 255.871 175.543 255.871 176.921" stroke="#2855AF" stroke-width="1.10919" stroke-linecap="round" stroke-linejoin="round"/>
<path d="M274.404 175.636H299.539" stroke="white" stroke-width="2.21839" stroke-linecap="round" stroke-linejoin="round"/>
<path d="M274.404 184.398H351.34" stroke="white" stroke-width="1.10919" stroke-linecap="round" stroke-linejoin="round"/>
<path d="M274.404 191.638H351.34" stroke="white" stroke-width="1.10919" stroke-linecap="round" stroke-linejoin="round"/>
<path d="M274.404 199.629H351.34" stroke="white" stroke-width="1.10919" stroke-linecap="round" stroke-linejoin="round"/>
<path d="M353.828 228.62H240.702C239.563 228.61 238.433 228.826 237.378 229.256C236.323 229.685 235.363 230.319 234.555 231.121C233.746 231.923 233.104 232.878 232.666 233.929C232.227 234.981 232.002 236.109 232.002 237.248V283.599L242.204 272.79H353.828C356.117 272.79 358.311 271.881 359.93 270.263C361.548 268.645 362.457 266.45 362.457 264.162V237.248C362.458 236.115 362.236 234.992 361.803 233.945C361.37 232.897 360.734 231.945 359.933 231.144C359.131 230.342 358.179 229.707 357.132 229.274C356.084 228.841 354.962 228.618 353.828 228.62Z" fill="#2855AF"/>
<path d="M266.293 252.227C268.872 246.047 265.953 238.947 259.773 236.368C253.593 233.789 246.492 236.708 243.914 242.888C241.335 249.068 244.254 256.169 250.434 258.747C256.614 261.326 263.715 258.407 266.293 252.227Z" fill="white"/>
<path d="M261.24 247.861C261.24 247.861 262.515 246.164 262.803 247.861C263.091 249.558 260.623 251.677 260.623 251.677L261.24 247.861Z" fill="white" stroke="#2855AF" stroke-width="1.10919" stroke-linecap="round" stroke-linejoin="round"/>
<path d="M249.043 247.861C249.043 247.861 247.778 246.164 247.49 247.861C247.202 249.558 249.66 251.677 249.66 251.677L249.043 247.861Z" fill="white" stroke="#2855AF" stroke-width="1.10919" stroke-linecap="round" stroke-linejoin="round"/>
<path d="M255.573 239.49C255.573 239.49 250.771 239.12 249.66 242.329C248.549 245.537 249.3 250.69 249.66 251.677C250.02 252.664 253.115 257.467 253.969 257.847C254.823 258.228 256.931 258.094 257.291 257.601C257.651 257.107 260.746 252.551 260.983 250.947C261.084 248.594 261.039 246.238 260.849 243.892C260.806 243.065 260.529 242.267 260.05 241.592C259.571 240.916 258.91 240.391 258.144 240.076C257.325 239.742 256.457 239.544 255.573 239.49Z" fill="white" stroke="#2855AF" stroke-width="1.10919" stroke-linecap="round" stroke-linejoin="round"/>
<path d="M260.849 243.881C260.806 243.055 260.529 242.257 260.05 241.581C259.571 240.906 258.91 240.38 258.144 240.066C257.325 239.735 256.456 239.541 255.573 239.49C255.573 239.49 250.771 239.12 249.66 242.329C249.139 244.152 248.954 246.054 249.115 247.944C249.362 248.232 250.143 249.085 250.041 248.005C249.897 246.73 249.753 242.915 250.75 242.061C251.748 241.208 251.881 240.508 253.29 241.639C254.699 242.771 254.566 243.758 255.985 243.048C257.404 242.339 257.682 240.786 258.947 241.352C260.212 241.917 259.8 244.612 259.8 245.877C259.8 247.141 259.8 249.558 260.654 248.427C260.808 248.189 260.932 247.934 261.024 247.666C260.983 246.37 260.911 244.961 260.849 243.881Z" fill="#2855AF" stroke="#2855AF" stroke-width="1.10919" stroke-linecap="round" stroke-linejoin="round"/>
<path d="M253.527 257.056C253.527 257.056 255.049 254.022 256.016 255.132C256.619 255.847 257.054 256.686 257.291 257.59C256.707 257.976 256.001 258.134 255.308 258.036C254.615 257.937 253.981 257.589 253.527 257.056Z" fill="#2855AF" stroke="#2855AF" stroke-width="1.10919" stroke-linecap="round" stroke-linejoin="round"/>
<path d="M254.215 239.254C253.977 238.705 253.597 238.229 253.115 237.876L252.426 237.464C252.426 237.464 254.082 236.775 254.627 237.32C254.973 237.669 255.296 238.04 255.593 238.431C255.593 238.431 255.871 236.497 256.56 237.187C256.95 237.581 257.366 237.948 257.804 238.287C257.804 238.287 255.871 238.842 255.871 240.22" fill="#2855AF"/>
<path d="M254.215 239.254C253.977 238.705 253.597 238.229 253.115 237.876L252.426 237.464C252.426 237.464 254.082 236.775 254.627 237.32C254.973 237.669 255.296 238.04 255.593 238.431C255.593 238.431 255.871 236.497 256.56 237.187C256.95 237.581 257.366 237.948 257.804 238.287C257.804 238.287 255.871 238.842 255.871 240.22" stroke="#2855AF" stroke-width="1.10919" stroke-linecap="round" stroke-linejoin="round"/>
<path d="M274.404 238.914H299.539" stroke="white" stroke-width="2.21839" stroke-linecap="round" stroke-linejoin="round"/>
<path d="M274.404 247.676H351.34" stroke="white" stroke-width="1.10919" stroke-linecap="round" stroke-linejoin="round"/>
<path d="M274.404 254.916H351.34" stroke="white" stroke-width="1.10919" stroke-linecap="round" stroke-linejoin="round"/>
<path d="M274.404 262.907H351.34" stroke="white" stroke-width="1.10919" stroke-linecap="round" stroke-linejoin="round"/>
<path d="M353.829 347.865H240.703C238.414 347.865 236.22 348.774 234.601 350.392C232.983 352.01 232.074 354.205 232.074 356.493V402.844L242.276 392.036H353.829C354.962 392.037 356.085 391.815 357.132 391.382C358.18 390.948 359.131 390.313 359.933 389.511C360.734 388.71 361.37 387.758 361.803 386.711C362.236 385.663 362.458 384.541 362.457 383.407V356.493C362.457 354.205 361.548 352.01 359.93 350.392C358.312 348.774 356.117 347.865 353.829 347.865Z" fill="#2855AF"/>
<path d="M257.084 378.797C263.694 377.721 268.179 371.49 267.103 364.881C266.026 358.271 259.796 353.786 253.186 354.863C246.577 355.939 242.091 362.169 243.168 368.779C244.244 375.388 250.475 379.874 257.084 378.797Z" fill="white"/>
<path d="M261.24 367.117C261.24 367.117 262.515 365.42 262.803 367.117C263.091 368.814 260.623 370.932 260.623 370.932L261.24 367.117Z" fill="white" stroke="#2855AF" stroke-width="1.10919" stroke-linecap="round" stroke-linejoin="round"/>
<path d="M249.043 367.117C249.043 367.117 247.778 365.42 247.49 367.117C247.202 368.814 249.66 370.932 249.66 370.932L249.043 367.117Z" fill="white" stroke="#2855AF" stroke-width="1.10919" stroke-linecap="round" stroke-linejoin="round"/>
<path d="M255.573 358.746C255.573 358.746 250.771 358.375 249.66 361.574C248.549 364.772 249.3 369.945 249.66 370.932C250.02 371.92 253.115 376.712 253.969 377.103C254.823 377.494 256.931 377.35 257.291 376.856C257.651 376.362 260.746 371.817 260.983 370.212C261.084 367.86 261.039 365.504 260.849 363.157C260.804 362.33 260.527 361.532 260.048 360.855C259.57 360.178 258.91 359.65 258.144 359.332C257.325 358.998 256.457 358.8 255.573 358.746Z" fill="white" stroke="#2855AF" stroke-width="1.10919" stroke-linecap="round" stroke-linejoin="round"/>
<path d="M260.849 363.127C260.804 362.299 260.527 361.501 260.048 360.824C259.57 360.147 258.91 359.619 258.144 359.301C257.324 358.974 256.455 358.783 255.573 358.735C255.573 358.735 250.771 358.365 249.66 361.563C249.139 363.39 248.954 365.296 249.115 367.189C249.362 367.467 250.143 368.33 250.04 367.24C249.896 365.975 249.753 362.15 250.75 361.306C251.748 360.463 251.881 359.743 253.29 360.874C254.699 362.006 254.566 363.003 255.985 362.294C257.404 361.584 257.682 360.031 258.947 360.597C260.212 361.162 259.8 363.846 259.8 365.122C259.8 366.397 259.8 368.803 260.654 367.672C260.807 367.431 260.932 367.172 261.024 366.901C260.983 365.615 260.911 364.217 260.849 363.127Z" fill="#2855AF" stroke="#2855AF" stroke-width="1.10919" stroke-linecap="round" stroke-linejoin="round"/>
<path d="M253.527 376.311C253.527 376.311 255.049 373.277 256.016 374.377C256.617 375.093 257.052 375.932 257.291 376.835C256.709 377.224 256.003 377.386 255.31 377.289C254.616 377.192 253.982 376.844 253.527 376.311Z" fill="#2855AF" stroke="#2855AF" stroke-width="1.10919" stroke-linecap="round" stroke-linejoin="round"/>
<path d="M254.215 358.509C253.977 357.96 253.597 357.485 253.115 357.131L252.426 356.72C252.426 356.72 254.082 356.02 254.627 356.576C254.971 356.922 255.294 357.29 255.593 357.676C255.593 357.676 255.871 355.753 256.56 356.442C256.95 356.836 257.366 357.204 257.804 357.542C257.804 357.542 255.871 358.098 255.871 359.476" fill="#2855AF"/>
<path d="M254.215 358.509C253.977 357.96 253.597 357.485 253.115 357.131L252.426 356.72C252.426 356.72 254.082 356.02 254.627 356.576C254.971 356.922 255.294 357.29 255.593 357.676C255.593 357.676 255.871 355.753 256.56 356.442C256.95 356.836 257.366 357.204 257.804 357.542C257.804 357.542 255.871 358.098 255.871 359.476" stroke="#2855AF" stroke-width="1.10919" stroke-linecap="round" stroke-linejoin="round"/>
<path d="M274.404 358.17H299.539" stroke="white" stroke-width="2.21839" stroke-linecap="round" stroke-linejoin="round"/>
<path d="M274.404 366.932H351.34" stroke="white" stroke-width="1.10919" stroke-linecap="round" stroke-linejoin="round"/>
<path d="M274.404 374.162H351.34" stroke="white" stroke-width="1.10919" stroke-linecap="round" stroke-linejoin="round"/>
<path d="M274.404 382.163H351.34" stroke="white" stroke-width="1.10919" stroke-linecap="round" stroke-linejoin="round"/>
<path d="M413.868 291.754H300.681C299.548 291.756 298.426 291.98 297.379 292.415C296.333 292.85 295.383 293.487 294.582 294.289C293.782 295.091 293.148 296.043 292.715 297.09C292.283 298.138 292.061 299.26 292.063 300.393V327.307C292.061 328.439 292.283 329.561 292.716 330.608C293.148 331.655 293.783 332.606 294.583 333.407C295.383 334.209 296.334 334.844 297.38 335.278C298.427 335.712 299.548 335.935 300.681 335.935H412.295L422.497 346.744V300.393C422.498 299.259 422.276 298.136 421.843 297.088C421.41 296.04 420.775 295.088 419.973 294.285C419.172 293.483 418.22 292.846 417.173 292.412C416.125 291.978 415.002 291.754 413.868 291.754Z" fill="#7CCCDB"/>
<path d="M334.441 302.059H359.576" stroke="#2855AF" stroke-width="2.21839" stroke-linecap="round" stroke-linejoin="round"/>
<path d="M334.441 310.821H411.377" stroke="#2855AF" stroke-width="1.10919" stroke-linecap="round" stroke-linejoin="round"/>
<path d="M334.441 318.051H411.377" stroke="#2855AF" stroke-width="1.10919" stroke-linecap="round" stroke-linejoin="round"/>
<path d="M334.441 326.052H411.377" stroke="#2855AF" stroke-width="1.10919" stroke-linecap="round" stroke-linejoin="round"/>
<path d="M315.664 325.394C322.361 325.394 327.789 319.966 327.789 313.269C327.789 306.573 322.361 301.144 315.664 301.144C308.968 301.144 303.539 306.573 303.539 313.269C303.539 319.966 308.968 325.394 315.664 325.394Z" fill="white"/>
<path d="M314.142 304.054C312.887 303.979 311.642 304.324 310.604 305.036C309.567 305.747 308.796 306.784 308.414 307.983C306.994 311.779 306.195 315.78 306.049 319.83C306.049 322.339 311.016 324.324 313.731 324.53C316.446 324.736 322.555 324.633 324.653 321.29C326.751 317.948 323.347 311.161 322.504 306.975C321.66 302.789 317.063 303.848 314.142 304.054Z" fill="#2855AF" stroke="#2855AF" stroke-width="1.10919" stroke-linecap="round" stroke-linejoin="round"/>
<path d="M321.781 312.436C321.781 312.436 323.056 310.739 323.334 312.436C323.612 314.133 321.164 316.251 321.164 316.251L321.781 312.436Z" fill="white" stroke="#2855AF" stroke-width="1.10919" stroke-linecap="round" stroke-linejoin="round"/>
<path d="M309.585 312.436C309.585 312.436 308.309 310.739 308.032 312.436C307.754 314.133 310.202 316.251 310.202 316.251L309.585 312.436Z" fill="white" stroke="#2855AF" stroke-width="1.10919" stroke-linecap="round" stroke-linejoin="round"/>
<path d="M316.115 304.065C316.115 304.065 311.313 303.694 310.202 306.903C309.091 310.112 309.832 315.264 310.202 316.251C310.572 317.239 313.647 322.041 314.511 322.422C315.375 322.802 317.462 322.669 317.833 322.175C318.203 321.681 321.278 317.125 321.525 315.521C321.626 313.169 321.581 310.813 321.391 308.466C321.348 307.639 321.071 306.842 320.592 306.166C320.113 305.491 319.452 304.965 318.686 304.651C317.867 304.317 316.998 304.119 316.115 304.065Z" fill="white" stroke="#2855AF" stroke-width="1.10919" stroke-linecap="round" stroke-linejoin="round"/>
<path d="M312.465 305.309C312.465 305.309 320.229 312.436 321.782 312.436C323.335 312.436 323.541 307.191 321.864 304.682C320.188 302.172 312.218 300.712 312.465 305.309Z" fill="#2855AF" stroke="#2855AF" stroke-width="1.10919" stroke-linecap="round" stroke-linejoin="round"/>
<path d="M29.403 419.741C26.3002 418.766 23.3984 417.24 20.8363 415.237C17.4116 412.285 6.59266 404.264 3.46627 402.207C0.339876 400.15 0.720391 409.653 1.77966 414.548C2.63635 418.776 4.43233 422.759 7.03488 426.2C9.00944 428.545 21.8955 433.399 23.3353 433.728C24.7751 434.057 30.5342 434.16 31.7066 433.604C32.879 433.049 30.4314 423.804 29.403 419.741Z" fill="#7CCCDB" stroke="#2855AF" stroke-width="1.10919" stroke-miterlimit="10"/>
<path d="M7.69405 422.199C4.68079 418.332 2.55197 406.475 2.45941 401.929C0.402572 402.412 0.855072 410.259 1.78065 414.578C2.63734 418.807 4.43332 422.789 7.03587 426.23C9.01043 428.575 21.8965 433.429 23.3363 433.758C25.2825 434.015 27.2484 434.091 29.2086 433.985C22.205 431.527 10.7279 426.086 7.69405 422.199Z" fill="white" stroke="#2855AF" stroke-width="1.10919" stroke-miterlimit="10"/>
<path d="M169.988 349.274C169.988 349.274 166.43 355.866 164.63 359.692C162.83 363.518 161.288 366.274 161.288 366.274C161.288 366.274 159.57 362.921 158.264 363.549C157.353 363.958 156.402 364.271 155.426 364.484C155.426 364.484 153.801 358.664 151.312 355.609C148.823 352.555 146.715 354.025 144.411 351.989C141.151 349.11 139.835 348.246 137.655 346.497C134.971 344.348 130.867 353.45 130.795 356.884C130.723 360.319 148.319 381.906 152.711 387.809C157.102 393.712 161.535 397.425 164.394 393.836C167.253 390.246 168.61 386.832 170.77 375.324C172.929 363.816 178.205 346.22 169.988 349.274Z" fill="#7CCCDB" stroke="#00091F" stroke-width="1.10919" stroke-miterlimit="10"/>
<path d="M137.635 346.497L129.645 340.502C128.781 338.805 127.043 335.277 126.096 332.819C124.801 329.477 124.235 327.348 121.263 325.024C118.291 322.7 111.256 319.882 110.362 318.926C109.467 317.969 109.107 321.62 110.732 323.317C111.456 324.196 112.371 324.899 113.406 325.374C113.406 325.374 101.816 323.934 101.795 324.839C101.774 325.744 111.647 338.208 115.216 341.098C116.707 342.332 120.039 343.494 121.931 344.852C122.865 345.522 123.727 346.287 124.502 347.135C124.06 347.382 123.916 347.372 123.865 347.341C124.276 347.917 130.416 356.679 132.298 356.298C134.18 355.918 140.474 355.352 137.635 346.497Z" fill="white" stroke="#2855AF" stroke-width="1.10919" stroke-miterlimit="10"/>
<path d="M102.121 311.015L100.871 311.866L116.925 335.436L118.175 334.585L102.121 311.015Z" fill="#7CCCDB" stroke="#7CCCDB" stroke-width="1.10919" stroke-miterlimit="10"/>
<path d="M105.394 318.545C105.394 318.545 99.2236 325.209 99.964 325.826C100.704 326.443 103.049 328.757 103.687 328.469C104.325 328.181 107.574 322.813 107.739 322.206C107.903 321.599 105.394 318.545 105.394 318.545Z" fill="white" stroke="#2855AF" stroke-width="1.10919" stroke-miterlimit="10"/>
<path d="M108.479 323.019C108.479 323.019 103.81 329.868 104.252 330.485C104.694 331.102 110.598 338.003 111.338 338.465C112.078 338.928 116.244 334.938 116.244 334.938L108.479 323.019Z" fill="white" stroke="#2855AF" stroke-width="1.10919" stroke-miterlimit="10"/>
<path d="M110.968 326.947C110.968 326.947 106.608 333.807 107.06 333.817" stroke="#2855AF" stroke-width="1.10919" stroke-miterlimit="10"/>
<path d="M113.888 331.688L109.867 336.439" stroke="#2855AF" stroke-width="1.10919" stroke-miterlimit="10"/>
<path d="M113.404 325.343L117.148 327.071C117.148 327.071 116.212 336.265 121.261 339.412" fill="white"/>
<path d="M113.404 325.343L117.148 327.071C117.148 327.071 116.212 336.265 121.261 339.412" stroke="#2855AF" stroke-width="1.10919" stroke-miterlimit="10"/>
<path d="M123.864 347.309C123.864 347.309 123.844 347.289 123.864 347.309V347.309Z" fill="white" stroke="#00091F" stroke-width="1.10919" stroke-miterlimit="10"/>
<path d="M166.625 397.322C166.625 397.322 130.239 353.871 126.29 349.202C122.341 344.533 113.435 342.6 108.211 344.224C102.986 345.849 96.6306 360.453 95.3657 366.49C94.1007 372.526 83.7651 398.587 81.9962 402.011C80.2274 405.436 77.5329 409.138 77.5021 410.588C77.4712 412.038 77.4506 413.18 77.4506 413.18L75.6406 417.18C75.6406 417.18 83.9914 418.209 87.4674 417.705C90.9435 417.201 95.921 413.252 96.826 411.246C97.731 409.241 100.282 404.305 103.356 402.145C107.738 399.06 115.358 378.419 115.358 378.419L129.756 409.879C129.756 409.879 158.243 413.9 164.609 413.159C170.975 412.419 166.625 397.322 166.625 397.322Z" fill="#2855AF" stroke="white" stroke-width="1.10919" stroke-miterlimit="10"/>
<path d="M165.246 393.835C165.246 393.835 160.803 399.512 160.783 400.674V401.826L136.471 404.264C136.471 404.264 111.367 403.77 107.603 404.562C103.839 405.354 49.2918 419.875 45.8158 420.389C42.3397 420.903 40.6737 417.972 39.2339 417.942C37.7941 417.911 36.3646 416.728 34.3489 416.687C32.3332 416.646 30.5438 419.505 29.3816 419.772C28.6334 420.049 27.8519 420.225 27.0574 420.297C26.1935 420.297 26.8106 418.24 26.1936 420.297C25.5765 422.353 24.0236 428.041 25.4119 430.663C26.3072 432.296 27.5628 433.702 29.0834 434.777C29.0834 434.777 75.8456 434.828 83.5896 434.982C91.3336 435.137 115.378 433.018 118.268 432.782C121.158 432.545 162.953 435.096 169.586 435.229C176.219 435.363 198.166 435.229 201.96 432.977C205.755 430.725 210.62 418.137 209.848 413.221C209.077 408.305 168.948 394.237 168.948 394.237L165.246 393.835Z" fill="#2855AF" stroke="white" stroke-width="1.10919" stroke-miterlimit="10"/>
<path d="M163.592 389.763C163.182 390.765 163.06 391.863 163.243 392.93C163.489 394.987 208.668 416.584 210.128 415.782C211.588 414.98 212.617 406.588 212.617 406.588L163.644 387.161L163.592 389.763Z" fill="#7CCCDB" stroke="#2855AF" stroke-width="1.10919" stroke-miterlimit="10"/>
<path d="M182.843 320.581C182.843 320.581 174.543 331.966 171.479 340.851C168.414 349.737 163.488 380.229 161.688 383.952C159.888 387.675 159.837 389.979 162.418 390.606C165 391.233 189.62 402.104 197.919 405.436C206.219 408.768 213.664 411.812 214.919 406.639C216.174 401.466 216.246 398.299 216.102 390.503C215.958 382.708 215.824 346.045 215.166 335.359C214.508 324.674 208.79 307.232 201.282 307.664C193.775 308.096 182.843 320.581 182.843 320.581Z" fill="#7CCCDB" stroke="#2855AF" stroke-width="1.10919" stroke-miterlimit="10"/>
<path d="M198.567 280.514C197.683 274.241 194.68 269.119 189.548 265.911C190.359 265.004 191.459 264.407 192.661 264.219C193.862 264.032 195.092 264.266 196.14 264.882C196.14 264.882 196.829 262.435 194.834 261.581C194.248 261.354 193.613 261.278 192.989 261.36C192.366 261.443 191.773 261.682 191.266 262.054C191.266 262.054 191.605 258.773 193.826 257.179C196.048 255.585 200.377 257.858 200.377 257.858C200.377 257.858 199.452 249.353 193.95 250.885C188.448 252.418 189.178 257.056 189.178 257.056C189.178 257.056 188.15 253.21 184.879 252.87C181.609 252.531 179.089 255.215 179.089 255.215C179.089 255.215 181.876 252.809 184.807 256.974C185.581 257.972 186.094 259.147 186.298 260.394C186.503 261.64 186.393 262.918 185.98 264.111C185.109 263.77 184.219 263.479 183.316 263.237C175.582 261.18 166.758 263.401 162.994 267.165C159.985 267.907 157.162 269.266 154.705 271.156C150.592 274.642 154.438 279.455 155.004 280.113L155.312 281.841C155.701 285.345 156.275 288.825 157.03 292.269C157.801 294.747 159.148 295.591 159.086 296.959C159.025 298.326 156.772 303.211 158.377 304.877C159.981 306.543 161.37 306.039 161.37 306.039C161.37 306.039 167.674 319.296 170.43 318.247C173.186 317.198 177.927 312.375 177.927 312.375L184.149 316.334L195.616 303.695L193.559 298.182C193.559 298.182 199.771 289.019 198.567 280.514Z" fill="white" stroke="#2855AF" stroke-width="1.10919" stroke-miterlimit="10"/>
<path d="M160.116 279.918C163.448 278.334 171.974 276.38 170.514 278.941C169.053 281.501 168.724 285.985 170.596 286.489C172.468 286.993 176.437 289.667 177.795 290.603C179.152 291.539 180.88 290.901 180.88 289.482C180.88 288.063 182.382 285.265 185.415 286.736C188.449 288.207 188.634 291.045 187.863 294.336C187.452 296.236 186.32 297.902 184.706 298.984C184.706 298.984 188.326 301.895 193.9 299.108L193.54 298.162C193.54 298.162 199.71 288.978 198.538 280.473C197.654 274.2 194.651 269.078 189.519 265.869C190.33 264.963 191.43 264.365 192.631 264.178C193.833 263.99 195.063 264.225 196.111 264.841C196.111 264.841 196.8 262.393 194.805 261.54C194.218 261.312 193.584 261.236 192.96 261.319C192.336 261.402 191.743 261.64 191.236 262.013C191.236 262.013 191.576 258.732 193.797 257.138C196.018 255.544 200.348 257.817 200.348 257.817C200.348 257.817 199.423 249.312 193.921 250.844C188.418 252.376 189.149 257.015 189.149 257.015C189.149 257.015 188.12 253.168 184.85 252.829C181.579 252.49 179.06 255.174 179.06 255.174C179.06 255.174 181.847 252.767 184.778 256.932C185.552 257.931 186.064 259.106 186.269 260.352C186.474 261.599 186.364 262.876 185.95 264.07C185.079 263.729 184.19 263.437 183.287 263.195C175.553 261.139 166.729 263.36 162.965 267.124C159.956 267.866 157.133 269.225 154.676 271.114C150.562 274.601 154.409 279.414 154.974 280.072C155.005 280.133 156.784 281.501 160.116 279.918Z" fill="#2855AF" stroke="white" stroke-width="1.10919" stroke-miterlimit="10"/>
<path d="M162.708 292.228L162.646 295.313C163.666 295.583 164.735 295.607 165.765 295.382C166.795 295.156 167.757 294.689 168.57 294.017" stroke="#2855AF" stroke-width="1.10919" stroke-miterlimit="10"/>
<path d="M159.223 289.338C160.028 288.342 161.162 287.666 162.421 287.43C163.68 287.195 164.981 287.415 166.092 288.052" stroke="#2855AF" stroke-width="1.10919" stroke-miterlimit="10"/>
<path d="M165.258 306.43C165.258 306.43 169.269 306.276 171.716 301.607" stroke="#2855AF" stroke-width="1.10919" stroke-miterlimit="10"/>
<path d="M172.468 311.758C170.082 312.889 167.079 309.762 165.67 309.505C164.529 309.289 164.724 311.562 164.848 312.447C166.781 315.676 169.074 318.802 170.473 318.267C173.229 317.239 177.97 312.395 177.97 312.395L178.186 312.539C178.821 311.477 179.22 310.292 179.359 309.063C179.389 307.181 174.844 310.678 172.468 311.758Z" fill="#2855AF" stroke="#2855AF" stroke-width="1.10919" stroke-miterlimit="10"/>
<path d="M207.762 300.866C207.762 300.866 199.155 298.1 194.146 303.489C189.138 308.878 175.542 324.767 178.432 324.829C181.322 324.89 186.382 316.9 192.202 314.411C198.023 311.922 201.458 312.004 203.423 316.077C205.387 320.149 212.072 346.261 214.735 341.695C217.399 337.128 222.212 327.996 219.785 319.285C217.358 310.575 210.611 302.656 207.762 300.866Z" fill="white" stroke="#2855AF" stroke-width="1.10919" stroke-miterlimit="10"/>
<path d="M185.796 331.894C185.796 331.894 178.597 344.451 177.908 351.362C177.219 358.273 174.905 387.099 174.905 387.099C174.905 387.099 172.056 385.31 170.575 387.007C169.094 388.704 168.158 392.447 168.158 392.447C168.158 392.447 164.147 391.213 163.242 392.93C162.725 393.927 162.126 394.88 161.453 395.779L136.473 404.264C136.473 404.264 175.964 406.485 179.142 406.259C181.082 406.103 182.92 405.328 184.387 404.048C184.387 404.048 186.937 406.104 191.298 404.469C195.658 402.834 197.149 400.839 198.363 397.394C199.576 393.949 205.315 351.938 205.315 351.938" fill="#7CCCDB"/>
<path d="M185.796 331.894C185.796 331.894 178.597 344.451 177.908 351.362C177.219 358.273 174.905 387.099 174.905 387.099C174.905 387.099 172.056 385.31 170.575 387.007C169.094 388.704 168.158 392.447 168.158 392.447C168.158 392.447 164.147 391.213 163.242 392.93C162.725 393.927 162.126 394.88 161.453 395.779L136.473 404.264C136.473 404.264 175.964 406.485 179.142 406.259C181.082 406.103 182.92 405.328 184.387 404.048C184.387 404.048 186.937 406.104 191.298 404.469C195.658 402.834 197.149 400.839 198.363 397.394C199.576 393.949 205.315 351.938 205.315 351.938" stroke="#2855AF" stroke-width="1.10919" stroke-miterlimit="10"/>
<path d="M136.473 404.264C136.473 404.264 148.474 404.942 159.777 405.508C158.141 402.844 158.902 398.998 159.777 396.376L136.473 404.264Z" fill="white" stroke="#2855AF" stroke-width="1.10919" stroke-miterlimit="10"/>
<path opacity="0.05" d="M538.349 430.576C574.416 430.576 603.654 425.281 603.654 418.75C603.654 412.218 574.416 406.923 538.349 406.923C502.283 406.923 473.045 412.218 473.045 418.75C473.045 425.281 502.283 430.576 538.349 430.576Z" fill="#F5F5F5"/>
<path d="M576.261 305.559L576.261 305.558C575.354 302.568 573.197 300.002 570.609 298.382C568.016 296.759 565.055 296.124 562.548 296.883L576.261 305.559ZM576.261 305.559C578.822 313.973 580.481 323.262 580.708 330.672M576.261 305.559L580.708 330.672M580.708 330.672C580.822 334.381 580.575 337.588 579.922 339.971M580.708 330.672L579.922 339.971M579.922 339.971C579.261 342.381 578.228 343.794 576.892 344.2M579.922 339.971L576.892 344.2M576.892 344.2C575.558 344.604 573.907 343.993 572.004 342.338M576.892 344.2L572.004 342.338M572.004 342.338C570.123 340.702 568.119 338.148 566.136 334.978M572.004 342.338L566.136 334.978M566.136 334.978C562.173 328.645 558.356 319.956 555.806 311.542L566.136 334.978ZM555.806 311.541C554.901 308.549 555.308 305.263 556.599 302.523C557.891 299.778 560.039 297.644 562.548 296.883L555.806 311.541Z" fill="#7CCCDB" stroke="white"/>
<path d="M490.092 310.205C490.092 303.015 495.416 295.984 503.597 290.72C511.757 285.468 522.65 282.054 533.536 282.054C544.428 282.054 555.323 285.468 563.484 290.72C571.666 295.984 576.991 303.015 576.991 310.205C576.991 330.257 572.547 351.757 564.86 368.228C557.152 384.743 546.287 396 533.536 396C520.786 396 509.923 384.743 502.218 368.228C494.532 351.757 490.092 330.257 490.092 310.205Z" fill="#7CCCDB" stroke="white"/>
<path opacity="0.1" d="M533.536 281.554C527.812 281.576 522.124 282.457 516.66 284.166C523.848 286.247 531.298 287.286 538.781 287.251C544.138 287.252 549.483 286.742 554.742 285.729C548.001 283.009 540.806 281.592 533.536 281.554Z" fill="#F5F5F5"/>
<path opacity="0.1" d="M499.249 299.911L489.592 310.195C489.624 321.708 490.966 333.181 493.592 344.39C499.465 338.312 505.573 326.547 506.633 315.049C507.754 302.791 504.648 301.443 499.249 299.911Z" fill="#2855AF"/>
<path d="M507.898 296.106C502.992 293.401 495.166 295.993 492.019 301.711C483.504 317.137 477.734 337.078 483.576 340.297C489.417 343.516 503.116 327.956 511.652 312.53C514.768 306.802 512.772 298.811 507.898 296.106Z" fill="#7CCCDB"/>
<path d="M496.5 296.5C495 298 494 299 492.019 301.711C483.504 317.137 477.734 337.078 483.576 340.297C485.616 341.422 488.616 340.254 492.019 337.602" stroke="white"/>
<path d="M540.21 382.586C520.496 382.586 506.756 348.278 506.756 317.476C506.756 306.164 523.015 295.468 540.21 295.468C557.405 295.468 573.654 306.164 573.654 317.476C573.654 348.247 559.915 382.586 540.21 382.586ZM540.21 296.661C523.93 296.661 507.949 306.945 507.949 317.476C507.949 347.712 521.195 381.393 540.21 381.393C559.226 381.393 572.461 347.712 572.461 317.476C572.461 306.976 556.48 296.661 540.21 296.661Z" fill="white"/>
<path d="M540.807 382.123L539.645 381.855C547.532 348.175 545.424 302.112 539.809 296.497L540.652 295.653C547.152 302.173 548.376 349.697 540.807 382.123Z" fill="white"/>
<path d="M523.469 363.375C523.911 364.043 523.973 364.794 523.602 365.031C523.232 365.267 522.574 364.928 522.132 364.249C521.69 363.57 521.628 362.84 521.998 362.593C522.368 362.346 523.026 362.706 523.469 363.375Z" fill="white"/>
<path d="M525.803 366.933C526.246 367.602 526.297 368.342 525.927 368.589C525.556 368.836 524.898 368.476 524.466 367.807C524.034 367.139 523.962 366.388 524.333 366.151C524.703 365.915 525.382 366.254 525.803 366.933Z" fill="white"/>
<path d="M527.119 363.519C527.561 364.198 527.623 364.938 527.253 365.175C526.883 365.411 526.224 365.072 525.782 364.393C525.34 363.714 525.278 362.984 525.648 362.737C526.019 362.49 526.677 362.85 527.119 363.519Z" fill="white"/>
<path d="M529.495 367.077C529.937 367.746 529.988 368.486 529.618 368.733C529.248 368.98 528.59 368.62 528.158 367.951C527.726 367.283 527.654 366.532 528.024 366.296C528.394 366.059 529.011 366.398 529.495 367.077Z" fill="white"/>
<path d="M528.127 370.481C528.569 371.149 528.63 371.9 528.26 372.137C527.89 372.373 527.232 372.034 526.79 371.355C526.347 370.676 526.296 369.946 526.656 369.699C527.016 369.452 527.684 369.843 528.127 370.481Z" fill="white"/>
<path d="M529.541 270.252C500.72 262.64 485.773 240.78 490.818 221.498C491.022 220.722 491.583 219.916 492.524 219.107C493.462 218.301 494.747 217.52 496.338 216.792C499.519 215.336 503.859 214.12 508.918 213.327C519.035 211.739 531.943 211.852 544.034 215.036C556.125 218.22 567.415 224.477 575.442 230.842C579.457 234.026 582.638 237.223 584.694 240.061C585.723 241.48 586.459 242.795 586.882 243.961C587.306 245.131 587.401 246.113 587.2 246.893C582.124 266.124 558.361 277.863 529.541 270.252Z" fill="#7CCCDB" stroke="white"/>
<path opacity="0.1" d="M542.969 219.067C522.555 213.699 499.415 218.687 497.811 224.785C493.502 241.292 506.285 259.803 530.525 266.19C554.765 272.576 575.086 262.775 579.426 246.279C581.072 240.181 563.434 224.446 542.969 219.067Z" fill="#F5F5F5"/>
<path d="M526.983 240.055C529.078 232.096 525.946 224.372 519.986 222.803C514.027 221.234 507.497 226.414 505.401 234.373C503.306 242.332 506.439 250.056 512.398 251.625C518.358 253.194 524.887 248.014 526.983 240.055Z" fill="#2855AF"/>
<path d="M497.142 239.759C495.815 239.759 494.509 238.803 493.45 237.044C492.33 234.944 491.641 232.641 491.424 230.271C491.207 227.901 491.466 225.511 492.185 223.243C492.946 221.186 494.159 219.983 495.578 219.859C496.998 219.736 498.396 220.692 499.528 222.564C500.699 224.646 501.401 226.959 501.584 229.341C501.849 231.71 501.589 234.108 500.823 236.365C500.052 238.422 498.849 239.625 497.43 239.749L497.142 239.759ZM495.825 220.836H495.671C494.643 220.929 493.727 221.926 493.11 223.582C492.446 225.71 492.208 227.949 492.411 230.169C492.614 232.389 493.254 234.547 494.293 236.52C495.208 238.031 496.35 238.834 497.306 238.751C498.263 238.669 499.25 237.661 499.867 236.005C500.572 233.888 500.807 231.641 500.556 229.424C500.408 227.192 499.765 225.02 498.674 223.068C497.82 221.638 496.782 220.836 495.825 220.836Z" fill="white"/>
<path d="M574.212 260.029C573.586 260.037 572.972 259.854 572.453 259.505C570.108 257.88 570.777 253.005 573.975 248.398C575.294 246.414 577.032 244.743 579.066 243.503C580.968 242.423 582.665 242.279 583.838 243.091C585.01 243.904 585.473 245.539 585.123 247.709C584.632 250.036 583.681 252.241 582.327 254.196C580.972 256.151 579.241 257.816 577.235 259.093C576.322 259.655 575.282 259.977 574.212 260.029ZM582.079 243.575C581.181 243.623 580.311 243.899 579.549 244.377C577.648 245.547 576.023 247.115 574.788 248.974C572.011 252.985 571.198 257.438 573.019 258.703C573.852 259.279 575.209 259.114 576.742 258.24C578.616 257.034 580.235 255.471 581.506 253.639C582.776 251.807 583.674 249.743 584.146 247.565C584.424 245.817 584.146 244.48 583.272 243.914C582.92 243.677 582.503 243.555 582.079 243.564V243.575Z" fill="white"/>
<path d="M525.074 239.553C523.767 244.5 519.716 247.719 516.003 246.752C512.29 245.786 510.347 240.962 511.653 236.016C512.959 231.069 517.021 227.788 520.723 228.817C524.426 229.845 526.411 234.596 525.074 239.553Z" fill="white"/>
<path d="M568.144 250.887C566.087 258.846 559.515 264.019 553.561 262.456C547.606 260.893 544.47 253.2 546.568 245.21C548.666 237.219 555.206 232.036 561.151 233.64C567.095 235.244 570.231 242.927 568.144 250.887Z" fill="#2855AF"/>
<path d="M561.895 249.256C563.198 244.307 561.248 239.504 557.541 238.528C553.833 237.552 549.771 240.772 548.469 245.721C547.166 250.67 549.115 255.473 552.822 256.449C556.53 257.425 560.592 254.205 561.895 249.256Z" fill="white"/>
</svg>
