<svg width="50" height="50" viewBox="0 0 50 50" fill="none" xmlns="http://www.w3.org/2000/svg">
<path d="M42.6829 7.39671C38.123 2.83679 31.8664 0.0266113 24.9735 0.0266113C18.0806 0.0266113 11.824 2.83679 7.31707 7.34368C2.81018 11.8506 0 18.1072 0 25.0001C0 31.7339 2.65111 37.8315 6.99894 42.3384C11.3468 46.8453 17.3383 49.7085 24.0721 49.9736C24.6023 49.9736 25.0795 49.5494 25.0795 49.0192C25.0795 48.489 24.6554 48.0118 24.1251 48.0118C17.9745 47.7997 12.4072 45.1486 8.43054 41.0128C4.45387 36.8241 2.01485 31.2037 2.01485 25.0001C2.01485 18.6374 4.61294 12.911 8.74867 8.72226C12.8844 4.58653 18.6108 2.04146 24.9735 2.04146C31.3362 2.04146 37.0626 4.63955 41.1983 8.77529C45.334 12.911 47.9321 18.6905 47.9321 25.0531C47.9321 27.068 47.667 29.0298 47.1898 30.9386C46.7126 32.7944 45.9703 34.6502 44.9629 36.3469C44.6978 36.8241 44.8568 37.4073 45.334 37.7254C45.8112 37.9906 46.3945 37.8315 46.7126 37.3543C47.7731 35.4985 48.5684 33.4837 49.1516 31.4158C49.6819 29.3479 50 27.174 50 25.0531C50 18.1602 47.1898 11.9036 42.6829 7.39671Z" fill="#2855AF"/>
<path d="M24.9204 5.48804C19.5651 5.48804 14.6871 7.66195 11.1346 11.2144C7.63514 14.7139 5.4082 19.592 5.4082 25.0002C5.4082 29.3481 6.8398 33.4308 9.33185 36.7712C11.8239 40.0586 15.3764 42.6036 19.5652 43.7701C20.0954 43.9292 20.6256 43.611 20.7847 43.0808C20.9437 42.5506 20.6256 42.0204 20.0954 41.8613C16.3308 40.8009 13.1495 38.5209 10.9225 35.6047C8.85465 32.9006 7.63514 29.6132 7.42305 26.0607H9.9151C10.4453 26.0607 10.9225 25.6365 10.9225 25.0533C10.9225 24.523 10.4983 24.0458 9.9151 24.0458H7.42305C7.68816 19.592 9.54394 15.6153 12.5132 12.6991C15.4824 9.72982 19.4591 7.87404 23.86 7.60893V10.101C23.86 10.6312 24.2841 11.1084 24.8674 11.1084C25.3976 11.1084 25.8748 10.6842 25.8748 10.101V7.60893C30.3287 7.87404 34.3053 9.72982 37.2216 12.6991C40.1908 15.6683 42.0466 19.645 42.3117 24.0458H39.8197C39.2894 24.0458 38.8122 24.47 38.8122 25.0533C38.8122 25.5835 39.2364 26.0607 39.8197 26.0607H42.3117C42.2587 26.5909 42.2587 27.1211 42.1526 27.6513C42.0466 28.4997 41.8345 29.3481 41.5694 30.1964C41.4103 30.7266 41.7285 31.2569 42.2057 31.4159C42.895 31.575 43.4252 31.2569 43.5842 30.7266C43.8493 29.7722 44.1145 28.8178 44.2205 27.9165C44.3796 26.9621 44.4326 26.0077 44.4326 25.0002C44.4326 19.645 42.2587 14.7669 38.7062 11.2144C35.2067 7.71497 30.3287 5.48804 24.9204 5.48804Z" fill="#2855AF"/>
<path d="M24.9727 12.9111C24.4424 12.9111 23.9653 13.3353 23.9653 13.9186V22.031C23.5411 22.19 23.1169 22.4021 22.7988 22.7203L22.7457 22.7733C22.4276 23.0914 22.1625 23.5156 22.0034 23.9928H15.9059C15.3756 23.9928 14.8984 24.417 14.8984 25.0002C14.8984 25.5304 15.3226 26.0076 15.9059 26.0076H21.9504C22.1095 26.4848 22.3746 26.909 22.6927 27.2272C23.276 27.8104 24.0713 28.1285 24.9197 28.1285C25.768 28.1285 26.5633 27.7574 27.1466 27.2272C27.7298 26.6439 28.048 25.8486 28.048 25.0002C28.048 24.1519 27.6768 23.3565 27.1466 22.7733C26.8285 22.4552 26.4043 22.19 25.9271 22.031V13.9186C25.9801 13.3883 25.5029 12.9111 24.9727 12.9111ZM26.1392 25.0002C26.1392 25.3184 25.9801 25.6365 25.768 25.8486C25.5559 26.0607 25.2908 26.1667 24.9727 26.1667C24.6545 26.1667 24.3364 26.0607 24.1773 25.8486C23.9652 25.6365 23.8592 25.3714 23.8592 25.0532C23.8592 24.7351 23.9652 24.47 24.1773 24.2579C24.1773 24.2579 24.1773 24.2579 24.2304 24.2049C24.4425 23.9928 24.7076 23.8868 25.0257 23.8868C25.3438 23.8868 25.662 23.9928 25.821 24.2049C26.0331 24.417 26.1392 24.6821 26.1392 25.0002Z" fill="#2855AF"/>
<path d="M35.6301 39.4223C35.1529 39.0512 34.5167 38.733 33.6683 38.574C33.1911 38.4679 32.873 38.3619 32.6609 38.2558C32.4488 38.1498 32.3427 37.9907 32.3427 37.7786C32.3427 37.5665 32.4488 37.4075 32.6609 37.2484C32.873 37.0893 33.0851 37.0363 33.3502 37.0363C33.6683 37.0363 33.9864 37.0893 34.3576 37.2484C34.7287 37.4075 35.0469 37.4605 35.2059 37.4605C35.4711 37.4605 35.6301 37.3545 35.8422 37.1424C36.0013 36.9303 36.1073 36.7182 36.1073 36.5061C36.1073 36.0819 35.9483 35.7638 35.5771 35.6047C35.1529 35.3926 34.6757 35.2336 34.0925 35.1805V34.5443C34.0925 34.2792 34.0395 34.1201 33.8804 34.014C33.7213 33.908 33.5092 33.855 33.2971 33.855C33.0851 33.855 32.873 33.908 32.7139 34.0671C32.5548 34.2261 32.5018 34.3852 32.5018 34.6503V35.2866C31.8125 35.4457 31.2823 35.7638 30.8581 36.294C30.4339 36.7712 30.2219 37.3545 30.2219 37.9907C30.2219 38.68 30.487 39.2102 30.9642 39.5814C31.4414 39.9525 32.1307 40.2707 33.032 40.4297C33.8274 40.5888 34.2515 40.8539 34.2515 41.2781C34.1985 41.5432 34.0925 41.7553 33.8804 41.9144C33.6683 42.0734 33.4032 42.1265 33.1381 42.1265C33.032 42.1265 32.873 42.1265 32.7669 42.1265C32.6609 42.1265 32.5548 42.0734 32.4488 42.0734C32.3427 42.0204 32.2367 42.0204 32.1837 41.9674C32.1307 41.9674 32.0246 41.9144 31.9186 41.8613C31.8125 41.8083 31.7595 41.8083 31.7065 41.7553C31.3883 41.6493 31.1232 41.5432 30.9111 41.5432C30.646 41.5432 30.487 41.6493 30.2749 41.8613C30.1158 42.0734 30.0098 42.3385 30.0098 42.6037C30.0098 43.0278 30.2219 43.346 30.646 43.5581C31.0702 43.8232 31.6535 43.9822 32.3958 44.0353V44.7776C32.3958 44.9897 32.4488 45.1487 32.6609 45.2548C32.8199 45.3608 33.032 45.4138 33.2441 45.4138C33.5092 45.4138 33.6683 45.3608 33.8274 45.2548C33.9864 45.1487 34.0395 44.9366 34.0395 44.6715V43.9292C34.7287 43.7701 35.259 43.452 35.6831 42.9748C36.1073 42.4976 36.3194 41.9144 36.3194 41.1721C36.3194 40.3767 36.1073 39.7935 35.6301 39.4223Z" fill="#7CCCDB"/>
<path d="M33.1917 29.613C30.3815 29.613 27.8365 30.7265 26.0337 32.5823C24.1779 34.4381 23.0645 36.9831 23.0645 39.7403C23.0645 42.5505 24.1779 45.0955 26.0337 46.8983C27.8365 48.7011 30.3815 49.8675 33.1917 49.8675C36.0019 49.8675 38.547 48.7541 40.3497 46.8983C42.2055 45.0425 43.319 42.4974 43.319 39.7403C43.319 36.9301 42.2055 34.385 40.3497 32.5823C38.4939 30.7265 35.9489 29.613 33.1917 29.613ZM38.9711 45.4667C37.4865 46.9513 35.4717 47.8527 33.1917 47.8527C30.9117 47.8527 28.8969 46.9513 27.4123 45.4667C25.9277 43.9821 25.0263 41.9672 25.0263 39.6873C25.0263 37.4603 25.9277 35.3925 27.4123 33.9078C28.8969 32.4232 30.9117 31.5218 33.1917 31.5218C35.4717 31.5218 37.4865 32.4232 38.9711 33.9078C40.4558 35.3925 41.3571 37.4073 41.3571 39.6873C41.3571 41.9672 40.4558 43.9821 38.9711 45.4667Z" fill="#7CCCDB"/>
</svg>
