<svg width="50" height="50" viewBox="0 0 50 50" fill="none" xmlns="http://www.w3.org/2000/svg">
<path d="M43.5632 26.7497C43.5544 26.7497 43.5455 26.7498 43.5366 26.75C42.6816 26.7483 41.8576 27.0697 41.2296 27.65L33.1041 35.15C32.689 35.5355 32.1435 35.7498 31.5771 35.75H20.1823C19.3538 35.75 18.6823 35.0785 18.6823 34.25C18.6823 33.4215 19.3538 32.75 20.1823 32.75H28.0678C29.7247 32.75 31.0678 31.4068 31.0678 29.75C31.0678 28.0931 29.7247 26.75 28.0678 26.75H15.8308C14.0032 26.7494 12.2125 27.2632 10.6633 28.2327L8.00001 29.9V29H2V47H8.00001V45.5H23.8123C24.3087 45.5 24.8044 45.4621 25.295 45.3868L31.4526 44.4395C33.5033 44.1284 35.4001 43.1672 36.8638 41.6975L46.0033 32.5565C46.6436 31.9201 47.0025 31.0539 47.0001 30.1512C46.9903 28.2628 45.4515 26.7399 43.5632 26.7497ZM6.50001 45.5H3.5V30.5H6.50001V45.5ZM44.9421 31.4975L44.9428 31.496L35.8033 40.637C34.5647 41.8805 32.9598 42.6939 31.2246 42.9575L25.067 43.9048C24.6518 43.9682 24.2324 44.0001 23.8123 44H8.00001V31.6655L11.459 29.504C12.7697 28.6841 14.2847 28.2495 15.8308 28.25H28.0678C28.8963 28.25 29.5678 28.9215 29.5678 29.75C29.5678 30.5784 28.8963 31.25 28.0678 31.25H20.1823C18.5254 31.25 17.1823 32.5931 17.1823 34.25C17.1823 35.9068 18.5254 37.25 20.1823 37.25H31.5771C32.5201 37.251 33.4287 36.8958 34.1211 36.2555L42.2473 28.7555C42.6161 28.4205 43.0993 28.2401 43.5973 28.2515C44.6473 28.2511 45.499 29.102 45.4993 30.152C45.4995 30.6566 45.299 31.1407 44.9421 31.4975Z" fill="#2855AF"/>
<path d="M35.6 9.79995C35.4584 9.61114 35.2361 9.49995 35 9.49995H28.0078L25.1968 2.47168C25.0429 2.08712 24.6065 1.89999 24.2219 2.05384C24.0313 2.13006 23.8802 2.28109 23.804 2.47168L20.9923 9.49995H14C13.5858 9.49995 13.25 9.83576 13.25 10.2499C13.25 10.486 13.3612 10.7083 13.55 10.85L19.1053 15.0162L16.295 22.7412C16.1534 23.1305 16.3543 23.5608 16.7435 23.7024C16.9892 23.7917 17.2637 23.7466 17.468 23.5835L24.4738 17.978L30.7513 23.5572C31.061 23.8323 31.535 23.8042 31.8101 23.4944C31.9782 23.3051 32.0394 23.0439 31.973 22.7997L29.858 15.0447L35.45 10.85C35.7814 10.6014 35.8486 10.1313 35.6 9.79995ZM28.55 14.15C28.3039 14.3345 28.1955 14.6505 28.2763 14.9472L29.8625 20.7635L24.9988 16.4397C24.7258 16.1968 24.3175 16.1861 24.032 16.4142L18.6185 20.7447L20.7058 15.0065C20.8185 14.6958 20.7147 14.348 20.45 14.15L16.25 11H21.5C21.807 11 22.083 10.8132 22.1968 10.5282L24.5 4.76894L26.8033 10.5282C26.9171 10.8132 27.1932 11 27.5 11H32.75L28.55 14.15Z" fill="#7CCCDB"/>
<path d="M16.7794 3.72011L15.7188 4.78076L18.7188 7.78082L19.7795 6.72016L16.7794 3.72011Z" fill="#2855AF"/>
<path d="M32.2188 3.71906L29.2188 6.71912L30.2794 7.77977L33.2794 4.77971L32.2188 3.71906Z" fill="#2855AF"/>
<path d="M16.25 15.4999H11.75V16.9999H16.25V15.4999Z" fill="#2855AF"/>
<path d="M37.25 15.4999H32.75V16.9999H37.25V15.4999Z" fill="#2855AF"/>
<path d="M25.25 19.9999H23.75V24.4999H25.25V19.9999Z" fill="#2855AF"/>
</svg>
