<svg width="50" height="50" viewBox="0 0 50 50" fill="none" xmlns="http://www.w3.org/2000/svg">
<path d="M44.0421 5H12.418C11.2149 5 10.2365 5.97876 10.2365 7.18177V10.4937H5.18177C3.97876 10.4937 3 11.4724 3 12.6754V40.7489C3 43.082 4.89058 44.9822 7.22075 44.999H7.22932C7.23691 44.9993 7.24383 45 7.25142 45H29.6492C29.9987 45 30.2824 44.7167 30.2824 44.3668C30.2824 44.0173 29.9987 43.7337 29.6492 43.7337H10.2758C11.0339 42.9656 11.5028 41.911 11.5028 40.7489V25.9425C11.5028 25.5929 11.2192 25.3093 10.8697 25.3093C10.5198 25.3093 10.2365 25.5929 10.2365 25.9425V40.7489C10.2365 42.3892 8.90621 43.7244 7.26758 43.7333C7.2623 43.7333 7.25702 43.7327 7.25142 43.7327C5.60553 43.7324 4.26632 42.3938 4.26632 40.7489V12.6754C4.26632 12.1709 4.67689 11.76 5.18177 11.76H10.2365V23.5787C10.2365 23.9286 10.5198 24.2118 10.8697 24.2118C11.2192 24.2118 11.5028 23.9286 11.5028 23.5787V7.18177C11.5028 6.67689 11.9134 6.26632 12.418 6.26632H44.0421C44.547 6.26632 44.9575 6.67689 44.9575 7.18177V40.7489C44.9575 42.3948 43.6183 43.7337 41.9724 43.7337H32.013C31.6631 43.7337 31.3798 44.0173 31.3798 44.3668C31.3798 44.7167 31.6631 45 32.013 45H41.9724C44.3168 45 46.2239 43.0929 46.2239 40.7489V7.18177C46.2239 5.97876 45.2451 5 44.0421 5V5Z" fill="#2855AF"/>
<path d="M16.8732 30.2642H25.557C26.3831 30.2642 27.0552 29.5921 27.0552 28.766V20.0821C27.0552 19.2561 26.3831 18.584 25.557 18.584H16.8732C16.0471 18.584 15.375 19.2561 15.375 20.0821V28.766C15.375 29.5921 16.0471 30.2642 16.8732 30.2642ZM16.6413 20.0821C16.6413 19.9542 16.7452 19.8503 16.8732 19.8503H25.557C25.6847 19.8503 25.7889 19.9542 25.7889 20.0821V28.766C25.7889 28.8936 25.6847 28.9978 25.557 28.9978H16.8732C16.7452 28.9978 16.6413 28.8936 16.6413 28.766V20.0821Z" fill="#7CCCDB"/>
<path d="M29.3558 19.8503H41.1072C41.4568 19.8503 41.7404 19.567 41.7404 19.2171C41.7404 18.8673 41.4568 18.584 41.1072 18.584H29.3558C29.0063 18.584 28.7227 18.8673 28.7227 19.2171C28.7227 19.567 29.0063 19.8503 29.3558 19.8503Z" fill="#2855AF"/>
<path d="M29.3558 25.0575H41.1072C41.4568 25.0575 41.7404 24.7739 41.7404 24.4243C41.7404 24.0744 41.4568 23.7911 41.1072 23.7911H29.3558C29.0063 23.7911 28.7227 24.0744 28.7227 24.4243C28.7227 24.7739 29.0063 25.0575 29.3558 25.0575Z" fill="#2855AF"/>
<path d="M29.3558 30.2641H41.1072C41.4568 30.2641 41.7404 29.9805 41.7404 29.631C41.7404 29.2811 41.4568 28.9978 41.1072 28.9978H29.3558C29.0063 28.9978 28.7227 29.2811 28.7227 29.631C28.7227 29.9805 29.0063 30.2641 29.3558 30.2641Z" fill="#2855AF"/>
<path d="M16.0082 35.4709H41.1081C41.4576 35.4709 41.7412 35.1876 41.7412 34.8378C41.7412 34.4882 41.4576 34.2046 41.1081 34.2046H16.0082C15.6586 34.2046 15.375 34.4882 15.375 34.8378C15.375 35.1876 15.6586 35.4709 16.0082 35.4709Z" fill="#2855AF"/>
<path d="M16.0082 40.6781H41.1081C41.4576 40.6781 41.7412 40.3948 41.7412 40.0449C41.7412 39.695 41.4576 39.4117 41.1081 39.4117H16.0082C15.6586 39.4117 15.375 39.695 15.375 40.0449C15.375 40.3948 15.6586 40.6781 16.0082 40.6781Z" fill="#2855AF"/>
<path d="M15.3906 15.344V8.6536C15.3906 8.51609 15.4559 8.41122 15.5865 8.33933C15.7171 8.26711 15.8754 8.23083 16.0607 8.23083C16.3084 8.23083 16.497 8.27568 16.6279 8.36505C16.7582 8.45442 16.9026 8.64701 17.0609 8.94215L19.0504 12.7876V8.64338C19.0504 8.50586 19.1157 8.40298 19.2463 8.33405C19.3766 8.26546 19.5349 8.23083 19.7205 8.23083C19.9062 8.23083 20.0642 8.26546 20.1947 8.33405C20.3253 8.40298 20.3906 8.50586 20.3906 8.64338V15.344C20.3906 15.4749 20.3234 15.5778 20.1895 15.6533C20.0556 15.7292 19.8993 15.7668 19.7205 15.7668C19.3561 15.7668 19.0982 15.626 18.9472 15.344L16.7308 11.1998V15.344C16.7308 15.4749 16.6639 15.5778 16.53 15.6533C16.3961 15.7292 16.2395 15.7668 16.0607 15.7668C15.8754 15.7668 15.7171 15.7292 15.5868 15.6533C15.4559 15.5778 15.3906 15.4749 15.3906 15.344Z" fill="#7CCCDB"/>
<path d="M21.627 15.344V8.6536C21.627 8.52301 21.6853 8.42012 21.8024 8.34428C21.9191 8.26876 22.0563 8.23083 22.2146 8.23083H25.8846C26.0218 8.23083 26.127 8.28953 26.1989 8.40627C26.2711 8.52301 26.3074 8.65723 26.3074 8.80827C26.3074 8.97315 26.2695 9.11429 26.194 9.23103C26.1181 9.3481 26.0149 9.40614 25.8846 9.40614H22.9671V11.4679H24.5342C24.6645 11.4679 24.7677 11.5213 24.8435 11.6278C24.9191 11.7343 24.957 11.8596 24.957 12.0041C24.957 12.1347 24.9207 12.2531 24.8485 12.3599C24.7763 12.4664 24.6717 12.5195 24.5342 12.5195H22.9671V14.5918H25.8846C26.0149 14.5918 26.1181 14.6502 26.194 14.7669C26.2695 14.884 26.3074 15.0248 26.3074 15.1897C26.3074 15.3407 26.2711 15.4749 26.1989 15.5917C26.127 15.7087 26.0218 15.7668 25.8846 15.7668H22.2146C22.0563 15.7668 21.9191 15.7292 21.8024 15.6537C21.6853 15.5778 21.627 15.4749 21.627 15.344Z" fill="#7CCCDB"/>
<path d="M26.9766 8.76704C26.9766 8.6226 27.0692 8.49729 27.2549 8.39077C27.4402 8.28426 27.6328 8.23083 27.832 8.23083C28.0796 8.23083 28.2274 8.3202 28.2752 8.49894L29.9043 14.0866L30.7805 10.499C30.8421 10.2513 31.0621 10.1277 31.44 10.1277C31.8113 10.1277 32.0277 10.2513 32.0897 10.499L32.9659 14.0866L34.5946 8.49894C34.6428 8.3202 34.7905 8.23083 35.0382 8.23083C35.2373 8.23083 35.4296 8.28426 35.6153 8.39077C35.8009 8.49729 35.8936 8.6226 35.8936 8.76704C35.8936 8.80827 35.8867 8.84949 35.8731 8.89071L33.8319 15.375C33.7286 15.6777 33.4365 15.8288 32.9557 15.8288C32.7495 15.8288 32.5639 15.7892 32.399 15.7101C32.2341 15.6312 32.1342 15.5195 32.0999 15.375L31.4404 12.5917L30.7703 15.375C30.7356 15.5195 30.636 15.6312 30.4712 15.7101C30.3063 15.7892 30.1206 15.8288 29.9145 15.8288C29.7015 15.8288 29.5125 15.7892 29.3476 15.7101C29.1824 15.6312 29.0795 15.5195 29.0383 15.375L26.997 8.89071C26.9832 8.84949 26.9766 8.80827 26.9766 8.76704Z" fill="#7CCCDB"/>
<path d="M36.2344 14.5811C36.2344 14.4232 36.2944 14.2632 36.4148 14.1017C36.5348 13.9404 36.6707 13.8596 36.822 13.8596C36.9111 13.8596 37.0126 13.9025 37.1261 13.9882C37.2395 14.0736 37.3493 14.1686 37.4558 14.2718C37.5624 14.3754 37.7154 14.47 37.9149 14.5558C38.1141 14.6415 38.334 14.684 38.5744 14.684C38.9045 14.684 39.1792 14.6085 39.3992 14.4572C39.6192 14.3061 39.729 14.0829 39.729 13.7874C39.729 13.5809 39.6689 13.3973 39.5486 13.2357C39.4285 13.0744 39.2703 12.9402 39.0744 12.8337C38.8788 12.7272 38.6638 12.6239 38.4303 12.5244C38.1965 12.4248 37.9611 12.313 37.724 12.1893C37.4868 12.0656 37.2705 11.9265 37.0746 11.7718C36.8787 11.6172 36.7205 11.411 36.6004 11.1532C36.4801 10.8956 36.42 10.6018 36.42 10.272C36.42 9.90234 36.4939 9.57587 36.6416 9.29358C36.7894 9.01097 36.9869 8.79134 37.2342 8.63437C37.4816 8.4774 37.746 8.36231 38.028 8.2891C38.3096 8.21589 38.6087 8.17896 38.925 8.17896C39.1034 8.17896 39.2923 8.19149 39.4919 8.21622C39.691 8.24095 39.9024 8.28151 40.126 8.33791C40.3493 8.3943 40.5313 8.48267 40.6721 8.60238C40.8129 8.72242 40.8835 8.86356 40.8835 9.02614C40.8835 9.17915 40.8354 9.33744 40.7394 9.50101C40.6431 9.66458 40.5125 9.74603 40.3476 9.74603C40.2856 9.74603 40.1171 9.68074 39.8424 9.55015C39.5674 9.41956 39.2617 9.35426 38.925 9.35426C38.5537 9.35426 38.2668 9.42483 38.0643 9.56565C37.8615 9.70679 37.7599 9.90069 37.7599 10.148C37.7599 10.3475 37.8423 10.521 38.0076 10.6687C38.1724 10.8165 38.3769 10.9368 38.6209 11.0295C38.8646 11.1222 39.1294 11.2392 39.4147 11.38C39.6996 11.5209 39.9644 11.6739 40.2085 11.8388C40.4522 12.0036 40.6569 12.2424 40.8218 12.555C40.9867 12.868 41.0692 13.234 41.0692 13.6532C41.0692 14.3579 40.8439 14.902 40.3941 15.2849C39.9436 15.6677 39.351 15.8593 38.6157 15.8593C37.9627 15.8593 37.4028 15.7251 36.9355 15.457C36.4679 15.1896 36.2344 14.8974 36.2344 14.5811Z" fill="#7CCCDB"/>
</svg>
