<svg width="50" height="50" viewBox="0 0 50 50" fill="none" xmlns="http://www.w3.org/2000/svg">
<path d="M15.666 7.66663H16.9993V8.99996H15.666V7.66663Z" fill="#2855AF"/>
<path d="M18.334 7.66663H23.6673V8.99996H18.334V7.66663Z" fill="#2855AF"/>
<path d="M31 33.6667C30.999 34.5504 30.6474 35.3976 30.0226 36.0225C29.3977 36.6474 28.5504 36.9989 27.6667 37H15.488L17.78 33.0307C17.7075 33.235 17.6692 33.4499 17.6667 33.6667C17.6667 34.1971 17.8774 34.7058 18.2525 35.0809C18.6276 35.456 19.1363 35.6667 19.6667 35.6667H22.3334C22.8638 35.6667 23.3725 35.456 23.7476 35.0809C24.1227 34.7058 24.3334 34.1971 24.3334 33.6667C24.3334 33.1362 24.1227 32.6275 23.7476 32.2525C23.3725 31.8774 22.8638 31.6667 22.3334 31.6667H19.6667C19.3493 31.6673 19.0366 31.7436 18.7546 31.8894C18.4726 32.0351 18.2294 32.2461 18.0454 32.5047C18.3101 31.881 18.3269 31.1797 18.0922 30.5441C17.8576 29.9085 17.3892 29.3863 16.7827 29.0843C16.1762 28.7822 15.4772 28.723 14.8286 28.9187C14.1799 29.1144 13.6303 29.5502 13.292 30.1373L11.0254 34.0653C11.0089 33.9331 11.0005 33.7999 11 33.6667V9.66667C11.0011 8.78294 11.3526 7.93571 11.9775 7.31081C12.6024 6.68592 13.4496 6.33439 14.3334 6.33333H27.6667C28.2515 6.33469 28.8258 6.48929 29.3323 6.78171C29.8388 7.07414 30.2598 7.49419 30.5534 8L31.7074 7.33333C31.2964 6.62529 30.7071 6.03729 29.9982 5.6279C29.2892 5.21851 28.4854 5.00202 27.6667 5H14.3334C13.0961 5.00141 11.91 5.49353 11.0351 6.36839C10.1602 7.24326 9.66811 8.42942 9.6667 9.66667V22.5333C9.24245 22.7308 8.90085 23.0707 8.70137 23.494L5.67537 30.0587C5.22741 31.0216 4.99685 32.0713 5.00003 33.1333V45H6.33337V33.1333C6.33039 32.265 6.51886 31.4066 6.88537 30.6193L9.6667 24.5847V33.6667C9.66624 34.4629 9.87032 35.2459 10.2594 35.9407C10.3096 36.0531 10.3899 36.1494 10.4915 36.2189C10.593 36.2885 10.7119 36.3285 10.8348 36.3347C10.9578 36.3408 11.08 36.3128 11.188 36.2537C11.296 36.1947 11.3856 36.1068 11.4467 36L14.4467 30.804C14.6248 30.5003 14.9157 30.2793 15.2561 30.1893C15.5965 30.0993 15.9587 30.1476 16.2636 30.3236C16.5685 30.4997 16.7914 30.7892 16.8837 31.129C16.9759 31.4688 16.9301 31.8313 16.756 32.1373L13.756 37.3333C13.6964 37.4365 13.6655 37.5537 13.6666 37.6728C13.6677 37.7919 13.7006 37.9086 13.762 38.0107L15.19 40.384C15.5015 40.9032 15.6663 41.4972 15.6667 42.1027V44.9933H17V42.1027C16.9999 41.2553 16.7695 40.4239 16.3334 39.6973L15.5127 38.3333H27.6667C28.9039 38.3319 30.0901 37.8398 30.965 36.9649C31.8398 36.0901 32.332 34.9039 32.3334 33.6667V30.3333H31V33.6667ZM19.6667 33H22.3334C22.5102 33 22.6797 33.0702 22.8048 33.1953C22.9298 33.3203 23 33.4899 23 33.6667C23 33.8435 22.9298 34.013 22.8048 34.1381C22.6797 34.2631 22.5102 34.3333 22.3334 34.3333H19.6667C19.4899 34.3333 19.3203 34.2631 19.1953 34.1381C19.0703 34.013 19 33.8435 19 33.6667C19 33.4899 19.0703 33.3203 19.1953 33.1953C19.3203 33.0702 19.4899 33 19.6667 33Z" fill="#2855AF"/>
<path d="M43.0748 12.88C41.5755 10.734 39.3393 9.2142 36.792 8.61013C34.2447 8.00605 31.5642 8.35985 29.2608 9.60416C26.9575 10.8485 25.1922 12.8964 24.3011 15.358C23.4099 17.8196 23.4551 20.523 24.4281 22.9534L22.1748 26.7734C22.1098 26.8833 22.0778 27.0096 22.0825 27.1373C22.0872 27.2649 22.1285 27.3885 22.2015 27.4934C22.2763 27.598 22.3793 27.6793 22.4985 27.7276C22.6177 27.776 22.7482 27.7896 22.8748 27.7667L27.2281 26.9534C28.7063 28.2785 30.5262 29.163 32.4815 29.5067C33.0959 29.6123 33.7181 29.6659 34.3415 29.6667C36.2928 29.6662 38.2065 29.1304 39.8745 28.1176C41.5424 27.1049 42.9006 25.6541 43.8011 23.923C44.7017 22.192 45.1102 20.2471 44.9821 18.3C44.8541 16.3529 44.1944 14.4782 43.0748 12.88ZM43.5281 20.62C43.2349 22.2831 42.496 23.8355 41.3901 25.1117C40.2842 26.3879 38.8527 27.3402 37.2483 27.867C35.6438 28.3939 33.9265 28.4755 32.2793 28.1033C30.6321 27.7311 29.1168 26.9189 27.8948 25.7534C27.7698 25.6373 27.6054 25.573 27.4348 25.5734C27.3947 25.5723 27.3545 25.5745 27.3148 25.58L24.0681 26.1867L25.7481 23.3467C25.8004 23.2552 25.8311 23.1531 25.838 23.048C25.845 22.9429 25.8279 22.8376 25.7881 22.74C25.0446 21.0574 24.8194 19.1913 25.1415 17.38C25.5711 14.9418 26.9517 12.7741 28.9796 11.3539C29.9838 10.6506 31.1165 10.152 32.3133 9.88657C33.5101 9.62111 34.7475 9.59397 35.9548 9.80671C37.1621 10.0195 38.3156 10.4679 39.3496 11.1265C40.3836 11.785 41.2777 12.6408 41.981 13.6449C42.6842 14.649 43.1828 15.7818 43.4483 16.9786C43.7137 18.1754 43.7409 19.4128 43.5281 20.62Z" fill="#7CCCDB"/>
<path d="M39 15H37V14.3333C37 13.626 36.719 12.9478 36.219 12.4477C35.7189 11.9476 35.0406 11.6666 34.3333 11.6666C33.6261 11.6666 32.9478 11.9476 32.4477 12.4477C31.9476 12.9478 31.6667 13.626 31.6667 14.3333V15H29.6667C29.4899 15 29.3203 15.0702 29.1953 15.1952C29.0702 15.3202 29 15.4898 29 15.6666V23.6666C29.0016 24.1966 29.2128 24.7044 29.5875 25.0791C29.9623 25.4538 30.4701 25.665 31 25.6666H37.6667C38.1966 25.665 38.7044 25.4538 39.0791 25.0791C39.4539 24.7044 39.6651 24.1966 39.6667 23.6666V15.6666C39.6667 15.4898 39.5964 15.3202 39.4714 15.1952C39.3464 15.0702 39.1768 15 39 15ZM33 14.3333C33 13.9797 33.1405 13.6405 33.3905 13.3905C33.6406 13.1404 33.9797 13 34.3333 13C34.687 13 35.0261 13.1404 35.2761 13.3905C35.5262 13.6405 35.6667 13.9797 35.6667 14.3333V15H33V14.3333ZM38.3333 23.6666C38.3333 23.8434 38.2631 24.013 38.1381 24.138C38.013 24.2631 37.8435 24.3333 37.6667 24.3333H31C30.8232 24.3333 30.6536 24.2631 30.5286 24.138C30.4036 24.013 30.3333 23.8434 30.3333 23.6666V23H38.3333V23.6666ZM38.3333 21.6666H30.3333V16.3333H31.6667V17.6666H33V16.3333H35.6667V17.6666H37V16.3333H38.3333V21.6666Z" fill="#7CCCDB"/>
<path d="M18.5278 13.8621L17.5011 14.8887C16.8101 14.4313 15.9738 14.2469 15.1544 14.3712C14.3351 14.4955 13.5911 14.9196 13.0668 15.5614C12.5424 16.2031 12.2751 17.0167 12.3167 17.8444C12.3583 18.6721 12.7058 19.4548 13.2917 20.0408C13.8777 20.6268 14.6605 20.9742 15.4881 21.0158C16.3158 21.0574 17.1294 20.7901 17.7712 20.2657C18.4129 19.7414 18.8371 18.9974 18.9614 18.1781C19.0856 17.3587 18.9012 16.5224 18.4438 15.8314L19.4705 14.8047L18.5278 13.8621ZM17.6658 17.6667C17.6658 18.0623 17.5485 18.449 17.3287 18.7779C17.109 19.1068 16.7966 19.3631 16.4312 19.5145C16.0657 19.6659 15.6636 19.7055 15.2756 19.6283C14.8877 19.5511 14.5313 19.3606 14.2516 19.0809C13.9719 18.8012 13.7814 18.4449 13.7042 18.0569C13.6271 17.6689 13.6667 17.2668 13.818 16.9014C13.9694 16.5359 14.2258 16.2235 14.5547 16.0038C14.8836 15.784 15.2702 15.6667 15.6658 15.6667C15.9628 15.6679 16.2557 15.7363 16.5225 15.8667L14.5278 17.8614L15.4705 18.8041L17.4658 16.8101C17.5963 17.0769 17.6647 17.3697 17.6658 17.6667Z" fill="#2855AF"/>
<path d="M20.334 15.6666H23.0007V17H20.334V15.6666Z" fill="#2855AF"/>
<path d="M20.334 18.3334H23.0007V19.6667H20.334V18.3334Z" fill="#2855AF"/>
</svg>
