<svg width="50" height="50" viewBox="0 0 50 50" fill="none" xmlns="http://www.w3.org/2000/svg">
<path d="M29 38.3333H35.6667V39.6666H29V38.3333Z" fill="#2855AF"/>
<path d="M29 35.6666H35.6667V37H29V35.6666Z" fill="#2855AF"/>
<path d="M40.334 35.6666C39.9384 35.6666 39.5517 35.7839 39.2228 36.0037C38.8939 36.2235 38.6376 36.5358 38.4862 36.9013C38.3349 37.2667 38.2952 37.6688 38.3724 38.0568C38.4496 38.4448 38.6401 38.8011 38.9198 39.0808C39.1995 39.3605 39.5558 39.551 39.9438 39.6282C40.3318 39.7054 40.7339 39.6658 41.0994 39.5144C41.4648 39.363 41.7772 39.1067 41.9969 38.7778C42.2167 38.4489 42.334 38.0622 42.334 37.6666C42.334 37.1362 42.1233 36.6275 41.7482 36.2524C41.3731 35.8773 40.8644 35.6666 40.334 35.6666ZM40.334 38.3333C40.2021 38.3333 40.0732 38.2942 39.9636 38.2209C39.854 38.1477 39.7685 38.0436 39.7181 37.9217C39.6676 37.7999 39.6544 37.6659 39.6801 37.5366C39.7059 37.4072 39.7693 37.2885 39.8626 37.1952C39.9558 37.102 40.0746 37.0385 40.2039 37.0128C40.3332 36.987 40.4673 37.0002 40.5891 37.0507C40.7109 37.1012 40.815 37.1866 40.8883 37.2962C40.9616 37.4059 41.0007 37.5348 41.0007 37.6666C41.0007 37.8434 40.9304 38.013 40.8054 38.138C40.6804 38.2631 40.5108 38.3333 40.334 38.3333Z" fill="#2855AF"/>
<path d="M24.334 35.6666C23.9384 35.6666 23.5517 35.7839 23.2228 36.0037C22.8939 36.2235 22.6376 36.5358 22.4862 36.9013C22.3349 37.2667 22.2952 37.6688 22.3724 38.0568C22.4496 38.4448 22.6401 38.8011 22.9198 39.0808C23.1995 39.3605 23.5558 39.551 23.9438 39.6282C24.3318 39.7054 24.7339 39.6658 25.0994 39.5144C25.4648 39.363 25.7772 39.1067 25.9969 38.7778C26.2167 38.4489 26.334 38.0622 26.334 37.6666C26.334 37.1362 26.1233 36.6275 25.7482 36.2524C25.3731 35.8773 24.8644 35.6666 24.334 35.6666ZM24.334 38.3333C24.2021 38.3333 24.0732 38.2942 23.9636 38.2209C23.854 38.1477 23.7685 38.0436 23.7181 37.9217C23.6676 37.7999 23.6544 37.6659 23.6801 37.5366C23.7059 37.4072 23.7693 37.2885 23.8626 37.1952C23.9558 37.102 24.0746 37.0385 24.2039 37.0128C24.3332 36.987 24.4673 37.0002 24.5891 37.0507C24.7109 37.1012 24.815 37.1866 24.8883 37.2962C24.9616 37.4059 25.0007 37.5348 25.0007 37.6666C25.0007 37.8434 24.9304 38.013 24.8054 38.138C24.6804 38.2631 24.5108 38.3333 24.334 38.3333Z" fill="#2855AF"/>
<path d="M45.6664 32.3334C45.6648 31.8034 45.4536 31.2956 45.0788 30.9209C44.7041 30.5462 44.1963 30.3349 43.6664 30.3334C43.2821 30.3341 42.9066 30.4477 42.5864 30.66L41.6397 28.1334L41.1064 26.0067C41.0345 25.7184 40.868 25.4626 40.6335 25.2801C40.399 25.0976 40.1102 24.999 39.813 25H36.333V23C36.333 22.8232 36.2628 22.6537 36.1378 22.5286C36.0128 22.4036 35.8432 22.3334 35.6664 22.3334H28.9997C28.8229 22.3334 28.6533 22.4036 28.5283 22.5286C28.4033 22.6537 28.333 22.8232 28.333 23V25H24.8531C24.5559 24.999 24.267 25.0976 24.0326 25.2801C23.7981 25.4626 23.6316 25.7184 23.5597 26.0067L23.0264 28.1334L22.0797 30.66C21.7595 30.4477 21.3839 30.3341 20.9997 30.3334C20.5676 30.3351 20.1477 30.4767 19.8029 30.7371C19.458 30.9974 19.2067 31.3624 19.0866 31.7775C18.9665 32.1926 18.9841 32.6354 19.1367 33.0396C19.2893 33.4439 19.5687 33.7878 19.9331 34.02C19.7597 34.3176 19.6677 34.6556 19.6664 35V43.6667C19.6674 44.02 19.8083 44.3585 20.0581 44.6083C20.3079 44.8581 20.6464 44.999 20.9997 45H23.6664C24.0197 44.999 24.3582 44.8581 24.608 44.6083C24.8578 44.3585 24.9987 44.02 24.9997 43.6667V42.3334H39.6664V43.6667C39.6674 44.02 39.8082 44.3585 40.0581 44.6083C40.3079 44.8581 40.6464 44.999 40.9997 45H43.6664C44.0197 44.999 44.3582 44.8581 44.608 44.6083C44.8578 44.3585 44.9986 44.02 44.9997 43.6667V35C44.9984 34.6556 44.9064 34.3176 44.733 34.02C45.0188 33.8411 45.2545 33.5924 45.4177 33.2973C45.581 33.0023 45.6666 32.6706 45.6664 32.3334ZM29.6664 23.6667H34.9997V25H29.6664V23.6667ZM24.8531 26.3334H39.813L40.1464 27.6667H24.5197L24.8531 26.3334ZM24.1264 29H40.5397L42.0397 33H30.2397C30.0942 32.428 29.7621 31.9207 29.2961 31.5585C28.8301 31.1962 28.2567 30.9995 27.6664 30.9995C27.0761 30.9995 26.5027 31.1962 26.0366 31.5585C25.5706 31.9207 25.2386 32.428 25.0931 33H22.6264L24.1264 29ZM28.813 33H26.5197C26.6349 32.7975 26.8017 32.6292 27.0032 32.512C27.2046 32.3949 27.4334 32.3332 27.6664 32.3332C27.8994 32.3332 28.1282 32.3949 28.3296 32.512C28.531 32.6292 28.6978 32.7975 28.813 33ZM20.3331 32.3334C20.3331 32.1566 20.4033 31.987 20.5283 31.862C20.6533 31.7369 20.8229 31.6667 20.9997 31.6667C21.1168 31.6676 21.2316 31.6995 21.3323 31.7593C21.433 31.819 21.5161 31.9044 21.5731 32.0067L21.2197 32.96C21.1493 32.9862 21.0748 32.9997 20.9997 33C20.8229 33 20.6533 32.9298 20.5283 32.8048C20.4033 32.6797 20.3331 32.5102 20.3331 32.3334ZM23.6664 43.6667H20.9997V42.2134C21.2135 42.291 21.439 42.3316 21.6664 42.3334H23.6664V43.6667ZM43.6664 43.6667H40.9997V42.3334H42.9997C43.2271 42.3316 43.4526 42.291 43.6664 42.2134V43.6667ZM43.6664 40.3334C43.6664 40.5102 43.5961 40.6797 43.4711 40.8048C43.3461 40.9298 43.1765 41 42.9997 41H21.6664C21.4896 41 21.32 40.9298 21.195 40.8048C21.07 40.6797 20.9997 40.5102 20.9997 40.3334V35C20.9997 34.8232 21.07 34.6536 21.195 34.5286C21.32 34.4036 21.4896 34.3334 21.6664 34.3334H42.9997C43.1765 34.3334 43.3461 34.4036 43.4711 34.5286C43.5961 34.6536 43.6664 34.8232 43.6664 35V40.3334ZM43.6664 33C43.5913 32.9997 43.5168 32.9862 43.4464 32.96L43.093 32.0067C43.1489 31.9035 43.2317 31.8173 43.3327 31.7574C43.4337 31.6975 43.549 31.6662 43.6664 31.6667C43.8432 31.6667 44.0127 31.7369 44.1378 31.862C44.2628 31.987 44.333 32.1566 44.333 32.3334C44.333 32.5102 44.2628 32.6797 44.1378 32.8048C44.0127 32.9298 43.8432 33 43.6664 33Z" fill="#2855AF"/>
<path d="M6.33333 41V9C6.33333 8.29275 6.61428 7.61448 7.11438 7.11438C7.61448 6.61428 8.29275 6.33333 9 6.33333H27.6666C28.3739 6.33333 29.0522 6.61428 29.5523 7.11438C30.0524 7.61448 30.3333 8.29275 30.3333 9V21H31.6666V9C31.6656 7.93946 31.2438 6.92266 30.4939 6.17274C29.744 5.42283 28.7272 5.00106 27.6666 5H9C7.93946 5.00106 6.92266 5.42283 6.17274 6.17274C5.42283 6.92266 5.00106 7.93946 5 9V41C5.00106 42.0605 5.42283 43.0773 6.17274 43.8272C6.92266 44.5771 7.93946 44.9989 9 45H18.3333V43.6666H9C8.29275 43.6666 7.61448 43.3857 7.11438 42.8856C6.61428 42.3855 6.33333 41.7072 6.33333 41Z" fill="#7CCCDB"/>
<path d="M27.6673 43.6666H26.334V45H27.6673C28.5332 45.0022 29.376 44.7213 30.0673 44.2L29.2673 43.1333C28.8066 43.4811 28.2446 43.6684 27.6673 43.6666Z" fill="#2855AF"/>
<path d="M15 40.3333C15 40.8637 15.2107 41.3724 15.5858 41.7475C15.9609 42.1225 16.4696 42.3332 17 42.3332H18.3333V40.9999H17C16.8232 40.9999 16.6536 40.9297 16.5286 40.8047C16.4036 40.6796 16.3333 40.5101 16.3333 40.3333C16.3333 40.1564 16.4036 39.9869 16.5286 39.8618C16.6536 39.7368 16.8232 39.6666 17 39.6666H18.3333V38.3333H17C16.4696 38.3333 15.9609 38.544 15.5858 38.919C15.2107 39.2941 15 39.8028 15 40.3333Z" fill="#7CCCDB"/>
<path d="M13.666 7.66663H14.9993V8.99996H13.666V7.66663Z" fill="#7CCCDB"/>
<path d="M16.334 7.66663H20.334V8.99996H16.334V7.66663Z" fill="#7CCCDB"/>
<path d="M9 19.6666C9 23.2126 14.2773 29.1899 14.5013 29.4433C14.5639 29.5142 14.6408 29.571 14.727 29.6099C14.8132 29.6489 14.9067 29.669 15.0013 29.669C15.0959 29.669 15.1894 29.6489 15.2756 29.6099C15.3618 29.571 15.4388 29.5142 15.5013 29.4433C15.7227 29.1899 21 23.2126 21 19.6666C21 18.0753 20.3678 16.5492 19.2426 15.424C18.1174 14.2988 16.5913 13.6666 15 13.6666C13.4087 13.6666 11.8826 14.2988 10.7574 15.424C9.63214 16.5492 9 18.0753 9 19.6666ZM15 15C16.2372 15.0014 17.4234 15.4935 18.2983 16.3684C19.1731 17.2432 19.6652 18.4294 19.6667 19.6666C19.6667 21.9333 16.6527 26.0046 15 27.9779C13.3473 26.0046 10.3333 21.9333 10.3333 19.6666C10.3347 18.4294 10.8269 17.2432 11.7017 16.3684C12.5766 15.4935 13.7628 15.0014 15 15Z" fill="#7CCCDB"/>
<path d="M15 21C15.3956 21 15.7822 20.8827 16.1111 20.6629C16.44 20.4432 16.6964 20.1308 16.8478 19.7654C16.9991 19.3999 17.0387 18.9978 16.9616 18.6098C16.8844 18.2219 16.6939 17.8655 16.4142 17.5858C16.1345 17.3061 15.7781 17.1156 15.3902 17.0384C15.0022 16.9613 14.6001 17.0009 14.2346 17.1522C13.8692 17.3036 13.5568 17.56 13.3371 17.8889C13.1173 18.2178 13 18.6044 13 19C13 19.5304 13.2107 20.0391 13.5858 20.4142C13.9609 20.7893 14.4696 21 15 21ZM15 18.3333C15.1319 18.3333 15.2607 18.3724 15.3704 18.4457C15.48 18.5189 15.5655 18.6231 15.6159 18.7449C15.6664 18.8667 15.6796 19.0007 15.6539 19.1301C15.6281 19.2594 15.5646 19.3782 15.4714 19.4714C15.3782 19.5646 15.2594 19.6281 15.1301 19.6539C15.0007 19.6796 14.8667 19.6664 14.7449 19.6159C14.6231 19.5655 14.5189 19.48 14.4457 19.3704C14.3724 19.2607 14.3333 19.1319 14.3333 19C14.3333 18.8232 14.4036 18.6536 14.5286 18.5286C14.6536 18.4036 14.8232 18.3333 15 18.3333Z" fill="#7CCCDB"/>
</svg>
