<svg width="50" height="50" viewBox="0 0 50 50" fill="none" xmlns="http://www.w3.org/2000/svg">
<path d="M45.7399 4.99929H9.7484V4.24947C9.7484 3.00712 8.74128 2 7.49893 2H5.24947C4.00712 2 3 3.00712 3 4.24947V44.7399C3 45.9822 4.00712 46.9893 5.24947 46.9893H7.49893C8.74128 46.9893 9.7484 45.9822 9.7484 44.7399V10.248H18.7463V17.1959C12.9904 21.4119 10.5972 28.8505 12.8151 35.6318C15.033 42.4131 21.3592 47 28.4939 47C35.6287 47 41.9549 42.4131 44.1728 35.6318C46.3907 28.8505 43.9975 21.4119 38.2416 17.1959V10.248H45.7399C46.9822 10.248 47.9893 9.24092 47.9893 7.99858V7.24875C47.9893 6.00641 46.9822 4.99929 45.7399 4.99929ZM8.24875 44.7399C8.24875 45.154 7.91305 45.4897 7.49893 45.4897H5.24947C4.83535 45.4897 4.49964 45.154 4.49964 44.7399V4.24947C4.49964 3.83535 4.83535 3.49964 5.24947 3.49964H7.49893C7.91305 3.49964 8.24875 3.83535 8.24875 4.24947V44.7399ZM20.2459 10.248H22.4954V15.1309C21.7191 15.4352 20.9671 15.7982 20.2459 16.2166V10.248ZM32.9929 10.248V14.6263C30.0522 13.7875 26.9357 13.7875 23.995 14.6263V10.248H32.9929ZM43.4904 30.4932C43.4904 38.7755 36.7763 45.4897 28.4939 45.4897C20.2116 45.4897 13.4975 38.7755 13.4975 30.4932C13.4975 22.2109 20.2116 15.4968 28.4939 15.4968C36.7723 15.5063 43.4809 22.2149 43.4904 30.4932ZM36.742 16.2166C36.0208 15.7982 35.2688 15.4352 34.4925 15.1309V10.248H36.742V16.2166ZM46.4897 7.99858C46.4897 8.41269 46.154 8.7484 45.7399 8.7484H9.7484V6.49893H45.7399C46.154 6.49893 46.4897 6.83464 46.4897 7.24875V7.99858Z" fill="#2855AF"/>
<path d="M40.3525 30.4602C39.5311 29.85 38.4928 29.6092 37.4867 29.7958C37.4919 29.5169 37.4919 29.2522 37.4867 29.0138H37.4754C37.4754 28.965 37.4919 28.9193 37.4919 28.8691C37.4919 27.5194 36.3402 26.3114 34.2497 25.4761C33.865 25.3225 33.4286 25.5098 33.2749 25.8945C33.1213 26.2792 33.3086 26.7157 33.6933 26.8693C35.1322 27.4437 35.9915 28.1912 35.9915 28.8683C35.9915 30.173 32.5686 31.9928 26.9937 31.9928C21.4187 31.9928 17.9958 30.173 17.9958 28.8683C17.9958 28.138 19.0276 27.3094 20.6884 26.7066C21.0731 26.5622 21.27 26.1351 21.1299 25.7488C20.9898 25.3625 20.5648 25.161 20.177 25.2969C17.8031 26.1585 16.4962 27.4272 16.4962 28.8683C16.4962 28.9036 16.5059 28.9358 16.5074 28.9703C16.5074 28.9808 16.5014 28.989 16.5014 28.9995C16.4474 31.249 16.7616 35.4315 19.4849 38.2224C21.2778 40.0594 23.8039 40.9907 26.9937 40.9907C30.1834 40.9907 32.7096 40.0594 34.5024 38.2224C34.8837 37.8286 35.2272 37.3998 35.5281 36.9417C35.7471 36.8531 35.9728 36.7819 36.203 36.7287C36.3529 36.6935 36.5127 36.659 36.6806 36.6222C38.241 36.2848 40.8519 35.7224 41.2058 33.0981C41.4155 32.1294 41.0898 31.1226 40.3525 30.4602ZM26.9937 39.4911C24.2238 39.4911 22.0583 38.7112 20.5579 37.1749C19.1387 35.5698 18.2806 33.5462 18.1135 31.4102C20.0953 32.7726 23.6105 33.4925 26.9937 33.4925C30.3769 33.4925 33.892 32.7719 35.8761 31.4087C35.7078 33.5453 34.8491 35.5692 33.4294 37.1749C31.929 38.7112 29.7635 39.4911 26.9937 39.4911ZM39.7174 32.8971C39.5247 34.3218 38.2013 34.7492 36.4789 35.1278C36.9585 33.9103 37.2658 32.6317 37.3922 31.3292C38.0645 31.1407 38.7848 31.2396 39.3815 31.6022C39.7104 31.9464 39.8375 32.4364 39.7174 32.8971Z" fill="#7CCCDB"/>
<path d="M22.7631 25.069C23.1268 25.3689 23.2438 25.4904 23.2438 25.7439C23.2438 25.9973 23.1268 26.1188 22.7631 26.4187C22.149 26.8271 21.7695 27.5067 21.7441 28.2438C21.7441 28.6579 22.0798 28.9936 22.494 28.9936C22.9081 28.9936 23.2438 28.6579 23.2438 28.2438C23.2438 27.9911 23.3608 27.8688 23.7244 27.5689C24.3577 27.1779 24.7433 26.4867 24.7433 25.7424C24.7433 24.998 24.3577 24.3069 23.7244 23.9158C23.3608 23.6159 23.2438 23.4944 23.2438 23.241C23.2438 23.0003 23.3405 22.8878 23.7237 22.5661C24.3375 22.1594 24.7173 21.4814 24.7434 20.7455C24.7434 20.3314 24.4077 19.9957 23.9936 19.9957C23.5795 19.9957 23.2438 20.3314 23.2438 20.7455C23.2438 20.9862 23.1471 21.0987 22.7639 21.4204C22.1302 21.8108 21.7442 22.5019 21.7442 23.2462C21.7442 23.9905 22.1302 24.6816 22.7639 25.072L22.7631 25.069Z" fill="#7CCCDB"/>
<path d="M26.5131 25.069C26.8768 25.3689 26.9938 25.4904 26.9938 25.7439C26.9938 25.9973 26.8768 26.1188 26.5131 26.4187C25.899 26.8271 25.5195 27.5067 25.4941 28.2438C25.4941 28.6579 25.8298 28.9936 26.244 28.9936C26.6581 28.9936 26.9938 28.6579 26.9938 28.2438C26.9938 27.9911 27.1108 27.8688 27.4744 27.5689C28.1077 27.1779 28.4933 26.4867 28.4933 25.7424C28.4933 24.998 28.1077 24.3069 27.4744 23.9158C27.1108 23.6159 26.9938 23.4944 26.9938 23.241C26.9938 23.0003 27.0905 22.8878 27.4737 22.5661C28.0875 22.1594 28.4673 21.4814 28.4934 20.7455C28.4934 20.3314 28.1577 19.9957 27.7436 19.9957C27.3295 19.9957 26.9938 20.3314 26.9938 20.7455C26.9938 20.9862 26.8971 21.0987 26.5139 21.4204C25.8802 21.8108 25.4942 22.5019 25.4942 23.2462C25.4942 23.9905 25.8802 24.6816 26.5139 25.072L26.5131 25.069Z" fill="#7CCCDB"/>
<path d="M30.2632 25.069C30.6268 25.3689 30.7438 25.4904 30.7438 25.7439C30.7438 25.9973 30.6268 26.1188 30.2632 26.4187C29.649 26.8271 29.2695 27.5067 29.2441 28.2438C29.2441 28.6579 29.5798 28.9936 29.994 28.9936C30.4081 28.9936 30.7438 28.6579 30.7438 28.2438C30.7438 27.9911 30.8608 27.8688 31.2244 27.5689C31.8577 27.1779 32.2433 26.4867 32.2433 25.7424C32.2433 24.998 31.8577 24.3069 31.2244 23.9158C30.8608 23.6159 30.7438 23.4944 30.7438 23.241C30.7438 23.0003 30.8405 22.8878 31.2237 22.5661C31.8375 22.1594 32.2173 21.4814 32.2434 20.7455C32.2434 20.3314 31.9077 19.9957 31.4936 19.9957C31.0795 19.9957 30.7438 20.3314 30.7438 20.7455C30.7438 20.9862 30.6471 21.0987 30.2639 21.4204C29.6302 21.8108 29.2442 22.5019 29.2442 23.2462C29.2442 23.9905 29.6302 24.6816 30.2639 25.072L30.2632 25.069Z" fill="#7CCCDB"/>
</svg>
