<svg width="50" height="50" viewBox="0 0 50 50" fill="none" xmlns="http://www.w3.org/2000/svg">
<path d="M44.0686 16.8988H36.8929C35.6547 16.8988 34.6472 17.9067 34.6472 19.1457V27.4048H31.9632C32.1124 26.8625 32.1677 26.2229 32.1314 25.4786V25.4786C32.0731 22.3332 31.5024 19.6822 30.4349 17.5994C29.6059 15.9823 28.6386 15.0128 27.8085 14.4332C28.7828 13.4315 29.3461 12.0064 29.3461 10.3628C29.3461 7.40572 26.9872 5 24.0877 5C21.1883 5 18.8293 7.40572 18.8293 10.3628C18.8293 10.7052 19.1069 10.9827 19.4492 10.9827H19.8703C19.8316 11.2166 19.8109 11.4549 19.8109 11.697C19.8109 13.781 21.3 15.5227 23.2688 15.913C23.0624 16.6793 22.9599 17.5829 22.9603 18.6093L21.4143 19.939L17.6527 20.2432L13.3136 18.8088C12.9159 18.6766 12.4652 18.5272 12.0741 18.8092C11.6887 19.0873 11.6887 19.5741 11.6887 19.7341V22.9601C11.6887 23.3025 11.9662 23.58 12.3086 23.58H13.0465L11.9147 27.4911C11.8196 27.8198 12.009 28.1636 12.3378 28.2587C12.6668 28.3544 13.0104 28.1644 13.1056 27.8357L14.3372 23.58H16.0993C13.9076 30.2636 15.1582 34.725 17.0804 39.24H15.9662L11.3254 34.051L12.3067 30.6609C12.402 30.3321 12.2125 29.9883 11.8837 29.8932C11.5548 29.7981 11.2111 29.9875 11.1159 30.3163L10.1773 33.559C7.27432 33.5106 4.67761 35.5121 4.01587 38.3917C3.93926 38.7253 4.14744 39.0578 4.48091 39.1345L5.36084 39.337C5.13604 41.6719 6.67365 43.8748 9.01863 44.4145C9.37474 44.4966 9.73392 44.5371 10.0906 44.5371C10.9703 44.5371 11.8345 44.2905 12.5989 43.8114C13.496 43.2492 14.1644 42.4228 14.5262 41.4461L15.2205 41.6058C15.4273 41.6537 15.6235 41.6779 15.8196 41.5724C16.002 41.4742 16.1232 41.2969 16.1687 41.0968C16.2123 40.8939 16.2455 40.6877 16.2686 40.4796H29.2321C29.6467 43.0571 31.8397 45 34.4588 45C37.0779 45 39.271 43.0571 39.6855 40.4796H40.1586C40.1586 40.4796 40.2525 40.4807 40.2739 40.4807C40.4511 40.4807 40.7072 40.461 40.9174 40.2472C41.0226 40.1401 41.1461 39.9486 41.1366 39.6444C41.1192 39.0624 41.0318 38.5 40.8827 37.9654C41.3764 34.968 40.9014 33.1425 40.1972 31.7138C40.6424 31.422 40.9376 30.9192 40.9376 30.3479V28.6444H44.0684C45.3067 28.6444 46.3141 27.6364 46.3141 26.3974V19.1456C46.3143 17.9067 45.3069 16.8988 44.0686 16.8988ZM11.9406 42.7611C11.1472 43.2584 10.2083 43.4165 9.29689 43.2067H9.29681C7.61928 42.8206 6.5001 41.2823 6.58167 39.619L13.3051 41.1664C13.0269 41.8214 12.5563 42.3754 11.9406 42.7611ZM15.0421 40.2929L5.40034 38.0742C6.14439 36.0366 8.14672 34.6879 10.3354 34.8039L15.0587 40.085C15.0545 40.1547 15.0491 40.2239 15.0421 40.2929ZM24.4046 29.4916C24.2247 29.9661 24.2247 30.5512 24.2247 31.361V33.7H21.955V30.4911C21.955 26.8631 23.935 26.2166 24.8236 26.1099H30.9004C30.876 26.9333 30.6902 27.5186 30.3374 27.8901C29.9264 28.323 29.223 28.5339 28.1869 28.5349L25.962 28.5372C25.1686 28.5373 24.6447 28.8582 24.4046 29.4916ZM24.2247 34.9396V36.4196C24.2191 36.4196 24.2133 36.4196 24.2073 36.4196H19.8046C19.8541 35.9606 19.997 35.6054 20.2318 35.3596C20.5811 34.9942 21.073 34.9396 21.3351 34.9396H24.2247ZM30.8731 24.8703H25.2361C25.0097 24.158 24.8079 23.378 24.6419 22.5763L26.3558 21.4639C27.2913 20.8564 27.778 19.9979 27.6911 19.1086C27.614 18.3202 27.0781 17.616 26.3257 17.3146C25.6386 17.0394 24.899 17.1259 24.2453 17.5438C24.2992 16.9509 24.3995 16.4216 24.5447 15.9724C24.8089 15.9451 25.0713 15.8935 25.329 15.8177C25.8535 15.6959 26.3382 15.5017 26.7758 15.2443C27.9697 15.9575 30.5953 18.2709 30.8731 24.8703ZM20.1144 9.74309C20.4067 7.76258 22.0771 6.23976 24.0877 6.23976C26.3036 6.23976 28.1064 8.08944 28.1064 10.3629C28.1064 12.212 27.2197 13.7024 25.79 14.3582V11.0968C25.79 10.5321 25.5739 9.83937 24.5446 9.74565C24.5259 9.74391 24.5072 9.74309 24.4884 9.74309H20.1144ZM21.0507 11.6971C21.0507 11.4524 21.0785 11.2135 21.1333 10.9828H24.458C24.4962 10.9869 24.5242 10.9914 24.5442 10.9954C24.5474 11.0184 24.5502 11.0514 24.5502 11.0968V14.723C24.4025 14.7447 24.2539 14.7557 24.1054 14.7558C24.104 14.7558 24.1026 14.7558 24.1013 14.7558C22.419 14.7542 21.0507 13.3827 21.0507 11.6971ZM20.2471 21.2773L21.7152 21.1585C21.8461 21.148 21.9701 21.0962 22.0697 21.0107L24.7193 18.7317L24.7197 18.7313C24.9759 18.5106 25.2494 18.3974 25.5157 18.3974C25.6342 18.3974 25.7513 18.4198 25.8648 18.4653C26.1923 18.5964 26.4249 18.8963 26.4574 19.229C26.4983 19.6478 26.2225 20.0722 25.6809 20.424L22.7284 22.3404H20.2473V21.2773H20.2471ZM17.6276 21.4892L19.0075 21.3776V22.3405H17.4041C17.1962 22.3405 17.1455 22.1678 17.1396 22.0229C17.1362 21.9408 17.144 21.5289 17.6276 21.4892ZM16.1606 21.0613C15.9739 21.3674 15.8867 21.7255 15.901 22.0737C15.9047 22.1638 15.9162 22.2507 15.9322 22.3353C15.9322 22.337 15.9312 22.3388 15.9316 22.3404H12.9286V19.9873L16.163 21.0565C16.162 21.0581 16.1615 21.0597 16.1606 21.0613ZM17.4075 23.5801H22.9118C23.0315 23.5801 23.1488 23.5454 23.2492 23.4802L23.5298 23.298C23.6648 23.8946 23.8185 24.4751 23.9859 25.0233C22.7218 25.3965 20.7152 26.6024 20.7152 30.491V33.7622C20.2803 33.8499 19.7659 34.0527 19.3356 34.5031C18.8819 34.9778 18.6228 35.621 18.5607 36.4195H17.3102C16.0502 32.7883 15.5711 28.9241 17.4075 23.5801ZM18.4292 39.2379C18.2001 38.711 17.9793 38.1862 17.7713 37.6593H24.2072C25.0414 37.6593 25.4643 37.2795 25.4643 36.5307V34.3198V31.9807H30.3568C30.6992 31.9807 30.9766 31.7033 30.9766 31.3609C30.9766 31.0185 30.6992 30.7411 30.3568 30.7411H25.4687C25.4767 30.389 25.4992 30.1011 25.5638 29.931C25.5951 29.8483 25.6222 29.7768 25.9626 29.7768L28.1881 29.7745C29.5819 29.7732 30.579 29.436 31.2364 28.7436C31.2669 28.7116 31.2956 28.6779 31.3245 28.6444H35.2671H39.6982V30.348C39.6982 30.5611 39.5186 30.7411 39.306 30.7411H33.1353C32.7929 30.7411 32.5155 31.0185 32.5155 31.3609C32.5155 31.7033 32.7929 31.9807 33.1353 31.9807H38.9418C39.4317 32.8901 39.8724 34.0216 39.8462 35.8093C38.6199 34.1059 36.6347 33.0106 34.3816 33.0106C32.5722 33.0106 30.8743 33.7203 29.6007 35.0092C28.4705 36.1528 27.7917 37.637 27.652 39.24L18.4292 39.2379ZM34.4589 43.7605C32.5212 43.7605 30.8869 42.3644 30.4916 40.4798H38.4262C38.0307 42.3642 36.3965 43.7605 34.4589 43.7605ZM39.1303 39.2401H29.7876H28.8971C29.2014 36.4374 31.5449 34.2503 34.3816 34.2503C36.8721 34.2503 38.9636 35.8925 39.6563 38.1914C39.6585 38.1987 39.6607 38.206 39.6632 38.2132C39.7611 38.543 39.8303 38.8863 39.8677 39.2401H39.1303ZM45.0746 26.3975C45.0746 26.9529 44.6233 27.4048 44.0686 27.4048H35.8869V24.2038H45.0746V26.3975ZM45.0746 22.9642H35.8869V21.6459H45.0746V22.9642ZM45.0746 20.4062H35.8869V19.1457C35.8869 18.5903 36.3382 18.1384 36.8929 18.1384H44.0686C44.6233 18.1384 45.0746 18.5903 45.0746 19.1457V20.4062Z" fill="#2855AF"/>
<mask id="mask0" mask-type="alpha" maskUnits="userSpaceOnUse" x="4" y="5" width="43" height="40">
<path d="M44.0686 16.8988H36.8929C35.6547 16.8988 34.6472 17.9067 34.6472 19.1457V27.4048H31.9632C32.1124 26.8625 32.1677 26.2229 32.1314 25.4786V25.4786C32.0731 22.3332 31.5024 19.6822 30.4349 17.5994C29.6059 15.9823 28.6386 15.0128 27.8085 14.4332C28.7828 13.4315 29.3461 12.0064 29.3461 10.3628C29.3461 7.40572 26.9872 5 24.0877 5C21.1883 5 18.8293 7.40572 18.8293 10.3628C18.8293 10.7052 19.1069 10.9827 19.4492 10.9827H19.8703C19.8316 11.2166 19.8109 11.4549 19.8109 11.697C19.8109 13.781 21.3 15.5227 23.2688 15.913C23.0624 16.6793 22.9599 17.5829 22.9603 18.6093L21.4143 19.939L17.6527 20.2432L13.3136 18.8088C12.9159 18.6766 12.4652 18.5272 12.0741 18.8092C11.6887 19.0873 11.6887 19.5741 11.6887 19.7341V22.9601C11.6887 23.3025 11.9662 23.58 12.3086 23.58H13.0465L11.9147 27.4911C11.8196 27.8198 12.009 28.1636 12.3378 28.2587C12.6668 28.3544 13.0104 28.1644 13.1056 27.8357L14.3372 23.58H16.0993C13.9076 30.2636 15.1582 34.725 17.0804 39.24H15.9662L11.3254 34.051L12.3067 30.6609C12.402 30.3321 12.2125 29.9883 11.8837 29.8932C11.5548 29.7981 11.2111 29.9875 11.1159 30.3163L10.1773 33.559C7.27432 33.5106 4.67761 35.5121 4.01587 38.3917C3.93926 38.7253 4.14744 39.0578 4.48091 39.1345L5.36084 39.337C5.13604 41.6719 6.67365 43.8748 9.01863 44.4145C9.37474 44.4966 9.73392 44.5371 10.0906 44.5371C10.9703 44.5371 11.8345 44.2905 12.5989 43.8114C13.496 43.2492 14.1644 42.4228 14.5262 41.4461L15.2205 41.6058C15.4273 41.6537 15.6235 41.6779 15.8196 41.5724C16.002 41.4742 16.1232 41.2969 16.1687 41.0968C16.2123 40.8939 16.2455 40.6877 16.2686 40.4796H29.2321C29.6467 43.0571 31.8397 45 34.4588 45C37.0779 45 39.271 43.0571 39.6855 40.4796H40.1586C40.1586 40.4796 40.2525 40.4807 40.2739 40.4807C40.4511 40.4807 40.7072 40.461 40.9174 40.2472C41.0226 40.1401 41.1461 39.9486 41.1366 39.6444C41.1192 39.0624 41.0318 38.5 40.8827 37.9654C41.3764 34.968 40.9014 33.1425 40.1972 31.7138C40.6424 31.422 40.9376 30.9192 40.9376 30.3479V28.6444H44.0684C45.3067 28.6444 46.3141 27.6364 46.3141 26.3974V19.1456C46.3143 17.9067 45.3069 16.8988 44.0686 16.8988ZM11.9406 42.7611C11.1472 43.2584 10.2083 43.4165 9.29689 43.2067H9.29681C7.61928 42.8206 6.5001 41.2823 6.58167 39.619L13.3051 41.1664C13.0269 41.8214 12.5563 42.3754 11.9406 42.7611ZM15.0421 40.2929L5.40034 38.0742C6.14439 36.0366 8.14672 34.6879 10.3354 34.8039L15.0587 40.085C15.0545 40.1547 15.0491 40.2239 15.0421 40.2929ZM24.4046 29.4916C24.2247 29.9661 24.2247 30.5512 24.2247 31.361V33.7H21.955V30.4911C21.955 26.8631 23.935 26.2166 24.8236 26.1099H30.9004C30.876 26.9333 30.6902 27.5186 30.3374 27.8901C29.9264 28.323 29.223 28.5339 28.1869 28.5349L25.962 28.5372C25.1686 28.5373 24.6447 28.8582 24.4046 29.4916ZM24.2247 34.9396V36.4196C24.2191 36.4196 24.2133 36.4196 24.2073 36.4196H19.8046C19.8541 35.9606 19.997 35.6054 20.2318 35.3596C20.5811 34.9942 21.073 34.9396 21.3351 34.9396H24.2247ZM30.8731 24.8703H25.2361C25.0097 24.158 24.8079 23.378 24.6419 22.5763L26.3558 21.4639C27.2913 20.8564 27.778 19.9979 27.6911 19.1086C27.614 18.3202 27.0781 17.616 26.3257 17.3146C25.6386 17.0394 24.899 17.1259 24.2453 17.5438C24.2992 16.9509 24.3995 16.4216 24.5447 15.9724C24.8089 15.9451 25.0713 15.8935 25.329 15.8177C25.8535 15.6959 26.3382 15.5017 26.7758 15.2443C27.9697 15.9575 30.5953 18.2709 30.8731 24.8703ZM20.1144 9.74309C20.4067 7.76258 22.0771 6.23976 24.0877 6.23976C26.3036 6.23976 28.1064 8.08944 28.1064 10.3629C28.1064 12.212 27.2197 13.7024 25.79 14.3582V11.0968C25.79 10.5321 25.5739 9.83937 24.5446 9.74565C24.5259 9.74391 24.5072 9.74309 24.4884 9.74309H20.1144ZM21.0507 11.6971C21.0507 11.4524 21.0785 11.2135 21.1333 10.9828H24.458C24.4962 10.9869 24.5242 10.9914 24.5442 10.9954C24.5474 11.0184 24.5502 11.0514 24.5502 11.0968V14.723C24.4025 14.7447 24.2539 14.7557 24.1054 14.7558C24.104 14.7558 24.1026 14.7558 24.1013 14.7558C22.419 14.7542 21.0507 13.3827 21.0507 11.6971ZM20.2471 21.2773L21.7152 21.1585C21.8461 21.148 21.9701 21.0962 22.0697 21.0107L24.7193 18.7317L24.7197 18.7313C24.9759 18.5106 25.2494 18.3974 25.5157 18.3974C25.6342 18.3974 25.7513 18.4198 25.8648 18.4653C26.1923 18.5964 26.4249 18.8963 26.4574 19.229C26.4983 19.6478 26.2225 20.0722 25.6809 20.424L22.7284 22.3404H20.2473V21.2773H20.2471ZM17.6276 21.4892L19.0075 21.3776V22.3405H17.4041C17.1962 22.3405 17.1455 22.1678 17.1396 22.0229C17.1362 21.9408 17.144 21.5289 17.6276 21.4892ZM16.1606 21.0613C15.9739 21.3674 15.8867 21.7255 15.901 22.0737C15.9047 22.1638 15.9162 22.2507 15.9322 22.3353C15.9322 22.337 15.9312 22.3388 15.9316 22.3404H12.9286V19.9873L16.163 21.0565C16.162 21.0581 16.1615 21.0597 16.1606 21.0613ZM17.4075 23.5801H22.9118C23.0315 23.5801 23.1488 23.5454 23.2492 23.4802L23.5298 23.298C23.6648 23.8946 23.8185 24.4751 23.9859 25.0233C22.7218 25.3965 20.7152 26.6024 20.7152 30.491V33.7622C20.2803 33.8499 19.7659 34.0527 19.3356 34.5031C18.8819 34.9778 18.6228 35.621 18.5607 36.4195H17.3102C16.0502 32.7883 15.5711 28.9241 17.4075 23.5801ZM18.4292 39.2379C18.2001 38.711 17.9793 38.1862 17.7713 37.6593H24.2072C25.0414 37.6593 25.4643 37.2795 25.4643 36.5307V34.3198V31.9807H30.3568C30.6992 31.9807 30.9766 31.7033 30.9766 31.3609C30.9766 31.0185 30.6992 30.7411 30.3568 30.7411H25.4687C25.4767 30.389 25.4992 30.1011 25.5638 29.931C25.5951 29.8483 25.6222 29.7768 25.9626 29.7768L28.1881 29.7745C29.5819 29.7732 30.579 29.436 31.2364 28.7436C31.2669 28.7116 31.2956 28.6779 31.3245 28.6444H35.2671H39.6982V30.348C39.6982 30.5611 39.5186 30.7411 39.306 30.7411H33.1353C32.7929 30.7411 32.5155 31.0185 32.5155 31.3609C32.5155 31.7033 32.7929 31.9807 33.1353 31.9807H38.9418C39.4317 32.8901 39.8724 34.0216 39.8462 35.8093C38.6199 34.1059 36.6347 33.0106 34.3816 33.0106C32.5722 33.0106 30.8743 33.7203 29.6007 35.0092C28.4705 36.1528 27.7917 37.637 27.652 39.24L18.4292 39.2379ZM34.4589 43.7605C32.5212 43.7605 30.8869 42.3644 30.4916 40.4798H38.4262C38.0307 42.3642 36.3965 43.7605 34.4589 43.7605ZM39.1303 39.2401H29.7876H28.8971C29.2014 36.4374 31.5449 34.2503 34.3816 34.2503C36.8721 34.2503 38.9636 35.8925 39.6563 38.1914C39.6585 38.1987 39.6607 38.206 39.6632 38.2132C39.7611 38.543 39.8303 38.8863 39.8677 39.2401H39.1303ZM45.0746 26.3975C45.0746 26.9529 44.6233 27.4048 44.0686 27.4048H35.8869V24.2038H45.0746V26.3975ZM45.0746 22.9642H35.8869V21.6459H45.0746V22.9642ZM45.0746 20.4062H35.8869V19.1457C35.8869 18.5903 36.3382 18.1384 36.8929 18.1384H44.0686C44.6233 18.1384 45.0746 18.5903 45.0746 19.1457V20.4062Z" fill="#2855AF"/>
</mask>
<g mask="url(#mask0)">
<path d="M32.7747 13.9984H52.2393L49.7004 27.1159H32.3516L32.7747 13.9984Z" fill="#7CCCDB"/>
<path d="M14.5527 4.68921H32.7749C32.7749 4.68921 32.3568 9.12522 29.8123 12.3058C26.4272 16.5372 23.8883 16.9604 20.08 14.4215C15.9891 11.6942 14.5527 4.68921 14.5527 4.68921Z" fill="#7CCCDB"/>
</g>
</svg>
