<svg width="373" height="392" viewBox="0 0 373 392" fill="none" xmlns="http://www.w3.org/2000/svg">
<path d="M295.391 330.305C295.391 330.305 267.401 281.21 273.89 268.7C280.379 256.19 296.822 278.69 296.822 278.69C296.822 278.69 282.485 232.925 290.378 212.99C298.271 193.055 311.879 212.99 312.59 227.129C313.301 241.268 309.701 265.397 309.701 265.397C309.701 265.397 315.434 215.474 329.051 230.45C342.668 245.426 311.852 295.358 311.852 295.358C311.852 295.358 332.633 283.703 331.913 298.679C331.193 313.655 306.83 326.975 306.83 326.975" fill="#7CCCDB"/>
<path d="M295.624 321.151C295.624 321.151 269.758 297.023 282.359 286.205C294.959 275.387 301.601 297.851 301.601 297.851C301.601 297.851 287.668 228.785 310.223 226.292C332.777 223.799 316.19 286.205 316.19 286.205C316.19 286.205 335.423 259.573 334.1 281.209C332.777 302.845 304.301 321.151 304.301 321.151" stroke="#2855AF" stroke-miterlimit="10"/>
<path d="M308.333 316.759L290.855 297.814" stroke="#2855AF" stroke-miterlimit="10"/>
<path d="M304.688 318.218L309.431 262.85" stroke="#2855AF" stroke-miterlimit="10"/>
<path d="M303.969 314.203L319.629 293.449" stroke="#2855AF" stroke-miterlimit="10"/>
<path d="M326.623 310.344H278.266L283.099 367.377H321.781L326.623 310.344Z" fill="#2855AF"/>
<path d="M15.4016 367.377H0.101562" stroke="#2855AF" stroke-miterlimit="10"/>
<path d="M372.702 367.377H33.4023" stroke="#2855AF" stroke-miterlimit="10"/>
<path d="M222.852 392.001C252.924 392.001 277.302 387.367 277.302 381.651C277.302 375.935 252.924 371.301 222.852 371.301C192.78 371.301 168.402 375.935 168.402 381.651C168.402 387.367 192.78 392.001 222.852 392.001Z" fill="#7CCCDB"/>
<path opacity="0.5" d="M222.852 392.001C252.924 392.001 277.302 387.367 277.302 381.651C277.302 375.935 252.924 371.301 222.852 371.301C192.78 371.301 168.402 375.935 168.402 381.651C168.402 387.367 192.78 392.001 222.852 392.001Z" fill="white"/>
<path d="M129.098 109.553L133.841 96.8896L137.27 104.801L129.098 109.553Z" fill="white" stroke="#2855AF" stroke-linecap="round" stroke-linejoin="round"/>
<path d="M143.02 96.7101C139.902 93.2439 137.095 89.5095 134.632 85.5501C131.473 80.2761 129.097 77.9001 126.19 77.9001C123.283 77.9001 118.81 78.6921 115.39 77.9001C111.97 77.1081 102.988 69.4582 102.988 73.9401C102.988 78.4221 107.209 80.0062 109.585 80.2402C111.89 80.6634 114.154 81.2837 116.353 82.0941C114.898 83.8821 113.144 85.4046 111.169 86.5941C108.001 88.4391 101.143 87.3861 103.78 89.7621C106.417 92.1381 111.43 95.8281 114.58 95.8281C117.73 95.8281 128.035 91.6071 128.035 91.6071L135.154 105.062L143.02 96.7101Z" fill="white" stroke="#2855AF" stroke-linecap="round" stroke-linejoin="round"/>
<path d="M134.634 85.5502C133.651 83.8346 132.515 82.211 131.241 80.6992C130.341 90.3382 124.797 92.7592 124.797 92.7592L124.878 92.8492C126.678 92.1562 128.046 91.6162 128.046 91.6162L129.756 94.8562C132.56 92.8683 134.516 89.9007 135.237 86.5402L134.634 85.5502Z" fill="#7CCCDB" stroke="#2855AF" stroke-linecap="round" stroke-linejoin="round"/>
<path d="M105.627 89.843C105.627 89.843 107.832 83.183 107.175 80.744C106.518 78.305 104.475 80.159 103.809 82.31C103.143 84.461 101.937 88.268 102.135 89.78C102.333 91.292 103.494 93.461 105.627 89.843Z" fill="white" stroke="#2855AF" stroke-linecap="round" stroke-linejoin="round"/>
<path d="M102.757 94.3973C104.048 94.6463 105.381 94.5563 106.627 94.1363C108.895 93.4523 111.019 93.9293 111.568 92.3363C112.117 90.7433 111.379 89.0333 109.363 89.4023C107.347 89.7713 103.144 90.5813 102.289 91.0943C101.434 91.6073 101.371 92.9663 102.757 94.3973Z" fill="white" stroke="#2855AF" stroke-linecap="round" stroke-linejoin="round"/>
<path d="M104.609 91.8141C104.609 91.8141 105.05 84.8121 103.799 82.6161C102.548 80.4201 101.054 82.7331 100.937 84.9831C100.82 87.2331 100.631 91.2201 101.216 92.6421C101.801 94.0641 103.457 95.9002 104.609 91.8141Z" fill="white" stroke="#2855AF" stroke-linecap="round" stroke-linejoin="round"/>
<path d="M119.07 90.8511C119.07 90.8511 123.57 82.2651 126.153 81.1761C126.803 80.9105 127.51 80.8139 128.207 80.8951C128.905 80.9764 129.57 81.233 130.142 81.641C130.713 82.0489 131.172 82.5949 131.476 83.2281C131.779 83.8613 131.917 84.5611 131.877 85.2621C131.88 86.7461 131.476 88.2024 130.708 89.4722C129.94 90.7419 128.837 91.7762 127.521 92.4621C125.334 93.4161 120.573 95.0541 120.573 95.0541L119.07 90.8511Z" fill="white" stroke="#2855AF" stroke-linecap="round" stroke-linejoin="round"/>
<path d="M108.271 96.323C109.671 96.2143 111.02 95.7462 112.186 94.964C114.337 93.614 116.686 93.506 116.785 91.733C116.884 89.96 115.66 88.376 113.68 89.33C111.7 90.284 107.596 92.309 106.858 93.083C106.12 93.857 106.435 95.234 108.271 96.323Z" fill="#7CCCDB" stroke="#2855AF" stroke-linecap="round" stroke-linejoin="round"/>
<path d="M109.452 93.1284C109.452 93.1284 107.922 85.7754 106.014 83.8674C104.106 81.9594 103.215 84.7674 103.737 87.1164C104.259 89.4654 105.186 93.6414 106.185 94.9464C107.184 96.2514 109.407 97.6284 109.452 93.1284Z" fill="white" stroke="#2855AF" stroke-linecap="round" stroke-linejoin="round"/>
<path d="M114.166 98.2035C115.558 97.9956 116.872 97.4313 117.982 96.5655C120.025 95.0715 122.338 94.7655 122.338 93.0285C122.338 91.2915 120.979 89.7615 119.071 90.8505C117.163 91.9395 113.212 94.2525 112.537 95.0715C111.862 95.8905 112.258 97.2495 114.166 98.2035Z" fill="#7CCCDB" stroke="#2855AF" stroke-linecap="round" stroke-linejoin="round"/>
<path d="M115.12 94.9373C115.12 94.9373 113.077 87.7373 111.034 85.9373C108.991 84.1373 108.334 87.0263 108.991 89.3393C109.648 91.6523 110.899 95.7473 111.988 96.9713C113.077 98.1953 115.39 99.4283 115.12 94.9373Z" fill="white" stroke="#2855AF" stroke-linecap="round" stroke-linejoin="round"/>
<path d="M112.179 76.415C112.413 77.1616 112.441 77.9578 112.26 78.719C112.137 79.2422 111.819 79.6985 111.37 79.9947C110.922 80.2908 110.377 80.4043 109.848 80.312C112.057 80.7436 114.229 81.3454 116.346 82.112C117.633 81.464 117.309 79.412 116.967 78.125C116.434 78.0783 115.905 77.9971 115.383 77.882C114.257 77.5293 113.181 77.0365 112.179 76.415Z" fill="#7CCCDB" stroke="#2855AF" stroke-linecap="round" stroke-linejoin="round"/>
<path d="M193.988 252.041C193.988 252.041 192.827 262.508 194.285 271.229C195.743 279.95 197.768 305.249 199.226 315.716C200.435 325.166 200.823 334.702 200.387 344.219C200.099 352.319 197.192 361.373 193.115 366.026C189.038 370.679 183.521 375.926 184.115 378.239C184.709 380.552 198.938 379.688 205.049 378.527C211.16 377.366 214.949 375.035 215.849 372.128C216.749 369.221 217.307 361.085 217.307 358.169C217.307 355.253 215.561 350.321 214.4 347.999C213.239 345.677 212.654 339.854 213.239 333.167C213.824 326.48 218.468 309.326 219.053 293.036C219.638 276.746 214.4 264.839 214.103 262.22C213.806 259.601 214.103 252.626 214.103 252.626L193.988 252.041Z" fill="white" stroke="#2855AF" stroke-linecap="round" stroke-linejoin="round"/>
<path d="M213.186 333.167C213.762 326.48 218.415 309.326 219 293.036C219.585 276.746 214.347 264.839 214.05 262.22C213.753 259.601 214.05 252.626 214.05 252.626L210.792 252.5C210.036 256.361 208.551 266.369 211.233 275.54C214.635 287.195 212.889 304.061 211.44 315.689C209.991 327.317 209.406 339.242 210.27 340.115C210.756 340.601 211.845 340.808 212.97 339.602C212.922 337.455 212.994 335.306 213.186 333.167V333.167Z" fill="#7CCCDB" stroke="#2855AF" stroke-linecap="round" stroke-linejoin="round"/>
<path d="M214.372 263.643L205.039 264.84L206.2 272.103L216.37 270.582C215.578 267.522 214.804 265.164 214.372 263.643Z" fill="white" stroke="#2855AF" stroke-linecap="round" stroke-linejoin="round"/>
<path d="M202.184 286.04C206.199 285.943 209.309 279.879 209.131 272.494C208.954 265.11 205.554 259.203 201.539 259.299C197.524 259.396 194.414 265.461 194.592 272.845C194.77 280.229 198.169 286.136 202.184 286.04Z" fill="white" stroke="#2855AF" stroke-linecap="round" stroke-linejoin="round"/>
<path d="M216.418 373.802C217.192 371.201 217.129 362.741 217.237 359.258C217.142 359.266 217.05 359.293 216.967 359.339C214.636 360.5 209.407 361.661 207.661 365.729C205.915 369.797 205.042 376.205 200.389 377.654C196.789 378.788 187.789 378.158 184.072 377.816C184.049 377.956 184.049 378.099 184.072 378.239C184.648 380.561 199.012 380.183 205.006 378.527C213.349 376.223 215.545 376.7 216.418 373.802Z" fill="#7CCCDB" stroke="#2855AF" stroke-linecap="round" stroke-linejoin="round"/>
<path d="M213.349 344.247C212.984 341.563 212.867 338.852 212.998 336.146C209.064 337.824 204.697 338.203 200.533 337.227C200.533 339.657 200.47 341.988 200.389 344.184C200.389 344.445 200.389 344.706 200.344 344.967C204.241 346.101 209.641 345.255 213.349 344.247Z" fill="#2855AF" stroke="#2855AF" stroke-linecap="round" stroke-linejoin="round"/>
<path d="M214.347 347.999C213.827 346.806 213.49 345.54 213.348 344.246C213.348 344.246 203.583 348.872 205.914 352.346C207.534 354.785 212.268 351.563 214.977 349.385C214.761 348.872 214.545 348.395 214.347 347.999Z" fill="#7CCCDB" stroke="#2855AF" stroke-linecap="round" stroke-linejoin="round"/>
<path d="M197.769 361.084L196.374 360.904C195.523 362.75 194.427 364.472 193.116 366.025L192.36 366.88C192.36 366.988 192.288 367.078 192.243 367.186C190.506 372.127 190.506 372.424 193.413 372.127C196.32 371.83 201.261 368.644 201.261 364.864C201.297 364.383 201.233 363.899 201.074 363.444C200.915 362.988 200.664 362.57 200.337 362.215C200.009 361.861 199.612 361.577 199.17 361.383C198.729 361.188 198.252 361.087 197.769 361.084V361.084Z" fill="#7CCCDB" stroke="#2855AF" stroke-linecap="round" stroke-linejoin="round"/>
<path d="M207.364 254.948C207.364 254.948 206.203 261.347 212.602 280.832C219.001 300.317 232.96 340.439 234.697 347.702C236.434 354.965 238.189 376.205 244.597 383.18C251.005 390.155 255.064 390.155 255.937 382.28C256.81 374.405 255.352 367.16 249.25 352.58C246.424 345.857 242.563 335.417 241.69 329.603C240.817 323.789 241.393 293.837 238.486 283.703C235.579 273.569 230.926 268.871 228.316 263.057C226.87 259.969 225.701 256.758 224.824 253.463L207.364 254.948Z" fill="white" stroke="#2855AF" stroke-linecap="round" stroke-linejoin="round"/>
<path d="M228.306 263.092C226.86 260.004 225.692 256.793 224.814 253.498L221.664 253.759C222.915 259.159 225.975 271.075 230.34 279.373C236.154 290.425 237.603 308.74 239.646 319.207C240.063 321.427 240.64 323.614 241.374 325.75C240.897 315.58 240.969 292.45 238.476 283.738C235.569 273.559 230.916 268.906 228.306 263.092Z" fill="#7CCCDB" stroke="#2855AF" stroke-linecap="round" stroke-linejoin="round"/>
<path d="M228.306 263.092C228.281 263.049 228.26 263.004 228.243 262.957L220.746 266.287L226.263 275.593L233.418 271.993C231.519 268.744 229.647 266.071 228.306 263.092Z" fill="#2855AF" stroke="#2855AF" stroke-linecap="round" stroke-linejoin="round"/>
<path d="M223.312 286.858C227.603 285.508 229.148 278.268 226.764 270.686C224.379 263.104 218.967 258.052 214.676 259.402C210.385 260.752 208.839 267.992 211.224 275.574C213.609 283.155 219.021 288.207 223.312 286.858Z" fill="white" stroke="#2855AF" stroke-linecap="round" stroke-linejoin="round"/>
<path d="M232.176 339.304C232.914 341.608 233.535 343.588 233.976 345.136C236.901 345.973 241.41 346.441 245.253 343.336C244.56 341.32 243.921 339.277 243.381 337.324C240.789 338.35 236.181 339.853 232.176 339.304Z" fill="#2855AF" stroke="#2855AF" stroke-linecap="round" stroke-linejoin="round"/>
<path d="M251.356 367.97C251.032 367.06 250.413 366.284 249.598 365.766C248.783 365.247 247.818 365.016 246.856 365.108C245.056 365.279 242.851 365.846 241.672 367.475C239.341 370.679 242.572 377.375 247.774 378.527C252.274 379.526 253.336 373.685 251.356 367.97Z" fill="#7CCCDB" stroke="#2855AF" stroke-linecap="round" stroke-linejoin="round"/>
<path d="M249.24 352.652C248.088 349.952 246.774 346.577 245.559 343.184L245.262 343.301C245.262 343.301 245.46 351.194 247.782 354.101C248.754 355.316 249.519 355.307 250.086 354.704C249.807 354.029 249.537 353.354 249.24 352.652Z" fill="#7CCCDB" stroke="#2855AF" stroke-linecap="round" stroke-linejoin="round"/>
<path d="M237.028 358.754C239.35 358.754 238.477 354.101 236.443 349.754C235.882 348.484 235.162 347.289 234.301 346.199C234.463 346.793 234.607 347.315 234.697 347.711C235.282 350.15 235.876 354.164 236.632 358.682C236.759 358.728 236.893 358.752 237.028 358.754V358.754Z" fill="#7CCCDB" stroke="#2855AF" stroke-linecap="round" stroke-linejoin="round"/>
<path d="M182.389 166.712C182.389 166.712 177.457 174.812 177.457 195.899C177.457 216.986 186.25 252.878 186.25 252.878C193.403 256.142 200.976 258.393 208.75 259.565C217.42 260.762 226.233 260.406 234.778 258.512C234.778 258.512 248.494 221.612 251.302 201.533C254.11 181.454 250.249 170.933 250.249 170.933L186.943 161.033L182.389 166.712Z" fill="#2855AF" stroke="white" stroke-linecap="round" stroke-linejoin="round"/>
<path d="M210.08 70.7715C210.08 70.7715 186.338 78.4215 185.546 80.0055C184.754 81.5895 165.233 115.699 165.233 115.699L142.454 95.8995L129.098 109.597C129.098 109.597 160.22 140.458 162.866 141.52C165.512 142.582 165.503 143.887 166.817 142.834C168.131 141.781 189.767 123.034 189.767 123.034C189.767 123.034 194.267 134.644 193.988 138.595C193.709 142.546 178.688 168.673 178.688 168.673C178.688 168.673 184.232 179.221 190.298 183.442C196.364 187.663 201.377 191.092 201.377 191.092L206.912 177.593L210.611 191.84C210.611 191.84 217.73 191.308 230.654 187.879C243.578 184.45 253.901 176.297 253.901 176.297L241.76 138.307L254.693 113.242L282.125 142.267C282.125 142.267 294.41 140.656 301.727 138.568C305.687 137.434 291.881 120.892 286.877 114.034C281.873 107.176 271.811 87.3945 268.121 82.3995C264.431 77.4045 233.3 68.4225 233.3 68.4225C233.3 68.4225 215.093 67.0995 210.08 70.7715Z" fill="#2855AF" stroke="white" stroke-linecap="round" stroke-linejoin="round"/>
<path d="M228.845 113.792C231.992 113.792 234.542 111.322 234.542 108.275C234.542 105.228 231.992 102.758 228.845 102.758C225.699 102.758 223.148 105.228 223.148 108.275C223.148 111.322 225.699 113.792 228.845 113.792Z" fill="#7CCCDB"/>
<path d="M189.766 123.008C188.446 119.096 187.736 115.004 187.66 110.876C187.66 104.576 191.611 92.4082 191.611 92.4082" stroke="white" stroke-linecap="round" stroke-linejoin="round"/>
<path d="M246.271 105.863L254.668 113.243L245.578 110.003" stroke="white" stroke-linecap="round" stroke-linejoin="round"/>
<path d="M264.549 82.4004C264.549 82.4004 256.62 81.0234 251.445 92.7504" stroke="white" stroke-linecap="round" stroke-linejoin="round"/>
<path d="M165.234 115.655L167.601 118.976" stroke="white" stroke-linecap="round" stroke-linejoin="round"/>
<path d="M187.301 179.006L201.413 191.066L206.948 177.566L210.647 191.813C210.647 191.813 229.052 191.039 249.41 178.961" stroke="white" stroke-linecap="round" stroke-linejoin="round"/>
<path d="M213.815 64.2559C213.815 64.2559 210.863 64.4179 208.415 69.3409C205.967 74.2639 203.168 85.7569 199.55 89.6989C195.932 93.6409 197.093 93.8029 199.064 93.2989C201.035 92.7949 206.777 89.0329 206.777 89.0329C206.777 89.0329 207.101 97.7269 208.253 101.831C209.405 105.935 208.415 116.933 209.396 121.199C209.882 122.967 210.213 124.774 210.386 126.599C210.386 126.599 215.966 109.697 218.918 104.603C221.87 99.5089 227.441 90.4999 227.441 90.4999L238.925 96.7999C238.925 96.7999 238.763 86.1349 238.43 80.5999C238.097 75.0649 242.03 68.4499 237.611 64.6789C233.192 60.9079 213.815 64.2559 213.815 64.2559Z" fill="white" stroke="#2855AF" stroke-linecap="round" stroke-linejoin="round"/>
<path d="M212.502 54.5715C212.502 54.5715 212.178 62.4555 212.502 71.3115C212.826 80.1675 212.34 106.276 212.34 106.276C212.34 106.276 232.689 71.4825 234.498 68.8545L235.479 52.7715C235.479 52.7715 221.502 59.9895 212.502 54.5715Z" fill="white" stroke="#2855AF" stroke-linecap="round" stroke-linejoin="round"/>
<path d="M212.5 54.5723C212.5 54.5723 212.248 60.6563 212.41 68.1353C214.461 70.5322 217.217 72.2204 220.285 72.9593C225.091 74.1653 229.591 72.7073 233.353 70.6643C233.902 69.7643 234.307 69.1253 234.496 68.8643L235.477 52.7812C235.477 52.7812 221.5 59.9903 212.5 54.5723Z" fill="#7CCCDB" stroke="#2855AF" stroke-linecap="round" stroke-linejoin="round"/>
<path d="M235.476 52.7715C235.476 52.7715 221.526 59.9715 212.499 54.5715C212.499 54.5715 212.382 57.4515 212.355 61.6725C214.776 64.0305 219.861 68.7195 222.102 68.7195C224.343 68.7195 231.102 63.9495 234.963 61.1415L235.476 52.7715Z" fill="#2855AF" stroke="#2855AF" stroke-linecap="round" stroke-linejoin="round"/>
<path d="M206.56 28.922C205.978 29.1842 205.426 29.507 204.913 29.885C203.716 29.948 202.888 32.963 203.068 36.626C203.248 40.289 204.373 43.2141 205.57 43.1511C206.118 43.48 206.7 43.7486 207.307 43.952C208.666 43.889 209.602 40.4691 209.395 36.3201C209.188 32.171 207.919 28.85 206.56 28.922Z" fill="white" stroke="#2855AF" stroke-linecap="round" stroke-linejoin="round"/>
<path d="M219.702 5.24339C216.769 5.6432 213.975 6.74551 211.559 8.45659C209.143 10.1677 207.176 12.4369 205.824 15.0714C202.296 21.9744 204.861 26.0514 204.861 31.4514C204.861 36.8514 207.561 51.1074 208.524 52.6464C209.487 54.1854 217.389 64.2114 221.439 64.7874C225.489 65.3634 236.082 55.9224 237.819 53.0334C239.556 50.1444 241.302 38.5794 242.049 31.6404C242.796 24.7014 242.238 12.9474 237.81 9.28439C233.382 5.62139 225.669 4.46939 219.702 5.24339Z" fill="white" stroke="#2855AF" stroke-linecap="round" stroke-linejoin="round"/>
<path d="M239.088 34.367H235.542C235.542 34.367 235.938 31.865 232.113 29.759C230.142 28.67 228.036 29.921 226.452 31.397C225.653 32.1452 225.01 33.0442 224.561 34.042C224.111 35.0399 223.864 36.117 223.833 37.211L223.14 45.185C223.133 45.39 223.085 45.5916 222.998 45.7774C222.911 45.9632 222.787 46.1293 222.634 46.2657C222.48 46.4021 222.301 46.5059 222.106 46.5707C221.912 46.6356 221.706 46.6602 221.502 46.643V46.643C221.142 46.6116 220.806 46.4529 220.554 46.1954C220.301 45.938 220.149 45.5988 220.125 45.239C219.909 41.873 219.54 31.64 216.687 30.02C211.809 27.248 209.298 33.449 209.298 33.449H207.102" stroke="#2855AF" stroke-linecap="round" stroke-linejoin="round"/>
<path d="M232.042 38.192C232.211 37.8603 232.3 37.4935 232.303 37.121C232.303 36.4479 232.035 35.8023 231.559 35.3264C231.083 34.8504 230.438 34.583 229.765 34.583C229.091 34.583 228.446 34.8504 227.97 35.3264C227.494 35.8023 227.227 36.4479 227.227 37.121C227.229 37.4935 227.318 37.8603 227.488 38.192H232.042Z" fill="#2855AF" stroke="#2855AF" stroke-linecap="round" stroke-linejoin="round"/>
<path d="M217.135 38.192C217.305 37.8603 217.394 37.4935 217.396 37.121C217.396 36.4479 217.129 35.8023 216.653 35.3264C216.177 34.8504 215.531 34.583 214.858 34.583C214.185 34.583 213.54 34.8504 213.064 35.3264C212.588 35.8023 212.32 36.4479 212.32 37.121C212.322 37.4935 212.412 37.8603 212.581 38.192H217.135Z" fill="#2855AF" stroke="#2855AF" stroke-linecap="round" stroke-linejoin="round"/>
<path d="M226.568 51.9171C224.858 53.2311 223.139 53.1051 220.367 52.9701C217.595 52.8351 216.938 51.5211 216.938 51.5211L220.106 50.6211L221.429 52.0701L222.743 50.8821L226.568 51.9171Z" fill="#7CCCDB" stroke="#2855AF" stroke-linecap="round" stroke-linejoin="round"/>
<path d="M217.902 52.5742C218.525 53.8784 219.604 54.9094 220.935 55.4722C223.041 56.2642 225.021 52.9702 225.021 52.9702C225.021 52.9702 220.242 53.2312 217.902 52.5742Z" fill="#7CCCDB" stroke="#2855AF" stroke-linecap="round" stroke-linejoin="round"/>
<path d="M219.703 5.24296C216.815 5.6436 214.061 6.71972 211.666 8.38396C211.455 10.2711 211.455 12.1759 211.666 14.063C212.197 17.753 215.491 22.892 215.491 22.892H228.811C231.328 20.1197 233.219 16.8385 234.355 13.271C235.129 10.886 235.678 9.22096 236.065 8.06896C231.538 5.37796 224.95 4.55896 219.703 5.24296Z" fill="#7CCCDB" stroke="#2855AF" stroke-linecap="round" stroke-linejoin="round"/>
<path d="M237.511 22.7655C237.511 24.0795 240.022 31.3335 240.022 33.9795C240.022 36.6255 238.303 42.4125 236.197 43.9965C234.091 45.5805 233.425 47.0295 233.164 49.6755C232.966 51.6015 233.056 55.8585 233.164 58.0005C234.921 56.5394 236.496 54.8713 237.853 53.0325C239.59 50.1435 241.318 38.5785 242.092 31.6395C242.605 27.0225 242.515 20.2635 241.084 15.1875C239.842 17.3835 237.511 21.7845 237.511 22.7655Z" fill="#7CCCDB" stroke="#2855AF" stroke-linecap="round" stroke-linejoin="round"/>
<path d="M242.866 41.9808C244.097 38.4859 244.319 34.7148 243.505 31.0998L243.577 29.9209L242.677 29.3988C242.586 29.2713 242.469 29.1639 242.335 29.0833C242.2 29.0028 242.05 28.9509 241.894 28.9308C240.535 28.8588 239.239 32.1528 238.996 36.3018C238.753 40.4509 239.662 43.8889 241.021 43.9609C241.177 43.9596 241.331 43.9262 241.474 43.8627C241.616 43.7992 241.744 43.707 241.849 43.5919L242.749 43.1779L242.866 41.9808Z" fill="white" stroke="#2855AF" stroke-linecap="round" stroke-linejoin="round"/>
<path d="M245.362 36.6527C245.146 40.3157 244.003 43.2317 242.797 43.1597C241.591 43.0877 240.808 40.0637 240.997 36.4007C241.186 32.7377 242.356 29.8307 243.562 29.9027C244.768 29.9747 245.569 32.9987 245.362 36.6527Z" fill="white" stroke="#2855AF" stroke-linecap="round" stroke-linejoin="round"/>
<path d="M210.702 45.5003C208.596 42.8543 207.543 39.2993 207.102 35.4743C206.661 31.6493 207.759 22.8113 207.759 22.4153C207.759 22.0193 206.094 17.8433 205.347 15.9443C202.431 22.3523 204.771 26.3213 204.771 31.4963C204.771 36.8963 207.471 51.1523 208.434 52.6913C209.548 54.2843 210.75 55.8137 212.034 57.2723C211.899 52.3313 212.502 47.6063 210.702 45.5003Z" fill="#7CCCDB" stroke="#2855AF" stroke-linecap="round" stroke-linejoin="round"/>
<path d="M227.495 62.3655C225.821 60.5656 222.887 57.5416 221.528 57.1996C220.169 56.8576 217.595 60.0076 216.434 61.6996C218.234 63.3555 220.034 64.6335 221.429 64.8225C222.824 65.0115 225.101 63.9315 227.495 62.3655Z" fill="#7CCCDB" stroke="#2855AF" stroke-linecap="round" stroke-linejoin="round"/>
<path d="M255.502 153.338C255.502 153.338 244.495 143.213 242.731 142.772C240.967 142.331 231.031 147.326 231.031 148.64C231.031 149.954 233.227 149.819 235.432 149.234C237.637 148.649 241.885 147.029 241.885 147.029C241.885 147.029 246.583 157.892 248.05 159.629C249.517 161.366 250.543 163.886 253.45 163.004C255.113 162.545 256.663 161.749 258.004 160.664L255.502 153.338Z" fill="white" stroke="#2855AF" stroke-linecap="round" stroke-linejoin="round"/>
<path d="M243.91 150.404C245.056 151.472 246.28 152.453 247.573 153.338C248.311 153.635 249.778 153.338 248.752 150.26C247.726 147.182 245.377 145.418 244.342 145.265C243.307 145.112 242.587 149.378 243.91 150.404Z" fill="#7CCCDB" stroke="#2855AF" stroke-linecap="round" stroke-linejoin="round"/>
<path d="M243.03 144.5C243.03 144.5 233.634 150.08 233.337 151.979C233.04 153.878 235.506 153.149 237.594 152.573C240.24 151.835 244.641 150.773 245.226 148.316C245.811 145.859 245.667 144.095 243.03 144.5Z" fill="white" stroke="#2855AF" stroke-linecap="round" stroke-linejoin="round"/>
<path d="M245.224 153.779C246.372 154.849 247.6 155.83 248.896 156.713C249.625 157.01 251.101 156.713 250.066 153.635C249.031 150.557 246.691 148.793 245.665 148.64C244.639 148.487 243.91 152.753 245.224 153.779Z" fill="#7CCCDB" stroke="#2855AF" stroke-linecap="round" stroke-linejoin="round"/>
<path d="M244.344 147.911C244.344 147.911 235.002 153.5 234.66 155.399C234.318 157.298 236.829 156.56 238.917 155.984C241.563 155.246 245.964 154.184 246.549 151.727C247.134 149.27 246.99 147.47 244.344 147.911Z" fill="white" stroke="#2855AF" stroke-linecap="round" stroke-linejoin="round"/>
<path d="M246.133 156.794C247.142 157.73 248.219 158.591 249.355 159.368C250.003 159.629 251.29 159.368 250.381 156.668C249.472 153.968 247.42 152.42 246.52 152.294C245.62 152.168 244.972 155.894 246.133 156.794Z" fill="#7CCCDB" stroke="#2855AF" stroke-linecap="round" stroke-linejoin="round"/>
<path d="M245.359 151.637C245.359 151.637 237.115 156.533 236.854 158.207C236.593 159.881 238.762 159.233 240.598 158.72C242.911 158.081 246.781 157.181 247.294 154.985C247.807 152.789 247.681 151.25 245.359 151.637Z" fill="white" stroke="#2855AF" stroke-linecap="round" stroke-linejoin="round"/>
<path d="M279.352 129.803C279.352 129.803 264.16 147.011 262.045 148.595C259.752 150.133 257.375 151.542 254.926 152.816L258.4 164.948C258.4 164.948 280 154.4 288.739 148.856C297.478 143.312 303.769 140.153 303.508 137.516C303.247 134.879 294.013 125.906 294.013 125.906" fill="#2855AF"/>
<path d="M279.352 129.803C279.352 129.803 264.16 147.011 262.045 148.595C259.752 150.133 257.375 151.542 254.926 152.816L258.4 164.948C258.4 164.948 280 154.4 288.739 148.856C297.478 143.312 303.769 140.153 303.508 137.516C303.247 134.879 294.013 125.906 294.013 125.906" stroke="white" stroke-linecap="round" stroke-linejoin="round"/>
<path d="M274.906 134.501L281.8 126.221" stroke="white" stroke-linecap="round" stroke-linejoin="round"/>
<path d="M226.632 81.9412C220.701 83.4802 216.687 89.5192 216.687 89.5192C215.587 86.1445 214.224 82.8614 212.61 79.7002C212.61 90.8692 212.34 106.304 212.34 106.304C212.34 106.304 220.242 92.7682 226.632 81.9412Z" fill="#7CCCDB" stroke="#2855AF" stroke-linecap="round" stroke-linejoin="round"/>
</svg>
