<svg width="35" height="35" viewBox="0 0 35 35" fill="none" xmlns="http://www.w3.org/2000/svg">
<path d="M20.8517 19.9331C23.4885 18.082 24.1254 14.4439 22.2743 11.8071C20.4232 9.17039 16.7851 8.53339 14.1483 10.3845C11.5116 12.2357 10.8746 15.8738 12.7257 18.5105C13.1139 19.0635 13.5953 19.5449 14.1483 19.9331C11.0335 20.4685 8.7554 23.167 8.75 26.3275V34.4166C8.74993 34.7387 9.01097 34.9999 9.33304 34.9999C9.33311 34.9999 9.33326 34.9999 9.33333 34.9999H25.6667C25.9887 35 26.2499 34.739 26.25 34.4169C26.25 34.4168 26.25 34.4167 26.25 34.4166V26.3274C26.2445 23.167 23.9665 20.4685 20.8517 19.9331ZM12.8333 15.1666C12.8333 12.5893 14.9227 10.4999 17.5 10.4999C20.0773 10.4999 22.1667 12.5893 22.1667 15.1666C22.1667 17.7439 20.0773 19.8333 17.5 19.8333C14.9239 19.8304 12.8362 17.7427 12.8333 15.1666ZM25.0833 33.8333H9.91667V26.3274C9.91995 23.3865 12.3032 21.0032 15.2442 20.9999H19.7559C22.6968 21.0032 25.0801 23.3865 25.0833 26.3274V33.8333Z" fill="#3C65B7"/>
<path d="M18.0827 3.5H16.916V5.83333H18.0827V3.5Z" fill="#7CCCDB"/>
<path d="M24.3296 4.93665L22.6797 6.58655L23.5046 7.4115L25.1545 5.7616L24.3296 4.93665Z" fill="#7CCCDB"/>
<path d="M32.0833 33.8333H29.75V35H32.0833V33.8333Z" fill="#7CCCDB"/>
<path d="M32.0833 28H29.75V29.1667H32.0833V28Z" fill="#7CCCDB"/>
<path d="M32.0833 22.1667H29.75V23.3333H32.0833V22.1667Z" fill="#7CCCDB"/>
<path d="M31.2583 15.9929L29.0449 16.7312L29.4141 17.8379L31.6275 17.0996L31.2583 15.9929Z" fill="#7CCCDB"/>
<path d="M29.4439 9.94364L27.2305 10.6819L27.5996 11.7886L29.813 11.0504L29.4439 9.94364Z" fill="#7CCCDB"/>
<path d="M10.6708 4.93789L9.8457 5.76273L11.4954 7.41287L12.3204 6.58803L10.6708 4.93789Z" fill="#7CCCDB"/>
<path d="M5.24935 33.8333H2.91602V35H5.24935V33.8333Z" fill="#7CCCDB"/>
<path d="M5.24935 28H2.91602V29.1667H5.24935V28Z" fill="#7CCCDB"/>
<path d="M5.24935 22.1667H2.91602V23.3333H5.24935V22.1667Z" fill="#7CCCDB"/>
<path d="M3.74378 15.9936L3.375 17.1004L5.58863 17.838L5.95741 16.7312L3.74378 15.9936Z" fill="#7CCCDB"/>
<path d="M5.55456 9.9479L5.18555 11.0547L7.39918 11.7928L7.7682 10.6859L5.55456 9.9479Z" fill="#7CCCDB"/>
<path d="M34.416 2.33333C33.4499 2.33231 32.667 1.54941 32.666 0.583333C32.666 0.261187 32.4048 0 32.0827 0C31.7605 0 31.4993 0.261187 31.4993 0.583333C31.4983 1.54941 30.7154 2.33231 29.7493 2.33333C29.4272 2.33333 29.166 2.59452 29.166 2.91667C29.166 3.23881 29.4272 3.5 29.7493 3.5C30.7154 3.50102 31.4983 4.28393 31.4993 5.25C31.4993 5.57215 31.7605 5.83333 32.0827 5.83333C32.4048 5.83333 32.666 5.57215 32.666 5.25C32.667 4.28393 33.4499 3.50102 34.416 3.5C34.7382 3.5 34.9993 3.23881 34.9993 2.91667C34.9993 2.59452 34.7382 2.33333 34.416 2.33333ZM32.0827 3.50168C31.9162 3.28008 31.7193 3.08314 31.4977 2.91667C31.7193 2.7502 31.9162 2.55325 32.0827 2.33166C32.2492 2.55325 32.4461 2.7502 32.6677 2.91667C32.4461 3.08314 32.2492 3.28008 32.0827 3.50168Z" fill="#7CCCDB"/>
<path d="M5.25 2.33333C4.28393 2.33231 3.50102 1.54941 3.5 0.583333C3.5 0.261187 3.23881 0 2.91667 0C2.59452 0 2.33333 0.261187 2.33333 0.583333C2.33231 1.54941 1.54941 2.33231 0.583333 2.33333C0.261187 2.33333 0 2.59452 0 2.91667C0 3.23881 0.261187 3.5 0.583333 3.5C1.54941 3.50102 2.33231 4.28393 2.33333 5.25C2.33333 5.57215 2.59452 5.83333 2.91667 5.83333C3.23881 5.83333 3.5 5.57215 3.5 5.25C3.50102 4.28393 4.28393 3.50102 5.25 3.5C5.57215 3.5 5.83333 3.23881 5.83333 2.91667C5.83333 2.59452 5.57215 2.33333 5.25 2.33333ZM2.91667 3.50168C2.7502 3.28008 2.55325 3.08314 2.33166 2.91667C2.55325 2.7502 2.7502 2.55325 2.91667 2.33166C3.08314 2.55325 3.28008 2.7502 3.50168 2.91667C3.28008 3.08314 3.08314 3.28008 2.91667 3.50168Z" fill="#7CCCDB"/>
</svg>
