<svg width="35" height="35" viewBox="0 0 35 35" fill="none" xmlns="http://www.w3.org/2000/svg">
<g opacity="0.9" clip-path="url(#clip0)">
<path d="M34.7987 24.3266L33.1301 22.6716C32.8619 22.4056 32.4291 22.4074 32.1632 22.6755C31.8972 22.9436 31.899 23.3766 32.1671 23.6425L33.8356 25.2975C33.9689 25.4297 34.1431 25.4958 34.3171 25.4958C34.493 25.4958 34.6689 25.4283 34.8025 25.2935C35.0686 25.0254 35.0668 24.5925 34.7987 24.3266Z" fill="#89D1DF"/>
<path d="M31.4298 20.9781C31.1628 20.711 30.73 20.711 30.4628 20.9781L30.4617 20.9792C30.1947 21.2462 30.1953 21.6786 30.4623 21.9456C30.5956 22.079 30.7705 22.1456 30.9454 22.1456C31.1206 22.1456 31.2961 22.0787 31.4297 21.9451C31.6967 21.6781 31.6967 21.2451 31.4298 20.9781Z" fill="#89D1DF"/>
<path d="M25.6001 24.131L32.2329 17.4983C33.2375 16.4936 33.2375 14.859 32.2328 13.8544C32.1569 13.7785 32.0774 13.7084 31.9948 13.644C31.5398 13.289 31.2293 12.6581 31.2293 12.081C31.2293 11.3927 30.9612 10.7457 30.4746 10.2591C29.8851 9.66945 29.3507 8.7811 29.1089 7.98306C28.9902 7.59122 28.7763 7.22231 28.467 6.91307C28.2831 6.72916 28.078 6.57909 27.8595 6.46271C27.4772 6.259 27.214 5.82223 27.214 5.389C27.214 4.70076 26.9459 4.05374 26.4594 3.56716C25.9727 3.08057 25.3257 2.81254 24.6375 2.81254C24.2337 2.81254 23.8442 2.90511 23.4928 3.07979C23.4418 3.10515 23.3798 3.09535 23.341 3.05364C22.4836 2.13229 21.2701 1.60394 20.0116 1.60394H14.6427C14.2651 1.60394 13.959 1.91012 13.959 2.28767V3.18428C13.959 3.19831 13.959 3.21233 13.9592 3.22633C13.9644 3.61734 13.538 4.02496 13.1469 4.02496C12.4587 4.02496 11.8116 4.293 11.325 4.77958C11.0153 5.08931 10.8012 5.45889 10.6826 5.85141C10.4415 6.64947 9.90697 7.53604 9.31742 8.1255C8.83084 8.61215 8.5628 9.25917 8.5628 9.94734C8.5628 10.3797 8.29979 10.8156 7.91842 11.0194C7.69717 11.1376 7.49218 11.2891 7.30977 11.4716C6.88893 11.8924 6.6444 12.4238 6.57619 12.9732C6.48478 13.7093 6.076 14.5424 5.55143 15.0668C4.54689 16.0714 4.54689 17.706 5.55143 18.7106C6.30476 19.4639 6.30477 20.6853 5.55145 21.4386L0.200259 26.7897C-0.0667529 27.0567 -0.0667529 27.4896 0.200259 27.7567C0.333765 27.8901 0.508765 27.957 0.683696 27.957C0.858628 27.957 1.03363 27.8902 1.16713 27.7567L7.00531 21.9185C7.56146 21.3623 8.43405 21.3128 9.22055 21.3128C9.90873 21.3128 10.5557 21.0448 11.0424 20.5582C11.5447 20.0559 11.7955 19.3961 11.7954 18.7363C11.7954 18.6803 11.8413 18.6348 11.8973 18.6348C12.557 18.6347 13.217 18.3836 13.7191 17.8814C14.2057 17.3948 14.4738 16.7477 14.4738 16.0596C14.4738 16.0592 14.4738 16.0588 14.4738 16.0584C14.4737 16.003 14.5186 15.958 14.574 15.958C15.2338 15.958 15.8937 15.7069 16.3959 15.2047C16.8825 14.718 17.1505 14.071 17.1505 13.3828C17.1505 13.3824 17.1505 13.382 17.1505 13.3816C17.1505 13.3262 17.1954 13.2813 17.2508 13.2813C17.9106 13.2813 18.5704 13.0301 19.0726 12.5279C20.5941 11.0065 20.4032 7.91324 21.9246 6.39183L23.7822 4.53424C24.0106 4.30578 24.3141 4.18007 24.6371 4.18007C24.9601 4.18007 25.2637 4.30578 25.4921 4.53424C25.7205 4.76263 25.8462 5.06614 25.8462 5.38914C25.8462 5.71207 25.7205 6.01572 25.492 6.24404L24.8228 6.91321L22.3948 9.3412C22.1278 9.60821 22.1278 10.0411 22.3948 10.3082C22.5283 10.4416 22.7033 10.5085 22.8783 10.5085C23.0532 10.5085 23.2282 10.4417 23.3617 10.3082L25.7897 7.88022C26.261 7.40882 27.0281 7.40875 27.4996 7.88015C27.971 8.35163 27.971 9.11862 27.4996 9.5901L26.8303 10.2593L25.0716 12.0181C24.8046 12.2851 24.8046 12.718 25.0716 12.9851C25.2051 13.1185 25.3801 13.1854 25.555 13.1854C25.73 13.1854 25.905 13.1186 26.0385 12.9851L27.7972 11.2263C28.0256 10.9979 28.3292 10.8722 28.6521 10.8722C28.9751 10.8722 29.2787 10.9979 29.5071 11.2263C29.7355 11.4547 29.8612 11.7583 29.8612 12.0812C29.8612 12.4042 29.7355 12.7078 29.507 12.9362L28.5885 13.8547L27.7483 14.6949C27.4813 14.9619 27.4813 15.3948 27.7483 15.6619C27.8818 15.7954 28.0568 15.8622 28.2317 15.8622C28.4066 15.8622 28.5816 15.7954 28.7151 15.6619L29.556 14.8211C30.0274 14.3504 30.794 14.3505 31.2652 14.8217C31.7367 15.2931 31.7367 16.0602 31.2652 16.5316L24.6324 23.1644C22.9669 24.8299 20.7534 25.7941 18.3996 25.8796C18.2266 25.8859 18.0622 25.9576 17.94 26.0804L11.8128 32.2302C11.5463 32.4977 11.547 32.9307 11.8146 33.1972C11.948 33.3301 12.1225 33.3966 12.2971 33.3966C12.4725 33.3966 12.648 33.3295 12.7815 33.1954L15.4565 30.5105C16.5254 29.4377 18.1932 29.3486 19.6875 29.5946C20.6022 29.7452 21.524 30.0411 22.1796 30.6966L24.6753 33.1924C24.8088 33.3258 24.9838 33.3927 25.1587 33.3927C25.3337 33.3927 25.5087 33.3259 25.6422 33.1924C25.9092 32.9254 25.9092 32.4925 25.6422 32.2254L21.892 28.4748C21.75 28.3329 21.5527 28.2603 21.3526 28.2767L21.1359 28.2945C20.2986 28.3632 19.4694 28.2209 18.7151 27.8891C18.4929 27.7914 18.4526 27.5031 18.6239 27.3311C18.6872 27.2676 18.7717 27.2297 18.8611 27.223C21.4075 27.0329 23.7869 25.9443 25.6001 24.131ZM10.0755 19.5913C9.84713 19.8197 9.54348 19.9454 9.22062 19.9454C8.89762 19.9454 8.59404 19.8197 8.36572 19.5913L6.51824 17.7439C6.04683 17.2725 6.04683 16.5054 6.51824 16.0339C6.74663 15.8055 7.05028 15.6798 7.37321 15.6798C7.69614 15.6798 7.99979 15.8055 8.22811 16.0339L10.0756 17.8813C10.5469 18.3527 10.5469 19.1198 10.0755 19.5913ZM12.7524 16.9144C12.2809 17.3858 11.5137 17.3858 11.0425 16.9144L9.19499 15.0669L8.27637 14.1483C7.80497 13.6769 7.80497 12.9098 8.27637 12.4384C8.50476 12.21 8.80841 12.0843 9.13128 12.0843C9.45427 12.0843 9.75786 12.21 9.98618 12.4384L12.7522 15.2045C12.9807 15.4329 13.1064 15.7365 13.1064 16.0594C13.1064 16.3824 12.9807 16.686 12.7524 16.9144ZM15.4292 14.2376C14.9577 14.7089 14.1906 14.709 13.7192 14.2376L10.284 10.8023C10.0556 10.5739 9.92985 10.2704 9.92985 9.94741C9.92985 9.62448 10.0556 9.32083 10.284 9.09251C10.5197 8.85681 10.8294 8.73895 11.1389 8.73895C11.4483 8.73895 11.7576 8.85667 11.9933 9.09196L13.559 10.6577L15.429 12.5277C15.6573 12.7561 15.7831 13.0596 15.7831 13.3826C15.7833 13.7056 15.6575 14.0093 15.4292 14.2376ZM18.106 11.5608C17.6346 12.0322 16.8675 12.0322 16.3961 11.5608L12.9608 8.1255C12.9605 8.12515 12.9601 8.12481 12.9597 8.1244L12.2916 7.45633C11.8202 6.98485 11.8202 6.21786 12.2916 5.74638C12.5273 5.51061 12.837 5.39276 13.1466 5.39276C13.4562 5.39276 13.7658 5.51061 14.0015 5.74638L18.1058 9.85075C18.3343 10.0791 18.46 10.3827 18.46 10.7057C18.4601 11.0287 18.3344 11.3324 18.106 11.5608ZM18.7144 7.66825C18.4777 7.90496 18.0939 7.90496 17.8571 7.66824L16.8742 6.68533C16.7368 6.54792 16.8682 6.28847 17.0625 6.28841C17.0675 6.28841 17.0726 6.28841 17.0776 6.28841L18.954 6.27959C19.3315 6.27781 19.6363 5.97026 19.6345 5.59264C19.6327 5.21612 19.3269 4.91213 18.9508 4.91213C18.9497 4.91213 18.9486 4.91213 18.9475 4.91213L17.0712 4.92095C17.0683 4.92095 17.0656 4.92095 17.0627 4.92095C16.6004 4.92095 16.1656 4.7415 15.8377 4.41522C15.5078 4.08682 15.3262 3.64973 15.3262 3.18421C15.3262 3.06664 15.4215 2.97134 15.5391 2.97134H20.0114C20.8916 2.97134 21.7402 3.34082 22.3399 3.98517C22.3554 4.00184 22.3549 4.02781 22.3388 4.04391L18.7144 7.66825Z" fill="#3C65B7"/>
</g>
<defs>
<clipPath id="clip0">
<rect width="35" height="35" fill="white"/>
</clipPath>
</defs>
</svg>
