<svg width="55" height="55" viewBox="0 0 55 55" fill="none" xmlns="http://www.w3.org/2000/svg">
<path d="M27.5 13.5352C26.9071 13.5352 26.4258 14.0165 26.4258 14.6094C26.4258 15.2023 26.9071 15.6836 27.5 15.6836C28.0929 15.6836 28.5742 15.2023 28.5742 14.6094C28.5742 14.0165 28.0929 13.5352 27.5 13.5352Z" fill="#2855AF"/>
<path d="M9.66797 32.8711C10.2609 32.8711 10.7422 32.3898 10.7422 31.7969C10.7422 31.204 10.2609 30.7227 9.66797 30.7227C9.07505 30.7227 8.59375 31.204 8.59375 31.7969C8.59375 32.3898 9.07505 32.8711 9.66797 32.8711Z" fill="#2855AF"/>
<path d="M36.0938 2.79297C26.4228 2.79297 18.4854 9.46068 17.8715 17.8593C8.66131 18.3213 0 24.9626 0 33.9453C0 37.6992 1.48544 41.3364 4.18945 44.2184C4.72446 46.4239 4.0749 48.7616 2.46315 50.3733C2.15599 50.6805 2.06409 51.1425 2.23026 51.544C2.39643 51.9452 2.78793 52.207 3.22266 52.207C6.28628 52.207 9.2387 51.0057 11.4325 48.8887C13.5696 49.6172 16.3579 50.0586 18.9062 50.0586C28.5759 50.0586 36.5125 43.3926 37.1281 34.9956C39.3773 34.8957 41.7166 34.4803 43.5675 33.8496C45.7613 35.9666 48.7137 37.168 51.7773 37.168C52.2121 37.168 52.6036 36.9061 52.7697 36.505C52.9359 36.1034 52.844 35.6414 52.5368 35.3342C50.9251 33.7225 50.2755 31.3848 50.8105 29.1793C53.5146 26.2974 55 22.6601 55 18.9062C55 9.57272 45.6715 2.79297 36.0938 2.79297ZM18.9062 47.9102C16.3709 47.9102 13.4819 47.4125 11.5466 46.6425C11.132 46.4772 10.6583 46.5858 10.3566 46.9152C9.05952 48.3331 7.37309 49.3217 5.53558 49.7762C6.54812 47.8363 6.8066 45.5494 6.19061 43.3825C6.14193 43.2117 6.05171 43.0556 5.92793 42.9285C3.49079 40.4183 2.14844 37.228 2.14844 33.9453C2.14844 26.3754 9.82239 19.9805 18.9062 19.9805C27.4841 19.9805 35.0195 25.9453 35.0195 33.9453C35.0195 41.6457 27.7912 47.9102 18.9062 47.9102ZM49.0721 27.8894C48.9483 28.017 48.8581 28.1731 48.8094 28.3434C48.1934 30.5103 48.4519 32.7972 49.4644 34.7371C47.6269 34.2831 45.9405 33.2941 44.6434 31.8762C44.3417 31.5472 43.868 31.4381 43.4534 31.6034C41.7762 32.2706 39.3835 32.7326 37.1247 32.8442C36.8109 28.7819 34.7845 24.9638 31.3202 22.1289H45.332C45.9254 22.1289 46.4062 21.648 46.4062 21.0547C46.4062 20.4613 45.9254 19.9805 45.332 19.9805H28.0199C25.5815 18.7392 22.8435 18.0154 20.0254 17.8635C20.6426 10.6486 27.6137 4.94141 36.0938 4.94141C45.1776 4.94141 52.8516 11.3364 52.8516 18.9062C52.8516 22.1889 51.5092 25.3793 49.0721 27.8894Z" fill="#2855AF"/>
<path d="M27.5 30.7227H13.9648C13.3715 30.7227 12.8906 31.2035 12.8906 31.7969C12.8906 32.3902 13.3715 32.8711 13.9648 32.8711H27.5C28.0933 32.8711 28.5742 32.3902 28.5742 31.7969C28.5742 31.2035 28.0933 30.7227 27.5 30.7227Z" fill="#7CCCDB"/>
<path d="M27.5 37.168H9.66797C9.07463 37.168 8.59375 37.6488 8.59375 38.2422C8.59375 38.8355 9.07463 39.3164 9.66797 39.3164H27.5C28.0933 39.3164 28.5742 38.8355 28.5742 38.2422C28.5742 37.6488 28.0933 37.168 27.5 37.168Z" fill="#2855AF"/>
<path d="M45.332 13.5352H31.7969C31.2035 13.5352 30.7227 14.016 30.7227 14.6094C30.7227 15.2027 31.2035 15.6836 31.7969 15.6836H45.332C45.9254 15.6836 46.4062 15.2027 46.4062 14.6094C46.4062 14.016 45.9254 13.5352 45.332 13.5352Z" fill="#7CCCDB"/>
</svg>
