<svg width="35" height="35" viewBox="0 0 35 35" fill="none" xmlns="http://www.w3.org/2000/svg">
<path d="M29.929 16.3721C29.5515 16.3721 29.2454 16.6781 29.2454 17.0557V21.8193C29.2454 23.6916 28.5183 25.4538 27.1981 26.7814L24.905 29.0873C24.7777 29.2154 24.7062 29.3887 24.7062 29.5693V29.9414H14.4973V29.5694C14.4973 29.3449 14.3871 29.1348 14.2024 29.0071L13.0147 28.1859C10.9898 26.7859 9.38104 24.8612 8.36228 22.62L5.88487 17.1696C5.58894 16.5186 5.80249 15.7528 6.39264 15.3489C7.02654 14.915 7.87173 15.0357 8.35886 15.6295L11.5443 19.5123C11.8676 19.9065 12.3867 20.0503 12.8669 19.8784C13.3469 19.7067 13.6571 19.2663 13.6571 18.7564V2.80581C13.6571 2.01257 14.3024 1.36719 15.0957 1.36719C15.8891 1.36719 16.5344 2.01257 16.5344 2.80581L16.5269 15.1356C16.5269 16.6827 17.7856 17.9414 19.3327 17.9414C20.1779 17.9414 20.9364 17.5653 21.4512 16.9722C21.966 17.5653 22.7245 17.9414 23.5696 17.9414C25.1168 17.9414 26.3755 16.6827 26.3755 15.1356L26.368 6.49701C26.368 5.70377 27.0134 5.05839 27.8067 5.05839C28.6 5.05839 29.2453 5.70377 29.2453 6.49701V11.9972C29.2452 12.3748 29.5513 12.6808 29.9288 12.6808C30.3063 12.6808 30.6124 12.3748 30.6124 11.9972V6.49708C30.6124 4.94997 29.3537 3.69127 27.8066 3.69127C26.2594 3.69127 25.0007 4.94997 25.0007 6.49708V10.0448C24.5814 9.79508 24.0921 9.65104 23.5696 9.65104C22.7244 9.65104 21.9659 10.0272 21.4511 10.6202C20.9363 10.0272 20.1778 9.65104 19.3327 9.65104C18.8101 9.65104 18.3209 9.79501 17.9015 10.0448V2.80581C17.9015 1.2587 16.6428 0 15.0957 0C13.5486 0 12.2899 1.2587 12.2899 2.80581V18.2654L9.4159 14.7621C8.47562 13.6159 6.84388 13.3829 5.62045 14.2205C4.48124 15.0002 4.06904 16.4784 4.64032 17.7352L7.11773 23.1857C8.23868 25.6518 10.0091 27.7697 12.2372 29.3104L13.1301 29.9277V30.0212C12.5459 30.2212 12.1246 30.7754 12.1246 31.4265V34.3164C12.1246 34.694 12.4307 35 12.8082 35H26.4801C26.8576 35 27.1637 34.694 27.1637 34.3164V31.4266C27.1637 30.7444 26.7011 30.1685 26.0733 29.9951V29.8515L28.1675 27.7456C29.7442 26.1601 30.6126 24.0555 30.6126 21.8194V17.0557C30.6126 16.6781 30.3065 16.3721 29.929 16.3721ZM22.136 12.3585C22.1869 11.6111 22.8096 11.0182 23.5696 11.0182C24.3629 11.0182 25.0083 11.6636 25.0083 12.4569V15.1356C25.0083 15.9288 24.363 16.5742 23.5696 16.5742C22.8096 16.5742 22.1869 15.9813 22.136 15.234C22.1372 15.2013 22.1385 15.1686 22.1385 15.1356C22.1385 15.1356 22.1372 12.3912 22.136 12.3585ZM17.894 12.4569C17.894 11.6636 18.5394 11.0182 19.3327 11.0182C20.0927 11.0182 20.7154 11.6112 20.7663 12.3585C20.7651 12.3912 20.7638 15.1356 20.7638 15.1356C20.7638 15.1685 20.7651 15.2012 20.7663 15.234C20.7154 15.9813 20.0927 16.5742 19.3327 16.5742C18.5394 16.5742 17.894 15.9288 17.894 15.1356V12.4569ZM25.7965 33.6328H25.7964H13.4917V31.4266C13.4917 31.3615 13.5446 31.3086 13.6097 31.3086H25.6785C25.7435 31.3086 25.7965 31.3615 25.7965 31.4266V33.6328Z" fill="#3C65B7"/>
<path d="M18.9315 23.7634L18.8979 23.5986C18.5416 21.8546 16.991 20.5889 15.2109 20.5889C14.8335 20.5889 14.5273 20.8949 14.5273 21.2725C14.5273 21.65 14.8335 21.9561 15.2109 21.9561C16.3443 21.9561 17.3315 22.7619 17.5584 23.8724L17.5921 24.0373C17.6583 24.3609 17.9431 24.5841 18.2611 24.5841C18.3065 24.5841 18.3525 24.5795 18.3987 24.57C18.7686 24.4944 19.0071 24.1332 18.9315 23.7634Z" fill="#89D1DF"/>
<path d="M30.4129 14.0772C30.2858 13.9501 30.1095 13.877 29.9297 13.877C29.7499 13.877 29.5735 13.9501 29.4464 14.0772C29.3192 14.2044 29.2461 14.3808 29.2461 14.5605C29.2461 14.7403 29.3192 14.9167 29.4464 15.0438C29.5735 15.171 29.7499 15.2441 29.9297 15.2441C30.1094 15.2441 30.2858 15.1709 30.4129 15.0438C30.5401 14.9167 30.6133 14.7403 30.6133 14.5605C30.6133 14.3808 30.5401 14.2044 30.4129 14.0772Z" fill="#89D1DF"/>
</svg>
