<svg width="35" height="35" viewBox="0 0 35 35" fill="none" xmlns="http://www.w3.org/2000/svg">
<g clip-path="url(#clip0)">
<path d="M28.225 6.77459C30.093 6.77459 31.6121 5.25525 31.6121 3.38749C31.6121 1.51946 30.093 0.000396729 28.225 0.000396729C26.357 0.000396729 24.8379 1.51946 24.8379 3.38749C24.8379 5.25525 26.357 6.77459 28.225 6.77459ZM28.225 1.12943C29.4703 1.12943 30.4831 2.14214 30.4831 3.38749C30.4831 4.63257 29.4703 5.64556 28.225 5.64556C26.9796 5.64556 25.9669 4.63257 25.9669 3.38749C25.9669 2.14214 26.9796 1.12943 28.225 1.12943Z" fill="#3C65B7"/>
<path d="M33.8663 10.0955C33.8517 9.96897 33.7946 9.85154 33.705 9.76251L32.0115 8.06898C31.9059 7.96286 31.7618 7.90359 31.6124 7.90359H24.8382C24.6885 7.90359 24.5447 7.96286 24.4391 8.06898L22.7456 9.76251C22.6557 9.85209 22.5986 9.96952 22.584 10.0955L21.455 19.6922C21.4363 19.8526 21.4867 20.0127 21.5939 20.1329C21.7006 20.2539 21.8541 20.3228 22.0157 20.3228H24.7693L23.148 34.3706C23.1298 34.5304 23.1802 34.6906 23.2875 34.811C23.3947 34.9312 23.5482 35.0001 23.7092 35.0001H27.0963C27.3898 35.0001 27.634 34.7755 27.6591 34.4825L28.2253 27.6852L28.7915 34.483C28.8163 34.7755 29.0608 35.0001 29.3543 35.0001H32.7414C32.9021 35.0001 33.0556 34.9312 33.1631 34.8116C33.2703 34.6917 33.3205 34.531 33.3023 34.3711L31.6813 20.3228H34.4349C34.5962 20.3228 34.75 20.2539 34.8566 20.1337C34.9639 20.0133 35.014 19.8526 34.9953 19.6927L33.8663 10.0955ZM31.6124 19.1938V11.2907H30.4833V19.7583C30.4833 19.7795 30.4844 19.8016 30.4866 19.8231L32.108 33.8711H29.8736L28.7881 20.8405C28.7631 20.5475 28.5188 20.3228 28.2253 20.3228C27.9317 20.3228 27.6872 20.5475 27.6624 20.8405L26.577 33.8711H24.3426L25.9637 19.8231C25.9661 19.8016 25.9672 19.7795 25.9672 19.7583V11.2907H24.8382V19.1938H22.6507L23.6825 10.4218L25.072 9.03262H31.3786L32.7678 10.4218L33.7998 19.1938H31.6124Z" fill="#3C65B7"/>
<path d="M19.5932 17.6657L18.4642 16.5367C18.3586 16.4306 18.2145 16.3713 18.0651 16.3713H12.42C12.2703 16.3713 12.1264 16.4306 12.0208 16.5367L10.8918 17.6657C10.8127 17.7445 10.7592 17.8446 10.7377 17.954L9.60871 23.5991C9.57536 23.7651 9.61836 23.9373 9.72558 24.0677C9.83281 24.1987 9.9924 24.2745 10.1619 24.2745H12.42V24.7734L10.1765 34.3064C10.1371 34.474 10.1765 34.6506 10.2838 34.786C10.391 34.9211 10.5536 35.0002 10.7264 35.0002H13.549C13.8205 35.0002 14.0537 34.8064 14.1039 34.5393L15.2425 28.4664L16.3812 34.5393C16.4314 34.8064 16.6645 35.0002 16.9361 35.0002H19.7586C19.9312 35.0002 20.0938 34.9211 20.201 34.786C20.3082 34.6506 20.3479 34.474 20.3082 34.3064L18.0651 24.7734V24.2745H20.3231C20.4924 24.2745 20.6522 24.1987 20.7595 24.0677C20.8667 23.9373 20.9097 23.7651 20.8763 23.5991L19.7473 17.954C19.7258 17.8446 19.6721 17.7445 19.5932 17.6657ZM18.0651 23.1454V19.1939H16.9361V24.839C16.9361 24.8822 16.941 24.9258 16.9507 24.9682L19.0455 33.8711H17.4046L15.7974 25.2996C15.7472 25.0325 15.514 24.839 15.2425 24.839C14.971 24.839 14.7378 25.0325 14.6877 25.2996L13.0804 33.8711H11.4392L13.5341 24.9682C13.5438 24.9258 13.549 24.8822 13.549 24.839V19.1939H12.42V23.1454H10.8505L11.8114 18.343L12.6537 17.5003H17.8313L18.6742 18.343L19.6343 23.1454H18.0651Z" fill="#3C65B7"/>
<path d="M8.21687 24.9338L6.52334 23.8048C6.431 23.743 6.32129 23.7099 6.21021 23.7099H2.82314C2.71178 23.7099 2.60236 23.743 2.50974 23.8048L0.816208 24.9338C0.67949 25.0245 0.589907 25.1703 0.568959 25.3334L0.00444774 29.8495C-0.0159496 30.0102 0.0344925 30.1718 0.141716 30.293C0.248941 30.4146 0.403023 30.4841 0.5651 30.4841H1.9965L1.69578 34.3921C1.68392 34.5489 1.7374 34.7035 1.84435 34.8188C1.95157 34.9345 2.10152 35.0001 2.25863 35.0001H6.77472C6.93156 35.0001 7.08178 34.9345 7.18901 34.8193C7.29568 34.7035 7.34998 34.5489 7.33758 34.3926L7.03658 30.4841H8.46825C8.63033 30.4841 8.78441 30.4146 8.89163 30.293C8.99886 30.1718 9.04847 30.0102 9.02863 29.8495L8.46412 25.3334C8.44344 25.1703 8.35303 25.0245 8.21687 24.9338ZM6.9503 29.355L6.77307 27.0534L5.64735 27.1397L6.165 33.8711H5.08119V30.4841H3.95216V33.8711H2.86835L3.386 27.1403L2.26029 27.054L2.08305 29.355H1.20458L1.65801 25.7295L2.99404 24.839H6.03959L7.37589 25.7295L7.82849 29.355H6.9503Z" fill="#3C65B7"/>
<path d="M12.4199 12.4196C12.4199 13.9759 13.6859 15.2422 15.2425 15.2422C16.7988 15.2422 18.0651 13.9759 18.0651 12.4196C18.0651 10.8631 16.7988 9.59705 15.2425 9.59705C13.6859 9.59705 12.4199 10.8631 12.4199 12.4196ZM16.9361 12.4196C16.9361 13.3532 16.1761 14.1132 15.2425 14.1132C14.3086 14.1132 13.549 13.3532 13.549 12.4196C13.549 11.4857 14.3086 10.7261 15.2425 10.7261C16.1761 10.7261 16.9361 11.4857 16.9361 12.4196Z" fill="#3C65B7"/>
<path d="M2.25781 20.3229C2.25781 21.568 3.27052 22.5809 4.51588 22.5809C5.76123 22.5809 6.77394 21.568 6.77394 20.3229C6.77394 19.0775 5.76123 18.0648 4.51588 18.0648C3.27052 18.0648 2.25781 19.0775 2.25781 20.3229ZM5.64491 20.3229C5.64491 20.9456 5.13855 21.4519 4.51588 21.4519C3.8932 21.4519 3.38684 20.9456 3.38684 20.3229C3.38684 19.7002 3.8932 19.1939 4.51588 19.1939C5.13855 19.1939 5.64491 19.7002 5.64491 20.3229Z" fill="#3C65B7"/>
<path d="M13.948 4.11736C13.7272 3.89657 13.3705 3.89657 13.1498 4.11736L0.166016 17.1011L0.964269 17.8994L13.5489 5.31446L14.8433 6.60914C15.0048 6.77039 15.2468 6.81835 15.4585 6.73153C15.6691 6.64415 15.8069 6.43797 15.8069 6.21002V0.564907C15.8069 0.253159 15.5539 0.000396729 15.2424 0.000396729H9.59731C9.36908 0.000396729 9.16318 0.137941 9.07553 0.34853C8.98815 0.55967 9.03666 0.802509 9.19819 0.964034L10.4926 2.25844L0.166016 12.585L0.964269 13.3833L11.69 2.65757C11.9105 2.43678 11.9105 2.07983 11.69 1.85931L10.9601 1.12942H14.6779V4.84725L13.948 4.11736Z" fill="#7CCCDB"/>
</g>
<defs>
<clipPath id="clip0">
<rect width="35" height="35" fill="white"/>
</clipPath>
</defs>
</svg>
