<svg width="35" height="35" viewBox="0 0 35 35" fill="none" xmlns="http://www.w3.org/2000/svg">
<g opacity="0.9">
<path d="M17.5 0C7.83504 0 0 7.83504 0 17.5C0 27.165 7.83504 35 17.5 35C27.165 35 35 27.165 35 17.5C34.9891 7.83956 27.1604 0.0109375 17.5 0ZM17.5 33.8333C8.47933 33.8333 1.16667 26.5207 1.16667 17.5C1.16667 8.47933 8.47933 1.16667 17.5 1.16667C26.5207 1.16667 33.8333 8.47933 33.8333 17.5C33.8231 26.5164 26.5164 33.8231 17.5 33.8333Z" fill="#3C65B7"/>
<path d="M17.5007 2.33337C9.12435 2.33337 2.33398 9.12374 2.33398 17.5C2.33398 25.8763 9.12435 32.6667 17.5007 32.6667C25.877 32.6667 32.6673 25.8763 32.6673 17.5C32.658 9.1276 25.8731 2.34271 17.5007 2.33337ZM17.5007 31.5C9.76864 31.5 3.50065 25.232 3.50065 17.5C3.50065 9.76803 9.76864 3.50004 17.5007 3.50004C25.2327 3.50004 31.5007 9.76803 31.5007 17.5C31.4917 25.2283 25.2289 31.4911 17.5007 31.5Z" fill="#5074BE"/>
<path d="M5.83398 16.9166H4.66732C4.34515 16.9166 4.08398 17.1778 4.08398 17.4999C4.08398 17.8221 4.34515 18.0833 4.66732 18.0833H5.83398C6.15615 18.0833 6.41732 17.8221 6.41732 17.4999C6.41732 17.1778 6.15615 16.9166 5.83398 16.9166Z" fill="#5074BE"/>
<path d="M30.334 16.9166H29.1673C28.8452 16.9166 28.584 17.1778 28.584 17.4999C28.584 17.8221 28.8452 18.0833 29.1673 18.0833H30.334C30.6562 18.0833 30.9173 17.8221 30.9173 17.4999C30.9173 17.1778 30.6562 16.9166 30.334 16.9166Z" fill="#5074BE"/>
<path d="M7.10356 22.8294L6.09312 23.4126C5.81409 23.5737 5.71845 23.9305 5.8795 24.2095C6.04055 24.4885 6.3973 24.5841 6.67633 24.4231L7.68678 23.8399C7.96581 23.6788 8.06145 23.3221 7.9004 23.043C7.73935 22.764 7.38259 22.6684 7.10356 22.8294Z" fill="#5074BE"/>
<path d="M28.3223 10.5781L27.3119 11.1614C27.0328 11.3224 26.9372 11.6792 27.0982 11.9582C27.2593 12.2372 27.6161 12.3329 27.8951 12.1718L28.9055 11.5886C29.1846 11.4275 29.2802 11.0708 29.1191 10.7918C28.9581 10.5127 28.6013 10.4171 28.3223 10.5781Z" fill="#5074BE"/>
<path d="M7.68874 11.1613L6.67829 10.578C6.39926 10.417 6.0425 10.5126 5.88145 10.7917C5.7204 11.0707 5.81604 11.4274 6.09507 11.5885L7.10552 12.1717C7.38455 12.3328 7.7413 12.2371 7.90235 11.9581C8.0634 11.6791 7.96776 11.3223 7.68874 11.1613Z" fill="#5074BE"/>
<path d="M28.9075 23.4086L27.897 22.8254C27.618 22.6644 27.2613 22.76 27.1002 23.039C26.9392 23.3181 27.0348 23.6748 27.3138 23.8359L28.3243 24.4191C28.6033 24.5801 28.9601 24.4845 29.1211 24.2055C29.2822 23.9264 29.1865 23.5697 28.9075 23.4086Z" fill="#5074BE"/>
<path d="M12.1704 7.1047L11.5872 6.09425C11.4262 5.81522 11.0694 5.71958 10.7904 5.88063C10.5114 6.04168 10.4157 6.39844 10.5768 6.67747L11.16 7.68792C11.321 7.96694 11.6778 8.06258 11.9568 7.90153C12.2358 7.74048 12.3315 7.38373 12.1704 7.1047Z" fill="#5074BE"/>
<path d="M18.0827 5.83325V4.66658C18.0827 4.34442 17.8215 4.08325 17.4993 4.08325C17.1772 4.08325 16.916 4.34442 16.916 4.66658V5.83325C16.916 6.15542 17.1772 6.41659 17.4993 6.41659C17.8215 6.41659 18.0827 6.15542 18.0827 5.83325Z" fill="#5074BE"/>
<path d="M23.4119 6.0933L22.8287 7.10375C22.6677 7.38278 22.7633 7.73954 23.0423 7.90059C23.3214 8.06164 23.6781 7.966 23.8392 7.68697L24.4224 6.67652C24.5834 6.39749 24.4878 6.04074 24.2088 5.87969C23.9297 5.71863 23.573 5.81427 23.4119 6.0933Z" fill="#5074BE"/>
<path d="M5.81749 13.7655L5.25405 13.6146C4.94287 13.5312 4.62301 13.7159 4.53964 14.027C4.45626 14.3382 4.64093 14.6581 4.95211 14.7415L5.51556 14.8924C5.82673 14.9758 6.14659 14.7911 6.22996 14.4799C6.31334 14.1688 6.12867 13.8489 5.81749 13.7655Z" fill="#5074BE"/>
<path d="M30.0421 20.2567L29.4787 20.1058C29.1675 20.0224 28.8476 20.2071 28.7642 20.5183C28.6809 20.8294 28.8655 21.1493 29.1767 21.2327L29.7402 21.3836C30.0513 21.467 30.3712 21.2823 30.4546 20.9712C30.538 20.66 30.3533 20.3401 30.0421 20.2567Z" fill="#5074BE"/>
<path d="M9.24951 8.42526L8.83703 8.01279C8.60923 7.78498 8.23989 7.78498 8.01208 8.01279C7.78428 8.24059 7.78428 8.60993 8.01208 8.83774L8.42456 9.25021C8.65236 9.47802 9.02171 9.47802 9.24951 9.25021C9.47731 9.02241 9.47731 8.65307 9.24951 8.42526Z" fill="#5074BE"/>
<path d="M14.8898 5.51703L14.7388 4.95359C14.6554 4.64241 14.3356 4.45773 14.0244 4.54111C13.7132 4.62449 13.5285 4.94434 13.6119 5.25552L13.7629 5.81896C13.8462 6.13014 14.1661 6.31481 14.4773 6.23144C14.7885 6.14806 14.9731 5.82821 14.8898 5.51703Z" fill="#5074BE"/>
<path d="M20.257 4.95637L20.106 5.51981C20.0227 5.83099 20.2073 6.15084 20.5185 6.23422C20.8297 6.3176 21.1496 6.13292 21.2329 5.82174L21.3839 5.2583C21.4673 4.94712 21.2826 4.62727 20.9714 4.54389C20.6602 4.46052 20.3404 4.64519 20.257 4.95637Z" fill="#5074BE"/>
<path d="M26.1628 8.01447L25.7504 8.42694C25.5226 8.65475 25.5226 9.02409 25.7504 9.25189C25.9782 9.4797 26.3475 9.4797 26.5753 9.25189L26.9878 8.83942C27.2156 8.61161 27.2156 8.24227 26.9878 8.01447C26.76 7.78666 26.3906 7.78666 26.1628 8.01447Z" fill="#5074BE"/>
<path d="M29.748 13.6148L29.1845 13.7658C28.8734 13.8492 28.6887 14.169 28.7721 14.4802C28.8554 14.7914 29.1753 14.9761 29.4865 14.8927L30.0499 14.7417C30.3611 14.6584 30.5458 14.3385 30.4624 14.0273C30.379 13.7161 30.0592 13.5315 29.748 13.6148Z" fill="#5074BE"/>
<path d="M5.51556 20.1069L4.95211 20.2579C4.64093 20.3413 4.45626 20.6611 4.53964 20.9723C4.62302 21.2835 4.94287 21.4681 5.25404 21.3848L5.81749 21.2338C6.12867 21.1504 6.31334 20.8306 6.22996 20.5194C6.14659 20.2082 5.82674 20.0235 5.51556 20.1069Z" fill="#5074BE"/>
<path d="M19.9743 7.90163C14.6705 6.53554 9.26363 9.72754 7.89747 15.0312C7.25026 17.5439 7.6136 20.2103 8.9097 22.4581C9.07915 22.7321 9.43871 22.8168 9.71265 22.6473C9.97501 22.485 10.0656 22.1464 9.91945 21.8748C7.50605 17.6881 8.94367 12.3377 13.1304 9.92427C17.3171 7.51087 22.6675 8.94849 25.0809 13.1352C26.2243 15.1188 26.5447 17.4714 25.9734 19.6885C25.8929 20.0006 26.0807 20.319 26.3928 20.3995C26.7047 20.48 27.0228 20.2926 27.1037 19.981C27.1039 19.9804 27.1039 19.9798 27.1039 19.9793C27.1039 19.9787 27.104 19.9781 27.1042 19.9775C28.4697 14.6741 25.2777 9.26772 19.9743 7.90163Z" fill="#7CCCDB"/>
<path d="M26.0357 21.715L19.619 16.465C19.5849 16.4442 19.555 16.4163 19.5359 16.3812C18.9341 15.2776 17.5587 14.8486 16.4332 15.4248C15.2892 16.0104 14.8365 17.4124 15.4221 18.5564C15.6873 19.0743 16.1319 19.466 16.6598 19.6686C17.1049 19.8394 17.5877 19.9006 18.0366 20.061L25.4681 22.7154C25.5316 22.7385 25.5988 22.7502 25.6664 22.7499C25.9885 22.7498 26.2497 22.4886 26.2497 22.1664C26.2496 21.9915 26.1711 21.8258 26.0357 21.715ZM17.4997 18.6665C16.8554 18.6665 16.3331 18.1442 16.3331 17.4999C16.3331 16.8555 16.8554 16.3332 17.4997 16.3332C18.1441 16.3332 18.6664 16.8555 18.6664 17.4999C18.6664 18.1442 18.1441 18.6665 17.4997 18.6665ZM19.7235 19.4247C19.434 19.3214 19.3527 18.9394 19.5075 18.6739C19.6586 18.4146 20.0167 18.2976 20.2491 18.4875L20.3843 18.5979C20.8323 18.9639 20.43 19.6766 19.8852 19.4823L19.7235 19.4247Z" fill="#7CCCDB"/>
<path d="M19.8333 23.3333H15.1667C13.5559 23.3333 12.25 24.6391 12.25 26.25C12.25 27.8608 13.5559 29.1666 15.1667 29.1666H19.8333C21.4441 29.1666 22.75 27.8608 22.75 26.25C22.75 24.6391 21.4441 23.3333 19.8333 23.3333ZM19.8333 28H15.1667C14.2002 28 13.4167 27.2165 13.4167 26.25C13.4167 25.2834 14.2002 24.5 15.1667 24.5H19.8333C20.7998 24.5 21.5833 25.2834 21.5833 26.25C21.5833 27.2165 20.7998 28 19.8333 28Z" fill="#7CCCDB"/>
<path d="M16.334 25.6666H15.1673C14.8452 25.6666 14.584 25.9278 14.584 26.2499C14.584 26.572 14.8452 26.8332 15.1673 26.8332H16.334C16.6561 26.8332 16.9173 26.572 16.9173 26.2499C16.9173 25.9278 16.6561 25.6666 16.334 25.6666Z" fill="#5074BE"/>
<path d="M19.834 25.6666H18.6673C18.3452 25.6666 18.084 25.9278 18.084 26.2499C18.084 26.572 18.3452 26.8332 18.6673 26.8332H19.834C20.1561 26.8332 20.4173 26.572 20.4173 26.2499C20.4173 25.9278 20.1561 25.6666 19.834 25.6666Z" fill="#5074BE"/>
</g>
</svg>
