<svg width="35" height="35" viewBox="0 0 35 35" fill="none" xmlns="http://www.w3.org/2000/svg">
<path d="M34.7997 6.42004L28.579 0.200225C28.4508 0.0720508 28.277 0 28.0957 0H7.79297C6.66217 0 5.74219 0.91998 5.74219 2.05078V3.35398C2.38403 4.67127 0 7.94439 0 11.764C0 12.1415 0.306113 12.4476 0.683594 12.4476H9.02966C9.40714 12.4476 9.71325 12.1415 9.71325 11.764V3.41797C9.71325 3.04049 9.40714 2.73438 9.02966 2.73438C8.37081 2.73438 7.72851 2.80595 7.10938 2.94062V2.05078C7.10938 1.67385 7.41604 1.36719 7.79297 1.36719H27.4121V5.53711C27.4121 6.66791 28.3321 7.58789 29.4629 7.58789H33.6328V32.9492C33.6328 33.3262 33.3262 33.6328 32.9492 33.6328H7.79297C7.41604 33.6328 7.10938 33.3262 7.10938 32.9492V27.0931C7.10938 26.7156 6.80326 26.4095 6.42578 26.4095C6.0483 26.4095 5.74219 26.7156 5.74219 27.0931V32.9492C5.74219 34.08 6.66217 35 7.79297 35H32.9492C34.08 35 35 34.08 35 32.9492V6.90341C35 6.72212 34.9279 6.54821 34.7997 6.42004ZM8.346 4.13185V11.0804H1.3974C1.72423 7.39942 4.66505 4.45867 8.346 4.13185ZM29.4629 6.2207C29.086 6.2207 28.7793 5.91404 28.7793 5.53711V2.33379L32.6668 6.2207H29.4629Z" fill="#3C65B7"/>
<path d="M6.90901 24.1261C6.78193 23.9989 6.60557 23.9258 6.42578 23.9258C6.246 23.9258 6.06963 23.9989 5.94248 24.1261C5.81533 24.2532 5.74219 24.4296 5.74219 24.6094C5.74219 24.7892 5.81526 24.9655 5.94248 25.0926C6.06963 25.2198 6.246 25.293 6.42578 25.293C6.60557 25.293 6.78193 25.2198 6.90901 25.0926C7.03623 24.9655 7.10938 24.7892 7.10938 24.6094C7.10938 24.4296 7.03623 24.2532 6.90901 24.1261Z" fill="#7CCCDB"/>
<path d="M11.4788 5.18311C11.1013 5.18311 10.7952 5.48922 10.7952 5.8667V13.5291H3.13281C2.75533 13.5291 2.44922 13.8352 2.44922 14.2127C2.44922 19.1916 6.49985 23.2424 11.4788 23.2424C16.4578 23.2424 20.5085 19.1916 20.5085 14.2127C20.5085 9.23374 16.4578 5.18311 11.4788 5.18311ZM12.1624 6.58058C13.7627 6.72263 15.2229 7.35905 16.3895 8.33536L12.1624 12.5624V6.58058ZM11.4788 21.8752C7.48409 21.8752 4.19348 18.8025 3.84669 14.8963H11.4788C11.6675 14.8963 11.8382 14.8199 11.962 14.6963C11.962 14.6962 11.9621 14.6962 11.9622 14.6961L17.3564 9.30196C18.4701 10.6327 19.1413 12.3458 19.1413 14.2127C19.1413 18.4378 15.7039 21.8752 11.4788 21.8752Z" fill="#7CCCDB"/>
<path d="M29.947 21.5745C28.8162 21.5745 27.8962 22.4945 27.8962 23.6253C27.8962 23.9087 27.9541 24.1788 28.0585 24.4246L24.1201 28.363C23.8494 28.2311 23.5457 28.1569 23.2249 28.1569C22.9118 28.1569 22.6149 28.2277 22.3492 28.3537L19.7339 25.7384C19.8246 25.5071 19.8749 25.2556 19.8749 24.9924C19.8749 23.8616 18.9549 22.9416 17.8241 22.9416C16.6933 22.9416 15.7733 23.8616 15.7733 24.9924C15.7733 25.2988 15.8413 25.5895 15.9623 25.8508L13.4539 28.3593C13.1867 28.2314 12.8877 28.1597 12.5723 28.1597C11.4415 28.1597 10.5215 29.0797 10.5215 30.2105C10.5215 31.3413 11.4415 32.2613 12.5723 32.2613C13.7031 32.2613 14.623 31.3413 14.623 30.2105C14.623 29.8935 14.5507 29.5931 14.4218 29.325L16.9162 26.8305C17.1901 26.9664 17.4983 27.0432 17.8242 27.0432C18.1924 27.0432 18.5378 26.9452 18.8367 26.7748L21.3783 29.3163C21.2475 29.586 21.1741 29.8884 21.1741 30.2077C21.1741 31.3385 22.0941 32.2585 23.2249 32.2585C24.3557 32.2585 25.2757 31.3385 25.2757 30.2077C25.2757 29.8961 25.2056 29.6007 25.0807 29.336L28.9823 25.4344C29.27 25.5884 29.5985 25.6761 29.947 25.6761C31.0778 25.6761 31.9978 24.7561 31.9978 23.6253C31.9978 22.4945 31.0778 21.5745 29.947 21.5745ZM12.5722 30.8942C12.1953 30.8942 11.8886 30.5875 11.8886 30.2106C11.8886 29.8336 12.1953 29.527 12.5722 29.527C12.7557 29.527 12.9222 29.6 13.0451 29.7182C13.0478 29.721 13.0502 29.7241 13.053 29.7269C13.0563 29.7302 13.0599 29.7329 13.0632 29.7361C13.1822 29.8591 13.2558 30.0263 13.2558 30.2106C13.2558 30.5874 12.9491 30.8942 12.5722 30.8942ZM17.8241 25.676C17.4472 25.676 17.1405 25.3694 17.1405 24.9924C17.1405 24.6155 17.4472 24.3088 17.8241 24.3088C18.201 24.3088 18.5077 24.6155 18.5077 24.9924C18.5077 25.3694 18.201 25.676 17.8241 25.676ZM23.2248 30.8913C22.8478 30.8913 22.5412 30.5846 22.5412 30.2077C22.5412 29.8308 22.8478 29.5241 23.2248 29.5241C23.6017 29.5241 23.9084 29.8308 23.9084 30.2077C23.9084 30.5846 23.6017 30.8913 23.2248 30.8913ZM29.9469 24.3088C29.57 24.3088 29.2633 24.0022 29.2633 23.6252C29.2633 23.2483 29.57 22.9416 29.9469 22.9416C30.3238 22.9416 30.6305 23.2483 30.6305 23.6252C30.6305 24.0022 30.3238 24.3088 29.9469 24.3088Z" fill="#3C65B7"/>
<path d="M26.5298 16.0645H22.9219C22.5444 16.0645 22.2383 16.3706 22.2383 16.748C22.2383 17.1255 22.5443 17.4316 22.9219 17.4316H26.5298C26.9073 17.4316 27.2134 17.1255 27.2134 16.748C27.2134 16.3706 26.9073 16.0645 26.5298 16.0645Z" fill="#7CCCDB"/>
<path d="M30.1258 16.2647C29.9987 16.1376 29.8224 16.0645 29.6426 16.0645C29.4628 16.0645 29.2864 16.1375 29.1593 16.2647C29.0321 16.3919 28.959 16.5683 28.959 16.748C28.959 16.9278 29.0321 17.1042 29.1593 17.2313C29.2864 17.3584 29.4621 17.4316 29.6426 17.4316C29.8224 17.4316 29.9987 17.3585 30.1258 17.2313C30.253 17.1042 30.3262 16.9278 30.3262 16.748C30.3262 16.5683 30.253 16.3919 30.1258 16.2647Z" fill="#7CCCDB"/>
<path d="M31.2722 9.50195H22.9219C22.5444 9.50195 22.2383 9.80807 22.2383 10.1855C22.2383 10.563 22.5443 10.8691 22.9219 10.8691H31.2722C31.6497 10.8691 31.9558 10.563 31.9558 10.1855C31.9558 9.80807 31.6497 9.50195 31.2722 9.50195Z" fill="#7CCCDB"/>
<path d="M31.2722 12.7832H22.9219C22.5444 12.7832 22.2383 13.0893 22.2383 13.4668C22.2383 13.8443 22.5443 14.1504 22.9219 14.1504H31.2722C31.6497 14.1504 31.9558 13.8443 31.9558 13.4668C31.9558 13.0893 31.6497 12.7832 31.2722 12.7832Z" fill="#7CCCDB"/>
</svg>
