<svg width="303" height="290" viewBox="0 0 303 290" fill="none" xmlns="http://www.w3.org/2000/svg">
<path d="M18.409 182.574C18.409 182.574 12.2489 185.254 19.7589 198.294C27.2689 211.334 32.3389 217.724 32.3389 217.724C32.3389 217.724 33.7089 220.724 31.1189 221.384C28.5289 222.044 22.719 221.384 21.719 224.634C20.719 227.884 23.2489 231.024 28.2789 233.524C33.3089 236.024 44.1289 241.904 45.1089 242.444C46.0889 242.984 47.1089 244.364 45.3689 245.064C43.6289 245.764 30.779 247.784 32.099 253.844C33.419 259.904 48.579 264.554 50.229 265.104C51.879 265.654 52.299 266.304 52.229 267.194C52.159 268.084 47.7489 268.364 44.1089 269.084C40.4689 269.804 36.369 271.284 37.419 274.714C38.469 278.144 47.659 285.004 69.169 286.004L79.169 285.824L84.169 277.114C93.739 257.824 92.219 246.464 89.729 243.874C87.239 241.284 83.9589 244.144 81.5589 246.984C79.1589 249.824 76.789 253.524 75.969 253.164C75.149 252.804 74.7689 252.114 75.0889 250.414C75.4089 248.714 78.7089 233.204 74.0889 229.104C69.4689 225.004 61.409 235.294 59.979 236.434C58.549 237.574 57.7989 236.024 57.8089 234.924C57.8189 233.824 57.929 221.504 58.189 215.924C58.449 210.344 57.0689 206.604 53.6089 205.864C50.1489 205.124 47.999 210.534 46.199 212.504C44.399 214.474 42.409 211.794 42.409 211.794C42.409 211.794 39.289 204.254 31.539 191.354C23.789 178.454 18.3389 182.674 18.3389 182.674" fill="#9EB3DC"/>
<path d="M79.7911 288.173C74.1311 278.673 64.3711 261.623 55.9111 247.033C47.4511 232.443 39.7911 219.243 34.1911 209.713C31.3811 204.963 29.1211 201.113 27.5411 198.443L25.7311 195.373L25.2711 194.573L25.1211 194.293C25.1211 194.293 25.1911 194.383 25.3011 194.553C25.4111 194.723 25.5811 195.003 25.7911 195.343L27.6411 198.343C29.2511 200.983 31.5511 204.813 34.3811 209.563C40.0311 219.063 47.7311 232.253 56.1811 246.833C64.6311 261.413 74.3711 278.493 79.9811 288.023" fill="#2855AF"/>
<path d="M29.8086 225.863C30.0471 225.891 30.2818 225.945 30.5086 226.023C30.9586 226.143 31.6086 226.333 32.3986 226.583C33.9886 227.073 36.1586 227.813 38.5486 228.663L44.6486 230.873L46.4986 231.573C46.7298 231.642 46.9541 231.733 47.1686 231.843C46.9267 231.822 46.6883 231.772 46.4586 231.693C46.0086 231.573 45.3686 231.373 44.5786 231.123C42.9886 230.613 40.8286 229.853 38.4386 228.993L32.3286 226.833L30.4786 226.183C30.2429 226.105 30.0178 225.997 29.8086 225.863V225.863Z" fill="#2855AF"/>
<path d="M47.8199 231.135C47.7399 231.135 49.0598 226.555 50.7698 220.975C52.4798 215.395 53.9299 210.875 54.0099 210.895C54.0899 210.915 52.7698 215.475 51.0598 221.065C49.3498 226.655 47.8999 231.155 47.8199 231.135Z" fill="#2855AF"/>
<path d="M59.7891 254.124C59.8971 253.901 60.0243 253.686 60.1691 253.484L61.269 251.814C62.199 250.394 63.4691 248.434 64.7891 246.214C66.1091 243.994 67.2491 241.944 68.0591 240.464L69.0591 238.694C69.1649 238.473 69.2922 238.262 69.4391 238.064C69.3748 238.304 69.2843 238.535 69.1691 238.754C68.9691 239.184 68.679 239.804 68.299 240.564C67.539 242.074 66.4291 244.144 65.0991 246.374C63.7691 248.604 62.469 250.544 61.489 251.934C60.999 252.624 60.5991 253.184 60.3091 253.554C60.1592 253.765 59.9846 253.956 59.7891 254.124V254.124Z" fill="#2855AF"/>
<path d="M42.5 252.954C42.7255 252.922 42.9545 252.922 43.18 252.954L45.03 253.014C46.6 253.014 48.76 253.164 51.15 253.304C53.54 253.444 55.69 253.564 57.26 253.684L59.1 253.834C59.3304 253.832 59.5598 253.866 59.78 253.934C59.5538 253.955 59.3262 253.955 59.1 253.934L57.24 253.884C55.68 253.824 53.52 253.724 51.13 253.594C48.74 253.464 46.58 253.324 45.02 253.204L43.17 253.054C42.9437 253.045 42.7191 253.011 42.5 252.954V252.954Z" fill="#2855AF"/>
<path d="M50.5 274.574C50.7893 274.546 51.0807 274.546 51.37 274.574L53.75 274.634C55.75 274.694 58.53 274.804 61.59 274.944C64.65 275.084 67.42 275.224 69.42 275.344L71.8 275.494C72.0888 275.505 72.3763 275.539 72.66 275.594C72.3709 275.625 72.0791 275.625 71.79 275.594L69.41 275.534C67.41 275.464 64.63 275.364 61.57 275.224C58.51 275.084 55.74 274.934 53.74 274.824L51.37 274.664C51.0781 274.656 50.7873 274.626 50.5 274.574V274.574Z" fill="#2855AF"/>
<path d="M72.0898 275.423C72.1998 275.128 72.3371 274.843 72.4998 274.573C72.8398 274.013 73.2899 273.283 73.8199 272.393C74.9299 270.553 76.4598 268.013 78.0598 265.153C79.6598 262.293 81.0598 259.673 82.0598 257.763C82.5298 256.843 82.9299 256.083 83.2299 255.503C83.3603 255.219 83.5177 254.948 83.6999 254.693C83.6045 254.99 83.4841 255.277 83.3398 255.553C83.0998 256.103 82.7298 256.893 82.2498 257.863C81.3098 259.793 79.9498 262.443 78.3398 265.303C76.7298 268.163 75.1798 270.703 74.0198 272.513C73.4398 273.423 72.9598 274.143 72.6098 274.643C72.4574 274.917 72.2835 275.178 72.0898 275.423V275.423Z" fill="#2855AF"/>
<path d="M-0.00141907 126.743H32.0586V122.353H-0.00141907V126.743Z" fill="#93AAD7"/>
<path d="M-0.00141907 119.323H32.0586V114.933H-0.00141907V119.323Z" fill="#93AAD7"/>
<path d="M18.1886 134.703H32.0586V130.313H18.1886V134.703Z" fill="#93AAD7"/>
<path d="M290.321 241.123C289.138 241.408 288.024 241.928 287.046 242.653C286.068 243.378 285.247 244.293 284.631 245.343C283.403 247.456 282.681 249.825 282.521 252.263C282.071 256.953 283.691 262.123 285.711 266.363C290.271 263.823 292.401 258.143 293.301 255.203C294.731 250.543 294.471 241.263 290.301 241.123" fill="#7CCCDB"/>
<path d="M279.632 272.963C280.171 271.712 280.369 270.341 280.208 268.989C280.046 267.637 279.53 266.351 278.712 265.263C277.876 264.188 276.835 263.291 275.648 262.623C274.462 261.955 273.154 261.53 271.802 261.373C271.187 261.233 270.549 261.23 269.932 261.363C269.315 261.496 268.735 261.762 268.232 262.143C267.829 262.573 267.548 263.102 267.418 263.677C267.287 264.252 267.313 264.851 267.492 265.413C267.865 266.532 268.528 267.532 269.412 268.313C272.302 271.113 275.622 273.313 279.632 272.963" fill="#7CCCDB"/>
<path d="M281.591 288.044C281.644 287.713 281.664 287.378 281.651 287.044C281.651 286.354 281.701 285.474 281.731 284.404C281.897 281.484 281.593 278.557 280.831 275.734C280.012 272.901 278.456 270.337 276.321 268.304C275.665 267.708 274.944 267.188 274.171 266.754C273.961 266.634 273.744 266.528 273.521 266.434C273.371 266.364 273.291 266.334 273.281 266.354C274.312 266.958 275.274 267.672 276.151 268.484C278.2 270.526 279.697 273.055 280.501 275.834C281.258 278.625 281.595 281.513 281.501 284.404C281.501 285.514 281.501 286.404 281.501 287.044C281.501 287.379 281.531 287.714 281.591 288.044Z" fill="#2855AF"/>
<path d="M289.892 248.203C289.84 248.334 289.796 248.467 289.762 248.603L289.442 249.773C289.172 250.773 288.792 252.253 288.352 254.073C287.452 257.713 286.282 262.753 285.122 268.353C283.962 273.953 283.022 279.053 282.392 282.753C282.072 284.603 281.832 286.093 281.682 287.133C281.612 287.623 281.552 288.023 281.512 288.323C281.496 288.466 281.496 288.61 281.512 288.753C281.568 288.622 281.605 288.484 281.622 288.343C281.682 288.033 281.752 287.643 281.852 287.153L282.672 282.793C283.352 279.113 284.332 274.023 285.492 268.423C286.652 262.823 287.782 257.783 288.622 254.123C289.032 252.333 289.372 250.863 289.622 249.803C289.732 249.313 289.812 248.923 289.882 248.623C289.905 248.484 289.908 248.343 289.892 248.203V248.203Z" fill="#2855AF"/>
<path d="M285.703 277.163C286.756 274.489 288.431 272.105 290.589 270.208C292.747 268.31 295.326 266.955 298.113 266.253C299.533 265.913 301.303 265.863 302.113 267.053C302.923 268.243 302.363 269.903 301.563 271.123C299.851 273.64 297.433 275.595 294.613 276.743C291.793 277.89 288.697 278.179 285.713 277.573" fill="#7CCCDB"/>
<path d="M296.573 270.463C296.268 270.493 295.967 270.553 295.673 270.643C295.335 270.726 295.001 270.826 294.673 270.943C294.217 271.079 293.77 271.243 293.333 271.433C292.8 271.643 292.279 271.883 291.773 272.153C291.223 272.433 290.653 272.783 290.073 273.153C288.811 273.994 287.647 274.973 286.603 276.073C285.584 277.192 284.695 278.423 283.953 279.743C283.635 280.322 283.351 280.92 283.103 281.533C282.875 282.056 282.682 282.594 282.523 283.143C282.377 283.596 282.257 284.056 282.163 284.523C282.071 284.867 282.007 285.218 281.973 285.573C281.909 285.872 281.879 286.177 281.883 286.483C281.953 286.483 282.093 285.193 282.743 283.223C282.923 282.733 283.103 282.223 283.363 281.643C283.621 281.044 283.911 280.46 284.233 279.893C284.974 278.605 285.853 277.401 286.853 276.303C287.88 275.225 289.016 274.256 290.243 273.413C290.823 273.043 291.363 272.683 291.913 272.413C292.407 272.137 292.914 271.886 293.433 271.663C295.313 270.813 296.593 270.573 296.573 270.463Z" fill="#2855AF"/>
<path d="M107.65 181.944C108.435 181.944 109.07 181.308 109.07 180.524C109.07 179.739 108.435 179.104 107.65 179.104C106.866 179.104 106.23 179.739 106.23 180.524C106.23 181.308 106.866 181.944 107.65 181.944Z" fill="#7CCCDB"/>
<path d="M130.25 205.674C130.664 205.674 131 205.338 131 204.924C131 204.51 130.664 204.174 130.25 204.174C129.836 204.174 129.5 204.51 129.5 204.924C129.5 205.338 129.836 205.674 130.25 205.674Z" fill="#7CCCDB"/>
<path d="M179.709 209.294C174.589 211.394 168.709 218.734 168.319 224.504C167.929 230.274 170.949 236.014 175.599 239.444C180.392 242.794 186.257 244.245 192.059 243.514C196.169 243.064 200.339 241.604 203.119 238.514C206.199 235.144 207.169 230.264 206.719 225.724C206.444 222.587 205.481 219.549 203.9 216.825C202.319 214.101 200.157 211.759 197.569 209.965C192.309 206.525 185.099 206.034 179.709 209.254" fill="#7CCCDB"/>
<g opacity="0.8">
<path opacity="0.8" d="M179.709 209.294C174.589 211.394 168.709 218.734 168.319 224.504C167.929 230.274 170.949 236.014 175.599 239.444C180.392 242.794 186.257 244.245 192.059 243.514C196.169 243.064 200.339 241.604 203.119 238.514C206.199 235.144 207.169 230.264 206.719 225.724C206.444 222.587 205.481 219.549 203.9 216.825C202.319 214.101 200.157 211.759 197.569 209.965C192.309 206.525 185.099 206.034 179.709 209.254" fill="white"/>
</g>
<path fill-rule="evenodd" clip-rule="evenodd" d="M219.499 98.4936C219.499 98.9999 219.349 99.4949 219.067 99.9159C218.786 100.337 218.386 100.665 217.919 100.859C217.451 101.052 216.936 101.103 216.439 101.004C215.943 100.906 215.487 100.662 215.129 100.304C214.771 99.9458 214.527 99.4896 214.428 98.993C214.329 98.4965 214.38 97.9817 214.574 97.5139C214.768 97.0462 215.096 96.6463 215.517 96.3651C215.938 96.0838 216.433 95.9336 216.939 95.9336C217.618 95.9336 218.269 96.2033 218.749 96.6834C219.229 97.1635 219.499 97.8147 219.499 98.4936Z" fill="#7CCCDB"/>
<path d="M178.42 3.71402C179.204 3.71402 179.84 3.07827 179.84 2.29402C179.84 1.50978 179.204 0.874023 178.42 0.874023C177.636 0.874023 177 1.50978 177 2.29402C177 3.07827 177.636 3.71402 178.42 3.71402Z" fill="#7CCCDB"/>
<path d="M212.832 262.854C212.832 264.524 188.102 265.854 157.582 265.854C127.062 265.854 102.332 264.504 102.332 262.854C102.332 261.204 127.062 259.854 157.582 259.854C188.102 259.854 212.832 261.184 212.832 262.854Z" fill="#FAFAFA"/>
<path d="M73.8008 289.135L86.4208 263.135H225.631L242.221 289.135C242.221 289.135 73.8008 290.885 73.8008 289.195" fill="#2855AF"/>
<path d="M160.263 289.574C160.153 289.574 160.062 284.514 160.062 278.284C160.062 272.054 160.153 267.004 160.263 267.004C160.373 267.004 160.473 272.054 160.473 278.284C160.473 284.514 160.383 289.574 160.263 289.574Z" fill="white"/>
<path d="M231.01 273.344L230.48 273.434L228.94 273.604L223.17 274.194L203.35 276.084L203.51 275.994L199.36 282.684L199.3 282.784H199.19H197.56L171.19 283.274L163.19 283.374H160.25H160.45H161.01L163.18 283.284L171.18 283.054L197.55 282.444H199.18L199.01 282.544C200.44 280.234 201.84 277.994 203.16 275.854L203.22 275.774H203.32L223.14 274.024L228.92 273.554L230.47 273.454L231.01 273.344Z" fill="white"/>
<path d="M218.431 274.504C217.662 271.362 217.163 268.16 216.941 264.934C217.412 266.485 217.746 268.074 217.941 269.684C218.248 271.272 218.412 272.886 218.431 274.504V274.504Z" fill="white"/>
<path d="M106.841 289.874C106.748 289.745 106.674 289.604 106.621 289.454L106.101 288.254L104.321 283.924L104.471 284.014L94.9211 283.304C90.0711 282.924 85.6811 282.564 82.5011 282.304L78.7411 281.964C78.2817 281.933 77.8243 281.876 77.3711 281.794C77.8338 281.759 78.2984 281.759 78.7611 281.794L82.5311 282.034C85.7211 282.254 90.1111 282.574 94.9711 282.954L104.501 283.724H104.621V283.814C105.291 285.584 105.851 287.074 106.261 288.174L106.691 289.394C106.765 289.545 106.816 289.707 106.841 289.874V289.874Z" fill="white"/>
<path d="M160.263 273.343C160.263 273.343 160.213 273.343 160.103 273.343H159.622H157.753L150.832 273.403L127.362 273.473H127.432L121.062 275.863L117.612 277.163H117.562H117.503L92.0925 274.023L84.5125 273.023L82.5125 272.743L81.9825 272.663L81.8125 272.613H81.9925H82.5225L84.5825 272.823L92.1725 273.683L117.603 276.683H117.503L120.953 275.383L127.332 272.993H127.402L150.872 273.063L157.793 273.123H159.663H160.143L160.263 273.343Z" fill="white"/>
<path d="M264.009 62.8936H231.949V67.2836H264.009V62.8936Z" fill="#7CCCDB"/>
<path d="M245.819 70.834H231.949V75.224H245.819V70.834Z" fill="#7CCCDB"/>
</svg>
