<svg width="55" height="55" viewBox="0 0 55 55" fill="none" xmlns="http://www.w3.org/2000/svg">
<g clip-path="url(#clip0)">
<path d="M20.0071 20.4365C16.6745 20.4365 13.9629 23.1481 13.9629 26.4811C13.9629 29.8137 16.6745 32.5253 20.0071 32.5253C23.3401 32.5253 26.0517 29.8137 26.0517 26.4811C26.0517 23.1481 23.3401 20.4365 20.0071 20.4365ZM20.0071 30.8917C17.5754 30.8917 15.5969 28.9128 15.5969 26.4807C15.5969 24.0486 17.5754 22.0701 20.0071 22.0701C22.4392 22.0701 24.4181 24.0486 24.4181 26.4807C24.4181 28.9128 22.4392 30.8917 20.0071 30.8917Z" fill="#7CCCDB"/>
<path d="M20.0071 23.7041C18.4759 23.7041 17.2305 24.9495 17.2305 26.4811C17.2305 28.0123 18.4759 29.2582 20.0071 29.2582C21.5383 29.2582 22.7841 28.0123 22.7841 26.4811C22.7841 24.9495 21.5387 23.7041 20.0071 23.7041ZM20.0071 27.6242C19.3768 27.6242 18.864 27.1114 18.864 26.4807C18.864 25.8505 19.3768 25.3377 20.0071 25.3377C20.6378 25.3377 21.1505 25.8505 21.1505 26.4807C21.1505 27.1114 20.6378 27.6242 20.0071 27.6242Z" fill="#7CCCDB"/>
<path d="M41.161 26.4807C41.161 23.1481 38.4495 20.4365 35.1164 20.4365C31.7838 20.4365 29.0723 23.1481 29.0723 26.4807C29.0723 29.8137 31.7838 32.5253 35.1164 32.5253C38.4495 32.5253 41.161 29.8137 41.161 26.4807ZM35.1164 30.8917C32.6848 30.8917 30.7058 28.9128 30.7058 26.4807C30.7058 24.0486 32.6848 22.0701 35.1164 22.0701C37.5485 22.0701 39.527 24.0486 39.527 26.4807C39.527 28.9128 37.5485 30.8917 35.1164 30.8917Z" fill="#7CCCDB"/>
<path d="M35.1165 23.7041C33.5853 23.7041 32.3398 24.9495 32.3398 26.4811C32.3398 28.0123 33.5853 29.2582 35.1165 29.2582C36.6476 29.2582 37.8935 28.0123 37.8935 26.4811C37.8935 24.9495 36.6476 23.7041 35.1165 23.7041ZM35.1165 27.6242C34.4862 27.6242 33.9734 27.1114 33.9734 26.4807C33.9734 25.8505 34.4862 25.3377 35.1165 25.3377C35.7471 25.3377 36.2599 25.8505 36.2599 26.4807C36.2599 27.1114 35.7471 27.6242 35.1165 27.6242Z" fill="#7CCCDB"/>
<path d="M48.2871 21.6795H48.2086V20.5394C48.209 9.1548 38.9468 -0.107422 27.5622 -0.107422C16.1771 -0.107422 6.91487 9.1548 6.91487 20.5394V21.6795H6.83682C4.90322 21.6795 3.33008 23.2527 3.33008 25.1863V33.2027C3.33008 35.1363 4.90322 36.7094 6.83682 36.7094H7.88293C8.5711 36.7094 9.21312 36.5092 9.75568 36.1652V36.1731C9.75568 41.0973 13.7618 45.1038 18.6864 45.1038H21.056V47.8691H16.3638C13.0329 47.8691 10.3234 50.579 10.3234 53.9095V54.0757C10.3234 54.5268 10.6889 54.8927 11.14 54.8927H36.3326C36.7837 54.8927 37.1492 54.5268 37.1492 54.0757C37.1492 53.6246 36.7837 53.2591 36.3326 53.2591H12.0048C12.3204 51.1363 14.155 49.5027 16.3638 49.5027H38.591C40.7998 49.5027 42.6344 51.1363 42.9495 53.2591H39.0555C38.604 53.2591 38.2385 53.6246 38.2385 54.0757C38.2385 54.5268 38.604 54.8927 39.0555 54.8927H43.8144C44.2659 54.8927 44.6314 54.5268 44.6314 54.0757V53.9095C44.6314 50.579 41.9215 47.8691 38.591 47.8691H33.8988V45.1038H36.4379C38.4172 45.1038 40.3311 44.4459 41.8892 43.2445C42.2421 43.3843 42.6264 43.4619 43.0288 43.4619H43.7909C45.2251 43.4619 46.4345 42.4842 46.7895 41.1607C48.0882 41.0243 49.1036 39.9228 49.1036 38.5884V36.6125C50.6445 36.2432 51.7938 34.8551 51.7938 33.2027V25.1863C51.7938 23.2527 50.2207 21.6795 48.2871 21.6795ZM7.88293 35.0758H6.83682C5.80414 35.0758 4.96365 34.2353 4.96365 33.2027V25.1863C4.96365 24.1536 5.80414 23.3135 6.83682 23.3135H7.88293C8.91393 23.3135 9.75316 24.1515 9.75568 25.1821V33.2069C9.75316 34.2379 8.91435 35.0758 7.88293 35.0758ZM11.3893 36.1731V33.211C11.3893 33.2081 11.3893 33.2056 11.3893 33.2027V32.4948C12.5789 32.9521 13.6439 33.72 14.4541 34.7213C15.5149 36.0321 16.076 37.6183 16.076 39.3085V42.9856C13.338 41.9328 11.3893 39.277 11.3893 36.1731ZM33.7696 43.4699H32.2862V36.7619C33.1519 37.0921 33.7696 37.9292 33.7696 38.9095V43.4699ZM30.6526 43.4699H28.3787V36.6091H30.6526V43.4699ZM26.7452 43.4699H24.4713V36.6091H26.7452V43.4699ZM22.8377 43.4699H21.3543V38.9095C21.3543 37.9292 21.972 37.0921 22.8377 36.7619V43.4699ZM32.2648 47.8691H22.6896V45.1038H32.2648V47.8691ZM35.4031 43.4699V38.9095C35.4031 36.7405 33.6386 34.9755 31.4696 34.9755H23.6547C21.4853 34.9755 19.7208 36.7405 19.7208 38.9095V43.4699H18.6864C18.3549 43.4699 18.0293 43.4455 17.7095 43.4027V39.3081C17.7095 37.2692 17.0042 35.2756 15.7243 33.6936C14.6023 32.3072 13.0812 31.2854 11.3893 30.7676V22.3421C11.3893 18.3192 14.6627 15.0462 18.6864 15.0462H21.7933C22.2448 15.0462 22.6102 14.6807 22.6102 14.2296C22.6102 13.7786 22.2448 13.4127 21.7933 13.4127H18.6864C13.8008 13.4127 9.82114 17.3558 9.75862 22.2259C9.39481 21.9947 8.98652 21.8285 8.54886 21.7437V20.5394C8.54886 10.0557 17.078 1.52615 27.5622 1.52615C38.0459 1.52615 46.575 10.0557 46.575 20.5394V21.7442C46.1378 21.8285 45.7291 21.9947 45.3657 22.2259C45.3027 17.3558 41.3231 13.4127 36.4379 13.4127H24.5166C24.0655 13.4127 23.6996 13.7786 23.6996 14.2296C23.6996 14.6807 24.0655 15.0466 24.5166 15.0466H36.4379C40.4616 15.0466 43.7351 18.3192 43.7351 22.3425L43.7346 30.768C42.0432 31.2863 40.5216 32.308 39.4 33.694C38.1197 35.276 37.4148 37.2696 37.4148 39.3085V43.4044C37.0925 43.448 36.766 43.4703 36.4379 43.4703H35.4031V43.4699ZM39.9249 40.358C39.9249 41.0503 40.1528 41.6907 40.5376 42.2076C40.0714 42.5249 39.5716 42.7863 39.0483 42.9865V39.3081C39.0483 37.6183 39.609 36.0321 40.6697 34.7217C41.48 33.7209 42.545 32.9526 43.7346 32.4948V33.2027C43.7346 33.2069 43.7351 33.211 43.7351 33.2152V36.1727C43.7351 36.5357 43.7078 36.8974 43.6549 37.2541H43.0288C41.3172 37.2541 39.9249 38.6464 39.9249 40.358ZM43.7913 41.8283H43.0288C42.2181 41.8283 41.5585 41.1687 41.5585 40.358C41.5585 39.5473 42.2181 38.8876 43.0288 38.8876H43.7913C44.602 38.8876 45.2616 39.5473 45.2616 40.358C45.2616 41.1687 44.602 41.8283 43.7913 41.8283ZM46.7752 39.5049C46.5419 38.6904 45.9842 38.0119 45.2507 37.6195C45.3283 37.1429 45.3686 36.6586 45.3686 36.1731V36.1652C45.9108 36.5092 46.5528 36.7094 47.2414 36.7094H47.4705V38.5884C47.4705 39.0244 47.1755 39.392 46.7752 39.5049ZM50.1602 33.2027C50.1602 34.2353 49.3202 35.0758 48.2871 35.0758H47.2414C46.2108 35.0758 45.372 34.2387 45.3686 33.209V25.18C45.372 24.1502 46.2108 23.3131 47.2414 23.3131H48.2871C49.3202 23.3131 50.1602 24.1536 50.1602 25.1863V33.2027Z" fill="#2855AF"/>
</g>
<defs>
<clipPath id="clip0">
<rect width="55" height="55" fill="white"/>
</clipPath>
</defs>
</svg>
