<svg width="55" height="55" viewBox="0 0 55 55" fill="none" xmlns="http://www.w3.org/2000/svg">
<g clip-path="url(#clip0)">
<path d="M13.7128 3.9968C13.2015 3.56 12.4467 3.56591 11.9422 4.01055L8.25336 7.31169V6.87908C8.25336 6.37291 7.8431 5.96264 7.33692 5.96264C6.83075 5.96264 6.42048 6.37291 6.42048 6.87908V8.95308L4.89261 10.3205C4.52112 10.6593 4.49201 11.2342 4.82742 11.609C5.16283 11.9837 5.73742 12.018 6.11514 11.6861L12.8357 5.6703L19.5562 11.6861C19.7996 11.9081 20.1435 11.9824 20.4568 11.8807C20.7701 11.779 21.0047 11.5169 21.0713 11.1942C21.1379 10.8716 21.0262 10.538 20.7787 10.3205L13.7128 3.9968Z" fill="#2855AF"/>
<path d="M18.336 12.8364C17.8299 12.8364 17.4196 13.2467 17.4196 13.7529V20.1682H8.25476V13.7529C8.25476 13.2467 7.84449 12.8364 7.33832 12.8364C6.83214 12.8364 6.42188 13.2467 6.42188 13.7529V20.7502C6.4309 21.4499 7.00527 22.0099 7.70498 22.0012H17.9695C18.6696 22.0082 19.2435 21.4475 19.2526 20.7474V13.7529C19.2525 13.2467 18.8421 12.8364 18.336 12.8364Z" fill="#2855AF"/>
<path d="M12.8372 23.834C9.29406 23.834 6.42188 26.7063 6.42188 30.2493C6.42188 33.7923 9.29417 36.6646 12.8372 36.6646C16.3802 36.6646 19.2525 33.7923 19.2525 30.2493C19.2484 26.7079 16.3786 23.838 12.8372 23.834ZM8.25476 30.2493C8.25755 28.0725 9.78853 26.197 11.9206 25.7586V29.7297L8.5297 31.7633C8.35217 31.2781 8.25916 30.766 8.25476 30.2493ZM9.47417 33.3348L12.6951 31.4022L15.3602 34.0674C13.4879 35.3164 10.9831 35.0046 9.47417 33.3348ZM16.6561 32.7715L13.7536 29.8698V25.7586C15.2456 26.0609 16.4895 27.0857 17.0717 28.4923C17.6538 29.899 17.4981 31.5031 16.6561 32.7715Z" fill="#7CCCDB"/>
<path d="M49.4943 16.5022V13.3651C49.4938 12.5671 48.847 11.9204 48.0491 11.9198H45.4408C44.6428 11.9204 43.996 12.5671 43.9955 13.3651V16.5022H42.1625V10.7559C42.1615 9.88073 41.4523 9.17146 40.577 9.17038H38.2491C37.374 9.17146 36.6647 9.88073 36.6636 10.7559V16.5022H34.8308V6.42095C34.8308 5.40861 34.0101 4.58796 32.9978 4.58796H31.1648C30.1524 4.58796 29.3318 5.40861 29.3318 6.42095V16.5022H28.4153C27.9092 16.5022 27.4989 16.0919 27.4989 15.5858V4.58807C27.4989 4.0819 27.0885 3.67163 26.5825 3.67163C26.0764 3.67163 25.666 4.0819 25.666 4.58807V15.5858C25.666 17.1042 26.8969 18.3352 28.4154 18.3352H49.4945C50.0006 18.3352 50.4109 17.925 50.4109 17.4188C50.4109 16.9126 50.0005 16.5022 49.4943 16.5022ZM32.9978 16.5022H31.1648V6.42095H32.9978V16.5022ZM40.3296 16.5022H38.4966V11.0034H40.3296V16.5022ZM47.6614 16.5022H45.8285V13.7528H47.6615V16.5022H47.6614Z" fill="#7CCCDB"/>
<path d="M49.4943 34.8318H28.4153C27.9092 34.8318 27.4989 34.4216 27.4989 33.9154V32.4618L30.5168 29.4439C30.8789 29.0964 31.4507 29.0964 31.8127 29.4439L32.8868 30.518C33.9605 31.5914 35.7009 31.5914 36.7745 30.518L40.598 26.6945C40.96 26.3469 41.5318 26.3469 41.8939 26.6945L42.968 27.7695C44.0428 28.8399 45.7808 28.8399 46.8556 27.7695L50.1422 24.483C50.4895 24.1234 50.4846 23.5517 50.131 23.1983C49.7775 22.8447 49.2059 22.8398 48.8463 23.1871L45.5598 26.4727C45.2019 26.8304 44.6217 26.8304 44.2639 26.4727L43.1898 25.3986C42.1018 24.3603 40.39 24.3603 39.3021 25.3986L35.4786 29.2221C35.1207 29.5799 34.5406 29.5799 34.1827 29.2221L33.1096 28.148C32.0214 27.1096 30.3091 27.1096 29.2209 28.148L27.4989 29.8701V22.9177C27.4989 22.4115 27.0885 22.0012 26.5825 22.0012C26.0764 22.0012 25.666 22.4116 25.666 22.9177V33.9154C25.666 35.4338 26.8969 36.6648 28.4154 36.6648H49.4945C50.0006 36.6648 50.4109 36.2544 50.4109 35.7484C50.4108 35.2421 50.0005 34.8318 49.4943 34.8318Z" fill="#2855AF"/>
<path d="M54.9943 42.5803V5.08818C55.1218 2.42316 53.0758 0.154237 50.4119 0.00634766H4.58811C1.92416 0.154344 -0.121798 2.42327 0.00568514 5.08818V42.5803C-0.122228 45.2456 1.92374 47.5151 4.58811 47.6631H19.2517V49.4961H15.5858C13.5612 49.4961 11.92 51.1374 11.92 53.162V54.0784C11.92 54.5846 12.3302 54.9949 12.8364 54.9949H42.1637C42.6699 54.9949 43.0801 54.5846 43.0801 54.0784V53.162C43.0801 51.1374 41.4389 49.4961 39.4143 49.4961H35.7484V47.6631H50.412C53.0762 47.5152 55.1222 45.2456 54.9943 42.5803ZM39.4142 51.3291C40.4265 51.3291 41.2471 52.1497 41.2471 53.1621H13.7528C13.7528 52.1497 14.5735 51.3291 15.5858 51.3291H39.4142ZM21.0847 49.4961V47.6631H33.9154V49.4961H21.0847ZM50.4119 45.8302H4.58811C2.93834 45.6788 1.71474 44.2324 1.83867 42.5804V40.3314H53.1614V42.5804C53.2854 44.2324 52.0617 45.6788 50.4119 45.8302ZM53.1613 5.08818V38.4984H1.83867V5.08818C1.71474 3.43626 2.93845 1.99023 4.58811 1.83923H50.412C52.0615 1.99023 53.2854 3.43626 53.1613 5.08818Z" fill="#2855AF"/>
</g>
<defs>
<clipPath id="clip0">
<rect width="55" height="55" fill="white"/>
</clipPath>
</defs>
</svg>
