<svg width="55" height="55" viewBox="0 0 55 55" fill="none" xmlns="http://www.w3.org/2000/svg">
<path d="M52.9737 33.3206L51.0766 32.2253C51.3951 30.6406 51.5564 29.0538 51.5564 27.5C51.5564 25.9236 51.3977 24.3353 51.0845 22.77L52.9737 21.6793C53.5588 21.3415 53.9773 20.796 54.1521 20.1435C54.3269 19.4909 54.2373 18.8092 53.8994 18.2242L48.7331 9.27573C48.3952 8.69065 47.8498 8.27207 47.1973 8.09727C46.5446 7.92248 45.8631 8.01213 45.2779 8.34999L43.3872 9.4416C40.999 7.34051 38.1883 5.7144 35.1963 4.70266V2.52935C35.1963 1.13466 34.0616 0 32.6669 0H22.3343C20.9396 0 19.8049 1.13466 19.8049 2.52935V4.70277C16.8289 5.71042 14.0221 7.33868 11.625 9.44805L9.72323 8.34999C9.13803 8.01213 8.4564 7.92237 7.80383 8.09727C7.15125 8.27217 6.60588 8.69065 6.26802 9.27573L1.10168 18.2242C0.763828 18.8092 0.67417 19.4909 0.848965 20.1435C1.02376 20.796 1.44234 21.3415 2.02743 21.6793L3.92455 22.7746C3.60618 24.3593 3.44484 25.9461 3.44484 27.5C3.44484 29.0762 3.60348 30.6645 3.91669 32.2299L2.02754 33.3206C0.819689 34.018 0.404444 35.5679 1.10168 36.7758L6.26802 45.7243C6.96537 46.932 8.51528 47.3474 9.72323 46.65L11.6138 45.5584C14.0021 47.6595 16.8127 49.2856 19.8049 50.2974V52.4706C19.8049 53.8653 20.9396 55 22.3343 55H32.6669C34.0616 55 35.1963 53.8653 35.1963 52.4706V50.2972C38.1724 49.2896 40.9793 47.6613 43.3763 45.5521L45.278 46.65C46.4857 47.3474 48.0358 46.932 48.7332 45.7243L53.8995 36.7758C54.5968 35.5679 54.1815 34.018 52.9737 33.3206ZM52.5013 35.9686L47.3349 44.9169C47.0828 45.3539 46.5221 45.5041 46.0852 45.2518L43.6751 43.8603C43.3689 43.6835 42.9831 43.7266 42.7234 43.9667C40.2594 46.2456 37.2948 47.9651 34.1502 48.9392C33.8123 49.044 33.5818 49.3565 33.5818 49.7103V52.4706C33.5818 52.9751 33.1714 53.3855 32.6669 53.3855H22.3343C21.8298 53.3855 21.4194 52.9751 21.4194 52.4706V49.7104C21.4194 49.3566 21.189 49.0441 20.8511 48.9393C17.6871 47.9591 14.7189 46.2419 12.2669 43.9733C12.114 43.8318 11.9171 43.7586 11.7185 43.7586C11.5801 43.7586 11.4409 43.7941 11.3151 43.8668L8.91599 45.2518C8.479 45.5039 7.91846 45.3538 7.66627 44.9169L2.49993 35.9686C2.24775 35.5317 2.39801 34.9711 2.83478 34.7188L5.23196 33.3347C5.53806 33.158 5.69359 32.8028 5.61577 32.458C5.24649 30.8212 5.05932 29.153 5.05932 27.5C5.05932 25.8748 5.24929 24.2082 5.62406 22.5466C5.70177 22.2018 5.54624 21.8465 5.24025 21.6699L2.83478 20.2811C2.62317 20.159 2.47184 19.9617 2.40855 19.7256C2.34537 19.4896 2.37777 19.243 2.49993 19.0314L7.66627 10.083C7.78844 9.87137 7.98573 9.71993 8.22187 9.65675C8.4578 9.59346 8.70449 9.62597 8.9161 9.74813L11.3262 11.1396C11.6325 11.3165 12.0183 11.2733 12.2779 11.0332C14.742 8.75426 17.7065 7.03483 20.8511 6.06066C21.1891 5.95593 21.4195 5.64337 21.4195 5.28958V2.52935C21.4195 2.02488 21.8299 1.61448 22.3344 1.61448H32.6671C33.1715 1.61448 33.5819 2.02488 33.5819 2.52935V5.28958C33.5819 5.64337 33.8124 5.95593 34.1502 6.06066C37.3141 7.04075 40.2823 8.75802 42.7344 11.0267C42.994 11.2669 43.3799 11.3101 43.6862 11.1332L46.0853 9.74813C46.297 9.62597 46.5436 9.59346 46.7796 9.65675C47.0156 9.72004 47.2129 9.87137 47.3352 10.083L52.5015 19.0314C52.6237 19.243 52.6562 19.4896 52.5929 19.7256C52.5296 19.9617 52.3783 20.159 52.1667 20.2811L49.7695 21.6652C49.4634 21.8419 49.3078 22.1972 49.3857 22.5419C49.7549 24.1786 49.9421 25.8467 49.9421 27.5C49.9421 29.1252 49.7521 30.7918 49.3774 32.4533C49.2997 32.7981 49.4552 33.1533 49.7612 33.33L52.1667 34.7188C52.6033 34.9711 52.7536 35.5317 52.5013 35.9686Z" fill="#2855AF"/>
<path d="M27.5016 11.1938C18.5102 11.1938 11.1953 18.5088 11.1953 27.5001C11.1953 36.4914 18.5102 43.8064 27.5016 43.8064C36.4929 43.8064 43.8078 36.4914 43.8078 27.5001C43.8078 18.5088 36.4929 11.1938 27.5016 11.1938ZM27.5016 42.1919C19.4005 42.1919 12.8098 35.6011 12.8098 27.5001C12.8098 19.3991 19.4005 12.8083 27.5016 12.8083C35.6026 12.8083 42.1934 19.3991 42.1934 27.5001C42.1934 35.6011 35.6026 42.1919 27.5016 42.1919Z" fill="#2855AF"/>
<path d="M30.5143 23.2485H27.5006C27.0548 23.2485 26.6934 23.61 26.6934 24.0558V30.9442C26.6934 31.39 27.0548 31.7515 27.5006 31.7515C27.9464 31.7515 28.3078 31.39 28.3078 30.9442V29.1683H30.5143C32.1464 29.1683 33.4742 27.8405 33.4742 26.2084C33.4742 24.5763 32.1464 23.2485 30.5143 23.2485ZM30.5143 27.5538H28.3078V24.863H30.5143C31.2562 24.863 31.8597 25.4665 31.8597 26.2084C31.8597 26.9503 31.2562 27.5538 30.5143 27.5538Z" fill="#7CCCDB"/>
<path d="M23.0895 23.7724C22.9713 23.4573 22.6702 23.2485 22.3337 23.2485H21.4726C21.1362 23.2485 20.8349 23.4572 20.7168 23.7724L18.1337 30.6608C17.9771 31.0782 18.1887 31.5435 18.6061 31.7001C19.0235 31.8567 19.4888 31.6451 19.6454 31.2277L20.0946 30.0294H23.7116L24.161 31.2276C24.2825 31.5517 24.5901 31.7517 24.9169 31.7517C25.011 31.7517 25.1068 31.7351 25.2002 31.7001C25.6176 31.5436 25.8292 31.0782 25.6726 30.6608L23.0895 23.7724ZM20.7001 28.4149L21.9032 25.2067L23.1063 28.4149H20.7001Z" fill="#7CCCDB"/>
<path d="M35.2506 23.2485C34.8048 23.2485 34.4434 23.61 34.4434 24.0558V30.9442C34.4434 31.39 34.8048 31.7515 35.2506 31.7515C35.6964 31.7515 36.0578 31.39 36.0578 30.9442V24.0558C36.0578 23.61 35.6964 23.2485 35.2506 23.2485Z" fill="#7CCCDB"/>
<path d="M33.2752 9.39633C33.8355 9.5749 34.394 9.7823 34.935 10.0126C35.0382 10.0565 35.1454 10.0773 35.2508 10.0773C35.5647 10.0773 35.8633 9.89306 35.9939 9.58609C36.1685 9.1759 35.9776 8.70178 35.5674 8.52721C34.9799 8.27718 34.3737 8.05201 33.7654 7.85817C33.3408 7.72276 32.8866 7.9574 32.7512 8.38212C32.6159 8.80683 32.8505 9.26093 33.2752 9.39633Z" fill="#7CCCDB"/>
<path d="M10.8129 36.5846C10.5994 36.1933 10.1089 36.049 9.71767 36.2626C9.32632 36.4761 9.18209 36.9665 9.39563 37.3578C9.73058 37.9718 10.1014 38.5757 10.4977 39.1528C10.6542 39.3807 10.9068 39.5032 11.1638 39.5032C11.3213 39.5032 11.4804 39.4572 11.6201 39.3613C11.9876 39.1089 12.0809 38.6064 11.8285 38.2389C11.4634 37.707 11.1216 37.1504 10.8129 36.5846Z" fill="#7CCCDB"/>
<path d="M25.8462 46.4262C21.5206 46.0534 17.4146 44.1789 14.2848 41.1478C13.9645 40.8376 13.4535 40.8459 13.1434 41.1661C12.8333 41.4864 12.8414 41.9974 13.1617 42.3075C16.5575 45.5962 21.0131 47.6301 25.7076 48.0346C25.7312 48.0367 25.7545 48.0376 25.7778 48.0376C26.1923 48.0376 26.5449 47.7202 26.5811 47.2997C26.6193 46.8556 26.2903 46.4645 25.8462 46.4262Z" fill="#2855AF"/>
<path d="M39.1163 10.4712C38.7482 10.2196 38.2459 10.3141 37.9943 10.6821C37.7428 11.0502 37.8373 11.5525 38.2053 11.8041C41.9556 14.3671 44.6685 18.1811 45.8442 22.5432C45.9413 22.9033 46.2672 23.1405 46.6231 23.1405C46.6926 23.1405 46.7633 23.1315 46.8336 23.1125C47.2642 22.9965 47.519 22.5535 47.403 22.1231C46.1273 17.3894 43.1844 13.2514 39.1163 10.4712Z" fill="#2855AF"/>
</svg>
