<svg width="55" height="55" viewBox="0 0 55 55" fill="none" xmlns="http://www.w3.org/2000/svg">
<path d="M46.9791 22.9167C47.6116 22.9167 48.125 22.4034 48.125 21.7709V8.02088C48.125 4.863 45.556 2.29175 42.3959 2.29175H5.72913C2.56899 2.29175 0 4.863 0 8.02099V46.9794C0 50.1372 2.56899 52.7085 5.72913 52.7085H42.3958C45.556 52.7085 48.1249 50.1372 48.1249 46.9794V40.1044C48.1249 39.4719 47.6115 38.9585 46.979 38.9585C46.3465 38.9585 45.8332 39.4719 45.8332 40.1044V46.9794C45.8332 48.8746 44.2909 50.4169 42.3957 50.4169H5.72913C3.83389 50.4169 2.29163 48.8746 2.29163 46.9794V13.7501H45.8333V21.771C45.8334 22.4035 46.3466 22.9167 46.9791 22.9167ZM2.29163 11.4585V8.02099C2.29163 6.12574 3.83389 4.58349 5.72913 4.58349H42.3958C44.291 4.58349 45.8333 6.12574 45.8333 8.02099V11.4585H2.29163Z" fill="#2855AF"/>
<path d="M5.72985 9.16674C6.3627 9.16674 6.87572 8.65372 6.87572 8.02087C6.87572 7.38802 6.3627 6.875 5.72985 6.875C5.09701 6.875 4.58398 7.38802 4.58398 8.02087C4.58398 8.65372 5.09701 9.16674 5.72985 9.16674Z" fill="#2855AF"/>
<path d="M10.3119 9.16674C10.9447 9.16674 11.4578 8.65372 11.4578 8.02087C11.4578 7.38802 10.9447 6.875 10.3119 6.875C9.67904 6.875 9.16602 7.38802 9.16602 8.02087C9.16602 8.65372 9.67904 9.16674 10.3119 9.16674Z" fill="#2855AF"/>
<path d="M14.8959 9.16674C15.5287 9.16674 16.0417 8.65372 16.0417 8.02087C16.0417 7.38802 15.5287 6.875 14.8959 6.875C14.263 6.875 13.75 7.38802 13.75 8.02087C13.75 8.65372 14.263 9.16674 14.8959 9.16674Z" fill="#2855AF"/>
<path d="M51.5625 25.2083H49.2709C48.6384 25.2083 48.125 25.7216 48.125 26.3541V35.5207C48.125 36.1532 48.6384 36.6666 49.2709 36.6666C49.9034 36.6666 50.4167 36.1532 50.4167 35.5207V32.0832H51.5625C53.4577 32.0832 55 30.541 55 28.6457C55 26.7505 53.4577 25.2083 51.5625 25.2083ZM51.5625 29.7915H50.4166V27.4999H51.5625C52.1927 27.4999 52.7084 28.0132 52.7084 28.6457C52.7084 29.2782 52.1927 29.7915 51.5625 29.7915Z" fill="#7CCCDB"/>
<path d="M30.9375 25.2083H28.6459C28.0134 25.2083 27.5 25.7216 27.5 26.3541V35.5207C27.5 36.1532 28.0134 36.6666 28.6459 36.6666C29.2784 36.6666 29.7917 36.1532 29.7917 35.5207V32.0832H30.9375C32.8327 32.0832 34.375 30.541 34.375 28.6457C34.375 26.7505 32.8327 25.2083 30.9375 25.2083ZM30.9375 29.7915H29.7916V27.4999H30.9375C31.5677 27.4999 32.0834 28.0132 32.0834 28.6457C32.0834 29.2782 31.5677 29.7915 30.9375 29.7915Z" fill="#7CCCDB"/>
<path d="M44.687 25.2083C44.0545 25.2083 43.5411 25.7216 43.5411 26.3541V29.7916H38.9578V26.3541C38.9578 25.7216 38.4444 25.2083 37.8119 25.2083C37.1794 25.2083 36.666 25.7216 36.666 26.3541V35.5207C36.666 36.1532 37.1794 36.6666 37.8119 36.6666C38.4444 36.6666 38.9578 36.1532 38.9578 35.5207V32.0832H43.5411V35.5207C43.5411 36.1532 44.0545 36.6666 44.687 36.6666C45.3195 36.6666 45.8329 36.1532 45.8329 35.5207V26.3541C45.8329 25.7215 45.3195 25.2083 44.687 25.2083Z" fill="#7CCCDB"/>
</svg>
