<svg width="50" height="50" viewBox="0 0 50 50" fill="none" xmlns="http://www.w3.org/2000/svg">
<g clip-path="url(#clip0)">
<path d="M40.3231 9.67791C42.9917 9.67791 45.1618 7.50742 45.1618 4.8392C45.1618 2.17058 42.9917 0.000488281 40.3231 0.000488281C37.6545 0.000488281 35.4844 2.17058 35.4844 4.8392C35.4844 7.50742 37.6545 9.67791 40.3231 9.67791ZM40.3231 1.61339C42.1022 1.61339 43.5489 3.06012 43.5489 4.8392C43.5489 6.61788 42.1022 8.065 40.3231 8.065C38.544 8.065 37.0973 6.61788 37.0973 4.8392C37.0973 3.06012 38.544 1.61339 40.3231 1.61339Z" fill="#2855AF"/>
<path d="M48.3823 14.422C48.3614 14.2413 48.2799 14.0736 48.152 13.9464L45.7326 11.527C45.5818 11.3754 45.3759 11.2908 45.1624 11.2908H35.4851C35.2713 11.2908 35.0658 11.3754 34.9149 11.527L32.4956 13.9464C32.3672 14.0743 32.2857 14.2421 32.2649 14.422L30.652 28.1316C30.6252 28.3608 30.6973 28.5896 30.8504 28.7612C31.0028 28.9341 31.2222 29.0325 31.4529 29.0325H35.3867L33.0705 49.1007C33.0445 49.3291 33.1166 49.5579 33.2698 49.73C33.4229 49.9016 33.6423 50.0001 33.8722 50.0001H38.7109C39.1303 50.0001 39.4791 49.6792 39.515 49.2606L40.3238 39.5502L41.1326 49.2614C41.168 49.6792 41.5173 50.0001 41.9367 50.0001H46.7753C47.0049 50.0001 47.2242 49.9016 47.3778 49.7308C47.531 49.5595 47.6026 49.3299 47.5767 49.1015L45.2609 29.0325H49.1947C49.425 29.0325 49.6447 28.9341 49.7971 28.7624C49.9503 28.5903 50.022 28.3608 49.9952 28.1324L48.3823 14.422ZM45.1624 27.4197V16.1294H43.5496V28.2261C43.5496 28.2564 43.5511 28.2879 43.5543 28.3186L45.8704 48.3872H42.6785L41.1279 29.772C41.092 29.3535 40.7431 29.0325 40.3238 29.0325C39.9044 29.0325 39.5551 29.3535 39.5197 29.772L37.969 48.3872H34.7771L37.0929 28.3186C37.0964 28.2879 37.098 28.2564 37.098 28.2261V16.1294H35.4851V27.4197H32.3601L33.834 14.8883L35.819 12.9037H44.8285L46.8131 14.8883L48.2874 27.4197H45.1624Z" fill="#2855AF"/>
<path d="M27.9903 25.2367L26.3774 23.6238C26.2266 23.4722 26.0207 23.3876 25.8072 23.3876H17.7428C17.529 23.3876 17.3234 23.4722 17.1726 23.6238L15.5597 25.2367C15.4467 25.3493 15.3703 25.4923 15.3396 25.6486L13.7267 33.713C13.6791 33.9501 13.7405 34.1962 13.8937 34.3825C14.0469 34.5695 14.2749 34.6778 14.517 34.6778H17.7428V35.3905L14.5379 49.0091C14.4816 49.2485 14.5379 49.5009 14.6911 49.6943C14.8443 49.8872 15.0766 50.0002 15.3235 50.0002H19.3557C19.7436 50.0002 20.0767 49.7234 20.1484 49.3418L21.775 40.6663L23.4017 49.3418C23.4734 49.7234 23.8065 50.0002 24.1944 50.0002H28.2266C28.4731 50.0002 28.7054 49.8872 28.8586 49.6943C29.0118 49.5009 29.0685 49.2485 29.0118 49.0091L25.8072 35.3905V34.6778H29.033C29.2748 34.6778 29.5032 34.5695 29.6564 34.3825C29.8095 34.1962 29.871 33.9501 29.8233 33.713L28.2104 25.6486C28.1797 25.4923 28.1029 25.3493 27.9903 25.2367ZM25.8072 33.0649V27.4198H24.1944V35.4842C24.1944 35.5461 24.2014 35.6083 24.2152 35.6689L27.2079 48.3873H24.8638L22.5677 36.1422C22.496 35.7607 22.1629 35.4842 21.775 35.4842C21.3872 35.4842 21.054 35.7607 20.9824 36.1422L18.6863 48.3873H16.3418L19.3344 35.6689C19.3482 35.6083 19.3557 35.5461 19.3557 35.4842V27.4198H17.7428V33.0649H15.5007L16.8734 26.2042L18.0767 25.0005H25.4733L26.6775 26.2042L28.049 33.0649H25.8072Z" fill="#2855AF"/>
<path d="M11.7384 35.6198L9.31905 34.0069C9.18713 33.9187 9.03041 33.8715 8.87172 33.8715H4.03306C3.87398 33.8715 3.71765 33.9187 3.58534 34.0069L1.16601 35.6198C0.9707 35.7494 0.842724 35.9577 0.812798 36.1908L0.00635392 42.6423C-0.0227851 42.8719 0.049275 43.1026 0.202452 43.2759C0.355629 43.4496 0.575747 43.5488 0.807285 43.5488H2.85214L2.42254 49.1317C2.4056 49.3557 2.48199 49.5766 2.63478 49.7412C2.78796 49.9066 3.00217 50.0003 3.22662 50.0003H9.67817C9.90222 50.0003 10.1168 49.9066 10.27 49.742C10.4224 49.5766 10.5 49.3557 10.4822 49.1325L10.0522 43.5488H12.0975C12.329 43.5488 12.5492 43.4496 12.7023 43.2759C12.8555 43.1026 12.9264 42.8719 12.898 42.6423L12.0916 36.1908C12.0621 35.9577 11.9329 35.7494 11.7384 35.6198ZM9.929 41.9359L9.6758 38.6479L8.06764 38.7712L8.80715 48.3874H7.25884V43.5488H5.64595V48.3874H4.09764L4.83714 38.7719L3.22898 38.6487L2.97578 41.9359H1.72083L2.36859 36.7566L4.2772 35.4843H8.62798L10.537 36.7566L11.1836 41.9359H9.929Z" fill="#2855AF"/>
<path d="M17.7422 17.7425C17.7422 19.9657 19.5508 21.7747 21.7744 21.7747C23.9977 21.7747 25.8067 19.9657 25.8067 17.7425C25.8067 15.5188 23.9977 13.7102 21.7744 13.7102C19.5508 13.7102 17.7422 15.5188 17.7422 17.7425ZM24.1938 17.7425C24.1938 19.0762 23.1082 20.1618 21.7744 20.1618C20.4403 20.1618 19.3551 19.0762 19.3551 17.7425C19.3551 16.4084 20.4403 15.3231 21.7744 15.3231C23.1082 15.3231 24.1938 16.4084 24.1938 17.7425Z" fill="#2855AF"/>
<path d="M3.22656 29.0327C3.22656 30.8114 4.67329 32.2585 6.45237 32.2585C8.23145 32.2585 9.67818 30.8114 9.67818 29.0327C9.67818 27.2536 8.23145 25.8069 6.45237 25.8069C4.67329 25.8069 3.22656 27.2536 3.22656 29.0327ZM8.06527 29.0327C8.06527 29.9222 7.34191 30.6456 6.45237 30.6456C5.56283 30.6456 4.83947 29.9222 4.83947 29.0327C4.83947 28.1432 5.56283 27.4198 6.45237 27.4198C7.34191 27.4198 8.06527 28.1432 8.06527 29.0327Z" fill="#2855AF"/>
<path d="M19.9249 5.88186C19.6095 5.56645 19.0999 5.56645 18.7845 5.88186L0.236328 24.4301L1.37669 25.5704L19.3547 7.59201L21.2039 9.44155C21.4346 9.67191 21.7803 9.74042 22.0828 9.61639C22.3836 9.49156 22.5805 9.19702 22.5805 8.87137V0.806932C22.5805 0.361577 22.219 0.000488281 21.774 0.000488281H13.7096C13.3836 0.000488281 13.0894 0.19698 12.9642 0.497822C12.8394 0.799451 12.9087 1.14636 13.1394 1.37711L14.9886 3.22626L0.236328 17.9785L1.37669 19.1189L16.6991 3.79644C17.0141 3.48103 17.0141 2.9711 16.6991 2.65608L15.6564 1.61338H20.9676V6.92456L19.9249 5.88186Z" fill="#7CCCDB"/>
</g>
<defs>
<clipPath id="clip0">
<rect width="50" height="50" fill="white"/>
</clipPath>
</defs>
</svg>
