<svg width="50" height="50" viewBox="0 0 50 50" fill="none" xmlns="http://www.w3.org/2000/svg">
<path d="M16.9922 23.4375H6.44531C2.89131 23.4375 0 20.5462 0 16.9922V6.44531C0 2.89131 2.89131 0 6.44531 0H16.9922C20.5462 0 23.4375 2.89131 23.4375 6.44531V16.9922C23.4375 20.5462 20.5462 23.4375 16.9922 23.4375ZM6.44531 3.125C4.61445 3.125 3.125 4.61445 3.125 6.44531V16.9922C3.125 18.823 4.61445 20.3125 6.44531 20.3125H16.9922C18.823 20.3125 20.3125 18.823 20.3125 16.9922V6.44531C20.3125 4.61445 18.823 3.125 16.9922 3.125H6.44531Z" fill="#2855AF"/>
<path d="M43.5547 23.4375H33.0078C29.4538 23.4375 26.5625 20.5462 26.5625 16.9922V6.44531C26.5625 2.89131 29.4538 0 33.0078 0H43.5547C47.1087 0 50 2.89131 50 6.44531V16.9922C50 20.5462 47.1087 23.4375 43.5547 23.4375ZM33.0078 3.125C31.177 3.125 29.6875 4.61445 29.6875 6.44531V16.9922C29.6875 18.823 31.177 20.3125 33.0078 20.3125H43.5547C45.3855 20.3125 46.875 18.823 46.875 16.9922V6.44531C46.875 4.61445 45.3855 3.125 43.5547 3.125H33.0078Z" fill="#2855AF"/>
<path d="M38.2812 50C31.8195 50 26.5625 44.743 26.5625 38.2812C26.5625 31.8195 31.8195 26.5625 38.2812 26.5625C44.743 26.5625 50 31.8195 50 38.2812C50 44.743 44.743 50 38.2812 50ZM38.2812 29.6875C33.5427 29.6875 29.6875 33.5427 29.6875 38.2812C29.6875 43.0198 33.5427 46.875 38.2812 46.875C43.0198 46.875 46.875 43.0198 46.875 38.2812C46.875 33.5427 43.0198 29.6875 38.2812 29.6875Z" fill="#7CCCDB"/>
<path d="M16.9922 50H6.44531C2.89131 50 0 47.1087 0 43.5547V33.0078C0 29.4538 2.89131 26.5625 6.44531 26.5625H16.9922C20.5462 26.5625 23.4375 29.4538 23.4375 33.0078V43.5547C23.4375 47.1087 20.5462 50 16.9922 50ZM6.44531 29.6875C4.61445 29.6875 3.125 31.177 3.125 33.0078V43.5547C3.125 45.3855 4.61445 46.875 6.44531 46.875H16.9922C18.823 46.875 20.3125 45.3855 20.3125 43.5547V33.0078C20.3125 31.177 18.823 29.6875 16.9922 29.6875H6.44531Z" fill="#2855AF"/>
</svg>
