<svg width="96" height="166" viewBox="0 0 96 166" fill="none" xmlns="http://www.w3.org/2000/svg">
<path d="M48.7382 63.9731L48.7425 63.9732C71.6373 65.0202 82.488 71.3624 87.6253 77.331C90.1967 80.3187 91.3571 83.2349 91.8748 85.3968C92.1339 86.4786 92.2321 87.3722 92.2651 87.9915C92.2816 88.3012 92.2817 88.5418 92.2775 88.7023C92.2754 88.7827 92.2723 88.8421 92.2697 88.8794C92.2692 88.8864 92.2688 88.8923 92.2684 88.8972L92.2651 88.9254C92.2543 89.018 92.2382 89.1669 92.2165 89.3688C91.8568 92.712 89.9335 110.586 83.9683 128.155C80.805 137.472 76.5169 146.666 70.7502 153.555C64.9902 160.437 57.7827 164.991 48.7544 165.124C30.6253 165.389 19.2595 152.766 12.4001 136.456C5.54228 120.15 3.26172 100.299 3.26172 86.4736C3.26172 80.5361 6.03887 76.1741 10.2533 72.945C14.4849 69.7028 20.1563 67.6139 25.8756 66.2767C31.5877 64.9412 37.3068 64.3647 41.6023 64.1226C43.7489 64.0017 45.5373 63.9644 46.788 63.9574C47.4133 63.9539 47.904 63.9579 48.2378 63.9628C48.4047 63.9652 48.5323 63.9679 48.6179 63.9699L48.7143 63.9724L48.7382 63.9731Z" fill="#7CCCDB" stroke="#2855AF"/>
<path d="M91.6898 82.6334C91.6339 82.6921 91.5699 82.7426 91.4998 82.7834L90.9099 83.1734C90.3999 83.5234 89.6198 83.9934 88.6098 84.5734C85.7088 86.1755 82.67 87.5142 79.5298 88.5734C74.8721 90.1562 70.0685 91.2717 65.1898 91.9034C59.2209 92.6603 53.2059 92.9944 47.1898 92.9034C41.1778 92.9265 35.1689 92.6227 29.1898 91.9934C24.2834 91.4627 19.4838 90.2021 14.9499 88.2534C11.9071 86.9146 9.08761 85.1171 6.58984 82.9234C5.72984 82.1234 5.08985 81.4634 4.68985 81.0034L4.23984 80.4634L4.08984 80.2734C4.08984 80.2734 4.15985 80.3234 4.27985 80.4334L4.76984 80.9334C5.18984 81.3734 5.84984 82.0034 6.76984 82.7634C9.2865 84.8918 12.1078 86.6311 15.1399 87.9234C19.6373 89.8193 24.3873 91.049 29.2398 91.5734C35.2044 92.1697 41.1956 92.4601 47.1898 92.4434C53.1855 92.5137 59.1791 92.1797 65.1299 91.4434C69.9852 90.8346 74.7706 89.7597 79.4199 88.2334C82.552 87.198 85.5925 85.9035 88.5099 84.3634C89.5099 83.8134 90.3298 83.3634 90.8598 83.0534L91.4698 82.7134C91.5403 82.6795 91.614 82.6527 91.6898 82.6334V82.6334Z" fill="#2855AF"/>
<path d="M63.891 91.874C63.9379 92.0976 63.9614 92.3256 63.961 92.554C63.961 93.004 63.961 93.674 63.961 94.554C63.9622 96.9807 63.7075 99.4008 63.201 101.774C62.8406 103.416 62.3145 105.018 61.631 106.554C60.8698 108.331 59.8596 109.991 58.631 111.484C57.2471 113.128 55.5852 114.516 53.721 115.584C52.7238 116.132 51.6755 116.58 50.591 116.924C49.4652 117.258 48.3037 117.456 47.131 117.514C44.8143 117.568 42.5253 117.002 40.501 115.874C38.6196 114.826 36.9617 113.419 35.621 111.734C33.3858 108.863 31.9196 105.469 31.361 101.874C30.9715 99.4782 30.8174 97.0499 30.901 94.624C30.901 93.774 30.981 93.104 31.021 92.624C31.026 92.3915 31.0562 92.1601 31.111 91.934C31.1284 92.1637 31.1284 92.3944 31.111 92.624C31.111 93.124 31.111 93.784 31.111 94.624C31.0953 97.0281 31.3029 99.4284 31.731 101.794C32.3188 105.308 33.7841 108.617 35.991 111.414C37.301 113.042 38.9141 114.4 40.741 115.414C42.7018 116.492 44.9145 117.027 47.151 116.964C48.2793 116.91 49.3971 116.722 50.481 116.404C51.5219 116.072 52.5269 115.636 53.481 115.104C55.3027 114.066 56.9247 112.711 58.271 111.104C59.4976 109.661 60.5081 108.048 61.271 106.314C61.9639 104.809 62.5033 103.237 62.881 101.624C63.4164 99.2791 63.7245 96.8881 63.801 94.484C63.801 93.674 63.801 93.024 63.851 92.484C63.8449 92.2799 63.8583 92.0756 63.891 91.874Z" fill="#2855AF"/>
<path d="M74.8322 148.354C74.7722 148.354 74.4722 147.354 73.6922 145.664C72.5702 143.26 71.1416 141.011 69.4422 138.974C66.9038 135.971 63.7934 133.503 60.2922 131.714C55.9758 129.575 51.1926 128.55 46.3787 128.734C41.5648 128.917 36.8734 130.303 32.7322 132.764C29.3749 134.809 26.461 137.505 24.1622 140.694C22.617 142.853 21.3629 145.207 20.4322 147.694C19.7722 149.454 19.5522 150.474 19.4922 150.464C19.5217 150.21 19.5719 149.959 19.6422 149.714C19.8044 149.007 20.0047 148.309 20.2422 147.624C21.1053 145.088 22.3241 142.687 23.8622 140.494C26.1548 137.224 29.0915 134.457 32.4922 132.364C36.6897 129.836 41.4593 128.413 46.3557 128.228C51.2521 128.042 56.1156 129.101 60.4922 131.304C64.0374 133.134 67.1715 135.669 69.7022 138.754C71.4031 140.827 72.8035 143.13 73.8622 145.594C74.2122 146.474 74.4722 147.154 74.6122 147.594C74.7114 147.839 74.7851 148.094 74.8322 148.354V148.354Z" fill="#2855AF"/>
<path d="M66.6797 124.034L68.7997 114.574H87.3797C86.7197 117.394 85.7997 120.684 84.7397 124.184L66.6797 124.034Z" fill="#FAFAFA"/>
<path d="M27.1219 124.034L25.0119 114.574H6.42188C7.08188 117.394 7.64186 120.684 8.69186 124.184L27.1219 124.034Z" fill="#FAFAFA"/>
<path opacity="0.4" d="M90.3704 80.3135C85.9204 73.0535 74.1505 64.6535 48.7605 63.4735C48.7605 63.4735 20.3104 62.5535 8.16045 74.0635C7.00912 75.2436 5.97122 76.5293 5.06044 77.9035C4.32044 79.2735 14.5504 91.5635 47.4304 90.5135C81.3504 89.4235 90.3704 80.3135 90.3704 80.3135Z" fill="#2855AF"/>
<path d="M1.97119 36.9336C0.341187 33.2836 -0.448811 29.1036 0.661189 25.2636C1.77119 21.4236 5.07118 18.0736 9.06118 17.7236" fill="#2855AF"/>
<path d="M7.72984 17.9541C7.72984 18.0241 7.05982 18.5641 6.10982 19.6541C4.86175 21.057 3.81814 22.6292 3.00984 24.3241C2.25252 26.0517 1.60458 27.8252 1.06984 29.6341C0.902562 30.4051 0.682029 31.1636 0.409836 31.9041C0.385329 31.1066 0.486557 30.3101 0.709824 29.5441C1.14594 27.6781 1.75525 25.8569 2.52983 24.1041C3.35836 22.3609 4.47769 20.7715 5.83983 19.4041C6.36658 18.7993 7.00926 18.3063 7.72984 17.9541V17.9541Z" fill="#7CCCDB"/>
<path d="M93.9199 36.9336C95.5499 33.2836 96.3399 29.1036 95.2299 25.2636C94.1199 21.4236 90.8198 18.0736 86.8398 17.7236" fill="#2855AF"/>
<path d="M88.1587 17.9541C88.8818 18.3022 89.5252 18.7958 90.0487 19.4041C91.4136 20.7692 92.5332 22.3591 93.3587 24.1041C94.1333 25.8569 94.7426 27.6781 95.1787 29.5441C95.402 30.3101 95.5032 31.1066 95.4787 31.9041C95.2122 31.1617 94.9918 30.4036 94.8187 29.6341C94.288 27.8252 93.6434 26.0516 92.8887 24.3241C92.0737 22.6307 91.0269 21.059 89.7787 19.6541C88.8287 18.5741 88.1087 18.0241 88.1587 17.9541Z" fill="#7CCCDB"/>
<path d="M1.01043 37.7533L1.01086 37.7511C2.331 31.1008 5.40541 21.8233 12.5644 14.2779C19.7081 6.74862 30.9644 0.89556 48.7532 1.15373L48.7534 1.15373C67.4192 1.41691 78.4346 8.00039 84.945 16.0092C91.4727 24.0393 93.5225 33.5656 94.1227 39.7818L94.1228 39.7828C94.3691 42.2814 94.1188 44.8039 93.3864 47.2054C92.6539 49.6067 91.4538 51.8394 89.8551 53.7751C84.3665 60.4026 72.6417 69.0637 48.7607 69.0538H48.76C25.0957 69.0737 12.4368 61.1815 6.01681 54.7031C3.86152 52.5018 2.27827 49.806 1.4055 46.8515C0.532604 43.8966 0.396944 40.7728 1.01043 37.7533Z" fill="#7CCCDB" stroke="#2855AF"/>
<path d="M32.0117 2.22363C32.1025 2.36302 32.1732 2.51452 32.2217 2.67365L32.7417 3.99364C33.1917 5.13364 33.8217 6.79364 34.8017 8.74364C35.9116 11.0381 37.4335 13.1091 39.2917 14.8536C41.54 17.0186 44.5406 18.2267 47.6617 18.2236C50.7729 18.0372 53.7342 16.8239 56.0817 14.7736C57.9934 13.0866 59.5973 11.08 60.8217 8.84364C61.6634 7.33628 62.4147 5.7802 63.0717 4.18364C63.2947 3.58606 63.5518 3.00176 63.8417 2.43364C63.8297 2.59936 63.7891 2.76176 63.7217 2.91364C63.6217 3.22364 63.4717 3.68363 63.2617 4.25363C62.6705 5.89246 61.962 7.48659 61.1417 9.02364C59.941 11.3309 58.3316 13.4011 56.3917 15.1336C53.9761 17.2871 50.9026 18.5594 47.6717 18.7436C45.9967 18.7848 44.3344 18.4428 42.8117 17.7436C41.4041 17.1035 40.1078 16.2427 38.9717 15.1936C37.0838 13.3959 35.5564 11.2542 34.4717 8.88364C33.7306 7.31225 33.0894 5.69572 32.5517 4.04364C32.3517 3.45697 32.2117 3.00697 32.1317 2.69363C32.077 2.54108 32.0369 2.38372 32.0117 2.22363Z" fill="#2855AF"/>
<path d="M72.4993 53.5741C55.0593 57.8341 38.0393 57.9941 21.4993 53.7541C18.471 52.9663 15.7908 51.1935 13.8808 48.715C11.9708 46.2366 10.9395 43.1931 10.9493 40.0641V39.8241C10.9493 37.9645 11.3155 36.1232 12.0271 34.4053C12.7387 32.6873 13.7818 31.1263 15.0967 29.8114C16.4115 28.4966 17.9725 27.4535 19.6905 26.7419C21.4084 26.0303 23.2497 25.6641 25.1093 25.6641H69.1093C70.9688 25.6641 72.8101 26.0303 74.5281 26.7419C76.2461 27.4535 77.807 28.4966 79.1219 29.8114C80.4368 31.1263 81.4798 32.6873 82.1914 34.4053C82.903 36.1232 83.2693 37.9645 83.2693 39.8241V39.8241C83.2714 42.9905 82.2114 46.0662 80.2589 48.559C78.3063 51.0518 75.5741 52.8177 72.4993 53.5741V53.5741Z" fill="#2855AF"/>
<path d="M34.0786 42.514C33.978 43.1404 33.694 43.723 33.2625 44.1881C32.8309 44.6533 32.2713 44.9801 31.6541 45.1273C31.037 45.2745 30.3901 45.2356 29.7951 45.0154C29.2001 44.7952 28.6836 44.4036 28.311 43.89C27.9384 43.3765 27.7264 42.7641 27.7017 42.1301C27.6769 41.4961 27.8406 40.869 28.1721 40.328C28.5035 39.787 28.9878 39.3564 29.5639 39.0905C30.1399 38.8246 30.7819 38.7353 31.4086 38.834C31.8258 38.8997 32.226 39.0471 32.5862 39.2678C32.9463 39.4884 33.2593 39.778 33.5074 40.1198C33.7554 40.4617 33.9336 40.8492 34.0316 41.26C34.1296 41.6708 34.1456 42.097 34.0786 42.514Z" fill="white"/>
<path d="M70.8596 40.6542C70.7586 41.281 70.4741 41.8637 70.0419 42.3287C69.6098 42.7937 69.0495 43.1202 68.4318 43.2668C67.8142 43.4134 67.1669 43.3736 66.5719 43.1524C65.9769 42.9312 65.4608 42.5385 65.0889 42.0241C64.7171 41.5096 64.5061 40.8964 64.4827 40.262C64.4592 39.6276 64.6244 39.0005 64.9574 38.46C65.2903 37.9195 65.7761 37.4899 66.3532 37.2254C66.9303 36.961 67.5728 36.8735 68.1996 36.9742C68.6159 37.0411 69.015 37.1894 69.374 37.4105C69.733 37.6317 70.045 37.9214 70.292 38.2631C70.539 38.6049 70.7163 38.992 70.8137 39.4022C70.9111 39.8125 70.9267 40.2379 70.8596 40.6542V40.6542Z" fill="white"/>
<path d="M56.7395 41.0635C56.8831 42.0177 56.7148 42.9927 56.2596 43.8435C55.8323 44.801 55.1847 45.6439 54.3695 46.3035C53.3784 47.0997 52.1677 47.5742 50.8995 47.6635C49.6427 47.7636 48.3856 47.4738 47.2995 46.8335C46.4194 46.2971 45.6818 45.5561 45.1495 44.6735C44.5959 43.8889 44.318 42.9428 44.3595 41.9835C44.6647 42.8267 45.0533 43.6374 45.5195 44.4035C46.0606 45.1794 46.7678 45.825 47.5895 46.2935C48.5859 46.8468 49.7234 47.0938 50.8595 47.0035C52.005 46.9249 53.1029 46.5149 54.0195 45.8235C54.7805 45.2355 55.4077 44.4924 55.8595 43.6435C56.2282 42.811 56.5226 41.9477 56.7395 41.0635V41.0635Z" fill="white"/>
</svg>
