<svg width="55" height="55" viewBox="0 0 55 55" fill="none" xmlns="http://www.w3.org/2000/svg">
<g clip-path="url(#clip0)">
<path d="M27.1807 43.693C26.8873 43.693 26.594 43.5807 26.3694 43.3584L11.6409 28.6299C11.21 28.1991 11.1917 27.5093 11.595 27.0555L22.634 14.6897C30.35 5.66282 42.9153 -0.178641 53.8717 0.00698371C54.4836 0.0207337 54.9763 0.513442 54.99 1.12532C55.2444 12.0887 49.3365 24.647 40.2867 32.3791L27.9415 43.402C27.7261 43.5968 27.4511 43.693 27.1807 43.693ZM14.0265 27.7751L27.2242 40.9728L38.7811 30.6557C47.0448 23.5928 52.5334 12.3362 52.703 2.29636C42.6632 2.46365 31.4088 7.95219 24.3596 16.1976L14.0265 27.7751Z" fill="#2855AF"/>
<path d="M31.5693 52.0806C31.4593 52.0806 31.3471 52.0645 31.2416 52.0302C30.8291 51.8927 30.49 51.5764 30.4304 51.1456L28.8583 40.1754C28.7689 39.5497 29.2044 38.9699 29.83 38.8783C30.4556 38.7797 31.0354 39.222 31.1271 39.8499L32.3554 48.4208C36.3704 43.6197 38.6025 37.5331 38.6025 31.3272C38.6025 30.6947 39.1158 30.1814 39.7483 30.1814C40.3808 30.1814 40.8941 30.6947 40.8941 31.3272C40.8941 38.9195 37.8187 46.3514 32.4562 51.7116C32.2271 51.9408 31.8925 52.0806 31.5693 52.0806Z" fill="#2855AF"/>
<path d="M14.9897 26.1525C14.937 26.1525 14.882 26.1502 14.827 26.1411L3.85677 24.569C3.42594 24.5071 3.06615 24.2069 2.93094 23.7921C2.79573 23.3796 2.90573 22.9236 3.21511 22.6188C8.65323 17.1806 16.0828 14.1052 23.6751 14.1052C24.3076 14.1052 24.8209 14.6186 24.8209 15.2511C24.8209 15.8836 24.3076 16.3969 23.6751 16.3969C17.4395 16.3969 11.3207 18.6496 6.57011 22.6417L15.1524 23.8723C15.778 23.964 16.2134 24.5415 16.1241 25.1694C16.0393 25.74 15.5489 26.1525 14.9897 26.1525Z" fill="#2855AF"/>
<path d="M39.2628 21.4636C37.7939 21.4636 36.3272 20.9044 35.2112 19.7884C32.9791 17.554 32.9791 13.9194 35.2112 11.6851C37.4455 9.45068 41.0801 9.45068 43.3145 11.6851C45.5466 13.9194 45.5466 17.554 43.3145 19.7884C42.1962 20.9067 40.7295 21.4636 39.2628 21.4636ZM39.2628 12.3015C38.3828 12.3015 37.5005 12.6361 36.8314 13.3053C35.493 14.6459 35.493 16.8276 36.8314 18.1682C38.172 19.5065 40.3537 19.5042 41.6943 18.1682C43.0326 16.8276 43.0326 14.6459 41.6943 13.3053C41.0228 12.6384 40.1428 12.3015 39.2628 12.3015ZM42.5033 18.9794H42.5262H42.5033Z" fill="#7CCCDB"/>
<path d="M1.14535 54.9999C0.845142 54.9999 0.554101 54.8831 0.334101 54.6654C0.0361839 54.3674 -0.0738161 53.9297 0.0476422 53.5264C0.423476 52.2729 3.78993 41.1949 6.24202 38.7429C9.00348 35.9814 13.4974 35.9791 16.2589 38.7429C19.0203 41.5043 19.0203 45.9983 16.2589 48.7597C13.8068 51.2118 2.72889 54.5783 1.47535 54.9541C1.36535 54.9839 1.25535 54.9999 1.14535 54.9999ZM11.2516 38.9606C10.0233 38.9606 8.79722 39.4281 7.86223 40.3608C6.53993 41.6854 4.33993 47.6001 2.88702 52.1124C7.39702 50.6595 13.3141 48.4595 14.6364 47.1372C16.5041 45.2695 16.5041 42.2285 14.6364 40.3608C13.7037 39.4281 12.4776 38.9606 11.2516 38.9606Z" fill="#7CCCDB"/>
</g>
<defs>
<clipPath id="clip0">
<rect width="55" height="55" fill="white"/>
</clipPath>
</defs>
</svg>
