<svg width="55" height="55" viewBox="0 0 55 55" fill="none" xmlns="http://www.w3.org/2000/svg">
<g clip-path="url(#clip0)">
<path d="M53.8541 52.7083H1.14587C0.513369 52.7083 0 53.2215 0 53.854C0 54.4865 0.513369 54.9999 1.14587 54.9999H53.8542C54.4867 54.9999 55.0001 54.4865 55.0001 53.854C55 53.2215 54.4866 52.7083 53.8541 52.7083Z" fill="#2855AF"/>
<path d="M10.3138 38.9583H3.43884C2.80634 38.9583 2.29297 39.4716 2.29297 40.1041V53.8541C2.29297 54.4865 2.80634 54.9999 3.43884 54.9999H10.3138C10.9463 54.9999 11.4597 54.4865 11.4597 53.854V40.104C11.4597 39.4715 10.9463 38.9583 10.3138 38.9583ZM9.16797 52.7083H4.58471V41.2499H9.16808V52.7083H9.16797Z" fill="#2855AF"/>
<path d="M24.0638 27.5H17.1888C16.5563 27.5 16.043 28.0134 16.043 28.6459V53.8542C16.043 54.4867 16.5563 55.0001 17.1888 55.0001H24.0638C24.6963 55.0001 25.2097 54.4867 25.2097 53.8542V28.6459C25.2097 28.0134 24.6963 27.5 24.0638 27.5ZM22.918 52.7084H18.3346V29.7916H22.918V52.7084Z" fill="#2855AF"/>
<path d="M37.8138 32.0833H30.9388C30.3063 32.0833 29.793 32.5966 29.793 33.2291V53.8541C29.793 54.4866 30.3063 55 30.9388 55H37.8138C38.4463 55 38.9597 54.4866 38.9597 53.8541V33.2291C38.9597 32.5965 38.4463 32.0833 37.8138 32.0833ZM36.668 52.7083H32.0846V34.3749H36.668V52.7083Z" fill="#2855AF"/>
<path d="M51.5638 18.3335H44.6888C44.0563 18.3335 43.543 18.8469 43.543 19.4794V53.8544C43.543 54.4869 44.0563 55.0002 44.6888 55.0002H51.5638C52.1963 55.0002 52.7097 54.4869 52.7097 53.8544V19.4794C52.7097 18.8468 52.1963 18.3335 51.5638 18.3335ZM50.418 52.7085H45.8346V20.6251H50.418V52.7085Z" fill="#2855AF"/>
<path d="M6.87634 20.625C4.34859 20.625 2.29297 22.6806 2.29297 25.2084C2.29297 27.7361 4.34859 29.7917 6.87634 29.7917C9.40408 29.7917 11.4597 27.7361 11.4597 25.2084C11.4597 22.6806 9.40408 20.625 6.87634 20.625ZM6.87634 27.5C5.61134 27.5 4.58471 26.471 4.58471 25.2084C4.58471 23.9456 5.61134 22.9167 6.87634 22.9167C8.14134 22.9167 9.16797 23.9457 9.16797 25.2084C9.16797 26.471 8.14134 27.5 6.87634 27.5Z" fill="#7CCCDB"/>
<path d="M20.6263 9.1665C18.0986 9.1665 16.043 11.2221 16.043 13.7499C16.043 16.2776 18.0986 18.3332 20.6263 18.3332C23.1541 18.3332 25.2097 16.2776 25.2097 13.7499C25.2097 11.2221 23.1541 9.1665 20.6263 9.1665ZM20.6263 16.0415C19.3613 16.0415 18.3347 15.0125 18.3347 13.7499C18.3347 12.4871 19.3613 11.4582 20.6263 11.4582C21.8913 11.4582 22.918 12.4872 22.918 13.7499C22.918 15.0126 21.8913 16.0415 20.6263 16.0415Z" fill="#7CCCDB"/>
<path d="M34.3763 13.75C31.8486 13.75 29.793 15.8056 29.793 18.3334C29.793 20.8611 31.8486 22.9167 34.3763 22.9167C36.9041 22.9167 38.9597 20.8611 38.9597 18.3334C38.9597 15.8056 36.9041 13.75 34.3763 13.75ZM34.3763 20.625C33.1113 20.625 32.0847 19.596 32.0847 18.3334C32.0847 17.0706 33.1113 16.0417 34.3763 16.0417C35.6413 16.0417 36.668 17.0707 36.668 18.3334C36.668 19.596 35.6413 20.625 34.3763 20.625Z" fill="#7CCCDB"/>
<path d="M48.1263 0C45.5986 0 43.543 2.05562 43.543 4.58337C43.543 7.11111 45.5986 9.16674 48.1263 9.16674C50.6541 9.16674 52.7097 7.11111 52.7097 4.58337C52.7097 2.05562 50.6541 0 48.1263 0ZM48.1263 6.875C46.8613 6.875 45.8347 5.84601 45.8347 4.58337C45.8347 3.32063 46.8613 2.29174 48.1263 2.29174C49.3913 2.29174 50.418 3.32073 50.418 4.58337C50.418 5.84601 49.3913 6.875 48.1263 6.875Z" fill="#7CCCDB"/>
<path d="M46.5072 6.20137C46.0603 5.75449 45.3338 5.75449 44.8869 6.20137L35.9953 15.093C35.5484 15.5399 35.5484 16.2664 35.9953 16.7132C36.2199 16.9355 36.5132 17.0479 36.8066 17.0479C37.0976 17.0479 37.3909 16.9379 37.6156 16.7132L46.5072 7.82161C46.9541 7.37474 46.9541 6.64824 46.5072 6.20137Z" fill="#7CCCDB"/>
<path d="M31.6045 15.6887L24.2436 13.5896C23.6271 13.4108 23.0015 13.7683 22.8296 14.3779C22.6555 14.9875 23.0084 15.62 23.6156 15.7942L30.9765 17.8933C31.0819 17.9231 31.1874 17.9368 31.2905 17.9368C31.7901 17.9368 32.2484 17.6091 32.3927 17.1049C32.567 16.4977 32.2141 15.8628 31.6045 15.6887Z" fill="#7CCCDB"/>
<path d="M18.8367 15.1777C18.4426 14.6827 17.723 14.6024 17.228 14.9943L8.58834 21.8831C8.09334 22.2796 8.01084 22.9991 8.40733 23.4941C8.63421 23.7782 8.96883 23.9249 9.30334 23.9249C9.55309 23.9249 9.80521 23.8424 10.0161 23.6774L18.6557 16.7887C19.1507 16.3922 19.2332 15.6727 18.8367 15.1777Z" fill="#7CCCDB"/>
</g>
<defs>
<clipPath id="clip0">
<rect width="55" height="55" fill="white"/>
</clipPath>
</defs>
</svg>
