<svg width="55" height="55" viewBox="0 0 55 55" fill="none" xmlns="http://www.w3.org/2000/svg">
<path d="M33.5521 39.1045C33.5057 38.3359 33.1688 37.6011 32.6033 37.0358L28.5231 32.9548C29.1822 32.7462 29.777 32.3873 30.2615 31.9029L30.3653 31.7991C32.1634 30.0009 32.0191 26.9312 30.0438 24.9557C29.1038 24.0158 27.888 23.4562 26.6202 23.3796C25.3028 23.3 24.0889 23.7457 23.2005 24.6343L23.0967 24.738C22.612 25.2226 22.253 25.8176 22.0445 26.477L17.9638 22.3961C16.7613 21.1937 14.8773 21.121 13.7638 22.2342L10.0654 25.9328C9.6128 26.3853 9.4246 27.0432 9.56188 27.6923C9.7112 28.3982 10.2035 28.9754 10.8789 29.2363C11.3052 29.4011 11.6918 29.6549 12.0277 29.9908L12.1449 30.108C12.7132 30.6763 13.0509 31.3986 13.0957 32.142C13.1377 32.8363 12.9142 33.4654 12.4665 33.9131C12.0187 34.3609 11.3894 34.5849 10.6953 34.5423C9.95193 34.4975 9.22952 34.1598 8.66137 33.5915L8.54417 33.4743C8.20826 33.1384 7.95443 32.7518 7.78964 32.3255C7.52871 31.6501 6.95154 31.1578 6.24556 31.0084C5.59641 30.8712 4.93856 31.0594 4.48589 31.5119L0.791658 35.2064C-0.321553 36.3197 -0.249043 38.2037 0.953542 39.4062L5.03428 43.4871C4.37492 43.6957 3.77991 44.0547 3.29533 44.5392L3.19146 44.643C1.39343 46.4412 1.5377 49.511 3.51308 51.4865C4.56184 52.5351 5.91857 53.0678 7.23008 53.0676C8.38916 53.0676 9.5129 52.6514 10.3564 51.8079L10.4602 51.7041C10.9448 51.2195 11.3037 50.6246 11.5123 49.965L15.5931 54.0459C16.1585 54.6114 16.8933 54.9482 17.6619 54.9947C17.7208 54.9983 17.7795 55.0001 17.8381 55.0001C18.5799 55.0001 19.2845 54.7164 19.7931 54.2078L23.3109 50.69C23.5842 51.3545 23.9864 51.9548 24.5072 52.4759L24.6244 52.5931C26.5998 54.5684 29.6697 54.7127 31.4678 52.9146C33.266 51.1165 33.1217 48.0466 31.1463 46.0712L31.0291 45.954C30.5081 45.433 29.9079 45.031 29.2432 44.7577L32.7652 41.2357C33.314 40.6868 33.6008 39.9102 33.5521 39.1045ZM31.2461 39.7166L27.5477 43.415C27.0952 43.8676 26.9069 44.5253 27.0442 45.1745C27.1934 45.8804 27.6857 46.4576 28.3612 46.7186C28.7876 46.8834 29.1742 47.1373 29.5101 47.4733L29.6273 47.5905C30.765 48.7282 30.9092 50.435 29.9488 51.3955C28.9884 52.3559 27.2813 52.2117 26.1438 51.074L26.0266 50.9568C25.6907 50.6208 25.4368 50.2342 25.272 49.808C25.011 49.1325 24.4338 48.6402 23.7278 48.491C23.0785 48.3537 22.4208 48.542 21.9683 48.9945L18.2741 52.6888C18.1254 52.8375 17.9297 52.8592 17.7916 52.8504C17.551 52.8359 17.3035 52.7179 17.1124 52.5269L15.4754 50.8899L19.0403 47.325C19.4598 46.9056 19.4598 46.2254 19.0403 45.8058C18.6209 45.3862 17.9407 45.3863 17.5211 45.8058L13.9562 49.3707L12.8438 48.2583C12.437 47.8515 11.9012 47.6314 11.3612 47.6314C11.1745 47.6314 10.9872 47.6578 10.8045 47.7119C10.1441 47.9075 9.66404 48.4273 9.52042 49.1024C9.43018 49.5264 9.23521 49.8906 8.94088 50.1849L8.837 50.2887C7.87665 51.2492 6.16951 51.1049 5.03202 49.9672C3.89432 48.8295 3.75005 47.1227 4.7104 46.1622L4.81428 46.0583C5.10861 45.764 5.47277 45.569 5.89676 45.4788C6.57202 45.3352 7.09183 44.855 7.28744 44.1945C7.49778 43.4841 7.2883 42.7028 6.74099 42.1555L2.4727 37.8869C2.2816 37.6959 2.16375 37.4483 2.14914 37.2078C2.14077 37.0697 2.16214 36.874 2.31071 36.7252L5.82844 33.2075C6.10172 33.872 6.50391 34.4723 7.0248 34.9934L7.142 35.1106C9.11748 37.0859 12.1873 37.2301 13.9855 35.4321C15.7835 33.6339 15.6394 30.5642 13.6639 28.5887L13.5467 28.4715C13.0257 27.9505 12.4254 27.5484 11.7608 27.2751L15.2827 23.7532C15.5539 23.4823 16.0858 23.5564 16.4444 23.9151L20.7129 28.1835C21.2602 28.7309 22.0415 28.9403 22.752 28.7299C23.4124 28.5344 23.8925 28.0145 24.0362 27.3392C24.1263 26.9154 24.3213 26.5512 24.6157 26.2569L24.7196 26.153C25.1673 25.7054 25.7962 25.4819 26.4908 25.5238C27.2341 25.5686 27.9566 25.9063 28.5247 26.4746C29.6624 27.6124 29.8067 29.3193 28.8462 30.2796L28.7424 30.3835C28.4481 30.6778 28.084 30.8728 27.6601 30.963C26.9848 31.1066 26.4649 31.5867 26.2693 32.2472C26.0589 32.9576 26.2683 33.739 26.8157 34.2864L31.0842 38.5549C31.2752 38.7459 31.3932 38.9934 31.4077 39.2339C31.4161 39.3721 31.3948 39.5678 31.2461 39.7166Z" fill="#7CCCDB"/>
<path d="M21.7966 43.0503C21.5968 42.8505 21.3196 42.7356 21.0371 42.7356C20.7546 42.7356 20.4774 42.8505 20.2776 43.0503C20.0778 43.2501 19.9629 43.5273 19.9629 43.8098C19.9629 44.0923 20.0778 44.3695 20.2776 44.5693C20.4774 44.7691 20.7535 44.884 21.0371 44.884C21.3196 44.884 21.5968 44.7691 21.7966 44.5693C21.9964 44.3695 22.1113 44.0923 22.1113 43.8098C22.1113 43.5273 21.9964 43.2501 21.7966 43.0503Z" fill="#7CCCDB"/>
<path d="M44.6071 13.6421C44.4073 13.4423 44.1302 13.3274 43.8477 13.3274C43.5651 13.3274 43.288 13.4423 43.0882 13.6421C42.8884 13.8419 42.7734 14.1191 42.7734 14.4016C42.7734 14.6841 42.8884 14.9613 43.0882 15.1611C43.288 15.3609 43.5651 15.4758 43.8477 15.4758C44.1302 15.4758 44.4073 15.3609 44.6071 15.1611C44.8069 14.9613 44.9219 14.6841 44.9219 14.4016C44.9219 14.1191 44.8069 13.8419 44.6071 13.6421Z" fill="#2855AF"/>
<path d="M52.6522 24.6888C52.0686 24.1052 51.3625 23.6587 50.6034 23.3923L54.2046 19.7911C54.7535 19.2424 55.0403 18.4655 54.9916 17.6599C54.9452 16.8913 54.6082 16.1565 54.0428 15.591L50.0426 11.5902C50.6066 11.3749 51.1194 11.0444 51.5424 10.6213L51.6463 10.5174C53.4443 8.71929 53.3001 5.6495 51.3247 3.67402C49.3494 1.69875 46.2795 1.55448 44.4813 3.3525L44.3774 3.45638C43.9542 3.87962 43.6237 4.39256 43.4083 4.95674L39.4031 0.951631C38.2005 -0.250954 36.3166 -0.323571 35.2031 0.789747L31.6019 4.39095C31.3355 3.63191 30.8891 2.92583 30.3055 2.3422L30.1883 2.22501C28.2129 0.249631 25.143 0.105471 23.3449 1.90349C21.5468 3.70162 21.691 6.77152 23.6663 8.74668L23.7837 8.86409C24.3672 9.44761 25.0733 9.89405 25.8324 10.1606L22.2311 13.7618C21.1178 14.8751 21.1904 16.759 22.3933 17.962L26.6656 22.231C27.2131 22.7784 27.9947 22.9877 28.7048 22.7774C29.3652 22.5818 29.8453 22.0619 29.989 21.3868C30.0791 20.9629 30.2741 20.5987 30.5685 20.3044L30.6724 20.2005C31.1202 19.7528 31.7503 19.529 32.4436 19.5712C33.1869 19.6161 33.9092 19.9539 34.4775 20.5221C35.0458 21.0904 35.3834 21.8127 35.4283 22.5561C35.4703 23.2505 35.2468 23.8796 34.799 24.3273L34.6953 24.4311C34.4009 24.7254 34.0368 24.9204 33.6129 25.0106C32.9376 25.1543 32.4178 25.6343 32.2222 26.2948C32.0119 27.005 32.2211 27.7862 32.7683 28.3336L37.0329 32.6015C37.6646 33.2332 38.4843 33.5531 39.2817 33.5531C40.0022 33.5531 40.7044 33.2919 41.2329 32.7634L44.8341 29.1622C45.1005 29.9211 45.547 30.6273 46.1305 31.2108L46.2478 31.3281C48.2233 33.3035 51.2931 33.4476 53.0912 31.6496C54.8892 29.8515 54.7451 26.7816 52.7697 24.8062L52.6522 24.6888ZM51.5716 30.1301C50.6113 31.0906 48.9042 30.9463 47.7666 29.8086L47.6494 29.6914C47.2752 29.3173 46.9947 28.8649 46.8384 28.3834C46.6112 27.6838 46.0256 27.1425 45.3099 26.9706C44.6419 26.8103 43.9636 26.9937 43.4957 27.4617L39.7135 31.2439C39.5647 31.3926 39.3687 31.414 39.2309 31.4054C38.9904 31.3909 38.7429 31.273 38.5521 31.0822L34.475 27.002C35.1345 26.7934 35.7295 26.4344 36.2141 25.9499L36.3179 25.8461C37.2065 24.9575 37.652 23.7428 37.5725 22.4263C37.496 21.1584 36.9363 19.9425 35.9965 19.0028C35.0566 18.063 33.8408 17.5032 32.5729 17.4266C31.2557 17.3475 30.0416 17.7927 29.1532 18.6811L29.0493 18.785C28.5647 19.2697 28.2057 19.8647 27.9972 20.5241L23.9124 16.4424C23.7213 16.2514 23.6034 16.0038 23.5888 15.7632C23.5804 15.6252 23.6018 15.4294 23.7504 15.2807L27.5327 11.4985C28.0006 11.0306 28.1841 10.3523 28.0237 9.68415C27.8517 8.96851 27.3104 8.38284 26.611 8.15575C26.1296 7.99935 25.6772 7.71887 25.3032 7.34483L25.1858 7.22742C24.048 6.08971 23.9038 4.38289 24.8642 3.42244C25.8245 2.46198 27.5316 2.60614 28.6692 3.74395L28.7864 3.86115C29.1607 4.2353 29.4412 4.68765 29.5976 5.16922C29.8248 5.86875 30.4104 6.41005 31.1261 6.58181C31.7941 6.74219 32.4724 6.55861 32.9403 6.09079L36.7224 2.30858C36.9935 2.03777 37.5254 2.11178 37.8841 2.47047L42.0578 6.64433C42.5869 7.17338 43.3463 7.38919 44.0395 7.20701C44.6829 7.03814 45.1736 6.55549 45.3519 5.91601C45.4536 5.55164 45.6369 5.23518 45.8966 4.97543L46.0005 4.87155C46.9608 3.9111 48.6679 4.05526 49.8055 5.19307C50.9432 6.33077 51.0875 8.03759 50.127 8.99805L50.0231 9.10192C49.7634 9.36178 49.4469 9.54504 49.0827 9.64666C48.4432 9.82509 47.9605 10.3157 47.7917 10.959C47.6097 11.6523 47.8253 12.4117 48.3543 12.9409L52.5235 17.11C52.7146 17.301 52.8324 17.5486 52.847 17.7891C52.8554 17.9271 52.834 18.123 52.6854 18.2716L50.9615 19.9956L47.4015 16.4355C46.9819 16.016 46.3018 16.016 45.8824 16.4355C45.4629 16.855 45.4628 17.5352 45.8824 17.9546L49.4423 21.5147L48.9031 22.054C48.4352 22.5219 48.2517 23.2002 48.412 23.8682C48.5839 24.5839 49.1252 25.1695 49.8246 25.3967C50.3062 25.5531 50.7584 25.8336 51.1327 26.2078L51.2499 26.325C52.3879 27.4629 52.5321 29.1699 51.5716 30.1301Z" fill="#2855AF"/>
</svg>
