<svg width="40" height="40" viewBox="0 0 40 40" fill="none" xmlns="http://www.w3.org/2000/svg">
<path d="M25.1981 19.4179L17.6119 14.5903C17.3995 14.4559 17.1305 14.4469 16.9091 14.5676C16.6891 14.689 16.5519 14.9207 16.5519 15.1724V24.8276C16.5519 25.0793 16.6891 25.311 16.9098 25.4324C17.0133 25.489 17.1271 25.5172 17.2415 25.5172C17.3705 25.5172 17.4995 25.4807 17.6119 25.4097L25.1981 20.5821C25.3967 20.4552 25.5174 20.2359 25.5174 20C25.5174 19.7641 25.3967 19.5448 25.1981 19.4179ZM17.9312 23.5717V16.4283L23.5429 20L17.9312 23.5717Z" fill="white"/>
<path d="M39.3103 4.13794H32.4138H7.58621H0.689655C0.308966 4.13794 0 4.44622 0 4.82759V12.4138V20V27.5862V35.1724C0 35.5538 0.308966 35.8621 0.689655 35.8621H7.58621H32.4138H39.3103C39.691 35.8621 40 35.5538 40 35.1724V27.5862V20V12.4138V4.82759C40 4.44622 39.691 4.13794 39.3103 4.13794ZM6.89655 19.3104H1.37931V13.1035H6.89655V19.3104ZM1.37931 20.6897H6.89655V26.8966H1.37931V20.6897ZM8.27586 27.5862V20V12.4138V5.51725H31.7241V12.4138V20V27.5862V34.4828H8.27586V27.5862ZM38.6207 19.3104H33.1034V13.1035H38.6207V19.3104ZM33.1034 20.6897H38.6207V26.8966H33.1034V20.6897ZM38.6207 5.51725V11.7241H33.1034V5.51725H38.6207ZM1.37931 5.51725H6.89655V11.7241H1.37931V5.51725ZM1.37931 34.4828V28.2759H6.89655V34.4828H1.37931ZM38.6207 34.4828H33.1034V28.2759H38.6207V34.4828Z" fill="white"/>
</svg>
