<svg width="539" height="446" viewBox="0 0 539 446" fill="none" xmlns="http://www.w3.org/2000/svg">
<g clip-path="url(#clip0)">
<path d="M301.804 -0.0419922H53.6289V314.757H301.804V-0.0419922Z" fill="white" stroke="#2855AF" stroke-linecap="round" stroke-linejoin="round"/>
<path d="M301.804 -0.0419922H53.6289V18.7407H301.804V-0.0419922Z" fill="#2855AF" stroke="#2855AF" stroke-width="0.75" stroke-linecap="round" stroke-linejoin="round"/>
<path d="M102.647 219.515H60.6973V308.551H102.647V219.515Z" fill="#7CCCDB"/>
<path opacity="0.6" d="M102.647 219.515H60.6973V308.551H102.647V219.515Z" fill="white"/>
<path d="M148.393 219.515H106.443V308.551H148.393V219.515Z" fill="#7CCCDB"/>
<path opacity="0.6" d="M148.393 219.515H106.443V308.551H148.393V219.515Z" fill="white"/>
<path d="M196.998 219.515H155.049V308.551H196.998V219.515Z" fill="#7CCCDB"/>
<path opacity="0.6" d="M196.998 219.515H155.049V308.551H196.998V219.515Z" fill="white"/>
<path d="M245.594 219.515H203.645V308.551H245.594V219.515Z" fill="#7CCCDB"/>
<path opacity="0.6" d="M245.594 219.515H203.645V308.551H245.594V219.515Z" fill="white"/>
<path d="M295.379 219.515H253.43V308.551H295.379V219.515Z" fill="white" stroke="#2855AF" stroke-width="0.75" stroke-linecap="round" stroke-linejoin="round"/>
<path d="M294.707 7.38379H60.7109V28.9613H294.707V7.38379Z" fill="#7CCCDB"/>
<path opacity="0.6" d="M294.707 7.38379H60.7109V28.9613H294.707V7.38379Z" fill="white"/>
<path d="M291.42 11.5752H64.918V21.1241H291.42V11.5752Z" fill="white"/>
<path d="M291.406 11.5752H265.76V21.1241H291.406V11.5752Z" fill="#2855AF" stroke="#2855AF" stroke-width="0.75" stroke-linecap="round" stroke-linejoin="round"/>
<path d="M164.86 48.3055H116.91C116.42 48.3055 115.949 48.1106 115.602 47.7638C115.255 47.4169 115.061 46.9465 115.061 46.4559C115.061 45.9654 115.255 45.495 115.602 45.1482C115.949 44.8013 116.42 44.6064 116.91 44.6064H164.86C165.351 44.6064 165.821 44.8013 166.168 45.1482C166.515 45.495 166.71 45.9654 166.71 46.4559C166.71 46.9465 166.515 47.4169 166.168 47.7638C165.821 48.1106 165.351 48.3055 164.86 48.3055V48.3055Z" fill="#2855AF"/>
<path d="M164.859 61.197H116.909C116.654 61.2191 116.396 61.1878 116.154 61.1052C115.911 61.0226 115.688 60.8905 115.5 60.7172C115.311 60.544 115.16 60.3334 115.057 60.0987C114.954 59.8641 114.9 59.6107 114.9 59.3544C114.9 59.0981 114.954 58.8446 115.057 58.61C115.16 58.3754 115.311 58.1648 115.5 57.9915C115.688 57.8183 115.911 57.6861 116.154 57.6035C116.396 57.521 116.654 57.4897 116.909 57.5117H164.859C165.32 57.5515 165.75 57.7629 166.063 58.1041C166.376 58.4452 166.549 58.8914 166.549 59.3544C166.549 59.8174 166.376 60.2635 166.063 60.6047C165.75 60.9458 165.32 61.1572 164.859 61.197Z" fill="#2855AF"/>
<path d="M164.86 74.1023H116.91C116.42 74.1023 115.949 73.9074 115.602 73.5606C115.255 73.2137 115.061 72.7433 115.061 72.2528C115.061 71.7623 115.255 71.2919 115.602 70.945C115.949 70.5982 116.42 70.4033 116.91 70.4033H164.86C165.351 70.4033 165.821 70.5982 166.168 70.945C166.515 71.2919 166.71 71.7623 166.71 72.2528C166.71 72.7433 166.515 73.2137 166.168 73.5606C165.821 73.9074 165.351 74.1023 164.86 74.1023Z" fill="#2855AF"/>
<path d="M164.86 86.9939H65.3428C64.8815 86.9541 64.452 86.7427 64.139 86.4015C63.826 86.0604 63.6523 85.6142 63.6523 85.1512C63.6523 84.6883 63.826 84.2421 64.139 83.9009C64.452 83.5598 64.8815 83.3484 65.3428 83.3086H164.86C165.321 83.3484 165.75 83.5598 166.063 83.9009C166.376 84.2421 166.55 84.6883 166.55 85.1512C166.55 85.6142 166.376 86.0604 166.063 86.4015C165.75 86.7427 165.321 86.9541 164.86 86.9939Z" fill="#2855AF"/>
<path d="M164.858 99.8992H65.3417C64.8512 99.8992 64.3807 99.7043 64.0339 99.3575C63.687 99.0106 63.4922 98.5402 63.4922 98.0497C63.4922 97.5592 63.687 97.0888 64.0339 96.7419C64.3807 96.3951 64.8512 96.2002 65.3417 96.2002H164.858C165.349 96.2002 165.819 96.3951 166.166 96.7419C166.513 97.0888 166.708 97.5592 166.708 98.0497C166.708 98.5402 166.513 99.0106 166.166 99.3575C165.819 99.7043 165.349 99.8992 164.858 99.8992Z" fill="#2855AF"/>
<path d="M164.858 112.804H65.3417C64.8512 112.804 64.3807 112.61 64.0339 112.263C63.687 111.916 63.4922 111.445 63.4922 110.955C63.4922 110.464 63.687 109.994 64.0339 109.647C64.3807 109.3 64.8512 109.105 65.3417 109.105H164.858C165.349 109.105 165.819 109.3 166.166 109.647C166.513 109.994 166.708 110.464 166.708 110.955C166.708 111.445 166.513 111.916 166.166 112.263C165.819 112.61 165.349 112.804 164.858 112.804V112.804Z" fill="#2855AF"/>
<path d="M164.86 125.697H65.3428C64.8815 125.657 64.452 125.446 64.139 125.105C63.826 124.764 63.6523 124.317 63.6523 123.854C63.6523 123.391 63.826 122.945 64.139 122.604C64.452 122.263 64.8815 122.052 65.3428 122.012H164.86C165.321 122.052 165.75 122.263 166.063 122.604C166.376 122.945 166.55 123.391 166.55 123.854C166.55 124.317 166.376 124.764 166.063 125.105C165.75 125.446 165.321 125.657 164.86 125.697Z" fill="#2855AF"/>
<path d="M164.86 137.164H65.3428C64.8815 137.124 64.452 136.913 64.139 136.571C63.826 136.23 63.6523 135.784 63.6523 135.321C63.6523 134.858 63.826 134.412 64.139 134.071C64.452 133.73 64.8815 133.518 65.3428 133.479H164.86C165.321 133.518 165.75 133.73 166.063 134.071C166.376 134.412 166.55 134.858 166.55 135.321C166.55 135.784 166.376 136.23 166.063 136.571C165.75 136.913 165.321 137.124 164.86 137.164V137.164Z" fill="#2855AF"/>
<path d="M164.858 150.11H65.3417C64.8512 150.11 64.3807 149.915 64.0339 149.568C63.687 149.222 63.4922 148.751 63.4922 148.261C63.4922 147.77 63.687 147.3 64.0339 146.953C64.3807 146.606 64.8512 146.411 65.3417 146.411H164.858C165.349 146.411 165.819 146.606 166.166 146.953C166.513 147.3 166.708 147.77 166.708 148.261C166.708 148.751 166.513 149.222 166.166 149.568C165.819 149.915 165.349 150.11 164.858 150.11V150.11Z" fill="#2855AF"/>
<path d="M164.86 162.961H65.3428C64.8815 162.921 64.452 162.709 64.139 162.368C63.826 162.027 63.6523 161.581 63.6523 161.118C63.6523 160.655 63.826 160.209 64.139 159.868C64.452 159.527 64.8815 159.315 65.3428 159.275H164.86C165.321 159.315 165.75 159.527 166.063 159.868C166.376 160.209 166.55 160.655 166.55 161.118C166.55 161.581 166.376 162.027 166.063 162.368C165.75 162.709 165.321 162.921 164.86 162.961V162.961Z" fill="#2855AF"/>
<path d="M164.858 175.866H65.3417C64.8512 175.866 64.3807 175.671 64.0339 175.324C63.687 174.977 63.4922 174.507 63.4922 174.016C63.4922 173.526 63.687 173.056 64.0339 172.709C64.3807 172.362 64.8512 172.167 65.3417 172.167H164.858C165.349 172.167 165.819 172.362 166.166 172.709C166.513 173.056 166.708 173.526 166.708 174.016C166.708 174.507 166.513 174.977 166.166 175.324C165.819 175.671 165.349 175.866 164.858 175.866Z" fill="#2855AF"/>
<path d="M164.86 188.758H65.3428C64.8815 188.718 64.452 188.506 64.139 188.165C63.826 187.824 63.6523 187.378 63.6523 186.915C63.6523 186.452 63.826 186.006 64.139 185.665C64.452 185.323 64.8815 185.112 65.3428 185.072H164.86C165.321 185.112 165.75 185.323 166.063 185.665C166.376 186.006 166.55 186.452 166.55 186.915C166.55 187.378 166.376 187.824 166.063 188.165C165.75 188.506 165.321 188.718 164.86 188.758Z" fill="#2855AF"/>
<path d="M164.86 201.663H65.3428C64.8815 201.623 64.452 201.412 64.139 201.07C63.826 200.729 63.6523 200.283 63.6523 199.82C63.6523 199.357 63.826 198.911 64.139 198.57C64.452 198.229 64.8815 198.017 65.3428 197.978H164.86C165.321 198.017 165.75 198.229 166.063 198.57C166.376 198.911 166.55 199.357 166.55 199.82C166.55 200.283 166.376 200.729 166.063 201.07C165.75 201.412 165.321 201.623 164.86 201.663V201.663Z" fill="#2855AF"/>
<path d="M292.954 48.3055H193.478C192.988 48.3055 192.517 48.1106 192.171 47.7638C191.824 47.4169 191.629 46.9465 191.629 46.4559C191.629 45.9654 191.824 45.495 192.171 45.1482C192.517 44.8013 192.988 44.6064 193.478 44.6064H292.954C293.445 44.6064 293.915 44.8013 294.262 45.1482C294.609 45.495 294.804 45.9654 294.804 46.4559C294.804 46.9465 294.609 47.4169 294.262 47.7638C293.915 48.1106 293.445 48.3055 292.954 48.3055Z" fill="#2855AF"/>
<path d="M292.955 61.197H193.479C193.224 61.2191 192.967 61.1878 192.724 61.1052C192.482 61.0226 192.259 60.8905 192.07 60.7172C191.881 60.544 191.73 60.3334 191.627 60.0987C191.524 59.8641 191.471 59.6107 191.471 59.3544C191.471 59.0981 191.524 58.8446 191.627 58.61C191.73 58.3754 191.881 58.1648 192.07 57.9915C192.259 57.8183 192.482 57.6861 192.724 57.6035C192.967 57.521 193.224 57.4897 193.479 57.5117H292.955C293.21 57.4897 293.467 57.521 293.71 57.6035C293.953 57.6861 294.175 57.8183 294.364 57.9915C294.553 58.1648 294.704 58.3754 294.807 58.61C294.91 58.8446 294.963 59.0981 294.963 59.3544C294.963 59.6107 294.91 59.8641 294.807 60.0987C294.704 60.3334 294.553 60.544 294.364 60.7172C294.175 60.8905 293.953 61.0226 293.71 61.1052C293.467 61.1878 293.21 61.2191 292.955 61.197Z" fill="#2855AF"/>
<path d="M292.954 74.1023H193.478C192.988 74.1023 192.517 73.9074 192.171 73.5606C191.824 73.2137 191.629 72.7433 191.629 72.2528C191.629 71.7623 191.824 71.2919 192.171 70.945C192.517 70.5982 192.988 70.4033 193.478 70.4033H292.954C293.445 70.4033 293.915 70.5982 294.262 70.945C294.609 71.2919 294.804 71.7623 294.804 72.2528C294.804 72.7433 294.609 73.2137 294.262 73.5606C293.915 73.9074 293.445 74.1023 292.954 74.1023Z" fill="#2855AF"/>
<path d="M292.955 86.9939H193.479C193.224 87.0159 192.967 86.9847 192.724 86.9021C192.482 86.8195 192.259 86.6874 192.07 86.5141C191.881 86.3409 191.73 86.1303 191.627 85.8956C191.524 85.661 191.471 85.4076 191.471 85.1513C191.471 84.895 191.524 84.6415 191.627 84.4069C191.73 84.1723 191.881 83.9616 192.07 83.7884C192.259 83.6151 192.482 83.483 192.724 83.4004C192.967 83.3178 193.224 83.2866 193.479 83.3086H292.955C293.21 83.2866 293.467 83.3178 293.71 83.4004C293.953 83.483 294.175 83.6151 294.364 83.7884C294.553 83.9616 294.704 84.1723 294.807 84.4069C294.91 84.6415 294.963 84.895 294.963 85.1513C294.963 85.4076 294.91 85.661 294.807 85.8956C294.704 86.1303 294.553 86.3409 294.364 86.5141C294.175 86.6874 293.953 86.8195 293.71 86.9021C293.467 86.9847 293.21 87.0159 292.955 86.9939V86.9939Z" fill="#2855AF"/>
<path d="M292.954 99.8992H193.478C192.988 99.8992 192.517 99.7043 192.171 99.3575C191.824 99.0106 191.629 98.5402 191.629 98.0497C191.629 97.5592 191.824 97.0888 192.171 96.7419C192.517 96.3951 192.988 96.2002 193.478 96.2002H292.954C293.445 96.2002 293.915 96.3951 294.262 96.7419C294.609 97.0888 294.804 97.5592 294.804 98.0497C294.804 98.5402 294.609 99.0106 294.262 99.3575C293.915 99.7043 293.445 99.8992 292.954 99.8992Z" fill="#2855AF"/>
<path d="M292.954 112.804H193.478C193.236 112.804 192.995 112.757 192.771 112.664C192.546 112.571 192.342 112.434 192.171 112.263C191.999 112.091 191.863 111.887 191.77 111.663C191.677 111.438 191.629 111.198 191.629 110.955C191.629 110.712 191.677 110.472 191.77 110.247C191.863 110.023 191.999 109.819 192.171 109.647C192.342 109.475 192.546 109.339 192.771 109.246C192.995 109.153 193.236 109.105 193.478 109.105H292.954C293.197 109.105 293.438 109.153 293.662 109.246C293.886 109.339 294.09 109.475 294.262 109.647C294.434 109.819 294.57 110.023 294.663 110.247C294.756 110.472 294.804 110.712 294.804 110.955C294.804 111.198 294.756 111.438 294.663 111.663C294.57 111.887 294.434 112.091 294.262 112.263C294.09 112.434 293.886 112.571 293.662 112.664C293.438 112.757 293.197 112.804 292.954 112.804V112.804Z" fill="#2855AF"/>
<path d="M292.955 125.697H193.479C193.224 125.719 192.967 125.688 192.724 125.605C192.482 125.523 192.259 125.39 192.07 125.217C191.881 125.044 191.73 124.833 191.627 124.599C191.524 124.364 191.471 124.111 191.471 123.854C191.471 123.598 191.524 123.345 191.627 123.11C191.73 122.875 191.881 122.665 192.07 122.492C192.259 122.318 192.482 122.186 192.724 122.104C192.967 122.021 193.224 121.99 193.479 122.012H292.955C293.21 121.99 293.467 122.021 293.71 122.104C293.953 122.186 294.175 122.318 294.364 122.492C294.553 122.665 294.704 122.875 294.807 123.11C294.91 123.345 294.963 123.598 294.963 123.854C294.963 124.111 294.91 124.364 294.807 124.599C294.704 124.833 294.553 125.044 294.364 125.217C294.175 125.39 293.953 125.523 293.71 125.605C293.467 125.688 293.21 125.719 292.955 125.697V125.697Z" fill="#2855AF"/>
<path d="M294.749 134.369H193.369V205.075H294.749V134.369Z" fill="#7CCCDB"/>
<path opacity="0.6" d="M294.749 134.369H193.369V205.075H294.749V134.369Z" fill="white"/>
<path d="M100.031 51.9634C100.312 51.1051 100.46 50.2088 100.469 49.3056C100.469 46.0039 97.1265 45.8121 93.8248 45.8121H93.0028V45.0312H107.319V45.8121C103.593 45.8121 102.278 48.1822 101.072 51.7305L93.4549 74.5548C92.8795 76.2399 92.4 77.5002 90.6053 77.5002H90.4546L83.7279 55.7035L77.4259 74.5548C76.8368 76.2399 76.3572 77.5002 74.5625 77.5002H74.4393L64.6575 45.8121H61.2188V45.0312H73.8091V45.8121H70.2334L77.4944 70.8146H77.7821L83.2621 54.1417L80.7002 45.8121H77.2615V45.0312H89.8518V45.8121H86.2624L93.5371 70.8146H93.8248L100.031 51.9634Z" fill="#2855AF"/>
<path d="M330.177 36.9482H226.852V314.113H330.177V36.9482Z" fill="#7CCCDB"/>
<path opacity="0.4" d="M330.177 36.9482H226.852V314.113H330.177V36.9482Z" fill="white"/>
<path d="M482.754 26.5771H234.578V341.376H482.754V26.5771Z" fill="white" stroke="#2855AF" stroke-linecap="round" stroke-linejoin="round"/>
<path d="M482.754 26.5771H234.578V45.3598H482.754V26.5771Z" fill="#2855AF" stroke="#2855AF" stroke-width="0.75" stroke-linecap="round" stroke-linejoin="round"/>
<path d="M405.322 71.1572H318.176V234.064H405.322V71.1572Z" fill="#7CCCDB"/>
<path opacity="0.6" d="M405.322 71.1572H318.176V234.064H405.322V71.1572Z" fill="white"/>
<path d="M475.672 246.119H241.676V335.155H475.672V246.119Z" fill="#7CCCDB"/>
<path opacity="0.6" d="M475.672 246.119H241.676V335.155H475.672V246.119Z" fill="white"/>
<path d="M475.672 34.0029H241.676V55.5804H475.672V34.0029Z" fill="#7CCCDB"/>
<path opacity="0.6" d="M475.672 34.0029H241.676V55.5804H475.672V34.0029Z" fill="white"/>
<path d="M472.383 38.1943H245.881V47.7432H472.383V38.1943Z" fill="white"/>
<path d="M472.369 38.1943H446.723V47.7432H472.369V38.1943Z" fill="#2855AF" stroke="#2855AF" stroke-width="0.75" stroke-linecap="round" stroke-linejoin="round"/>
<path d="M303.53 74.9109H243.811C243.556 74.9329 243.299 74.9017 243.056 74.8191C242.814 74.7365 242.591 74.6044 242.402 74.4311C242.213 74.2579 242.062 74.0472 241.959 73.8126C241.856 73.578 241.803 73.3245 241.803 73.0682C241.803 72.812 241.856 72.5585 241.959 72.3239C242.062 72.0892 242.213 71.8787 242.402 71.7054C242.591 71.5321 242.814 71.4 243.056 71.3174C243.299 71.2348 243.556 71.2036 243.811 71.2256H303.53C303.785 71.2036 304.042 71.2348 304.285 71.3174C304.527 71.4 304.75 71.5321 304.939 71.7054C305.128 71.8787 305.279 72.0892 305.382 72.3239C305.485 72.5585 305.538 72.812 305.538 73.0682C305.538 73.3245 305.485 73.578 305.382 73.8126C305.279 74.0472 305.128 74.2579 304.939 74.4311C304.75 74.6044 304.527 74.7365 304.285 74.8191C304.042 74.9017 303.785 74.9329 303.53 74.9109V74.9109Z" fill="#2855AF"/>
<path d="M303.531 87.8162H243.812C243.322 87.8162 242.851 87.6213 242.505 87.2745C242.158 86.9276 241.963 86.4572 241.963 85.9667C241.963 85.4762 242.158 85.0057 242.505 84.6589C242.851 84.312 243.322 84.1172 243.812 84.1172H303.531C304.021 84.1172 304.492 84.312 304.838 84.6589C305.185 85.0057 305.38 85.4762 305.38 85.9667C305.38 86.4572 305.185 86.9276 304.838 87.2745C304.492 87.6213 304.021 87.8162 303.531 87.8162V87.8162Z" fill="#2855AF"/>
<path d="M303.53 100.708H243.811C243.556 100.73 243.299 100.699 243.056 100.616C242.814 100.533 242.591 100.401 242.402 100.228C242.213 100.055 242.062 99.8441 241.959 99.6095C241.856 99.3749 241.803 99.1214 241.803 98.8651C241.803 98.6088 241.856 98.3553 241.959 98.1207C242.062 97.8861 242.213 97.6755 242.402 97.5023C242.591 97.329 242.814 97.1969 243.056 97.1143C243.299 97.0317 243.556 97.0004 243.811 97.0225H303.53C303.785 97.0004 304.042 97.0317 304.285 97.1143C304.527 97.1969 304.75 97.329 304.939 97.5023C305.128 97.6755 305.279 97.8861 305.382 98.1207C305.485 98.3553 305.538 98.6088 305.538 98.8651C305.538 99.1214 305.485 99.3749 305.382 99.6095C305.279 99.8441 305.128 100.055 304.939 100.228C304.75 100.401 304.527 100.533 304.285 100.616C304.042 100.699 303.785 100.73 303.53 100.708V100.708Z" fill="#2855AF"/>
<path d="M303.531 113.613H243.812C243.57 113.613 243.329 113.565 243.105 113.472C242.88 113.379 242.676 113.243 242.505 113.071C242.333 112.9 242.197 112.696 242.104 112.471C242.011 112.247 241.963 112.006 241.963 111.764C241.963 111.521 242.011 111.28 242.104 111.056C242.197 110.831 242.333 110.628 242.505 110.456C242.676 110.284 242.88 110.148 243.105 110.055C243.329 109.962 243.57 109.914 243.812 109.914H303.531C304.021 109.914 304.492 110.109 304.838 110.456C305.185 110.803 305.38 111.273 305.38 111.764C305.38 112.254 305.185 112.725 304.838 113.071C304.492 113.418 304.021 113.613 303.531 113.613V113.613Z" fill="#2855AF"/>
<path d="M303.53 126.505H243.811C243.556 126.527 243.299 126.495 243.056 126.413C242.814 126.33 242.591 126.198 242.402 126.025C242.213 125.852 242.062 125.641 241.959 125.406C241.856 125.172 241.803 124.918 241.803 124.662C241.803 124.406 241.856 124.152 241.959 123.918C242.062 123.683 242.213 123.472 242.402 123.299C242.591 123.126 242.814 122.994 243.056 122.911C243.299 122.829 243.556 122.797 243.811 122.819H303.53C303.785 122.797 304.042 122.829 304.285 122.911C304.527 122.994 304.75 123.126 304.939 123.299C305.128 123.472 305.279 123.683 305.382 123.918C305.485 124.152 305.538 124.406 305.538 124.662C305.538 124.918 305.485 125.172 305.382 125.406C305.279 125.641 305.128 125.852 304.939 126.025C304.75 126.198 304.527 126.33 304.285 126.413C304.042 126.495 303.785 126.527 303.53 126.505V126.505Z" fill="#2855AF"/>
<path d="M303.53 139.41H243.811C243.556 139.432 243.299 139.401 243.056 139.318C242.814 139.236 242.591 139.103 242.402 138.93C242.213 138.757 242.062 138.546 241.959 138.312C241.856 138.077 241.803 137.824 241.803 137.567C241.803 137.311 241.856 137.058 241.959 136.823C242.062 136.588 242.213 136.378 242.402 136.204C242.591 136.031 242.814 135.899 243.056 135.816C243.299 135.734 243.556 135.703 243.811 135.725H303.53C303.785 135.703 304.042 135.734 304.285 135.816C304.527 135.899 304.75 136.031 304.939 136.204C305.128 136.378 305.279 136.588 305.382 136.823C305.485 137.058 305.538 137.311 305.538 137.567C305.538 137.824 305.485 138.077 305.382 138.312C305.279 138.546 305.128 138.757 304.939 138.93C304.75 139.103 304.527 139.236 304.285 139.318C304.042 139.401 303.785 139.432 303.53 139.41V139.41Z" fill="#2855AF"/>
<path d="M303.531 152.316H243.812C243.57 152.316 243.329 152.268 243.105 152.175C242.88 152.082 242.676 151.946 242.505 151.774C242.333 151.603 242.197 151.399 242.104 151.174C242.011 150.95 241.963 150.71 241.963 150.467C241.963 150.224 242.011 149.983 242.104 149.759C242.197 149.535 242.333 149.331 242.505 149.159C242.676 148.987 242.88 148.851 243.105 148.758C243.329 148.665 243.57 148.617 243.812 148.617H303.531C304.021 148.617 304.492 148.812 304.838 149.159C305.185 149.506 305.38 149.976 305.38 150.467C305.38 150.957 305.185 151.428 304.838 151.774C304.492 152.121 304.021 152.316 303.531 152.316V152.316Z" fill="#2855AF"/>
<path d="M303.531 163.81H243.812C243.322 163.81 242.851 163.616 242.505 163.269C242.158 162.922 241.963 162.451 241.963 161.961C241.963 161.47 242.158 161 242.505 160.653C242.851 160.306 243.322 160.111 243.812 160.111H303.531C304.021 160.111 304.492 160.306 304.838 160.653C305.185 161 305.38 161.47 305.38 161.961C305.38 162.451 305.185 162.922 304.838 163.269C304.492 163.616 304.021 163.81 303.531 163.81Z" fill="#2855AF"/>
<path d="M303.53 176.675H243.811C243.556 176.697 243.299 176.665 243.056 176.583C242.814 176.5 242.591 176.368 242.402 176.195C242.213 176.022 242.062 175.811 241.959 175.576C241.856 175.342 241.803 175.088 241.803 174.832C241.803 174.576 241.856 174.322 241.959 174.088C242.062 173.853 242.213 173.642 242.402 173.469C242.591 173.296 242.814 173.164 243.056 173.081C243.299 172.999 243.556 172.967 243.811 172.989H303.53C303.785 172.967 304.042 172.999 304.285 173.081C304.527 173.164 304.75 173.296 304.939 173.469C305.128 173.642 305.279 173.853 305.382 174.088C305.485 174.322 305.538 174.576 305.538 174.832C305.538 175.088 305.485 175.342 305.382 175.576C305.279 175.811 305.128 176.022 304.939 176.195C304.75 176.368 304.527 176.5 304.285 176.583C304.042 176.665 303.785 176.697 303.53 176.675V176.675Z" fill="#2855AF"/>
<path d="M303.531 189.58H243.812C243.322 189.58 242.851 189.385 242.505 189.038C242.158 188.691 241.963 188.221 241.963 187.73C241.963 187.24 242.158 186.769 242.505 186.423C242.851 186.076 243.322 185.881 243.812 185.881H303.531C304.021 185.881 304.492 186.076 304.838 186.423C305.185 186.769 305.38 187.24 305.38 187.73C305.38 188.221 305.185 188.691 304.838 189.038C304.492 189.385 304.021 189.58 303.531 189.58Z" fill="#2855AF"/>
<path d="M303.53 202.471H243.811C243.556 202.493 243.299 202.462 243.056 202.38C242.814 202.297 242.591 202.165 242.402 201.992C242.213 201.818 242.062 201.608 241.959 201.373C241.856 201.139 241.803 200.885 241.803 200.629C241.803 200.373 241.856 200.119 241.959 199.884C242.062 199.65 242.213 199.439 242.402 199.266C242.591 199.093 242.814 198.961 243.056 198.878C243.299 198.795 243.556 198.764 243.811 198.786H303.53C303.785 198.764 304.042 198.795 304.285 198.878C304.527 198.961 304.75 199.093 304.939 199.266C305.128 199.439 305.279 199.65 305.382 199.884C305.485 200.119 305.538 200.373 305.538 200.629C305.538 200.885 305.485 201.139 305.382 201.373C305.279 201.608 305.128 201.818 304.939 201.992C304.75 202.165 304.527 202.297 304.285 202.38C304.042 202.462 303.785 202.493 303.53 202.471Z" fill="#2855AF"/>
<path d="M303.531 215.377H243.812C243.322 215.377 242.851 215.182 242.505 214.835C242.158 214.488 241.963 214.018 241.963 213.527C241.963 213.037 242.158 212.566 242.505 212.219C242.851 211.873 243.322 211.678 243.812 211.678H303.531C304.021 211.678 304.492 211.873 304.838 212.219C305.185 212.566 305.38 213.037 305.38 213.527C305.38 214.018 305.185 214.488 304.838 214.835C304.492 215.182 304.021 215.377 303.531 215.377Z" fill="#2855AF"/>
<path d="M303.53 228.268H243.811C243.556 228.29 243.299 228.259 243.056 228.177C242.814 228.094 242.591 227.962 242.402 227.789C242.213 227.615 242.062 227.405 241.959 227.17C241.856 226.935 241.803 226.682 241.803 226.426C241.803 226.169 241.856 225.916 241.959 225.681C242.062 225.447 242.213 225.236 242.402 225.063C242.591 224.89 242.814 224.757 243.056 224.675C243.299 224.592 243.556 224.561 243.811 224.583H303.53C303.785 224.561 304.042 224.592 304.285 224.675C304.527 224.757 304.75 224.89 304.939 225.063C305.128 225.236 305.279 225.447 305.382 225.681C305.485 225.916 305.538 226.169 305.538 226.426C305.538 226.682 305.485 226.935 305.382 227.17C305.279 227.405 305.128 227.615 304.939 227.789C304.75 227.962 304.527 228.094 304.285 228.177C304.042 228.259 303.785 228.29 303.53 228.268V228.268Z" fill="#2855AF"/>
<path d="M303.53 241.174H243.811C243.556 241.196 243.299 241.164 243.056 241.082C242.814 240.999 242.591 240.867 242.402 240.694C242.213 240.521 242.062 240.31 241.959 240.075C241.856 239.841 241.803 239.587 241.803 239.331C241.803 239.075 241.856 238.821 241.959 238.587C242.062 238.352 242.213 238.141 242.402 237.968C242.591 237.795 242.814 237.663 243.056 237.58C243.299 237.498 243.556 237.466 243.811 237.488H303.53C303.785 237.466 304.042 237.498 304.285 237.58C304.527 237.663 304.75 237.795 304.939 237.968C305.128 238.141 305.279 238.352 305.382 238.587C305.485 238.821 305.538 239.075 305.538 239.331C305.538 239.587 305.485 239.841 305.382 240.075C305.279 240.31 305.128 240.521 304.939 240.694C304.75 240.867 304.527 240.999 304.285 241.082C304.042 241.164 303.785 241.196 303.53 241.174V241.174Z" fill="#2855AF"/>
<path d="M475.219 74.9109H415.569C415.314 74.9329 415.057 74.9017 414.814 74.8191C414.571 74.7365 414.349 74.6044 414.16 74.4311C413.971 74.2579 413.82 74.0472 413.717 73.8126C413.614 73.578 413.561 73.3245 413.561 73.0682C413.561 72.812 413.614 72.5585 413.717 72.3239C413.82 72.0892 413.971 71.8787 414.16 71.7054C414.349 71.5321 414.571 71.4 414.814 71.3174C415.057 71.2348 415.314 71.2036 415.569 71.2256H475.287C475.543 71.2036 475.8 71.2348 476.042 71.3174C476.285 71.4 476.508 71.5321 476.697 71.7054C476.886 71.8787 477.036 72.0892 477.14 72.3239C477.243 72.5585 477.296 72.812 477.296 73.0682C477.296 73.3245 477.243 73.578 477.14 73.8126C477.036 74.0472 476.886 74.2579 476.697 74.4311C476.508 74.6044 476.285 74.7365 476.042 74.8191C475.8 74.9017 475.543 74.9329 475.287 74.9109H475.219Z" fill="#2855AF"/>
<path d="M475.218 87.8162H415.568C415.325 87.8162 415.085 87.7683 414.86 87.6754C414.636 87.5825 414.432 87.4462 414.26 87.2745C414.089 87.1027 413.953 86.8989 413.86 86.6745C413.767 86.4501 413.719 86.2096 413.719 85.9667C413.719 85.7238 413.767 85.4833 413.86 85.2589C413.953 85.0345 414.089 84.8306 414.26 84.6589C414.432 84.4871 414.636 84.3509 414.86 84.258C415.085 84.165 415.325 84.1172 415.568 84.1172H475.287C475.777 84.1172 476.247 84.312 476.594 84.6589C476.941 85.0057 477.136 85.4762 477.136 85.9667C477.136 86.4572 476.941 86.9276 476.594 87.2745C476.247 87.6213 475.777 87.8162 475.287 87.8162H475.218Z" fill="#2855AF"/>
<path d="M475.219 100.708H415.569C415.314 100.73 415.057 100.699 414.814 100.616C414.571 100.533 414.349 100.401 414.16 100.228C413.971 100.055 413.82 99.8441 413.717 99.6095C413.614 99.3749 413.561 99.1214 413.561 98.8651C413.561 98.6088 413.614 98.3553 413.717 98.1207C413.82 97.8861 413.971 97.6755 414.16 97.5023C414.349 97.329 414.571 97.1969 414.814 97.1143C415.057 97.0317 415.314 97.0004 415.569 97.0225H475.287C475.543 97.0004 475.8 97.0317 476.042 97.1143C476.285 97.1969 476.508 97.329 476.697 97.5023C476.886 97.6755 477.036 97.8861 477.14 98.1207C477.243 98.3553 477.296 98.6088 477.296 98.8651C477.296 99.1214 477.243 99.3749 477.14 99.6095C477.036 99.8441 476.886 100.055 476.697 100.228C476.508 100.401 476.285 100.533 476.042 100.616C475.8 100.699 475.543 100.73 475.287 100.708H475.219Z" fill="#2855AF"/>
<path d="M475.218 113.613H415.568C415.325 113.613 415.085 113.565 414.86 113.472C414.636 113.379 414.432 113.243 414.26 113.071C414.089 112.9 413.953 112.696 413.86 112.471C413.767 112.247 413.719 112.006 413.719 111.764C413.719 111.521 413.767 111.28 413.86 111.056C413.953 110.831 414.089 110.628 414.26 110.456C414.432 110.284 414.636 110.148 414.86 110.055C415.085 109.962 415.325 109.914 415.568 109.914H475.287C475.777 109.914 476.247 110.109 476.594 110.456C476.941 110.803 477.136 111.273 477.136 111.764C477.136 112.254 476.941 112.725 476.594 113.071C476.247 113.418 475.777 113.613 475.287 113.613H475.218Z" fill="#2855AF"/>
<path d="M475.219 126.505H415.569C415.314 126.527 415.057 126.495 414.814 126.413C414.571 126.33 414.349 126.198 414.16 126.025C413.971 125.852 413.82 125.641 413.717 125.406C413.614 125.172 413.561 124.918 413.561 124.662C413.561 124.406 413.614 124.152 413.717 123.918C413.82 123.683 413.971 123.472 414.16 123.299C414.349 123.126 414.571 122.994 414.814 122.911C415.057 122.829 415.314 122.797 415.569 122.819H475.287C475.543 122.797 475.8 122.829 476.042 122.911C476.285 122.994 476.508 123.126 476.697 123.299C476.886 123.472 477.036 123.683 477.14 123.918C477.243 124.152 477.296 124.406 477.296 124.662C477.296 124.918 477.243 125.172 477.14 125.406C477.036 125.641 476.886 125.852 476.697 126.025C476.508 126.198 476.285 126.33 476.042 126.413C475.8 126.495 475.543 126.527 475.287 126.505H475.219Z" fill="#2855AF"/>
<path d="M475.219 139.41H415.569C415.314 139.432 415.057 139.401 414.814 139.318C414.571 139.236 414.349 139.103 414.16 138.93C413.971 138.757 413.82 138.546 413.717 138.312C413.614 138.077 413.561 137.824 413.561 137.567C413.561 137.311 413.614 137.058 413.717 136.823C413.82 136.588 413.971 136.378 414.16 136.204C414.349 136.031 414.571 135.899 414.814 135.816C415.057 135.734 415.314 135.703 415.569 135.725H475.287C475.543 135.703 475.8 135.734 476.042 135.816C476.285 135.899 476.508 136.031 476.697 136.204C476.886 136.378 477.036 136.588 477.14 136.823C477.243 137.058 477.296 137.311 477.296 137.567C477.296 137.824 477.243 138.077 477.14 138.312C477.036 138.546 476.886 138.757 476.697 138.93C476.508 139.103 476.285 139.236 476.042 139.318C475.8 139.401 475.543 139.432 475.287 139.41H475.219Z" fill="#2855AF"/>
<path d="M475.218 152.316H415.568C415.325 152.316 415.085 152.268 414.86 152.175C414.636 152.082 414.432 151.946 414.26 151.774C414.089 151.603 413.953 151.399 413.86 151.174C413.767 150.95 413.719 150.71 413.719 150.467C413.719 150.224 413.767 149.983 413.86 149.759C413.953 149.535 414.089 149.331 414.26 149.159C414.432 148.987 414.636 148.851 414.86 148.758C415.085 148.665 415.325 148.617 415.568 148.617H475.287C475.777 148.617 476.247 148.812 476.594 149.159C476.941 149.506 477.136 149.976 477.136 150.467C477.136 150.957 476.941 151.428 476.594 151.774C476.247 152.121 475.777 152.316 475.287 152.316H475.218Z" fill="#2855AF"/>
<path d="M475.712 160.975H414.076V231.68H475.712V160.975Z" fill="#7CCCDB"/>
<path opacity="0.6" d="M475.712 160.975H414.076V231.68H475.712V160.975Z" fill="white"/>
<path d="M506.442 289.015C506.072 275.096 507.155 251.34 494.934 241.558C484.207 232.968 475.864 244.627 472.864 254.025C465.561 276.835 466.342 362.68 468.233 379.969C468.233 379.969 466.37 362.652 452.766 370.078C439.162 377.503 459.616 416.48 459.616 416.48C459.616 416.48 443.532 404.725 436.106 414.616C428.681 424.508 445.395 435.66 445.395 435.66C445.395 435.66 429.928 431.33 429.928 435.66C429.928 439.989 434.873 443.701 449.108 445.565H525.828C525.828 445.565 538.158 438.715 535.733 431.33C533.308 423.946 520.211 428.22 520.211 428.22C520.211 428.22 540.007 404.095 538.761 393.573C537.514 383.052 512.155 395.423 512.155 395.423C512.155 395.423 531.965 345.308 528.253 323.032C525.321 305.482 511.703 317.552 504.291 324.237C506.034 312.582 506.754 300.796 506.442 289.015V289.015Z" fill="#7CCCDB"/>
<path opacity="0.1" d="M506.442 289.015C506.072 275.096 507.155 251.34 494.934 241.558C484.207 232.968 475.864 244.627 472.864 254.025C465.561 276.835 466.342 362.68 468.233 379.969C468.233 379.969 466.37 362.652 452.766 370.078C439.162 377.503 459.616 416.48 459.616 416.48C459.616 416.48 443.532 404.725 436.106 414.616C428.681 424.508 445.395 435.66 445.395 435.66C445.395 435.66 429.928 431.33 429.928 435.66C429.928 439.989 434.873 443.701 449.108 445.565H525.828C525.828 445.565 538.158 438.715 535.733 431.33C533.308 423.946 520.211 428.22 520.211 428.22C520.211 428.22 540.007 404.095 538.761 393.573C537.514 383.052 512.155 395.423 512.155 395.423C512.155 395.423 531.965 345.308 528.253 323.032C525.321 305.482 511.703 317.552 504.291 324.237C506.034 312.582 506.754 300.796 506.442 289.015V289.015Z" fill="white"/>
<path d="M481.768 443.907L487.412 274.78" stroke="white" stroke-width="1.72695" stroke-linecap="round" stroke-linejoin="round"/>
<path d="M484.934 373.79L514.019 346.555" stroke="white" stroke-width="1.72695" stroke-linecap="round" stroke-linejoin="round"/>
<path d="M498.551 361.406L504.729 344.089" stroke="white" stroke-width="1.72695" stroke-linecap="round" stroke-linejoin="round"/>
<path d="M460.807 394.819L482.658 418.123" stroke="white" stroke-width="1.72695" stroke-linecap="round" stroke-linejoin="round"/>
<path d="M520.211 408.438L483.084 427.617" stroke="white" stroke-width="1.72695" stroke-linecap="round" stroke-linejoin="round"/>
<path d="M501.496 417.891L514.018 418.959" stroke="white" stroke-width="1.72695" stroke-linecap="round" stroke-linejoin="round"/>
<path opacity="0.05" d="M227.318 446.222C227.318 451.318 178.752 455.456 118.856 455.456C58.9591 455.456 10.3789 451.346 10.3789 446.222C10.3789 441.098 58.9454 436.988 118.856 436.988C178.766 436.988 227.318 441.126 227.318 446.222Z" fill="#F5F5F5"/>
<path d="M64.8504 276.629C64.8504 276.629 73.2348 272.382 76.879 276.027C80.5232 279.671 79.0573 318.661 80.1533 331.046C80.8172 338.433 82.1796 345.74 84.2222 352.87C84.2222 352.87 72.1936 350.692 63.0831 346.02C63.0831 346.02 55.0686 307.112 64.8504 276.629Z" fill="#2855AF" stroke="#2855AF" stroke-width="0.75" stroke-linecap="round" stroke-linejoin="round"/>
<path d="M231.786 364.926C230.8 364.925 229.844 364.591 229.072 363.978C228.3 363.365 227.758 362.508 227.534 361.548C227.31 360.588 227.418 359.58 227.839 358.689C228.26 357.797 228.971 357.075 229.854 356.638L269.461 338.828L300.204 303.468C300.951 302.582 302.019 302.028 303.174 301.929C304.329 301.83 305.476 302.194 306.362 302.941C307.249 303.687 307.802 304.756 307.901 305.911C308 307.065 307.636 308.212 306.89 309.099L275.558 345.157C275.182 345.618 274.716 345.996 274.188 346.267L233.745 364.474C233.139 364.782 232.466 364.937 231.786 364.926Z" fill="white" stroke="#2855AF" stroke-width="0.75" stroke-linecap="round" stroke-linejoin="round"/>
<path d="M258.871 349.486L263.214 347.514" stroke="#2855AF" stroke-width="0.75" stroke-linecap="round" stroke-linejoin="round"/>
<path d="M238.84 358.597L256.006 350.788" stroke="#2855AF" stroke-width="0.75" stroke-linecap="round" stroke-linejoin="round"/>
<path d="M297.545 315.018L286.105 327.95" stroke="#2855AF" stroke-width="0.75" stroke-linecap="round" stroke-linejoin="round"/>
<path d="M284.255 329.8L281.666 332.745" stroke="#2855AF" stroke-width="0.75" stroke-linecap="round" stroke-linejoin="round"/>
<path d="M237.06 380.634C241.905 360.202 229.269 339.71 208.836 334.865C188.404 330.02 167.912 342.657 163.067 363.089C158.222 383.522 170.859 404.013 191.291 408.858C211.724 413.703 232.216 401.067 237.06 380.634Z" fill="#7CCCDB" stroke="#2855AF" stroke-width="0.747671" stroke-linecap="round" stroke-linejoin="round"/>
<path d="M105.033 231.132C105.033 231.132 110.513 243.982 111.663 246.489C112.814 248.996 113.91 249.681 113.65 250.476C113.39 251.271 110.595 252.189 110.595 252.189C110.983 256.142 110.297 260.128 108.608 263.724C105.868 269.204 100.525 272.067 100.005 275.506C99.698 278.813 99.6522 282.138 99.8676 285.452L91.7846 278.821C91.7846 278.821 94.0314 272.328 92.0449 267.56C90.3607 263.658 87.3592 260.472 83.5646 258.559C78.8403 255.458 75.4785 250.671 74.1664 245.174C72.9745 238.804 76.6735 232.05 81.5781 227.282C86.4827 222.514 96.1549 223.446 97.2235 223.843C98.2921 224.241 94.5657 221.103 97.8811 220.391C101.197 219.678 103.183 224.501 103.361 225.295C103.539 226.09 104.553 221.857 105.622 224.638C106.69 227.419 105.033 231.132 105.033 231.132Z" fill="white"/>
<g style="mix-blend-mode:multiply" opacity="0.5">
<path d="M95.1548 281.631C95.107 280.712 95.0017 279.796 94.8397 278.891C94.3054 276.479 97.5797 268.972 98.5935 260.135C99.6073 251.299 92.6888 238.955 92.6888 238.955L87.6198 224.255C85.3686 224.737 83.2845 225.805 81.5781 227.351C76.6735 232.119 72.9745 238.873 74.1664 245.243C75.4785 250.74 78.8403 255.528 83.5646 258.628C87.3592 260.542 90.3607 263.727 92.0449 267.629C94.0314 272.397 91.7846 278.891 91.7846 278.891L95.1548 281.631Z" fill="#7CCCDB"/>
</g>
<path d="M105.033 231.132C105.033 231.132 110.513 243.982 111.663 246.489C112.814 248.996 113.91 249.681 113.65 250.476C113.39 251.271 110.595 252.189 110.595 252.189C110.983 256.142 110.297 260.128 108.608 263.724C105.868 269.204 100.525 272.067 100.005 275.506C99.698 278.813 99.6522 282.138 99.8676 285.452L91.7846 278.821C91.7846 278.821 94.0314 272.328 92.0449 267.56C90.3607 263.658 87.3592 260.472 83.5646 258.559C78.8403 255.458 75.4785 250.671 74.1664 245.174C72.9745 238.804 76.6735 232.05 81.5781 227.282C86.4827 222.514 96.1549 223.446 97.2235 223.843C98.2921 224.241 94.5657 221.103 97.8811 220.391C101.197 219.678 103.183 224.501 103.361 225.295C103.539 226.09 104.553 221.857 105.622 224.638C106.69 227.419 105.033 231.132 105.033 231.132Z" stroke="#2855AF" stroke-width="0.75" stroke-linecap="round" stroke-linejoin="round"/>
<path d="M105.554 237.968C105.554 237.968 103.157 237.31 102.362 239.338C102.112 239.802 101.971 240.318 101.95 240.845C101.929 241.371 102.027 241.896 102.239 242.379" stroke="#2855AF" stroke-width="0.75" stroke-linecap="round" stroke-linejoin="round"/>
<path d="M108.348 258.162C108.348 258.162 105.964 259.354 104.498 257.765" stroke="#2855AF" stroke-width="0.75" stroke-linecap="round" stroke-linejoin="round"/>
<path d="M103.677 247.052L92.6348 251.833" stroke="#2855AF" stroke-width="0.75" stroke-linecap="round" stroke-linejoin="round"/>
<path d="M111.732 243.571L109.129 244.695" stroke="#2855AF" stroke-width="0.75" stroke-linecap="round" stroke-linejoin="round"/>
<path d="M107.471 246.147C107.814 247.312 107.814 248.339 107.471 248.435C107.129 248.531 106.581 247.668 106.238 246.503C105.896 245.339 105.909 244.311 106.238 244.202C106.567 244.092 107.142 244.969 107.471 246.147Z" fill="#2855AF"/>
<path d="M108.855 246.148C109.773 248.888 109.54 251.422 108.335 251.833C107.129 252.244 105.403 250.34 104.485 247.613C103.567 244.887 103.8 242.325 105.005 241.914C106.211 241.503 107.937 243.408 108.855 246.148Z" stroke="#2855AF" stroke-width="0.75" stroke-linecap="round" stroke-linejoin="round"/>
<path d="M90.5521 256.765C90.5521 256.765 88.3738 254.135 90.3329 254.354C90.9482 254.481 91.5176 254.772 91.9807 255.197C92.4438 255.621 92.7834 256.163 92.9633 256.765" stroke="#2855AF" stroke-width="0.5" stroke-linecap="round" stroke-linejoin="round"/>
<path d="M151.805 301.742L144.119 307.181L145.311 313.538L154.065 310.099L151.805 301.742Z" fill="white" stroke="#2855AF" stroke-width="0.75" stroke-linecap="round" stroke-linejoin="round"/>
<path d="M144.913 305.592L148.365 318.442C148.365 318.442 125.13 329.046 120.541 332.321C115.951 335.595 112.321 334.704 112.321 334.704L109.279 319.854C109.279 319.854 112.581 321.443 119.609 318.401C126.637 315.36 144.913 305.592 144.913 305.592Z" fill="white" stroke="#2855AF" stroke-width="0.75" stroke-linecap="round" stroke-linejoin="round"/>
<path d="M156.326 339.033C155.859 338.985 155.425 338.77 155.103 338.428C154.781 338.086 154.593 337.64 154.572 337.17L151.503 286.33C151.472 286.061 151.497 285.788 151.575 285.529C151.654 285.27 151.785 285.03 151.961 284.824C152.136 284.618 152.352 284.45 152.595 284.331C152.838 284.212 153.103 284.144 153.374 284.132C153.644 284.12 153.914 284.163 154.167 284.26C154.42 284.356 154.65 284.504 154.844 284.693C155.037 284.883 155.189 285.11 155.291 285.361C155.393 285.612 155.442 285.881 155.435 286.151L158.504 336.978C158.517 337.238 158.479 337.497 158.391 337.741C158.304 337.985 158.169 338.21 157.995 338.402C157.82 338.594 157.61 338.75 157.375 338.861C157.141 338.972 156.886 339.035 156.627 339.047L156.326 339.033Z" fill="#2855AF" stroke="#2855AF" stroke-width="0.75" stroke-linecap="round" stroke-linejoin="round"/>
<path d="M150.475 300.536C149.987 300.516 149.524 300.314 149.176 299.972C148.827 299.63 148.618 299.17 148.589 298.682C148.56 298.195 148.713 297.714 149.019 297.332C149.324 296.951 149.76 296.697 150.242 296.618L157.928 295.687C158.194 295.633 158.469 295.634 158.735 295.692C159 295.749 159.251 295.861 159.472 296.02C159.693 296.179 159.878 296.382 160.016 296.616C160.155 296.85 160.243 297.11 160.277 297.38C160.31 297.65 160.287 297.923 160.209 298.184C160.131 298.445 160.001 298.686 159.825 298.894C159.649 299.102 159.433 299.271 159.189 299.391C158.945 299.511 158.679 299.579 158.407 299.591L150.721 300.523L150.475 300.536Z" fill="white" stroke="#2855AF" stroke-width="0.75" stroke-linecap="round" stroke-linejoin="round"/>
<path d="M150.873 304.51C150.385 304.489 149.922 304.288 149.574 303.945C149.226 303.603 149.017 303.143 148.988 302.656C148.959 302.168 149.112 301.687 149.417 301.306C149.722 300.924 150.158 300.67 150.64 300.591L158.326 299.66C158.845 299.602 159.366 299.75 159.776 300.073C160.186 300.396 160.453 300.868 160.518 301.386C160.549 301.641 160.529 301.9 160.459 302.148C160.39 302.396 160.272 302.628 160.113 302.83C159.954 303.032 159.757 303.201 159.532 303.327C159.308 303.453 159.061 303.534 158.806 303.564L151.12 304.496L150.873 304.51Z" fill="white" stroke="#2855AF" stroke-width="0.75" stroke-linecap="round" stroke-linejoin="round"/>
<path d="M151.299 308.126C150.818 308.124 150.356 307.938 150.006 307.607C149.657 307.277 149.447 306.825 149.419 306.345C149.391 305.865 149.547 305.392 149.856 305.023C150.164 304.654 150.602 304.416 151.08 304.358L158.436 303.468C158.684 303.435 158.937 303.451 159.178 303.517C159.42 303.582 159.646 303.694 159.844 303.848C160.041 304.001 160.207 304.192 160.33 304.41C160.453 304.627 160.532 304.867 160.562 305.116C160.592 305.364 160.572 305.616 160.504 305.857C160.436 306.097 160.321 306.322 160.165 306.518C160.009 306.714 159.816 306.877 159.597 306.998C159.378 307.118 159.137 307.194 158.889 307.221L151.532 308.112L151.299 308.126Z" fill="white" stroke="#2855AF" stroke-width="0.75" stroke-linecap="round" stroke-linejoin="round"/>
<path d="M152.53 311.592C152.151 311.554 151.8 311.376 151.546 311.092C151.292 310.808 151.154 310.439 151.16 310.058C151.083 309.647 151.16 309.223 151.374 308.865C151.588 308.507 151.926 308.239 152.324 308.112L157.53 307.277C158.27 307.181 158.9 307.852 159.01 308.811C159.093 309.222 159.019 309.649 158.804 310.009C158.588 310.369 158.247 310.635 157.845 310.756L152.653 311.578L152.53 311.592Z" fill="white" stroke="#2855AF" stroke-width="0.75" stroke-linecap="round" stroke-linejoin="round"/>
<path d="M149.708 305.331C149.685 305.705 149.526 306.058 149.261 306.323C148.996 306.588 148.644 306.747 148.27 306.77C147.864 306.881 147.432 306.839 147.056 306.652C146.679 306.465 146.385 306.146 146.228 305.756L145.023 300.632C144.858 299.906 145.475 299.194 146.393 299.029C146.796 298.925 147.224 298.971 147.596 299.157C147.969 299.343 148.262 299.658 148.42 300.043L149.64 305.181C149.64 305.181 149.694 305.277 149.708 305.331Z" fill="white" stroke="#2855AF" stroke-width="0.75" stroke-linecap="round" stroke-linejoin="round"/>
<path d="M88.8662 274.849C88.8662 274.849 98.2781 280.548 102.648 287.699C107.019 294.851 110.731 305.509 112.855 314.866C114.978 324.223 116.691 348.651 118.02 353.692C118.663 356.367 119.643 358.95 120.938 361.378C113.27 364.225 105.126 365.574 96.9492 365.351C83.9616 364.817 81.9751 361.638 81.9751 361.638C81.9751 361.638 77.6048 332.759 78.0021 309.825C78.3994 286.891 88.8662 274.849 88.8662 274.849Z" fill="white"/>
<g style="mix-blend-mode:multiply" opacity="0.5">
<path d="M83.3177 300.81C83.3177 300.81 81.9477 302.961 83.0437 297.33C83.9305 293.392 85.3744 289.6 87.3318 286.069L93.7571 293.302L97.7849 293.576L96.7163 295.453L104.484 300.276L100.799 295.933L101.059 289.302L94.8394 291.22C94.8394 291.22 90.8116 283.986 89.743 281.63C89.0306 280.013 91.4144 278.643 93.0858 277.917C91.7315 276.863 90.323 275.879 88.8662 274.972C88.8662 274.972 78.3994 287.028 78.0021 309.948C77.687 328.128 80.3722 350.034 81.4956 358.336L102.046 357.199L83.3177 300.81Z" fill="#7CCCDB"/>
</g>
<path d="M88.8662 274.849C88.8662 274.849 98.2781 280.548 102.648 287.699C107.019 294.851 110.731 305.509 112.855 314.866C114.978 324.223 116.691 348.651 118.02 353.692C118.663 356.367 119.643 358.95 120.938 361.378C113.27 364.225 105.126 365.574 96.9492 365.351C83.9616 364.817 81.9751 361.638 81.9751 361.638C81.9751 361.638 77.6048 332.759 78.0021 309.825C78.3994 286.891 88.8662 274.849 88.8662 274.849Z" stroke="#2855AF" stroke-width="0.75" stroke-linecap="round" stroke-linejoin="round"/>
<path d="M86.0859 279.493L95.8951 291.275L101.06 289.289L100.8 295.919L108.609 305.331" stroke="#2855AF" stroke-width="0.75" stroke-linecap="round" stroke-linejoin="round"/>
<path d="M80.0586 304.468C80.0586 304.468 81.1546 315.428 84.4289 318.031" stroke="#2855AF" stroke-width="0.5" stroke-linecap="round" stroke-linejoin="round"/>
<path d="M80.7148 316.291C80.7148 316.291 82.0848 320.401 85.5235 321.771" stroke="#2855AF" stroke-width="0.5" stroke-linecap="round" stroke-linejoin="round"/>
<path d="M109.156 310.373L103.471 312.565L104.348 314.976L109.595 313.003" stroke="#2855AF" stroke-width="0.5" stroke-linecap="round" stroke-linejoin="round"/>
<path d="M147.504 351.651C147.033 351.65 146.579 351.481 146.222 351.175C145.865 350.868 145.63 350.444 145.558 349.98L138.462 303.893C138.423 303.637 138.435 303.375 138.497 303.123C138.56 302.872 138.671 302.635 138.825 302.426C138.979 302.218 139.173 302.041 139.395 301.907C139.617 301.774 139.863 301.685 140.119 301.646C140.376 301.607 140.637 301.62 140.889 301.682C141.14 301.744 141.377 301.856 141.586 302.01C141.795 302.164 141.971 302.357 142.105 302.579C142.239 302.801 142.327 303.047 142.366 303.304L149.463 349.391C149.537 349.908 149.405 350.434 149.095 350.854C148.785 351.275 148.321 351.556 147.805 351.637L147.504 351.651Z" fill="#2855AF" stroke="#2855AF" stroke-width="0.75" stroke-linecap="round" stroke-linejoin="round"/>
<path d="M105.033 231.132C105.033 231.132 106.622 227.419 105.567 224.638C104.512 221.857 103.443 226.09 103.306 225.296C103.169 224.501 101.197 219.734 97.8264 220.391C94.4562 221.049 98.2237 224.241 97.1688 223.844C96.1139 223.446 86.428 222.474 81.5234 227.282C76.6188 232.091 72.9198 238.804 74.1117 245.174C75.4239 250.671 78.7856 255.459 83.5099 258.559C85.9897 259.831 88.1526 261.643 89.8393 263.861C91.2632 262.718 92.5627 261.427 93.7164 260.012C93.0277 260.231 92.297 260.286 91.5831 260.172C90.8693 260.058 90.1922 259.778 89.6064 259.354C87.4829 257.888 86.428 253.655 89.0858 251.531C91.7436 249.408 94.3055 254.23 94.3055 254.23C97.0455 255.696 96.018 251.846 94.9631 250.12C93.9082 248.394 95.3604 246.531 95.7577 244.024C96.155 241.517 92.7163 240.571 93.1136 238.05C93.5109 235.53 105.033 231.132 105.033 231.132Z" fill="#2855AF" stroke="#2855AF" stroke-width="0.75" stroke-linecap="round" stroke-linejoin="round"/>
<path d="M98.6486 232.913C98.6486 232.913 93.8399 230.502 90.7711 234.283C87.7023 238.064 88.3736 244.352 85.9624 248.065C85.3986 249.088 84.6144 249.972 83.6666 250.655C82.7188 251.337 81.6312 251.8 80.4824 252.011" stroke="white" stroke-width="0.5" stroke-linecap="round" stroke-linejoin="round"/>
<path d="M77.6465 245.393C79.0949 245.549 80.5466 245.131 81.6911 244.23C82.8355 243.329 83.5819 242.015 83.7704 240.571C84.8664 235.091 90.9903 227.227 97.1279 227.008C103.265 226.789 102.813 231.118 102.813 231.118" stroke="white" stroke-width="0.5" stroke-linecap="round" stroke-linejoin="round"/>
<path d="M130.611 321.621L134.447 319.1C134.447 319.1 137.763 313.003 138.023 312.606C138.283 312.209 146.38 308.236 147.038 308.77C147.41 309.096 147.7 309.505 147.884 309.965C148.067 310.425 148.139 310.921 148.093 311.414C147.832 312.085 146.901 312.784 146.901 313.414C146.901 314.045 147.969 319.1 147.969 320.429C147.969 321.758 142.489 324.004 140.284 324.676C138.078 325.347 135.119 325.333 134.447 325.868L132.598 327.32L130.611 321.621Z" fill="white" stroke="#2855AF" stroke-width="0.75" stroke-linecap="round" stroke-linejoin="round"/>
<path d="M86.0858 294.864C86.0858 294.864 82.6471 295.782 83.839 305.454C85.0309 315.127 94.7031 347.719 98.1418 351.706C101.58 355.692 135.132 333.416 135.132 333.416L131.022 320.689C131.022 320.689 108.362 329.566 106.512 329.964C104.663 330.361 99.3474 301.481 97.4979 297.906" fill="white"/>
<g style="mix-blend-mode:multiply" opacity="0.5">
<path d="M134.515 331.567C127.542 333.773 111.403 338.801 109.307 338.581C106.567 338.321 105.827 336.704 104.21 334.567C102.594 332.43 100.196 340.993 98.0454 341.801C95.8945 342.609 97.5111 332.211 98.3194 330.005C99.1277 327.799 96.4425 331.087 96.4425 331.087C96.4425 331.087 91.0858 320.127 88.4006 312.592C86.6984 307.673 85.3568 302.637 84.3865 297.522L83.7837 299.002C83.4809 301.124 83.4809 303.278 83.7837 305.4C84.9756 315.072 94.6478 347.664 98.0865 351.651C101.525 355.638 135.077 333.362 135.077 333.362L134.515 331.567Z" fill="#7CCCDB"/>
</g>
<path d="M86.0858 294.864C86.0858 294.864 82.6471 295.782 83.839 305.454C85.0309 315.127 94.7031 347.719 98.1418 351.706C101.58 355.692 135.132 333.416 135.132 333.416L131.022 320.689C131.022 320.689 108.362 329.566 106.512 329.964C104.663 330.361 99.3474 301.481 97.4979 297.906" stroke="#2855AF" stroke-width="0.75" stroke-linecap="round" stroke-linejoin="round"/>
<path d="M106.499 329.964C105.148 330.838 103.989 331.977 103.092 333.312C102.195 334.647 101.578 336.151 101.279 337.732" stroke="#2855AF" stroke-width="0.5" stroke-linecap="round" stroke-linejoin="round"/>
<path d="M101.499 332.909C100.579 333.828 99.8522 334.922 99.3627 336.127C98.8732 337.332 98.6307 338.623 98.6495 339.924" stroke="#2855AF" stroke-width="0.5" stroke-linecap="round" stroke-linejoin="round"/>
<path d="M67.3442 343.678C67.3442 343.678 63.7 331.526 64.1795 306.263C64.659 281 66.1249 278.575 64.9056 276.63C63.6863 274.685 41.6156 287.686 25.1756 306.633C14.7088 318.744 1.33757 336.677 0.460772 364.926C-0.265328 387.518 10.4755 405.78 17.2159 410.835C28.8746 419.576 44.794 418.973 46.4928 418.973H209.194C209.194 418.973 219.633 415.329 222.058 405.862C224.483 396.395 232.744 369.42 215.51 337.115C204.193 315.922 183.931 293.152 180.52 294.851C177.109 296.55 164.368 320.881 147.01 336.143C130.611 350.569 99.4022 361.159 67.3442 343.678Z" fill="#7CCCDB" stroke="#2855AF" stroke-width="0.75" stroke-linecap="round" stroke-linejoin="round"/>
<path d="M215.552 337.116C213.127 332.595 210.305 328.005 207.332 323.594C197.824 326.868 173.986 336.65 160.752 356.186C149.394 372.955 156.943 399.56 180.617 418.973H209.208C209.208 418.973 219.648 415.329 222.073 405.849C224.498 396.368 232.745 369.42 215.552 337.116Z" fill="white" stroke="#2855AF" stroke-width="0.75" stroke-linecap="round" stroke-linejoin="round"/>
<path d="M220.77 388.23C220.514 390.605 220.135 393.039 219.633 395.533" stroke="#2855AF" stroke-width="0.75" stroke-linecap="round" stroke-linejoin="round"/>
<path d="M212.619 341.239C212.619 341.239 222.469 358.214 221.209 382.969" stroke="#2855AF" stroke-width="0.75" stroke-linecap="round" stroke-linejoin="round"/>
<path d="M63.4808 415.521V391.23C50.8083 387.12 42.6294 382.243 34.9985 377.667C24.0385 371.105 16.3665 353.418 21.5177 341.965C26.2442 331.389 39.3277 326.662 46.2873 331.389C53.0793 335.852 60.0936 339.967 67.3031 343.719C67.3031 343.719 63.6589 331.567 64.1384 306.304C64.6179 281.041 66.0838 278.616 64.8645 276.671C63.6452 274.726 41.5745 287.727 25.1345 306.674C14.7088 318.744 1.33757 336.677 0.460772 364.926C-0.265328 387.518 10.4755 405.78 17.2159 410.835C28.8746 419.576 44.794 418.973 46.4928 418.973H63.4808C63.4808 417.726 63.4808 416.562 63.4808 415.521Z" fill="white" stroke="#2855AF" stroke-width="0.75" stroke-linecap="round" stroke-linejoin="round"/>
<path d="M5.625 369.68C5.74907 372.67 6.06943 375.65 6.58401 378.598" stroke="#2855AF" stroke-width="0.75" stroke-linecap="round" stroke-linejoin="round"/>
<path d="M44.7934 294.974C40.8478 298.508 34.9568 302.659 31.2989 306.893C20.8184 319.003 6.50186 336.307 5.59766 364.556" stroke="#2855AF" stroke-width="0.75" stroke-linecap="round" stroke-linejoin="round"/>
<path d="M101.347 416.054C101.347 429.412 80.7972 430.631 55.3152 430.631C29.8332 430.631 9.2832 430.138 9.2832 416.054C9.2832 396.6 29.8332 377.694 55.3152 377.694C80.7972 377.694 101.347 396.6 101.347 416.054Z" fill="#7CCCDB" stroke="#2855AF" stroke-width="0.75" stroke-linecap="round" stroke-linejoin="round"/>
<path d="M55.2617 377.681C31.7388 377.681 12.367 393.874 9.58594 411.698C12.3259 422.918 31.7388 423.343 55.2617 423.343C78.7846 423.343 98.1016 422.302 100.924 411.616C98.1564 393.819 78.7983 377.681 55.2617 377.681Z" fill="#2855AF" stroke="#2855AF" stroke-width="0.75" stroke-linecap="round" stroke-linejoin="round"/>
<path d="M220.359 417.48C220.359 429.577 201.699 430.686 178.683 430.686C155.667 430.686 136.994 430.248 136.994 417.48C136.994 399.875 155.654 382.723 178.683 382.723C201.713 382.723 220.359 399.875 220.359 417.48Z" fill="#7CCCDB" stroke="#2855AF" stroke-width="0.75" stroke-linecap="round" stroke-linejoin="round"/>
<path d="M178.685 382.723C157.381 382.723 139.831 397.395 137.324 413.548C139.831 423.699 157.381 424.083 178.685 424.083C199.988 424.083 217.469 423.138 220.031 413.465C217.469 397.354 199.947 382.723 178.685 382.723Z" fill="#2855AF" stroke="#2855AF" stroke-width="0.75" stroke-linecap="round" stroke-linejoin="round"/>
<path d="M340.961 273.41C339.331 272.801 338.011 271.57 337.289 269.987C336.567 268.405 336.503 266.601 337.111 264.971L355.606 215.528C355.907 214.718 356.365 213.976 356.953 213.343C357.542 212.71 358.249 212.2 359.034 211.84C359.82 211.481 360.668 211.28 361.532 211.248C362.395 211.217 363.256 211.356 364.066 211.657C364.875 211.959 365.618 212.417 366.25 213.005C366.883 213.593 367.393 214.3 367.753 215.086C368.112 215.871 368.313 216.72 368.345 217.583C368.376 218.447 368.237 219.308 367.936 220.117L349.441 269.56C349.139 270.372 348.68 271.116 348.09 271.749C347.5 272.382 346.79 272.893 346.002 273.25C345.214 273.608 344.362 273.807 343.497 273.834C342.632 273.861 341.77 273.717 340.961 273.41V273.41Z" fill="white" stroke="#2855AF" stroke-width="0.75" stroke-linecap="round" stroke-linejoin="round"/>
<path d="M362.25 224.433L351.865 251.723" stroke="#2855AF" stroke-width="0.75" stroke-linecap="round" stroke-linejoin="round"/>
<path d="M312.821 348.76C311.386 348.225 310.07 347.413 308.949 346.37C307.828 345.326 306.924 344.072 306.288 342.679C305.652 341.286 305.296 339.781 305.242 338.25C305.187 336.72 305.435 335.194 305.971 333.759L332.37 263.163C333.46 260.265 335.657 257.919 338.477 256.641C341.296 255.363 344.509 255.257 347.406 256.347C350.304 257.437 352.65 259.634 353.928 262.453C355.206 265.273 355.312 268.485 354.222 271.383L327.767 341.91C326.686 344.795 324.508 347.135 321.707 348.419C318.906 349.702 315.711 349.825 312.821 348.76V348.76Z" fill="#2855AF" stroke="#2855AF" stroke-width="0.75" stroke-linecap="round" stroke-linejoin="round"/>
<path d="M410.816 88.7068C397.655 83.785 383.329 82.8766 369.651 86.0965C355.973 89.3164 343.557 96.52 333.973 106.796C324.389 117.073 318.067 129.96 315.807 143.829C313.548 157.699 315.452 171.926 321.278 184.713C327.104 197.5 336.592 208.273 348.541 215.668C360.489 223.063 374.362 226.749 388.406 226.259C402.449 225.77 416.032 221.127 427.437 212.918C438.842 204.709 447.556 193.302 452.478 180.141C459.075 162.491 458.392 142.944 450.579 125.798C442.766 108.651 428.464 95.3099 410.816 88.7068V88.7068ZM365.346 210.281C354.465 206.209 345.035 199.002 338.249 189.572C331.463 180.141 327.626 168.91 327.223 157.298C326.82 145.687 329.869 134.217 335.985 124.338C342.1 114.459 351.008 106.616 361.581 101.8C372.154 96.9837 383.918 95.4108 395.385 97.2802C406.852 99.1495 417.507 104.377 426.003 112.302C434.499 120.227 440.455 130.493 443.116 141.802C445.778 153.112 445.026 164.957 440.956 175.839C435.495 190.431 424.462 202.257 410.283 208.716C396.104 215.174 379.94 215.737 365.346 210.281V210.281Z" fill="#2855AF" stroke="#2855AF" stroke-width="0.75" stroke-linecap="round" stroke-linejoin="round"/>
<path d="M338.289 133.67C341.14 127.385 345.208 121.727 350.259 117.024C355.311 112.321 361.244 108.666 367.717 106.271" stroke="#2855AF" stroke-width="0.75" stroke-linecap="round" stroke-linejoin="round"/>
<path d="M333.59 155.426C333.576 150.097 334.38 144.797 335.974 139.712" stroke="#2855AF" stroke-width="0.75" stroke-linecap="round" stroke-linejoin="round"/>
<path d="M318.575 169.921C315.038 153.627 317.526 136.602 325.578 122.002C333.631 107.401 346.702 96.2139 362.371 90.5122C378.039 84.8106 395.244 84.981 410.796 90.9918C426.349 97.0027 439.196 108.447 446.958 123.204" stroke="white" stroke-miterlimit="10"/>
<path d="M454.383 147.041C456.392 163.458 452.431 180.05 443.223 193.789C434.016 207.529 420.176 217.5 404.228 221.884C388.28 226.268 371.288 224.772 356.351 217.67C341.415 210.568 329.529 198.332 322.863 183.195" stroke="white" stroke-miterlimit="10"/>
<path d="M449.725 129.163C451.513 133.522 452.849 138.053 453.711 142.685" stroke="white" stroke-miterlimit="10"/>
<path d="M355.291 307.194C355.291 308.935 354.599 310.604 353.369 311.834C352.138 313.065 350.469 313.756 348.729 313.756H302.464C301.578 313.797 300.692 313.657 299.862 313.346C299.031 313.035 298.272 312.559 297.631 311.946C296.989 311.333 296.479 310.597 296.13 309.781C295.781 308.966 295.602 308.088 295.602 307.201C295.602 306.314 295.781 305.436 296.13 304.621C296.479 303.805 296.989 303.069 297.631 302.456C298.272 301.843 299.031 301.367 299.862 301.056C300.692 300.745 301.578 300.605 302.464 300.646H348.729C350.467 300.646 352.134 301.335 353.364 302.563C354.594 303.79 355.287 305.456 355.291 307.194V307.194Z" fill="#7CCCDB" stroke="#2855AF" stroke-width="0.75" stroke-linecap="round" stroke-linejoin="round"/>
<path d="M327.603 311.729C329.616 311.729 331.247 310.097 331.247 308.085C331.247 306.072 329.616 304.44 327.603 304.44C325.591 304.44 323.959 306.072 323.959 308.085C323.959 310.097 325.591 311.729 327.603 311.729Z" fill="white" stroke="#2855AF" stroke-width="0.75" stroke-linecap="round" stroke-linejoin="round"/>
<path d="M272.214 350.857C277.116 350.857 281.091 346.882 281.091 341.979C281.091 337.076 277.116 333.102 272.214 333.102C267.311 333.102 263.336 337.076 263.336 341.979C263.336 346.882 267.311 350.857 272.214 350.857Z" fill="#7CCCDB" stroke="#2855AF" stroke-width="0.75" stroke-linecap="round" stroke-linejoin="round"/>
<path d="M275.543 341.979C275.546 341.32 275.353 340.675 274.989 340.125C274.624 339.576 274.105 339.147 273.497 338.893C272.889 338.639 272.219 338.571 271.573 338.698C270.926 338.825 270.332 339.141 269.865 339.606C269.398 340.071 269.079 340.664 268.95 341.31C268.82 341.956 268.885 342.627 269.137 343.236C269.388 343.845 269.815 344.365 270.363 344.732C270.911 345.098 271.555 345.294 272.214 345.294C273.094 345.294 273.939 344.945 274.563 344.324C275.187 343.702 275.539 342.859 275.543 341.979V341.979Z" fill="white" stroke="#2855AF" stroke-width="0.75" stroke-linecap="round" stroke-linejoin="round"/>
<path d="M302.464 316.237C307.367 316.237 311.341 312.262 311.341 307.359C311.341 302.456 307.367 298.481 302.464 298.481C297.561 298.481 293.586 302.456 293.586 307.359C293.586 312.262 297.561 316.237 302.464 316.237Z" fill="#7CCCDB" stroke="#2855AF" stroke-width="0.75" stroke-linecap="round" stroke-linejoin="round"/>
<path d="M302.464 310.784C304.356 310.784 305.889 309.25 305.889 307.359C305.889 305.467 304.356 303.934 302.464 303.934C300.572 303.934 299.039 305.467 299.039 307.359C299.039 309.25 300.572 310.784 302.464 310.784Z" fill="white" stroke="#2855AF" stroke-width="0.75" stroke-linecap="round" stroke-linejoin="round"/>
</g>
<defs>
<clipPath id="clip0">
<rect width="539" height="446" fill="white"/>
</clipPath>
</defs>
</svg>
