<svg width="50" height="50" viewBox="0 0 50 50" fill="none" xmlns="http://www.w3.org/2000/svg">
<g clip-path="url(#clip0)">
<path d="M48.9583 47.9167H1.0417C0.466699 47.9167 0 48.3834 0 48.9584C0 49.5334 0.466699 50 1.0417 50H48.9584C49.5334 50 50.0001 49.5334 50.0001 48.9584C50 48.3834 49.5333 47.9167 48.9583 47.9167Z" fill="#2855AF"/>
<path d="M9.37568 35.4167H3.12568C2.55068 35.4167 2.08398 35.8834 2.08398 36.4584V48.9584C2.08398 49.5334 2.55068 50 3.12568 50H9.37568C9.95068 50 10.4174 49.5334 10.4174 48.9584V36.4584C10.4174 35.8834 9.95068 35.4167 9.37568 35.4167ZM8.33398 47.9167H4.16738V37.5H8.33408V47.9167H8.33398Z" fill="#2855AF"/>
<path d="M21.8757 25H15.6257C15.0507 25 14.584 25.4667 14.584 26.0417V48.9584C14.584 49.5334 15.0507 50.0001 15.6257 50.0001H21.8757C22.4507 50.0001 22.9174 49.5334 22.9174 48.9584V26.0417C22.9174 25.4667 22.4507 25 21.8757 25ZM20.834 47.9167H16.6673V27.0833H20.834V47.9167Z" fill="#2855AF"/>
<path d="M34.3757 29.1667H28.1257C27.5507 29.1667 27.084 29.6334 27.084 30.2084V48.9585C27.084 49.5335 27.5507 50.0002 28.1257 50.0002H34.3757C34.9507 50.0002 35.4174 49.5335 35.4174 48.9585V30.2084C35.4174 29.6334 34.9507 29.1667 34.3757 29.1667ZM33.334 47.9168H29.1673V31.2501H33.334V47.9168Z" fill="#2855AF"/>
<path d="M46.8757 16.6667H40.6257C40.0507 16.6667 39.584 17.1334 39.584 17.7084V48.9585C39.584 49.5335 40.0507 50.0002 40.6257 50.0002H46.8757C47.4507 50.0002 47.9174 49.5335 47.9174 48.9585V17.7084C47.9174 17.1333 47.4507 16.6667 46.8757 16.6667ZM45.834 47.9168H41.6673V18.75H45.834V47.9168Z" fill="#2855AF"/>
<path d="M6.25068 18.75C3.95273 18.75 2.08398 20.6188 2.08398 22.9167C2.08398 25.2146 3.95273 27.0834 6.25068 27.0834C8.54863 27.0834 10.4174 25.2146 10.4174 22.9167C10.4174 20.6188 8.54863 18.75 6.25068 18.75ZM6.25068 25C5.10068 25 4.16738 24.0646 4.16738 22.9167C4.16738 21.7688 5.10068 20.8334 6.25068 20.8334C7.40068 20.8334 8.33398 21.7688 8.33398 22.9167C8.33398 24.0646 7.40068 25 6.25068 25Z" fill="#7CCCDB"/>
<path d="M18.7507 8.33325C16.4527 8.33325 14.584 10.202 14.584 12.4999C14.584 14.7979 16.4527 16.6666 18.7507 16.6666C21.0486 16.6666 22.9174 14.7979 22.9174 12.4999C22.9174 10.202 21.0486 8.33325 18.7507 8.33325ZM18.7507 14.5832C17.6007 14.5832 16.6674 13.6478 16.6674 12.4999C16.6674 11.352 17.6007 10.4166 18.7507 10.4166C19.9007 10.4166 20.834 11.3521 20.834 12.4999C20.834 13.6479 19.9007 14.5832 18.7507 14.5832Z" fill="#7CCCDB"/>
<path d="M31.2507 12.5C28.9527 12.5 27.084 14.3688 27.084 16.6667C27.084 18.9646 28.9527 20.8334 31.2507 20.8334C33.5486 20.8334 35.4174 18.9646 35.4174 16.6667C35.4174 14.3688 33.5486 12.5 31.2507 12.5ZM31.2507 18.75C30.1007 18.75 29.1674 17.8146 29.1674 16.6667C29.1674 15.5188 30.1007 14.5834 31.2507 14.5834C32.4007 14.5834 33.334 15.5188 33.334 16.6667C33.334 17.8146 32.4007 18.75 31.2507 18.75Z" fill="#7CCCDB"/>
<path d="M43.7507 0C41.4527 0 39.584 1.86875 39.584 4.1667C39.584 6.46465 41.4527 8.3334 43.7507 8.3334C46.0486 8.3334 47.9174 6.46465 47.9174 4.1667C47.9174 1.86875 46.0486 0 43.7507 0ZM43.7507 6.25C42.6007 6.25 41.6674 5.31455 41.6674 4.1667C41.6674 3.01875 42.6007 2.0834 43.7507 2.0834C44.9007 2.0834 45.834 3.01885 45.834 4.1667C45.834 5.31455 44.9007 6.25 43.7507 6.25Z" fill="#7CCCDB"/>
<path d="M42.2789 5.63757C41.8727 5.23132 41.2122 5.23132 40.806 5.63757L32.7227 13.7209C32.3164 14.1271 32.3164 14.7876 32.7227 15.1938C32.9269 15.3959 33.1935 15.498 33.4602 15.498C33.7247 15.498 33.9914 15.398 34.1956 15.1938L42.2789 7.11052C42.6852 6.70427 42.6852 6.04382 42.2789 5.63757Z" fill="#7CCCDB"/>
<path d="M28.7314 14.2625L22.0397 12.3542C21.4793 12.1917 20.9105 12.5167 20.7543 13.0709C20.596 13.6251 20.9168 14.2001 21.4688 14.3584L28.1605 16.2667C28.2563 16.2937 28.3522 16.3062 28.446 16.3062C28.9002 16.3062 29.3168 16.0083 29.448 15.55C29.6064 14.9979 29.2856 14.4208 28.7314 14.2625Z" fill="#7CCCDB"/>
<path d="M17.1246 13.7979C16.7663 13.3479 16.1121 13.2749 15.6621 13.6312L7.80785 19.8937C7.35785 20.2541 7.28285 20.9082 7.6433 21.3582C7.84955 21.6165 8.15375 21.7499 8.45785 21.7499C8.6849 21.7499 8.9141 21.6749 9.1058 21.5249L16.96 15.2624C17.41 14.902 17.485 14.2479 17.1246 13.7979Z" fill="#7CCCDB"/>
</g>
<defs>
<clipPath id="clip0">
<rect width="50" height="50" fill="white"/>
</clipPath>
</defs>
</svg>
