<svg width="50" height="50" viewBox="0 0 50 50" fill="none" xmlns="http://www.w3.org/2000/svg">
<path d="M25 0C22.2385 0 20 2.23854 20 5C20 7.76146 22.2385 10 25 10C27.7603 9.99729 29.9973 7.76031 30 5C30 2.23854 27.7615 0 25 0ZM25 8.33333C23.1591 8.33333 21.6667 6.84094 21.6667 5C21.6667 3.15906 23.1591 1.66667 25 1.66667C26.8409 1.66667 28.3333 3.15906 28.3333 5C28.3333 6.84094 26.8409 8.33333 25 8.33333Z" fill="#2855AF"/>
<path d="M28.3333 10.8334H28.1367L27.9608 10.9209C26.0961 11.8493 23.9039 11.8493 22.0392 10.9209L21.8633 10.8334H21.6667C19.3667 10.8361 17.5027 12.7 17.5 15V20C17.5 21.3808 18.6193 22.5 20 22.5H30C31.3807 22.5 32.5 21.3808 32.5 20V15C32.4973 12.7 30.6333 10.8361 28.3333 10.8334ZM30.8333 20C30.8333 20.4602 30.4602 20.8334 30 20.8334H20C19.5398 20.8334 19.1667 20.4602 19.1667 20V15C19.1669 13.6884 20.1807 12.5998 21.4892 12.5067C23.7157 13.54 26.2844 13.54 28.5108 12.5067C29.8192 12.5998 30.8331 13.6884 30.8333 15V20Z" fill="#2855AF"/>
<path d="M42.5 27.5C39.7385 27.5 37.5 29.7385 37.5 32.5C37.5 35.2615 39.7385 37.5 42.5 37.5C45.2615 37.5 47.5 35.2615 47.5 32.5C47.4973 29.7397 45.2603 27.5027 42.5 27.5ZM42.5 35.8333C40.6591 35.8333 39.1667 34.3409 39.1667 32.5C39.1667 30.6591 40.6591 29.1667 42.5 29.1667C44.3409 29.1667 45.8333 30.6591 45.8333 32.5C45.8333 34.3409 44.3409 35.8333 42.5 35.8333Z" fill="#2855AF"/>
<path d="M45.8333 38.3333H45.6367L45.4608 38.4166C43.5961 39.3449 41.4039 39.3449 39.5392 38.4166L39.3633 38.3333H39.1667C36.8667 38.336 35.0027 40.1999 35 42.4999V47.4999C35 48.8806 36.1193 49.9999 37.5 49.9999H47.5C48.8807 49.9999 50 48.8806 50 47.4999V42.4999C49.9973 40.1999 48.1333 38.336 45.8333 38.3333ZM48.3333 47.4999C48.3333 47.9601 47.9602 48.3332 47.5 48.3332H37.5C37.0398 48.3332 36.6667 47.9601 36.6667 47.4999V42.4999C36.6669 41.1883 37.6807 40.0997 38.9892 40.0066C41.2157 41.0399 43.7843 41.0399 46.0108 40.0066C47.3193 40.0997 48.3331 41.1883 48.3333 42.4999V47.4999Z" fill="#2855AF"/>
<path d="M7.5 27.5C4.73854 27.5 2.5 29.7385 2.5 32.5C2.5 35.2615 4.73854 37.5 7.5 37.5C10.2615 37.5 12.5 35.2615 12.5 32.5C12.4973 29.7397 10.2603 27.5027 7.5 27.5ZM7.5 35.8333C5.65906 35.8333 4.16667 34.3409 4.16667 32.5C4.16667 30.6591 5.65906 29.1667 7.5 29.1667C9.34094 29.1667 10.8333 30.6591 10.8333 32.5C10.8333 34.3409 9.34094 35.8333 7.5 35.8333Z" fill="#2855AF"/>
<path d="M10.8333 38.3333H10.6367L10.4608 38.4166C8.59615 39.3449 6.40385 39.3449 4.53917 38.4166L4.36333 38.3333H4.16667C1.86667 38.336 0.00270833 40.1999 0 42.4999V47.4999C0 48.8806 1.11927 49.9999 2.5 49.9999H12.5C13.8807 49.9999 15 48.8806 15 47.4999V42.4999C14.9973 40.1999 13.1333 38.336 10.8333 38.3333ZM13.3333 47.4999C13.3333 47.9601 12.9602 48.3332 12.5 48.3332H2.5C2.03979 48.3332 1.66667 47.9601 1.66667 47.4999V42.4999C1.66688 41.1883 2.68073 40.0997 3.98917 40.0066C6.21573 41.0399 8.78427 41.0399 11.0108 40.0066C12.3193 40.0997 13.3331 41.1883 13.3333 42.4999V47.4999Z" fill="#2855AF"/>
<path d="M33.2675 42.3203C33.2671 42.3194 33.2667 42.3184 33.2663 42.3174C33.0858 41.894 32.5964 41.697 32.173 41.8774C28.41 43.4545 24.2308 43.7422 20.2872 42.6957L21.0672 42.4666C21.5091 42.3372 21.7624 41.8743 21.633 41.4324C21.5037 40.9905 21.0407 40.7372 20.5989 40.8666L17.2655 41.8441C17.253 41.8441 17.2439 41.8582 17.2322 41.8624C17.155 41.8912 17.0825 41.9314 17.0172 41.9816C16.9882 41.9972 16.9604 42.0147 16.9339 42.0341C16.846 42.1125 16.7763 42.2092 16.7297 42.3174C16.6845 42.4264 16.6629 42.5436 16.6664 42.6616C16.6867 42.7744 16.7145 42.8857 16.7497 42.9949C16.7547 43.0066 16.7497 43.0199 16.7589 43.0316L18.4255 46.2207C18.6387 46.629 19.1423 46.7872 19.5505 46.5741C19.9588 46.3609 20.117 45.8573 19.9039 45.4491L19.2255 44.1524C23.7062 45.4993 28.5167 45.2375 32.8247 43.4124C33.2485 43.2331 33.4468 42.7442 33.2675 42.3203Z" fill="#7CCCDB"/>
<path d="M47.2554 21.9109C46.93 21.5856 46.4025 21.5856 46.0771 21.9109L44.8979 23.0901C44.2079 15.7911 39.5739 9.45719 32.8263 6.59011C32.4028 6.40969 31.9133 6.60667 31.7329 7.03011C31.5525 7.45354 31.7495 7.94302 32.1729 8.12344C38.2261 10.696 42.4338 16.3181 43.1954 22.8509L42.2554 21.9109C41.9244 21.5911 41.3969 21.6003 41.0771 21.9314C40.7652 22.2543 40.7652 22.7663 41.0771 23.0893L43.5771 25.5893C43.9021 25.9151 44.4298 25.9158 44.7556 25.5907C44.7562 25.5902 44.7567 25.5897 44.7571 25.5893L47.2571 23.0893C47.582 22.7634 47.5813 22.2359 47.2554 21.9109Z" fill="#7CCCDB"/>
<path d="M18.3092 7.21586C18.3065 7.16722 18.2993 7.11899 18.2875 7.0717C18.2875 7.0642 18.2783 7.0592 18.275 7.05086C18.2717 7.04253 18.275 7.0367 18.275 7.03003C18.2523 6.98951 18.226 6.95097 18.1967 6.91503C18.1697 6.86618 18.1378 6.82014 18.1017 6.77753C18.0524 6.73389 17.9978 6.6967 17.9392 6.6667C17.9099 6.6418 17.8787 6.6192 17.8458 6.5992L14.5125 5.0767C14.0868 4.9019 13.5999 5.10534 13.4251 5.53107C13.2598 5.93368 13.4322 6.39576 13.8208 6.5917L15.5467 7.38086C9.04948 10.8581 4.99532 17.6309 5 25C5 25.4602 5.37313 25.8334 5.83334 25.8334C6.29355 25.8334 6.66667 25.4602 6.66667 25C6.6625 18.5112 10.0939 12.505 15.6858 9.21336L15.0833 10.4725C14.8847 10.8868 15.0588 11.3837 15.4725 11.5834C15.5849 11.6383 15.7082 11.6668 15.8333 11.6667C16.1533 11.6663 16.4448 11.4826 16.5833 11.1942L18.25 7.7167C18.25 7.70836 18.25 7.6992 18.2567 7.69086C18.2783 7.63389 18.2934 7.57461 18.3017 7.5142C18.3159 7.4693 18.3266 7.42336 18.3333 7.3767C18.3305 7.32243 18.3225 7.26857 18.3092 7.21586Z" fill="#7CCCDB"/>
</svg>
