<svg width="50" height="50" viewBox="0 0 50 50" fill="none" xmlns="http://www.w3.org/2000/svg">
<path d="M49.2171 0.417603H25H0.78291C0.350488 0.417603 0 0.768091 0 1.20042V11.2213V48.7996C0 49.232 0.350488 49.5825 0.78291 49.5825H25H49.2171C49.6494 49.5825 50 49.2321 50 48.7996V11.2213V1.20042C50 0.768091 49.6495 0.417603 49.2171 0.417603ZM48.4343 48.0167H25H1.56572V12.0042H25H48.4343V48.0167ZM48.4343 10.4384H25H1.56572V1.98333H25H48.4343V10.4384Z" fill="#2855AF"/>
<path d="M41.7012 3.75781H32.5153C32.083 3.75781 31.7324 4.1083 31.7324 4.54072C31.7324 4.97305 32.0829 5.32363 32.5153 5.32363H41.7012C42.1335 5.32363 42.4841 4.97314 42.4841 4.54072C42.4841 4.1084 42.1335 3.75781 41.7012 3.75781Z" fill="#2855AF"/>
<path d="M45.8769 3.75781H44.2067C43.7744 3.75781 43.4238 4.1083 43.4238 4.54072C43.4238 4.97305 43.7743 5.32363 44.2067 5.32363H45.8769C46.3092 5.32363 46.6598 4.97314 46.6598 4.54072C46.6597 4.1084 46.3092 3.75781 45.8769 3.75781Z" fill="#2855AF"/>
<path d="M25.835 2.92273C25.4605 2.92273 25.0916 2.98591 24.7391 3.11062C24.7382 3.11091 24.7375 3.1114 24.7366 3.1116C23.4269 3.57585 22.5469 4.82097 22.5469 6.21091C22.5469 7.60076 23.4269 8.84587 24.7365 9.31023C24.7374 9.31052 24.7381 9.31101 24.739 9.3113C25.0916 9.43591 25.4604 9.49919 25.8349 9.49919C27.648 9.49919 29.123 8.0241 29.123 6.21111C29.123 4.39812 27.6481 2.92273 25.835 2.92273ZM25.835 7.93318C25.6386 7.93318 25.4455 7.90007 25.2607 7.83484C25.2606 7.83484 25.2606 7.83474 25.2605 7.83474C24.5739 7.59177 24.1126 6.93923 24.1126 6.21081C24.1126 5.4824 24.5738 4.82996 25.2606 4.58689C25.2606 4.58689 25.2607 4.58689 25.2608 4.58679C25.4455 4.52146 25.6387 4.48845 25.8351 4.48845C26.7848 4.48845 27.5574 5.26111 27.5574 6.21081C27.5574 7.16052 26.7847 7.93318 25.835 7.93318Z" fill="#2855AF"/>
<path d="M16.6494 2.92273C14.8363 2.92273 13.3613 4.39783 13.3613 6.21082C13.3613 8.0238 14.8364 9.4989 16.6494 9.4989C18.4624 9.4989 19.9375 8.0239 19.9375 6.21082C19.9375 4.39773 18.4624 2.92273 16.6494 2.92273ZM16.6494 7.93318C15.6997 7.93318 14.9271 7.16052 14.9271 6.21082C14.9271 5.26111 15.6997 4.48845 16.6494 4.48845C17.5991 4.48845 18.3718 5.26111 18.3718 6.21082C18.3718 7.16052 17.599 7.93318 16.6494 7.93318Z" fill="#2855AF"/>
<path d="M7.46387 2.92273C5.65078 2.92273 4.17578 4.39783 4.17578 6.21082C4.17578 8.0238 5.65088 9.4989 7.46387 9.4989C9.27686 9.4989 10.752 8.0239 10.752 6.21082C10.752 4.39773 9.27695 2.92273 7.46387 2.92273ZM7.46387 7.93318C6.51416 7.93318 5.7415 7.16052 5.7415 6.21082C5.7415 5.26111 6.51416 4.48845 7.46387 4.48845C8.41357 4.48845 9.18623 5.26111 9.18623 6.21082C9.18623 7.16052 8.41357 7.93318 7.46387 7.93318Z" fill="#2855AF"/>
<path d="M40.4016 23.1489L34.4885 17.1476C34.2698 16.9256 33.9152 16.9256 33.6965 17.1476L29.9269 20.9734H24.7228H11.8803C11.5711 20.9734 11.3203 21.2278 11.3203 21.5417C11.3203 21.8557 11.571 22.1101 11.8803 22.1101H24.7228H28.8069L24.3268 26.6568L20.3696 30.673H11.8803C11.5711 30.673 11.3203 30.9274 11.3203 31.2413C11.3203 31.5552 11.571 31.8097 11.8803 31.8097H19.2496L18.0427 33.0346C18.0421 33.0352 18.0415 33.0358 18.0408 33.0365L18.0398 33.0375C18.0381 33.0392 18.0367 33.0411 18.035 33.0429C18.0239 33.0546 18.0131 33.0665 18.0028 33.0791C17.999 33.0837 17.9958 33.0887 17.9921 33.0934C17.9846 33.1033 17.977 33.1133 17.9701 33.1238C17.9656 33.1307 17.9616 33.1379 17.9573 33.145C17.9522 33.1537 17.9468 33.1622 17.9421 33.1712C17.9374 33.1803 17.9332 33.1897 17.929 33.1989C17.9256 33.2063 17.9219 33.2136 17.9188 33.2212C17.9141 33.2327 17.9101 33.2446 17.9061 33.2563C17.9042 33.2621 17.9019 33.2677 17.9001 33.2737C17.8957 33.2887 17.892 33.3039 17.8888 33.3192C17.8882 33.3222 17.8873 33.3249 17.8866 33.3279L17.8863 33.3297C17.8862 33.3304 17.886 33.331 17.8859 33.3318L16.4985 40.3726H11.8803C11.5711 40.3726 11.3203 40.627 11.3203 40.941C11.3203 41.2548 11.571 41.5093 11.8803 41.5093H16.9545C16.9554 41.5093 16.9561 41.5094 16.957 41.5094C16.9572 41.5094 16.9574 41.5094 16.9577 41.5094C16.9579 41.5094 16.958 41.5094 16.9583 41.5094C16.9591 41.5094 16.96 41.5093 16.9608 41.5093H17.3992C17.5486 41.5093 17.684 41.4495 17.7844 41.3528L20.2319 40.856C20.2322 40.8559 20.2326 40.8558 20.2329 40.8557L20.2352 40.8553L24.4554 39.9987C24.4558 39.9986 24.4564 39.9985 24.457 39.9984L24.4589 39.9981C24.4622 39.9974 24.4653 39.9963 24.4686 39.9956C24.4832 39.9923 24.4978 39.9888 24.5122 39.9844C24.5184 39.9825 24.5242 39.9801 24.5302 39.978C24.5415 39.974 24.5529 39.9702 24.5639 39.9656C24.5717 39.9623 24.5792 39.9584 24.5868 39.9548C24.5956 39.9506 24.6045 39.9466 24.6132 39.9419C24.6222 39.9369 24.6308 39.9314 24.6396 39.926C24.6463 39.9219 24.6533 39.918 24.6599 39.9135C24.6703 39.9065 24.6801 39.8988 24.69 39.8911C24.6946 39.8875 24.6995 39.8842 24.704 39.8803C24.7163 39.8701 24.7279 39.8593 24.7392 39.8481C24.7411 39.8461 24.7432 39.8447 24.7449 39.8427L24.746 39.8416C24.7466 39.841 24.7472 39.8405 24.7478 39.8398L25.1186 39.4635L32.8238 31.6435L36.1778 28.2395L40.4015 23.953C40.6203 23.7306 40.6203 23.3708 40.4016 23.1489ZM20.9975 31.6431C20.9976 31.643 20.9976 31.6429 20.9977 31.6429L25.1189 27.4604L29.8689 22.6396L30.9776 23.7649L20.3366 34.5644L19.2278 33.4391L20.9975 31.6431ZM31.7695 24.5687L33.0894 25.9083L28.2307 30.8393L24.3269 34.8013L22.4485 36.7077L21.1285 35.3681L31.7695 24.5687ZM17.6715 40.2162L17.9351 38.8785L18.9896 39.9487L17.6715 40.2162ZM20.3094 39.6808L18.1991 37.5391L18.7799 34.592L19.9407 35.7701L22.0525 37.9135L23.2134 39.0915L20.3094 39.6808ZM32.032 30.8393L24.3491 38.6366L23.2403 37.5114L25.1188 35.605L29.0226 31.6431L33.8813 26.712L34.99 27.8372L32.032 30.8393ZM35.782 27.0335L34.2773 25.5065L32.1654 23.3631L30.6608 21.836L34.0926 18.3532L39.2138 23.5507L35.782 27.0335Z" fill="#7CCCDB"/>
<path d="M34.7364 41.115C34.7365 40.6826 34.3859 40.332 33.9536 40.3321L31.2964 40.3321C30.864 40.3321 30.5135 40.6826 30.5136 41.115C30.5136 41.3311 30.6012 41.5269 30.7428 41.6685C30.8844 41.8101 31.0801 41.8978 31.2963 41.8977L33.9535 41.8977C34.386 41.8978 34.7366 41.5472 34.7364 41.115Z" fill="#7CCCDB"/>
</svg>
