<svg width="50" height="50" viewBox="0 0 50 50" fill="none" xmlns="http://www.w3.org/2000/svg">
<g clip-path="url(#clip0)">
<path d="M36.5396 16.614C36.5396 21.9775 32.5385 26.568 27.2326 27.2919L26.5506 27.385V33.491H24.8678V27.3729L24.1959 27.2724C18.9439 26.4862 14.9835 21.9041 14.9835 16.614C14.9835 10.671 19.8186 5.83591 25.7616 5.83591V4.25867C18.9488 4.25867 13.4062 9.80125 13.4062 16.614C13.4062 19.5894 14.489 22.4664 16.455 24.7151C18.2457 26.7634 20.6526 28.1662 23.2906 28.7126V33.491H21.8415V48.7381H29.4946V33.491H28.128V28.742C30.7958 28.2233 33.2302 26.8299 35.0417 24.7708C37.0249 22.5165 38.1171 19.6197 38.1171 16.614H36.5396ZM27.9171 47.1608H23.4186V35.0683H27.9171V47.1608Z" fill="#7CCCDB"/>
<path d="M25.0898 10.788C22.9228 11.0066 21.0505 12.4731 20.3203 14.5243L21.8062 15.0533C22.3333 13.5733 23.6842 12.515 25.2482 12.3573L25.0898 10.788Z" fill="#7CCCDB"/>
<path d="M29.7845 18.1995C29.1929 19.8612 27.6093 20.9507 25.8498 20.915L25.8164 22.4918C25.8571 22.4928 25.8975 22.4932 25.9381 22.4932C28.3313 22.4932 30.4644 20.993 31.2705 18.7285L29.7845 18.1995Z" fill="#7CCCDB"/>
<path d="M33.5963 16.7193C33.5963 21.0678 30.0584 24.6057 25.7099 24.6057C21.3613 24.6057 17.8234 21.0678 17.8234 16.7193C17.8234 12.3708 21.3613 8.83286 25.7099 8.83286V7.25562C20.4916 7.25562 16.2461 11.501 16.2461 16.7194C16.2461 21.9377 20.4915 26.1832 25.7099 26.1832C30.9282 26.1832 35.1736 21.9377 35.1736 16.7194H33.5963V16.7193Z" fill="#7CCCDB"/>
<path d="M19.8747 42.9022V38.1704H17.1043C17.0208 37.9348 16.9247 37.7034 16.8161 37.4771L18.776 35.5174L15.43 32.1714L13.4702 34.1312C13.2438 34.0226 13.0125 33.9265 12.777 33.843V31.0726H8.04502V33.8431C7.80947 33.9266 7.57803 34.0227 7.35176 34.1313L5.39199 32.1715L2.046 35.5175L4.00586 37.4771C3.89727 37.7035 3.80117 37.9348 3.71768 38.1704H0.947266V42.9022H3.71787C3.80137 43.1378 3.89746 43.3692 4.00605 43.5955L2.04619 45.5552L5.39219 48.9012L7.35176 46.9414C7.57812 47.05 7.80947 47.1461 8.04502 47.2296V50H12.7769V47.2295C13.0124 47.146 13.2438 47.0499 13.4701 46.9413L15.4299 48.9011L18.7759 45.5552L16.816 43.5954C16.9246 43.369 17.0207 43.1377 17.1042 42.9021H19.8747V42.9022ZM16.5451 45.5552L15.4298 46.6705L13.7402 44.9806L13.2138 45.2918C12.766 45.5563 12.2877 45.7552 11.7918 45.8827L11.1997 46.035V48.4225H9.62236H9.62226V46.0351L9.03017 45.8828C8.53437 45.7552 8.05605 45.5565 7.6082 45.2919L7.08174 44.9807L5.39219 46.6706L4.27685 45.5552L5.9667 43.8657L5.65557 43.3392C5.39101 42.8915 5.19219 42.4132 5.06465 41.9173L4.9123 41.3252H2.52451V39.7479H4.91201L5.06455 39.1557C5.19209 38.6599 5.39082 38.1816 5.65547 37.7338L5.9666 37.2073L4.27676 35.5177L5.39209 34.4024L7.08164 36.0923L7.6081 35.7811C8.05586 35.5166 8.53418 35.3177 9.03008 35.1902L9.62217 35.0379V32.6504H11.1994V35.0381L11.7915 35.1904C12.2873 35.3179 12.7656 35.5167 13.2135 35.7813L13.7399 36.0925L15.4295 34.4026L16.5448 35.5179L14.855 37.2075L15.1661 37.734C15.4307 38.1817 15.6295 38.66 15.757 39.1559L15.9094 39.748H18.2969V41.3253H15.9093L15.7569 41.9174C15.6294 42.4132 15.4307 42.8915 15.166 43.3393L14.8549 43.8658L16.5451 45.5552Z" fill="#2855AF"/>
<path d="M10.4101 36.593C8.23574 36.593 6.4668 38.3619 6.4668 40.5363C6.4668 42.7106 8.23564 44.4795 10.4101 44.4795C12.5845 44.4795 14.3533 42.7107 14.3533 40.5363C14.3533 38.3619 12.5845 36.593 10.4101 36.593ZM10.4101 42.9022C9.10557 42.9022 8.04414 41.8408 8.04414 40.5363C8.04414 39.2318 9.10557 38.1704 10.4101 38.1704C11.7146 38.1704 12.776 39.2318 12.776 40.5363C12.776 41.8408 11.7146 42.9022 10.4101 42.9022Z" fill="#7CCCDB"/>
<path d="M42.5869 9.65488V5.59209H40.3537C40.3099 5.47617 40.2623 5.36162 40.2109 5.24854L41.7904 3.66904L38.9178 0.796387L37.3383 2.37588C37.2251 2.32451 37.1106 2.27695 36.9947 2.23311V0H32.9319V2.2332C32.816 2.27705 32.7015 2.32461 32.5884 2.37598L31.0089 0.796484L28.1362 3.66914L29.7157 5.24863C29.6643 5.36182 29.6168 5.47627 29.5729 5.59219H27.3398V9.65498H29.5729C29.6168 9.7709 29.6644 9.88545 29.7157 9.99854L28.1362 11.578L31.0089 14.4507L32.5884 12.8712C32.7016 12.9227 32.816 12.9701 32.9319 13.014V15.2471H36.9947H36.9948V13.0139C37.1107 12.97 37.2253 12.9225 37.3384 12.8711L38.9179 14.4506L41.7905 11.5779L40.211 9.99844C40.2625 9.88525 40.31 9.7708 40.3538 9.65488H42.5869ZM39.5599 11.5779L38.9178 12.22L37.6132 10.9154L37.0867 11.2265C36.7476 11.4269 36.3852 11.5774 36.0098 11.6741L35.4177 11.8265V13.6699H34.5095H34.5094V11.8264L33.9173 11.674C33.5419 11.5773 33.1795 11.4269 32.8403 11.2264L32.3139 10.9153L31.0093 12.2199L30.3672 11.5778L31.6718 10.2732L31.3607 9.74678C31.1603 9.40762 31.0098 9.04521 30.9131 8.66982L30.7607 8.07773H28.9173V7.16953H30.7608L30.9132 6.57744C31.0099 6.20205 31.1603 5.83965 31.3608 5.50049L31.6719 4.97402L30.3673 3.66943L31.0094 3.02734L32.314 4.33193L32.8404 4.0209C33.1796 3.82051 33.542 3.66992 33.9174 3.57324L34.5095 3.4209V1.57725H35.4177V3.4208L36.0098 3.57314C36.3852 3.66982 36.7476 3.82031 37.0867 4.0208L37.6132 4.33184L38.9178 3.02725L39.5599 3.66934L38.2553 4.97393L38.5663 5.50039C38.7667 5.83955 38.9173 6.20195 39.014 6.57734L39.1663 7.16943H41.0098V8.07764H39.1662L39.0139 8.66973C38.9172 9.04512 38.7667 9.40752 38.5662 9.74668L38.2552 10.2731L39.5599 11.5779Z" fill="#2855AF"/>
<path d="M34.9628 4.99475C33.5133 4.99475 32.334 6.17405 32.334 7.62356C32.334 9.07307 33.5133 10.2524 34.9628 10.2524C36.4123 10.2524 37.5916 9.07307 37.5916 7.62356C37.5916 6.17405 36.4123 4.99475 34.9628 4.99475ZM34.9628 8.67512C34.383 8.67512 33.9112 8.20344 33.9112 7.62356C33.9112 7.04368 34.3829 6.572 34.9628 6.572C35.5427 6.572 36.0144 7.04368 36.0144 7.62356C36.0144 8.20344 35.5426 8.67512 34.9628 8.67512Z" fill="#7CCCDB"/>
<path d="M45.8995 16.5615H44.3223V18.1388H45.8995V16.5615Z" fill="#7CCCDB"/>
<path d="M42.7452 16.5615H41.168V18.1388H42.7452V16.5615Z" fill="#7CCCDB"/>
<path d="M49.0538 16.5615H47.4766V18.1388H49.0538V16.5615Z" fill="#7CCCDB"/>
<path d="M7.41319 16.5615H5.83594V18.1388H7.41319V16.5615Z" fill="#7CCCDB"/>
<path d="M4.25889 16.5615H2.68164V18.1388H4.25889V16.5615Z" fill="#7CCCDB"/>
<path d="M10.5675 16.5615H8.99023V18.1388H10.5675V16.5615Z" fill="#7CCCDB"/>
</g>
<defs>
<clipPath id="clip0">
<rect width="50" height="50" fill="white"/>
</clipPath>
</defs>
</svg>
