<svg width="50" height="50" viewBox="0 0 50 50" fill="none" xmlns="http://www.w3.org/2000/svg">
<path d="M27.1404 13.7672L25.4921 13.464V15.4545L27.7263 15.9091C33.3642 17.5625 36.3136 23.2692 34.2119 28.7807C33.4491 30.7812 31.3848 32.9721 29.5853 33.7985C28.0588 34.4995 26.7322 34.9715 25.2346 34.9715C22.9426 34.9715 22.1626 34.6399 20.6133 33.9072C18.5724 32.9419 17.0017 31.1882 16.0216 29.1946C16.0216 29.1946 15.5292 27.3137 15.4969 26.3409C15.3408 21.6407 15.3408 14.9789 15.3408 14.9789C15.3019 7.90524 15.2123 2.11768 15.1417 2.11768C15.0712 2.11768 14.6782 2.29078 14.2684 2.50235L13.5234 2.88702L13.5963 15.4879C13.5963 15.4879 13.5963 21.6554 13.8199 26.264C13.8825 27.5539 14.5939 30.0223 14.5939 30.0223C16.4949 33.9635 20.4172 36.6287 25.1144 36.6377C27.9551 36.6432 31.2084 35.4512 33.5209 32.9573C35.0425 31.3162 35.9904 29.5347 36.4153 27.5173C37.7459 21.2007 33.524 14.9417 27.1404 13.7672Z" fill="#7CCCDB"/>
<path d="M20.5692 13.5133L20.5692 13.513L20.4993 1.47636C20.9464 1.39455 21.9649 1.24193 23.021 1.10736C26.9833 0.602483 32.9899 1.91465 37.0089 4.21066C42.4743 7.33296 46.623 12.7078 48.3499 18.9257C48.6546 20.0228 48.8084 20.677 48.894 21.4805C48.9819 22.3061 49 23.3095 49 25.1064C49 26.8948 48.9815 27.9004 48.8947 28.724C48.8103 29.5251 48.6591 30.1729 48.3615 31.2437C46.013 39.6937 40.0604 45.7197 31.4991 48.2873C29.7551 48.8104 28.9824 48.9138 25.7207 48.9833C23.0656 49.0398 21.4377 48.9518 20.3772 48.7325C16.1674 47.862 12.2475 45.9211 9.18037 43.2012C1.2812 36.1962 -1.16282 25.199 3.01528 15.3955C4.02792 13.0194 5.68824 10.5799 7.76268 8.44935L7.96948 8.23696L8.07474 17.2075C8.13856 22.6467 8.17783 25.5363 8.26695 27.234C8.35843 28.9768 8.5079 29.5645 8.81187 30.373C9.89094 33.2433 11.0731 35.1185 13.0908 37.1249C18.3139 42.3186 25.9988 43.6264 32.532 40.4081C38.6558 37.3915 42.5295 30.8346 42.0781 24.169C41.7772 19.7253 40.2567 16.4242 37.0408 13.1931C34.608 10.7487 31.7223 9.13087 28.56 8.47021C28.4306 8.44317 28.3048 8.41663 28.183 8.39092C27.6255 8.27327 27.15 8.17291 26.7783 8.12093C26.5469 8.08857 26.3024 8.06649 26.0664 8.08119C25.8276 8.09606 25.5359 8.15195 25.26 8.32749C24.6644 8.70646 24.5589 9.35653 24.5224 9.7271C24.4896 10.0594 24.4909 10.4909 24.4924 10.9626C24.4928 11.0635 24.4931 11.1662 24.4931 11.2702V13.464V17.4748V19.66V20.428L25.2351 20.6261L26.3411 20.9215C29.5394 21.7756 30.5541 26.1197 28.0137 28.345C27.5199 28.7777 27.0961 29.0499 26.6363 29.2232C26.1746 29.3972 25.6165 29.4941 24.8275 29.4941C23.3627 29.4941 21.9 28.5978 21.141 27.1722C20.7 26.3437 20.6596 25.5497 20.6596 25.1709C20.6596 23.085 20.637 20.1694 20.6144 17.7779C20.6031 16.5816 20.5918 15.5155 20.5833 14.7484C20.5791 14.3649 20.5756 14.056 20.5731 13.8431L20.5702 13.5982L20.5695 13.5346L20.5693 13.5184L20.5693 13.5159L20.5692 13.5143L20.5692 13.5133Z" stroke="#2855AF" stroke-width="2"/>
</svg>
