<svg width="176" height="152" viewBox="0 0 176 152" fill="none" xmlns="http://www.w3.org/2000/svg">
<path opacity="0.05" d="M40.68 151.44C33.72 151.44 27.52 149.72 22.08 146.28C16.64 142.84 12.36 137.88 9.24 131.4C6.2 124.84 4.68 117.04 4.68 108C4.68 98.96 6.2 91.2 9.24 84.72C12.36 78.16 16.64 73.16 22.08 69.72C27.52 66.28 33.72 64.56 40.68 64.56C47.64 64.56 53.84 66.28 59.28 69.72C64.72 73.16 68.96 78.16 72 84.72C75.12 91.2 76.68 98.96 76.68 108C76.68 117.04 75.12 124.84 72 131.4C68.96 137.88 64.72 142.84 59.28 146.28C53.84 149.72 47.64 151.44 40.68 151.44ZM40.68 135C45.8 135 49.8 132.8 52.68 128.4C55.64 124 57.12 117.2 57.12 108C57.12 98.8 55.64 92 52.68 87.6C49.8 83.2 45.8 81 40.68 81C35.64 81 31.64 83.2 28.68 87.6C25.8 92 24.36 98.8 24.36 108C24.36 117.2 25.8 124 28.68 128.4C31.64 132.8 35.64 135 40.68 135ZM124.193 100.2C131.553 101.4 137.193 104.16 141.113 108.48C145.033 112.72 146.993 118 146.993 124.32C146.993 129.2 145.713 133.72 143.153 137.88C140.593 141.96 136.673 145.24 131.393 147.72C126.193 150.2 119.793 151.44 112.193 151.44C106.273 151.44 100.433 150.68 94.6734 149.16C88.9934 147.56 84.1534 145.32 80.1534 142.44L87.7134 127.56C90.9134 129.96 94.5934 131.84 98.7534 133.2C102.993 134.48 107.313 135.12 111.713 135.12C116.593 135.12 120.433 134.2 123.233 132.36C126.033 130.44 127.433 127.76 127.433 124.32C127.433 117.44 122.193 114 111.713 114H102.833V101.16L120.113 81.6H84.3534V66H143.153V78.6L124.193 100.2Z" fill="#2855AF"/>
<rect x="55" y="3" width="118" height="118" rx="59" stroke="#2855AF" stroke-width="6"/>
<path d="M131.524 70.1648L125.602 74.081C124.853 72.7995 123.444 71.946 121.874 71.946H116.645C115.519 71.946 114.991 71.1286 114.463 70.7489C110.421 67.2442 104.325 67.2442 100.285 70.7468L99.1429 71.7312H88.0742C87.4809 71.7312 87 72.2121 87 72.8054V85.6956C87 86.289 87.4809 86.7698 88.0742 86.7698H99.2268L118.475 89.9778C118.758 90.0252 119.05 89.9568 119.284 89.7865L141.559 73.5565C142.036 73.2082 142.143 72.5394 141.797 72.0597C139.439 68.7901 134.929 67.9555 131.524 70.1648ZM118.383 87.7845L99.4924 84.6361C99.4341 84.6264 99.3749 84.6214 99.3158 84.6214H89.1484V73.8796H99.5423C100.194 73.8796 100.379 73.4172 101.69 72.3719C104.929 69.563 109.816 69.563 113.056 72.3724C113.507 72.6762 114.562 74.0945 116.645 74.0945H121.874C123.04 74.0945 124.022 75.0176 124.022 76.1837C124.022 77.3419 123.059 78.2839 121.874 78.2839H108.983C108.39 78.2839 107.909 78.7648 107.909 79.3581C107.909 79.9511 108.39 80.4324 108.983 80.4324H121.874C124.21 80.4324 126.117 78.5789 126.17 76.2811L132.701 71.962C134.828 70.5819 137.561 70.8609 139.343 72.5121L118.383 87.7845Z" fill="#2855AF"/>
<path d="M122.02 56.0479C122.02 56.6412 121.539 57.1221 120.945 57.1221C120.352 57.1221 119.871 56.6412 119.871 56.0479C119.871 55.4545 120.352 54.9736 120.945 54.9736C121.539 54.9736 122.02 55.4545 122.02 56.0479Z" fill="#7CCCDB"/>
<path d="M107.945 61.4186H133.726C134.319 61.4186 134.8 60.9378 134.8 60.3448V56.152L138.054 39.5029C138.137 39.0774 137.956 38.6435 137.595 38.4031C137.234 38.1627 136.764 38.1627 136.403 38.4031L127.629 44.2525L121.78 35.4784C121.581 35.1796 121.245 35 120.886 35C120.527 35 120.192 35.1796 119.992 35.4784L114.143 44.2521L105.369 38.4031C105.009 38.1631 104.541 38.1622 104.18 38.401C103.82 38.6398 103.638 39.0715 103.718 39.4966L106.871 56.1487V60.3448C106.871 60.9378 107.352 61.4186 107.945 61.4186V61.4186ZM113.845 46.636C114.339 46.965 115.006 46.8315 115.335 46.338L120.886 38.0107L126.438 46.338C126.767 46.8315 127.434 46.965 127.927 46.636L135.451 41.6203L132.842 54.9738H125.777C125.184 54.9738 124.703 55.4546 124.703 56.048C124.703 56.6413 125.184 57.1222 125.777 57.1222H132.652V59.2706H109.02V57.1222H116.109C116.703 57.1222 117.184 56.6413 117.184 56.048C117.184 55.4546 116.703 54.9738 116.109 54.9738H108.835L106.304 41.6085L113.845 46.636Z" fill="#7CCCDB"/>
</svg>
