<svg width="178" height="152" viewBox="0 0 178 152" fill="none" xmlns="http://www.w3.org/2000/svg">
<path opacity="0.05" d="M40.68 151.44C33.72 151.44 27.52 149.72 22.08 146.28C16.64 142.84 12.36 137.88 9.24 131.4C6.2 124.84 4.68 117.04 4.68 108C4.68 98.96 6.2 91.2 9.24 84.72C12.36 78.16 16.64 73.16 22.08 69.72C27.52 66.28 33.72 64.56 40.68 64.56C47.64 64.56 53.84 66.28 59.28 69.72C64.72 73.16 68.96 78.16 72 84.72C75.12 91.2 76.68 98.96 76.68 108C76.68 117.04 75.12 124.84 72 131.4C68.96 137.88 64.72 142.84 59.28 146.28C53.84 149.72 47.64 151.44 40.68 151.44ZM40.68 135C45.8 135 49.8 132.8 52.68 128.4C55.64 124 57.12 117.2 57.12 108C57.12 98.8 55.64 92 52.68 87.6C49.8 83.2 45.8 81 40.68 81C35.64 81 31.64 83.2 28.68 87.6C25.8 92 24.36 98.8 24.36 108C24.36 117.2 25.8 124 28.68 128.4C31.64 132.8 35.64 135 40.68 135ZM148.182 134.16V150H84.7022V137.4L117.102 106.8C120.542 103.52 122.862 100.72 124.062 98.4C125.262 96 125.862 93.64 125.862 91.32C125.862 87.96 124.702 85.4 122.382 83.64C120.142 81.8 116.822 80.88 112.422 80.88C108.742 80.88 105.422 81.6 102.462 83.04C99.5022 84.4 97.0222 86.48 95.0222 89.28L80.8622 80.16C84.1422 75.28 88.6622 71.48 94.4222 68.76C100.182 65.96 106.782 64.56 114.222 64.56C120.462 64.56 125.902 65.6 130.542 67.68C135.262 69.68 138.902 72.56 141.462 76.32C144.102 80 145.422 84.36 145.422 89.4C145.422 93.96 144.462 98.24 142.542 102.24C140.622 106.24 136.902 110.8 131.382 115.92L112.062 134.16H148.182Z" fill="#2855AF"/>
<rect x="41" y="4" width="133" height="116" stroke="#2855AF" stroke-width="8"/>
<g clip-path="url(#clip0)">
<path d="M107.479 69.8487C108.369 69.8487 109.09 69.127 109.09 68.237V66.2627C109.09 65.3727 108.369 64.6514 107.479 64.6514C106.589 64.6514 105.867 65.3727 105.867 66.2627V68.237C105.867 69.127 106.589 69.8487 107.479 69.8487Z" fill="#7CCCDB"/>
<path d="M83.9407 54.7731C84.2558 55.0886 84.6687 55.2464 85.0816 55.2464C85.4937 55.2464 85.9053 55.0895 86.22 54.7756C86.8499 54.147 86.8511 53.1265 86.2225 52.4962L82.7834 49.0495C82.1548 48.4197 81.1343 48.418 80.5044 49.047C79.8746 49.6756 79.8733 50.6961 80.5019 51.3263L83.9407 54.7731Z" fill="#7CCCDB"/>
<path d="M129.85 55.2569C130.271 55.2569 130.692 55.0929 131.008 54.766L134.437 51.2223C135.055 50.5828 135.039 49.5627 134.399 48.9438C133.759 48.3244 132.739 48.3417 132.12 48.9816L128.692 52.5248C128.073 53.1647 128.09 54.1848 128.729 54.8037C129.042 55.1063 129.446 55.2569 129.85 55.2569Z" fill="#7CCCDB"/>
<path d="M107.479 46.7631C108.369 46.7631 109.09 46.0413 109.09 45.1513V40.3383C109.09 39.4483 108.369 38.7266 107.479 38.7266C106.589 38.7266 105.867 39.4483 105.867 40.3383V45.1513C105.867 46.0413 106.589 46.7631 107.479 46.7631Z" fill="#7CCCDB"/>
<path d="M134.777 68.227C135.111 67.6647 135.065 66.9404 134.669 66.4205C134.439 66.1159 131.518 62.2974 126.834 58.4361C124.009 56.1076 121.124 54.2483 118.261 52.9093C114.62 51.2069 110.999 50.3438 107.5 50.3438C104.001 50.3438 100.38 51.2069 96.7386 52.9093C93.8752 54.2483 90.9911 56.1076 88.1659 58.4361C83.3868 62.3754 80.4411 66.2728 80.3182 66.4369C79.8939 67.0025 79.8939 67.8061 80.3182 68.3718C80.4411 68.5354 83.3868 72.4332 88.1659 76.3726C90.9911 78.701 93.8752 80.5604 96.7386 81.8994C100.38 83.6018 104.001 84.4649 107.5 84.4649C110.999 84.4649 114.62 83.6018 118.261 81.8994C121.124 80.5604 124.009 78.701 126.834 76.3726C131.613 72.4332 134.559 68.5358 134.682 68.3718C134.716 68.3256 134.748 68.2765 134.777 68.227V68.227ZM90.2727 60.877C94.3313 57.5419 100.615 53.5668 107.5 53.5668C114.385 53.5668 120.669 57.5419 124.727 60.877C127.648 63.2768 129.873 65.703 131.083 67.1209C130.344 67.5174 129.579 67.6639 128.77 67.564C127.485 67.4045 126.399 66.6631 125.837 66.2057C124.761 65.1449 123.649 64.1462 122.53 63.2361C115.98 57.9082 110.741 56.7899 107.5 56.7899C101.627 56.7899 96.0849 60.2954 92.4699 63.2361C91.3373 64.1575 90.2111 65.1697 89.1226 66.2456C88.0169 67.2875 86.8705 67.718 85.62 67.564C85.0187 67.4893 84.4619 67.287 83.981 67.0462C85.2042 65.6191 87.4026 63.2352 90.2727 60.877V60.877ZM107.498 60.1947C111.462 60.1947 114.686 63.4282 114.686 67.4029C114.686 71.3779 111.462 74.6115 107.498 74.6115C103.534 74.6115 100.31 71.3779 100.31 67.4029C100.31 63.4282 103.534 60.1947 107.498 60.1947V60.1947ZM107.5 81.2418C100.615 81.2418 94.3313 77.2664 90.2727 73.9317C88.9631 72.8558 87.7941 71.7744 86.7929 70.7812C88.4285 70.6171 89.9815 69.8706 91.3507 68.5744C91.3591 68.5665 91.3675 68.5585 91.3755 68.5501C92.3948 67.5426 93.4472 66.5959 94.5037 65.7366C95.5062 64.9208 96.6702 64.0564 97.9471 63.2528C97.3941 64.5251 97.0865 65.9287 97.0865 67.4029C97.0865 73.155 101.757 77.8345 107.498 77.8345C113.239 77.8345 117.91 73.155 117.91 67.4029C117.91 65.9262 117.601 64.5209 117.047 63.2466C118.136 63.9318 119.286 64.7521 120.497 65.7366C121.553 66.5959 122.606 67.5426 123.624 68.5501C123.658 68.5832 123.693 68.6147 123.729 68.6449C124.704 69.4535 126.271 70.4623 128.24 70.7422C123.837 75.1137 116.126 81.2418 107.5 81.2418V81.2418Z" fill="#2855AF"/>
</g>
<defs>
<clipPath id="clip0">
<rect width="55" height="55" fill="white" transform="translate(80 34)"/>
</clipPath>
</defs>
</svg>
