<svg width="181" height="156" viewBox="0 0 181 156" fill="none" xmlns="http://www.w3.org/2000/svg">
<path opacity="0.05" d="M40.68 155.44C33.72 155.44 27.52 153.72 22.08 150.28C16.64 146.84 12.36 141.88 9.24 135.4C6.2 128.84 4.68 121.04 4.68 112C4.68 102.96 6.2 95.2 9.24 88.72C12.36 82.16 16.64 77.16 22.08 73.72C27.52 70.28 33.72 68.56 40.68 68.56C47.64 68.56 53.84 70.28 59.28 73.72C64.72 77.16 68.96 82.16 72 88.72C75.12 95.2 76.68 102.96 76.68 112C76.68 121.04 75.12 128.84 72 135.4C68.96 141.88 64.72 146.84 59.28 150.28C53.84 153.72 47.64 155.44 40.68 155.44ZM40.68 139C45.8 139 49.8 136.8 52.68 132.4C55.64 128 57.12 121.2 57.12 112C57.12 102.8 55.64 96 52.68 91.6C49.8 87.2 45.8 85 40.68 85C35.64 85 31.64 87.2 28.68 91.6C25.8 96 24.36 102.8 24.36 112C24.36 121.2 25.8 128 28.68 132.4C31.64 136.8 35.64 139 40.68 139ZM124.193 104.2C131.553 105.4 137.193 108.16 141.113 112.48C145.033 116.72 146.993 122 146.993 128.32C146.993 133.2 145.713 137.72 143.153 141.88C140.593 145.96 136.673 149.24 131.393 151.72C126.193 154.2 119.793 155.44 112.193 155.44C106.273 155.44 100.433 154.68 94.6734 153.16C88.9934 151.56 84.1534 149.32 80.1534 146.44L87.7134 131.56C90.9134 133.96 94.5934 135.84 98.7534 137.2C102.993 138.48 107.313 139.12 111.713 139.12C116.593 139.12 120.433 138.2 123.233 136.36C126.033 134.44 127.433 131.76 127.433 128.32C127.433 121.44 122.193 118 111.713 118H102.833V105.16L120.113 85.6H84.3534V70H143.153V82.6L124.193 104.2Z" fill="#2855AF"/>
<rect x="44" y="4" width="133" height="116" stroke="#2855AF" stroke-width="8"/>
<path d="M127.524 69.1648L121.602 73.081C120.853 71.7995 119.444 70.946 117.874 70.946H112.645C111.519 70.946 110.991 70.1286 110.463 69.7489C106.421 66.2442 100.325 66.2442 96.2846 69.7468L95.1429 70.7312H84.0742C83.4809 70.7312 83 71.2121 83 71.8054V84.6956C83 85.289 83.4809 85.7698 84.0742 85.7698H95.2268L114.475 88.9778C114.758 89.0252 115.05 88.9568 115.284 88.7865L137.559 72.5565C138.036 72.2082 138.143 71.5394 137.797 71.0597C135.439 67.7901 130.929 66.9555 127.524 69.1648ZM114.383 86.7845L95.4924 83.6361C95.4341 83.6264 95.3749 83.6214 95.3158 83.6214H85.1484V72.8796H95.5423C96.194 72.8796 96.3795 72.4172 97.6899 71.3719C100.929 68.563 105.816 68.563 109.056 71.3724C109.507 71.6762 110.562 73.0945 112.645 73.0945H117.874C119.04 73.0945 120.022 74.0176 120.022 75.1837C120.022 76.3419 119.059 77.2839 117.874 77.2839H104.983C104.39 77.2839 103.909 77.7648 103.909 78.3581C103.909 78.9511 104.39 79.4324 104.983 79.4324H117.874C120.21 79.4324 122.117 77.5789 122.17 75.2811L128.701 70.962C130.828 69.5819 133.561 69.8609 135.343 71.5121L114.383 86.7845Z" fill="#2855AF"/>
<path d="M118.02 55.0479C118.02 55.6412 117.539 56.1221 116.945 56.1221C116.352 56.1221 115.871 55.6412 115.871 55.0479C115.871 54.4545 116.352 53.9736 116.945 53.9736C117.539 53.9736 118.02 54.4545 118.02 55.0479Z" fill="#7CCCDB"/>
<path d="M103.945 60.4186H129.726C130.319 60.4186 130.8 59.9378 130.8 59.3448V55.152L134.054 38.5029C134.137 38.0774 133.956 37.6435 133.595 37.4031C133.234 37.1627 132.764 37.1627 132.403 37.4031L123.629 43.2525L117.78 34.4784C117.581 34.1796 117.245 34 116.886 34C116.527 34 116.192 34.1796 115.992 34.4784L110.143 43.2521L101.369 37.4031C101.009 37.1631 100.541 37.1622 100.18 37.401C99.8196 37.6398 99.6375 38.0715 99.7181 38.4966L102.871 55.1487V59.3448C102.871 59.9378 103.352 60.4186 103.945 60.4186V60.4186ZM109.845 45.636C110.339 45.965 111.006 45.8315 111.335 45.338L116.886 37.0107L122.438 45.338C122.767 45.8315 123.434 45.965 123.927 45.636L131.451 40.6203L128.842 53.9738H121.777C121.184 53.9738 120.703 54.4546 120.703 55.048C120.703 55.6413 121.184 56.1222 121.777 56.1222H128.652V58.2706H105.02V56.1222H112.109C112.703 56.1222 113.184 55.6413 113.184 55.048C113.184 54.4546 112.703 53.9738 112.109 53.9738H104.835L102.304 40.6085L109.845 45.636Z" fill="#7CCCDB"/>
</svg>
