<svg width="181" height="157" viewBox="0 0 181 157" fill="none" xmlns="http://www.w3.org/2000/svg">
<path opacity="0.05" d="M40.68 156.44C33.72 156.44 27.52 154.72 22.08 151.28C16.64 147.84 12.36 142.88 9.24 136.4C6.2 129.84 4.68 122.04 4.68 113C4.68 103.96 6.2 96.2 9.24 89.72C12.36 83.16 16.64 78.16 22.08 74.72C27.52 71.28 33.72 69.56 40.68 69.56C47.64 69.56 53.84 71.28 59.28 74.72C64.72 78.16 68.96 83.16 72 89.72C75.12 96.2 76.68 103.96 76.68 113C76.68 122.04 75.12 129.84 72 136.4C68.96 142.88 64.72 147.84 59.28 151.28C53.84 154.72 47.64 156.44 40.68 156.44ZM40.68 140C45.8 140 49.8 137.8 52.68 133.4C55.64 129 57.12 122.2 57.12 113C57.12 103.8 55.64 97 52.68 92.6C49.8 88.2 45.8 86 40.68 86C35.64 86 31.64 88.2 28.68 92.6C25.8 97 24.36 103.8 24.36 113C24.36 122.2 25.8 129 28.68 133.4C31.64 137.8 35.64 140 40.68 140ZM163.045 137.36H149.365V155H130.405V137.36H85.1653V124.28L124.765 71H145.165L108.445 121.52H131.005V105.8H149.365V121.52H163.045V137.36Z" fill="#2855AF"/>
<rect x="44" y="4" width="133" height="116" stroke="#2855AF" stroke-width="8"/>
<g clip-path="url(#clip0)">
<path d="M88.3711 64.8408C87.7782 64.8408 87.2969 65.3221 87.2969 65.915C87.2969 66.508 87.7782 66.9893 88.3711 66.9893C88.964 66.9893 89.4453 66.508 89.4453 65.915C89.4453 65.3221 88.964 64.8408 88.3711 64.8408Z" fill="#2855AF"/>
<path d="M132.373 68.5658L122.246 72.0473C122.291 71.7981 122.316 71.5438 122.316 71.2857C122.316 68.9166 120.389 66.9889 118.019 66.9889H111.063C110.878 66.9889 110.696 66.9414 110.535 66.8508L104.86 63.6588C103.738 63.0264 102.463 62.692 101.172 62.692H93.5572C93.114 61.4419 91.9198 60.5439 90.5195 60.5439H84.0742C83.4809 60.5439 83 61.0248 83 61.6182V80.9537C83 81.5471 83.4809 82.0279 84.0742 82.0279H90.5195C91.8879 82.0279 93.0612 81.1681 93.5269 79.9605C94.743 80.1115 96.15 80.4712 97.0341 81.0016L102.652 84.3723C104.78 85.6497 107.217 86.3248 109.699 86.3248C111.667 86.3248 113.572 85.9119 115.365 85.0979L135.414 76.2695C137.635 75.3686 138.731 72.7045 137.462 70.3563C136.529 68.6283 134.342 67.8596 132.373 68.5658V68.5658ZM91.5938 78.8103C91.5912 79.4003 91.1099 79.8795 90.5195 79.8795H85.1484V62.6924H90.5195C91.1116 62.6924 91.5938 63.1741 91.5938 63.7666V78.8103ZM134.598 74.2826C134.587 74.2868 134.576 74.2919 134.564 74.2965C134.564 74.2965 114.485 83.1378 114.481 83.1395C112.968 83.8277 111.359 84.1764 109.699 84.1764C107.606 84.1764 105.552 83.6074 103.758 82.5302L98.1394 79.1594C96.9368 78.4381 95.2146 77.9984 93.7422 77.8221V64.8408H101.172C102.094 64.8408 103.004 65.0792 103.806 65.5311L109.482 68.7231C109.963 68.9942 110.51 69.1377 111.063 69.1377H118.019C119.204 69.1377 120.168 70.1012 120.168 71.2862C120.168 72.4665 119.203 73.4346 118.019 73.4346H107.099C106.506 73.4346 106.025 73.9155 106.025 74.5088C106.025 75.1017 106.506 75.5826 107.099 75.5826H118.019C118.724 75.5826 119.417 75.4076 120.033 75.0795C120.033 75.0795 133.089 70.5913 133.094 70.5896C134.057 70.2421 135.145 70.5879 135.572 71.3776C136.212 72.5614 135.683 73.8483 134.598 74.2826V74.2826Z" fill="#2855AF"/>
<path d="M114.288 62.7413C114.49 62.9163 114.741 63.0035 114.992 63.0035C115.242 63.0035 115.493 62.9163 115.695 62.7413C124.46 55.1454 129.881 51.3012 129.881 45.3276C129.881 40.6018 126.536 36.6855 121.835 36.6855C118.749 36.6855 116.385 38.4647 114.863 41.1348C113.344 38.4706 110.982 36.6855 107.891 36.6855C104.293 36.6855 101.285 39.0174 100.227 42.6257C100.06 43.1951 100.387 43.7918 100.956 43.9588C101.526 44.1258 102.122 43.7993 102.289 43.2299C103.071 40.5595 105.27 38.834 107.891 38.834C110.956 38.834 113.105 41.5552 113.828 44.0889C113.956 44.5542 114.38 44.8765 114.863 44.8765C115.346 44.8765 115.769 44.5542 115.898 44.0889C115.913 44.0364 117.405 38.834 121.835 38.834C125.197 38.834 127.733 41.6253 127.733 45.3276C127.733 50.1062 123.062 53.5512 114.991 60.5102C110.073 56.2871 106.167 53.3146 103.947 50.4066C103.587 49.935 102.913 49.8443 102.441 50.2044C101.97 50.5644 101.879 51.2383 102.239 51.7104C104.742 54.988 108.966 58.1284 114.288 62.7413V62.7413Z" fill="#7CCCDB"/>
<path d="M101.152 46.1494C100.559 46.1494 100.078 46.6307 100.078 47.2236C100.078 47.8165 100.559 48.2978 101.152 48.2978C101.745 48.2978 102.227 47.8165 102.227 47.2236C102.227 46.6307 101.745 46.1494 101.152 46.1494Z" fill="#7CCCDB"/>
</g>
<defs>
<clipPath id="clip0">
<rect width="55" height="55" fill="white" transform="translate(83 34)"/>
</clipPath>
</defs>
</svg>
