<svg width="175" height="161" viewBox="0 0 175 161" fill="none" xmlns="http://www.w3.org/2000/svg">
<path opacity="0.05" d="M40.68 160.44C33.72 160.44 27.52 158.72 22.08 155.28C16.64 151.84 12.36 146.88 9.24 140.4C6.2 133.84 4.68 126.04 4.68 117C4.68 107.96 6.2 100.2 9.24 93.72C12.36 87.16 16.64 82.16 22.08 78.72C27.52 75.28 33.72 73.56 40.68 73.56C47.64 73.56 53.84 75.28 59.28 78.72C64.72 82.16 68.96 87.16 72 93.72C75.12 100.2 76.68 107.96 76.68 117C76.68 126.04 75.12 133.84 72 140.4C68.96 146.88 64.72 151.84 59.28 155.28C53.84 158.72 47.64 160.44 40.68 160.44ZM40.68 144C45.8 144 49.8 141.8 52.68 137.4C55.64 133 57.12 126.2 57.12 117C57.12 107.8 55.64 101 52.68 96.6C49.8 92.2 45.8 90 40.68 90C35.64 90 31.64 92.2 28.68 96.6C25.8 101 24.36 107.8 24.36 117C24.36 126.2 25.8 133 28.68 137.4C31.64 141.8 35.64 144 40.68 144ZM114.925 106.56C126.765 106.56 135.485 108.92 141.085 113.64C146.765 118.36 149.605 124.68 149.605 132.6C149.605 137.72 148.325 142.4 145.765 146.64C143.205 150.8 139.285 154.16 134.005 156.72C128.805 159.2 122.365 160.44 114.685 160.44C108.765 160.44 102.925 159.68 97.1653 158.16C91.4853 156.56 86.6453 154.32 82.6453 151.44L90.3253 136.56C93.5253 138.96 97.2053 140.84 101.365 142.2C105.525 143.48 109.805 144.12 114.205 144.12C119.085 144.12 122.925 143.16 125.725 141.24C128.525 139.32 129.925 136.64 129.925 133.2C129.925 129.6 128.445 126.88 125.485 125.04C122.605 123.2 117.565 122.28 110.365 122.28H88.8853L93.2053 75H144.445V90.6H109.405L108.085 106.56H114.925Z" fill="#2855AF"/>
<rect x="38" y="4" width="133" height="116" stroke="#2855AF" stroke-width="8"/>
<g clip-path="url(#clip0)">
<path d="M122.71 38.4121C118.508 38.4121 115.188 41.7844 115.188 45.9869C115.188 50.1894 118.56 53.5098 122.71 53.5098C126.861 53.5098 130.285 50.1375 130.285 45.935C130.285 41.7326 126.913 38.4121 122.71 38.4121ZM122.71 51.8496C119.442 51.8496 116.796 49.2036 116.796 45.935C116.796 42.6664 119.494 40.0723 122.71 40.0723C125.979 40.0723 128.625 42.7183 128.625 45.9869C128.625 49.2555 125.979 51.8496 122.71 51.8496Z" fill="#7CCCDB"/>
<path d="M125.095 47.1288C125.043 46.9732 125.043 46.8694 124.939 46.7137C124.887 46.61 124.835 46.4543 124.731 46.3506C124.628 46.2468 124.576 46.143 124.472 46.0393C124.368 45.9355 124.264 45.8317 124.109 45.7799C124.005 45.6761 123.849 45.6242 123.746 45.5723C123.59 45.5205 123.486 45.4167 123.331 45.3648C123.175 45.3129 123.019 45.261 122.916 45.2092C122.864 45.2092 122.76 45.1573 122.708 45.1054C122.656 45.0535 122.552 45.0535 122.5 45.0016C122.449 44.9498 122.345 44.9498 122.293 44.8979C122.241 44.846 122.189 44.7941 122.137 44.7422C122.085 44.6903 122.034 44.6385 122.034 44.5347C121.982 44.4828 121.982 44.379 121.982 44.3272C121.982 44.2234 121.982 44.1715 121.982 44.0678C121.982 44.0159 122.034 43.9121 122.034 43.8602C122.085 43.8083 122.085 43.7046 122.137 43.6527C122.189 43.6008 122.241 43.5489 122.293 43.4971C122.345 43.4452 122.449 43.3933 122.552 43.3933C122.656 43.3414 122.708 43.3414 122.812 43.3414C122.864 43.3414 122.916 43.3414 122.967 43.3414C123.019 43.3414 123.071 43.3414 123.123 43.3414C123.227 43.3414 123.279 43.3414 123.382 43.3933C123.486 43.3933 123.59 43.4452 123.642 43.4452C123.694 43.4452 123.798 43.4971 123.849 43.4971C123.953 43.4971 124.005 43.5489 124.057 43.5489L124.316 43.6527L124.368 43.3414L124.472 42.5113V42.3038L124.264 42.2519C124.213 42.2519 124.109 42.2 124.057 42.2C124.005 42.2 123.953 42.1481 123.849 42.1481C123.798 42.1481 123.694 42.0962 123.59 42.0962C123.486 42.0962 123.434 42.0444 123.331 42.0444H123.279V41.318V41.0586H123.019H122.293H122.034V41.318V42.0962H121.982C121.826 42.1481 121.67 42.2 121.515 42.3038C121.359 42.3556 121.255 42.4594 121.152 42.5632C121.048 42.6669 120.944 42.7707 120.84 42.9263C120.736 43.0301 120.685 43.1858 120.633 43.3414C120.581 43.4971 120.529 43.6527 120.477 43.8083C120.425 43.964 120.425 44.1715 120.425 44.3272C120.425 44.4828 120.425 44.5866 120.477 44.7422C120.529 44.8979 120.529 45.0016 120.633 45.1573C120.685 45.261 120.788 45.4167 120.84 45.5205C120.944 45.6242 120.996 45.728 121.1 45.8317C121.203 45.9355 121.307 46.0393 121.463 46.0912C121.567 46.1949 121.722 46.2468 121.826 46.2987C121.982 46.3506 122.137 46.4543 122.241 46.5062C122.397 46.5581 122.552 46.61 122.656 46.6619C122.708 46.6619 122.812 46.7137 122.864 46.7656C122.916 46.8175 123.019 46.8175 123.071 46.8694C123.123 46.9213 123.175 46.9732 123.227 46.9732C123.279 47.025 123.331 47.0769 123.382 47.1288C123.434 47.1807 123.434 47.2326 123.486 47.3363C123.486 47.3882 123.538 47.492 123.538 47.5957C123.538 47.6995 123.538 47.7514 123.538 47.8551C123.538 47.907 123.486 48.0108 123.434 48.0627C123.382 48.1146 123.331 48.1664 123.279 48.2183C123.227 48.2702 123.175 48.3221 123.071 48.374C123.019 48.4259 122.916 48.4259 122.864 48.4777C122.812 48.4777 122.708 48.5296 122.604 48.5296C122.552 48.5296 122.5 48.5296 122.397 48.5296C122.345 48.5296 122.241 48.5296 122.189 48.5296C122.085 48.5296 121.982 48.5296 121.93 48.5296C121.826 48.5296 121.722 48.4777 121.67 48.4777C121.567 48.4777 121.463 48.4259 121.359 48.374C121.255 48.3221 121.152 48.3221 121.048 48.2702C120.996 48.2702 120.944 48.2183 120.892 48.2183C120.84 48.2183 120.788 48.1664 120.736 48.1664L120.425 48.0108L120.373 48.374L120.27 49.3078V49.4635L120.425 49.5154C120.633 49.4635 120.736 49.5154 120.892 49.5673C120.996 49.6191 121.152 49.671 121.255 49.671C121.359 49.7229 121.515 49.7229 121.67 49.7748C121.826 49.8267 121.93 49.8267 122.085 49.8267H122.189V50.6049V50.8643H122.449H123.175H123.434V50.6049V49.7748H123.486C123.642 49.7229 123.798 49.671 123.953 49.5673C124.109 49.5154 124.213 49.4116 124.368 49.3078C124.472 49.2041 124.576 49.1003 124.68 48.9447C124.783 48.8409 124.835 48.6853 124.939 48.5296C124.991 48.374 125.043 48.2183 125.095 48.0627C125.146 47.907 125.146 47.7514 125.146 47.5439C125.146 47.3882 125.146 47.2844 125.095 47.1288Z" fill="#7CCCDB"/>
<path d="M119.076 54.4955C118.816 54.1323 118.246 54.0805 117.883 54.3399L109.478 61.0327L98.6343 56.5189C98.3749 56.4152 98.0636 56.467 97.856 56.6227L86.2344 64.9238C85.8713 65.1832 85.7675 65.7021 86.0269 66.0652C86.1826 66.3247 86.442 66.4284 86.7014 66.4284C86.857 66.4284 87.0127 66.3765 87.1683 66.2728L98.4267 58.231L109.322 62.7448C109.581 62.8485 109.945 62.7967 110.152 62.641L118.92 55.6888C119.283 55.4294 119.335 54.8587 119.076 54.4955Z" fill="#7CCCDB"/>
<path d="M131.217 82.9277H127.378V58.9063C127.378 58.4393 127.014 58.0762 126.547 58.0762H118.921C118.454 58.0762 118.091 58.4393 118.091 58.9063V82.9277H115.289V67.2074C115.289 66.7405 114.926 66.3773 114.459 66.3773H106.78C106.313 66.3773 105.95 66.7405 105.95 67.2074V82.9277H103.149V65.9623C103.149 65.4953 102.785 65.1321 102.318 65.1321H94.6918C94.2249 65.1321 93.8617 65.4953 93.8617 65.9623V82.9277H91.0601V70.8392C91.0601 70.3722 90.6969 70.0091 90.23 70.0091H82.5514C82.0845 70.0091 81.7213 70.3722 81.7213 70.8392V82.9277H77.8301C77.3632 82.9277 77 83.2909 77 83.7578C77 84.2248 77.3632 84.588 77.8301 84.588H82.4995H90.1262H94.6918H102.318H106.78H114.407H118.869H126.496H131.165C131.632 84.588 131.995 84.2248 131.995 83.7578C132.047 83.2909 131.684 82.9277 131.217 82.9277ZM89.348 82.9277H83.3815V71.6693H89.348V82.9277ZM101.488 82.9277H95.5219V66.7924H101.488V82.9277ZM113.577 82.9277H107.61V68.0375H113.577V82.9277ZM125.717 82.9277H119.751V59.7364H125.717V82.9277Z" fill="#2855AF"/>
</g>
<defs>
<clipPath id="clip0">
<rect width="55" height="55" fill="white" transform="translate(77 34)"/>
</clipPath>
</defs>
</svg>
