<svg width="177" height="161" viewBox="0 0 177 161" fill="none" xmlns="http://www.w3.org/2000/svg">
<path opacity="0.05" d="M40.68 156.44C33.72 156.44 27.52 154.72 22.08 151.28C16.64 147.84 12.36 142.88 9.24 136.4C6.2 129.84 4.68 122.04 4.68 113C4.68 103.96 6.2 96.2 9.24 89.72C12.36 83.16 16.64 78.16 22.08 74.72C27.52 71.28 33.72 69.56 40.68 69.56C47.64 69.56 53.84 71.28 59.28 74.72C64.72 78.16 68.96 83.16 72 89.72C75.12 96.2 76.68 103.96 76.68 113C76.68 122.04 75.12 129.84 72 136.4C68.96 142.88 64.72 147.84 59.28 151.28C53.84 154.72 47.64 156.44 40.68 156.44ZM40.68 140C45.8 140 49.8 137.8 52.68 133.4C55.64 129 57.12 122.2 57.12 113C57.12 103.8 55.64 97 52.68 92.6C49.8 88.2 45.8 86 40.68 86C35.64 86 31.64 88.2 28.68 92.6C25.8 97 24.36 103.8 24.36 113C24.36 122.2 25.8 129 28.68 133.4C31.64 137.8 35.64 140 40.68 140ZM126.565 102.32C131.925 102.32 136.805 103.4 141.205 105.56C145.605 107.72 149.085 110.8 151.645 114.8C154.205 118.72 155.485 123.28 155.485 128.48C155.485 134.08 154.085 139 151.285 143.24C148.485 147.48 144.645 150.76 139.765 153.08C134.965 155.32 129.605 156.44 123.685 156.44C111.925 156.44 102.725 152.84 96.0853 145.64C89.4453 138.44 86.1253 128.16 86.1253 114.8C86.1253 105.28 87.9253 97.12 91.5253 90.32C95.1253 83.52 100.125 78.36 106.525 74.84C113.005 71.32 120.485 69.56 128.965 69.56C133.445 69.56 137.725 70.08 141.805 71.12C145.965 72.08 149.485 73.48 152.365 75.32L145.165 89.6C141.005 86.8 135.765 85.4 129.445 85.4C122.325 85.4 116.685 87.48 112.525 91.64C108.365 95.8 106.125 101.84 105.805 109.76C110.765 104.8 117.685 102.32 126.565 102.32ZM122.605 141.92C126.765 141.92 130.125 140.8 132.685 138.56C135.325 136.32 136.645 133.28 136.645 129.44C136.645 125.6 135.325 122.56 132.685 120.32C130.125 118 126.685 116.84 122.365 116.84C118.125 116.84 114.645 118.04 111.925 120.44C109.205 122.76 107.845 125.76 107.845 129.44C107.845 133.12 109.165 136.12 111.805 138.44C114.445 140.76 118.045 141.92 122.605 141.92Z" fill="#2855AF"/>
<g clip-path="url(#clip0)">
<path d="M123.354 45.6461C126.289 45.6461 128.676 43.2586 128.676 40.3236C128.676 37.3881 126.289 35.001 123.354 35.001C120.418 35.001 118.031 37.3881 118.031 40.3236C118.031 43.2586 120.418 45.6461 123.354 45.6461ZM123.354 36.7752C125.311 36.7752 126.902 38.3666 126.902 40.3236C126.902 42.2801 125.311 43.8719 123.354 43.8719C121.397 43.8719 119.805 42.2801 119.805 40.3236C119.805 38.3666 121.397 36.7752 123.354 36.7752Z" fill="#2855AF"/>
<path d="M132.22 50.8643C132.197 50.6655 132.108 50.481 131.967 50.3411L129.306 47.6798C129.14 47.513 128.913 47.4199 128.678 47.4199H118.033C117.798 47.4199 117.572 47.513 117.406 47.6798L114.745 50.3411C114.604 50.4819 114.514 50.6664 114.491 50.8643L112.717 65.9448C112.688 66.1969 112.767 66.4486 112.935 66.6374C113.103 66.8276 113.344 66.9359 113.598 66.9359H117.925L115.377 89.0109C115.349 89.2621 115.428 89.5137 115.597 89.703C115.765 89.8919 116.006 90.0002 116.259 90.0002H121.582C122.043 90.0002 122.427 89.6472 122.466 89.1867L123.356 78.5053L124.246 89.1876C124.285 89.6472 124.669 90.0002 125.13 90.0002H130.453C130.705 90.0002 130.946 89.8919 131.115 89.7039C131.284 89.5155 131.363 89.263 131.334 89.0117L128.787 66.9359H133.114C133.367 66.9359 133.609 66.8276 133.777 66.6387C133.945 66.4494 134.024 66.1969 133.995 65.9457L132.22 50.8643ZM128.678 65.1617V52.7425H126.904V66.0488C126.904 66.0821 126.906 66.1168 126.91 66.1506L129.457 88.226H125.946L124.24 67.7493C124.201 67.2889 123.817 66.9359 123.356 66.9359C122.895 66.9359 122.51 67.2889 122.471 67.7493L120.766 88.226H117.255L119.802 66.1506C119.806 66.1168 119.808 66.0821 119.808 66.0488V52.7425H118.033V65.1617H114.596L116.217 51.3772L118.401 49.1941H128.311L130.494 51.3772L132.116 65.1617H128.678Z" fill="#2855AF"/>
<path d="M109.789 62.7606L108.015 60.9865C107.849 60.8197 107.623 60.7266 107.388 60.7266H98.5171C98.2819 60.7266 98.0558 60.8197 97.8899 60.9865L96.1157 62.7606C95.9914 62.8845 95.9074 63.0417 95.8736 63.2137L94.0994 72.0846C94.047 72.3453 94.1146 72.6161 94.2831 72.8209C94.4516 73.0267 94.7023 73.1458 94.9687 73.1458H98.5171V73.9298L94.9917 88.9102C94.9298 89.1736 94.9917 89.4512 95.1602 89.6639C95.3287 89.8762 95.5842 90.0005 95.8558 90.0005H100.291C100.718 90.0005 101.084 89.696 101.163 89.2763L102.953 79.7331L104.742 89.2763C104.821 89.696 105.187 90.0005 105.614 90.0005H110.049C110.32 90.0005 110.576 89.8762 110.744 89.6639C110.913 89.4512 110.975 89.1736 110.913 88.9102L107.388 73.9298V73.1458H110.936C111.202 73.1458 111.454 73.0267 111.622 72.8209C111.79 72.6161 111.858 72.3453 111.806 72.0846L110.031 63.2137C109.998 63.0417 109.913 62.8845 109.789 62.7606V62.7606ZM107.388 71.3716V65.162H105.614V74.0329C105.614 74.1009 105.622 74.1693 105.637 74.236L108.929 88.2263H106.35L103.824 74.7567C103.746 74.337 103.379 74.0329 102.953 74.0329C102.526 74.0329 102.159 74.337 102.081 74.7567L99.5549 88.2263H96.9759L100.268 74.236C100.283 74.1693 100.291 74.1009 100.291 74.0329V65.162H98.5171V71.3716H96.0507L97.5607 63.8249L98.8844 62.5007H107.021L108.345 63.8249L109.854 71.3716H107.388Z" fill="#2855AF"/>
<path d="M91.9122 74.182L89.251 72.4078C89.1058 72.3108 88.9335 72.2588 88.7589 72.2588H83.4364C83.2614 72.2588 83.0894 72.3108 82.9439 72.4078L80.2826 74.182C80.0678 74.3245 79.927 74.5536 79.8941 74.81L79.007 81.9067C78.9749 82.1593 79.0542 82.4131 79.2227 82.6037C79.3912 82.7947 79.6333 82.9038 79.888 82.9038H82.1374L81.6648 89.045C81.6462 89.2915 81.7302 89.5345 81.8983 89.7155C82.0668 89.8975 82.3024 90.0005 82.5493 90.0005H89.646C89.8924 90.0005 90.1285 89.8975 90.297 89.7164C90.4646 89.5345 90.55 89.2915 90.5305 89.0459L90.0575 82.9038H92.3072C92.5619 82.9038 92.8041 82.7947 92.9726 82.6037C93.1411 82.4131 93.219 82.1593 93.1878 81.9067L92.3008 74.81C92.2683 74.5536 92.1262 74.3245 91.9122 74.182ZM89.9219 81.1297L89.6434 77.5129L87.8744 77.6485L88.6879 88.2264H86.9847V82.9038H85.2105V88.2264H83.5074L84.3209 77.6493L82.5519 77.5137L82.2734 81.1297H80.8929L81.6054 75.4325L83.7049 74.033H88.4908L90.5907 75.4325L91.3019 81.1297H89.9219Z" fill="#2855AF"/>
<path d="M98.5156 54.5165C98.5156 56.9621 100.505 58.952 102.951 58.952C105.397 58.952 107.387 56.9621 107.387 54.5165C107.387 52.0705 105.397 50.0811 102.951 50.0811C100.505 50.0811 98.5156 52.0705 98.5156 54.5165ZM105.612 54.5165C105.612 55.9836 104.418 57.1778 102.951 57.1778C101.484 57.1778 100.29 55.9836 100.29 54.5165C100.29 53.049 101.484 51.8552 102.951 51.8552C104.418 51.8552 105.612 53.049 105.612 54.5165Z" fill="#2855AF"/>
<path d="M82.5508 66.9361C82.5508 68.8926 84.1422 70.4845 86.0992 70.4845C88.0562 70.4845 89.6476 68.8926 89.6476 66.9361C89.6476 64.9791 88.0562 63.3877 86.0992 63.3877C84.1422 63.3877 82.5508 64.9791 82.5508 66.9361ZM87.8734 66.9361C87.8734 67.9146 87.0777 68.7103 86.0992 68.7103C85.1207 68.7103 84.325 67.9146 84.325 66.9361C84.325 65.9576 85.1207 65.1619 86.0992 65.1619C87.0777 65.1619 87.8734 65.9576 87.8734 66.9361Z" fill="#2855AF"/>
<path d="M100.919 41.4705C100.572 41.1235 100.012 41.1235 99.6647 41.4705L79.2617 61.8735L80.5161 63.1279L100.292 43.3516L102.326 45.3861C102.58 45.6395 102.96 45.7149 103.293 45.5785C103.624 45.4412 103.84 45.1172 103.84 44.7589V35.8881C103.84 35.3982 103.443 35.001 102.953 35.001H94.0823C93.7237 35.001 93.4001 35.2171 93.2624 35.548C93.1251 35.8798 93.2013 36.2614 93.4551 36.5153L95.4892 38.5493L79.2617 54.7768L80.5161 56.0312L97.3708 39.1765C97.7173 38.8296 97.7173 38.2686 97.3708 37.9221L96.2238 36.7752H102.066V42.6175L100.919 41.4705Z" fill="#7CCCDB"/>
</g>
<rect x="40" y="4" width="133" height="116" stroke="#2855AF" stroke-width="8"/>
<defs>
<clipPath id="clip0">
<rect width="55" height="55" fill="white" transform="translate(79 35)"/>
</clipPath>
</defs>
</svg>
