<svg width="109" height="111" viewBox="0 0 109 111" fill="none" xmlns="http://www.w3.org/2000/svg">
<path opacity="0.1" d="M53.5872 73.713V88H3.99221V76.716L27.8342 54.421C30.1395 52.237 31.6865 50.3867 32.4752 48.87C33.2639 47.2927 33.6582 45.7153 33.6582 44.138C33.6582 42.0753 32.9605 40.4677 31.5652 39.315C30.1699 38.1623 28.1375 37.586 25.4682 37.586C23.1022 37.586 20.9182 38.132 18.9162 39.224C16.9749 40.2553 15.3672 41.772 14.0932 43.774L0.716207 36.312C3.20354 32.1867 6.69187 28.941 11.1812 26.575C15.6705 24.209 20.9789 23.026 27.1062 23.026C31.9595 23.026 36.2365 23.8147 39.9372 25.392C43.6985 26.9693 46.6105 29.2443 48.6732 32.217C50.7965 35.129 51.8582 38.5263 51.8582 42.409C51.8582 45.867 51.0999 49.143 49.5832 52.237C48.1272 55.2703 45.2759 58.7283 41.0292 62.611L29.0172 73.713H53.5872Z" fill="#2855AF"/>
<circle cx="69" cy="56" r="40" fill="url(#paint0_radial)"/>
<path d="M84.8436 66.8228L76.8437 58.8228C76.6351 58.6143 76.2981 58.6143 76.0895 58.8228L75.3999 59.5124L74.5541 58.6665L75.2437 57.9769C75.4522 57.7684 75.4522 57.4314 75.2437 57.2228L73.4874 55.4666L76.1541 52.7999H80.7332C80.8746 52.7999 81.0106 52.7439 81.1103 52.6437L84.8436 48.9103C84.9439 48.8106 84.9999 48.6746 84.9999 48.5333V44.8C84.9999 44.5845 84.8697 44.3898 84.6708 44.3072C84.4708 44.224 84.2415 44.2698 84.0895 44.4229L80.5124 47.9999H76.9999V44.4874L80.577 40.9104C80.7295 40.7579 80.7754 40.5285 80.6927 40.3291C80.61 40.1301 80.4154 40 80.1999 40H76.4666C76.3253 40 76.1893 40.056 76.0895 40.1563L72.3562 43.8896C72.256 43.9893 72.2 44.1253 72.2 44.2666V48.8458L68.4667 52.5791L59.8816 43.9941L59.384 42.0037C59.3414 41.8336 59.2182 41.6955 59.0539 41.6336L54.7873 40.0336C54.5921 39.9611 54.3713 40.008 54.223 40.1557L53.1563 41.2224C53.0086 41.3707 52.9606 41.5915 53.0337 41.7872L54.6337 46.0538C54.6955 46.2181 54.8337 46.3418 55.0038 46.384L56.9937 46.8816L65.5792 55.4666L61.8459 59.1999H57.2667C57.1254 59.1999 56.9894 59.2559 56.8897 59.3561L53.1563 63.0895C53.0561 63.1892 53.0001 63.3252 53.0001 63.4665V67.1998C53.0001 67.4153 53.1302 67.61 53.3291 67.6926C53.5291 67.7748 53.7579 67.7294 53.9105 67.5769L57.4875 63.9998H61V67.5124L57.423 71.0894C57.2705 71.2419 57.2246 71.4713 57.3073 71.6707C57.3899 71.8697 57.5846 71.9998 57.8001 71.9998H61.5334C61.6747 71.9998 61.8107 71.9438 61.9104 71.8435L65.6437 68.1102C65.744 68.0105 65.8 67.8745 65.8 67.7332V63.154L68.4667 60.4873L70.2229 62.2436C70.4314 62.4521 70.7685 62.4521 70.977 62.2436L71.6666 61.554L72.5125 62.3999L71.8229 63.0895C71.6144 63.298 71.6144 63.635 71.8229 63.8436L79.8228 71.8435C79.9268 71.9475 80.0634 71.9998 80.1999 71.9998C80.3364 71.9998 80.473 71.9475 80.577 71.8435L84.8436 67.5769C85.0521 67.3684 85.0521 67.0313 84.8436 66.8228ZM57.6438 46.0229C57.5755 45.9546 57.4897 45.9061 57.3963 45.8826L55.5345 45.417L54.1537 41.7344L54.7345 41.1536L58.4171 42.5344L58.8827 44.3962C58.9062 44.4901 58.9547 44.5754 59.023 44.6437L67.7125 53.3332L66.3333 54.7124L57.6438 46.0229ZM68.0896 59.3561L64.8896 62.5561C64.7893 62.6559 64.7333 62.7919 64.7333 62.9332V67.5124L61.3126 70.9331H59.0875L61.9104 68.1102C62.0107 68.0105 62.0667 67.8745 62.0667 67.7332V63.4665C62.0667 63.1721 61.8278 62.9332 61.5334 62.9332H57.2667C57.1254 62.9332 56.9894 62.9892 56.8897 63.0895L54.0667 65.9124V63.6873L57.4875 60.2665H62.0667C62.208 60.2665 62.344 60.2105 62.4438 60.1103L66.7104 55.8436L68.8437 53.7103L73.1104 49.4437C73.2106 49.3439 73.2666 49.2079 73.2666 49.0666V44.4874L76.6874 41.0667H78.9124L76.0895 43.8896C75.9893 43.9893 75.9333 44.1253 75.9333 44.2666V48.5333C75.9333 48.8277 76.1722 49.0666 76.4666 49.0666H80.7332C80.8746 49.0666 81.0106 49.0106 81.1103 48.9103L83.9332 46.0874V48.3125L80.5124 51.7333H75.9333C75.7919 51.7333 75.6559 51.7893 75.5562 51.8895L72.3562 55.0895L68.0896 59.3561ZM80.1999 70.7123L72.9541 63.4665L73.6437 62.7769C73.8522 62.5684 73.8522 62.2313 73.6437 62.0228L72.0437 60.4228C71.8352 60.2143 71.4981 60.2143 71.2896 60.4228L70.6 61.1124L69.2208 59.7332L72.7333 56.2207L74.1125 57.5999L73.4229 58.2895C73.2144 58.498 73.2144 58.8351 73.4229 59.0436L75.0229 60.6436C75.2314 60.8521 75.5685 60.8521 75.777 60.6436L76.4666 59.954L83.7124 67.1998L80.1999 70.7123Z" fill="white"/>
<path d="M78.4452 63.6205L77.6909 64.3748L80.8907 67.5745L81.645 66.8203L78.4452 63.6205Z" fill="white"/>
<path d="M76.3106 61.4873L75.5564 62.2415L76.6229 63.308L77.3771 62.5538L76.3106 61.4873Z" fill="white"/>
<defs>
<radialGradient id="paint0_radial" cx="0" cy="0" r="1" gradientUnits="userSpaceOnUse" gradientTransform="translate(36.7519 23.7519) rotate(47.6978) scale(83.8495)">
<stop stop-color="#64CDFF"/>
<stop offset="1" stop-color="#1277A7"/>
</radialGradient>
</defs>
</svg>
