<svg width="116" height="111" viewBox="0 0 116 111" fill="none" xmlns="http://www.w3.org/2000/svg">
<path opacity="0.1" d="M63.2951 75.806H53.8311V88H36.2681V75.806H2.59811V64.067L31.1721 24.3H49.8271L23.8921 61.519H36.8141V50.69H53.8311V61.519H63.2951V75.806Z" fill="#2855AF"/>
<circle cx="76" cy="56" r="40" fill="url(#paint0_radial)"/>
<path d="M91.0625 70.125H86.9375V60.9375C86.9375 59.9036 86.0964 59.0625 85.0625 59.0625H83.6686C83.3013 57.4601 82.5701 56.0842 81.5274 55.0506C80.8712 54.4 80.1082 53.9029 79.262 53.5684C81.0757 52.0036 82.2594 49.2983 82.2594 46.8541C82.2594 44.6361 81.6424 42.8953 80.4256 41.6803C79.3249 40.581 77.7946 40 76 40C74.2055 40 72.6751 40.581 71.5744 41.6803C70.3576 42.8953 69.7406 44.6361 69.7406 46.8541C69.7406 49.2983 70.9243 52.0036 72.7379 53.5684C71.8918 53.9029 71.1288 54.4 70.4726 55.0506C69.4299 56.0842 68.6987 57.4601 68.3314 59.0625H66.9375C65.9036 59.0625 65.0625 59.9036 65.0625 60.9375V70.125H60.9375C60.4197 70.125 60 70.5448 60 71.0625C60 71.5802 60.4197 72 60.9375 72H91.0625C91.5802 72 92 71.5802 92 71.0625C92 70.5448 91.5802 70.125 91.0625 70.125ZM76 41.875C77.3769 41.875 79.5379 42.3327 80.191 45.0538C79.2355 44.9323 78.6899 44.6624 78.2628 44.4511C77.8442 44.2439 77.3697 44.0091 76.7906 44.1419C76.3206 44.2496 75.9845 44.5148 75.6596 44.7713C75.0674 45.2388 74.2028 45.9196 71.6494 46.0575C71.9673 42.4411 74.4687 41.875 76 41.875ZM71.71 47.9317C74.8942 47.7641 76.0835 46.8255 76.8213 46.2431C76.9281 46.1587 77.0656 46.0503 77.1507 45.9983C77.226 46.0301 77.3371 46.085 77.4313 46.1316C77.9822 46.4042 78.8471 46.8319 80.382 46.9574C80.3575 48.3379 79.8443 49.8689 78.9962 51.0752C78.1307 52.3064 77.0386 53.0125 76 53.0125C74.9614 53.0125 73.8693 52.3064 73.0037 51.0752C72.3516 50.1476 71.8966 49.0275 71.71 47.9317ZM75.5 54.9375H76.5C79.1017 54.9375 80.9996 56.4587 81.736 59.0625H70.264C71.0004 56.4587 72.8983 54.9375 75.5 54.9375ZM66.9375 70.125V60.9375H85.0625V70.125H66.9375Z" fill="white"/>
<path d="M76 65.9375C76.5178 65.9375 76.9375 65.5178 76.9375 65C76.9375 64.4822 76.5178 64.0625 76 64.0625C75.4822 64.0625 75.0625 64.4822 75.0625 65C75.0625 65.5178 75.4822 65.9375 76 65.9375Z" fill="white"/>
<defs>
<radialGradient id="paint0_radial" cx="0" cy="0" r="1" gradientUnits="userSpaceOnUse" gradientTransform="translate(43.7519 23.7519) rotate(47.6978) scale(83.8495)">
<stop stop-color="#64CDFF"/>
<stop offset="1" stop-color="#1277A7"/>
</radialGradient>
</defs>
</svg>
