<svg width="109" height="111" viewBox="0 0 109 111" fill="none" xmlns="http://www.w3.org/2000/svg">
<path opacity="0.1" d="M36.8475 49.78C42.1255 50.872 46.1598 53.056 48.9505 56.332C51.8018 59.5473 53.2275 63.4603 53.2275 68.071C53.2275 71.8323 52.1961 75.3207 50.1335 78.536C48.1315 81.7513 45.0375 84.36 40.8515 86.362C36.7261 88.3033 31.5998 89.274 25.4725 89.274C20.9831 89.274 16.5241 88.728 12.0955 87.636C7.72747 86.544 3.93581 84.997 0.720473 82.995L7.27247 69.436C9.75981 71.1347 12.5505 72.439 15.6445 73.349C18.7991 74.259 21.8931 74.714 24.9265 74.714C28.0205 74.714 30.4775 74.1377 32.2975 72.985C34.1175 71.8323 35.0275 70.1943 35.0275 68.071C35.0275 63.9457 31.7818 61.883 25.2905 61.883H17.7375V50.508L29.1125 38.223H3.99647V24.3H50.0425V35.584L36.8475 49.78Z" fill="#2855AF"/>
<circle cx="69" cy="56" r="40" fill="url(#paint0_radial)"/>
<path d="M73.8373 63.4861C73.4799 63.2713 73.113 63.0553 72.7461 62.8436C72.8323 62.1085 72.8325 61.3649 72.7465 60.6312C73.1148 60.4187 73.4815 60.2029 73.8372 59.989C74.4362 59.6291 74.6859 58.8697 74.4179 58.2224C74.4179 58.2224 74.4179 58.2224 74.4178 58.2223L73.6361 56.3352C73.368 55.6881 72.6548 55.3275 71.9764 55.4965C71.5733 55.5968 71.1614 55.7035 70.7509 55.8136C70.2926 55.2338 69.7668 54.708 69.1862 54.2495C69.2963 53.839 69.403 53.4269 69.5035 53.0236C69.6725 52.3455 69.3119 51.632 68.6648 51.3639L66.7777 50.5823C66.1306 50.3141 65.371 50.5636 65.0109 51.1627C64.7965 51.5196 64.5805 51.8865 64.3685 52.254C63.6336 52.1677 62.8901 52.1675 62.1561 52.2535C61.9435 51.8849 61.7276 51.5181 61.514 51.1627C61.1538 50.5637 60.3944 50.3142 59.7472 50.5823L57.8601 51.3639C57.2132 51.632 56.8525 52.3455 57.0215 53.0236C57.1221 53.4277 57.2287 53.8396 57.3386 54.2491C56.7588 54.7072 56.233 55.2332 55.7746 55.8138C55.3631 55.7034 54.951 55.5968 54.5485 55.4965C53.8702 55.3273 53.1569 55.6883 52.8888 56.3353L52.1073 58.2223C51.8393 58.8695 52.0889 59.6289 52.6878 59.9889C53.0447 60.2034 53.4116 60.4193 53.779 60.6313C53.6929 61.3662 53.6927 62.1097 53.7786 62.8437C53.4109 63.0559 53.0442 63.2718 52.6877 63.486C52.0888 63.846 51.8392 64.6054 52.1072 65.2526L52.8889 67.1398C53.157 67.7868 53.8701 68.1476 54.5486 67.9785C54.9513 67.8782 55.3633 67.7716 55.774 67.6613C56.2323 68.2411 56.7582 68.7668 57.3388 69.2254C57.2285 69.6364 57.1218 70.0485 57.0215 70.4513C56.8525 71.1294 57.213 71.8429 57.8601 72.1109L59.7473 72.8927C59.9226 72.9653 60.1061 72.9999 60.2877 72.9999C60.7765 72.9999 61.2515 72.749 61.5142 72.3123C61.7271 71.9581 61.943 71.5914 62.1567 71.2211C62.8914 71.3072 63.6351 71.3074 64.3691 71.2215C64.5802 71.5875 64.796 71.9542 65.0112 72.3124C65.3713 72.9113 66.1307 73.1608 66.7779 72.8928L68.6651 72.1111C69.312 71.8431 69.6727 71.1296 69.5037 70.4515C69.4039 70.0509 69.2973 69.6389 69.1866 69.226C69.7662 68.7679 70.2921 68.2419 70.7507 67.6613C71.161 67.7714 71.5731 67.878 71.9766 67.9785C72.6546 68.1477 73.3682 67.787 73.6362 67.1398L74.4179 65.2526C74.6858 64.6055 74.4362 63.846 73.8373 63.4861ZM72.2616 66.4811C71.874 66.384 71.4789 66.2813 71.086 66.1755C70.5298 66.0259 69.9429 66.2214 69.5906 66.674C69.1858 67.194 68.7173 67.6625 68.1982 68.0667C67.7462 68.4188 67.5509 69.0056 67.7007 69.5615C67.8071 69.9569 67.9097 70.3517 68.0062 70.7366L66.2715 71.455C66.0652 71.1108 65.8586 70.759 65.6567 70.4082C65.3693 69.9092 64.8163 69.6327 64.2478 69.7031C63.595 69.7841 62.9323 69.7841 62.2786 69.7027C61.7085 69.6319 61.1559 69.9084 60.8686 70.4076C60.6642 70.7624 60.4576 71.1144 60.2535 71.455L58.5189 70.7365C58.6159 70.3495 58.7185 69.9545 58.8245 69.561C58.9743 69.0049 58.7786 68.4178 58.326 68.0655C57.8061 67.6608 57.3376 67.1924 56.9333 66.6733C56.5813 66.2212 55.9946 66.0259 55.4385 66.1756C55.0451 66.2815 54.6502 66.3842 54.2634 66.4811L53.5449 64.7465C53.8876 64.5411 54.2394 64.3345 54.5918 64.1316C55.0908 63.8443 55.3676 63.2914 55.297 62.7228C55.2157 62.0699 55.2159 61.4073 55.2972 60.7535C55.3681 60.1844 55.0915 59.6309 54.5922 59.3435C54.24 59.1407 53.888 58.9341 53.5448 58.7283L54.2633 56.9937C54.6498 57.0906 55.0448 57.1932 55.4389 57.2993C55.9948 57.4491 56.5819 57.2533 56.9343 56.8008C57.3391 56.2808 57.8076 55.8122 58.3265 55.4081C58.7786 55.0561 58.9739 54.4692 58.8242 53.9132C58.7186 53.5211 58.6159 53.1262 58.5187 52.7382L60.2533 52.0197C60.4581 52.3614 60.6648 52.7133 60.8682 53.0666C61.1556 53.5656 61.7091 53.8428 62.2771 53.7717C62.9296 53.6905 63.5922 53.6905 64.2465 53.772C64.8159 53.843 65.3691 53.566 65.6563 53.067C65.8591 52.7148 66.0658 52.3628 66.2714 52.0197L68.0061 52.7382C67.909 53.1255 67.8063 53.5206 67.7004 53.9138C67.5506 54.4698 67.7463 55.0569 68.1989 55.4092C68.7188 55.8139 69.1874 56.2823 69.5916 56.8014C69.9436 57.2534 70.5302 57.4487 71.0865 57.299C71.4796 57.1932 71.8744 57.0905 72.2615 56.9935L72.98 58.7281C72.6378 58.9332 72.2859 59.1398 71.9331 59.343C71.434 59.6303 71.1572 60.1833 71.2279 60.7519C71.3091 61.4045 71.309 62.0671 71.2276 62.7213C71.1568 63.2905 71.4335 63.8438 71.9326 64.1312C72.2843 64.3336 72.6362 64.5403 72.98 64.7463L72.2616 66.4811Z" fill="white"/>
<path d="M68.0549 59.7528C68.0549 59.7528 68.0549 59.7528 68.0549 59.7527C66.9605 57.1104 63.9207 55.8512 61.278 56.9456C58.6359 58.0401 57.3765 61.0802 58.471 63.7225C59.0012 65.0025 59.9982 65.9993 61.2781 66.5296C61.9181 66.7946 62.5905 66.9272 63.2629 66.9272C63.9354 66.9272 64.6078 66.7946 65.2479 66.5296C67.89 65.4351 69.1493 62.3951 68.0549 59.7528ZM64.6654 65.1235C63.7611 65.4981 62.7651 65.498 61.8605 65.1235C60.9562 64.7489 60.2518 64.0445 59.8771 63.1401C59.1037 61.2731 59.9935 59.125 61.8606 58.3517C62.3178 58.1623 62.7916 58.0727 63.2582 58.0727C64.697 58.0727 66.0649 58.9253 66.6489 60.3351C67.4222 62.2021 66.5324 64.3501 64.6654 65.1235Z" fill="white"/>
<path d="M84.9744 45.7028C84.7117 45.6635 84.4419 45.6253 84.1701 45.589C84.0332 45.1337 83.8503 44.6922 83.6247 44.2729C83.791 44.0554 83.9548 43.8376 84.1132 43.6235C84.4648 43.148 84.414 42.4736 83.995 42.0548L82.9453 41.0052C82.5263 40.5862 81.8519 40.5354 81.3765 40.8871C81.1617 41.046 80.9439 41.2099 80.7271 41.3756C80.3079 41.1499 79.8665 40.967 79.411 40.83C79.3747 40.5583 79.3366 40.2885 79.2973 40.0258C79.2098 39.4411 78.6971 39 78.1046 39H76.62C76.0275 39 75.5147 39.4411 75.4273 40.0258C75.388 40.2883 75.3499 40.5582 75.3136 40.83C74.8581 40.967 74.4166 41.1498 73.9975 41.3755C73.7808 41.2097 73.5629 41.0458 73.3482 40.8871C72.8726 40.5353 72.1982 40.5861 71.7794 41.0051L70.7298 42.0546C70.3107 42.4735 70.2598 43.148 70.6116 43.6236C70.7698 43.8376 70.9337 44.0555 71.0999 44.2729C70.8744 44.6921 70.6915 45.1335 70.5545 45.589C70.2828 45.6254 70.0129 45.6635 69.7503 45.7028C69.1654 45.7903 68.7244 46.303 68.7244 46.8956V48.3801C68.7244 48.9726 69.1653 49.4854 69.7501 49.5729C70.0128 49.6122 70.2827 49.6504 70.5544 49.6866C70.6914 50.142 70.8743 50.5834 71.0998 51.0027C70.9338 51.22 70.7699 51.4378 70.6113 51.6521C70.2597 52.1275 70.3105 52.8021 70.7295 53.2208L71.7793 54.2705C72.1981 54.6895 72.8726 54.7403 73.348 54.3886C73.5628 54.2298 73.7806 54.0659 73.9974 53.9002C74.4167 54.1259 74.8582 54.3088 75.3135 54.4457C75.3497 54.7174 75.3879 54.9872 75.4272 55.2499C75.5147 55.8347 76.0275 56.2758 76.62 56.2758H78.1046C78.6971 56.2758 79.2098 55.8349 79.2973 55.2499C79.3366 54.9872 79.3747 54.7174 79.411 54.4456C79.8664 54.3088 80.3078 54.1258 80.7271 53.9001C80.9438 54.0659 81.1617 54.2297 81.3764 54.3886C81.8518 54.7403 82.5264 54.6895 82.9452 54.2706L83.9949 53.221C84.4139 52.8021 84.4648 52.1276 84.113 51.6521C83.9546 51.4378 83.7907 51.2199 83.6247 51.0028C83.8502 50.5836 84.0331 50.1422 84.1701 49.6867C84.4418 49.6504 84.7117 49.6123 84.9743 49.5729C85.5592 49.4854 86.0002 48.9727 86.0002 48.3802V46.8956C86.0002 46.3031 85.5592 45.7903 84.9744 45.7028ZM84.5544 48.1735C84.3158 48.2081 84.0724 48.2417 83.8283 48.2735C83.3453 48.3365 82.9499 48.6793 82.8212 49.1467C82.6979 49.5942 82.5189 50.026 82.2894 50.4302C82.0496 50.8521 82.0866 51.3741 82.3836 51.7604C82.5333 51.9551 82.6819 52.1511 82.8265 52.3447L82.0692 53.1021C81.8749 52.9571 81.679 52.8087 81.4847 52.6592C81.0986 52.3621 80.5764 52.3253 80.1544 52.5649C79.7502 52.7945 79.3184 52.9735 78.8711 53.0968C78.4035 53.2256 78.0607 53.621 77.9979 54.1038C77.9661 54.348 77.9325 54.5915 77.8979 54.83H76.8267C76.7921 54.5915 76.7586 54.3481 76.7267 54.1041C76.6637 53.6211 76.321 53.2257 75.8535 53.0969C75.4061 52.9736 74.9744 52.7946 74.57 52.565C74.1481 52.3253 73.6259 52.3621 73.2399 52.6592C73.0455 52.8087 72.8497 52.9571 72.6553 53.1021L71.898 52.3447C72.0426 52.1509 72.191 51.9551 72.341 51.7602C72.6378 51.374 72.6748 50.8519 72.4351 50.43C72.2055 50.0259 72.0266 49.594 71.9032 49.1466C71.7745 48.6791 71.3792 48.3364 70.8962 48.2734C70.652 48.2415 70.4086 48.208 70.17 48.1733V47.1023C70.4086 47.0677 70.6519 47.0341 70.8961 47.0023C71.3791 46.9393 71.7745 46.5965 71.9032 46.1291C72.0265 45.6817 72.2054 45.2498 72.435 44.8456C72.6748 44.4237 72.6378 43.9016 72.3409 43.5154C72.1909 43.3205 72.0424 43.1246 71.898 42.9311L72.6553 42.1737C72.8495 42.3187 73.0454 42.4671 73.2397 42.6165C73.6256 42.9137 74.1478 42.9507 74.57 42.7109C74.9741 42.4813 75.406 42.3024 75.8533 42.179C76.321 42.0502 76.6638 41.6548 76.7266 41.172C76.7585 40.9278 76.7921 40.6844 76.8267 40.4459H77.8978C77.9324 40.6843 77.9659 40.9277 77.9977 41.1718C78.0608 41.6548 78.4035 42.0502 78.871 42.1789C79.3184 42.3023 79.7503 42.4813 80.1545 42.7108C80.5765 42.9506 81.0986 42.9134 81.4846 42.6166C81.679 42.4671 81.8748 42.3187 82.0692 42.1737L82.8265 42.9311C82.682 43.1246 82.5335 43.3206 82.3835 43.5156C82.0866 43.9017 82.0497 44.4238 82.2893 44.8457C82.5189 45.25 82.6978 45.6819 82.8212 46.1292C82.9499 46.5967 83.3452 46.9394 83.8282 47.0024C84.0724 47.0343 84.3158 47.0678 84.5544 47.1025V48.1735Z" fill="white"/>
<path d="M77.3616 44.5565C75.6626 44.5565 74.2803 45.9388 74.2803 47.6378C74.2803 49.337 75.6625 50.7192 77.3616 50.7192C79.0607 50.7192 80.4429 49.337 80.4429 47.6378C80.4429 45.9388 79.0607 44.5565 77.3616 44.5565ZM77.3616 49.3495C76.4179 49.3495 75.65 48.5816 75.65 47.6378C75.65 46.6939 76.4178 45.9261 77.3616 45.9261C78.3054 45.9261 79.0731 46.694 79.0732 47.6378C79.0732 48.5816 78.3054 49.3495 77.3616 49.3495Z" fill="white"/>
<defs>
<radialGradient id="paint0_radial" cx="0" cy="0" r="1" gradientUnits="userSpaceOnUse" gradientTransform="translate(36.7519 23.7519) rotate(47.6978) scale(83.8495)">
<stop stop-color="#64CDFF"/>
<stop offset="1" stop-color="#1277A7"/>
</radialGradient>
</defs>
</svg>
