<svg width="108" height="111" viewBox="0 0 108 111" fill="none" xmlns="http://www.w3.org/2000/svg">
<path opacity="0.1" d="M27.2983 47.505C36.2163 47.505 42.7986 49.325 47.0453 52.965C51.3526 56.605 53.5063 61.4583 53.5063 67.525C53.5063 71.4683 52.475 75.1083 50.4123 78.445C48.4103 81.721 45.3163 84.36 41.1303 86.362C37.005 88.3033 31.8786 89.274 25.7513 89.274C21.262 89.274 16.803 88.728 12.3743 87.636C8.0063 86.544 4.24497 84.997 1.0903 82.995L7.55131 69.436C10.0993 71.1347 12.89 72.439 15.9233 73.349C19.0173 74.259 22.1113 74.714 25.2053 74.714C28.2993 74.714 30.7563 74.1377 32.5763 72.985C34.457 71.7717 35.3973 70.1033 35.3973 67.98C35.3973 65.8567 34.4873 64.249 32.6673 63.157C30.8473 62.065 27.632 61.519 23.0213 61.519H5.73131L8.91631 24.3H49.5023V38.223H23.8403L23.0213 47.505H27.2983Z" fill="#2855AF"/>
<circle cx="68" cy="56" r="40" fill="url(#paint0_radial)"/>
<path d="M66.0723 56.9295H78.0263C78.5764 56.9295 79.0224 56.4835 79.0224 55.9334V51.9487C79.0224 51.3986 78.5764 50.9526 78.0263 50.9526H75.0378V45.9717C75.0378 45.4216 74.5918 44.9756 74.0416 44.9756H70.057C69.5068 44.9756 69.0608 45.4216 69.0608 45.9717V48.9602H66.0723C65.5222 48.9602 65.0762 49.4063 65.0762 49.9564V55.9334C65.0762 56.4835 65.5222 56.9295 66.0723 56.9295ZM75.0378 52.9449H77.0301V54.9372H75.0378V52.9449ZM71.0531 46.9679H73.0455V54.9372H71.0531V46.9679ZM67.0685 50.9526H69.0608V54.9372H67.0685V50.9526Z" fill="white"/>
<path d="M56.0991 72.1254L65.2558 62.9687C67.2322 64.1916 69.5599 64.8987 72.0499 64.8987C79.1906 64.8987 85 59.0893 85 51.9486C85 44.8079 79.1906 38.9985 72.0499 38.9985C64.9092 38.9985 59.0998 44.8079 59.0998 51.9486C59.0998 54.4386 59.8069 56.7663 61.0298 58.7426L51.8732 67.8993C50.708 69.0644 50.708 70.9602 51.8732 72.1253C53.0413 73.2934 54.9309 73.2936 56.0991 72.1254ZM72.0499 40.9908C78.092 40.9908 83.0077 45.9065 83.0077 51.9486C83.0077 57.9907 78.092 62.9064 72.0499 62.9064C66.0078 62.9064 61.0921 57.9907 61.0921 51.9486C61.0921 45.9065 66.0078 40.9908 72.0499 40.9908ZM53.2819 69.3081L62.2202 60.3699C62.6531 60.8745 63.1241 61.3454 63.6287 61.7784L54.6904 70.7166C54.3009 71.1061 53.6715 71.1062 53.2819 70.7166C52.8936 70.3282 52.8936 69.6964 53.2819 69.3081Z" fill="white"/>
<defs>
<radialGradient id="paint0_radial" cx="0" cy="0" r="1" gradientUnits="userSpaceOnUse" gradientTransform="translate(35.7519 23.7519) rotate(47.6978) scale(83.8495)">
<stop stop-color="#64CDFF"/>
<stop offset="1" stop-color="#1277A7"/>
</radialGradient>
</defs>
</svg>
