<svg width="80" height="80" viewBox="0 0 80 80" fill="none" xmlns="http://www.w3.org/2000/svg">
<circle cx="40" cy="40" r="40" fill="url(#paint0_radial)"/>
<path d="M55.135 32.8702C55.6959 32.8702 56.2339 32.6474 56.6305 32.2508C57.0272 31.8541 57.25 31.3162 57.25 30.7552V25.1152C57.25 24.5543 57.0272 24.0164 56.6305 23.6197C56.2339 23.2231 55.6959 23.0002 55.135 23.0002H24.115C23.5541 23.0002 23.0161 23.2231 22.6195 23.6197C22.2228 24.0164 22 24.5543 22 25.1152V30.7552C22 31.3162 22.2228 31.8541 22.6195 32.2508C23.0161 32.6474 23.5541 32.8702 24.115 32.8702H25.525V34.9852H24.115C23.5541 34.9852 23.0161 35.2081 22.6195 35.6047C22.2228 36.0014 22 36.5393 22 37.1002V42.7402C22 43.3012 22.2228 43.8391 22.6195 44.2358C23.0161 44.6324 23.5541 44.8552 24.115 44.8552H25.525V46.9702H24.115C23.5541 46.9702 23.0161 47.1931 22.6195 47.5897C22.2228 47.9864 22 48.5243 22 49.0852V54.7252C22 55.2862 22.2228 55.8241 22.6195 56.2208C23.0161 56.6174 23.5541 56.8402 24.115 56.8402H55.135C55.6959 56.8402 56.2339 56.6174 56.6305 56.2208C57.0272 55.8241 57.25 55.2862 57.25 54.7252V49.0852C57.25 48.5243 57.0272 47.9864 56.6305 47.5897C56.2339 47.1931 55.6959 46.9702 55.135 46.9702H53.725V44.8552H55.135C55.6959 44.8552 56.2339 44.6324 56.6305 44.2358C57.0272 43.8391 57.25 43.3012 57.25 42.7402V37.1002C57.25 36.5393 57.0272 36.0014 56.6305 35.6047C56.2339 35.2081 55.6959 34.9852 55.135 34.9852H53.725V32.8702H55.135ZM55.135 48.3802C55.322 48.3802 55.5013 48.4545 55.6335 48.5867C55.7657 48.7189 55.84 48.8983 55.84 49.0852V54.7252C55.84 54.9122 55.7657 55.0915 55.6335 55.2238C55.5013 55.356 55.322 55.4302 55.135 55.4302H24.115C23.928 55.4302 23.7487 55.356 23.6165 55.2238C23.4843 55.0915 23.41 54.9122 23.41 54.7252V49.0852C23.41 48.8983 23.4843 48.7189 23.6165 48.5867C23.7487 48.4545 23.928 48.3802 24.115 48.3802H55.135ZM26.935 46.9702V44.8552H52.315V46.9702H26.935ZM55.135 36.3952C55.322 36.3952 55.5013 36.4695 55.6335 36.6017C55.7657 36.7339 55.84 36.9133 55.84 37.1002V42.7402C55.84 42.9272 55.7657 43.1065 55.6335 43.2388C55.5013 43.371 55.322 43.4452 55.135 43.4452H24.115C23.928 43.4452 23.7487 43.371 23.6165 43.2388C23.4843 43.1065 23.41 42.9272 23.41 42.7402V37.1002C23.41 36.9133 23.4843 36.7339 23.6165 36.6017C23.7487 36.4695 23.928 36.3952 24.115 36.3952H55.135ZM26.935 34.9852V32.8702H52.315V34.9852H26.935ZM24.115 31.4602C23.928 31.4602 23.7487 31.386 23.6165 31.2538C23.4843 31.1215 23.41 30.9422 23.41 30.7552V25.1152C23.41 24.9283 23.4843 24.7489 23.6165 24.6167C23.7487 24.4845 23.928 24.4102 24.115 24.4102H55.135C55.322 24.4102 55.5013 24.4845 55.6335 24.6167C55.7657 24.7489 55.84 24.9283 55.84 25.1152V30.7552C55.84 30.9422 55.7657 31.1215 55.6335 31.2538C55.5013 31.386 55.322 31.4602 55.135 31.4602H24.115Z" fill="white"/>
<path d="M33.28 28.6402H26.935C26.748 28.6402 26.5687 28.5659 26.4365 28.4337C26.3043 28.3015 26.23 28.1221 26.23 27.9352C26.23 27.7482 26.3043 27.5689 26.4365 27.4367C26.5687 27.3044 26.748 27.2302 26.935 27.2302H33.28C33.467 27.2302 33.6463 27.3044 33.7785 27.4367C33.9107 27.5689 33.985 27.7482 33.985 27.9352C33.985 28.1221 33.9107 28.3015 33.7785 28.4337C33.6463 28.5659 33.467 28.6402 33.28 28.6402Z" fill="white"/>
<path d="M33.28 40.6256H26.935C26.748 40.6256 26.5687 40.5513 26.4365 40.4191C26.3043 40.2869 26.23 40.1076 26.23 39.9206C26.23 39.7336 26.3043 39.5543 26.4365 39.4221C26.5687 39.2899 26.748 39.2156 26.935 39.2156H33.28C33.467 39.2156 33.6463 39.2899 33.7785 39.4221C33.9107 39.5543 33.985 39.7336 33.985 39.9206C33.985 40.1076 33.9107 40.2869 33.7785 40.4191C33.6463 40.5513 33.467 40.6256 33.28 40.6256Z" fill="white"/>
<path d="M33.28 52.6101H26.935C26.748 52.6101 26.5687 52.5358 26.4365 52.4036C26.3043 52.2714 26.23 52.0921 26.23 51.9051C26.23 51.7181 26.3043 51.5388 26.4365 51.4066C26.5687 51.2743 26.748 51.2001 26.935 51.2001H33.28C33.467 51.2001 33.6463 51.2743 33.7785 51.4066C33.9107 51.5388 33.985 51.7181 33.985 51.9051C33.985 52.0921 33.9107 52.2714 33.7785 52.4036C33.6463 52.5358 33.467 52.6101 33.28 52.6101Z" fill="white"/>
<defs>
<radialGradient id="paint0_radial" cx="0" cy="0" r="1" gradientUnits="userSpaceOnUse" gradientTransform="translate(7.75194 7.75194) rotate(47.6978) scale(83.8495)">
<stop stop-color="#64CDFF"/>
<stop offset="1" stop-color="#1277A7"/>
</radialGradient>
</defs>
</svg>
