<svg width="80" height="80" viewBox="0 0 80 80" fill="none" xmlns="http://www.w3.org/2000/svg">
<circle cx="40" cy="40" r="40" fill="url(#paint0_radial)"/>
<path d="M49.5625 57H30.4375C28.6808 57 27.25 55.5706 27.25 53.8125V38.9375C27.25 37.1794 28.6808 35.75 30.4375 35.75H49.5625C51.3192 35.75 52.75 37.1794 52.75 38.9375V53.8125C52.75 55.5706 51.3192 57 49.5625 57ZM30.4375 37.875C29.8524 37.875 29.375 38.351 29.375 38.9375V53.8125C29.375 54.399 29.8524 54.875 30.4375 54.875H49.5625C50.1476 54.875 50.625 54.399 50.625 53.8125V38.9375C50.625 38.351 50.1476 37.875 49.5625 37.875H30.4375Z" fill="white"/>
<path d="M47.4375 37.875C46.851 37.875 46.375 37.399 46.375 36.8125V31.5C46.375 27.9852 43.5147 25.125 40 25.125C36.4852 25.125 33.625 27.9852 33.625 31.5V36.8125C33.625 37.399 33.149 37.875 32.5625 37.875C31.976 37.875 31.5 37.399 31.5 36.8125V31.5C31.5 26.8122 35.3122 23 40 23C44.6877 23 48.5 26.8122 48.5 31.5V36.8125C48.5 37.399 48.024 37.875 47.4375 37.875Z" fill="white"/>
<path d="M40.0003 47.0836C38.4377 47.0836 37.167 45.8128 37.167 44.2503C37.167 42.6877 38.4377 41.4169 40.0003 41.4169C41.5629 41.4169 42.8337 42.6877 42.8337 44.2503C42.8337 45.8128 41.5629 47.0836 40.0003 47.0836ZM40.0003 43.5419C39.6107 43.5419 39.292 43.8593 39.292 44.2503C39.292 44.6413 39.6107 44.9586 40.0003 44.9586C40.3899 44.9586 40.7087 44.6413 40.7087 44.2503C40.7087 43.8593 40.3899 43.5419 40.0003 43.5419Z" fill="white"/>
<path d="M40 51.3333C39.4135 51.3333 38.9375 50.8573 38.9375 50.2708V46.375C38.9375 45.7885 39.4135 45.3125 40 45.3125C40.5865 45.3125 41.0625 45.7885 41.0625 46.375V50.2708C41.0625 50.8573 40.5865 51.3333 40 51.3333Z" fill="white"/>
<defs>
<radialGradient id="paint0_radial" cx="0" cy="0" r="1" gradientUnits="userSpaceOnUse" gradientTransform="translate(7.75194 7.75194) rotate(47.6978) scale(83.8495)">
<stop stop-color="#64CDFF"/>
<stop offset="1" stop-color="#1277A7"/>
</radialGradient>
</defs>
</svg>
