<svg width="80" height="80" viewBox="0 0 80 80" fill="none" xmlns="http://www.w3.org/2000/svg">
<circle cx="40" cy="40" r="40" fill="url(#paint0_radial)"/>
<path d="M52.3636 22.5452H34.9091C32.9047 22.5452 31.2727 24.1757 31.2727 26.1815V47.9997C31.2727 50.0055 32.9047 51.636 34.9091 51.636H52.3636C54.3679 51.636 55.9999 50.0055 55.9999 47.9997V26.1815C55.9999 24.1757 54.3679 22.5452 52.3636 22.5452ZM34.9091 50.1815C33.7062 50.1815 32.7272 49.2026 32.7272 47.9997V26.1815C32.7272 24.9786 33.7062 23.9997 34.9091 23.9997H52.3636C53.5665 23.9997 54.5454 24.9786 54.5454 26.1815V47.9997C54.5454 49.2026 53.5665 50.1815 52.3636 50.1815H34.9091Z" fill="white"/>
<path d="M29.0911 26.9091H27.6366C25.6322 26.9091 24.0002 28.5397 24.0002 30.5455V53.8182C24.0002 55.824 25.6322 57.4545 27.6366 57.4545H45.0911C47.0955 57.4545 48.7275 55.824 48.7275 53.8182C48.7275 53.4167 48.4017 53.0909 48.0002 53.0909C47.5988 53.0909 47.2729 53.4167 47.2729 53.8182C47.2729 55.0211 46.294 56 45.0911 56H27.6366C26.4337 56 25.4548 55.0211 25.4548 53.8182V30.5455C25.4548 29.3426 26.4337 28.3637 27.6366 28.3637H29.0911C29.4926 28.3637 29.8184 28.0378 29.8184 27.6364C29.8184 27.2349 29.4926 26.9091 29.0911 26.9091Z" fill="white"/>
<path d="M49.4547 32.727H37.8183C37.4169 32.727 37.0911 33.0529 37.0911 33.4543C37.0911 33.8558 37.4169 34.1816 37.8183 34.1816H49.4547C49.8561 34.1816 50.182 33.8558 50.182 33.4543C50.182 33.0529 49.8561 32.727 49.4547 32.727Z" fill="white"/>
<path d="M49.4547 26.9094H37.8183C37.4169 26.9094 37.0911 27.2352 37.0911 27.6367C37.0911 28.0381 37.4169 28.364 37.8183 28.364H49.4547C49.8561 28.364 50.182 28.0381 50.182 27.6367C50.182 27.2352 49.8561 26.9094 49.4547 26.9094Z" fill="white"/>
<path d="M49.4547 38.5455H37.8183C37.4169 38.5455 37.0911 38.8713 37.0911 39.2727C37.0911 39.6742 37.4169 40 37.8183 40H49.4547C49.8561 40 50.182 39.6742 50.182 39.2727C50.182 38.8713 49.8561 38.5455 49.4547 38.5455Z" fill="white"/>
<path d="M49.4547 44.3639H37.8183C37.4169 44.3639 37.0911 44.6898 37.0911 45.0912C37.0911 45.4927 37.4169 45.8185 37.8183 45.8185H49.4547C49.8561 45.8185 50.182 45.4927 50.182 45.0912C50.182 44.6898 49.8561 44.3639 49.4547 44.3639Z" fill="white"/>
<defs>
<radialGradient id="paint0_radial" cx="0" cy="0" r="1" gradientUnits="userSpaceOnUse" gradientTransform="translate(7.75194 7.75194) rotate(47.6978) scale(83.8495)">
<stop stop-color="#64CDFF"/>
<stop offset="1" stop-color="#1277A7"/>
</radialGradient>
</defs>
</svg>
