<svg width="332" height="359" viewBox="0 0 332 359" fill="none" xmlns="http://www.w3.org/2000/svg">
<path d="M17.6211 190.612C1.1519 130.262 114.194 102.493 174.234 111.618C250.189 123.149 292.468 164.703 290.347 228.332C288.227 291.385 216.255 327.094 162.85 300.198C136.508 286.937 117.447 263.07 91.2271 249.261C60.0671 232.895 27.9115 228.332 17.6211 190.612Z" fill="white"/>
<path opacity="0.9" d="M17.6211 190.612C1.1519 130.262 114.194 102.493 174.234 111.618C250.189 123.149 292.468 164.703 290.347 228.332C288.227 291.385 216.255 327.094 162.85 300.198C136.508 286.937 117.447 263.07 91.2271 249.261C60.0671 232.895 27.9115 228.332 17.6211 190.612Z" fill="white"/>
<path d="M163.427 359C244.809 359 310.783 355.153 310.783 350.407C310.783 345.661 244.809 341.813 163.427 341.813C82.044 341.813 16.0703 345.661 16.0703 350.407C16.0703 355.153 82.044 359 163.427 359Z" fill="#F5F5F5"/>
<path d="M195.346 251.304H258.266C259.55 251.304 260.781 251.813 261.689 252.72C262.597 253.627 263.107 254.857 263.107 256.139C263.107 257.422 262.597 258.652 261.689 259.559C260.781 260.465 259.55 260.975 258.266 260.975H195.346V251.304Z" fill="#64CDFF"/>
<path opacity="0.6" d="M195.346 251.304H258.266C259.55 251.304 260.781 251.813 261.689 252.72C262.597 253.627 263.107 254.857 263.107 256.139C263.107 257.422 262.597 258.652 261.689 259.559C260.781 260.465 259.55 260.975 258.266 260.975H195.346V251.304Z" fill="white"/>
<path d="M259.176 222.811C260.099 218.906 257.677 214.993 253.768 214.071C249.858 213.15 245.941 215.568 245.018 219.473C244.096 223.378 246.517 227.291 250.426 228.212C254.336 229.134 258.253 226.715 259.176 222.811Z" fill="#64CDFF"/>
<path opacity="0.8" d="M259.176 222.811C260.099 218.906 257.677 214.993 253.768 214.071C249.858 213.15 245.941 215.568 245.018 219.473C244.096 223.378 246.517 227.291 250.426 228.212C254.336 229.134 258.253 226.715 259.176 222.811Z" fill="white"/>
<path d="M202.043 222.123H262.167L256.406 251.304H207.796L202.043 222.123Z" fill="#2855AF"/>
<path d="M200.363 219.322H263.838C263.978 219.322 264.116 219.353 264.241 219.415C264.366 219.477 264.475 219.567 264.559 219.678C264.643 219.79 264.7 219.919 264.726 220.056C264.751 220.194 264.744 220.335 264.705 220.469L263.945 223.057C263.889 223.244 263.775 223.407 263.618 223.523C263.462 223.64 263.273 223.702 263.078 223.702H201.115C200.921 223.702 200.731 223.64 200.575 223.523C200.419 223.407 200.305 223.244 200.249 223.057L199.489 220.469C199.45 220.334 199.443 220.192 199.468 220.054C199.494 219.917 199.551 219.787 199.636 219.675C199.721 219.564 199.831 219.474 199.958 219.413C200.084 219.351 200.223 219.32 200.363 219.322Z" fill="#64CDFF"/>
<path opacity="0.6" d="M200.363 219.322H263.838C263.978 219.322 264.116 219.353 264.241 219.415C264.366 219.477 264.475 219.567 264.559 219.678C264.643 219.79 264.7 219.919 264.726 220.056C264.751 220.194 264.744 220.335 264.705 220.469L263.945 223.057C263.889 223.244 263.775 223.407 263.618 223.523C263.462 223.64 263.273 223.702 263.078 223.702H201.115C200.921 223.702 200.731 223.64 200.575 223.523C200.419 223.407 200.305 223.244 200.249 223.057L199.489 220.469C199.45 220.334 199.443 220.192 199.468 220.054C199.494 219.917 199.551 219.787 199.636 219.675C199.721 219.564 199.831 219.474 199.958 219.413C200.084 219.351 200.223 219.32 200.363 219.322Z" fill="white"/>
<path d="M236.789 215.86H207.909V219.322H236.789V215.86Z" fill="#C1EBFF"/>
<path d="M224.501 225.638C224.434 225.845 224.296 226.023 224.111 226.139C223.927 226.256 223.707 226.304 223.491 226.275C221.211 225.888 220.086 223.816 220.914 221.318L226.728 203.79C227.648 201.019 230.65 198.772 233.416 198.772H243.714C246.481 198.772 247.985 201.05 247.073 203.79L241.913 219.322H240.188L245.341 203.79C245.949 201.976 244.961 200.496 243.144 200.496H232.846C231.873 200.56 230.939 200.905 230.159 201.49C229.379 202.075 228.786 202.874 228.453 203.79L222.639 221.318C222.145 222.799 222.715 224.059 223.924 224.469C224.039 224.507 224.145 224.568 224.237 224.648C224.328 224.727 224.403 224.824 224.456 224.933C224.51 225.042 224.542 225.16 224.549 225.281C224.557 225.402 224.541 225.523 224.501 225.638Z" fill="#64CDFF"/>
<path d="M208.108 217.09H110.22C106.589 217.09 103.646 220.03 103.646 223.656V343.84C103.646 347.467 106.589 350.406 110.22 350.406H208.108C211.738 350.406 214.682 347.467 214.682 343.84V223.656C214.682 220.03 211.738 217.09 208.108 217.09Z" fill="#64CDFF"/>
<path d="M130.67 266.889H39.4702C38.1855 266.891 36.9541 267.402 36.0465 268.31C35.1388 269.218 34.629 270.449 34.629 271.732C34.626 272.369 34.749 273 34.9909 273.589C35.2329 274.179 35.589 274.714 36.0388 275.166C36.4887 275.617 37.0234 275.976 37.6122 276.22C38.2011 276.464 38.8325 276.59 39.4702 276.59H130.67V266.889Z" fill="#64CDFF"/>
<path opacity="0.3" d="M130.67 279.247L103.759 291.416V276.56H130.67V279.247Z" fill="#2855AF"/>
<path opacity="0.7" d="M130.67 266.889H72.5834C71.2987 266.891 70.0674 267.402 69.1597 268.31C68.252 269.218 67.7422 270.449 67.7422 271.732C67.7442 273.014 68.2549 274.243 69.1624 275.149C70.0698 276.055 71.3 276.565 72.5834 276.567H130.67V266.889Z" fill="white"/>
<path opacity="0.7" d="M208.106 217.09H140.542C136.911 217.09 133.968 220.03 133.968 223.656V343.84C133.968 347.467 136.911 350.406 140.542 350.406H208.106C211.736 350.406 214.68 347.467 214.68 343.84V223.656C214.68 220.03 211.736 217.09 208.106 217.09Z" fill="white"/>
<path d="M78.9071 276.567H70.6611V350.407H78.9071V276.567Z" fill="#64CDFF"/>
<path opacity="0.7" d="M78.9071 276.567H70.6611V350.407H78.9071V276.567Z" fill="white"/>
<path opacity="0.3" d="M78.9071 279.771L70.6611 281.555V276.56H78.9071V279.771Z" fill="#64CDFF"/>
<path opacity="0.3" d="M205.243 232.85H143.402C142.365 232.85 141.524 233.689 141.524 234.725V255.821C141.524 256.856 142.365 257.696 143.402 257.696H205.243C206.28 257.696 207.12 256.856 207.12 255.821V234.725C207.12 233.689 206.28 232.85 205.243 232.85Z" fill="#64CDFF"/>
<path d="M94.6385 204.026H49.5705L45.0029 266.896H99.2061L94.6385 204.026Z" fill="#64CDFF"/>
<path opacity="0.3" d="M55.5517 204.026H49.5705L45.0029 266.896H57.1325L55.5517 204.026Z" fill="#2855AF"/>
<path d="M74.8491 211.693C70.6387 211.693 66.8691 208.74 66.2383 204.808C66.083 203.855 66.1271 202.882 66.3678 201.947C66.6085 201.013 67.0406 200.139 67.6367 199.38C68.3292 198.522 69.1901 197.815 70.1665 197.302C71.1428 196.789 72.2139 196.481 73.3139 196.397C77.8359 195.987 82.0615 199.061 82.7303 203.229C82.8847 204.182 82.8395 205.158 82.5975 206.093C82.3555 207.029 81.922 207.904 81.3243 208.664C80.6339 209.522 79.7745 210.23 78.7993 210.743C77.8241 211.256 76.7538 211.564 75.6547 211.647C75.3811 211.678 75.1151 211.693 74.8491 211.693ZM74.1271 197.695C73.8991 197.695 73.6635 197.695 73.4355 197.695C72.5182 197.764 71.6246 198.019 70.8092 198.444C69.9939 198.87 69.2739 199.457 68.6931 200.169C68.2101 200.785 67.8601 201.495 67.6652 202.252C67.4703 203.01 67.4347 203.8 67.5607 204.572C68.1155 208.072 71.6951 210.645 75.5331 210.296C76.4504 210.227 77.344 209.972 78.1594 209.546C78.9748 209.121 79.6948 208.534 80.2755 207.821C80.7585 207.205 81.1085 206.496 81.3034 205.738C81.4983 204.981 81.5339 204.191 81.4079 203.418C80.8835 200.162 77.6915 197.695 74.1271 197.695Z" fill="#64CDFF"/>
<path d="M71.4668 211.693C71.2008 211.693 70.9348 211.693 70.6612 211.693C69.5621 211.61 68.4919 211.302 67.5167 210.789C66.5414 210.275 65.682 209.568 64.9916 208.71C64.3932 207.95 63.9599 207.075 63.7191 206.139C63.4783 205.203 63.4354 204.228 63.5932 203.274C64.2544 199.099 68.48 196.025 73.002 196.442C74.1022 196.526 75.1736 196.833 76.1501 197.346C77.1266 197.859 77.9873 198.567 78.6792 199.426C79.277 200.184 79.7101 201.058 79.9508 201.992C80.1916 202.927 80.2348 203.901 80.0776 204.853C79.424 208.74 75.6468 211.693 71.4668 211.693ZM72.2268 197.695C68.6548 197.695 65.4628 200.162 64.9384 203.449C64.8124 204.221 64.848 205.011 65.0429 205.769C65.2378 206.527 65.5878 207.236 66.0708 207.852C66.6516 208.564 67.3716 209.151 68.1869 209.577C69.0023 210.002 69.8959 210.257 70.8132 210.327C74.6512 210.668 78.2308 208.102 78.7932 204.603C78.92 203.83 78.8841 203.039 78.6879 202.281C78.4916 201.523 78.1392 200.814 77.6532 200.2C77.0739 199.488 76.3553 198.901 75.5412 198.475C74.7271 198.05 73.8346 197.794 72.9184 197.725C72.622 197.702 72.394 197.695 72.166 197.695H72.2268Z" fill="#64CDFF"/>
<path d="M152.793 118.359H139.417V217.098H152.793V118.359Z" fill="#64CDFF"/>
<path opacity="0.3" d="M152.793 171.224H139.417V197.027L152.793 195.379V171.224Z" fill="#2855AF"/>
<path opacity="0.3" d="M152.793 119.035H139.417V126.542L152.793 124.895V119.035Z" fill="#2855AF"/>
<path d="M111.177 189.588L107.445 135.5C107.414 135.044 107.477 134.587 107.63 134.157C107.783 133.726 108.023 133.332 108.336 132.998C108.648 132.664 109.025 132.398 109.445 132.216C109.864 132.034 110.317 131.94 110.774 131.94H193.926C194.77 131.938 195.584 132.257 196.202 132.832C196.821 133.407 197.197 134.195 197.255 135.037L200.979 189.124C201.011 189.58 200.949 190.038 200.796 190.469C200.643 190.9 200.403 191.295 200.091 191.629C199.779 191.963 199.4 192.23 198.98 192.411C198.56 192.593 198.107 192.686 197.65 192.685H114.498C113.654 192.687 112.841 192.367 112.224 191.792C111.607 191.217 111.233 190.429 111.177 189.588Z" fill="#2855AF"/>
<path d="M192.967 134.407H111.867C111.609 134.408 111.354 134.461 111.117 134.564C110.88 134.667 110.667 134.818 110.491 135.006C110.315 135.195 110.18 135.418 110.094 135.661C110.007 135.904 109.972 136.162 109.99 136.419L113.577 188.464C113.61 188.939 113.822 189.385 114.17 189.71C114.518 190.036 114.977 190.217 115.454 190.218H196.554C196.813 190.218 197.069 190.166 197.306 190.063C197.544 189.961 197.758 189.81 197.934 189.621C198.111 189.433 198.247 189.21 198.334 188.966C198.421 188.723 198.456 188.464 198.439 188.206L194.851 136.153C194.817 135.678 194.603 135.234 194.253 134.909C193.903 134.585 193.444 134.406 192.967 134.407Z" fill="#64CDFF"/>
<path opacity="0.8" d="M192.967 134.407H111.867C111.609 134.408 111.354 134.461 111.117 134.564C110.88 134.667 110.667 134.818 110.491 135.006C110.315 135.195 110.18 135.418 110.094 135.661C110.007 135.904 109.972 136.162 109.99 136.419L113.577 188.464C113.61 188.939 113.822 189.385 114.17 189.71C114.518 190.036 114.977 190.217 115.454 190.218H196.554C196.813 190.218 197.069 190.166 197.306 190.063C197.544 189.961 197.758 189.81 197.934 189.621C198.111 189.433 198.247 189.21 198.334 188.966C198.421 188.723 198.456 188.464 198.439 188.206L194.851 136.153C194.817 135.678 194.603 135.234 194.253 134.909C193.903 134.585 193.444 134.406 192.967 134.407Z" fill="white"/>
<path d="M193.788 215.284H122.606V217.09H193.788V215.284Z" fill="#2855AF"/>
<path opacity="0.3" d="M173.974 184.121H120.409L117.438 141.034H171.002L173.974 184.121Z" fill="#64CDFF"/>
<path opacity="0.3" d="M189.289 144.89H174.857L174.591 141.034H189.023L189.289 144.89Z" fill="#64CDFF"/>
<path opacity="0.3" d="M190.353 160.43H175.92L175.168 149.438H189.6L190.353 160.43Z" fill="#64CDFF"/>
<path d="M159.163 102.835H132.251V122.898H159.163V102.835Z" fill="#64CDFF"/>
<path opacity="0.3" d="M143.446 102.835H132.251V122.898H143.446V102.835Z" fill="#2855AF"/>
<path d="M217.429 189.304L217.429 189.304L217.432 189.301L218.913 187.411C218.913 187.411 218.913 187.411 218.913 187.411C219.164 187.092 219.488 186.837 219.858 186.669C220.227 186.501 220.632 186.423 221.038 186.444L221.039 186.444L225.263 186.633C225.263 186.633 225.264 186.633 225.264 186.633C226.056 186.673 226.827 186.9 227.514 187.296C228.201 187.692 228.784 188.245 229.215 188.91C229.215 188.91 229.215 188.911 229.215 188.911L229.687 189.649C228.574 191.193 226.886 192.427 225.444 193.287C224.705 193.727 224.036 194.066 223.552 194.294C223.31 194.408 223.115 194.495 222.98 194.552C222.913 194.581 222.861 194.603 222.826 194.617L222.787 194.633L222.777 194.637L222.775 194.638L222.775 194.638L222.775 194.638L222.774 194.638L222.762 194.643L222.75 194.65L221.427 195.348L221.427 195.348L221.421 195.351C221.182 195.487 220.918 195.573 220.645 195.606C220.372 195.639 220.095 195.617 219.831 195.542C219.567 195.467 219.32 195.34 219.105 195.169C218.89 194.998 218.711 194.786 218.579 194.546C218.579 194.546 218.579 194.545 218.579 194.545L217.159 191.937C216.944 191.52 216.855 191.049 216.902 190.582C216.95 190.114 217.133 189.67 217.429 189.304Z" fill="white" stroke="#2855AF" stroke-width="0.5"/>
<path d="M243.174 175.642C243.177 175.387 243.152 175.132 243.098 174.883L243.174 175.642ZM243.174 175.642C243.17 176.999 242.913 178.343 242.414 179.605L243.174 175.642ZM242.771 174.592L242.854 174.938C242.903 175.169 242.927 175.404 242.924 175.639L242.924 175.642C242.92 176.967 242.669 178.279 242.182 179.512C241.765 180.538 241.227 181.511 240.578 182.41C239.474 183.894 238.165 185.216 236.692 186.337L236.691 186.337C235.367 187.352 233.96 188.253 232.485 189.032L232.485 189.032C231.032 189.803 229.52 190.455 227.962 190.982L227.961 190.983C227.401 191.175 226.791 191.171 226.233 190.972C225.675 190.772 225.202 190.39 224.89 189.887C224.578 189.384 224.446 188.79 224.517 188.202C224.587 187.615 224.854 187.07 225.275 186.654C225.276 186.654 225.276 186.653 225.276 186.653L225.464 186.473L225.464 186.473L225.468 186.469C225.794 186.143 226.142 185.805 226.496 185.46C227.144 184.828 227.814 184.175 228.42 183.536C229.352 182.58 230.23 181.573 231.05 180.52C231.775 179.629 232.671 178.139 233.153 177.106L233.195 177.016L233.164 176.921C232.663 175.419 232.006 173.569 231.332 172.092C230.593 170.471 229.807 168.878 228.922 167.291C228.039 165.71 227.131 164.156 226.147 162.632C225.66 161.871 225.156 161.11 224.622 160.347C224.622 160.347 224.622 160.347 224.622 160.347L223.862 159.254L223.862 159.254L223.861 159.252L223.162 158.266L223.162 158.266L222.981 158.009C222.191 156.856 221.876 155.443 222.101 154.064C222.326 152.685 223.073 151.444 224.188 150.6C225.303 149.756 226.701 149.372 228.092 149.529C229.483 149.686 230.76 150.371 231.658 151.443L231.725 151.522L231.815 151.53C231.848 151.57 231.88 151.609 231.911 151.648C232.271 152.087 232.543 152.418 232.815 152.807C233.007 153.081 233.202 153.345 233.394 153.605C233.521 153.777 233.646 153.946 233.767 154.115C234.385 154.988 234.951 155.878 235.521 156.774C236.623 158.581 237.633 160.443 238.548 162.352L238.548 162.352L238.549 162.354C238.964 163.196 239.343 164.061 239.726 164.936C239.775 165.048 239.825 165.161 239.874 165.274C240.303 166.251 240.665 167.253 241.014 168.29L241.014 168.29L241.015 168.294C241.74 170.349 242.326 172.451 242.769 174.585L242.769 174.585L242.771 174.592Z" fill="white" stroke="#2855AF" stroke-width="0.5"/>
<path d="M221.515 144.852C219.372 149.71 219.509 155.776 226.075 165.052C230.438 165.531 238.509 159.867 238.509 159.867C238.509 159.867 232.968 144.343 221.515 144.852Z" fill="#2855AF"/>
<path d="M217.821 144.664C217.735 144.658 217.64 144.652 217.538 144.648C216.921 144.622 216.006 144.651 214.795 144.865C212.409 145.287 208.878 146.426 204.221 149.274C202.994 147.451 202.869 146.283 203.011 145.596C203.085 145.238 203.234 144.995 203.359 144.844C203.422 144.768 203.48 144.714 203.52 144.681C203.53 144.672 203.539 144.665 203.547 144.659C206.24 144.014 207.678 142.689 208.34 141.023C208.979 139.413 208.876 137.527 208.57 135.732L217.431 128.626C216.861 130.951 216.345 134.086 216.271 137.064C216.23 138.715 216.325 140.327 216.626 141.729C216.87 142.865 217.252 143.878 217.821 144.664Z" fill="white" stroke="#2855AF" stroke-width="0.5"/>
<path d="M200.735 119.323C200.644 119.968 200.234 120.469 199.823 120.439C199.413 120.408 199.155 119.862 199.246 119.217C199.337 118.571 199.747 118.078 200.158 118.108C200.568 118.139 200.834 118.693 200.735 119.323Z" fill="#2855AF"/>
<path d="M200.333 118.155L198.889 117.6C198.889 117.6 199.489 118.862 200.333 118.155Z" fill="#2855AF"/>
<path d="M200.598 120.538C199.824 121.967 198.868 123.291 197.756 124.477C198.478 125.328 199.945 125.07 199.945 125.07L200.598 120.538Z" fill="white"/>
<path d="M199.663 114.207C199.614 114.125 199.598 114.027 199.618 113.934C199.649 113.839 199.715 113.761 199.803 113.714C199.891 113.668 199.993 113.657 200.089 113.683C200.685 113.816 201.243 114.085 201.718 114.47C202.193 114.855 202.571 115.344 202.825 115.9C202.844 115.945 202.853 115.993 202.851 116.042C202.849 116.091 202.836 116.139 202.814 116.182C202.791 116.226 202.759 116.264 202.721 116.294C202.682 116.324 202.637 116.344 202.589 116.355C202.492 116.383 202.388 116.375 202.297 116.332C202.206 116.288 202.134 116.213 202.095 116.12C201.887 115.684 201.581 115.301 201.202 115.001C200.822 114.701 200.379 114.491 199.906 114.389C199.806 114.36 199.719 114.295 199.663 114.207Z" fill="#2855AF"/>
<path d="M221.642 118.464L221.642 118.464C222.019 116.778 221.934 115.022 221.398 113.381C220.861 111.739 219.891 110.272 218.591 109.134C217.291 107.995 215.707 107.228 214.008 106.911C212.308 106.595 210.554 106.742 208.93 107.336L208.921 107.339L208.921 107.339C205.105 108.563 202.575 111.922 201.09 115.883C199.606 119.842 199.187 124.357 199.562 127.805L221.642 118.464ZM221.642 118.464L221.64 118.472M221.642 118.464L221.64 118.472M221.64 118.472C221.577 118.806 221.516 119.131 221.456 119.448C220.836 122.745 220.383 125.152 219.632 127.149C218.816 129.32 217.648 131.007 215.508 132.803L215.508 132.803M221.64 118.472L215.508 132.803M215.508 132.803C212.305 135.496 208.518 136.12 205.438 135.14M215.508 132.803L205.438 135.14M205.438 135.14C202.363 134.161 199.977 131.579 199.563 127.805L205.438 135.14Z" fill="white" stroke="#2855AF" stroke-width="0.5"/>
<path d="M204.847 120.971C202.096 116.666 199.117 111.292 200.986 107.557C202.856 103.822 207.104 104.71 207.104 104.71C207.104 104.71 215.335 100.095 222.707 106.107C232.481 114.1 222 122.899 219.409 130.52C216.544 138.909 201.769 128.752 204.847 120.971Z" fill="#2855AF"/>
<path d="M246.967 107.018C242.992 92.253 225.558 99.0396 220.489 107.777L222.556 108.316C243.357 94.91 233.112 114.29 233.287 122.193C233.462 130.095 241.305 134.961 241.305 134.961C241.305 134.961 250.934 121.775 246.967 107.018Z" fill="#2855AF"/>
<path d="M241.708 133.116C239.488 133.116 236.388 132.699 234.366 130.657C232.542 128.812 231.972 125.996 232.686 122.306C232.914 121.137 233.279 119.763 233.659 118.313C234.86 113.759 236.357 108.156 234.001 106.168C232.344 104.763 228.856 105.257 223.627 107.617C223.605 107.629 223.58 107.635 223.555 107.637C223.53 107.639 223.505 107.635 223.482 107.626C223.458 107.618 223.437 107.605 223.419 107.587C223.401 107.57 223.386 107.549 223.376 107.526C223.366 107.503 223.361 107.479 223.36 107.454C223.36 107.429 223.364 107.404 223.374 107.381C223.383 107.357 223.396 107.336 223.414 107.318C223.431 107.3 223.452 107.286 223.475 107.276C228.917 104.809 232.443 104.353 234.244 105.879C236.783 108.02 235.324 113.539 234.032 118.412C233.644 119.854 233.272 121.221 233.059 122.382C232.375 125.965 232.907 128.668 234.64 130.421C237.87 133.686 244.284 132.577 244.352 132.562C244.377 132.558 244.403 132.559 244.427 132.565C244.452 132.571 244.475 132.581 244.496 132.596C244.516 132.611 244.533 132.63 244.547 132.651C244.56 132.673 244.569 132.697 244.573 132.722C244.577 132.746 244.576 132.772 244.57 132.797C244.564 132.821 244.553 132.844 244.539 132.865C244.524 132.885 244.505 132.902 244.484 132.916C244.462 132.929 244.438 132.938 244.413 132.942C243.517 133.07 242.613 133.128 241.708 133.116Z" fill="#2855AF"/>
<path d="M223.003 104.528C223.193 103.564 220.761 103.966 220.647 104.824C220.533 105.682 220.214 105.203 219.264 106.456C218.314 107.709 218.184 109.181 221.3 110.153C223.276 110.768 223.58 109.25 224.591 108.49C225.146 108.08 225.769 107.868 226.172 107.557C226.271 107.48 226.345 107.375 226.384 107.256C226.423 107.136 226.426 107.008 226.391 106.888C226.357 106.767 226.287 106.659 226.191 106.578C226.096 106.497 225.978 106.447 225.853 106.433C224.576 106.327 222.805 105.477 223.003 104.528Z" fill="#64CDFF"/>
<path d="M206.247 123.673C205.905 124.33 205.43 124.908 204.851 125.371C204.273 125.833 203.604 126.17 202.887 126.36C201.101 126.755 200.425 124.697 201.101 122.693C201.709 120.902 203.381 118.526 205.084 119.042C206.786 119.558 207.212 121.934 206.247 123.673Z" fill="white"/>
<path d="M238.767 354.149C244.672 353.269 244.786 352.289 247.955 351.181C250.668 350.225 251.428 350.361 253.617 349.625C255.449 349.01 254.826 347.272 253.617 345.419C253.017 344.493 252.926 343.613 252.264 341.965L243.289 343.294C242.422 345.799 242.111 349.002 236.988 350.832C233.941 351.925 236.388 354.498 238.767 354.149Z" fill="#2855AF"/>
<path d="M184.031 354.172C189.906 354.172 191.03 353.785 194.336 353.671C197.164 353.572 197.627 354.172 200.492 354.172C202.392 354.172 202.658 352.031 201.959 350.43C201.42 349.185 201.336 347.689 200.941 346.072H192.847C191.388 348.63 187.405 350.528 182.967 350.847C179.775 351.082 181.667 354.172 184.031 354.172Z" fill="#2855AF"/>
<path d="M192.481 263.315L192.482 263.302L192.48 263.29C191.227 249.903 190.893 232.666 190.872 218.769C190.862 211.822 190.93 205.713 191 201.339C191.035 199.153 191.071 197.401 191.098 196.195C191.112 195.592 191.123 195.126 191.131 194.811L191.137 194.574H218.773C218.775 194.599 218.778 194.626 218.78 194.654C218.799 194.856 218.824 195.159 218.852 195.56C218.907 196.362 218.971 197.557 219.003 199.124C219.068 202.259 219.008 206.884 218.509 212.839C217.512 224.749 214.761 241.976 207.741 263.235L207.723 263.29L207.731 263.347C210.535 283.707 208.778 304.367 206.319 319.941C205.09 327.728 203.685 334.24 202.587 338.806C202.039 341.088 201.567 342.884 201.233 344.109C201.065 344.721 200.933 345.191 200.842 345.507C200.796 345.665 200.761 345.785 200.737 345.865L200.729 345.892C200.612 345.954 200.436 346.02 200.203 346.087C199.92 346.169 199.571 346.244 199.178 346.311C198.393 346.445 197.447 346.541 196.529 346.573C195.609 346.605 194.731 346.574 194.077 346.459C193.749 346.401 193.493 346.325 193.32 346.235C193.157 346.15 193.109 346.076 193.097 346.031L193.096 346.012L193.095 345.888L193.088 345.401C193.083 344.973 193.074 344.342 193.064 343.53C193.043 341.906 193.013 339.558 192.978 336.662C192.908 330.87 192.816 322.885 192.729 314.114C192.556 296.571 192.402 275.887 192.481 263.315Z" fill="white" stroke="#2855AF" stroke-width="0.5"/>
<path d="M199.655 194.574L223.043 194.551C223.069 194.576 223.101 194.608 223.141 194.648C223.252 194.76 223.416 194.934 223.625 195.177C224.044 195.663 224.642 196.425 225.352 197.524C226.772 199.72 228.639 203.261 230.409 208.621C233.95 219.341 237.103 237.337 235.508 266.404L235.504 266.48L235.543 266.546C242.583 278.323 246.707 297.165 249.069 313.096C250.249 321.055 250.987 328.276 251.431 333.507C251.653 336.123 251.801 338.241 251.893 339.705C251.939 340.437 251.972 341.005 251.993 341.39C252.002 341.572 252.01 341.712 252.015 341.811C250.754 342.391 248.993 342.841 247.344 343.079C246.489 343.203 245.67 343.268 244.976 343.266C244.365 343.265 243.87 343.211 243.531 343.11C243.146 339.033 241.792 333.7 239.892 327.625C237.965 321.465 235.472 314.526 232.842 307.333C232.369 306.038 231.891 304.734 231.411 303.426C226.559 290.192 221.514 276.432 218.855 265.274C216.072 253.575 211.249 235.819 207.122 220.99C205.059 213.576 203.169 206.892 201.795 202.062C201.108 199.647 200.55 197.695 200.164 196.347C199.971 195.673 199.821 195.15 199.719 194.795L199.655 194.574Z" fill="white" stroke="#2855AF" stroke-width="0.5"/>
<path d="M242.125 340.037C242.264 341.153 242.322 342.276 242.3 343.4C242.293 343.497 242.306 343.595 242.338 343.687C242.37 343.779 242.421 343.863 242.487 343.934C242.554 344.005 242.634 344.062 242.724 344.101C242.813 344.14 242.909 344.16 243.007 344.159C246.366 344.159 251.01 342.732 252.477 342.231C252.613 342.187 252.732 342.1 252.816 341.984C252.901 341.869 252.947 341.729 252.948 341.586V338.405C252.947 338.303 252.924 338.203 252.881 338.111C252.837 338.019 252.774 337.937 252.696 337.871C252.618 337.806 252.527 337.758 252.429 337.73C252.331 337.703 252.228 337.698 252.127 337.714L242.672 339.301C242.506 339.334 242.358 339.428 242.257 339.564C242.156 339.7 242.109 339.869 242.125 340.037Z" fill="#64CDFF"/>
<path d="M191.92 342.527C191.92 343.4 191.844 344.957 191.761 346.103C191.759 346.286 191.823 346.464 191.942 346.603C192.06 346.743 192.226 346.835 192.407 346.862C195.38 347.106 198.37 347.073 201.337 346.763C201.479 346.751 201.613 346.692 201.719 346.596C201.825 346.5 201.896 346.372 201.922 346.232L202.53 343.097C202.544 342.995 202.537 342.891 202.509 342.792C202.481 342.692 202.433 342.6 202.369 342.52C202.304 342.439 202.224 342.373 202.132 342.325C202.041 342.277 201.941 342.247 201.838 342.239L192.612 341.875C192.523 341.869 192.434 341.883 192.35 341.913C192.266 341.943 192.19 341.991 192.125 342.052C192.06 342.113 192.009 342.187 191.974 342.269C191.938 342.35 191.92 342.438 191.92 342.527Z" fill="#64CDFF"/>
<path d="M189.068 156.406C188.889 161.318 188.96 166.236 189.281 171.141C189.532 177.54 189.973 183.833 190.892 194.324H223.139C222.493 185.253 223.55 174.914 229.341 154.501C229.683 153.433 229.781 152.303 229.629 151.192C229.477 150.081 229.078 149.019 228.462 148.082C227.846 147.145 227.027 146.358 226.067 145.778C225.106 145.199 224.028 144.841 222.911 144.731C221.634 144.602 220.274 144.496 218.883 144.427C214.01 144.082 209.119 144.082 204.245 144.427C202.649 144.571 201 144.776 199.427 144.997C196.646 145.409 194.094 146.771 192.206 148.852C190.317 150.932 189.208 153.601 189.068 156.406Z" fill="#2855AF"/>
<path d="M222.98 190.338C216.528 191.986 206.709 192.456 190.589 190.741C190.977 199.281 187.215 256.708 187.215 256.708C187.215 256.708 219.895 263.882 238.37 254.142C239.564 210.744 222.98 190.338 222.98 190.338Z" fill="#64CDFF"/>
<path d="M157.436 162.921L157.436 162.921L157.436 162.921L157.428 162.909L157.42 162.899L156.477 161.737L156.477 161.737L156.472 161.731C156.292 161.523 156.155 161.281 156.069 161.02C155.983 160.758 155.95 160.482 155.973 160.208C155.995 159.934 156.071 159.667 156.198 159.422C156.324 159.178 156.498 158.961 156.709 158.785C156.709 158.785 156.709 158.784 156.71 158.784L158.988 156.888C158.988 156.888 158.989 156.887 158.989 156.887C159.349 156.59 159.788 156.404 160.253 156.35C160.717 156.296 161.187 156.378 161.605 156.584C161.606 156.585 161.606 156.585 161.607 156.585L163.747 157.669L163.747 157.669L163.749 157.67C164.115 157.852 164.432 158.119 164.673 158.448C164.914 158.778 165.072 159.161 165.133 159.564L165.764 163.739L165.764 163.739L165.764 163.741C165.889 164.526 165.823 165.33 165.571 166.085C165.319 166.84 164.889 167.523 164.317 168.077L164.317 168.077L164.315 168.079L163.675 168.718C161.948 167.941 160.409 166.53 159.285 165.282C158.708 164.642 158.245 164.05 157.926 163.619C157.767 163.403 157.643 163.228 157.56 163.107C157.519 163.046 157.488 162.999 157.467 162.968L157.443 162.932L157.437 162.923L157.436 162.921L157.436 162.921Z" fill="white" stroke="#2855AF" stroke-width="0.5"/>
<path d="M179.539 170.761L179.746 170.901L179.746 170.901L179.747 170.9L179.747 170.899L179.751 170.894L179.766 170.872L179.821 170.79L180.025 170.489L180.684 169.514C181.193 168.762 181.78 167.895 182.094 167.432C183.092 165.964 184.062 164.454 184.956 162.859C185.845 161.273 186.714 159.704 187.515 158.073C187.718 157.668 187.909 157.259 188.099 156.852L188.118 156.811C188.302 156.417 188.485 156.026 188.678 155.636L188.678 155.637L188.682 155.627L189.222 154.412L189.222 154.412L189.708 153.312L189.709 153.311L189.837 153.024L189.837 153.023C190.409 151.74 191.456 150.726 192.759 150.196C194.062 149.665 195.52 149.659 196.828 150.177C198.135 150.696 199.192 151.699 199.775 152.978C200.359 154.256 200.425 155.711 199.96 157.037L199.843 157.37H199.854C199.677 157.851 199.53 158.233 199.363 158.66C199.262 158.918 199.157 159.163 199.05 159.412C199.038 159.439 199.026 159.467 199.014 159.494C198.919 159.714 198.822 159.939 198.726 160.173C198.304 161.152 197.837 162.094 197.359 163.041C196.394 164.932 195.328 166.769 194.165 168.544L194.164 168.545C193.59 169.436 192.977 170.313 192.354 171.185C191.736 172.052 191.071 172.896 190.369 173.719L190.369 173.718L190.366 173.723C188.985 175.409 187.49 176.999 185.89 178.48L185.89 178.48L185.886 178.483L185.675 178.687C185.675 178.687 185.675 178.687 185.674 178.687C185.494 178.859 185.296 179.011 185.085 179.141L185.084 179.142C184.181 179.703 183.179 180.088 182.132 180.277L182.131 180.277C181.258 180.438 180.366 180.473 179.483 180.381C178.128 180.219 176.806 179.852 175.561 179.294C173.608 178.394 171.779 177.245 170.122 175.875L170.121 175.873C168.607 174.638 167.178 173.301 165.844 171.873L165.843 171.872C164.524 170.476 163.295 168.998 162.162 167.448L179.539 170.761ZM179.539 170.761L179.746 170.901L179.649 171.045L179.48 171.004L178.728 170.822L178.717 170.819L178.706 170.815L178.787 170.579M179.539 170.761L178.787 170.579M178.787 170.579L178.706 170.815L178.706 170.815L178.705 170.815L178.704 170.815L178.697 170.812L178.674 170.804L178.582 170.773C178.503 170.745 178.389 170.705 178.248 170.655C177.966 170.554 177.577 170.413 177.146 170.25C176.291 169.926 175.26 169.51 174.597 169.153C173.145 168.412 171.665 167.536 170.205 166.639C169.123 165.975 168.019 165.252 166.948 164.55C166.57 164.303 166.197 164.058 165.829 163.82M178.787 170.579L165.829 163.82M165.701 163.736L165.699 163.736C165.189 163.401 164.577 163.256 163.97 163.326C163.363 163.396 162.8 163.676 162.38 164.118C161.959 164.56 161.706 165.135 161.667 165.744C161.627 166.352 161.802 166.955 162.162 167.448L165.701 163.736ZM165.701 163.736L165.829 163.82M165.701 163.736L165.829 163.82M165.829 163.82C165.829 163.82 165.829 163.82 165.829 163.82M165.829 163.82L165.829 163.82" fill="white" stroke="#2855AF" stroke-width="0.5"/>
<path d="M200.317 144.875C195.05 145.558 189.928 148.822 185.391 159.253C187.245 163.231 196.274 167.201 196.274 167.201C196.274 167.201 206.686 154.372 200.317 144.875Z" fill="#2855AF"/>
<g filter="url(#filter0_d)">
<circle cx="277.927" cy="175.5" r="13.5" fill="url(#paint0_radial)"/>
</g>
<g filter="url(#filter1_d)">
<circle cx="69.4268" cy="59" r="29" fill="url(#paint1_radial)"/>
</g>
<defs>
<filter id="filter0_d" x="224.427" y="132" width="107" height="107" filterUnits="userSpaceOnUse" color-interpolation-filters="sRGB">
<feFlood flood-opacity="0" result="BackgroundImageFix"/>
<feColorMatrix in="SourceAlpha" type="matrix" values="0 0 0 0 0 0 0 0 0 0 0 0 0 0 0 0 0 0 127 0"/>
<feOffset dy="10"/>
<feGaussianBlur stdDeviation="20"/>
<feColorMatrix type="matrix" values="0 0 0 0 0.156863 0 0 0 0 0.333333 0 0 0 0 0.686275 0 0 0 0.1 0"/>
<feBlend mode="normal" in2="BackgroundImageFix" result="effect1_dropShadow"/>
<feBlend mode="normal" in="SourceGraphic" in2="effect1_dropShadow" result="shape"/>
</filter>
<filter id="filter1_d" x="0.426758" y="0" width="138" height="138" filterUnits="userSpaceOnUse" color-interpolation-filters="sRGB">
<feFlood flood-opacity="0" result="BackgroundImageFix"/>
<feColorMatrix in="SourceAlpha" type="matrix" values="0 0 0 0 0 0 0 0 0 0 0 0 0 0 0 0 0 0 127 0"/>
<feOffset dy="10"/>
<feGaussianBlur stdDeviation="20"/>
<feColorMatrix type="matrix" values="0 0 0 0 0.156863 0 0 0 0 0.333333 0 0 0 0 0.686275 0 0 0 0.1 0"/>
<feBlend mode="normal" in2="BackgroundImageFix" result="effect1_dropShadow"/>
<feBlend mode="normal" in="SourceGraphic" in2="effect1_dropShadow" result="shape"/>
</filter>
<radialGradient id="paint0_radial" cx="0" cy="0" r="1" gradientUnits="userSpaceOnUse" gradientTransform="translate(273.416 167.701) rotate(52.2481) scale(17.9061)">
<stop stop-color="#8AAEF4"/>
<stop offset="1" stop-color="#2855AF"/>
</radialGradient>
<radialGradient id="paint1_radial" cx="0" cy="0" r="1" gradientUnits="userSpaceOnUse" gradientTransform="translate(59.7377 42.2459) rotate(52.2481) scale(38.4649)">
<stop stop-color="#8AAEF4"/>
<stop offset="1" stop-color="#2855AF"/>
</radialGradient>
</defs>
</svg>
