<svg width="80" height="80" viewBox="0 0 80 80" fill="none" xmlns="http://www.w3.org/2000/svg">
<circle cx="40" cy="40" r="40" fill="url(#paint0_radial)"/>
<path d="M56.9947 31.4025C56.9761 31.2147 56.903 31.0263 56.7745 30.8695C56.7249 30.8089 57.2323 31.3201 49.2039 23.2918C49.0126 23.1004 48.7528 22.9999 48.4993 23C47.8952 23 26.59 23 25.9882 23C24.3405 23 23 24.3405 23 25.9882V54.0112C23 55.6589 24.3405 56.9995 25.9882 56.9995H54.0112C55.6589 56.9995 56.9995 55.6589 56.9995 54.0112C56.9995 29.8274 57.0022 31.4789 56.9947 31.4025ZM45.9099 24.9922V31.4999C45.9099 32.0491 45.463 32.4959 44.9138 32.4959H43.6521V24.9922H45.9099ZM41.6599 24.9922V32.4959H32.4296C31.8804 32.4959 31.4335 32.0491 31.4335 31.4999V24.9922H41.6599ZM45.9099 44.3161H31.4335V43.0544C31.4335 42.5051 31.8804 42.0583 32.4296 42.0583H44.9138C45.463 42.0583 45.9099 42.5051 45.9099 43.0544V44.3161ZM31.4335 55.0073V46.3082H45.9099V55.0073H31.4335ZM55.0074 54.0112C55.0074 54.5605 54.5605 55.0073 54.0113 55.0073H47.902C47.902 53.7087 47.902 44.5347 47.902 43.0544C47.902 41.4067 46.5615 40.0661 44.9138 40.0661H32.4296C30.7819 40.0661 29.4414 41.4067 29.4414 43.0544V55.0073H25.9883C25.4391 55.0073 24.9922 54.5605 24.9922 54.0112V25.9882C24.9922 25.439 25.4391 24.9922 25.9883 24.9922H29.4414V31.4999C29.4414 33.1476 30.7819 34.4881 32.4296 34.4881H44.9138C46.5615 34.4881 47.902 33.1476 47.902 31.4999V24.9922H48.0871L55.0074 31.9125V54.0112Z" fill="white"/>
<defs>
<radialGradient id="paint0_radial" cx="0" cy="0" r="1" gradientUnits="userSpaceOnUse" gradientTransform="translate(7.75194 7.75194) rotate(47.6978) scale(83.8495)">
<stop stop-color="#64CDFF"/>
<stop offset="1" stop-color="#1277A7"/>
</radialGradient>
</defs>
</svg>
