<svg width="80" height="80" viewBox="0 0 80 80" fill="none" xmlns="http://www.w3.org/2000/svg">
<circle cx="40" cy="40" r="40" fill="url(#paint0_radial)"/>
<path d="M51.993 44.6042L52.2621 42.3765C52.2977 42.0783 52.2696 41.776 52.1798 41.4895C52.09 41.2029 51.9404 40.9387 51.7411 40.7141C51.5417 40.4896 51.297 40.3098 51.0231 40.1868C50.7492 40.0637 50.4523 40 50.152 40H46.4687C46.475 39.988 46.4772 39.9752 46.4835 39.9632C47.5246 38.2623 48.118 36.3255 48.2083 34.3334C48.2083 28.9614 42.9355 23.7084 39 23.7084C35.0645 23.7084 29.7917 28.9614 29.7917 34.3334C29.8841 36.3248 30.4763 38.2608 31.5136 39.9632C31.52 39.9752 31.5221 39.988 31.5285 40H27.8452C27.5446 40 27.2475 40.0637 26.9733 40.1869C26.6992 40.3102 26.4544 40.4902 26.2549 40.7151C26.0555 40.9399 25.9061 41.2045 25.8164 41.4914C25.7268 41.7783 25.6991 42.0809 25.735 42.3793L26.0042 44.6077C24.7757 45.4543 23.7699 46.5853 23.0727 47.9043C22.3755 49.2234 22.0075 50.6914 22 52.1834V54.1667C22 54.7303 22.2239 55.2708 22.6224 55.6693C23.0209 56.0678 23.5614 56.2917 24.125 56.2917H53.875C54.4386 56.2917 54.9791 56.0678 55.3776 55.6693C55.7761 55.2708 56 54.7303 56 54.1667V52.1834C55.9925 50.6906 55.6242 49.2218 54.9265 47.9021C54.2288 46.5824 53.2224 45.451 51.993 44.6042ZM42.1167 40C43.149 38.7588 43.9464 37.3397 44.4697 35.8124C44.9532 36.6739 45.347 37.5827 45.6449 38.5246C45.3537 38.9842 45.1246 39.4803 44.9635 40H42.1167ZM35.8437 37.5053C36.6682 36.9075 38.0792 35.75 39 35.75C39.9208 35.75 41.3297 36.9067 42.1528 37.5053C41.3821 38.922 40.411 40 39 40C37.589 40 36.6172 38.9248 35.8465 37.5053H35.8437ZM42.774 36.2055C41.7016 35.4065 40.3274 34.3334 39 34.3334C37.6726 34.3334 36.297 35.4065 35.2225 36.2055C34.9497 35.573 34.7089 34.9475 34.4752 34.3482C35.7296 32.6844 37.3205 31.5 39 31.5C40.6795 31.5 42.2704 32.6844 43.5248 34.3482C43.2897 34.951 43.0517 35.5687 42.7768 36.2055H42.774ZM39 25.125C42.2187 25.125 46.7917 29.8879 46.7917 34.3334C46.7804 35.0944 46.6587 35.8499 46.4304 36.576C44.9365 33.1228 42.1719 30.0834 39 30.0834C35.8281 30.0834 33.0627 33.1235 31.5696 36.5767C31.3412 35.8503 31.2196 35.0947 31.2083 34.3334C31.2083 29.8879 35.7813 25.125 39 25.125ZM32.353 38.526C32.6509 37.5837 33.0447 36.6744 33.5281 35.8124C34.0516 37.34 34.8498 38.7592 35.8833 40H33.0337C32.8727 39.4808 32.6439 38.9852 32.353 38.526ZM23.4167 54.1667V52.1834C23.422 51.0479 23.6738 49.9271 24.1547 48.8985C24.6356 47.8699 25.334 46.9579 26.2018 46.2256L27.2417 54.875H24.125C23.9371 54.875 23.757 54.8004 23.6241 54.6676C23.4913 54.5347 23.4167 54.3546 23.4167 54.1667ZM28.6725 54.875L27.1446 42.2093C27.1327 42.1099 27.142 42.0091 27.1719 41.9135C27.2018 41.8179 27.2517 41.7298 27.3181 41.6549C27.3846 41.58 27.4662 41.52 27.5575 41.479C27.6489 41.4379 27.7479 41.4167 27.848 41.4167H50.152C50.2521 41.4167 50.3511 41.4379 50.4425 41.479C50.5338 41.52 50.6154 41.58 50.6819 41.6549C50.7483 41.7298 50.7982 41.8179 50.8281 41.9135C50.858 42.0091 50.8673 42.1099 50.8554 42.2093L49.3275 54.875H28.6725ZM54.5833 54.1667C54.5833 54.3546 54.5087 54.5347 54.3759 54.6676C54.243 54.8004 54.0629 54.875 53.875 54.875H50.7583L51.8017 46.2256C52.6689 46.9582 53.3668 47.8703 53.847 48.8989C54.3273 49.9275 54.5785 51.0482 54.5833 52.1834V54.1667Z" fill="white"/>
<path d="M39.0001 52.0417C38.2296 52.0417 37.4763 51.8132 36.8357 51.3851C36.195 50.957 35.6957 50.3486 35.4008 49.6367C35.1059 48.9248 35.0288 48.1415 35.1791 47.3858C35.3294 46.6301 35.7005 45.9359 36.2453 45.3911C36.7902 44.8462 37.4843 44.4752 38.24 44.3249C38.9958 44.1745 39.7791 44.2517 40.4909 44.5466C41.2028 44.8414 41.8113 45.3408 42.2393 45.9814C42.6674 46.6221 42.8959 47.3753 42.8959 48.1458C42.8948 49.1787 42.484 50.169 41.7536 50.8994C41.0232 51.6297 40.033 52.0405 39.0001 52.0417ZM39.0001 45.6667C38.5097 45.6667 38.0304 45.8121 37.6227 46.0845C37.215 46.3569 36.8973 46.7441 36.7096 47.1971C36.522 47.6501 36.4729 48.1486 36.5686 48.6295C36.6642 49.1104 36.9003 49.5521 37.247 49.8989C37.5938 50.2456 38.0355 50.4817 38.5164 50.5774C38.9973 50.673 39.4958 50.6239 39.9488 50.4363C40.4018 50.2486 40.789 49.9309 41.0614 49.5232C41.3338 49.1155 41.4792 48.6362 41.4792 48.1458C41.4792 47.4883 41.218 46.8577 40.7531 46.3928C40.2882 45.9279 39.6576 45.6667 39.0001 45.6667Z" fill="white"/>
<defs>
<radialGradient id="paint0_radial" cx="0" cy="0" r="1" gradientUnits="userSpaceOnUse" gradientTransform="translate(7.75194 7.75194) rotate(47.6978) scale(83.8495)">
<stop stop-color="#64CDFF"/>
<stop offset="1" stop-color="#1277A7"/>
</radialGradient>
</defs>
</svg>
