<svg width="80" height="80" viewBox="0 0 80 80" fill="none" xmlns="http://www.w3.org/2000/svg">
<circle cx="40" cy="40" r="40" fill="url(#paint0_radial)"/>
<path d="M54.0662 28.2324L41.898 22.5058C41.3028 22.2318 40.6554 22.09 40.0002 22.09C39.3451 22.09 38.6976 22.2318 38.1025 22.5058L25.9343 28.2324C25.5156 28.4307 25.1617 28.7434 24.9135 29.1344C24.6652 29.5255 24.5328 29.9788 24.5315 30.442V36.7582C24.5272 41.4283 25.9946 45.981 28.7253 49.7695C31.456 53.5581 35.3111 56.3898 39.743 57.8624C39.91 57.918 40.0905 57.918 40.2575 57.8624C44.6893 56.3898 48.5445 53.5581 51.2752 49.7695C54.0059 45.981 55.4733 41.4283 55.469 36.7582V30.442C55.4677 29.9788 55.3353 29.5255 55.087 29.1344C54.8388 28.7434 54.4848 28.4307 54.0662 28.2324ZM53.8407 36.7582C53.8447 41.04 52.5137 45.2165 50.0331 48.7065C47.5524 52.1965 44.0454 54.8264 40.0002 56.23C35.955 54.8264 32.4481 52.1965 29.9674 48.7065C27.4867 45.2165 26.1558 41.04 26.1598 36.7582V30.442C26.1604 30.2877 26.2046 30.1366 26.2873 30.0063C26.37 29.876 26.4878 29.7716 26.6271 29.7052L38.7961 23.9794C39.1728 23.8022 39.584 23.7103 40.0002 23.7103C40.4165 23.7103 40.8277 23.8022 41.2044 23.9794L53.3734 29.7052C53.5127 29.7716 53.6305 29.876 53.7132 30.0063C53.7958 30.1366 53.84 30.2877 53.8407 30.442V36.7582Z" fill="white"/>
<path d="M40.0005 30.2231C38.2293 30.2231 36.4978 30.7484 35.0251 31.7324C33.5523 32.7165 32.4045 34.1152 31.7266 35.7516C31.0488 37.388 30.8715 39.1887 31.217 40.9259C31.5626 42.6631 32.4155 44.2588 33.668 45.5113C34.9204 46.7638 36.5161 47.6167 38.2534 47.9622C39.9906 48.3078 41.7912 48.1304 43.4277 47.4526C45.0641 46.7748 46.4628 45.6269 47.4468 44.1542C48.4309 42.6815 48.9561 40.95 48.9561 39.1787C48.9533 36.8044 48.0089 34.5282 46.33 32.8493C44.6511 31.1704 42.3748 30.2259 40.0005 30.2231ZM40.0005 46.506C38.5513 46.506 37.1346 46.0763 35.9297 45.2712C34.7247 44.466 33.7856 43.3217 33.231 41.9828C32.6764 40.6439 32.5313 39.1706 32.814 37.7492C33.0967 36.3279 33.7946 35.0223 34.8193 33.9976C35.8441 32.9728 37.1497 32.275 38.571 31.9922C39.9924 31.7095 41.4657 31.8546 42.8045 32.4092C44.1434 32.9638 45.2878 33.9029 46.0929 35.1079C46.8981 36.3129 47.3278 37.7295 47.3278 39.1787C47.3256 41.1214 46.553 42.9839 45.1793 44.3575C43.8056 45.7312 41.9432 46.5039 40.0005 46.506Z" fill="white"/>
<path d="M43.0886 36.1605L38.7793 40.4698L36.9125 38.603C36.7595 38.4503 36.5521 38.3647 36.336 38.3649C36.1199 38.3651 35.9127 38.4512 35.76 38.6042C35.6074 38.7572 35.5217 38.9645 35.522 39.1807C35.5222 39.3968 35.6083 39.604 35.7613 39.7566L38.2037 42.199C38.3564 42.3517 38.5634 42.4374 38.7793 42.4374C38.9952 42.4374 39.2022 42.3517 39.3549 42.199L44.2398 37.3142C44.3881 37.1606 44.4701 36.955 44.4683 36.7415C44.4664 36.5281 44.3808 36.3239 44.2298 36.1729C44.0789 36.022 43.8747 35.9363 43.6612 35.9345C43.4478 35.9326 43.2421 36.0147 43.0886 36.163V36.1605Z" fill="white"/>
<defs>
<radialGradient id="paint0_radial" cx="0" cy="0" r="1" gradientUnits="userSpaceOnUse" gradientTransform="translate(7.75194 7.75194) rotate(47.6978) scale(83.8495)">
<stop stop-color="#64CDFF"/>
<stop offset="1" stop-color="#1277A7"/>
</radialGradient>
</defs>
</svg>
