<svg width="434" height="316" viewBox="0 0 434 316" fill="none" xmlns="http://www.w3.org/2000/svg">
<path d="M240.755 108.589C270.806 93.9737 294.639 61.2725 333.141 67.5165C362.021 72.2109 377.479 98.4098 382.138 126.979C394.389 201.983 301.449 253.75 238.787 259.432C173.875 265.357 82.8807 231.531 92.9507 154.948C97.1003 123.393 121.701 108.011 154.389 104.479C182.114 101.479 217.18 120.059 240.755 108.589Z" fill="white"/>
<path opacity="0.9" d="M240.755 108.589C270.806 93.9737 294.639 61.2725 333.141 67.5165C362.021 72.2109 377.479 98.4098 382.138 126.979C394.389 201.983 301.449 253.75 238.787 259.432C173.875 265.357 82.8807 231.531 92.9507 154.948C97.1003 123.393 121.701 108.011 154.389 104.479C182.114 101.479 217.18 120.059 240.755 108.589Z" fill="white"/>
<path d="M244 316C325.383 316 391.356 310.596 391.356 303.93C391.356 297.263 325.383 291.859 244 291.859C162.617 291.859 96.6436 297.263 96.6436 303.93C96.6436 310.596 162.617 316 244 316Z" fill="#F5F5F5"/>
<path d="M280.237 256.264H267.317C260.591 256.264 255.157 266.01 255.157 278.035C255.157 290.059 260.606 299.797 267.317 299.797H280.237C286.963 299.797 292.397 290.052 292.397 278.035C292.397 266.018 286.963 256.264 280.237 256.264Z" fill="#2855AF"/>
<path opacity="0.05" d="M295.437 256.264H282.517C275.791 256.264 270.357 266.01 270.357 278.035C270.357 290.059 275.807 299.797 282.517 299.797H295.437C302.163 299.797 307.597 290.052 307.597 278.035C307.597 266.018 302.163 256.264 295.437 256.264Z" fill="white"/>
<path d="M384.897 260.928L158.653 260.769V116.329H384.897V260.928Z" fill="#64CDFF"/>
<path opacity="0.3" d="M384.897 116.329H231.559V260.921H384.897V116.329Z" fill="#2855AF"/>
<path opacity="0.2" d="M231.56 116.329H158.653V263.777H231.56V116.329Z" fill="white"/>
<path opacity="0.1" d="M159.199 123.044H384.896" stroke="white" stroke-width="2" stroke-linecap="round" stroke-linejoin="round"/>
<path opacity="0.1" d="M159.199 129.296H384.896" stroke="white" stroke-width="2" stroke-linecap="round" stroke-linejoin="round"/>
<path opacity="0.1" d="M159.199 135.54H384.896" stroke="white" stroke-width="2" stroke-linecap="round" stroke-linejoin="round"/>
<path opacity="0.1" d="M159.199 141.784H384.896" stroke="white" stroke-width="2" stroke-linecap="round" stroke-linejoin="round"/>
<path opacity="0.1" d="M159.199 148.035H384.896" stroke="white" stroke-width="2" stroke-linecap="round" stroke-linejoin="round"/>
<path opacity="0.1" d="M159.199 154.279H384.896" stroke="white" stroke-width="2" stroke-linecap="round" stroke-linejoin="round"/>
<path opacity="0.1" d="M159.199 160.523H384.896" stroke="white" stroke-width="2" stroke-linecap="round" stroke-linejoin="round"/>
<path opacity="0.1" d="M159.199 166.767H384.896" stroke="white" stroke-width="2" stroke-linecap="round" stroke-linejoin="round"/>
<path opacity="0.1" d="M159.199 173.019H384.896" stroke="white" stroke-width="2" stroke-linecap="round" stroke-linejoin="round"/>
<path opacity="0.1" d="M159.199 179.263H384.896" stroke="white" stroke-width="2" stroke-linecap="round" stroke-linejoin="round"/>
<path opacity="0.1" d="M159.199 185.507H384.896" stroke="white" stroke-width="2" stroke-linecap="round" stroke-linejoin="round"/>
<path opacity="0.1" d="M159.199 191.758H384.896" stroke="white" stroke-width="2" stroke-linecap="round" stroke-linejoin="round"/>
<path opacity="0.1" d="M159.199 198.002H384.896" stroke="white" stroke-width="2" stroke-linecap="round" stroke-linejoin="round"/>
<path opacity="0.1" d="M159.199 204.247H384.896" stroke="white" stroke-width="2" stroke-linecap="round" stroke-linejoin="round"/>
<path opacity="0.1" d="M159.199 210.49H384.896" stroke="white" stroke-width="2" stroke-linecap="round" stroke-linejoin="round"/>
<path opacity="0.1" d="M159.199 216.742H384.896" stroke="white" stroke-width="2" stroke-linecap="round" stroke-linejoin="round"/>
<path opacity="0.1" d="M159.199 222.986H384.896" stroke="white" stroke-width="2" stroke-linecap="round" stroke-linejoin="round"/>
<path opacity="0.1" d="M159.199 229.23H384.896" stroke="white" stroke-width="2" stroke-linecap="round" stroke-linejoin="round"/>
<path opacity="0.1" d="M159.199 235.482H384.896" stroke="white" stroke-width="2" stroke-linecap="round" stroke-linejoin="round"/>
<path opacity="0.1" d="M159.199 241.726H384.896" stroke="white" stroke-width="2" stroke-linecap="round" stroke-linejoin="round"/>
<path opacity="0.1" d="M159.199 247.97H384.896" stroke="white" stroke-width="2" stroke-linecap="round" stroke-linejoin="round"/>
<path opacity="0.1" d="M159.199 254.221H384.896" stroke="white" stroke-width="2" stroke-linecap="round" stroke-linejoin="round"/>
<path d="M117.134 259.105H105.179C98.9468 259.105 93.9004 268.13 93.9004 279.266C93.9004 290.401 98.9468 299.418 105.179 299.418H117.134C123.366 299.418 128.412 290.394 128.412 279.266C128.412 268.137 123.366 259.105 117.134 259.105Z" fill="#2855AF"/>
<path opacity="0.05" d="M132.34 259.105H120.378C114.146 259.105 109.1 268.13 109.1 279.266C109.1 290.401 114.146 299.418 120.378 299.418H132.34C138.565 299.418 143.619 290.394 143.619 279.266C143.619 268.137 138.565 259.105 132.34 259.105Z" fill="white"/>
<path d="M110.484 219.735H104.829C103.72 219.773 102.808 218.588 102.785 217.084C102.77 216.927 102.77 216.769 102.785 216.613L104.305 199.544C104.495 197.79 105.582 196.506 106.889 196.422H112.596C113.698 196.422 114.61 197.585 114.633 199.089C114.633 199.24 114.633 199.392 114.633 199.544L113.113 216.613C112.885 218.345 111.76 219.689 110.484 219.735Z" fill="#2855AF"/>
<path d="M116.138 163.357L105.232 222.143L223.967 268.631L223.139 152.775L197.025 152.016H125.494C121.192 151.978 117.4 156.596 116.138 163.357Z" fill="#64CDFF"/>
<path d="M204.479 172.814C200.049 172.616 196.074 176.247 194.774 181.663L185.791 219.279H168.501L167.559 268.904H224.429" fill="#64CDFF"/>
<path d="M117.841 216.119C116.1 216.119 114.694 213.886 114.694 211.136C114.694 210.657 114.739 210.179 114.831 209.708L121.36 175.191C121.907 172.328 123.579 170.368 125.471 170.376H187.928C188.604 170.376 189.159 171.241 189.159 172.32C189.161 172.511 189.143 172.702 189.106 172.89C187.738 180 183.292 203.555 181.59 212.564C181.194 214.676 179.963 216.119 178.55 216.119H117.841Z" fill="#2855AF"/>
<path d="M175.312 231.418C175.311 232.023 175.268 232.627 175.183 233.226L174.856 235.451L174.666 236.766L173.268 246.367L170.988 261.977L170.357 266.314H81.9766V261.977L82.0374 246.367L82.121 237.031V233.233C81.361 228.22 83.7854 223.358 87.479 222.348C87.9123 222.23 88.3598 222.171 88.809 222.174H168.503C172.265 222.143 175.312 226.306 175.312 231.418Z" fill="#64CDFF"/>
<path d="M220.235 175.047V212.048C220.235 214.288 219.087 216.111 217.666 216.119H196.067C194.646 216.119 193.498 214.296 193.498 212.048C193.498 211.681 193.528 211.315 193.589 210.954L200.247 173.125C200.566 171.31 201.63 170.087 202.816 170.155L217.757 170.975C219.14 171.059 220.235 172.859 220.235 175.047Z" fill="#2855AF"/>
<path opacity="0.1" d="M154.274 170.375H142.342L128.64 216.119H140.579L154.274 170.375Z" fill="white"/>
<path opacity="0.1" d="M163.563 170.375H157.863L144.168 216.119H149.86L163.563 170.375Z" fill="white"/>
<path d="M198.21 246.367V261.977H81.9912L82.052 246.367H198.21Z" fill="#072A50"/>
<path d="M182.022 246.367H171.276L151.949 257.715V261.977H198.21V246.367H182.022Z" fill="white"/>
<path d="M102.025 257.715V261.977H81.9912L82.052 246.367H82.7056L102.025 257.715Z" fill="white"/>
<path opacity="0.3" d="M224.02 268.905L223.139 152.775L207.179 152.016C203.196 151.818 198.598 156.444 197.435 161.807L185.868 222.143H181.361C176.3 222.143 172.834 225.827 172.842 229.739L172.91 268.92H224.02" fill="#2855AF"/>
<path d="M175.015 235.998C175.013 236.142 174.981 236.284 174.921 236.415C174.861 236.546 174.774 236.663 174.665 236.758C174.48 236.93 174.235 237.025 173.981 237.024H82.1201V234.958H174.004C174.179 234.958 174.351 235.003 174.504 235.088C174.657 235.173 174.786 235.295 174.878 235.444C174.974 235.612 175.022 235.804 175.015 235.998Z" fill="white"/>
<path d="M98.3234 234.965V237.031H82.0898L82.0974 234.965H98.3234Z" fill="#2855AF"/>
<path d="M175.015 235.998C175.013 236.142 174.981 236.284 174.921 236.415C174.861 236.546 174.774 236.663 174.665 236.758C174.48 236.93 174.235 237.025 173.981 237.024H151.698V234.958H173.981C174.156 234.958 174.328 235.003 174.481 235.088C174.634 235.173 174.763 235.295 174.855 235.444C174.959 235.61 175.015 235.802 175.015 235.998Z" fill="#2855AF"/>
<path d="M388.955 264.681V265.091C388.955 266.098 388.555 267.064 387.842 267.777C387.13 268.489 386.163 268.889 385.155 268.889H83.2834C82.2756 268.889 81.309 268.489 80.5964 267.777C79.8838 267.064 79.4834 266.098 79.4834 265.091V264.681C79.4834 263.674 79.8838 262.708 80.5964 261.995C81.309 261.283 82.2756 260.883 83.2834 260.883H385.155C386.163 260.883 387.13 261.283 387.842 261.995C388.555 262.708 388.955 263.674 388.955 264.681Z" fill="#2855AF"/>
<path d="M150.224 264.005H105.232V266.2H150.224V264.005Z" fill="#072A50"/>
<path d="M93.2629 265.099C93.2629 265.346 93.1895 265.588 93.0521 265.794C92.9146 266 92.7192 266.161 92.4905 266.256C92.2618 266.351 92.0101 266.376 91.767 266.328C91.524 266.281 91.3005 266.162 91.1249 265.988C90.9492 265.813 90.8292 265.59 90.7799 265.348C90.7307 265.105 90.7544 264.853 90.8482 264.624C90.9419 264.395 91.1015 264.199 91.3067 264.06C91.5119 263.922 91.7536 263.847 92.0013 263.845C92.1666 263.844 92.3305 263.876 92.4835 263.938C92.6365 264.001 92.7757 264.093 92.8929 264.21C93.0102 264.326 93.1032 264.465 93.1667 264.617C93.2302 264.77 93.2629 264.933 93.2629 265.099Z" fill="white"/>
<path d="M160.971 265.099C160.971 265.346 160.897 265.589 160.76 265.795C160.622 266.001 160.426 266.162 160.197 266.257C159.968 266.351 159.716 266.376 159.472 266.328C159.229 266.279 159.006 266.16 158.83 265.985C158.655 265.81 158.535 265.586 158.487 265.343C158.439 265.1 158.463 264.848 158.558 264.619C158.653 264.39 158.814 264.194 159.02 264.056C159.226 263.919 159.469 263.845 159.717 263.845C159.882 263.845 160.045 263.878 160.197 263.941C160.349 264.004 160.487 264.096 160.604 264.212C160.72 264.329 160.812 264.467 160.875 264.619C160.938 264.771 160.971 264.934 160.971 265.099Z" fill="white"/>
<path d="M197.328 277.541C197.328 265.456 202.808 255.657 209.572 255.657H196.584C189.827 255.657 184.348 265.456 184.348 277.541C184.348 289.626 189.827 299.418 196.584 299.418H209.572C202.808 299.441 197.328 289.649 197.328 277.541Z" fill="#072A50"/>
<path opacity="0.7" d="M197.328 277.541C197.328 265.456 202.808 255.657 209.572 255.657H196.584C189.827 255.657 184.348 265.456 184.348 277.541C184.348 289.626 189.827 299.418 196.584 299.418H209.572C202.808 299.441 197.328 289.649 197.328 277.541Z" fill="#2855AF"/>
<path d="M209.573 299.448C216.335 299.448 221.816 289.65 221.816 277.564C221.816 265.477 216.335 255.679 209.573 255.679C202.811 255.679 197.329 265.477 197.329 277.564C197.329 289.65 202.811 299.448 209.573 299.448Z" fill="#2855AF"/>
<path d="M210.552 294.625C215.346 294.625 219.231 286.986 219.231 277.564C219.231 268.141 215.346 260.503 210.552 260.503C205.759 260.503 201.873 268.141 201.873 277.564C201.873 286.986 205.759 294.625 210.552 294.625Z" fill="white"/>
<path d="M209.763 292.33C214.351 292.33 218.07 285.719 218.07 277.564C218.07 269.408 214.351 262.797 209.763 262.797C205.175 262.797 201.456 269.408 201.456 277.564C201.456 285.719 205.175 292.33 209.763 292.33Z" fill="#2855AF"/>
<path d="M207.938 288.343C211.287 288.343 214.003 283.517 214.003 277.564C214.003 271.611 211.287 266.785 207.938 266.785C204.588 266.785 201.873 271.611 201.873 277.564C201.873 283.517 204.588 288.343 207.938 288.343Z" fill="#072A50"/>
<path opacity="0.5" d="M388.956 264.681V265.091C388.956 266.098 388.555 267.064 387.843 267.777C387.13 268.489 386.163 268.889 385.156 268.889H231.56V260.883H385.156C386.163 260.883 387.13 261.283 387.843 261.995C388.555 262.708 388.956 263.674 388.956 264.681Z" fill="#072A50"/>
<path d="M341.22 277.541C341.22 265.456 346.699 255.657 353.456 255.657H340.475C333.711 255.657 328.231 265.456 328.231 277.541C328.231 289.626 333.711 299.418 340.475 299.418H353.441C346.699 299.441 341.22 289.649 341.22 277.541Z" fill="#072A50"/>
<path opacity="0.7" d="M341.22 277.541C341.22 265.456 346.699 255.657 353.456 255.657H340.475C333.711 255.657 328.231 265.456 328.231 277.541C328.231 289.626 333.711 299.418 340.475 299.418H353.441C346.699 299.441 341.22 289.649 341.22 277.541Z" fill="#2855AF"/>
<path d="M353.456 299.448C360.217 299.448 365.699 289.65 365.699 277.564C365.699 265.477 360.217 255.679 353.456 255.679C346.694 255.679 341.212 265.477 341.212 277.564C341.212 289.65 346.694 299.448 353.456 299.448Z" fill="#2855AF"/>
<path d="M354.444 294.625C359.237 294.625 363.123 286.986 363.123 277.564C363.123 268.141 359.237 260.503 354.444 260.503C349.65 260.503 345.765 268.141 345.765 277.564C345.765 286.986 349.65 294.625 354.444 294.625Z" fill="white"/>
<path d="M353.646 292.33C358.233 292.33 361.952 285.719 361.952 277.564C361.952 269.408 358.233 262.797 353.646 262.797C349.058 262.797 345.339 269.408 345.339 277.564C345.339 285.719 349.058 292.33 353.646 292.33Z" fill="#2855AF"/>
<path d="M351.822 288.343C355.171 288.343 357.886 283.517 357.886 277.564C357.886 271.611 355.171 266.785 351.822 266.785C348.472 266.785 345.757 271.611 345.757 277.564C345.757 283.517 348.472 288.343 351.822 288.343Z" fill="#072A50"/>
<path d="M303.933 170.489C303.781 173.414 303.515 176.239 303.082 179.118C302.708 182.092 302.057 185.024 301.137 187.877C300.846 188.707 300.483 189.511 300.05 190.277C299.748 190.794 299.381 191.269 298.955 191.69L298.743 191.887L298.621 191.978L298.56 192.032L298.302 192.206L297.793 192.563C296.502 193.391 295.144 194.11 293.734 194.713C291.058 195.889 288.277 196.809 285.427 197.463L284.439 194.759C286.856 193.422 289.334 192.054 291.591 190.634C292.694 189.957 293.755 189.214 294.768 188.408L295.102 188.127L295.269 187.983C295.269 187.983 295.338 187.869 295.421 187.687C295.643 187.195 295.826 186.687 295.969 186.167C296.312 184.918 296.584 183.65 296.782 182.369C297.017 181.048 297.207 179.703 297.367 178.336C297.679 175.624 297.945 172.844 298.127 170.14L303.933 170.489Z" fill="white"/>
<path d="M286.241 194.797L281.574 193.354L282.448 198.997C282.448 198.997 285.488 198.618 287.008 196.916L286.241 194.797Z" fill="white"/>
<path d="M276.157 196.904L276.157 196.904L276.156 196.901C276 196.459 276.022 195.974 276.216 195.547C276.41 195.12 276.762 194.785 277.197 194.612C277.198 194.611 277.198 194.611 277.198 194.611L279.521 193.7L280.312 198.775L278.212 198.869L278.21 198.869C277.82 198.889 277.434 198.783 277.111 198.565C276.787 198.347 276.543 198.031 276.415 197.663C276.415 197.662 276.415 197.662 276.414 197.662L276.157 196.904Z" fill="white" stroke="#2855AF" stroke-width="0.5"/>
<path d="M309.451 165.013C309.451 166.775 308.599 170.254 307.87 172.867C307.33 174.743 306.882 176.171 306.882 176.171L305.81 175.905L296.979 173.672C296.842 169.114 297.017 164.154 301.539 161.177C304.366 159.308 309.428 161.875 309.451 165.013Z" fill="#2855AF"/>
<path opacity="0.3" d="M309.444 165.316C308.866 164.708 307.559 164.602 304.709 165.506C300.628 166.797 299.488 171.264 299.435 174.295L305.811 175.905L306.358 176.049L306.883 176.171C306.883 176.171 307.103 175.457 307.422 174.371C307.551 173.93 307.711 173.414 307.863 172.851C308.624 170.394 309.153 167.872 309.444 165.316Z" fill="#072A50"/>
<path d="M294.401 295.314L291.158 306.493L286.243 304.774L289.493 293.588L294.401 295.314Z" fill="white" stroke="#2855AF" stroke-width="0.5"/>
<path d="M354.319 284.229L362.94 292.963L358.96 295.927L350.339 287.194L354.319 284.229Z" fill="white" stroke="#2855AF" stroke-width="0.5"/>
<path d="M357.141 294.928L361.876 291.016C361.956 290.947 362.059 290.909 362.165 290.909C362.271 290.909 362.373 290.947 362.454 291.016L366.086 294.313C366.168 294.394 366.233 294.491 366.277 294.597C366.321 294.703 366.344 294.817 366.344 294.932C366.344 295.047 366.321 295.161 366.277 295.267C366.233 295.374 366.168 295.47 366.086 295.551L366.01 295.62C364.338 296.957 363.457 297.519 361.374 299.235C360.098 300.291 357.415 302.821 355.644 304.279C353.873 305.738 352.338 304.074 352.946 303.307C355.659 299.873 356.29 297.61 356.609 295.756C356.686 295.427 356.874 295.135 357.141 294.928Z" fill="#2855AF"/>
<path d="M285.572 303.246L291.56 305.745C291.667 305.792 291.756 305.872 291.814 305.973C291.871 306.074 291.894 306.192 291.88 306.307L291.203 311.586C291.177 311.798 291.067 311.99 290.899 312.121C290.731 312.252 290.518 312.311 290.306 312.285C290.228 312.277 290.151 312.257 290.078 312.225C287.958 311.366 286.962 310.941 284.333 309.839L276.262 306.459C274.073 305.54 274.544 303.14 275.502 303.314C279.932 304.119 282.79 303.854 284.538 303.193C284.705 303.133 284.883 303.107 285.06 303.116C285.238 303.125 285.411 303.169 285.572 303.246Z" fill="#2855AF"/>
<path opacity="0.2" d="M289.326 293.272L287.586 299.281L292.83 301.651L294.715 295.156L289.326 293.272Z" fill="#072A50"/>
<path opacity="0.2" d="M354.352 283.899L349.959 287.165L354.587 291.852L358.973 288.586L354.352 283.899Z" fill="#072A50"/>
<path d="M326.019 193.528L303.827 193.847C300.787 176.672 300.027 168.476 300.027 164.534C300.023 163.55 300.363 162.597 300.987 161.837C301.612 161.077 302.482 160.558 303.447 160.371C304.8 160.105 306.487 159.801 308.182 159.566C308.76 159.49 309.345 159.414 309.923 159.353C313.274 159.066 316.642 159.018 320 159.209C320.502 159.209 320.996 159.254 321.52 159.285C323.8 159.429 325.883 159.718 327.365 159.946C327.898 160.031 328.375 160.325 328.691 160.763C329.007 161.2 329.137 161.745 329.052 162.278C329.055 162.316 329.055 162.354 329.052 162.392C328.398 165.43 327.866 168.127 327.441 170.527C326.764 174.325 326.339 177.424 326.088 180.128C325.708 184.586 325.685 189.067 326.019 193.528Z" fill="#2855AF"/>
<path opacity="0.1" d="M326.079 180.151C324.962 176.801 325.023 169.851 326.223 167.603L327.447 170.542C326.755 174.363 326.33 177.447 326.079 180.151Z" fill="#072A50"/>
<path d="M303.826 193.847C303.826 193.847 300.026 226.138 296.599 246.26C293.885 262.014 287.03 294.807 287.03 294.807L295.93 297.959C295.93 297.959 306.121 263.777 307.907 249.177C315.089 228.128 320.257 193.688 320.257 193.688L303.826 193.847Z" fill="#64CDFF"/>
<path d="M285.586 297.01L295.884 300.633L297.26 297.329L286.088 293.06L285.586 297.01Z" fill="#2855AF"/>
<path opacity="0.1" d="M315.075 203.441L311.747 209.814C310.531 214.615 310.819 226.298 312.362 233.681C315.129 222.553 317.34 210.839 318.716 202.978L315.075 203.441Z" fill="#072A50"/>
<path d="M308.646 193.847C308.646 193.847 312.62 229.989 320.046 250.058C323.77 260.123 351.396 289.96 351.396 289.96L357.628 284.977C357.628 284.977 340.11 254.874 332.449 246.997C329.325 229.526 333.254 203.335 325.996 193.536L308.646 193.847Z" fill="#64CDFF"/>
<path d="M351.92 292.095L359.231 286.109L357.255 282.866L349.252 289.831L351.92 292.095Z" fill="#2855AF"/>
<path d="M326.368 192.229L327.394 194.196C327.47 194.348 327.295 194.515 327.037 194.515L303.751 194.85C303.545 194.85 303.386 194.751 303.363 194.629L303.143 192.647C303.143 192.51 303.302 192.388 303.515 192.388L325.996 192.062C326.067 192.058 326.138 192.071 326.202 192.1C326.267 192.129 326.324 192.173 326.368 192.229Z" fill="#2855AF"/>
<path d="M323.351 194.797H323.966C324.08 194.797 324.172 194.728 324.164 194.66L323.837 192.077C323.837 192.001 323.731 191.948 323.609 191.948H323.039C322.918 191.948 322.826 192.017 322.842 192.085L323.161 194.66C323.123 194.721 323.237 194.797 323.351 194.797Z" fill="#64CDFF"/>
<path d="M305.422 195.04H306.03C306.152 195.04 306.235 194.971 306.228 194.895L305.916 192.32C305.916 192.244 305.795 192.184 305.673 192.184H305.065C304.943 192.184 304.852 192.252 304.86 192.328L305.179 194.903C305.194 194.979 305.301 195.04 305.422 195.04Z" fill="#64CDFF"/>
<path d="M314.391 194.895H314.999C315.12 194.895 315.212 194.827 315.204 194.751L314.885 192.176C314.885 192.092 314.771 192.032 314.649 192.039H314.041C313.92 192.039 313.836 192.108 313.836 192.184L314.155 194.759C314.148 194.85 314.269 194.895 314.391 194.895Z" fill="#64CDFF"/>
<path d="M274.126 171.112L307.064 166.593L311.624 198.914L279.279 203.35L274.126 171.112Z" fill="#64CDFF"/>
<path opacity="0.8" d="M274.126 171.112L307.064 166.593L311.624 198.914L279.279 203.35L274.126 171.112Z" fill="white"/>
<path opacity="0.2" d="M307.516 165.032L298.721 166.275L303.438 199.619L312.234 198.376L307.516 165.032Z" fill="#64CDFF"/>
<path d="M330.54 187.802C330.511 187.056 330.431 186.314 330.302 185.579C330.179 184.814 330.011 183.959 329.828 183.121L329.828 183.121L329.827 183.117C329.446 181.488 329.02 179.821 328.54 178.152L328.54 178.152C327.611 174.932 326.568 171.661 325.522 168.504L330.594 166.793C331.78 170.128 332.807 173.463 333.681 176.871L333.681 176.872C334.137 178.624 334.561 180.38 334.901 182.172C335.068 183.079 335.211 183.999 335.316 184.956L335.316 184.956L335.317 184.959C335.437 185.954 335.48 186.957 335.444 187.958L335.444 187.959C335.424 188.598 335.325 189.232 335.151 189.847C334.912 190.593 334.514 191.278 333.983 191.854C333.192 192.701 332.251 193.396 331.207 193.903C329.471 194.745 327.643 195.383 325.759 195.806L325.758 195.806C322.292 196.61 318.758 197.09 315.204 197.241L314.903 194.828C316.501 194.446 318.13 194.023 319.718 193.579C321.379 193.114 323.033 192.596 324.621 192.016C326.145 191.492 327.615 190.822 329.01 190.014L329.011 190.014C329.537 189.706 330.007 189.31 330.399 188.842L330.408 188.83L330.417 188.818C330.468 188.738 330.506 188.671 330.526 188.616C330.534 188.594 330.553 188.54 330.547 188.475C330.546 188.468 330.545 188.461 330.543 188.453C330.556 188.236 330.555 188.019 330.54 187.802ZM330.54 187.802C330.54 187.803 330.54 187.805 330.54 187.806L330.291 187.815L330.54 187.799C330.54 187.8 330.54 187.801 330.54 187.802Z" fill="white" stroke="#2855AF" stroke-width="0.5"/>
<path d="M312.311 198.502L312.289 198.504L309.898 198.459C309.515 198.447 309.146 198.311 308.847 198.071C308.548 197.831 308.336 197.5 308.242 197.128L308.242 197.128L308.241 197.124L307.884 195.804C307.884 195.804 307.884 195.804 307.884 195.803C307.863 195.723 307.847 195.641 307.837 195.559C307.814 195.328 307.836 195.094 307.902 194.872C307.969 194.649 308.079 194.441 308.226 194.26C308.374 194.08 308.555 193.93 308.76 193.82C308.966 193.709 309.191 193.641 309.423 193.617L309.423 193.617L309.426 193.617L311.857 193.343L316.195 195.029L316.688 196.933C315.924 197.62 314.865 198.014 313.958 198.237C313.487 198.352 313.066 198.419 312.762 198.457C312.611 198.476 312.489 198.488 312.406 198.495C312.364 198.499 312.332 198.501 312.311 198.502Z" fill="white" stroke="#2855AF" stroke-width="0.5"/>
<path d="M328.154 160.113C330.708 161.153 332.798 169.539 332.798 169.539L325.745 175.046C325.745 175.046 320.744 167.222 321.763 163.827C322.629 160.956 324.902 158.798 328.154 160.113Z" fill="#2855AF"/>
<path d="M355.416 297.299H355.324C355.197 297.291 355.074 297.25 354.966 297.181C354.858 297.112 354.77 297.016 354.709 296.904C354.664 296.839 354.636 296.764 354.63 296.685C354.623 296.606 354.637 296.527 354.671 296.456C354.982 295.848 356.951 295.605 357.164 295.582C357.189 295.577 357.215 295.58 357.238 295.591C357.261 295.602 357.28 295.62 357.293 295.643C357.307 295.664 357.315 295.689 357.315 295.715C357.315 295.74 357.307 295.766 357.293 295.787C356.882 296.342 356.084 297.254 355.416 297.299ZM356.898 295.878C356.138 295.992 355.066 296.243 354.914 296.577C354.896 296.606 354.886 296.639 354.886 296.672C354.886 296.706 354.896 296.739 354.914 296.767C354.95 296.845 355.006 296.912 355.077 296.96C355.148 297.008 355.231 297.036 355.317 297.041C355.697 297.041 356.305 296.631 356.913 295.878H356.898Z" fill="#2855AF"/>
<path d="M357.071 295.825C356.41 295.825 355.088 295.59 354.791 295.065C354.744 294.975 354.729 294.87 354.748 294.77C354.768 294.669 354.82 294.578 354.898 294.511C354.965 294.437 355.047 294.379 355.139 294.341C355.231 294.303 355.33 294.286 355.43 294.29C356.228 294.29 357.239 295.514 357.269 295.582C357.281 295.6 357.287 295.622 357.287 295.643C357.287 295.665 357.281 295.686 357.269 295.704C357.263 295.726 357.25 295.746 357.233 295.761C357.215 295.776 357.193 295.785 357.17 295.787L357.071 295.825ZM355.384 294.564C355.277 294.574 355.177 294.623 355.103 294.701C354.989 294.822 355.012 294.898 355.042 294.959C355.217 295.293 356.258 295.567 356.927 295.567C356.546 295.089 356.029 294.736 355.445 294.556L355.384 294.564Z" fill="#2855AF"/>
<path d="M282.51 303.124C282.087 302.986 281.718 302.721 281.453 302.364C281.393 302.259 281.356 302.142 281.346 302.022C281.335 301.901 281.351 301.78 281.392 301.666C281.413 301.6 281.451 301.541 281.501 301.494C281.552 301.448 281.614 301.415 281.681 301.4C282.38 301.271 284.03 303.041 284.349 303.398C284.364 303.42 284.372 303.446 284.372 303.474C284.372 303.501 284.364 303.527 284.349 303.549C284.336 303.573 284.316 303.592 284.291 303.603C284.266 303.614 284.238 303.617 284.212 303.61C283.63 303.506 283.059 303.343 282.51 303.124ZM281.985 301.696C281.907 301.658 281.821 301.643 281.734 301.65C281.734 301.65 281.666 301.65 281.636 301.742C281.605 301.821 281.593 301.906 281.601 301.99C281.609 302.074 281.636 302.156 281.681 302.228C281.917 302.638 282.73 303.025 283.885 303.276C283.343 302.654 282.707 302.121 282 301.696H281.985Z" fill="#2855AF"/>
<path d="M284.203 303.595H284.158C283.603 303.041 282.698 301.377 283.01 300.846C283.078 300.732 283.223 300.61 283.55 300.701C284.773 301.058 284.401 303.428 284.378 303.527C284.378 303.552 284.369 303.576 284.352 303.594C284.335 303.613 284.312 303.624 284.287 303.626C284.271 303.629 284.255 303.628 284.241 303.623C284.226 303.617 284.213 303.608 284.203 303.595ZM283.595 300.944H283.519C283.398 300.906 283.306 300.944 283.276 300.944C283.094 301.256 283.679 302.509 284.211 303.178C284.203 302.593 284.279 301.248 283.595 300.944Z" fill="#2855AF"/>
<path d="M307.14 136.481C307.14 136.481 304.1 141.563 306.38 143.789C308.66 146.015 309.329 138.122 309.329 138.122L307.14 136.481Z" fill="#2855AF"/>
<path d="M321.261 148.407C321.261 148.407 325.061 142.467 323.48 136.565C321.899 130.663 314.512 134.476 311.396 132.858C310.254 132.165 309.038 131.601 307.771 131.179C307.567 131.119 307.352 131.106 307.142 131.142C306.933 131.177 306.734 131.26 306.562 131.384C305.802 132.053 307.125 133.306 307.535 133.777C307.282 133.485 306.991 133.23 306.669 133.018C306.266 132.752 305.726 132.729 305.909 133.405C306.221 134.131 306.781 134.724 307.489 135.076C307.193 134.909 305.437 134.02 305.316 134.575C305.301 134.709 305.336 134.845 305.415 134.955C306.555 137.082 308.85 139.755 311.495 139.809C314.679 139.854 317.719 148.81 321.261 148.407Z" fill="#2855AF"/>
<path d="M317.419 139.587C317.338 142.437 317.953 144.421 318.611 145.71C318.953 146.379 319.305 146.859 319.575 147.174C319.709 147.331 319.823 147.447 319.905 147.524C319.946 147.563 319.979 147.593 320.002 147.613C320.014 147.623 320.023 147.631 320.03 147.636L320.038 147.643L320.04 147.645L320.041 147.645L320.042 147.646C320.042 147.646 320.042 147.646 320.197 147.45L320.042 147.646L320.207 147.776L320.363 147.636C320.776 147.268 321.337 147.117 321.744 147.243C321.939 147.304 322.106 147.429 322.219 147.641C322.334 147.858 322.402 148.182 322.357 148.649C322.273 149.501 321.603 149.956 320.865 150.202C320.501 150.323 320.14 150.386 319.869 150.418C319.733 150.434 319.621 150.442 319.544 150.446C319.505 150.449 319.475 150.45 319.455 150.45L319.433 150.451L319.428 150.451L319.427 150.451L319.427 150.451H319.427H319.427L319.263 150.452L319.199 150.603C318.731 151.706 317.951 152.65 316.957 153.319L316.856 153.387L316.847 153.508C316.754 154.737 316.795 155.973 316.97 157.193L316.972 157.208L316.976 157.222C317.231 158.184 317.526 158.851 317.872 159.337C318.14 159.715 318.434 159.975 318.748 160.179L318.365 160.558C317.187 161.231 315.859 161.598 314.502 161.625H313.541L312.654 161.326L312.652 161.326C311.192 160.848 310.695 160.139 310.534 159.599C310.451 159.321 310.45 159.07 310.471 158.888C310.482 158.798 310.497 158.725 310.51 158.677C310.516 158.653 310.521 158.635 310.525 158.624L310.528 158.613C311.103 157.17 311.134 155.567 310.613 154.104L310.571 153.986L310.452 153.949C309.055 153.513 308.078 152.693 307.395 151.466C306.705 150.229 306.309 148.567 306.105 146.446C305.904 144.362 306.39 142.312 306.933 140.774C307.204 140.007 307.488 139.372 307.703 138.929C307.784 138.761 307.856 138.622 307.914 138.513C309.631 139.985 312.044 140.236 314.015 140.127C315.054 140.07 315.988 139.911 316.661 139.768C316.974 139.701 317.232 139.637 317.419 139.587Z" fill="white" stroke="#2855AF" stroke-width="0.5"/>
<path d="M311.997 149.221C312.782 149.001 313.46 148.504 313.905 147.822C313.941 147.769 313.955 147.703 313.943 147.639C313.932 147.575 313.897 147.519 313.844 147.48C313.818 147.461 313.789 147.447 313.758 147.44C313.726 147.432 313.694 147.431 313.662 147.436C313.63 147.44 313.6 147.452 313.572 147.469C313.545 147.485 313.521 147.507 313.502 147.534C313.246 147.995 312.848 148.361 312.368 148.58C311.888 148.799 311.351 148.858 310.835 148.75C310.773 148.731 310.707 148.737 310.65 148.767C310.593 148.796 310.55 148.848 310.531 148.909C310.511 148.972 310.517 149.039 310.547 149.097C310.577 149.156 310.628 149.2 310.69 149.221C311.119 149.333 311.569 149.333 311.997 149.221Z" fill="#2855AF"/>
<path d="M312.863 143.994C312.863 144.382 312.711 144.716 312.452 144.754C312.194 144.792 311.958 144.473 311.928 144.086C311.898 143.698 312.088 143.326 312.346 143.326C312.604 143.326 312.832 143.599 312.863 143.994Z" fill="#2855AF"/>
<path d="M308.212 143.796C308.212 144.184 308.06 144.518 307.801 144.556C307.543 144.594 307.315 144.275 307.285 143.888C307.254 143.5 307.437 143.166 307.695 143.128C307.953 143.09 308.189 143.401 308.212 143.796Z" fill="#2855AF"/>
<path d="M308.055 147.106L309.343 144.924L309.392 147.513C309.154 147.544 308.911 147.524 308.681 147.454C308.45 147.384 308.237 147.265 308.055 147.106Z" fill="#2855AF" stroke="#2855AF" stroke-width="0.1"/>
<path d="M314.983 141.625C315.017 141.616 315.048 141.6 315.075 141.579C315.112 141.557 315.144 141.528 315.17 141.494C315.195 141.459 315.214 141.42 315.224 141.378C315.233 141.336 315.235 141.292 315.228 141.25C315.22 141.207 315.204 141.167 315.181 141.131C314.928 140.707 314.561 140.362 314.121 140.136C313.682 139.91 313.188 139.813 312.696 139.854C312.653 139.859 312.612 139.872 312.574 139.893C312.537 139.914 312.504 139.942 312.478 139.976C312.451 140.01 312.432 140.05 312.421 140.091C312.411 140.133 312.408 140.176 312.415 140.219C312.426 140.304 312.471 140.382 312.539 140.435C312.607 140.487 312.694 140.511 312.779 140.5C313.147 140.477 313.514 140.556 313.839 140.727C314.165 140.899 314.437 141.157 314.626 141.473C314.662 141.533 314.716 141.58 314.78 141.608C314.844 141.635 314.916 141.641 314.983 141.625Z" fill="#2855AF"/>
<path d="M306.737 141.313C306.823 141.291 306.896 141.236 306.943 141.161C307.079 140.955 307.272 140.793 307.499 140.694C307.725 140.596 307.976 140.565 308.219 140.606C308.261 140.615 308.305 140.615 308.347 140.607C308.389 140.599 308.429 140.582 308.464 140.558C308.5 140.534 308.53 140.503 308.553 140.467C308.577 140.431 308.592 140.39 308.599 140.348C308.615 140.263 308.597 140.176 308.548 140.105C308.5 140.034 308.426 139.984 308.341 139.968C307.965 139.898 307.577 139.944 307.227 140.098C306.877 140.253 306.582 140.509 306.38 140.834C306.338 140.909 306.326 140.998 306.347 141.081C306.368 141.165 306.421 141.237 306.494 141.283C306.569 141.322 306.655 141.333 306.737 141.313Z" fill="#2855AF"/>
<path d="M320.395 160.394L318.761 161.989L315.85 164.845L314.756 163.106L313.669 161.389L317.469 156.862L320.235 160.204L320.395 160.394Z" fill="#64CDFF"/>
<path d="M313.669 161.389L312.825 162.794L311.587 164.845L308.744 159.718L310.561 157.583L313.669 161.389Z" fill="#64CDFF"/>
<g filter="url(#filter0_d)">
<circle cx="53.5" cy="189.5" r="13.5" fill="url(#paint0_radial)"/>
</g>
<g filter="url(#filter1_d)">
<circle cx="194" cy="59" r="29" fill="url(#paint1_radial)"/>
</g>
<defs>
<filter id="filter0_d" x="0" y="146" width="107" height="107" filterUnits="userSpaceOnUse" color-interpolation-filters="sRGB">
<feFlood flood-opacity="0" result="BackgroundImageFix"/>
<feColorMatrix in="SourceAlpha" type="matrix" values="0 0 0 0 0 0 0 0 0 0 0 0 0 0 0 0 0 0 127 0"/>
<feOffset dy="10"/>
<feGaussianBlur stdDeviation="20"/>
<feColorMatrix type="matrix" values="0 0 0 0 0.156863 0 0 0 0 0.333333 0 0 0 0 0.686275 0 0 0 0.1 0"/>
<feBlend mode="normal" in2="BackgroundImageFix" result="effect1_dropShadow"/>
<feBlend mode="normal" in="SourceGraphic" in2="effect1_dropShadow" result="shape"/>
</filter>
<filter id="filter1_d" x="125" y="0" width="138" height="138" filterUnits="userSpaceOnUse" color-interpolation-filters="sRGB">
<feFlood flood-opacity="0" result="BackgroundImageFix"/>
<feColorMatrix in="SourceAlpha" type="matrix" values="0 0 0 0 0 0 0 0 0 0 0 0 0 0 0 0 0 0 127 0"/>
<feOffset dy="10"/>
<feGaussianBlur stdDeviation="20"/>
<feColorMatrix type="matrix" values="0 0 0 0 0.156863 0 0 0 0 0.333333 0 0 0 0 0.686275 0 0 0 0.1 0"/>
<feBlend mode="normal" in2="BackgroundImageFix" result="effect1_dropShadow"/>
<feBlend mode="normal" in="SourceGraphic" in2="effect1_dropShadow" result="shape"/>
</filter>
<radialGradient id="paint0_radial" cx="0" cy="0" r="1" gradientUnits="userSpaceOnUse" gradientTransform="translate(48.9896 181.701) rotate(52.2481) scale(17.9061)">
<stop stop-color="#8AAEF4"/>
<stop offset="1" stop-color="#2855AF"/>
</radialGradient>
<radialGradient id="paint1_radial" cx="0" cy="0" r="1" gradientUnits="userSpaceOnUse" gradientTransform="translate(184.311 42.2459) rotate(52.2481) scale(38.4649)">
<stop stop-color="#8AAEF4"/>
<stop offset="1" stop-color="#2855AF"/>
</radialGradient>
</defs>
</svg>
