<svg width="397" height="338" viewBox="0 0 397 338" fill="none" xmlns="http://www.w3.org/2000/svg">
<path d="M262 244.046C173.098 292.49 -25.3681 140.361 101.768 85.7293C150.419 64.8172 218.589 78.6981 262.449 116.9C311.297 159.458 318.145 213.451 262 244.046Z" fill="white"/>
<path opacity="0.9" d="M262 244.046C173.098 292.49 -25.3681 140.361 101.768 85.7293C150.419 64.8172 218.589 78.6981 262.449 116.9C311.297 159.458 318.145 213.451 262 244.046Z" fill="white"/>
<path d="M200 338C284.381 338 352.785 334 352.785 329.067C352.785 324.133 284.381 320.134 200 320.134C115.619 320.134 47.2148 324.133 47.2148 329.067C47.2148 334 115.619 338 200 338Z" fill="#F5F5F5"/>
<path d="M300.281 329.067H218.077C216.718 329.074 215.371 328.804 214.119 328.274C212.867 327.743 211.736 326.964 210.794 325.982C209.852 325.001 209.12 323.838 208.64 322.564C208.161 321.29 207.945 319.932 208.006 318.572L217.178 81.5C217.319 78.6924 218.522 76.0439 220.544 74.0939C222.566 72.1439 225.254 71.0391 228.061 71.0045H310.265C311.624 70.9989 312.97 71.2697 314.221 71.8004C315.473 72.3312 316.603 73.1108 317.545 74.0921C318.487 75.0735 319.219 76.236 319.699 77.5094C320.179 78.7827 320.395 80.1403 320.336 81.5L311.163 318.572C311.023 321.379 309.82 324.028 307.798 325.978C305.776 327.928 303.088 329.033 300.281 329.067Z" fill="#2855AF"/>
<path d="M208.857 95.507H208.069L208.621 81.4209C208.786 77.9002 210.29 74.5763 212.825 72.1315C215.361 69.6866 218.734 68.3063 222.253 68.2739V69.0631C218.938 69.0956 215.76 70.3971 213.372 72.7007C210.984 75.0043 209.566 78.1356 209.409 81.4525L208.857 95.507Z" fill="#64CDFF"/>
<path d="M234.538 68.2422H227.84V69.0313H234.538V68.2422Z" fill="#64CDFF"/>
<path d="M294.473 329.067H212.269C210.91 329.074 209.563 328.804 208.312 328.274C207.06 327.743 205.928 326.964 204.987 325.982C204.045 325.001 203.312 323.838 202.833 322.564C202.353 321.29 202.138 319.932 202.199 318.572L211.371 81.5C211.511 78.6924 212.715 76.0439 214.736 74.0939C216.758 72.1439 219.446 71.0391 222.253 71.0045H304.457C305.816 70.9989 307.162 71.2697 308.414 71.8004C309.665 72.3312 310.796 73.1108 311.737 74.0921C312.679 75.0735 313.412 76.236 313.891 77.5094C314.371 78.7827 314.588 80.1403 314.528 81.5L305.356 318.572C305.215 321.379 304.012 324.028 301.99 325.978C299.968 327.928 297.28 329.033 294.473 329.067Z" fill="#64CDFF"/>
<path opacity="0.8" d="M297.09 301.794H211.765C211.005 301.799 210.252 301.65 209.551 301.354C208.851 301.058 208.218 300.623 207.691 300.074C207.164 299.526 206.753 298.876 206.485 298.163C206.217 297.451 206.096 296.692 206.131 295.931L214.089 90.2511C214.166 88.6792 214.839 87.1958 215.971 86.1045C217.103 85.0131 218.609 84.3962 220.181 84.38H305.497C306.258 84.376 307.011 84.5269 307.712 84.8235C308.412 85.1201 309.045 85.5562 309.572 86.1053C310.099 86.6544 310.509 87.3051 310.777 88.0178C311.045 88.7305 311.166 89.4903 311.132 90.2511L303.173 295.931C303.097 297.501 302.424 298.982 301.294 300.072C300.163 301.162 298.659 301.778 297.09 301.794Z" fill="white"/>
<path opacity="0.4" d="M260.865 301.794H239.589L275.474 84.3799H296.75L260.865 301.794Z" fill="white"/>
<path opacity="0.4" d="M235.846 301.794H225.208L261.094 84.3799H271.732L235.846 301.794Z" fill="white"/>
<path d="M274.553 238.221H232.6C230.661 238.221 229.125 236.099 229.038 233.305L227.848 194.298C227.754 191.086 229.598 188.301 231.828 188.301H279.108C281.338 188.301 282.969 191.086 282.63 194.298L278.485 233.305C278.186 236.099 276.484 238.221 274.553 238.221Z" fill="#64CDFF"/>
<path d="M274.553 239.706H232.6C229.834 239.706 227.675 236.967 227.565 233.353L226.375 194.346C226.26 192.144 227.019 189.985 228.486 188.341C228.913 187.876 229.429 187.502 230.003 187.242C230.577 186.982 231.198 186.84 231.828 186.826H279.108C279.736 186.841 280.353 186.989 280.92 187.261C281.486 187.533 281.989 187.923 282.394 188.404C283.077 189.248 283.581 190.223 283.874 191.27C284.166 192.316 284.242 193.411 284.096 194.488L279.951 233.495C279.588 237.015 277.224 239.706 274.553 239.706ZM231.828 189.777C231.593 189.795 231.364 189.86 231.155 189.967C230.945 190.074 230.759 190.221 230.606 190.4C229.697 191.469 229.236 192.85 229.322 194.251L230.512 233.258C230.567 235.184 231.505 236.746 232.6 236.746H274.553C275.554 236.746 276.791 235.302 277.019 233.148L281.164 194.141C281.263 193.477 281.229 192.801 281.064 192.15C280.899 191.5 280.606 190.889 280.203 190.353C280.074 190.183 279.909 190.042 279.719 189.943C279.53 189.843 279.321 189.787 279.108 189.777H231.828Z" fill="#64CDFF"/>
<path d="M278.485 234.781H278.327C278.135 234.761 277.948 234.702 277.778 234.609C277.608 234.516 277.458 234.391 277.337 234.24C277.215 234.089 277.125 233.915 277.07 233.729C277.016 233.543 276.998 233.348 277.019 233.156L281.574 190.282C282.283 183.582 286.499 178.532 291.377 178.532H294.56C294.951 178.532 295.326 178.687 295.602 178.964C295.878 179.241 296.034 179.616 296.034 180.007C296.034 180.399 295.878 180.774 295.602 181.051C295.326 181.328 294.951 181.483 294.56 181.483H291.408C288.099 181.483 285.104 185.484 284.537 190.598L279.982 233.471C279.943 233.838 279.767 234.177 279.489 234.419C279.212 234.662 278.853 234.791 278.485 234.781Z" fill="#64CDFF"/>
<path d="M241.228 252.734C240.408 252.72 239.6 252.538 238.853 252.198C238.106 251.859 237.437 251.37 236.886 250.761C234.963 248.757 233.892 245.482 234.018 242.002C234.246 236.107 237.816 231.317 241.984 231.317C242.805 231.329 243.614 231.511 244.361 231.85C245.108 232.189 245.777 232.68 246.326 233.29C248.249 235.294 249.321 238.569 249.195 242.049C248.966 247.944 245.397 252.734 241.228 252.734ZM242.016 232.603C238.533 232.603 235.531 236.841 235.334 242.073C235.216 245.229 236.122 248.133 237.847 249.893C238.278 250.376 238.803 250.765 239.39 251.036C239.977 251.308 240.613 251.456 241.26 251.471C244.742 251.471 247.745 247.234 247.942 242.002C248.06 238.845 247.154 235.941 245.428 234.181C244.994 233.695 244.464 233.304 243.871 233.032C243.278 232.76 242.636 232.614 241.984 232.603H242.016Z" fill="#64CDFF"/>
<path d="M264.151 252.734C263.332 252.72 262.525 252.537 261.78 252.198C261.034 251.859 260.366 251.37 259.817 250.761C257.886 248.757 256.815 245.482 256.949 242.002C257.169 236.107 260.747 231.317 264.915 231.317C265.735 231.329 266.542 231.511 267.288 231.85C268.034 232.19 268.702 232.68 269.249 233.29C271.18 235.294 272.252 238.569 272.118 242.049C271.897 247.944 268.32 252.734 264.151 252.734ZM264.939 232.603C261.448 232.603 258.454 236.841 258.257 242.073C258.139 245.229 259.045 248.133 260.763 249.893C261.193 250.376 261.718 250.765 262.305 251.036C262.892 251.308 263.528 251.456 264.175 251.471C267.666 251.471 270.66 247.234 270.857 242.002C270.975 238.845 270.069 235.941 268.351 234.181C267.918 233.696 267.389 233.305 266.798 233.034C266.206 232.762 265.566 232.615 264.915 232.603H264.939Z" fill="#64CDFF"/>
<path d="M273.733 149.944C274.726 136.199 267.864 124.501 258.406 123.815C248.948 123.13 240.475 133.716 239.481 147.461C238.488 161.206 245.35 172.904 254.808 173.59C264.267 174.276 272.739 163.689 273.733 149.944Z" fill="#64CDFF"/>
<path d="M255.673 175.115C253.66 175.081 251.675 174.632 249.842 173.798C248.009 172.963 246.368 171.759 245.019 170.262C240.291 165.322 237.628 157.241 237.927 148.663C238.479 134.135 247.273 122.322 257.533 122.322C259.545 122.353 261.53 122.8 263.363 123.634C265.196 124.467 266.838 125.67 268.186 127.167C272.914 132.115 275.586 140.188 275.278 148.774C274.727 163.294 265.933 175.115 255.673 175.115ZM257.525 125.281C248.857 125.281 241.355 135.824 240.866 148.781C240.567 156.578 242.907 163.846 247.115 168.226C248.192 169.432 249.504 170.404 250.97 171.083C252.437 171.762 254.026 172.132 255.641 172.171C264.309 172.171 271.811 161.629 272.3 148.671C272.599 140.874 270.267 133.606 266.059 129.227C264.981 128.019 263.668 127.046 262.2 126.368C260.732 125.689 259.141 125.319 257.525 125.281Z" fill="white"/>
<path d="M244.916 148.166C244.916 148.166 251.456 154.479 254.104 162.591C256.389 156.278 259.801 147.432 267.926 137.528C258.099 144.062 254.356 152.261 254.356 152.261C251.618 150.098 248.365 148.686 244.916 148.166Z" fill="white"/>
<path d="M253.671 321.72C252.976 321.715 252.289 321.565 251.655 321.282C251.02 320.998 250.451 320.586 249.983 320.071C249.236 319.233 248.663 318.254 248.299 317.192C247.935 316.129 247.787 315.005 247.863 313.884C248.037 309.576 250.897 306.072 254.246 306.072C254.941 306.08 255.628 306.231 256.262 306.516C256.897 306.801 257.466 307.214 257.934 307.729C258.677 308.563 259.246 309.537 259.609 310.594C259.971 311.65 260.12 312.769 260.046 313.884C259.888 318.217 257.02 321.72 253.671 321.72ZM254.246 306.908C251.338 306.908 248.848 310.065 248.73 313.916C248.657 314.923 248.786 315.935 249.11 316.892C249.433 317.849 249.944 318.731 250.613 319.487C251.004 319.92 251.481 320.268 252.012 320.509C252.544 320.749 253.119 320.877 253.702 320.884C256.61 320.884 259.1 317.727 259.218 313.884C259.291 312.876 259.162 311.862 258.839 310.904C258.515 309.946 258.004 309.062 257.335 308.305C256.944 307.872 256.468 307.524 255.936 307.283C255.405 307.043 254.829 306.915 254.246 306.908Z" fill="white"/>
<path d="M262.993 80.7896C262.671 80.7813 262.354 80.707 262.061 80.5713C261.768 80.4356 261.506 80.2413 261.291 80.0005C260.96 79.6298 260.707 79.1966 260.546 78.7263C260.385 78.256 260.319 77.7582 260.354 77.2622C260.424 75.3524 261.717 73.7979 263.23 73.7979C263.552 73.8061 263.87 73.8804 264.162 74.0161C264.455 74.1518 264.717 74.3461 264.932 74.587C265.264 74.9568 265.52 75.3897 265.682 75.8601C265.844 76.3304 265.911 76.8287 265.877 77.3253C265.806 79.235 264.506 80.7896 262.993 80.7896ZM263.23 74.6659C262.158 74.6659 261.236 75.8575 261.181 77.3253C261.13 78.0987 261.385 78.8612 261.89 79.4481C262.029 79.6039 262.199 79.7292 262.389 79.8161C262.579 79.9031 262.785 79.9497 262.993 79.9531C264.065 79.9531 264.987 78.7615 265.042 77.2937C265.097 76.5174 264.842 75.7511 264.333 75.1631C264.193 75.009 264.023 74.8854 263.833 74.7999C263.643 74.7144 263.438 74.6688 263.23 74.6659Z" fill="white"/>
<path d="M151.696 98.6472C142.674 97.4399 137.796 102.916 140.365 112.852C142.784 122.211 138.103 120.964 137.213 129.826C136.322 138.688 143.619 139.051 145.991 146.287C148.363 153.524 161.468 161.746 166.59 158.038C171.712 154.329 181.877 155.181 182.807 142.933C183.736 130.686 174.06 130.023 177.377 123.331C181.695 114.651 172.129 116.766 172.129 105.702C172.153 96.7928 159.253 87.1417 151.696 98.6472Z" fill="#2855AF"/>
<path d="M140.341 145.798C140.144 149.578 139.798 153.231 139.246 156.948C138.763 160.791 137.922 164.579 136.732 168.264C136.363 169.34 135.894 170.379 135.33 171.366C134.944 172.037 134.469 172.653 133.919 173.197L133.643 173.449L133.494 173.567L133.407 173.638L133.076 173.867L132.422 174.325C130.756 175.396 129.003 176.325 127.182 177.103C123.731 178.62 120.146 179.809 116.473 180.654L115.204 177.158C118.317 175.43 121.508 173.662 124.424 171.831C125.848 170.96 127.216 170.001 128.521 168.959L128.947 168.588L129.167 168.406V168.367C129.167 168.367 129.254 168.217 129.364 167.988C129.645 167.362 129.879 166.716 130.066 166.055C130.513 164.449 130.866 162.818 131.122 161.17C131.421 159.466 131.665 157.722 131.87 155.962C132.272 152.458 132.619 148.86 132.887 145.364L140.341 145.798Z" fill="white"/>
<path d="M117.52 177.237L111.5 175.375L112.627 182.667C112.627 182.667 116.567 182.177 118.466 179.976L117.52 177.237Z" fill="white"/>
<path d="M106.82 179.988L106.819 179.988C106.613 179.397 106.643 178.749 106.902 178.18C107.162 177.611 107.631 177.164 108.212 176.933C108.212 176.933 108.212 176.933 108.212 176.933L111.301 175.722L112.338 182.43L109.543 182.559C109.024 182.582 108.511 182.438 108.08 182.147C107.649 181.856 107.323 181.434 107.15 180.943C107.15 180.943 107.15 180.942 107.15 180.942L106.82 179.988Z" fill="white" stroke="#2855AF" stroke-width="0.5"/>
<path d="M147.457 138.751C147.457 141.032 146.353 145.522 145.416 148.9C144.722 151.33 144.139 153.177 144.139 153.177L142.76 152.829L131.374 149.941C131.192 144.086 131.421 137.646 137.236 133.795C140.901 131.381 147.425 134.695 147.457 138.751Z" fill="#64CDFF"/>
<g opacity="0.5">
<path opacity="0.5" d="M147.457 138.751C147.457 141.032 146.353 145.522 145.416 148.9C144.722 151.33 144.139 153.177 144.139 153.177L142.76 152.829L131.374 149.941C131.192 144.086 131.421 137.646 137.236 133.795C140.901 131.381 147.425 134.695 147.457 138.751Z" fill="#072A50"/>
</g>
<path opacity="0.3" d="M147.441 139.145C146.7 138.356 145.014 138.222 141.342 139.39C136.078 141.055 134.604 146.832 134.533 150.746L142.76 152.829L143.469 153.01L144.139 153.176C144.139 153.176 144.43 152.253 144.84 150.848C145.006 150.272 145.211 149.609 145.408 148.899C146.306 145.711 147.346 141.513 147.441 139.145Z" fill="#072A50"/>
<path d="M128.137 307.081L123.918 321.665L117.441 319.392L121.667 304.801L128.137 307.081Z" fill="white" stroke="#2855AF" stroke-width="0.5"/>
<path d="M205.326 292.703L216.548 304.101L211.302 308.014L200.08 296.623L205.326 292.703Z" fill="white" stroke="#2855AF" stroke-width="0.5"/>
<path d="M208.96 306.632L215.067 301.573C215.169 301.483 215.301 301.433 215.438 301.433C215.574 301.433 215.706 301.483 215.808 301.573L220.496 305.835C220.611 305.946 220.702 306.08 220.761 306.228C220.82 306.376 220.848 306.535 220.841 306.695C220.834 306.855 220.794 307.011 220.722 307.154C220.65 307.297 220.549 307.423 220.426 307.524C218.266 309.252 217.132 309.978 214.453 312.195C212.798 313.56 209.346 316.827 207.061 318.713C204.776 320.599 202.79 318.445 203.578 317.451C207.077 313.016 207.888 310.096 208.306 307.697C208.393 307.276 208.624 306.899 208.96 306.632Z" fill="#2855AF"/>
<path d="M116.662 317.379L124.384 320.607C124.521 320.668 124.634 320.772 124.708 320.902C124.782 321.033 124.812 321.184 124.794 321.333L123.919 328.151C123.9 328.312 123.843 328.467 123.753 328.602C123.663 328.737 123.543 328.85 123.402 328.93C123.261 329.011 123.103 329.057 122.941 329.066C122.78 329.074 122.618 329.045 122.469 328.98C119.735 327.867 118.45 327.315 115.062 325.894L104.653 321.554C101.831 320.37 102.438 317.269 103.715 317.498C109.428 318.531 113.108 318.192 115.361 317.34C115.783 317.183 116.25 317.197 116.662 317.379Z" fill="#2855AF"/>
<path opacity="0.2" d="M121.5 304.485L119.254 312.25L126.015 315.312L128.45 306.924L121.5 304.485Z" fill="#072A50"/>
<path opacity="0.2" d="M205.359 292.372L199.701 296.594L205.666 302.654L211.324 298.433L205.359 292.372Z" fill="#072A50"/>
<path d="M135.353 138.135C135.353 143.225 136.259 151.72 140.199 173.91L168.576 173.503C168.57 173.42 168.564 173.336 168.558 173.254M135.353 138.135L170.647 145.877C169.772 150.809 169.221 154.794 168.898 158.29C168.42 163.966 168.39 167.628 168.808 173.25L168.558 173.254M135.353 138.135C135.349 136.866 135.786 135.634 136.59 134.652C137.394 133.67 138.514 132.999 139.757 132.753L135.353 138.135ZM168.558 173.254L140.408 173.657C136.499 151.62 135.603 143.184 135.603 138.135L135.603 138.135C135.599 136.923 136.016 135.748 136.783 134.811C137.55 133.874 138.619 133.233 139.805 132.999C141.552 132.66 143.738 132.266 145.899 131.967C146.644 131.865 147.397 131.771 148.134 131.692C152.443 131.318 156.773 131.255 161.09 131.504L161.097 131.504H161.104C161.599 131.504 162.087 131.537 162.583 131.57C162.725 131.58 162.868 131.589 163.011 131.598C165.901 131.787 168.619 132.157 170.529 132.456C170.848 132.507 171.154 132.622 171.427 132.796C171.7 132.969 171.935 133.196 172.117 133.464C172.299 133.731 172.425 134.033 172.487 134.351C172.548 134.669 172.544 134.996 172.475 135.312L172.475 135.314C171.639 139.261 170.953 142.728 170.401 145.833L170.401 145.833C169.525 150.77 168.973 154.762 168.649 158.267L168.649 158.269C168.17 163.953 168.14 167.627 168.558 173.254Z" fill="#2855AF" stroke="white" stroke-width="0.5"/>
<path opacity="0.3" d="M168.899 158.313C167.457 153.989 167.536 145.009 169.088 142.097L170.664 145.9C169.773 150.832 169.222 154.818 168.899 158.313Z" fill="#072A50"/>
<path d="M158.72 122.379L158.72 122.379L158.72 122.383C158.653 124.154 158.723 125.969 159.049 127.564C159.355 129.062 159.891 130.394 160.776 131.306C160.775 131.306 160.775 131.306 160.775 131.306C160.679 131.421 160.534 131.59 160.336 131.806C159.94 132.239 159.335 132.858 158.506 133.601C156.871 135.065 154.362 137.006 150.849 138.94C149.08 137.177 148.455 135.343 148.27 133.944C148.176 133.226 148.198 132.621 148.242 132.197C148.265 131.985 148.293 131.819 148.315 131.707C148.317 131.697 148.319 131.688 148.321 131.679C149.435 131.38 150.302 130.963 150.951 130.418C151.632 129.845 152.061 129.141 152.289 128.312C152.727 126.719 152.417 124.669 151.774 122.194L155.258 120.777L155.297 120.761L155.329 120.733C155.631 120.467 156.005 120.295 156.404 120.241C156.803 120.186 157.209 120.251 157.571 120.427C157.933 120.603 158.235 120.882 158.44 121.229C158.644 121.576 158.742 121.976 158.72 122.379Z" fill="white" stroke="#2855AF" stroke-width="0.5"/>
<path opacity="0.2" d="M155.171 120.546C155.489 120.268 155.876 120.084 156.292 120.013C156.707 119.941 157.134 119.986 157.526 120.142C157.917 120.297 158.258 120.558 158.512 120.895C158.765 121.233 158.921 121.633 158.962 122.053C157.335 124.565 154.958 126.499 152.169 127.577C152.285 125.693 152.05 123.804 151.476 122.006L155.171 120.546Z" fill="#072A50"/>
<path d="M165.396 111.963L165.394 111.966C165.297 112.221 165.203 112.471 165.11 112.715C164.012 115.609 163.217 117.706 162.216 119.362C161.141 121.141 159.828 122.408 157.631 123.576L157.63 123.576C151.105 127.064 143.83 122.661 144.334 115.719L144.334 115.717C144.552 112.53 145.652 108.552 147.608 105.301C149.565 102.048 152.35 99.5656 155.925 99.2672L155.927 99.2671C157.506 99.1254 159.096 99.3909 160.544 100.039C161.993 100.686 163.251 101.694 164.2 102.967C165.15 104.239 165.758 105.734 165.967 107.309C166.176 108.884 165.98 110.486 165.396 111.963Z" fill="white" stroke="#2855AF" stroke-width="0.5"/>
<path d="M153.107 98.9867C148.465 105.544 161.775 103.935 161.113 108.559C160.727 111.368 156.724 116.6 163.753 117.579C170.782 118.557 172.523 107.067 168.906 102.751C165.289 98.4343 157.669 95.6329 153.107 98.9867Z" fill="#2855AF"/>
<path d="M154.58 98.7893C153.618 101.157 148.504 104.4 146.637 103.8C147.204 100.967 151.971 98.2764 154.58 98.7893Z" fill="#2855AF"/>
<path d="M164.998 118.595L164.993 118.601L164.989 118.608C164.318 119.708 163.241 120.499 161.992 120.807C161.209 120.991 160.686 120.729 160.4 120.283C160.102 119.817 160.031 119.102 160.286 118.345C160.518 117.657 160.996 116.84 161.618 116.237C162.241 115.631 162.969 115.276 163.714 115.409C164.049 115.474 164.361 115.622 164.624 115.838C164.888 116.055 165.092 116.335 165.22 116.652C165.348 116.968 165.395 117.312 165.356 117.652C165.317 117.991 165.194 118.315 164.998 118.595Z" fill="white" stroke="#2855AF" stroke-width="0.5"/>
<path d="M140.199 176.014C140.199 176.014 135.353 217.743 130.885 243.722C127.386 264.074 118.545 306.45 118.545 306.45L130.018 310.522C130.018 310.522 143.162 266.33 145.463 247.486C154.73 220.292 161.388 175.785 161.388 175.785L140.199 176.014Z" fill="#64CDFF"/>
<path d="M116.678 309.315L129.963 314.002L131.736 309.733L117.332 304.217L116.678 309.315Z" fill="#2855AF"/>
<path opacity="0.3" d="M154.706 188.411L150.42 196.642C148.844 202.845 149.222 217.949 151.208 227.489C154.777 213.103 157.63 197.968 159.403 187.812L154.706 188.411Z" fill="#072A50"/>
<path d="M146.416 176.014C146.416 176.014 151.546 222.715 161.12 248.614C165.919 261.627 201.545 300.176 201.545 300.176L209.582 293.737C209.582 293.737 186.99 254.841 177.117 244.677C173.09 222.084 178.149 188.254 168.795 175.588L146.416 176.014Z" fill="#64CDFF"/>
<path d="M202.231 302.97L211.655 295.228L209.11 291.046L198.787 300.042L202.231 302.97Z" fill="#2855AF"/>
<path d="M169.268 173.923L170.592 176.464C170.695 176.661 170.466 176.874 170.135 176.874L140.104 177.308C139.844 177.308 139.632 177.182 139.608 177.024L139.316 174.459C139.316 174.286 139.521 174.128 139.797 174.128L168.795 173.71C168.886 173.701 168.977 173.717 169.06 173.754C169.143 173.791 169.214 173.85 169.268 173.923Z" fill="#2855AF"/>
<path d="M165.384 177.221H166.172C166.322 177.221 166.44 177.135 166.432 177.04L166.015 173.71C166.015 173.607 165.873 173.536 165.715 173.536H164.927C164.778 173.536 164.659 173.623 164.675 173.718L165.085 177.048C165.093 177.142 165.235 177.221 165.384 177.221Z" fill="#64CDFF"/>
<path d="M142.256 177.553H143.044C143.201 177.553 143.312 177.466 143.304 177.371L142.894 174.041C142.894 173.939 142.744 173.86 142.587 173.868H141.799C141.641 173.868 141.523 173.955 141.539 174.049L141.948 177.379C141.964 177.474 142.106 177.553 142.256 177.553Z" fill="#64CDFF"/>
<path d="M153.824 177.363H154.612C154.769 177.363 154.888 177.276 154.872 177.182L154.462 173.851C154.462 173.749 154.312 173.67 154.163 173.678H153.375C153.217 173.678 153.107 173.765 153.115 173.859L153.524 177.189C153.509 177.308 153.666 177.363 153.824 177.363Z" fill="#64CDFF"/>
<path d="M154.123 110.453C153.958 110.997 153.532 111.345 153.178 111.242C152.823 111.139 152.673 110.603 152.839 110.058C153.004 109.514 153.438 109.159 153.792 109.269C154.147 109.38 154.297 109.908 154.123 110.453Z" fill="#2855AF"/>
<path d="M147.992 108.527C147.819 109.071 147.394 109.419 147.039 109.316C146.684 109.213 146.535 108.677 146.708 108.132C146.881 107.588 147.299 107.241 147.654 107.343C148.008 107.446 148.158 107.982 147.992 108.527Z" fill="#2855AF"/>
<path d="M147.804 107.422L146.622 106.633C146.622 106.633 146.969 107.864 147.804 107.422Z" fill="#2855AF"/>
<path d="M147.41 113.292C147.203 113.182 147.015 113.04 146.853 112.871C147.593 112.322 148.281 111.708 148.909 111.036L148.131 113.529C147.879 113.492 147.635 113.412 147.41 113.292Z" fill="white" stroke="#2855AF" stroke-width="0.5"/>
<path d="M150.12 116.813C150.093 116.793 150.072 116.765 150.062 116.732C150.053 116.699 150.053 116.664 150.065 116.632C150.08 116.59 150.11 116.554 150.149 116.534C150.189 116.513 150.235 116.509 150.278 116.521C150.948 116.749 151.661 116.815 152.361 116.713C153.061 116.612 153.727 116.346 154.305 115.937C154.322 115.923 154.341 115.913 154.362 115.907C154.384 115.9 154.406 115.898 154.428 115.9C154.45 115.902 154.471 115.909 154.49 115.919C154.51 115.93 154.527 115.944 154.541 115.961C154.555 115.978 154.565 115.998 154.572 116.019C154.578 116.04 154.58 116.062 154.578 116.084C154.576 116.106 154.569 116.128 154.559 116.147C154.549 116.167 154.534 116.184 154.517 116.198C153.898 116.645 153.18 116.937 152.425 117.05C151.67 117.162 150.898 117.092 150.176 116.845L150.12 116.813Z" fill="#2855AF"/>
<path d="M156.48 108.984C156.434 108.946 156.399 108.897 156.377 108.842C156.249 108.444 156.027 108.081 155.731 107.785C155.435 107.488 155.073 107.267 154.675 107.138C154.589 107.117 154.514 107.064 154.467 106.988C154.42 106.913 154.404 106.822 154.423 106.735C154.444 106.649 154.497 106.574 154.572 106.527C154.647 106.48 154.738 106.464 154.825 106.483C155.332 106.638 155.795 106.912 156.174 107.283C156.554 107.654 156.84 108.11 157.007 108.614C157.038 108.697 157.035 108.79 156.998 108.871C156.961 108.952 156.894 109.016 156.81 109.048C156.754 109.065 156.695 109.069 156.637 109.058C156.579 109.047 156.525 109.022 156.48 108.984Z" fill="#2855AF"/>
<path d="M146.165 105C146.165 105 146.165 104.96 146.165 104.945C146.157 104.902 146.157 104.857 146.167 104.815C146.176 104.772 146.193 104.731 146.218 104.695C146.243 104.659 146.275 104.629 146.312 104.605C146.348 104.582 146.39 104.566 146.433 104.558C146.952 104.452 147.49 104.473 148 104.618C148.51 104.764 148.978 105.03 149.364 105.394C149.395 105.425 149.42 105.462 149.437 105.503C149.455 105.543 149.463 105.587 149.463 105.631C149.463 105.675 149.455 105.719 149.437 105.76C149.42 105.8 149.395 105.837 149.364 105.868C149.301 105.93 149.216 105.964 149.128 105.964C149.039 105.964 148.954 105.93 148.891 105.868C148.578 105.579 148.199 105.369 147.787 105.258C147.376 105.147 146.943 105.137 146.527 105.229C146.449 105.24 146.37 105.223 146.304 105.181C146.238 105.139 146.188 105.075 146.165 105Z" fill="#2855AF"/>
<path d="M118.979 136.17C117.812 134.284 116.804 130.599 118.797 128.516C120.791 126.432 122.343 125.841 121.847 122.203C121.35 118.565 126.898 118.667 127.363 115.89C130.129 118.257 133.06 123.781 131.492 126.314C129.924 128.847 130.767 130.749 130.428 133.819C130.089 136.889 123.391 143.32 118.979 136.17Z" fill="#64CDFF"/>
<path opacity="0.5" d="M118.979 136.17C117.812 134.284 116.804 130.599 118.797 128.516C120.791 126.432 122.343 125.841 121.847 122.203C121.35 118.565 126.898 118.667 127.363 115.89C130.129 118.257 133.06 123.781 131.492 126.314C129.924 128.847 130.767 130.749 130.428 133.819C130.089 136.889 123.391 143.32 118.979 136.17Z" fill="white"/>
<path d="M127.591 121.737C126.252 130.165 123.785 140.006 120.247 147.321C121.108 147.251 121.915 146.876 122.524 146.264C122.524 146.264 128.127 131.025 127.591 121.737Z" fill="#64CDFF"/>
<path d="M116.323 140.314C114.55 138.988 112.264 135.934 113.344 133.259C114.424 130.583 115.661 129.463 113.856 126.259C112.052 123.055 117.26 121.098 116.669 118.368C120.129 119.583 124.88 123.631 124.337 126.535C123.793 129.439 125.29 130.931 126.102 133.906C126.913 136.881 123.06 145.332 116.323 140.314Z" fill="#64CDFF"/>
<path opacity="0.6" d="M116.323 140.314C114.55 138.988 112.264 135.934 113.344 133.259C114.424 130.583 115.661 129.463 113.856 126.259C112.052 123.055 117.26 121.098 116.669 118.368C120.129 119.583 124.88 123.631 124.337 126.535C123.793 129.439 125.29 130.931 126.102 133.906C126.913 136.881 123.06 145.332 116.323 140.314Z" fill="white"/>
<path d="M128.986 142.855C130.846 142.72 133.864 141.592 134.313 139.193C134.762 136.794 134.392 135.437 137.134 133.977C139.877 132.517 137.056 128.761 138.71 127.088C135.7 126.377 130.484 127.088 129.538 129.408C128.592 131.728 126.867 132.091 124.936 133.843C123.005 135.595 121.91 143.36 128.986 142.855Z" fill="#64CDFF"/>
<path opacity="0.7" d="M128.986 142.855C130.846 142.72 133.864 141.592 134.313 139.193C134.762 136.794 134.392 135.437 137.134 133.977C139.877 132.517 137.056 128.761 138.71 127.088C135.7 126.377 130.484 127.088 129.538 129.408C128.592 131.728 126.867 132.091 124.936 133.843C123.005 135.595 121.91 143.36 128.986 142.855Z" fill="white"/>
<path d="M118.624 127.167C120.035 134.545 120.712 143.328 119.412 150.178C120.252 150.01 121.001 149.538 121.516 148.852C121.516 148.852 122.343 134.924 118.624 127.167Z" fill="#64CDFF"/>
<path d="M133.351 131.199C128.418 136.613 123.147 143.533 120.144 149.831C119.732 149.213 119.551 148.47 119.632 147.732C119.632 147.732 126.842 135.808 133.351 131.199Z" fill="#64CDFF"/>
<path d="M111.098 138.601C108.868 137.378 104.463 140.795 106.78 144.764C109.096 148.733 113.872 150.572 116.078 148.441C119.12 147.897 120.444 142.973 118.615 138.759C116.787 134.545 111.437 136.076 111.098 138.601Z" fill="#64CDFF"/>
<path d="M111.098 138.601C111.098 138.601 110.31 136.037 111.61 135.216C111.786 135.438 111.949 135.669 112.099 135.91C112.099 135.91 111.216 136.155 111.098 138.601Z" fill="#2855AF"/>
<path d="M136.307 131.909C136.039 137.331 130.476 141.45 124.432 142.776C124.06 143.158 123.789 143.627 123.644 144.141C123.593 144.259 123.584 144.39 123.618 144.514C123.653 144.637 123.728 144.745 123.833 144.82C124.291 145.2 124.83 145.47 125.409 145.609C128.601 145.686 131.713 144.604 134.171 142.563C137.323 140.148 140.199 135.366 139.293 133.148C138.387 130.931 137.67 131.673 137.323 129.992C137.131 129.309 137.048 128.601 137.079 127.893C137.079 127.893 136.291 128.263 136.094 128.745C136.354 129.424 136.393 130.142 136.307 131.909Z" fill="#64CDFF"/>
<path opacity="0.2" d="M139.325 133.172C139.119 132.577 138.779 132.037 138.332 131.594C138.395 133.377 137.938 135.539 135.968 138.696C133.911 141.995 128.395 144.93 123.636 144.638C123.674 144.714 123.731 144.78 123.801 144.828C124.259 145.208 124.799 145.478 125.377 145.617C128.57 145.695 131.682 144.613 134.14 142.571C137.3 140.18 140.2 135.397 139.325 133.172Z" fill="#072A50"/>
<path d="M136.322 129.857C136.206 129.451 136.069 129.05 135.912 128.658C136.235 128.239 136.673 127.924 137.173 127.75V129.053C137.173 129.053 136.74 129.802 136.322 129.857Z" fill="#2855AF"/>
<path d="M123.833 143.604C123.712 143.737 123.599 143.877 123.494 144.022C123.44 144.179 123.437 144.349 123.485 144.508C123.533 144.666 123.63 144.806 123.762 144.906C123.811 144.957 123.869 144.998 123.934 145.027C123.999 145.055 124.069 145.071 124.14 145.072C123.986 144.829 123.874 144.563 123.809 144.283C123.803 144.056 123.811 143.83 123.833 143.604Z" fill="#2855AF"/>
<path d="M140.64 134.356C139.246 139.595 132.949 142.46 126.756 142.491C126.303 142.78 125.932 143.179 125.676 143.652C125.596 143.752 125.552 143.878 125.552 144.007C125.552 144.136 125.596 144.261 125.676 144.362C126.049 144.848 126.533 145.237 127.087 145.498C127.717 145.664 131.444 146.698 136.291 144.362C139.844 142.641 143.682 138.577 143.264 136.226C142.847 133.874 141.98 134.442 141.996 132.738C141.943 132.032 142.009 131.322 142.193 130.639C141.762 130.733 141.366 130.946 141.05 131.254C141.2 131.925 141.09 132.643 140.64 134.356Z" fill="#64CDFF"/>
<path opacity="0.2" d="M143.304 136.226C143.228 135.596 143.01 134.991 142.666 134.458C142.351 136.218 141.452 138.262 138.891 140.905C136.196 143.699 130.223 145.427 125.598 144.141C125.619 144.223 125.66 144.298 125.716 144.362C126.092 144.845 126.575 145.234 127.126 145.498C127.757 145.664 131.484 146.69 136.33 144.354C139.884 142.641 143.722 138.577 143.304 136.226Z" fill="#072A50"/>
<path d="M141.081 132.383C141.081 132.383 141.01 131.459 140.932 131.128C141.336 130.789 141.828 130.573 142.35 130.504L142.066 131.775C142.066 131.775 141.499 132.383 141.081 132.383Z" fill="#2855AF"/>
<path d="M126 143.178C126 143.178 125.724 143.383 125.582 143.518C125.498 143.659 125.46 143.824 125.475 143.988C125.489 144.152 125.554 144.308 125.661 144.433C125.85 144.67 126 144.678 126 144.678C125.898 144.41 125.842 144.127 125.834 143.841C125.881 143.573 126 143.178 126 143.178Z" fill="#2855AF"/>
<path d="M144.298 140.231L105.834 145.521L111.747 188.637L150.211 183.347L144.298 140.231Z" fill="#64CDFF"/>
<path opacity="0.8" d="M144.298 140.231L105.834 145.521L111.747 188.637L150.211 183.347L144.298 140.231Z" fill="white"/>
<path opacity="0.2" d="M144.299 140.234L132.948 141.795L138.861 184.911L150.212 183.35L144.299 140.234Z" fill="#64CDFF"/>
<path opacity="0.2" d="M150.222 183.345L143.973 179.983L138.631 141.016L144.304 140.234L150.222 183.345Z" fill="#64CDFF"/>
<path opacity="0.3" d="M143.973 179.983L138.867 184.908L150.222 183.345L143.973 179.983Z" fill="#64CDFF"/>
<path d="M180.592 160.91C180.805 162.086 180.994 163.277 181.136 164.524M180.592 160.91C180.151 158.543 179.599 156.262 179.016 153.997C177.85 149.452 176.494 145.064 174.918 140.645M180.592 160.91L180.346 160.955C180.346 160.955 180.346 160.955 180.346 160.955C180.346 160.955 180.346 160.956 180.346 160.956L180.592 160.91ZM181.136 164.524L174.918 140.645M181.136 164.524C181.292 165.833 181.347 167.152 181.301 168.47L181.136 164.524ZM174.918 140.645L174.683 140.729C174.71 140.806 174.738 140.884 174.765 140.961L174.999 140.882L174.918 140.645ZM168.086 143.24C168.06 143.162 168.034 143.083 168.009 143.005L167.771 143.083L167.852 143.32L168.086 143.24ZM174.275 165.399C174.274 165.398 174.274 165.397 174.274 165.397L174.028 165.44L174.275 165.402C174.275 165.401 174.275 165.4 174.275 165.399ZM174.577 168.271C174.577 168.27 174.577 168.269 174.577 168.267C174.577 168.266 174.577 168.264 174.577 168.263L174.327 168.281L174.577 168.271ZM174.506 168.969C174.453 168.92 174.391 168.901 174.34 168.899C174.337 168.982 174.333 169.065 174.327 169.149C174.328 169.149 174.329 169.149 174.329 169.149L174.577 169.166C174.578 169.143 174.58 169.12 174.581 169.098C174.572 169.06 174.551 169.011 174.506 168.969ZM174.226 169.399C174.23 169.393 174.234 169.387 174.238 169.381C174.269 169.394 174.301 169.399 174.327 169.399H174.226ZM166.993 173.638C166.994 173.638 166.995 173.638 166.996 173.638C166.997 173.637 166.998 173.637 166.998 173.637L166.912 173.402L166.993 173.638ZM154.189 177.338C154.261 177.321 154.334 177.304 154.406 177.286L154.379 177.064L154.131 177.095L154.189 177.338ZM154.836 180.758L154.808 180.529C154.731 180.533 154.655 180.536 154.578 180.538L154.588 180.788L154.836 180.758ZM179.149 173.547C179.148 173.547 179.148 173.547 179.148 173.548C179.148 173.548 179.147 173.548 179.147 173.549L179.331 173.718L179.149 173.547ZM180.669 170.92C180.668 170.921 180.668 170.922 180.668 170.923C180.667 170.924 180.667 170.925 180.667 170.926L180.907 170.995L180.669 170.92Z" fill="white" stroke="#2855AF" stroke-width="0.5"/>
<path d="M151.151 182.101L151.151 182.101L151.151 182.101L151.144 182.101L148.031 182.006L148.03 182.006C147.524 181.993 147.036 181.816 146.638 181.503C146.24 181.189 145.954 180.755 145.822 180.266C145.822 180.266 145.822 180.266 145.822 180.266L145.366 178.562C145.366 178.562 145.365 178.562 145.365 178.562C145.278 178.232 145.264 177.886 145.323 177.55C145.382 177.213 145.513 176.893 145.707 176.612C145.902 176.331 146.155 176.096 146.449 175.923C146.743 175.749 147.071 175.642 147.41 175.608L147.41 175.608L147.414 175.608L150.531 175.251L155.794 177.191L156.718 180.423C155.735 181.33 154.386 181.757 153.243 181.951C152.655 182.052 152.129 182.089 151.751 182.101C151.562 182.108 151.411 182.107 151.307 182.106C151.255 182.105 151.215 182.104 151.189 182.103L151.159 182.102L151.152 182.101L151.151 182.101Z" fill="white" stroke="#2855AF" stroke-width="0.5"/>
<path d="M177.202 144.203C177.236 144.33 177.263 144.433 177.283 144.51L168.529 151.341C168.493 151.283 168.451 151.214 168.403 151.136C168.231 150.852 167.985 150.442 167.694 149.936C167.113 148.924 166.352 147.529 165.632 145.999C164.912 144.468 164.236 142.808 163.822 141.264C163.406 139.71 163.266 138.312 163.574 137.284C164.122 135.47 165.108 133.905 166.443 133C167.767 132.103 169.459 131.835 171.483 132.654C172.224 132.956 172.974 133.819 173.687 135.02C174.392 136.207 175.032 137.673 175.573 139.106C176.112 140.537 176.55 141.928 176.853 142.962C177.005 143.478 177.122 143.905 177.202 144.203Z" fill="#2855AF" stroke="white" stroke-width="0.5"/>
<path d="M206.73 309.693H206.612C206.447 309.684 206.288 309.632 206.15 309.542C206.011 309.452 205.899 309.327 205.824 309.181C205.766 309.097 205.731 309 205.723 308.899C205.714 308.798 205.733 308.696 205.776 308.604C206.178 307.815 208.708 307.5 208.991 307.468C209.025 307.463 209.059 307.469 209.088 307.484C209.118 307.5 209.142 307.525 209.157 307.555C209.175 307.582 209.184 307.613 209.184 307.646C209.184 307.678 209.175 307.709 209.157 307.736C208.621 308.455 207.597 309.63 206.73 309.693ZM208.645 307.855C207.636 308.005 206.281 308.328 206.092 308.754C206.068 308.792 206.055 308.836 206.055 308.881C206.055 308.925 206.068 308.969 206.092 309.007C206.137 309.106 206.209 309.191 206.299 309.252C206.39 309.313 206.495 309.348 206.604 309.354C207.092 309.378 207.88 308.825 208.668 307.855H208.645Z" fill="#2855AF"/>
<path d="M208.873 307.823C208.014 307.878 206.312 307.523 205.949 306.86C205.888 306.742 205.868 306.607 205.894 306.476C205.92 306.346 205.989 306.228 206.091 306.142C206.178 306.049 206.285 305.976 206.403 305.928C206.522 305.88 206.649 305.859 206.777 305.866C207.801 305.866 209.101 307.444 209.141 307.531C209.156 307.554 209.165 307.582 209.165 307.61C209.165 307.638 209.156 307.666 209.141 307.689C209.133 307.718 209.117 307.744 209.095 307.763C209.072 307.783 209.044 307.796 209.015 307.799L208.873 307.823ZM206.698 306.197C206.56 306.209 206.431 306.271 206.335 306.371C206.186 306.529 206.209 306.631 206.249 306.702C206.477 307.137 207.825 307.492 208.684 307.492C208.219 306.994 207.376 306.213 206.769 306.19L206.698 306.197Z" fill="#2855AF"/>
<path d="M112.706 317.222C112.167 317.042 111.695 316.704 111.351 316.251C111.27 316.116 111.221 315.964 111.207 315.807C111.193 315.649 111.216 315.491 111.272 315.344C111.298 315.259 111.346 315.183 111.411 315.124C111.476 315.064 111.556 315.023 111.642 315.004C112.541 314.831 114.668 317.119 115.086 317.585C115.105 317.613 115.116 317.646 115.116 317.68C115.116 317.714 115.105 317.747 115.086 317.774C115.068 317.806 115.042 317.831 115.009 317.847C114.977 317.862 114.94 317.867 114.905 317.861C114.153 317.721 113.416 317.507 112.706 317.222ZM112.036 315.375C111.934 315.324 111.819 315.302 111.705 315.312C111.705 315.312 111.619 315.312 111.587 315.431C111.547 315.533 111.531 315.643 111.541 315.753C111.55 315.862 111.585 315.968 111.642 316.062C111.95 316.591 112.998 317.088 114.487 317.411C113.778 316.612 112.952 315.926 112.036 315.375Z" fill="#2855AF"/>
<path d="M114.897 317.829C114.876 317.821 114.857 317.807 114.842 317.79C114.117 317.072 112.951 314.925 113.353 314.239C113.447 314.089 113.636 313.931 114.054 314.049C115.63 314.507 115.149 317.569 115.126 317.703C115.121 317.734 115.108 317.762 115.087 317.785C115.065 317.807 115.038 317.823 115.007 317.829C114.99 317.837 114.971 317.841 114.952 317.841C114.933 317.841 114.914 317.837 114.897 317.829ZM114.109 314.404H113.999C113.833 314.357 113.723 314.365 113.684 314.404C113.447 314.807 114.196 316.425 114.881 317.285C114.897 316.527 114.992 314.791 114.109 314.404Z" fill="#2855AF"/>
<path d="M153.942 109.348L152.752 108.559C152.752 108.559 153.107 109.79 153.942 109.348Z" fill="#2855AF"/>
<g filter="url(#filter0_d)">
<circle cx="181.5" cy="43.5" r="13.5" fill="url(#paint0_radial)"/>
</g>
<g filter="url(#filter1_d)">
<circle cx="69" cy="250" r="29" fill="url(#paint1_radial)"/>
</g>
<defs>
<filter id="filter0_d" x="128" y="0" width="107" height="107" filterUnits="userSpaceOnUse" color-interpolation-filters="sRGB">
<feFlood flood-opacity="0" result="BackgroundImageFix"/>
<feColorMatrix in="SourceAlpha" type="matrix" values="0 0 0 0 0 0 0 0 0 0 0 0 0 0 0 0 0 0 127 0"/>
<feOffset dy="10"/>
<feGaussianBlur stdDeviation="20"/>
<feColorMatrix type="matrix" values="0 0 0 0 0.156863 0 0 0 0 0.333333 0 0 0 0 0.686275 0 0 0 0.1 0"/>
<feBlend mode="normal" in2="BackgroundImageFix" result="effect1_dropShadow"/>
<feBlend mode="normal" in="SourceGraphic" in2="effect1_dropShadow" result="shape"/>
</filter>
<filter id="filter1_d" x="0" y="191" width="138" height="138" filterUnits="userSpaceOnUse" color-interpolation-filters="sRGB">
<feFlood flood-opacity="0" result="BackgroundImageFix"/>
<feColorMatrix in="SourceAlpha" type="matrix" values="0 0 0 0 0 0 0 0 0 0 0 0 0 0 0 0 0 0 127 0"/>
<feOffset dy="10"/>
<feGaussianBlur stdDeviation="20"/>
<feColorMatrix type="matrix" values="0 0 0 0 0.156863 0 0 0 0 0.333333 0 0 0 0 0.686275 0 0 0 0.1 0"/>
<feBlend mode="normal" in2="BackgroundImageFix" result="effect1_dropShadow"/>
<feBlend mode="normal" in="SourceGraphic" in2="effect1_dropShadow" result="shape"/>
</filter>
<radialGradient id="paint0_radial" cx="0" cy="0" r="1" gradientUnits="userSpaceOnUse" gradientTransform="translate(176.99 35.7007) rotate(52.2481) scale(17.9061)">
<stop stop-color="#8AAEF4"/>
<stop offset="1" stop-color="#2855AF"/>
</radialGradient>
<radialGradient id="paint1_radial" cx="0" cy="0" r="1" gradientUnits="userSpaceOnUse" gradientTransform="translate(59.3109 233.246) rotate(52.2481) scale(38.4649)">
<stop stop-color="#8AAEF4"/>
<stop offset="1" stop-color="#2855AF"/>
</radialGradient>
</defs>
</svg>
