<svg width="395" height="315" viewBox="0 0 395 315" fill="none" xmlns="http://www.w3.org/2000/svg">
<path d="M215.796 66.967C243.936 56.1479 279.684 44.9422 310.265 82.7497C335.071 113.415 320.25 150.836 301.251 168.986C279.368 189.883 242.791 178.969 213.134 188.659C182.964 198.524 194.174 242.802 163.799 250.417C134.276 257.827 90.4708 223.287 72.4351 198.208C50.3151 167.432 50.9313 134.051 56.6351 106.779C62.6786 77.7229 78.2416 50.7976 117.592 51.5394C154.05 52.2891 182.435 79.7983 215.796 66.967Z" fill="white"/>
<path opacity="0.9" d="M215.796 66.967C243.936 56.1479 279.684 44.9422 310.265 82.7497C335.071 113.415 320.25 150.836 301.251 168.986C279.368 189.883 242.791 178.969 213.134 188.659C182.964 198.524 194.174 242.802 163.799 250.417C134.276 257.827 90.4708 223.287 72.4351 198.208C50.3151 167.432 50.9313 134.051 56.6351 106.779C62.6786 77.7229 78.2416 50.7976 117.592 51.5394C154.05 52.2891 182.435 79.7983 215.796 66.967Z" fill="white"/>
<path d="M197.5 315C282.095 315 350.673 311 350.673 306.067C350.673 301.133 282.095 297.134 197.5 297.134C112.905 297.134 44.3271 301.133 44.3271 306.067C44.3271 311 112.905 315 197.5 315Z" fill="#F5F5F5"/>
<path d="M124.717 197.214H198.811V189.804H124.717C123.734 189.804 122.792 190.194 122.097 190.888C121.402 191.582 121.012 192.523 121.012 193.505C121.011 193.991 121.106 194.474 121.291 194.924C121.477 195.373 121.75 195.782 122.094 196.127C122.438 196.471 122.847 196.745 123.297 196.931C123.747 197.118 124.23 197.214 124.717 197.214Z" fill="#2855AF"/>
<path d="M153.346 305.009H158.07V197.206H153.346V305.009Z" fill="#64CDFF"/>
<path opacity="0.7" d="M153.346 305.009H158.07V197.206H153.346V305.009Z" fill="white"/>
<path d="M129.9 305.009H134.624V197.206H129.9V305.009Z" fill="#64CDFF"/>
<path opacity="0.7" d="M129.9 305.009H134.624V197.206H129.9V305.009Z" fill="white"/>
<path d="M124.716 195.911C126.047 195.911 127.126 194.834 127.126 193.505C127.126 192.175 126.047 191.098 124.716 191.098C123.385 191.098 122.307 192.175 122.307 193.505C122.307 194.834 123.385 195.911 124.716 195.911Z" fill="#64CDFF"/>
<path d="M132.894 193.504C132.894 193.971 133.032 194.427 133.29 194.816C133.549 195.204 133.917 195.507 134.348 195.688C134.778 195.868 135.253 195.917 135.712 195.829C136.17 195.741 136.593 195.519 136.925 195.192C137.258 194.865 137.487 194.447 137.583 193.99C137.679 193.533 137.638 193.059 137.464 192.625C137.291 192.192 136.993 191.82 136.609 191.555C136.224 191.29 135.77 191.145 135.303 191.137C134.989 191.132 134.676 191.189 134.384 191.306C134.092 191.422 133.826 191.596 133.602 191.816C133.377 192.037 133.199 192.299 133.078 192.589C132.956 192.879 132.894 193.19 132.894 193.504Z" fill="#64CDFF"/>
<path d="M145.889 195.911C147.22 195.911 148.298 194.834 148.298 193.505C148.298 192.175 147.22 191.098 145.889 191.098C144.558 191.098 143.479 192.175 143.479 193.505C143.479 194.834 144.558 195.911 145.889 195.911Z" fill="#64CDFF"/>
<path d="M156.475 195.911C157.806 195.911 158.884 194.834 158.884 193.505C158.884 192.175 157.806 191.098 156.475 191.098C155.144 191.098 154.065 192.175 154.065 193.505C154.065 194.834 155.144 195.911 156.475 195.911Z" fill="#64CDFF"/>
<path d="M167.053 195.911C168.384 195.911 169.463 194.834 169.463 193.505C169.463 192.175 168.384 191.098 167.053 191.098C165.722 191.098 164.644 192.175 164.644 193.505C164.644 194.834 165.722 195.911 167.053 195.911Z" fill="#64CDFF"/>
<path d="M177.639 195.911C178.97 195.911 180.048 194.834 180.048 193.505C180.048 192.175 178.97 191.098 177.639 191.098C176.308 191.098 175.229 192.175 175.229 193.505C175.229 194.834 176.308 195.911 177.639 195.911Z" fill="#64CDFF"/>
<path d="M188.225 195.911C189.556 195.911 190.634 194.834 190.634 193.505C190.634 192.175 189.556 191.098 188.225 191.098C186.894 191.098 185.815 192.175 185.815 193.505C185.815 194.834 186.894 195.911 188.225 195.911Z" fill="#64CDFF"/>
<path d="M198.811 191.105V195.911C198.173 195.911 197.561 195.658 197.11 195.208C196.659 194.757 196.405 194.146 196.405 193.508C196.405 192.871 196.659 192.26 197.11 191.809C197.561 191.359 198.173 191.105 198.811 191.105Z" fill="#64CDFF"/>
<path d="M235.143 107.465H230.237V108.255H235.143V107.465Z" fill="#64CDFF"/>
<path d="M225.679 107.465H209.879V108.255H225.679V107.465Z" fill="#64CDFF"/>
<path d="M179.511 110.227H255.517C257.238 110.227 258.887 110.91 260.104 112.125C261.32 113.34 262.003 114.988 262.003 116.706V305.009H173.01V116.706C173.01 115.854 173.178 115.01 173.505 114.223C173.832 113.436 174.311 112.721 174.915 112.119C175.519 111.517 176.236 111.04 177.025 110.716C177.813 110.391 178.658 110.225 179.511 110.227Z" fill="#64CDFF"/>
<path opacity="0.2" d="M197.642 167.384H173.025V166.65H196.915V110.227H197.642V167.384Z" fill="white"/>
<path opacity="0.4" d="M241.628 110.227H255.517C257.237 110.227 258.887 110.91 260.103 112.125C261.319 113.34 262.003 114.988 262.003 116.706V305.009H235.143V116.706C235.143 114.988 235.826 113.34 237.042 112.125C238.259 110.91 239.908 110.227 241.628 110.227Z" fill="#2855AF"/>
<path d="M243.698 142.526H253.454C254.293 142.526 255.096 142.859 255.689 143.451C256.282 144.043 256.614 144.846 256.614 145.683V204.994H240.546V145.683C240.546 144.847 240.878 144.045 241.469 143.454C242.06 142.862 242.861 142.528 243.698 142.526Z" fill="#64CDFF"/>
<path d="M243.698 142.526H252.151C252.989 142.526 253.793 142.859 254.385 143.451C254.978 144.043 255.311 144.846 255.311 145.683V204.994H240.546V145.683C240.546 144.846 240.879 144.043 241.471 143.451C242.064 142.859 242.868 142.526 243.706 142.526H243.698Z" fill="#072A50"/>
<path opacity="0.2" d="M235.143 294.396H207.604V205.452H235.143V206.178H208.33V293.67H235.143V294.396Z" fill="white"/>
<path opacity="0.2" d="M197.058 294.396C196.147 294.394 195.257 294.123 194.501 293.616C193.745 293.11 193.156 292.391 192.808 291.55C192.461 290.709 192.371 289.785 192.549 288.893C192.728 288.001 193.167 287.182 193.812 286.539C194.456 285.896 195.277 285.459 196.17 285.282C197.063 285.105 197.989 285.197 198.83 285.545C199.671 285.894 200.39 286.483 200.896 287.24C201.401 287.996 201.671 288.885 201.671 289.795C201.671 290.4 201.552 290.999 201.32 291.557C201.088 292.116 200.748 292.624 200.32 293.051C199.891 293.478 199.382 293.817 198.823 294.048C198.263 294.278 197.663 294.397 197.058 294.396ZM197.058 285.92C196.291 285.92 195.541 286.148 194.903 286.573C194.265 286.999 193.768 287.604 193.474 288.312C193.181 289.02 193.104 289.799 193.253 290.551C193.403 291.302 193.772 291.993 194.315 292.535C194.857 293.077 195.549 293.446 196.301 293.595C197.053 293.745 197.833 293.668 198.542 293.375C199.251 293.081 199.857 292.585 200.283 291.948C200.709 291.31 200.937 290.561 200.937 289.795C200.935 288.768 200.525 287.784 199.798 287.058C199.071 286.331 198.086 285.922 197.058 285.92Z" fill="white"/>
<path opacity="0.2" d="M184.74 294.396C183.83 294.396 182.939 294.126 182.182 293.62C181.424 293.115 180.834 292.396 180.485 291.556C180.137 290.715 180.046 289.79 180.223 288.897C180.401 288.005 180.84 287.185 181.484 286.542C182.128 285.898 182.949 285.46 183.842 285.283C184.735 285.105 185.661 285.196 186.503 285.545C187.345 285.893 188.064 286.482 188.57 287.239C189.076 287.996 189.346 288.885 189.346 289.795C189.346 291.015 188.861 292.185 187.997 293.048C187.133 293.911 185.962 294.396 184.74 294.396ZM184.74 285.92C183.973 285.92 183.223 286.148 182.585 286.573C181.948 286.999 181.45 287.604 181.157 288.312C180.863 289.02 180.786 289.799 180.936 290.551C181.086 291.303 181.455 291.993 181.998 292.535C182.54 293.077 183.231 293.446 183.984 293.595C184.736 293.745 185.516 293.668 186.225 293.375C186.934 293.081 187.539 292.585 187.966 291.948C188.392 291.31 188.619 290.561 188.619 289.795C188.617 288.768 188.208 287.784 187.481 287.058C186.754 286.331 185.769 285.922 184.74 285.92Z" fill="white"/>
<path d="M338.049 197.214H263.955V189.804H338.049C339.032 189.804 339.974 190.194 340.669 190.888C341.364 191.582 341.754 192.523 341.754 193.505C341.755 193.991 341.66 194.474 341.475 194.924C341.289 195.373 341.016 195.782 340.672 196.127C340.328 196.471 339.919 196.745 339.469 196.931C339.019 197.118 338.536 197.214 338.049 197.214Z" fill="#64CDFF"/>
<path d="M314.648 197.214H240.546V189.804H314.648C315.136 189.802 315.619 189.896 316.071 190.081C316.522 190.266 316.932 190.538 317.278 190.882C317.624 191.226 317.898 191.635 318.085 192.085C318.272 192.535 318.369 193.017 318.369 193.505C318.37 193.993 318.274 194.476 318.088 194.927C317.901 195.378 317.627 195.788 317.281 196.133C316.935 196.477 316.524 196.75 316.072 196.936C315.621 197.121 315.136 197.216 314.648 197.214Z" fill="#2855AF"/>
<path d="M309.419 197.213H304.694V305.017H309.419V197.213Z" fill="#64CDFF"/>
<path opacity="0.7" d="M309.419 197.213H304.694V305.017H309.419V197.213Z" fill="white"/>
<path d="M332.867 197.213H328.143V305.017H332.867V197.213Z" fill="#64CDFF"/>
<path opacity="0.7" d="M332.867 197.213H328.143V305.017H332.867V197.213Z" fill="white"/>
<path d="M314.649 195.911C315.98 195.911 317.058 194.834 317.058 193.505C317.058 192.175 315.98 191.098 314.649 191.098C313.318 191.098 312.239 192.175 312.239 193.505C312.239 194.834 313.318 195.911 314.649 195.911Z" fill="#64CDFF"/>
<path d="M304.063 195.911C305.394 195.911 306.472 194.834 306.472 193.505C306.472 192.175 305.394 191.098 304.063 191.098C302.732 191.098 301.653 192.175 301.653 193.505C301.653 194.834 302.732 195.911 304.063 195.911Z" fill="#64CDFF"/>
<path d="M293.477 195.911C294.808 195.911 295.886 194.834 295.886 193.505C295.886 192.175 294.808 191.098 293.477 191.098C292.146 191.098 291.067 192.175 291.067 193.505C291.067 194.834 292.146 195.911 293.477 195.911Z" fill="#64CDFF"/>
<path d="M282.891 195.911C284.222 195.911 285.3 194.834 285.3 193.505C285.3 192.175 284.222 191.098 282.891 191.098C281.56 191.098 280.481 192.175 280.481 193.505C280.481 194.834 281.56 195.911 282.891 195.911Z" fill="#64CDFF"/>
<path d="M272.305 195.911C273.636 195.911 274.714 194.834 274.714 193.505C274.714 192.175 273.636 191.098 272.305 191.098C270.974 191.098 269.896 192.175 269.896 193.505C269.896 194.834 270.974 195.911 272.305 195.911Z" fill="#64CDFF"/>
<path d="M261.718 195.911C263.049 195.911 264.128 194.834 264.128 193.505C264.128 192.175 263.049 191.098 261.718 191.098C260.387 191.098 259.309 192.175 259.309 193.505C259.309 194.834 260.387 195.911 261.718 195.911Z" fill="#64CDFF"/>
<path d="M251.133 195.911C252.464 195.911 253.543 194.834 253.543 193.505C253.543 192.175 252.464 191.098 251.133 191.098C249.802 191.098 248.724 192.175 248.724 193.505C248.724 194.834 249.802 195.911 251.133 195.911Z" fill="#64CDFF"/>
<path d="M240.546 191.105V195.911C241.184 195.911 241.796 195.658 242.247 195.208C242.698 194.757 242.951 194.146 242.951 193.508C242.951 192.871 242.698 192.26 242.247 191.809C241.796 191.359 241.184 191.105 240.546 191.105Z" fill="#64CDFF"/>
<path d="M224.905 129.679H183.264C181.737 129.679 180.499 130.916 180.499 132.441V214.708C180.499 216.234 181.737 217.47 183.264 217.47H224.905C226.432 217.47 227.67 216.234 227.67 214.708V132.441C227.67 130.916 226.432 129.679 224.905 129.679Z" fill="white"/>
<path opacity="0.3" d="M219.683 139.054H188.486C186.858 139.054 185.539 140.372 185.539 141.998V162.286C185.539 163.912 186.858 165.23 188.486 165.23H219.683C221.31 165.23 222.63 163.912 222.63 162.286V141.998C222.63 140.372 221.31 139.054 219.683 139.054Z" fill="#64CDFF"/>
<path opacity="0.3" d="M219.833 168.979H188.336C186.791 168.979 185.539 170.229 185.539 171.772V184.209C185.539 185.752 186.791 187.002 188.336 187.002H219.833C221.377 187.002 222.63 185.752 222.63 184.209V171.772C222.63 170.229 221.377 168.979 219.833 168.979Z" fill="#64CDFF"/>
<path d="M196.71 178.037L190.517 175.788C191.013 174.427 191.945 173.268 193.169 172.489C194.393 171.711 195.839 171.358 197.284 171.485C198.729 171.612 200.091 172.212 201.16 173.191C202.229 174.17 202.945 175.474 203.196 176.901L196.71 178.037Z" fill="#64CDFF"/>
<path d="M196.71 178.038L203.196 176.901C203.262 177.277 203.296 177.657 203.298 178.038C203.329 178.922 203.181 179.803 202.864 180.628C202.546 181.454 202.066 182.207 201.45 182.844C200.835 183.48 200.098 183.986 199.283 184.331C198.468 184.677 197.591 184.855 196.706 184.855C195.82 184.855 194.944 184.677 194.129 184.331C193.314 183.986 192.577 183.48 191.961 182.844C191.346 182.207 190.866 181.454 190.548 180.628C190.231 179.803 190.083 178.922 190.113 178.038C190.113 177.27 190.249 176.508 190.516 175.789L196.71 178.038Z" fill="white"/>
<path d="M214.714 177.138H212.218V184.571H214.714V177.138Z" fill="white"/>
<path d="M210.463 181.091H207.967V184.571H210.463V181.091Z" fill="white"/>
<path d="M210.463 178.969H207.967V181.092H210.463V178.969Z" fill="#64CDFF"/>
<path d="M214.714 172.608H212.218V177.138H214.714V172.608Z" fill="#64CDFF"/>
<path d="M218.956 178.487H216.46V184.564H218.956V178.487Z" fill="white"/>
<path d="M218.956 175.702H216.46V178.487H218.956V175.702Z" fill="#64CDFF"/>
<path d="M190.934 157.796H217.146C217.325 157.798 217.502 157.754 217.659 157.669C217.816 157.583 217.949 157.459 218.044 157.308C218.14 157.157 218.196 156.985 218.206 156.806C218.216 156.628 218.18 156.45 218.102 156.289C217.078 154.073 216.457 151.692 216.27 149.258C215.78 143.734 212.035 142.392 210.439 149.258C208.844 156.123 202.468 152.588 199.869 149.321C197.452 146.291 193.502 149.644 189.994 156.242C189.91 156.403 189.87 156.584 189.876 156.766C189.882 156.948 189.934 157.126 190.029 157.282C190.123 157.438 190.256 157.567 190.414 157.657C190.573 157.747 190.752 157.795 190.934 157.796Z" fill="#64CDFF"/>
<path d="M189.924 193.11C190.647 193.11 191.354 193.324 191.956 193.726C192.557 194.127 193.026 194.698 193.303 195.365C193.58 196.033 193.652 196.768 193.511 197.476C193.37 198.185 193.022 198.836 192.51 199.347C191.998 199.858 191.347 200.206 190.637 200.347C189.928 200.488 189.192 200.416 188.524 200.139C187.856 199.863 187.284 199.394 186.882 198.793C186.48 198.193 186.266 197.486 186.266 196.764C186.268 195.795 186.654 194.867 187.34 194.182C188.025 193.498 188.954 193.112 189.924 193.11ZM189.924 192.384C189.055 192.384 188.205 192.641 187.483 193.124C186.76 193.606 186.197 194.292 185.865 195.094C185.533 195.896 185.446 196.779 185.616 197.63C185.786 198.482 186.205 199.263 186.821 199.877C187.436 200.49 188.219 200.907 189.072 201.076C189.924 201.244 190.808 201.156 191.61 200.823C192.412 200.489 193.098 199.926 193.58 199.203C194.061 198.481 194.318 197.632 194.316 196.764C194.317 196.187 194.204 195.617 193.984 195.084C193.763 194.552 193.44 194.068 193.031 193.661C192.623 193.254 192.139 192.932 191.605 192.713C191.072 192.494 190.5 192.382 189.924 192.384Z" fill="#2855AF"/>
<path d="M201.845 193.11C202.568 193.11 203.275 193.325 203.877 193.726C204.478 194.128 204.947 194.698 205.224 195.366C205.501 196.033 205.573 196.768 205.432 197.477C205.291 198.186 204.943 198.837 204.431 199.348C203.919 199.859 203.268 200.206 202.558 200.347C201.849 200.488 201.113 200.416 200.445 200.14C199.777 199.863 199.205 199.395 198.803 198.794C198.401 198.193 198.187 197.487 198.187 196.764C198.189 195.796 198.575 194.867 199.261 194.183C199.946 193.498 200.875 193.112 201.845 193.11ZM201.845 192.384C200.975 192.383 200.125 192.639 199.401 193.12C198.678 193.602 198.114 194.287 197.78 195.089C197.447 195.891 197.359 196.774 197.528 197.626C197.698 198.478 198.116 199.26 198.731 199.874C199.346 200.488 200.129 200.906 200.982 201.076C201.835 201.245 202.718 201.157 203.521 200.824C204.324 200.491 205.01 199.927 205.492 199.205C205.974 198.482 206.231 197.632 206.229 196.764C206.23 196.189 206.117 195.619 205.898 195.087C205.678 194.555 205.355 194.072 204.947 193.665C204.54 193.258 204.056 192.935 203.524 192.716C202.991 192.496 202.421 192.383 201.845 192.384Z" fill="#64CDFF"/>
<path d="M222.63 208.412C222.63 208.786 222.518 209.153 222.31 209.465C222.101 209.776 221.805 210.019 221.458 210.162C221.111 210.305 220.729 210.342 220.361 210.268C219.993 210.195 219.655 210.014 219.39 209.748C219.126 209.482 218.946 209.144 218.873 208.776C218.801 208.408 218.84 208.027 218.985 207.681C219.129 207.335 219.373 207.04 219.686 206.833C219.999 206.626 220.366 206.516 220.742 206.518C221.243 206.52 221.723 206.72 222.077 207.075C222.431 207.43 222.63 207.911 222.63 208.412Z" fill="#64CDFF"/>
<path opacity="0.3" d="M214.303 208.412C214.303 208.786 214.191 209.153 213.983 209.465C213.774 209.776 213.477 210.019 213.13 210.162C212.784 210.305 212.402 210.342 212.034 210.268C211.666 210.195 211.328 210.014 211.063 209.748C210.798 209.482 210.618 209.144 210.546 208.776C210.474 208.408 210.513 208.027 210.657 207.681C210.802 207.335 211.046 207.04 211.359 206.833C211.672 206.626 212.039 206.516 212.415 206.518C212.916 206.52 213.396 206.72 213.75 207.075C214.104 207.43 214.303 207.911 214.303 208.412Z" fill="#64CDFF"/>
<path d="M205.977 208.411C205.977 208.786 205.865 209.152 205.657 209.464C205.449 209.775 205.153 210.018 204.806 210.161C204.46 210.305 204.078 210.342 203.711 210.269C203.343 210.196 203.005 210.016 202.74 209.751C202.475 209.486 202.294 209.148 202.221 208.781C202.148 208.414 202.185 208.033 202.329 207.687C202.472 207.341 202.715 207.045 203.027 206.837C203.339 206.629 203.706 206.518 204.081 206.518C204.583 206.518 205.066 206.717 205.421 207.072C205.777 207.427 205.977 207.909 205.977 208.411Z" fill="#64CDFF"/>
<path d="M197.649 208.411C197.649 208.786 197.538 209.152 197.33 209.464C197.122 209.775 196.825 210.018 196.479 210.161C196.133 210.305 195.751 210.342 195.384 210.269C195.016 210.196 194.678 210.016 194.413 209.751C194.148 209.486 193.967 209.148 193.894 208.781C193.821 208.414 193.858 208.033 194.002 207.687C194.145 207.341 194.388 207.045 194.7 206.837C195.012 206.629 195.378 206.518 195.753 206.518C196.256 206.518 196.739 206.717 197.094 207.072C197.45 207.427 197.649 207.909 197.649 208.411Z" fill="#64CDFF"/>
<path d="M189.323 208.411C189.323 208.786 189.212 209.152 189.004 209.464C188.795 209.775 188.499 210.018 188.153 210.161C187.806 210.305 187.425 210.342 187.057 210.269C186.69 210.196 186.352 210.016 186.087 209.751C185.821 209.486 185.641 209.148 185.568 208.781C185.495 208.414 185.532 208.033 185.676 207.687C185.819 207.341 186.062 207.045 186.374 206.837C186.686 206.629 187.052 206.518 187.427 206.518C187.93 206.518 188.412 206.717 188.768 207.072C189.123 207.427 189.323 207.909 189.323 208.411Z" fill="#64CDFF"/>
<path d="M314.64 161.095H272.968V189.811H314.64V161.095Z" fill="#64CDFF"/>
<path opacity="0.7" d="M291.067 161.095H283.617V171.645H291.067V161.095Z" fill="white"/>
<path opacity="0.2" d="M314.649 161.095H301.653V189.811H314.649V161.095Z" fill="#072A50"/>
<path opacity="0.7" d="M310.225 161.095H306.069V171.645H310.225V161.095Z" fill="#64CDFF"/>
<path d="M280.987 181.802V186.489H276.294V181.802H280.987ZM281.714 181.068H275.56V187.215H281.714V181.068Z" fill="white"/>
<path opacity="0.4" d="M290.459 181.068H284.305V187.215H290.459V181.068Z" fill="#2855AF"/>
<path d="M160.18 165.837H147.951C147.611 165.837 147.335 166.113 147.335 166.453V189.188C147.335 189.528 147.611 189.803 147.951 189.803H160.18C160.521 189.803 160.797 189.528 160.797 189.188V166.453C160.797 166.113 160.521 165.837 160.18 165.837Z" fill="#2855AF"/>
<path d="M147.232 165.837H159.454C159.617 165.837 159.774 165.902 159.89 166.018C160.005 166.133 160.07 166.29 160.07 166.453V189.18C160.07 189.343 160.005 189.5 159.89 189.615C159.774 189.731 159.617 189.796 159.454 189.796H147.232C147.067 189.796 146.908 189.73 146.791 189.613C146.674 189.496 146.608 189.337 146.608 189.172V166.445C146.609 166.364 146.626 166.284 146.658 166.21C146.69 166.136 146.736 166.069 146.794 166.012C146.852 165.956 146.921 165.911 146.996 165.881C147.071 165.851 147.152 165.836 147.232 165.837Z" fill="#64CDFF"/>
<path d="M159.351 188.509V167.139C159.351 166.826 159.096 166.571 158.782 166.571H147.919C147.605 166.571 147.35 166.826 147.35 167.139V188.509C147.35 188.823 147.605 189.077 147.919 189.077H158.782C159.096 189.077 159.351 188.823 159.351 188.509Z" fill="white"/>
<path opacity="0.2" d="M153.11 166.571H150.629L148.765 189.077H151.253L153.11 166.571Z" fill="#64CDFF"/>
<path opacity="0.2" d="M155.598 166.571H153.986L152.13 189.077H153.734L155.598 166.571Z" fill="#64CDFF"/>
<path d="M148.323 143.197H128.344C128.245 143.203 128.147 143.184 128.057 143.144C127.967 143.103 127.888 143.042 127.827 142.964C127.766 142.887 127.724 142.796 127.705 142.699C127.687 142.602 127.692 142.503 127.72 142.408L132.902 114.788C132.943 114.573 133.056 114.377 133.222 114.234C133.389 114.091 133.599 114.008 133.818 113.999H153.79C153.888 113.994 153.987 114.013 154.077 114.054C154.167 114.094 154.246 114.155 154.308 114.232C154.369 114.31 154.412 114.4 154.432 114.497C154.451 114.593 154.448 114.693 154.422 114.788L149.239 142.408C149.198 142.624 149.085 142.819 148.919 142.963C148.753 143.106 148.542 143.189 148.323 143.197Z" fill="#64CDFF"/>
<path d="M147.612 142.037H128.81C128.719 142.041 128.629 142.024 128.546 141.986C128.462 141.949 128.389 141.893 128.332 141.823C128.274 141.752 128.234 141.669 128.214 141.58C128.194 141.491 128.196 141.399 128.218 141.311L133.092 115.27C133.136 115.069 133.245 114.889 133.402 114.758C133.56 114.627 133.756 114.551 133.961 114.544H152.763C152.854 114.54 152.945 114.557 153.028 114.594C153.111 114.631 153.184 114.687 153.242 114.758C153.299 114.828 153.34 114.911 153.359 115C153.379 115.089 153.378 115.181 153.356 115.27L148.473 141.311C148.433 141.511 148.325 141.692 148.169 141.823C148.013 141.955 147.817 142.03 147.612 142.037Z" fill="white"/>
<path d="M97.7612 112.856L103.582 116.039L103.508 116.197L103.508 116.197L103.506 116.202L103.293 116.684L103.293 116.684L103.291 116.688L102.872 117.682L102.872 117.682L102.87 117.688C102.599 118.379 102.345 119.086 102.114 119.809C102.114 119.81 102.114 119.81 102.114 119.81L102.352 119.886M97.7612 112.856L100.868 124.217M97.7612 112.856C97.6942 112.984 97.6408 113.087 97.5863 113.193C97.5597 113.245 97.5329 113.297 97.5041 113.353L97.1983 113.995C97.0466 114.322 96.9143 114.644 96.7801 114.97C96.7426 115.061 96.7049 115.153 96.6666 115.245C96.336 116.087 96.0226 116.924 95.7567 117.76L95.7559 117.763L95.7559 117.763C95.2071 119.428 94.7639 121.125 94.4287 122.846L94.4285 122.847C93.7528 126.235 93.4078 129.681 93.3984 133.136L97.7612 112.856ZM102.352 119.886C101.886 121.314 101.451 122.774 101.112 124.274M102.352 119.886C102.581 119.168 102.834 118.466 103.102 117.779L102.352 119.886ZM101.112 124.274L100.868 124.216C100.868 124.217 100.868 124.217 100.868 124.217M101.112 124.274L100.868 124.218C100.868 124.218 100.868 124.218 100.868 124.217M101.112 124.274C100.4 127.279 99.9197 130.334 99.6738 133.412L99.6065 134.269C99.592 134.272 99.5859 134.273 99.5859 134.273C99.586 134.273 99.5862 134.273 99.5867 134.273C99.5886 134.273 99.5938 134.272 99.6014 134.272C99.6027 134.272 99.6043 134.272 99.6062 134.272L99.5869 134.517C99.5869 134.523 99.6002 134.524 99.6251 134.52L99.8362 134.536L99.842 134.462C100.131 134.374 100.624 134.201 101.108 134.032C101.586 133.864 102.055 133.7 102.305 133.625C105.296 132.678 108.22 131.532 111.058 130.192M100.868 124.217C100.154 127.234 99.6715 130.302 99.4246 133.392L99.4246 133.392L99.3377 134.497L99.3369 134.507V134.517C99.3369 134.6 99.3765 134.67 99.4319 134.715C99.477 134.751 99.5226 134.762 99.5429 134.766C99.5846 134.775 99.6208 134.772 99.6341 134.771C99.6684 134.767 99.7056 134.759 99.7368 134.751C99.8035 134.735 99.8939 134.708 99.9973 134.676C100.206 134.609 100.489 134.512 100.788 134.408C100.922 134.361 101.059 134.313 101.195 134.266C101.673 134.099 102.133 133.937 102.376 133.864L102.376 133.864L102.38 133.863C105.312 132.935 108.181 131.816 110.966 130.512M111.058 130.192L110.847 130.327L110.966 130.512M111.058 130.192L112.97 133.167L110.966 130.512M111.058 130.192L111.164 130.418C111.098 130.45 111.032 130.481 110.966 130.512M94.1833 122.798C93.5045 126.202 93.1579 129.665 93.1484 133.136L94.1833 122.798ZM94.1833 122.798C94.5205 121.067 94.9664 119.359 95.5184 117.684L94.1833 122.798ZM99.6415 134.517C99.6837 134.508 99.7488 134.49 99.8315 134.465C99.835 134.482 99.8369 134.499 99.8369 134.517H99.6415Z" fill="white" stroke="#2855AF" stroke-width="0.5"/>
<path d="M110.12 96.2832C109.943 93.4982 109.4 90.5781 109.005 88.5114L117.258 96.091C116.875 97.6612 116.655 99.321 117.111 100.743C117.584 102.224 118.771 103.397 121.099 103.967C121.127 103.996 121.167 104.037 121.214 104.089C121.314 104.199 121.447 104.355 121.581 104.542C121.856 104.925 122.109 105.401 122.129 105.851C122.139 106.07 122.094 106.28 121.97 106.478C121.846 106.677 121.63 106.879 121.272 107.06C120.549 107.427 119.286 107.689 117.181 107.689C113.381 107.689 111.236 106.653 110.044 105.649C109.447 105.145 109.083 104.643 108.87 104.272C108.763 104.086 108.694 103.933 108.652 103.828C108.649 103.821 108.646 103.814 108.644 103.807C109.354 103.064 109.763 101.969 109.978 100.715C110.205 99.39 110.22 97.8522 110.12 96.2832Z" fill="white" stroke="#2855AF" stroke-width="0.5"/>
<path d="M106.65 105.185C106.65 105.185 105.908 102.817 105.631 101.436C105.355 100.055 115.735 100.497 119.172 101.381C122.608 102.265 123.707 106.282 123.707 106.282L106.65 105.185Z" fill="#2855AF"/>
<path d="M126.607 90.6195L127.13 88.087C127.352 88.9714 127.652 89.8349 128.028 90.6674C127.807 90.7353 127.577 90.7679 127.345 90.7634C127.092 90.7586 126.842 90.7097 126.607 90.6195Z" fill="white" stroke="#2855AF" stroke-width="0.5"/>
<path d="M125.902 82.6233C125.853 82.6095 125.81 82.5821 125.776 82.5444C125.744 82.5143 125.72 82.4781 125.703 82.4381C125.686 82.3981 125.677 82.3551 125.677 82.3116C125.677 82.2682 125.686 82.2252 125.703 82.1852C125.72 82.1452 125.744 82.109 125.776 82.0788C126.14 81.7002 126.59 81.415 127.087 81.2473C127.585 81.0797 128.116 81.0347 128.636 81.1161C128.678 81.1245 128.718 81.1413 128.753 81.1654C128.789 81.1895 128.82 81.2204 128.843 81.2564C128.867 81.2924 128.883 81.3328 128.891 81.3751C128.898 81.4174 128.898 81.4608 128.888 81.5028C128.869 81.5886 128.817 81.6633 128.743 81.7107C128.669 81.758 128.579 81.7741 128.493 81.7553C128.082 81.699 127.664 81.7412 127.272 81.8784C126.881 82.0156 126.528 82.2439 126.242 82.5444C126.199 82.5886 126.144 82.6195 126.084 82.6335C126.023 82.6474 125.96 82.6439 125.902 82.6233Z" fill="#2855AF"/>
<path d="M126.835 85.8116C126.717 86.364 126.914 86.869 127.278 86.94C127.641 87.0111 128.02 86.6323 128.139 86.0799C128.257 85.5275 128.052 85.0224 127.688 84.9514C127.325 84.8804 126.946 85.2592 126.835 85.8116Z" fill="#2855AF"/>
<path d="M127.522 84.9201L128.929 84.8174C128.929 84.8174 128.036 85.7101 127.522 84.9201Z" fill="#2855AF"/>
<path d="M81.9918 288.711L79.833 304.357H73.3619L75.5131 288.711H81.9918Z" fill="white" stroke="#2855AF" stroke-width="0.5"/>
<path d="M81.244 299.825H73.3993C73.2644 299.823 73.1335 299.87 73.0305 299.957C72.9275 300.044 72.8593 300.165 72.8384 300.298L71.9457 306.493C71.9291 306.65 71.9457 306.809 71.9945 306.959C72.0433 307.11 72.1232 307.248 72.2289 307.366C72.3347 307.483 72.464 307.577 72.6084 307.642C72.7529 307.706 72.9093 307.74 73.0675 307.74C75.8009 307.692 77.1202 307.527 80.5725 307.527C82.6897 307.527 85.7865 307.748 88.7174 307.748C91.6483 307.748 91.8063 304.852 90.5897 304.591C85.115 303.415 84.2697 301.798 82.4053 300.251C82.08 299.978 81.6691 299.827 81.244 299.825Z" fill="#2855AF"/>
<path opacity="0.2" d="M75.295 288.461H82.2786L81.1252 296.787H74.1416L75.295 288.461Z" fill="#072A50"/>
<path d="M99.5793 105.39C96.7511 106.289 94.626 116.958 94.626 116.958L103.592 124.85C103.592 124.85 109.462 114.473 107.756 111.016C105.97 107.441 102.921 104.332 99.5793 105.39Z" fill="#2855AF"/>
<path d="M133.858 110.961C133.858 115.436 134.024 123.753 131.101 138.581C130.572 141.272 131.622 142.463 131.148 145.218C130.84 147.009 129.837 146.748 129.695 147.585H101.342C101.342 146.741 100.101 146.291 99.817 144.476C99.1534 140.301 101.571 139.954 101.492 137.326C101.294 130.697 100.33 123.248 97.4233 110.164C97.2756 109.525 97.2624 108.862 97.3845 108.218C97.5066 107.574 97.7615 106.962 98.1328 106.421C98.5042 105.88 98.984 105.422 99.5418 105.076C100.1 104.73 100.723 104.504 101.373 104.411C103.411 104.119 105.868 103.835 108.349 103.709C112.633 103.405 116.934 103.405 121.218 103.709C123.73 103.938 126.4 104.333 128.557 104.688C130.044 104.93 131.396 105.696 132.368 106.846C133.34 107.997 133.868 109.456 133.858 110.961Z" fill="#2855AF"/>
<path opacity="0.4" d="M132.775 123.864C132.594 125.852 132.72 128.093 132.404 130.627C127.719 128.259 127.072 122.199 128.509 119.129C130.172 120.473 131.611 122.071 132.775 123.864Z" fill="#072A50"/>
<path d="M148.917 134.838L148.916 134.839C147.873 136.331 146.659 137.695 145.299 138.905C144.895 139.25 144.464 139.564 144.012 139.844L144.01 139.845C143.449 140.201 142.84 140.476 142.202 140.661C141.215 140.944 140.162 140.895 139.206 140.52C138.229 140.103 137.415 139.378 136.888 138.457L136.888 138.457L136.886 138.453C135.982 136.934 135.172 135.362 134.458 133.745L134.458 133.745C133.082 130.634 131.885 127.447 130.874 124.2L130.874 124.2L130.873 124.197C130.361 122.623 129.88 120.993 129.447 119.372C129.417 119.261 129.387 119.151 129.358 119.04C128.974 117.605 128.595 116.187 128.263 114.707L134.736 113.194C135.509 116.183 136.342 119.259 137.221 122.253C138.122 125.325 139.088 128.402 140.221 131.316C140.653 132.459 140.819 133.303 140.933 133.878C140.961 134.023 140.987 134.151 141.012 134.263C141.043 134.398 141.077 134.526 141.125 134.628C141.172 134.729 141.252 134.848 141.396 134.902C141.539 134.954 141.679 134.917 141.787 134.87C141.896 134.823 142.015 134.746 142.144 134.652C143.389 133.85 144.561 132.94 145.647 131.932C146.772 130.937 147.926 129.856 148.996 128.806L152.162 130.596C151.779 131.27 151.252 131.949 150.692 132.628C150.545 132.807 150.395 132.987 150.245 133.167C149.774 133.731 149.304 134.293 148.917 134.838Z" fill="white" stroke="#2855AF" stroke-width="0.5"/>
<path d="M132.72 107.063C136.386 111.182 137.926 118.687 137.926 118.687L127.348 125.56C127.348 125.56 122.118 113.723 123.398 110.093C125.081 105.24 129.149 103.07 132.72 107.063Z" fill="#2855AF"/>
<path d="M151.367 123.522L151.367 123.523L151.368 123.514C151.373 123.479 151.411 123.405 151.517 123.337C151.618 123.272 151.74 123.24 151.846 123.253C151.94 123.264 152.034 123.312 152.106 123.442C152.183 123.582 152.242 123.832 152.203 124.253L152.202 124.257L152.2 124.28L152.19 124.365C152.181 124.437 152.169 124.539 152.156 124.659C152.13 124.897 152.099 125.205 152.078 125.481C152.067 125.62 152.059 125.752 152.056 125.865C152.053 125.972 152.053 126.079 152.064 126.156C152.067 126.176 152.072 126.202 152.08 126.227C152.086 126.249 152.102 126.294 152.14 126.337C152.186 126.39 152.274 126.446 152.388 126.424C152.475 126.407 152.526 126.353 152.544 126.333C152.584 126.287 152.611 126.23 152.627 126.19C152.647 126.143 152.668 126.085 152.69 126.016L152.693 126.006L152.695 125.995C152.857 125.279 153.094 124.84 153.333 124.606C153.56 124.382 153.785 124.344 153.987 124.411C154.207 124.482 154.448 124.693 154.644 125.06C154.838 125.422 154.975 125.916 154.998 126.51C155.013 126.913 155.013 127.416 155.009 127.82C155.007 128.021 155.004 128.197 155.002 128.323C155.001 128.385 155 128.436 154.999 128.47L154.998 128.509L154.998 128.52L154.998 128.522L154.998 128.523L154.998 128.523L154.998 128.523L154.997 128.539L154.999 128.555C155.019 128.752 154.992 128.952 154.92 129.138C154.848 129.322 154.734 129.487 154.586 129.619L154.434 129.748C154.338 129.823 154.24 129.901 154.141 129.979C153.722 130.311 153.278 130.662 152.813 130.969C152.273 131.324 151.726 131.604 151.187 131.714L148.291 129.394C148.823 127.809 149.439 127.045 149.992 126.36L150.003 126.347C150.594 125.614 151.127 124.948 151.367 123.522Z" fill="white" stroke="#2855AF" stroke-width="0.5"/>
<path d="M108.929 80.1242L108.928 80.1258C108.877 80.4832 108.827 80.8294 108.779 81.1652C108.361 84.0599 108.054 86.1827 108.115 88.0377C108.183 90.0874 108.701 91.807 110.044 93.858L110.045 93.8596C114.02 100.029 122.405 99.686 125.329 93.4706C126.668 90.6151 127.625 86.6514 127.495 82.9054C127.365 79.1565 126.151 75.6777 123.212 73.7089L108.929 80.1242ZM108.929 80.1242C109.14 78.5738 109.743 77.1025 110.681 75.8491C111.618 74.5956 112.86 73.6012 114.289 72.9594C115.718 72.3177 117.287 72.0497 118.848 72.1809C120.409 72.312 121.911 72.8378 123.212 73.7089L108.929 80.1242Z" fill="white" stroke="#2855AF" stroke-width="0.5"/>
<path d="M122.379 85.2671C125.152 83.4758 128.083 80.9111 127.83 77.4231C127.577 73.9351 123.177 70.6523 117.117 70.6523C109.02 70.6523 109.352 75.908 109.352 75.908C107.772 76.1053 92.0348 90.0098 111.524 95.4075C131.013 100.805 122.379 85.2671 122.379 85.2671Z" fill="#2855AF"/>
<path d="M106.208 76.3892C106.208 76.3892 105.418 78.1253 105.679 78.9144C108.317 79.593 117.529 79.9876 122.166 79.1353C122.709 78.2056 123.388 77.3624 124.181 76.6338L106.208 76.3892Z" fill="white"/>
<path d="M105.465 77.2261C105.884 78.6386 121.889 77.8889 127.04 77.2261C128.273 77.0567 129.487 76.7714 130.666 76.3738V75.8372H128.462C128.462 75.8372 127.04 66.2176 117.26 66.2334C108.862 66.2887 103.94 72.0651 105.465 77.2261Z" fill="#64CDFF"/>
<path d="M119.472 65.7832C117.894 65.6595 116.309 65.6595 114.732 65.7832C113.199 66.2725 111.817 66.4934 109.929 69.4132L114.155 69.5553C114.155 69.5553 116.904 66.5013 119.646 66.4776C119.633 66.2371 119.574 66.0012 119.472 65.7832Z" fill="#64CDFF"/>
<path opacity="0.2" d="M112.868 76.0106H112.828C112.79 76.0058 112.753 75.9933 112.719 75.974C112.685 75.9546 112.656 75.9288 112.632 75.8979C112.609 75.867 112.592 75.8318 112.582 75.7943C112.572 75.7567 112.57 75.7176 112.576 75.6792C113.674 68.6243 118.785 66.2096 119.006 66.1465C119.041 66.1307 119.079 66.1221 119.118 66.1212C119.157 66.1202 119.195 66.1269 119.231 66.1408C119.267 66.1548 119.3 66.1757 119.328 66.2024C119.356 66.2291 119.378 66.261 119.393 66.2964C119.41 66.3309 119.42 66.3686 119.422 66.4071C119.424 66.4456 119.419 66.484 119.405 66.5202C119.392 66.5564 119.371 66.5895 119.345 66.6175C119.318 66.6455 119.287 66.6678 119.251 66.6831C119.196 66.6831 114.211 69.0505 113.16 75.766C113.151 75.8357 113.115 75.8993 113.061 75.9445C113.007 75.9897 112.938 76.0133 112.868 76.0106Z" fill="#072A50"/>
<path d="M121.706 88.4791L121.706 88.4791L121.704 88.4751C121.327 87.8013 121.018 86.8276 120.959 85.874C120.9 84.9148 121.096 84.0301 121.662 83.4721C122.235 82.9066 122.889 82.8102 123.456 83.0232C124.034 83.2402 124.552 83.7918 124.794 84.5816C125.196 85.9387 125.11 87.3936 124.551 88.6942C124.188 89.5105 123.664 89.7627 123.184 89.7053C122.673 89.6442 122.106 89.2247 121.706 88.4791Z" fill="white" stroke="#2855AF" stroke-width="0.5"/>
<path d="M122.205 147.617C122.205 147.617 109.913 195.478 101.065 222.45C93.9154 244.238 82.4683 295.161 82.4683 295.161H72.9883C72.9883 295.161 78.1075 245.761 83.5427 224.21C97.2966 169.681 88.338 165.246 101.381 147.617H122.205Z" fill="#64CDFF"/>
<path opacity="0.4" d="M109.384 162.61C105.268 177.603 105.584 193.962 107.346 201.98C109.89 193.252 112.433 184.137 114.677 175.938C113.903 171.488 111.541 166.319 109.384 162.61Z" fill="#072A50"/>
<path d="M83.8667 295.351H71.7402L72.0641 291.097L84.9885 290.663L83.8667 295.351Z" fill="#2855AF"/>
<path d="M119.755 288.695H126.238L126.766 304.341H120.283L119.755 288.695Z" fill="white" stroke="#2855AF" stroke-width="0.5"/>
<path d="M127.578 299.825H119.733C119.599 299.822 119.468 299.868 119.366 299.956C119.264 300.043 119.198 300.165 119.18 300.298L118.287 306.493C118.27 306.65 118.285 306.809 118.333 306.959C118.381 307.109 118.46 307.248 118.565 307.365C118.67 307.483 118.799 307.577 118.943 307.642C119.087 307.706 119.243 307.74 119.401 307.74C122.135 307.693 123.454 307.527 126.906 307.527C129.024 307.527 132.128 307.748 135.059 307.748C137.99 307.748 138.14 304.852 136.924 304.591C131.449 303.415 130.604 301.798 128.747 300.251C128.419 299.978 128.005 299.827 127.578 299.825Z" fill="#2855AF"/>
<path opacity="0.2" d="M119.496 288.445H126.48L126.756 296.771H119.773L119.496 288.445Z" fill="#072A50"/>
<path d="M129.695 147.617C129.695 147.617 129.695 195.478 127.807 222.45C126.267 244.238 127.926 295.161 127.926 295.161H118.406C118.406 295.161 110.814 245.761 110.704 224.21C110.427 169.681 100.323 165.246 108.831 147.617H129.695Z" fill="#64CDFF"/>
<path d="M129.229 295.351H117.103L116.463 291.097L129.292 290.663L129.229 295.351Z" fill="#2855AF"/>
<path d="M100.915 145.951L99.6348 148.492C99.54 148.69 99.7691 148.887 100.101 148.887H129.829C130.089 148.887 130.303 148.761 130.318 148.603L130.571 146.07C130.571 145.888 130.366 145.738 130.089 145.738H101.381C101.291 145.731 101.201 145.746 101.12 145.784C101.038 145.821 100.967 145.879 100.915 145.951Z" fill="white"/>
<path d="M104.77 149.163H103.98C103.83 149.163 103.711 149.084 103.719 148.989L104.083 145.691C104.083 145.596 104.225 145.517 104.375 145.517H105.165C105.315 145.517 105.433 145.596 105.426 145.691L105.062 148.989C105.07 149.084 104.928 149.163 104.77 149.163Z" fill="#2855AF"/>
<path d="M123.413 149.163H122.623C122.473 149.163 122.355 149.084 122.363 148.989L122.726 145.691C122.726 145.596 122.868 145.517 123.026 145.517H123.816C123.966 145.517 124.085 145.596 124.077 145.691L123.714 148.989C123.698 149.084 123.563 149.163 123.413 149.163Z" fill="#2855AF"/>
<g filter="url(#filter0_d)">
<circle cx="196.5" cy="43.5" r="13.5" fill="url(#paint0_radial)"/>
</g>
<g filter="url(#filter1_d)">
<circle cx="312" cy="86" r="29" fill="url(#paint1_radial)"/>
</g>
<defs>
<filter id="filter0_d" x="143" y="0" width="107" height="107" filterUnits="userSpaceOnUse" color-interpolation-filters="sRGB">
<feFlood flood-opacity="0" result="BackgroundImageFix"/>
<feColorMatrix in="SourceAlpha" type="matrix" values="0 0 0 0 0 0 0 0 0 0 0 0 0 0 0 0 0 0 127 0"/>
<feOffset dy="10"/>
<feGaussianBlur stdDeviation="20"/>
<feColorMatrix type="matrix" values="0 0 0 0 0.156863 0 0 0 0 0.333333 0 0 0 0 0.686275 0 0 0 0.1 0"/>
<feBlend mode="normal" in2="BackgroundImageFix" result="effect1_dropShadow"/>
<feBlend mode="normal" in="SourceGraphic" in2="effect1_dropShadow" result="shape"/>
</filter>
<filter id="filter1_d" x="243" y="27" width="138" height="138" filterUnits="userSpaceOnUse" color-interpolation-filters="sRGB">
<feFlood flood-opacity="0" result="BackgroundImageFix"/>
<feColorMatrix in="SourceAlpha" type="matrix" values="0 0 0 0 0 0 0 0 0 0 0 0 0 0 0 0 0 0 127 0"/>
<feOffset dy="10"/>
<feGaussianBlur stdDeviation="20"/>
<feColorMatrix type="matrix" values="0 0 0 0 0.156863 0 0 0 0 0.333333 0 0 0 0 0.686275 0 0 0 0.1 0"/>
<feBlend mode="normal" in2="BackgroundImageFix" result="effect1_dropShadow"/>
<feBlend mode="normal" in="SourceGraphic" in2="effect1_dropShadow" result="shape"/>
</filter>
<radialGradient id="paint0_radial" cx="0" cy="0" r="1" gradientUnits="userSpaceOnUse" gradientTransform="translate(191.99 35.7007) rotate(52.2481) scale(17.9061)">
<stop stop-color="#8AAEF4"/>
<stop offset="1" stop-color="#2855AF"/>
</radialGradient>
<radialGradient id="paint1_radial" cx="0" cy="0" r="1" gradientUnits="userSpaceOnUse" gradientTransform="translate(302.311 69.2459) rotate(52.2481) scale(38.4649)">
<stop stop-color="#8AAEF4"/>
<stop offset="1" stop-color="#2855AF"/>
</radialGradient>
</defs>
</svg>
