<svg width="100" height="100" viewBox="0 0 100 100" fill="none" xmlns="http://www.w3.org/2000/svg">
<circle cx="50" cy="50" r="50" fill="white"/>
<path d="M50.5 23C35.3406 23 23 35.3315 23 50.5C23 65.6594 35.3406 78 50.5 78C65.6594 78 78 65.6594 78 50.5C78 35.3292 65.6594 23 50.5 23ZM25.7729 50.4977C25.7729 46.9158 26.536 43.5127 27.9133 40.4396L39.7108 72.7521C31.4585 68.7394 25.7729 60.2808 25.7729 50.4977ZM50.5 75.2271C48.0708 75.2271 45.731 74.8719 43.515 74.2165L50.9331 52.661L58.53 73.4854C58.585 73.6092 58.6423 73.7169 58.7065 73.8292C56.1444 74.7275 53.3829 75.2271 50.5 75.2271ZM53.9031 38.9156V38.9133C55.3881 38.8354 56.7288 38.6819 56.7288 38.6819C58.0602 38.526 57.9044 36.5644 56.5729 36.64C56.5729 36.64 52.5694 36.9494 49.9867 36.9494C47.5575 36.9494 43.476 36.64 43.476 36.64C42.1469 36.5621 41.9933 38.604 43.3225 38.6819C43.3225 38.6819 44.5852 38.8377 45.9167 38.9133L49.7644 49.4688L44.3538 65.6915L35.3521 38.9133C36.8394 38.8354 38.18 38.6819 38.18 38.6819C39.5115 38.526 39.3556 36.5644 38.0242 36.64C38.0242 36.64 34.0206 36.9494 31.4379 36.9494C30.9727 36.9494 30.4273 36.9379 29.8406 36.9173C34.2658 30.2073 41.8604 25.7729 50.5 25.7729C56.9327 25.7729 62.7971 28.2365 67.1994 32.2583C67.0871 32.2469 66.9885 32.2377 66.8785 32.2377C64.4494 32.2377 62.7306 34.3552 62.7306 36.6285C62.7306 38.6681 63.9062 40.3869 65.1598 42.4287C66.1017 44.0696 67.2017 46.1871 67.2017 49.2488C67.2017 51.3663 66.3927 53.816 65.3156 57.2444L62.8521 65.4829L53.9031 38.9156ZM72.2021 38.636C74.1317 42.1629 75.2294 46.1985 75.2294 50.5023C75.2294 59.6277 70.284 67.589 62.9323 71.8698L62.93 71.8675L70.481 50.0325C71.8881 46.5056 72.3671 43.6915 72.3671 41.1729C72.3671 40.2654 72.3121 39.4221 72.2021 38.636V38.636Z" fill="#2855AF" stroke="white"/>
</svg>
