<svg width="100" height="100" viewBox="0 0 100 100" fill="none" xmlns="http://www.w3.org/2000/svg">
<circle cx="50" cy="50" r="50" fill="white"/>
<path d="M52.0445 49.3561L52.0445 49.3562L53.6964 64.2026L53.7891 65.0356H52.951H47.9065H47.0684L47.1611 64.2026L48.813 49.3562L48.813 49.3561C48.9116 48.4706 48.4417 47.6184 47.6353 47.2263C45.3792 46.1327 43.9647 43.9126 43.9647 41.4287L52.0445 49.3561ZM52.0445 49.3561C51.9459 48.4708 52.4158 47.6184 53.2222 47.2263C55.4783 46.1327 56.8928 43.9126 56.8928 41.4286C56.8928 37.8644 53.9928 34.9644 50.4286 34.9644M52.0445 49.3561L50.4286 34.9644M50.4286 34.9644C46.8644 34.9644 43.9644 37.8644 43.9647 41.4286L50.4286 34.9644ZM44.4219 50.7024L44.4701 50.2694L44.1177 50.013C41.383 48.0239 39.75 44.8807 39.75 41.4286C39.75 35.5399 44.5397 30.75 50.4286 30.75C56.3176 30.75 61.1072 35.5399 61.1072 41.4286C61.1072 44.8808 59.4744 48.0239 56.7398 50.013L56.3874 50.2694L56.4356 50.7024L58.238 66.9102C58.238 66.9102 58.238 66.9102 58.238 66.9103C58.238 66.9103 58.238 66.9104 58.238 66.9104C58.3038 67.5044 58.1125 68.1018 57.7129 68.5486C57.3142 68.9945 56.742 69.25 56.1431 69.25H44.7144C44.1155 69.25 43.5434 68.9945 43.1447 68.5488C42.7451 68.1017 42.5539 67.5043 42.6195 66.9104C42.6195 66.9103 42.6195 66.9103 42.6195 66.9102C42.6195 66.9101 42.6195 66.91 42.6195 66.91L44.4219 50.7024Z" fill="#2855AF" stroke="white" stroke-width="1.5"/>
</svg>
