<svg width="100" height="100" viewBox="0 0 100 100" fill="none" xmlns="http://www.w3.org/2000/svg">
<circle cx="50" cy="50" r="50" fill="white"/>
<path d="M60.6517 30.2106C62.7956 27.8217 65.8871 26.188 68.6211 26.0111C71.8698 27.6211 74.7455 31.6792 74.6047 37.2987C74.3728 40.8077 72.8455 44.1312 70.5173 47.3504C68.5476 50.0738 66.0356 52.6807 63.3283 55.2199C62.7411 48.9 61.0222 44.4248 58.5348 38.4954C57.4332 35.6794 58.4537 32.6599 60.6517 30.2106Z" stroke="#2855AF" stroke-width="2"/>
<path d="M47.6528 58.7321C49.3859 56.7849 50.7053 55.0025 51.6975 53.3521C53.9863 54.6252 55.0933 55.2814 55.9391 55.9037C56.6644 56.4375 57.1933 56.9411 58.1287 57.8316C58.3381 58.0309 58.5678 58.2496 58.8247 58.4924C59.0103 62.7147 55.6287 72.637 42.071 74.4275C41.4936 67.8732 44.5545 62.2595 47.6528 58.7321Z" stroke="#2855AF" stroke-width="2"/>
<path d="M52.2458 38.5311L52.2459 38.5312C52.8615 39.2867 53.4465 40.0719 53.9995 40.8806C54.2118 41.2715 54.5605 41.7757 54.9892 42.3953C56.6321 44.7704 59.449 48.8427 60.2576 54.7398C56.2088 50.9023 51.5936 49.5938 49.711 49.0601C49.4583 48.9884 49.2548 48.9307 49.1086 48.8828C46.4683 48.0166 43.9675 47.364 40.9732 46.5825C39.9205 46.3078 38.8068 46.0171 37.6046 45.6957L37.5951 45.6932L37.5856 45.6908C32.2937 44.3866 29.0729 41.7135 27.2166 38.7459C25.4921 35.989 24.9104 32.9208 25.0109 30.3456C35.142 27.027 45.9483 30.8009 52.2458 38.5311Z" stroke="#2855AF" stroke-width="2"/>
</svg>
