<svg width="100" height="100" viewBox="0 0 100 100" fill="none" xmlns="http://www.w3.org/2000/svg">
<circle cx="50" cy="50" r="50" fill="white"/>
<path fill-rule="evenodd" clip-rule="evenodd" d="M76.489 35.231C76.5085 35.3031 76.5185 35.3774 76.5187 35.4521V47.0571C76.5187 47.206 76.4793 47.3523 76.4047 47.4812C76.33 47.6101 76.2227 47.717 76.0935 47.7911L66.3532 53.399V64.5143C66.3532 64.8168 66.1924 65.096 65.9301 65.2483L45.5981 76.9527C45.5515 76.9792 45.5008 76.9961 45.45 77.0141C45.431 77.0204 45.413 77.0321 45.3929 77.0374C45.2508 77.0748 45.1014 77.0748 44.9592 77.0374C44.936 77.031 44.9148 77.0183 44.8926 77.0099C44.8461 76.9929 44.7974 76.9781 44.753 76.9527L24.4252 65.2483C24.2961 65.1741 24.1888 65.0672 24.1141 64.9384C24.0395 64.8095 24.0001 64.6632 24 64.5143V29.6993C24 29.6231 24.0106 29.5491 24.0296 29.4772C24.036 29.4528 24.0508 29.4306 24.0592 29.4063C24.0751 29.3619 24.0899 29.3164 24.1132 29.2752C24.129 29.2477 24.1523 29.2254 24.1713 29.2001C24.1957 29.1662 24.2179 29.1313 24.2464 29.1017C24.2708 29.0774 24.3025 29.0594 24.33 29.0382C24.3607 29.0128 24.3882 28.9853 24.4231 28.9652H24.4241L34.5886 23.113C34.7173 23.039 34.8631 23 35.0116 23C35.1601 23 35.306 23.039 35.4347 23.113L45.5991 28.9652H45.6012C45.6351 28.9864 45.6637 29.0128 45.6943 29.0372C45.7218 29.0583 45.7525 29.0774 45.7768 29.1006C45.8064 29.1313 45.8276 29.1662 45.853 29.2001C45.871 29.2254 45.8953 29.2477 45.9101 29.2752C45.9344 29.3175 45.9482 29.3619 45.9651 29.4063C45.9736 29.4306 45.9884 29.4528 45.9947 29.4782C46.0142 29.5503 46.0241 29.6246 46.0243 29.6993V51.4444L54.4943 46.5674V35.451C54.4943 35.377 54.5049 35.3019 54.5239 35.231C54.5313 35.2056 54.5451 35.1834 54.5536 35.1591C54.5705 35.1147 54.5853 35.0692 54.6086 35.0279C54.6244 35.0004 54.6477 34.9782 54.6657 34.9528C54.6911 34.919 54.7122 34.8841 54.7418 34.8545C54.7662 34.8302 54.7968 34.8122 54.8243 34.791C54.8561 34.7656 54.8836 34.7381 54.9174 34.718H54.9185L65.0839 28.8658C65.2126 28.7917 65.3585 28.7526 65.507 28.7526C65.6555 28.7526 65.8014 28.7917 65.9301 28.8658L76.0945 34.718C76.1305 34.7392 76.158 34.7656 76.1897 34.79C76.2162 34.8111 76.2468 34.8302 76.2712 34.8534C76.3008 34.8841 76.3219 34.919 76.3473 34.9528C76.3663 34.9782 76.3896 35.0004 76.4044 35.0279C76.4288 35.0692 76.4425 35.1147 76.4594 35.1591C76.4689 35.1834 76.4827 35.2056 76.489 35.231V35.231ZM74.8242 46.5674V36.917L71.2672 38.9647L66.3532 41.794V51.4444L74.8253 46.5674H74.8242ZM64.6598 64.0246V54.3678L59.8262 57.1284L46.0233 65.0061V74.7538L64.6598 64.0246ZM25.6944 31.1642V64.0246L44.3288 74.7527V65.0072L34.5938 59.4977L34.5907 59.4955L34.5864 59.4934C34.5537 59.4744 34.5262 59.4469 34.4955 59.4236C34.469 59.4025 34.4384 59.3855 34.4151 59.3623L34.413 59.3591C34.3855 59.3327 34.3664 59.2999 34.3432 59.2702C34.322 59.2417 34.2966 59.2174 34.2797 59.1877L34.2787 59.1846C34.2596 59.1528 34.248 59.1148 34.2342 59.0788C34.2205 59.0471 34.2025 59.0175 34.194 58.9836V58.9826C34.1835 58.9424 34.1813 58.9001 34.1771 58.8588C34.1729 58.8271 34.1644 58.7953 34.1644 58.7636V58.7615V36.0412L29.2514 33.2108L25.6944 31.1652V31.1642ZM35.0127 24.8244L26.5437 29.6993L35.0106 34.5742L43.4785 29.6982L35.0106 24.8244H35.0127ZM39.4169 55.2478L44.3299 52.4196V31.1642L40.7729 33.2119L35.8588 36.0412V57.2966L39.4169 55.2478ZM65.507 30.5772L57.0391 35.4521L65.507 40.327L73.9738 35.451L65.507 30.5772V30.5772ZM64.6598 41.794L59.7458 38.9647L56.1888 36.917V46.5674L61.1017 49.3956L64.6598 51.4444V41.794ZM45.175 63.5412L57.5955 56.4504L63.8041 52.9072L55.3426 48.0354L45.6002 53.6444L36.7209 58.7562L45.175 63.5412V63.5412Z" fill="#2855AF"/>
</svg>
