<svg width="100" height="100" viewBox="0 0 100 100" fill="none" xmlns="http://www.w3.org/2000/svg">
<circle cx="50" cy="50" r="50" fill="white"/>
<path d="M31.4673 31.2245L31.8636 30.8175L31.9822 40.9271C32.0524 46.9114 32.0956 50.0873 32.1935 51.9522C32.2938 53.8622 32.4569 54.4979 32.7867 55.3751C33.9691 58.5202 35.262 60.5704 37.4704 62.7665C43.1861 68.45 51.5936 69.88 58.741 66.3592C65.4421 63.0582 69.6798 55.8829 69.1862 48.5927C68.8569 43.7294 67.195 40.1206 63.674 36.583C61.0105 33.9068 57.8534 32.1375 54.3955 31.4151C54.2523 31.3852 54.1135 31.3559 53.9792 31.3276C53.366 31.1982 52.8474 31.0887 52.4423 31.0321C52.1904 30.9968 51.9291 30.9735 51.6792 30.9891C51.4266 31.0049 51.1241 31.0637 50.8397 31.2446C50.227 31.6344 50.114 32.3052 50.0741 32.7096C50.0386 33.0696 50.0401 33.5375 50.0417 34.0563C50.042 34.1678 50.0424 34.2816 50.0424 34.3973V36.8104V37.6432L50.8615 37.7939L51.278 37.8705C51.0866 37.9168 50.8928 38.001 50.7123 38.1441C50.1988 38.551 50.1127 39.1881 50.0783 39.5562C50.0417 39.9478 50.042 40.4591 50.0423 41.0439C50.0424 41.1026 50.0424 41.1621 50.0424 41.2223V43.626V44.394L50.7844 44.5921L52.001 44.9171C55.598 45.8776 56.7344 50.7553 53.881 53.2548C53.3318 53.7358 52.8555 54.0429 52.3352 54.2391C51.813 54.4359 51.1864 54.5435 50.3103 54.5435C48.6592 54.5435 47.0177 53.5347 46.1668 51.9364C45.6706 51.0042 45.6255 50.1119 45.6255 49.6879C45.6255 47.394 45.6007 44.1872 45.5758 41.5567C45.5634 40.2408 45.551 39.0681 45.5417 38.2243C45.537 37.8025 45.5331 37.4628 45.5304 37.2286L45.5273 36.9592L45.5264 36.8893L45.5262 36.8715L45.5262 36.8686L45.5262 36.8669L45.5262 36.8658L45.5262 36.8655L45.4488 23.5412C45.8962 23.4545 47.0835 23.2752 48.3104 23.1189C52.6934 22.5604 59.3223 24.01 63.7594 26.5449C69.7947 29.9928 74.3748 35.9271 76.2813 42.7915C76.6169 43.9998 76.7878 44.7258 76.8828 45.618C76.9801 46.5322 77 47.6412 77 49.6171C77 51.5836 76.9798 52.6949 76.8836 53.6069C76.7899 54.4964 76.6218 55.2153 76.294 56.3949C73.7012 65.7236 67.1274 72.3778 57.6778 75.2118C55.7467 75.7909 54.8865 75.9051 51.2949 75.9816C48.3736 76.0438 46.5731 75.9473 45.3947 75.7037C40.7476 74.7428 36.4195 72.6001 33.0321 69.5961C24.3104 61.8618 21.6122 49.7188 26.2248 38.8958C27.3442 36.2694 29.1779 33.5758 31.4673 31.2245Z" stroke="#2855AF" stroke-width="2"/>
</svg>
