<svg width="340" height="273" viewBox="0 0 340 273" fill="none" xmlns="http://www.w3.org/2000/svg">
<path d="M40.9688 9.66895V254.781" stroke="#2855AF" stroke-miterlimit="10"/>
<path d="M40.9688 0.21875V4.90874" stroke="#2855AF" stroke-miterlimit="10"/>
<path d="M130.227 0.21875V254.781" stroke="#2855AF" stroke-miterlimit="10"/>
<path d="M219.484 0.21875V254.781" stroke="#2855AF" stroke-miterlimit="10"/>
<path d="M308.738 36.5137V254.781" stroke="#2855AF" stroke-miterlimit="10"/>
<path d="M308.738 0.21875V30.3958" stroke="#2855AF" stroke-miterlimit="10"/>
<path d="M261.569 35.0088H57.1758V156.144H261.569V35.0088Z" fill="#2855AF"/>
<path d="M260.411 38.4531H58.3281V152.7H260.411V38.4531Z" fill="white" stroke="#2855AF" stroke-linecap="round" stroke-linejoin="round"/>
<path d="M262.716 32.9375H54.8438V39.4335H262.716V32.9375Z" fill="#2855AF"/>
<path d="M161.665 32.8462C164.893 32.8462 167.51 30.2293 167.51 27.0012C167.51 23.7731 164.893 21.1562 161.665 21.1562C158.437 21.1562 155.82 23.7731 155.82 27.0012C155.82 30.2293 158.437 32.8462 161.665 32.8462Z" fill="white" stroke="#2855AF" stroke-linecap="round" stroke-linejoin="round"/>
<path d="M164.746 27.0017C164.747 27.6112 164.568 28.2073 164.23 28.7148C163.893 29.2222 163.412 29.6181 162.849 29.8522C162.287 30.0864 161.667 30.1484 161.069 30.0304C160.471 29.9123 159.922 29.6195 159.491 29.1891C159.059 28.7586 158.765 28.2098 158.646 27.6122C158.526 27.0145 158.587 26.3949 158.82 25.8317C159.053 25.2685 159.447 24.787 159.954 24.4483C160.461 24.1095 161.056 23.9287 161.666 23.9287C162.482 23.9287 163.264 24.2522 163.841 24.8283C164.419 25.4044 164.744 26.1861 164.746 27.0017V27.0017Z" fill="#7CCCDB" stroke="#2855AF" stroke-miterlimit="10"/>
<path d="M95.0268 112.645H70.0508V87.3193H112.527V112.645H99.7798" stroke="#2855AF" stroke-miterlimit="10"/>
<path d="M137.467 124.77H103.566V144.986H137.467V124.77Z" stroke="#2855AF" stroke-miterlimit="10"/>
<path d="M174.883 87.3193H179.16V112.645H136.684V87.3193H170.809" stroke="#2855AF" stroke-miterlimit="10"/>
<path d="M140.218 50.2969H190.072V75.6299H125.777V50.2969H135.465" stroke="#2855AF" stroke-miterlimit="10"/>
<path d="M245.406 87.3193H202.93V112.645H245.406V87.3193Z" stroke="#2855AF" stroke-miterlimit="10"/>
<path d="M122.268 62.7705C122.268 62.7705 99.7284 65.8995 86.4844 84.9955" stroke="#2855AF" stroke-miterlimit="10"/>
<path d="M107.848 115.376L110.83 124.084" stroke="#2855AF" stroke-miterlimit="10"/>
<path d="M138.636 114.592L135.906 122.775" stroke="#2855AF" stroke-miterlimit="10"/>
<path d="M107.555 121.213L110.831 124.083L111.65 120.191" stroke="#2855AF" stroke-miterlimit="10"/>
<path d="M134.566 120.191L135.791 123.467L139.27 121.416" stroke="#2855AF" stroke-miterlimit="10"/>
<path d="M87.0934 81.1104L86.4844 84.9954L90.7754 82.3354" stroke="#2855AF" stroke-miterlimit="10"/>
<path d="M180.402 99.3174H201.682" stroke="#2855AF" stroke-miterlimit="10"/>
<path d="M197.184 96.6572L201.895 99.3172L197.597 101.977" stroke="#2855AF" stroke-miterlimit="10"/>
<path d="M113.23 99.3174H134.51" stroke="#2855AF" stroke-miterlimit="10"/>
<path d="M130.012 96.6572L134.716 99.3172L130.425 101.977" stroke="#2855AF" stroke-miterlimit="10"/>
<path d="M157.766 77.6523V84.1273" stroke="#2855AF" stroke-miterlimit="10"/>
<path d="M160.418 79.6191L157.758 84.3301L155.105 80.0321" stroke="#2855AF" stroke-miterlimit="10"/>
<path d="M201.48 106.969H181.012" stroke="#2855AF" stroke-miterlimit="10"/>
<path d="M185.338 104.309L180.816 106.969L184.946 109.629" stroke="#2855AF" stroke-miterlimit="10"/>
<path d="M139.07 58.1924H177.542" stroke="#2855AF" stroke-miterlimit="10"/>
<path d="M139.07 61.875H177.542" stroke="#2855AF" stroke-miterlimit="10"/>
<path d="M139.07 65.5566H177.542" stroke="#2855AF" stroke-miterlimit="10"/>
<path d="M73.9961 96.6572H108.583" stroke="#2855AF" stroke-miterlimit="10"/>
<path d="M73.9961 100.347H108.583" stroke="#2855AF" stroke-miterlimit="10"/>
<path d="M73.9961 104.028H108.583" stroke="#2855AF" stroke-miterlimit="10"/>
<path d="M141.121 96.6572H175.701" stroke="#2855AF" stroke-miterlimit="10"/>
<path d="M141.121 100.347H175.701" stroke="#2855AF" stroke-miterlimit="10"/>
<path d="M141.121 104.028H175.701" stroke="#2855AF" stroke-miterlimit="10"/>
<path d="M205.777 96.6572H240.357" stroke="#2855AF" stroke-miterlimit="10"/>
<path d="M205.777 100.347H240.357" stroke="#2855AF" stroke-miterlimit="10"/>
<path d="M205.777 104.028H240.357" stroke="#2855AF" stroke-miterlimit="10"/>
<path d="M107.969 131.65H134.366" stroke="#2855AF" stroke-miterlimit="10"/>
<path d="M107.969 135.333H134.366" stroke="#2855AF" stroke-miterlimit="10"/>
<path d="M107.969 139.021H134.366" stroke="#2855AF" stroke-miterlimit="10"/>
<path d="M225.023 61.4055C224.948 61.4039 224.876 61.3782 224.817 61.3324C224.757 61.2865 224.714 61.2229 224.694 61.1508C224.674 61.0787 224.677 61.002 224.704 60.932C224.73 60.8619 224.778 60.8022 224.841 60.7615L225.107 60.5935L225.009 60.6495C224.931 60.6832 224.844 60.6875 224.763 60.6615C224.682 60.6355 224.614 60.5811 224.57 60.5084C224.526 60.4356 224.511 60.3495 224.526 60.266C224.541 60.1826 224.586 60.1074 224.652 60.0545L226.052 59.1655L224.827 59.8655C224.749 59.9049 224.658 59.9133 224.574 59.8892C224.49 59.865 224.418 59.8101 224.372 59.7353C224.326 59.6605 224.31 59.5712 224.327 59.4851C224.344 59.399 224.392 59.3225 224.463 59.2705L226.969 57.6325L224.596 59.0325C224.518 59.0769 224.425 59.0893 224.338 59.0671C224.25 59.045 224.175 58.99 224.127 58.9135C224.081 58.8357 224.066 58.7432 224.086 58.6548C224.105 58.5665 224.158 58.4888 224.232 58.4375L228.138 55.8265L224.33 58.0176C224.254 58.0622 224.163 58.0754 224.077 58.0546C223.99 58.0337 223.916 57.9803 223.868 57.9055C223.843 57.8689 223.826 57.8276 223.817 57.784C223.808 57.7405 223.807 57.6957 223.816 57.6521C223.824 57.6084 223.841 57.5669 223.866 57.5299C223.89 57.4929 223.922 57.4612 223.959 57.4365L229.818 53.2366L223.966 56.6176C223.888 56.6619 223.795 56.6743 223.708 56.6521C223.62 56.63 223.545 56.575 223.497 56.4986C223.449 56.423 223.432 56.3317 223.451 56.2441C223.469 56.1565 223.521 56.0795 223.595 56.0295L227.795 53.1176L223.665 55.5045C223.589 55.5481 223.499 55.5615 223.414 55.5421C223.328 55.5227 223.253 55.4718 223.203 55.3995C223.155 55.324 223.138 55.2327 223.157 55.1451C223.175 55.0575 223.227 54.9805 223.301 54.9305L225.681 53.3275L223.434 54.6225C223.356 54.6669 223.263 54.6793 223.176 54.6571C223.088 54.635 223.013 54.58 222.965 54.5035C222.918 54.4272 222.902 54.3353 222.922 54.2476C222.941 54.1599 222.995 54.0834 223.07 54.0345L224.603 52.9986L223.203 53.8035C223.127 53.8392 223.04 53.8461 222.959 53.8229C222.878 53.7997 222.808 53.748 222.762 53.6773C222.716 53.6066 222.697 53.5216 222.708 53.4381C222.72 53.3545 222.762 53.278 222.825 53.2225L226.92 50.1915L222.867 52.5295C222.79 52.5708 222.701 52.5818 222.616 52.5605C222.532 52.5392 222.458 52.4871 222.41 52.4145C222.362 52.3418 222.342 52.2537 222.356 52.1675C222.369 52.0813 222.414 52.0033 222.482 51.9485L226.108 49.1485L222.503 51.1995C222.425 51.2429 222.334 51.2554 222.247 51.2347C222.16 51.214 222.084 51.1615 222.034 51.0875C221.985 51.0129 221.968 50.9222 221.985 50.8346C222.002 50.747 222.052 50.6695 222.125 50.6185L223.896 49.3095L222.258 50.2616C222.18 50.3049 222.089 50.3174 222.002 50.2967C221.915 50.276 221.839 50.2235 221.789 50.1495C221.741 50.0752 221.723 49.9855 221.739 49.8985C221.755 49.8116 221.803 49.7337 221.873 49.6805L223.322 48.5815L222.013 49.3375C221.937 49.3822 221.846 49.3954 221.76 49.3746C221.673 49.3537 221.599 49.3003 221.551 49.2255C221.502 49.1529 221.482 49.0643 221.495 48.9774C221.508 48.8905 221.553 48.8117 221.621 48.7565L222.321 48.1895L221.761 48.5116C221.692 48.5526 221.611 48.568 221.531 48.5552C221.452 48.5424 221.38 48.5022 221.327 48.4415C221.278 48.3787 221.251 48.301 221.251 48.221C221.251 48.1411 221.278 48.0634 221.327 48.0005L222.433 46.6005L221.425 47.1815C221.368 47.2192 221.301 47.2392 221.233 47.2392C221.164 47.2392 221.097 47.2192 221.04 47.1815C220.987 47.1407 220.946 47.0855 220.922 47.0223C220.898 46.9591 220.893 46.8905 220.907 46.8245L221.012 46.3975C220.953 46.3936 220.895 46.3756 220.844 46.3452C220.793 46.3148 220.75 46.2728 220.718 46.2225C220.675 46.1414 220.664 46.0465 220.689 45.9578C220.714 45.8691 220.772 45.7934 220.851 45.7465L221.355 45.4525C221.414 45.4196 221.482 45.4046 221.549 45.4093C221.617 45.414 221.682 45.4382 221.736 45.4789C221.79 45.5197 221.831 45.5753 221.854 45.6389C221.877 45.7026 221.881 45.7716 221.866 45.8375L221.775 46.1945L223.623 45.1305C223.693 45.0917 223.775 45.0783 223.854 45.0924C223.933 45.1064 224.005 45.1473 224.057 45.208C224.11 45.2687 224.14 45.3456 224.142 45.4258C224.145 45.506 224.12 45.5846 224.071 45.6485L222.972 47.0485L226.283 45.1375C226.36 45.0955 226.449 45.083 226.534 45.1024C226.619 45.1217 226.694 45.1716 226.745 45.2425C226.794 45.3161 226.813 45.4052 226.798 45.4921C226.784 45.5791 226.738 45.6574 226.668 45.7116L225.968 46.2856L227.718 45.2705C227.795 45.2293 227.884 45.2183 227.969 45.2396C228.054 45.2609 228.127 45.3129 228.175 45.3856C228.224 45.4583 228.243 45.5464 228.229 45.6326C228.216 45.7188 228.171 45.7968 228.103 45.8515L226.654 46.9505L229.041 45.5505C229.119 45.5072 229.211 45.4947 229.297 45.5154C229.384 45.5361 229.46 45.5886 229.51 45.6625C229.558 45.7369 229.576 45.8266 229.56 45.9135C229.545 46.0005 229.497 46.0784 229.426 46.1315L227.648 47.4405L230.315 45.9005C230.353 45.8753 230.395 45.8577 230.44 45.8487C230.484 45.8398 230.53 45.8397 230.574 45.8485C230.619 45.8573 230.661 45.8747 230.699 45.8999C230.737 45.925 230.769 45.9574 230.795 45.995C230.82 46.0327 230.838 46.075 230.846 46.1195C230.855 46.164 230.855 46.2098 230.847 46.2544C230.838 46.2989 230.82 46.3413 230.795 46.379C230.77 46.4168 230.738 46.4493 230.7 46.4745L227.074 49.2745L231.855 46.4745C231.933 46.4312 232.025 46.4187 232.111 46.4394C232.198 46.4601 232.274 46.5126 232.324 46.5866C232.372 46.6609 232.39 46.7506 232.374 46.8375C232.359 46.9245 232.311 47.0024 232.24 47.0555L228.138 50.0866L233.192 47.1745C233.27 47.1295 233.362 47.1161 233.449 47.1369C233.536 47.1577 233.612 47.2113 233.661 47.2866C233.71 47.3631 233.727 47.4555 233.708 47.5443C233.69 47.6331 233.638 47.7113 233.563 47.7625L232.023 48.7915L234.011 47.6435C234.089 47.6065 234.177 47.5992 234.259 47.623C234.342 47.6467 234.412 47.6999 234.458 47.7725C234.504 47.845 234.522 47.9319 234.508 48.0165C234.494 48.1011 234.449 48.1777 234.382 48.2315L232.009 49.8345L234.809 48.2106C234.887 48.1735 234.975 48.1662 235.057 48.19C235.14 48.2137 235.21 48.2669 235.256 48.3395C235.302 48.412 235.32 48.4989 235.306 48.5835C235.292 48.6681 235.247 48.7447 235.18 48.7985L230.98 51.7106L235.754 48.9525C235.832 48.9155 235.92 48.9082 236.002 48.9319C236.085 48.9557 236.155 49.0089 236.201 49.0815C236.247 49.154 236.265 49.2409 236.251 49.3255C236.237 49.4101 236.192 49.4867 236.125 49.5405L230.266 53.7406L236.79 49.9675C236.869 49.9232 236.961 49.9108 237.049 49.933C237.136 49.9551 237.211 50.0101 237.259 50.0866C237.284 50.1237 237.301 50.1653 237.309 50.2091C237.318 50.2529 237.318 50.2979 237.308 50.3416C237.299 50.3852 237.282 50.4266 237.256 50.4634C237.231 50.5001 237.199 50.5314 237.161 50.5555L233.248 53.1805L237.497 50.7235C237.576 50.6842 237.666 50.6758 237.75 50.6999C237.835 50.7241 237.907 50.779 237.953 50.8538C237.998 50.9286 238.014 51.0179 237.997 51.104C237.98 51.1901 237.932 51.2666 237.861 51.3185L235.355 52.9565L238.036 51.4096C238.114 51.3634 238.207 51.35 238.295 51.3723C238.383 51.3946 238.459 51.4508 238.505 51.5285C238.53 51.5661 238.546 51.6081 238.554 51.6522C238.562 51.6962 238.561 51.7415 238.551 51.7851C238.542 51.8288 238.523 51.8701 238.497 51.9066C238.471 51.9431 238.438 51.974 238.4 51.9975L237 52.8935L238.449 52.0535C238.527 52.0074 238.62 51.994 238.708 52.0163C238.796 52.0386 238.872 52.0947 238.918 52.1725C238.964 52.2504 238.979 52.3429 238.96 52.4313C238.94 52.5196 238.888 52.5973 238.813 52.6486L238.547 52.8165L238.848 52.6415C238.926 52.6045 239.014 52.5972 239.096 52.621C239.179 52.6447 239.249 52.6979 239.295 52.7705C239.341 52.843 239.359 52.9299 239.345 53.0145C239.331 53.0991 239.286 53.1756 239.219 53.2295L235.187 56.0995L239.387 53.6705C239.464 53.6237 239.557 53.6093 239.645 53.6302C239.732 53.6512 239.808 53.7059 239.856 53.7825C239.905 53.8591 239.922 53.9515 239.903 54.0403C239.885 54.1291 239.833 54.2073 239.758 54.2585L239.667 54.3145C239.745 54.2701 239.837 54.2573 239.924 54.2786C240.011 54.3 240.087 54.3539 240.135 54.4293C240.183 54.5047 240.201 54.5958 240.184 54.6838C240.168 54.7719 240.118 54.8502 240.045 54.9025L239.261 55.4555L240.003 55.0355C240.074 54.9901 240.158 54.9721 240.241 54.985C240.324 54.9979 240.4 55.0407 240.453 55.1054C240.507 55.1701 240.535 55.2522 240.532 55.336C240.529 55.4199 240.495 55.4998 240.437 55.5605L239.107 57.0935L240.395 56.3515C240.457 56.3147 240.53 56.2989 240.602 56.3065C240.673 56.314 240.741 56.3446 240.794 56.3935C240.849 56.4407 240.888 56.5038 240.905 56.574C240.923 56.6442 240.918 56.7181 240.892 56.7855L240.752 57.1145C240.82 57.107 240.889 57.1195 240.95 57.1506C241.011 57.1817 241.061 57.23 241.095 57.2895C241.141 57.3695 241.154 57.4643 241.13 57.5535C241.106 57.6426 241.049 57.7188 240.969 57.7656L240.227 58.1926C240.165 58.2302 240.092 58.2469 240.019 58.2403C239.946 58.2336 239.877 58.2039 239.823 58.1555C239.768 58.1071 239.73 58.0424 239.715 57.971C239.7 57.8997 239.707 57.8252 239.737 57.7585L239.856 57.4645L237.651 58.7385C237.58 58.7765 237.497 58.7885 237.418 58.7725C237.338 58.7565 237.267 58.7134 237.216 58.6507C237.165 58.5879 237.137 58.5094 237.137 58.4284C237.137 58.3474 237.166 58.269 237.217 58.2065L238.547 56.6736L233.444 59.5995C233.367 59.6425 233.277 59.6548 233.191 59.634C233.106 59.6133 233.031 59.5609 232.982 59.4875C232.957 59.4509 232.94 59.4096 232.931 59.366C232.922 59.3225 232.921 59.2777 232.93 59.2341C232.938 59.1904 232.955 59.1489 232.98 59.1119C233.004 59.0749 233.036 59.0432 233.073 59.0185L233.857 58.4585L230.952 60.1315C230.874 60.1759 230.781 60.1883 230.694 60.1661C230.606 60.144 230.531 60.089 230.483 60.0125C230.436 59.9362 230.42 59.8443 230.44 59.7566C230.459 59.6689 230.513 59.5924 230.588 59.5435L230.672 59.4805L228.733 60.6005C228.657 60.6452 228.566 60.6584 228.48 60.6376C228.393 60.6167 228.319 60.5633 228.271 60.4885C228.246 60.4519 228.229 60.4106 228.22 60.3671C228.211 60.3235 228.21 60.2787 228.219 60.2351C228.227 60.1914 228.244 60.1499 228.269 60.1129C228.293 60.0759 228.325 60.0442 228.362 60.0196L232.415 57.1705L225.198 61.3355C225.148 61.3762 225.087 61.4006 225.023 61.4055Z" fill="#7CCCDB"/>
<path d="M214.237 71.2057C212.655 69.8598 211.381 68.1893 210.501 66.3075C209.622 64.4257 209.158 62.3767 209.141 60.2997C209.141 52.0397 216.302 45.3477 225.136 45.3477C233.97 45.3477 241.138 52.0397 241.138 60.2997C241.138 68.5597 233.977 75.2517 225.136 75.2517C222.821 75.252 220.531 74.7754 218.409 73.8517" stroke="#2855AF" stroke-miterlimit="10"/>
<path d="M195.047 57.0723H205.148" stroke="#2855AF" stroke-miterlimit="10"/>
<path d="M195.047 60.5518H205.148" stroke="#2855AF" stroke-miterlimit="10"/>
<path d="M195.047 64.0371H205.148" stroke="#2855AF" stroke-miterlimit="10"/>
<path d="M72.9453 116.468H90.7113" stroke="#2855AF" stroke-miterlimit="10"/>
<path d="M72.9453 119.953H90.7113" stroke="#2855AF" stroke-miterlimit="10"/>
<path d="M69.2578 71.1777H87.0238" stroke="#2855AF" stroke-miterlimit="10"/>
<path d="M72.9453 123.433H90.7113" stroke="#2855AF" stroke-miterlimit="10"/>
<path d="M72.9453 130.748H90.7113" stroke="#2855AF" stroke-miterlimit="10"/>
<path d="M72.9453 134.233H90.7113" stroke="#2855AF" stroke-miterlimit="10"/>
<path d="M72.9453 137.72H90.7113" stroke="#2855AF" stroke-miterlimit="10"/>
<path d="M220.879 45.7256L225.198 61.3566L240.997 57.7516" stroke="#2855AF" stroke-miterlimit="10"/>
<path d="M69.4453 49.7295V67.1315H97.3893" stroke="#2855AF" stroke-miterlimit="10"/>
<path d="M78.1467 52.1025H72.3438V67.1315H78.1467V52.1025Z" fill="#7CCCDB" stroke="#2855AF" stroke-miterlimit="10"/>
<path d="M92.9124 55.5254H87.1094V67.1244H92.9124V55.5254Z" fill="#7CCCDB" stroke="#2855AF" stroke-miterlimit="10"/>
<path d="M85.5335 47.3564H79.7305V67.1314H85.5335V47.3564Z" fill="#7CCCDB" stroke="#2855AF" stroke-miterlimit="10"/>
<path d="M35.8033 161.877C35.8033 161.877 35.8033 158.951 31.7083 154.877C27.6133 150.803 24.9813 148.444 24.9813 148.444C24.9813 148.444 22.9303 155.171 26.7383 159.266C29.534 162.147 32.5662 164.788 35.8033 167.162V161.877Z" fill="#7CCCDB"/>
<path d="M29.8628 180.147C29.8628 180.147 29.8628 177.221 25.7678 173.147C21.6728 169.073 19.0408 166.7 19.0408 166.7C19.0408 166.7 16.9898 173.427 20.7908 177.522C23.5988 180.403 26.6427 183.044 29.8908 185.418L29.8628 180.147Z" fill="#7CCCDB"/>
<path d="M35.5452 166.861C35.5452 166.861 35.8602 163.949 40.3612 160.309C44.8622 156.669 47.7322 154.625 47.7322 154.625C47.7322 154.625 49.0622 161.527 44.8482 165.202C41.7594 167.769 38.4627 170.075 34.9922 172.097L35.5452 166.861Z" fill="#7CCCDB"/>
<path d="M28.3702 188.435C28.3702 188.435 28.9792 185.579 33.8442 182.429C38.7092 179.279 41.7682 177.529 41.7682 177.529C41.7682 177.529 42.3632 184.529 37.7852 187.742C34.4527 189.971 30.9406 191.919 27.2852 193.566L28.3702 188.435Z" fill="#7CCCDB"/>
<path d="M29.7155 211.962C29.7155 211.962 29.7155 209.036 33.8175 204.962C37.9195 200.888 40.5445 198.529 40.5445 198.529C40.5445 198.529 42.5885 205.256 38.7875 209.351C35.9813 212.234 32.9372 214.875 29.6875 217.247L29.7155 211.962Z" fill="#7CCCDB"/>
<path d="M29.6513 217.703C29.6513 217.703 30.0643 214.812 26.5923 210.171C23.1203 205.53 20.8453 202.849 20.8453 202.849C20.8453 202.849 17.8633 209.219 21.0483 213.811C23.4072 217.058 26.0344 220.102 28.9023 222.911L29.6513 217.703Z" fill="#7CCCDB"/>
<path d="M25.6131 234.726C25.6131 234.726 25.6131 231.8 29.7081 227.726C33.8031 223.652 36.4351 221.286 36.4351 221.286C36.4351 221.286 38.4861 228.013 34.6781 232.108C31.8725 234.994 28.8284 237.638 25.5781 240.011L25.6131 234.726Z" fill="#7CCCDB"/>
<path d="M28.3442 250.155C28.3442 250.155 27.6092 247.32 30.5282 242.322C33.4472 237.324 35.4282 234.391 35.4282 234.391C35.4282 234.391 39.1102 240.383 36.4712 245.311C34.4912 248.806 32.2248 252.13 29.6952 255.251L28.3442 250.155Z" fill="#7CCCDB"/>
<path d="M36.1762 161.101C35.9698 164.152 35.5959 167.19 35.0562 170.201C33.4392 178.601 29.3862 183.963 27.7692 191.516C26.1522 199.069 30.8002 208.806 29.5542 218.508C28.3082 228.21 24.5352 233.614 25.6132 240.089C26.6912 246.564 32.3612 264.099 32.3612 264.099" stroke="#2855AF" stroke-linecap="round" stroke-linejoin="round"/>
<path d="M35.5117 168.807L39.9217 165.419" stroke="#2855AF" stroke-linecap="round" stroke-linejoin="round"/>
<path d="M35.7152 164.901L33.8672 161.618" stroke="#2855AF" stroke-linecap="round" stroke-linejoin="round"/>
<path d="M28.0156 191.2C28.0156 191.2 31.7116 188.4 35.5126 185.663" stroke="#2855AF" stroke-linecap="round" stroke-linejoin="round"/>
<path d="M29.8629 185.411C29.8629 185.411 26.7829 179.377 23.2969 175.373" stroke="#2855AF" stroke-linecap="round" stroke-linejoin="round"/>
<path d="M29.8633 216.128C31.9733 212.239 34.6352 208.677 37.7663 205.551" stroke="#2855AF" stroke-linecap="round" stroke-linejoin="round"/>
<path d="M29.1477 220.229C28.0253 217.591 26.686 215.051 25.1437 212.634C22.9877 209.456 22.6797 209.043 22.6797 209.043" stroke="#2855AF" stroke-linecap="round" stroke-linejoin="round"/>
<path d="M25.6133 240.103C26.5481 237.776 27.6597 235.525 28.9383 233.369C30.2178 231.372 31.66 229.485 33.2503 227.727" stroke="#2855AF" stroke-linecap="round" stroke-linejoin="round"/>
<path d="M29.6793 255.25C29.4646 253.03 29.8464 250.792 30.7853 248.768C32.3253 245.793 34.0683 241.887 34.7893 240.368" stroke="#2855AF" stroke-linecap="round" stroke-linejoin="round"/>
<path d="M9.00175 200.959C9.00175 200.959 8.67975 199.125 10.8078 196.115C12.9358 193.105 14.3078 191.348 14.3078 191.348C14.3078 191.348 16.3238 195.345 14.3778 198.348C12.9373 200.458 11.3216 202.444 9.54776 204.284L9.00175 200.959Z" fill="#7CCCDB"/>
<path d="M14.701 211.773C14.701 211.773 14.379 209.939 16.507 206.922C18.635 203.905 20.007 202.162 20.007 202.162C20.007 202.162 22.016 206.159 20.077 209.162C18.6355 211.274 17.0199 213.262 15.247 215.105L14.701 211.773Z" fill="#7CCCDB"/>
<path d="M9.7016 204.06C9.7016 204.06 9.1906 202.268 5.9706 200.476C2.75061 198.684 0.734605 197.676 0.734605 197.676C0.734605 197.676 0.650605 202.156 3.6956 203.976C5.90048 205.277 8.21176 206.39 10.6046 207.301L9.7016 204.06Z" fill="#7CCCDB"/>
<path d="M16.5314 216.806C16.5314 216.806 15.8314 215.084 12.4434 213.635C9.05541 212.186 6.94141 211.438 6.94141 211.438C6.94141 211.438 7.33341 215.897 10.5534 217.409C12.891 218.437 15.3096 219.27 17.7844 219.901L16.5314 216.806Z" fill="#7CCCDB"/>
<path d="M18.2418 231.709C18.2418 231.709 17.9268 229.875 14.9098 227.747C11.8928 225.619 10.0098 224.443 10.0098 224.443C10.0098 224.443 9.44975 228.888 12.2848 231.044C14.3425 232.547 16.5225 233.875 18.8018 235.013L18.2418 231.709Z" fill="#7CCCDB"/>
<path d="M18.9076 235.3C18.9076 235.3 18.3336 233.529 20.0066 230.246C21.6796 226.963 22.8066 225.031 22.8066 225.031C22.8066 225.031 25.3686 228.699 23.8706 231.926C22.7473 234.22 21.4312 236.414 19.9366 238.485L18.9076 235.3Z" fill="#7CCCDB"/>
<path d="M24.0468 250.098C24.0468 250.098 24.2638 248.25 27.1478 245.954C30.0318 243.658 31.8728 242.377 31.8728 242.377C31.8728 242.377 32.6778 246.78 29.9758 249.09C28.0008 250.71 25.8934 252.162 23.6758 253.43L24.0468 250.098Z" fill="#7CCCDB"/>
<path d="M23.2873 245.534C23.2873 245.534 23.0003 243.7 19.9553 241.6C16.9103 239.5 15.0553 238.289 15.0553 238.289C15.0553 238.289 14.5023 242.734 17.3373 244.89C19.4021 246.393 21.589 247.721 23.8753 248.859L23.2873 245.534Z" fill="#7CCCDB"/>
<path d="M23.2447 255.51C23.2447 255.51 23.4057 253.655 21.0257 250.834C18.6457 248.013 17.1057 246.389 17.1057 246.389C17.1057 246.389 15.4467 250.547 17.6377 253.347C19.2669 255.328 21.0606 257.169 22.9997 258.849L23.2447 255.51Z" fill="#7CCCDB"/>
<path d="M8.67188 200.531C9.132 202.427 9.69517 204.297 10.3589 206.131C12.2839 211.206 15.4059 214.146 17.2469 218.731C19.0879 223.316 17.2469 229.931 19.0529 235.853C20.8589 241.775 23.8409 244.778 23.8689 248.957C23.8969 253.136 22.2449 264.7 22.2449 264.7" stroke="#2855AF" stroke-linecap="round" stroke-linejoin="round"/>
<path d="M9.92506 205.27L6.78906 203.625" stroke="#2855AF" stroke-linecap="round" stroke-linejoin="round"/>
<path d="M9.37109 202.848L10.1761 200.587" stroke="#2855AF" stroke-linecap="round" stroke-linejoin="round"/>
<path d="M17.0529 218.5C17.0529 218.5 14.4349 217.163 11.7539 215.833" stroke="#2855AF" stroke-linecap="round" stroke-linejoin="round"/>
<path d="M15.3008 215.077C16.0696 212.647 17.0852 210.301 18.3318 208.077" stroke="#2855AF" stroke-linecap="round" stroke-linejoin="round"/>
<path d="M18.604 234.335C16.857 232.127 14.8012 230.182 12.5 228.56" stroke="#2855AF" stroke-linecap="round" stroke-linejoin="round"/>
<path d="M19.5 236.833C19.9155 235.056 20.4774 233.317 21.18 231.632C22.188 229.406 22.335 229.112 22.335 229.112" stroke="#2855AF" stroke-linecap="round" stroke-linejoin="round"/>
<path d="M23.7031 252.1C24.7235 250.837 25.8525 249.666 27.0771 248.6C27.8705 248.018 28.615 247.372 29.3031 246.668" stroke="#2855AF" stroke-linecap="round" stroke-linejoin="round"/>
<path d="M23.868 248.909C23.0338 247.552 22.0978 246.26 21.068 245.045C20.0479 243.931 18.9382 242.904 17.75 241.972" stroke="#2855AF" stroke-linecap="round" stroke-linejoin="round"/>
<path d="M23.0027 258.849C22.8942 257.432 22.4111 256.069 21.6027 254.901C20.3147 253.207 18.8027 250.946 18.1797 250.057" stroke="#2855AF" stroke-linecap="round" stroke-linejoin="round"/>
<path d="M324.796 77.2721C327.97 63.6139 319.47 49.9693 305.812 46.796C292.154 43.6227 278.509 52.1223 275.336 65.7805C272.162 79.4386 280.662 93.0832 294.32 96.2566C307.978 99.4299 321.623 90.9303 324.796 77.2721Z" fill="#2855AF" stroke="#2855AF" stroke-miterlimit="10"/>
<path d="M308.452 91.3863C319.421 86.7419 324.547 74.0852 319.903 63.1169C315.258 52.1486 302.602 47.0221 291.633 51.6666C280.665 56.3111 275.539 68.9677 280.183 79.936C284.827 90.9043 297.484 96.0308 308.452 91.3863Z" fill="white" stroke="#2855AF" stroke-miterlimit="10"/>
<path d="M306.707 57.6826L300.043 71.5076H309.563" stroke="#2855AF" stroke-miterlimit="10"/>
<path d="M302.465 71.5C302.466 71.9793 302.326 72.4482 302.06 72.8475C301.795 73.2467 301.417 73.5582 300.975 73.7426C300.532 73.927 300.045 73.9759 299.575 73.8833C299.105 73.7906 298.672 73.5605 298.333 73.222C297.994 72.8836 297.762 72.4521 297.668 71.9821C297.574 71.512 297.622 71.0247 297.805 70.5817C297.988 70.1388 298.298 69.7601 298.697 69.4936C299.095 69.2272 299.564 69.085 300.043 69.085C300.361 69.0841 300.676 69.1458 300.969 69.2668C301.263 69.3877 301.53 69.5655 301.755 69.7898C301.98 70.0142 302.159 70.2807 302.281 70.5742C302.402 70.8676 302.465 71.1822 302.465 71.5Z" fill="#7CCCDB" stroke="#2855AF" stroke-miterlimit="10"/>
<path d="M162.765 137.104L159.503 132.358C159.503 132.358 160.147 124.728 159.419 123.538C158.691 122.348 146.903 120.969 146.203 121.851C145.503 122.733 147.981 123.531 147.981 123.531C147.981 123.531 146.301 124.273 146.476 125.12C146.735 126.366 148.884 126.52 148.884 126.52C148.884 126.52 147.176 127.661 147.386 128.403C147.554 128.991 149.262 129.453 149.262 129.453C149.262 129.453 147.533 130.237 148.947 131.238C150.361 132.239 151.558 133.275 151.558 133.275C151.558 133.275 150.578 135.375 153.231 137.202C155.884 139.029 160.469 142.354 160.469 142.354L162.765 137.104Z" fill="white" stroke="#2855AF" stroke-linecap="round" stroke-linejoin="round"/>
<path d="M146.642 118.673L144.031 118.456V119.261L146.131 120.444C146.251 119.84 146.422 119.248 146.642 118.673V118.673Z" fill="#2855AF" stroke="#2855AF" stroke-linecap="round" stroke-linejoin="round"/>
<path d="M156.905 123.958C156.788 123.963 156.672 123.946 156.562 123.909L146.202 120.64C146.067 120.604 145.94 120.541 145.83 120.455C145.72 120.368 145.629 120.26 145.561 120.138C145.494 120.015 145.452 119.88 145.439 119.741C145.425 119.602 145.44 119.461 145.482 119.328C145.524 119.194 145.592 119.071 145.684 118.965C145.775 118.858 145.886 118.772 146.012 118.71C146.137 118.648 146.274 118.613 146.414 118.605C146.554 118.597 146.693 118.618 146.825 118.666L157.185 121.935C157.418 122.009 157.617 122.163 157.748 122.37C157.878 122.577 157.931 122.823 157.898 123.065C157.864 123.307 157.746 123.53 157.564 123.693C157.383 123.856 157.149 123.95 156.905 123.958V123.958Z" fill="white" stroke="#2855AF" stroke-linecap="round" stroke-linejoin="round"/>
<path d="M162.302 125.995C162.145 125.995 161.989 125.972 161.84 125.925L156.492 124.238C156.29 124.21 156.097 124.138 155.926 124.027C155.755 123.917 155.61 123.77 155.501 123.598C155.392 123.426 155.323 123.232 155.297 123.03C155.271 122.828 155.289 122.623 155.35 122.429C155.412 122.235 155.515 122.056 155.652 121.906C155.79 121.756 155.958 121.637 156.146 121.559C156.334 121.481 156.537 121.444 156.741 121.452C156.944 121.46 157.143 121.513 157.325 121.606L162.673 123.293C163.018 123.407 163.306 123.651 163.475 123.974C163.643 124.297 163.68 124.673 163.576 125.022C163.488 125.295 163.319 125.535 163.092 125.709C162.864 125.883 162.588 125.983 162.302 125.995Z" fill="#2855AF" stroke="#2855AF" stroke-linecap="round" stroke-linejoin="round"/>
<path d="M157.991 127.556C157.509 126.158 156.948 124.788 156.311 123.454C155.576 122.096 154.162 120.927 153.602 119.562C153.042 118.197 151.544 120.311 152.097 121.333C152.65 122.355 153.903 123.874 153.924 124.567C153.945 125.26 154.127 125.771 153.329 128.067C152.531 130.363 152.09 132.967 153.875 134.801" fill="white"/>
<path d="M157.991 127.556C157.509 126.158 156.948 124.788 156.311 123.454C155.576 122.096 154.162 120.927 153.602 119.562C153.042 118.197 151.544 120.311 152.097 121.333C152.65 122.355 153.903 123.874 153.924 124.567C153.945 125.26 154.127 125.771 153.329 128.067C152.531 130.363 152.09 132.967 153.875 134.801" stroke="#2855AF" stroke-linecap="round" stroke-linejoin="round"/>
<path d="M148.008 123.531L153.923 124.567" stroke="#2855AF" stroke-linecap="round" stroke-linejoin="round"/>
<path d="M148.91 126.527C149.61 126.331 153.327 128.039 153.327 128.039" stroke="#2855AF" stroke-linecap="round" stroke-linejoin="round"/>
<path d="M149.289 129.46L152.362 130.489" stroke="#2855AF" stroke-linecap="round" stroke-linejoin="round"/>
<path d="M204.182 127.983C204.182 127.983 202.418 126.94 201.641 129.733C200.864 132.526 198.582 137.433 197.574 138.497C196.566 139.561 186.654 149.375 186.654 149.375C186.654 149.375 182.398 146.036 181.397 147.275C180.976 147.889 180.391 148.374 179.71 148.675L162.714 135.34L156.414 144.867C156.414 144.867 179.514 165.979 181.446 166.616C183.378 167.253 184.743 167.036 185.429 166.672C186.115 166.308 198.799 156.76 198.799 156.76C198.799 156.76 206.534 131.798 207.199 130.916C207.864 130.034 204.182 127.983 204.182 127.983Z" fill="#7CCCDB" stroke="#2855AF" stroke-linecap="round" stroke-linejoin="round"/>
<path d="M181.355 149.431C181.355 149.431 184.799 153.407 184.799 158.44Z" fill="#7CCCDB"/>
<path d="M181.355 149.431C181.355 149.431 184.799 153.407 184.799 158.44" stroke="#2855AF" stroke-linecap="round" stroke-linejoin="round"/>
<path d="M186.919 151.02C186.919 151.02 187.976 153.673 186.387 159.497Z" fill="#7CCCDB"/>
<path d="M186.919 151.02C186.919 151.02 187.976 153.673 186.387 159.497" stroke="#2855AF" stroke-linecap="round" stroke-linejoin="round"/>
<path d="M211.755 97.176C211.755 97.176 204.251 92.276 205.14 87.621C206.029 82.966 222.857 79.221 232.531 82.364C242.205 85.507 244.172 99.983 242.898 108.915C241.624 117.847 240.854 138.231 240.854 138.231L208.031 139.197C208.031 139.197 211.09 115.327 211.727 107.781C212.364 100.235 211.755 97.176 211.755 97.176Z" fill="#2855AF" stroke="#2855AF" stroke-linecap="round" stroke-linejoin="round"/>
<path d="M194.956 228.601C195.656 235.734 196.986 267.164 197.756 271.819H231.882C231.812 266.457 231.721 230.239 232.491 227.278C233.464 223.575 234.829 211.227 233.324 204.143C231.819 197.059 229.992 193.643 229.992 193.643L194.572 193.608L194.677 196.513C194.677 196.513 194.011 218.5 194.956 228.601Z" fill="#2855AF" stroke="#2855AF" stroke-linecap="round" stroke-linejoin="round"/>
<path d="M202.531 207.209C203.931 208.168 205.331 208.854 205.331 210.24C206.031 222.686 208.789 257.644 209.762 270.237" stroke="white" stroke-linecap="round" stroke-linejoin="round"/>
<path d="M212.701 127.5L230.019 128.144C230.019 128.144 216.117 149.543 216.236 161.303C216.355 173.063 218.686 197.437 218.686 197.437C218.686 197.437 211.07 203.464 203.195 202.337C202.341 202.211 201.886 195.155 201.886 195.155C201.886 195.155 201.382 202.008 200.801 201.903C196.391 201.112 194.676 196.555 194.676 196.555L195.593 173C195.593 173 195.593 157.551 197.315 153.113C199.037 148.675 210.671 128.963 210.671 128.963L212.701 127.5Z" fill="white" stroke="#2855AF" stroke-linecap="round" stroke-linejoin="round"/>
<path d="M212.002 141.136C212.002 141.136 206.647 152.266 204.687 158.79C202.727 165.314 201.887 195.127 201.887 195.127" stroke="#2855AF" stroke-linecap="round" stroke-linejoin="round"/>
<path d="M227.934 127.976C227.934 127.976 215.789 146.092 213.444 152.616C211.099 159.14 209.531 184.116 209.839 194.7C210.147 205.284 213.493 216.96 213.493 216.96C223.341 218.532 233.416 217.84 242.956 214.937C242.956 214.937 238.714 196.156 236.656 189.989C235.371 185.947 234.402 181.811 233.758 177.62C233.758 177.62 247.702 133.156 247.702 132.47C247.702 131.784 247.429 131.07 246.036 130.671C244.643 130.272 227.934 127.976 227.934 127.976Z" fill="#7CCCDB" stroke="#2855AF" stroke-linecap="round" stroke-linejoin="round"/>
<path d="M216.805 197.276L234.83 195.834L235.068 198.718L227.382 199.677" fill="#7CCCDB"/>
<path d="M216.805 197.276L234.83 195.834L235.068 198.718L227.382 199.677" stroke="#2855AF" stroke-linecap="round" stroke-linejoin="round"/>
<path d="M212.538 129.81C212.538 129.81 198.069 155.381 197.747 160.001C197.425 164.621 195.283 185.901 194.093 192.628C192.903 199.355 187.758 212.417 187.758 212.417C187.758 212.417 186.435 206.691 186.82 204.143C187.205 201.595 192.777 187.133 193.372 183.885C193.967 180.637 194.772 169.08 194.632 164.012C194.492 158.944 194.142 155.262 195.192 151.545C196.242 147.828 204.18 127.983 204.18 127.983L215.695 127.416L212.538 129.81Z" fill="#7CCCDB" stroke="#2855AF" stroke-linecap="round" stroke-linejoin="round"/>
<path d="M209.404 127.696L206.996 138.721L213.184 133.919L209.404 127.696Z" fill="white" stroke="#2855AF" stroke-linecap="round" stroke-linejoin="round"/>
<path d="M216.777 122.348L209.406 127.696L212.185 134.969L212.031 141.136L220.389 128.739L216.777 122.348Z" fill="white" stroke="#2855AF" stroke-linecap="round" stroke-linejoin="round"/>
<path d="M216.347 119.45C216.347 119.45 214.947 129.761 214.506 132.505C214.065 135.249 212 141.136 212 141.136C212 141.136 225.139 128.431 225.79 127.381C226.441 126.331 228.709 116.181 228.709 116.181C228.709 116.181 220.281 119.338 216.347 119.45Z" fill="white" stroke="#2855AF" stroke-linecap="round" stroke-linejoin="round"/>
<path d="M215.949 122.341C217.741 123.461 219.134 123.461 221.206 123.139C223.278 122.817 226.106 120.871 228.01 119.338C228.43 117.553 228.71 116.181 228.71 116.181C228.71 116.181 220.254 119.338 216.32 119.45C216.348 119.45 216.201 120.654 215.949 122.341Z" fill="#2855AF" stroke="#2855AF" stroke-linecap="round" stroke-linejoin="round"/>
<path d="M220.555 88.1953L210.86 95.8323C210.86 95.8323 209.88 103.217 209.516 108.362C209.323 110.479 209.638 112.611 210.436 114.581C211.233 116.551 212.49 118.302 214.101 119.688C216.901 122.173 218.455 122.299 221.178 121.872C223.901 121.445 227.919 118.253 229.417 116.839C230.915 115.425 233.701 111.239 233.701 111.239C233.701 111.239 235.934 111.687 236.592 110.644C236.921 110.155 237.191 109.629 237.397 109.076C237.397 109.076 228.178 103.875 224.391 97.3163C220.604 90.7573 220.555 88.1953 220.555 88.1953Z" fill="white" stroke="#2855AF" stroke-linecap="round" stroke-linejoin="round"/>
<path d="M217.538 101.796C217.396 102.876 217.079 103.926 216.6 104.904C215.949 105.947 213.401 106.535 214.801 107.704C215.865 108.439 217.133 108.821 218.427 108.796" stroke="#2855AF" stroke-linecap="round" stroke-linejoin="round"/>
<path d="M214.723 110.777C214.723 110.777 219.917 113.017 223.256 110.007" stroke="#2855AF" stroke-linecap="round" stroke-linejoin="round"/>
<path d="M216.461 111.582C216.461 111.582 217.231 114.466 218.925 113.899C220.619 113.332 222.089 111.099 222.089 111.099C220.226 111.387 218.346 111.549 216.461 111.582V111.582Z" stroke="#2855AF" stroke-linecap="round" stroke-linejoin="round"/>
<path d="M224.076 103.14C224.076 103.896 223.775 104.54 223.376 104.54C222.977 104.54 222.592 103.952 222.571 103.196C222.55 102.44 222.872 101.796 223.271 101.796C223.67 101.796 224.055 102.391 224.076 103.14Z" fill="#2855AF"/>
<path d="M215.92 102.188C215.92 102.944 215.619 103.588 215.22 103.588C214.821 103.588 214.436 103 214.415 102.244C214.394 101.488 214.716 100.844 215.115 100.844C215.514 100.844 215.899 101.432 215.92 102.188Z" fill="#2855AF"/>
<path d="M213.176 99.0167C213.431 98.7491 213.739 98.537 214.08 98.3939C214.422 98.2507 214.789 98.1796 215.158 98.1848C215.528 98.1901 215.893 98.2717 216.23 98.4245C216.567 98.5772 216.869 98.7979 217.117 99.0727" stroke="#2855AF" stroke-linecap="round" stroke-linejoin="round"/>
<path d="M221.059 99.5003C221.059 99.5003 224.951 98.0233 226.589 101.39" stroke="#2855AF" stroke-linecap="round" stroke-linejoin="round"/>
<path d="M218.901 130.671L212.027 141.136L222.128 135.704L218.901 130.671Z" fill="white" stroke="#2855AF" stroke-linecap="round" stroke-linejoin="round"/>
<path d="M230.438 121.599L218.902 130.671L222.262 140.149L233.343 127.332L230.438 121.599Z" fill="white" stroke="#2855AF" stroke-linecap="round" stroke-linejoin="round"/>
<path d="M216.417 175.366C214.86 174.932 213.372 174.276 212 173.42C209.417 171.88 206.666 172.419 204.363 172.489C202.06 172.559 200.457 173.07 200.716 173.98C200.975 174.89 203.278 174.827 203.971 174.806C204.664 174.785 205.847 175.905 205.847 175.905L200.086 177.305C200.086 177.305 198.28 178.516 199.701 179.853C201.122 181.19 201.381 180.889 201.381 180.889C201.381 180.889 203.558 184.284 205.868 184.445C208.178 184.606 217.565 182.254 217.565 182.254L216.417 175.366Z" fill="white" stroke="#2855AF" stroke-linecap="round" stroke-linejoin="round"/>
<path d="M232.741 148.906C233.014 150.306 234.505 170.907 234.505 170.907L215.5 175.387L216.515 186.202C216.515 186.202 250.528 182.198 251.158 180.105C251.788 178.012 249.569 141.864 249.758 139.785C249.947 137.706 252.719 130.685 244.417 130.685" fill="#7CCCDB"/>
<path d="M232.741 148.906C233.014 150.306 234.505 170.907 234.505 170.907L215.5 175.387L216.515 186.202C216.515 186.202 250.528 182.198 251.158 180.105C251.788 178.012 249.569 141.864 249.758 139.785C249.947 137.706 252.719 130.685 244.417 130.685" stroke="#2855AF" stroke-linecap="round" stroke-linejoin="round"/>
<path d="M235.922 145.462C235.922 145.462 241.48 138.308 247.577 138.574Z" fill="#7CCCDB"/>
<path d="M235.922 145.462C235.922 145.462 241.48 138.308 247.577 138.574" stroke="#2855AF" stroke-linecap="round" stroke-linejoin="round"/>
<path d="M235.922 148.108C235.922 148.108 240.689 145.462 245.456 145.462Z" fill="#7CCCDB"/>
<path d="M235.922 148.108C235.922 148.108 240.689 145.462 245.456 145.462" stroke="#2855AF" stroke-linecap="round" stroke-linejoin="round"/>
<path d="M23.4639 271.818V231.316C23.4639 230.997 23.3371 230.691 23.1113 230.465C22.8855 230.239 22.5793 230.112 22.2599 230.112H17.2969C16.977 230.112 16.67 230.239 16.4431 230.465C16.2162 230.69 16.0878 230.996 16.0859 231.316V271.818H23.4639Z" fill="white" stroke="#2855AF" stroke-linecap="round" stroke-linejoin="round"/>
<path d="M17.2834 271.818V231.316C17.2816 230.996 17.1532 230.69 16.9263 230.465C16.6994 230.239 16.3924 230.112 16.0724 230.112H11.1024C10.7831 230.112 10.4769 230.239 10.2511 230.465C10.0253 230.691 9.89844 230.997 9.89844 231.316V271.818H17.2834Z" fill="#2855AF" stroke="#2855AF" stroke-linecap="round" stroke-linejoin="round"/>
<path d="M20.0767 271.819H108.676C108.057 270.254 107.008 268.895 105.652 267.899C101.634 265.365 63.3647 259.443 63.3647 259.443L23.6117 258.806L21.7077 259.443C21.7077 259.443 19.6077 262.404 19.8107 263.881C19.9157 264.63 19.9647 268.256 20.0767 271.819Z" fill="#2855AF" stroke="#2855AF" stroke-linecap="round" stroke-linejoin="round"/>
<path d="M56.172 182.688C56.172 182.688 46.869 187.973 43.698 190.934C40.527 193.895 35.242 203.625 34.815 209.54C34.388 215.455 29.74 238.1 29.74 238.1C29.74 238.1 20.199 256.692 21.704 259.443C23.209 262.194 62.304 259.443 63.361 259.443C64.418 259.443 62.304 247.816 62.304 247.816C62.304 247.816 77.102 224.975 77.704 218.843C78.306 212.711 73.896 196.009 73.049 192.201C72.202 188.393 58.076 181.841 56.172 182.688Z" fill="white" stroke="#2855AF" stroke-linecap="round" stroke-linejoin="round"/>
<path d="M48.9023 215C48.9023 215 56.3013 222 59.4023 224.345" stroke="#2855AF" stroke-linecap="round" stroke-linejoin="round"/>
<path d="M45.4023 220.438C45.4023 220.438 59.0313 225.107 62.5313 225.499" stroke="#2855AF" stroke-linecap="round" stroke-linejoin="round"/>
<path d="M85.1408 158.999C85.1408 158.999 86.1978 166.825 85.9878 169.149C85.7778 171.473 83.6638 179.509 83.0268 181.203C82.3898 182.897 81.7598 184.794 79.4358 184.584C78.0822 184.478 76.775 184.043 75.6278 183.317L73.3038 191.136L57.2038 181.833L59.3038 177.633C59.3038 177.633 56.9798 173.832 56.3428 167.483C55.7058 161.134 59.3038 153.952 63.9588 151.208C68.6138 148.464 76.6428 149.514 78.9668 151.418C81.2908 153.322 85.1408 158.999 85.1408 158.999Z" fill="white" stroke="#2855AF" stroke-linecap="round" stroke-linejoin="round"/>
<path d="M56.3832 178.67C57.2302 178.887 75.4162 187.133 75.6262 189.247C75.8362 191.361 76.6832 197.913 76.6832 197.913C72.9521 194.706 68.9146 191.874 64.6292 189.457C61.2352 187.666 57.9845 185.616 54.9062 183.325L56.3832 178.67Z" fill="white" stroke="#2855AF" stroke-linecap="round" stroke-linejoin="round"/>
<path d="M72.457 141.668C72.457 141.668 77.952 139.344 82.39 140.401C86.828 141.458 88.522 146.533 88.522 150.761C88.522 154.989 86.198 160.064 85.351 160.274C84.504 160.484 82.39 150.341 78.351 147.38C76.1117 145.781 74.1249 143.856 72.457 141.668V141.668Z" fill="#7CCCDB" stroke="#2855AF" stroke-linecap="round" stroke-linejoin="round"/>
<path d="M65.7023 142.942C65.7023 142.942 74.3753 138.287 81.9843 144.839C89.5933 151.391 87.0593 157.95 85.3653 160.274C83.6713 162.598 83.6783 167.043 82.4043 167.89C81.1303 168.737 80.9273 164.509 79.4503 163.69C77.9733 162.871 78.1623 166 76.4753 170.2C74.7883 174.4 67.1723 180.56 63.1753 180.14C59.1783 179.72 54.2923 175.24 51.5413 165.972C48.7903 156.704 50.7013 146.729 55.7413 143.572C57.219 142.648 58.9032 142.107 60.6422 141.997C62.3811 141.887 64.1201 142.212 65.7023 142.942Z" fill="#7CCCDB" stroke="#2855AF" stroke-linecap="round" stroke-linejoin="round"/>
<path d="M82.4994 146.925C82.4994 146.925 84.1794 151.783 79.8814 157.194C75.5834 162.605 69.8014 165.594 65.5104 162.983C61.2194 160.372 61.0234 157.383 61.0234 157.383" stroke="#2855AF" stroke-linecap="round" stroke-linejoin="round"/>
<path d="M54.1385 158.3C54.1385 158.3 53.2005 172.881 61.9785 174.4C70.7565 175.919 75.6075 166.7 75.6075 166.7" stroke="#2855AF" stroke-linecap="round" stroke-linejoin="round"/>
<path d="M56.9147 158.586C61.7627 158.586 65.6927 154.609 65.6927 149.703C65.6927 144.797 61.7627 140.82 56.9147 140.82C52.0668 140.82 48.1367 144.797 48.1367 149.703C48.1367 154.609 52.0668 158.586 56.9147 158.586Z" fill="#7CCCDB" stroke="#2855AF" stroke-linecap="round" stroke-linejoin="round"/>
<path d="M55.0664 148.423C55.0664 148.423 56.1864 142.634 59.3574 141.885" stroke="#2855AF" stroke-linecap="round" stroke-linejoin="round"/>
<path d="M54.6953 149.2C54.6953 149.2 61.0373 146.96 64.0263 149.389" stroke="#2855AF" stroke-linecap="round" stroke-linejoin="round"/>
<path d="M54.3198 150.284C54.3198 150.284 51.5198 152.153 52.4578 156.451" stroke="#2855AF" stroke-linecap="round" stroke-linejoin="round"/>
<path d="M80.7006 168.52C80.7006 168.52 80.0636 162.178 78.1596 162.388C76.2556 162.598 77.1026 172.118 78.1596 173.588C78.2527 173.777 78.3924 173.94 78.5656 174.06C78.7387 174.181 78.9397 174.256 79.1495 174.277C79.3594 174.299 79.5714 174.267 79.7655 174.184C79.9597 174.102 80.1297 173.971 80.2596 173.805" fill="white"/>
<path d="M80.7006 168.52C80.7006 168.52 80.0636 162.178 78.1596 162.388C76.2556 162.598 77.1026 172.118 78.1596 173.588C78.2527 173.777 78.3924 173.94 78.5656 174.06C78.7387 174.181 78.9397 174.256 79.1495 174.277C79.3594 174.299 79.5714 174.267 79.7655 174.184C79.9597 174.102 80.1297 173.971 80.2596 173.805" stroke="#2855AF" stroke-linecap="round" stroke-linejoin="round"/>
<path d="M259.412 263.23H63.0625L69.6845 246.562H215.235L259.412 263.23Z" fill="white" stroke="#2855AF" stroke-linecap="round" stroke-linejoin="round"/>
<path d="M256.716 266.562H65.2383V271.819H256.716V266.562Z" fill="#2855AF" stroke="#2855AF" stroke-linecap="round" stroke-linejoin="round"/>
<path d="M259.412 263.229H63.0625V269.417H259.412V263.229Z" fill="white" stroke="#2855AF" stroke-linecap="round" stroke-linejoin="round"/>
<path d="M137.029 248.697L142.72 257.678H96.625L101.112 248.697H137.029Z" fill="white"/>
<path d="M128.352 251.393L134.043 260.367H87.9414L92.4354 251.393H128.352Z" fill="white"/>
<path d="M72.2465 201.931L81.1015 243.161L115.57 248.026C115.57 248.026 125.93 243.826 126.77 243.826C127.61 243.826 129.094 246.36 129.731 247.207C130.368 248.054 131.418 249.307 131.831 249.958C132.244 250.609 132.461 253.759 131.831 254.606C131.201 255.453 129.927 257.777 128.653 257.567C127.379 257.357 128.653 253.976 128.653 253.976C128.653 253.976 121.254 256.93 118.93 256.93C116.606 256.93 111.93 254.83 111.93 254.83C111.93 254.83 72.7015 259.233 70.3425 258.4C69.3807 258.102 68.49 257.611 67.7254 256.956C66.9609 256.301 66.3388 255.497 65.8975 254.592C65.0575 252.905 51.5195 207.65 51.5195 207.65" fill="white"/>
<path d="M72.2465 201.931L81.1015 243.161L115.57 248.026C115.57 248.026 125.93 243.826 126.77 243.826C127.61 243.826 129.094 246.36 129.731 247.207C130.368 248.054 131.418 249.307 131.831 249.958C132.244 250.609 132.461 253.759 131.831 254.606C131.201 255.453 129.927 257.777 128.653 257.567C127.379 257.357 128.653 253.976 128.653 253.976C128.653 253.976 121.254 256.93 118.93 256.93C116.606 256.93 111.93 254.83 111.93 254.83C111.93 254.83 72.7015 259.233 70.3425 258.4C69.3807 258.102 68.49 257.611 67.7254 256.956C66.9609 256.301 66.3388 255.497 65.8975 254.592C65.0575 252.905 51.5195 207.65 51.5195 207.65" stroke="#2855AF" stroke-linecap="round" stroke-linejoin="round"/>
<path d="M129.756 247.199C129.119 246.352 127.656 243.818 126.795 243.818C125.934 243.818 115.595 248.018 115.595 248.018L95.9531 245.218C97.2334 248.792 97.5592 252.638 96.8981 256.376C105.095 255.536 111.997 254.752 111.997 254.752C111.997 254.752 116.652 256.852 118.997 256.852C121.342 256.852 128.699 253.947 128.699 253.947C128.699 253.947 127.432 257.328 128.699 257.538C129.966 257.748 131.24 255.438 131.877 254.577C132.514 253.716 132.297 250.559 131.877 249.929C131.457 249.299 130.386 248.025 129.756 247.199Z" fill="white" stroke="#2855AF" stroke-linecap="round" stroke-linejoin="round"/>
<path d="M4.63281 271.818H339.401" stroke="#2855AF" stroke-linecap="round" stroke-linejoin="round"/>
<path d="M188.522 257.959H225.734V256.762L170.336 248.474L171.68 249.671L188.522 257.959Z" fill="white" stroke="#2855AF" stroke-linecap="round" stroke-linejoin="round"/>
<path d="M188.522 256.762H225.734L206.078 248.67L171.68 248.474L188.522 256.762Z" fill="white" stroke="#2855AF" stroke-linecap="round" stroke-linejoin="round"/>
<path d="M194.583 250.314H198.069L196.291 249.572L192.875 249.6L194.583 250.314Z" fill="white" stroke="#2855AF" stroke-width="0.75" stroke-linecap="round" stroke-linejoin="round"/>
<path d="M201.66 253.275L203.445 254.024H206.931L205.146 253.275H201.66Z" fill="white" stroke="#2855AF" stroke-width="0.75" stroke-linecap="round" stroke-linejoin="round"/>
<path d="M208.123 252.155H204.266L205.288 252.582H209.159L208.123 252.155Z" fill="white" stroke="#2855AF" stroke-width="0.75" stroke-linecap="round" stroke-linejoin="round"/>
<path d="M199.995 252.582H203.488L202.466 252.155H198.98L199.995 252.582Z" fill="white" stroke="#2855AF" stroke-width="0.75" stroke-linecap="round" stroke-linejoin="round"/>
<path d="M202.606 251.463H206.435L205.343 251.015H201.535L202.606 251.463Z" fill="white" stroke="#2855AF" stroke-width="0.75" stroke-linecap="round" stroke-linejoin="round"/>
<path d="M189.291 250.314H192.783L191.111 249.614L187.688 249.649L189.291 250.314Z" fill="white" stroke="#2855AF" stroke-width="0.75" stroke-linecap="round" stroke-linejoin="round"/>
<path d="M196.242 251.015L197.313 251.463H200.806L199.735 251.015H196.242Z" fill="white" stroke="#2855AF" stroke-width="0.75" stroke-linecap="round" stroke-linejoin="round"/>
<path d="M213.342 255.957H217.353L214.357 254.725H210.395L213.342 255.957Z" fill="white" stroke="#2855AF" stroke-width="0.75" stroke-linecap="round" stroke-linejoin="round"/>
<path d="M205.105 254.725L208.052 255.957H211.546L208.599 254.725H205.105Z" fill="white" stroke="#2855AF" stroke-width="0.75" stroke-linecap="round" stroke-linejoin="round"/>
<path d="M199.812 254.725L202.759 255.957H206.253L203.305 254.725H199.812Z" fill="white" stroke="#2855AF" stroke-width="0.75" stroke-linecap="round" stroke-linejoin="round"/>
<path d="M198.013 254.725H191.195L193.631 255.957H200.96L198.013 254.725Z" fill="white" stroke="#2855AF" stroke-width="0.75" stroke-linecap="round" stroke-linejoin="round"/>
<path d="M199.875 250.314H203.648L201.723 249.523L198.055 249.558L199.875 250.314Z" fill="white" stroke="#2855AF" stroke-width="0.75" stroke-linecap="round" stroke-linejoin="round"/>
<path d="M206.953 253.275L208.738 254.024H212.672L210.852 253.275H206.953Z" fill="white" stroke="#2855AF" stroke-width="0.75" stroke-linecap="round" stroke-linejoin="round"/>
<path d="M201.645 254.024L199.853 253.275H196.367L198.152 254.024H201.645Z" fill="white" stroke="#2855AF" stroke-width="0.75" stroke-linecap="round" stroke-linejoin="round"/>
<path d="M187.49 250.315L185.922 249.664L181.281 249.699L182.492 250.315H187.49Z" fill="white" stroke="#2855AF" stroke-width="0.75" stroke-linecap="round" stroke-linejoin="round"/>
<path d="M197.173 252.155H193.688L194.703 252.582H198.195L197.173 252.155Z" fill="white" stroke="#2855AF" stroke-width="0.75" stroke-linecap="round" stroke-linejoin="round"/>
<path d="M190.949 251.015L192.02 251.463H195.513L194.442 251.015H190.949Z" fill="white" stroke="#2855AF" stroke-width="0.75" stroke-linecap="round" stroke-linejoin="round"/>
<path d="M192.905 252.582L191.89 252.155H186.129L186.976 252.582H192.905Z" fill="white" stroke="#2855AF" stroke-width="0.75" stroke-linecap="round" stroke-linejoin="round"/>
<path d="M184.753 251.463H190.22L189.149 251.015H183.871L184.753 251.463Z" fill="white" stroke="#2855AF" stroke-width="0.75" stroke-linecap="round" stroke-linejoin="round"/>
<path d="M194.571 253.275H188.348L189.825 254.024H196.356L194.571 253.275Z" fill="white" stroke="#2855AF" stroke-width="0.75" stroke-linecap="round" stroke-linejoin="round"/>
<path d="M188.521 256.762H187.177L161.438 219.648L162.711 219.263H179.561L188.521 256.762Z" fill="white" stroke="#2855AF" stroke-linecap="round" stroke-linejoin="round"/>
<path d="M187.177 256.762L170.335 248.474L161.375 219.263H178.217L187.177 256.762Z" fill="white" stroke="#2855AF" stroke-linecap="round" stroke-linejoin="round"/>
<path d="M334.445 271.819V226.823C334.445 226.502 334.317 226.194 334.09 225.967C333.863 225.74 333.555 225.612 333.234 225.612H316.84C316.519 225.612 316.211 225.74 315.984 225.967C315.756 226.194 315.629 226.502 315.629 226.823V271.819H334.445Z" fill="#2855AF" stroke="#2855AF" stroke-linecap="round" stroke-linejoin="round"/>
<path d="M328.516 271.819V226.823C328.517 226.664 328.486 226.506 328.426 226.359C328.365 226.211 328.276 226.078 328.163 225.965C328.051 225.852 327.917 225.763 327.77 225.703C327.622 225.642 327.464 225.611 327.305 225.612H310.918C310.759 225.611 310.601 225.642 310.454 225.703C310.306 225.763 310.172 225.852 310.06 225.965C309.947 226.078 309.858 226.211 309.797 226.359C309.737 226.506 309.706 226.664 309.707 226.823V271.819H328.516Z" fill="white" stroke="#2855AF" stroke-linecap="round" stroke-linejoin="round"/>
<path d="M262.836 200.084C262.836 200.084 255.612 204.9 254.702 207.861C253.792 210.822 248.402 227.678 247.849 228.973C247.296 230.268 242.851 237.121 242.851 237.121L219.149 238.227C219.149 238.227 208.411 235.826 207.48 235.826C206.549 235.826 197.295 241.937 196.553 243.603C195.811 245.269 194.152 247.677 194.887 248.23C195.622 248.783 196.742 247.859 196.742 247.859C196.742 247.859 197.113 250.449 201.74 249.525C206.367 248.601 211.001 245.269 211.001 245.269C211.001 245.269 216.741 248.069 218.96 247.488L219.149 247.432V249.896C219.149 249.896 250.446 251.562 251.741 251.191C253.036 250.82 259.889 242.49 259.889 242.49L267.848 199.524C267.848 199.524 267.463 195.45 262.836 200.084Z" fill="#7CCCDB" stroke="#2855AF" stroke-linecap="round" stroke-linejoin="round"/>
<path d="M219.644 238.87L219.196 238.226H219.133C219.133 238.226 208.395 235.825 207.464 235.825C206.533 235.825 197.279 241.936 196.537 243.602C195.795 245.268 194.136 247.676 194.871 248.229C195.606 248.782 196.726 247.858 196.726 247.858C196.726 247.858 197.097 250.448 201.724 249.524C206.351 248.6 210.985 245.268 210.985 245.268C210.985 245.268 216.725 248.068 218.944 247.487L219.133 247.431V249.895L219.644 238.87Z" fill="white" stroke="#2855AF" stroke-linecap="round" stroke-linejoin="round"/>
<path d="M263.715 271.819H264.45C263.883 270.475 263.386 269.243 263.183 268.571C262.595 266.597 255.483 240.893 254.685 237.141C253.887 233.389 254.286 228.041 256.267 220.53C258.248 213.019 262.833 200.083 262.833 200.083L256.267 209.267C256.267 209.267 250.73 230.617 250.73 233.382C250.73 236.147 253.495 250.182 256.267 257.105C257.87 261.116 261.202 267.311 263.715 271.819Z" fill="#7CCCDB" stroke="#2855AF" stroke-linecap="round" stroke-linejoin="round"/>
<path d="M265.795 194.896C265.795 194.896 258.949 205.634 257.094 213.047C255.239 220.46 253.762 226.935 253.762 233.599C253.762 240.263 261.168 259.156 262.281 261.564C263.394 263.972 275.427 264.707 279.13 253.227C282.833 241.747 284.499 208.602 282.28 201.007C280.061 193.412 270.429 189.898 265.795 194.896Z" fill="white" stroke="#2855AF" stroke-linecap="round" stroke-linejoin="round"/>
<path d="M263.87 193.342C263.415 194.042 257.262 197.444 257.262 197.444L257.031 203.821L258.858 200.405L261.7 208.868L264.759 193.111L263.87 193.342Z" fill="white" stroke="#2855AF" stroke-linecap="round" stroke-linejoin="round"/>
<path d="M264.556 271.819H314.956C313.297 267.381 306.885 250.189 306.689 249.419C306.458 248.502 301.222 207.944 295.748 200.419C290.274 192.894 277.548 190.164 274.79 191.76C274.79 191.76 265.69 210.219 262.253 218.878C258.816 227.537 256.555 244.624 256.555 247.13C256.555 249.636 261.343 265.33 261.343 265.33L264.556 271.819Z" fill="#7CCCDB" stroke="#2855AF" stroke-linecap="round" stroke-linejoin="round"/>
<path d="M300.857 258.26L279.066 264.749L280.459 267.528L292.513 263.825" stroke="#2855AF" stroke-linecap="round" stroke-linejoin="round"/>
<path d="M253.097 161.261C253.097 161.261 251.347 166.665 251.305 167.778C251.288 168.607 251.314 169.437 251.382 170.263C251.404 170.706 251.297 171.146 251.074 171.53C250.71 172.118 246.615 176.059 247.098 176.85C247.581 177.641 250.409 180.784 250.409 180.784C250.409 180.784 252.39 190.227 255.043 191.319C257.696 192.411 261.441 191.739 261.441 191.739L262.792 195.428L279.34 190.003L279.088 184.564C279.088 184.564 280.747 174.876 278.843 167.918C276.939 160.96 260.384 153.4 253.097 161.261Z" fill="white" stroke="#2855AF" stroke-linecap="round" stroke-linejoin="round"/>
<path d="M253.631 172.363C253.435 173.168 253.022 173.763 252.714 173.686C252.406 173.609 252.308 172.895 252.504 172.09C252.7 171.285 253.106 170.69 253.421 170.767C253.736 170.844 253.82 171.558 253.631 172.363Z" fill="#2855AF"/>
<path d="M252.453 168.696C252.787 168.603 253.136 168.578 253.48 168.621C253.824 168.664 254.156 168.774 254.458 168.946C254.759 169.118 255.023 169.347 255.235 169.622C255.447 169.896 255.603 170.209 255.694 170.544" fill="white"/>
<path d="M252.453 168.696C252.787 168.603 253.136 168.578 253.48 168.621C253.824 168.664 254.156 168.774 254.458 168.946C254.759 169.118 255.023 169.347 255.235 169.622C255.447 169.896 255.603 170.209 255.694 170.544" stroke="#2855AF" stroke-linecap="round" stroke-linejoin="round"/>
<path d="M250.836 182.101C250.836 182.101 252.684 183.956 255.925 182.801Z" fill="white"/>
<path d="M250.836 182.101C250.836 182.101 252.684 183.956 255.925 182.801" stroke="#2855AF" stroke-linecap="round" stroke-linejoin="round"/>
<path d="M263.24 148.017C262.714 146.726 261.875 145.586 260.798 144.7C259.721 143.814 258.441 143.21 257.073 142.942C252.355 142.032 248.981 148.612 250.164 151.139C251.347 153.666 251.879 154.24 249.611 154.366C247.343 154.492 242.996 160.393 246.811 164.012C250.626 167.631 255.253 162.458 255.484 164.306C255.715 166.154 255.092 167.806 257.311 167.883C259.53 167.96 263.177 167.729 262.603 169.164C262.029 170.599 261.903 173.924 264.003 174.435C266.103 174.946 267.419 172.335 268.903 172.706C270.387 173.077 272.403 177.802 271.08 180.406C269.757 183.01 268.882 183.017 268.728 183.654C268.574 184.291 272.683 188.638 276.904 187.854C281.125 187.07 286.613 185.712 287.257 181.162C287.901 176.612 286.557 175.618 288.307 174.022C290.057 172.426 291.73 171.922 291.233 169.346C290.736 166.77 289.133 165.93 289.651 163.809C290.169 161.688 288.062 152 278.99 147.8C269.918 143.6 263.24 148.017 263.24 148.017Z" fill="#2855AF" stroke="#2855AF" stroke-linecap="round" stroke-linejoin="round"/>
<path d="M281.083 184.886L260.223 196.989L261.721 208.868L283.981 191.172L281.083 184.886Z" fill="white" stroke="#2855AF" stroke-linecap="round" stroke-linejoin="round"/>
<path d="M226.503 241.194C226.503 241.194 222.303 239.633 219.643 238.87C215.079 237.561 210.802 235.615 209.206 236.07C207.61 236.525 199.84 241.873 199.84 241.873C199.84 241.873 197.103 248.481 197.334 249.398C197.565 250.315 199.231 248.838 199.231 248.838C199.231 248.838 198.244 250.077 199.154 250.994C200.064 251.911 200.981 250.077 200.981 250.077C200.981 250.077 200.75 252.359 202.115 252.128C202.466 252.115 202.803 251.986 203.073 251.762C203.344 251.538 203.534 251.232 203.613 250.889C203.613 250.889 203.711 252.128 204.852 252.128C205.993 252.128 208.499 247.347 208.499 247.347L212.825 247.571C212.825 247.571 216.248 249.398 218.299 249.622C220.35 249.846 222.856 248.481 222.856 248.481L225.586 249.181L227.868 242.573L226.503 241.194Z" fill="white" stroke="#2855AF" stroke-linecap="round" stroke-linejoin="round"/>
<path d="M199.23 248.839C199.23 248.839 201.561 243.239 201.932 242.875C202.303 242.511 206.965 239.893 206.965 239.893" stroke="#2855AF" stroke-linecap="round" stroke-linejoin="round"/>
<path d="M200.98 250.077C200.98 250.077 203.78 244.365 204.081 244.085C204.382 243.805 207.896 242.041 207.896 242.041" stroke="#2855AF" stroke-linecap="round" stroke-linejoin="round"/>
<path d="M203.602 250.889C203.602 250.889 206.304 245.674 206.773 245.394C207.242 245.114 208.446 244.463 208.446 244.463" stroke="#2855AF" stroke-linecap="round" stroke-linejoin="round"/>
<path d="M286.899 199.95C286.899 199.95 272.542 209.288 272.773 212.935C273.004 216.582 274.138 216.582 274.138 216.582L266.844 243.924C266.844 243.924 264.569 242.104 264.338 244.386L264.114 246.661L226.055 240.284L222.184 249.853C222.184 249.853 237.906 256.006 248.847 259.877C259.788 263.748 271.177 268.081 272.311 266.03C273.445 263.979 295.999 230.253 297.399 227.747C298.799 225.241 298.799 220.684 298.799 220.684" fill="#7CCCDB"/>
<path d="M286.899 199.95C286.899 199.95 272.542 209.288 272.773 212.935C273.004 216.582 274.138 216.582 274.138 216.582L266.844 243.924C266.844 243.924 264.569 242.104 264.338 244.386L264.114 246.661L226.055 240.284L222.184 249.853C222.184 249.853 237.906 256.006 248.847 259.877C259.788 263.748 271.177 268.081 272.311 266.03C273.445 263.979 295.999 230.253 297.399 227.747C298.799 225.241 298.799 220.684 298.799 220.684" stroke="#2855AF" stroke-linecap="round" stroke-linejoin="round"/>
<path d="M274.125 216.582C274.125 216.582 278.451 207.699 288.937 207.013" stroke="#2855AF" stroke-linecap="round" stroke-linejoin="round"/>
</svg>
