<svg width="293" height="301" viewBox="0 0 293 301" fill="none" xmlns="http://www.w3.org/2000/svg">
<g clip-path="url(#clip0)">
<path d="M66.7031 31.4434L154.763 175.307L261.765 73.9404" stroke="#2855AF" stroke-linecap="round" stroke-linejoin="round"/>
<path d="M20.4062 181.853L154.764 175.308L56.9812 133.84" stroke="#2855AF" stroke-linecap="round" stroke-linejoin="round"/>
<path d="M176.332 14.4053L156.34 178.695L278.966 203.027" stroke="#2855AF" stroke-linecap="round" stroke-linejoin="round"/>
<path d="M59.0234 277.697L154.762 175.308L254.078 250.565" stroke="#2855AF" stroke-linecap="round" stroke-linejoin="round"/>
<path d="M17.4159 163.66C14.0378 163.66 10.7356 164.662 7.92681 166.539C5.11801 168.415 2.92883 171.083 1.63608 174.204C0.343338 177.325 0.00509703 180.759 0.664133 184.072C1.32317 187.386 2.94988 190.429 5.33856 192.818C7.72724 195.206 10.7706 196.833 14.0838 197.492C17.397 198.151 20.8312 197.813 23.9522 196.52C27.0731 195.227 29.7407 193.038 31.6174 190.229C33.4942 187.421 34.4959 184.118 34.4959 180.74C34.4904 176.212 32.6891 171.871 29.4872 168.669C26.2853 165.467 21.9441 163.666 17.4159 163.66V163.66Z" fill="#2855AF"/>
<path fill-rule="evenodd" clip-rule="evenodd" d="M27.8737 180.299C27.6995 177.841 26.6058 175.539 24.8105 173.851C23.0151 172.163 20.6499 171.214 18.1859 171.192C15.722 171.17 13.3401 172.077 11.5149 173.732C9.68957 175.387 8.55482 177.669 8.33666 180.124C8.33666 180.264 8.33666 180.404 8.33666 180.551C8.33499 182.318 8.81931 184.052 9.73666 185.563L7.97266 190.764L13.3907 189.042C14.875 189.852 16.5438 190.265 18.2349 190.24C19.926 190.215 21.5818 189.752 23.0412 188.897C24.5006 188.043 25.7139 186.825 26.5632 185.362C27.4124 183.899 27.8687 182.242 27.8877 180.551C27.8807 180.467 27.8807 180.383 27.8737 180.299ZM18.0737 188.699C16.4667 188.7 14.8945 188.23 13.5517 187.348L10.3947 188.356L11.4237 185.325C10.4036 183.94 9.85405 182.264 9.85566 180.544C9.85549 180.279 9.86952 180.015 9.89766 179.753C10.0749 177.688 11.0251 175.766 12.5581 174.372C14.0911 172.977 16.094 172.213 18.1662 172.232C20.2385 172.25 22.2273 173.05 23.7351 174.472C25.2429 175.894 26.1584 177.832 26.2987 179.9C26.2987 180.11 26.2987 180.32 26.2987 180.537C26.2894 182.705 25.4219 184.782 23.8859 186.313C22.3499 187.844 20.2702 188.704 18.1017 188.706L18.0737 188.699Z" fill="white"/>
<path fill-rule="evenodd" clip-rule="evenodd" d="M22.5881 182.503C22.3431 182.384 21.1881 181.803 20.9431 181.733C20.6981 181.663 20.5651 181.614 20.4041 181.852C20.2431 182.09 19.7811 182.622 19.6481 182.783C19.5151 182.944 19.3681 182.958 19.1231 182.839C18.4166 182.562 17.7648 182.161 17.1981 181.656C16.674 181.181 16.2255 180.629 15.8681 180.018C15.7281 179.78 15.8681 179.647 15.9731 179.528C16.0781 179.409 16.2111 179.255 16.3301 179.115L16.4211 179.003C16.4771 178.912 16.5262 178.816 16.5681 178.716C16.603 178.653 16.6213 178.582 16.6213 178.51C16.6213 178.438 16.603 178.367 16.5681 178.303C16.5051 178.184 16.0291 177.008 15.8261 176.532C15.6231 176.056 15.4271 176.14 15.2871 176.14C15.1471 176.14 14.9861 176.14 14.8251 176.14C14.7043 176.142 14.5852 176.17 14.4756 176.22C14.3659 176.271 14.268 176.344 14.1881 176.434C13.9169 176.689 13.7021 176.997 13.5574 177.339C13.4127 177.682 13.3414 178.051 13.3481 178.422C13.3518 178.698 13.3942 178.971 13.4741 179.234C13.6608 179.828 13.9498 180.385 14.3281 180.879C14.4471 181.033 15.9871 183.518 18.4231 184.47C20.8591 185.422 20.8591 185.107 21.3001 185.065C21.6345 185.002 21.9515 184.867 22.2302 184.672C22.5089 184.476 22.743 184.224 22.9171 183.931C23.0696 183.577 23.1182 183.186 23.0571 182.804C22.9801 182.699 22.7981 182.622 22.5881 182.503Z" fill="white"/>
<path d="M62.6982 11.648C58.2273 11.7385 53.97 13.5782 50.84 16.7721C47.7101 19.966 45.957 24.2597 45.957 28.7315C45.957 33.2034 47.7101 37.497 50.84 40.691C53.97 43.8849 58.2273 45.7245 62.6982 45.815V45.815C64.9707 45.861 67.2296 45.4532 69.3426 44.6153C71.4555 43.7774 73.38 42.5264 75.0035 40.9355C76.6269 39.3446 77.9166 37.4458 78.7971 35.3502C79.6775 33.2547 80.131 31.0045 80.131 28.7315C80.131 26.4585 79.6775 24.2084 78.7971 22.1128C77.9166 20.0173 76.6269 18.1184 75.0035 16.5275C73.38 14.9366 71.4555 13.6856 69.3426 12.8478C67.2296 12.0099 64.9707 11.602 62.6982 11.648V11.648Z" fill="#2855AF"/>
<path d="M73.5339 23.2537C73.411 22.7705 73.1612 22.3288 72.8105 21.9744C72.4598 21.62 72.0208 21.3657 71.5389 21.2377C69.7679 20.7617 62.6909 20.7617 62.6909 20.7617C62.6909 20.7617 55.6139 20.7617 53.8499 21.2377C53.3686 21.3686 52.9303 21.6237 52.5789 21.9776C52.2275 22.3315 51.9754 22.7716 51.8479 23.2537C51.2226 26.881 51.2226 30.5885 51.8479 34.2157C51.9767 34.6972 52.2292 35.1367 52.5804 35.4903C52.9316 35.844 53.3693 36.0996 53.8499 36.2317C55.6139 36.7077 62.6909 36.7077 62.6909 36.7077C62.6909 36.7077 69.7679 36.7077 71.5389 36.2317C72.0188 36.0998 72.4557 35.8442 72.8058 35.4904C73.1559 35.1366 73.407 34.697 73.5339 34.2157C74.1685 30.5893 74.1685 26.8802 73.5339 23.2537V23.2537Z" fill="white"/>
<path d="M60.3828 32.1022V25.3682L66.2978 28.7352L60.3828 32.1022Z" fill="#2855AF"/>
<path d="M60.2711 256.2C55.8408 256.2 51.51 257.514 47.8263 259.975C44.1427 262.437 41.2716 265.935 39.5762 270.028C37.8808 274.121 37.4372 278.625 38.3015 282.97C39.1658 287.315 41.2992 291.307 44.4319 294.439C47.5646 297.572 51.5559 299.705 55.9011 300.57C60.2463 301.434 64.7501 300.991 68.8432 299.295C72.9363 297.6 76.4347 294.729 78.896 291.045C81.3574 287.361 82.6711 283.031 82.6711 278.6C82.6711 272.659 80.3111 266.962 76.1103 262.761C71.9095 258.56 66.212 256.2 60.2711 256.2Z" fill="#2855AF"/>
<path d="M56.4975 292.963H62.2935V278.452H66.3325L66.7665 273.594H62.2935V270.794C62.2935 269.646 62.5175 269.198 63.6305 269.198H66.7665V264.151H62.7555C58.4435 264.151 56.4975 266.055 56.4975 269.688V273.559H53.4805V278.459H56.4975V292.963Z" fill="white"/>
<path d="M254.68 233.877C251.3 233.876 247.995 234.877 245.184 236.754C242.373 238.631 240.182 241.299 238.888 244.422C237.594 247.544 237.255 250.981 237.914 254.296C238.573 257.611 240.201 260.656 242.591 263.046C244.981 265.436 248.026 267.064 251.341 267.723C254.656 268.382 258.093 268.043 261.215 266.749C264.338 265.455 267.006 263.264 268.883 260.453C270.76 257.642 271.761 254.337 271.76 250.957C271.754 246.429 269.953 242.088 266.751 238.886C263.549 235.684 259.208 233.883 254.68 233.877V233.877Z" fill="#2855AF"/>
<path d="M254.681 242.802C257.341 242.802 257.656 242.802 258.706 242.858C259.337 242.866 259.962 242.982 260.554 243.201C260.983 243.363 261.372 243.616 261.695 243.943C262.026 244.264 262.28 244.657 262.437 245.091C262.66 245.682 262.776 246.307 262.78 246.939C262.829 247.989 262.843 248.339 262.843 250.957C262.843 253.575 262.843 253.932 262.78 254.982C262.776 255.613 262.66 256.239 262.437 256.83C262.281 257.263 262.027 257.653 261.695 257.971C261.374 258.302 260.985 258.558 260.554 258.72C259.962 258.938 259.337 259.054 258.706 259.063C257.656 259.112 257.341 259.119 254.681 259.119C252.021 259.119 251.706 259.119 250.656 259.063C250.025 259.053 249.4 258.937 248.808 258.72C248.377 258.558 247.987 258.302 247.667 257.971C247.334 257.653 247.08 257.263 246.925 256.83C246.702 256.239 246.586 255.613 246.582 254.982C246.533 253.932 246.519 253.617 246.519 250.957C246.519 248.297 246.519 247.989 246.582 246.939C246.586 246.307 246.702 245.682 246.925 245.091C247.082 244.657 247.335 244.264 247.667 243.943C247.989 243.616 248.378 243.363 248.808 243.201C249.4 242.983 250.025 242.867 250.656 242.858C251.706 242.809 252.021 242.802 254.681 242.802ZM254.681 241.01C251.979 241.01 251.636 241.01 250.579 241.066C249.767 241.077 248.962 241.224 248.199 241.5C247.537 241.755 246.936 242.146 246.435 242.648C245.933 243.149 245.542 243.75 245.287 244.412C244.999 245.185 244.843 246.002 244.825 246.827C244.776 247.891 244.762 248.227 244.762 250.929C244.762 253.631 244.762 253.974 244.825 255.038C244.843 255.863 244.999 256.679 245.287 257.453C245.538 258.121 245.927 258.729 246.429 259.237C246.931 259.744 247.534 260.141 248.199 260.4C248.972 260.689 249.788 260.845 250.614 260.862C251.671 260.911 252.014 260.918 254.716 260.918C257.418 260.918 257.761 260.918 258.818 260.862C259.643 260.845 260.46 260.689 261.233 260.4C261.894 260.144 262.495 259.753 262.997 259.252C263.498 258.75 263.889 258.15 264.145 257.488C264.433 256.714 264.589 255.898 264.607 255.073C264.656 254.009 264.67 253.673 264.67 250.964C264.67 248.255 264.67 247.926 264.607 246.862C264.589 246.037 264.433 245.22 264.145 244.447C263.889 243.785 263.498 243.184 262.997 242.683C262.495 242.181 261.894 241.79 261.233 241.535C260.46 241.245 259.643 241.089 258.818 241.073C257.761 241.024 257.418 241.017 254.716 241.017" fill="white"/>
<path d="M254.679 245.847C253.666 245.845 252.676 246.144 251.833 246.706C250.991 247.268 250.334 248.067 249.946 249.002C249.557 249.938 249.455 250.967 249.653 251.96C249.85 252.954 250.337 253.866 251.053 254.582C251.769 255.298 252.682 255.785 253.675 255.983C254.668 256.18 255.698 256.078 256.633 255.69C257.568 255.302 258.368 254.645 258.929 253.802C259.491 252.96 259.79 251.969 259.789 250.957C259.789 249.601 259.25 248.302 258.292 247.343C257.334 246.385 256.034 245.847 254.679 245.847V245.847ZM254.679 254.247C254.022 254.247 253.381 254.052 252.835 253.688C252.29 253.323 251.864 252.805 251.613 252.198C251.362 251.592 251.296 250.925 251.424 250.281C251.552 249.638 251.868 249.047 252.333 248.583C252.797 248.118 253.388 247.802 254.031 247.674C254.675 247.546 255.342 247.612 255.948 247.863C256.555 248.114 257.073 248.54 257.438 249.085C257.802 249.631 257.997 250.272 257.997 250.929C257.997 251.809 257.647 252.653 257.025 253.275C256.403 253.897 255.559 254.247 254.679 254.247" fill="white"/>
<path d="M261.191 245.644C261.192 245.881 261.123 246.113 260.993 246.311C260.862 246.509 260.675 246.663 260.457 246.755C260.238 246.847 259.997 246.871 259.765 246.826C259.532 246.781 259.318 246.667 259.15 246.5C258.982 246.333 258.867 246.12 258.82 245.887C258.774 245.655 258.797 245.414 258.887 245.195C258.978 244.976 259.131 244.788 259.328 244.656C259.525 244.524 259.757 244.454 259.994 244.454C260.31 244.454 260.614 244.579 260.838 244.802C261.062 245.025 261.189 245.328 261.191 245.644" fill="white"/>
<path d="M260.923 97.7482C254.054 97.7482 247.467 95.0195 242.609 90.1623C237.752 85.3051 235.023 78.7174 235.023 71.8482V71.8482C235.023 64.9791 237.752 58.3914 242.609 53.5342C247.467 48.677 254.054 45.9482 260.923 45.9482V45.9482C267.793 45.9482 274.38 48.677 279.238 53.5342C284.095 58.3914 286.823 64.9791 286.823 71.8482V71.8482C286.823 78.7174 284.095 85.3051 279.238 90.1623C274.38 95.0195 267.793 97.7482 260.923 97.7482V97.7482Z" fill="#2855AF" stroke="#2855AF" stroke-linecap="round" stroke-linejoin="round"/>
<path d="M247.137 80.5347C249.724 82.196 252.735 83.0781 255.81 83.0757C266.31 83.0757 272.253 74.1997 271.91 66.2407C273.006 65.436 273.954 64.4457 274.71 63.3147C273.678 63.772 272.583 64.0716 271.462 64.2037C272.642 63.4964 273.525 62.3844 273.947 61.0747C272.838 61.7423 271.624 62.2157 270.356 62.4747C269.503 61.5657 268.375 60.9632 267.145 60.7608C265.915 60.5583 264.653 60.7672 263.554 61.3549C262.455 61.9427 261.581 62.8765 261.067 64.0117C260.552 65.1469 260.427 66.42 260.71 67.6337C258.46 67.5228 256.259 66.9393 254.25 65.9214C252.24 64.9035 250.468 63.474 249.048 61.7257C248.324 62.9712 248.102 64.4455 248.428 65.8487C248.753 67.2518 249.6 68.4784 250.798 69.2787C249.9 69.2513 249.022 69.0114 248.236 68.5787C248.225 69.8933 248.672 71.1706 249.5 72.1921C250.327 73.2136 251.484 73.9159 252.772 74.1787C251.941 74.4061 251.069 74.4373 250.224 74.2698C250.583 75.3954 251.286 76.3801 252.234 77.0857C253.182 77.7913 254.327 78.1823 255.509 78.2037C253.135 80.0547 250.126 80.8925 247.137 80.5347V80.5347Z" fill="white"/>
<path d="M57.9031 119.511C55.2352 119.511 52.6272 120.302 50.409 121.784C48.1907 123.266 46.4618 125.373 45.4409 127.838C44.4199 130.303 44.1528 133.015 44.6733 135.631C45.1937 138.248 46.4784 140.651 48.3649 142.538C50.2514 144.424 52.6549 145.709 55.2715 146.23C57.8881 146.75 60.6003 146.483 63.0651 145.462C65.5299 144.441 67.6366 142.712 69.1188 140.494C70.601 138.276 71.3921 135.668 71.3921 133C71.3884 129.423 69.966 125.995 67.4371 123.466C64.9083 120.937 61.4794 119.514 57.9031 119.511V119.511Z" fill="#7CCCDB"/>
<path d="M53.9719 129.465H51.0039V139.048H53.9719V129.465Z" fill="white"/>
<path d="M52.4719 128.212C52.8227 128.215 53.1665 128.113 53.4596 127.92C53.7526 127.727 53.9818 127.452 54.118 127.128C54.2542 126.805 54.2913 126.448 54.2245 126.104C54.1578 125.76 53.9902 125.443 53.7431 125.194C53.496 124.945 53.1805 124.774 52.8365 124.705C52.4926 124.636 52.1358 124.67 51.8114 124.803C51.487 124.937 51.2096 125.164 51.0143 125.456C50.8191 125.747 50.7149 126.09 50.7149 126.441C50.7139 126.673 50.7587 126.902 50.8465 127.116C50.9343 127.331 51.0634 127.526 51.2266 127.69C51.3897 127.855 51.5837 127.985 51.7973 128.075C52.011 128.164 52.2402 128.211 52.4719 128.212V128.212Z" fill="white"/>
<path d="M58.7146 134.022C58.7146 132.671 59.3306 131.873 60.5206 131.873C61.7106 131.873 62.1306 132.643 62.1306 134.022V139.048H65.0846V133C65.0846 130.438 63.6286 129.192 61.5846 129.192C61.0074 129.184 60.4381 129.327 59.9326 129.605C59.427 129.884 59.0025 130.289 58.7006 130.781V129.5H55.8516V139.083H58.7006L58.7146 134.022Z" fill="white"/>
<path d="M278.258 215.138C276.419 215.138 274.599 214.776 272.9 214.072C271.202 213.368 269.658 212.337 268.358 211.037C267.058 209.737 266.027 208.194 265.323 206.495C264.62 204.797 264.258 202.976 264.258 201.138V201.138C264.258 197.425 265.733 193.864 268.358 191.238C270.984 188.613 274.545 187.138 278.258 187.138V187.138C281.971 187.138 285.532 188.613 288.157 191.238C290.783 193.864 292.258 197.425 292.258 201.138V201.138C292.258 202.976 291.896 204.797 291.192 206.495C290.489 208.194 289.457 209.737 288.157 211.037C286.857 212.337 285.314 213.368 283.615 214.072C281.917 214.776 280.096 215.138 278.258 215.138V215.138Z" fill="#7CCCDB"/>
<path d="M276.198 206.444C276.601 206.368 276.982 206.2 277.311 205.954C277.592 205.742 277.829 205.478 278.011 205.177C278.306 204.71 278.459 204.168 278.452 203.616C278.465 203.108 278.331 202.607 278.067 202.174C277.797 201.765 277.397 201.46 276.933 201.306C277.217 201.173 277.471 200.985 277.682 200.753C278 200.339 278.161 199.825 278.137 199.304C278.149 198.768 277.99 198.243 277.682 197.806C277.372 197.441 276.98 197.156 276.538 196.975C276.096 196.793 275.617 196.721 275.141 196.763H270.395V206.563H274.798C275.267 206.572 275.736 206.532 276.198 206.444V206.444ZM272.348 198.464H274.483C274.876 198.452 275.268 198.504 275.645 198.618C275.818 198.692 275.962 198.819 276.057 198.982C276.151 199.145 276.191 199.334 276.17 199.521C276.187 199.688 276.159 199.856 276.089 200.009C276.019 200.162 275.909 200.293 275.771 200.389C275.453 200.561 275.095 200.643 274.735 200.627H272.348V198.464ZM272.348 204.876V202.258H274.763C275.097 202.243 275.43 202.298 275.743 202.419C275.944 202.508 276.113 202.657 276.226 202.847C276.339 203.036 276.39 203.256 276.373 203.476C276.399 203.721 276.351 203.969 276.235 204.188C276.119 204.406 275.94 204.585 275.722 204.701C275.407 204.83 275.068 204.89 274.728 204.876H272.348Z" fill="white"/>
<path d="M280.07 205.933C280.79 206.52 281.695 206.835 282.625 206.822C283.13 206.854 283.637 206.776 284.109 206.594C284.582 206.411 285.009 206.129 285.362 205.765C285.731 205.416 285.977 204.957 286.062 204.456H284.123C284.029 204.645 283.898 204.814 283.738 204.953C283.436 205.186 283.062 205.306 282.681 205.289C282.312 205.299 281.948 205.204 281.631 205.016C281.384 204.847 281.184 204.617 281.052 204.348C280.919 204.08 280.858 203.782 280.875 203.483H286.16C286.179 203.001 286.16 202.519 286.104 202.041C286.023 201.502 285.825 200.989 285.523 200.536C285.214 200.068 284.78 199.697 284.27 199.465C283.731 199.232 283.149 199.116 282.562 199.122C282.083 199.103 281.605 199.183 281.159 199.356C280.712 199.53 280.305 199.793 279.965 200.13C279.623 200.521 279.361 200.976 279.195 201.469C279.03 201.961 278.963 202.481 278.999 203C278.938 203.538 279.003 204.083 279.189 204.592C279.375 205.101 279.676 205.56 280.07 205.933V205.933ZM281.428 201.103C281.578 200.96 281.756 200.849 281.952 200.778C282.147 200.707 282.354 200.677 282.562 200.69C282.972 200.679 283.373 200.818 283.689 201.082C283.846 201.229 283.972 201.407 284.059 201.604C284.145 201.801 284.191 202.014 284.193 202.23H280.924C280.966 201.81 281.143 201.414 281.428 201.103V201.103Z" fill="white"/>
<path d="M284.571 197.323H280.301V198.317H284.571V197.323Z" fill="white"/>
<path d="M176.328 28.4268C172.615 28.4268 169.054 26.9518 166.429 24.3263C163.803 21.7007 162.328 18.1398 162.328 14.4268C162.328 10.7137 163.803 7.15277 166.429 4.52726C169.054 1.90175 172.615 0.426758 176.328 0.426758V0.426758C180.041 0.426758 183.602 1.90175 186.228 4.52726C188.853 7.15277 190.328 10.7137 190.328 14.4268C190.328 18.1398 188.853 21.7007 186.228 24.3263C183.602 26.9518 180.041 28.4268 176.328 28.4268Z" fill="#7CCCDB"/>
<path d="M208.797 38.9131H96.7617C91.1482 38.9131 86.5977 43.4637 86.5977 49.0771V287.049C86.5977 292.663 91.1482 297.213 96.7617 297.213H208.797C214.41 297.213 218.961 292.663 218.961 287.049V49.0771C218.961 43.4637 214.41 38.9131 208.797 38.9131Z" fill="#2855AF"/>
<path opacity="0.2" d="M98.0007 38.9131C94.9764 38.9131 92.076 40.1145 89.9375 42.2529C87.799 44.3914 86.5977 47.2918 86.5977 50.3161V285.803C86.5959 287.472 86.9611 289.121 87.6676 290.633C88.3741 292.145 89.4044 293.484 90.6857 294.553L167.91 38.9131H98.0007Z" fill="white"/>
<path d="M157.268 289.737C157.268 288.847 157.003 287.976 156.509 287.236C156.014 286.496 155.31 285.919 154.487 285.578C153.665 285.238 152.759 285.149 151.886 285.323C151.013 285.498 150.211 285.927 149.581 286.557C148.952 287.187 148.524 287.99 148.351 288.864C148.178 289.737 148.269 290.642 148.61 291.465C148.952 292.287 149.53 292.989 150.271 293.483C151.012 293.977 151.883 294.24 152.774 294.238C153.364 294.238 153.949 294.122 154.495 293.896C155.041 293.669 155.536 293.338 155.954 292.92C156.371 292.502 156.702 292.005 156.928 291.459C157.153 290.913 157.269 290.328 157.268 289.737V289.737Z" stroke="white" stroke-linecap="round" stroke-linejoin="round"/>
<path d="M208.797 38.9131H96.7617C91.1482 38.9131 86.5977 43.4637 86.5977 49.0771V287.049C86.5977 292.663 91.1482 297.213 96.7617 297.213H208.797C214.41 297.213 218.961 292.663 218.961 287.049V49.0771C218.961 43.4637 214.41 38.9131 208.797 38.9131Z" stroke="#2855AF" stroke-linecap="round" stroke-linejoin="round"/>
<path d="M213.066 56.4551H92.4766V281.883H213.066V56.4551Z" fill="#7CCCDB" stroke="#2855AF" stroke-linecap="round" stroke-linejoin="round"/>
<path d="M150.879 236.257C181.416 236.257 206.172 211.501 206.172 180.964C206.172 150.426 181.416 125.671 150.879 125.671C120.341 125.671 95.5859 150.426 95.5859 180.964C95.5859 211.501 120.341 236.257 150.879 236.257Z" fill="#2855AF"/>
<path d="M209.383 83.5098H96.6484V109.179H209.383V83.5098Z" fill="white"/>
<path d="M209.383 252.049H96.6484V277.718H209.383V252.049Z" fill="white"/>
<path d="M209.383 243.124H96.6484V244.237H209.383V243.124Z" fill="white"/>
<path d="M209.383 248.143H96.6484V249.256H209.383V248.143Z" fill="white"/>
<path d="M208.965 58.793H198.969V64.274H208.965V58.793Z" stroke="#2855AF" stroke-width="0.821067" stroke-linecap="round" stroke-linejoin="round"/>
<path d="M206.767 58.793H198.969V64.274H206.767V58.793Z" fill="#2855AF" stroke="#2855AF" stroke-width="0.725073" stroke-linecap="round" stroke-linejoin="round"/>
<path d="M210.348 60.3262H208.941V62.7412H210.348V60.3262Z" fill="#2855AF" stroke="#2855AF" stroke-width="0.725073" stroke-linecap="round" stroke-linejoin="round"/>
<path d="M97.0254 60.4941H95.1914V63.6371H97.0254V60.4941Z" fill="#2855AF" stroke="#2855AF" stroke-width="0.883086" stroke-linecap="round" stroke-linejoin="round"/>
<path d="M99.9121 59.3877H98.0781V63.6367H99.9121V59.3877Z" fill="#2855AF" stroke="#2855AF" stroke-width="0.883086" stroke-linecap="round" stroke-linejoin="round"/>
<path d="M102.787 58.0859H100.953V63.6369H102.787V58.0859Z" fill="#2855AF" stroke="#2855AF" stroke-width="0.883086" stroke-linecap="round" stroke-linejoin="round"/>
<path d="M210.216 67.3193H94.4219V76.0273H210.216V67.3193Z" fill="#2855AF"/>
<path d="M92.8008 233.1C92.8008 233.1 107.557 181.72 110.343 170.737C113.129 159.754 117.343 152.607 126.037 150.864C134.731 149.121 150.782 147.504 150.782 147.504C150.782 147.504 164.733 146.104 174.841 146.804C184.949 147.504 194.196 152.908 199.075 156.604C203.954 160.3 218.08 172.991 218.08 172.991L216.337 143.703L229.063 144.746C229.063 144.746 238.303 185.542 239.521 193.046C240.739 200.55 240.746 203.861 239.521 204.729C238.296 205.597 240.396 206.129 229.238 202.461C218.08 198.793 205.004 193.746 197.857 191.653C190.71 189.56 189.835 189.21 189.835 189.21C189.835 189.21 172.335 215.544 166.77 223.391C162.95 228.963 159.552 234.812 156.606 240.891" fill="white"/>
<path opacity="0.2" d="M239.499 204.673C240.724 203.805 240.724 200.473 239.499 192.99C238.799 188.517 235.194 172.2 232.422 159.754C233.521 174.454 233.948 188.818 231.722 191.499C226.822 197.295 219.661 189.679 219.661 189.679L218.296 178.381C218.296 178.381 193.894 160.384 184.738 157.332C175.582 154.28 165.838 153.671 156.367 156.723C146.896 159.775 138.979 162.827 133.183 168.623C127.387 174.419 107.283 220.787 107.283 220.787L105.008 234.556L156.584 240.8C159.53 234.721 162.928 228.872 166.748 223.3C172.348 215.453 189.813 189.119 189.813 189.119C189.813 189.119 190.688 189.469 197.835 191.562C204.982 193.655 218.058 198.709 229.216 202.37C240.374 206.031 238.281 205.548 239.499 204.673Z" fill="#2855AF"/>
<path d="M92.8008 233.1C92.8008 233.1 107.557 181.72 110.343 170.737C113.129 159.754 117.343 152.607 126.037 150.864C134.731 149.121 150.782 147.504 150.782 147.504C150.782 147.504 164.733 146.104 174.841 146.804C184.949 147.504 194.196 152.908 199.075 156.604C203.954 160.3 218.08 172.991 218.08 172.991L216.337 143.703L229.063 144.746C229.063 144.746 238.303 185.542 239.521 193.046C240.739 200.55 240.746 203.861 239.521 204.729C238.296 205.597 240.396 206.129 229.238 202.461C218.08 198.793 205.004 193.746 197.857 191.653C190.71 189.56 189.835 189.21 189.835 189.21C189.835 189.21 172.335 215.544 166.77 223.391C162.95 228.963 159.552 234.812 156.606 240.891" stroke="#2855AF" stroke-linecap="round" stroke-linejoin="round"/>
<path d="M194.79 181.069L189.812 189.161L204.541 181.069" stroke="#2855AF" stroke-linecap="round" stroke-linejoin="round"/>
<path d="M218.059 172.942C218.059 172.942 218.759 187.411 219.627 189.679C220.495 191.947 224.338 192.99 224.338 192.99" fill="white"/>
<path d="M218.059 172.942C218.059 172.942 218.759 187.411 219.627 189.679C220.495 191.947 224.338 192.99 224.338 192.99" stroke="#2855AF" stroke-linecap="round" stroke-linejoin="round"/>
<path d="M141.234 172.501C141.234 172.501 139.33 177.016 140.282 177.016C141.234 177.016 147.415 174.643 150.271 174.643C153.127 174.643 156.214 179.634 156.214 179.634C156.214 179.634 164.537 173.453 167.155 174.167C168.437 174.596 169.614 175.293 170.606 176.211C170.772 176.355 170.974 176.45 171.191 176.483C171.408 176.517 171.63 176.489 171.831 176.402C172.033 176.314 172.205 176.172 172.329 175.991C172.453 175.81 172.523 175.597 172.531 175.378C172.58 174.097 172.622 172.347 172.622 170.121C172.622 164.892 168.107 150.626 159.784 149.912C151.461 149.198 150.033 155.141 146.484 162.274C142.935 169.407 141.234 172.501 141.234 172.501Z" fill="#2855AF"/>
<path d="M159.134 141.736C159.134 141.736 151.112 142.8 147.451 146.3C143.79 149.8 145.008 155.365 143.09 160.419C141.172 165.473 137.861 175.763 139.59 175.588C141.319 175.413 147.437 170.534 149.18 171.752C150.923 172.97 154.934 178.052 155.634 178.374C156.334 178.696 165.224 172.277 166.442 171.577C167.66 170.877 173.589 178.577 173.764 176.477C173.939 174.377 174.289 162.008 173.064 154.511C171.839 147.014 163.145 141.911 159.134 141.736Z" fill="white" stroke="#2855AF" stroke-linecap="round" stroke-linejoin="round"/>
<path d="M161.919 131.971C161.919 131.971 158.958 141.036 156.501 144.2C154.044 147.364 153.001 147.861 152.147 155.183C151.293 162.505 155.108 179.067 156.347 178.717C157.586 178.367 169.598 159.194 173.609 156.051C177.62 152.908 181.806 149.604 181.806 149.604C181.806 149.604 172.041 146.636 168.73 142.457C166.228 139.117 163.952 135.614 161.919 131.971V131.971Z" fill="white"/>
<path opacity="0.2" d="M175.339 154.7C178.734 152.033 181.8 149.611 181.8 149.611C181.8 149.611 172.035 146.643 168.724 142.464C166.225 139.131 163.952 135.635 161.92 131.999C160.905 135.068 159.72 138.078 158.371 141.015C159.848 145.152 163.964 151.9 175.339 154.7Z" fill="#2855AF"/>
<path d="M168.724 142.436C166.225 139.103 163.952 135.607 161.92 131.971C161.92 131.971 160.926 135.016 159.617 138.187C160.702 141.33 162.879 146.006 166.778 148.764C169.931 150.867 173.428 152.402 177.11 153.3L181.8 149.604C181.8 149.604 172.035 146.615 168.724 142.436Z" fill="#2855AF"/>
<path d="M161.919 131.971C161.919 131.971 158.958 141.036 156.501 144.2C154.044 147.364 153.001 147.861 152.147 155.183C151.293 162.505 155.108 179.067 156.347 178.717C157.586 178.367 169.598 159.194 173.609 156.051C177.62 152.908 181.806 149.604 181.806 149.604C181.806 149.604 172.041 146.636 168.73 142.457C166.228 139.117 163.952 135.614 161.919 131.971V131.971Z" stroke="#2855AF" stroke-linecap="round" stroke-linejoin="round"/>
<path d="M199.052 108.788C199.052 108.788 198.534 120.471 198.877 124.3C199.22 128.129 200.62 134.8 197.477 141.037C194.334 147.274 191.723 151.327 188.762 152.37C185.801 153.413 176.211 151.327 168.539 145.573C160.867 139.819 159.474 127.968 158.249 124.132C157.024 120.296 158.424 107.22 166.271 103.034C172.624 99.7633 179.996 99.0761 186.844 101.116C191.037 102.509 199.052 108.788 199.052 108.788Z" fill="white"/>
<path opacity="0.2" d="M166.3 103.033C165.181 103.639 164.167 104.421 163.297 105.35L167.336 108.22C167.336 108.22 172.523 103.033 184.136 110.355C190.128 114.135 195.294 114.744 198.899 114.443C198.983 111.335 199.095 108.787 199.095 108.787C199.095 108.787 191.08 102.487 186.894 101.087C180.036 99.0503 172.655 99.7477 166.3 103.033V103.033Z" fill="#2855AF"/>
<path d="M199.052 108.788C199.052 108.788 198.534 120.471 198.877 124.3C199.22 128.129 200.62 134.8 197.477 141.037C194.334 147.274 191.723 151.327 188.762 152.37C185.801 153.413 176.211 151.327 168.539 145.573C160.867 139.819 159.474 127.968 158.249 124.132C157.024 120.296 158.424 107.22 166.271 103.034C172.624 99.7633 179.996 99.0761 186.844 101.116C191.037 102.509 199.052 108.788 199.052 108.788Z" stroke="#2855AF" stroke-linecap="round" stroke-linejoin="round"/>
<path d="M182.59 124.544C182.59 125.783 182.107 126.791 181.512 126.791C180.917 126.791 180.434 125.783 180.434 124.544C180.434 123.305 180.917 122.29 181.512 122.29C182.107 122.29 182.59 123.298 182.59 124.544Z" fill="#2855AF"/>
<path d="M195.324 125.713C195.324 126.959 194.841 127.967 194.246 127.967C193.651 127.967 193.168 126.959 193.168 125.713C193.168 124.467 193.651 123.466 194.246 123.466C194.841 123.466 195.324 124.474 195.324 125.713Z" fill="#2855AF"/>
<path d="M191.906 122.389C191.906 122.389 188.595 125.7 189.463 127.093C190.331 128.486 192.361 129.27 191.731 131.293C191.101 133.316 186.502 134.093 184.934 131.293" stroke="#2855AF" stroke-linecap="round" stroke-linejoin="round"/>
<path d="M174.996 133.196C176.296 134.774 177.918 136.056 179.752 136.958C181.587 137.86 183.593 138.36 185.636 138.425C185.636 138.425 178.482 143.129 175.346 142.625C172.21 142.121 174.996 133.196 174.996 133.196Z" fill="#2855AF" stroke="#2855AF" stroke-linecap="round" stroke-linejoin="round"/>
<path d="M176.668 117.895C176.668 117.895 179.706 113.694 185.768 116.306" stroke="#2855AF" stroke-linecap="round" stroke-linejoin="round"/>
<path d="M193.125 118.027C193.125 118.027 196.961 117.145 198.354 120.827" stroke="#2855AF" stroke-linecap="round" stroke-linejoin="round"/>
<path d="M159.481 128.835C159.481 128.835 161.049 122.038 164.885 119.595C168.721 117.152 172.382 117.677 170.114 114.366C167.846 111.055 166.614 107.737 171.514 106.169C176.414 104.601 185.983 107.219 191.562 109.312C197.141 111.405 207.949 112.112 210.742 104.251C212.464 99.4069 207.424 95.5499 203.742 93.5689C199.661 91.3849 195.083 90.2999 190.477 91.1119C187.677 91.5949 185.01 92.6939 182.21 92.9739C177.471 93.4569 173.292 91.2589 168.567 92.3999C164.601 93.3466 161.051 95.5579 158.452 98.6999C154.077 104.076 152.852 113.841 159.481 128.835Z" fill="#2855AF"/>
<path d="M199.853 90.7832C199.853 90.7832 208.911 95.6832 202.569 103.824C196.227 111.965 190.256 106.365 175.213 103.467C160.17 100.569 151.301 107.996 151.301 107.996" stroke="#7CCCDB" stroke-linecap="round" stroke-linejoin="round"/>
<path d="M152.566 116.9C152.566 116.9 155.464 111.3 164.886 109.655C174.308 108.01 174.854 109.474 174.854 109.474" stroke="#7CCCDB" stroke-linecap="round" stroke-linejoin="round"/>
<path d="M159.481 128.835C159.481 128.835 161.049 122.038 164.885 119.595C168.721 117.152 172.382 117.677 170.114 114.366C167.846 111.055 166.614 107.737 171.514 106.169C176.414 104.601 185.983 107.219 191.562 109.312C197.141 111.405 207.949 112.112 210.742 104.251C212.464 99.4069 207.424 95.5499 203.742 93.5689C199.661 91.3849 195.083 90.2999 190.477 91.1119C187.677 91.5949 185.01 92.6939 182.21 92.9739C177.471 93.4569 173.292 91.2589 168.567 92.3999C164.601 93.3466 161.051 95.5579 158.452 98.6999C154.077 104.076 152.852 113.841 159.481 128.835Z" stroke="#2855AF" stroke-linecap="round" stroke-linejoin="round"/>
<path d="M163.424 126.357C163.424 126.357 158.902 116.004 154.919 121.394C150.936 126.784 158.153 133.602 163.571 132.279" fill="white"/>
<path d="M163.424 126.357C163.424 126.357 158.902 116.004 154.919 121.394C150.936 126.784 158.153 133.602 163.571 132.279" stroke="#2855AF" stroke-linecap="round" stroke-linejoin="round"/>
<path d="M212.654 125.175C212.654 125.175 209.693 124.825 209.154 127.275C208.615 129.725 208.104 133.575 209.154 133.575C210.204 133.575 212.115 133.057 212.815 131.475C213.515 129.893 214.215 125.021 214.215 125.021L212.654 125.175Z" fill="white" stroke="#2855AF" stroke-linecap="round" stroke-linejoin="round"/>
<path d="M217.358 124.3C217.358 124.3 213.158 123.6 212.654 125.175C212.15 126.75 211.436 132.175 211.954 132.322C212.472 132.469 215.615 131.104 215.615 131.104L217.358 124.3Z" fill="white" stroke="#2855AF" stroke-linecap="round" stroke-linejoin="round"/>
<path d="M222.939 124.65C222.939 124.65 218.039 121.514 216.842 123.082C215.645 124.65 215.617 131.104 215.617 131.104C216.05 131.199 216.501 131.186 216.927 131.063C217.354 130.941 217.743 130.714 218.06 130.404C218.935 129.361 219.978 127.968 219.978 127.968C219.978 127.968 223.478 128.836 223.989 128.668C224.5 128.5 225.732 128.668 225.389 126.925C225.046 125.182 222.939 124.65 222.939 124.65Z" fill="white" stroke="#2855AF" stroke-linecap="round" stroke-linejoin="round"/>
<path d="M229.566 127.793C227.366 126.272 225.571 124.237 224.337 121.864C222.594 118.203 221.719 118.364 220.837 119.946C219.955 121.528 221.005 123.082 221.705 124.475C222.405 125.868 225.366 129.186 225.366 129.186L229.566 127.793Z" fill="white" stroke="#2855AF" stroke-linecap="round" stroke-linejoin="round"/>
<path d="M198.208 152.181C198.208 152.181 195.681 173.762 196.073 174.931C196.465 176.1 200.735 177.458 201.708 176.681C202.681 175.904 202.1 174.35 201.708 173.377C201.316 172.404 205.012 154.323 205.012 154.323L198.208 152.181Z" fill="#7CCCDB" stroke="#2855AF" stroke-linecap="round" stroke-linejoin="round"/>
<path d="M134.543 159.656L147.339 199.619C147.339 199.619 176.739 182.497 183.627 173.565C190.515 164.633 194.491 154.56 196.927 153.615C199.363 152.67 207.959 155.015 209.219 156.415C210.479 157.815 210.185 159.348 208.659 160.79C207.133 162.232 206.265 162.435 206.265 162.435C206.265 162.435 206.188 165.578 205.502 166.124C204.816 166.67 204.977 165.963 204.802 166.663C204.682 167.411 204.408 168.126 203.997 168.763C203.493 169.463 203.297 169.827 202.814 170.016C201.811 170.443 200.767 170.766 199.699 170.982C197.817 171.467 195.904 171.818 193.973 172.032C192.762 172.242 184.873 187.831 177.467 197.12C170.061 206.409 146.667 227.71 142.992 227.822C139.317 227.934 117.729 192.276 113.102 183.519" fill="white"/>
<path opacity="0.2" d="M203.998 168.749C204.409 168.113 204.684 167.398 204.803 166.649C204.957 165.949 204.803 166.649 205.503 166.11C206.203 165.571 206.266 162.421 206.266 162.421C206.266 162.421 207.134 162.218 208.66 160.776C210.186 159.334 210.487 157.759 209.22 156.401C207.953 155.043 199.343 152.691 196.928 153.601C196.298 153.846 195.528 154.721 194.688 156.037C195.969 158.137 197.488 159.418 196.088 163.086C193.988 168.686 189.088 175.686 184.888 181.636C180.688 187.586 145.688 220.486 141.488 219.786C138.058 219.212 128.097 207.186 124.555 202.825C132.143 214.998 140.823 227.857 143.028 227.794C146.689 227.682 170.111 206.388 177.503 197.092C184.895 187.796 192.763 172.2 193.974 172.018C195.905 171.804 197.818 171.453 199.7 170.968C200.768 170.753 201.812 170.429 202.815 170.002C203.333 169.813 203.494 169.463 203.998 168.749Z" fill="#2855AF"/>
<path d="M134.543 159.656L147.339 199.619C147.339 199.619 176.739 182.497 183.627 173.565C190.515 164.633 194.491 154.56 196.927 153.615C199.363 152.67 207.959 155.015 209.219 156.415C210.479 157.815 210.185 159.348 208.659 160.79C207.133 162.232 206.265 162.435 206.265 162.435C206.265 162.435 206.188 165.578 205.502 166.124C204.816 166.67 204.977 165.963 204.802 166.663C204.682 167.411 204.408 168.126 203.997 168.763C203.493 169.463 203.297 169.827 202.814 170.016C201.811 170.443 200.767 170.766 199.699 170.982C197.817 171.467 195.904 171.818 193.973 172.032C192.762 172.242 184.873 187.831 177.467 197.12C170.061 206.409 146.667 227.71 142.992 227.822C139.317 227.934 117.729 192.276 113.102 183.519" stroke="#2855AF" stroke-linecap="round" stroke-linejoin="round"/>
<path d="M147.34 199.619C147.34 199.619 143.987 199.759 141.145 208.719" stroke="#2855AF" stroke-linecap="round" stroke-linejoin="round"/>
<path d="M199.697 170.968C200.765 170.753 201.809 170.429 202.812 170.002C203.33 169.813 203.512 169.463 203.995 168.749C204.407 168.113 204.681 167.398 204.8 166.649C204.954 165.949 205.409 165.711 206.088 165.165C206.767 164.619 206.242 162.421 206.242 162.421C206.242 162.421 207.11 162.218 208.636 160.776C210.162 159.334 210.463 157.759 209.196 156.401C207.929 155.043 199.319 152.691 196.904 153.601C194.489 154.511 190.835 163.8 184.5 172.431L190.394 177.261C192.242 174.181 193.558 172.095 193.992 172.018C195.916 171.803 197.822 171.452 199.697 170.968Z" fill="white"/>
<path opacity="0.2" d="M203.998 168.749C204.409 168.113 204.684 167.398 204.803 166.649C204.957 165.949 204.803 166.649 205.503 166.11C206.203 165.571 206.266 162.421 206.266 162.421C206.266 162.421 207.134 162.218 208.66 160.776C210.186 159.334 210.487 157.759 209.22 156.401C207.953 155.043 199.343 152.691 196.928 153.601C196.298 153.846 195.528 154.721 194.688 156.037C195.969 158.137 197.488 159.418 196.088 163.086C193.988 168.686 189.088 175.686 184.888 181.636C180.688 187.586 145.688 220.486 141.488 219.786C138.058 219.212 128.097 207.186 124.555 202.825C132.143 214.998 140.823 227.857 143.028 227.794C146.689 227.682 170.111 206.388 177.503 197.092C184.895 187.796 192.763 172.2 193.974 172.018C195.905 171.804 197.818 171.453 199.7 170.968C200.768 170.753 201.812 170.429 202.815 170.002C203.333 169.813 203.494 169.463 203.998 168.749Z" fill="#2855AF"/>
<path d="M199.697 170.968C200.765 170.753 201.809 170.429 202.812 170.002C203.33 169.813 203.512 169.463 203.995 168.749C204.407 168.113 204.681 167.398 204.8 166.649C204.954 165.949 205.409 165.711 206.088 165.165C206.767 164.619 206.242 162.421 206.242 162.421C206.242 162.421 207.11 162.218 208.636 160.776C210.162 159.334 210.463 157.759 209.196 156.401C207.929 155.043 199.319 152.691 196.904 153.601C194.489 154.511 190.835 163.8 184.5 172.431L190.394 177.261C192.242 174.181 193.558 172.095 193.992 172.018C195.916 171.803 197.822 171.452 199.697 170.968Z" stroke="#2855AF" stroke-linecap="round" stroke-linejoin="round"/>
<path d="M192.082 138.075C190.157 138.075 188.582 140.875 188.582 144.263C188.582 147.651 190.143 150.451 192.082 150.451L234.782 163.352V124.649L192.082 138.075Z" fill="#7CCCDB" stroke="#2855AF" stroke-linecap="round" stroke-linejoin="round"/>
<path d="M216.105 132.923L199.445 137.718" stroke="#2855AF" stroke-linecap="round" stroke-linejoin="round"/>
<path d="M221.677 131.32L218.191 132.328" stroke="#2855AF" stroke-linecap="round" stroke-linejoin="round"/>
<path d="M197.549 136.354L192.082 138.076C190.157 138.076 188.582 140.876 188.582 144.264C188.582 147.652 190.143 150.452 192.082 150.452L197.017 151.943C195.857 149.49 195.3 146.795 195.393 144.084C195.485 141.372 196.225 138.722 197.549 136.354Z" fill="#2855AF" stroke="#2855AF" stroke-linecap="round" stroke-linejoin="round"/>
<path d="M238.456 170.254C246.544 170.254 253.1 158.618 253.1 144.263C253.1 129.909 246.544 118.272 238.456 118.272C230.369 118.272 223.812 129.909 223.812 144.263C223.812 158.618 230.369 170.254 238.456 170.254Z" fill="#7CCCDB" stroke="#2855AF" stroke-linecap="round" stroke-linejoin="round"/>
<path d="M238.458 138.496L224.507 134.765L223.289 144.705L224.857 154.813L238.458 150.032L238.983 138.776" fill="#7CCCDB"/>
<path d="M238.458 138.496L224.507 134.765L223.289 144.705L224.857 154.813L238.458 150.032L238.983 138.776" stroke="#2855AF" stroke-linecap="round" stroke-linejoin="round"/>
<path d="M238.456 115.935C229.643 115.935 222.496 128.619 222.496 144.264C222.496 159.909 229.643 172.593 238.456 172.593C247.269 172.593 254.416 159.909 254.416 144.264C254.416 128.619 247.269 115.935 238.456 115.935ZM238.848 168.575C231.505 168.575 225.548 157.69 225.548 144.264C225.548 130.838 231.505 119.96 238.848 119.96C246.191 119.96 252.148 130.838 252.148 144.264C252.148 157.69 246.198 168.575 238.848 168.575Z" fill="#2855AF" stroke="#2855AF" stroke-linecap="round" stroke-linejoin="round"/>
<path d="M238.455 150.031C240.249 150.031 241.703 147.449 241.703 144.263C241.703 141.078 240.249 138.495 238.455 138.495C236.661 138.495 235.207 141.078 235.207 144.263C235.207 147.449 236.661 150.031 238.455 150.031Z" fill="#7CCCDB" stroke="#2855AF" stroke-linecap="round" stroke-linejoin="round"/>
<path d="M279.617 114.877L282.858 113.869" stroke="#2855AF" stroke-linecap="round" stroke-linejoin="round"/>
<path d="M256.41 122.059L275.618 116.109" stroke="#2855AF" stroke-linecap="round" stroke-linejoin="round"/>
<path d="M258.934 142.835L276.56 143.465" stroke="#2855AF" stroke-linecap="round" stroke-linejoin="round"/>
<path d="M273.535 168.729L277.189 169.904" stroke="#2855AF" stroke-linecap="round" stroke-linejoin="round"/>
<path d="M257.672 163.611L270.636 167.797" stroke="#2855AF" stroke-linecap="round" stroke-linejoin="round"/>
<path d="M258.301 131.502L267.744 130.242" stroke="#2855AF" stroke-linecap="round" stroke-linejoin="round"/>
<path d="M253.891 170.534L260.821 176.204" stroke="#2855AF" stroke-linecap="round" stroke-linejoin="round"/>
</g>
<defs>
<clipPath id="clip0">
<rect width="293" height="301" fill="white"/>
</clipPath>
</defs>
</svg>
