<svg width="399" height="276" viewBox="0 0 399 276" fill="none" xmlns="http://www.w3.org/2000/svg">
<path d="M377.469 164.522C377.231 155.779 377.91 140.869 370.245 134.73C363.511 129.34 358.275 136.655 356.385 142.556C351.807 156.871 353.956 172.656 353.97 187.433C353.97 187.657 353.97 187.881 353.97 188.133C353.613 199.011 352.304 210.778 353.494 221.635C353.494 221.635 352.325 210.757 343.785 215.419C335.245 220.081 348.055 244.546 348.055 244.546C348.055 244.546 337.961 237.168 333.299 243.384C328.637 249.6 339.123 256.586 339.123 256.586C339.123 256.586 329.414 253.87 329.414 256.586C329.414 259.302 332.522 261.633 341.454 262.802H389.6C389.6 262.802 397.37 258.525 395.816 253.87C394.262 249.215 386.1 251.896 386.1 251.896C386.1 251.896 398.532 236.748 397.755 230.147C396.978 223.546 381.053 231.316 381.053 231.316C381.053 231.316 393.478 199.858 391.147 185.879C389.313 174.868 380.766 182.379 376.111 186.635C377.207 179.318 377.661 171.919 377.469 164.522Z" fill="#7CCCDB" stroke="white" stroke-linecap="round" stroke-linejoin="round"/>
<path opacity="0.5" d="M377.469 164.522C377.231 155.779 377.91 140.869 370.245 134.73C363.511 129.34 358.275 136.655 356.385 142.556C351.807 156.871 353.956 172.656 353.97 187.433C353.97 187.657 353.97 187.881 353.97 188.133C353.613 199.011 352.304 210.778 353.494 221.635C353.494 221.635 352.325 210.757 343.785 215.419C335.245 220.081 348.055 244.546 348.055 244.546C348.055 244.546 337.961 237.168 333.299 243.384C328.637 249.6 339.123 256.586 339.123 256.586C339.123 256.586 329.414 253.87 329.414 256.586C329.414 259.302 332.522 261.633 341.454 262.802H389.6C389.6 262.802 397.37 258.525 395.816 253.87C394.262 249.215 386.1 251.896 386.1 251.896C386.1 251.896 398.532 236.748 397.755 230.147C396.978 223.546 381.053 231.316 381.053 231.316C381.053 231.316 393.478 199.858 391.147 185.879C389.313 174.868 380.766 182.379 376.111 186.635C377.207 179.318 377.661 171.919 377.469 164.522Z" fill="white"/>
<path d="M362.02 262.382L365.52 155.583" stroke="white" stroke-linecap="round" stroke-linejoin="round"/>
<path d="M363.965 217.722L382.214 200.635" stroke="white" stroke-linecap="round" stroke-linejoin="round"/>
<path d="M372.504 209.952L376.389 199.081" stroke="white" stroke-linecap="round" stroke-linejoin="round"/>
<path d="M348.816 230.924L362.795 246.072" stroke="white" stroke-linecap="round" stroke-linejoin="round"/>
<path d="M386.1 239.471L362.797 251.511" stroke="white" stroke-linecap="round" stroke-linejoin="round"/>
<path d="M373.676 246.457L382.216 246.072" stroke="white" stroke-linecap="round" stroke-linejoin="round"/>
<path d="M362.02 262.382L365.52 155.583" stroke="#7CCCDB" stroke-linecap="round" stroke-linejoin="round"/>
<path d="M363.965 217.722L382.214 200.635" stroke="#7CCCDB" stroke-linecap="round" stroke-linejoin="round"/>
<path d="M372.504 209.952L376.389 199.081" stroke="#7CCCDB" stroke-linecap="round" stroke-linejoin="round"/>
<path d="M348.816 230.924L362.795 246.072" stroke="#7CCCDB" stroke-linecap="round" stroke-linejoin="round"/>
<path d="M386.1 239.471L362.797 251.511" stroke="#7CCCDB" stroke-linecap="round" stroke-linejoin="round"/>
<path d="M373.676 246.457L382.216 246.072" stroke="#7CCCDB" stroke-linecap="round" stroke-linejoin="round"/>
<g opacity="0.8">
<path opacity="0.8" d="M362.02 262.382L365.52 155.583" stroke="white" stroke-linecap="round" stroke-linejoin="round"/>
<path opacity="0.8" d="M363.965 217.722L382.214 200.635" stroke="white" stroke-linecap="round" stroke-linejoin="round"/>
<path opacity="0.8" d="M372.504 209.952L376.389 199.081" stroke="white" stroke-linecap="round" stroke-linejoin="round"/>
<path opacity="0.8" d="M348.816 230.924L362.795 246.072" stroke="white" stroke-linecap="round" stroke-linejoin="round"/>
<path opacity="0.8" d="M386.1 239.471L362.797 251.511" stroke="white" stroke-linecap="round" stroke-linejoin="round"/>
<path opacity="0.8" d="M373.672 246.457L382.212 246.072" stroke="white" stroke-linecap="round" stroke-linejoin="round"/>
</g>
<path d="M295.309 240.801C295.309 251.658 303.912 260.464 303.912 260.464C303.912 260.464 312.515 251.658 312.515 240.801C312.515 229.944 303.912 221.138 303.912 221.138C303.912 221.138 295.309 229.937 295.309 240.801Z" fill="#7CCCDB"/>
<path d="M289.344 257.552C293.544 262.263 300.642 262.774 300.642 262.774C300.642 262.774 300.985 255.641 296.813 250.93C292.641 246.219 285.515 245.708 285.515 245.708C285.515 245.708 285.165 252.841 289.344 257.552Z" fill="#7CCCDB"/>
<path d="M311.267 250.769C306.878 255.284 306.906 262.424 306.906 262.424C306.906 262.424 314.039 262.235 318.421 257.713C322.803 253.191 322.789 246.058 322.789 246.058C322.789 246.058 315.649 246.247 311.267 250.769Z" fill="#7CCCDB"/>
<g opacity="0.5">
<path opacity="0.5" d="M295.309 240.801C295.309 251.658 303.912 260.464 303.912 260.464C303.912 260.464 312.515 251.658 312.515 240.801C312.515 229.944 303.912 221.138 303.912 221.138C303.912 221.138 295.309 229.937 295.309 240.801Z" fill="white"/>
<path opacity="0.5" d="M303.91 260.464V221.138" stroke="white" stroke-linecap="round" stroke-linejoin="round"/>
<path opacity="0.5" d="M303.91 235.117L299.094 230.91" stroke="white" stroke-linecap="round" stroke-linejoin="round"/>
<path opacity="0.5" d="M303.988 241.613L309.952 232.975" stroke="white" stroke-linecap="round" stroke-linejoin="round"/>
<path opacity="0.5" d="M303.913 245.358L296.801 239.016" stroke="white" stroke-linecap="round" stroke-linejoin="round"/>
<path opacity="0.5" d="M303.988 250.405L311.023 244.14" stroke="white" stroke-linecap="round" stroke-linejoin="round"/>
<path opacity="0.5" d="M303.99 254.765L298.48 250.404" stroke="white" stroke-linecap="round" stroke-linejoin="round"/>
<path opacity="0.5" d="M289.344 257.552C293.544 262.263 300.642 262.774 300.642 262.774C300.642 262.774 300.985 255.641 296.813 250.93C292.641 246.219 285.515 245.708 285.515 245.708C285.515 245.708 285.165 252.841 289.344 257.552Z" fill="white"/>
<path opacity="0.5" d="M300.643 262.774L285.516 245.708" stroke="white" stroke-linecap="round" stroke-linejoin="round"/>
<path opacity="0.5" d="M290.89 251.776L287.18 251.804" stroke="white" stroke-linecap="round" stroke-linejoin="round"/>
<path opacity="0.5" d="M293.426 254.563L292.691 248.521" stroke="white" stroke-linecap="round" stroke-linejoin="round"/>
<path opacity="0.5" d="M294.832 256.222L289.309 256.201" stroke="white" stroke-linecap="round" stroke-linejoin="round"/>
<path opacity="0.5" d="M296.805 258.378L297.442 252.953" stroke="white" stroke-linecap="round" stroke-linejoin="round"/>
<path opacity="0.5" d="M298.485 260.268L294.418 260.499" stroke="white" stroke-linecap="round" stroke-linejoin="round"/>
<path opacity="0.5" d="M311.267 250.769C306.878 255.284 306.906 262.424 306.906 262.424C306.906 262.424 314.039 262.235 318.421 257.713C322.803 253.191 322.789 246.058 322.789 246.058C322.789 246.058 315.649 246.247 311.267 250.769Z" fill="white"/>
<path opacity="0.5" d="M306.906 262.424L322.789 246.058" stroke="white" stroke-linecap="round" stroke-linejoin="round"/>
<path opacity="0.5" d="M317.141 251.875L316.84 248.179" stroke="white" stroke-linecap="round" stroke-linejoin="round"/>
<path opacity="0.5" d="M314.551 254.612L320.522 253.422" stroke="white" stroke-linecap="round" stroke-linejoin="round"/>
<path opacity="0.5" d="M313.005 256.138L312.613 250.629" stroke="white" stroke-linecap="round" stroke-linejoin="round"/>
<path opacity="0.5" d="M310.996 258.266L316.456 258.504" stroke="white" stroke-linecap="round" stroke-linejoin="round"/>
<path opacity="0.5" d="M309.239 260.079L308.707 256.047" stroke="white" stroke-linecap="round" stroke-linejoin="round"/>
</g>
<path d="M303.91 260.464V221.138" stroke="#7CCCDB" stroke-linecap="round" stroke-linejoin="round"/>
<path d="M303.91 235.117L299.094 230.91" stroke="#7CCCDB" stroke-linecap="round" stroke-linejoin="round"/>
<path d="M303.988 241.613L309.952 232.975" stroke="#7CCCDB" stroke-linecap="round" stroke-linejoin="round"/>
<path d="M303.913 245.358L296.801 239.016" stroke="#7CCCDB" stroke-linecap="round" stroke-linejoin="round"/>
<path d="M303.988 250.405L311.023 244.14" stroke="#7CCCDB" stroke-linecap="round" stroke-linejoin="round"/>
<path d="M303.99 254.766L298.48 250.405" stroke="#7CCCDB" stroke-linecap="round" stroke-linejoin="round"/>
<g opacity="0.7">
<path opacity="0.7" d="M303.914 260.464V221.138" stroke="white" stroke-linecap="round" stroke-linejoin="round"/>
<path opacity="0.7" d="M303.914 235.117L299.098 230.91" stroke="white" stroke-linecap="round" stroke-linejoin="round"/>
<path opacity="0.7" d="M303.988 241.613L309.952 232.975" stroke="white" stroke-linecap="round" stroke-linejoin="round"/>
<path opacity="0.7" d="M303.913 245.358L296.801 239.016" stroke="white" stroke-linecap="round" stroke-linejoin="round"/>
<path opacity="0.7" d="M303.988 250.405L311.023 244.14" stroke="white" stroke-linecap="round" stroke-linejoin="round"/>
<path opacity="0.7" d="M303.989 254.765L298.48 250.404" stroke="white" stroke-linecap="round" stroke-linejoin="round"/>
</g>
<path d="M300.643 262.774L285.516 245.708" stroke="#7CCCDB" stroke-linecap="round" stroke-linejoin="round"/>
<path d="M290.89 251.777L287.18 251.805" stroke="#7CCCDB" stroke-linecap="round" stroke-linejoin="round"/>
<path d="M293.426 254.563L292.691 248.522" stroke="#7CCCDB" stroke-linecap="round" stroke-linejoin="round"/>
<path d="M294.832 256.222L289.309 256.201" stroke="#7CCCDB" stroke-linecap="round" stroke-linejoin="round"/>
<path d="M296.805 258.378L297.442 252.953" stroke="#7CCCDB" stroke-linecap="round" stroke-linejoin="round"/>
<path d="M298.485 260.268L294.418 260.499" stroke="#7CCCDB" stroke-linecap="round" stroke-linejoin="round"/>
<g opacity="0.7">
<path opacity="0.7" d="M300.643 262.774L285.516 245.708" stroke="white" stroke-linecap="round" stroke-linejoin="round"/>
<path opacity="0.7" d="M290.894 251.777L287.184 251.805" stroke="white" stroke-linecap="round" stroke-linejoin="round"/>
<path opacity="0.7" d="M293.426 254.563L292.691 248.521" stroke="white" stroke-linecap="round" stroke-linejoin="round"/>
<path opacity="0.7" d="M294.832 256.222L289.309 256.201" stroke="white" stroke-linecap="round" stroke-linejoin="round"/>
<path opacity="0.7" d="M296.809 258.378L297.446 252.953" stroke="white" stroke-linecap="round" stroke-linejoin="round"/>
<path opacity="0.7" d="M298.489 260.268L294.422 260.499" stroke="white" stroke-linecap="round" stroke-linejoin="round"/>
</g>
<path d="M306.906 262.424L322.789 246.058" stroke="#7CCCDB" stroke-linecap="round" stroke-linejoin="round"/>
<path d="M317.141 251.875L316.84 248.179" stroke="#7CCCDB" stroke-linecap="round" stroke-linejoin="round"/>
<path d="M314.551 254.612L320.522 253.422" stroke="#7CCCDB" stroke-linecap="round" stroke-linejoin="round"/>
<path d="M313.005 256.138L312.613 250.629" stroke="#7CCCDB" stroke-linecap="round" stroke-linejoin="round"/>
<path d="M310.996 258.266L316.456 258.504" stroke="#7CCCDB" stroke-linecap="round" stroke-linejoin="round"/>
<path d="M309.239 260.079L308.707 256.047" stroke="#7CCCDB" stroke-linecap="round" stroke-linejoin="round"/>
<g opacity="0.7">
<path opacity="0.7" d="M306.906 262.424L322.789 246.058" stroke="white" stroke-linecap="round" stroke-linejoin="round"/>
<path opacity="0.7" d="M317.141 251.875L316.84 248.179" stroke="white" stroke-linecap="round" stroke-linejoin="round"/>
<path opacity="0.7" d="M314.551 254.612L320.522 253.422" stroke="white" stroke-linecap="round" stroke-linejoin="round"/>
<path opacity="0.7" d="M313.005 256.138L312.613 250.629" stroke="white" stroke-linecap="round" stroke-linejoin="round"/>
<path opacity="0.7" d="M310.996 258.266L316.456 258.504" stroke="white" stroke-linecap="round" stroke-linejoin="round"/>
<path opacity="0.7" d="M309.239 260.079L308.707 256.047" stroke="white" stroke-linecap="round" stroke-linejoin="round"/>
</g>
<path d="M21.5319 164.522C21.7629 155.779 21.0909 140.869 28.7559 134.73C35.4899 129.34 40.7259 136.655 42.6089 142.556C47.1939 156.871 45.0379 172.656 45.0309 187.433C45.0309 187.657 45.0309 187.881 45.0309 188.133C45.3949 199.011 46.6969 210.778 45.5139 221.635C45.5139 221.635 46.6759 210.757 55.2229 215.419C63.7699 220.081 50.9459 244.546 50.9459 244.546C50.9459 244.546 61.0469 237.168 65.7089 243.384C70.3709 249.6 59.8989 256.558 59.8989 256.558C59.8989 256.558 69.6079 253.842 69.6079 256.558C69.6079 259.274 66.4999 261.605 57.5679 262.774H9.40092C9.40092 262.774 1.63092 258.497 3.18492 253.842C4.73892 249.187 12.8939 251.896 12.8939 251.896C12.8939 251.896 0.468918 236.748 1.24592 230.147C2.02292 223.546 17.9479 231.316 17.9479 231.316C17.9479 231.316 5.51592 199.858 7.84692 185.9C9.68092 174.889 18.2349 182.4 22.8829 186.656C21.7883 179.332 21.3362 171.925 21.5319 164.522V164.522Z" fill="#7CCCDB" stroke="white" stroke-linecap="round" stroke-linejoin="round"/>
<path opacity="0.5" d="M21.5319 164.522C21.7629 155.779 21.0909 140.869 28.7559 134.73C35.4899 129.34 40.7259 136.655 42.6089 142.556C47.1939 156.871 45.0379 172.656 45.0309 187.433C45.0309 187.657 45.0309 187.881 45.0309 188.133C45.3949 199.011 46.6969 210.778 45.5139 221.635C45.5139 221.635 46.6759 210.757 55.2229 215.419C63.7699 220.081 50.9459 244.546 50.9459 244.546C50.9459 244.546 61.0469 237.168 65.7089 243.384C70.3709 249.6 59.8989 256.558 59.8989 256.558C59.8989 256.558 69.6079 253.842 69.6079 256.558C69.6079 259.274 66.4999 261.605 57.5679 262.774H9.40092C9.40092 262.774 1.63092 258.497 3.18492 253.842C4.73892 249.187 12.8939 251.896 12.8939 251.896C12.8939 251.896 0.468918 236.748 1.24592 230.147C2.02292 223.546 17.9479 231.316 17.9479 231.316C17.9479 231.316 5.51592 199.858 7.84692 185.9C9.68092 174.889 18.2349 182.4 22.8829 186.656C21.7883 179.332 21.3362 171.925 21.5319 164.522V164.522Z" fill="white"/>
<path d="M36.9735 262.382L33.4805 155.583" stroke="white" stroke-linecap="round" stroke-linejoin="round"/>
<path d="M35.0373 217.722L16.7812 200.635" stroke="white" stroke-linecap="round" stroke-linejoin="round"/>
<path d="M26.4866 209.952L22.6016 199.081" stroke="white" stroke-linecap="round" stroke-linejoin="round"/>
<path d="M50.1743 230.924L36.1953 246.072" stroke="white" stroke-linecap="round" stroke-linejoin="round"/>
<path d="M12.8945 239.471L36.1975 251.511" stroke="white" stroke-linecap="round" stroke-linejoin="round"/>
<path d="M25.3282 246.457L16.7812 246.072" stroke="white" stroke-linecap="round" stroke-linejoin="round"/>
<path d="M36.9735 262.382L33.4805 155.583" stroke="#7CCCDB" stroke-linecap="round" stroke-linejoin="round"/>
<path d="M35.0373 217.722L16.7812 200.635" stroke="#7CCCDB" stroke-linecap="round" stroke-linejoin="round"/>
<path d="M26.4866 209.952L22.6016 199.081" stroke="#7CCCDB" stroke-linecap="round" stroke-linejoin="round"/>
<path d="M50.1743 230.924L36.1953 246.072" stroke="#7CCCDB" stroke-linecap="round" stroke-linejoin="round"/>
<path d="M12.8945 239.471L36.1975 251.511" stroke="#7CCCDB" stroke-linecap="round" stroke-linejoin="round"/>
<path d="M25.3282 246.457L16.7812 246.072" stroke="#7CCCDB" stroke-linecap="round" stroke-linejoin="round"/>
<g opacity="0.8">
<path opacity="0.8" d="M36.9735 262.382L33.4805 155.583" stroke="white" stroke-linecap="round" stroke-linejoin="round"/>
<path opacity="0.8" d="M35.0373 217.722L16.7812 200.635" stroke="white" stroke-linecap="round" stroke-linejoin="round"/>
<path opacity="0.8" d="M26.4866 209.952L22.6016 199.081" stroke="white" stroke-linecap="round" stroke-linejoin="round"/>
<path opacity="0.8" d="M50.1782 230.924L36.1992 246.072" stroke="white" stroke-linecap="round" stroke-linejoin="round"/>
<path opacity="0.8" d="M12.8945 239.471L36.1975 251.511" stroke="white" stroke-linecap="round" stroke-linejoin="round"/>
<path opacity="0.8" d="M25.3283 246.457L16.7812 246.072" stroke="white" stroke-linecap="round" stroke-linejoin="round"/>
</g>
<path d="M105.09 240.801C105.09 251.658 96.4874 260.464 96.4874 260.464C96.4874 260.464 87.8984 251.658 87.8984 240.801C87.8984 229.944 96.5014 221.138 96.5014 221.138C96.5014 221.138 105.09 229.937 105.09 240.801Z" fill="#7CCCDB"/>
<path d="M111.047 257.552C106.847 262.263 99.749 262.774 99.749 262.774C99.749 262.774 99.406 255.641 103.585 250.93C107.764 246.219 114.883 245.708 114.883 245.708C114.883 245.708 115.198 252.841 111.047 257.552Z" fill="#7CCCDB"/>
<path d="M89.1314 250.769C93.5134 255.284 93.4924 262.424 93.4924 262.424C93.4924 262.424 86.3594 262.235 81.9704 257.713C77.5814 253.191 77.6094 246.058 77.6094 246.058C77.6094 246.058 84.7424 246.247 89.1314 250.769Z" fill="#7CCCDB"/>
<g opacity="0.5">
<path opacity="0.5" d="M105.09 240.801C105.09 251.658 96.4874 260.464 96.4874 260.464C96.4874 260.464 87.8984 251.658 87.8984 240.801C87.8984 229.944 96.5014 221.138 96.5014 221.138C96.5014 221.138 105.09 229.937 105.09 240.801Z" fill="white"/>
<path opacity="0.5" d="M96.4883 260.464V221.138" stroke="white" stroke-linecap="round" stroke-linejoin="round"/>
<path opacity="0.5" d="M96.4883 235.117L101.304 230.91" stroke="white" stroke-linecap="round" stroke-linejoin="round"/>
<path opacity="0.5" d="M96.4132 241.613L90.4492 232.975" stroke="white" stroke-linecap="round" stroke-linejoin="round"/>
<path opacity="0.5" d="M96.4883 245.358L103.6 239.016" stroke="white" stroke-linecap="round" stroke-linejoin="round"/>
<path opacity="0.5" d="M96.41 250.405L89.375 244.14" stroke="white" stroke-linecap="round" stroke-linejoin="round"/>
<path opacity="0.5" d="M96.4102 254.765L101.912 250.404" stroke="white" stroke-linecap="round" stroke-linejoin="round"/>
<path opacity="0.5" d="M111.047 257.552C106.847 262.263 99.749 262.774 99.749 262.774C99.749 262.774 99.406 255.641 103.585 250.93C107.764 246.219 114.883 245.708 114.883 245.708C114.883 245.708 115.198 252.841 111.047 257.552Z" fill="white"/>
<path opacity="0.5" d="M99.75 262.774L114.884 245.708" stroke="white" stroke-linecap="round" stroke-linejoin="round"/>
<path opacity="0.5" d="M109.508 251.776L113.211 251.804" stroke="white" stroke-linecap="round" stroke-linejoin="round"/>
<path opacity="0.5" d="M106.977 254.563L107.712 248.521" stroke="white" stroke-linecap="round" stroke-linejoin="round"/>
<path opacity="0.5" d="M105.559 256.222L111.089 256.201" stroke="white" stroke-linecap="round" stroke-linejoin="round"/>
<path opacity="0.5" d="M103.586 258.378L102.949 252.953" stroke="white" stroke-linecap="round" stroke-linejoin="round"/>
<path opacity="0.5" d="M101.914 260.268L105.981 260.499" stroke="white" stroke-linecap="round" stroke-linejoin="round"/>
<path opacity="0.5" d="M89.1314 250.769C93.5134 255.284 93.4924 262.424 93.4924 262.424C93.4924 262.424 86.3594 262.235 81.9704 257.713C77.5814 253.191 77.6094 246.058 77.6094 246.058C77.6094 246.058 84.7424 246.247 89.1314 250.769Z" fill="white"/>
<path opacity="0.5" d="M93.4924 262.424L77.6094 246.058" stroke="white" stroke-linecap="round" stroke-linejoin="round"/>
<path opacity="0.5" d="M83.25 251.875L83.558 248.179" stroke="white" stroke-linecap="round" stroke-linejoin="round"/>
<path opacity="0.5" d="M85.8499 254.612L79.8789 253.422" stroke="white" stroke-linecap="round" stroke-linejoin="round"/>
<path opacity="0.5" d="M87.3906 256.138L87.7896 250.629" stroke="white" stroke-linecap="round" stroke-linejoin="round"/>
<path opacity="0.5" d="M89.3975 258.266L83.9375 258.504" stroke="white" stroke-linecap="round" stroke-linejoin="round"/>
<path opacity="0.5" d="M91.1602 260.079L91.6852 256.047" stroke="white" stroke-linecap="round" stroke-linejoin="round"/>
</g>
<path d="M96.4883 260.464V221.138" stroke="#7CCCDB" stroke-linecap="round" stroke-linejoin="round"/>
<path d="M96.4883 235.117L101.304 230.91" stroke="#7CCCDB" stroke-linecap="round" stroke-linejoin="round"/>
<path d="M96.4093 241.613L90.4453 232.975" stroke="#7CCCDB" stroke-linecap="round" stroke-linejoin="round"/>
<path d="M96.4883 245.358L103.6 239.016" stroke="#7CCCDB" stroke-linecap="round" stroke-linejoin="round"/>
<path d="M96.41 250.405L89.375 244.14" stroke="#7CCCDB" stroke-linecap="round" stroke-linejoin="round"/>
<path d="M96.4102 254.766L101.912 250.405" stroke="#7CCCDB" stroke-linecap="round" stroke-linejoin="round"/>
<g opacity="0.7">
<path opacity="0.7" d="M96.4883 260.464V221.138" stroke="white" stroke-linecap="round" stroke-linejoin="round"/>
<path opacity="0.7" d="M96.4883 235.117L101.304 230.91" stroke="white" stroke-linecap="round" stroke-linejoin="round"/>
<path opacity="0.7" d="M96.4093 241.613L90.4453 232.975" stroke="white" stroke-linecap="round" stroke-linejoin="round"/>
<path opacity="0.7" d="M96.4883 245.358L103.6 239.016" stroke="white" stroke-linecap="round" stroke-linejoin="round"/>
<path opacity="0.7" d="M96.41 250.405L89.375 244.14" stroke="white" stroke-linecap="round" stroke-linejoin="round"/>
<path opacity="0.7" d="M96.4102 254.765L101.912 250.404" stroke="white" stroke-linecap="round" stroke-linejoin="round"/>
</g>
<path d="M99.75 262.774L114.884 245.708" stroke="#7CCCDB" stroke-linecap="round" stroke-linejoin="round"/>
<path d="M109.508 251.777L113.211 251.805" stroke="#7CCCDB" stroke-linecap="round" stroke-linejoin="round"/>
<path d="M106.973 254.563L107.708 248.522" stroke="#7CCCDB" stroke-linecap="round" stroke-linejoin="round"/>
<path d="M105.559 256.222L111.089 256.201" stroke="#7CCCDB" stroke-linecap="round" stroke-linejoin="round"/>
<path d="M103.586 258.378L102.949 252.953" stroke="#7CCCDB" stroke-linecap="round" stroke-linejoin="round"/>
<path d="M101.914 260.268L105.981 260.499" stroke="#7CCCDB" stroke-linecap="round" stroke-linejoin="round"/>
<g opacity="0.7">
<path opacity="0.7" d="M99.75 262.774L114.884 245.708" stroke="white" stroke-linecap="round" stroke-linejoin="round"/>
<path opacity="0.7" d="M109.508 251.777L113.211 251.805" stroke="white" stroke-linecap="round" stroke-linejoin="round"/>
<path opacity="0.7" d="M106.973 254.563L107.708 248.521" stroke="white" stroke-linecap="round" stroke-linejoin="round"/>
<path opacity="0.7" d="M105.559 256.222L111.089 256.201" stroke="white" stroke-linecap="round" stroke-linejoin="round"/>
<path opacity="0.7" d="M103.586 258.378L102.949 252.953" stroke="white" stroke-linecap="round" stroke-linejoin="round"/>
<path opacity="0.7" d="M101.914 260.268L105.981 260.499" stroke="white" stroke-linecap="round" stroke-linejoin="round"/>
</g>
<path d="M93.4924 262.424L77.6094 246.058" stroke="#7CCCDB" stroke-linecap="round" stroke-linejoin="round"/>
<path d="M83.25 251.875L83.558 248.179" stroke="#7CCCDB" stroke-linecap="round" stroke-linejoin="round"/>
<path d="M85.8499 254.612L79.8789 253.422" stroke="#7CCCDB" stroke-linecap="round" stroke-linejoin="round"/>
<path d="M87.3867 256.138L87.7857 250.629" stroke="#7CCCDB" stroke-linecap="round" stroke-linejoin="round"/>
<path d="M89.3975 258.266L83.9375 258.504" stroke="#7CCCDB" stroke-linecap="round" stroke-linejoin="round"/>
<path d="M91.1602 260.079L91.6852 256.047" stroke="#7CCCDB" stroke-linecap="round" stroke-linejoin="round"/>
<g opacity="0.7">
<path opacity="0.7" d="M93.4924 262.424L77.6094 246.058" stroke="white" stroke-linecap="round" stroke-linejoin="round"/>
<path opacity="0.7" d="M83.25 251.875L83.558 248.179" stroke="white" stroke-linecap="round" stroke-linejoin="round"/>
<path opacity="0.7" d="M85.8499 254.612L79.8789 253.422" stroke="white" stroke-linecap="round" stroke-linejoin="round"/>
<path opacity="0.7" d="M87.3906 256.138L87.7896 250.629" stroke="white" stroke-linecap="round" stroke-linejoin="round"/>
<path opacity="0.7" d="M89.3975 258.266L83.9375 258.504" stroke="white" stroke-linecap="round" stroke-linejoin="round"/>
<path opacity="0.7" d="M91.1602 260.079L91.6852 256.047" stroke="white" stroke-linecap="round" stroke-linejoin="round"/>
</g>
<path d="M298.868 54.7341H109.637C109.58 54.735 109.524 54.7246 109.472 54.7036C109.419 54.6825 109.371 54.6512 109.331 54.6115C109.29 54.5718 109.258 54.5244 109.236 54.4721C109.214 54.4198 109.203 54.3637 109.203 54.307C109.203 54.1919 109.249 54.0816 109.33 54.0002C109.412 53.9188 109.522 53.873 109.637 53.873H298.868C298.925 53.873 298.981 53.8843 299.033 53.9062C299.085 53.9281 299.133 53.9602 299.173 54.0006C299.212 54.041 299.244 54.0889 299.265 54.1415C299.286 54.1941 299.296 54.2504 299.295 54.307C299.295 54.4203 299.25 54.5289 299.17 54.609C299.09 54.6891 298.981 54.7341 298.868 54.7341Z" fill="#7CCCDB"/>
<g opacity="0.3">
<path opacity="0.3" d="M298.868 54.7341H109.637C109.58 54.735 109.524 54.7246 109.472 54.7036C109.419 54.6825 109.371 54.6512 109.331 54.6115C109.29 54.5718 109.258 54.5244 109.236 54.4721C109.214 54.4198 109.203 54.3637 109.203 54.307C109.203 54.1919 109.249 54.0816 109.33 54.0002C109.412 53.9188 109.522 53.873 109.637 53.873H298.868C298.925 53.873 298.981 53.8843 299.033 53.9062C299.085 53.9281 299.133 53.9602 299.173 54.0006C299.212 54.041 299.244 54.0889 299.265 54.1415C299.286 54.1941 299.296 54.2504 299.295 54.307C299.295 54.4203 299.25 54.5289 299.17 54.609C299.09 54.6891 298.981 54.7341 298.868 54.7341Z" fill="white"/>
</g>
<path d="M298.489 129.788H109.258C109.202 129.789 109.145 129.778 109.093 129.757C109.04 129.736 108.992 129.705 108.952 129.665C108.911 129.625 108.879 129.578 108.857 129.526C108.835 129.474 108.824 129.417 108.824 129.361C108.824 129.246 108.87 129.135 108.951 129.054C109.033 128.972 109.143 128.927 109.258 128.927H298.489C298.546 128.927 298.602 128.938 298.654 128.96C298.707 128.982 298.754 129.014 298.794 129.054C298.833 129.095 298.865 129.143 298.886 129.195C298.907 129.248 298.917 129.304 298.916 129.361C298.916 129.417 298.905 129.472 298.884 129.524C298.862 129.576 298.831 129.623 298.791 129.663C298.751 129.702 298.704 129.734 298.653 129.755C298.601 129.777 298.545 129.788 298.489 129.788V129.788Z" fill="#7CCCDB"/>
<g opacity="0.3">
<path opacity="0.3" d="M298.489 129.788H109.258C109.202 129.789 109.145 129.778 109.093 129.757C109.04 129.736 108.992 129.705 108.952 129.665C108.911 129.625 108.879 129.578 108.857 129.526C108.835 129.474 108.824 129.417 108.824 129.361C108.824 129.246 108.87 129.135 108.951 129.054C109.033 128.972 109.143 128.927 109.258 128.927H298.489C298.546 128.927 298.602 128.938 298.654 128.96C298.707 128.982 298.754 129.014 298.794 129.054C298.833 129.095 298.865 129.143 298.886 129.195C298.907 129.248 298.917 129.304 298.916 129.361C298.916 129.417 298.905 129.472 298.884 129.524C298.862 129.576 298.831 129.623 298.791 129.663C298.751 129.702 298.704 129.734 298.653 129.755C298.601 129.777 298.545 129.788 298.489 129.788V129.788Z" fill="white"/>
</g>
<path d="M298.489 191.143H109.258C109.143 191.143 109.033 191.098 108.951 191.016C108.87 190.935 108.824 190.824 108.824 190.709C108.824 190.653 108.835 190.596 108.857 190.544C108.879 190.492 108.911 190.445 108.952 190.405C108.992 190.365 109.04 190.334 109.093 190.313C109.145 190.292 109.202 190.281 109.258 190.282H298.489C298.545 190.282 298.601 190.293 298.653 190.315C298.704 190.336 298.751 190.368 298.791 190.407C298.831 190.447 298.862 190.494 298.884 190.546C298.905 190.598 298.916 190.653 298.916 190.709C298.917 190.766 298.907 190.822 298.886 190.875C298.865 190.927 298.833 190.975 298.794 191.016C298.754 191.056 298.707 191.088 298.654 191.11C298.602 191.132 298.546 191.143 298.489 191.143Z" fill="#7CCCDB"/>
<g opacity="0.3">
<path opacity="0.3" d="M298.489 191.143H109.258C109.143 191.143 109.033 191.098 108.951 191.016C108.87 190.935 108.824 190.824 108.824 190.709C108.824 190.653 108.835 190.596 108.857 190.544C108.879 190.492 108.911 190.445 108.952 190.405C108.992 190.365 109.04 190.334 109.093 190.313C109.145 190.292 109.202 190.281 109.258 190.282H298.489C298.545 190.282 298.601 190.293 298.653 190.315C298.704 190.336 298.751 190.368 298.791 190.407C298.831 190.447 298.862 190.494 298.884 190.546C298.905 190.598 298.916 190.653 298.916 190.709C298.917 190.766 298.907 190.822 298.886 190.875C298.865 190.927 298.833 190.975 298.794 191.016C298.754 191.056 298.707 191.088 298.654 191.11C298.602 191.132 298.546 191.143 298.489 191.143Z" fill="white"/>
</g>
<path d="M149.484 201.524V265.378" stroke="#2855AF" stroke-width="0.265171" stroke-miterlimit="10"/>
<path d="M158.605 201.524V265.378" stroke="#2855AF" stroke-width="0.265171" stroke-miterlimit="10"/>
<path d="M167.727 201.524V265.378" stroke="#2855AF" stroke-width="0.265171" stroke-miterlimit="10"/>
<path d="M176.848 201.524V265.378" stroke="#2855AF" stroke-width="0.265171" stroke-miterlimit="10"/>
<path d="M185.969 201.524V265.378" stroke="#2855AF" stroke-width="0.265171" stroke-miterlimit="10"/>
<path d="M195.09 201.524V265.378" stroke="#2855AF" stroke-width="0.265171" stroke-miterlimit="10"/>
<path d="M204.211 201.524V265.378" stroke="#2855AF" stroke-width="0.265171" stroke-miterlimit="10"/>
<path d="M213.332 201.524V265.378" stroke="#2855AF" stroke-width="0.265171" stroke-miterlimit="10"/>
<path d="M222.453 201.524V265.378" stroke="#2855AF" stroke-width="0.265171" stroke-miterlimit="10"/>
<path d="M231.574 201.524V265.378" stroke="#2855AF" stroke-width="0.265171" stroke-miterlimit="10"/>
<path d="M240.695 201.524V265.378" stroke="#2855AF" stroke-width="0.265171" stroke-miterlimit="10"/>
<path d="M249.816 201.524V265.378" stroke="#2855AF" stroke-width="0.265171" stroke-miterlimit="10"/>
<path d="M149.941 207.453H249.362" stroke="#2855AF" stroke-width="0.265171" stroke-miterlimit="10"/>
<path d="M149.941 216.119H249.362" stroke="#2855AF" stroke-width="0.265171" stroke-miterlimit="10"/>
<path d="M149.941 224.785H249.362" stroke="#2855AF" stroke-width="0.265171" stroke-miterlimit="10"/>
<path d="M149.941 233.451H249.362" stroke="#2855AF" stroke-width="0.265171" stroke-miterlimit="10"/>
<path d="M149.941 242.117H249.362" stroke="#2855AF" stroke-width="0.265171" stroke-miterlimit="10"/>
<path d="M149.941 250.783H249.362" stroke="#2855AF" stroke-width="0.265171" stroke-miterlimit="10"/>
<path d="M149.941 259.449H249.362" stroke="#2855AF" stroke-width="0.265171" stroke-miterlimit="10"/>
<path d="M170.826 223.925L157.484 265.057H185.428L172.079 223.925C172.037 223.792 171.953 223.676 171.841 223.594C171.728 223.512 171.592 223.468 171.453 223.468C171.314 223.468 171.178 223.512 171.065 223.594C170.953 223.676 170.869 223.792 170.826 223.925V223.925Z" fill="#7CCCDB" stroke="#2855AF" stroke-width="1.06068" stroke-miterlimit="10"/>
<path d="M196.267 210.303L178.508 265.057H215.3L197.52 210.303C197.477 210.17 197.394 210.054 197.281 209.972C197.168 209.89 197.033 209.846 196.893 209.846C196.754 209.846 196.618 209.89 196.506 209.972C196.393 210.054 196.309 210.17 196.267 210.303V210.303Z" fill="#2855AF" stroke="#2855AF" stroke-width="1.06068" stroke-miterlimit="10"/>
<path d="M219.672 233.333L209.375 265.057H231.215L220.897 233.333C220.849 233.21 220.764 233.104 220.655 233.029C220.546 232.955 220.417 232.915 220.284 232.915C220.152 232.915 220.023 232.955 219.914 233.029C219.805 233.104 219.72 233.21 219.672 233.333V233.333Z" fill="#7CCCDB" stroke="#2855AF" stroke-width="1.06068" stroke-miterlimit="10"/>
<path d="M233.778 244.224L227.023 265.056H241.786L235.031 244.224C234.989 244.092 234.905 243.976 234.793 243.894C234.68 243.812 234.544 243.768 234.405 243.768C234.266 243.768 234.13 243.812 234.017 243.894C233.905 243.976 233.821 244.092 233.778 244.224V244.224Z" fill="#2855AF" stroke="#2855AF" stroke-width="1.06068" stroke-miterlimit="10"/>
<path d="M148.28 181.343C144.277 181.343 140.365 180.156 137.037 177.933C133.709 175.709 131.115 172.548 129.583 168.85C128.052 165.153 127.651 161.084 128.432 157.158C129.213 153.233 131.14 149.627 133.97 146.796C136.8 143.966 140.406 142.039 144.332 141.258C148.258 140.477 152.326 140.878 156.024 142.41C159.722 143.941 162.883 146.535 165.106 149.863C167.33 153.191 168.517 157.104 168.517 161.106C168.511 166.472 166.378 171.616 162.584 175.41C158.79 179.204 153.645 181.338 148.28 181.343V181.343ZM148.28 146.812C145.453 146.814 142.69 147.653 140.341 149.225C137.991 150.796 136.16 153.029 135.079 155.641C133.998 158.253 133.716 161.127 134.268 163.899C134.821 166.671 136.183 169.218 138.182 171.216C140.181 173.214 142.728 174.575 145.501 175.126C148.273 175.677 151.147 175.393 153.759 174.311C156.37 173.229 158.602 171.397 160.172 169.047C161.743 166.696 162.581 163.933 162.581 161.106C162.577 157.315 161.069 153.68 158.388 151C155.706 148.32 152.071 146.814 148.28 146.812Z" fill="#2855AF" stroke="#2855AF" stroke-width="1.06068" stroke-miterlimit="10"/>
<path d="M148.281 181.343C145.55 181.352 142.845 180.803 140.334 179.73C137.822 178.658 135.555 177.084 133.672 175.106L137.963 170.997C139.292 172.395 140.893 173.506 142.668 174.263C144.442 175.02 146.352 175.407 148.281 175.4C150.158 175.4 152.017 175.03 153.751 174.312C155.485 173.594 157.061 172.541 158.388 171.214C159.716 169.886 160.768 168.31 161.487 166.576C162.205 164.842 162.575 162.983 162.575 161.106C162.575 159.229 162.205 157.37 161.487 155.636C160.768 153.902 159.716 152.326 158.388 150.999C157.061 149.671 155.485 148.619 153.751 147.9C152.017 147.182 150.158 146.812 148.281 146.812V140.869C150.938 140.869 153.57 141.393 156.025 142.41C158.48 143.427 160.711 144.917 162.591 146.796C164.47 148.676 165.96 150.907 166.977 153.362C167.994 155.817 168.518 158.449 168.518 161.106C168.518 163.764 167.994 166.395 166.977 168.85C165.96 171.306 164.47 173.537 162.591 175.416C160.711 177.295 158.48 178.786 156.025 179.803C153.57 180.82 150.938 181.343 148.281 181.343V181.343Z" fill="#7CCCDB" stroke="#2855AF" stroke-width="1.06068" stroke-miterlimit="10"/>
<path d="M198.189 181.343C194.187 181.345 190.273 180.159 186.944 177.936C183.615 175.713 181.021 172.553 179.488 168.855C177.955 165.158 177.553 161.088 178.333 157.162C179.113 153.236 181.04 149.63 183.87 146.799C186.7 143.968 190.306 142.04 194.232 141.259C198.157 140.477 202.227 140.877 205.925 142.409C209.623 143.94 212.784 146.534 215.008 149.862C217.232 153.19 218.419 157.103 218.419 161.106C218.414 166.47 216.281 171.613 212.488 175.407C208.696 179.201 203.554 181.336 198.189 181.343V181.343ZM198.189 146.812C195.363 146.815 192.601 147.656 190.252 149.228C187.903 150.8 186.073 153.034 184.993 155.646C183.914 158.258 183.633 161.131 184.186 163.903C184.739 166.675 186.101 169.221 188.101 171.218C190.1 173.216 192.647 174.576 195.42 175.127C198.192 175.677 201.066 175.393 203.677 174.311C206.288 173.228 208.519 171.396 210.089 169.046C211.659 166.696 212.497 163.933 212.497 161.106C212.492 157.314 210.982 153.68 208.3 151C205.617 148.32 201.981 146.814 198.189 146.812V146.812Z" fill="#2855AF" stroke="#2855AF" stroke-width="1.06068" stroke-miterlimit="10"/>
<path d="M206.066 179.747L203.756 174.28C206.792 172.993 209.29 170.697 210.827 167.78C212.364 164.863 212.846 161.505 212.192 158.273C211.537 155.042 209.786 152.136 207.234 150.047C204.683 147.959 201.489 146.816 198.191 146.812V140.869C202.861 140.87 207.386 142.485 211.001 145.441C214.615 148.397 217.096 152.512 218.023 157.089C218.95 161.665 218.266 166.421 216.087 170.551C213.908 174.681 210.368 177.93 206.066 179.747V179.747Z" fill="#7CCCDB" stroke="#2855AF" stroke-width="1.06068" stroke-miterlimit="10"/>
<path d="M248.092 181.343C244.09 181.343 240.177 180.156 236.849 177.933C233.521 175.709 230.928 172.548 229.396 168.85C227.864 165.153 227.463 161.084 228.244 157.158C229.025 153.233 230.953 149.627 233.783 146.796C236.613 143.966 240.219 142.039 244.144 141.258C248.07 140.477 252.139 140.878 255.837 142.41C259.535 143.941 262.695 146.535 264.919 149.863C267.143 153.191 268.329 157.104 268.329 161.106C268.324 166.472 266.19 171.616 262.396 175.41C258.602 179.204 253.458 181.338 248.092 181.343V181.343ZM248.092 146.812C245.265 146.812 242.502 147.65 240.151 149.221C237.801 150.792 235.968 153.024 234.887 155.636C233.805 158.248 233.522 161.122 234.073 163.895C234.625 166.668 235.986 169.214 237.985 171.214C239.984 173.213 242.531 174.574 245.304 175.125C248.077 175.677 250.951 175.394 253.563 174.312C256.174 173.23 258.407 171.398 259.978 169.047C261.548 166.697 262.386 163.933 262.386 161.106C262.383 157.316 260.876 153.683 258.196 151.003C255.516 148.323 251.882 146.816 248.092 146.812V146.812Z" fill="#2855AF" stroke="#2855AF" stroke-width="1.06068" stroke-miterlimit="10"/>
<path d="M262.105 158.257C261.441 155.032 259.687 152.133 257.138 150.049C254.588 147.965 251.399 146.822 248.105 146.812V140.869C252.77 140.881 257.287 142.499 260.899 145.45C264.51 148.401 266.996 152.506 267.936 157.074L262.105 158.257Z" fill="#7CCCDB" stroke="#2855AF" stroke-width="1.06068" stroke-miterlimit="10"/>
<path d="M156.352 118.462H251.391" stroke="#2855AF" stroke-width="1.06068" stroke-miterlimit="10"/>
<path d="M156.352 118.462V116.439" stroke="#2855AF" stroke-width="1.06068" stroke-miterlimit="10"/>
<path d="M175.355 118.462V116.439" stroke="#2855AF" stroke-width="1.06068" stroke-miterlimit="10"/>
<path d="M194.367 118.462V116.439" stroke="#2855AF" stroke-width="1.06068" stroke-miterlimit="10"/>
<path d="M213.375 118.462V116.439" stroke="#2855AF" stroke-width="1.06068" stroke-miterlimit="10"/>
<path d="M232.379 118.462V116.439" stroke="#2855AF" stroke-width="1.06068" stroke-miterlimit="10"/>
<path d="M251.391 118.462V116.439" stroke="#2855AF" stroke-width="1.06068" stroke-miterlimit="10"/>
<path d="M172.697 91.4492H159.012V107.654H172.697V91.4492Z" fill="#7CCCDB" stroke="#2855AF" stroke-width="1.06068" stroke-miterlimit="10"/>
<path d="M191.701 72.542H178.016V110.356H191.701V72.542Z" fill="#7CCCDB" stroke="#2855AF" stroke-width="1.06068" stroke-miterlimit="10"/>
<path d="M210.712 46.0752H197.027V88.2152H210.712V46.0752Z" fill="#7CCCDB" stroke="#2855AF" stroke-width="1.06068" stroke-miterlimit="10"/>
<path d="M229.716 85.5137H216.031V93.6197H229.716V85.5137Z" fill="#7CCCDB" stroke="#2855AF" stroke-width="1.06068" stroke-miterlimit="10"/>
<path d="M248.724 80.6484H235.039V101.718H248.724V80.6484Z" fill="#7CCCDB" stroke="#2855AF" stroke-width="1.06068" stroke-miterlimit="10"/>
<path d="M172.697 107.661H159.012V118.469H172.697V107.661Z" fill="#2855AF" stroke="#2855AF" stroke-width="1.06068" stroke-miterlimit="10"/>
<path d="M191.701 110.363H178.016V118.469H191.701V110.363Z" fill="#2855AF" stroke="#2855AF" stroke-width="1.06068" stroke-miterlimit="10"/>
<path d="M210.712 88.208H197.027V118.462H210.712V88.208Z" fill="#2855AF" stroke="#2855AF" stroke-width="1.06068" stroke-miterlimit="10"/>
<path d="M229.716 93.6123H216.031V118.462H229.716V93.6123Z" fill="#2855AF" stroke="#2855AF" stroke-width="1.06068" stroke-miterlimit="10"/>
<path d="M248.724 101.718H235.039V118.462H248.724V101.718Z" fill="#2855AF" stroke="#2855AF" stroke-width="1.06068" stroke-miterlimit="10"/>
<path d="M246.696 22.0008L278 4.00079L277.552 1.84277L246.696 19.6998L216.267 24.2848L186.461 4.85278L155.661 11.9998L125.33 36.6328C125.122 36.8017 124.99 37.0463 124.962 37.3128C124.935 37.5793 125.014 37.8458 125.183 38.0538C125.352 38.2617 125.597 38.394 125.863 38.4216C126.13 38.4491 126.396 38.3697 126.604 38.2008L156.571 13.8618L186.076 7.01577L216.267 26.6507L246.696 22.0008Z" fill="#2855AF"/>
<path d="M128.502 37.416C128.502 37.9102 128.355 38.3934 128.081 38.8044C127.806 39.2153 127.416 39.5356 126.959 39.7248C126.503 39.9139 126 39.9634 125.515 39.867C125.031 39.7705 124.585 39.5325 124.236 39.183C123.886 38.8336 123.648 38.3883 123.552 37.9035C123.456 37.4188 123.505 36.9163 123.694 36.4597C123.883 36.003 124.204 35.6127 124.615 35.3381C125.025 35.0636 125.509 34.917 126.003 34.917C126.666 34.917 127.301 35.1803 127.77 35.6489C128.239 36.1176 128.502 36.7532 128.502 37.416Z" fill="#7CCCDB"/>
<path d="M156.116 15.4296C157.496 15.4296 158.615 14.3108 158.615 12.9306C158.615 11.5505 157.496 10.4316 156.116 10.4316C154.736 10.4316 153.617 11.5505 153.617 12.9306C153.617 14.3108 154.736 15.4296 156.116 15.4296Z" fill="#7CCCDB"/>
<path d="M186.265 8.42964C187.645 8.42964 188.764 7.3108 188.764 5.93064C188.764 4.55048 187.645 3.43164 186.265 3.43164C184.884 3.43164 183.766 4.55048 183.766 5.93064C183.766 7.3108 184.884 8.42964 186.265 8.42964Z" fill="#7CCCDB"/>
<path d="M216.413 28.0859C217.793 28.0859 218.912 26.967 218.912 25.5869C218.912 24.2067 217.793 23.0879 216.413 23.0879C215.033 23.0879 213.914 24.2067 213.914 25.5869C213.914 26.967 215.033 28.0859 216.413 28.0859Z" fill="#7CCCDB"/>
<path d="M249.701 20.3994C249.701 20.8936 249.555 21.3768 249.28 21.7878C249.005 22.1987 248.615 22.519 248.158 22.7082C247.702 22.8973 247.199 22.9468 246.715 22.8504C246.23 22.7539 245.785 22.5159 245.435 22.1664C245.086 21.817 244.848 21.3717 244.751 20.8869C244.655 20.4022 244.704 19.8997 244.893 19.4431C245.082 18.9864 245.403 18.5961 245.814 18.3215C246.225 18.047 246.708 17.9004 247.202 17.9004C247.865 17.9004 248.501 18.1637 248.969 18.6323C249.438 19.101 249.701 19.7366 249.701 20.3994V20.3994Z" fill="#7CCCDB"/>
<path d="M279.799 2.89939C279.799 3.39365 279.652 3.8768 279.378 4.28776C279.103 4.69872 278.713 5.01902 278.256 5.20816C277.799 5.39731 277.297 5.4468 276.812 5.35037C276.327 5.25395 275.882 5.01594 275.533 4.66645C275.183 4.31696 274.945 3.87168 274.849 3.38692C274.752 2.90217 274.802 2.3997 274.991 1.94307C275.18 1.48644 275.5 1.09614 275.911 0.821548C276.322 0.546955 276.806 0.400391 277.3 0.400391C277.963 0.400391 278.598 0.663674 279.067 1.13233C279.535 1.60098 279.799 2.23662 279.799 2.89939Z" fill="#7CCCDB"/>
<path d="M330.607 275.598C357.29 275.598 378.921 272.693 378.921 269.109C378.921 265.525 357.29 262.62 330.607 262.62C303.924 262.62 282.293 265.525 282.293 269.109C282.293 272.693 303.924 275.598 330.607 275.598Z" fill="#7CCCDB"/>
<path opacity="0.7" d="M330.607 275.598C357.29 275.598 378.921 272.693 378.921 269.109C378.921 265.525 357.29 262.62 330.607 262.62C303.924 262.62 282.293 265.525 282.293 269.109C282.293 272.693 303.924 275.598 330.607 275.598Z" fill="white"/>
<path d="M65.9072 275.598C90.5297 275.598 110.49 272.693 110.49 269.109C110.49 265.525 90.5297 262.62 65.9072 262.62C41.2847 262.62 21.3242 265.525 21.3242 269.109C21.3242 272.693 41.2847 275.598 65.9072 275.598Z" fill="#7CCCDB"/>
<path opacity="0.7" d="M65.9072 275.598C90.5297 275.598 110.49 272.693 110.49 269.109C110.49 265.525 90.5297 262.62 65.9072 262.62C41.2847 262.62 21.3242 265.525 21.3242 269.109C21.3242 272.693 41.2847 275.598 65.9072 275.598Z" fill="white"/>
<path d="M316.969 40.5099C316.969 40.5099 335.323 38.7319 336.373 41.7909C337.423 44.8499 337.073 51.8359 337.073 51.8359C337.997 52.0763 338.899 52.3972 339.768 52.7949C340.013 53.0329 342.729 54.8109 340.195 57.7299C339.533 58.4701 338.731 59.072 337.836 59.5009C336.718 59.9955 335.655 60.6055 334.665 61.3209L330.983 65.4999L331.683 70.8829C331.683 70.8829 333.328 72.0729 335.337 76.2239C335.337 76.2239 340.083 79.0239 342.869 80.6129C345.16 81.8167 347.542 82.8372 349.995 83.6649C349.995 83.6649 351.269 84.0779 351.178 84.9949C351.087 85.9119 344.836 106.695 344.836 106.695L341.546 117.195C341.483 118.485 341.315 119.768 341.042 121.031C340.573 123.292 338.809 124.776 336.982 124.314L337.164 132.014C337.164 132.014 328.582 136.305 314.428 135.577C314.428 135.577 307.764 134.933 302.836 131.286L302.745 113.296L280.037 108.9C280.037 108.9 277.16 108.291 278.637 105.701C280.114 103.111 285.077 96.6849 285.077 96.6849L301.03 77.1689C301.03 77.1689 302.129 75.8739 302.535 75.4609C302.941 75.0479 303.935 74.7609 307.876 74.4319C311.817 74.1029 316.234 73.3399 316.234 73.3399C316.234 73.3399 318.628 71.2819 318.971 71.2819C319.314 71.2819 319.384 68.2019 319.384 68.2019C318.173 67.3283 317.166 66.2025 316.433 64.9022C315.699 63.6019 315.256 62.1579 315.135 60.6699C314.792 55.6719 316.983 43.9609 316.983 43.9609L316.969 40.5099Z" fill="white"/>
<path d="M303.116 131.216C303.116 131.216 301.184 159.916 301.184 173.65C301.184 187.384 302.045 198.507 302.472 208.153C302.899 217.799 301.184 224.442 302.682 231.512C304.18 238.582 307.617 259.162 307.617 259.162L311.656 261.598C311.656 261.598 312.356 245.225 313.826 239.443C315.296 233.661 315.758 209.224 316.626 201.72C317.494 194.216 320.273 167.644 320.273 167.644C320.273 167.644 330.99 195.504 333.573 206.438C336.156 217.372 344.934 242.012 346.873 248.011C348.812 254.01 351.801 262.9 351.801 262.9C352.709 263.165 353.663 263.237 354.601 263.11C355.006 263.077 355.396 262.942 355.734 262.717C356.072 262.491 356.347 262.183 356.533 261.822C356.533 261.822 353.684 243.874 352.431 235.152C350.884 224.365 348.364 208.153 346.831 202.154C345.298 196.155 342.974 186.719 342.974 182.218C342.974 177.717 337.192 132.518 337.192 132.518C337.192 132.518 317.046 141.289 303.116 131.216Z" fill="#2855AF"/>
<path d="M320.26 167.644L311.664 157.62" stroke="white" stroke-width="0.530341" stroke-miterlimit="10" stroke-linecap="round"/>
<path d="M309.465 158.355L316.542 164.942" stroke="white" stroke-width="0.530341" stroke-miterlimit="10" stroke-linecap="round"/>
<path d="M324.594 159.09C326.406 154.505 329.774 150.703 334.107 148.352" stroke="white" stroke-width="0.530341" stroke-miterlimit="10" stroke-linecap="round"/>
<path d="M334.591 134.94C334.591 134.94 333.618 138.594 334.836 140.792C336.054 142.99 337.279 142.99 337.279 142.99C337.279 142.99 339.47 154.939 339.47 161.771C339.47 168.603 338.007 169.331 339.47 176.891C340.933 184.451 341.913 186.894 341.913 191.283C341.913 195.672 343.859 198.605 345.567 201.286C347.275 203.967 347.765 211.786 347.765 214.943C347.765 218.1 348.738 221.53 349.718 224.701C349.718 224.701 349.949 231.813 351.181 233.479C352.413 235.145 352.644 240.801 352.644 240.801" stroke="white" stroke-width="0.530341" stroke-miterlimit="10" stroke-linecap="round"/>
<path d="M318.497 166.65C318.497 166.65 318.98 172.25 317.272 182.015C315.564 191.78 314.346 194.454 314.101 205.675C313.856 216.896 314.836 218.849 314.346 224.701C313.856 230.553 310.93 239.8 310.93 244C310.93 248.2 311.378 261.626 311.378 261.626" stroke="white" stroke-width="0.530341" stroke-miterlimit="10" stroke-linecap="round"/>
<path d="M313.125 136.403L313.615 138.356L316.786 139.084L316.296 136.648" stroke="white" stroke-width="0.530341" stroke-miterlimit="10" stroke-linecap="round"/>
<path d="M316.801 139.084C316.801 139.084 322.653 138.839 325.579 137.866L324.879 135.913" stroke="white" stroke-width="0.530341" stroke-miterlimit="10" stroke-linecap="round"/>
<path d="M327.52 135.423L328.22 137.866C328.22 137.866 332.903 137.6 333.603 136.9" stroke="white" stroke-width="0.530341" stroke-miterlimit="10" stroke-linecap="round"/>
<path d="M313.617 138.356C311.999 138.305 310.415 137.886 308.983 137.131L306.785 135.913L307.485 134.205" stroke="white" stroke-width="0.530341" stroke-miterlimit="10" stroke-linecap="round"/>
<path d="M307.616 259.162C307.616 259.162 297.116 266.015 295.611 269.228C294.106 272.441 300.112 271.16 304.396 269.445C308.68 267.73 311.396 261.598 311.396 261.598L307.616 259.162Z" fill="white" stroke="#2855AF" stroke-width="1.06068" stroke-miterlimit="10" stroke-linecap="round"/>
<path d="M352.137 262.991C352.666 265.927 353.709 268.747 355.217 271.321C357.527 274.912 361.888 277.992 361.888 272.343C361.888 266.694 356.505 261.843 356.505 261.843C356.505 261.843 353.831 263.292 352.137 262.991Z" fill="white" stroke="#2855AF" stroke-width="1.06068" stroke-miterlimit="10" stroke-linecap="round"/>
<path d="M316.906 44.3877C316.906 44.3877 314.631 58.4997 315.401 61.9997C317.158 69.8327 323.325 69.4967 327.182 67.9987C330.787 66.5987 334.385 61.6497 334.847 60.9987C334.88 60.9527 334.927 60.9184 334.98 60.9007C335.554 60.7397 339.117 59.6057 340.685 56.8547C342.4 53.8517 339.187 52.5707 339.187 52.5707" fill="white"/>
<g style="mix-blend-mode:multiply" opacity="0.5">
<path d="M331.5 64.6316L334.902 60.8936C334.902 60.8936 338.927 59.6546 340.684 56.8196C341.713 55.1606 341.146 53.7116 340.523 53.3196C339.67 52.8575 338.788 52.4484 337.884 52.0946L336.743 54.6076L335.77 54.7756C335.77 54.7756 336.176 52.1856 335 50.6526C333.824 49.1196 333.558 44.6816 333.558 44.6816C333.558 44.6816 331.913 53.5296 331.71 57.2326C331.658 59.2934 331.014 61.2957 329.855 63.0006C329.855 63.0006 330.065 65.2616 330.471 67.5226C330.52 67.7886 330.569 68.1876 330.618 68.6846L331.178 67.7886L331.486 68.6426C331.136 67.1726 330.975 65.6116 331.5 64.6316Z" fill="#7CCCDB"/>
</g>
<path d="M316.906 44.3877C316.906 44.3877 314.631 58.4997 315.401 61.9997C317.158 69.8327 323.325 69.4967 327.182 67.9987C330.787 66.5987 334.385 61.6497 334.847 60.9987C334.88 60.9527 334.927 60.9184 334.98 60.9007C335.554 60.7397 339.117 59.6057 340.685 56.8547C342.4 53.8517 339.187 52.5707 339.187 52.5707" stroke="#2855AF" stroke-width="1.06068" stroke-miterlimit="10" stroke-linecap="round"/>
<path d="M325.615 51.5628C325.482 52.1228 325.615 52.6268 325.874 52.6898C326.133 52.7528 326.483 52.3608 326.616 51.8078C326.749 51.2548 326.616 50.7508 326.357 50.6808C326.098 50.6108 325.748 51.0098 325.615 51.5628Z" fill="#2855AF"/>
<path d="M319.603 50.0997C319.47 50.6597 319.603 51.1637 319.862 51.2267C320.121 51.2897 320.471 50.8977 320.604 50.3447C320.737 49.7917 320.604 49.2807 320.345 49.2177C320.086 49.1547 319.729 49.5397 319.603 50.0997Z" fill="#2855AF"/>
<path d="M329.345 49.1128C329.014 48.5308 328.543 48.0408 327.975 47.6874C327.406 47.3341 326.758 47.1286 326.09 47.0898" stroke="#2855AF" stroke-width="1.06068" stroke-miterlimit="10" stroke-linecap="round"/>
<path d="M321.484 47.1951C320.933 46.9543 320.321 46.8869 319.731 47.002C319.141 47.117 318.6 47.409 318.18 47.8391" stroke="#2855AF" stroke-width="1.06068" stroke-miterlimit="10" stroke-linecap="round"/>
<path d="M321.892 49.7432C321.905 50.6809 321.834 51.6179 321.682 52.5432C321.451 53.7122 320.541 53.9432 320.772 54.8462C321.003 55.7492 322.172 55.8402 322.172 55.8402" stroke="#2855AF" stroke-width="1.06068" stroke-miterlimit="10" stroke-linecap="round"/>
<path d="M323.387 59.4872C323.882 59.645 324.406 59.6936 324.922 59.6295C325.438 59.5655 325.934 59.3904 326.376 59.1162" stroke="#2855AF" stroke-width="1.06068" stroke-miterlimit="10" stroke-linecap="round"/>
<path d="M334.477 34.532C334.477 34.532 329.766 30.458 325.265 30.458C320.764 30.458 317.117 33.034 314.331 33.258C311.545 33.482 309.62 30.899 307.905 34.329C306.19 37.759 312.623 43.548 316.907 44.402C321.191 45.256 327.19 43.975 328.905 43.758C330.548 43.6454 332.197 43.6454 333.84 43.758C333.84 43.758 332.552 47.832 333.84 49.12C335.128 50.408 335.338 51.262 335.338 52.116C335.412 53.0585 335.554 53.9944 335.765 54.916L337.053 55.35L337.697 52.991C339.435 51.138 340.623 48.8378 341.127 46.348C341.764 42.491 338.551 38.648 338.551 38.648L334.477 34.532Z" fill="#2855AF"/>
<path d="M316.43 42.6452C316.43 42.6452 323.759 44.0452 329.499 41.6582C335.239 39.2712 330.29 34.5322 330.29 34.5322" stroke="white" stroke-width="0.530341" stroke-miterlimit="10" stroke-linecap="round"/>
<path d="M331.5 34.1328C332.095 34.1328 337.044 37.8918 336.05 40.6638C335.056 43.4358 333.082 43.6388 333.082 43.6388" stroke="white" stroke-width="0.530341" stroke-miterlimit="10" stroke-linecap="round"/>
<path d="M330.689 119.162L324.501 115.9C322.91 115.812 321.329 115.606 319.769 115.284C318.327 114.871 303.529 113.457 303.529 113.457L303.305 116.957C303.305 116.957 320.182 119.225 323.675 119.638C327.168 120.051 330.262 121.696 330.878 122.725C331.494 123.754 332.733 124.783 332.117 127.625C331.501 130.467 327.385 134.625 327.385 134.625C327.189 134.331 337.283 133.603 337.185 132.525C336.968 130.383 335.827 124.125 335.827 124.125L330.689 119.162Z" fill="#7CCCDB"/>
<path opacity="0.5" d="M330.689 119.162L324.501 115.9C322.91 115.812 321.329 115.606 319.769 115.284C318.327 114.871 303.529 113.457 303.529 113.457L303.305 116.957C303.305 116.957 320.182 119.225 323.675 119.638C327.168 120.051 330.262 121.696 330.878 122.725C331.494 123.754 332.733 124.783 332.117 127.625C331.501 130.467 327.385 134.625 327.385 134.625C327.224 134.31 337.304 133.596 337.185 132.525C336.856 129.795 335.827 124.125 335.827 124.125L330.689 119.162Z" fill="white"/>
<path d="M351.1 84.9184C350.554 82.3564 346.48 82.6994 344.023 81.2784C341.566 79.8574 335.623 76.5674 335.623 76.5674L332.746 72.2414C332.227 71.0751 331.808 69.8667 331.493 68.6294L331.185 67.7754L330.625 68.6714C330.982 72.5074 331.325 82.3284 331.325 82.3284L332.557 88.5024C332.557 88.5024 337.296 108.872 338.528 113.401C339.76 117.93 339.76 121.01 338.941 122.452C338.122 123.894 338.395 124.552 338.395 124.552C338.395 124.552 341.608 122.067 341.412 119.603C341.153 116.705 351.485 86.6544 351.1 84.9184Z" fill="#7CCCDB"/>
<path opacity="0.5" d="M351.1 84.9184C350.82 82.3144 346.48 82.6994 344.023 81.2784C341.566 79.8574 335.623 76.5674 335.623 76.5674L332.746 72.2414C332.227 71.0751 331.808 69.8667 331.493 68.6294L331.185 67.7754L330.625 68.6714C330.982 72.5074 331.325 82.3284 331.325 82.3284L332.557 88.5024C332.557 88.5024 337.296 108.872 338.528 113.401C339.76 117.93 339.76 121.01 338.941 122.452C338.122 123.894 338.395 124.552 338.395 124.552C338.395 124.552 341.699 122.06 341.412 119.603C341.083 116.964 351.352 87.0814 351.1 84.9184Z" fill="white"/>
<path d="M333.116 82.3489C333.116 82.3489 331.828 70.7779 331.184 67.7749C330.54 64.7719 330.974 63.0639 328.188 63.0639C325.402 63.0639 321.972 62.6299 322.588 64.1349C323.204 65.6399 327.488 64.3449 328.188 64.9889C328.888 65.6329 328.398 67.1309 328.398 67.1309C328.398 67.1309 322.798 67.5649 322.798 69.0629C322.798 70.5609 323.015 74.6629 324.086 75.0619C325.157 75.4609 325.584 73.1369 325.584 73.1369C325.584 73.1369 325.801 78.0369 326.872 79.7799C327.554 80.8564 328.345 81.8603 329.231 82.7759L333.116 82.3489Z" fill="white" stroke="#2855AF" stroke-width="1.06068" stroke-miterlimit="10" stroke-linecap="round"/>
<path d="M329.262 85.5617C329.262 85.5617 328.618 112.162 329.689 116.425C330.76 120.688 336.549 126.498 339.545 123.712C342.541 120.926 341.05 114.927 341.05 112.141C341.05 109.355 334.19 88.7817 334.19 87.2767C334.088 86.0269 333.798 84.7998 333.329 83.6367" stroke="#2855AF" stroke-width="1.06068" stroke-miterlimit="10" stroke-linecap="round"/>
<path d="M329.688 88.7817L333.972 88.3477" stroke="#2855AF" stroke-width="1.06068" stroke-miterlimit="10" stroke-linecap="round"/>
<path d="M302.289 102.082L303.115 78.4145C303.115 78.4145 302.086 77.7985 301.673 80.0595C301.26 82.3205 301.057 86.8565 301.057 86.8565C301.057 86.8565 296.115 83.7695 297.354 85.6175C298.593 87.4655 300.644 91.5885 300.644 91.5885L293 99.1975L296.5 100.64L302.289 102.082Z" fill="#7CCCDB"/>
<path opacity="0.5" d="M302.289 102.082L303.115 78.4145C303.115 78.4145 302.086 77.7985 301.673 80.0595C301.26 82.3205 301.057 86.8565 301.057 86.8565C301.057 86.8565 296.115 83.7695 297.354 85.6175C298.593 87.4655 300.644 91.5885 300.644 91.5885L293 99.1975L296.5 100.64L302.289 102.082Z" fill="white"/>
<path d="M312.537 83.7004C312.537 83.7004 312.145 85.1004 313.79 85.1004C315.435 85.1004 318.326 83.9314 318.326 83.9314L318.116 81.6074C318.116 81.6074 314.161 83.5324 312.537 83.7004Z" fill="#7CCCDB"/>
<path opacity="0.5" d="M312.537 83.7004C312.537 83.7004 312.145 85.1004 313.79 85.1004C315.435 85.1004 318.326 83.9314 318.326 83.9314L318.116 81.6074C318.116 81.6074 314.161 83.5324 312.537 83.7004Z" fill="white"/>
<path d="M319.602 68.0479C319.602 68.0479 317.46 80.6479 318.748 83.4478C320.036 86.2478 321.961 85.5898 323.459 84.3088C324.957 83.0278 326.889 79.8079 326.889 79.8079" stroke="#2855AF" stroke-width="1.06068" stroke-miterlimit="10" stroke-linecap="round"/>
<path d="M302.684 113.639L303.118 131.216C303.118 131.216 308.018 135.927 317.475 135.927C326.932 135.927 337.194 132.497 337.194 132.497V126.281" stroke="#2855AF" stroke-width="1.06068" stroke-miterlimit="10" stroke-linecap="round"/>
<path d="M331.621 70.5605C331.621 70.5605 335.478 74.4175 335.478 78.0645C335.478 81.7115 334.834 82.5656 334.834 82.5656" stroke="#2855AF" stroke-width="1.06068" stroke-miterlimit="10" stroke-linecap="round"/>
<path d="M335.043 75.9229C335.043 75.9229 340.832 79.3458 344.045 81.2778C347.258 83.2098 351.122 83.2029 351.122 84.9179C351.122 86.6329 342.12 115.781 342.12 115.781" stroke="#2855AF" stroke-width="1.06068" stroke-miterlimit="10" stroke-linecap="round"/>
<path d="M338.689 85.5625L336.547 94.1375" stroke="#2855AF" stroke-width="1.06068" stroke-miterlimit="10" stroke-linecap="round"/>
<path d="M302.738 90.5951L299.273 83.3291" stroke="#2855AF" stroke-width="0.530341" stroke-miterlimit="10" stroke-linecap="round"/>
<path d="M302.737 92.6736L297.543 89.5586" stroke="#2855AF" stroke-width="0.530341" stroke-miterlimit="10" stroke-linecap="round"/>
<path d="M319.684 108.928L318.648 114.122" stroke="#2855AF" stroke-width="0.530341" stroke-miterlimit="10" stroke-linecap="round"/>
<path d="M347.707 84.7148C347.707 84.7148 342.52 85.7508 337.676 91.6308" stroke="#2855AF" stroke-width="0.530341" stroke-miterlimit="10" stroke-linecap="round"/>
<path d="M344.246 84.3999C344.246 84.3999 342.846 84.0499 338.023 88.2009" stroke="#2855AF" stroke-width="0.530341" stroke-miterlimit="10" stroke-linecap="round"/>
<path d="M319.685 86.1006L317.613 102.355L319.342 102.705L320.728 97.5176" stroke="#2855AF" stroke-width="0.530341" stroke-miterlimit="10" stroke-linecap="round"/>
<path d="M321.07 128.647C314.84 133.841 306.195 133.491 306.195 133.491" stroke="#2855AF" stroke-width="0.530341" stroke-miterlimit="10" stroke-linecap="round"/>
<path d="M294.746 100.416C294.746 100.416 290.511 96.5382 284.512 101.473" stroke="#2855AF" stroke-width="0.530341" stroke-miterlimit="10" stroke-linecap="round"/>
<path d="M319.189 71.2051C319.189 71.2051 317.474 71.6321 315.542 74.6351C313.61 77.6381 311.258 82.7761 312.973 83.2031C314.688 83.6301 317.873 81.7051 317.873 81.7051" stroke="#2855AF" stroke-width="1.06068" stroke-miterlimit="10" stroke-linecap="round"/>
<path d="M325.832 82.5664L327.974 84.4914" stroke="#2855AF" stroke-width="1.06068" stroke-miterlimit="10" stroke-linecap="round"/>
<path d="M316.185 73.3467C316.185 73.3467 308.254 74.4177 305.041 74.6347C301.828 74.8517 302.451 76.0347 301.401 76.7767C299.707 77.9597 280.275 102.593 279.001 104.952C277.727 107.311 277.93 108.382 280.072 109.026C282.214 109.67 303.55 113.422 303.55 113.422L322.401 115.354L323.899 110.636C323.899 110.636 328.281 111.217 329.051 111.217" stroke="#2855AF" stroke-width="1.06068" stroke-miterlimit="10" stroke-linecap="round"/>
<path d="M321.756 108.9C317.595 107.693 313.574 106.051 309.758 104" stroke="#2855AF" stroke-width="1.06068" stroke-miterlimit="10" stroke-linecap="round"/>
<path d="M308.043 103.566C308.043 103.566 301.743 101.228 298.334 100.801C294.925 100.374 289.703 100.234 289.703 100.234" stroke="#2855AF" stroke-width="1.06068" stroke-miterlimit="10" stroke-linecap="round"/>
<path d="M302.254 100.78L302.898 83.8467" stroke="#2855AF" stroke-width="1.06068" stroke-miterlimit="10" stroke-linecap="round"/>
<path d="M322.402 115.354C323.873 116.093 325.414 116.684 327.001 117.118" stroke="#2855AF" stroke-width="1.06068" stroke-miterlimit="10" stroke-linecap="round"/>
<path d="M41.9315 101.711L44.4585 87.8997L60.4535 81.5997C60.4535 81.5997 61.2305 77.3087 62.0145 77.1197C62.7985 76.9307 63.5685 75.1667 63.5685 75.1667L63.1835 71.6317C63.1835 71.6317 64.6465 66.0317 72.0035 70.3927C72.0035 70.3927 69.7775 71.8767 70.1625 72.4927C70.5475 73.1087 69.7355 75.0687 70.7085 75.0687C71.6815 75.0687 73.6485 76.3077 74.6425 77.3087C75.3382 78.0562 75.9529 78.8751 76.4765 79.7517L84.7575 80.2277C85.6063 80.2348 86.4508 80.3501 87.2705 80.5707C87.4105 76.5247 86.9135 73.4377 85.9335 71.0367C82.3705 62.3707 75.8745 59.2767 74.9435 54.9367C74.0125 50.5967 74.4815 50.1417 74.4815 50.1417C75.4281 49.1792 76.1212 47.9969 76.4987 46.7008C76.8762 45.4046 76.9263 44.035 76.6445 42.7147C75.7205 38.0737 72.1575 34.8187 59.3125 34.2027C46.4675 33.5867 48.3295 42.3997 48.3295 42.3997L48.4835 43.0157C48.4835 43.0157 40.2795 45.8157 41.8335 56.1687C43.3875 66.5217 47.8675 71.0227 47.7135 74.2707C47.5595 77.5187 42.7575 78.7577 35.9465 86.1707C29.1355 93.5837 27.7495 104.735 30.5355 112.008C31.9355 115.585 34.6725 118.567 38.1095 120.793L41.9315 101.711Z" fill="#2855AF"/>
<path d="M52.6556 103.076V106.198L46.7266 124.517C50.4314 125.497 54.3168 125.579 58.0596 124.755C60.1723 124.205 62.1916 123.344 64.0516 122.2L52.6556 103.076Z" fill="#2855AF"/>
<path d="M69.7024 72.3803L70.4024 75.5303C70.4024 75.5303 72.5024 73.4303 76.6044 79.8073C76.6044 79.8073 85.1304 79.6043 87.4544 80.7663C87.4544 80.7663 87.9374 80.9063 89.5124 82.5793C91.0874 84.2523 97.0094 89.5793 97.0094 89.5793C97.0094 89.5793 104.611 96.6353 105.367 97.1813C106.123 97.7273 108.958 100.436 111.079 101.381L116.763 88.4383L119.297 82.0333L120.697 76.7623H121.145L121.243 72.5133L120.9 67.4453C120.956 67.1876 121.074 66.9473 121.243 66.7453C121.83 65.9319 122.282 65.0289 122.58 64.0713C122.58 63.5953 122.097 60.7813 122.097 60.7813C122.097 60.7813 121.859 60.0813 122.377 59.9973C122.895 59.9133 124.806 60.5783 125.044 61.9153L125.744 61.6773C126.324 60.2923 127.047 58.9715 127.9 57.7363C129.034 56.2663 130.196 55.3423 130.917 55.8183C131.115 55.9548 131.258 56.1574 131.32 56.3898C131.381 56.6221 131.358 56.8688 131.253 57.0853L128.999 61.2293C128.999 61.2293 128.005 62.5663 129.237 63.0423C129.237 63.0423 131.904 64.7573 132.079 66.2623C132.254 67.7673 131.288 69.0623 130.434 70.1683C129.58 71.2743 128.075 73.6683 128.075 73.6683L126.325 75.2153L125.625 77.8823L126.451 78.9113L125.219 84.2523L124.33 88.2563L123.882 90.6853L121.082 100.275L118.282 108.633C118.282 108.633 116.84 113.421 113.347 113.288C109.854 113.155 106.025 111.265 104.786 110.649C103.547 110.033 93.3344 104.699 93.3344 104.699L91.2344 103.705C91.5147 104.661 91.6353 105.657 91.5915 106.652C91.5565 108.5 89.5684 112.574 88.9874 113.498L88.6444 120.722C88.5089 121.976 88.5324 123.241 88.7144 124.488C89.0224 126.371 90.5974 137.025 90.9404 138.355C90.9404 138.355 87.5384 141.435 77.4024 142.898C67.2664 144.361 62.5204 141.988 62.5204 141.988L58.0054 139.335L63.5704 128.338C63.5704 128.338 64.9704 125.069 64.8304 124.208C64.6904 123.347 62.2964 119.637 62.2964 119.637L53.5114 103.999L53.0984 104.139L51.7334 108.703L46.7984 124.18L40.3024 143.5C40.3024 143.5 38.5244 148.4 37.7894 149.849L35.7384 156.1C35.8524 157.217 36.1283 158.311 36.5574 159.348L31.3984 156.009L32.3154 151.109L33.4564 143.801L34.8564 135.856L36.0884 129.283L38.0554 120.519L38.7554 118.097L40.1554 111.251L42.6194 98.8333L44.7194 88.2003L59.4194 82.3553L60.3364 81.6553C60.5403 80.3021 61.0372 79.0096 61.7924 77.8683C62.3166 77.1175 62.9407 76.4416 63.6474 75.8593C63.6474 75.8593 63.5774 74.9423 63.5284 74.0743C63.4794 73.2063 63.2554 71.6103 63.2554 71.6103C63.2554 71.6103 67.7984 73.5633 69.7024 72.3803Z" fill="white"/>
<path d="M50.0117 44.2477C50.0117 44.2477 52.7347 38.2207 58.1807 38.2207C63.6267 38.2207 74.9037 48.9167 74.9037 48.9167" stroke="white" stroke-width="0.530341" stroke-miterlimit="10" stroke-linecap="round"/>
<path d="M52.3398 45.2002C52.3398 45.2002 55.6438 41.7002 59.7318 43.0582C63.8198 44.4162 64.4008 49.2812 64.4008 49.2812" stroke="white" stroke-width="0.530341" stroke-miterlimit="10" stroke-linecap="round"/>
<path d="M49.6185 45.8018C49.6185 45.8018 44.7605 48.5248 44.3685 53.5858C43.9765 58.6468 51.1725 64.6668 52.1455 71.4778C53.1185 78.2888 48.0645 79.8358 39.8955 85.4778C31.7265 91.1198 33.0915 103.755 34.8415 106.478" stroke="white" stroke-width="0.530341" stroke-miterlimit="10" stroke-linecap="round"/>
<path d="M35.8125 108.039C35.8125 108.039 36.9745 110.566 38.7245 111.343" stroke="white" stroke-width="0.530341" stroke-miterlimit="10" stroke-linecap="round"/>
<path d="M50.2047 59.0244C49.9746 59.5184 49.8714 60.0619 49.9045 60.6059C49.9375 61.1498 50.1056 61.6769 50.3937 62.1394C51.3667 63.8894 58.7937 72.6394 58.1777 76.7274C57.5617 80.8154 53.7047 83.3354 53.7047 83.3354" stroke="white" stroke-width="0.530341" stroke-miterlimit="10" stroke-linecap="round"/>
<path d="M53.8926 45.8018C53.8926 45.8018 49.4196 47.7478 49.6156 52.2208C49.8116 56.6937 50.7846 57.8627 50.7846 57.8627" stroke="white" stroke-width="0.530341" stroke-miterlimit="10" stroke-linecap="round"/>
<path d="M74.9023 60.5996C76.2922 63.746 78.1992 66.6373 80.5443 69.1536C84.0443 72.6536 84.4293 77.7146 84.4293 77.7146" stroke="white" stroke-width="0.530341" stroke-miterlimit="10" stroke-linecap="round"/>
<path d="M78.9844 71.667C78.9844 71.667 80.7344 75.755 80.7344 78.282" stroke="white" stroke-width="0.530341" stroke-miterlimit="10" stroke-linecap="round"/>
<path d="M69.3028 72.7518L63.8078 77.7008C63.8078 77.7008 63.2198 79.1988 62.1138 81.5998C61.0078 84.0008 61.1898 88.5998 61.1898 88.5998L64.5778 95.3408C64.5778 95.3408 58.0608 87.8648 57.6898 86.9408C57.3188 86.0168 50.5008 87.6828 49.2128 88.2358C47.9248 88.7888 46.2588 89.8948 46.6298 91.5538C47.0008 93.2128 48.6598 95.4178 47.9178 95.7888C47.1758 96.1598 45.1528 95.2358 45.1528 96.3418C45.1528 97.4478 47.5538 101.69 46.4478 103.16C45.3418 104.63 38.3348 128.416 38.3348 128.416C38.3348 128.416 42.7588 124.727 41.6528 126.204C40.5468 127.681 35.2058 139.658 35.2058 139.658L33.1758 146.658L37.9708 121.78L42.0238 100.78L44.4598 87.8998C46.8118 87.1158 60.4548 81.5998 60.4548 81.5998C60.4548 81.5998 61.5328 77.0638 63.5698 75.1668L63.1848 71.6318C63.1848 71.6318 66.9018 72.9338 69.3028 72.7518Z" fill="#7CCCDB"/>
<path opacity="0.5" d="M69.3028 72.7518L63.8078 77.7008C63.8078 77.7008 63.2198 79.1988 62.1138 81.5998C61.0078 84.0008 61.1898 88.5998 61.1898 88.5998L64.5778 95.3408C64.5778 95.3408 58.0608 87.8648 57.6898 86.9408C57.3188 86.0168 50.5008 87.6828 49.2128 88.2358C47.9248 88.7888 46.2588 89.8948 46.6298 91.5538C47.0008 93.2128 48.6598 95.4178 47.9178 95.7888C47.1758 96.1598 45.1528 95.2358 45.1528 96.3418C45.1528 97.4478 47.5538 101.69 46.4478 103.16C45.3418 104.63 38.3348 128.416 38.3348 128.416C38.3348 128.416 42.7588 124.727 41.6528 126.204C40.5468 127.681 35.2058 139.658 35.2058 139.658L33.1758 146.658L37.9708 121.78L42.0238 100.78L44.4598 87.8998C46.8118 87.1158 60.4548 81.5998 60.4548 81.5998C60.4548 81.5998 60.7488 77.3998 63.5768 75.9298L63.1848 71.6318C63.1848 71.6318 66.9018 72.9338 69.3028 72.7518Z" fill="white"/>
<path d="M89.7539 97.6299C89.7539 97.6299 93.0719 92.1069 93.4429 93.3949C93.8139 94.6829 92.5189 99.0999 92.5189 99.0999C92.5189 99.0999 96.0189 97.8119 95.6549 98.9179C95.2909 100.024 94.5489 100.577 94.7309 101.13C94.9129 101.683 106.897 107.948 108.374 108.683C109.851 109.418 113.351 105.183 115.01 106.471C116.669 107.759 115.01 112.176 111.692 112.183C108.374 112.19 98.7909 107.983 98.7909 107.983L91.2449 103.594" fill="#7CCCDB"/>
<path opacity="0.5" d="M89.7539 97.6299C89.7539 97.6299 93.0719 92.1069 93.4429 93.3949C93.8139 94.6829 92.5189 99.0999 92.5189 99.0999C92.5189 99.0999 96.0189 97.8119 95.6549 98.9179C95.2909 100.024 94.5489 100.577 94.7309 101.13C94.9129 101.683 106.897 107.948 108.374 108.683C109.851 109.418 113.351 105.183 115.01 106.471C116.669 107.759 115.01 112.176 111.692 112.183C108.374 112.19 98.7909 107.983 98.7909 107.983L91.2729 103.608" fill="white"/>
<path d="M69.8555 119.931C69.8555 119.931 91.4015 108.507 87.9015 112.742C84.4015 116.977 72.8025 121.779 69.8555 119.931Z" fill="#7CCCDB"/>
<path opacity="0.5" d="M69.8555 119.931C69.8555 119.931 91.4015 108.507 87.9015 112.742C84.4015 116.977 72.8025 121.779 69.8555 119.931Z" fill="white"/>
<path d="M63.1836 71.667C63.1836 71.667 63.3376 74.607 63.8066 77.701C64.2756 80.795 64.1146 80.795 67.0546 84.505C69.9946 88.215 73.0886 91.316 73.5506 90.7" stroke="#2855AF" stroke-width="1.06068" stroke-miterlimit="10" stroke-linecap="round"/>
<path d="M73.7061 89.6145C73.7061 89.6145 74.0141 84.1965 72.9361 80.6405C71.8581 77.0845 70.3041 75.8385 70.3041 75.0405C70.2518 74.209 70.1489 73.3815 69.9961 72.5625" stroke="#2855AF" stroke-width="1.06068" stroke-miterlimit="10" stroke-linecap="round"/>
<path d="M63.1832 76.1533C61.9468 77.2667 61.0818 78.7327 60.7052 80.3533C60.2432 82.8243 59.7812 85.7643 59.7812 85.7643L64.5762 95.3613C64.9937 93.6901 65.6168 92.0772 66.4312 90.5593C66.8346 89.8102 67.3571 89.1317 67.9782 88.5503" stroke="#2855AF" stroke-width="1.06068" stroke-miterlimit="10" stroke-linecap="round"/>
<path d="M74.789 86.9822C75.1275 86.8975 75.4795 86.881 75.8245 86.9339C76.1694 86.9868 76.5004 87.1079 76.798 87.2902C78.037 87.9132 80.515 91.1612 80.515 91.1612C80.515 91.1612 78.814 83.1112 75.874 78.9393C72.934 74.7673 70.918 75.0683 70.918 75.0683" stroke="#2855AF" stroke-width="1.06068" stroke-miterlimit="10" stroke-linecap="round"/>
<path d="M59.3131 82.1875L44.4591 87.8995C44.4591 87.8995 39.0481 117.453 37.0321 125.342C35.0161 133.231 31.6211 155.519 31.6211 155.519L35.6391 156.29L37.0391 152.271" stroke="#2855AF" stroke-linecap="round" stroke-linejoin="round"/>
<path d="M37.8086 149.962C37.8086 149.962 38.7326 148.562 41.2106 140.862C43.6886 133.162 50.3106 114.262 51.4236 110.531C52.5366 106.8 53.4326 104.343 53.4326 104.343" stroke="#2855AF" stroke-width="1.06068" stroke-miterlimit="10" stroke-linecap="round"/>
<path d="M50.8008 99.7998C50.8008 99.7998 63.3308 122.2 64.4158 123.166C65.5008 124.132 63.9538 126.722 63.6388 128.115" stroke="#2855AF" stroke-width="1.06068" stroke-miterlimit="10" stroke-linecap="round"/>
<path d="M62.2524 130.929L58.2344 139.287C58.2344 139.287 60.8664 143.312 72.0034 143.312C78.6311 143.332 85.164 141.737 91.0364 138.664C91.0364 138.664 88.4044 124.741 88.5584 122.263C88.7124 119.785 89.0274 113.289 89.0274 113.289C89.0274 113.289 91.8274 109.089 91.4984 105.862C91.1694 102.635 89.7974 98.8968 89.7974 98.2808C89.7974 97.6648 89.4894 91.0078 89.4894 91.0078" stroke="#2855AF" stroke-width="1.06068" stroke-miterlimit="10" stroke-linecap="round"/>
<path d="M71.9844 117.174L83.0724 110.37" stroke="#2855AF" stroke-width="0.530341" stroke-miterlimit="10" stroke-linecap="round"/>
<path d="M77.8203 115.039L83.8473 111.539" stroke="#2855AF" stroke-width="0.530341" stroke-miterlimit="10" stroke-linecap="round"/>
<path d="M110.999 101.528L108.738 107.065" stroke="#2855AF" stroke-width="0.530341" stroke-miterlimit="10" stroke-linecap="round"/>
<path d="M110.096 103.951L107.961 106.093" stroke="#2855AF" stroke-width="0.530341" stroke-miterlimit="10" stroke-linecap="round"/>
<path d="M46.8949 123.6C46.8949 123.6 43.1989 127.877 40.6719 129.627" stroke="#2855AF" stroke-width="0.530341" stroke-miterlimit="10" stroke-linecap="round"/>
<path d="M44.7582 124.762C44.7582 124.762 38.3392 129.816 36.7852 130.985" stroke="#2855AF" stroke-width="0.530341" stroke-miterlimit="10" stroke-linecap="round"/>
<path d="M45.8984 88.7812C47.8334 91.5172 49.5872 94.377 51.1484 97.3423" stroke="#2855AF" stroke-width="0.530341" stroke-miterlimit="10" stroke-linecap="round"/>
<path d="M51.7617 98.7012L53.1197 101.032" stroke="#2855AF" stroke-width="0.530341" stroke-miterlimit="10" stroke-linecap="round"/>
<path d="M89.7969 98.2803L91.4979 89.6143" stroke="#2855AF" stroke-width="0.530341" stroke-miterlimit="10" stroke-linecap="round"/>
<path d="M90.4219 98.8965L93.0469 95.1865" stroke="#2855AF" stroke-width="0.530341" stroke-miterlimit="10" stroke-linecap="round"/>
<path d="M53.4309 104.315L46.0039 100.29" stroke="#2855AF" stroke-width="0.530341" stroke-miterlimit="10" stroke-linecap="round"/>
<path d="M73.3984 91.4697C73.3984 91.4697 76.1984 97.0697 77.1154 101.067" stroke="#2855AF" stroke-width="0.530341" stroke-miterlimit="10" stroke-linecap="round"/>
<path d="M119.352 81.719C120.092 81.6644 120.836 81.7603 121.539 82.0009C122.241 82.2415 122.888 82.6218 123.44 83.119" stroke="#2855AF" stroke-width="0.530341" stroke-miterlimit="10" stroke-linecap="round"/>
<path d="M34.3086 151.677L36.2266 152.391" stroke="#2855AF" stroke-width="0.530341" stroke-miterlimit="10" stroke-linecap="round"/>
<path d="M31.5714 155.8C31.5955 158.461 31.4552 161.122 31.1514 163.766C30.6894 167.021 30.8434 174.448 31.4594 176.765C32.0754 179.082 32.3904 179.565 33.0064 178.165C33.6224 176.765 35.4844 168.575 35.4844 168.575C35.4844 168.575 35.7924 173.986 37.1854 173.524C38.5784 173.062 37.8084 170.43 37.8084 168.106C37.8084 165.782 37.9624 165.012 37.8084 163.157C37.6544 161.302 35.5894 156.717 35.5894 156.717" fill="white"/>
<path d="M31.5714 155.8C31.5955 158.461 31.4552 161.122 31.1514 163.766C30.6894 167.021 30.8434 174.448 31.4594 176.765C32.0754 179.082 32.3904 179.565 33.0064 178.165C33.6224 176.765 35.4844 168.575 35.4844 168.575C35.4844 168.575 35.7924 173.986 37.1854 173.524C38.5784 173.062 37.8084 170.43 37.8084 168.106C37.8084 165.782 37.9624 165.012 37.8084 163.157C37.6544 161.302 35.5894 156.717 35.5894 156.717" stroke="#2855AF" stroke-miterlimit="10" stroke-linecap="round"/>
<path d="M121.158 76.6435C121.088 75.2747 121.088 73.9033 121.158 72.5345C121.284 71.2465 120.773 69.3215 120.899 67.6345C121.025 65.9475 122.698 65.3245 122.439 63.1405C122.18 60.9565 121.669 60.6975 122.054 60.1865C122.439 59.6755 124.854 60.4385 125.008 61.8525C125.145 63.3076 125.145 64.7724 125.008 66.2275C124.882 66.6125 125.778 69.0275 125.267 70.0775C124.974 70.6463 124.758 71.2511 124.623 71.8765" stroke="#2855AF" stroke-width="0.880843" stroke-miterlimit="10" stroke-linecap="round"/>
<path d="M125.523 61.7405C125.523 61.7405 128.477 55.8325 130.15 55.6995C131.823 55.5665 131.305 57.0995 130.787 57.8835C130.269 58.6675 128.603 61.4815 128.477 62.6435C128.351 63.8055 126.804 67.6485 126.804 67.6485" stroke="#2855AF" stroke-width="0.880843" stroke-miterlimit="10" stroke-linecap="round"/>
<path d="M128.503 62.6436C128.503 62.6436 133.004 65.3386 132.003 67.5436C131.002 69.7486 130.456 70.6306 129.686 70.3436C129.003 69.9947 128.393 69.5197 127.887 68.9436" stroke="#2855AF" stroke-width="0.880843" stroke-miterlimit="10" stroke-linecap="round"/>
<path d="M130.151 70.3506C130.151 70.3506 128.989 72.2756 128.093 73.4376C127.578 74.1087 126.967 74.7007 126.28 75.1946L125.734 77.0916" stroke="#2855AF" stroke-width="0.880843" stroke-miterlimit="10" stroke-linecap="round"/>
<path d="M76.1836 79.7102C76.1836 79.7102 86.8586 79.5562 88.2516 81.2572C89.6446 82.9582 106.515 98.4352 108.552 99.8282C110.589 101.221 111.03 101.529 111.03 101.529C111.03 101.529 119.381 82.6292 119.381 81.7192C119.381 80.8092 120.781 76.6162 120.781 76.6162C120.781 76.6162 123.413 76.9242 124.036 76.9242C124.659 76.9242 126.353 78.9402 126.353 78.9402C126.353 78.9402 124.036 88.3762 124.036 89.4402C124.036 90.5042 119.703 105.225 117.687 109.74C115.671 114.255 112.892 113.604 108.405 112.211C103.918 110.818 91.6956 103.86 91.6956 103.86" stroke="#2855AF" stroke-width="1.06068" stroke-miterlimit="10" stroke-linecap="round"/>
<path d="M58.2345 139.287C58.2345 139.287 52.0395 154.785 50.3665 165.334C48.6935 175.883 49.4075 200.551 48.9245 203.19C48.4415 205.829 41.7355 218.282 41.7355 224.274C41.7355 230.266 38.1445 261.171 38.1445 261.171L40.5385 262.606C40.5385 262.606 48.9385 236.706 52.0395 230.021C55.1405 223.336 59.4665 207.502 60.6635 204.387C61.8605 201.272 70.2535 176.352 70.7295 173.237C71.2055 170.122 74.0825 162.457 74.0825 162.457C74.0825 162.457 80.3125 200.551 81.5095 208.461C82.7065 216.371 91.0925 259.253 91.0925 259.253C91.6433 259.387 92.206 259.467 92.7725 259.491C93.4725 259.491 93.7315 258.294 93.7315 258.294C93.7315 258.294 97.0845 227.865 96.1255 219.717C95.1665 211.569 92.2965 201.517 92.2965 198.633C92.2965 195.749 96.6085 170.843 96.6085 162.233C96.6085 153.623 91.0085 138.678 91.0085 138.678C91.0085 138.678 71.1355 148.702 58.2345 139.287Z" fill="#2855AF"/>
<path d="M92.2063 200.215C92.2063 200.215 90.0713 209.357 87.1523 214.215" stroke="white" stroke-width="0.530341" stroke-miterlimit="10" stroke-linecap="round"/>
<path d="M91.625 209.553C91.625 209.553 89.875 216.161 86.375 219.276" stroke="white" stroke-width="0.530341" stroke-miterlimit="10" stroke-linecap="round"/>
<path d="M50.207 206.634C50.207 206.634 51.565 214.607 53.119 217.911" stroke="white" stroke-width="0.530341" stroke-miterlimit="10" stroke-linecap="round"/>
<path d="M49.8125 211.303C49.8125 211.303 50.9815 216.945 53.1165 220.249" stroke="white" stroke-width="0.530341" stroke-miterlimit="10" stroke-linecap="round"/>
<path d="M74.707 162.491L82.484 156.072" stroke="white" stroke-width="0.530341" stroke-miterlimit="10" stroke-linecap="round"/>
<path d="M78.4023 159.769L87.5444 155.681" stroke="white" stroke-width="0.530341" stroke-miterlimit="10" stroke-linecap="round"/>
<path d="M58.3672 148.877C58.3672 148.877 64.4012 152.762 67.9012 156.073" stroke="white" stroke-width="0.530341" stroke-miterlimit="10" stroke-linecap="round"/>
<path d="M38.3969 261.149C38.3969 261.149 29.2969 268.849 29.2969 272.671C29.2969 276.493 32.8879 276.262 36.7239 272.671C40.5599 269.08 40.7559 261.681 40.7559 261.681L38.3969 261.149Z" fill="white" stroke="#2855AF" stroke-width="1.06068" stroke-miterlimit="10" stroke-linecap="round"/>
<path d="M91.0938 259.253C91.0938 259.253 94.2088 266.918 97.5688 270.278C100.929 273.638 102.84 274.828 102.84 271.23C102.84 267.632 100.684 263.565 93.7397 258.294C93.7327 258.294 95.6508 259.729 91.0938 259.253Z" fill="white" stroke="#2855AF" stroke-width="1.06068" stroke-miterlimit="10" stroke-linecap="round"/>
<path d="M58.949 47.0899C58.326 46.8589 57.738 46.5789 57.129 46.3199C56.52 46.0609 55.407 45.9209 54.987 47.8319C54.364 50.6319 58.697 52.9419 57.304 55.2589C56.4373 56.6685 55.1349 57.7571 53.594 58.3599C53.3431 58.4461 53.0817 58.498 52.817 58.5139C51.578 58.6679 49.569 58.5139 50.185 60.6769C50.801 62.8399 52.817 64.7019 54.056 64.7019H55.295C55.295 64.7019 56.695 68.9019 61.945 71.1979C67.195 73.4939 70.765 73.3679 72.004 70.4279C73.243 67.4879 74.174 65.0099 74.174 61.1389C74.174 57.2679 72.774 50.7719 72.774 50.7719C72.774 50.7719 71.535 52.4799 66.74 50.3099C63.569 48.8749 60.601 47.7129 58.949 47.0899Z" fill="white"/>
<g style="mix-blend-mode:multiply" opacity="0.5">
<path d="M66.7478 50.3101C66.7478 50.3101 59.3488 49.8971 58.2428 50.0791C57.1368 50.2611 58.4248 53.5791 58.0608 56.8971C57.6968 60.2151 57.8718 65.5631 59.3488 67.2221C61.0917 68.9327 62.9386 70.5341 64.8788 72.0171C64.8788 72.0171 59.2018 71.1001 57.1368 68.6991C55.0718 66.2981 54.7428 65.0101 54.7428 65.0101C54.7428 65.0101 49.9478 62.2101 49.5768 60.0331C49.2058 57.8561 52.3768 59.0111 53.8958 57.9331C54.7498 57.3451 58.2848 56.2391 57.3958 53.2921C56.5068 50.3451 55.0718 49.7921 55.0158 47.8181C54.9738 46.4181 56.2058 46.0121 56.9618 45.8861C57.3026 45.8287 57.6529 45.8802 57.9628 46.0331L66.7478 50.3101Z" fill="#7CCCDB"/>
</g>
<path d="M58.949 47.0899C58.326 46.8589 57.738 46.5789 57.129 46.3199C56.52 46.0609 55.407 45.9209 54.987 47.8319C54.364 50.6319 58.697 52.9419 57.304 55.2589C56.4373 56.6685 55.1349 57.7571 53.594 58.3599C53.3431 58.4461 53.0817 58.498 52.817 58.5139C51.578 58.6679 49.569 58.5139 50.185 60.6769C50.801 62.8399 52.817 64.7019 54.056 64.7019H55.295C55.295 64.7019 56.695 68.9019 61.945 71.1979C67.195 73.4939 70.765 73.3679 72.004 70.4279C73.243 67.4879 74.174 65.0099 74.174 61.1389C74.174 57.2679 72.774 50.7719 72.774 50.7719C72.774 50.7719 71.535 52.4799 66.74 50.3099C63.569 48.8749 60.601 47.7129 58.949 47.0899Z" stroke="#2855AF" stroke-width="1.06068" stroke-miterlimit="10" stroke-linecap="round"/>
<path d="M64.4175 56.26C64.5155 56.848 64.3545 57.366 64.0535 57.415C63.7525 57.464 63.4445 57.023 63.3535 56.435C63.2625 55.847 63.4235 55.322 63.7175 55.273C64.0115 55.224 64.3195 55.7 64.4175 56.26Z" fill="#2855AF"/>
<path d="M70.8205 55.1888C70.9115 55.7768 70.7505 56.2948 70.4565 56.3438C70.1625 56.3928 69.8475 55.9518 69.7565 55.3638C69.6655 54.7758 69.8195 54.2578 70.1135 54.2088C70.4075 54.1598 70.7225 54.6008 70.8205 55.1888Z" fill="#2855AF"/>
<path d="M60.707 53.4036C61.0987 52.8214 61.63 52.3465 62.2524 52.0225C62.8748 51.6985 63.5685 51.5355 64.27 51.5486" stroke="#2855AF" stroke-width="1.06068" stroke-miterlimit="10" stroke-linecap="round"/>
<path d="M69.0625 52.011C69.6571 51.8031 70.3008 51.7809 70.9084 51.9471C71.5159 52.1134 72.0586 52.4603 72.4645 52.942" stroke="#2855AF" stroke-width="1.06068" stroke-miterlimit="10" stroke-linecap="round"/>
<path d="M68.4489 54.6426C68.3634 55.6207 68.3634 56.6044 68.4489 57.5826C68.6029 58.8216 69.5269 59.1296 69.2189 60.0606C68.9109 60.9916 67.6719 60.9846 67.6719 60.9846" stroke="#2855AF" stroke-width="1.06068" stroke-miterlimit="10" stroke-linecap="round"/>
<path d="M66.1252 64.7021C65.5951 64.8273 65.0441 64.8365 64.5101 64.729C63.9761 64.6214 63.4716 64.3998 63.0312 64.0791" stroke="#2855AF" stroke-width="1.06068" stroke-miterlimit="10" stroke-linecap="round"/>
</svg>
