<svg width="344" height="217" viewBox="0 0 344 217" fill="none" xmlns="http://www.w3.org/2000/svg">
<path d="M263.303 0.697266H16.7031V160.897H263.303V0.697266Z" fill="#7CCCDB"/>
<path opacity="0.4" d="M263.303 0.697266H16.7031V160.897H263.303V0.697266Z" fill="white"/>
<path d="M247.005 56.002H106.785V144.787H247.005V56.002Z" fill="white" stroke="#2855AF" stroke-miterlimit="10"/>
<path d="M150.715 45.6793L148.015 37.9033H104.059V151.249H249.733V45.6793H150.715ZM247.015 144.787H106.786V56.0023H247.006L247.015 144.787Z" fill="#7CCCDB" stroke="#2855AF" stroke-miterlimit="10"/>
<path d="M220.355 48.6221H150.695V52.8881H220.355V48.6221Z" fill="white" stroke="#2855AF" stroke-miterlimit="10"/>
<path d="M110.159 47.9385L108.152 49.8735L110.231 52.1055" stroke="#2855AF" stroke-linecap="round" stroke-linejoin="round"/>
<path d="M108.152 49.873H112.616" stroke="#2855AF" stroke-linecap="round" stroke-linejoin="round"/>
<path d="M121.541 47.9385L123.557 49.8735L121.469 52.1055" stroke="#2855AF" stroke-linecap="round" stroke-linejoin="round"/>
<path d="M123.562 49.873H119.098" stroke="#2855AF" stroke-linecap="round" stroke-linejoin="round"/>
<path d="M133.151 49.6124C133.025 49.1628 132.759 48.7652 132.391 48.4771C132.024 48.1891 131.574 48.0256 131.108 48.0104C130.832 47.9919 130.556 48.0303 130.296 48.123C130.036 48.2158 129.798 48.3609 129.596 48.5495C129.394 48.7381 129.234 48.9661 129.124 49.2194C129.014 49.4726 128.957 49.7458 128.957 50.0219C128.957 50.2979 129.014 50.5711 129.124 50.8243C129.234 51.0776 129.394 51.3056 129.596 51.4942C129.798 51.6828 130.036 51.828 130.296 51.9207C130.556 52.0134 130.832 52.0518 131.108 52.0333C131.571 52.0344 132.021 51.8719 132.377 51.5743" stroke="#2855AF" stroke-linecap="round" stroke-linejoin="round"/>
<path d="M131.805 49.8374H133.362V47.9834" stroke="#2855AF" stroke-linecap="round" stroke-linejoin="round"/>
<path d="M143.798 49.1807L141.944 47.6777L140.18 49.1807V52.4477H143.798V49.1807Z" stroke="#2855AF" stroke-linecap="round" stroke-linejoin="round"/>
<path d="M142.659 50.0625H141.246V52.3305H142.659V50.0625Z" fill="#2855AF"/>
<path d="M140.183 49.1807L139.121 50.1527" stroke="#2855AF" stroke-linecap="round" stroke-linejoin="round"/>
<path d="M143.801 49.1807L144.8 50.0627" stroke="#2855AF" stroke-linecap="round" stroke-linejoin="round"/>
<path d="M143.137 41.9268L145.963 44.8428" stroke="#2855AF" stroke-linecap="round" stroke-linejoin="round"/>
<path d="M146.006 41.9717L143.09 44.7977" stroke="#2855AF" stroke-linecap="round" stroke-linejoin="round"/>
<path d="M239.613 49.4053H245.202" stroke="#2855AF" stroke-linecap="round" stroke-linejoin="round"/>
<path d="M239.613 50.665H245.202" stroke="#2855AF" stroke-linecap="round" stroke-linejoin="round"/>
<path d="M239.613 51.916H245.202" stroke="#2855AF" stroke-linecap="round" stroke-linejoin="round"/>
<path d="M239.613 53.1768H245.202" stroke="#2855AF" stroke-linecap="round" stroke-linejoin="round"/>
<path d="M210.293 66.4785H217.331" stroke="#2855AF" stroke-linecap="round" stroke-linejoin="round"/>
<path d="M201.184 66.4785H207.358" stroke="#2855AF" stroke-linecap="round" stroke-linejoin="round"/>
<path d="M186.039 66.4785H198.9" stroke="#2855AF" stroke-linecap="round" stroke-linejoin="round"/>
<path d="M186.039 70.7803H217.332" stroke="#2855AF" stroke-linecap="round" stroke-linejoin="round"/>
<path d="M212.734 75.0732H217.333" stroke="#2855AF" stroke-linecap="round" stroke-linejoin="round"/>
<path d="M191.098 75.0732H209.8" stroke="#2855AF" stroke-linecap="round" stroke-linejoin="round"/>
<path d="M186.039 75.0732H188.496" stroke="#2855AF" stroke-linecap="round" stroke-linejoin="round"/>
<path d="M186.039 79.3662H217.332" stroke="#2855AF" stroke-linecap="round" stroke-linejoin="round"/>
<path d="M196.945 115.204H189.988V136.579H196.945V115.204Z" fill="#2855AF" stroke="#2855AF" stroke-linecap="round" stroke-linejoin="round"/>
<path d="M206.894 89.8516H199.938V136.589H206.894V89.8516Z" fill="#7CCCDB" stroke="#2855AF" stroke-miterlimit="10"/>
<path d="M216.836 103.774H209.879V136.588H216.836V103.774Z" fill="#2855AF" stroke="#2855AF" stroke-linecap="round" stroke-linejoin="round"/>
<path d="M226.773 89.8516H219.816V136.589H226.773V89.8516Z" fill="#7CCCDB" stroke="#2855AF" stroke-miterlimit="10"/>
<path d="M236.719 69.4658H229.762V136.588H236.719V69.4658Z" fill="#2855AF" stroke="#2855AF" stroke-linecap="round" stroke-linejoin="round"/>
<path d="M167.974 28.9932H27.7539V117.778H167.974V28.9932Z" fill="white" stroke="#2855AF" stroke-miterlimit="10"/>
<path d="M71.6743 18.6795L68.9743 10.8945H25.0273V124.241H170.692V18.6795H71.6743ZM167.974 117.779H27.7993V28.9935H168.019L167.974 117.779Z" fill="#7CCCDB" stroke="#2855AF" stroke-miterlimit="10"/>
<path d="M141.32 21.6133H71.6602V25.8793H141.32V21.6133Z" fill="white" stroke="#2855AF" stroke-miterlimit="10"/>
<path d="M31.1293 20.9297L29.1133 22.8737L31.2013 25.1057" stroke="#2855AF" stroke-linecap="round" stroke-linejoin="round"/>
<path d="M29.1133 22.873H33.5863" stroke="#2855AF" stroke-linecap="round" stroke-linejoin="round"/>
<path d="M42.5173 20.9297L44.5243 22.8737L42.4453 25.1057" stroke="#2855AF" stroke-linecap="round" stroke-linejoin="round"/>
<path d="M44.5277 22.873H40.0547" stroke="#2855AF" stroke-linecap="round" stroke-linejoin="round"/>
<path d="M54.1258 22.6127C54.0019 22.1654 53.739 21.769 53.3749 21.481C53.0109 21.193 52.5646 21.0283 52.1008 21.0107C51.5685 21.0107 51.058 21.2222 50.6816 21.5986C50.3052 21.975 50.0938 22.4855 50.0938 23.0177C50.0938 23.55 50.3052 24.0605 50.6816 24.4369C51.058 24.8133 51.5685 25.0247 52.1008 25.0247C52.5655 25.0245 53.0163 24.8657 53.3788 24.5747" stroke="#2855AF" stroke-linecap="round" stroke-linejoin="round"/>
<path d="M52.7656 22.8376H54.3316V20.9746" stroke="#2855AF" stroke-linecap="round" stroke-linejoin="round"/>
<path d="M64.7743 22.1717L62.9203 20.6777L61.1562 22.1717V25.4387H64.7743V22.1717Z" stroke="#2855AF" stroke-linecap="round" stroke-linejoin="round"/>
<path d="M63.62 23.0527H62.207V25.3207H63.62V23.0527Z" fill="#2855AF"/>
<path d="M61.1558 22.1709L60.0938 23.1429" stroke="#2855AF" stroke-linecap="round" stroke-linejoin="round"/>
<path d="M64.7734 22.1709L65.7724 23.0619" stroke="#2855AF" stroke-linecap="round" stroke-linejoin="round"/>
<path d="M64.1055 14.9268L66.9225 17.8338" stroke="#2855AF" stroke-linecap="round" stroke-linejoin="round"/>
<path d="M66.9656 14.9717L64.0586 17.7887" stroke="#2855AF" stroke-linecap="round" stroke-linejoin="round"/>
<path d="M160.586 22.3965H166.175" stroke="#2855AF" stroke-linecap="round" stroke-linejoin="round"/>
<path d="M160.586 23.6562H166.175" stroke="#2855AF" stroke-linecap="round" stroke-linejoin="round"/>
<path d="M160.586 24.916H166.175" stroke="#2855AF" stroke-linecap="round" stroke-linejoin="round"/>
<path d="M160.586 26.1768H166.175" stroke="#2855AF" stroke-linecap="round" stroke-linejoin="round"/>
<path d="M34.9648 109.21V78.5469L44.7208 99.2019L53.0098 95.5839L62.3878 102.991L78.3628 92.6049L88.1189 106.231L94.9498 102.829L100.8 106.231L108.117 105.376L117.864 107.725L128.106 106.87L134.622 109.21H34.9648Z" fill="#2855AF"/>
<path d="M137.656 56.002H148.285" stroke="#2855AF" stroke-linecap="round" stroke-linejoin="round"/>
<path d="M123.895 56.002H133.228" stroke="#2855AF" stroke-linecap="round" stroke-linejoin="round"/>
<path d="M101.016 56.002H120.456" stroke="#2855AF" stroke-linecap="round" stroke-linejoin="round"/>
<path d="M101.016 60.2949H148.284" stroke="#2855AF" stroke-linecap="round" stroke-linejoin="round"/>
<path d="M141.332 64.5977H148.28" stroke="#2855AF" stroke-linecap="round" stroke-linejoin="round"/>
<path d="M108.656 64.5977H136.916" stroke="#2855AF" stroke-linecap="round" stroke-linejoin="round"/>
<path d="M101.016 64.5977H104.724" stroke="#2855AF" stroke-linecap="round" stroke-linejoin="round"/>
<path d="M101.016 68.8906H148.284" stroke="#2855AF" stroke-linecap="round" stroke-linejoin="round"/>
<path d="M148.285 75.8027H137.656" stroke="#2855AF" stroke-linecap="round" stroke-linejoin="round"/>
<path d="M123.895 75.8027H133.228" stroke="#2855AF" stroke-linecap="round" stroke-linejoin="round"/>
<path d="M101.016 75.8027H120.456" stroke="#2855AF" stroke-linecap="round" stroke-linejoin="round"/>
<path d="M101.016 80.0957H148.284" stroke="#2855AF" stroke-linecap="round" stroke-linejoin="round"/>
<path d="M148.28 84.3975H141.332" stroke="#2855AF" stroke-linecap="round" stroke-linejoin="round"/>
<path d="M108.656 84.3975H136.916" stroke="#2855AF" stroke-linecap="round" stroke-linejoin="round"/>
<path d="M101.016 84.3975H104.724" stroke="#2855AF" stroke-linecap="round" stroke-linejoin="round"/>
<path d="M101.016 88.6904H148.284" stroke="#2855AF" stroke-linecap="round" stroke-linejoin="round"/>
<path d="M47.0865 63.0767L41.4975 75.6767C38.1677 74.1944 35.5632 71.45 34.2568 68.0474C32.9505 64.6447 33.0493 60.8625 34.5315 57.5327C35.5984 55.0867 37.3626 53.0095 39.6037 51.5608C41.8448 50.1121 44.4632 49.3562 47.1315 49.3877L47.0865 63.0767Z" fill="#7CCCDB"/>
<g opacity="0.47">
<path opacity="0.47" d="M47.0865 63.0767L41.4975 75.6767C38.1677 74.1944 35.5632 71.45 34.2568 68.0474C32.9505 64.6447 33.0493 60.8625 34.5315 57.5327C35.5984 55.0867 37.3626 53.0095 39.6037 51.5608C41.8448 50.1121 44.4632 49.3562 47.1315 49.3877L47.0865 63.0767Z" fill="white"/>
</g>
<path d="M47.0851 63.0762L53.5381 75.2172C51.7035 76.2242 49.658 76.7863 47.5664 76.8582C45.4748 76.9301 43.3955 76.5098 41.4961 75.6311L47.0851 63.0762Z" fill="#2855AF"/>
<path d="M47.0859 63.0764L57.7689 54.4004C58.9083 55.8057 59.7588 57.4222 60.2715 59.1571C60.7843 60.892 60.9493 62.7112 60.7569 64.51C60.5646 66.3089 60.0187 68.0521 59.1507 69.6393C58.2827 71.2266 57.1096 72.6268 55.6989 73.7594C55.0171 74.317 54.2815 74.8054 53.5029 75.2174L47.0859 63.0764Z" fill="#7CCCDB"/>
<path d="M47.0859 63.076V49.342C49.1382 49.2907 51.1738 49.7216 53.0292 50.6C54.8846 51.4785 56.508 52.78 57.7689 54.4L47.0859 63.076Z" fill="#2855AF"/>
<path d="M47.0884 70.582C51.2189 70.582 54.5674 67.2336 54.5674 63.103C54.5674 58.9725 51.2189 55.624 47.0884 55.624C42.9578 55.624 39.6094 58.9725 39.6094 63.103C39.6094 67.2336 42.9578 70.582 47.0884 70.582Z" fill="white"/>
<path d="M84.3276 63.0763L78.7387 75.6763C77.0891 74.9432 75.6003 73.8922 74.3573 72.5834C73.1143 71.2745 72.1415 69.7334 71.4945 68.0483C70.8475 66.3632 70.5391 64.567 70.5868 62.7626C70.6346 60.9582 71.0375 59.1808 71.7727 57.5323C72.8356 55.0927 74.5927 53.0197 76.8251 51.5714C79.0575 50.1231 81.6667 49.3635 84.3276 49.3873V63.0763Z" fill="#7CCCDB"/>
<g opacity="0.47">
<path opacity="0.47" d="M84.3276 63.0763L78.7387 75.6763C77.0891 74.9432 75.6003 73.8922 74.3573 72.5834C73.1143 71.2745 72.1415 69.7334 71.4945 68.0483C70.8475 66.3632 70.5391 64.567 70.5868 62.7626C70.6346 60.9582 71.0375 59.1808 71.7727 57.5323C72.8356 55.0927 74.5927 53.0197 76.8251 51.5714C79.0575 50.1231 81.6667 49.3635 84.3276 49.3873V63.0763Z" fill="white"/>
</g>
<path d="M84.3288 63.0762L90.7998 75.2172C88.9652 76.2242 86.9197 76.7863 84.8281 76.8582C82.7365 76.9301 80.6573 76.5098 78.7578 75.6311L84.3288 63.0762Z" fill="#2855AF"/>
<path d="M84.3281 63.0765L95.0021 54.4365C96.2768 56.0108 97.1879 57.8471 97.6705 59.8144C98.153 61.7817 98.195 63.8312 97.7935 65.8166C97.3919 67.802 96.5567 69.6742 95.3476 71.2993C94.1385 72.9244 92.5853 74.2624 90.7991 75.2175L84.3281 63.0765Z" fill="#7CCCDB"/>
<path d="M84.3281 63.076V49.342C86.3791 49.2907 88.4134 49.7216 90.2673 50.6001C92.1213 51.4786 93.7431 52.7802 95.0021 54.4L84.3281 63.076Z" fill="#2855AF"/>
<path d="M84.3267 70.582C88.4572 70.582 91.8057 67.2336 91.8057 63.103C91.8057 58.9725 88.4572 55.624 84.3267 55.624C80.1961 55.624 76.8477 58.9725 76.8477 63.103C76.8477 67.2336 80.1961 70.582 84.3267 70.582Z" fill="white"/>
<path d="M34.4766 38.6777H122.767" stroke="#2855AF" stroke-linecap="round" stroke-linejoin="round"/>
<path d="M34.4766 42.9795H139.174" stroke="#2855AF" stroke-linecap="round" stroke-linejoin="round"/>
<path d="M232.01 127.301C232.01 127.301 227.645 132.359 228.104 133.277C228.563 134.195 232.244 136.49 232.469 135.077C232.9 132.873 233.2 130.646 233.369 128.408C233.396 126.824 233.621 126.401 232.01 127.301Z" fill="white" stroke="#2855AF" stroke-linecap="round" stroke-linejoin="round"/>
<path d="M234.316 116.5C234.316 116.5 231.328 122.935 231.094 124.321C230.86 125.707 232.246 127.534 232.246 128.227C232.246 128.92 230.446 130.981 230.446 134.203C230.446 137.425 230.212 144.778 232.975 146.614C235.738 148.45 240.328 146.389 240.328 146.389L244.693 154.894L262.162 144.778L259.633 140.872C259.633 140.872 263.314 130.972 260.533 123.403C257.752 115.834 247.933 114.664 243.982 114.403C240.031 114.142 235.702 113.719 234.316 116.5Z" fill="white"/>
<path d="M259.596 140.846C259.596 140.846 263.277 130.946 260.496 123.377C257.715 115.808 247.896 114.638 243.945 114.377C243.306 114.377 242.649 114.296 241.992 114.269L236.898 118.301C236.898 118.301 232.704 124.304 234.504 126.698C236.304 129.092 237.501 131.504 236.898 135.401C236.295 139.298 232.317 146.039 236.304 146.201C237.123 146.201 238.419 146.345 239.958 146.498L240.291 146.363L240.381 146.543C246.267 147.137 255.204 148.297 255.204 148.297L256.104 148.253L262.143 144.752L259.596 140.846Z" fill="#7CCCDB"/>
<path opacity="0.5" d="M259.596 140.846C259.596 140.846 263.277 130.946 260.496 123.377C257.715 115.808 247.896 114.638 243.945 114.377C243.306 114.377 242.649 114.296 241.992 114.269L236.898 118.301C236.898 118.301 232.704 124.304 234.504 126.698C236.304 129.092 237.501 131.504 236.898 135.401C236.295 139.298 232.317 146.039 236.304 146.201C237.123 146.201 238.419 146.345 239.958 146.498L240.291 146.363L240.381 146.543C246.267 147.137 255.204 148.297 255.204 148.297L256.104 148.253L262.143 144.752L259.596 140.846Z" fill="white"/>
<path d="M234.316 116.5C234.316 116.5 231.328 122.935 231.094 124.321C230.86 125.707 232.246 127.534 232.246 128.227C232.246 128.92 230.446 130.981 230.446 134.203C230.446 137.425 230.212 144.778 232.975 146.614C235.738 148.45 240.328 146.389 240.328 146.389L244.693 154.894L262.162 144.778L259.633 140.872C259.633 140.872 263.314 130.972 260.533 123.403C257.752 115.834 247.933 114.664 243.982 114.403C240.031 114.142 235.702 113.719 234.316 116.5Z" stroke="#2855AF" stroke-linecap="round" stroke-linejoin="round"/>
<path d="M258.2 109.354C258.2 109.354 249.695 106.825 242.342 107.05C234.989 107.275 227.627 109.354 227.861 113.26C228.095 117.166 234.98 118.543 234.98 118.543C234.98 118.543 238.895 118.777 237.743 119.92C236.591 121.063 233.603 123.376 235.943 126.13C238.283 128.884 240.533 131.188 239.849 132.106C239.165 133.024 240.074 135.094 240.992 134.41C241.91 133.726 240.533 130.954 243.062 130.036C245.591 129.118 248.12 133.024 247.202 135.553C246.284 138.082 244.673 137.857 245.591 139.693C246.509 141.529 252.26 144.517 256.166 144.517C260.072 144.517 261.224 139.459 265.364 131.413C269.504 123.367 266.723 111.649 258.2 109.354Z" fill="#2855AF" stroke="#2855AF" stroke-linecap="round" stroke-linejoin="round"/>
<path d="M236.387 156.938L238.682 161.303L263.972 144.752L261.443 141.764C261.443 141.764 240.293 153.482 236.387 156.938Z" fill="white" stroke="#2855AF" stroke-linecap="round" stroke-linejoin="round"/>
<path d="M241.209 157.621C241.209 157.621 236.151 164.515 234.315 167.962C232.479 171.409 224.658 191.641 221.211 198.769C219.198 202.865 217.6 207.152 216.441 211.567H264.654C264.654 211.567 270.171 184.054 270.171 172.102C270.171 160.15 267.417 151.186 266.49 148.891C265.563 146.596 262.125 144.751 262.125 144.751L241.209 157.621Z" fill="white"/>
<path d="M241.209 157.622C241.209 157.622 236.151 164.516 234.315 167.963C232.479 171.41 224.658 191.642 221.211 198.77C219.198 202.866 217.6 207.153 216.441 211.568H264.654C264.654 211.568 270.171 184.055 270.171 172.103C270.171 160.151 267.417 151.187 266.49 148.892C265.563 146.597 262.125 144.752 262.125 144.752L241.209 157.622Z" fill="#7CCCDB" stroke="#2855AF" stroke-linecap="round" stroke-linejoin="round"/>
<path d="M227.99 183.479C227.99 183.479 238.79 166.568 242.858 162.194C246.926 157.82 267.104 147.47 267.104 147.47L263.918 144.014C263.918 144.014 243.155 154.319 239.942 157.514C236.729 160.709 227.414 179.681 227.99 183.479Z" fill="#7CCCDB" stroke="#2855AF" stroke-linecap="round" stroke-linejoin="round"/>
<path d="M241.209 157.621C241.209 157.621 236.151 164.515 234.315 167.962C232.479 171.409 224.658 191.641 221.211 198.769C219.198 202.865 217.6 207.152 216.441 211.567H264.654C264.654 211.567 270.171 184.054 270.171 172.102C270.171 160.15 267.417 151.186 266.49 148.891C265.563 146.596 262.125 144.751 262.125 144.751L241.209 157.621Z" stroke="#2855AF" stroke-linecap="round" stroke-linejoin="round"/>
<path d="M254.539 157.621C254.539 157.621 241.939 165.901 240.058 169.114C238.177 172.327 239.833 177.394 239.833 178.114C239.833 178.834 238.033 181.102 238.033 181.795V184.09L228.133 210.757H250.633C250.633 210.757 260.29 187.312 262.126 182.713C263.962 178.114 264.889 169.843 263.971 165.244" stroke="#2855AF" stroke-linecap="round" stroke-linejoin="round"/>
<path d="M241.902 177.394C241.902 177.394 247.419 170.95 255.69 170.032" stroke="#2855AF" stroke-linecap="round" stroke-linejoin="round"/>
<path d="M295.458 130.278C295.458 130.278 279.582 127.101 275.136 130.908C270.69 134.715 273.228 157.908 271.959 163.938C270.69 169.968 267.513 176.322 268.782 182.667C270.051 189.012 272.913 193.467 274.182 196.644C275.451 199.821 273.858 211.566 273.858 211.566H320.226C320.226 211.566 328.479 189.66 328.479 173.145C328.479 156.63 323.394 142.347 315.78 136.947C308.166 131.547 295.458 130.278 295.458 130.278Z" fill="#7CCCDB"/>
<path opacity="0.26" d="M278.458 140.197C273.958 147.703 279.061 188.797 280.258 192.703C281.455 196.609 272.761 193 275.461 195.097C278.161 197.194 283.255 200.803 283.255 200.803C280.36 199.553 277.405 198.451 274.399 197.5C274.557 198.439 274.638 199.391 274.642 200.344C277.656 202.699 280.825 204.849 284.128 206.779L274.273 207.607C274.066 209.866 273.832 211.549 273.832 211.549H320.2C320.2 211.549 328.453 189.643 328.453 173.128C328.504 166.25 327.543 159.403 325.6 152.806L297.934 141.106C297.934 141.106 282.958 132.7 278.458 140.197Z" fill="#2855AF"/>
<path d="M295.458 130.278C295.458 130.278 279.582 127.101 275.136 130.908C270.69 134.715 273.228 157.908 271.959 163.938C270.69 169.968 267.513 176.322 268.782 182.667C270.051 189.012 272.913 193.467 274.182 196.644C275.451 199.821 273.858 211.566 273.858 211.566H320.226C320.226 211.566 328.479 189.66 328.479 173.145C328.479 156.63 323.394 142.347 315.78 136.947C308.166 131.547 295.458 130.278 295.458 130.278Z" stroke="#2855AF" stroke-linecap="round" stroke-linejoin="round"/>
<path d="M295.096 73.1196C295.096 73.1196 288.112 67.4046 281.443 71.5356C274.774 75.6666 263.344 94.7106 264.613 104.242C265.882 113.773 277.321 122.656 269.698 127.741C262.075 132.826 264.937 142.024 268.744 144.571L270.967 144.886C270.967 144.886 270.967 135.679 277.321 133.132C283.675 130.585 292.873 132.817 295.096 135.679C297.319 138.541 293.197 153.139 298.588 156.955C303.979 160.771 311.611 161.401 310.027 165.208C308.443 169.015 303.034 175.054 306.526 180.454C310.018 185.854 318.595 191.254 321.457 189.337C324.319 187.42 320.188 185.215 321.772 183.937C323.356 182.659 336.379 178.222 334.156 172.822C331.933 167.422 327.172 164.56 329.395 162.337C331.618 160.114 339.871 154.723 338.917 147.1C337.963 139.477 319.864 133.762 319.234 125.5C318.604 117.238 330.034 116.293 326.218 97.5996C322.402 78.9066 310.693 70.5996 304.996 70.5996C301.536 70.5908 298.131 71.4577 295.096 73.1196V73.1196Z" fill="#2855AF" stroke="#2855AF" stroke-linecap="round" stroke-linejoin="round"/>
<path d="M301.273 83.083C306.061 89.725 312.073 99.508 312.28 106.906C312.577 119.227 301.759 124.339 303.559 133.951C305.359 143.563 326.374 145.219 327.904 153.751C329.435 162.283 319.804 159.151 322.189 163.966C324.574 168.781 333.89 172.966 330.01 178.366" stroke="white" stroke-linecap="round" stroke-linejoin="round"/>
<path d="M295.449 75.6572C295.449 75.6572 296.457 76.8092 297.978 78.7352" stroke="white" stroke-linecap="round" stroke-linejoin="round"/>
<path d="M290.688 124.365C291.785 125.517 292.442 126.588 292.442 127.641" stroke="white" stroke-linecap="round" stroke-linejoin="round"/>
<path d="M272.308 87.6992C272.308 87.6992 267.502 100.92 274.711 109.938C278.554 114.744 283.333 118.263 286.96 121.143" stroke="white" stroke-linecap="round" stroke-linejoin="round"/>
<path d="M315.59 142.482C316.985 142.986 318.506 143.382 320.09 143.868" stroke="white" stroke-linecap="round" stroke-linejoin="round"/>
<path d="M317.382 85C317.382 85 327.597 97.924 323.997 109.039C320.397 120.154 308.373 126.139 308.373 133.339C308.249 135.538 308.981 137.699 310.416 139.369" stroke="white" stroke-linecap="round" stroke-linejoin="round"/>
<path d="M195.972 200.983C195.972 200.983 194.064 203.332 194.064 204.799C194.064 206.266 193.335 209.191 194.217 209.344C195.099 209.497 195.675 206.257 196.557 205.087C197.439 203.917 199.635 203.62 199.491 202.009C199.347 200.398 197.295 198.931 195.972 200.983Z" fill="white" stroke="#2855AF" stroke-linecap="round" stroke-linejoin="round"/>
<path d="M217.094 203.034C217.094 203.034 208.877 196.14 206.825 195.411C204.773 194.682 200.66 199.371 198.167 203.916C195.674 208.461 196.997 209.487 198.32 209.631C199.643 209.775 205.358 207.291 205.358 207.291C207.383 208.902 209.736 210.05 212.252 210.657C216.212 211.557 221.927 209.19 222.08 206.85C222.233 204.51 217.094 203.034 217.094 203.034Z" fill="white" stroke="#2855AF" stroke-linecap="round" stroke-linejoin="round"/>
<path d="M293.55 155.974C293.55 155.974 293.865 203.944 292.596 207.76C291.327 211.576 286.881 211.567 279.582 211.882C272.283 212.197 227.823 210.937 227.823 210.937C225.298 211.309 222.752 211.519 220.2 211.567C216.708 211.567 210.669 210.937 208.446 209.344C206.223 207.751 204.324 207.436 203.37 207.76C202.416 208.084 199.878 211.252 197.655 211.252C195.432 211.252 192.885 210.298 194.478 209.983C196.071 209.668 204.639 200.452 206.547 200.452C208.455 200.452 222.099 203.944 224.646 203.629C227.193 203.314 272.598 194.422 272.598 194.422L271.014 144.922C271.014 144.922 269.421 136.345 277.368 133.168" fill="#7CCCDB"/>
<path opacity="0.26" d="M280.898 137.929C279.885 138.437 279.039 139.224 278.459 140.197C273.959 147.703 279.062 188.797 280.259 192.703C281.456 196.609 272.762 193 275.462 195.097C278.162 197.194 283.256 200.803 283.256 200.803C283.256 200.803 268.559 194.503 272.456 198.4C276.353 202.297 284.156 206.797 284.156 206.797L232.855 211.072C244.717 211.396 273.77 212.134 279.557 211.882C286.856 211.567 291.302 211.567 292.571 207.76C293.84 203.953 293.525 155.047 293.525 155.047L280.898 137.929Z" fill="#2855AF"/>
<path d="M293.55 155.974C293.55 155.974 293.865 203.944 292.596 207.76C291.327 211.576 286.881 211.567 279.582 211.882C272.283 212.197 227.823 210.937 227.823 210.937C225.298 211.309 222.752 211.519 220.2 211.567C216.708 211.567 210.669 210.937 208.446 209.344C206.223 207.751 204.324 207.436 203.37 207.76C202.416 208.084 199.878 211.252 197.655 211.252C195.432 211.252 192.885 210.298 194.478 209.983C196.071 209.668 204.639 200.452 206.547 200.452C208.455 200.452 222.099 203.944 224.646 203.629C227.193 203.314 272.598 194.422 272.598 194.422L271.014 144.922C271.014 144.922 269.421 136.345 277.368 133.168" stroke="#2855AF" stroke-linecap="round" stroke-linejoin="round"/>
<path d="M241.043 211.288C240.064 207.698 240.282 203.888 241.664 200.434C232.988 202.108 225.626 203.503 224.645 203.629C222.098 203.944 208.445 200.452 206.546 200.452C204.647 200.452 196.097 209.659 194.477 209.983C192.857 210.307 195.431 211.252 197.654 211.252C199.877 211.252 202.415 208.075 203.369 207.76C204.323 207.445 206.222 207.76 208.445 209.344C210.668 210.928 216.707 211.567 220.199 211.567C222.751 211.519 225.297 211.309 227.822 210.937L241.043 211.288Z" fill="white" stroke="#2855AF" stroke-linecap="round" stroke-linejoin="round"/>
<path d="M199.344 197.607C197.954 198.431 196.793 199.592 195.969 200.982C195.069 202.89 195.969 208.749 197.436 208.749C198.903 208.749 199.929 207.138 199.929 205.086C199.929 203.034 199.344 197.607 199.344 197.607Z" fill="white" stroke="#2855AF" stroke-linecap="round" stroke-linejoin="round"/>
<path d="M201.396 196.438C201.396 196.438 199.047 196.581 198.165 198.345C197.283 200.109 197.436 207.579 198.903 207.876C200.37 208.173 200.955 205.671 200.955 204.06C200.955 202.449 201.396 196.438 201.396 196.438Z" fill="white" stroke="#2855AF" stroke-linecap="round" stroke-linejoin="round"/>
<path d="M206.826 195.412C206.826 195.412 203.307 194.818 201.84 195.853C200.373 196.888 200.04 205.969 201.102 206.698C202.164 207.427 203.892 205.528 203.892 204.502C203.892 203.476 205.944 197.905 205.944 197.905" fill="white"/>
<path d="M206.826 195.412C206.826 195.412 203.307 194.818 201.84 195.853C200.373 196.888 200.04 205.969 201.102 206.698C202.164 207.427 203.892 205.528 203.892 204.502C203.892 203.476 205.944 197.905 205.944 197.905" stroke="#2855AF" stroke-linecap="round" stroke-linejoin="round"/>
<path d="M118.699 165.396C118.699 165.396 114.487 171.786 116.26 174.891C118.033 177.996 124.468 184.422 137.761 183.531C151.054 182.64 143.08 160.266 144.628 146.523C146.176 132.78 140.425 130.791 135.763 134.337C131.101 137.883 125.35 154.947 123.163 157.827C121.461 160.218 119.968 162.75 118.699 165.396V165.396Z" fill="#7CCCDB"/>
<path opacity="0.42" d="M118.699 165.396C118.699 165.396 114.487 171.786 116.26 174.891C118.033 177.996 124.468 184.422 137.761 183.531C151.054 182.64 143.08 160.266 144.628 146.523C146.176 132.78 140.425 130.791 135.763 134.337C131.101 137.883 125.35 154.947 123.163 157.827C121.461 160.218 119.968 162.75 118.699 165.396V165.396Z" fill="#2855AF" stroke="#2855AF" stroke-linecap="round" stroke-linejoin="round"/>
<path d="M118.699 165.396C118.699 165.396 114.487 171.786 116.26 174.891C118.033 177.996 124.468 184.422 137.761 183.531C151.054 182.64 143.08 160.266 144.628 146.523C146.176 132.78 140.425 130.791 135.763 134.337C131.101 137.883 125.35 154.947 123.163 157.827C121.461 160.218 119.968 162.75 118.699 165.396V165.396Z" stroke="#2855AF" stroke-linecap="round" stroke-linejoin="round"/>
<path d="M134.898 169.132C134.898 169.132 134.898 188.851 135.123 195.061C135.348 201.271 136.23 216.337 136.23 216.337H177.891L175.677 171.337L175.011 169.123L134.898 169.132Z" fill="#2855AF" stroke="#2855AF" stroke-linecap="round" stroke-linejoin="round"/>
<path d="M159.116 174.352L175.838 175.027L175.658 171.346L174.992 169.132H158.855L159.116 174.352Z" fill="white" stroke="#2855AF" stroke-linecap="round" stroke-linejoin="round"/>
<path d="M139.308 169.132H134.898C134.898 169.132 134.898 170.833 134.898 173.389L139.317 173.56L139.308 169.132Z" fill="white" stroke="#2855AF" stroke-linecap="round" stroke-linejoin="round"/>
<path d="M140.723 169.132L140.975 173.632L156.113 174.235L155.96 169.132H140.723Z" fill="white" stroke="#2855AF" stroke-linecap="round" stroke-linejoin="round"/>
<path d="M135.107 134.995C135.107 134.995 134.882 160.483 135.107 164.479C135.332 168.475 133.307 169.798 136.655 170.464C140.003 171.13 167.021 171.787 169.676 171.364C172.331 170.941 172.376 169.564 173.006 168.259C173.636 166.954 182.528 109.975 180.539 108.418C178.55 106.861 165.914 102.217 164.798 102.217C163.682 102.217 147.293 103.117 144.188 103.549C141.083 103.981 137.537 103.099 137.321 104.872C137.105 106.645 135.107 134.995 135.107 134.995Z" fill="white"/>
<path d="M148.687 110.659C148.687 110.659 143.494 110.407 142.504 110.902C141.946 111.181 138.544 119.533 135.691 126.733C135.358 131.422 135.106 134.995 135.106 134.995C135.106 134.995 134.881 160.483 135.106 164.479C135.25 167.098 134.449 168.565 134.809 169.456C135.934 165.55 137.725 158.809 139.786 149.224C143.251 133.15 148.687 110.659 148.687 110.659Z" fill="#7CCCDB"/>
<path d="M135.107 134.995C135.107 134.995 134.882 160.483 135.107 164.479C135.332 168.475 133.307 169.798 136.655 170.464C140.003 171.13 167.021 171.787 169.676 171.364C172.331 170.941 172.376 169.564 173.006 168.259C173.636 166.954 182.528 109.975 180.539 108.418C178.55 106.861 165.914 102.217 164.798 102.217C163.682 102.217 147.293 103.117 144.188 103.549C141.083 103.981 137.537 103.099 137.321 104.872C137.105 106.645 135.107 134.995 135.107 134.995Z" stroke="#2855AF" stroke-linecap="round" stroke-linejoin="round"/>
<path d="M88.9978 121C88.9978 121 81.0238 117.013 78.1438 116.347C75.2638 115.681 65.9488 113.467 65.2828 114.349C64.6168 115.231 65.5078 116.149 66.3988 116.149C67.2898 116.149 73.0408 118.588 73.0408 118.588C73.0408 118.588 72.3838 123.907 72.3838 125.239C72.3838 126.571 79.4758 129.226 81.0238 129.451C82.5718 129.676 85.6948 128.488 85.6948 128.488L87.8909 127.894L88.9978 121Z" fill="white" stroke="#2855AF" stroke-linecap="round" stroke-linejoin="round"/>
<path d="M72.3823 119.488C72.3823 119.488 71.4823 125.473 72.1573 126.13C72.8323 126.787 77.4763 129.901 78.1423 128.353C78.8083 126.805 78.5833 120.811 78.5833 120.154C78.5833 119.497 72.3823 119.488 72.3823 119.488Z" fill="white" stroke="#2855AF" stroke-linecap="round" stroke-linejoin="round"/>
<path d="M86.3414 121.261C86.3414 121.261 78.8084 118.381 77.0354 118.381C75.2624 118.381 72.3824 120.811 70.8254 121.261C69.2684 121.711 71.2664 123.061 72.3824 122.809C73.4984 122.557 76.5854 121.702 76.5854 121.702C77.2747 123.02 78.2643 124.158 79.4744 125.023C81.2744 126.13 85.0094 125.473 85.0094 125.473" fill="white"/>
<path d="M86.3414 121.261C86.3414 121.261 78.8084 118.381 77.0354 118.381C75.2624 118.381 72.3824 120.811 70.8254 121.261C69.2684 121.711 71.2664 123.061 72.3824 122.809C73.4984 122.557 76.5854 121.702 76.5854 121.702C77.2747 123.02 78.2643 124.158 79.4744 125.023C81.2744 126.13 85.0094 125.473 85.0094 125.473" stroke="#2855AF" stroke-linecap="round" stroke-linejoin="round"/>
<path d="M153.888 102.046C153.888 102.046 140.595 100.903 137.895 101.497C135.195 102.091 128.895 117.4 127.995 119.497C127.095 121.594 117.195 131.197 117.195 131.197L88.7013 120.1L85.6953 128.497C85.6953 128.497 108.798 143.5 112.695 145.3C116.592 147.1 122.001 146.803 123.801 146.803C125.123 146.669 126.376 146.146 127.401 145.3L118.698 165.397C118.698 165.397 132.801 148.603 136.995 140.503C141.189 132.403 150.801 108.697 151.701 108.103C152.601 107.509 153.888 102.046 153.888 102.046Z" fill="#7CCCDB"/>
<path opacity="0.26" d="M123.117 136.867C122.397 136.867 121.434 136.39 120.471 136.39C119.508 136.39 121.677 139.99 121.191 141.214C120.705 142.438 86.2349 127.714 86.2349 127.714L86.1719 128.803C89.4299 130.918 109.122 143.653 112.695 145.3C116.601 147.1 122.001 146.803 123.801 146.803C124.98 146.708 126.108 146.277 127.05 145.561C129.678 138.856 131.55 127.714 131.55 127.714C131.55 127.714 123.846 136.867 123.117 136.867Z" fill="#2855AF"/>
<path d="M153.888 102.046C153.888 102.046 140.595 100.903 137.895 101.497C135.195 102.091 128.895 117.4 127.995 119.497C127.095 121.594 117.195 131.197 117.195 131.197L88.7013 120.1L85.6953 128.497C85.6953 128.497 108.798 143.5 112.695 145.3C116.592 147.1 122.001 146.803 123.801 146.803C125.123 146.669 126.376 146.146 127.401 145.3L118.698 165.397C118.698 165.397 132.801 148.603 136.995 140.503C141.189 132.403 150.801 108.697 151.701 108.103C152.601 107.509 153.888 102.046 153.888 102.046Z" stroke="#2855AF" stroke-linecap="round" stroke-linejoin="round"/>
<path d="M153.889 102.046L150.199 105.547L150.388 112.549L154.276 108.85L153.889 102.046Z" fill="white" stroke="#2855AF" stroke-linecap="round" stroke-linejoin="round"/>
<path d="M146.885 67.8998C146.885 67.8998 142.907 74.0198 143.159 75.2978C143.411 76.5758 144.059 77.8808 144.059 78.8978C144.059 79.9148 139.559 83.4968 140.081 84.2978C140.603 85.0988 143.15 86.3408 143.15 86.3408C143.15 86.3408 143.042 96.3218 145.337 97.5998C147.632 98.8778 151.997 96.8258 151.997 96.8258L154.292 109.624L167.342 100.408V91.2008C167.342 91.2008 175.019 82.5068 175.532 75.5948C176.045 68.6828 166.532 61.0148 157.109 59.7368C147.686 58.4588 142.529 64.8488 144.059 66.9368C145.589 69.0248 146.885 67.8998 146.885 67.8998Z" fill="white"/>
<path d="M162.483 103.845L167.352 100.407V91.2004C167.352 91.2004 175.029 82.5064 175.542 75.5944C175.875 71.0944 171.942 66.2434 166.542 63.0664L152.97 68.6914C152.97 68.6914 146.598 74.2894 147.435 75.0454C148.272 75.8014 150.72 78.9334 150.135 80.3734C150.135 80.3734 147.858 81.2734 148.092 82.8304C148.326 84.3874 153.627 94.5304 153.627 94.5304L151.998 96.8254L162.483 103.845Z" fill="#7CCCDB"/>
<path opacity="0.5" d="M162.483 103.845L167.352 100.407V91.2004C167.352 91.2004 175.029 82.5064 175.542 75.5944C175.875 71.0944 171.942 66.2434 166.542 63.0664L152.97 68.6914C152.97 68.6914 146.598 74.2894 147.435 75.0454C148.272 75.8014 150.72 78.9334 150.135 80.3734C150.135 80.3734 147.858 81.2734 148.092 82.8304C148.326 84.3874 153.627 94.5304 153.627 94.5304L151.998 96.8254L162.483 103.845Z" fill="white"/>
<path d="M146.885 67.8998C146.885 67.8998 142.907 74.0198 143.159 75.2978C143.411 76.5758 144.059 77.8808 144.059 78.8978C144.059 79.9148 139.559 83.4968 140.081 84.2978C140.603 85.0988 143.15 86.3408 143.15 86.3408C143.15 86.3408 143.042 96.3218 145.337 97.5998C147.632 98.8778 151.997 96.8258 151.997 96.8258L154.292 109.624L167.342 100.408V91.2008C167.342 91.2008 175.019 82.5068 175.532 75.5948C176.045 68.6828 166.532 61.0148 157.109 59.7368C147.686 58.4588 142.529 64.8488 144.059 66.9368C145.589 69.0248 146.885 67.8998 146.885 67.8998Z" stroke="#2855AF" stroke-linecap="round" stroke-linejoin="round"/>
<path d="M167.235 102.415C167.235 102.415 164.355 112.612 160.809 125.473C157.263 138.334 157.929 178.213 157.929 180.436C157.929 182.659 163.023 190.624 168.792 192.847C172.561 194.231 176.494 195.124 180.492 195.502C180.492 195.502 176.505 169.132 176.505 161.599C176.505 154.066 180.051 142.312 180.051 142.312C180.051 142.312 185.37 155.614 187.584 157.387C189.798 159.16 198.663 161.149 198.447 152.95C198.231 144.751 190.689 115.492 188.691 112.612C186.693 109.732 177.162 106.852 177.162 106.852L167.235 102.415Z" fill="#7CCCDB"/>
<g opacity="0.26">
<path opacity="0.26" d="M176.549 161.599C171.509 162.904 167.477 163.84 167.477 163.84C167.477 163.84 173.651 176.197 176.126 176.197H177.872C177.143 170.203 176.549 164.497 176.549 161.599Z" fill="#2855AF"/>
<path opacity="0.26" d="M181.317 124.995C184.017 127.956 189.714 126.48 189.714 127.47C189.714 128.46 185.268 130.683 187.014 134.139C188.76 137.595 198.885 152.436 195.915 155.154C195.06 155.937 192.315 156.954 188.877 158.088C192.099 159.51 198.696 160.041 198.507 152.949C198.282 144.75 190.749 115.491 188.751 112.611C188.733 112.611 178.59 122.025 181.317 124.995Z" fill="#2855AF"/>
<path opacity="0.26" d="M174.12 128.46C173.376 129.108 172.836 129.958 172.566 130.907C172.296 131.856 172.308 132.863 172.599 133.806C173.616 137.109 177.432 140.421 176.415 142.203C175.398 143.985 167.757 142.716 168.018 145.263C168.279 147.81 176.163 156.207 176.163 156.207L179.466 141.186L174.12 128.46Z" fill="#2855AF"/>
</g>
<path d="M167.235 102.415C167.235 102.415 164.355 112.612 160.809 125.473C157.263 138.334 157.929 178.213 157.929 180.436C157.929 182.659 163.023 190.624 168.792 192.847C172.561 194.231 176.494 195.124 180.492 195.502C180.492 195.502 176.505 169.132 176.505 161.599C176.505 154.066 180.051 142.312 180.051 142.312C180.051 142.312 185.37 155.614 187.584 157.387C189.798 159.16 198.663 161.149 198.447 152.95C198.231 144.751 190.689 115.492 188.691 112.612C186.693 109.732 177.162 106.852 177.162 106.852L167.235 102.415Z" stroke="#2855AF" stroke-linecap="round" stroke-linejoin="round"/>
<path d="M167.316 97.96L155.832 106.123L156.615 113.323L169.26 101.848L167.316 97.96Z" fill="white" stroke="#2855AF" stroke-linecap="round" stroke-linejoin="round"/>
<path d="M171.009 157.828C171.009 157.828 162.585 154.057 161.919 154.057C161.253 154.057 154.611 157.603 153.279 157.603C151.947 157.603 151.281 158.503 152.172 159.16C152.911 159.595 153.753 159.825 154.611 159.826C154.611 159.826 151.506 161.626 151.722 162.481C151.938 163.336 153.72 164.029 153.72 164.029C154.63 165.425 155.946 166.508 157.491 167.134C159.705 167.8 167.463 165.145 167.463 165.145L173.448 164.695L171.009 157.828Z" fill="white"/>
<path d="M161.896 157.899C159.196 158.502 153.715 164.028 153.715 164.028C154.625 165.424 155.941 166.508 157.486 167.133C159.7 167.799 167.458 165.144 167.458 165.144L173.443 164.694L171.004 157.827C171.004 157.827 164.596 157.296 161.896 157.899Z" fill="#7CCCDB"/>
<path opacity="0.5" d="M161.896 157.899C159.196 158.502 153.715 164.028 153.715 164.028C154.625 165.424 155.941 166.508 157.486 167.133C159.7 167.799 167.458 165.144 167.458 165.144L173.443 164.694L171.004 157.827C171.004 157.827 164.596 157.296 161.896 157.899Z" fill="white"/>
<path d="M171.009 157.828C171.009 157.828 162.585 154.057 161.919 154.057C161.253 154.057 154.611 157.603 153.279 157.603C151.947 157.603 151.281 158.503 152.172 159.16C152.911 159.595 153.753 159.825 154.611 159.826C154.611 159.826 151.506 161.626 151.722 162.481C151.938 163.336 153.72 164.029 153.72 164.029C154.63 165.425 155.946 166.508 157.491 167.134C159.705 167.8 167.463 165.145 167.463 165.145L173.448 164.695L171.009 157.828Z" stroke="#2855AF" stroke-linecap="round" stroke-linejoin="round"/>
<path d="M191.175 148.297L170.34 156.721L171.888 165.586C171.888 165.586 199.788 161.599 201.147 159.601C202.506 157.603 197.376 146.299 197.376 146.299" fill="#7CCCDB"/>
<path opacity="0.26" d="M171.41 162.858L171.887 165.558C171.887 165.558 199.787 161.571 201.146 159.573C202.505 157.575 197.375 146.271 197.375 146.271L194.396 147.234C196.115 150.834 197.096 154.002 195.899 155.127C193.667 157.197 178.682 161.067 171.41 162.858Z" fill="#2855AF"/>
<path d="M191.175 148.297L170.34 156.721L171.888 165.586C171.888 165.586 199.788 161.599 201.147 159.601C202.506 157.603 197.376 146.299 197.376 146.299" stroke="#2855AF" stroke-linecap="round" stroke-linejoin="round"/>
<path d="M127.402 145.3C127.402 145.3 131.56 129.235 132.883 120.37Z" fill="white"/>
<path d="M127.402 145.3C127.402 145.3 131.56 129.235 132.883 120.37" stroke="#2855AF" stroke-linecap="round" stroke-linejoin="round"/>
<path d="M145.742 191.434L151.718 196.42L152.717 216.364" stroke="white" stroke-linecap="round" stroke-linejoin="round"/>
<path d="M180.092 142.312L174.206 131.512C174.206 131.512 172.506 129.244 175.908 123.574" stroke="#2855AF" stroke-linecap="round" stroke-linejoin="round"/>
<path d="M157.12 59.7368C147.652 58.4588 142.54 64.8488 144.07 66.9368C144.449 67.532 145.031 67.9699 145.708 68.1698L146.887 67.9538C146.887 67.9538 155.581 68.2148 155.077 71.0228C154.573 73.8308 149.443 74.1008 151.477 76.4228C152.013 77.0134 152.618 77.539 153.277 77.9888H152.98C153.531 78.4556 153.953 79.0571 154.204 79.7348C154.555 80.7878 152.629 89.5358 152.278 90.2378C151.927 90.9398 150.001 90.0578 147.553 88.3118C146.275 87.32 144.773 86.6585 143.179 86.3858L143.008 87.9608C143.008 87.9608 145.456 88.6628 145.807 90.0578C146.158 91.4528 143.881 91.6328 143.881 92.8658C143.881 94.0988 143.71 96.2948 145.366 97.6448C147.022 98.9948 152.026 96.8708 152.026 96.8708C152.026 96.8708 155.779 94.2608 156.31 91.4708C156.733 89.1848 157.048 85.1708 157.435 83.1728C157.991 82.4981 158.491 81.7786 158.929 81.0218C158.929 81.0218 163.024 79.9958 161.746 84.0908C160.468 88.1858 157.903 88.1858 157.903 88.1858C160.807 89.8577 164.023 90.9174 167.353 91.2998V91.2368C167.353 91.2368 175.03 82.5428 175.543 75.6308C176.056 68.7188 166.588 61.0148 157.12 59.7368Z" fill="#2855AF" stroke="#2855AF" stroke-linecap="round" stroke-linejoin="round"/>
<path d="M181.289 189.238H166.133V211.63H181.289V189.238Z" fill="white" stroke="#2855AF" stroke-linecap="round" stroke-linejoin="round"/>
<path d="M180.617 208.588H179.006C178.674 208.588 178.356 208.456 178.122 208.221C177.887 207.987 177.755 207.669 177.755 207.337C177.755 207.005 177.887 206.687 178.122 206.452C178.356 206.218 178.674 206.086 179.006 206.086H180.59C181.218 206.086 181.82 205.836 182.264 205.393C182.708 204.949 182.957 204.347 182.957 203.719V198.319C182.957 197.69 182.708 197.087 182.265 196.642C181.821 196.197 181.219 195.945 180.59 195.943H178.556C178.384 195.957 178.21 195.936 178.046 195.88C177.882 195.824 177.731 195.735 177.604 195.618C177.476 195.5 177.375 195.358 177.305 195.199C177.235 195.041 177.199 194.87 177.199 194.696C177.199 194.523 177.235 194.352 177.305 194.193C177.375 194.035 177.476 193.892 177.604 193.775C177.731 193.658 177.882 193.568 178.046 193.512C178.21 193.456 178.384 193.435 178.556 193.45H180.59C181.23 193.45 181.863 193.576 182.454 193.82C183.044 194.065 183.581 194.424 184.033 194.876C184.485 195.328 184.844 195.865 185.089 196.456C185.333 197.046 185.459 197.679 185.459 198.319V203.719C185.457 205.005 184.947 206.238 184.04 207.15C183.133 208.061 181.903 208.578 180.617 208.588V208.588Z" fill="white" stroke="#2855AF" stroke-linecap="round" stroke-linejoin="round"/>
<path d="M100.952 211.333H59.7677C59.6116 211.334 59.4586 211.29 59.3275 211.205C59.1964 211.12 59.0929 210.999 59.0297 210.856L47.5997 184.9C47.5456 184.778 47.523 184.644 47.5339 184.511C47.5449 184.377 47.5891 184.249 47.6625 184.137C47.7359 184.025 47.8361 183.933 47.9541 183.87C48.072 183.807 48.2039 183.774 48.3377 183.775H89.5217C89.6776 183.776 89.8299 183.822 89.9595 183.908C90.0892 183.995 90.1905 184.118 90.2507 184.261L101.654 210.262C101.698 210.379 101.714 210.505 101.7 210.629C101.686 210.753 101.644 210.872 101.575 210.976C101.507 211.081 101.415 211.168 101.306 211.23C101.198 211.292 101.076 211.327 100.952 211.333Z" fill="white" stroke="#2855AF" stroke-linecap="round" stroke-linejoin="round"/>
<path d="M97.1025 209.308H61.9485C61.8171 209.308 61.6886 209.269 61.5784 209.197C61.4683 209.125 61.3812 209.023 61.3275 208.903L51.5986 186.7C51.5521 186.596 51.5324 186.483 51.5411 186.369C51.5497 186.256 51.5866 186.146 51.6482 186.051C51.7099 185.955 51.7944 185.876 51.8942 185.822C51.9939 185.767 52.1058 185.738 52.2196 185.737H87.3645C87.498 185.739 87.6282 185.779 87.7398 185.853C87.8514 185.926 87.9398 186.03 87.9945 186.151L97.7235 208.336C97.7719 208.441 97.7933 208.555 97.7856 208.67C97.7779 208.785 97.7414 208.896 97.6795 208.993C97.6176 209.089 97.5323 209.169 97.4315 209.224C97.3306 209.28 97.2175 209.308 97.1025 209.308Z" fill="#2855AF" stroke="#2855AF" stroke-linecap="round" stroke-linejoin="round"/>
<path d="M59.1914 211.64H121.066V209.615H59.1914V211.64Z" fill="white" stroke="#2855AF" stroke-linecap="round" stroke-linejoin="round"/>
<path d="M59.1944 211.64H89.1914V209.615H59.1944V211.64Z" fill="white" stroke="#2855AF" stroke-linecap="round" stroke-linejoin="round"/>
<path d="M2.93354 161.266C4.22141 161.608 5.55296 161.757 6.88454 161.707C6.88454 161.707 6.28154 159.907 6.22754 159.763C5.61554 158.476 3.66254 156.343 2.07854 156.559C1.81631 156.602 1.56615 156.7 1.34439 156.847C1.12263 156.993 0.93426 157.185 0.791573 157.409C0.648887 157.633 0.555094 157.885 0.516318 158.148C0.477542 158.411 0.494655 158.679 0.566539 158.935C0.767654 159.473 1.08366 159.96 1.49249 160.362C1.90133 160.765 2.39313 161.073 2.93354 161.266Z" fill="#2855AF"/>
<path d="M3.89518 169.393C5.21752 169.385 6.53122 169.179 7.79218 168.781C8.19851 170.215 8.70372 171.619 9.30418 172.984C9.64618 173.785 10.0242 174.577 10.4022 175.36C10.1772 175.027 9.97018 174.73 9.93418 174.694C9.03418 173.614 6.56818 172.075 5.09218 172.705C4.84889 172.815 4.63173 172.976 4.45501 173.176C4.27829 173.376 4.14603 173.612 4.06694 173.867C3.98785 174.122 3.96373 174.391 3.99618 174.656C4.02863 174.921 4.1169 175.176 4.25518 175.405C4.59042 175.871 5.02348 176.258 5.52406 176.54C6.02463 176.821 6.58063 176.99 7.15318 177.034C8.43553 177.04 9.711 176.846 10.9332 176.458C11.0862 176.755 11.2302 177.061 11.3832 177.358C12.1122 178.807 12.8412 180.238 13.5072 181.678C13.7502 182.182 13.9662 182.686 14.1822 183.19L13.7772 182.605C12.8772 181.525 10.4022 179.995 8.92618 180.616C8.68387 180.727 8.46773 180.888 8.29183 181.089C8.11593 181.289 7.98421 181.524 7.90525 181.779C7.82629 182.034 7.80186 182.302 7.83355 182.567C7.86524 182.832 7.95234 183.087 8.08918 183.316C8.42935 183.773 8.86449 184.152 9.36473 184.425C9.86497 184.699 10.4185 184.861 10.9872 184.9C12.2348 184.903 13.4758 184.718 14.6682 184.351C14.8752 184.873 15.0822 185.395 15.2622 185.908C15.3792 186.268 15.5052 186.601 15.6042 186.97L15.9012 188.032C16.0632 188.707 16.2342 189.418 16.3782 190.084C16.4862 190.552 16.5672 190.984 16.6662 191.443C16.4322 190.939 15.9642 189.958 15.9102 189.886C15.1542 188.671 12.9762 186.79 11.4102 187.186C11.1544 187.256 10.9166 187.38 10.7124 187.55C10.5081 187.719 10.3423 187.93 10.2257 188.168C10.1091 188.406 10.0445 188.667 10.0361 188.932C10.0277 189.197 10.0758 189.461 10.1772 189.706C10.4362 190.219 10.8052 190.669 11.2578 191.024C11.7105 191.379 12.2357 191.629 12.7962 191.758C14.0936 191.957 15.4138 191.957 16.7112 191.758C16.8552 192.505 16.9992 193.225 17.1162 193.909C17.5302 196.285 17.7912 198.274 17.9532 199.669C17.9532 199.912 18.0072 200.137 18.0252 200.344H13.2372L13.8222 211.72H24.3612L24.9462 200.344H20.4462C20.4462 200.281 20.5092 200.209 20.5452 200.137C21.1572 198.859 22.0122 197.023 22.9302 194.737C23.2272 194.026 23.5242 193.261 23.8302 192.478C25.1097 192.774 26.4267 192.874 27.7362 192.775C28.3005 192.692 28.8401 192.488 29.3173 192.175C29.7944 191.863 30.1978 191.45 30.4992 190.966C30.6179 190.728 30.6851 190.467 30.6961 190.201C30.7072 189.935 30.662 189.67 30.5634 189.423C30.4649 189.175 30.3152 188.952 30.1242 188.766C29.9332 188.581 29.7052 188.438 29.4552 188.347C27.9432 187.843 25.6302 189.562 24.7842 190.714C24.7302 190.777 24.2712 191.614 23.9922 192.082C24.1092 191.758 24.2352 191.443 24.3522 191.11C24.5952 190.453 24.8202 189.787 25.0542 189.076L25.3782 188.014C25.4862 187.663 25.5582 187.276 25.6572 186.907C25.8642 186.007 26.0352 185.161 26.1792 184.261C27.3648 184.732 28.615 185.02 29.8872 185.116C30.4618 185.111 31.0285 184.982 31.5489 184.738C32.0692 184.495 32.5308 184.141 32.9022 183.703C33.0552 183.485 33.1605 183.238 33.2113 182.977C33.262 182.715 33.2571 182.446 33.1968 182.187C33.1365 181.928 33.0221 181.685 32.8613 181.473C32.7004 181.261 32.4966 181.086 32.2632 180.958C30.8412 180.229 28.2942 181.579 27.2862 182.587C27.2232 182.65 26.5752 183.487 26.2332 183.901C26.3142 183.361 26.4042 182.821 26.4762 182.272C26.6652 180.688 26.8182 179.077 26.9712 177.475C27.0252 176.98 27.0792 176.494 27.1242 175.999C28.3496 176.49 29.6422 176.793 30.9582 176.899C31.5333 176.897 32.101 176.77 32.6218 176.525C33.1426 176.281 33.6037 175.927 33.9732 175.486C34.1199 175.27 34.2201 175.026 34.2674 174.769C34.3147 174.513 34.3081 174.249 34.248 173.995C34.1879 173.741 34.0756 173.503 33.9183 173.294C33.761 173.086 33.5621 172.913 33.3342 172.786C31.9212 172.048 29.3742 173.398 28.3572 174.406C28.2852 174.487 27.3582 175.639 27.1332 175.945C27.2502 174.865 27.3762 173.794 27.5382 172.741C27.7451 171.316 28.0457 169.906 28.4382 168.52C29.6708 169.008 30.9688 169.311 32.2902 169.42C32.8648 169.415 33.4315 169.286 33.9519 169.042C34.4722 168.799 34.9338 168.445 35.3052 168.007C35.4568 167.789 35.5609 167.541 35.6109 167.28C35.6609 167.02 35.6557 166.751 35.5954 166.492C35.5352 166.234 35.4214 165.991 35.2613 165.779C35.1013 165.567 34.8985 165.391 34.6662 165.262C33.2442 164.533 30.6972 165.883 29.6892 166.891C29.6082 166.972 28.6092 168.214 28.4472 168.457C28.4724 168.374 28.4934 168.29 28.5102 168.205C28.9603 166.822 29.5326 165.482 30.2202 164.2C30.5802 163.489 30.9672 162.823 31.3632 162.193C32.5057 162.805 33.7348 163.239 35.0082 163.48C35.5795 163.541 36.1572 163.476 36.7011 163.291C37.2451 163.106 37.7422 162.805 38.1582 162.409C38.3334 162.209 38.4648 161.975 38.544 161.722C38.6231 161.468 38.6482 161.201 38.6177 160.937C38.5872 160.674 38.5017 160.419 38.3667 160.191C38.2317 159.962 38.0503 159.764 37.8342 159.61C36.5022 158.71 33.8202 159.79 32.7042 160.681C32.6412 160.726 32.0832 161.284 31.6782 161.698C31.8582 161.419 32.0382 161.122 32.2182 160.852C32.8842 159.844 33.5592 158.971 34.1622 158.197L35.1342 157C36.4265 157.018 37.7138 156.836 38.9502 156.46C39.4859 156.251 39.9697 155.928 40.3676 155.513C40.7656 155.098 41.0681 154.601 41.2542 154.057C41.3171 153.799 41.3252 153.532 41.2779 153.271C41.2306 153.01 41.1289 152.762 40.9796 152.543C40.8302 152.324 40.6364 152.139 40.4108 152C40.1852 151.86 39.9329 151.77 39.6702 151.735C38.0772 151.564 36.1962 153.742 35.6112 155.038C35.5662 155.155 34.9812 157.009 35.0082 157.009C34.7022 157.351 34.3872 157.72 34.0452 158.125C33.4242 158.89 32.7312 159.763 32.0382 160.753C31.2822 161.819 30.588 162.928 29.9592 164.074C29.2411 165.353 28.6387 166.693 28.1592 168.079V168.133C28.1592 167.665 28.1592 166.333 28.1592 166.252C27.9792 164.839 26.7912 162.211 25.2252 161.923C24.9609 161.882 24.691 161.898 24.4332 161.968C24.1753 162.039 23.9353 162.163 23.7288 162.333C23.5224 162.503 23.3541 162.715 23.2351 162.954C23.1161 163.194 23.049 163.456 23.0382 163.723C23.0635 164.296 23.2125 164.856 23.4751 165.366C23.7377 165.875 24.1075 166.322 24.5592 166.675C25.6697 167.399 26.8835 167.951 28.1592 168.313C27.7144 169.738 27.3627 171.19 27.1062 172.66C26.9532 173.515 26.8272 174.379 26.7102 175.243C26.7102 174.838 26.7102 174.478 26.7102 174.433C26.5212 173.011 25.3422 170.392 23.7672 170.095C23.5034 170.054 23.2339 170.07 22.9765 170.14C22.7192 170.211 22.4797 170.336 22.2739 170.506C22.0682 170.676 21.9008 170.887 21.7827 171.127C21.6647 171.366 21.5987 171.628 21.5892 171.895C21.6097 172.469 21.7557 173.031 22.0169 173.543C22.2781 174.055 22.6482 174.503 23.1012 174.856C24.1712 175.563 25.3426 176.103 26.5752 176.458C26.5752 176.791 26.4942 177.124 26.4582 177.457C26.2602 179.059 26.0802 180.661 25.8462 182.227C25.7652 182.776 25.6662 183.316 25.5762 183.856C25.5762 183.496 25.5762 183.199 25.5762 183.154C25.3962 181.732 24.2082 179.113 22.6422 178.816C22.3779 178.775 22.108 178.791 21.8502 178.861C21.5923 178.932 21.3523 179.056 21.1458 179.226C20.9394 179.396 20.7711 179.608 20.6521 179.847C20.5331 180.087 20.466 180.349 20.4552 180.616C20.4798 181.19 20.6285 181.752 20.8911 182.263C21.1536 182.774 21.5238 183.222 21.9762 183.577C23.0136 184.27 24.1521 184.798 25.3512 185.143C25.2342 185.692 25.1172 186.25 24.9822 186.781C24.8742 187.132 24.8022 187.492 24.6852 187.843C24.5682 188.194 24.4512 188.545 24.3432 188.896C24.1002 189.553 23.8572 190.237 23.6052 190.876C23.4342 191.317 23.2632 191.776 23.0922 192.163C23.1822 191.614 23.3262 190.534 23.3352 190.444C23.3196 189.179 22.9787 187.939 22.3452 186.844C22.3631 186.706 22.3631 186.567 22.3452 186.43C22.312 186.167 22.2236 185.913 22.086 185.686C21.9483 185.459 21.7644 185.264 21.5462 185.113C21.328 184.962 21.0804 184.858 20.8195 184.809C20.5587 184.76 20.2904 184.766 20.0322 184.828C18.4932 185.233 17.5122 187.951 17.4402 189.373C17.4402 189.454 17.4402 190.372 17.5302 190.948C17.4582 190.615 17.3862 190.291 17.2962 189.94C17.1342 189.265 16.9542 188.581 16.7652 187.852C16.6572 187.51 16.5492 187.159 16.4412 186.799C16.3422 186.448 16.1982 186.079 16.0722 185.719C15.7662 184.882 15.4152 184.054 15.0462 183.226C16.309 182.97 17.5239 182.518 18.6462 181.885C19.1243 181.567 19.5274 181.149 19.8274 180.659C20.1274 180.169 20.3171 179.62 20.3832 179.05C20.3904 178.784 20.3416 178.521 20.24 178.275C20.1384 178.03 19.9863 177.809 19.7935 177.626C19.6008 177.444 19.3718 177.304 19.1214 177.216C18.8709 177.128 18.6048 177.093 18.3402 177.115C16.7562 177.286 15.3792 179.815 15.0912 181.219C15.0912 181.3 14.9742 182.326 14.9382 182.893C14.7042 182.398 14.4792 181.903 14.2362 181.399C13.5252 179.977 12.7602 178.546 12.0042 177.124L11.3202 175.81C12.6163 175.547 13.8641 175.086 15.0192 174.442C15.4961 174.123 15.8978 173.705 16.1962 173.215C16.4947 172.726 16.6827 172.177 16.7472 171.607C16.7694 171.324 16.7275 171.04 16.6245 170.776C16.5215 170.512 16.3601 170.274 16.1524 170.081C15.9446 169.888 15.6959 169.745 15.4249 169.661C15.1539 169.578 14.8675 169.557 14.5872 169.6C12.9942 169.771 11.6172 172.3 11.3292 173.704C11.3292 173.803 11.1762 175.279 11.1582 175.657C10.6542 174.694 10.1682 173.731 9.71818 172.759C9.1121 171.453 8.59199 170.109 8.16118 168.736C9.46207 168.465 10.715 168.001 11.8782 167.359C12.3563 167.041 12.7594 166.623 13.0594 166.133C13.3594 165.643 13.549 165.094 13.6152 164.524C13.617 164.264 13.5652 164.006 13.463 163.767C13.3608 163.528 13.2103 163.313 13.0211 163.135C12.8319 162.957 12.608 162.819 12.3633 162.732C12.1187 162.644 11.8585 162.608 11.5992 162.625C10.0062 162.796 8.62918 165.325 8.34118 166.729C8.34118 166.837 8.17918 168.421 8.17018 168.718L8.08918 168.475C7.69595 167.082 7.42492 165.658 7.27918 164.218C7.18918 163.426 7.15318 162.661 7.12618 161.923C8.41783 161.8 9.68327 161.481 10.8792 160.978C11.3884 160.713 11.834 160.341 12.1852 159.888C12.5364 159.434 12.7848 158.909 12.9132 158.35C12.9499 158.088 12.9312 157.822 12.8585 157.567C12.7858 157.313 12.6606 157.077 12.4909 156.875C12.3213 156.672 12.111 156.507 11.8737 156.391C11.6364 156.274 11.3773 156.209 11.1132 156.199C9.52018 156.199 7.87318 158.557 7.43218 159.916C7.43218 159.988 7.24318 160.771 7.13518 161.338C7.13518 160.996 7.13518 160.654 7.13518 160.33C7.13518 159.124 7.21618 158.017 7.29718 157.036C7.29718 156.478 7.39618 155.974 7.45018 155.506C8.53599 154.807 9.50742 153.945 10.3302 152.95C10.6592 152.48 10.8827 151.945 10.9852 151.381C11.0878 150.817 11.067 150.238 10.9242 149.683C10.8355 149.433 10.6951 149.204 10.5122 149.012C10.3293 148.82 10.1079 148.668 9.86258 148.567C9.61722 148.466 9.35335 148.418 9.08812 148.426C8.8229 148.433 8.56226 148.497 8.32318 148.612C6.90118 149.35 6.52318 152.212 6.76618 153.607C6.76618 153.733 7.31518 155.596 7.34218 155.578C7.27918 156.028 7.21618 156.478 7.16218 157.045C7.06318 158.026 6.96418 159.133 6.93718 160.348C6.88821 161.653 6.91827 162.961 7.02718 164.263C7.14062 165.725 7.38459 167.173 7.75618 168.592V168.637C7.50418 168.241 6.76618 167.161 6.69418 167.089C5.79418 166.009 3.32818 164.47 1.85218 165.091C1.60889 165.201 1.39173 165.362 1.21501 165.562C1.03829 165.762 0.906025 165.998 0.826938 166.253C0.747851 166.508 0.723739 166.777 0.756186 167.042C0.788633 167.307 0.876904 167.562 1.01518 167.791C1.35121 168.25 1.7826 168.631 2.27974 168.907C2.77687 169.184 3.32797 169.349 3.89518 169.393V169.393ZM19.7442 190.3C20.7053 191.129 21.7777 191.82 22.9302 192.352C22.6422 193.054 22.3542 193.738 22.0302 194.368C21.0762 196.582 20.2302 198.382 19.5552 199.642C19.4292 199.894 19.3122 200.11 19.2042 200.317H19.0962C19.0962 200.071 19.0602 199.801 18.9882 199.507C18.7992 198.103 18.4932 196.096 18.0162 193.711C17.8722 192.955 17.6922 192.154 17.5122 191.326C18.2757 191.028 19.021 190.685 19.7442 190.3V190.3Z" fill="#2855AF"/>
<path d="M31.2986 161.886C31.2986 161.886 31.8026 160.023 31.8206 159.897C32.0186 158.484 31.5686 155.64 30.1286 154.947C29.8856 154.839 29.6224 154.782 29.3562 154.782C29.0899 154.782 28.8267 154.838 28.5836 154.947C28.3406 155.056 28.1233 155.215 27.946 155.413C27.7687 155.612 27.6353 155.846 27.5546 156.099C27.4253 156.66 27.4195 157.241 27.5376 157.804C27.6557 158.366 27.8949 158.897 28.2386 159.357C29.127 160.348 30.1584 161.201 31.2986 161.886V161.886Z" fill="#2855AF"/>
<path d="M6.49609 211.639H342.502" stroke="#2855AF" stroke-width="2" stroke-linecap="round" stroke-linejoin="round"/>
</svg>
