<svg width="55" height="55" viewBox="0 0 55 55" fill="none" xmlns="http://www.w3.org/2000/svg">
<path d="M17.1875 0.25H37.8125C47.1654 0.25 54.75 7.83463 54.75 17.1875V37.8125C54.75 47.1654 47.1654 54.75 37.8125 54.75H17.1875C7.83463 54.75 0.25 47.1654 0.25 37.8125V17.1875C0.25 7.83463 7.83463 0.25 17.1875 0.25ZM37.8125 50.0938C44.5849 50.0938 50.0938 44.5849 50.0938 37.8125V17.1875C50.0938 10.4151 44.5849 4.90625 37.8125 4.90625H17.1875C10.4151 4.90625 4.90625 10.4151 4.90625 17.1875V37.8125C4.90625 44.5849 10.4151 50.0938 17.1875 50.0938H37.8125Z" fill="#2855AF" stroke="white" stroke-width="0.5"/>
<path d="M14 27.5C14 20.0446 20.0446 14 27.5 14C34.9554 14 41 20.0446 41 27.5C41 34.9554 34.9554 41 27.5 41C20.0446 41 14 34.9554 14 27.5ZM18.6562 27.5C18.6562 32.3749 22.6251 36.3438 27.5 36.3438C32.3749 36.3438 36.3438 32.3749 36.3438 27.5C36.3438 22.6216 32.3749 18.6562 27.5 18.6562C22.6251 18.6562 18.6562 22.6216 18.6562 27.5Z" fill="#7CCCDB" stroke="white" stroke-width="0.5"/>
<path d="M42.2814 14.5508C43.2933 14.5508 44.1136 13.7305 44.1136 12.7187C44.1136 11.7068 43.2933 10.8865 42.2814 10.8865C41.2695 10.8865 40.4492 11.7068 40.4492 12.7187C40.4492 13.7305 41.2695 14.5508 42.2814 14.5508Z" fill="#7CCCDB"/>
</svg>
