<svg width="55" height="55" viewBox="0 0 55 55" fill="none" xmlns="http://www.w3.org/2000/svg">
<path d="M8.05664 55H25.9961V35.4492H19.5508V29.0039H25.9961V20.9473C25.9961 16.5048 29.6103 12.8906 34.0527 12.8906H42.1094V19.3359H35.6641C33.887 19.3359 32.4414 20.7815 32.4414 22.5586V29.0039H41.8186L40.7444 35.4492H32.4414V55H46.9434C51.3858 55 55 51.3858 55 46.9434V8.05664C55 3.61416 51.3858 0 46.9434 0H8.05664C3.61416 0 0 3.61416 0 8.05664V46.9434C0 51.3858 3.61416 55 8.05664 55ZM3.22266 8.05664C3.22266 5.39124 5.39124 3.22266 8.05664 3.22266H46.9434C49.6088 3.22266 51.7773 5.39124 51.7773 8.05664V46.9434C51.7773 49.6088 49.6088 51.7773 46.9434 51.7773H35.6641V38.6719H43.4744L45.6228 25.7812H35.6641V22.5586H45.332V9.66797H34.0527C27.8332 9.66797 22.7734 14.7277 22.7734 20.9473V25.7812H16.3281V38.6719H22.7734V51.7773H8.05664C5.39124 51.7773 3.22266 49.6088 3.22266 46.9434V8.05664Z" fill="#2855AF"/>
</svg>
