<svg width="55" height="55" viewBox="0 0 55 55" fill="none" xmlns="http://www.w3.org/2000/svg">
<g clip-path="url(#clip0)">
<path d="M54.1508 5.46341C53.479 4.6418 52.4727 4.18945 51.3171 4.18945C50.6889 4.18945 50.0234 4.32163 49.3395 4.58305L2.78298 22.3551C0.312281 23.298 -0.0204749 24.7129 0.000925555 25.4724C0.022326 26.2319 0.434809 27.6259 2.95503 28.4278C2.97013 28.4324 2.98524 28.437 3.00035 28.4412L12.6574 31.2048L17.88 46.139C18.592 48.1749 20.1904 49.4397 22.0518 49.4397C23.2255 49.4397 24.3798 48.9479 25.3903 48.018L31.3635 42.5181L40.0273 49.4942C40.0282 49.495 40.0294 49.4955 40.0303 49.4963L40.1125 49.5626C40.1201 49.5685 40.128 49.5748 40.1356 49.5807C41.0986 50.3276 42.1497 50.722 43.1765 50.7224H43.177C45.1832 50.7224 46.7806 49.2374 47.246 46.9396L54.8742 9.27311C55.1805 7.76123 54.9237 6.40839 54.1508 5.46341ZM15.888 30.6799L34.5194 21.1617L22.9183 33.4888C22.7282 33.6906 22.5935 33.9378 22.5272 34.2067L20.2902 43.2679L15.888 30.6799ZM23.207 45.6472C23.1298 45.7181 23.0522 45.7814 22.9745 45.8398L25.0499 37.434L28.8252 40.4741L23.207 45.6472ZM51.7157 8.63319L44.0875 46.3001C44.0141 46.6605 43.7795 47.4994 43.1765 47.4994C42.8786 47.4994 42.5043 47.337 42.1212 47.042L32.3039 39.1372C32.3026 39.136 32.3009 39.1347 32.2992 39.1339L26.4578 34.43L43.2345 16.6034C43.7716 16.0327 43.8202 15.1587 43.3498 14.5317C42.879 13.9048 42.026 13.7076 41.3281 14.0643L13.735 28.1609L3.94658 25.3604L50.4888 7.5938C50.882 7.44358 51.1564 7.41211 51.3171 7.41211C51.4157 7.41211 51.5911 7.42386 51.6562 7.50401C51.7418 7.60849 51.8509 7.96474 51.7157 8.63319Z" fill="#2855AF"/>
</g>
<defs>
<clipPath id="clip0">
<rect width="55" height="55" fill="white"/>
</clipPath>
</defs>
</svg>
