<svg width="171" height="152" viewBox="0 0 171 152" fill="none" xmlns="http://www.w3.org/2000/svg">
<path opacity="0.05" d="M40.68 151.44C33.72 151.44 27.52 149.72 22.08 146.28C16.64 142.84 12.36 137.88 9.24 131.4C6.2 124.84 4.68 117.04 4.68 108C4.68 98.96 6.2 91.2 9.24 84.72C12.36 78.16 16.64 73.16 22.08 69.72C27.52 66.28 33.72 64.56 40.68 64.56C47.64 64.56 53.84 66.28 59.28 69.72C64.72 73.16 68.96 78.16 72 84.72C75.12 91.2 76.68 98.96 76.68 108C76.68 117.04 75.12 124.84 72 131.4C68.96 137.88 64.72 142.84 59.28 146.28C53.84 149.72 47.64 151.44 40.68 151.44ZM40.68 135C45.8 135 49.8 132.8 52.68 128.4C55.64 124 57.12 117.2 57.12 108C57.12 98.8 55.64 92 52.68 87.6C49.8 83.2 45.8 81 40.68 81C35.64 81 31.64 83.2 28.68 87.6C25.8 92 24.36 98.8 24.36 108C24.36 117.2 25.8 124 28.68 128.4C31.64 132.8 35.64 135 40.68 135ZM148.182 134.16V150H84.7022V137.4L117.102 106.8C120.542 103.52 122.862 100.72 124.062 98.4C125.262 96 125.862 93.64 125.862 91.32C125.862 87.96 124.702 85.4 122.382 83.64C120.142 81.8 116.822 80.88 112.422 80.88C108.742 80.88 105.422 81.6 102.462 83.04C99.5022 84.4 97.0222 86.48 95.0222 89.28L80.8622 80.16C84.1422 75.28 88.6622 71.48 94.4222 68.76C100.182 65.96 106.782 64.56 114.222 64.56C120.462 64.56 125.902 65.6 130.542 67.68C135.262 69.68 138.902 72.56 141.462 76.32C144.102 80 145.422 84.36 145.422 89.4C145.422 93.96 144.462 98.24 142.542 102.24C140.622 106.24 136.902 110.8 131.382 115.92L112.062 134.16H148.182Z" fill="#2855AF"/>
<rect x="50" y="3" width="118" height="118" rx="59" stroke="#2855AF" stroke-width="6"/>
<g clip-path="url(#clip0)">
<path d="M109.479 70.8487C110.369 70.8487 111.09 70.127 111.09 69.237V67.2627C111.09 66.3727 110.369 65.6514 109.479 65.6514C108.589 65.6514 107.867 66.3727 107.867 67.2627V69.237C107.867 70.127 108.589 70.8487 109.479 70.8487Z" fill="#7CCCDB"/>
<path d="M85.9407 55.7731C86.2558 56.0886 86.6687 56.2464 87.0816 56.2464C87.4937 56.2464 87.9053 56.0895 88.22 55.7756C88.8499 55.147 88.8511 54.1265 88.2225 53.4962L84.7834 50.0495C84.1548 49.4197 83.1343 49.418 82.5044 50.047C81.8746 50.6756 81.8733 51.6961 82.5019 52.3263L85.9407 55.7731Z" fill="#7CCCDB"/>
<path d="M131.85 56.2569C132.271 56.2569 132.692 56.0929 133.008 55.766L136.437 52.2223C137.055 51.5828 137.039 50.5627 136.399 49.9438C135.759 49.3244 134.739 49.3417 134.12 49.9816L130.692 53.5248C130.073 54.1647 130.09 55.1848 130.729 55.8037C131.042 56.1063 131.446 56.2569 131.85 56.2569Z" fill="#7CCCDB"/>
<path d="M109.479 47.7631C110.369 47.7631 111.09 47.0413 111.09 46.1513V41.3383C111.09 40.4483 110.369 39.7266 109.479 39.7266C108.589 39.7266 107.867 40.4483 107.867 41.3383V46.1513C107.867 47.0413 108.589 47.7631 109.479 47.7631Z" fill="#7CCCDB"/>
<path d="M136.777 69.227C137.111 68.6647 137.065 67.9404 136.669 67.4205C136.439 67.1159 133.518 63.2974 128.834 59.4361C126.009 57.1076 123.124 55.2483 120.261 53.9093C116.62 52.2069 112.999 51.3438 109.5 51.3438C106.001 51.3438 102.38 52.2069 98.7386 53.9093C95.8752 55.2483 92.9911 57.1076 90.1659 59.4361C85.3868 63.3754 82.4411 67.2728 82.3182 67.4369C81.8939 68.0025 81.8939 68.8061 82.3182 69.3718C82.4411 69.5354 85.3868 73.4332 90.1659 77.3726C92.9911 79.701 95.8752 81.5604 98.7386 82.8994C102.38 84.6018 106.001 85.4649 109.5 85.4649C112.999 85.4649 116.62 84.6018 120.261 82.8994C123.124 81.5604 126.009 79.701 128.834 77.3726C133.613 73.4332 136.559 69.5358 136.682 69.3718C136.716 69.3256 136.748 69.2765 136.777 69.227V69.227ZM92.2727 61.877C96.3313 58.5419 102.615 54.5668 109.5 54.5668C116.385 54.5668 122.669 58.5419 126.727 61.877C129.648 64.2768 131.873 66.703 133.083 68.1209C132.344 68.5174 131.579 68.6639 130.77 68.564C129.485 68.4045 128.399 67.6631 127.837 67.2057C126.761 66.1449 125.649 65.1462 124.53 64.2361C117.98 58.9082 112.741 57.7899 109.5 57.7899C103.627 57.7899 98.0849 61.2954 94.4699 64.2361C93.3373 65.1575 92.2111 66.1697 91.1226 67.2456C90.0169 68.2875 88.8705 68.718 87.62 68.564C87.0187 68.4893 86.4619 68.287 85.981 68.0462C87.2042 66.6191 89.4026 64.2352 92.2727 61.877V61.877ZM109.498 61.1947C113.462 61.1947 116.686 64.4282 116.686 68.4029C116.686 72.3779 113.462 75.6115 109.498 75.6115C105.534 75.6115 102.31 72.3779 102.31 68.4029C102.31 64.4282 105.534 61.1947 109.498 61.1947V61.1947ZM109.5 82.2418C102.615 82.2418 96.3313 78.2664 92.2727 74.9317C90.9631 73.8558 89.7941 72.7744 88.7929 71.7812C90.4285 71.6171 91.9815 70.8706 93.3507 69.5744C93.3591 69.5665 93.3675 69.5585 93.3755 69.5501C94.3948 68.5426 95.4472 67.5959 96.5037 66.7366C97.5062 65.9208 98.6702 65.0564 99.9471 64.2528C99.3941 65.5251 99.0865 66.9287 99.0865 68.4029C99.0865 74.155 103.757 78.8345 109.498 78.8345C115.239 78.8345 119.91 74.155 119.91 68.4029C119.91 66.9262 119.601 65.5209 119.047 64.2466C120.136 64.9318 121.286 65.7521 122.497 66.7366C123.553 67.5959 124.606 68.5426 125.624 69.5501C125.658 69.5832 125.693 69.6147 125.729 69.6449C126.704 70.4535 128.271 71.4623 130.24 71.7422C125.837 76.1137 118.126 82.2418 109.5 82.2418V82.2418Z" fill="#2855AF"/>
</g>
<defs>
<clipPath id="clip0">
<rect width="55" height="55" fill="white" transform="translate(82 35)"/>
</clipPath>
</defs>
</svg>
