<svg width="171" height="152" viewBox="0 0 171 152" fill="none" xmlns="http://www.w3.org/2000/svg">
<path opacity="0.05" d="M40.68 151.44C33.72 151.44 27.52 149.72 22.08 146.28C16.64 142.84 12.36 137.88 9.24 131.4C6.2 124.84 4.68 117.04 4.68 108C4.68 98.96 6.2 91.2 9.24 84.72C12.36 78.16 16.64 73.16 22.08 69.72C27.52 66.28 33.72 64.56 40.68 64.56C47.64 64.56 53.84 66.28 59.28 69.72C64.72 73.16 68.96 78.16 72 84.72C75.12 91.2 76.68 98.96 76.68 108C76.68 117.04 75.12 124.84 72 131.4C68.96 137.88 64.72 142.84 59.28 146.28C53.84 149.72 47.64 151.44 40.68 151.44ZM40.68 135C45.8 135 49.8 132.8 52.68 128.4C55.64 124 57.12 117.2 57.12 108C57.12 98.8 55.64 92 52.68 87.6C49.8 83.2 45.8 81 40.68 81C35.64 81 31.64 83.2 28.68 87.6C25.8 92 24.36 98.8 24.36 108C24.36 117.2 25.8 124 28.68 128.4C31.64 132.8 35.64 135 40.68 135ZM163.045 132.36H149.365V150H130.405V132.36H85.1653V119.28L124.765 66H145.165L108.445 116.52H131.005V100.8H149.365V116.52H163.045V132.36Z" fill="#2855AF"/>
<rect x="50" y="3" width="118" height="118" rx="59" stroke="#2855AF" stroke-width="6"/>
<g clip-path="url(#clip0)">
<path d="M87.3711 65.8408C86.7782 65.8408 86.2969 66.3221 86.2969 66.915C86.2969 67.508 86.7782 67.9893 87.3711 67.9893C87.964 67.9893 88.4453 67.508 88.4453 66.915C88.4453 66.3221 87.964 65.8408 87.3711 65.8408Z" fill="#2855AF"/>
<path d="M131.373 69.5658L121.246 73.0473C121.291 72.7981 121.316 72.5438 121.316 72.2857C121.316 69.9166 119.389 67.9889 117.019 67.9889H110.063C109.878 67.9889 109.696 67.9414 109.535 67.8508L103.86 64.6588C102.738 64.0264 101.463 63.692 100.172 63.692H92.5572C92.114 62.4419 90.9198 61.5439 89.5195 61.5439H83.0742C82.4809 61.5439 82 62.0248 82 62.6182V81.9537C82 82.5471 82.4809 83.0279 83.0742 83.0279H89.5195C90.8879 83.0279 92.0612 82.1681 92.5269 80.9605C93.743 81.1115 95.15 81.4712 96.0341 82.0016L101.652 85.3723C103.78 86.6497 106.217 87.3248 108.699 87.3248C110.667 87.3248 112.572 86.9119 114.365 86.0979L134.414 77.2695C136.635 76.3686 137.731 73.7045 136.462 71.3563C135.529 69.6283 133.342 68.8596 131.373 69.5658V69.5658ZM90.5938 79.8103C90.5912 80.4003 90.1099 80.8795 89.5195 80.8795H84.1484V63.6924H89.5195C90.1116 63.6924 90.5938 64.1741 90.5938 64.7666V79.8103ZM133.598 75.2826C133.587 75.2868 133.576 75.2919 133.564 75.2965C133.564 75.2965 113.485 84.1378 113.481 84.1395C111.968 84.8277 110.359 85.1764 108.699 85.1764C106.606 85.1764 104.552 84.6074 102.758 83.5302L97.1394 80.1594C95.9368 79.4381 94.2146 78.9984 92.7422 78.8221V65.8408H100.172C101.094 65.8408 102.004 66.0792 102.806 66.5311L108.482 69.7231C108.963 69.9942 109.51 70.1377 110.063 70.1377H117.019C118.204 70.1377 119.168 71.1012 119.168 72.2862C119.168 73.4665 118.203 74.4346 117.019 74.4346H106.099C105.506 74.4346 105.025 74.9155 105.025 75.5088C105.025 76.1017 105.506 76.5826 106.099 76.5826H117.019C117.724 76.5826 118.417 76.4076 119.033 76.0795C119.033 76.0795 132.089 71.5913 132.094 71.5896C133.057 71.2421 134.145 71.5879 134.572 72.3776C135.212 73.5614 134.683 74.8483 133.598 75.2826V75.2826Z" fill="#2855AF"/>
<path d="M113.288 63.7413C113.49 63.9163 113.741 64.0035 113.992 64.0035C114.242 64.0035 114.493 63.9163 114.695 63.7413C123.46 56.1454 128.881 52.3012 128.881 46.3276C128.881 41.6018 125.536 37.6855 120.835 37.6855C117.749 37.6855 115.385 39.4647 113.863 42.1348C112.344 39.4706 109.982 37.6855 106.891 37.6855C103.293 37.6855 100.285 40.0174 99.2273 43.6257C99.0603 44.1951 99.3867 44.7918 99.9562 44.9588C100.526 45.1258 101.122 44.7993 101.289 44.2299C102.071 41.5595 104.27 39.834 106.891 39.834C109.956 39.834 112.105 42.5552 112.828 45.0889C112.956 45.5542 113.38 45.8765 113.863 45.8765C114.346 45.8765 114.769 45.5542 114.898 45.0889C114.913 45.0364 116.405 39.834 120.835 39.834C124.197 39.834 126.733 42.6253 126.733 46.3276C126.733 51.1062 122.062 54.5512 113.991 61.5102C109.073 57.2871 105.167 54.3146 102.947 51.4066C102.587 50.935 101.913 50.8443 101.441 51.2044C100.97 51.5644 100.879 52.2383 101.239 52.7104C103.742 55.988 107.966 59.1284 113.288 63.7413V63.7413Z" fill="#7CCCDB"/>
<path d="M100.152 47.1494C99.5594 47.1494 99.0781 47.6307 99.0781 48.2236C99.0781 48.8165 99.5594 49.2978 100.152 49.2978C100.745 49.2978 101.227 48.8165 101.227 48.2236C101.227 47.6307 100.745 47.1494 100.152 47.1494Z" fill="#7CCCDB"/>
</g>
<defs>
<clipPath id="clip0">
<rect width="55" height="55" fill="white" transform="translate(82 35)"/>
</clipPath>
</defs>
</svg>
