<svg width="427" height="295" viewBox="0 0 427 295" fill="none" xmlns="http://www.w3.org/2000/svg">
<path d="M401.24 290.569C404.16 279.889 413.67 244.039 420.13 207.729C427.83 164.379 434.57 104.669 403.75 79.6195C372.93 54.5695 332.47 84.4395 311.28 74.8095C290.09 65.1795 289.13 17.0095 232.28 2.56949C175.43 -11.8705 143.66 38.1995 118.62 65.1695C93.5799 92.1395 65.6199 73.8395 29.0399 102.739C-7.1601 131.319 23.5399 260.739 50.3099 290.569H401.24Z" fill="#7CCCDB"/>
<path opacity="0.7" d="M401.24 290.569C404.16 279.889 413.67 244.039 420.13 207.729C427.83 164.379 434.57 104.669 403.75 79.6195C372.93 54.5695 332.47 84.4395 311.28 74.8095C290.09 65.1795 289.13 17.0095 232.28 2.56949C175.43 -11.8705 143.66 38.1995 118.62 65.1695C93.5799 92.1395 65.6199 73.8395 29.0399 102.739C-7.1601 131.319 23.5399 260.739 50.3099 290.569H401.24Z" fill="white"/>
<path d="M360.43 222.28L355.88 291C355.855 291.35 355.698 291.677 355.443 291.916C355.187 292.155 354.85 292.289 354.5 292.29V292.29C354.316 292.29 354.133 292.253 353.964 292.181C353.794 292.109 353.641 292.004 353.513 291.871C353.385 291.739 353.285 291.582 353.219 291.41C353.154 291.238 353.123 291.054 353.13 290.87L355 222.28H360.43Z" fill="#2855AF" stroke="#2855AF" stroke-linecap="round" stroke-linejoin="round"/>
<path d="M372.07 222.28L376.62 291C376.643 291.349 376.797 291.676 377.051 291.915C377.306 292.154 377.641 292.288 377.99 292.29V292.29C378.175 292.29 378.358 292.253 378.528 292.182C378.698 292.11 378.852 292.004 378.981 291.872C379.109 291.74 379.21 291.583 379.277 291.411C379.344 291.239 379.376 291.055 379.37 290.87L377.48 222.32L372.07 222.28Z" fill="#2855AF" stroke="#2855AF" stroke-linecap="round" stroke-linejoin="round"/>
<path d="M326.453 222.28L331.003 291C331.026 291.349 331.18 291.676 331.434 291.915C331.688 292.154 332.024 292.288 332.373 292.29V292.29C332.558 292.29 332.741 292.253 332.911 292.182C333.081 292.11 333.235 292.004 333.363 291.872C333.492 291.74 333.593 291.583 333.66 291.411C333.727 291.239 333.758 291.055 333.753 290.87L331.853 222.32L326.453 222.28Z" fill="#2855AF" stroke="#2855AF" stroke-linecap="round" stroke-linejoin="round"/>
<path d="M307.861 222.28L303.311 291C303.286 291.35 303.13 291.677 302.874 291.916C302.618 292.155 302.281 292.289 301.931 292.29V292.29C301.747 292.289 301.565 292.251 301.395 292.179C301.226 292.106 301.072 292.001 300.944 291.869C300.816 291.737 300.715 291.581 300.647 291.409C300.58 291.238 300.547 291.054 300.551 290.87L302.451 222.32L307.861 222.28Z" fill="#2855AF" stroke="#2855AF" stroke-linecap="round" stroke-linejoin="round"/>
<path d="M387.13 153C387.13 153 341.731 151.3 337.891 151.3C334.051 151.3 333.16 153 333.16 153L326.68 198.69C326.68 198.69 306.53 192.94 302.58 193.69C298.63 194.44 304.53 223.11 304.53 223.11H327.33L327.74 221.39H379.22L392.891 156.27C392.061 153.29 387.13 153 387.13 153Z" fill="white" stroke="#2855AF" stroke-linecap="round" stroke-linejoin="round"/>
<path d="M369.853 181.58C369.853 181.58 374.473 211.58 369.173 215.08C368.353 215.62 363.903 218.18 359.743 217.76C356.403 217.42 332.803 217.76 332.803 217.76C332.803 217.76 329.523 211.52 328.863 206.92C328.203 202.32 333.363 182.58 333.363 182.58L369.853 181.58Z" fill="white" stroke="#2855AF" stroke-linecap="round" stroke-linejoin="round"/>
<path d="M331.201 197.649C331.201 197.649 297.041 201.199 295.431 202.159C293.821 203.119 286.431 209.569 287.701 213.759C288.971 217.949 285.771 218.269 288.701 218.919C291.631 219.569 333.161 219.559 333.161 219.559" fill="#7CCCDB"/>
<path d="M331.201 197.649C331.201 197.649 297.041 201.199 295.431 202.159C293.821 203.119 286.431 209.569 287.701 213.759C288.971 217.949 285.771 218.269 288.701 218.919C291.631 219.569 333.161 219.559 333.161 219.559" stroke="#2855AF" stroke-linecap="round" stroke-linejoin="round"/>
<path d="M300.131 223.06H381.301V217H300.131V223.06Z" fill="white" stroke="#2855AF" stroke-linecap="round" stroke-linejoin="round"/>
<path d="M362.13 198.939H313.23C313.23 198.939 310.66 201.839 310.33 207.939C310 214.039 310.66 215.349 315.17 216.939C319.68 218.529 359.74 217.719 359.74 217.719" fill="#7CCCDB"/>
<path d="M362.13 198.939H313.23C313.23 198.939 310.66 201.839 310.33 207.939C310 214.039 310.66 215.349 315.17 216.939C319.68 218.529 359.74 217.719 359.74 217.719" stroke="#2855AF" stroke-linecap="round" stroke-linejoin="round"/>
<path d="M323.602 276.54L318.482 264.41L310.092 266L316.512 276.82L312.812 284.23L304.812 289.46C304.812 289.46 303.882 290.38 307.882 290.07C311.882 289.76 320.182 290.07 320.182 290.07L325.412 283.92C325.412 283.92 327.312 280.79 323.602 276.54Z" fill="white" stroke="#2855AF" stroke-linecap="round" stroke-linejoin="round"/>
<path d="M325.843 281.84L326.053 289.77H324.803L323.133 285.81L325.843 281.84Z" fill="#2855AF" stroke="#2855AF" stroke-linecap="round" stroke-linejoin="round"/>
<path d="M320.19 290.11L325.42 283.96C325.42 283.96 326.77 281.67 324.91 278.37C321.19 284.73 316.24 286.64 316.24 286.64L311.08 285.4L304.82 289.5C304.82 289.5 303.89 290.42 307.89 290.11C311.89 289.8 320.19 290.11 320.19 290.11Z" fill="#2855AF" stroke="white" stroke-linecap="round" stroke-linejoin="round"/>
<path d="M303.491 214.73L320.641 266.58L308.471 268.74L284.471 214.74C284.471 214.74 282.541 206.68 287.691 204.11C292.841 201.54 307.991 200.24 307.991 200.24" fill="#7CCCDB"/>
<path d="M303.491 214.73L320.641 266.58L308.471 268.74L284.471 214.74C284.471 214.74 282.541 206.68 287.691 204.11C292.841 201.54 307.991 200.24 307.991 200.24" stroke="#2855AF" stroke-linecap="round" stroke-linejoin="round"/>
<path d="M358.5 223.05C358.5 223.05 352.59 194.34 356.55 193.63C360.51 192.92 380.65 198.63 380.65 198.63L387.13 153C387.13 153 393.97 151.92 394.69 158C395.41 164.08 381.3 223.05 381.3 223.05H358.5Z" fill="#2855AF" stroke="#2855AF" stroke-linecap="round" stroke-linejoin="round"/>
<path d="M288.911 138.52L285.861 133.52C285.567 133.041 285.153 132.647 284.661 132.377C284.168 132.107 283.613 131.97 283.051 131.98L280.181 132.03L275.271 130.56C274.959 130.469 274.627 130.472 274.318 130.57C274.008 130.668 273.734 130.856 273.531 131.11L273.351 131.34L277.871 133.34L273.361 135L268.571 132.57C268.382 132.473 268.166 132.446 267.959 132.494C267.752 132.541 267.569 132.66 267.441 132.83V132.83C267.296 133.018 267.231 133.257 267.261 133.493C267.291 133.729 267.413 133.944 267.601 134.09L274.301 139.26C274.511 139.423 274.754 139.54 275.012 139.602C275.271 139.664 275.54 139.67 275.801 139.62L283.211 138.13L285.281 140.39L288.911 138.52Z" fill="white" stroke="#2855AF" stroke-linecap="round" stroke-linejoin="round"/>
<path d="M340.572 128.26L313.102 156.99L286.882 135.8L283.262 138.43L312.112 171.12L337.122 157.65L340.572 128.26Z" fill="white" stroke="#2855AF" stroke-linecap="round" stroke-linejoin="round"/>
<path d="M381.671 135.6L396.071 179.85L383.651 180.21L371.301 159.44C371.301 159.44 378.241 138.49 381.671 135.6Z" fill="white" stroke="#2855AF" stroke-linecap="round" stroke-linejoin="round"/>
<path d="M365.999 128L381.669 135.65L368.549 172.34L370.099 182.57L333.359 182.63L337.739 166.15L334.739 155.59C334.35 154.22 334.329 152.771 334.679 151.39L340.559 128.31L355.999 125.83L365.999 128Z" fill="white" stroke="#2855AF" stroke-linecap="round" stroke-linejoin="round"/>
<path d="M365.25 125.849C365.25 125.849 368.33 127.929 368.43 129.779C368.48 130.869 368.43 132.779 368.33 134.239C368.275 135.38 368.014 136.502 367.56 137.549L362.01 144.249L355.59 139.179L350.26 141.899C350.26 141.899 349.26 133.729 351.59 128.029C353.92 122.329 364.06 124.419 365.25 125.849Z" fill="white" stroke="#2855AF" stroke-linecap="round" stroke-linejoin="round"/>
<path d="M369.662 110C369.662 110 368.402 114.53 367.812 117.53C367.222 120.53 366.032 126.53 366.142 128.78C366.252 131.03 356.782 140.61 355.592 139.18C354.402 137.75 353.152 129.44 353.152 129.44L354.332 116C354.332 116 366.672 102.33 369.662 110Z" fill="white" stroke="#2855AF" stroke-linecap="round" stroke-linejoin="round"/>
<path d="M349.87 102.999C349.87 102.999 348.18 105.789 348.18 106.999C348.18 108.209 348.77 110.579 348.67 111.269C348.57 111.959 346.89 114.269 346.67 115.049C346.56 115.367 346.569 115.714 346.696 116.025C346.823 116.336 347.059 116.59 347.36 116.739C347.769 116.949 348.166 117.179 348.55 117.429C348.55 117.429 349.05 123.589 349.85 125.179C350.65 126.769 351.34 127.469 353.72 127.669C356.1 127.869 361.77 125.379 362.56 123.389C363.35 121.399 363.46 119.019 363.56 116.139C363.66 113.259 361.67 109.14 360.18 105.21C358.69 101.28 352.45 99.1195 349.87 102.999Z" fill="white" stroke="#2855AF" stroke-linecap="round" stroke-linejoin="round"/>
<path d="M375.521 123.34C379.735 123.34 383.151 119.924 383.151 115.71C383.151 111.496 379.735 108.08 375.521 108.08C371.307 108.08 367.891 111.496 367.891 115.71C367.891 119.924 371.307 123.34 375.521 123.34Z" fill="#2855AF" stroke="white" stroke-linecap="round" stroke-linejoin="round"/>
<path d="M349.832 102.57C349.832 102.57 352.902 99.9199 358.422 105.19C363.942 110.46 361.842 118.08 365.532 119.66C369.222 121.24 376.052 113.34 376.842 109.4C377.632 105.46 375.262 97.2899 367.892 95.7099C360.522 94.1299 351.492 95.2099 349.832 102.57Z" fill="#2855AF" stroke="white" stroke-linecap="round" stroke-linejoin="round"/>
<path d="M349.831 102.57C349.766 101.951 349.843 101.324 350.056 100.738C350.269 100.153 350.612 99.6235 351.061 99.1906C351.509 98.7577 352.05 98.4328 352.643 98.2404C353.235 98.048 353.864 97.9932 354.481 98.0802C359.481 98.3502 360.001 106.24 362.631 109.4C365.261 112.56 366.581 112.03 366.581 112.03C366.581 112.03 362.111 113.34 359.211 111.76C356.311 110.18 354.911 101.27 349.831 102.57Z" fill="#2855AF" stroke="#2855AF" stroke-linecap="round" stroke-linejoin="round"/>
<path d="M358.002 97.1602C360.633 98.7853 362.721 101.156 364.002 103.97C366.272 108.78 366.272 112.75 371.662 112.47C371.662 112.47 369.112 113.04 365.142 111.05C361.172 109.06 360.322 103.4 357.772 101.13C356.381 99.8135 354.581 99.0125 352.672 98.8602" stroke="white" stroke-width="0.5" stroke-linecap="round" stroke-linejoin="round"/>
<path d="M376.84 109.399C376.84 109.399 376.61 116.619 371.07 118.139" stroke="white" stroke-width="0.5" stroke-linecap="round" stroke-linejoin="round"/>
<path d="M361.381 116.77C361.381 116.77 366.661 109.86 367.901 115.02C369.141 120.18 364.901 121.44 362.901 120.85C360.901 120.26 361.181 119.19 361.181 119.19" fill="white"/>
<path d="M361.381 116.77C361.381 116.77 366.661 109.86 367.901 115.02C369.141 120.18 364.901 121.44 362.901 120.85C360.901 120.26 361.181 119.19 361.181 119.19" stroke="#2855AF" stroke-linecap="round" stroke-linejoin="round"/>
<path d="M349.632 175.899C349.632 175.899 339.552 177.299 337.872 177.299C336.192 177.299 331.992 182.619 331.992 182.619H350.472L349.632 175.899Z" fill="white" stroke="#2855AF" stroke-linecap="round" stroke-linejoin="round"/>
<path d="M392.451 169.12L396.071 177.28C396.233 177.76 396.28 178.272 396.207 178.774C396.134 179.276 395.943 179.753 395.651 180.167C395.359 180.582 394.973 180.921 394.524 181.158C394.076 181.395 393.578 181.522 393.071 181.53L349.371 181.78L349.651 175.9L383.531 170.54" fill="white"/>
<path d="M392.451 169.12L396.071 177.28C396.233 177.76 396.28 178.272 396.207 178.774C396.134 179.276 395.943 179.753 395.651 180.167C395.359 180.582 394.973 180.921 394.524 181.158C394.076 181.395 393.578 181.522 393.071 181.53L349.371 181.78L349.651 175.9L383.531 170.54" stroke="#2855AF" stroke-linecap="round" stroke-linejoin="round"/>
<path d="M333.96 281.84L334.17 289.77H332.92L331.25 285.81L333.96 281.84Z" fill="#2855AF" stroke="white" stroke-linecap="round" stroke-linejoin="round"/>
<path d="M331.721 276.54L330.111 265L321.731 265.54L324.631 276.9L320.931 284.31L312.931 289.54C312.931 289.54 312.011 290.46 316.011 290.15C320.011 289.84 328.311 290.15 328.311 290.15L333.541 284C333.541 284 335.431 280.79 331.721 276.54Z" fill="white" stroke="#2855AF" stroke-linecap="round" stroke-linejoin="round"/>
<path d="M328.311 290.11L333.541 283.96C333.541 283.96 334.891 281.67 333.021 278.37C329.301 284.73 324.351 286.64 324.351 286.64L319.201 285.4L312.931 289.5C312.931 289.5 312.011 290.42 316.011 290.11C320.011 289.8 328.311 290.11 328.311 290.11Z" fill="#2855AF" stroke="white" stroke-linecap="round" stroke-linejoin="round"/>
<path d="M327.88 205.8L331.47 267.12L320.1 267.39L309 211.68C309 211.68 309.21 201.07 312.6 199.85C315.99 198.63 324.99 199.94 324.99 199.94" fill="#7CCCDB"/>
<path d="M327.88 205.8L331.47 267.12L320.1 267.39L309 211.68C309 211.68 309.21 201.07 312.6 199.85C315.99 198.63 324.99 199.94 324.99 199.94" stroke="#2855AF" stroke-linecap="round" stroke-linejoin="round"/>
<path d="M278.18 73.8105L292.29 113.361C292.29 113.361 290.43 122.311 284.83 121.941C279.23 121.571 277.74 113.731 276.25 112.611C274.76 111.491 272.52 102.911 272.52 102.911L278.18 73.8105Z" fill="white" stroke="#2855AF" stroke-linecap="round" stroke-linejoin="round"/>
<path d="M241.682 65.8799L218.742 74.1599L227.542 137.77H268.932L278.182 73.8099L253.422 66.0599L241.682 65.8799Z" fill="white" stroke="#2855AF" stroke-linecap="round" stroke-linejoin="round"/>
<path d="M243.891 76.7807L247.201 81.7708L244.331 124.091L248.551 135.111L252.881 124.391L249.171 82.4007L252.151 75.1908L248.021 69.7607L243.891 76.7807Z" fill="#7CCCDB" stroke="#2855AF" stroke-linecap="round" stroke-linejoin="round"/>
<path d="M248.472 74.72L242.562 79.1499L238.672 67.6L241.382 61.75L253.472 61.46L256.422 64.11L255.832 78.85L248.472 74.72Z" fill="white" stroke="#2855AF" stroke-linecap="round" stroke-linejoin="round"/>
<path d="M254.72 58.7499L253.8 66.1799L247.18 74.7199L242.23 66.0599V52.1299C242.23 52.1299 250.9 54.2999 254.72 58.7499Z" fill="white" stroke="#2855AF" stroke-linecap="round" stroke-linejoin="round"/>
<path d="M238.832 43.3098C238.832 36.5598 243.752 31.0898 249.832 31.0898C255.912 31.0898 259.282 36.8598 259.282 43.6098C259.282 45.7898 258.832 49.5299 258.652 51.5199C258.342 54.9199 257.312 56.3599 255.302 59.4099C248.712 69.4099 243.302 54.7398 240.532 49.8098C239.411 47.8275 238.825 45.5873 238.832 43.3098V43.3098Z" fill="white" stroke="#2855AF" stroke-linecap="round" stroke-linejoin="round"/>
<path d="M254.61 45.4307L255.54 52.4007L252.27 52.3107" fill="white"/>
<path d="M254.61 45.4307L255.54 52.4007L252.27 52.3107" stroke="#2855AF" stroke-linecap="round" stroke-linejoin="round"/>
<path d="M261.91 44.2207L246.19 44.2907C245.997 44.902 245.967 45.5533 246.104 46.1797C246.241 46.806 246.54 47.3856 246.97 47.8607C247.97 48.8607 252.04 48.5107 252.69 48.2507C253.34 47.9907 253.69 45.1307 253.69 45.1307H254.86C254.86 45.1307 254.99 48.1307 256.67 48.3807C258.35 48.6307 260.54 48.5507 260.96 48.2507C262.82 47.0007 261.91 44.2207 261.91 44.2207Z" fill="white" stroke="#2855AF" stroke-linecap="round" stroke-linejoin="round"/>
<path d="M240.77 50.9403C240.77 50.9403 244.31 58.1903 245.15 60.7003C245.99 63.2103 250.15 65.1703 254.36 63.7703C258.57 62.3703 257.43 56.1403 257.43 56.1403C257.43 56.1403 252.96 52.3203 252.13 53.1403C251.3 53.9603 246.82 57.6103 246.54 56.7703C246.26 55.9303 244.31 50.9103 244.31 50.9103L243.4 47.3503L245.27 46.1503C245.54 45.9255 245.716 45.6073 245.762 45.2591C245.808 44.9108 245.722 44.5579 245.52 44.2703L244.64 43.0003C244.532 42.8448 244.456 42.6691 244.416 42.4836C244.377 42.2981 244.375 42.1066 244.41 41.9203C244.64 40.8303 245.27 38.5703 246.73 37.9203C248.73 37.0903 251.16 38.3003 253.4 38.8603C255.64 39.4203 258.07 37.4003 258.07 37.4003L259.07 40.7203C261.288 38.6395 262.863 35.9677 263.61 33.0203C264.73 28.2703 253.28 26.3203 249.61 26.3203C245.94 26.3203 240.12 28.3203 238.44 33.5803C236.76 38.8403 239.78 50.0003 240.77 50.9403Z" fill="#2855AF" stroke="#2855AF" stroke-linecap="round" stroke-linejoin="round"/>
<path d="M249.829 33.0508C249.829 33.0508 251.909 36.1708 249.179 36.8208C246.449 37.4708 241.129 35.1308 238.789 36.0408" stroke="white" stroke-width="0.5" stroke-linecap="round" stroke-linejoin="round"/>
<path d="M245.152 39.9301C245.152 39.9301 240.872 39.4101 239.152 41.2301" stroke="white" stroke-width="0.5" stroke-linecap="round" stroke-linejoin="round"/>
<path d="M255.452 55.7006C255.452 55.7006 252.302 57.3406 250.742 55.3906" stroke="white" stroke-width="0.5" stroke-linecap="round" stroke-linejoin="round"/>
<path d="M241.301 48.7299C241.301 48.7299 238.211 45.3299 238.211 49.0399C238.211 52.7499 239.141 52.7499 240.991 54.0399C242.841 55.3299 243.471 53.7299 243.471 53.7299" fill="white"/>
<path d="M241.301 48.7299C241.301 48.7299 238.211 45.3299 238.211 49.0399C238.211 52.7499 239.141 52.7499 240.991 54.0399C242.841 55.3299 243.471 53.7299 243.471 53.7299" stroke="#2855AF" stroke-linecap="round" stroke-linejoin="round"/>
<path d="M282.56 279.24H282.7L282.43 277.88L268.93 137.78H227.54L213.93 279.23H214.08L222.86 279.98C222.86 279.98 232.6 247.28 232.6 244.84C232.6 242.4 235.38 219.84 235.38 219.84L249.19 171.29L261.4 219.84C261.4 219.84 264.18 242.45 264.18 244.84C264.18 247.23 273.93 280 273.93 280L282.19 279.29H282.56V279.24Z" fill="#2855AF" stroke="white" stroke-linecap="round" stroke-linejoin="round"/>
<path d="M265.839 146.021L256.629 159.171" stroke="white" stroke-width="0.5" stroke-linecap="round" stroke-linejoin="round"/>
<path d="M260.91 148.98L255.32 158.19" stroke="white" stroke-width="0.5" stroke-linecap="round" stroke-linejoin="round"/>
<path d="M234.609 148.33L242.819 157.2" stroke="white" stroke-width="0.5" stroke-linecap="round" stroke-linejoin="round"/>
<path d="M233.949 151.61L245.779 163.45" stroke="white" stroke-width="0.5" stroke-linecap="round" stroke-linejoin="round"/>
<path d="M230 139.12H266.5" stroke="white" stroke-width="0.5" stroke-linecap="round" stroke-linejoin="round"/>
<path d="M214.081 279.23C214.081 279.23 208.811 283.38 205.771 284.52C202.731 285.66 197.051 288.69 197.051 288.69C197.051 288.69 197.051 290.59 201.981 290.59H221.331L221.001 279.23H214.081Z" fill="#2855AF" stroke="white" stroke-linecap="round" stroke-linejoin="round"/>
<path d="M221.262 288.52C213.535 288.873 205.794 288.75 198.082 288.15L197.082 288.69C197.082 288.69 197.082 290.59 202.012 290.59H221.362L221.262 288.52Z" fill="white" stroke="#2855AF" stroke-linecap="round" stroke-linejoin="round"/>
<path d="M281.76 279.23C281.76 279.23 287.04 283.38 290.07 284.52C293.1 285.66 298.8 288.69 298.8 288.69C298.8 288.69 298.8 290.59 293.86 290.59H274.52L274.87 279.23H281.76Z" fill="#2855AF" stroke="white" stroke-linecap="round" stroke-linejoin="round"/>
<path d="M274.58 288.52C282.306 288.873 290.048 288.75 297.76 288.15L298.76 288.69C298.76 288.69 298.76 290.59 293.82 290.59H274.52L274.58 288.52Z" fill="white" stroke="#2855AF" stroke-linecap="round" stroke-linejoin="round"/>
<path d="M218.74 74.1602L203.5 114.85H218.12L223.58 103.75L218.74 74.1602Z" fill="white" stroke="#2855AF" stroke-linecap="round" stroke-linejoin="round"/>
<path d="M285.41 108.55C279.31 106.03 259.74 104.78 258.72 104.78C257.7 104.78 225.89 102.16 223.28 101.78C220.67 101.4 217.68 107.38 217.68 107.38L231.48 107L248.27 110.36C248.27 110.36 282.27 122.67 284.83 121.93C285.179 121.814 285.494 121.615 285.75 121.35" fill="white"/>
<path d="M285.41 108.55C279.31 106.03 259.74 104.78 258.72 104.78C257.7 104.78 225.89 102.16 223.28 101.78C220.67 101.4 217.68 107.38 217.68 107.38L231.48 107L248.27 110.36C248.27 110.36 282.27 122.67 284.83 121.93C285.179 121.814 285.494 121.615 285.75 121.35" stroke="#2855AF" stroke-linecap="round" stroke-linejoin="round"/>
<path d="M214.323 106.64L266.923 101.42L267.303 105.89L221.783 119.7C221.783 119.7 213.583 121.56 207.233 120.44C200.883 119.32 203.883 112.98 205.373 109.25" fill="white"/>
<path d="M214.323 106.64L266.923 101.42L267.303 105.89L221.783 119.7C221.783 119.7 213.583 121.56 207.233 120.44C200.883 119.32 203.883 112.98 205.373 109.25" stroke="#2855AF" stroke-linecap="round" stroke-linejoin="round"/>
<path d="M266.93 101.42L277 101.04L279.98 107.01L267.3 105.9L266.93 101.42Z" fill="white" stroke="#2855AF" stroke-linecap="round" stroke-linejoin="round"/>
<path d="M334 189.159L342.59 291.429C342.613 291.582 342.666 291.728 342.747 291.859C342.829 291.99 342.936 292.103 343.062 292.191C343.188 292.279 343.332 292.34 343.483 292.371C343.634 292.401 343.789 292.401 343.94 292.369C344.197 292.305 344.423 292.151 344.575 291.934C344.728 291.717 344.797 291.453 344.77 291.189L338.92 189.189L334 189.159Z" fill="#2855AF" stroke="#2855AF" stroke-linecap="round" stroke-linejoin="round"/>
<path d="M391.73 189.159L400.35 291.769C400.372 291.922 400.424 292.069 400.505 292.201C400.586 292.333 400.693 292.446 400.82 292.534C400.947 292.623 401.09 292.684 401.242 292.714C401.393 292.744 401.55 292.742 401.7 292.709C401.958 292.645 402.183 292.491 402.336 292.274C402.488 292.057 402.557 291.793 402.53 291.529L396.66 189.159H391.73Z" fill="#2855AF" stroke="#2855AF" stroke-linecap="round" stroke-linejoin="round"/>
<path d="M153.491 189.159L149.001 290.539C148.976 290.805 149.047 291.071 149.201 291.289C149.355 291.508 149.582 291.664 149.841 291.729C149.99 291.767 150.145 291.773 150.295 291.746C150.446 291.719 150.59 291.66 150.716 291.573C150.842 291.486 150.948 291.372 151.027 291.24C151.105 291.109 151.154 290.962 151.171 290.809L158.441 189.159H153.491Z" fill="#2855AF" stroke="#2855AF" stroke-linecap="round" stroke-linejoin="round"/>
<path d="M100.282 189.159L95.7618 290.159C95.7394 290.426 95.8126 290.692 95.9683 290.91C96.124 291.128 96.352 291.284 96.6118 291.349C96.7602 291.386 96.9147 291.39 97.065 291.362C97.2154 291.335 97.3581 291.276 97.4839 291.189C97.6096 291.102 97.7154 290.989 97.7943 290.858C97.8733 290.727 97.9235 290.581 97.9418 290.429L105.182 189.119L100.282 189.159Z" fill="#2855AF" stroke="white" stroke-linecap="round" stroke-linejoin="round"/>
<path d="M402.972 183.489H97.082V192.269H402.972V183.489Z" fill="#7CCCDB" stroke="#2855AF" stroke-linecap="round" stroke-linejoin="round"/>
<path d="M402.972 183.489H97.082V186.499H402.972V183.489Z" fill="#2855AF" stroke="#2855AF" stroke-linecap="round" stroke-linejoin="round"/>
<path d="M402.962 183.489H326.422V192.269H402.962V183.489Z" fill="#2855AF" stroke="#2855AF" stroke-linecap="round" stroke-linejoin="round"/>
<path d="M405.692 180.569H94.3516V183.919H405.692V180.569Z" fill="#7CCCDB" stroke="#2855AF" stroke-linecap="round" stroke-linejoin="round"/>
<path d="M405.683 180.569H329.613V183.919H405.683V180.569Z" fill="#2855AF" stroke="#2855AF" stroke-linecap="round" stroke-linejoin="round"/>
<path d="M163.7 180.27H205.48C205.64 180.271 205.796 180.225 205.929 180.138C206.063 180.051 206.167 179.926 206.23 179.78L217.8 153.4C217.854 153.276 217.875 153.141 217.863 153.007C217.851 152.873 217.806 152.744 217.731 152.632C217.657 152.519 217.555 152.428 217.437 152.364C217.318 152.301 217.185 152.269 217.05 152.27H175.27C175.114 152.27 174.961 152.315 174.829 152.4C174.698 152.485 174.594 152.607 174.53 152.75L163 179.13C162.947 179.25 162.923 179.382 162.931 179.513C162.94 179.645 162.98 179.772 163.049 179.884C163.118 179.997 163.214 180.09 163.327 180.158C163.441 180.225 163.569 180.263 163.7 180.27V180.27Z" fill="white" stroke="#2855AF" stroke-linecap="round" stroke-linejoin="round"/>
<path d="M167.621 178.209H203.271C203.404 178.209 203.535 178.17 203.647 178.098C203.758 178.025 203.847 177.921 203.901 177.799L213.771 155.289C213.824 155.183 213.849 155.065 213.844 154.946C213.838 154.827 213.802 154.712 213.738 154.611C213.675 154.511 213.587 154.428 213.482 154.372C213.377 154.315 213.26 154.287 213.141 154.289H177.491C177.355 154.288 177.221 154.328 177.107 154.402C176.993 154.477 176.904 154.584 176.851 154.709L167.001 177.239C166.955 177.343 166.935 177.458 166.943 177.571C166.952 177.685 166.989 177.795 167.05 177.891C167.111 177.987 167.196 178.066 167.295 178.122C167.395 178.177 167.507 178.207 167.621 178.209V178.209Z" fill="#7CCCDB" stroke="#2855AF" stroke-linecap="round" stroke-linejoin="round"/>
<path d="M206.063 178.52H143.293V180.57H206.063V178.52Z" fill="white" stroke="#2855AF" stroke-linecap="round" stroke-linejoin="round"/>
<path d="M206.071 178.52H175.641V180.57H206.071V178.52Z" fill="white" stroke="#2855AF" stroke-linecap="round" stroke-linejoin="round"/>
<path d="M226.23 164.25H215.16V180.61H226.23V164.25Z" fill="white" stroke="#2855AF" stroke-linecap="round" stroke-linejoin="round"/>
<path d="M225.74 178.379H224.58C224.338 178.379 224.107 178.283 223.936 178.113C223.766 177.942 223.67 177.711 223.67 177.469C223.67 177.228 223.766 176.996 223.936 176.826C224.107 176.655 224.338 176.559 224.58 176.559H225.74C226.198 176.557 226.636 176.374 226.96 176.05C227.284 175.726 227.467 175.287 227.47 174.829V170.829C227.467 170.371 227.284 169.933 226.96 169.609C226.636 169.285 226.198 169.102 225.74 169.099H224.25C224.13 169.099 224.012 169.076 223.902 169.03C223.791 168.984 223.691 168.917 223.606 168.833C223.522 168.748 223.455 168.648 223.409 168.538C223.363 168.427 223.34 168.309 223.34 168.189C223.34 168.07 223.363 167.951 223.409 167.841C223.455 167.731 223.522 167.63 223.606 167.546C223.691 167.461 223.791 167.394 223.902 167.349C224.012 167.303 224.13 167.279 224.25 167.279H225.74C226.206 167.279 226.668 167.371 227.098 167.55C227.529 167.728 227.92 167.989 228.25 168.319C228.58 168.649 228.841 169.04 229.02 169.471C229.198 169.901 229.29 170.363 229.29 170.829V174.829C229.29 175.295 229.198 175.757 229.02 176.188C228.841 176.619 228.58 177.01 228.25 177.34C227.92 177.669 227.529 177.931 227.098 178.109C226.668 178.287 226.206 178.379 225.74 178.379V178.379Z" fill="white" stroke="#2855AF" stroke-linecap="round" stroke-linejoin="round"/>
<path d="M312.722 180.27H270.942C270.785 180.269 270.631 180.222 270.499 180.135C270.368 180.048 270.265 179.924 270.202 179.78L258.632 153.4C258.579 153.277 258.558 153.143 258.569 153.009C258.581 152.876 258.625 152.748 258.699 152.636C258.772 152.524 258.872 152.432 258.989 152.368C259.107 152.304 259.239 152.27 259.372 152.27H301.152C301.31 152.269 301.465 152.314 301.598 152.399C301.731 152.484 301.837 152.606 301.902 152.75L313.472 179.13C313.525 179.254 313.546 179.389 313.534 179.524C313.522 179.658 313.477 179.787 313.402 179.9C313.328 180.013 313.227 180.106 313.109 180.17C312.99 180.235 312.857 180.269 312.722 180.27V180.27Z" fill="white" stroke="#2855AF" stroke-linecap="round" stroke-linejoin="round"/>
<path d="M270.363 180.569H333.133V178.519H270.363V180.569Z" fill="white" stroke="#2855AF" stroke-linecap="round" stroke-linejoin="round"/>
<path d="M270.361 180.569H313.641V178.519H270.361V180.569Z" fill="white" stroke="#2855AF" stroke-linecap="round" stroke-linejoin="round"/>
<path d="M286.74 163.22C286.967 163.648 287.062 164.134 287.013 164.616C286.965 165.098 286.775 165.554 286.468 165.929C286.161 166.304 285.751 166.579 285.288 166.722C284.825 166.864 284.33 166.866 283.866 166.728C283.401 166.591 282.988 166.319 282.678 165.947C282.367 165.575 282.173 165.12 282.12 164.639C282.067 164.157 282.158 163.671 282.38 163.241C282.602 162.81 282.947 162.455 283.37 162.22C283.95 161.907 284.63 161.836 285.262 162.024C285.893 162.211 286.425 162.641 286.74 163.22V163.22Z" fill="white" stroke="#2855AF" stroke-linecap="round" stroke-linejoin="round"/>
<path d="M91.3699 85.5701L94.4499 116L108.45 156.53L103.66 159.27L87.2199 122.17L79.0099 90.3201C79.0099 90.3201 78.3199 80.7401 81.7499 79.3201C85.1799 77.9001 89.9999 79.4101 91.3699 85.5701Z" fill="white" stroke="#2855AF" stroke-linecap="round" stroke-linejoin="round"/>
<path d="M108.489 156.57C108.489 156.57 111.569 163.08 111.919 164.79C112.269 166.5 112.619 169.99 111.269 171.55C109.639 173.43 108.149 171.98 108.149 171.98C108.149 171.98 104.039 170.98 104.039 167.53C104.039 164.08 103.699 159.31 103.699 159.31L108.489 156.57Z" fill="white" stroke="#2855AF" stroke-linecap="round" stroke-linejoin="round"/>
<path d="M105.129 166.78L110.899 168.28" stroke="#2855AF" stroke-linecap="round" stroke-linejoin="round"/>
<path d="M106.512 162.89L108.152 165.47C108.152 165.47 104.332 172 106.382 170.29C108.432 168.58 112.262 166.5 111.922 164.79C111.343 162.996 110.579 161.266 109.642 159.63" fill="white"/>
<path d="M106.512 162.89L108.152 165.47C108.152 165.47 104.332 172 106.382 170.29C108.432 168.58 112.262 166.5 111.922 164.79C111.343 162.996 110.579 161.266 109.642 159.63" stroke="#2855AF" stroke-linecap="round" stroke-linejoin="round"/>
<path d="M75.0024 49.0007C75.0024 49.0007 71.4824 45.2007 63.3624 47.6407C55.2424 50.0807 53.3624 63.0807 53.6124 69.5707C53.8624 76.0607 60.1124 83.3807 58.2224 86.6307C56.3324 89.8807 49.2824 97.4607 49.8224 105.631C50.3624 113.801 57.1324 120.251 66.8824 117.271C76.6324 114.291 75.0024 102.361 73.0624 98.0007C71.1224 93.6407 75.2324 91.7707 76.5824 82.2907C77.9324 72.8107 69.2724 64.9607 69.2724 58.1907C69.2724 51.4207 76.2724 52.5107 76.2724 52.5107L75.0024 49.0007Z" fill="#2855AF" stroke="#2855AF" stroke-linecap="round" stroke-linejoin="round"/>
<path d="M62.7988 74.7002C64.0788 77.3402 65.5688 80.1602 67.0488 83.2002C71.9888 93.2802 68.1288 96.9202 60.6188 102.5C53.1088 108.08 54.8288 114.94 56.7588 116" stroke="white" stroke-width="0.5" stroke-linecap="round" stroke-linejoin="round"/>
<path d="M72.4193 51.6699C72.4193 51.6699 62.3393 52.5299 59.7593 58.9599C58.1993 62.8699 59.3993 67.2499 61.6993 72.3499" stroke="white" stroke-width="0.5" stroke-linecap="round" stroke-linejoin="round"/>
<path d="M65.0508 113.49C65.8263 113.782 66.6533 113.911 67.4808 113.87" stroke="white" stroke-width="0.5" stroke-linecap="round" stroke-linejoin="round"/>
<path d="M75.0006 51C75.0006 51 65.5606 52.71 63.4206 59.57C61.2806 66.43 73.9306 76.57 74.5706 84.03C75.2106 91.49 66.2006 95.85 63.0006 101.64C60.7506 105.7 61.0006 110.17 63.3706 112.42" stroke="white" stroke-width="0.5" stroke-linecap="round" stroke-linejoin="round"/>
<path d="M99.2214 189.07C99.2214 189.07 96.8914 209.19 94.5514 215.61C92.2114 222.03 86.9714 272.48 86.6814 275.4C86.3914 278.32 94.2614 285.02 97.4714 287.07C100.681 289.12 99.2214 289.69 95.7214 289.98C92.2214 290.27 88.1414 289.69 86.3914 286.48C84.6414 283.27 80.5514 282.4 80.5514 282.4L79.9714 289.4H78.8014L77.9314 280.65C77.634 278.664 77.937 276.634 78.8014 274.82C80.2614 271.61 80.8014 264.9 80.8014 255.82C80.8014 246.74 79.0514 232.19 79.9214 225.19C80.7914 218.19 84.3014 212.94 84.3014 207.11C84.3014 201.28 84.5914 192.53 84.5914 192.53L99.2214 189.07Z" fill="white" stroke="#2855AF" stroke-linecap="round" stroke-linejoin="round"/>
<path d="M77.9295 280.65C77.6972 279.145 77.824 277.607 78.2995 276.16C80.1095 279.22 85.2995 283.37 89.2995 285.02C91.4683 285.959 93.8327 286.357 96.1895 286.18C96.6595 286.53 97.0995 286.83 97.4695 287.07C100.679 289.07 99.2195 289.69 95.7195 289.98C92.2195 290.27 88.1395 289.69 86.3895 286.48C84.6395 283.27 80.5495 282.4 80.5495 282.4L79.9695 289.4H78.7995L77.9295 280.65Z" fill="#2855AF" stroke="#2855AF" stroke-linecap="round" stroke-linejoin="round"/>
<path d="M82.3006 192.28C82.3006 192.28 77.3006 207.15 72.6806 219.98C68.0606 232.81 56.9306 262.27 55.7606 267.52C54.5906 272.77 54.0106 282.4 50.7606 287.36C47.5106 292.32 44.3406 294.65 44.9206 285.9C45.5006 277.15 50.7606 270.73 51.9206 264.02C53.0806 257.31 53.6706 233.11 57.7506 222.32C61.8306 211.53 66.2106 202.78 66.7506 199.57C67.1494 196.376 67.3432 193.16 67.3306 189.94L82.3006 192.28Z" fill="white" stroke="#2855AF" stroke-linecap="round" stroke-linejoin="round"/>
<path d="M45.519 282.15C45.5621 283.8 46.0756 285.403 46.999 286.77C48.679 288.65 51.389 285 52.799 282.77C52.3377 284.379 51.6651 285.919 50.799 287.35C47.589 292.3 44.379 294.64 44.959 285.89C45.0555 284.632 45.2426 283.382 45.519 282.15V282.15Z" fill="#2855AF" stroke="#2855AF" stroke-linecap="round" stroke-linejoin="round"/>
<path d="M80.002 74.9004C80.002 74.9004 78.252 76.3604 77.082 86.2804C75.912 96.2004 83.212 127.11 83.212 127.11C83.212 127.11 70.672 147.65 67.752 157.86C64.832 168.07 63.082 206.32 63.082 206.32C63.082 206.32 69.212 208.66 81.752 209.53C94.292 210.4 101.002 207.2 101.002 207.2C101.002 207.2 101.582 152.61 101.582 144.2C101.582 135.79 102.172 116.66 103.042 114.33C103.912 112 106.542 105.87 106.542 103.54C106.542 101.21 89.002 76.3604 89.002 76.3604L80.002 74.9004Z" fill="white" stroke="#2855AF" stroke-linecap="round" stroke-linejoin="round"/>
<path d="M67.7208 157.86C70.0208 149.86 79.5408 128.58 82.9408 124.92C88.1108 126.64 97.5408 128.34 101.751 127.08C101.621 130.08 101.551 141.28 101.551 144.15C101.551 152.61 100.971 207.15 100.971 207.15C100.971 207.15 94.2608 210.36 81.7208 209.48C69.1808 208.6 63.0508 206.27 63.0508 206.27C63.0508 206.27 64.8008 168.07 67.7208 157.86Z" fill="#2855AF" stroke="#2855AF" stroke-linecap="round" stroke-linejoin="round"/>
<path d="M86.4688 40.5202C86.4688 40.5202 89.5987 33.7002 95.7887 33.7002C101.979 33.7002 104.729 39.2002 103.359 44.0102C101.989 48.8202 107.479 47.4502 108.169 50.5502C108.859 53.6502 103.699 55.7002 100.949 55.7002C98.1987 55.7002 86.4688 40.5202 86.4688 40.5202Z" fill="#2855AF" stroke="#2855AF" stroke-linecap="round" stroke-linejoin="round"/>
<path d="M95.5117 39.8201C97.3517 38.8201 99.5117 38.1001 100.512 39.6601C102.442 42.6601 96.4417 45.0201 98.3717 48.2401C100.302 51.4601 105.022 50.6001 104.802 51.6701C104.582 52.7401 101.592 53.3801 101.592 53.3801" stroke="white" stroke-width="0.5" stroke-linecap="round" stroke-linejoin="round"/>
<path d="M92.3594 42.0001C92.3594 42.0001 92.9494 41.4901 93.8294 40.8701" stroke="white" stroke-width="0.5" stroke-linecap="round" stroke-linejoin="round"/>
<path d="M102.341 56.3901C101.904 56.0647 101.559 55.6303 101.341 55.1301C100.841 51.4401 99.7614 47.8101 97.7214 45.7701C94.6353 42.8649 90.6995 41.025 86.4913 40.5201C85.2453 40.3364 83.9733 40.453 82.7814 40.8601C77.4714 42.7201 72.9114 46.3901 73.8914 55.2401C74.9714 64.9901 82.5613 67.4301 82.5613 67.4301L83.1013 73.4301L90.6814 76.9501L90.9513 70.4501C90.9513 70.4501 96.0913 72.6101 97.9513 72.3401C99.8113 72.0701 100.391 69.6301 101.201 66.1101C101.499 64.5039 101.646 62.8736 101.641 61.2401L103.911 58.9801C105.201 57.6701 103.931 57.3501 102.341 56.3901Z" fill="white" stroke="#2855AF" stroke-linecap="round" stroke-linejoin="round"/>
<path d="M73.8725 55.2401C72.8725 46.3901 77.4525 42.7201 82.7625 40.8601C83.9545 40.453 85.2264 40.3364 86.4725 40.5201C89.3415 40.9037 92.1034 41.8628 94.5925 43.3401C93.0725 43.0301 95.6625 47.5001 93.2825 50.3401C91.1984 52.9765 88.5412 55.1036 85.5125 56.5601C85.5125 56.5601 82.8125 54.3901 81.9925 57.3701C81.1725 60.3501 81.4525 62.5101 83.6225 63.0601C85.7925 63.6101 86.6225 63.0601 86.6225 63.0601C86.6225 63.0601 85.1825 66.4701 82.6225 67.8801V67.3901C82.6225 67.3901 75.0025 65.0001 73.8725 55.2401Z" fill="#2855AF" stroke="#2855AF" stroke-linecap="round" stroke-linejoin="round"/>
<path d="M94.5506 75.1904L93.1006 83.0704L77.6406 74.9003L79.1006 67.6104L94.5506 75.1904Z" fill="white" stroke="#2855AF" stroke-linecap="round" stroke-linejoin="round"/>
<path d="M87.0795 141.63C88.6805 141.973 90.3052 142.193 91.9395 142.29C93.2095 142.21 94.9395 140.78 96.2195 141.39C97.4995 142 99.2895 145.85 99.2895 145.85C99.2895 145.85 100.99 146.71 100.5 147.62C100.01 148.53 97.9095 149.37 97.9095 149.37C97.9095 149.37 95.9095 151.26 94.7495 151.45C93.5895 151.64 86.5195 146.45 86.5195 146.45L87.0795 141.63Z" fill="white" stroke="#2855AF" stroke-linecap="round" stroke-linejoin="round"/>
<path d="M87.8313 145.37C88.0653 145.089 88.2335 144.759 88.3234 144.404C88.4132 144.05 88.4225 143.679 88.3506 143.321C88.2787 142.962 88.1273 142.624 87.9077 142.332C87.688 142.039 87.4056 141.799 87.0813 141.63L67.6513 123.43L88.8113 90.5301C89.7554 88.7906 89.9846 86.7516 89.4504 84.8459C88.9161 82.9401 87.6604 81.3174 85.9495 80.3222C84.2387 79.3269 82.2075 79.0373 80.2867 79.5149C78.3659 79.9925 76.7068 81.1996 75.6613 82.8802L57.3213 119.33C56.3677 120.256 55.8164 121.519 55.7864 122.847C55.7565 124.176 56.2503 125.463 57.1613 126.43L57.2313 126.5C59.0713 129.34 79.3113 144.19 85.2313 146.13C85.6911 146.276 86.184 146.281 86.647 146.146C87.11 146.011 87.5223 145.741 87.8313 145.37V145.37Z" fill="white" stroke="#2855AF" stroke-linecap="round" stroke-linejoin="round"/>
<path d="M164.708 95.0008C164.708 95.0008 167.218 102.771 167.218 104.281C167.2 105.371 167.117 106.46 166.968 107.541L169.178 110.971C169.308 111.191 169.348 111.453 169.29 111.703C169.233 111.952 169.082 112.169 168.868 112.311L165.458 114.311C165.458 114.311 164.958 122.311 164.458 123.311C163.958 124.311 155.458 124.071 155.458 124.071L152.698 129.331L138.398 123.821L142.158 113.531L141.378 98.0008C141.378 98.0008 150.158 90.2408 164.708 95.0008Z" fill="white" stroke="#2855AF" stroke-linecap="round" stroke-linejoin="round"/>
<path d="M154.917 113.9C154.917 113.9 152.427 116.24 150.557 116.4C148.687 116.56 142.607 115.15 142.137 114.53C141.667 113.91 137.467 105.18 137.617 100.97C137.767 96.7604 137.937 90.5304 142.447 88.5104C146.957 86.4904 154.137 87.1004 157.877 84.7704C161.617 82.4404 167.537 80.5604 170.657 84.6104C173.777 88.6604 171.437 94.2704 168.947 96.6104C166.457 98.9504 163.337 99.6104 163.647 100.61C163.957 101.61 165.827 102.79 164.737 104.35C163.647 105.91 159.737 107.35 159.737 107.93C159.737 108.51 160.677 110.74 159.587 111.05C158.497 111.36 157.397 108.87 156.307 108.87C155.217 108.87 152.897 111.88 154.917 113.9Z" fill="#2855AF" stroke="#2855AF" stroke-linecap="round" stroke-linejoin="round"/>
<path d="M148.41 106.75C147.96 107.253 147.577 107.81 147.27 108.41" stroke="white" stroke-width="0.5" stroke-linecap="round" stroke-linejoin="round"/>
<path d="M168.886 90.6006C168.689 92.3169 168.063 93.956 167.067 95.3677C166.071 96.7794 164.737 97.9185 163.186 98.6806C159.186 100.751 153.856 102.441 150.316 105.041" stroke="white" stroke-width="0.5" stroke-linecap="round" stroke-linejoin="round"/>
<path d="M163.65 100.66C163.65 100.66 160.1 103.66 156.3 106.75C153.707 108.757 150.824 110.359 147.75 111.5" stroke="white" stroke-width="0.5" stroke-linecap="round" stroke-linejoin="round"/>
<path d="M154.668 114.32L156.668 114.82C156.547 115.755 156.618 116.705 156.878 117.611C157.138 118.518 157.58 119.361 158.178 120.09" fill="white"/>
<path d="M154.668 114.32L156.668 114.82C156.547 115.755 156.618 116.705 156.878 117.611C157.138 118.518 157.58 119.361 158.178 120.09" stroke="#2855AF" stroke-linecap="round" stroke-linejoin="round"/>
<path d="M156.988 108.95L171.108 105.45" stroke="#2855AF" stroke-linecap="round" stroke-linejoin="round"/>
<path d="M167.477 105.17L170.697 105.31C170.697 105.31 171.807 108.95 168.457 109.37" stroke="#2855AF" stroke-linecap="round" stroke-linejoin="round"/>
<path d="M153.237 278.06C153.237 278.06 166.237 286.27 168.527 286.27C170.817 286.27 171.957 288.33 170.817 288.56C169.677 288.79 162.597 289.01 157.817 289.24C153.037 289.47 149.817 289.01 147.087 289.01C144.357 289.01 141.147 289.24 139.777 288.56C138.407 287.88 140.697 280.11 140.697 278.74C140.697 277.37 151.637 277.14 153.237 278.06Z" fill="#2855AF" stroke="white" stroke-linecap="round" stroke-linejoin="round"/>
<path d="M169.999 286.61C164.949 288.27 156.759 287.18 151.839 286.73C147.949 286.38 141.839 286.3 139.349 286.28C139.249 287.45 139.349 288.34 139.739 288.56C141.109 289.24 144.309 289.01 147.049 289.01C149.789 289.01 152.979 289.47 157.779 289.24C162.579 289.01 169.649 288.78 170.779 288.56C171.669 288.38 171.249 287.2 169.999 286.61Z" fill="white" stroke="#2855AF" stroke-linecap="round" stroke-linejoin="round"/>
<path d="M163.51 221.66L153.25 273.11L155.39 278.45C153.854 280.674 151.537 282.238 148.9 282.83C145.967 283.407 142.988 283.715 140 283.75C140 283.75 138.86 278.04 139.55 277.35C140.24 276.66 140.46 273.93 140.46 273.93L146.39 222.11L163.51 221.66Z" fill="#7CCCDB" stroke="#2855AF" stroke-linecap="round" stroke-linejoin="round"/>
<path d="M194.778 276.321C194.778 276.321 202.778 282.941 206.428 284.081C210.078 285.221 213.958 286.361 213.958 287.501C213.958 288.641 205.288 289.781 198.668 289.101C192.048 288.421 181.998 285.451 179.718 285.451C177.438 285.451 177.888 279.511 177.888 278.601C177.888 277.691 189.078 270.381 194.778 276.321Z" fill="#2855AF" stroke="white" stroke-linecap="round" stroke-linejoin="round"/>
<path d="M213.997 287.5C213.997 287.09 213.487 286.68 212.677 286.27C206.143 287.145 199.518 287.098 192.997 286.13C186.427 285.19 180.927 283.93 178.117 283.23C178.357 284.46 178.827 285.45 179.757 285.45C182.037 285.45 192.087 288.45 198.707 289.1C205.327 289.75 213.997 288.64 213.997 287.5Z" fill="white" stroke="#2855AF" stroke-linecap="round" stroke-linejoin="round"/>
<path d="M155.069 198.601C161.914 198.077 168.794 198.231 175.609 199.061C187.249 200.431 213.259 202.061 213.709 205.001C214.159 207.941 193.529 269.731 193.529 271.321C193.529 272.911 195.349 274.521 195.809 275.431C196.099 276.079 196.255 276.78 196.269 277.491C196.269 277.491 190.679 283.491 186.339 285.121C181.999 286.751 178.339 285.221 177.439 285.221C176.539 285.221 176.529 279.061 177.219 276.091C177.909 273.121 179.039 265.591 179.269 264.911C179.499 264.231 191.999 220.291 191.999 220.291C191.999 220.291 157.999 225.771 137.689 223.481C117.379 221.191 115.319 218.011 114.179 213.211C113.039 208.411 115.319 198.831 115.319 198.831L155.069 198.601Z" fill="#7CCCDB" stroke="#2855AF" stroke-linecap="round" stroke-linejoin="round"/>
<path d="M152.497 213.391C152.036 214.058 151.521 214.687 150.957 215.271" stroke="#2855AF" stroke-linecap="round" stroke-linejoin="round"/>
<path d="M158.717 201.11C157.405 204.397 155.893 207.6 154.188 210.7" stroke="#2855AF" stroke-linecap="round" stroke-linejoin="round"/>
<path d="M155.999 203.4C153.245 207.944 149.074 211.457 144.129 213.4" stroke="#2855AF" stroke-linecap="round" stroke-linejoin="round"/>
<path d="M207.816 216C208.596 215.7 209.346 215.39 210.056 215.07Z" fill="white"/>
<path d="M207.816 216C208.596 215.7 209.346 215.39 210.056 215.07" stroke="#2855AF" stroke-linecap="round" stroke-linejoin="round"/>
<path d="M192 220.29C196.392 219.442 200.733 218.343 205 217Z" fill="white"/>
<path d="M192 220.29C196.392 219.442 200.733 218.343 205 217" stroke="#2855AF" stroke-linecap="round" stroke-linejoin="round"/>
<path d="M218.387 144.481C218.867 142.571 219.667 142.721 219.027 142.091C218.147 141.211 217.437 142.251 214.887 143.681C212.337 145.111 209.798 146.861 209.798 146.861C209.853 146.33 210.074 145.83 210.427 145.431C211.072 144.376 211.418 143.166 211.427 141.931C211.427 140.931 210.627 141.131 210.307 142.091C209.987 143.051 207.127 144.791 206.967 145.591C206.807 146.391 206.238 149.531 206.238 149.531C205.328 150.901 205.327 157.291 205.327 157.291L186.798 171.211L177.438 182.211C177.438 182.211 181.547 188.831 183.827 187.921C186.107 187.011 187.247 186.091 192.727 181.521C197.367 177.651 208.997 159.801 208.997 159.801C211.023 158.528 212.94 157.09 214.727 155.501C216.79 153.168 218.008 150.209 218.188 147.101C218.145 146.222 218.212 145.342 218.387 144.481V144.481Z" fill="white" stroke="#2855AF" stroke-linecap="round" stroke-linejoin="round"/>
<path d="M132.647 123.361C132.647 123.361 134.407 116.761 141.887 118.081C149.367 119.401 155.087 125.561 156.407 127.761C157.727 129.961 132.207 126.881 132.207 126.881L132.647 123.361Z" fill="white" stroke="#2855AF" stroke-linecap="round" stroke-linejoin="round"/>
<path d="M175.769 181C175.769 181 174.029 182.88 175.769 185.84C176.959 187.89 179.059 189.46 183.079 188.77C186.839 188.11 192.489 178.77 192.489 172.2C192.489 165.63 187.649 165.2 185.889 166.48C184.129 167.76 175.769 181 175.769 181Z" fill="white" stroke="#2855AF" stroke-linecap="round" stroke-linejoin="round"/>
<path d="M135.889 122.59C135.889 122.59 118.089 131.04 115.579 132.59C113.069 134.14 111.469 154.04 111.469 157.47C111.469 160.9 113.979 194.47 114.659 200.15C115.339 205.83 137.259 209.74 144.569 207.68C151.879 205.62 158.999 200.43 158.999 198.6C158.999 196.77 158.309 181.26 158.769 178.29C159.229 175.32 163.329 162.77 163.329 162.77L175.789 182.65C175.789 182.65 177.099 185.09 181.729 183.17C188.349 180.43 188.899 169.84 188.899 169.84C188.899 169.84 181.599 157.06 179.539 150.67C177.479 144.28 176.539 139.48 175.659 138.34C174.779 137.2 154.199 127.61 150.549 125.1C148.482 123.543 146.073 122.503 143.523 122.067C140.973 121.63 138.355 121.81 135.889 122.59V122.59Z" fill="white" stroke="#2855AF" stroke-linecap="round" stroke-linejoin="round"/>
<path d="M163.278 162.771L157.348 154.091" stroke="#2855AF" stroke-linecap="round" stroke-linejoin="round"/>
<path d="M162.317 161.531L151.867 156.381" stroke="#2855AF" stroke-linecap="round" stroke-linejoin="round"/>
<path d="M131.348 227.001L140.468 291.821C140.489 291.971 140.541 292.115 140.621 292.244C140.701 292.373 140.806 292.484 140.932 292.569C141.057 292.655 141.199 292.714 141.348 292.741C141.497 292.769 141.65 292.766 141.798 292.731C142.054 292.667 142.279 292.515 142.433 292.3C142.587 292.086 142.66 291.824 142.638 291.561L136.208 225.931L131.348 227.001Z" fill="#2855AF" stroke="#2855AF" stroke-linecap="round" stroke-linejoin="round"/>
<path d="M105.148 227.511L89.9081 291.171C89.8732 291.318 89.8696 291.472 89.8973 291.621C89.9251 291.77 89.9837 291.912 90.0693 292.037C90.155 292.162 90.2658 292.268 90.3947 292.348C90.5237 292.428 90.6679 292.48 90.8181 292.501V292.501C91.0788 292.54 91.3448 292.482 91.5658 292.338C91.7869 292.194 91.9477 291.975 92.0181 291.721L109.718 229.941L105.148 227.511Z" fill="#2855AF" stroke="#2855AF" stroke-linecap="round" stroke-linejoin="round"/>
<path d="M132.829 226.721L123.129 291.451C123.107 291.6 123.115 291.752 123.154 291.898C123.193 292.044 123.262 292.18 123.356 292.298C123.449 292.416 123.566 292.514 123.7 292.585C123.833 292.656 123.979 292.699 124.129 292.711V292.711C124.392 292.725 124.652 292.644 124.859 292.482C125.067 292.321 125.209 292.089 125.259 291.831L137.569 228.751L132.829 226.721Z" fill="#2855AF" stroke="#2855AF" stroke-linecap="round" stroke-linejoin="round"/>
<path d="M167.168 227L176.288 291.82C176.309 291.97 176.361 292.115 176.441 292.243C176.521 292.372 176.627 292.483 176.752 292.569C176.877 292.655 177.019 292.713 177.168 292.741C177.317 292.769 177.47 292.765 177.618 292.73C177.874 292.667 178.1 292.514 178.253 292.3C178.407 292.085 178.48 291.823 178.458 291.56L171.998 225.91L167.168 227Z" fill="#2855AF" stroke="#2855AF" stroke-linecap="round" stroke-linejoin="round"/>
<path d="M90.7163 159.731L101.816 231.901H180.756C180.756 231.901 181.926 211.101 178.446 203.751C174.966 196.401 131.996 212.161 130.446 211.751C129.296 211.461 130.996 174.201 133.106 159.641C133.254 158.616 133.18 157.571 132.888 156.577C132.596 155.584 132.094 154.665 131.416 153.882C130.738 153.099 129.899 152.472 128.957 152.042C128.015 151.612 126.992 151.39 125.956 151.391H97.8563C96.8128 151.39 95.7815 151.615 94.8334 152.051C93.8853 152.486 93.0429 153.122 92.3643 153.915C91.6857 154.708 91.1869 155.638 90.9024 156.642C90.6179 157.646 90.5544 158.7 90.7163 159.731V159.731Z" fill="#7CCCDB" stroke="white" stroke-linecap="round" stroke-linejoin="round"/>
<path d="M178.449 203.751C174.969 196.401 131.999 212.161 130.449 211.751C129.299 211.461 130.999 174.201 133.109 159.641C133.294 158.629 133.253 157.589 132.99 156.595C132.726 155.6 132.247 154.676 131.586 153.888C130.926 153.1 130.099 152.467 129.166 152.035C128.233 151.602 127.216 151.381 126.187 151.386C125.158 151.391 124.144 151.623 123.215 152.065C122.286 152.507 121.466 153.148 120.813 153.943C120.161 154.738 119.691 155.667 119.438 156.663C119.185 157.66 119.155 158.701 119.349 159.711L130.449 231.881H180.759C180.759 231.881 181.929 211.101 178.449 203.751Z" fill="#2855AF" stroke="white" stroke-linecap="round" stroke-linejoin="round"/>
<path d="M218.387 144.48C218.387 144.48 217.117 145.75 215.207 147.98Z" fill="white"/>
<path d="M218.387 144.48C218.387 144.48 217.117 145.75 215.207 147.98" stroke="#2855AF" stroke-linecap="round" stroke-linejoin="round"/>
<path d="M218.188 147.061C218.188 147.061 216.637 150.211 215.688 151.641Z" fill="white"/>
<path d="M218.188 147.061C218.188 147.061 216.637 150.211 215.688 151.641" stroke="#2855AF" stroke-linecap="round" stroke-linejoin="round"/>
<path d="M4.3608 183.54C6.0208 184.26 10.0708 184.17 10.0808 184.17C10.0908 184.17 9.2108 181.52 9.1308 181.36C8.2408 179.49 5.4208 176.42 3.1308 176.73C2.75171 176.792 2.38992 176.933 2.06908 177.144C1.74824 177.355 1.47556 177.631 1.26886 177.955C1.06217 178.279 0.926107 178.643 0.869576 179.022C0.813045 179.402 0.837313 179.79 0.940796 180.16C1.3208 181.74 2.9408 182.92 4.3608 183.54Z" fill="#2855AF"/>
<path d="M57.5108 169.73C55.2108 169.48 52.5108 172.63 51.6408 174.52C51.5708 174.68 50.7308 177.36 50.7708 177.36C50.3308 177.85 49.8708 178.36 49.3808 178.98C48.4808 180.08 47.4808 181.34 46.4708 182.78C45.383 184.324 44.3814 185.926 43.4708 187.58C42.4444 189.435 41.5812 191.376 40.8908 193.38C40.8952 193.403 40.8952 193.427 40.8908 193.45C40.8908 192.78 40.8908 190.88 40.8908 190.74C40.6208 188.69 38.8908 184.89 36.6308 184.47C36.2543 184.409 35.8693 184.428 35.5005 184.525C35.1317 184.622 34.7873 184.796 34.4896 185.034C34.1919 185.273 33.9474 185.571 33.7719 185.909C33.5965 186.248 33.4939 186.619 33.4708 187C33.3308 188.63 34.4708 190.26 35.6608 191.28C36.9608 192.44 40.5608 193.56 40.8508 193.65C40.1969 195.729 39.689 197.851 39.3308 200C39.1008 201.24 38.9208 202.49 38.7508 203.75C38.7508 203.16 38.7508 202.64 38.7508 202.57C38.4908 200.52 36.7508 196.72 34.5008 196.3C34.1214 196.241 33.7337 196.262 33.3629 196.362C32.9921 196.462 32.6465 196.639 32.3486 196.882C32.0506 197.124 31.8069 197.426 31.6333 197.769C31.4597 198.111 31.36 198.487 31.3408 198.87C31.2108 200.5 32.3408 202.13 33.5408 203.16C34.7408 204.19 37.7508 205.22 38.5408 205.47C38.4808 205.96 38.4108 206.47 38.3508 206.92C38.0808 209.24 37.8108 211.56 37.4808 213.82C37.3608 214.62 37.2208 215.4 37.0808 216.18C37.0808 215.66 37.0808 215.23 37.0808 215.18C36.8108 213.13 35.0808 209.33 32.8208 208.91C32.4413 208.852 32.0539 208.875 31.6837 208.976C31.3134 209.078 30.9686 209.256 30.6716 209.499C30.3746 209.742 30.1321 210.045 29.9597 210.388C29.7873 210.731 29.6889 211.107 29.6708 211.49C29.5408 213.11 30.6708 214.74 31.8708 215.77C33.3639 216.757 34.9996 217.509 36.7208 218C36.5508 218.8 36.3808 219.59 36.1808 220.36C36.0308 220.88 35.9308 221.36 35.7508 221.9C35.5708 222.44 35.4208 222.9 35.2608 223.42C34.9108 224.37 34.5608 225.36 34.2008 226.28C33.9508 226.93 33.7008 227.54 33.4608 228.15C33.5808 227.36 33.7908 225.8 33.8008 225.67C33.7726 223.853 33.2804 222.073 32.3708 220.5C32.3956 220.301 32.3956 220.099 32.3708 219.9C32.3255 219.515 32.1987 219.144 31.9989 218.812C31.7991 218.48 31.5309 218.194 31.2121 217.974C30.8933 217.754 30.5312 217.604 30.15 217.534C29.7687 217.464 29.377 217.477 29.0008 217.57C26.7608 218.16 25.3508 222.08 25.2408 224.14C25.2408 224.26 25.3208 225.59 25.3808 226.43C25.2708 225.94 25.1608 225.43 25.0408 224.97C24.8108 223.97 24.5408 222.97 24.2708 221.97C24.1108 221.46 23.9608 220.97 23.8008 220.44C23.6408 219.91 23.4408 219.44 23.2608 218.88C22.8208 217.67 22.3208 216.47 21.7808 215.27C22.6408 215.06 25.7008 214.27 26.9308 213.34C28.1608 212.41 29.4508 210.86 29.4408 209.23C29.4527 208.842 29.3816 208.456 29.2323 208.097C29.0829 207.738 28.8588 207.416 28.5748 207.151C28.2909 206.886 27.9536 206.684 27.5856 206.56C27.2176 206.436 26.8273 206.392 26.4408 206.43C24.1408 206.68 22.1408 210.34 21.7308 212.36C21.7308 212.49 21.5608 213.97 21.5008 214.79C21.1808 214.07 20.8508 213.35 20.5008 212.63C19.5008 210.57 18.3608 208.5 17.2708 206.44L16.2708 204.54C16.5808 204.47 20.2708 203.63 21.6108 202.54C22.9508 201.45 24.1308 200.07 24.1208 198.43C24.1311 198.042 24.0589 197.657 23.909 197.299C23.7591 196.941 23.5349 196.619 23.2513 196.355C22.9677 196.09 22.6312 195.888 22.2639 195.764C21.8966 195.639 21.507 195.593 21.1208 195.63C18.8208 195.88 16.8308 199.54 16.4108 201.56C16.4108 201.72 16.1808 203.85 16.1608 204.4C15.4408 203.01 14.7308 201.61 14.0908 200.21C13.2122 198.318 12.4573 196.37 11.8308 194.38C11.9708 194.38 15.8308 193.48 17.2108 192.38C18.4308 191.44 19.7308 189.9 19.7108 188.27C19.7227 187.882 19.6516 187.496 19.5023 187.137C19.3529 186.778 19.1288 186.456 18.8448 186.191C18.5609 185.926 18.2236 185.724 17.8556 185.6C17.4876 185.476 17.0973 185.432 16.7108 185.47C14.4108 185.72 12.4208 189.38 12.0008 191.4C12.0008 191.56 11.7608 193.86 11.7508 194.28C11.7508 194.16 11.6708 194.05 11.6308 193.93C11.0625 191.918 10.671 189.86 10.4608 187.78C10.3408 186.63 10.2808 185.53 10.2408 184.45C10.9708 184.36 14.2408 183.92 15.6708 183.09C17.1008 182.26 18.4508 180.9 18.6708 179.28C18.7229 178.9 18.6943 178.512 18.5871 178.144C18.4799 177.775 18.2963 177.433 18.0483 177.14C17.8003 176.846 17.4934 176.608 17.1476 176.441C16.8018 176.274 16.4247 176.182 16.0408 176.17C13.7208 176.17 11.3408 179.59 10.7008 181.55C10.7008 181.66 10.4408 182.78 10.2808 183.6C10.2808 183.12 10.2808 182.6 10.2808 182.15C10.2808 180.4 10.3908 178.8 10.5008 177.39C10.5708 176.58 10.6508 175.85 10.7308 175.17C11.4008 174.71 14.0708 172.83 14.8908 171.48C15.7108 170.13 16.3508 168.26 15.7508 166.74C15.622 166.379 15.4186 166.049 15.1539 165.772C14.8892 165.495 14.569 165.277 14.2144 165.131C13.8597 164.986 13.4784 164.917 13.0953 164.929C12.7122 164.941 12.3359 165.033 11.9908 165.2C9.93083 166.26 9.39083 170.39 9.73083 172.43C9.73083 172.6 10.5408 175.3 10.5708 175.28C10.4808 175.93 10.3908 176.63 10.3108 177.4C10.1708 178.82 10.0308 180.4 9.98083 182.18C9.92055 184.068 9.9673 185.958 10.1208 187.84C10.2681 189.952 10.6028 192.047 11.1208 194.1C11.1252 194.123 11.1252 194.147 11.1208 194.17C10.7608 193.6 9.69083 192.04 9.59083 191.93C8.24083 190.37 4.71083 188.14 2.59083 189.05C2.24129 189.209 1.92909 189.439 1.67462 189.726C1.42014 190.014 1.22911 190.351 1.11399 190.718C0.998865 191.084 0.962235 191.47 1.00649 191.851C1.05075 192.233 1.17489 192.6 1.37083 192.93C2.16083 194.36 4.04083 195.07 5.57083 195.29C7.29083 195.54 10.9108 194.49 11.2008 194.41C11.7956 196.483 12.5272 198.514 13.3908 200.49C13.8908 201.64 14.3908 202.79 14.9808 203.93C14.6508 203.44 14.3508 203.01 14.3108 202.93C12.9608 201.37 9.43083 199.14 7.31083 200.05C6.96719 200.225 6.66454 200.471 6.42283 200.772C6.18112 201.072 6.00584 201.421 5.90852 201.794C5.81121 202.167 5.79407 202.557 5.85824 202.937C5.92242 203.317 6.06644 203.68 6.28083 204C7.06083 205.43 8.95083 206.14 10.4708 206.36C11.9908 206.58 15.1208 205.76 15.9408 205.52C16.1608 205.96 16.3708 206.4 16.5908 206.83C17.5908 208.92 18.7008 211 19.6708 213.07C20.0108 213.8 20.3208 214.53 20.6708 215.26L20.0808 214.42C18.7308 212.86 15.2008 210.64 13.0808 211.54C12.7318 211.701 12.4205 211.933 12.167 212.221C11.9135 212.51 11.7235 212.849 11.6094 213.216C11.4953 213.582 11.4596 213.969 11.5047 214.351C11.5497 214.732 11.6744 215.1 11.8708 215.43C12.6608 216.86 14.5408 217.57 16.0608 217.79C17.8679 217.797 19.6655 217.528 21.3908 216.99C21.6908 217.75 21.9908 218.51 22.2408 219.25C22.4108 219.77 22.6008 220.25 22.7308 220.78C22.8608 221.31 23.0208 221.78 23.1608 222.32C23.4008 223.32 23.6508 224.32 23.8608 225.32C24.0108 225.99 24.1408 226.64 24.2708 227.32C23.9308 226.59 23.2708 225.17 23.1808 225.06C22.0808 223.31 18.9308 220.58 16.6908 221.15C16.3222 221.257 15.9801 221.439 15.6865 221.686C15.393 221.933 15.1546 222.239 14.9868 222.584C14.819 222.929 14.7256 223.306 14.7125 223.689C14.6994 224.073 14.767 224.455 14.9108 224.81C15.4708 226.34 17.2208 227.33 18.6908 227.81C20.3208 228.3 23.9108 227.81 24.3608 227.81C24.5808 228.88 24.7708 229.93 24.9508 230.92C25.5508 234.35 25.9508 237.24 26.1608 239.25C26.1608 239.61 26.2408 239.93 26.2708 240.25H19.2708L21.8108 289.82H33.6708L36.2108 240.25H29.7208L29.8708 239.96C30.7608 238.1 31.9908 235.44 33.3208 232.18C33.7508 231.18 34.1808 230.05 34.6108 228.91C35.0508 229 38.6108 229.72 40.2608 229.34C41.7708 229 43.5908 228.15 44.2608 226.67C44.4318 226.326 44.5283 225.95 44.5439 225.566C44.5595 225.182 44.4938 224.799 44.3513 224.442C44.2088 224.086 43.9926 223.763 43.7168 223.495C43.441 223.228 43.1118 223.022 42.7508 222.89C40.5608 222.15 37.2208 224.64 35.9908 226.3C35.9208 226.4 35.2508 227.55 34.8408 228.3L35.3708 226.9C35.7208 225.95 36.0408 224.98 36.3708 223.95L36.8208 222.42C36.9908 221.91 37.1008 221.36 37.2408 220.82C37.5308 219.57 37.7708 218.29 37.9908 216.99C38.8208 217.29 41.8108 218.33 43.3508 218.22C44.8908 218.11 46.8208 217.55 47.7108 216.22C47.9364 215.904 48.0924 215.544 48.1684 215.164C48.2445 214.783 48.2388 214.391 48.1518 214.013C48.0648 213.635 47.8985 213.279 47.6639 212.97C47.4293 212.661 47.1317 212.406 46.7908 212.22C44.7908 211.22 41.0508 213.12 39.5908 214.57C39.5008 214.67 38.5908 215.83 38.0708 216.48C38.1908 215.7 38.3108 214.92 38.4108 214.12C38.7008 211.83 38.9108 209.5 39.1408 207.18C39.2108 206.47 39.2908 205.76 39.3608 205.05C39.6608 205.16 43.1808 206.47 44.9108 206.35C46.4408 206.24 48.3708 205.68 49.2608 204.35C49.4864 204.034 49.6424 203.674 49.7184 203.294C49.7945 202.913 49.7888 202.521 49.7018 202.143C49.6148 201.765 49.4485 201.409 49.2139 201.1C48.9793 200.791 48.6817 200.536 48.3408 200.35C46.3408 199.3 42.6108 201.25 41.1408 202.7C41.0308 202.81 39.6908 204.49 39.3708 204.93C39.5408 203.37 39.7208 201.82 39.9608 200.29C40.2687 198.23 40.713 196.192 41.2908 194.19C41.4308 194.19 45.0908 195.62 46.8708 195.5C48.4008 195.39 50.3308 194.82 51.2208 193.5C51.448 193.185 51.6053 192.825 51.6823 192.444C51.7592 192.063 51.7539 191.67 51.6668 191.292C51.5797 190.913 51.4128 190.557 51.1773 190.248C50.9417 189.94 50.6429 189.684 50.3008 189.5C48.3008 188.44 44.5708 190.39 43.1008 191.85C42.9908 191.96 41.5508 193.77 41.3108 194.11L41.4008 193.76C42.0357 191.766 42.8456 189.832 43.8208 187.98C44.3508 186.98 44.9108 185.98 45.4708 185.08C46.1308 185.41 49.1508 186.88 50.7508 186.94C52.3508 187 54.2708 186.65 55.3108 185.39C55.558 185.103 55.7426 184.767 55.853 184.405C55.9633 184.042 55.997 183.661 55.9519 183.284C55.9067 182.908 55.7837 182.545 55.5907 182.219C55.3977 181.893 55.1389 181.611 54.8308 181.39C52.9008 180.11 49.0308 181.64 47.4208 182.93C47.3308 183 46.5108 183.81 45.9308 184.41C46.1908 184 46.4508 183.57 46.7108 183.19C47.7108 181.73 48.6508 180.46 49.5308 179.33C50.0308 178.7 50.5308 178.14 50.9408 177.62C51.7508 177.62 55.0208 177.5 56.4508 176.83C57.8808 176.16 59.4508 174.95 59.7808 173.36C59.9191 172.972 59.9679 172.558 59.9234 172.149C59.8789 171.739 59.7424 171.345 59.524 170.996C59.3057 170.647 59.0111 170.352 58.6625 170.132C58.3139 169.913 57.9201 169.776 57.5108 169.73V169.73ZM32.0608 231.48C30.6708 234.68 29.3908 237.29 28.4808 239.1L27.9708 240.1H27.8208C27.8208 239.75 27.7208 239.36 27.6608 238.93C27.3808 236.93 26.9408 233.99 26.2508 230.54C26.0408 229.45 25.7908 228.29 25.5208 227.1C26.6016 226.664 27.6567 226.166 28.6808 225.61C30.072 226.818 31.6233 227.827 33.2908 228.61C32.8808 229.58 32.4608 230.56 32.0608 231.48Z" fill="#2855AF"/>
<path d="M45.4003 184.43C45.4003 184.43 46.1403 181.74 46.1603 181.56C46.4503 179.51 45.8003 175.4 43.7103 174.39C43.363 174.235 42.9872 174.154 42.6068 174.151C42.2263 174.149 41.8496 174.226 41.5006 174.378C41.1516 174.529 40.838 174.752 40.5797 175.031C40.3214 175.31 40.1241 175.64 40.0003 176C39.4403 177.53 40.1503 179.41 41.0003 180.71C42.0003 182.27 45.4003 184.43 45.4003 184.43Z" fill="#2855AF"/>
<path d="M421.93 289.58H15.1797V294.56H421.93V289.58Z" fill="#2855AF"/>
</svg>
