<svg width="55" height="55" viewBox="0 0 55 55" fill="none" xmlns="http://www.w3.org/2000/svg">
<g clip-path="url(#clip0)">
<path d="M35.9658 25.0284L23.8149 18.38C23.1163 17.9977 22.2905 18.012 21.6057 18.4177C20.9204 18.8239 20.5117 19.5415 20.5117 20.3379V33.5206C20.5117 34.3132 20.9179 35.0295 21.5985 35.4361C21.9539 35.6485 22.348 35.7551 22.7428 35.7551C23.1045 35.7551 23.4671 35.6657 23.8007 35.4861L35.9519 28.9522C36.6732 28.5641 37.1235 27.8142 37.1268 26.9947C37.1298 26.1752 36.685 25.422 35.9658 25.0284ZM23.7348 31.8623V22.0097L32.8161 26.9788L23.7348 31.8623Z" fill="#7CCCDB"/>
<path d="M54.5955 16.4922L54.593 16.467C54.5464 16.0243 54.0827 12.0866 52.1684 10.0838C49.9558 7.72808 47.4473 7.4419 46.2409 7.30469C46.1411 7.29336 46.0496 7.28287 45.9678 7.27196L45.8717 7.26189C38.6005 6.73317 27.6196 6.661 27.5097 6.66058L27.5 6.66016L27.4903 6.66058C27.3804 6.661 16.3995 6.73317 9.06288 7.26189L8.96595 7.27196C8.8879 7.28245 8.80188 7.2921 8.70831 7.30301C7.51575 7.44064 5.03414 7.72724 2.81521 10.1682C0.991974 12.1496 0.464935 16.0029 0.410805 16.436L0.40451 16.4922C0.388145 16.6764 0 21.0618 0 25.4644V29.58C0 33.9827 0.388145 38.3681 0.40451 38.5527L0.407448 38.5804C0.454025 39.016 0.917282 42.8815 2.82276 44.8851C4.90322 47.162 7.5338 47.4633 8.94875 47.6252C9.1724 47.6508 9.36501 47.6727 9.49635 47.6957L9.62349 47.7134C13.8218 48.1128 26.9847 48.3096 27.5428 48.3176L27.5596 48.318L27.5764 48.3176C27.6863 48.3172 38.6668 48.245 45.938 47.7163L46.034 47.7062C46.1259 47.6941 46.2292 47.6831 46.3425 47.6714C47.5283 47.5455 49.9965 47.2841 52.1848 44.8763C54.008 42.8945 54.5355 39.0411 54.5892 38.6085L54.5955 38.5523C54.6119 38.3677 55.0004 33.9827 55.0004 29.58V25.4644C55 21.0618 54.6119 16.6768 54.5955 16.4922ZM51.7769 29.58C51.7769 33.6549 51.4211 37.8515 51.3875 38.2367C51.2507 39.2979 50.6947 41.7359 49.8064 42.7015C48.4368 44.2083 47.0298 44.3577 46.0026 44.4664C45.8784 44.4794 45.7634 44.492 45.6593 44.505C38.6266 45.0135 28.0602 45.0916 27.5734 45.0945C27.0275 45.0866 14.0572 44.8881 9.98688 44.51C9.77833 44.476 9.55299 44.45 9.31549 44.4231C8.11077 44.2851 6.46168 44.0963 5.1936 42.7015L5.1638 42.6696C4.291 41.7603 3.75095 39.4805 3.61374 38.2493C3.58814 37.9581 3.22308 33.712 3.22308 29.58V25.4644C3.22308 21.3942 3.57807 17.2022 3.61248 16.809C3.77571 15.559 4.34219 13.2687 5.1936 12.343C6.60519 10.7904 8.09357 10.6184 9.07799 10.5047C9.17198 10.4938 9.25968 10.4837 9.34067 10.4732C16.4758 9.96212 27.1181 9.88617 27.5 9.88323C27.8819 9.88575 38.5204 9.96212 45.5922 10.4732C45.6791 10.4841 45.7739 10.495 45.8759 10.5068C46.8884 10.6222 48.4187 10.7967 49.8232 12.2948L49.8362 12.3086C50.709 13.2179 51.249 15.5376 51.3863 16.7935C51.4106 17.0683 51.7769 21.3237 51.7769 25.4644V29.58Z" fill="#2855AF"/>
</g>
<defs>
<clipPath id="clip0">
<rect width="55.0002" height="55" fill="white"/>
</clipPath>
</defs>
</svg>
