<svg width="172" height="150" viewBox="0 0 172 150" fill="none" xmlns="http://www.w3.org/2000/svg">
<path opacity="0.05" d="M40.6797 149.436C33.7197 149.436 27.5197 147.704 22.0797 144.241C16.6397 140.778 12.3597 135.785 9.23969 129.261C6.19969 122.657 4.67969 114.805 4.67969 105.704C4.67969 96.6035 6.19969 88.7915 9.23969 82.268C12.3597 75.6639 16.6397 70.6304 22.0797 67.1673C27.5197 63.7042 33.7197 61.9727 40.6797 61.9727C47.6397 61.9727 53.8397 63.7042 59.2797 67.1673C64.7197 70.6304 68.9597 75.6639 71.9997 82.268C75.1197 88.7915 76.6797 96.6035 76.6797 105.704C76.6797 114.805 75.1197 122.657 71.9997 129.261C68.9597 135.785 64.7197 140.778 59.2797 144.241C53.8397 147.704 47.6397 149.436 40.6797 149.436ZM40.6797 132.885C45.7997 132.885 49.7997 130.671 52.6797 126.241C55.6397 121.812 57.1197 114.966 57.1197 105.704C57.1197 96.4425 55.6397 89.5968 52.6797 85.1673C49.7997 80.7378 45.7997 78.523 40.6797 78.523C35.6397 78.523 31.6397 80.7378 28.6797 85.1673C25.7997 89.5968 24.3597 96.4425 24.3597 105.704C24.3597 114.966 25.7997 121.812 28.6797 126.241C31.6397 130.671 35.6397 132.885 40.6797 132.885ZM117.822 63.4223V147.986H98.3819V79.127H81.5819V63.4223H117.822Z" fill="#2855AF"/>
<path d="M169 62.4165C169 29.613 142.585 3.02051 110 3.02051C77.4152 3.02051 51 29.613 51 62.4165C51 95.22 77.4152 121.812 110 121.812C142.585 121.812 169 95.22 169 62.4165Z" stroke="#2855AF" stroke-width="6"/>
<path d="M131.526 60.8923C129.654 59.9504 126.146 59.9395 125.997 59.9395C125.552 59.9395 125.191 60.3027 125.191 60.7506C125.191 61.1984 125.552 61.5617 125.997 61.5617C126.903 61.5618 129.531 61.7021 130.805 62.3433C130.921 62.4016 131.044 62.429 131.165 62.429C131.461 62.429 131.745 62.2647 131.886 61.9806C132.085 61.5799 131.924 61.0927 131.526 60.8923Z" fill="#7CCCDB"/>
<path d="M135.541 72.4405L132.214 71.4834C132.07 71.4421 131.97 71.3082 131.97 71.1577V70.0397C132.241 69.8509 132.499 69.6395 132.74 69.4037C133.91 68.2608 134.554 66.7279 134.554 65.0871V63.5443L134.876 62.8966C135.229 62.1856 135.416 61.3896 135.416 60.5947V56.4149C135.416 55.967 135.055 55.6039 134.61 55.6039H126.857C124.038 55.6039 121.744 57.9129 121.744 60.751V60.7994C121.744 61.4604 121.9 62.1223 122.193 62.7134L122.606 63.5442V64.8689C122.606 66.9684 123.633 68.8521 125.19 69.9857V71.1575C125.19 71.3382 125.19 71.4131 124.525 71.6045L122.901 72.0715L118.205 70.3522C118.222 70.1291 118.147 69.9022 117.985 69.7312L116.484 68.1439V65.4793C116.643 65.3477 116.8 65.2125 116.951 65.0695C118.844 63.283 119.93 60.7607 119.93 58.1494V56.0213C120.502 54.769 120.792 53.4436 120.792 52.0787V43.4068C120.792 42.9588 120.431 42.5957 119.986 42.5957H107.926C103.682 42.5957 100.229 46.0719 100.229 50.3445V52.079C100.229 53.4438 100.518 54.7692 101.09 56.0215V57.8525C101.09 60.8844 102.429 63.6158 104.536 65.4166V68.144L103.035 69.7313C102.873 69.9023 102.799 70.1293 102.816 70.3523L97.8586 72.1668C97.4994 72.2983 97.1656 72.4764 96.8626 72.6922L96.0842 72.3004C98.4013 71.2851 99.1353 69.857 99.1705 69.7861C99.284 69.5577 99.284 69.289 99.1705 69.0606C98.5897 67.8912 98.5193 65.7476 98.4628 64.0254C98.444 63.452 98.4262 62.9103 98.3922 62.428C98.1175 58.5377 95.1797 55.6039 91.5585 55.6039C87.9373 55.6039 84.9994 58.5376 84.7249 62.428C84.6908 62.9104 84.673 63.4521 84.6542 64.0257C84.5977 65.7478 84.5272 67.891 83.9465 69.0605C83.8331 69.2889 83.8331 69.5576 83.9465 69.786C83.9817 69.8569 84.7142 71.282 87.0359 72.2985L84.8739 73.3868C83.718 73.9691 83 75.1386 83 76.4394V82.4316C83 82.8795 83.3607 83.2426 83.8057 83.2426C84.2506 83.2426 84.6113 82.8795 84.6113 82.4316V76.4394C84.6113 75.7569 84.9881 75.1432 85.5945 74.8378L88.2868 73.4827L89.2233 74.3787C89.8781 75.0052 90.7182 75.3183 91.5585 75.3183C92.3987 75.3183 93.2391 75.005 93.8938 74.3787L94.8302 73.4828L95.708 73.9247C95.2946 74.5905 95.06 75.3713 95.06 76.1893V82.4318C95.06 82.8797 95.4208 83.2428 95.8657 83.2428C96.3106 83.2428 96.6714 82.8797 96.6714 82.4318V76.1893C96.6714 75.0757 97.3697 74.0719 98.4092 73.6914L103.636 71.7782L105.811 75.0638C106.089 75.4838 106.535 75.7531 107.034 75.8029C107.09 75.8084 107.145 75.8111 107.2 75.8111C107.64 75.8111 108.062 75.6367 108.377 75.3196L109.704 73.9833V82.4319C109.704 82.8798 110.065 83.243 110.51 83.243C110.955 83.243 111.316 82.8798 111.316 82.4319V73.9833L112.643 75.3196C112.958 75.6368 113.38 75.8112 113.82 75.8112C113.875 75.8112 113.931 75.8085 113.986 75.8031C114.485 75.7532 114.931 75.4839 115.209 75.0639L117.385 71.7784L122.611 73.6916C123.65 74.0722 124.349 75.076 124.349 76.1895V82.432C124.349 82.8799 124.71 83.2431 125.154 83.2431C125.599 83.2431 125.96 82.8799 125.96 82.432V76.1895C125.96 75.0617 125.515 74.0041 124.769 73.2219L124.968 73.1647C125.168 73.1069 125.442 73.0279 125.717 72.8922L127.774 74.963V82.432C127.774 82.8799 128.135 83.2431 128.58 83.2431C129.025 83.2431 129.386 82.8799 129.386 82.432V74.963L131.428 72.9066C131.537 72.9621 131.651 73.009 131.771 73.0436L135.099 74.0006C135.858 74.219 136.389 74.927 136.389 75.7223V82.432C136.389 82.8799 136.749 83.2431 137.194 83.2431C137.639 83.2431 138 82.8799 138 82.432V75.7223C138 74.2064 136.989 72.8569 135.541 72.4405ZM88.1686 71.0079C86.6616 70.462 85.9057 69.7341 85.583 69.3368C85.803 68.7577 85.9456 68.0946 86.0422 67.3946C86.4865 68.4671 87.2306 69.3826 88.1686 70.0357V71.0079ZM92.784 73.2029C92.0968 73.8602 91.0203 73.8601 90.3334 73.2028L89.5841 72.4861C89.7105 72.2476 89.78 71.9773 89.78 71.694V70.8295C90.3421 71.0064 90.9396 71.1017 91.5587 71.1017C92.1772 71.1017 92.7743 71.0059 93.3373 70.8301L93.3372 71.6939C93.3372 71.9773 93.4066 72.2477 93.5331 72.4863L92.784 73.2029ZM91.5589 69.4796C89.1531 69.4796 87.196 67.5092 87.196 65.0873C87.196 64.6395 86.8353 64.2763 86.3903 64.2763C86.3452 64.2763 86.3012 64.281 86.2581 64.2882C86.2605 64.2185 86.2627 64.1486 86.2651 64.0795C86.283 63.5218 86.3003 62.995 86.3322 62.5432C86.4351 61.0859 87.0136 59.7429 87.9611 58.7617C88.917 57.7715 90.1947 57.2262 91.5587 57.2262C92.9228 57.2262 94.2003 57.7715 95.1564 58.7617C96.1039 59.7429 96.6823 61.0859 96.7852 62.5432C96.817 62.9949 96.8344 63.5216 96.8527 64.0791C96.8543 64.127 96.8559 64.1757 96.8575 64.2239C95.981 62.8643 94.6272 61.8623 92.8781 61.2966C91.2621 60.7739 89.8723 60.8062 89.8137 60.8077C89.6027 60.8137 89.4025 60.9025 89.256 61.0555L87.8024 62.5732C87.4936 62.8956 87.5028 63.4092 87.8231 63.72C88.1435 64.0309 88.6535 64.0215 88.9623 63.6992L90.1719 62.4364C91.2136 62.4876 94.5648 62.8799 95.8682 65.7692C95.5402 67.8983 93.7224 69.4796 91.5589 69.4796ZM94.9484 71.0105L94.9485 70.0433C95.8858 69.3937 96.631 68.4799 97.0756 67.3993C97.1722 68.0976 97.3147 68.7592 97.5343 69.337C97.2134 69.7306 96.4539 70.4649 94.9484 71.0105ZM102.701 57.8524V55.8401C102.701 55.718 102.674 55.5974 102.621 55.4874C102.103 54.4066 101.84 53.2599 101.84 52.079V50.3446C101.84 46.9663 104.57 44.218 107.926 44.218H119.18V52.0791C119.18 53.26 118.917 54.4067 118.399 55.4875C118.346 55.5975 118.319 55.7181 118.319 55.8402V58.1496C118.319 60.346 117.442 62.3834 115.849 63.8862C115.65 64.0738 115.444 64.2496 115.231 64.4134C115.226 64.4167 115.221 64.4202 115.217 64.4236C113.725 65.5639 111.897 66.1182 109.989 65.9937C105.902 65.7274 102.701 62.1513 102.701 57.8524ZM107.238 74.1723C107.232 74.1779 107.219 74.1912 107.193 74.1884C107.167 74.1859 107.156 74.1704 107.152 74.1636L104.646 70.38L105.453 69.527L109.254 72.1427L107.238 74.1723ZM110.51 71.0423L106.147 68.0401V66.5261C107.276 67.1404 108.54 67.5247 109.885 67.6123C110.097 67.6262 110.308 67.6329 110.518 67.6329C112.059 67.6329 113.542 67.2622 114.873 66.5586V68.0401L110.51 71.0423ZM113.868 74.1639C113.864 74.1706 113.854 74.1861 113.828 74.1887C113.801 74.192 113.788 74.178 113.783 74.1726L111.767 72.1431L115.568 69.5272L116.374 70.3802L113.868 74.1639ZM128.58 73.4796L126.752 71.6391C126.784 71.4932 126.802 71.3335 126.801 71.1573V70.815C127.309 70.9826 127.843 71.0822 128.397 71.0988C128.459 71.1007 128.52 71.1016 128.582 71.1016C129.194 71.1016 129.791 71.0086 130.359 70.8311V71.1577C130.359 71.3195 130.379 71.478 130.417 71.6305L128.58 73.4796ZM131.618 68.2397C130.764 69.0738 129.636 69.5145 128.445 69.4774C126.114 69.407 124.217 67.3397 124.217 64.8692V63.3529C124.217 63.2268 124.188 63.1027 124.132 62.9902L123.634 61.9881C123.452 61.6209 123.356 61.21 123.356 60.7996V60.7511C123.356 58.8074 124.926 57.2261 126.857 57.2261H133.804V60.5948C133.804 61.1392 133.677 61.6844 133.435 62.1713L133.028 62.9902C132.972 63.1028 132.943 63.2268 132.943 63.3529V65.0872C132.943 66.2855 132.473 67.405 131.618 68.2397Z" fill="#2855AF"/>
<path d="M133.747 76.418C133.302 76.418 132.941 76.7811 132.941 77.2291V82.4323C132.941 82.8802 133.302 83.2434 133.747 83.2434C134.192 83.2434 134.553 82.8802 134.553 82.4323V77.2291C134.553 76.7812 134.192 76.418 133.747 76.418Z" fill="#7CCCDB"/>
<path d="M87.251 77.4893C86.806 77.4893 86.4453 77.8524 86.4453 78.3003V82.4314C86.4453 82.8794 86.806 83.2425 87.251 83.2425C87.6959 83.2425 88.0566 82.8794 88.0566 82.4314V78.3003C88.0566 77.8525 87.6959 77.4893 87.251 77.4893Z" fill="#7CCCDB"/>
<path d="M117.111 52.3725C114.064 49.3049 107.689 49.8913 105.089 50.2859C104.27 50.4101 103.676 51.1077 103.676 51.9446V53.8132C103.676 54.2611 104.037 54.6242 104.481 54.6242C104.926 54.6242 105.287 54.2611 105.287 53.8132V51.9445C105.287 51.9169 105.305 51.8934 105.329 51.8898C106.368 51.7322 108.428 51.4891 110.563 51.6323C113.076 51.8008 114.895 52.4356 115.972 53.5194C116.287 53.8362 116.797 53.8362 117.111 53.5194C117.426 53.2027 117.426 52.6891 117.111 52.3725Z" fill="#7CCCDB"/>
<path d="M101.036 78.1523C100.591 78.1523 100.23 78.5155 100.23 78.9634V82.4323C100.23 82.8802 100.591 83.2434 101.036 83.2434C101.481 83.2434 101.842 82.8802 101.842 82.4323V78.9634C101.842 78.5156 101.481 78.1523 101.036 78.1523Z" fill="#7CCCDB"/>
<path d="M119.985 78.1523C119.54 78.1523 119.18 78.5155 119.18 78.9634V82.4323C119.18 82.8802 119.54 83.2434 119.985 83.2434C120.43 83.2434 120.791 82.8802 120.791 82.4323V78.9634C120.791 78.5156 120.43 78.1523 119.985 78.1523Z" fill="#7CCCDB"/>
</svg>
