<svg width="55" height="55" viewBox="0 0 55 55" fill="none" xmlns="http://www.w3.org/2000/svg">
<path d="M27.5004 10.843C19.5612 10.8486 13.1267 17.2831 13.1211 25.2223C13.192 30.4046 15.7135 35.247 19.9184 38.2768V48.6612C19.9218 48.78 19.9459 48.8973 19.9897 49.0077V49.0893C20.0073 49.1313 20.0278 49.1722 20.0509 49.2115L23.638 54.5515C23.8278 54.8324 24.1449 55.0005 24.4839 55H30.415C30.7539 55.0005 31.071 54.8324 31.2608 54.5515L34.848 49.2115C34.871 49.1722 34.8915 49.1313 34.9091 49.0893V49.0077C34.9529 48.8973 34.977 48.78 34.9805 48.6612V38.2768C39.1855 35.247 41.7068 30.4046 41.7777 25.2223C41.7724 17.3227 35.3997 10.9045 27.5004 10.843ZM29.9258 52.9924H25.075L22.8533 49.6905H32.1372L29.9258 52.9924ZM21.9667 47.6523V44.9518H33.034L33.0442 47.6523H21.9667ZM33.5028 36.8806V36.9112C33.215 37.1006 33.0425 37.4227 33.0442 37.7672V42.9442H21.9667V37.7061C21.9684 37.3615 21.7959 37.0395 21.5082 36.8501C17.6066 34.2429 15.2366 29.8837 15.1695 25.1917C15.3652 18.3788 21.047 13.0144 27.86 13.2102C34.3978 13.3981 39.6536 18.6539 39.8415 25.1917C39.7844 29.8947 37.4131 34.2673 33.5028 36.8806Z" fill="#2855AF"/>
<path d="M27.9078 15.4595C27.345 15.4595 26.8887 15.9158 26.8887 16.4786C26.8887 17.0413 27.345 17.4976 27.9078 17.4976C32.1435 17.5032 35.5759 20.9357 35.5815 25.1713C35.5815 25.7341 36.0378 26.1904 36.6005 26.1904C37.1633 26.1904 37.6196 25.7341 37.6196 25.1713C37.614 19.8099 33.2692 15.4651 27.9078 15.4595Z" fill="#2855AF"/>
<path d="M10.3799 24.1523H3.04252C2.47973 24.1523 2.02344 24.6086 2.02344 25.1714C2.02344 25.7342 2.47973 26.1905 3.04252 26.1905H10.3799C10.9427 26.1905 11.399 25.7342 11.399 25.1714C11.399 24.6086 10.9427 24.1523 10.3799 24.1523Z" fill="#7CCCDB"/>
<path d="M51.9581 24.1523H44.6206C44.0579 24.1523 43.6016 24.6086 43.6016 25.1714C43.6016 25.7342 44.0579 26.1905 44.6206 26.1905H51.9581C52.5208 26.1905 52.9771 25.7342 52.9771 25.1714C52.9771 24.6086 52.5208 24.1523 51.9581 24.1523Z" fill="#7CCCDB"/>
<path d="M16.2174 36.575C15.8513 36.1475 15.208 36.0977 14.7805 36.4638C14.7406 36.4979 14.7034 36.5351 14.6693 36.575V36.5546L9.46174 41.7825C9.03423 42.1486 8.98442 42.7919 9.35053 43.2194C9.71663 43.647 10.3599 43.6968 10.7874 43.3307C10.8273 43.2965 10.8645 43.2593 10.8986 43.2194L16.1062 38.0119C16.5337 37.6458 16.5835 37.0025 16.2174 36.575Z" fill="#7CCCDB"/>
<path d="M45.4265 7.13349C45.045 6.80674 44.4823 6.80674 44.1008 7.13349L38.8933 12.341C38.4937 12.7373 38.491 13.3826 38.8873 13.7822C39.08 13.9766 39.3429 14.0853 39.6168 14.0836L39.6066 14.0735C39.8774 14.075 40.1378 13.9686 40.3302 13.7779L45.5377 8.57039C45.9038 8.14289 45.854 7.49959 45.4265 7.13349Z" fill="#7CCCDB"/>
<path d="M45.7399 41.9874C45.6826 41.9098 45.6146 41.8408 45.5378 41.7824L40.3303 36.5545C39.9642 36.127 39.3209 36.0772 38.8934 36.4433C38.4659 36.8094 38.4161 37.4527 38.7822 37.8802C38.8163 37.9201 38.8535 37.9573 38.8934 37.9914L44.1009 43.1989C44.4354 43.6515 45.0736 43.7472 45.5262 43.4127C45.9788 43.0782 46.0745 42.44 45.7399 41.9874Z" fill="#7CCCDB"/>
<path d="M16.1063 12.341L10.8988 7.13349C10.4713 6.76738 9.82796 6.81719 9.46185 7.24469C9.13511 7.62621 9.13511 8.18888 9.46185 8.5704L14.6694 13.7779C15.0969 14.144 15.7402 14.0942 16.1063 13.6667C16.433 13.2852 16.433 12.7225 16.1063 12.341Z" fill="#7CCCDB"/>
<path d="M27.5 0C26.9372 0 26.4809 0.456295 26.4809 1.01908V8.38707C26.464 8.9496 26.9064 9.4194 27.4689 9.43621C27.4793 9.43647 27.4896 9.43672 27.5 9.43672C28.0628 9.43672 28.5191 8.98043 28.5191 8.41764V1.01908C28.5191 0.456295 28.0628 0 27.5 0Z" fill="#7CCCDB"/>
</svg>
