<svg width="55" height="55" viewBox="0 0 55 55" fill="none" xmlns="http://www.w3.org/2000/svg">
<path d="M54.0517 5.6897H0.948276C0.424828 5.6897 0 6.11358 0 6.63797V48.3621C0 48.8865 0.424828 49.3104 0.948276 49.3104H54.0517C54.5752 49.3104 55 48.8865 55 48.3621V6.63797C55 6.11358 54.5752 5.6897 54.0517 5.6897ZM53.1034 47.4138H1.89655V7.58625H53.1034V47.4138Z" fill="#2855AF"/>
<path d="M15.1735 26.6827C18.0857 26.6827 20.4545 24.314 20.4545 21.4027C20.4545 18.4896 18.0857 16.1208 15.1735 16.1208C12.2614 16.1208 9.89258 18.4896 9.89258 21.4018C9.89258 24.314 12.2614 26.6827 15.1735 26.6827ZM15.1735 18.0174C17.0397 18.0174 18.5579 19.5365 18.5579 21.4018C18.5579 23.2671 17.0397 24.7862 15.1735 24.7862C13.3073 24.7862 11.7891 23.268 11.7891 21.4027C11.7891 19.5375 13.3073 18.0174 15.1735 18.0174Z" fill="#2855AF"/>
<path d="M6.63823 43.6207C6.86013 43.6207 7.08392 43.5429 7.26409 43.3846L22.7333 29.7654L32.5025 39.5336C32.8732 39.9044 33.4725 39.9044 33.8433 39.5336C34.2141 39.1629 34.2141 38.5635 33.8433 38.1928L29.285 33.6344L37.9911 24.1004L48.6696 33.8895C49.0556 34.2432 49.6558 34.2167 50.0095 33.8307C50.3632 33.4448 50.3376 32.8445 49.9507 32.4908L38.5714 22.0598C38.3856 21.89 38.1381 21.8056 37.8887 21.8113C37.6374 21.8227 37.4003 21.9336 37.2306 22.1195L27.9431 32.2917L23.4455 27.794C23.0908 27.4403 22.5238 27.4223 22.1482 27.7523L6.01142 41.9603C5.61789 42.3064 5.57995 42.9057 5.92608 43.2992C6.11383 43.5126 6.37556 43.6207 6.63823 43.6207Z" fill="#7CCCDB"/>
</svg>
