<svg width="55" height="55" viewBox="0 0 55 55" fill="none" xmlns="http://www.w3.org/2000/svg">
<path d="M34.6463 26.6997L24.2153 20.0618C23.9232 19.8769 23.5534 19.8645 23.249 20.0305C22.9465 20.1974 22.7578 20.516 22.7578 20.8621V34.138C22.7578 34.4841 22.9465 34.8027 23.25 34.9696C23.3922 35.0474 23.5487 35.0863 23.7061 35.0863C23.8834 35.0863 24.0607 35.036 24.2153 34.9383L34.6463 28.3004C34.9194 28.1259 35.0854 27.8244 35.0854 27.5001C35.0854 27.1758 34.9194 26.8742 34.6463 26.6997ZM24.6544 32.4112V22.5889L32.3705 27.5001L24.6544 32.4112Z" fill="#7CCCDB"/>
<path d="M54.0517 5.6897H44.569H10.431H0.948276C0.424828 5.6897 0 6.11358 0 6.63797V17.069V27.5V37.9311V48.3621C0 48.8865 0.424828 49.3104 0.948276 49.3104H10.431H44.569H54.0517C54.5752 49.3104 55 48.8865 55 48.3621V37.9311V27.5V17.069V6.63797C55 6.11358 54.5752 5.6897 54.0517 5.6897ZM9.48276 26.5518H1.89655V18.0173H9.48276V26.5518ZM1.89655 28.4483H9.48276V36.9828H1.89655V28.4483ZM11.3793 37.9311V27.5V17.069V7.58625H43.6207V17.069V27.5V37.9311V47.4138H11.3793V37.9311ZM53.1034 26.5518H45.5172V18.0173H53.1034V26.5518ZM45.5172 28.4483H53.1034V36.9828H45.5172V28.4483ZM53.1034 7.58625V16.1207H45.5172V7.58625H53.1034ZM1.89655 7.58625H9.48276V16.1207H1.89655V7.58625ZM1.89655 47.4138V38.8794H9.48276V47.4138H1.89655ZM53.1034 47.4138H45.5172V38.8794H53.1034V47.4138Z" fill="#2855AF"/>
</svg>
