<svg width="55" height="55" viewBox="0 0 55 55" fill="none" xmlns="http://www.w3.org/2000/svg">
<g clip-path="url(#clip0)">
<path d="M47.4462 28.0901V23.074C47.4483 23.0336 47.4483 22.9932 47.4462 22.9527C47.4126 22.3344 46.8842 21.8602 46.2659 21.8938H8.73364C8.6932 21.8916 8.65276 21.8916 8.61233 21.8938C7.99401 21.9273 7.51983 22.4557 7.55338 23.074V28.0901C7.52841 28.4368 7.68474 28.7717 7.96645 28.9753L22.1885 41.25V53.8198C22.2062 54.2315 22.4274 54.6075 22.7786 54.8231C22.9549 54.936 23.1594 54.9974 23.3687 55.0001L23.8998 54.882L32.1616 50.7512C32.553 50.5394 32.8008 50.1339 32.8108 49.6889V41.2501L47.0329 28.9754C47.3148 28.7717 47.4711 28.4368 47.4462 28.0901ZM45.0857 27.559L30.8636 39.7747C30.5978 39.9911 30.4456 40.3172 30.4505 40.6599V48.9807L24.5492 51.9313V40.6598C24.554 40.3171 24.4018 39.991 24.1361 39.7746L9.9139 27.559V24.2543H45.0857V27.559Z" fill="#2855AF"/>
<path d="M14.1025 20.5365C16.8921 20.5047 19.1457 18.251 19.1777 15.4614C19.1777 12.6584 16.9055 10.3862 14.1025 10.3862C11.2995 10.3862 9.02734 12.6584 9.02734 15.4614C9.02746 18.2644 11.2996 20.5365 14.1025 20.5365ZM14.1025 12.7469C15.6017 12.7469 16.8171 13.9623 16.8171 15.4615C16.8171 16.9607 15.6017 18.1761 14.1025 18.1761C12.6033 18.1761 11.3879 16.9607 11.3879 15.4615C11.3879 13.9623 12.6033 12.7469 14.1025 12.7469Z" fill="#7CCCDB"/>
<path d="M31.6328 15.0482C31.6328 18.3073 34.2749 20.9495 37.5341 20.9495C40.7933 20.9495 43.4354 18.3073 43.4354 15.0482C43.4354 11.789 40.7933 9.14697 37.5341 9.14697C34.2749 9.14697 31.6328 11.789 31.6328 15.0482ZM33.9938 14.9887C34.0264 13.0662 35.6114 11.5339 37.5341 11.5665C37.554 11.5661 37.5738 11.566 37.5936 11.566C39.5166 11.5662 41.0752 13.1253 41.0749 15.0483C41.0749 17.0037 39.4896 18.5891 37.5341 18.5891C35.5787 18.5891 33.9933 17.0037 33.9933 15.0483C33.9933 15.0284 33.9934 15.0085 33.9938 14.9887Z" fill="#7CCCDB"/>
<path d="M25.6722 14.2812C27.81 14.2496 29.5354 12.5242 29.5672 10.3863C29.5672 8.23525 27.8234 6.49146 25.6722 6.49146C23.5211 6.49146 21.7773 8.23525 21.7773 10.3863C21.7773 12.5375 23.5213 14.2812 25.6722 14.2812ZM25.6722 8.85198C26.5196 8.85198 27.2066 9.53897 27.2066 10.3863C27.2066 11.2337 26.5196 11.9207 25.6722 11.9207C24.8249 11.9207 24.1379 11.2337 24.1379 10.3863C24.1379 9.53897 24.8249 8.85198 25.6722 8.85198Z" fill="#7CCCDB"/>
<path d="M32.7543 7.78968C34.9054 7.78968 36.6492 6.04589 36.6492 3.89478C36.6492 1.74379 34.9054 0 32.7543 0C30.6032 0 28.8594 1.74379 28.8594 3.89489C28.8911 6.03267 30.6165 7.75805 32.7543 7.78968ZM32.7543 2.36052C33.6017 2.36052 34.2887 3.04751 34.2887 3.89489C34.2887 4.74228 33.6017 5.42927 32.7543 5.42927C31.9069 5.42927 31.2199 4.74228 31.2199 3.89489C31.2199 3.04751 31.9069 2.36052 32.7543 2.36052Z" fill="#7CCCDB"/>
</g>
<defs>
<clipPath id="clip0">
<rect width="55" height="55" fill="white"/>
</clipPath>
</defs>
</svg>
