<svg width="392" height="328" viewBox="0 0 392 328" fill="none" xmlns="http://www.w3.org/2000/svg">
<path d="M80.5703 3.39965C80.5703 3.39965 82.5703 0.779649 94.3303 1.39965C106.09 2.01965 139.86 5.99965 155.26 4.99965C170.66 3.99965 195.26 -0.900351 199.48 1.71965C203.7 4.33965 197.84 8.99965 197.84 8.99965L85.1603 8.66965L80.5703 3.39965Z" fill="white" stroke="#2855AF" stroke-linecap="round" stroke-linejoin="round"/>
<path d="M85.1584 8.63984C85.1584 8.63984 85.8084 3.06985 80.5684 3.39985C75.3284 3.72985 73.3584 9.94985 76.3084 16.8298C79.2584 23.7098 81.8784 23.3799 86.4684 39.7598C91.0584 56.1398 88.0984 116.41 88.0984 131.48C88.0984 146.55 88.4284 150.48 88.4284 150.48L99.8984 148.84C99.8984 148.84 97.5984 46.3098 94.3284 29.9298C91.0584 13.5498 85.1584 8.63984 85.1584 8.63984Z" fill="#2855AF" stroke="#2855AF" stroke-linecap="round" stroke-linejoin="round"/>
<path d="M114.67 146.33C114.67 147.64 109.77 291.68 109.77 291.68L115.33 290.68L120.54 148.53L114.67 146.33Z" fill="white" stroke="#2855AF" stroke-linecap="round" stroke-linejoin="round"/>
<path d="M109.77 291.68L114.64 147.53L110.38 146.88L105 289.33L109.77 291.68Z" fill="#2855AF" stroke="#2855AF" stroke-linecap="round" stroke-linejoin="round"/>
<path d="M187.998 136.659C188.098 137.959 201.688 280.659 201.688 280.659L197.348 278.319L182.348 139.249L187.998 136.659Z" fill="#2855AF" stroke="#2855AF" stroke-linecap="round" stroke-linejoin="round"/>
<path d="M201.668 280.67L188.098 137.85L192.298 136.89L206.668 279.67L201.668 280.67Z" fill="white" stroke="#2855AF" stroke-width="0.710934" stroke-linecap="round" stroke-linejoin="round"/>
<path d="M139.539 140C139.539 140.93 136.059 243.33 136.059 243.33L140.009 242.61L143.709 141.55L139.539 140Z" fill="white" stroke="#2855AF" stroke-width="0.710934" stroke-linecap="round" stroke-linejoin="round"/>
<path d="M136.058 243.33L139.518 140.85L136.488 140.39L132.668 241.66L136.058 243.33Z" fill="#2855AF" stroke="#2855AF" stroke-width="0.710934" stroke-linecap="round" stroke-linejoin="round"/>
<path d="M85.1602 8.63965C85.4802 10.2796 94.0002 153.76 94.0002 153.76L210.62 148.19L197.84 8.99965L85.1602 8.63965Z" fill="white" stroke="#2855AF" stroke-linecap="round" stroke-linejoin="round"/>
<path d="M122.51 81.3693L113.11 81.5393L108.82 27.2393L118.23 27.0693L122.51 81.3693Z" fill="#2855AF"/>
<path d="M136.26 81.1192L126.85 81.2892L123.84 43.0792L133.24 42.9092L136.26 81.1192Z" fill="#2855AF"/>
<path d="M150 80.8696L140.6 81.0396L138.59 55.5596L147.99 55.3896L150 80.8696Z" fill="#2855AF"/>
<path d="M164 80.9532L154.387 81L153 66.0496L162.623 66L164 80.9532Z" fill="#2855AF"/>
<path d="M98.9102 30.11L104.7 30" stroke="#2855AF" stroke-width="0.75" stroke-linecap="round" stroke-linejoin="round"/>
<path d="M99.4883 37.4799L105.278 37.3799" stroke="#2855AF" stroke-width="0.75" stroke-linecap="round" stroke-linejoin="round"/>
<path d="M100.07 44.86L105.86 44.75" stroke="#2855AF" stroke-width="0.75" stroke-linecap="round" stroke-linejoin="round"/>
<path d="M100.66 52.2301L106.44 52.1201" stroke="#2855AF" stroke-width="0.75" stroke-linecap="round" stroke-linejoin="round"/>
<path d="M101.238 59.6L107.028 59.5" stroke="#2855AF" stroke-width="0.75" stroke-linecap="round" stroke-linejoin="round"/>
<path d="M101.82 66.9801L107.61 66.8701" stroke="#2855AF" stroke-width="0.75" stroke-linecap="round" stroke-linejoin="round"/>
<path d="M102.398 74.35L108.188 74.25" stroke="#2855AF" stroke-width="0.75" stroke-linecap="round" stroke-linejoin="round"/>
<path d="M102.988 81.7301L108.768 81.6201" stroke="#2855AF" stroke-width="0.75" stroke-linecap="round" stroke-linejoin="round"/>
<path d="M155.589 114.389C155.589 114.129 155.589 113.859 155.589 113.599C155.597 108.205 153.638 102.993 150.079 98.9395L133.309 113.599L155.589 114.389Z" fill="#7CCCDB" stroke="white" stroke-linecap="round" stroke-linejoin="round"/>
<path d="M135.06 91.3798C134.48 91.3798 133.9 91.2998 133.31 91.2998C128.279 91.3029 123.397 93.0071 119.457 96.1353C115.517 99.2636 112.75 103.632 111.607 108.531C110.464 113.431 111.01 118.573 113.159 123.122C115.307 127.671 118.93 131.36 123.44 133.59L133.31 113.59L135.06 91.3798Z" fill="#2855AF" stroke="white" stroke-linecap="round" stroke-linejoin="round"/>
<path d="M133.307 113.6L123.438 133.6C126.504 135.125 129.883 135.916 133.307 135.91C139.085 135.911 144.637 133.668 148.793 129.656C152.949 125.643 155.385 120.173 155.587 114.4L133.307 113.6Z" fill="#7CCCDB" stroke="white" stroke-linecap="round" stroke-linejoin="round"/>
<path d="M150.098 98.9399C146.281 94.5525 140.895 91.838 135.098 91.3799L133.348 113.6L150.098 98.9399Z" fill="#7CCCDB" stroke="white" stroke-linecap="round" stroke-linejoin="round"/>
<path d="M275.241 105.86C275.1 105.343 275.068 104.802 275.149 104.273C275.23 103.743 275.422 103.236 275.711 102.786C276.001 102.335 276.382 101.95 276.83 101.656C277.278 101.362 277.783 101.166 278.311 101.08C281.511 100.65 285.441 104.94 286.681 107.54C286.791 107.76 288.061 111.47 288.001 111.47C287.941 111.47 282.331 111.6 280.001 110.59C278.051 109.73 275.771 108.08 275.241 105.86ZM357.421 95.9997C356.941 98.2297 354.721 99.9297 352.771 100.85C350.821 101.77 346.211 101.92 345.071 101.94C344.461 102.67 343.811 103.46 343.071 104.34C341.861 105.91 340.491 107.69 339.141 109.72C338.781 110.26 338.421 110.86 338.051 111.43C338.871 110.59 340.001 109.43 340.131 109.37C342.381 107.57 347.791 105.42 350.481 107.21C350.919 107.518 351.287 107.916 351.561 108.376C351.835 108.836 352.009 109.349 352.073 109.88C352.136 110.412 352.086 110.952 351.928 111.463C351.769 111.975 351.504 112.447 351.151 112.85C349.701 114.62 346.941 115.1 344.791 115.02C342.641 114.94 338.331 112.88 337.421 112.43C336.631 113.7 335.841 115.04 335.111 116.43C333.747 119.022 332.613 121.729 331.721 124.52L331.891 124.61C332.551 123.75 333.971 121.97 334.111 121.83C336.111 119.83 341.291 117.07 344.161 118.55C344.631 118.809 345.041 119.164 345.364 119.592C345.687 120.02 345.917 120.512 346.037 121.034C346.158 121.557 346.167 122.099 346.065 122.625C345.962 123.152 345.75 123.651 345.441 124.09C344.201 126 341.511 126.79 339.361 126.94C336.891 127.11 331.771 125.18 331.571 125.11C330.772 127.907 330.15 130.753 329.711 133.63C329.381 135.76 329.131 137.93 328.901 140.11C329.351 139.49 331.221 137.11 331.371 137C333.371 135 338.561 132.24 341.421 133.72C341.891 133.979 342.3 134.334 342.623 134.762C342.947 135.19 343.177 135.681 343.298 136.203C343.42 136.725 343.43 137.267 343.329 137.794C343.228 138.32 343.018 138.82 342.711 139.26C341.461 141.17 338.771 141.96 336.621 142.11C334.211 142.28 329.301 140.45 328.881 140.29C328.781 141.29 328.671 142.29 328.571 143.29C328.261 146.53 327.961 149.79 327.571 152.99C327.431 154.09 327.251 155.18 327.081 156.27C327.781 155.37 329.081 153.74 329.211 153.62C331.211 151.62 336.401 148.86 339.211 150.34C339.681 150.597 340.092 150.951 340.416 151.377C340.74 151.804 340.971 152.294 341.093 152.816C341.214 153.338 341.225 153.88 341.123 154.406C341.021 154.932 340.809 155.431 340.501 155.87C339.251 157.78 336.561 158.57 334.411 158.72C332.261 158.87 328.091 157.42 326.931 157C326.631 158.81 326.291 160.6 325.871 162.35C325.681 163.1 325.531 163.87 325.301 164.58C325.071 165.29 324.871 166.01 324.661 166.72C324.171 168.16 323.731 169.5 323.241 170.84C323.001 171.51 322.751 172.14 322.511 172.79C323.081 171.79 324.011 170.16 324.111 170.03C325.821 167.71 330.491 164.23 333.551 165.26C334.054 165.446 334.512 165.735 334.896 166.109C335.28 166.483 335.581 166.933 335.78 167.431C335.979 167.928 336.071 168.462 336.05 168.998C336.03 169.533 335.897 170.059 335.661 170.54C334.721 172.61 332.171 173.8 330.071 174.28C327.761 174.8 322.791 173.79 322.181 173.66C321.581 175.26 320.981 176.8 320.391 178.24C318.531 182.79 316.801 186.5 315.561 189.09L315.361 189.51H324.411L321.291 250.44C321.176 252.67 320.209 254.771 318.591 256.31C316.972 257.849 314.825 258.708 312.591 258.71C310.358 258.708 308.211 257.849 306.592 256.31C304.973 254.771 304.007 252.67 303.891 250.44L300.771 189.51H310.481C310.481 189.09 310.391 188.64 310.331 188.14C310.001 185.32 309.481 181.3 308.641 176.51C308.401 175.12 308.121 173.66 307.821 172.16C307.191 172.25 302.171 172.88 299.911 172.16C297.851 171.53 295.401 170.16 294.621 168.01C294.42 167.514 294.325 166.981 294.343 166.445C294.361 165.91 294.492 165.385 294.727 164.904C294.962 164.422 295.296 163.996 295.707 163.652C296.118 163.309 296.596 163.056 297.111 162.91C300.241 162.11 304.641 165.91 306.171 168.36C306.271 168.52 307.221 170.5 307.691 171.51C307.501 170.61 307.321 169.71 307.111 168.77C306.831 167.42 306.481 166 306.111 164.62L305.511 162.47C305.321 161.74 305.051 161.06 304.821 160.34C304.461 159.34 304.041 158.24 303.631 157.18C302.271 157.56 298.261 158.6 296.191 158.3C294.121 158 291.441 157 290.341 155C290.067 154.54 289.892 154.027 289.829 153.495C289.766 152.963 289.816 152.424 289.975 151.912C290.135 151.401 290.4 150.928 290.754 150.527C291.109 150.125 291.544 149.802 292.031 149.58C295.031 148.32 299.931 151.42 301.811 153.58C301.871 153.65 302.221 154.15 302.631 154.75C302.201 153.75 301.761 152.75 301.281 151.69C299.921 148.8 298.451 145.9 296.991 142.98C296.681 142.37 296.391 141.76 296.081 141.15C294.941 141.48 290.601 142.64 288.441 142.33C286.281 142.02 283.691 141.03 282.591 139.03C282.317 138.57 282.142 138.057 282.079 137.525C282.016 136.993 282.066 136.454 282.225 135.942C282.385 135.431 282.65 134.958 283.004 134.557C283.359 134.155 283.794 133.832 284.281 133.61C287.281 132.34 292.181 135.45 294.061 137.61C294.131 137.68 294.551 138.29 295.011 138.96C294.231 137.37 293.481 135.77 292.791 134.16C291.582 131.401 290.556 128.564 289.721 125.67C289.321 125.79 284.271 127.26 281.861 126.91C279.731 126.6 277.111 125.61 276.011 123.61C275.737 123.15 275.562 122.637 275.499 122.105C275.436 121.573 275.486 121.034 275.645 120.522C275.805 120.011 276.07 119.538 276.424 119.137C276.779 118.735 277.214 118.412 277.701 118.19C280.701 116.93 285.601 120.03 287.481 122.19C287.621 122.34 289.111 124.52 289.621 125.32C289.617 125.287 289.617 125.253 289.621 125.22C288.869 122.36 288.377 119.438 288.151 116.49C287.937 113.859 287.874 111.218 287.961 108.58C288.021 106.12 288.221 103.89 288.421 101.91C288.531 100.84 288.661 99.8597 288.781 98.9097H288.731C288.681 98.9097 287.601 95.1697 287.551 94.9097C287.081 92.0697 287.831 86.2997 290.701 84.8097C291.185 84.5781 291.711 84.4505 292.247 84.4352C292.783 84.4198 293.316 84.5171 293.811 84.7207C294.307 84.9243 294.755 85.2296 295.125 85.617C295.495 86.0045 295.78 86.4653 295.961 86.9697C296.791 89.0897 295.881 91.7497 294.761 93.5797C293.641 95.4097 290.001 98.3097 289.001 98.9997C288.891 99.9997 288.781 101 288.691 102.09C288.531 104.09 288.381 106.3 288.381 108.74C288.381 109.39 288.381 110.09 288.381 110.74C288.601 109.59 288.921 108.02 288.971 107.87C289.861 105.13 293.191 100.36 296.411 100.36C296.947 100.376 297.474 100.504 297.957 100.737C298.439 100.97 298.868 101.302 299.214 101.711C299.56 102.121 299.816 102.598 299.966 103.113C300.115 103.628 300.155 104.169 300.081 104.7C299.851 106.97 297.811 108.9 295.971 110.02C294.131 111.14 289.411 111.8 288.391 111.92C288.441 113.42 288.521 114.92 288.701 116.57C288.995 119.485 289.544 122.37 290.341 125.19H290.531C290.601 124.11 290.811 121.83 290.851 121.65C291.431 118.82 294.211 113.71 297.421 113.37C297.956 113.326 298.494 113.395 299 113.573C299.506 113.751 299.969 114.034 300.359 114.403C300.749 114.772 301.056 115.219 301.262 115.714C301.467 116.21 301.566 116.743 301.551 117.28C301.551 119.55 299.751 121.7 298.041 123.01C296.041 124.52 290.741 125.73 290.541 125.77C291.413 128.549 292.465 131.268 293.691 133.91C294.591 135.91 295.581 137.82 296.591 139.76C296.591 139 296.891 136.02 296.931 135.81C297.511 132.98 300.301 127.87 303.511 127.52C304.046 127.476 304.583 127.545 305.089 127.723C305.594 127.901 306.057 128.184 306.446 128.553C306.835 128.922 307.141 129.369 307.346 129.865C307.55 130.361 307.647 130.894 307.631 131.43C307.631 133.71 305.841 135.86 304.131 137.17C302.211 138.64 297.131 139.83 296.671 139.92L298.051 142.57C299.581 145.45 301.121 148.33 302.551 151.22C303.051 152.22 303.501 153.22 303.961 154.22C304.041 153.08 304.231 151 304.271 150.83C304.851 148 307.641 142.89 310.851 142.55C311.386 142.506 311.923 142.575 312.429 142.753C312.935 142.931 313.397 143.214 313.786 143.583C314.175 143.952 314.481 144.399 314.686 144.895C314.89 145.391 314.987 145.924 314.971 146.46C314.971 148.73 313.181 150.88 311.471 152.19C309.761 153.5 305.471 154.59 304.271 154.88C305.021 156.56 305.731 158.24 306.351 159.88C306.601 160.62 306.901 161.35 307.101 162.06C307.301 162.77 307.531 163.49 307.751 164.2C308.141 165.67 308.501 167.04 308.831 168.42C309.001 169.11 309.141 169.77 309.301 170.42C309.211 169.25 309.101 167.42 309.111 167.23C309.261 164.35 311.241 158.88 314.351 158.05C314.873 157.926 315.415 157.914 315.942 158.014C316.468 158.113 316.968 158.323 317.409 158.628C317.849 158.934 318.221 159.329 318.498 159.787C318.776 160.246 318.954 160.758 319.021 161.29C319.071 161.567 319.091 161.848 319.081 162.13C320.351 164.327 321.04 166.812 321.081 169.35C321.081 169.53 320.781 171.71 320.601 172.81C320.951 171.96 321.291 171.11 321.601 170.21C322.101 168.92 322.601 167.54 323.081 166.21C323.301 165.51 323.531 164.8 323.761 164.09C323.991 163.38 324.161 162.66 324.371 161.94C324.641 160.87 324.881 159.75 325.111 158.64C323.771 158.21 319.851 156.86 318.301 155.47C316.751 154.08 315.051 151.76 315.231 149.47C315.259 148.934 315.398 148.411 315.64 147.933C315.883 147.455 316.223 147.033 316.638 146.695C317.054 146.356 317.536 146.109 318.053 145.968C318.571 145.828 319.112 145.798 319.641 145.88C322.811 146.47 325.211 151.77 325.581 154.63C325.581 154.72 325.581 155.33 325.581 156.06C325.771 154.97 325.971 153.88 326.141 152.76C326.601 149.6 326.971 146.37 327.361 143.13C327.441 142.46 327.531 141.78 327.611 141.13C326.481 140.77 322.221 139.35 320.611 137.89C319.001 136.43 317.361 134.18 317.551 131.89C317.577 131.355 317.715 130.831 317.957 130.353C318.198 129.875 318.537 129.453 318.952 129.115C319.367 128.776 319.848 128.529 320.365 128.388C320.882 128.248 321.422 128.218 321.951 128.3C325.131 128.89 327.521 134.19 327.891 137.05C327.891 137.15 327.891 137.88 327.891 138.7C328.131 136.94 328.391 135.2 328.691 133.47C329.205 130.502 329.917 127.572 330.821 124.7C330.421 124.58 325.391 123.01 323.581 121.4C321.981 119.96 320.331 117.69 320.521 115.4C320.546 114.864 320.683 114.34 320.924 113.861C321.164 113.382 321.504 112.96 321.919 112.621C322.334 112.282 322.816 112.035 323.333 111.895C323.851 111.755 324.392 111.726 324.921 111.81C328.091 112.39 330.491 117.7 330.861 120.56C330.861 120.76 330.931 123.4 330.911 124.35V124.25C331.867 121.447 333.071 118.737 334.511 116.15C335.781 113.838 337.184 111.6 338.711 109.45C340.111 107.45 341.521 105.68 342.771 104.14C343.461 103.31 344.101 102.57 344.711 101.88H344.641C344.581 101.88 345.761 98.1397 345.861 97.8797C347.031 95.2497 350.861 90.8797 354.051 91.1997C354.608 91.2481 355.148 91.4177 355.632 91.6967C356.116 91.9756 356.533 92.3572 356.855 92.8146C357.176 93.272 357.393 93.7941 357.491 94.3444C357.589 94.8946 357.565 95.4596 357.421 95.9997V95.9997ZM320.421 173.43C319.871 173.16 315.641 171.07 313.981 169.28C312.554 170.06 311.081 170.754 309.571 171.36C309.951 173.02 310.301 174.64 310.571 176.16C311.571 180.98 312.141 185.03 312.571 187.88C312.651 188.48 312.721 189.02 312.791 189.52H313.001L313.711 188.14C314.991 185.61 316.781 181.97 318.711 177.5C319.261 176.23 319.831 174.86 320.411 173.44L320.421 173.43ZM337.321 111.82C337.371 111.82 338.321 108.06 338.391 107.82C338.791 104.97 337.881 99.2197 334.971 97.8197C334.482 97.5996 333.952 97.4849 333.416 97.4831C332.879 97.4814 332.349 97.5926 331.858 97.8096C331.368 98.0265 330.928 98.3444 330.569 98.7424C330.209 99.1404 329.937 99.6097 329.771 100.12C329.001 102.26 329.981 104.88 331.151 106.69C332.521 108.81 337.311 111.83 337.311 111.83L337.321 111.82Z" fill="#7CCCDB"/>
<path opacity="0.3" d="M275.241 105.86C275.1 105.343 275.068 104.802 275.149 104.273C275.23 103.743 275.422 103.236 275.711 102.786C276.001 102.335 276.382 101.95 276.83 101.656C277.278 101.362 277.783 101.166 278.311 101.08C281.511 100.65 285.441 104.94 286.681 107.54C286.791 107.76 288.061 111.47 288.001 111.47C287.941 111.47 282.331 111.6 280.001 110.59C278.051 109.73 275.771 108.08 275.241 105.86ZM357.421 95.9997C356.941 98.2297 354.721 99.9297 352.771 100.85C350.821 101.77 346.211 101.92 345.071 101.94C344.461 102.67 343.811 103.46 343.071 104.34C341.861 105.91 340.491 107.69 339.141 109.72C338.781 110.26 338.421 110.86 338.051 111.43C338.871 110.59 340.001 109.43 340.131 109.37C342.381 107.57 347.791 105.42 350.481 107.21C350.919 107.518 351.287 107.916 351.561 108.376C351.835 108.836 352.009 109.349 352.073 109.88C352.136 110.412 352.086 110.952 351.928 111.463C351.769 111.975 351.504 112.447 351.151 112.85C349.701 114.62 346.941 115.1 344.791 115.02C342.641 114.94 338.331 112.88 337.421 112.43C336.631 113.7 335.841 115.04 335.111 116.43C333.747 119.022 332.613 121.729 331.721 124.52L331.891 124.61C332.551 123.75 333.971 121.97 334.111 121.83C336.111 119.83 341.291 117.07 344.161 118.55C344.631 118.809 345.041 119.164 345.364 119.592C345.687 120.02 345.917 120.512 346.037 121.034C346.158 121.557 346.167 122.099 346.065 122.625C345.962 123.152 345.75 123.651 345.441 124.09C344.201 126 341.511 126.79 339.361 126.94C336.891 127.11 331.771 125.18 331.571 125.11C330.772 127.907 330.15 130.753 329.711 133.63C329.381 135.76 329.131 137.93 328.901 140.11C329.351 139.49 331.221 137.11 331.371 137C333.371 135 338.561 132.24 341.421 133.72C341.891 133.979 342.3 134.334 342.623 134.762C342.947 135.19 343.177 135.681 343.298 136.203C343.42 136.725 343.43 137.267 343.329 137.794C343.228 138.32 343.018 138.82 342.711 139.26C341.461 141.17 338.771 141.96 336.621 142.11C334.211 142.28 329.301 140.45 328.881 140.29C328.781 141.29 328.671 142.29 328.571 143.29C328.261 146.53 327.961 149.79 327.571 152.99C327.431 154.09 327.251 155.18 327.081 156.27C327.781 155.37 329.081 153.74 329.211 153.62C331.211 151.62 336.401 148.86 339.211 150.34C339.681 150.597 340.092 150.951 340.416 151.377C340.74 151.804 340.971 152.294 341.093 152.816C341.214 153.338 341.225 153.88 341.123 154.406C341.021 154.932 340.809 155.431 340.501 155.87C339.251 157.78 336.561 158.57 334.411 158.72C332.261 158.87 328.091 157.42 326.931 157C326.631 158.81 326.291 160.6 325.871 162.35C325.681 163.1 325.531 163.87 325.301 164.58C325.071 165.29 324.871 166.01 324.661 166.72C324.171 168.16 323.731 169.5 323.241 170.84C323.001 171.51 322.751 172.14 322.511 172.79C323.081 171.79 324.011 170.16 324.111 170.03C325.821 167.71 330.491 164.23 333.551 165.26C334.054 165.446 334.512 165.735 334.896 166.109C335.28 166.483 335.581 166.933 335.78 167.431C335.979 167.928 336.071 168.462 336.05 168.998C336.03 169.533 335.897 170.059 335.661 170.54C334.721 172.61 332.171 173.8 330.071 174.28C327.761 174.8 322.791 173.79 322.181 173.66C321.581 175.26 320.981 176.8 320.391 178.24C318.531 182.79 316.801 186.5 315.561 189.09L315.361 189.51H324.411L321.291 250.44C321.176 252.67 320.209 254.771 318.591 256.31C316.972 257.849 314.825 258.708 312.591 258.71C310.358 258.708 308.211 257.849 306.592 256.31C304.973 254.771 304.007 252.67 303.891 250.44L300.771 189.51H310.481C310.481 189.09 310.391 188.64 310.331 188.14C310.001 185.32 309.481 181.3 308.641 176.51C308.401 175.12 308.121 173.66 307.821 172.16C307.191 172.25 302.171 172.88 299.911 172.16C297.851 171.53 295.401 170.16 294.621 168.01C294.42 167.514 294.325 166.981 294.343 166.445C294.361 165.91 294.492 165.385 294.727 164.904C294.962 164.422 295.296 163.996 295.707 163.652C296.118 163.309 296.596 163.056 297.111 162.91C300.241 162.11 304.641 165.91 306.171 168.36C306.271 168.52 307.221 170.5 307.691 171.51C307.501 170.61 307.321 169.71 307.111 168.77C306.831 167.42 306.481 166 306.111 164.62L305.511 162.47C305.321 161.74 305.051 161.06 304.821 160.34C304.461 159.34 304.041 158.24 303.631 157.18C302.271 157.56 298.261 158.6 296.191 158.3C294.121 158 291.441 157 290.341 155C290.067 154.54 289.892 154.027 289.829 153.495C289.766 152.963 289.816 152.424 289.975 151.912C290.135 151.401 290.4 150.928 290.754 150.527C291.109 150.125 291.544 149.802 292.031 149.58C295.031 148.32 299.931 151.42 301.811 153.58C301.871 153.65 302.221 154.15 302.631 154.75C302.201 153.75 301.761 152.75 301.281 151.69C299.921 148.8 298.451 145.9 296.991 142.98C296.681 142.37 296.391 141.76 296.081 141.15C294.941 141.48 290.601 142.64 288.441 142.33C286.281 142.02 283.691 141.03 282.591 139.03C282.317 138.57 282.142 138.057 282.079 137.525C282.016 136.993 282.066 136.454 282.225 135.942C282.385 135.431 282.65 134.958 283.004 134.557C283.359 134.155 283.794 133.832 284.281 133.61C287.281 132.34 292.181 135.45 294.061 137.61C294.131 137.68 294.551 138.29 295.011 138.96C294.231 137.37 293.481 135.77 292.791 134.16C291.582 131.401 290.556 128.564 289.721 125.67C289.321 125.79 284.271 127.26 281.861 126.91C279.731 126.6 277.111 125.61 276.011 123.61C275.737 123.15 275.562 122.637 275.499 122.105C275.436 121.573 275.486 121.034 275.645 120.522C275.805 120.011 276.07 119.538 276.424 119.137C276.779 118.735 277.214 118.412 277.701 118.19C280.701 116.93 285.601 120.03 287.481 122.19C287.621 122.34 289.111 124.52 289.621 125.32C289.617 125.287 289.617 125.253 289.621 125.22C288.869 122.36 288.377 119.438 288.151 116.49C287.937 113.859 287.874 111.218 287.961 108.58C288.021 106.12 288.221 103.89 288.421 101.91C288.531 100.84 288.661 99.8597 288.781 98.9097H288.731C288.681 98.9097 287.601 95.1697 287.551 94.9097C287.081 92.0697 287.831 86.2997 290.701 84.8097C291.185 84.5781 291.711 84.4505 292.247 84.4352C292.783 84.4198 293.316 84.5171 293.811 84.7207C294.307 84.9243 294.755 85.2296 295.125 85.617C295.495 86.0045 295.78 86.4653 295.961 86.9697C296.791 89.0897 295.881 91.7497 294.761 93.5797C293.641 95.4097 290.001 98.3097 289.001 98.9997C288.891 99.9997 288.781 101 288.691 102.09C288.531 104.09 288.381 106.3 288.381 108.74C288.381 109.39 288.381 110.09 288.381 110.74C288.601 109.59 288.921 108.02 288.971 107.87C289.861 105.13 293.191 100.36 296.411 100.36C296.947 100.376 297.474 100.504 297.957 100.737C298.439 100.97 298.868 101.302 299.214 101.711C299.56 102.121 299.816 102.598 299.966 103.113C300.115 103.628 300.155 104.169 300.081 104.7C299.851 106.97 297.811 108.9 295.971 110.02C294.131 111.14 289.411 111.8 288.391 111.92C288.441 113.42 288.521 114.92 288.701 116.57C288.995 119.485 289.544 122.37 290.341 125.19H290.531C290.601 124.11 290.811 121.83 290.851 121.65C291.431 118.82 294.211 113.71 297.421 113.37C297.956 113.326 298.494 113.395 299 113.573C299.506 113.751 299.969 114.034 300.359 114.403C300.749 114.772 301.056 115.219 301.262 115.714C301.467 116.21 301.566 116.743 301.551 117.28C301.551 119.55 299.751 121.7 298.041 123.01C296.041 124.52 290.741 125.73 290.541 125.77C291.413 128.549 292.465 131.268 293.691 133.91C294.591 135.91 295.581 137.82 296.591 139.76C296.591 139 296.891 136.02 296.931 135.81C297.511 132.98 300.301 127.87 303.511 127.52C304.046 127.476 304.583 127.545 305.089 127.723C305.594 127.901 306.057 128.184 306.446 128.553C306.835 128.922 307.141 129.369 307.346 129.865C307.55 130.361 307.647 130.894 307.631 131.43C307.631 133.71 305.841 135.86 304.131 137.17C302.211 138.64 297.131 139.83 296.671 139.92L298.051 142.57C299.581 145.45 301.121 148.33 302.551 151.22C303.051 152.22 303.501 153.22 303.961 154.22C304.041 153.08 304.231 151 304.271 150.83C304.851 148 307.641 142.89 310.851 142.55C311.386 142.506 311.923 142.575 312.429 142.753C312.935 142.931 313.397 143.214 313.786 143.583C314.175 143.952 314.481 144.399 314.686 144.895C314.89 145.391 314.987 145.924 314.971 146.46C314.971 148.73 313.181 150.88 311.471 152.19C309.761 153.5 305.471 154.59 304.271 154.88C305.021 156.56 305.731 158.24 306.351 159.88C306.601 160.62 306.901 161.35 307.101 162.06C307.301 162.77 307.531 163.49 307.751 164.2C308.141 165.67 308.501 167.04 308.831 168.42C309.001 169.11 309.141 169.77 309.301 170.42C309.211 169.25 309.101 167.42 309.111 167.23C309.261 164.35 311.241 158.88 314.351 158.05C314.873 157.926 315.415 157.914 315.942 158.014C316.468 158.113 316.968 158.323 317.409 158.628C317.849 158.934 318.221 159.329 318.498 159.787C318.776 160.246 318.954 160.758 319.021 161.29C319.071 161.567 319.091 161.848 319.081 162.13C320.351 164.327 321.04 166.812 321.081 169.35C321.081 169.53 320.781 171.71 320.601 172.81C320.951 171.96 321.291 171.11 321.601 170.21C322.101 168.92 322.601 167.54 323.081 166.21C323.301 165.51 323.531 164.8 323.761 164.09C323.991 163.38 324.161 162.66 324.371 161.94C324.641 160.87 324.881 159.75 325.111 158.64C323.771 158.21 319.851 156.86 318.301 155.47C316.751 154.08 315.051 151.76 315.231 149.47C315.259 148.934 315.398 148.411 315.64 147.933C315.883 147.455 316.223 147.033 316.638 146.695C317.054 146.356 317.536 146.109 318.053 145.968C318.571 145.828 319.112 145.798 319.641 145.88C322.811 146.47 325.211 151.77 325.581 154.63C325.581 154.72 325.581 155.33 325.581 156.06C325.771 154.97 325.971 153.88 326.141 152.76C326.601 149.6 326.971 146.37 327.361 143.13C327.441 142.46 327.531 141.78 327.611 141.13C326.481 140.77 322.221 139.35 320.611 137.89C319.001 136.43 317.361 134.18 317.551 131.89C317.577 131.355 317.715 130.831 317.957 130.353C318.198 129.875 318.537 129.453 318.952 129.115C319.367 128.776 319.848 128.529 320.365 128.388C320.882 128.248 321.422 128.218 321.951 128.3C325.131 128.89 327.521 134.19 327.891 137.05C327.891 137.15 327.891 137.88 327.891 138.7C328.131 136.94 328.391 135.2 328.691 133.47C329.205 130.502 329.917 127.572 330.821 124.7C330.421 124.58 325.391 123.01 323.581 121.4C321.981 119.96 320.331 117.69 320.521 115.4C320.546 114.864 320.683 114.34 320.924 113.861C321.164 113.382 321.504 112.96 321.919 112.621C322.334 112.282 322.816 112.035 323.333 111.895C323.851 111.755 324.392 111.726 324.921 111.81C328.091 112.39 330.491 117.7 330.861 120.56C330.861 120.76 330.931 123.4 330.911 124.35V124.25C331.867 121.447 333.071 118.737 334.511 116.15C335.781 113.838 337.184 111.6 338.711 109.45C340.111 107.45 341.521 105.68 342.771 104.14C343.461 103.31 344.101 102.57 344.711 101.88H344.641C344.581 101.88 345.761 98.1397 345.861 97.8797C347.031 95.2497 350.861 90.8797 354.051 91.1997C354.608 91.2481 355.148 91.4177 355.632 91.6967C356.116 91.9756 356.533 92.3572 356.855 92.8146C357.176 93.272 357.393 93.7941 357.491 94.3444C357.589 94.8946 357.565 95.4596 357.421 95.9997V95.9997ZM320.421 173.43C319.871 173.16 315.641 171.07 313.981 169.28C312.554 170.06 311.081 170.754 309.571 171.36C309.951 173.02 310.301 174.64 310.571 176.16C311.571 180.98 312.141 185.03 312.571 187.88C312.651 188.48 312.721 189.02 312.791 189.52H313.001L313.711 188.14C314.991 185.61 316.781 181.97 318.711 177.5C319.261 176.23 319.831 174.86 320.411 173.44L320.421 173.43ZM337.321 111.82C337.371 111.82 338.321 108.06 338.391 107.82C338.791 104.97 337.881 99.2197 334.971 97.8197C334.482 97.5996 333.952 97.4849 333.416 97.4831C332.879 97.4814 332.349 97.5926 331.858 97.8096C331.368 98.0265 330.928 98.3444 330.569 98.7424C330.209 99.1404 329.937 99.6097 329.771 100.12C329.001 102.26 329.981 104.88 331.151 106.69C332.521 108.81 337.311 111.83 337.311 111.83L337.321 111.82Z" fill="white"/>
<path d="M270.5 148.35C270.5 148.35 280.66 140.98 281.31 140.49C281.96 140 290.98 143.93 291.47 146.39C291.96 148.85 291.63 149.5 290.98 149.83C290.33 150.16 272.31 155.07 271.81 155.23C271.31 155.39 270.5 148.35 270.5 148.35Z" fill="#7CCCDB" stroke="#2855AF" stroke-linecap="round" stroke-linejoin="round"/>
<path d="M199.198 87.5002C198.718 85.9925 198.767 84.366 199.338 82.8902C200.338 80.6502 201.858 79.9502 201.158 78.2702C200.458 76.5902 196.258 72.8102 195.838 70.7102C195.418 68.6102 194.158 68.7102 193.458 70.0102C193.105 70.6558 192.996 71.4068 193.15 72.1262C193.304 72.8457 193.712 73.4859 194.298 73.9302C194.724 74.1592 195.095 74.4782 195.385 74.865C195.675 75.2519 195.877 75.6973 195.978 76.1702C195.978 76.5902 194.978 77.1702 194.978 77.1702C194.978 77.1702 190.788 73.3902 189.808 73.1102C188.828 72.8302 188.548 73.1102 188.548 74.7902C188.548 76.4702 188.278 83.6202 189.398 86.1402C190.518 88.6602 195.398 91.1402 195.398 91.1402L199.198 87.5002Z" fill="white" stroke="#2855AF" stroke-linecap="round" stroke-linejoin="round"/>
<path d="M195.239 85.53C195.581 85.386 195.853 85.1139 195.997 84.7719C196.141 84.4299 196.146 84.0451 196.009 83.7L174.359 28.46L173.359 28.79L193.359 84.7C193.426 84.8823 193.528 85.0492 193.661 85.1907C193.793 85.3321 193.953 85.4451 194.131 85.5228C194.309 85.6004 194.501 85.6411 194.695 85.6423C194.889 85.6436 195.081 85.6053 195.259 85.53H195.239Z" fill="#2855AF"/>
<path d="M234.587 85.2401C234.576 85.2094 234.556 85.183 234.529 85.1644C234.502 85.1457 234.47 85.1357 234.438 85.1357C234.405 85.1357 234.373 85.1457 234.346 85.1644C234.319 85.183 234.299 85.2094 234.288 85.2401C232.081 89.92 230.222 94.7564 228.728 99.7101C226.808 105.609 224.079 111.212 220.617 116.36C220.617 116.36 209.137 101.95 205.777 97.1901C202.417 92.4301 199.197 87.5301 199.197 87.5301L194.438 90.6101C196.6 96.7072 199.077 102.689 201.857 108.53C205.357 115.38 213.388 126.83 218.288 131.45C223.188 136.07 226.667 136.53 229.707 134.56C231.037 133.7 235.707 125.46 235.707 125.46C235.707 125.46 237.707 111.33 236.967 100.97C236.698 95.6608 235.901 90.3915 234.587 85.2401V85.2401Z" fill="#7CCCDB" stroke="#2855AF" stroke-linecap="round" stroke-linejoin="round"/>
<path d="M273.097 176.09C273.097 164.48 272.817 148.38 272.817 148.38C266.133 149.334 259.404 149.942 252.657 150.2C244.127 150.34 234.887 143.48 234.887 143.48C234.887 143.48 233.627 147.4 233.627 158.18C233.627 168.96 234.887 207 234.887 207C234.887 207 236.747 221.1 237.277 229C237.807 236.9 245.207 281.31 245.207 281.31C245.207 281.31 239.917 286.59 236.207 289.76C232.497 292.93 227.757 295.04 230.927 296.63C234.097 298.22 241.217 296.37 242.807 295.85C243.637 295.57 245.877 293.44 248.067 292.34C248.759 291.97 249.517 291.739 250.297 291.66C251.093 291.592 251.858 291.32 252.517 290.87L254.177 289.76C254.177 289.76 254.707 296.1 254.707 298.76C254.707 301.42 256.287 307.76 258.407 308.27C260.527 308.78 262.567 308.55 264.677 304.33C266.787 300.11 263.997 282 263.997 282C263.997 282 265.567 273.25 266.367 267.12C267.297 259.76 273.097 184.55 273.097 176.09Z" fill="#2855AF" stroke="#2855AF" stroke-linecap="round" stroke-linejoin="round"/>
<path d="M261.859 156.11C261.859 156.11 263.069 160.57 265.099 162.8C267.129 165.03 271.579 164.8 271.579 164.8" stroke="white" stroke-width="0.75" stroke-linecap="round" stroke-linejoin="round"/>
<path d="M245.848 158.34L246.458 169.48L248.688 172.12L249.498 160.77" stroke="white" stroke-width="0.75" stroke-linecap="round" stroke-linejoin="round"/>
<path d="M246.328 281.33C248.561 283.139 251.189 284.396 253.998 285" stroke="white" stroke-width="0.75" stroke-linecap="round" stroke-linejoin="round"/>
<path d="M263.999 282C263.999 282 259.999 288 255.359 283.36" stroke="white" stroke-width="0.75" stroke-linecap="round" stroke-linejoin="round"/>
<path d="M244.52 166.561L249.75 173.881L254.33 281.331C254.33 281.331 261.67 266.001 264.33 254.331C266.99 242.661 268 226.671 268 226.671" stroke="white" stroke-width="0.75" stroke-linecap="round" stroke-linejoin="round"/>
<path d="M250.141 81.9102C250.141 81.9102 236.141 84.2902 234.471 84.8502C232.801 85.4102 234.051 110.18 234.051 110.18C234.051 110.18 233.351 146.28 234.611 150.06C235.871 153.84 243.611 155.06 246.751 155.68C252.43 156.753 258.269 156.637 263.901 155.34C267.171 154.62 271.671 154.25 272.541 150.34C273.411 146.43 274.361 124.03 276.321 116.61C278.281 109.19 285.551 97.3001 282.611 92.4001C279.671 87.5001 266.661 83.8702 261.061 83.1702C255.461 82.4702 250.141 81.9102 250.141 81.9102Z" fill="#7CCCDB" stroke="#2855AF" stroke-linecap="round" stroke-linejoin="round"/>
<path d="M247.21 88.3403L249.02 97.8603L239.23 143.63L244.69 152.86L251.54 144.74L250.7 98.4203L255.6 90.0203L252.8 84.5703L247.21 88.3403Z" fill="#2855AF"/>
<path d="M251.999 79.6699C249.937 80.7793 248.091 82.2492 246.549 84.0099C244.169 86.7999 240.109 94.2199 240.549 93.9399C240.989 93.6599 252.159 86.7999 252.159 86.7999L251.999 79.6699Z" fill="#7CCCDB" stroke="#2855AF" stroke-linecap="round" stroke-linejoin="round"/>
<path d="M261.34 78.2705L252.52 87.9305L255.04 96.7405L265.4 83.5905L261.34 78.2705Z" fill="#7CCCDB" stroke="#2855AF" stroke-linecap="round" stroke-linejoin="round"/>
<path d="M245.108 44.5402C245.108 44.5402 239.368 45.6602 238.668 40.6202C237.968 35.5802 245.808 28.4502 256.998 28.4502C268.188 28.4502 276.998 37.8202 276.598 46.9202C276.242 52.8039 274.254 58.4721 270.858 63.2902C270.298 64.1302 265.678 66.6502 263.718 66.9302C261.758 67.2102 260.358 64.4102 261.338 60.7702C262.318 57.1302 259.238 56.1602 260.498 52.7702C261.758 49.3802 263.438 49.4102 263.998 48.2902C264.558 47.1702 258.398 44.7902 252.798 45.0702C247.198 45.3502 245.108 44.5402 245.108 44.5402Z" fill="#2855AF" stroke="#2855AF" stroke-linecap="round" stroke-linejoin="round"/>
<path d="M256.398 39.7098C263.088 39.5498 272.458 40.7098 273.608 48.4998" stroke="white" stroke-linecap="round" stroke-linejoin="round"/>
<path d="M249.609 40.3502C249.609 40.3502 250.999 40.1002 253.109 39.9102" stroke="white" stroke-linecap="round" stroke-linejoin="round"/>
<path d="M263.199 36.2705C263.199 36.2705 275.049 36.7305 276.599 46.9205" stroke="white" stroke-linecap="round" stroke-linejoin="round"/>
<path d="M251.259 74.2104C251.259 74.2104 251.259 74.4104 251.169 74.7504C250.869 76.4704 249.959 81.8604 249.719 85.1304C249.439 89.0404 252.239 88.9004 253.359 87.7804C254.479 86.6604 260.359 80.7804 261.359 78.2704C262.359 75.7604 264.579 68.1904 264.579 68.1904L251.259 74.2104Z" fill="white" stroke="#2855AF" stroke-linecap="round" stroke-linejoin="round"/>
<path d="M245.11 44.5402C245.11 44.5402 243.11 55.4602 242.45 61.1902C241.79 66.9202 241.05 70.2902 243.45 73.9302C245.85 77.5702 252.54 75.1902 255.9 73.7902C259.26 72.3902 266.12 67.9102 266.12 67.9102C266.12 67.9102 270.88 68.1902 272.84 65.8102C273.172 65.3874 273.405 64.8957 273.522 64.3712C273.638 63.8467 273.636 63.3027 273.516 62.7791C273.395 62.2555 273.158 61.7655 272.823 61.3452C272.488 60.925 272.064 60.585 271.58 60.3502C270.46 60.0702 267.94 61.0502 267.1 62.0302C266.26 63.0102 266.4 64.1302 265.42 64.1302C264.44 64.1302 263.04 64.4102 263.32 63.4302C263.6 62.4502 265.7 59.2302 265.14 57.1402C264.58 55.0502 260.38 53.6402 263.88 51.6802C267.38 49.7202 271.02 49.8602 269.34 46.9202C267.66 43.9802 258.98 40.9202 253.52 42.0202C250.633 42.5505 247.813 43.3956 245.11 44.5402V44.5402Z" fill="white" stroke="#2855AF" stroke-linecap="round" stroke-linejoin="round"/>
<path d="M246.929 47.7598C246.929 47.7598 250.199 47.0598 249.999 50.4198C249.929 51.7398 244.129 57.8398 244.999 59.2298C245.574 60.1302 246.339 60.8945 247.239 61.4698" stroke="#2855AF" stroke-linecap="round" stroke-linejoin="round"/>
<path d="M253.918 51.2606C254.366 50.897 254.89 50.6385 255.451 50.5039C256.011 50.3694 256.595 50.3623 257.16 50.4831C257.724 50.604 258.253 50.8498 258.71 51.2024C259.167 51.555 259.538 52.0054 259.798 52.5206" stroke="#2855AF" stroke-linecap="round" stroke-linejoin="round"/>
<path d="M245.809 65.5303C245.809 65.5303 246.649 67.6303 249.999 67.3503C253.349 67.0703 254.339 66.3503 254.339 66.3503" stroke="#2855AF" stroke-linecap="round" stroke-linejoin="round"/>
<path d="M255.86 55.8504C255.66 56.7804 255.11 57.4403 254.62 57.3403C254.13 57.2403 253.89 56.4003 254.09 55.4803C254.29 54.5603 254.84 53.8904 255.33 53.9904C255.82 54.0904 256.05 54.9304 255.86 55.8504Z" fill="#2855AF"/>
<path d="M247.71 52.7602C247.54 53.6502 247.01 54.3002 246.54 54.2102C246.07 54.1202 245.82 53.3102 246 52.4202C246.18 51.5302 246.7 50.8802 247.18 50.9702C247.66 51.0602 247.89 51.8602 247.71 52.7602Z" fill="#2855AF"/>
<path d="M272.258 113.541C272.652 110.756 273.401 108.034 274.488 105.441C276.488 100.711 281.348 91.1405 282.608 92.4405C283.868 93.7405 286.108 97.9005 287.508 105.181C288.908 112.461 293.248 134.851 295.068 138.771C296.888 142.691 297.308 144.221 296.188 145.771C296.188 145.771 292.268 151.371 287.088 149.131C281.908 146.891 273.238 125.621 273.238 125.621" fill="#7CCCDB"/>
<path d="M272.258 113.541C272.652 110.756 273.401 108.034 274.488 105.441C276.488 100.711 281.348 91.1405 282.608 92.4405C283.868 93.7405 286.108 97.9005 287.508 105.181C288.908 112.461 293.248 134.851 295.068 138.771C296.888 142.691 297.308 144.221 296.188 145.771C296.188 145.771 292.268 151.371 287.088 149.131C281.908 146.891 273.238 125.621 273.238 125.621" stroke="#2855AF" stroke-linecap="round" stroke-linejoin="round"/>
<path d="M185.56 70.6101C184.73 72.4901 187.38 74.02 188.9 74.34C190.16 74.61 191.47 72.5001 190.53 71.5501C189.664 70.7486 188.595 70.1988 187.44 69.9601C187.126 69.8856 186.798 69.8914 186.487 69.9771C186.176 70.0627 185.891 70.2254 185.66 70.45C185.621 70.4996 185.587 70.5532 185.56 70.6101V70.6101Z" fill="white" stroke="#2855AF" stroke-linecap="round" stroke-linejoin="round"/>
<path d="M190.431 76.4503C190.431 76.4503 186.931 75.6603 185.911 76.0603C184.891 76.4603 184.911 79.0003 185.461 79.6703C186.011 80.3403 191.051 80.0103 191.731 79.4503C192.411 78.8903 192.131 77.0003 190.431 76.4503Z" fill="white" stroke="#2855AF" stroke-linecap="round" stroke-linejoin="round"/>
<path d="M186.079 80.0701C186.079 80.0701 186.029 82.6701 186.759 83.4001C187.489 84.1301 192.689 83.2301 193.089 82.3301C193.489 81.4301 192.639 79.2201 192.179 79.3301C191.719 79.4401 188.119 80.5201 186.079 80.0701Z" fill="white" stroke="#2855AF" stroke-linecap="round" stroke-linejoin="round"/>
<path d="M187.098 83.6299C187.083 84.5492 187.337 85.4528 187.828 86.2299C188.568 87.0199 192.918 85.6099 193.708 84.5899C193.841 84.4399 193.934 84.2585 193.977 84.0629C194.02 83.8673 194.013 83.6638 193.956 83.4717C193.899 83.2796 193.794 83.1052 193.651 82.965C193.508 82.8247 193.331 82.7231 193.138 82.6699C191.812 83.0799 190.454 83.3809 189.078 83.5699C187.778 83.6299 187.098 83.6299 187.098 83.6299Z" fill="white" stroke="#2855AF" stroke-linecap="round" stroke-linejoin="round"/>
<path d="M349.22 204.57C362.473 210.284 375.713 216.014 388.94 221.76C390.141 222.269 391.096 223.228 391.6 224.431C392.105 225.634 392.119 226.987 391.64 228.2C389.64 233.33 385.9 241.76 380.49 248.34C372.14 258.5 369.19 267.5 368.21 277.66C367.23 287.82 368.21 306.49 368.21 306.49L317.43 262.26C317.43 262.26 323.33 236.55 332.67 228.68C340.312 222.33 346.041 213.984 349.22 204.57V204.57Z" fill="#2855AF"/>
<path d="M340.54 197.2C340.54 197.2 321.86 197.85 320.23 197.85C318.6 197.85 313.51 222.59 311.87 234.21C310.23 245.83 308.43 254.52 308.43 254.52C308.43 254.52 325.14 264.68 333.33 268.45C341.52 272.22 350.2 276.31 350.2 276.31C350.2 276.31 359.7 249.12 365.43 237.65C371.16 226.18 376.24 225.7 372.8 219.31C369.36 212.92 358.72 204.73 354.62 202C350.52 199.27 340.54 197.2 340.54 197.2Z" fill="#7CCCDB" stroke="#2855AF" stroke-linecap="round" stroke-linejoin="round"/>
<path d="M333.33 209.65L334.48 217.51L313.84 258C313.84 258 322.84 264.88 323.01 263.9C323.18 262.92 337.1 218.37 337.1 218.37L343.81 212.96L340.37 204.96C337.73 206.031 335.335 207.627 333.33 209.65Z" fill="#2855AF"/>
<path d="M335.999 195.72C335.999 195.72 335.509 195.89 333.049 199.65C330.589 203.41 329.779 215.71 330.269 215.21C330.759 214.71 336.659 207.21 338.129 207.68C339.599 208.15 343.699 217.84 343.859 218.68C344.019 219.52 350.579 212.95 352.539 207.38C354.499 201.81 353.689 196.38 351.399 194.77C349.109 193.16 339.719 192.45 335.999 195.72Z" fill="#7CCCDB" stroke="#2855AF" stroke-linecap="round" stroke-linejoin="round"/>
<path d="M32.0004 216.519L2.00035 240.079C1.60514 240.388 1.28987 240.787 1.08109 241.243C0.8723 241.699 0.776111 242.198 0.800615 242.699C0.825118 243.2 0.969598 243.688 1.22189 244.121C1.47418 244.554 1.8269 244.921 2.25035 245.189C8.79035 249.299 21.7404 258.369 25.6104 267.789C30.8504 280.569 32.8104 298.089 36.9104 304.319C39.5474 308.165 43.2286 311.177 47.5203 312.999L79.4503 272.699C79.4503 272.699 73.5604 274.019 69.3004 254.699C65.0404 235.379 53.4104 223.249 48.3004 219.479C43.1904 215.709 32.0004 216.519 32.0004 216.519Z" fill="#2855AF"/>
<path d="M73.391 215.05C73.391 215.05 99.931 227.99 100.391 231.59C100.851 235.19 98.261 243.88 96.621 245.02C94.981 246.16 80.081 239.95 77.621 238.47C75.161 236.99 71.761 219.47 73.391 215.05Z" fill="#7CCCDB" stroke="#2855AF" stroke-linecap="round" stroke-linejoin="round"/>
<path d="M55.3815 207.35C58.1476 205.785 61.1249 204.626 64.2215 203.91C66.5615 203.3 71.4315 205.91 73.2215 211.28C74.7745 215.621 76.5775 219.868 78.6215 224C80.2815 227.56 83.4615 232.35 83.4015 236.34C83.3215 240.99 80.4015 246.14 78.1415 250.1L83.3915 262.22L50.3015 304.48C50.3015 304.48 41.6215 302.19 40.4715 289.08C39.3215 275.97 40.8015 257.31 40.8015 257.31C40.8015 257.31 31.6315 250.43 29.8015 242.9C27.9715 235.37 34.3815 224.55 40.8015 219.8C47.2215 215.05 55.3815 207.35 55.3815 207.35Z" fill="#7CCCDB" stroke="#2855AF" stroke-linecap="round" stroke-linejoin="round"/>
<path d="M59.1402 166.57C59.1402 166.57 60.6202 173.78 63.8902 174.43C67.1602 175.08 68.8102 174.1 68.4802 177.54C68.3446 179.466 67.7256 181.327 66.6802 182.95C66.6802 182.95 68.1502 191.46 67.6802 195.23C67.2102 199 64.4102 198.18 61.1302 198.67C59.3964 198.95 57.6458 199.114 55.8902 199.16C55.8902 199.16 56.5402 206.04 57.8902 209.48C59.2402 212.92 60.6802 214.4 59.0402 215.21C57.4002 216.02 48.8902 211.61 44.7902 206.04C40.6902 200.47 46.2602 194.9 48.7202 190.48C51.1802 186.06 43.4802 181.15 47.9002 174.92C50.7422 171.09 54.6525 168.185 59.1402 166.57V166.57Z" fill="white" stroke="#2855AF" stroke-linecap="round" stroke-linejoin="round"/>
<path d="M61.5798 176.389C61.8698 177.389 61.8198 178.389 61.4698 178.449C61.1198 178.509 60.5998 177.779 60.3098 176.729C60.0198 175.679 60.0698 174.729 60.4198 174.669C60.7698 174.609 61.2898 175.339 61.5798 176.389Z" fill="#2855AF"/>
<path d="M56.5195 174.27C56.5195 174.27 56.6895 170.99 59.5195 170.99Z" fill="white"/>
<path d="M56.5195 174.27C56.5195 174.27 56.6895 170.99 59.5195 170.99" stroke="#2855AF" stroke-linecap="round" stroke-linejoin="round"/>
<path d="M372.111 324.83C370.141 266.15 296.701 219 206.391 219C114.851 219 40.6406 267.47 40.6406 327.27" fill="white"/>
<path d="M372.111 324.83C370.141 266.15 296.701 219 206.391 219C114.851 219 40.6406 267.47 40.6406 327.27" stroke="#2855AF" stroke-linecap="round" stroke-linejoin="round"/>
<path d="M122.862 247.64L100.262 280.4L127.442 285.81L148.412 250.92L122.862 247.64Z" fill="white" stroke="#2855AF" stroke-linecap="round" stroke-linejoin="round"/>
<path d="M126.132 250.78L108.582 278.65" stroke="#2855AF" stroke-width="0.5" stroke-linecap="round" stroke-linejoin="round"/>
<path d="M129.899 251.46L112.219 279.37" stroke="#2855AF" stroke-width="0.5" stroke-linecap="round" stroke-linejoin="round"/>
<path d="M133.679 252.149L116.059 280.099" stroke="#2855AF" stroke-width="0.5" stroke-linecap="round" stroke-linejoin="round"/>
<path d="M137.451 252.84L119.801 280.62" stroke="#2855AF" stroke-width="0.5" stroke-linecap="round" stroke-linejoin="round"/>
<path d="M141.219 253.52L123.859 281.35" stroke="#2855AF" stroke-width="0.5" stroke-linecap="round" stroke-linejoin="round"/>
<path d="M120.531 252.56L143.401 256.41" stroke="#2855AF" stroke-width="0.5" stroke-linecap="round" stroke-linejoin="round"/>
<path d="M118.77 254.95L141.94 258.9" stroke="#2855AF" stroke-width="0.5" stroke-linecap="round" stroke-linejoin="round"/>
<path d="M117.211 257.34L140.491 261.39" stroke="#2855AF" stroke-width="0.5" stroke-linecap="round" stroke-linejoin="round"/>
<path d="M115.859 259.729L139.159 263.809" stroke="#2855AF" stroke-width="0.5" stroke-linecap="round" stroke-linejoin="round"/>
<path d="M113.98 262.33L137.45 266.21" stroke="#2855AF" stroke-width="0.5" stroke-linecap="round" stroke-linejoin="round"/>
<path d="M112.109 264.62L135.729 268.61" stroke="#2855AF" stroke-width="0.5" stroke-linecap="round" stroke-linejoin="round"/>
<path d="M110.762 266.899L134.022 271.009" stroke="#2855AF" stroke-width="0.5" stroke-linecap="round" stroke-linejoin="round"/>
<path d="M109.199 269.399L132.299 273.409" stroke="#2855AF" stroke-width="0.5" stroke-linecap="round" stroke-linejoin="round"/>
<path d="M107.441 271.89L130.591 275.81" stroke="#2855AF" stroke-width="0.5" stroke-linecap="round" stroke-linejoin="round"/>
<path d="M105.57 274.18L128.88 278.21" stroke="#2855AF" stroke-width="0.5" stroke-linecap="round" stroke-linejoin="round"/>
<path d="M103.801 276.67L127.161 280.61" stroke="#2855AF" stroke-width="0.5" stroke-linecap="round" stroke-linejoin="round"/>
<path d="M127.441 285.809L143.991 281.549L167.901 240.439L148.411 250.919L127.441 285.809Z" fill="#2855AF" stroke="#2855AF" stroke-linecap="round" stroke-linejoin="round"/>
<path d="M236.43 271.88L199.69 273.4L190.93 236.33L227.67 234.81L236.43 271.88Z" fill="white" stroke="#2855AF" stroke-linecap="round" stroke-linejoin="round"/>
<path d="M255.24 278.85L218.51 280.37L209.75 243.3L246.48 241.78L255.24 278.85Z" fill="#7CCCDB" stroke="#2855AF" stroke-linecap="round" stroke-linejoin="round"/>
<path d="M315.34 316.489L264.83 316.839L259.75 289.279L310.26 288.939L315.34 316.489Z" fill="white" stroke="#2855AF" stroke-linecap="round" stroke-linejoin="round"/>
<path d="M134.65 319.22L82.3398 317.9L89.2298 291.43L141.54 292.75L134.65 319.22Z" fill="#7CCCDB" stroke="#2855AF" stroke-linecap="round" stroke-linejoin="round"/>
<path d="M356.59 230L341 266.64C333.001 268.53 324.911 270.009 316.76 271.07C305.46 272.38 294.32 272.7 294.32 272.7L294.48 279.58C294.48 279.58 312.17 281.58 326.42 281.71C340.67 281.84 346.24 285.81 350.01 282.2C353.78 278.59 374.08 238.8 376.54 231.43C379 224.06 372.77 217.84 368.84 215.05" fill="#7CCCDB"/>
<path d="M356.59 230L341 266.64C333.001 268.53 324.911 270.009 316.76 271.07C305.46 272.38 294.32 272.7 294.32 272.7L294.48 279.58C294.48 279.58 312.17 281.58 326.42 281.71C340.67 281.84 346.24 285.81 350.01 282.2C353.78 278.59 374.08 238.8 376.54 231.43C379 224.06 372.77 217.84 368.84 215.05" stroke="#2855AF" stroke-linecap="round" stroke-linejoin="round"/>
<path d="M294.35 272.7C294.35 272.7 283.21 267.63 280.26 266.15C277.31 264.67 266.669 269.76 265.359 270.25C264.049 270.74 261.1 272.54 261.59 273.69C262.08 274.84 266.179 275.33 266.179 275.33C266.179 275.33 262.41 275.82 263.23 276.96C264.05 278.1 276.659 276.14 277.799 276.14C278.939 276.14 281.569 279.09 284.679 279.75C287.789 280.41 294.51 279.58 294.51 279.58L294.35 272.7Z" fill="white" stroke="#2855AF" stroke-linecap="round" stroke-linejoin="round"/>
<path d="M108.771 265.5C109.351 265.11 110.771 264.84 113.691 265.5C116.611 266.16 121.381 267.5 120.891 268.12C120.401 268.74 119.091 268.77 117.451 268.77C115.811 268.77 113.521 268.94 113.521 268.94C113.521 268.94 105.661 267.63 108.771 265.5Z" fill="white" stroke="#2855AF" stroke-linecap="round" stroke-linejoin="round"/>
<path d="M31.6313 238.15C31.6313 238.15 33.7613 251.74 37.6913 269.43C41.6213 287.12 46.5313 294.98 49.1513 296.13C51.7713 297.28 82.5713 286.46 89.2813 283.35C95.9913 280.24 100.911 281.06 103.041 281.06C105.171 281.06 108.121 276.14 110.251 275.33C112.381 274.52 122.001 276.8 122.701 275C123.401 273.2 117.951 269.59 116.311 268.45C114.671 267.31 111.231 264.68 108.771 265.5C106.311 266.32 99.7713 275.16 97.9613 276.14C96.1513 277.12 78.8013 278.14 70.1213 277.95C61.4413 277.76 60.6213 277.62 60.6213 277.62C60.6213 277.62 54.0713 249.62 54.0713 244.2C54.0713 239.2 52.6613 231.47 47.4113 229.36C43.8413 227.94 37.9513 227.68 34.9013 230.45C33.8419 231.429 33.0026 232.621 32.4388 233.949C31.8751 235.276 31.5999 236.708 31.6313 238.15V238.15Z" fill="white" stroke="#2855AF" stroke-linecap="round" stroke-linejoin="round"/>
<path d="M52.4313 291.54C58.3313 288.54 60.6213 277.62 60.6213 277.62C60.6213 277.62 54.0713 249.62 54.0713 244.2C54.0713 239.2 52.6613 231.47 47.4113 229.36C43.8413 227.94 37.9513 227.68 34.9013 230.45C33.8419 231.429 33.0026 232.621 32.4388 233.949C31.8751 235.276 31.5999 236.708 31.6313 238.15C31.6313 238.15 33.7613 251.74 37.6913 269.43C40.4913 282.05 43.7913 289.65 46.4113 293.43C48.5099 293.143 50.545 292.504 52.4313 291.54Z" fill="#7CCCDB" stroke="#2855AF" stroke-linecap="round" stroke-linejoin="round"/>
<path d="M122.699 275C122.699 275 112.869 271.39 111.389 271.39C110.442 271.405 109.503 271.574 108.609 271.89" fill="white"/>
<path d="M122.699 275C122.699 275 112.869 271.39 111.389 271.39C110.442 271.405 109.503 271.574 108.609 271.89" stroke="#2855AF" stroke-linecap="round" stroke-linejoin="round"/>
<path d="M108.941 268.77C110.445 268.319 112.055 268.379 113.521 268.94C115.521 269.94 121.521 272.54 121.521 272.54" fill="white"/>
<path d="M108.941 268.77C110.445 268.319 112.055 268.379 113.521 268.94C115.521 269.94 121.521 272.54 121.521 272.54" stroke="#2855AF" stroke-linecap="round" stroke-linejoin="round"/>
<path d="M100.579 230.94C100.579 230.94 97.6389 229.94 95.0089 234.71C92.3789 239.48 92.3889 243.55 96.1589 246.17C99.9289 248.79 110.079 251.25 112.539 253.05C114.999 254.85 117.129 257.31 118.439 257.64C119.749 257.97 124.659 258.95 123.349 252.23C122.039 245.51 112.349 238.47 107.459 234.54C102.569 230.61 100.579 230.94 100.579 230.94Z" fill="white" stroke="#2855AF" stroke-linecap="round" stroke-linejoin="round"/>
<path d="M116.361 250C115.847 251.33 115.129 252.572 114.231 253.68C112.961 255.09 111.831 255.8 112.961 257.79C114.077 259.808 115.079 261.888 115.961 264.02C116.671 265.72 117.861 263.65 118.141 261.38C118.421 259.11 116.501 255.98 117.951 255.66C118.381 255.57 119.641 253.11 122.341 254.39C125.041 255.67 129.561 260.19 129.981 256.79C130.401 253.39 127.721 250.56 124.601 249C121.481 247.44 117.921 247 116.361 250Z" fill="white" stroke="#2855AF" stroke-linecap="round" stroke-linejoin="round"/>
<path d="M131.09 252.57C131.09 252.57 132.5 252.57 133.92 255.26C135.34 257.95 136.04 259.36 135.05 259.79C134.06 260.22 133.78 259.79 132.93 258.23C132.08 256.67 131.37 255.11 131.37 255.11V253.27L131.09 252.57Z" fill="white" stroke="#2855AF" stroke-linecap="round" stroke-linejoin="round"/>
<path d="M127.691 250.3C128.505 250.456 129.268 250.811 129.91 251.335C130.553 251.859 131.055 252.534 131.371 253.3C132.371 255.85 132.931 258.97 132.081 260.24C131.231 261.51 129.531 260.81 129.251 258.54C128.971 256.27 127.691 250.3 127.691 250.3Z" fill="white" stroke="#2855AF" stroke-linecap="round" stroke-linejoin="round"/>
<path d="M124.148 248.459C124.148 248.459 125.698 248.179 127.688 250.299C129.678 252.419 130.098 259.79 129.388 260.35C128.678 260.91 127.388 261.2 126.698 259.35C126.008 257.5 124.148 248.459 124.148 248.459Z" fill="white" stroke="#2855AF" stroke-linecap="round" stroke-linejoin="round"/>
<path d="M119.051 248.739C119.051 248.739 121.741 244.919 123.441 246.899C125.141 248.879 126.841 259.359 126.271 260.069C125.701 260.779 124.011 261.199 122.871 258.659C121.968 256.264 121.259 253.799 120.751 251.289" fill="white"/>
<path d="M119.051 248.739C119.051 248.739 121.741 244.919 123.441 246.899C125.141 248.879 126.841 259.359 126.271 260.069C125.701 260.779 124.011 261.199 122.871 258.659C121.968 256.264 121.259 253.799 120.751 251.289" stroke="#2855AF" stroke-linecap="round" stroke-linejoin="round"/>
<path d="M57.7187 170C55.0887 172.14 52.3487 174.09 51.6087 177.71C50.4587 183.28 56.0286 187.04 52.4286 192.12C48.8286 197.2 44.2387 198.51 49.1487 203.59C54.0587 208.67 69.2986 216.69 66.6786 230.45C64.0587 244.21 54.0686 242.9 51.7686 241.45C49.4686 240 39.4886 233.59 35.0686 235.88C30.6486 238.17 33.9186 246.69 32.6086 249.48C31.2986 252.27 17.8687 249.48 13.1187 243.42C8.36865 237.36 4.26865 220.81 9.34865 211.8C14.4286 202.79 22.2887 200 19.8287 190.65C17.3687 181.3 14.7586 170.01 21.6386 159.65C28.5186 149.29 41.9286 143.45 52.4286 145.89C57.3686 147.04 62.7587 150.23 64.2187 155.41C65.5087 160.03 63.3487 164.33 60.2187 167.66C59.4372 168.493 58.602 169.275 57.7187 170V170Z" fill="#2855AF" stroke="#2855AF" stroke-linecap="round" stroke-linejoin="round"/>
<path d="M60.2305 161.33C59.1843 163.595 57.5162 165.516 55.4205 166.87C49.0805 170.95 45.0105 175.48 46.8205 181.82C48.6305 188.16 49.0805 192.23 40.9305 196.31C32.7805 200.39 36.8505 214 45.4605 217.6C54.0705 221.2 65.8405 229.82 58.5905 237.52" stroke="white" stroke-linecap="round" stroke-linejoin="round"/>
<path d="M61.7586 155.1C61.7234 156.169 61.5725 157.232 61.3086 158.27" stroke="white" stroke-linecap="round" stroke-linejoin="round"/>
<path d="M21.582 238C21.992 240.16 22.992 241.86 23.722 242.1" stroke="white" stroke-linecap="round" stroke-linejoin="round"/>
<path d="M49.5322 171.399C49.5322 171.399 38.2122 175.929 38.6722 180.909C39.1322 185.889 40.9322 189.519 37.7622 193.139C34.5922 196.759 23.2722 200.389 23.2722 207.629C23.2722 214.869 32.2722 218.949 31.8722 224.389C31.4722 229.829 24.6322 228.009 22.3622 232.089C22.0997 232.561 21.8917 233.061 21.7422 233.579" stroke="white" stroke-linecap="round" stroke-linejoin="round"/>
<path d="M331.69 158.05C331.69 158.05 328.42 163.13 328.42 166.24C328.42 169.35 329.42 170.66 328.74 171.15C328.06 171.64 318.92 171.65 320.39 174.1C321.439 175.684 322.916 176.936 324.65 177.71C324.65 177.71 324.16 190.48 324.65 193.27C325.14 196.06 325.96 195.89 328.25 195.27C329.919 194.824 331.617 194.49 333.33 194.27C333.33 194.27 335.46 205.41 338.41 207.04C341.36 208.67 348.89 200.49 349.55 197.38C350.21 194.27 348.73 188.21 349.71 186.38C350.69 184.55 354.95 181.46 354.3 177.04C353.65 172.62 349.71 171.31 347.91 169.34C346.11 167.37 348.23 163.12 346.6 160.66C344.97 158.2 333.33 157.23 331.69 158.05Z" fill="white" stroke="#2855AF" stroke-linecap="round" stroke-linejoin="round"/>
<path d="M347.419 185.569C347.419 185.569 345.119 189.169 342.829 188.839C340.539 188.509 339.059 185.399 339.059 185.399" fill="white"/>
<path d="M347.419 185.569C347.419 185.569 345.119 189.169 342.829 188.839C340.539 188.509 339.059 185.399 339.059 185.399" stroke="#2855AF" stroke-linecap="round" stroke-linejoin="round"/>
<path d="M341.36 188.189C341.36 188.189 336.61 191.789 332.84 192.779Z" fill="white"/>
<path d="M341.36 188.189C341.36 188.189 336.61 191.789 332.84 192.779" stroke="#2855AF" stroke-linecap="round" stroke-linejoin="round"/>
<path d="M324.649 177.71C324.649 177.71 331.359 185.4 329.069 187.04C326.779 188.68 322.679 184.59 322.679 181.47C322.679 178.35 322.519 177.22 324.649 177.71Z" fill="#2855AF" stroke="#2855AF" stroke-linecap="round" stroke-linejoin="round"/>
<path d="M331.542 172C331.482 173.09 331.102 173.95 330.672 173.93C330.242 173.91 329.952 173.01 330.012 171.93C330.072 170.85 330.452 169.93 330.872 170C331.292 170.07 331.592 170.91 331.542 172Z" fill="#2855AF"/>
<path d="M329.789 167.37C329.789 167.37 332.629 166.71 333.289 171.53" stroke="#2855AF" stroke-linecap="round" stroke-linejoin="round"/>
<path d="M342.832 161.33C342.832 161.33 325.832 160.51 323.672 154.78C321.512 149.05 337.592 139.71 355.112 143.15C372.632 146.59 374.002 171.48 367.402 176.72C360.802 181.96 351.672 187.37 349.222 187.72C346.772 188.07 346.762 186.72 347.422 185.59C348.082 184.46 352.492 176.25 349.552 175.92C346.612 175.59 340.862 178.92 340.212 178.92C339.562 178.92 338.742 177.92 339.392 176.47C340.042 175.02 342.502 174.01 339.882 171.55C337.262 169.09 335.302 168.28 336.612 166.47C337.922 164.66 342.832 161.33 342.832 161.33Z" fill="#2855AF" stroke="#2855AF" stroke-linecap="round" stroke-linejoin="round"/>
<path d="M328.059 154.64C328.059 154.64 329.419 155.1 337.569 156.91C345.719 158.72 367.909 159.17 368.819 170.91" stroke="white" stroke-linecap="round" stroke-linejoin="round"/>
<path d="M362.49 175.61C362.611 176.635 362.448 177.672 362.02 178.61" stroke="white" stroke-linecap="round" stroke-linejoin="round"/>
<path d="M339.379 165.51C343.994 168.114 349.066 169.812 354.319 170.51C356.474 170.633 358.564 171.293 360.399 172.43" stroke="white" stroke-linecap="round" stroke-linejoin="round"/>
<path d="M345.27 172.31C345.27 172.31 361.57 176.38 357.95 181.36" stroke="white" stroke-linecap="round" stroke-linejoin="round"/>
<path d="M320.231 197.85C320.231 197.85 314.991 199.98 313.181 204.57C311.371 209.16 292.551 230.45 289.761 235.69C286.971 240.93 286.321 244.04 289.761 246.01C293.201 247.98 295.821 246.83 300.411 243.71C305.001 240.59 312.651 227.88 312.651 227.88L320.231 197.85Z" fill="#7CCCDB" stroke="#2855AF" stroke-linecap="round" stroke-linejoin="round"/>
<path d="M293.201 232.74C293.201 232.74 288.121 236.51 286.321 242.24C284.521 247.97 277.641 264 277.641 264L283.871 268.75C283.871 268.75 297.791 246.97 298.771 243.69C299.751 240.41 298.931 238.78 298.931 238.78" fill="#7CCCDB"/>
<path d="M293.201 232.74C293.201 232.74 288.121 236.51 286.321 242.24C284.521 247.97 277.641 264 277.641 264L283.871 268.75C283.871 268.75 297.791 246.97 298.771 243.69C299.751 240.41 298.931 238.78 298.931 238.78" stroke="#2855AF" stroke-linecap="round" stroke-linejoin="round"/>
<path d="M279.61 263C280.21 262.821 280.842 262.772 281.463 262.857C282.084 262.941 282.679 263.157 283.21 263.49C284.85 264.64 288.78 270.04 287.47 270.54C286.16 271.04 284.36 270.37 283.05 268.9C281.74 267.43 280.26 266.44 279.61 266.44H278L279.61 263Z" fill="white" stroke="#2855AF" stroke-linecap="round" stroke-linejoin="round"/>
<path d="M267.161 267.46C265.668 268.246 264.335 269.304 263.231 270.58C262.081 272.21 260.771 277.78 261.431 278.27C262.091 278.76 262.901 277.13 264.051 274.18C265.201 271.23 267.161 267.46 267.161 267.46Z" fill="white" stroke="#2855AF" stroke-linecap="round" stroke-linejoin="round"/>
<path d="M279.609 263C280.209 263.42 276.489 270.21 275.019 273C273.549 275.79 267.019 278.9 265.359 279.06C263.699 279.22 263.229 270.22 267.979 266.29C272.729 262.36 277.999 261.89 279.609 263Z" fill="white" stroke="#2855AF" stroke-linecap="round" stroke-linejoin="round"/>
<path d="M267.809 278.11C267.809 278.11 266.179 276.11 267.649 271.89C268.504 269.429 269.506 267.021 270.649 264.68" stroke="#2855AF" stroke-linecap="round" stroke-linejoin="round"/>
<path d="M270.76 276.31C270.76 276.31 270.27 274.31 271.42 270.41C272.212 267.832 273.31 265.358 274.69 263.04" stroke="#2855AF" stroke-linecap="round" stroke-linejoin="round"/>
</svg>
