<svg width="333" height="310" viewBox="0 0 333 310" fill="none" xmlns="http://www.w3.org/2000/svg">
<path d="M68.8003 20.15C68.8003 20.15 73.4802 16.46 74.6702 14.09C75.6702 12.09 76.4303 9.22002 75.3803 7.09002C75.1522 6.57356 74.8173 6.11125 74.3977 5.73347C73.9782 5.35569 73.4834 5.07101 72.9459 4.89815C72.4084 4.72529 71.8405 4.66817 71.2793 4.73054C70.7182 4.79291 70.1766 4.97336 69.6903 5.26003C66.8103 7.05003 66.5003 13.16 67.2403 16.1C67.3003 16.33 68.7503 20.19 68.8003 20.15Z" fill="#7CCCDB"/>
<path d="M25.5531 50.9292C25.7431 51.1092 29.0831 53.5192 29.1031 53.4692C29.1231 53.4192 30.9631 47.8092 30.6531 45.1692C30.3931 42.9192 29.4331 40.1692 27.3731 38.9192C26.8977 38.6155 26.3634 38.4158 25.8053 38.3331C25.2472 38.2505 24.6779 38.2869 24.1349 38.4399C23.5918 38.5929 23.0873 38.8591 22.6544 39.2209C22.2215 39.5827 21.8701 40.032 21.6231 40.5392C20.2031 43.6192 23.3231 48.8792 25.5531 50.9292Z" fill="#7CCCDB"/>
<path d="M123.563 25.75C123.563 25.75 106.443 43.43 106.563 65.14C106.683 86.85 123.933 104.38 123.933 104.38C123.933 104.38 141.063 86.71 140.933 64.99C140.803 43.27 123.563 25.75 123.563 25.75Z" fill="#7CCCDB"/>
<path d="M99.1513 78.1397C99.3765 77.8985 99.5837 77.6411 99.7713 77.3697C101.011 75.4797 102.081 72.7297 101.281 70.4697C101.114 69.9308 100.834 69.4335 100.461 69.0104C100.088 68.5873 99.629 68.248 99.1152 68.0147C98.6014 67.7814 98.0441 67.6595 97.4799 67.6569C96.9156 67.6543 96.3572 67.7711 95.8413 67.9997C93.5113 69.0997 92.3713 72.8297 92.1313 75.8797C91.2013 75.6697 90.3613 75.5097 89.6413 75.3797C89.3413 74.6897 89.0313 73.9997 88.7113 73.2997C88.3913 72.5997 88.1413 71.8497 87.8413 71.1097C87.4313 70.0297 87.0713 68.8897 86.7013 67.7497C88.0513 67.1497 91.9913 65.2997 93.4613 63.6797C94.9313 62.0597 96.4613 59.4397 96.0013 57.0897C95.9166 56.5325 95.7152 55.9995 95.4101 55.5257C95.1051 55.0518 94.7034 54.6477 94.2313 54.3399C93.7593 54.0321 93.2275 53.8276 92.6708 53.7396C92.1142 53.6517 91.5452 53.6824 91.0013 53.8297C87.7413 54.8297 85.8313 60.6097 85.7713 63.6397C85.7713 63.7297 85.7713 64.3697 85.8813 65.1397C85.5613 64.0197 85.2213 62.8997 84.9313 61.7497C84.0913 58.4997 83.3413 55.1597 82.5813 51.8197C82.4213 51.1297 82.2513 50.4297 82.0913 49.7397C83.2313 49.2297 87.5213 47.2697 89.0913 45.5697C90.6613 43.8697 92.0913 41.3297 91.6313 38.9797C91.5466 38.4225 91.3452 37.8895 91.0401 37.4157C90.7351 36.9418 90.3334 36.5377 89.8613 36.2299C89.3893 35.9221 88.8575 35.7176 88.3008 35.6296C87.7442 35.5417 87.1752 35.5724 86.6313 35.7197C83.3813 36.7197 81.4713 42.4997 81.4013 45.5297C81.4013 45.6297 81.4613 46.3997 81.5413 47.2597C81.1013 45.4497 80.6413 43.6497 80.1213 41.8797C79.2583 38.8339 78.1891 35.8504 76.9213 32.9497C77.3313 32.7797 82.4113 30.5797 84.1213 28.6897C85.6313 27.0097 87.1213 24.4497 86.6513 22.0997C86.5666 21.5425 86.3652 21.0095 86.0601 20.5357C85.7551 20.0618 85.3534 19.6577 84.8813 19.3499C84.4093 19.0421 83.8775 18.8376 83.3208 18.7496C82.7642 18.6617 82.1952 18.6924 81.6513 18.8397C78.4013 19.8397 76.4913 25.6197 76.4213 28.6497C76.4213 28.8597 76.6713 31.6497 76.7913 32.6497C76.7873 32.6165 76.7873 32.5829 76.7913 32.5497C75.479 29.7338 73.9195 27.04 72.1313 24.4997C70.5408 22.2232 68.8213 20.0396 66.9813 17.9597C65.2913 15.9597 63.6313 14.3397 62.1513 12.8697C61.3413 12.0797 60.5813 11.3697 59.8713 10.7197H59.9413C60.0013 10.7197 58.3613 6.93967 58.2313 6.71967C56.7113 4.09967 52.2313 -0.0703311 48.9213 0.649669C48.3705 0.771145 47.8517 1.00772 47.3988 1.34388C46.9459 1.68003 46.5692 2.10815 46.2935 2.60015C46.0177 3.09216 45.8491 3.63691 45.7988 4.19866C45.7484 4.76042 45.8174 5.32647 46.0013 5.85967C46.7413 8.13967 49.2613 9.66967 51.3913 10.4097C53.5213 11.1497 58.3913 10.7997 59.5613 10.6897C60.2813 11.3897 61.0513 12.1397 61.8813 12.9797C63.3313 14.4797 64.9513 16.1897 66.5913 18.1597C67.0313 18.6897 67.4813 19.2697 67.9213 19.8297C66.9813 19.0397 65.6613 17.9897 65.5213 17.8997C62.9713 16.2797 57.0713 14.6397 54.4713 16.7997C54.0412 17.17 53.6949 17.6277 53.4554 18.1422C53.2158 18.6567 53.0885 19.2164 53.0819 19.7839C53.0753 20.3514 53.1895 20.9138 53.417 21.4338C53.6445 21.9538 53.98 22.4194 54.4013 22.7997C56.1013 24.4797 59.0513 24.6797 61.2913 24.3497C63.5313 24.0197 67.7913 21.3497 68.7013 20.8197C69.7013 22.0597 70.6313 23.3697 71.5613 24.8197C73.2704 27.3508 74.7528 30.0279 75.9913 32.8197C76.0613 32.9797 76.1113 33.1597 76.1813 33.3197C75.7813 32.8497 73.4013 30.4497 73.1813 30.3197C70.8213 28.4197 65.1813 26.1497 62.3113 28.0097C61.8479 28.3314 61.4578 28.7475 61.1666 29.2307C60.8754 29.7139 60.6897 30.2532 60.6217 30.8132C60.5537 31.3733 60.6049 31.9413 60.772 32.4802C60.9391 33.019 61.2183 33.5164 61.5913 33.9397C63.1013 35.7997 66.0013 36.3197 68.2613 36.2397C70.8713 36.1497 76.0013 33.5597 76.1913 33.4597C77.3444 36.2941 78.3131 39.2002 79.0913 42.1597C79.6713 44.3497 80.1813 46.5897 80.6613 48.8397C80.1313 48.2397 77.9113 46.0097 77.7313 45.8397C75.3713 43.9497 69.7313 41.6697 66.8613 43.5397C66.3979 43.8614 66.0078 44.2775 65.7166 44.7607C65.4254 45.2439 65.2397 45.7832 65.1717 46.3432C65.1037 46.9033 65.1549 47.4713 65.322 48.0102C65.4891 48.549 65.7683 49.0464 66.1413 49.4697C67.6513 51.3197 70.5513 51.8497 72.8113 51.7697C75.3613 51.6697 80.2913 49.2097 80.7013 48.9997L81.3613 52.0797C82.0513 55.4297 82.7313 58.7897 83.5013 62.0797C83.7713 63.2197 84.0713 64.3397 84.3713 65.4597C83.5413 64.5897 82.0013 63.0397 81.8513 62.9197C79.4913 61.0297 73.8513 58.7497 70.9813 60.6197C70.5179 60.9414 70.1278 61.3575 69.8366 61.8407C69.5454 62.3239 69.3597 62.8632 69.2917 63.4232C69.2237 63.9833 69.2749 64.5513 69.442 65.0902C69.6091 65.629 69.8883 66.1264 70.2613 66.5497C71.7713 68.3997 74.6713 68.9297 76.9313 68.8397C79.1913 68.7497 83.3913 66.7797 84.5713 66.2097C85.0813 68.0697 85.6313 69.8997 86.2613 71.6797C86.5513 72.4397 86.7913 73.2397 87.1113 73.9497L87.5913 75.0897L87.0013 74.9997C87.0013 74.9997 86.9513 76.0597 87.0513 77.7797C84.5613 76.0097 80.9713 74.4797 78.6313 75.5497C78.1248 75.7975 77.6765 76.1497 77.3158 76.583C76.955 77.0163 76.6899 77.5209 76.5378 78.0639C76.3858 78.6069 76.3503 79.1758 76.4336 79.7335C76.5169 80.2911 76.7172 80.8249 77.0213 81.2997C77.1682 81.5577 77.3425 81.7991 77.5413 82.0197C77.9826 84.6491 79.0913 87.1213 80.7613 89.1997C80.8913 89.3397 82.5813 90.9097 83.4613 91.6897C82.6113 91.2197 81.7613 90.7697 80.8813 90.2697C79.6113 89.5697 78.2913 88.7797 77.0013 88.0197L75.0013 86.7597C74.3213 86.3497 73.7213 85.8697 73.0713 85.4197C72.1313 84.7497 71.1913 83.9997 70.2613 83.2597C71.0513 81.9997 73.3213 78.2597 73.6513 76.1197C73.9813 73.9797 73.8013 70.9397 72.1313 69.2297C71.7559 68.804 71.2943 68.4632 70.777 68.2297C70.2598 67.9962 69.6988 67.8754 69.1313 67.8754C68.5638 67.8754 68.0028 67.9962 67.4855 68.2297C66.9683 68.4632 66.5066 68.804 66.1313 69.2297C63.9513 71.8297 65.5613 77.7297 67.1813 80.2897C67.1813 80.3797 67.6313 80.8797 68.1013 81.4797C67.2113 80.7297 66.3213 79.9797 65.4413 79.1797C62.9513 76.9297 60.4413 74.5597 58.0013 72.1797L56.4413 70.7097C57.1213 69.6597 59.6113 65.6597 59.9613 63.3897C60.3113 61.1197 60.1113 58.2097 58.4413 56.4897C58.0659 56.064 57.6043 55.7232 57.087 55.4897C56.5698 55.2562 56.0088 55.1354 55.4413 55.1354C54.8738 55.1354 54.3128 55.2562 53.7955 55.4897C53.2783 55.7232 52.8166 56.064 52.4413 56.4897C50.2613 59.0897 51.8713 64.9897 53.4413 67.5597C53.5013 67.6497 53.9813 68.2497 54.5213 68.9197C53.1513 67.6597 51.7713 66.4097 50.3613 65.2197C47.9618 63.1579 45.4261 61.2602 42.7713 59.5397C43.0213 59.1697 46.0413 54.5397 46.4213 52.0197C46.7613 49.7797 46.5713 46.8397 44.9013 45.1197C44.5259 44.694 44.0643 44.3532 43.547 44.1197C43.0298 43.8862 42.4688 43.7654 41.9013 43.7654C41.3338 43.7654 40.7728 43.8862 40.2555 44.1197C39.7383 44.3532 39.2766 44.694 38.9013 45.1197C36.7213 47.7197 38.3313 53.6197 39.9013 56.1897C40.0113 56.3697 41.7513 58.5397 42.3913 59.2897L42.3013 59.2297C39.655 57.5987 36.8671 56.2097 33.9713 55.0797C31.3899 54.0596 28.7523 53.1882 26.0713 52.4697C23.5913 51.7797 21.2813 51.2997 19.2313 50.8897C18.1213 50.6797 17.1013 50.4997 16.1513 50.3497C16.1513 50.3497 12.7413 48.0597 12.5113 47.9497C9.80127 46.5997 3.76127 45.5897 1.40127 48.0197C1.00804 48.4334 0.707924 48.9266 0.521094 49.466C0.334263 50.0054 0.265043 50.5785 0.318091 51.1469C0.371138 51.7153 0.545221 52.2657 0.828642 52.7612C1.11206 53.2567 1.49826 53.6858 1.96127 54.0197C3.83127 55.5097 6.78127 55.3997 8.96127 54.8297C11.1413 54.2597 14.9613 51.3097 15.9613 50.5697C16.9613 50.7497 17.9613 50.9497 19.1613 51.1897C21.1613 51.6497 23.4913 52.1897 25.9413 52.9197C26.6013 53.1097 27.2913 53.3497 27.9413 53.5697C26.7213 53.4397 25.0413 53.2897 24.8813 53.2897C21.8813 53.3397 16.0313 55.2297 15.0513 58.4697C14.9039 59.0122 14.8726 59.5797 14.9593 60.1351C15.0461 60.6906 15.2489 61.2215 15.5546 61.6933C15.8603 62.1651 16.262 62.5671 16.7336 62.8732C17.2051 63.1793 17.7359 63.3825 18.2913 63.4697C20.6413 63.9297 23.2013 62.4697 24.8913 60.9697C26.5813 59.4697 28.6913 54.9097 29.1213 53.9697C30.6213 54.4797 32.1213 55.0297 33.7013 55.6997C36.537 56.8803 39.2612 58.3127 41.8413 59.9797C41.9813 60.0697 42.1313 60.1897 42.2713 60.2897C41.6813 60.1197 38.3713 59.4297 38.1313 59.4097C35.1313 59.1297 29.1313 60.4097 27.7913 63.4797C27.5811 64.004 27.4844 64.5668 27.5074 65.1312C27.5305 65.6956 27.6728 66.2487 27.925 66.7542C28.1773 67.2596 28.5337 67.7058 28.9708 68.0636C29.408 68.4213 29.9159 68.6824 30.4613 68.8297C32.7513 69.5397 35.4613 68.3797 37.3013 67.0597C39.4213 65.5397 42.3013 60.5497 42.3713 60.3597C44.895 62.0921 47.3065 63.9825 49.5913 66.0197C51.2813 67.5197 52.9413 69.1197 54.5913 70.7297C53.8113 70.5297 50.7313 69.8797 50.5013 69.8597C47.5013 69.5797 41.5013 70.8597 40.1613 73.9397C39.9528 74.4634 39.8574 75.0253 39.8813 75.5886C39.9052 76.1518 40.0479 76.7036 40.3 77.2078C40.5521 77.712 40.9079 78.1573 41.3442 78.5143C41.7804 78.8714 42.2872 79.1322 42.8313 79.2797C45.1213 79.9897 47.8313 78.8297 49.6713 77.5097C51.7413 76.0297 54.4913 71.2597 54.7213 70.8597C55.4713 71.5897 56.2213 72.3197 56.9613 73.0597C59.3913 75.4797 61.8113 77.9097 64.2813 80.2297C65.1313 81.0397 66.0013 81.7997 66.8713 82.5697C65.7013 82.2997 63.5613 81.8597 63.3713 81.8397C60.3713 81.5597 54.3713 82.8397 53.0313 85.9197C52.8228 86.4434 52.7274 87.0053 52.7513 87.5686C52.7752 88.1318 52.9179 88.6836 53.17 89.1878C53.4221 89.692 53.7779 90.1373 54.2141 90.4943C54.6504 90.8514 55.1572 91.1122 55.7013 91.2597C57.9813 91.9797 60.7013 90.8097 62.5313 89.4997C64.3613 88.1897 66.7813 84.2097 67.4413 83.0897C68.9013 84.3497 70.3713 85.5797 71.8813 86.7197C72.5413 87.1897 73.1813 87.7197 73.8813 88.1397L75.8313 89.4397C77.1913 90.2897 78.4513 91.0697 79.7413 91.8197C80.3813 92.2097 81.0013 92.5597 81.6413 92.9197C80.4913 92.4697 78.6413 91.7997 78.4913 91.7497C75.5513 91.0197 69.4413 91.3297 67.6513 94.2097C67.3646 94.6961 67.1842 95.2376 67.1218 95.7988C67.0594 96.3599 67.1165 96.9279 67.2894 97.4653C67.4623 98.0028 67.7469 98.4976 68.1247 98.9172C68.5025 99.3367 68.9648 99.6716 69.4813 99.8997C71.6313 100.95 74.4813 100.21 76.4813 99.1897C78.7113 98.0597 82.0613 93.9197 82.4813 93.4097C84.0413 94.2997 85.5613 95.1397 87.0013 95.9097C90.8413 97.9697 94.2013 99.6097 96.8013 100.83C105.261 108.15 117.161 108.95 117.161 108.95C117.161 108.95 117.791 94.6897 109.401 85.3097C106.534 82.217 103.04 79.7725 99.1513 78.1397ZM84.0513 92.0497C84.3113 91.4597 86.3413 86.9297 86.4813 84.3797L87.8813 84.0897C88.7407 88.5922 90.5286 92.8664 93.1313 96.6397C91.5913 95.913 89.9246 95.0997 88.1313 94.1997C86.8413 93.5297 85.4613 92.8097 84.0513 92.0497V92.0497Z" fill="#7CCCDB"/>
<path d="M161.53 75.4199C161.53 75.4199 147.26 75.8499 138.53 84.9299C129.8 94.0099 129.91 108.27 129.91 108.27C129.91 108.27 144.17 107.83 152.91 98.7599C161.65 89.6899 161.53 75.4199 161.53 75.4199Z" fill="#7CCCDB"/>
<g opacity="0.5">
<path opacity="0.5" d="M68.8003 20.15C68.8003 20.15 73.4802 16.46 74.6702 14.09C75.6702 12.09 76.4303 9.22002 75.3803 7.09002C75.1522 6.57356 74.8173 6.11125 74.3977 5.73347C73.9782 5.35569 73.4834 5.07101 72.9459 4.89815C72.4084 4.72529 71.8405 4.66817 71.2793 4.73054C70.7182 4.79291 70.1766 4.97336 69.6903 5.26003C66.8103 7.05003 66.5003 13.16 67.2403 16.1C67.3003 16.33 68.7503 20.19 68.8003 20.15Z" fill="white"/>
<path opacity="0.5" d="M25.5531 50.9292C25.7431 51.1092 29.0831 53.5192 29.1031 53.4692C29.1231 53.4192 30.9631 47.8092 30.6531 45.1692C30.3931 42.9192 29.4331 40.1692 27.3731 38.9192C26.8977 38.6155 26.3634 38.4158 25.8053 38.3331C25.2472 38.2505 24.6779 38.2869 24.1349 38.4399C23.5918 38.5929 23.0873 38.8591 22.6544 39.2209C22.2215 39.5827 21.8701 40.032 21.6231 40.5392C20.2031 43.6192 23.3231 48.8792 25.5531 50.9292Z" fill="white"/>
<path opacity="0.5" d="M123.563 25.75C123.563 25.75 106.443 43.43 106.563 65.14C106.683 86.85 123.933 104.38 123.933 104.38C123.933 104.38 141.063 86.71 140.933 64.99C140.803 43.27 123.563 25.75 123.563 25.75Z" fill="white"/>
<path opacity="0.5" d="M99.1513 78.1397C99.3765 77.8985 99.5837 77.6411 99.7713 77.3697C101.011 75.4797 102.081 72.7297 101.281 70.4697C101.114 69.9308 100.834 69.4335 100.461 69.0104C100.088 68.5873 99.629 68.248 99.1152 68.0147C98.6014 67.7814 98.0441 67.6595 97.4799 67.6569C96.9156 67.6543 96.3572 67.7711 95.8413 67.9997C93.5113 69.0997 92.3713 72.8297 92.1313 75.8797C91.2013 75.6697 90.3613 75.5097 89.6413 75.3797C89.3413 74.6897 89.0313 73.9997 88.7113 73.2997C88.3913 72.5997 88.1413 71.8497 87.8413 71.1097C87.4313 70.0297 87.0713 68.8897 86.7013 67.7497C88.0513 67.1497 91.9913 65.2997 93.4613 63.6797C94.9313 62.0597 96.4613 59.4397 96.0013 57.0897C95.9166 56.5325 95.7152 55.9995 95.4101 55.5257C95.1051 55.0518 94.7034 54.6477 94.2313 54.3399C93.7593 54.0321 93.2275 53.8276 92.6708 53.7396C92.1142 53.6517 91.5452 53.6824 91.0013 53.8297C87.7413 54.8297 85.8313 60.6097 85.7713 63.6397C85.7713 63.7297 85.7713 64.3697 85.8813 65.1397C85.5613 64.0197 85.2213 62.8997 84.9313 61.7497C84.0913 58.4997 83.3413 55.1597 82.5813 51.8197C82.4213 51.1297 82.2513 50.4297 82.0913 49.7397C83.2313 49.2297 87.5213 47.2697 89.0913 45.5697C90.6613 43.8697 92.0913 41.3297 91.6313 38.9797C91.5466 38.4225 91.3452 37.8895 91.0401 37.4157C90.7351 36.9418 90.3334 36.5377 89.8613 36.2299C89.3893 35.9221 88.8575 35.7176 88.3008 35.6296C87.7442 35.5417 87.1752 35.5724 86.6313 35.7197C83.3813 36.7197 81.4713 42.4997 81.4013 45.5297C81.4013 45.6297 81.4613 46.3997 81.5413 47.2597C81.1013 45.4497 80.6413 43.6497 80.1213 41.8797C79.2583 38.8339 78.1891 35.8504 76.9213 32.9497C77.3313 32.7797 82.4113 30.5797 84.1213 28.6897C85.6313 27.0097 87.1213 24.4497 86.6513 22.0997C86.5666 21.5425 86.3652 21.0095 86.0601 20.5357C85.7551 20.0618 85.3534 19.6577 84.8813 19.3499C84.4093 19.0421 83.8775 18.8376 83.3208 18.7496C82.7642 18.6617 82.1952 18.6924 81.6513 18.8397C78.4013 19.8397 76.4913 25.6197 76.4213 28.6497C76.4213 28.8597 76.6713 31.6497 76.7913 32.6497C76.7873 32.6165 76.7873 32.5829 76.7913 32.5497C75.479 29.7338 73.9195 27.04 72.1313 24.4997C70.5408 22.2232 68.8213 20.0396 66.9813 17.9597C65.2913 15.9597 63.6313 14.3397 62.1513 12.8697C61.3413 12.0797 60.5813 11.3697 59.8713 10.7197H59.9413C60.0013 10.7197 58.3613 6.93967 58.2313 6.71967C56.7113 4.09967 52.2313 -0.0703311 48.9213 0.649669C48.3705 0.771145 47.8517 1.00772 47.3988 1.34388C46.9459 1.68003 46.5692 2.10815 46.2935 2.60015C46.0177 3.09216 45.8491 3.63691 45.7988 4.19866C45.7484 4.76042 45.8174 5.32647 46.0013 5.85967C46.7413 8.13967 49.2613 9.66967 51.3913 10.4097C53.5213 11.1497 58.3913 10.7997 59.5613 10.6897C60.2813 11.3897 61.0513 12.1397 61.8813 12.9797C63.3313 14.4797 64.9513 16.1897 66.5913 18.1597C67.0313 18.6897 67.4813 19.2697 67.9213 19.8297C66.9813 19.0397 65.6613 17.9897 65.5213 17.8997C62.9713 16.2797 57.0713 14.6397 54.4713 16.7997C54.0412 17.17 53.6949 17.6277 53.4554 18.1422C53.2158 18.6567 53.0885 19.2164 53.0819 19.7839C53.0753 20.3514 53.1895 20.9138 53.417 21.4338C53.6445 21.9538 53.98 22.4194 54.4013 22.7997C56.1013 24.4797 59.0513 24.6797 61.2913 24.3497C63.5313 24.0197 67.7913 21.3497 68.7013 20.8197C69.7013 22.0597 70.6313 23.3697 71.5613 24.8197C73.2704 27.3508 74.7528 30.0279 75.9913 32.8197C76.0613 32.9797 76.1113 33.1597 76.1813 33.3197C75.7813 32.8497 73.4013 30.4497 73.1813 30.3197C70.8213 28.4197 65.1813 26.1497 62.3113 28.0097C61.8479 28.3314 61.4578 28.7475 61.1666 29.2307C60.8754 29.7139 60.6897 30.2532 60.6217 30.8132C60.5537 31.3733 60.6049 31.9413 60.772 32.4802C60.9391 33.019 61.2183 33.5164 61.5913 33.9397C63.1013 35.7997 66.0013 36.3197 68.2613 36.2397C70.8713 36.1497 76.0013 33.5597 76.1913 33.4597C77.3444 36.2941 78.3131 39.2002 79.0913 42.1597C79.6713 44.3497 80.1813 46.5897 80.6613 48.8397C80.1313 48.2397 77.9113 46.0097 77.7313 45.8397C75.3713 43.9497 69.7313 41.6697 66.8613 43.5397C66.3979 43.8614 66.0078 44.2775 65.7166 44.7607C65.4254 45.2439 65.2397 45.7832 65.1717 46.3432C65.1037 46.9033 65.1549 47.4713 65.322 48.0102C65.4891 48.549 65.7683 49.0464 66.1413 49.4697C67.6513 51.3197 70.5513 51.8497 72.8113 51.7697C75.3613 51.6697 80.2913 49.2097 80.7013 48.9997L81.3613 52.0797C82.0513 55.4297 82.7313 58.7897 83.5013 62.0797C83.7713 63.2197 84.0713 64.3397 84.3713 65.4597C83.5413 64.5897 82.0013 63.0397 81.8513 62.9197C79.4913 61.0297 73.8513 58.7497 70.9813 60.6197C70.5179 60.9414 70.1278 61.3575 69.8366 61.8407C69.5454 62.3239 69.3597 62.8632 69.2917 63.4232C69.2237 63.9833 69.2749 64.5513 69.442 65.0902C69.6091 65.629 69.8883 66.1264 70.2613 66.5497C71.7713 68.3997 74.6713 68.9297 76.9313 68.8397C79.1913 68.7497 83.3913 66.7797 84.5713 66.2097C85.0813 68.0697 85.6313 69.8997 86.2613 71.6797C86.5513 72.4397 86.7913 73.2397 87.1113 73.9497L87.5913 75.0897L87.0013 74.9997C87.0013 74.9997 86.9513 76.0597 87.0513 77.7797C84.5613 76.0097 80.9713 74.4797 78.6313 75.5497C78.1248 75.7975 77.6765 76.1497 77.3158 76.583C76.955 77.0163 76.6899 77.5209 76.5378 78.0639C76.3858 78.6069 76.3503 79.1758 76.4336 79.7335C76.5169 80.2911 76.7172 80.8249 77.0213 81.2997C77.1682 81.5577 77.3425 81.7991 77.5413 82.0197C77.9826 84.6491 79.0913 87.1213 80.7613 89.1997C80.8913 89.3397 82.5813 90.9097 83.4613 91.6897C82.6113 91.2197 81.7613 90.7697 80.8813 90.2697C79.6113 89.5697 78.2913 88.7797 77.0013 88.0197L75.0013 86.7597C74.3213 86.3497 73.7213 85.8697 73.0713 85.4197C72.1313 84.7497 71.1913 83.9997 70.2613 83.2597C71.0513 81.9997 73.3213 78.2597 73.6513 76.1197C73.9813 73.9797 73.8013 70.9397 72.1313 69.2297C71.7559 68.804 71.2943 68.4632 70.777 68.2297C70.2598 67.9962 69.6988 67.8754 69.1313 67.8754C68.5638 67.8754 68.0028 67.9962 67.4855 68.2297C66.9683 68.4632 66.5066 68.804 66.1313 69.2297C63.9513 71.8297 65.5613 77.7297 67.1813 80.2897C67.1813 80.3797 67.6313 80.8797 68.1013 81.4797C67.2113 80.7297 66.3213 79.9797 65.4413 79.1797C62.9513 76.9297 60.4413 74.5597 58.0013 72.1797L56.4413 70.7097C57.1213 69.6597 59.6113 65.6597 59.9613 63.3897C60.3113 61.1197 60.1113 58.2097 58.4413 56.4897C58.0659 56.064 57.6043 55.7232 57.087 55.4897C56.5698 55.2562 56.0088 55.1354 55.4413 55.1354C54.8738 55.1354 54.3128 55.2562 53.7955 55.4897C53.2783 55.7232 52.8166 56.064 52.4413 56.4897C50.2613 59.0897 51.8713 64.9897 53.4413 67.5597C53.5013 67.6497 53.9813 68.2497 54.5213 68.9197C53.1513 67.6597 51.7713 66.4097 50.3613 65.2197C47.9618 63.1579 45.4261 61.2602 42.7713 59.5397C43.0213 59.1697 46.0413 54.5397 46.4213 52.0197C46.7613 49.7797 46.5713 46.8397 44.9013 45.1197C44.5259 44.694 44.0643 44.3532 43.547 44.1197C43.0298 43.8862 42.4688 43.7654 41.9013 43.7654C41.3338 43.7654 40.7728 43.8862 40.2555 44.1197C39.7383 44.3532 39.2766 44.694 38.9013 45.1197C36.7213 47.7197 38.3313 53.6197 39.9013 56.1897C40.0113 56.3697 41.7513 58.5397 42.3913 59.2897L42.3013 59.2297C39.655 57.5987 36.8671 56.2097 33.9713 55.0797C31.3899 54.0596 28.7523 53.1882 26.0713 52.4697C23.5913 51.7797 21.2813 51.2997 19.2313 50.8897C18.1213 50.6797 17.1013 50.4997 16.1513 50.3497C16.1513 50.3497 12.7413 48.0597 12.5113 47.9497C9.80127 46.5997 3.76127 45.5897 1.40127 48.0197C1.00804 48.4334 0.707924 48.9266 0.521094 49.466C0.334263 50.0054 0.265043 50.5785 0.318091 51.1469C0.371138 51.7153 0.545221 52.2657 0.828642 52.7612C1.11206 53.2567 1.49826 53.6858 1.96127 54.0197C3.83127 55.5097 6.78127 55.3997 8.96127 54.8297C11.1413 54.2597 14.9613 51.3097 15.9613 50.5697C16.9613 50.7497 17.9613 50.9497 19.1613 51.1897C21.1613 51.6497 23.4913 52.1897 25.9413 52.9197C26.6013 53.1097 27.2913 53.3497 27.9413 53.5697C26.7213 53.4397 25.0413 53.2897 24.8813 53.2897C21.8813 53.3397 16.0313 55.2297 15.0513 58.4697C14.9039 59.0122 14.8726 59.5797 14.9593 60.1351C15.0461 60.6906 15.2489 61.2215 15.5546 61.6933C15.8603 62.1651 16.262 62.5671 16.7336 62.8732C17.2051 63.1793 17.7359 63.3825 18.2913 63.4697C20.6413 63.9297 23.2013 62.4697 24.8913 60.9697C26.5813 59.4697 28.6913 54.9097 29.1213 53.9697C30.6213 54.4797 32.1213 55.0297 33.7013 55.6997C36.537 56.8803 39.2612 58.3127 41.8413 59.9797C41.9813 60.0697 42.1313 60.1897 42.2713 60.2897C41.6813 60.1197 38.3713 59.4297 38.1313 59.4097C35.1313 59.1297 29.1313 60.4097 27.7913 63.4797C27.5811 64.004 27.4844 64.5668 27.5074 65.1312C27.5305 65.6956 27.6728 66.2487 27.925 66.7542C28.1773 67.2596 28.5337 67.7058 28.9708 68.0636C29.408 68.4213 29.9159 68.6824 30.4613 68.8297C32.7513 69.5397 35.4613 68.3797 37.3013 67.0597C39.4213 65.5397 42.3013 60.5497 42.3713 60.3597C44.895 62.0921 47.3065 63.9825 49.5913 66.0197C51.2813 67.5197 52.9413 69.1197 54.5913 70.7297C53.8113 70.5297 50.7313 69.8797 50.5013 69.8597C47.5013 69.5797 41.5013 70.8597 40.1613 73.9397C39.9528 74.4634 39.8574 75.0253 39.8813 75.5886C39.9052 76.1518 40.0479 76.7036 40.3 77.2078C40.5521 77.712 40.9079 78.1573 41.3442 78.5143C41.7804 78.8714 42.2872 79.1322 42.8313 79.2797C45.1213 79.9897 47.8313 78.8297 49.6713 77.5097C51.7413 76.0297 54.4913 71.2597 54.7213 70.8597C55.4713 71.5897 56.2213 72.3197 56.9613 73.0597C59.3913 75.4797 61.8113 77.9097 64.2813 80.2297C65.1313 81.0397 66.0013 81.7997 66.8713 82.5697C65.7013 82.2997 63.5613 81.8597 63.3713 81.8397C60.3713 81.5597 54.3713 82.8397 53.0313 85.9197C52.8228 86.4434 52.7274 87.0053 52.7513 87.5686C52.7752 88.1318 52.9179 88.6836 53.17 89.1878C53.4221 89.692 53.7779 90.1373 54.2141 90.4943C54.6504 90.8514 55.1572 91.1122 55.7013 91.2597C57.9813 91.9797 60.7013 90.8097 62.5313 89.4997C64.3613 88.1897 66.7813 84.2097 67.4413 83.0897C68.9013 84.3497 70.3713 85.5797 71.8813 86.7197C72.5413 87.1897 73.1813 87.7197 73.8813 88.1397L75.8313 89.4397C77.1913 90.2897 78.4513 91.0697 79.7413 91.8197C80.3813 92.2097 81.0013 92.5597 81.6413 92.9197C80.4913 92.4697 78.6413 91.7997 78.4913 91.7497C75.5513 91.0197 69.4413 91.3297 67.6513 94.2097C67.3646 94.6961 67.1842 95.2376 67.1218 95.7988C67.0594 96.3599 67.1165 96.9279 67.2894 97.4653C67.4623 98.0028 67.7469 98.4976 68.1247 98.9172C68.5025 99.3367 68.9648 99.6716 69.4813 99.8997C71.6313 100.95 74.4813 100.21 76.4813 99.1897C78.7113 98.0597 82.0613 93.9197 82.4813 93.4097C84.0413 94.2997 85.5613 95.1397 87.0013 95.9097C90.8413 97.9697 94.2013 99.6097 96.8013 100.83C105.261 108.15 117.161 108.95 117.161 108.95C117.161 108.95 117.791 94.6897 109.401 85.3097C106.534 82.217 103.04 79.7725 99.1513 78.1397ZM84.0513 92.0497C84.3113 91.4597 86.3413 86.9297 86.4813 84.3797L87.8813 84.0897C88.7407 88.5922 90.5286 92.8664 93.1313 96.6397C91.5913 95.913 89.9246 95.0997 88.1313 94.1997C86.8413 93.5297 85.4613 92.8097 84.0513 92.0497V92.0497Z" fill="white"/>
<path opacity="0.5" d="M161.53 75.4199C161.53 75.4199 147.26 75.8499 138.53 84.9299C129.8 94.0099 129.91 108.27 129.91 108.27C129.91 108.27 144.17 107.83 152.91 98.7599C161.65 89.6899 161.53 75.4199 161.53 75.4199Z" fill="white"/>
</g>
<path d="M124.273 84.61L138.283 72.01L137.683 71.34L124.263 83.4L124.193 66.9L124.263 66.95L136.123 49.62L135.373 49.11L124.193 65.47L124.013 25.75H123.123L123.233 52.71L114.313 44.99L113.723 45.67L123.243 53.91L123.323 73.18L109.803 61.22L109.203 61.89L123.323 74.39L123.403 91.94L113.243 83.97L112.693 84.67L123.413 93.09L123.453 104.38H124.353L124.273 84.6V84.61Z" fill="white"/>
<path d="M111.36 89.4693L110.47 89.3692L109.34 99.3392L103.32 92.6192H103.34L101.81 80.5392L100.92 80.6593L102.28 91.4593L87.3302 74.7393L86.6602 75.3392L96.8102 86.6792L90.3802 86.7592L90.4001 87.6593L97.6002 87.5693L104.72 95.5193L94.6702 95.5293V96.4292L105.52 96.4193L111.99 103.649L104.9 104.079L104.96 104.969L112.75 104.499L117.06 109.319L117.73 108.719L110.14 100.239L111.36 89.4693Z" fill="white"/>
<path d="M145.222 93.0294L157.142 90.5994L156.962 89.7194L146.302 91.8894L161.852 75.7294L161.202 75.1094L150.652 86.0694L150.092 79.6694L149.202 79.7494L149.822 86.9294L142.422 94.6194L141.662 84.5994L140.762 84.6694L141.592 95.4894L134.862 102.469L133.912 95.4394L133.012 95.5594L134.062 103.299L129.582 107.959L130.232 108.579L138.122 100.379L148.962 100.789L148.992 99.8994L138.962 99.5094L145.212 93.0094L145.222 93.0294Z" fill="white"/>
<path d="M151.31 58.2499C155.988 58.2499 159.78 54.4174 159.78 49.6899C159.78 44.9623 155.988 41.1299 151.31 41.1299C146.632 41.1299 142.84 44.9623 142.84 49.6899C142.84 54.4174 146.632 58.2499 151.31 58.2499Z" fill="#2855AF" stroke="white" stroke-linecap="round" stroke-linejoin="round"/>
<path d="M174.82 73.1097C174.82 73.1097 178.82 72.9397 179.82 80.0297C180.82 87.1197 185 105.61 185.35 108.2C185.7 110.79 184.14 113.91 180.35 115.12C176.56 116.33 174.47 112.7 174.12 110.97C173.77 109.24 170.43 88.1797 170.43 88.1797L174.82 73.1097Z" fill="#2855AF" stroke="white" stroke-linecap="round" stroke-linejoin="round"/>
<path d="M135.891 90.3496C135.891 90.3496 118.371 97.7596 118.371 100.45C118.371 103.14 129.161 129.45 129.161 129.45L175.651 117.32L170.441 88.1996C170.441 88.1996 163.521 79.5696 135.891 90.3496Z" fill="#7CCCDB" stroke="#2855AF" stroke-linecap="round" stroke-linejoin="round"/>
<path d="M151.871 74.4503C151.871 74.4503 146.871 77.5603 142.871 79.8003C137 82.5004 132.871 85.1603 132.871 91.3903C132.871 97.6203 137.371 122.33 137.371 124.92C137.289 126.076 137.346 127.238 137.541 128.38C137.541 127.86 167.961 117.83 167.961 117.83C168.897 113.853 170.052 109.93 171.421 106.08C172.981 102.28 171.421 98.9903 173.151 92.7703C174.881 86.5503 178.151 82.4003 176.781 77.7703C175.411 73.1403 175.051 73.2803 170.041 73.1003C165.031 72.9203 156.711 72.8903 151.871 74.4503Z" fill="#2855AF" stroke="white" stroke-linecap="round" stroke-linejoin="round"/>
<path d="M149.589 71.7294C149.589 71.7294 147.339 72.9394 146.469 78.4694C145.905 82.8838 145.618 87.3292 145.609 91.7794C145.609 91.7794 154.939 86.5994 156.329 86.4194C157.719 86.2394 167.739 90.4194 167.739 90.4194C166.926 85.8423 165.769 81.3329 164.279 76.9294C162.209 71.3794 151.659 69.3094 149.589 71.7294Z" fill="white" stroke="#2855AF" stroke-linecap="round" stroke-linejoin="round"/>
<path d="M147.859 70.3496L148.029 70.9396C148.699 73.2796 151.209 81.9396 152.699 86.2496C154.429 91.2496 157.019 93.3396 157.019 93.3396L159.609 82.9996C159.609 82.9996 149.409 73.1096 147.859 70.3496Z" fill="white" stroke="#2855AF" stroke-linecap="round" stroke-linejoin="round"/>
<path d="M156.999 48.2201C156.999 48.2201 148.529 46.8401 145.589 57.9001C142.649 68.9601 152.159 78.4701 154.919 82.1001C157.679 85.7301 161.679 86.8901 163.919 83.3101C167.379 77.7801 168.419 75.0101 168.919 67.7501C169.419 60.4901 168.569 55.6501 165.289 51.8501C164.228 50.7107 162.946 49.8007 161.52 49.1764C160.094 48.5521 158.555 48.2266 156.999 48.2201V48.2201Z" fill="white" stroke="#2855AF" stroke-linecap="round" stroke-linejoin="round"/>
<path d="M165.319 51.8501C164.257 50.7095 162.973 49.7988 161.545 49.1744C160.118 48.55 158.577 48.2252 157.019 48.2201C157.019 48.2201 148.549 46.8401 145.609 57.9001C144.804 61.037 144.883 64.3356 145.839 67.4301C146.149 66.6401 146.619 66.0201 147.339 66.0201C149.409 66.0201 149.589 68.9601 150.279 68.7901C150.969 68.6201 153.729 66.2001 153.219 63.9501C152.709 61.7001 153.389 60.6701 157.019 60.6701C160.649 60.6701 161.509 62.2201 162.719 61.8801C163.929 61.5401 164.799 59.1101 166.009 59.1101C166.549 59.129 167.081 59.2555 167.572 59.4822C168.063 59.7088 168.504 60.0311 168.869 60.4301C168.602 57.2715 167.362 54.2736 165.319 51.8501V51.8501Z" fill="#2855AF" stroke="white" stroke-linecap="round" stroke-linejoin="round"/>
<path d="M150.28 69.8298C150.28 69.8298 148.89 66.3698 147.34 66.0198C145.79 65.6698 144.92 66.7198 145.78 69.6498C146.64 72.5798 147.86 73.7998 148.55 73.7998C149.24 73.7998 149.55 72.7998 149.55 72.7998" fill="white"/>
<path d="M150.28 69.8298C150.28 69.8298 148.89 66.3698 147.34 66.0198C145.79 65.6698 144.92 66.7198 145.78 69.6498C146.64 72.5798 147.86 73.7998 148.55 73.7998C149.24 73.7998 149.55 72.7998 149.55 72.7998" stroke="#2855AF" stroke-linecap="round" stroke-linejoin="round"/>
<path d="M137.66 105.26C137.66 105.26 138.52 110.8 142.33 113.26C146.14 115.72 151.33 114.47 151.33 114.47" stroke="#2855AF" stroke-linecap="round" stroke-linejoin="round"/>
<path d="M157 93.3398C157 93.3398 159.42 102.5 158.9 106.47" stroke="#2855AF" stroke-linecap="round" stroke-linejoin="round"/>
<path d="M105.359 90.9996C105.359 90.9996 107.459 91.8696 109.039 97.2996C110.619 102.73 114.809 112.7 115.859 116.55C116.909 120.4 116.559 125.3 112.009 126.55C107.459 127.8 102.559 115.35 101.859 114.3C101.159 113.25 99.409 103.45 100.289 98.1996C101.169 92.9496 103.439 90.3096 105.359 90.9996Z" fill="white" stroke="#2855AF" stroke-linecap="round" stroke-linejoin="round"/>
<path d="M80.4416 109.18C80.4416 109.18 53.1016 135.85 53.1016 139.85C53.1016 143.85 69.1916 176.93 73.6916 176.18C78.1916 175.43 98.4416 153.85 98.4416 153.85L80.4416 109.18Z" fill="#7CCCDB" stroke="#2855AF" stroke-linecap="round" stroke-linejoin="round"/>
<path d="M81.211 95.2102C76.0162 99.8062 71.107 104.715 66.511 109.91C60.381 117.08 60.911 129.16 62.831 137.38C64.751 145.6 68.261 168.88 72.631 169.76C77.001 170.64 80.511 161.36 88.211 154.76C95.911 148.16 102.041 142.51 102.561 138.13C103.081 133.75 102.391 119.76 102.741 118.71C103.574 113.556 104.041 108.35 104.141 103.13C104.141 98.0602 100.291 92.4602 96.441 91.2302C92.591 90.0002 82.781 94.0002 81.211 95.2102Z" fill="white" stroke="#2855AF" stroke-linecap="round" stroke-linejoin="round"/>
<path d="M116.659 259.83C116.659 259.83 110.999 271.47 102.899 278.88C94.7993 286.29 82.0893 295.46 82.0893 295.46C82.0893 295.46 95.4893 299.7 98.3193 300.05C101.149 300.4 100.429 301.81 97.2593 303.23C94.0893 304.65 90.1993 305.7 81.3793 305.7C72.5593 305.7 66.9193 305.7 66.5593 303.58C66.1993 301.46 71.8593 296.17 76.0893 291.94C80.3193 287.71 96.5493 261.24 97.9593 259.83C99.3693 258.42 109.249 253.83 116.659 259.83Z" fill="white" stroke="#2855AF" stroke-linecap="round" stroke-linejoin="round"/>
<path d="M98.3196 300.05C95.9896 299.76 86.4996 296.84 83.2196 295.82L80.6796 301.46C78.7623 301.77 76.7993 301.63 74.9457 301.05C73.0921 300.47 71.3988 299.467 69.9996 298.12C67.8896 300.41 66.3696 302.45 66.5496 303.58C66.9096 305.7 72.5496 305.7 81.3696 305.7C90.1896 305.7 94.0696 304.64 97.2496 303.23C100.43 301.82 101.14 300.4 98.3196 300.05Z" fill="#2855AF" stroke="#2855AF" stroke-linecap="round" stroke-linejoin="round"/>
<path d="M217.879 259.83C217.879 259.83 223.529 271.47 231.639 278.88C239.749 286.29 252.459 295.46 252.459 295.46C252.459 295.46 239.049 299.7 236.229 300.05C233.409 300.4 234.109 301.81 237.289 303.23C240.469 304.65 244.289 305.7 253.159 305.7C262.029 305.7 267.629 305.7 267.979 303.58C268.329 301.46 262.689 296.17 258.449 291.94C254.209 287.71 237.989 261.24 236.579 259.83C235.169 258.42 225.289 253.83 217.879 259.83Z" fill="white" stroke="#2855AF" stroke-linecap="round" stroke-linejoin="round"/>
<path d="M236.23 300.05C238.55 299.76 248.05 296.84 251.33 295.82L253.87 301.46C255.785 301.768 257.746 301.626 259.598 301.046C261.449 300.467 263.141 299.465 264.54 298.12C266.64 300.41 268.17 302.45 267.98 303.58C267.63 305.7 261.98 305.7 253.16 305.7C244.34 305.7 240.46 304.64 237.29 303.23C234.12 301.82 233.41 300.4 236.23 300.05Z" fill="#2855AF" stroke="#2855AF" stroke-linecap="round" stroke-linejoin="round"/>
<path d="M35.1591 264.77C35.1591 264.77 40.0991 273.94 39.7491 277.12C39.4591 279.71 33.2891 299.49 31.0391 306.65C30.9507 306.933 30.9334 307.233 30.9887 307.524C31.044 307.815 31.1702 308.087 31.3562 308.318C31.5421 308.548 31.782 308.729 32.0546 308.845C32.3273 308.96 32.6242 309.007 32.9191 308.98V308.98C33.2706 308.948 33.6049 308.814 33.8805 308.593C34.1561 308.373 34.3608 308.076 34.4691 307.74L44.3391 277.47C44.3391 277.47 46.0991 275.35 51.7491 274.3C56.0691 273.48 77.5891 272.47 87.4091 272.04C89.2211 271.937 91.0025 272.541 92.3774 273.726C93.7524 274.91 94.6135 276.583 94.7791 278.39C94.7791 278.44 94.7791 278.48 94.7791 278.53C95.0891 282.6 101.779 303.65 103.299 308.31C103.382 308.566 103.553 308.783 103.783 308.923C104.012 309.062 104.284 309.114 104.549 309.07C104.698 309.045 104.841 308.99 104.969 308.909C105.096 308.827 105.206 308.72 105.291 308.595C105.376 308.47 105.434 308.328 105.463 308.18C105.492 308.031 105.491 307.878 105.459 307.73C104.259 302.27 99.1091 278.73 97.2491 266.89C97.2491 266.89 59.8491 268.65 51.3791 266.53C46.2882 265.259 41.4148 263.236 36.9191 260.53C36.9191 260.53 34.8091 260.54 35.1591 264.77Z" fill="#2855AF" stroke="#2855AF" stroke-linecap="round" stroke-linejoin="round"/>
<path d="M32.0004 202.68C32.0004 202.68 19.2904 242.54 21.4004 249.6C23.5104 256.66 33.7504 266.53 37.6304 266.53C41.5104 266.53 44.6904 227.73 44.6904 224.2C44.6904 220.67 38.0004 208 35.8704 202.68C33.7404 197.36 32.0004 202.68 32.0004 202.68Z" fill="#7CCCDB" stroke="#2855AF" stroke-linecap="round" stroke-linejoin="round"/>
<path d="M101.441 262.3C101.311 266.3 100.691 269.36 99.0208 269.36C95.8508 269.36 61.2708 272.88 53.1608 272.53C45.0508 272.18 39.0508 268 39.0508 262C39.0508 256 39.4008 229.54 45.4008 226C51.4008 222.46 83.1508 222.12 90.5608 222.12C99.6808 222.12 100.071 239.74 100.461 245.71C100.571 247.43 101.641 256 101.441 262.3Z" fill="#7CCCDB" stroke="#2855AF" stroke-linecap="round" stroke-linejoin="round"/>
<path d="M92.3214 262.65C92.3214 262.65 114.901 263.36 116.661 259.83C118.421 256.3 116.661 248.89 112.081 247.48C107.501 246.07 88.4414 247.13 88.4414 247.13L92.3214 262.65Z" fill="white" stroke="#2855AF" stroke-linecap="round" stroke-linejoin="round"/>
<path d="M37.6303 229.49C36.2874 234.205 35.6935 239.101 35.8703 244C36.2203 251.77 38.3403 259.53 48.8703 265.88C59.4003 272.23 94.0303 264.82 94.0303 264.82L91.5603 218.6C91.5603 218.6 68.6303 215.78 55.9303 218.25C43.2303 220.72 38.0003 228.08 37.6303 229.49Z" fill="#2855AF" stroke="#2855AF" stroke-linecap="round" stroke-linejoin="round"/>
<path d="M203 66.8695C200.46 69.5437 198.469 72.6897 197.14 76.1295C195.25 81.4295 189.01 97.3095 189.2 100.329C189.39 103.349 192.03 107.139 194.68 105.059C197.33 102.979 203.75 91.8295 204.13 91.2595C204.51 90.6895 204.89 82.7495 204.89 77.8295C204.89 72.9095 205.22 66.6795 203 66.8695Z" fill="white" stroke="#2855AF" stroke-linecap="round" stroke-linejoin="round"/>
<path d="M209.101 83.8501C211.171 83.4501 258.441 93.8501 258.441 99.1801C258.441 104.51 247.771 133.85 247.771 133.85L202.441 121.85C202.441 121.85 203.351 85.0001 209.101 83.8501Z" fill="#7CCCDB" stroke="#2855AF" stroke-linecap="round" stroke-linejoin="round"/>
<path d="M225.072 60.8201C225.072 60.8201 214.862 59.6801 207.672 63.2801C200.482 66.8801 200.492 72.9201 200.872 78.7801C201.252 84.6401 203.202 116.25 203.772 118.52C204.342 120.79 217.322 120.19 224.882 121.7C232.442 123.21 237.742 116.97 238.882 114.51C240.022 112.05 253.252 88.0401 253.252 82.9401C253.252 77.8401 247.772 68.1901 240.012 63.6501C235.529 60.9552 230.23 59.9515 225.072 60.8201V60.8201Z" fill="white" stroke="#2855AF" stroke-linecap="round" stroke-linejoin="round"/>
<path d="M217.882 80.29L219.962 84.83L211.832 113.19L213.722 118.67L219.212 114.51L222.232 85.4L226.392 80.86L224.312 75.75L217.882 80.29Z" fill="#2855AF" stroke="#2855AF" stroke-linecap="round" stroke-linejoin="round"/>
<path d="M218.45 68.57C217.331 70.6991 216.382 72.9125 215.61 75.19C215.1 77.6775 214.849 80.2109 214.86 82.75C214.86 82.75 220.91 79.91 222.61 79.91C224.31 79.91 227.71 87.67 227.71 87.67C227.71 87.67 232.82 80.1 233.58 74.67C234.34 69.24 228.47 65.22 224.31 65.22C223.124 65.2088 221.956 65.5131 220.926 66.1018C219.897 66.6904 219.042 67.5423 218.45 68.57V68.57Z" fill="white" stroke="#2855AF" stroke-linecap="round" stroke-linejoin="round"/>
<path d="M239.999 63.09C239.999 63.09 241.899 60.25 242.269 62.9C242.639 65.55 240.379 67.62 239.059 68.38C238.725 68.6101 238.329 68.7332 237.924 68.7332C237.519 68.7332 237.123 68.6101 236.789 68.38" fill="white"/>
<path d="M239.999 63.09C239.999 63.09 241.899 60.25 242.269 62.9C242.639 65.55 240.379 67.62 239.059 68.38C238.725 68.6101 238.329 68.7332 237.924 68.7332C237.519 68.7332 237.123 68.6101 236.789 68.38" stroke="#2855AF" stroke-linecap="round" stroke-linejoin="round"/>
<path d="M220.719 52.1197C220.719 52.1197 218.829 50.6097 217.719 53.6297C216.609 56.6497 218.479 60.4397 218.479 60.4397L220.369 56.4397" fill="white"/>
<path d="M220.719 52.1197C220.719 52.1197 218.829 50.6097 217.719 53.6297C216.609 56.6497 218.479 60.4397 218.479 60.4397L220.369 56.4397" stroke="#2855AF" stroke-linecap="round" stroke-linejoin="round"/>
<path d="M220.719 77.4601C220.633 77.7497 220.618 78.0555 220.673 78.3523C220.729 78.6491 220.854 78.9286 221.038 79.1676C221.223 79.4067 221.461 79.5987 221.734 79.7278C222.007 79.8568 222.307 79.9193 222.609 79.9101C225.069 80.1001 230.169 74.8101 230.549 73.6701C230.929 72.5301 220.719 77.4601 220.719 77.4601Z" fill="white" stroke="#2855AF" stroke-linecap="round" stroke-linejoin="round"/>
<path d="M229.61 40.5902C229.61 40.5902 222.99 43.5902 221.48 48.3402C219.97 53.0902 217.48 62.7102 217.48 66.3402C217.48 69.9702 218.61 77.3402 221.07 78.4402C223.53 79.5402 231.66 74.2802 233.92 72.7702C236.18 71.2602 238.84 65.4002 241.68 61.9902C244.52 58.5802 246.78 52.3502 245.68 47.2502C244.58 42.1502 236.22 36.0502 229.61 40.5902Z" fill="white" stroke="#2855AF" stroke-linecap="round" stroke-linejoin="round"/>
<path d="M245.681 47.2099C244.541 42.0999 236.221 36.0499 229.611 40.5899C229.611 40.5899 222.991 43.5899 221.481 48.3399C220.761 50.5899 219.831 53.9399 219.051 57.2299C220.341 55.2299 222.481 51.7799 222.611 50.9899C222.801 49.8499 222.801 49.6599 224.121 49.6599C225.441 49.6599 227.901 53.4399 231.311 54.1999C234.721 54.9599 239.251 54.3899 239.251 56.2799C239.251 58.1699 236.601 61.1999 238.301 62.1399C239.631 62.8799 238.441 65.4299 238.561 66.5399C239.503 64.9386 240.555 63.4049 241.711 61.9499C244.541 58.5499 246.811 52.3099 245.681 47.2099Z" fill="#2855AF" stroke="#2855AF" stroke-linecap="round" stroke-linejoin="round"/>
<path d="M220.91 58.9296C220.91 58.9296 227.53 62.1396 230.74 63.2796C233.95 64.4196 237.17 65.7296 236.03 67.8096C234.89 69.8896 231.12 70.8096 228.85 69.8896C226.58 68.9696 227.15 64.2196 225.85 64.0296C224.55 63.8396 223.59 66.2996 221.13 66.2996C218.67 66.2996 216.02 62.5196 216.4 59.8696C216.78 57.2196 220.91 58.9296 220.91 58.9296Z" fill="white" stroke="#2855AF" stroke-linecap="round" stroke-linejoin="round"/>
<path d="M236.602 65.9203L240.952 61.5703" stroke="#2855AF" stroke-linecap="round" stroke-linejoin="round"/>
<path d="M217.512 58.7399L219.772 53.6299" stroke="#2855AF" stroke-linecap="round" stroke-linejoin="round"/>
<path d="M270.31 98.8398C270.31 98.8398 257.77 110 254.52 113.23C251.27 116.46 251.12 122.67 254.21 124.06C257.3 125.45 267.06 119.73 268.6 118.49C270.14 117.25 274.33 99.6098 270.31 98.8398Z" fill="#2855AF" stroke="#2855AF" stroke-linecap="round" stroke-linejoin="round"/>
<path d="M301.659 126.74C301.659 126.74 318.509 143.58 315.139 148.97C311.769 154.36 279.429 171.21 279.429 171.21L273.359 144.93L301.659 126.74Z" fill="#7CCCDB" stroke="#2855AF" stroke-linecap="round" stroke-linejoin="round"/>
<path d="M280.049 97.7596C280.049 97.7596 272.939 97.1396 270.309 98.8396C267.679 100.54 265.819 116.33 265.309 125.77C264.799 135.21 263.609 142.77 264.229 144.64C264.849 146.51 280.939 166.77 283.229 169.56C285.519 172.35 304.279 143.87 306.909 138.14C309.539 132.41 307.839 127.14 304.429 119.27C301.019 111.4 293.759 104.1 289.429 100.08C288.189 98.9319 286.679 98.1172 285.038 97.7115C283.398 97.3058 281.682 97.3223 280.049 97.7596V97.7596Z" fill="#2855AF" stroke="#2855AF" stroke-linecap="round" stroke-linejoin="round"/>
<path d="M279.9 116.48L279.79 117.08C279.59 118.19 279.16 120.73 278.79 123.6C278.32 127.47 278.48 132.6 279.72 132.6C280.96 132.6 297.2 120.84 297.51 110.17C297.82 99.4996 281.14 112 279.9 116.48Z" fill="white" stroke="#2855AF" stroke-linecap="round" stroke-linejoin="round"/>
<path d="M279.131 95.4404C279.131 95.4404 277.581 101.16 277.581 102.09C277.698 103.189 277.905 104.276 278.201 105.34C278.201 105.34 275.571 109.52 275.881 109.98C276.248 110.434 276.66 110.849 277.111 111.22C277.111 111.22 276.811 117.1 278.041 118.34C279.271 119.58 284.391 118.8 284.391 118.8C284.391 118.8 281.911 121.9 284.701 122.05C287.491 122.2 294.911 116.05 297.081 112.46C299.251 108.87 299.081 102.4 297.081 99.1503C295.081 95.9003 283.151 91.4104 279.131 95.4404Z" fill="white" stroke="#2855AF" stroke-linecap="round" stroke-linejoin="round"/>
<path d="M292.592 84.2896C292.592 84.2896 280.672 85.8396 278.512 90.4796C276.352 95.1196 281.292 100.85 284.852 101.63C286.778 102.083 288.754 102.288 290.732 102.24C290.732 102.24 287.022 105.49 289.342 106.24C291.662 106.99 292.742 106.55 292.742 107.32C292.742 108.09 290.422 110.57 292.432 110.73C294.442 110.89 295.062 107.32 296.302 108.1C297.542 108.88 295.842 111.96 296.462 112.1C297.082 112.24 302.962 106.1 305.462 99.5596C307.962 93.0196 304.532 89.0396 302.062 86.8796C299.592 84.7196 295.532 83.5196 292.592 84.2896Z" fill="#2855AF" stroke="#2855AF" stroke-linecap="round" stroke-linejoin="round"/>
<path d="M292.589 111.37C292.589 111.37 294.759 106.37 296.149 107.51C297.539 108.65 297.079 112.15 295.529 113.39C293.979 114.63 291.039 113.23 291.039 113.23" fill="white"/>
<path d="M292.589 111.37C292.589 111.37 294.759 106.37 296.149 107.51C297.539 108.65 297.079 112.15 295.529 113.39C293.979 114.63 291.039 113.23 291.039 113.23" stroke="#2855AF" stroke-linecap="round" stroke-linejoin="round"/>
<path d="M278.82 124.99L283.77 122.52L283 129.94" fill="white"/>
<path d="M278.82 124.99L283.77 122.52L283 129.94" stroke="#2855AF" stroke-linecap="round" stroke-linejoin="round"/>
<path d="M318.199 256.42C318.199 256.42 309.299 273.94 309.649 277.12C309.939 279.71 316.109 299.49 318.369 306.65C318.455 306.933 318.471 307.233 318.414 307.524C318.357 307.815 318.23 308.087 318.043 308.317C317.857 308.547 317.616 308.728 317.344 308.843C317.071 308.959 316.774 309.006 316.479 308.98C316.128 308.948 315.793 308.813 315.518 308.593C315.242 308.372 315.037 308.076 314.929 307.74L305.069 277.47C305.069 277.47 303.299 275.35 297.659 274.3C293.329 273.48 271.819 272.47 261.989 272.04C260.179 271.939 258.4 272.544 257.027 273.729C255.654 274.913 254.795 276.584 254.629 278.39C254.624 278.436 254.624 278.483 254.629 278.53C254.309 282.6 247.629 303.65 246.099 308.31C246.016 308.565 245.845 308.782 245.615 308.922C245.386 309.061 245.114 309.114 244.849 309.07C244.7 309.045 244.557 308.99 244.43 308.908C244.302 308.826 244.193 308.72 244.107 308.594C244.022 308.469 243.964 308.328 243.935 308.179C243.906 308.031 243.907 307.878 243.939 307.73C245.139 302.27 250.289 278.73 252.159 266.89C252.159 266.89 289.549 268.65 298.019 266.53C306.489 264.41 316.449 252.18 316.449 252.18C316.449 252.18 318.549 252.18 318.199 256.42Z" fill="#2855AF" stroke="#2855AF" stroke-linecap="round" stroke-linejoin="round"/>
<path d="M324.169 198.329C324.169 198.329 333.909 239.019 331.279 245.899C328.649 252.779 317.729 261.899 313.859 261.599C309.989 261.299 309.659 222.379 309.919 218.859C310.179 215.339 317.799 203.169 320.299 197.999C322.799 192.829 324.169 198.329 324.169 198.329Z" fill="#7CCCDB" stroke="#2855AF" stroke-linecap="round" stroke-linejoin="round"/>
<path d="M248.001 262.3C248.121 266.3 248.751 269.36 250.411 269.36C253.591 269.36 288.161 272.88 296.281 272.53C304.401 272.18 310.361 268 310.361 262C310.361 256 310.001 229.49 304.001 226C298.001 222.51 266.251 222.12 258.841 222.12C249.721 222.12 249.321 239.74 248.941 245.71C248.831 247.43 247.771 256 248.001 262.3Z" fill="#7CCCDB" stroke="#2855AF" stroke-linecap="round" stroke-linejoin="round"/>
<path d="M307.841 229.48C307.841 229.48 304.921 236.61 304.921 242.27C304.921 247.93 302.181 259.07 296.521 262.35C290.861 265.63 284.521 267.47 275.151 266.19C265.781 264.91 245.391 261.62 245.391 261.62C245.391 261.62 266.391 246.62 271.681 239.16C276.971 231.7 278.801 225.47 283.001 221.27C287.201 217.07 307.471 212.87 307.841 229.48Z" fill="#2855AF" stroke="#2855AF" stroke-linecap="round" stroke-linejoin="round"/>
<path d="M182.191 286.18C244.185 286.18 294.441 247.34 294.441 199.43C294.441 151.519 244.185 112.68 182.191 112.68C120.197 112.68 69.9414 151.519 69.9414 199.43C69.9414 247.34 120.197 286.18 182.191 286.18Z" fill="#2855AF" stroke="#2855AF" stroke-linecap="round" stroke-linejoin="round"/>
<path d="M182.191 283.58C244.185 283.58 294.441 244.741 294.441 196.83C294.441 148.919 244.185 110.08 182.191 110.08C120.197 110.08 69.9414 148.919 69.9414 196.83C69.9414 244.741 120.197 283.58 182.191 283.58Z" fill="#7CCCDB" stroke="#2855AF" stroke-linecap="round" stroke-linejoin="round"/>
<path d="M237.811 143.56L252.051 159.19L226.821 177.29L212.281 159.65L237.811 143.56Z" fill="white" stroke="#2855AF" stroke-linecap="round" stroke-linejoin="round"/>
<path d="M160.792 144.91L137.492 156.89L158.132 182.18L182.092 166.21L160.792 144.91Z" fill="white" stroke="#2855AF" stroke-linecap="round" stroke-linejoin="round"/>
<path d="M196.122 170.24L172.832 182.22L193.462 207.51L217.422 191.54L196.122 170.24Z" fill="white" stroke="#2855AF" stroke-linecap="round" stroke-linejoin="round"/>
<path d="M193.52 172.08L168.43 179.58L184.07 208.23L210.55 196.92L193.52 172.08Z" fill="white" stroke="#2855AF" stroke-linecap="round" stroke-linejoin="round"/>
<path d="M163.581 130.7C163.581 130.7 168.111 129.01 168.111 130.14C168.111 131.27 168.111 132.4 166.111 132.97C164.111 133.54 157.341 132.12 159.041 131.27C160.491 130.737 162.044 130.542 163.581 130.7V130.7Z" fill="white" stroke="#2855AF" stroke-linecap="round" stroke-linejoin="round"/>
<path d="M138.521 82.0996C138.521 82.0996 132.94 84.8596 130 88.4996C127.06 92.1396 125.391 100.94 124.711 105.09C124.031 109.24 120.911 124.97 122.641 126.87C124.371 128.77 142.861 135.17 146.491 136.21C150.121 137.25 154.491 138.8 156.871 138.63C158.61 138.38 160.267 137.73 161.711 136.73C161.711 136.73 165.861 138.63 166.891 138.63C167.921 138.63 169.311 136.73 168.101 134.82C166.891 132.91 163.521 130.14 161.621 130.14C159.721 130.14 152.721 131.19 152.721 131.19C152.721 131.19 140.791 125.14 137.331 122.72C135.162 121.179 133.137 119.445 131.281 117.54L138.371 95.4096" fill="#2855AF"/>
<path d="M138.521 82.0996C138.521 82.0996 132.94 84.8596 130 88.4996C127.06 92.1396 125.391 100.94 124.711 105.09C124.031 109.24 120.911 124.97 122.641 126.87C124.371 128.77 142.861 135.17 146.491 136.21C150.121 137.25 154.491 138.8 156.871 138.63C158.61 138.38 160.267 137.73 161.711 136.73C161.711 136.73 165.861 138.63 166.891 138.63C167.921 138.63 169.311 136.73 168.101 134.82C166.891 132.91 163.521 130.14 161.621 130.14C159.721 130.14 152.721 131.19 152.721 131.19C152.721 131.19 140.791 125.14 137.331 122.72C135.162 121.179 133.137 119.445 131.281 117.54L138.371 95.4096" stroke="white" stroke-linecap="round" stroke-linejoin="round"/>
<path d="M161.6 130.14C159.7 130.14 152.7 131.19 152.7 131.19C152.7 131.19 151.38 130.53 149.5 129.55C148.04 130.541 146.922 131.959 146.3 133.61C146.078 134.405 145.954 135.224 145.93 136.05L146.47 136.21C150.1 137.21 154.47 138.8 156.85 138.63C158.589 138.38 160.245 137.73 161.69 136.73C161.69 136.73 165.84 138.63 166.87 138.63C167.9 138.63 169.29 136.73 168.08 134.82C166.87 132.91 163.5 130.14 161.6 130.14Z" fill="white" stroke="#2855AF" stroke-linecap="round" stroke-linejoin="round"/>
<path d="M82.4302 99.2301C81.9002 99.3901 77.8803 103.78 77.5303 108.86C77.1803 113.94 81.0302 122.33 81.7302 123.73C82.4302 125.13 81.5602 127.58 83.3102 127.58C85.0602 127.58 90.4903 119.53 90.4903 119.53C90.4903 119.53 96.6102 119.88 97.3102 118.31C98.0102 116.74 92.4103 107.98 91.1903 104.31C89.9703 100.64 85.4102 98.3601 82.4302 99.2301Z" fill="white" stroke="#2855AF" stroke-linecap="round" stroke-linejoin="round"/>
<path d="M82.0824 96.6103C82.0945 99.0179 81.8599 101.42 81.3824 103.78C80.6824 106.23 80.5124 107.46 83.1324 111.31C85.7633 114.771 88.6301 118.045 91.7124 121.11C91.7124 121.11 92.0624 117.11 92.2424 114.81C92.4224 112.51 95.9124 111.13 96.6124 110.08C97.3124 109.03 92.7623 108.33 91.0123 105.18C89.2623 102.03 89.2623 96.6103 86.8123 96.0803C84.3623 95.5503 83.0024 94.1603 82.0824 96.6103Z" fill="white" stroke="#2855AF" stroke-linecap="round" stroke-linejoin="round"/>
<path d="M105.54 85.9299C105.54 85.9299 110.44 84.5299 109.54 79.6299C108.64 74.7299 99.7402 71.0599 90.1202 71.9299C80.5002 72.7999 76.1202 79.1099 75.2402 85.4099C74.3602 91.7099 81.0102 97.8299 81.7102 98.8799C82.4102 99.9299 81.5402 100.98 83.6402 101.68C85.0692 102.081 86.5812 102.081 88.0102 101.68C88.5277 102.424 89.2499 103.003 90.0894 103.345C90.9288 103.688 91.8496 103.78 92.7402 103.61C95.7402 102.91 94.8402 96.9599 96.0702 96.2599C97.3002 95.5599 98.1702 93.2599 101.84 91.1799C105.51 89.0999 105.54 85.9299 105.54 85.9299Z" fill="#2855AF" stroke="#2855AF" stroke-linecap="round" stroke-linejoin="round"/>
<path d="M90.6596 100.46C90.6596 100.46 91.0096 97.6597 87.5096 97.3097C84.0096 96.9597 84.8896 100.31 85.5896 101.86C86.2896 103.41 88.7296 104.66 88.7296 104.66C88.7296 104.66 89.6096 108.66 90.8396 109.03C92.0696 109.4 99.4096 112.53 100.84 112.03C102.27 111.53 103.64 105.03 103.64 105.03C103.64 105.03 106.09 103.8 106.09 102.58C106.09 101.36 105 97.8297 105 96.9997C105 96.1697 106.93 93.6697 107.28 91.7497C107.63 89.8297 105.53 85.9697 105.53 85.9697C105.53 85.9697 104.65 89.1197 101.85 89.1197C99.9529 89.0761 98.0701 88.7836 96.2496 88.2497C96.2496 88.2497 97.6496 91.9197 96.5996 93.4997C95.5496 95.0797 93.7996 94.7197 93.4496 95.4197C93.0996 96.1197 93.2796 99.2697 93.0996 99.9697C92.9196 100.67 91.7096 103.08 90.6596 100.46Z" fill="white" stroke="#2855AF" stroke-linecap="round" stroke-linejoin="round"/>
<path d="M107.641 119.53C107.641 119.53 108.511 126.53 110.261 129.33C112.011 132.13 119.361 142.98 119.361 142.98C119.361 142.98 118.841 146.66 119.361 147.71C120.408 149.913 121.288 152.193 121.991 154.53C121.991 155.23 123.391 155.76 123.561 154.71C123.678 153.898 123.738 153.079 123.741 152.26L126.741 156.81C126.741 156.81 128.321 158.03 128.841 156.98C129.361 155.93 129.021 150.33 129.371 148.06C129.721 145.79 127.971 142.63 126.571 141.23C125.171 139.83 123.421 137.38 122.891 136.86C122.361 136.34 120.091 128.11 119.041 122.51C117.991 116.91 115.191 113.41 113.091 113.06" fill="white"/>
<path d="M107.641 119.53C107.641 119.53 108.511 126.53 110.261 129.33C112.011 132.13 119.361 142.98 119.361 142.98C119.361 142.98 118.841 146.66 119.361 147.71C120.408 149.913 121.288 152.193 121.991 154.53C121.991 155.23 123.391 155.76 123.561 154.71C123.678 153.898 123.738 153.079 123.741 152.26L126.741 156.81C126.741 156.81 128.321 158.03 128.841 156.98C129.361 155.93 129.021 150.33 129.371 148.06C129.721 145.79 127.971 142.63 126.571 141.23C125.171 139.83 123.421 137.38 122.891 136.86C122.361 136.34 120.091 128.11 119.041 122.51C117.991 116.91 115.191 113.41 113.091 113.06" stroke="#2855AF" stroke-linecap="round" stroke-linejoin="round"/>
<path d="M128.809 157C129.339 156 128.989 150.35 129.339 148.08C129.689 145.81 127.939 142.65 126.539 141.25C125.53 140.178 124.578 139.053 123.689 137.88C121.572 138.477 119.673 139.671 118.219 141.32L119.359 143C119.359 143 118.839 146.68 119.359 147.73C120.407 149.933 121.286 152.213 121.989 154.55C121.989 155.25 123.389 155.78 123.559 154.73C123.676 153.918 123.736 153.1 123.739 152.28L126.739 156.83C126.739 156.83 128.289 158 128.809 157Z" fill="white" stroke="#2855AF" stroke-linecap="round" stroke-linejoin="round"/>
<path d="M65.6297 112.53C63.3455 114.341 61.7417 116.872 61.0797 119.71C59.8597 124.61 63.8797 144.56 64.9297 150.33C65.9797 156.1 71.2297 175.33 72.8097 176.58C74.3897 177.83 92.7597 175.53 99.4097 174.31C106.06 173.09 120.41 168.01 123.41 167.13C126.41 166.25 127.96 161.71 128.83 160.83C129.7 159.95 131.63 156.98 130.58 155.93C129.53 154.88 126.58 155.93 125.33 155.93C124.08 155.93 121.83 155.76 119.38 155.76C118.167 155.793 116.997 156.221 116.05 156.979C115.102 157.737 114.428 158.784 114.13 159.96C113.795 161.287 113.2 162.535 112.38 163.63C112.38 163.63 94.3797 166.08 90.5097 166.08C87.9914 166.062 85.4766 165.888 82.9797 165.56C82.9797 165.56 80.8797 153.48 79.2997 145.96C77.7197 138.44 76.2997 132.66 75.0997 130.73" fill="white"/>
<path d="M65.6297 112.53C63.3455 114.341 61.7417 116.872 61.0797 119.71C59.8597 124.61 63.8797 144.56 64.9297 150.33C65.9797 156.1 71.2297 175.33 72.8097 176.58C74.3897 177.83 92.7597 175.53 99.4097 174.31C106.06 173.09 120.41 168.01 123.41 167.13C126.41 166.25 127.96 161.71 128.83 160.83C129.7 159.95 131.63 156.98 130.58 155.93C129.53 154.88 126.58 155.93 125.33 155.93C124.08 155.93 121.83 155.76 119.38 155.76C118.167 155.793 116.997 156.221 116.05 156.979C115.102 157.737 114.428 158.784 114.13 159.96C113.795 161.287 113.2 162.535 112.38 163.63C112.38 163.63 94.3797 166.08 90.5097 166.08C87.9914 166.062 85.4766 165.888 82.9797 165.56C82.9797 165.56 80.8797 153.48 79.2997 145.96C77.7197 138.44 76.2997 132.66 75.0997 130.73" stroke="#2855AF" stroke-linecap="round" stroke-linejoin="round"/>
<path d="M125.31 155.93C124.09 155.93 121.81 155.76 119.36 155.76C118.147 155.792 116.977 156.22 116.03 156.978C115.082 157.736 114.408 158.783 114.11 159.96C113.775 161.286 113.18 162.534 112.36 163.63L111.09 163.8C111.595 164.845 111.906 165.973 112.01 167.13C112.062 168.394 111.985 169.661 111.78 170.91C116.96 169.27 121.78 167.6 123.39 167.13C126.39 166.26 127.94 161.71 128.81 160.83C129.68 159.95 131.61 156.98 130.56 155.93C129.51 154.88 126.54 155.93 125.31 155.93Z" fill="white" stroke="#2855AF" stroke-linecap="round" stroke-linejoin="round"/>
<path d="M113.469 188.91C113.469 188.91 117.979 189.28 119.469 189.28C120.959 189.28 131.309 188.16 129.809 186.47C128.309 184.78 117.009 183.27 117.009 183.27L113.469 188.91Z" fill="white" stroke="#2855AF" stroke-linecap="round" stroke-linejoin="round"/>
<path d="M136.011 178.76L103.141 193.98L115.911 219.9L148.221 203.56L136.011 178.76Z" fill="white" stroke="#2855AF" stroke-linecap="round" stroke-linejoin="round"/>
<path d="M114 187.4C114 187.4 117.94 187.4 118.88 187.97C119.82 188.54 123.76 192.1 124.33 191.16C124.9 190.22 122.64 187.97 121.7 187.03C120.76 186.09 119.82 185.34 119.82 185.34" fill="white"/>
<path d="M114 187.4C114 187.4 117.94 187.4 118.88 187.97C119.82 188.54 123.76 192.1 124.33 191.16C124.9 190.22 122.64 187.97 121.7 187.03C120.76 186.09 119.82 185.34 119.82 185.34" stroke="#2855AF" stroke-linecap="round" stroke-linejoin="round"/>
<path d="M83.1521 174.45L117.002 183.27L111.702 191.03L76.0721 186.8C76.0721 186.8 67.6221 175.16 83.1521 174.45Z" fill="white" stroke="#2855AF" stroke-linecap="round" stroke-linejoin="round"/>
<path d="M59.1914 175.929C59.1914 175.929 50.9414 182.929 48.1914 191.429C45.4414 199.929 43.6914 216.929 43.6914 216.929C43.6914 216.929 34.9414 229.429 34.9414 230.679C34.9414 231.929 42.1914 230.679 42.1914 230.679L35.1914 242.679C35.1914 242.679 35.1914 252.679 40.6914 257.929C43.2305 260.341 46.2772 262.155 49.6081 263.236C52.939 264.318 56.4697 264.64 59.9414 264.179C65.9414 263.179 76.9414 249.679 78.1914 248.929C79.4414 248.179 75.1914 236.679 74.1914 232.429C73.1914 228.179 75.1914 225.179 76.4414 224.429C77.6914 223.679 84.9414 219.179 86.4414 215.929C87.9414 212.679 87.6914 207.179 87.1914 202.929C86.6914 198.679 80.4414 183.929 74.9414 179.429C69.4414 174.929 64.4414 171.929 59.1914 175.929Z" fill="white" stroke="#2855AF" stroke-linecap="round" stroke-linejoin="round"/>
<path d="M64.1914 174.68C64.1914 174.68 60.4414 180.18 60.4414 184.18C60.4414 188.18 63.6914 194.68 66.1914 197.68C67.6609 199.451 69.2478 201.122 70.9414 202.68L76.4414 201.43L76.6914 205.68C76.6914 205.68 77.9414 203.43 81.4414 204.93C84.9414 206.43 87.1914 205.43 87.1914 204.68C88.3869 199.836 88.3869 194.774 87.1914 189.93C85.1914 181.18 82.9414 179.68 79.6914 176.43C76.4414 173.18 68.9414 171.93 64.1914 174.68Z" fill="white" stroke="#2855AF" stroke-linecap="round" stroke-linejoin="round"/>
<path d="M66.6899 175.93C66.6899 175.93 63.9399 180.68 65.4399 184.43C66.9399 188.18 71.6899 192.68 75.4399 195.93C79.1899 199.18 83.9399 202.68 83.9399 202.68C84.7882 199.914 85.0704 197.005 84.7697 194.127C84.4691 191.249 83.5917 188.461 82.1899 185.93C77.4399 176.93 68.9399 174.18 66.6899 175.93Z" fill="white" stroke="#2855AF" stroke-linecap="round" stroke-linejoin="round"/>
<path d="M88.4414 153.18C89.1421 154.803 89.7269 156.474 90.1914 158.18V159.93C90.1914 159.93 93.6914 161.93 93.1914 162.68C92.6914 163.43 90.6914 166.68 90.6914 166.68C90.9652 169.429 90.8812 172.202 90.4414 174.93C89.6914 178.18 90.6914 179.68 87.9414 179.68H80.9414C80.9414 179.68 80.1914 190.18 78.4414 190.18C76.6914 190.18 68.6914 186.43 67.1914 184.43C65.6914 182.43 65.1914 180.43 65.6914 178.93C67.2473 174.922 68.5826 170.833 69.6914 166.68C70.6914 162.18 78.1914 158.68 79.9414 157.93C81.6914 157.18 88.4414 153.18 88.4414 153.18Z" fill="white" stroke="#2855AF" stroke-linecap="round" stroke-linejoin="round"/>
<path d="M60.6914 170.93C60.6914 170.93 54.6914 169.93 51.6914 170.43C48.6914 170.93 44.9414 175.18 44.9414 179.43C44.9414 183.68 48.1914 186.18 53.4414 186.68C58.6914 187.18 62.1914 182.68 62.1914 180.18C62.1942 177.036 61.6877 173.912 60.6914 170.93Z" fill="#2855AF" stroke="#2855AF" stroke-linecap="round" stroke-linejoin="round"/>
<path d="M75.9424 169.68C75.9424 169.68 85.4424 159.43 88.4424 153.18C91.4424 146.93 90.4424 140.43 85.6924 140.43C80.9424 140.43 75.6924 138.93 66.6924 142.18C57.6924 145.43 53.9424 155.93 54.4424 161.43C54.9424 166.93 63.1924 178.18 67.4424 178.93C71.6924 179.68 71.6924 172.18 71.6924 172.18L75.9424 169.68Z" fill="#2855AF" stroke="#2855AF" stroke-linecap="round" stroke-linejoin="round"/>
<path d="M77.1887 171.43C77.1887 171.43 74.9387 166.43 72.1887 167.93C69.4387 169.43 71.9387 174.93 73.6887 176.18C75.4387 177.43 78.1887 175.43 78.1887 175.43" fill="white"/>
<path d="M77.1887 171.43C77.1887 171.43 74.9387 166.43 72.1887 167.93C69.4387 169.43 71.9387 174.93 73.6887 176.18C75.4387 177.43 78.1887 175.43 78.1887 175.43" stroke="#2855AF" stroke-linecap="round" stroke-linejoin="round"/>
<path d="M90.1914 159.93C90.1914 159.93 89.1914 163.18 87.9414 163.68" stroke="#2855AF" stroke-linecap="round" stroke-linejoin="round"/>
<path d="M109.361 205.2C109.361 205.2 107.441 203.92 107.191 205.58C106.941 207.24 108.851 209.03 108.851 209.03C108.851 209.03 106.421 206.35 106.291 207.88C106.161 209.41 107.701 211.08 107.701 211.08C107.701 211.08 105.781 210.18 105.781 210.95C105.781 211.72 108.471 214.4 108.591 215.67C108.711 216.94 111.151 212.99 111.661 209.93C111.77 209.004 111.611 208.066 111.203 207.228C110.795 206.39 110.156 205.686 109.361 205.2Z" fill="white" stroke="#2855AF" stroke-linecap="round" stroke-linejoin="round"/>
<path d="M105.691 224.18C106.295 221.968 106.713 219.71 106.941 217.43C106.941 215.43 109.191 211.93 110.191 209.93C111.191 207.93 106.941 204.43 108.941 203.43C110.941 202.43 112.441 204.43 114.191 206.68C115.941 208.93 116.441 213.68 114.941 216.93C113.527 219.937 111.673 222.717 109.441 225.18C108.709 225.963 107.867 226.637 106.941 227.18L105.691 224.18Z" fill="white" stroke="#2855AF" stroke-linecap="round" stroke-linejoin="round"/>
<path d="M107.582 219.38V213.049C107.582 209.879 109.362 205.2 109.362 205.2C109.655 205.16 109.953 205.194 110.229 205.299C110.505 205.403 110.751 205.575 110.945 205.798C111.138 206.021 111.273 206.289 111.337 206.577C111.401 206.866 111.393 207.165 111.312 207.45C111.148 209.507 111.273 211.577 111.682 213.6" fill="white"/>
<path d="M107.582 219.38V213.049C107.582 209.879 109.362 205.2 109.362 205.2C109.655 205.16 109.953 205.194 110.229 205.299C110.505 205.403 110.751 205.575 110.945 205.798C111.138 206.021 111.273 206.289 111.337 206.577C111.401 206.866 111.393 207.165 111.312 207.45C111.148 209.507 111.273 211.577 111.682 213.6" stroke="#2855AF" stroke-linecap="round" stroke-linejoin="round"/>
<path d="M52.1892 215.68C52.1892 215.68 48.6892 220.68 50.4392 226.18C52.1892 231.68 77.1892 264.93 80.6892 264.93C84.1892 264.93 109.439 232.18 110.939 230.18C112.439 228.18 105.939 223.18 105.939 223.18L80.6892 246.18C80.6892 246.18 73.9392 219.18 71.1892 214.18C68.4392 209.18 61.9392 208.68 61.9392 208.68" fill="white"/>
<path d="M52.1892 215.68C52.1892 215.68 48.6892 220.68 50.4392 226.18C52.1892 231.68 77.1892 264.93 80.6892 264.93C84.1892 264.93 109.439 232.18 110.939 230.18C112.439 228.18 105.939 223.18 105.939 223.18L80.6892 246.18C80.6892 246.18 73.9392 219.18 71.1892 214.18C68.4392 209.18 61.9392 208.68 61.9392 208.68" stroke="#2855AF" stroke-linecap="round" stroke-linejoin="round"/>
<path d="M173.101 109.76C173.101 109.76 176.551 105.96 180.181 105.26C183.811 104.56 185.711 106.99 184.681 111.31C183.651 115.63 180.361 116.67 178.451 116.5C176.541 116.33 173.451 115.5 172.581 113.22C172.302 112.659 172.203 112.027 172.296 111.408C172.389 110.789 172.67 110.214 173.101 109.76Z" fill="#2855AF" stroke="#2855AF" stroke-linecap="round" stroke-linejoin="round"/>
<path d="M175.171 108.72C175.171 108.72 167.741 109.72 166.011 110.97C164.281 112.22 160.301 118.92 160.301 119.78C160.301 120.64 162.721 121.51 163.931 121.51C165.141 121.51 168.261 117.36 168.261 117.36L166.701 121.69C166.701 121.69 168.261 121.51 168.431 120.82C168.601 120.13 171.021 115.46 171.021 115.46C171.021 115.46 175.521 115.64 176.731 113.56C177.941 111.48 178.801 110.1 175.171 108.72Z" fill="white" stroke="#2855AF" stroke-linecap="round" stroke-linejoin="round"/>
<path d="M190.089 97.3096C190.089 97.3096 188.009 104.31 188.009 108.65C188.009 112.99 190.999 127 190.999 127C190.585 129.37 189.55 131.589 187.999 133.43C185.539 136.08 186.299 139.67 187.429 140.8C188.559 141.93 190.839 144.02 191.589 142.69C192.339 141.36 191.779 138.91 192.539 137.97C193.299 137.03 196.129 135.51 196.539 132.67C196.949 129.83 196.349 121.14 196.349 116.41C196.349 111.68 198.809 104.69 196.159 99.7796" fill="white"/>
<path d="M190.089 97.3096C190.089 97.3096 188.009 104.31 188.009 108.65C188.009 112.99 190.999 127 190.999 127C190.585 129.37 189.55 131.589 187.999 133.43C185.539 136.08 186.299 139.67 187.429 140.8C188.559 141.93 190.839 144.02 191.589 142.69C192.339 141.36 191.779 138.91 192.539 137.97C193.299 137.03 196.129 135.51 196.539 132.67C196.949 129.83 196.349 121.14 196.349 116.41C196.349 111.68 198.809 104.69 196.159 99.7796" stroke="#2855AF" stroke-linecap="round" stroke-linejoin="round"/>
<path d="M196.552 124.76C193.482 124.15 191.792 125.19 190.892 126.31C190.982 126.74 191.042 126.99 191.042 126.99C190.628 129.361 189.593 131.579 188.042 133.42C185.582 136.07 186.342 139.66 187.472 140.79C188.602 141.92 190.882 144.01 191.632 142.68C192.382 141.35 191.822 138.9 192.582 137.96C193.342 137.02 196.172 135.5 196.582 132.66C196.73 130.028 196.72 127.39 196.552 124.76Z" fill="white" stroke="#2855AF" stroke-linecap="round" stroke-linejoin="round"/>
<path d="M201.81 124.53L183.66 145.14L202 158.19L219.58 135.88L201.81 124.53Z" fill="white" stroke="#2855AF" stroke-linecap="round" stroke-linejoin="round"/>
<path d="M193.871 133C193.871 133 194.061 139.43 194.061 140.38C194.061 141.33 196.141 142.46 196.331 140.19C196.362 138.922 196.489 137.658 196.711 136.41C196.901 135.84 198.031 132.25 196.521 129.6" fill="white"/>
<path d="M193.871 133C193.871 133 194.061 139.43 194.061 140.38C194.061 141.33 196.141 142.46 196.331 140.19C196.362 138.922 196.489 137.658 196.711 136.41C196.901 135.84 198.031 132.25 196.521 129.6" stroke="#2855AF" stroke-linecap="round" stroke-linejoin="round"/>
<path d="M244.921 82.9396C244.921 82.9396 239.821 88.6096 237.361 93.9396C234.901 99.2696 233.011 112.84 233.011 112.84C233.011 112.84 223.181 128.91 221.851 130.24C220.521 131.57 221.291 131.37 218.071 132.88C214.851 134.39 210.701 135.15 210.131 136.1C209.561 137.05 207.481 141.58 206.921 142.15C206.361 142.72 207.671 143.85 208.431 143.09C209.191 142.33 211.831 139.31 211.831 139.31L208.621 146.87C208.626 147.008 208.661 147.144 208.722 147.269C208.783 147.394 208.87 147.504 208.976 147.594C209.082 147.683 209.206 147.749 209.34 147.788C209.473 147.827 209.613 147.838 209.751 147.82C211.137 147.562 212.483 147.118 213.751 146.5C213.751 146.5 216.971 145.74 218.101 144.23C219.231 142.72 223.401 134.58 223.401 134.58C223.401 134.58 234.401 127.58 238.331 122.86C241.407 119.13 243.837 114.912 245.521 110.38C246.081 108.49 253.081 87.5096 252.891 84.0996C252.701 80.6896 251.001 80.0996 251.001 80.0996" fill="white"/>
<path d="M244.921 82.9396C244.921 82.9396 239.821 88.6096 237.361 93.9396C234.901 99.2696 233.011 112.84 233.011 112.84C233.011 112.84 223.181 128.91 221.851 130.24C220.521 131.57 221.291 131.37 218.071 132.88C214.851 134.39 210.701 135.15 210.131 136.1C209.561 137.05 207.481 141.58 206.921 142.15C206.361 142.72 207.671 143.85 208.431 143.09C209.191 142.33 211.831 139.31 211.831 139.31L208.621 146.87C208.626 147.008 208.661 147.144 208.722 147.269C208.783 147.394 208.87 147.504 208.976 147.594C209.082 147.683 209.206 147.749 209.34 147.788C209.473 147.827 209.613 147.838 209.751 147.82C211.137 147.562 212.483 147.118 213.751 146.5C213.751 146.5 216.971 145.74 218.101 144.23C219.231 142.72 223.401 134.58 223.401 134.58C223.401 134.58 234.401 127.58 238.331 122.86C241.407 119.13 243.837 114.912 245.521 110.38C246.081 108.49 253.081 87.5096 252.891 84.0996C252.701 80.6896 251.001 80.0996 251.001 80.0996" stroke="#2855AF" stroke-linecap="round" stroke-linejoin="round"/>
<path d="M221.291 130.81C220.671 131.52 220.691 131.62 218.071 132.81C214.861 134.33 210.701 135.08 210.131 136.03C209.561 136.98 207.481 141.51 206.921 142.08C206.361 142.65 207.671 143.78 208.431 143.02C209.191 142.26 211.831 139.24 211.831 139.24L208.621 146.8C208.626 146.938 208.661 147.074 208.722 147.199C208.783 147.324 208.87 147.434 208.976 147.524C209.082 147.613 209.206 147.679 209.34 147.718C209.473 147.757 209.613 147.768 209.751 147.75C211.137 147.491 212.483 147.047 213.751 146.43C213.751 146.43 216.971 145.67 218.101 144.16C219.231 142.65 223.401 134.51 223.401 134.51C223.401 134.51 224.081 134.08 225.181 133.35C224.173 132.126 222.816 131.24 221.291 130.81Z" fill="white" stroke="#2855AF" stroke-linecap="round" stroke-linejoin="round"/>
<path d="M296.299 136.75C296.299 136.75 292.119 144.64 291.349 147.75C290.579 150.86 289.349 154.25 289.349 154.25C289.349 154.25 281.609 153.01 274.959 152.25C268.309 151.49 258.869 149.77 256.539 149.31C254.209 148.85 249.889 147.6 248.959 148.38C248.029 149.16 248.649 149 249.739 149.46C250.639 149.735 251.593 149.79 252.519 149.62C252.519 149.62 250.969 150.08 249.269 150.7C247.569 151.32 244.469 152.4 244.009 153.02C243.549 153.64 244.629 155.81 246.329 155.81C247.617 155.728 248.91 155.728 250.199 155.81C251.129 155.96 251.589 156.89 254.689 156.89C257.789 156.89 262.109 154.41 262.109 154.41C262.109 154.41 276.659 161.07 284.859 162.46C293.059 163.85 294.299 162 297.709 159.36C301.119 156.72 311.009 140.49 310.239 137.24C309.735 135.206 308.897 133.269 307.759 131.51" fill="#2855AF"/>
<path d="M296.299 136.75C296.299 136.75 292.119 144.64 291.349 147.75C290.579 150.86 289.349 154.25 289.349 154.25C289.349 154.25 281.609 153.01 274.959 152.25C268.309 151.49 258.869 149.77 256.539 149.31C254.209 148.85 249.889 147.6 248.959 148.38C248.029 149.16 248.649 149 249.739 149.46C250.639 149.735 251.593 149.79 252.519 149.62C252.519 149.62 250.969 150.08 249.269 150.7C247.569 151.32 244.469 152.4 244.009 153.02C243.549 153.64 244.629 155.81 246.329 155.81C247.617 155.728 248.91 155.728 250.199 155.81C251.129 155.96 251.589 156.89 254.689 156.89C257.789 156.89 262.109 154.41 262.109 154.41C262.109 154.41 276.659 161.07 284.859 162.46C293.059 163.85 294.299 162 297.709 159.36C301.119 156.72 311.009 140.49 310.239 137.24C309.735 135.206 308.897 133.269 307.759 131.51" stroke="#2855AF" stroke-linecap="round" stroke-linejoin="round"/>
<path d="M265.441 150.86C261.391 150.2 257.841 149.55 256.531 149.29C254.211 148.82 249.881 147.58 248.951 148.36C248.021 149.14 248.641 148.98 249.731 149.44C250.631 149.715 251.585 149.77 252.511 149.6C252.511 149.6 250.961 150.06 249.261 150.68C247.561 151.3 244.461 152.38 244.001 153C243.541 153.62 244.621 155.79 246.321 155.79C247.61 155.708 248.902 155.708 250.191 155.79C251.121 155.94 251.581 156.87 254.681 156.87C257.781 156.87 262.101 154.39 262.101 154.39C262.101 154.39 263.241 154.91 265.051 155.69L265.441 150.86Z" fill="white" stroke="#2855AF" stroke-linecap="round" stroke-linejoin="round"/>
<path d="M255.451 112.92C255.451 112.92 248.181 116.48 245.391 118.92C242.601 121.36 235.641 137.02 235.491 138.1C235.341 139.18 240.751 139.81 241.371 139.5C241.991 139.19 252.981 126.5 255.761 124.33C256.529 123.83 257.102 123.081 257.384 122.209C257.667 121.337 257.641 120.395 257.311 119.54" fill="#2855AF"/>
<path d="M255.451 112.92C255.451 112.92 248.181 116.48 245.391 118.92C242.601 121.36 235.641 137.02 235.491 138.1C235.341 139.18 240.751 139.81 241.371 139.5C241.991 139.19 252.981 126.5 255.761 124.33C256.529 123.83 257.102 123.081 257.384 122.209C257.667 121.337 257.641 120.395 257.311 119.54" stroke="#2855AF" stroke-linecap="round" stroke-linejoin="round"/>
<path d="M238.122 134.9C235.819 135.387 233.545 136.005 231.312 136.75C229.452 137.53 225.122 143.1 226.202 143.41C227.282 143.72 230.202 140.16 230.202 140.16C229.174 141.616 228.293 143.17 227.572 144.8C227.262 146.04 226.952 148.8 228.192 148.36C229.432 147.92 231.902 144.49 231.902 144.49C231.902 144.49 234.992 142.63 237.472 142.63C239.952 142.63 241.652 137.99 241.652 137.99C241.652 137.99 243.652 135.99 242.892 133.81C242.132 131.63 238.122 134.9 238.122 134.9Z" fill="white" stroke="#2855AF" stroke-linecap="round" stroke-linejoin="round"/>
<path d="M242.299 133.66C241.687 133.685 241.077 133.572 240.514 133.329C239.952 133.087 239.451 132.722 239.049 132.26C237.809 130.72 237.049 132.26 237.049 133.81C237.068 134.261 237.226 134.696 237.501 135.054C237.777 135.412 238.157 135.676 238.589 135.81C238.589 135.81 235.959 138.29 237.509 139.06C238.02 139.262 238.576 139.326 239.12 139.246C239.665 139.165 240.178 138.942 240.609 138.6" fill="white"/>
<path d="M242.299 133.66C241.687 133.685 241.077 133.572 240.514 133.329C239.952 133.087 239.451 132.722 239.049 132.26C237.809 130.72 237.049 132.26 237.049 133.81C237.068 134.261 237.226 134.696 237.501 135.054C237.777 135.412 238.157 135.676 238.589 135.81C238.589 135.81 235.959 138.29 237.509 139.06C238.02 139.262 238.576 139.326 239.12 139.246C239.665 139.165 240.178 138.942 240.609 138.6" stroke="#2855AF" stroke-linecap="round" stroke-linejoin="round"/>
<path d="M296.702 174C296.702 174 289.032 172.54 286.292 172C283.552 171.46 274.602 175.11 272.052 176C269.502 176.89 272.052 177.65 274.792 178.19C277.532 178.73 283.002 177.65 283.002 177.65C283.002 177.65 277.002 180.2 278.442 180.57C279.882 180.94 282.822 180.2 285.382 180.02C287.942 179.84 290.492 177.46 290.492 177.46C290.492 177.46 302.732 183.46 304.192 183.46C305.652 183.46 307.842 179.08 304.732 177.25C302.168 175.905 299.479 174.816 296.702 174V174Z" fill="white" stroke="#2855AF" stroke-linecap="round" stroke-linejoin="round"/>
<path d="M299.442 180.73C294.648 184.36 290.404 188.664 286.842 193.51C281.542 201 280.632 216.15 281.732 220.51C282.832 224.87 283.552 230 288.852 233.51C294.152 237.02 297.982 238.44 307.112 233.51C316.242 228.58 320.992 212.15 320.112 199.51C319.232 186.87 311.532 178.14 307.512 177.05C303.492 175.96 299.442 180.73 299.442 180.73Z" fill="white" stroke="#2855AF" stroke-linecap="round" stroke-linejoin="round"/>
<path d="M300.001 183.1C300.001 183.1 296.711 183.47 295.071 185.66C293.431 187.85 293.971 188.58 295.071 189.13C295.415 189.351 295.707 189.645 295.926 189.99C296.145 190.335 296.287 190.724 296.341 191.13C296.341 191.13 292.511 197.34 294.521 198.61C296.531 199.88 305.471 195.69 307.851 192.61C310.231 189.53 309.131 184.39 307.671 182.93C306.211 181.47 300.001 183.1 300.001 183.1Z" fill="white" stroke="#2855AF" stroke-linecap="round" stroke-linejoin="round"/>
<path d="M297.789 159.37C296.732 160.629 295.503 161.733 294.139 162.65C292.679 163.38 290.859 164.11 292.319 165.21C293.153 165.823 293.945 166.491 294.689 167.21C294.689 167.21 292.859 173.21 293.599 176.7C293.663 177.146 293.823 177.573 294.067 177.951C294.312 178.33 294.634 178.652 295.014 178.895C295.393 179.137 295.82 179.296 296.266 179.359C296.713 179.422 297.167 179.388 297.599 179.26C297.599 179.26 297.049 188.39 296.319 191.13C295.589 193.87 299.059 193.68 301.799 192.04C304.539 190.4 304.909 183.64 305.999 178.71C307.089 173.78 313.669 167.94 309.109 162.46C304.549 156.98 297.789 159.37 297.789 159.37Z" fill="white" stroke="#2855AF" stroke-linecap="round" stroke-linejoin="round"/>
<path d="M327.56 153.16C320.8 146.22 310.56 147.859 309.12 148.229C309.12 148.229 303.42 146.84 300.12 147.39C296.82 147.94 295.59 157.389 297.6 162.649C298.316 164.538 299.671 166.116 301.43 167.11C301.1 166.82 299.15 164.98 301.03 163.52C302.146 162.603 303.472 161.978 304.89 161.699C304.89 161.699 303.3 166.919 303.98 167.839C306.76 171.539 294.26 188.989 293.77 188.709C293.77 188.709 297.42 190.769 301.99 192.959C312.08 197.809 323.99 187.46 327.73 178.72C330.71 171.82 333.58 159.34 327.56 153.16Z" fill="#2855AF" stroke="#2855AF" stroke-linecap="round" stroke-linejoin="round"/>
<path d="M229.24 179.18L220.02 217.75L238.88 226.34L246.01 190.08L229.24 179.18Z" fill="white" stroke="#2855AF" stroke-linecap="round" stroke-linejoin="round"/>
<path d="M229.879 183.17L222.219 215.22L237.889 222.36L243.819 192.22L229.879 183.17Z" fill="#2855AF" stroke="#2855AF" stroke-linecap="round" stroke-linejoin="round"/>
<path d="M246.009 190.08L271.789 191.34L266.759 228.44L238.879 226.34L246.009 190.08Z" fill="white" stroke="#2855AF" stroke-linecap="round" stroke-linejoin="round"/>
<path d="M253.602 206.56L255.472 206.64L255.662 205.44L253.822 205.31L253.602 206.56Z" fill="#2855AF"/>
<path d="M257.939 214.98L258.239 213.15L255.639 213.03L255.359 214.8L257.939 214.98Z" fill="#2855AF"/>
<path d="M253.342 201.309L253.572 200.019L251.232 199.859L250.992 201.209L253.342 201.309Z" fill="#2855AF"/>
<path d="M254.5 201.369L256.28 201.449L256.47 200.229L254.72 200.109L254.5 201.369Z" fill="#2855AF"/>
<path d="M253.121 209.37L255.021 209.51L255.291 207.78L253.401 207.7L253.121 209.37Z" fill="#2855AF"/>
<path d="M259.652 204.56L259.952 202.77L257.262 202.64L256.992 204.38L259.652 204.56Z" fill="#2855AF"/>
<path d="M251.91 196.02L254.24 196.13L254.58 194.13L252.27 194.01L251.91 196.02Z" fill="#2855AF"/>
<path d="M257.092 196.259L257.402 194.279L255.742 194.189L255.402 196.179L257.092 196.259Z" fill="#2855AF"/>
<path d="M251.71 197.16L251.43 198.73L253.76 198.89L254.04 197.26L251.71 197.16Z" fill="#2855AF"/>
<path d="M256.112 202.59L254.302 202.51L254.012 204.17L255.842 204.3L256.112 202.59Z" fill="#2855AF"/>
<path d="M256.92 197.4L255.2 197.32L254.91 198.97L256.65 199.09L256.92 197.4Z" fill="#2855AF"/>
<path d="M258.8 209.77L259.1 207.96L256.45 207.84L256.18 209.59L258.8 209.77Z" fill="#2855AF"/>
<path d="M248.23 210.18L246.32 210.05L246.07 211.44L247.99 211.53L248.23 210.18Z" fill="#2855AF"/>
<path d="M247.789 212.67L245.869 212.58L245.609 214.11L247.509 214.25L247.789 212.67Z" fill="#2855AF"/>
<path d="M247.312 215.38L245.412 215.25L245.172 216.63L247.072 216.72L247.312 215.38Z" fill="#2855AF"/>
<path d="M246.871 217.86L244.961 217.77L244.691 219.31L246.581 219.45L246.871 217.86Z" fill="#2855AF"/>
<path d="M248.71 207.48L246.78 207.39L246.52 208.91L248.43 209.05L248.71 207.48Z" fill="#2855AF"/>
<path d="M249.63 202.29L247.69 202.2L247.43 203.71L249.36 203.84L249.63 202.29Z" fill="#2855AF"/>
<path d="M250.56 197.1L248.6 197.01L248.34 198.51L250.28 198.64L250.56 197.1Z" fill="#2855AF"/>
<path d="M249.15 204.98L247.23 204.85L246.98 206.25L248.91 206.34L249.15 204.98Z" fill="#2855AF"/>
<path d="M250.081 199.78L248.141 199.64L247.891 201.06L249.831 201.15L250.081 199.78Z" fill="#2855AF"/>
<path d="M260.801 197.58L258.071 197.45L257.801 199.17L260.511 199.36L260.801 197.58Z" fill="#2855AF"/>
<path d="M246.381 220.58L244.501 220.45L244.121 222.57L246.001 222.76L246.381 220.58Z" fill="#2855AF"/>
<path d="M256.629 206.7L259.279 206.82L259.469 205.7L256.809 205.52L256.629 206.7Z" fill="#2855AF"/>
<path d="M255 217.08L257.58 217.2L257.76 216.11L255.18 215.93L255 217.08Z" fill="#2855AF"/>
<path d="M255.809 211.889L258.429 212.009L258.609 210.909L255.999 210.729L255.809 211.889Z" fill="#2855AF"/>
<path d="M254.849 210.64L252.919 210.51L252.699 211.75L254.659 211.84L254.849 210.64Z" fill="#2855AF"/>
<path d="M257.391 218.34L254.831 218.22L254.551 220L257.091 220.18L257.391 218.34Z" fill="#2855AF"/>
<path d="M254.372 221.14L253.992 223.57L256.492 223.82L256.902 221.32L254.372 221.14Z" fill="#2855AF"/>
<path d="M250.512 203.93L252.862 204.09L253.152 202.45L250.792 202.35L250.512 203.93Z" fill="#2855AF"/>
<path d="M250.761 195.96L251.121 193.95L249.151 193.85L248.801 195.88L250.761 195.96Z" fill="#2855AF"/>
<path d="M257.441 201.5L260.141 201.63L260.321 200.5L257.621 200.31L257.441 201.5Z" fill="#2855AF"/>
<path d="M258.25 196.31L260.99 196.44L261.31 194.48L258.55 194.34L258.25 196.31Z" fill="#2855AF"/>
<path d="M254.481 212.98L252.511 212.88L252.211 214.57L254.211 214.71L254.481 212.98Z" fill="#2855AF"/>
<path d="M251.35 212.83L248.94 212.72L248.66 214.33L251.06 214.49L251.35 212.83Z" fill="#2855AF"/>
<path d="M252.019 215.71L251.809 216.93L253.849 217.03L254.039 215.85L252.019 215.71Z" fill="#2855AF"/>
<path d="M253.669 218.17L251.609 218.07L251.309 219.78L253.399 219.92L253.669 218.17Z" fill="#2855AF"/>
<path d="M247.742 219.53L250.162 219.7L250.452 218.02L248.022 217.91L247.742 219.53Z" fill="#2855AF"/>
<path d="M250.87 215.63L248.46 215.46L248.23 216.77L250.65 216.88L250.87 215.63Z" fill="#2855AF"/>
<path d="M249.152 211.58L251.552 211.69L251.772 210.43L249.382 210.26L249.152 211.58Z" fill="#2855AF"/>
<path d="M247.531 220.66L247.141 222.87L249.571 223.12L249.971 220.83L247.531 220.66Z" fill="#2855AF"/>
<path d="M253.219 221.06L251.119 220.91L250.719 223.24L252.849 223.45L253.219 221.06Z" fill="#2855AF"/>
<path d="M252.67 205.23L250.31 205.06L250.07 206.39L252.45 206.5L252.67 205.23Z" fill="#2855AF"/>
<path d="M252.252 207.64L249.872 207.53L249.582 209.13L251.962 209.29L252.252 207.64Z" fill="#2855AF"/>
<path d="M300.35 213.78C300.35 213.78 298 214 294 217.25C290 220.5 274.1 248.25 274.1 248.25C274.1 248.25 259.67 239.25 256.02 236.75C252.37 234.25 249.45 229.63 247.44 226.89C245.43 224.15 245.06 223.78 242.32 223.6C239.58 223.42 237.58 221.6 237.21 222.87C236.84 224.14 237.94 224.7 238.67 225.06C239.308 225.306 239.986 225.431 240.67 225.43C238.947 225.69 237.189 225.298 235.74 224.33C233 222.69 232.27 222.33 232.27 224.15C232.27 225.97 234.27 228.9 235.74 230.72C237.21 232.54 245.6 233.28 245.6 233.28C248.645 239.159 252.062 244.837 255.83 250.28C261.3 257.95 272.99 266.17 276.28 265.07C279.57 263.97 296.91 242.25 301.66 236.22C306.41 230.19 312.66 223.07 311.15 219.06" fill="white"/>
<path d="M300.35 213.78C300.35 213.78 298 214 294 217.25C290 220.5 274.1 248.25 274.1 248.25C274.1 248.25 259.67 239.25 256.02 236.75C252.37 234.25 249.45 229.63 247.44 226.89C245.43 224.15 245.06 223.78 242.32 223.6C239.58 223.42 237.58 221.6 237.21 222.87C236.84 224.14 237.94 224.7 238.67 225.06C239.308 225.306 239.986 225.431 240.67 225.43C238.947 225.69 237.189 225.298 235.74 224.33C233 222.69 232.27 222.33 232.27 224.15C232.27 225.97 234.27 228.9 235.74 230.72C237.21 232.54 245.6 233.28 245.6 233.28C248.645 239.159 252.062 244.837 255.83 250.28C261.3 257.95 272.99 266.17 276.28 265.07C279.57 263.97 296.91 242.25 301.66 236.22C306.41 230.19 312.66 223.07 311.15 219.06" stroke="#2855AF" stroke-linecap="round" stroke-linejoin="round"/>
<path d="M251.06 231.91C249.63 230.12 248.4 228.29 247.4 226.91C245.4 224.17 245.02 223.8 242.28 223.62C239.54 223.44 237.54 221.62 237.17 222.89C236.8 224.16 237.9 224.72 238.63 225.08C239.269 225.325 239.947 225.45 240.63 225.45C238.907 225.709 237.15 225.317 235.7 224.35C232.96 222.71 232.23 222.35 232.23 224.17C232.23 225.99 234.23 228.92 235.7 230.74C237.17 232.56 245.56 233.3 245.56 233.3C245.56 233.3 245.93 234.02 246.56 235.19C247.748 233.721 249.299 232.59 251.06 231.91V231.91Z" fill="white" stroke="#2855AF" stroke-linecap="round" stroke-linejoin="round"/>
</svg>
