<svg width="521" height="417" viewBox="0 0 521 417" fill="none" xmlns="http://www.w3.org/2000/svg">
<g opacity="0.05">
<path d="M260.796 416.505C396.256 416.505 506.068 400.855 506.068 381.551C506.068 362.246 396.256 346.597 260.796 346.597C125.336 346.597 15.5234 362.246 15.5234 381.551C15.5234 400.855 125.336 416.505 260.796 416.505Z" fill="#F5F5F5"/>
</g>
<path d="M513.461 249.176C509.35 250.264 505.647 252.531 502.807 255.696C500.324 258.349 498.164 261.286 496.372 264.447C495.16 266.447 494.154 268.519 493.184 270.616C492.554 271.986 492.069 273.694 491.475 275.258C490.615 276.652 489.754 278.082 489.051 279.415C491.621 270.143 499.959 253.078 500.068 248.23C500.238 242.946 495.22 250.8 492.36 261.562C490.761 267.649 489.546 273.83 488.724 280.07C488.433 280.627 488.178 281.148 487.948 281.645C487.427 282.724 486.542 284.554 485.367 286.954C487.948 279.076 488.881 269.731 487.33 268.568C485.076 266.895 484.264 270.992 484.276 278.579C484.055 283.997 483.163 289.366 481.622 294.565C480.204 297.365 478.616 300.455 476.919 303.716C478.701 298.044 479.731 289.875 480.7 283.754C482.118 274.846 481.512 272.07 478.628 276.349C475.743 280.627 476.204 286.833 476.931 294.42C477.176 299.269 476.296 304.11 474.362 308.564C472.192 312.685 469.889 316.951 467.562 321.144C469.536 316.846 470.786 312.251 471.259 307.546C472.265 297.256 470.944 287.802 468.556 290.481C466.169 293.159 467.587 300.322 467.271 309.036C467.099 314.328 466.503 319.596 465.49 324.792L464.763 326.077C465.721 321.652 465.974 317.104 465.514 312.6C465.987 310.879 465.817 309.776 465.247 309.255C465.163 307.315 465.32 304.407 464.496 302.916C462.411 299.195 460.133 304.201 460.109 306.176C460.111 307.688 460.216 309.199 460.424 310.697C459.612 311.451 458.91 312.316 458.339 313.266C458.024 313.8 457.697 314.381 457.345 315.024C457.345 314.406 457.418 313.739 457.442 313.145C457.551 311.466 457.199 309.79 456.424 308.297C457.676 305.799 458.577 303.139 459.103 300.395C459.346 299.487 459.282 298.524 458.921 297.656C458.8 297.388 458.628 297.147 458.414 296.945C458.2 296.744 457.949 296.588 457.674 296.484C457.399 296.38 457.107 296.332 456.813 296.342C456.52 296.351 456.231 296.419 455.964 296.541C455.834 296.602 455.709 296.671 455.588 296.747C451.637 298.843 450.582 303.885 450.122 307.934C449.687 311.425 448.982 314.878 448.013 318.26C447.201 321.302 446.486 324.053 446.025 325.968C445.711 323.925 445.282 321.902 444.74 319.908C444.292 318.248 443.868 316.648 443.456 315.06C443.076 309.445 444.175 303.829 446.643 298.771C451.322 289.148 454.703 284.615 451.491 284.457C448.279 284.299 443.541 289.305 442.874 297.232C442.373 302.035 442.272 306.871 442.571 311.691C441.541 308.055 440.523 304.528 439.468 300.989C438.653 297.081 438.853 293.029 440.05 289.22C442.256 282.688 448.849 271.04 445.383 271.998C441.916 272.955 437.747 279.645 437.275 286.772C437.149 290.495 437.557 294.218 438.487 297.825C437.735 295.353 436.927 292.783 436.063 290.117C435.699 288.905 435.311 287.693 434.935 286.481C434.95 286.262 434.917 286.043 434.838 285.839C434.355 282.157 435.02 278.415 436.741 275.125C440.062 269.162 446.231 264.035 442.595 262.665C438.959 261.296 433.469 270.992 433.142 275.84C433.068 277.685 433.215 279.532 433.578 281.342L433.129 280.215C432.342 277.427 431.578 274.676 430.912 272.24C430.768 268.643 431.491 265.064 433.02 261.805C436.269 254.363 440.389 245.867 436.184 248.024C432.79 249.782 429.13 259.805 429.845 268.277C429.566 267.162 429.3 266.216 429.094 265.441C428.548 260.593 427.506 249.176 429.094 242.413C430.136 237.88 431.845 233.577 432.366 228.911C432.471 228.394 432.433 227.857 432.257 227.36C431.118 224.548 427.409 230.026 426.851 230.923C424.587 234.531 423.428 238.723 423.518 242.982C423.521 246.612 423.952 250.229 424.803 253.757C425.32 256.011 425.946 258.241 426.682 260.447C427.142 261.865 427.966 263.453 428.597 264.992C428.912 266.604 429.263 268.24 429.639 269.707C425.191 261.102 419.555 242.934 416.404 239.237C412.925 235.274 414.61 244.497 419.822 254.254C422.819 259.827 426.162 265.207 429.833 270.362C430.003 270.968 430.172 271.573 430.342 272.046C430.693 273.185 431.299 275.137 432.075 277.694C428.536 270.216 422.888 262.702 420.961 262.908C418.185 263.223 420.391 266.774 425.567 272.313C429.08 276.421 432.072 280.948 434.475 285.79C435.347 288.82 436.305 292.141 437.287 295.68C434.705 290.323 429.881 283.645 426.379 278.518C421.337 271.04 418.998 269.416 419.81 274.507C420.622 279.597 425.215 283.803 430.924 288.881C434.393 292.277 437.038 296.423 438.656 301.001C439.868 305.485 441.08 310.176 442.292 314.842C440.804 310.348 438.584 306.13 435.723 302.358C429.421 294.129 422.003 288.129 422.088 291.705C422.173 295.28 428.088 299.571 433.832 306.116C437.318 310.09 440.468 314.347 443.25 318.842C443.371 319.302 443.48 319.775 443.589 320.235C441.02 315.521 436.911 311.679 432.923 308.115C431.517 306.831 429.396 304.128 427.591 303.546C423.543 302.261 425.288 307.473 426.621 308.927C430.948 313.654 437.044 316.575 441.044 321.556C442.552 323.428 443.902 325.423 445.08 327.519C445.359 329.156 445.565 330.683 445.734 332.113C444.199 330.658 442.583 329.285 440.886 327.992C436.038 324.708 433.166 320.187 429.397 315.872C428.269 314.587 426.354 312.988 424.549 312.903C421.979 312.794 421.215 315.484 421.979 317.605C424.948 326.344 436.123 326.732 442.68 331.277C443.876 332.042 444.982 332.941 445.977 333.955C446.255 336.652 446.328 339.367 446.195 342.076H431.166V348.342H435.626L439.262 370.642H469.308L472.944 348.342H477.404V342.076H454.873C455.903 340.791 457.006 339.506 458.121 338.04L462.872 338.185C462.872 338.185 479.391 338.9 485.451 335.603C491.511 332.307 486.106 329.18 480.3 330.865C474.495 332.549 463.102 337.652 460.581 337.652L458.448 337.591C459.66 336.052 460.872 334.464 461.939 332.84C466.487 331.697 470.96 330.272 475.331 328.574C480.07 326.695 485.621 325.18 489.657 321.993C490.441 321.476 491.037 320.719 491.354 319.835C491.538 319.273 491.493 318.66 491.227 318.131C490.961 317.602 490.497 317.2 489.936 317.011C489.806 316.968 489.672 316.935 489.536 316.914C485.209 315.702 480.991 318.708 477.961 321.35C475.294 323.608 472.458 325.659 469.477 327.483C466.799 329.131 464.399 330.683 462.775 331.737C463.987 329.956 465.078 328.174 466.011 326.441C466.823 324.914 467.611 323.459 468.35 322.041C471.919 317.698 476.555 314.357 481.803 312.345C491.79 308.491 497.329 307.497 495.135 305.182C492.942 302.867 485.997 303.292 480.107 308.636C476.455 311.803 473.074 315.27 469.998 318.999C471.756 315.605 473.404 312.357 475.04 309.061C477.122 305.644 480.043 302.815 483.524 300.843C489.584 297.595 502.335 293.571 499.171 291.911C496.008 290.25 488.372 292.274 483.185 297.171C480.547 299.81 478.302 302.814 476.519 306.091C477.658 303.752 478.822 301.34 480.046 298.819C480.567 297.704 481.137 296.565 481.719 295.377C481.84 295.195 481.973 295.026 482.082 294.832C484.245 291.812 487.289 289.534 490.796 288.311C497.232 286.214 505.34 286.675 503.571 283.16C501.801 279.645 491.184 283.015 487.633 286.348C486.327 287.656 485.173 289.108 484.191 290.675C484.349 290.311 484.506 289.923 484.652 289.535C485.936 286.966 487.221 284.396 488.506 282.263C490.844 279.526 493.814 277.401 497.159 276.07C504.613 272.858 513.437 269.452 508.879 268.156C505.243 267.113 495.669 271.937 490.433 278.627L491.814 276.058C494.723 272.119 501.753 263.065 507.57 259.175C511.425 256.593 515.606 254.581 519.145 251.527C519.534 251.236 519.849 250.858 520.066 250.424C521.012 247.467 514.6 248.97 513.461 249.176ZM446.219 327.144C447.189 325.665 448.898 322.938 450.788 319.435C451.371 321.032 452.034 322.597 452.776 324.126C451.031 327.762 449.431 330.84 448.51 331.64L446.91 333.046C446.801 331.131 446.522 329.168 446.243 327.192L446.219 327.144ZM457.127 337.555C455.954 339.114 454.692 340.603 453.346 342.015H447.528C447.443 339.591 447.273 336.694 446.995 333.531L450.57 330.38C450.57 330.38 452.134 329.095 454.206 327.023C455.223 329.021 456.011 331.126 456.557 333.301C456.943 334.72 457.151 336.181 457.176 337.652L457.127 337.555ZM461.975 325.18C461.804 327.583 461.431 329.967 460.86 332.307C459.951 333.701 459.054 334.961 458.206 336.161C458.133 334.004 457.551 330.101 457.491 329.834C457.091 328.088 456.872 326.305 456.836 324.514C458.547 322.753 460.166 320.904 461.684 318.975C462.029 321.04 462.147 323.138 462.036 325.229L461.975 325.18Z" fill="#7CCCDB"/>
<path d="M471.042 12.5447V247.964C471.042 254.024 466.521 258.872 460.91 258.872H34.5038C28.9044 258.872 24.3594 254.024 24.3594 247.964V12.5447C24.3594 6.48472 28.9044 1.63672 34.5038 1.63672H460.946C466.558 1.64884 471.042 6.52108 471.042 12.5447Z" fill="white" stroke="#2855AF" stroke-width="2" stroke-linecap="round" stroke-linejoin="round"/>
<g filter="url(#filter0_d)">
<path d="M147.425 42.8809H48.0415C43.8311 42.8809 40.418 46.294 40.418 50.5043V218.088C40.418 222.298 43.8311 225.711 48.0415 225.711H147.425C151.636 225.711 155.049 222.298 155.049 218.088V50.5043C155.049 46.294 151.636 42.8809 147.425 42.8809Z" fill="#7CCCDB"/>
</g>
<path d="M137.852 76.2314H101.141V79.7099H137.852V76.2314Z" fill="#2855AF"/>
<path d="M142.336 84.5938H101.141V88.0722H142.336V84.5938Z" fill="#2855AF"/>
<path d="M137.852 92.957H101.141V96.4355H137.852V92.957Z" fill="#2855AF"/>
<path d="M144.7 101.308H101.141V104.786H144.7V101.308Z" fill="#2855AF"/>
<path d="M135.841 124.493H59.4725C55.8914 124.493 52.9883 127.396 52.9883 130.977V146.685C52.9883 150.266 55.8914 153.169 59.4725 153.169H135.841C139.422 153.169 142.325 150.266 142.325 146.685V130.977C142.325 127.396 139.422 124.493 135.841 124.493Z" fill="white" stroke="#2855AF" stroke-width="1.06897" stroke-linecap="round" stroke-linejoin="round"/>
<path d="M135.841 162.707H59.4725C55.8914 162.707 52.9883 165.61 52.9883 169.191V184.899C52.9883 188.48 55.8914 191.383 59.4725 191.383H135.841C139.422 191.383 142.325 188.48 142.325 184.899V169.191C142.325 165.61 139.422 162.707 135.841 162.707Z" fill="white" stroke="#2855AF" stroke-width="1.06897" stroke-linecap="round" stroke-linejoin="round"/>
<path d="M335.094 42.3604V236.826" stroke="#2855AF" stroke-width="1.06897" stroke-linecap="round" stroke-linejoin="round"/>
<path d="M471.042 11.804V27.56H24.3594V11.804C24.3594 9.11244 25.4278 6.53091 27.3299 4.62654C29.232 2.72216 31.8122 1.65067 34.5038 1.64746H460.946C463.631 1.65709 466.203 2.73218 468.096 4.63656C469.989 6.54094 471.048 9.11886 471.042 11.804V11.804Z" fill="#2855AF"/>
<path d="M54.9001 18.6409C57.1424 18.6409 58.9603 16.8231 58.9603 14.5807C58.9603 12.3383 57.1424 10.5205 54.9001 10.5205C52.6577 10.5205 50.8398 12.3383 50.8398 14.5807C50.8398 16.8231 52.6577 18.6409 54.9001 18.6409Z" fill="white"/>
<path d="M77.7102 14.5807C77.7102 15.3837 77.4721 16.1687 77.026 16.8364C76.5798 17.5041 75.9457 18.0245 75.2038 18.3318C74.4619 18.6392 73.6455 18.7196 72.8579 18.5629C72.0703 18.4062 71.3469 18.0195 70.779 17.4517C70.2112 16.8839 69.8245 16.1604 69.6679 15.3728C69.5112 14.5852 69.5916 13.7688 69.8989 13.0269C70.2062 12.285 70.7266 11.6509 71.3943 11.2048C72.062 10.7586 72.847 10.5205 73.65 10.5205C74.7269 10.5205 75.7596 10.9483 76.521 11.7097C77.2825 12.4711 77.7102 13.5039 77.7102 14.5807V14.5807Z" fill="white"/>
<path d="M96.2298 14.5807C96.2298 15.3837 95.9917 16.1687 95.5455 16.8364C95.0994 17.5041 94.4653 18.0245 93.7234 18.3318C92.9814 18.6392 92.1651 18.7196 91.3775 18.5629C90.5899 18.4062 89.8664 18.0195 89.2986 17.4517C88.7307 16.8839 88.3441 16.1604 88.1874 15.3728C88.0307 14.5852 88.1111 13.7688 88.4184 13.0269C88.7257 12.285 89.2462 11.6509 89.9139 11.2048C90.5815 10.7586 91.3665 10.5205 92.1696 10.5205C93.2464 10.5205 94.2791 10.9483 95.0406 11.7097C95.802 12.4711 96.2298 13.5039 96.2298 14.5807Z" fill="white"/>
<path d="M449.893 60.4189H352.375V63.655H449.893V60.4189Z" fill="#2855AF"/>
<path d="M399.473 70.5146H352.375V73.7507H399.473V70.5146Z" fill="#2855AF"/>
<path d="M427.761 80.6104H352.375V83.8464H427.761V80.6104Z" fill="#2855AF"/>
<path d="M419.714 90.416H352.375V93.9308H419.714V90.416Z" fill="#2855AF"/>
<path d="M417.605 100.803H352.375V104.039H417.605V100.803Z" fill="#2855AF"/>
<path d="M394.759 110.898H352.375V114.134H394.759V110.898Z" fill="#2855AF"/>
<path d="M75.4419 85.5881C75.4419 90.8878 71.1457 95.1841 65.846 95.1841C60.5463 95.1841 56.25 90.8878 56.25 85.5881C56.25 80.2884 60.5463 75.9922 65.846 75.9922C71.1457 75.9922 75.4419 80.2884 75.4419 85.5881Z" fill="white" stroke="#2855AF"/>
<path d="M63.9306 91.5019V91.5019L63.9375 91.5018C66.6866 91.4636 68.9529 92.0286 70.962 93.4569C72.9079 94.8405 74.6563 97.065 76.355 100.45C73.1212 102.509 69.3134 103.573 65.4334 103.496C61.5508 103.419 57.7892 102.202 54.6446 100.013C55.5516 98.2983 56.8077 96.2396 58.3346 94.5721C59.9869 92.7677 61.8815 91.5019 63.9306 91.5019Z" fill="white" stroke="#2855AF"/>
<path d="M83.434 86.3391C83.434 89.8173 82.4026 93.2174 80.4702 96.1094C78.5378 99.0014 75.7912 101.255 72.5778 102.587C69.3643 103.918 65.8283 104.266 62.417 103.587C59.0056 102.909 55.872 101.234 53.4126 98.7743C50.9531 96.3149 49.2782 93.1813 48.5996 89.7699C47.9211 86.3586 48.2693 82.8226 49.6004 79.6091C50.9314 76.3957 53.1855 73.6491 56.0775 71.7167C58.9695 69.7843 62.3696 68.7529 65.8478 68.7529C68.1577 68.7513 70.4453 69.2051 72.5796 70.0884C74.714 70.9716 76.6533 72.2669 78.2867 73.9002C79.92 75.5336 81.2153 77.4729 82.0986 79.6073C82.9818 81.7416 83.4356 84.0292 83.434 86.3391Z" stroke="#2855AF" stroke-width="1.06897" stroke-linecap="round" stroke-linejoin="round"/>
<path d="M443.02 8.96973H345.745C342.967 8.96973 340.715 11.2216 340.715 13.9995V15.163C340.715 17.9409 342.967 20.1928 345.745 20.1928H443.02C445.798 20.1928 448.05 17.9409 448.05 15.163V13.9995C448.05 11.2216 445.798 8.96973 443.02 8.96973Z" fill="white"/>
<path d="M347.078 10.8838V18.0104" stroke="#2855AF" stroke-width="1.06897" stroke-linecap="round" stroke-linejoin="round"/>
<path d="M451.079 199.472H360.555V152.034" stroke="#2855AF" stroke-width="1.06897" stroke-linecap="round" stroke-linejoin="round"/>
<path d="M364.215 179.91L368.105 188.6L388.528 161.572L392.794 174.613L400.866 170.081L419.518 188.6L433.444 175.753L438.826 181.413L448.109 163.16" stroke="#7CCCDB" stroke-width="1.06897" stroke-linecap="round" stroke-linejoin="round"/>
<path d="M358.436 196.49H351.879V199.46H358.436V196.49Z" fill="#2855AF"/>
<path d="M358.436 185.631H351.879V188.6H358.436V185.631Z" fill="#2855AF"/>
<path d="M358.436 174.759H351.879V177.728H358.436V174.759Z" fill="#2855AF"/>
<path d="M358.436 163.887H351.879V166.856H358.436V163.887Z" fill="#2855AF"/>
<path d="M358.436 153.027H351.879V155.997H358.436V153.027Z" fill="#2855AF"/>
<path d="M404.758 201.859V220.585H407.679V201.859H404.758Z" fill="#2855AF"/>
<path d="M415.156 201.86V220.585H418.077V201.86H415.156Z" fill="#2855AF"/>
<path d="M425.555 201.871V220.597H428.476V201.871H425.555Z" fill="#2855AF"/>
<path d="M435.953 201.871V220.597H438.874V201.871H435.953Z" fill="#2855AF"/>
<path d="M446.352 201.871V220.597H449.272V201.871H446.352Z" fill="#2855AF"/>
<path d="M394.094 201.871V220.597H397.015V201.871H394.094Z" fill="#2855AF"/>
<path d="M383.426 201.871V220.597H386.347V201.871H383.426Z" fill="#2855AF"/>
<path d="M372.75 201.859V220.584H375.671V201.859H372.75Z" fill="#2855AF"/>
<path d="M362.082 201.871V220.597H365.003V201.871H362.082Z" fill="#2855AF"/>
<path d="M279.12 70.8203C274.279 70.8203 269.636 72.7434 266.213 76.1664C262.79 79.5894 260.867 84.2321 260.867 89.073C260.867 93.9139 262.79 98.5566 266.213 101.98C269.636 105.403 274.279 107.326 279.12 107.326C281.517 107.374 283.9 106.95 286.133 106.078C288.366 105.205 290.406 103.902 292.135 102.241C293.864 100.58 295.249 98.5955 296.211 96.3996C297.174 94.2036 297.694 91.8397 297.742 89.4427C297.791 87.0457 297.367 84.6626 296.494 82.4295C295.622 80.1964 294.318 78.157 292.658 76.4278C290.997 74.6985 289.012 73.3133 286.816 72.3512C284.62 71.389 282.256 70.8689 279.859 70.8203H279.12Z" fill="#2855AF"/>
<path d="M290.697 83.2187C290.563 82.7045 290.295 82.235 289.92 81.8582C289.545 81.4813 289.077 81.2106 288.564 81.0735C286.673 80.5645 279.11 80.5645 279.11 80.5645C279.11 80.5645 271.547 80.5645 269.669 81.0735C269.154 81.2099 268.684 81.4802 268.307 81.857C267.93 82.2338 267.66 82.7036 267.523 83.2187C266.857 87.097 266.857 91.0605 267.523 94.9388C267.66 95.4539 267.93 95.9238 268.307 96.3006C268.684 96.6774 269.154 96.9477 269.669 97.084C271.547 97.5931 279.11 97.5931 279.11 97.5931C279.11 97.5931 286.673 97.5931 288.564 97.084C289.076 96.9447 289.543 96.6732 289.917 96.2967C290.292 95.9202 290.56 95.4519 290.697 94.9388C291.377 91.0617 291.377 87.0959 290.697 83.2187V83.2187Z" fill="white"/>
<path d="M276.637 92.6725V85.4854L282.963 89.0729L276.637 92.6725Z" fill="#2855AF"/>
<path d="M207.215 70.8682C203.62 70.8682 200.105 71.9344 197.115 73.9321C194.125 75.9297 191.795 78.769 190.419 82.091C189.043 85.4129 188.683 89.0683 189.384 92.5949C190.086 96.1215 191.817 99.3609 194.36 101.903C196.902 104.446 200.142 106.177 203.668 106.879C207.195 107.58 210.85 107.22 214.172 105.844C217.494 104.468 220.334 102.138 222.331 99.1484C224.329 96.1587 225.395 92.6438 225.395 89.0482C225.395 84.2265 223.48 79.6024 220.07 76.193C216.661 72.7836 212.037 70.8682 207.215 70.8682Z" fill="#2855AF"/>
<path d="M204.146 100.756H208.861V88.9512H212.145L212.497 85.0001H208.861V82.7337C208.861 81.8004 209.043 81.4368 209.952 81.4368H212.497V77.3281H209.249C205.746 77.3281 204.158 78.8795 204.158 81.8247V84.9759H201.734V88.9633H204.158L204.146 100.756Z" fill="white"/>
<path d="M207.104 144.861C203.495 144.861 199.966 145.932 196.965 147.937C193.963 149.942 191.624 152.792 190.242 156.126C188.86 159.461 188.498 163.13 189.201 166.671C189.905 170.211 191.642 173.463 194.193 176.016C196.745 178.57 199.996 180.309 203.536 181.015C207.076 181.72 210.745 181.36 214.081 179.981C217.416 178.601 220.268 176.264 222.275 173.264C224.282 170.263 225.355 166.736 225.357 163.126C225.357 158.284 223.434 153.64 220.012 150.215C216.589 146.79 211.946 144.865 207.104 144.861Z" fill="#2855AF"/>
<path d="M207.105 154.399C209.941 154.399 210.28 154.399 211.408 154.399C212.083 154.41 212.751 154.537 213.383 154.775C213.842 154.943 214.256 155.212 214.595 155.563C214.948 155.903 215.222 156.317 215.395 156.775C215.63 157.407 215.753 158.076 215.759 158.75C215.759 159.878 215.759 160.253 215.759 163.041C215.759 165.828 215.759 166.228 215.759 167.343C215.754 168.018 215.631 168.687 215.395 169.319C215.226 169.78 214.952 170.195 214.595 170.531C214.256 170.885 213.842 171.159 213.383 171.331C212.749 171.559 212.082 171.682 211.408 171.695C210.28 171.695 209.941 171.695 207.105 171.695C204.269 171.695 203.93 171.695 202.802 171.695C202.128 171.684 201.461 171.561 200.827 171.331C200.368 171.159 199.954 170.885 199.615 170.531C199.258 170.195 198.984 169.78 198.815 169.319C198.579 168.687 198.456 168.018 198.451 167.343C198.451 166.228 198.379 165.889 198.379 163.041C198.379 160.193 198.379 159.878 198.451 158.75C198.457 158.076 198.58 157.407 198.815 156.775C198.984 156.314 199.258 155.899 199.615 155.563C199.954 155.212 200.368 154.943 200.827 154.775C201.46 154.541 202.128 154.414 202.802 154.399C203.93 154.399 204.257 154.399 207.105 154.399ZM207.105 152.484C204.22 152.484 203.845 152.484 202.718 152.484C201.849 152.493 200.989 152.648 200.172 152.945C199.468 153.218 198.828 153.635 198.294 154.169C197.759 154.703 197.342 155.343 197.07 156.048C196.761 156.875 196.594 157.747 196.573 158.629C196.573 159.768 196.5 160.132 196.5 163.017C196.5 165.901 196.5 166.265 196.573 167.404C196.591 168.286 196.759 169.159 197.07 169.986C197.337 170.699 197.752 171.348 198.286 171.891C198.821 172.433 199.463 172.858 200.172 173.137C201.001 173.439 201.872 173.607 202.754 173.634C203.893 173.634 204.257 173.634 207.141 173.634C210.026 173.634 210.39 173.634 211.529 173.634C212.41 173.607 213.282 173.439 214.11 173.137C214.815 172.861 215.455 172.442 215.99 171.906C216.524 171.37 216.94 170.728 217.213 170.022C217.524 169.196 217.692 168.323 217.71 167.44C217.71 166.313 217.783 165.95 217.783 163.053C217.783 160.156 217.783 159.805 217.71 158.666C217.69 157.787 217.522 156.919 217.213 156.096C216.942 155.389 216.526 154.746 215.992 154.21C215.457 153.673 214.817 153.255 214.11 152.981C213.284 152.673 212.411 152.505 211.529 152.484C210.39 152.484 210.026 152.484 207.141 152.484" fill="white"/>
<path d="M207.103 157.611C206.022 157.609 204.965 157.927 204.064 158.526C203.164 159.124 202.462 159.977 202.046 160.974C201.63 161.972 201.519 163.071 201.728 164.132C201.936 165.193 202.455 166.168 203.217 166.934C203.98 167.7 204.953 168.223 206.013 168.436C207.073 168.649 208.172 168.544 209.172 168.132C210.171 167.721 211.027 167.022 211.629 166.124C212.232 165.227 212.555 164.171 212.557 163.09V163.09C212.557 161.643 211.983 160.256 210.96 159.233C209.937 158.21 208.55 157.636 207.103 157.636V157.611ZM207.103 166.616C206.4 166.619 205.713 166.413 205.127 166.024C204.541 165.635 204.084 165.081 203.814 164.433C203.543 163.784 203.471 163.07 203.607 162.38C203.742 161.69 204.08 161.056 204.576 160.559C205.072 160.061 205.705 159.721 206.394 159.583C207.083 159.445 207.798 159.515 208.447 159.783C209.097 160.052 209.652 160.507 210.043 161.091C210.434 161.675 210.642 162.362 210.642 163.065V163.065C210.642 164.005 210.27 164.906 209.606 165.572C208.943 166.238 208.043 166.613 207.103 166.616Z" fill="white"/>
<path d="M279.802 180.022C277.518 180.023 275.256 179.575 273.145 178.701C271.034 177.828 269.116 176.547 267.501 174.931C265.885 173.316 264.604 171.398 263.731 169.287C262.857 167.176 262.409 164.914 262.41 162.63V162.63C262.41 158.017 264.243 153.593 267.504 150.331C270.766 147.07 275.19 145.237 279.802 145.237V145.237C284.415 145.237 288.839 147.07 292.101 150.331C295.362 153.593 297.195 158.017 297.195 162.63V162.63C297.196 164.914 296.747 167.176 295.874 169.287C295 171.398 293.719 173.316 292.104 174.931C290.489 176.547 288.571 177.828 286.46 178.701C284.349 179.575 282.087 180.023 279.802 180.022V180.022Z" fill="#2855AF"/>
<path d="M226.823 63.9961H187.603C184.584 63.9961 182.137 66.4434 182.137 69.4622V108.683C182.137 111.701 184.584 114.149 187.603 114.149H226.823C229.842 114.149 232.289 111.701 232.289 108.683V69.4622C232.289 66.4434 229.842 63.9961 226.823 63.9961Z" stroke="#2855AF" stroke-width="1.06897" stroke-miterlimit="10"/>
<path d="M299.097 63.9961H259.876C256.857 63.9961 254.41 66.4434 254.41 69.4622V108.683C254.41 111.701 256.857 114.149 259.876 114.149H299.097C302.115 114.149 304.563 111.701 304.563 108.683V69.4622C304.563 66.4434 302.115 63.9961 299.097 63.9961Z" stroke="#2855AF" stroke-width="1.06897" stroke-miterlimit="10"/>
<path d="M226.823 137.456H187.603C184.584 137.456 182.137 139.903 182.137 142.922V182.143C182.137 185.161 184.584 187.609 187.603 187.609H226.823C229.842 187.609 232.289 185.161 232.289 182.143V142.922C232.289 139.903 229.842 137.456 226.823 137.456Z" stroke="#2855AF" stroke-width="1.06897" stroke-miterlimit="10"/>
<path d="M299.097 137.456H259.876C256.857 137.456 254.41 139.903 254.41 142.922V182.143C254.41 185.161 256.857 187.609 259.876 187.609H299.097C302.115 187.609 304.563 185.161 304.563 182.143V142.922C304.563 139.903 302.115 137.456 299.097 137.456Z" stroke="#2855AF" stroke-width="1.06897" stroke-miterlimit="10"/>
<path d="M297.752 194.565H262.41V205.292H297.752V194.565Z" fill="#2855AF"/>
<path d="M297.752 120.984H262.41V131.711H297.752V120.984Z" fill="#2855AF"/>
<path d="M224.776 120.984H189.434V131.711H224.776V120.984Z" fill="#2855AF"/>
<path d="M224.776 194.565H189.434V205.292H224.776V194.565Z" fill="#2855AF"/>
<path d="M58.9609 51.1045H137.838" stroke="#2855AF" stroke-width="2" stroke-linecap="round" stroke-linejoin="round"/>
<path d="M162.234 359.76C162.234 359.76 165.058 369.456 164.113 375.382C164.113 375.382 162.986 385.248 161.689 390.508C160.392 395.768 159.071 399.416 166.476 401.501C173.882 403.586 192.074 399.162 196.34 400.653C200.606 402.143 224.895 398.81 228.519 397.211C232.143 395.611 232.712 384.521 224.883 380.667C217.053 376.813 162.234 359.76 162.234 359.76Z" fill="white"/>
<path d="M163.311 380.073C163.311 380.073 161.202 391.926 161.263 394.083C164.86 393.058 168.567 392.464 172.304 392.314C177.298 392.314 192.266 392.508 198.205 391.611C204.144 390.714 215.561 386.533 220.845 386.508C224.198 386.507 227.544 386.803 230.844 387.393C230.844 387.393 231.462 383.163 223.123 380.957C214.785 378.751 184.4 372.364 184.4 372.364C184.4 372.364 177.613 379.66 163.311 380.073Z" fill="#7CCCDB"/>
<path d="M269.169 374.424C269.169 374.424 274.489 371.055 279.495 373.115C284.5 375.176 302.329 375.224 302.329 375.224C302.329 375.224 316.437 373.455 322.448 376.436C328.46 379.418 329.126 383.914 328.654 387.417C328.181 390.92 319.309 400.264 307.662 400.749C296.014 401.234 295.057 398.616 285.482 398.107C285.482 398.107 272.635 397.295 268.926 395.683C265.217 394.071 260.369 392.738 260.515 385.805C260.66 378.872 269.169 374.424 269.169 374.424Z" fill="white"/>
<path d="M269.167 374.425C269.167 374.425 274.56 371.37 284.086 374.231C293.613 377.091 310.399 372.861 317.671 375.382C324.943 377.903 325.949 382.654 325.016 384.484C324.082 386.314 317.889 393.72 311.005 394.895C304.121 396.071 288.595 395.356 281.481 396.653C281.481 396.653 266.779 397.501 262.089 390.156C257.398 382.812 269.167 374.425 269.167 374.425Z" fill="#7CCCDB"/>
<path d="M69.1641 369.116L60.1953 352.403L84.6535 327.169L106.724 329.799L119.22 348.84L116.105 359.76L69.1641 369.116Z" fill="#00091F"/>
<path d="M50.6562 364.547C50.6562 364.547 51.335 395.805 71.5996 399.186C91.8643 402.568 164.184 367.383 164.184 367.383C164.184 367.383 191.115 381.37 211.38 383.139C231.644 384.909 261.072 388.678 264.077 392.047C267.083 395.417 278.33 381.285 271.846 372.801C271.846 372.801 249.897 371.407 236.056 364.511C222.215 357.614 176.959 331.435 167.845 329.835C158.73 328.236 106.033 353.215 106.033 353.215L90.1553 356.596L50.6562 364.547Z" fill="#00091F"/>
<path d="M110.613 342.221L106.723 329.798C106.723 329.798 145.664 286.518 162.232 287.1C178.8 287.681 181.721 302.334 182.836 313.764C183.951 325.193 182.836 342.173 182.836 342.173L144.755 346.936L116.043 359.759L110.553 342.221" fill="#00091F"/>
<path d="M152.863 334.961C152.863 335.64 154.196 315.23 160.05 306.104" stroke="white" stroke-width="1.06897" stroke-linecap="round" stroke-linejoin="round"/>
<path d="M166.27 305.765C165.856 309.795 165.88 313.859 166.343 317.885" stroke="white" stroke-width="1.06897" stroke-linecap="round" stroke-linejoin="round"/>
<path d="M163.483 379.66C163.483 379.66 160.611 394.677 161.398 397.84C162.404 401.852 172.9 401.937 175.882 402.07C182.475 402.349 189.056 401.694 195.65 401.803C200.667 401.888 205.673 402.421 210.703 402.349C215.74 402.455 220.736 401.423 225.319 399.331C229.174 397.404 231.695 394.665 231.21 390.18C230.567 384.266 228.592 382.775 220.423 381.842C212.254 380.908 183.421 372.291 183.421 372.291C183.421 372.291 178.948 380.145 163.483 379.66Z" stroke="#00091F" stroke-width="1.06897" stroke-linecap="round" stroke-linejoin="round"/>
<path d="M163.483 379.66C164.608 374.06 164.608 368.292 163.483 362.692C161.568 354.063 176.415 361.577 176.415 361.577L184.402 370.195L183.42 372.279" stroke="#00091F" stroke-width="1.06897" stroke-linecap="round" stroke-linejoin="round"/>
<path d="M162.233 399.392C162.199 398.533 162.464 397.688 162.984 397.003C163.503 396.317 164.245 395.834 165.082 395.635C167.239 395.065 169.857 395.453 172.051 395.514C175.844 395.635 179.638 395.792 183.431 395.829C196.206 395.938 208.605 391.89 221.367 391.405C223.609 391.32 227.621 390.726 229.609 392.12C232.808 394.362 226.906 398.762 224.688 399.659C219.251 401.615 213.495 402.528 207.72 402.349C200.23 401.998 188.497 402.046 183.419 402.107C178.341 402.167 168.815 404.107 162.233 399.392Z" fill="#00091F"/>
<path d="M161.762 394.034C165.124 392.748 168.709 392.146 172.306 392.265C185.565 392.204 200.182 392.992 212.835 388.289C218.435 386.205 227.585 385.09 230.918 388.289" stroke="#00091F" stroke-width="1.06897" stroke-linecap="round" stroke-linejoin="round"/>
<path d="M261.883 389.405C261.883 389.405 262.356 394.834 271.458 396.119C280.56 397.404 298.934 399.755 305.006 400.591C311.078 401.428 328.494 394.834 328.652 386.29C328.809 377.745 321.307 375.188 316.665 375.03C312.023 374.873 290.001 375.83 284.087 374.23C278.172 372.631 274.815 371.988 271.3 374.073" stroke="#00091F" stroke-width="1.06897" stroke-linecap="round" stroke-linejoin="round"/>
<path d="M319.539 375.382C319.539 375.382 324.714 379.345 325.199 383.333C325.683 387.32 315.297 395.15 306.025 395.949C296.753 396.749 284.875 395.113 279.555 397.161" stroke="#00091F" stroke-width="1.06897" stroke-linecap="round" stroke-linejoin="round"/>
<path d="M52.0974 247.177C52.0974 247.177 59.1755 252.425 62.5933 250.171C66.0111 247.916 73.5013 239.384 73.5013 239.384L84.3123 245.274L95.6567 281.695L103.244 313.885L115.364 319.812V324.963C115.364 324.963 108.237 332.344 100.82 334.538C93.4023 336.732 85.3062 338.865 79.1977 337.435C73.0892 336.004 61.3813 295.548 61.3813 295.548L31.9297 252.51L52.0974 247.177Z" fill="#7CCCDB"/>
<path d="M148.124 331.822L95.6445 318.49L148.124 294.178L198.204 306.952L148.124 331.822Z" fill="white" stroke="#2855AF" stroke-width="1.06897" stroke-linecap="round" stroke-linejoin="round"/>
<path d="M148.125 331.822L159.857 277.961L208.87 259.26L198.799 307.303L148.125 331.822Z" fill="white"/>
<path d="M95.6445 317.873V320.818L148.439 334.962L199.331 309.461L199.61 306.528L148.439 331.277L95.6445 317.873Z" fill="#2855AF"/>
<path d="M70.168 243.213C76.1729 250.442 80.9064 258.639 84.1666 267.453C88.8691 281.016 97.7046 309.716 96.9411 320.781L115.642 306.237C113.803 296.968 113.123 287.507 113.618 278.07C114.648 264.254 115.691 242.244 103.607 240.438C90.978 237.735 74.1312 233.614 74.1312 233.614L70.168 243.213Z" fill="#2855AF"/>
<path d="M38.547 237.808C38.547 237.808 19.5792 247.964 17.2279 252.061C14.8766 256.157 13.5071 254.945 14.3918 261.417C15.2766 267.889 19.9792 288.99 21.1184 296.117C22.2577 303.244 26.124 334.016 26.124 334.016C29.6068 335.529 33.2112 336.746 36.8987 337.652L12.1133 370.049C12.1133 370.049 21.4578 390.35 39.3106 390.98C57.1633 391.61 65.4413 374.242 73.1617 362.013C80.8822 349.784 86.0574 333.253 86.0574 333.253L89.8025 332.562L88.4087 314.988L86.0574 315.351C86.0574 315.351 85.5605 290.845 75.1494 272.374C64.7383 253.903 38.547 237.808 38.547 237.808Z" fill="#2855AF"/>
<path opacity="0.2" d="M78.7746 236.705C78.7746 236.705 87.0283 240.923 87.8767 246.231C88.7251 251.54 86.0103 258.121 89.9735 260.715C93.9367 263.308 98.5908 263.854 100.882 270.762C103.172 277.671 102.481 309.619 100.882 315.097C99.2817 320.576 97.0031 315.097 97.0031 315.097L94.3731 301.135L88.9676 281.149L83.6226 266.145L78.7746 255.746L72.957 243.904L78.7746 236.705Z" fill="white"/>
<path d="M89.4768 328.502C89.4768 328.502 97.1973 329.52 99.7788 328.405C102.36 327.29 104.627 326.732 106.445 321.642C108.263 316.551 111.656 314.988 115.305 314.745C118.953 314.503 127.206 312.891 128.637 308.916L125.061 308.661C126.291 308.313 127.426 307.691 128.382 306.843H126.879C126.879 306.843 119.704 303.074 116.044 302.165C112.384 301.256 108.469 300.31 105.015 303.292C101.56 306.273 99.7061 312.697 98.3002 314.37C96.8943 316.042 93.1734 318.115 88.2891 318.103L89.4768 328.502Z" fill="white"/>
<path d="M89.9727 328.539C89.9727 328.539 100.444 330.369 103.935 326.26C107.425 322.151 106.213 316.334 113.97 314.988C121.727 313.643 128.296 311.958 128.66 308.928C128.66 308.928 112.71 307.413 109.268 310.14" stroke="#2855AF" stroke-width="1.06897" stroke-linecap="round" stroke-linejoin="round"/>
<path d="M125.619 308.564C126.717 308.325 127.71 307.744 128.455 306.904L121.292 305.534C118.783 305.049 116.275 304.213 113.681 304.322C111.347 304.594 109.213 305.774 107.742 307.607" stroke="#2855AF" stroke-width="1.06897" stroke-linecap="round" stroke-linejoin="round"/>
<path d="M70.168 231.772C76.1189 233.554 81.985 235.845 88.045 237.142C94.105 238.438 99.8377 238.766 105.607 241.032C106.46 241.339 107.273 241.746 108.031 242.244C112.988 245.71 112.952 252.692 113.509 258C115.206 274.18 110.758 286.276 115.303 301.899" stroke="white" stroke-width="1.06897" stroke-linecap="round" stroke-linejoin="round"/>
<path d="M126.49 306.141L118.188 302.977C114.37 301.523 109.874 300.117 106.395 302.262C104.995 303.238 103.824 304.508 102.965 305.983C101.964 307.537 101.07 309.157 100.287 310.831C99.7736 312.114 99.1149 313.334 98.3235 314.467C96.0571 317.327 92.5544 318.043 88.9062 318.2" stroke="#2855AF" stroke-width="1.06897" stroke-linecap="round" stroke-linejoin="round"/>
<path d="M37.144 237.808C37.144 237.808 47.6762 241.929 52.0516 247.177C52.0516 247.177 62.6081 254.352 66.9955 246.462C71.383 238.572 71.8435 222.682 71.8435 222.682L75.928 213.604L74.3524 189.255L62.9353 172.105L52.1 164.143L40.3315 186.855L26.6602 196.164L28.2236 221.616L37.144 237.808Z" fill="white"/>
<path opacity="0.1" d="M59.2235 174.032C59.2235 174.032 59.7326 193.57 43.8311 200.769C43.8311 200.769 39.2013 224.488 54.5331 229.505C54.5331 229.505 57.1268 240.595 46.1097 242.365C31.8929 235.396 34.4018 227.942 34.4018 227.942L29.4932 206.938L27.9297 192.818L46.1097 178.553L59.2235 174.032Z" fill="#2855AF"/>
<path opacity="0.5" d="M59.2235 174.032C59.2235 174.032 59.7326 193.57 43.8311 200.769C43.8311 200.769 39.2013 224.488 54.5331 229.505C54.5331 229.505 57.1268 240.595 46.1097 242.365C31.8929 235.396 34.4018 227.942 34.4018 227.942L29.4932 206.938L27.9297 192.818L46.1097 178.553L59.2235 174.032Z" fill="white"/>
<path d="M71.6227 184.322C71.6227 184.322 72.3014 186.528 71.6227 193.121C70.9439 199.715 72.568 208.138 70.4107 214.053C68.2533 219.967 64.5931 228.984 54.5456 229.457C46.8373 229.457 38.7896 218.549 37.7958 211.386C37.7958 211.386 28.4997 207.023 29.6026 200.842C30.7056 194.661 36.6686 196.321 38.2321 200.842" stroke="#2855AF" stroke-width="1.06897" stroke-linecap="round" stroke-linejoin="round"/>
<path d="M63.2621 196.588C62.4867 200.227 62.6073 203.999 63.6136 207.581C63.954 208.369 64.0181 209.249 63.7954 210.077C63.6234 210.423 63.3683 210.72 63.0531 210.942C62.7379 211.164 62.3724 211.304 61.9895 211.35C61.2246 211.431 60.4513 211.365 59.7109 211.156" stroke="#2855AF" stroke-width="1.06897" stroke-linecap="round" stroke-linejoin="round"/>
<path d="M59.2257 215.386C59.2257 215.386 54.8868 216.731 52.1719 213.604" stroke="#2855AF" stroke-width="1.06897" stroke-linecap="round" stroke-linejoin="round"/>
<path d="M38.5497 237.808C41.2403 230.972 36.2227 210.478 36.2227 210.478" stroke="white" stroke-width="1.06897" stroke-linecap="round" stroke-linejoin="round"/>
<path d="M55.3241 193.17C55.3241 193.17 49.058 187.716 46.125 195.787" stroke="#2855AF" stroke-width="1.06897" stroke-linecap="round" stroke-linejoin="round"/>
<path d="M64.3867 192.819C64.856 191.796 65.609 190.929 66.5562 190.322C67.0368 190.031 67.5929 189.89 68.1539 189.916C68.7149 189.942 69.2555 190.134 69.7074 190.467" stroke="#2855AF" stroke-width="1.06897" stroke-linecap="round" stroke-linejoin="round"/>
<path d="M53.4329 203.072C54.0086 203.072 54.4753 202.019 54.4753 200.72C54.4753 199.422 54.0086 198.369 53.4329 198.369C52.8573 198.369 52.3906 199.422 52.3906 200.72C52.3906 202.019 52.8573 203.072 53.4329 203.072Z" fill="#2855AF"/>
<path d="M66.4713 199.678C66.4713 200.975 66.0108 202.03 65.429 202.03C64.8473 202.03 64.3867 200.975 64.3867 199.678C64.3867 198.382 64.8473 197.327 65.429 197.327C66.0108 197.327 66.4713 198.382 66.4713 199.678Z" fill="#2855AF"/>
<path d="M36.2216 197.327C36.2216 197.327 59.6374 188.649 59.2495 173.984C59.2495 173.984 63.1522 183.45 71.9513 188.334C71.9513 188.334 69.4303 174.929 66.4973 169.1C63.5643 163.27 46.063 158.688 39.3606 160.107C32.6583 161.525 19.7383 164.215 17.0598 185.813C14.3813 207.411 17.0598 223.652 10.7574 232.318C4.45503 240.983 5.40039 255.964 14.551 258.012C15.4724 255.154 17.0497 252.552 19.1566 250.413C22.4653 247.261 38.8758 238.123 38.8758 238.123C38.8758 238.123 39.5909 221.713 36.2458 210.477C36.2458 210.477 29.2404 208.32 29.6161 200.842C30.2949 195.024 36.2216 197.327 36.2216 197.327Z" fill="#2855AF"/>
<path d="M38.8502 238.123C38.8502 238.123 23.482 246.146 17.2281 252.061C10.9742 257.976 16.6342 271.647 19.2279 285.512C21.8216 299.378 23.8335 312.588 26.1242 333.992C48.5947 344.44 69.7562 335.956 89.8027 332.514L88.4089 314.988C85.488 315.146 70.2289 319.654 56.8969 315.715C50.0127 313.667 44.4012 316.649 39.6622 322.042" stroke="white" stroke-width="1.06897" stroke-linecap="round" stroke-linejoin="round"/>
<path d="M36.0391 317.388C42.8869 314.019 49.0802 312.54 55.4311 315.352" stroke="white" stroke-width="1.06897" stroke-linecap="round" stroke-linejoin="round"/>
<path d="M54.111 314.83C50.1478 304.128 49.1782 291.729 47.3359 279.937" stroke="white" stroke-width="1.06897" stroke-linecap="round" stroke-linejoin="round"/>
<path d="M26.125 261.418C34.5657 266.316 41.1301 273.891 44.7777 282.943" stroke="white" stroke-width="1.06897" stroke-linecap="round" stroke-linejoin="round"/>
<path d="M41.4102 269.404L44.5008 275.343" stroke="white" stroke-width="1.06897" stroke-linecap="round" stroke-linejoin="round"/>
<path d="M38.5504 237.808C35.2901 244.813 38.3201 252.994 42.9863 258.569C47.8343 264.387 55.7729 267.538 63.1298 268.689C63.9297 268.811 64.8872 269.004 65.1538 269.768C65.2833 270.162 65.2833 270.586 65.1538 270.98C64.0509 274.616 60.6573 277.501 60.73 281.282C60.8607 282.836 61.3017 284.349 62.0268 285.73C66.1471 294.935 70.7885 303.899 75.9285 312.576" stroke="white" stroke-width="1.06897" stroke-linecap="round" stroke-linejoin="round"/>
<path opacity="0.5" d="M40.3317 168.506C38.9416 176.463 36.0633 184.086 31.8477 190.976" stroke="white" stroke-width="1.06897" stroke-linecap="round" stroke-linejoin="round"/>
<path opacity="0.5" d="M26.6575 172.105C22.27 182.347 24.3547 194.043 23.8941 205.181C23.4592 215.215 20.8891 225.041 16.3555 234.002" stroke="white" stroke-width="1.06897" stroke-linecap="round" stroke-linejoin="round"/>
<path d="M86.0609 333.241C86.0609 333.241 70.62 375.019 55.7609 385.721C40.9018 396.423 24.4065 390.69 12.1289 370.05L36.9022 337.713" stroke="white" stroke-width="1.06897" stroke-linecap="round" stroke-linejoin="round"/>
<path d="M41.3477 338.974C43.723 348.239 49.2028 356.409 56.8734 362.123" stroke="white" stroke-width="1.06897" stroke-linecap="round" stroke-linejoin="round"/>
<path d="M38.3532 338.646C37.2307 345.44 37.5737 352.395 39.3591 359.044" stroke="white" stroke-width="1.06897" stroke-linecap="round" stroke-linejoin="round"/>
<path d="M64.3867 234.257C64.3867 234.257 78.4702 249.286 87.0511 275.344C95.6321 301.402 96.941 315.715 96.941 315.715" stroke="white" stroke-width="1.06897" stroke-linecap="round" stroke-linejoin="round"/>
<path d="M99.1484 255.843C102.36 258.653 105.045 262.015 107.075 265.769C109.106 269.565 109.638 273.986 108.566 278.156C108.105 279.659 107.354 281.077 106.99 282.592C106.644 284.047 106.437 285.533 106.372 287.028L105.16 302.784" stroke="white" stroke-width="1.06897" stroke-linecap="round" stroke-linejoin="round"/>
<path d="M53.4336 248.231C53.4336 248.231 62.5478 254.291 67.0444 246.461C71.5409 238.632 68.2564 235.978 68.2564 235.978" stroke="#2855AF" stroke-width="1.06897" stroke-linecap="round" stroke-linejoin="round"/>
<path d="M38.5469 237.808C38.5469 237.808 69.0772 255.357 78.0702 278.385C87.0632 301.413 85.8391 315.073 85.8391 315.073" stroke="white" stroke-width="1.06897" stroke-linecap="round" stroke-linejoin="round"/>
<path d="M66.2305 233.142C69.0787 232.681 71.939 233.675 74.6054 234.766C77.8125 235.952 80.808 237.646 83.4772 239.784C86.1621 241.946 87.9253 245.048 88.4101 248.462C88.7858 252.207 87.1981 256.352 89.1494 259.588C91.331 263.224 96.7486 263.551 99.3059 266.92C100.414 268.645 101.073 270.62 101.221 272.665C102.854 284.573 102.907 296.643 101.378 308.565" stroke="white" stroke-width="1.06897" stroke-linecap="round" stroke-linejoin="round"/>
<path d="M65.6956 167.973C69.1159 171.481 72.0287 175.45 74.3493 179.765C79.4276 188.649 85.0391 198.673 87.5843 208.587C88.573 212.513 88.7681 216.596 88.1583 220.598C87.5485 224.6 86.1461 228.44 84.0332 231.894C83.3574 232.881 82.7655 233.923 82.2637 235.008C81.7744 236.356 81.4647 237.762 81.3425 239.19C80.9183 242.426 80.4214 245.783 78.6519 248.534C76.8824 251.286 73.4645 253.237 70.3255 252.292C67.2661 251.053 64.798 248.689 63.4292 245.686C61.0052 239.081 59.4781 234.875 60.5446 227.918C60.5446 227.918 71.6344 218.149 71.5496 206.914C71.4647 195.679 73.4645 187.934 68.9074 182.359C64.3503 176.784 65.6956 167.973 65.6956 167.973Z" fill="#2855AF"/>
<path d="M84.6523 337.362C84.6523 337.362 99.8387 338.974 113.825 326.309" stroke="white" stroke-width="1.06897" stroke-linecap="round" stroke-linejoin="round"/>
<path opacity="0.5" d="M74.7128 250.509C71.9252 246.437 70.0223 241.504 70.7495 236.632C71.2222 233.468 72.7614 230.572 74.1431 227.711C76.0676 224.008 77.4823 220.062 78.3488 215.979C79.2008 211.874 78.8473 207.61 77.3307 203.702C76.0341 200.983 74.3836 198.448 72.4221 196.163" stroke="white" stroke-width="1.06897" stroke-linecap="round" stroke-linejoin="round"/>
<path d="M148.125 331.822L208.87 259.26L198.799 307.303L148.125 331.822Z" fill="#2855AF"/>
<path opacity="0.8" d="M148.125 331.822L208.87 259.26L198.799 307.303L148.125 331.822Z" fill="white"/>
<path d="M187.902 293.475C187.066 296.747 184.63 298.941 182.46 298.384C180.291 297.826 179.236 294.748 180.036 291.451C180.836 288.154 183.321 285.985 185.478 286.542C187.636 287.1 188.751 290.203 187.902 293.475Z" fill="#2855AF"/>
<path d="M148.125 331.822L159.857 277.961L208.87 259.26L198.799 307.303L148.125 331.822Z" stroke="#2855AF" stroke-width="1.06897" stroke-linecap="round" stroke-linejoin="round"/>
<path d="M146.137 330.659L157.626 277.149L207.27 258.484L209.1 258.945L159.857 277.961L148.124 331.823L146.137 330.659Z" fill="#2855AF"/>
<path opacity="0.2" d="M38.5481 237.808C38.5481 237.808 34.2333 249.697 42.984 258.569C51.7346 267.441 65.1515 269.78 65.1515 269.78V270.992C65.1515 270.992 59.3339 278.882 60.9701 282.942C62.6063 287.003 77.6351 316.769 77.6351 316.769L86.1191 315.351C86.2804 301.465 83.0872 287.744 76.8109 275.355C66.2302 255.236 38.5481 237.808 38.5481 237.808Z" fill="white"/>
<path opacity="0.2" d="M34.4414 340.912C34.4414 340.912 35.0474 349.711 38.3925 354.85C38.3925 354.85 38.7804 348.378 39.3136 342.67C39.3136 342.67 44.2707 355.347 54.0516 359.819C54.0516 359.819 48.2825 348.378 46.416 342.67C46.416 342.67 66.0383 346.16 84.9939 336.21V333.446C84.9939 333.446 55.7605 342.015 36.9018 337.713L34.4414 340.912Z" fill="#00091F"/>
<path opacity="0.2" d="M47.5412 281.694L59.6612 312.576L74.3022 317.424L58.2068 316.806C58.2068 316.806 50.7288 315.727 41.36 320.781C41.36 320.781 41.7842 318.054 45.6626 315.752C45.6626 315.752 44.2688 314.394 38.3906 316.297C41.1994 313.518 44.4833 311.264 48.0866 309.643L47.5412 281.694Z" fill="#00091F"/>
<path d="M128.66 308.916L149.349 298.554L153.846 299.56" stroke="#2855AF" stroke-width="1.06897" stroke-linecap="round" stroke-linejoin="round"/>
<path d="M147.629 327.169L111.039 317.521L121.547 313.437" stroke="#2855AF" stroke-width="1.06897" stroke-linecap="round" stroke-linejoin="round"/>
<path d="M153.349 302.432L119.219 319.545" stroke="#2855AF" stroke-width="1.06897" stroke-linecap="round" stroke-linejoin="round"/>
<path d="M152.83 308.916L127.414 321.666" stroke="#2855AF" stroke-width="1.06897" stroke-linecap="round" stroke-linejoin="round"/>
<path d="M151.724 315.303L134.805 323.787" stroke="#2855AF" stroke-width="1.06897" stroke-linecap="round" stroke-linejoin="round"/>
<path d="M116.516 314.527L149.47 323.072" stroke="#2855AF" stroke-width="1.06897" stroke-linecap="round" stroke-linejoin="round"/>
<path d="M125.875 311.824L151.06 318.369" stroke="#2855AF" stroke-width="1.06897" stroke-linecap="round" stroke-linejoin="round"/>
<path d="M130.977 307.765L151.726 313.146" stroke="#2855AF" stroke-width="1.06897" stroke-linecap="round" stroke-linejoin="round"/>
<path d="M137.289 304.602L152.827 308.638" stroke="#2855AF" stroke-width="1.06897" stroke-linecap="round" stroke-linejoin="round"/>
<path d="M143.762 301.607L153.846 304.213" stroke="#2855AF" stroke-width="1.06897" stroke-linecap="round" stroke-linejoin="round"/>
<path d="M175.574 334.176C181.758 335.603 183 336.5 183 336.5" stroke="white" stroke-width="1.06897" stroke-linecap="round" stroke-linejoin="round"/>
<path d="M96.9414 352.196C96.9414 352.196 155.02 332.501 166.025 333.229C168.716 333.451 172.966 333.471 175.572 334.176" stroke="white" stroke-width="1.06897" stroke-linecap="round" stroke-linejoin="round"/>
<path d="M106.723 348.973C109.147 346.282 110.662 344.888 111.983 342.719" stroke="white" stroke-width="1.06897" stroke-linecap="round" stroke-linejoin="round"/>
<path d="M284.203 169.595C284.077 169.595 283.951 169.558 283.844 169.486L279.777 166.765L277.596 168.313C277.425 168.435 277.205 168.465 277.006 168.395C276.808 168.325 276.657 168.163 276.603 167.962L275.508 163.868L271.595 162.392C271.349 162.299 271.185 162.067 271.184 161.807C271.182 161.546 271.342 161.312 271.587 161.215L286.466 155.375C286.533 155.347 286.605 155.331 286.677 155.326C286.702 155.325 286.728 155.325 286.754 155.326C286.903 155.335 287.05 155.395 287.164 155.506C287.176 155.517 287.187 155.529 287.198 155.541C287.293 155.648 287.345 155.778 287.355 155.911C287.357 155.944 287.357 155.978 287.354 156.011C287.352 156.035 287.348 156.059 287.343 156.083L284.832 169.082C284.792 169.291 284.647 169.466 284.448 169.547C284.369 169.579 284.286 169.595 284.203 169.595ZM280.134 165.478L283.757 167.902L285.711 157.787L278.653 164.487L280.117 165.467C280.123 165.47 280.129 165.474 280.134 165.478ZM277.119 164.939L277.604 166.752L278.649 166.01L277.281 165.095C277.217 165.052 277.162 164.999 277.119 164.939ZM273.585 161.79L276.272 162.804C276.465 162.876 276.61 163.036 276.662 163.233L277.003 164.506C277.019 164.359 277.086 164.221 277.196 164.117L283.921 157.734L273.585 161.79Z" fill="white"/>
<defs>
<filter id="filter0_d" x="0.417969" y="12.8809" width="194.631" height="262.83" filterUnits="userSpaceOnUse" color-interpolation-filters="sRGB">
<feFlood flood-opacity="0" result="BackgroundImageFix"/>
<feColorMatrix in="SourceAlpha" type="matrix" values="0 0 0 0 0 0 0 0 0 0 0 0 0 0 0 0 0 0 127 0"/>
<feOffset dy="10"/>
<feGaussianBlur stdDeviation="20"/>
<feColorMatrix type="matrix" values="0 0 0 0 0.156863 0 0 0 0 0.333333 0 0 0 0 0.686275 0 0 0 0.1 0"/>
<feBlend mode="normal" in2="BackgroundImageFix" result="effect1_dropShadow"/>
<feBlend mode="normal" in="SourceGraphic" in2="effect1_dropShadow" result="shape"/>
</filter>
</defs>
</svg>
