<svg id="_x31_px" enable-background="new 0 0 24 24" height="512" viewBox="0 0 24 24" width="512" xmlns="http://www.w3.org/2000/svg"><g><path d="m17.5 24c-3.584 0-6.5-2.916-6.5-6.5s2.916-6.5 6.5-6.5 6.5 2.916 6.5 6.5-2.916 6.5-6.5 6.5zm0-12c-3.032 0-5.5 2.467-5.5 5.5s2.468 5.5 5.5 5.5 5.5-2.467 5.5-5.5-2.468-5.5-5.5-5.5z"/></g><g><path d="m15 11.85h1v11.3h-1z"/></g><g><path d="m19 11.85h1v11.3h-1z"/></g><g><path d="m11.85 15h11.301v1h-11.301z"/></g><g><path d="m11.85 19h11.301v1h-11.301z"/></g><g><path d="m8.5 20h-3.5c-1.103 0-2-.897-2-2v-7h-2c-.561 0-1-.439-1-1 0-.281.122-.559.326-.742l9.834-9.125c.191-.178.488-.178.68 0l3.16 2.931v-1.564c0-.276.224-.5.5-.5h3c.276 0 .5.224.5.5v5.273l1.65 1.542c.202.188.213.505.024.707-.188.202-.505.214-.706.024l-1.81-1.69c-.1-.095-.158-.227-.158-.366v-4.99h-2v2.21c0 .199-.118.379-.3.458-.183.08-.396.043-.54-.092l-3.66-3.394-9.5 8.815 2.5.003c.276 0 .5.224.5.5v7.5c0 .551.448 1 1 1h3.5c.276 0 .5.224.5.5s-.224.5-.5.5z"/></g></svg>