<?xml version="1.0"?>
<svg xmlns="http://www.w3.org/2000/svg" viewBox="0 0 512 512" width="512" height="512"><g id="Out_line" data-name="Out line"><path d="M216,120h8a8,8,0,0,0,0-16h-8a8,8,0,0,0,0,16Z"/><path d="M160,496a301.4361,301.4361,0,0,0,125.57373-27.20068L314.271,455.75525A116.37009,116.37009,0,0,0,360,443.26746V496h16V433.38672a118.8673,118.8673,0,0,0,13.65674-11.73A116.48745,116.48745,0,0,0,424,338.74512v-25.75a103.99974,103.99974,0,0,0-65.37549-96.56153l-19.3457-7.73828L312,195.05591V148.36322A69.99687,69.99687,0,0,0,336,95.5918V55.43164A39.4763,39.4763,0,0,0,296.56836,16c-.18982,0-.37866.00641-.56836.00787V16H196a35.98916,35.98916,0,0,0-20,65.91663v20.54284l-15.42773,38.56934a7.99931,7.99931,0,0,0,3.85009,10.12646l12.50049,6.25049,7.23242,36.16309a8.00059,8.00059,0,0,0,4.26709,5.58642L190.11182,200l-17.18067,8.59033-29.81885,9.93946A103.867,103.867,0,0,0,72,317.19287V408A88.09957,88.09957,0,0,0,160,496ZM408,312.99512v25.75A101.25444,101.25444,0,0,1,306.74512,440H216V400h80a48.05436,48.05436,0,0,0,48-48V324.28125l20.4375-13.625A7.99943,7.99943,0,0,0,368,304V264a7.99943,7.99943,0,0,0-3.5625-6.65625l-24-16a7.97483,7.97483,0,0,0-10.60376,1.57159l9.65845-16.90228,13.18994,5.276A87.57961,87.57961,0,0,1,408,312.99512ZM200,439.32056A48.1066,48.1066,0,0,1,160.67944,400H200Zm70.35718-187.77741,5.79419,5.408-.58887.39258A7.99943,7.99943,0,0,0,272,264v7.02856l-16.563,11.9585,7.6565-22.96973ZM320,296a24.0275,24.0275,0,0,0,24-24v-9.05176l8,5.333v31.4375l-20.4375,13.625A7.99943,7.99943,0,0,0,328,320v24H312V320a7.99943,7.99943,0,0,0-3.5625-6.65625L288,299.71875v-31.4375l8-5.333V272A24.0275,24.0275,0,0,0,320,296Zm-7.79639-22.23181,16.31226-28.54669A7.96723,7.96723,0,0,0,328,248v24a7.9968,7.9968,0,0,1-15.79639,1.76819ZM312,360h14.98743A32.05728,32.05728,0,0,1,296,384h-8A24.02687,24.02687,0,0,1,312,360ZM240,251.314l6.84717,6.84668-8.936,26.80811-11.8374-19.72852Zm8,56.77759,24-17.32788V304a7.99943,7.99943,0,0,0,3.5625,6.65625L296,324.28125v23.0686A40.052,40.052,0,0,0,272,384H248Zm62.85547-64.213a7.99787,7.99787,0,0,0-11.293-2.53479l-9.73218,6.488-9.051-8.44776,25.2301-29.43518,18.849,9.42469Zm-7.52-109.26581A46.67932,46.67932,0,0,0,304,126.833a22.87291,22.87291,0,0,0-32-20.93311V88h48v7.5918A53.99225,53.99225,0,0,1,303.33545,134.61273ZM320,55.43164V72H242.0011a57.19537,57.19537,0,0,1,54.56726-40A23.458,23.458,0,0,1,320,55.43164ZM196,32h54.87a73.22982,73.22982,0,0,0-25.46485,40H196a20,20,0,0,1,0-40Zm-8.42236,112.84473-9.416-4.708,13.26611-33.16553A8.00164,8.00164,0,0,0,192,104V87.77246A36.19361,36.19361,0,0,0,196,88h60v40a7.99986,7.99986,0,0,0,15.15527,3.57764l3.90039-7.8003A6.83278,6.83278,0,0,1,288,126.833a30.99243,30.99243,0,0,1-3.25488,13.78857l-7.6167,15.23242a7.50008,7.50008,0,0,1-12.01172,1.94922l-3.46-3.46-11.31348,11.31348,3.46,3.46a23.49976,23.49976,0,0,0,37.63623-6.10742l1.3855-2.77075c1.07251-.44422,2.13306-.90815,3.175-1.40155v38.20355l-40.45166,47.19385L232,220.68652V208a7.99877,7.99877,0,0,0,5.65674-2.34326l8-8a7.99984,7.99984,0,0,0-11.31348-11.31348L228.68652,192H209.88867l-10.81152-5.40576-7.23242-36.16309A8.00059,8.00059,0,0,0,187.57764,144.84473ZM209.88867,208H216v16a7.99877,7.99877,0,0,0,2.34326,5.65674L228.68652,240l-18.34326,18.34326-.59375.59375L187.1416,219.37354ZM88,317.19287a87.88815,87.88815,0,0,1,60.17188-83.48437l24.136-8.04523,28.74634,50.306a7.9997,7.9997,0,0,0,12.60254,1.6875l.75488-.75488L232,306.21606V384H160V296H144v96a64.0727,64.0727,0,0,0,64,64h66.98975A285.421,285.421,0,0,1,160,480a72.08124,72.08124,0,0,1-72-72Z"/></g></svg>
