<?xml version="1.0"?>
<svg xmlns="http://www.w3.org/2000/svg" viewBox="0 0 64 64" width="512" height="512"><g id="Outline"><path d="M60,24a3,3,0,0,0-3-3H56V17.46A5.983,5.983,0,0,0,58,13v-.236L52.618,2H11.382L6,12.764V13a5.983,5.983,0,0,0,2,4.46V21H7a3,3,0,0,0-3,3V56H2v3a3,3,0,0,0,3,3H59a3,3,0,0,0,3-3V56H60ZM45.344,4h6.038l4.612,9.224A4,4,0,0,1,48,13ZM43.256,4,46,13.139a4,4,0,0,1-8-.239L37.1,4ZM28.905,4H35.1L36,13.047a4,4,0,0,1-8,.053ZM26.9,4,26,13a4,4,0,0,1-8,.139L20.744,4ZM12.618,4h6.038l-2.614,8.713L16,13a4,4,0,0,1-7.994.224ZM12,19a5.994,5.994,0,0,0,5-2.693,6.005,6.005,0,0,0,10.009.014A5.992,5.992,0,0,0,37,16.31a5.992,5.992,0,0,0,10,0,5.961,5.961,0,0,0,7,2.343V52H10V18.65A5.976,5.976,0,0,0,12,19ZM6,24a1,1,0,0,1,1-1H8V54H56V23h1a1,1,0,0,1,1,1V56H6ZM60,59a1,1,0,0,1-1,1H5a1,1,0,0,1-1-1V58H60Z"/><path d="M22.18,44h24.7l2.267-17H20.82l-1-5H15v2h3.18ZM46.858,29,45.125,42H23.82l-2.6-13Z"/><path d="M24,47a3,3,0,1,0,3-3A3,3,0,0,0,24,47Zm3-1a1,1,0,1,1-1,1A1,1,0,0,1,27,46Z"/><path d="M39,47a3,3,0,1,0,3-3A3,3,0,0,0,39,47Zm3-1a1,1,0,1,1-1,1A1,1,0,0,1,42,46Z"/></g></svg>
