<svg height="512pt" viewBox="-48 0 511 512" width="512pt" xmlns="http://www.w3.org/2000/svg"><path d="m52.128906 454.523438h252.476563c4.179687 0 7.570312-3.386719 7.570312-7.566407 0-4.183593-3.390625-7.570312-7.570312-7.570312h-33.074219v-195.496094c0-4.179687-3.386719-7.566406-7.570312-7.566406-4.179688 0-7.566407 3.386719-7.566407 7.566406v195.496094h-41.925781v-121.300781c0-4.183594-3.386719-7.570313-7.570312-7.570313-4.179688 0-7.566407 3.386719-7.566407 7.570313v121.300781h-41.925781v-154.527344c0-4.179687-3.390625-7.566406-7.570312-7.566406-4.179688 0-7.570313 3.386719-7.570313 7.566406v154.527344h-41.925781v-79.074219c0-4.183594-3.386719-7.570312-7.566406-7.570312-4.179688 0-7.570313 3.386718-7.570313 7.570312v79.074219h-33.074219c-4.179687 0-7.570312 3.386719-7.570312 7.566406 0 4.183594 3.390625 7.570313 7.570312 7.570313zm0 0"/><path d="m206.898438 49.355469h-154.769532c-4.179687 0-7.570312 3.386719-7.570312 7.570312 0 4.179688 3.390625 7.566407 7.570312 7.566407h154.769532c4.179687 0 7.570312-3.386719 7.570312-7.566407 0-4.183593-3.390625-7.570312-7.570312-7.570312zm0 0"/><path d="m206.898438 99.785156h-23.578126c-4.179687 0-7.566406 3.386719-7.566406 7.566406 0 4.179688 3.386719 7.570313 7.566406 7.570313h23.578126c4.183593 0 7.570312-3.390625 7.570312-7.570313 0-4.179687-3.390625-7.566406-7.570312-7.566406zm0 0"/><path d="m52.128906 114.921875h100.917969c4.179687 0 7.566406-3.390625 7.566406-7.570313 0-4.179687-3.386719-7.566406-7.566406-7.566406h-100.917969c-4.179687 0-7.570312 3.386719-7.570312 7.566406 0 4.179688 3.390625 7.570313 7.570312 7.570313zm0 0"/><path d="m382.109375 153.953125h-25.875v-55.683594c0-2.007812-.796875-3.9375-2.21875-5.359375l-90.503906-90.503906c-1.378907-1.476562-3.34375-2.40625-5.523438-2.40625-.035156 0-.066406.00390625-.097656.00390625h-236.238281c-11.65625 0-21.152344 9.48828175-21.152344 21.15234375v360.597656c0 4.179688 3.390625 7.570313 7.570312 7.570313 4.1875 0 7.566407-3.390625 7.566407-7.570313v-360.597656c0-3.320312 2.707031-6.011719 6.015625-6.011719h228.765625v66.910157c0 13.117187 10.671875 23.789062 23.789062 23.789062h66.890625v48.109375c-5.46875 0-198.808594 0-201.488281 0-2.703125 0-53.175781 22.121094-54.1875 22.871094-8.179687 5.984375-6.160156 18.335937 1.484375 21.714843 54.140625 23.320313 50.476562 22.019532 52.667969 22.019532h201.523437v270.289062c0 3.320313-2.707031 6.015625-6.015625 6.015625h-313.429687c-3.308594 0-6.015625-2.695312-6.015625-6.015625v-78.816406c0-4.1875-3.378907-7.570312-7.566407-7.570312-4.179687 0-7.570312 3.382812-7.570312 7.570312v78.816406c0 11.667969 9.496094 21.152344 21.152344 21.152344h313.429687c11.65625 0 21.152344-9.484375 21.152344-21.152344v-270.289062h25.875c18.355469 0 33.304687-14.945313 33.304687-33.300782 0-18.367187-14.949218-33.304687-33.304687-33.304687zm-107.902344-63.246094c-4.769531 0-8.652343-3.882812-8.652343-8.652343v-56.191407l64.851562 64.84375zm-142.164062 110.800781-33.066407-14.25 33.066407-14.25zm250.066406 3.914063c-6.777344 0-224.199219 0-234.929687 0v-10.597656h251.421874c-2.878906 6.242187-9.183593 10.597656-16.492187 10.597656zm-234.929687-25.734375v-10.59375h234.929687c7.308594 0 13.613281 4.347656 16.492187 10.59375zm0 0"/></svg>