<svg id="Layer_3" enable-background="new 0 0 64 64" height="512" viewBox="0 0 64 64" width="512" xmlns="http://www.w3.org/2000/svg"><g><path d="m60 7h-2v-1c0-1.654-1.346-3-3-3h-11c0-1.103-.897-2-2-2h-20c-1.103 0-2 .897-2 2h-11c-1.654 0-3 1.346-3 3v1h-2c-1.654 0-3 1.346-3 3v6 5c0 1.859 1.28 3.411 3 3.858v30.142c-1.654 0-3 1.346-3 3v4c0 .553.448 1 1 1h60c.552 0 1-.447 1-1v-4c0-1.654-1.346-3-3-3v-30.142c1.72-.447 3-1.999 3-3.858v-5-6c0-1.654-1.346-3-3-3zm-5-2c.551 0 1 .448 1 1v1h-12v-2zm-33-2h20l.001 8h-20.001zm-14 3c0-.552.449-1 1-1h11v2h-12zm-4 3h16v2c0 1.103.897 2 2 2h20c1.103 0 2-.897 2-2v-2h16c.551 0 1 .448 1 1v5h-5-6-6-6-6-6-6-6-6-5v-5c0-.552.449-1 1-1zm47 8h4v4c0 1.103-.897 2-2 2s-2-.897-2-2zm-6 0h4v4c0 1.103-.897 2-2 2s-2-.897-2-2zm-6 0h4v4c0 1.103-.897 2-2 2s-2-.897-2-2zm-6 0h4v4c0 1.103-.897 2-2 2s-2-.897-2-2zm-6 0h4v4c0 1.103-.897 2-2 2s-2-.897-2-2zm-6 0h4v4c0 1.103-.897 2-2 2s-2-.897-2-2zm-6 0h4v4c0 1.103-.897 2-2 2s-2-.897-2-2zm-6 0h4v4c0 1.103-.897 2-2 2s-2-.897-2-2zm-6 4v-4h4v4c0 1.103-.897 2-2 2s-2-.897-2-2zm3 12h28v14h-28zm28-2h-28v-2h28zm-28 18h28v6h-28zm55 9v3h-58v-3c0-.552.449-1 1-1h56c.551 0 1 .448 1 1zm-7-27h-14v-2h14zm-14 2h14v22h-14zm16 22v-27c0-.553-.448-1-1-1h-16c-.552 0-1 .447-1 1v27h-2v-27c0-.553-.448-1-1-1h-29v-2.142c.79-.205 1.479-.643 2-1.24.734.84 1.8 1.382 3 1.382s2.266-.542 3-1.382c.734.84 1.8 1.382 3 1.382s2.266-.542 3-1.382c.734.84 1.8 1.382 3 1.382s2.266-.542 3-1.382c.734.84 1.8 1.382 3 1.382s2.266-.542 3-1.382c.734.84 1.8 1.382 3 1.382s2.266-.542 3-1.382c.734.84 1.8 1.382 3 1.382s2.266-.542 3-1.382c.734.84 1.8 1.382 3 1.382s2.266-.542 3-1.382c.734.84 1.8 1.382 3 1.382s2.266-.542 3-1.382c.521.597 1.21 1.035 2 1.24v30.142zm5-34c0 1.103-.897 2-2 2s-2-.897-2-2v-4h4z"/><path d="m8.55 39.5h9.899v2h-9.899z" transform="matrix(.707 -.707 .707 .707 -24.684 21.408)"/><path d="m17.55 39.5h9.899v2h-9.899z" transform="matrix(.707 -.707 .707 .707 -22.048 27.772)"/><path d="m37 4h-10c-1.654 0-3 1.346-3 3s1.346 3 3 3h10c1.654 0 3-1.346 3-3s-1.346-3-3-3zm0 4h-10c-.551 0-1-.448-1-1s.449-1 1-1h10c.551 0 1 .448 1 1s-.449 1-1 1z"/><circle cx="43" cy="42" r="2"/></g></svg>