<svg id="Capa_1" enable-background="new 0 0 512 512" height="512" viewBox="0 0 512 512" width="512" xmlns="http://www.w3.org/2000/svg"><g><path d="m483.465 52.492h-315.119c-4.15 0-7.515 3.364-7.515 7.515 0 4.15 3.365 7.515 7.515 7.515h315.119c7.447 0 13.506 6.059 13.506 13.506v265.456h-481.942v-265.457c0-7.447 6.059-13.506 13.506-13.506h109.752c4.15 0 7.515-3.365 7.515-7.515s-3.365-7.515-7.515-7.515h-109.752c-15.734.001-28.535 12.802-28.535 28.536v349.945c0 15.734 12.801 28.535 28.535 28.535h82.548c4.15 0 7.515-3.365 7.515-7.515s-3.365-7.515-7.515-7.515h-82.548c-7.447 0-13.506-6.059-13.506-13.506v-69.46h481.941v69.46c0 7.447-6.059 13.506-13.506 13.506h-342.323c-4.15 0-7.515 3.365-7.515 7.515s3.365 7.515 7.515 7.515h342.323c15.735 0 28.535-12.801 28.535-28.535v-349.945c.001-15.734-12.799-28.535-28.534-28.535z"/><path d="m211.773 433.609c14.287 0 26.318-9.84 29.676-23.098h207.001c4.151 0 7.515-3.365 7.515-7.515s-3.364-7.515-7.515-7.515h-207.001c-3.359-13.258-15.389-23.098-29.676-23.098-14.288 0-26.318 9.84-29.677 23.098h-118.546c-4.15 0-7.515 3.365-7.515 7.515s3.365 7.515 7.515 7.515h118.546c3.359 13.258 15.389 23.098 29.677 23.098zm0-46.197c8.592 0 15.583 6.991 15.583 15.584s-6.991 15.584-15.583 15.584c-8.593 0-15.584-6.991-15.584-15.584s6.991-15.584 15.584-15.584z"/><path d="m185.293 170.012c-1.44-3.5-4.813-5.76-8.597-5.76-.003 0-.006 0-.009 0-3.787.004-7.161 2.27-8.595 5.776-.023.057-.045.114-.067.171l-29.513 77.49c-3.589 9.037 10.651 14.54 14.045 5.349l5.507-14.459h37.045l5.449 14.438c3.31 9.174 17.638 3.764 14.062-5.306l-29.245-77.493c-.026-.069-.054-.138-.082-.206zm-21.505 53.538 12.883-33.827 12.766 33.827z"/><path d="m230.463 249.125c-.201 4.446 2.974 8.881 7.698 8.754.652-.003 16.041-.062 22.181-.169 21.759-.381 37.553-19.508 37.553-45.482 0-27.305-15.398-45.65-38.316-45.65h-21.602c-1.996 0-3.909.794-5.318 2.206-1.41 1.412-2.2 3.327-2.196 5.323v.062.003zm29.116-67.518c17.169 0 23.287 15.818 23.287 30.621 0 14.476-7.13 30.181-22.786 30.454-3.293.058-9.485.102-14.459.131-.03-8.978-.074-23.651-.074-30.669 0-5.887-.025-21.227-.042-30.537z"/><path d="m342.815 242.849c-8.453 0-16.611-3.433-21.821-9.183-2.788-3.077-7.54-3.308-10.615-.522-3.075 2.787-3.309 7.539-.523 10.615 8.012 8.841 20.333 14.12 32.958 14.12 15.195 0 28.435-9.986 30.799-23.228 1.793-10.038-2.882-23.195-21.374-30.016-10.03-3.7-19.339-7.737-21.784-8.811-2.327-1.73-3.454-4.476-3.027-7.446.546-3.802 3.488-6.861 7.871-8.181 12.326-3.713 23.505 5.219 23.76 5.427 3.178 2.644 7.897 2.227 10.56-.941 2.67-3.177 2.26-7.917-.917-10.588-.703-.59-17.448-14.402-37.738-8.288-9.98 3.006-17.035 10.837-18.413 20.436-1.285 8.951 2.592 17.559 10.118 22.466.332.216.68.406 1.042.568.452.202 11.207 4.99 23.326 9.46 8.437 3.112 12.731 7.95 11.78 13.273-.949 5.328-7.196 10.839-16.002 10.839z"/><path d="m355.975 293.785h43.181c12.431 0 22.544-10.113 22.544-22.544v-120.352c0-12.431-10.113-22.544-22.544-22.544h-286.313c-12.431 0-22.544 10.113-22.544 22.544v120.352c0 12.431 10.113 22.544 22.544 22.544h213.073c4.151 0 7.515-3.365 7.515-7.515s-3.364-7.515-7.515-7.515h-213.073c-4.144 0-7.515-3.371-7.515-7.515v-120.351c0-4.144 3.371-7.515 7.515-7.515h286.313c4.144 0 7.515 3.371 7.515 7.515v120.352c0 4.144-3.371 7.515-7.515 7.515h-43.181c-4.151 0-7.515 3.365-7.515 7.515.001 4.15 3.365 7.514 7.515 7.514z"/></g></svg>