<?xml version="1.0" encoding="UTF-8"?>
<svg xmlns="http://www.w3.org/2000/svg" viewBox="0 0 512 512" width="512" height="512"><g id="outline"><path d="M144,496H368a32.036,32.036,0,0,0,32-32V48a32.036,32.036,0,0,0-32-32H144a32.036,32.036,0,0,0-32,32V464A32.036,32.036,0,0,0,144,496Zm112-24a16,16,0,1,1,16-16A16.019,16.019,0,0,1,256,472ZM240,336a8,8,0,0,0,0,16h24v64H216V336a8,8,0,0,0-3-6.247L202.555,321.4a70.755,70.755,0,0,1,4.952-114.122l.493-.328V272a8,8,0,0,0,3.884,6.86l40,24a8,8,0,0,0,8.232,0l40-24A8,8,0,0,0,304,272V206.948l.493.328A70.756,70.756,0,0,1,309.446,321.4L299,329.753A8,8,0,0,0,296,336v80H280V344a8,8,0,0,0-8-8Zm11.884-89.14a8,8,0,0,0,8.232,0L288,230.13v37.341l-32,19.2-32-19.2V230.13ZM224,211.471V172.529l32-19.2,32,19.2v38.942l-32,19.2ZM384,464a16.019,16.019,0,0,1-16,16H277.132a31.934,31.934,0,0,0,0-48H384ZM144,32H368a16.019,16.019,0,0,1,16,16H128A16.019,16.019,0,0,1,144,32ZM128,64H384V416H312V339.845l7.44-5.952a86.755,86.755,0,0,0-6.072-139.929L304,187.718V168a8,8,0,0,0-3.884-6.86L287.8,153.751A8.018,8.018,0,0,0,288,152V112h16v8a8,8,0,0,0,8,8h32a8,8,0,0,0,8-8V88a8,8,0,0,0-8-8H312a8,8,0,0,0-8,8v8H280a8,8,0,0,0-8,8v40.27l-11.884-7.13a8,8,0,0,0-8.232,0L240,144.27V120a8,8,0,0,0-8-8H208v-8a8,8,0,0,0-8-8H168a8,8,0,0,0-8,8v32a8,8,0,0,0,8,8h32a8,8,0,0,0,8-8v-8h16v24a8.018,8.018,0,0,0,.2,1.751l-12.314,7.389A8,8,0,0,0,208,168v19.718l-9.368,6.246a86.755,86.755,0,0,0-6.072,139.929l7.44,5.952V416H128Zm192,48V96h16v16Zm-128,0v16H176V112ZM128,432H234.868a31.934,31.934,0,0,0,0,48H144a16.019,16.019,0,0,1-16-16Z"/><path d="M280,192a24,24,0,1,0-24,24A24.027,24.027,0,0,0,280,192Zm-32,0a8,8,0,1,1,8,8A8.009,8.009,0,0,1,248,192Z"/></g></svg>
