<?xml version="1.0" encoding="iso-8859-1"?>
<!-- Generator: Adobe Illustrator 19.0.0, SVG Export Plug-In . SVG Version: 6.00 Build 0)  -->
<svg version="1.1" id="Capa_1" xmlns="http://www.w3.org/2000/svg" xmlns:xlink="http://www.w3.org/1999/xlink" x="0px" y="0px"
	 viewBox="0 0 512 512" style="enable-background:new 0 0 512 512;" xml:space="preserve">
<g>
	<g>
		<path d="M184,380c-30.872,0-56,25.12-56,55.992c0,4.424,3.576,8,8,8s8-3.576,8-8C144,413.936,161.944,396,184,396
			c4.424,0,8-3.576,8-8S188.424,380,184,380z"/>
	</g>
</g>
<g>
	<g>
		<path d="M216,380.008L184,380c-4.416,0-8,3.576-8,8c0,4.416,3.576,8,8,8l32,0.008c4.416,0,8-3.576,8-8
			C224,383.592,220.424,380.008,216,380.008z"/>
	</g>
</g>
<g>
	<g>
		<path d="M136,430.288c-4.424,0-8,3.576-8,8V484c0,4.424,3.576,8,8,8s8-3.576,8-8v-45.712C144,433.864,140.424,430.288,136,430.288
			z"/>
	</g>
</g>
<g>
	<g>
		<path d="M328,380c-4.424,0-8,3.576-8,8s3.576,8,8,8c22.056,0,40,17.936,40,39.992c0,4.424,3.576,8,8,8s8-3.576,8-8
			C384,405.12,358.872,380,328,380z"/>
	</g>
</g>
<g>
	<g>
		<path d="M328,380l-32,0.008c-4.424,0-8,3.584-8,8c0,4.424,3.584,8,8,8L328,396c4.424,0,8-3.584,8-8
			C336,383.576,332.416,380,328,380z"/>
	</g>
</g>
<g>
	<g>
		<path d="M376,430.288c-4.424,0-8,3.576-8,8V484c0,4.424,3.576,8,8,8s8-3.576,8-8v-45.712C384,433.864,380.424,430.288,376,430.288
			z"/>
	</g>
</g>
<g>
	<g>
		<path d="M360,492H152c-4.424,0-8,3.576-8,8s3.576,8,8,8h208c4.424,0,8-3.576,8-8S364.424,492,360,492z"/>
	</g>
</g>
<g>
	<g>
		<path d="M216,354.4c-4.424,0-8,3.576-8,8v25.608c0,4.424,3.576,8,8,8s8-3.576,8-8V362.4C224,357.976,220.424,354.4,216,354.4z"/>
	</g>
</g>
<g>
	<g>
		<path d="M296,354.4c-4.424,0-8,3.576-8,8V388c0,4.424,3.576,8,8,8s8-3.576,8-8v-25.6C304,357.976,300.424,354.4,296,354.4z"/>
	</g>
</g>
<g>
	<g>
		<path d="M344,276c-4.424,0-8,3.576-8,8c0,44.112-35.888,80-80,80s-80-35.888-80-80c0-4.424-3.576-8-8-8s-8,3.576-8,8
			c0,52.936,43.064,96,96,96c52.936,0,96-43.064,96-96C352,279.576,348.424,276,344,276z"/>
	</g>
</g>
<g>
	<g>
		<path d="M168,204c-4.424,0-8,3.576-8,8v72.008c0,4.424,3.576,8,8,8s8-3.576,8-8V212C176,207.576,172.424,204,168,204z"/>
	</g>
</g>
<g>
	<g>
		<path d="M344,204c-4.424,0-8,3.576-8,8v72.016c0,4.424,3.576,8,8,8s8-3.576,8-8V212C352,207.576,348.424,204,344,204z"/>
	</g>
</g>
<g>
	<g>
		<path d="M304,164c-4.424,0-8,3.576-8,8s3.576,8,8,8c17.648,0,32,14.352,32,32c0,4.424,3.576,8,8,8s8-3.576,8-8
			C352,185.528,330.472,164,304,164z"/>
	</g>
</g>
<g>
	<g>
		<path d="M304,132c-4.424,0-8,3.576-8,8v32c0,4.424,3.576,8,8,8s8-3.576,8-8v-32C312,135.576,308.424,132,304,132z"/>
	</g>
</g>
<g>
	<g>
		<path d="M304,132h-64c-4.424,0-8,3.576-8,8s3.576,8,8,8h64c4.424,0,8-3.576,8-8S308.424,132,304,132z"/>
	</g>
</g>
<g>
	<g>
		<path d="M240,132.008c-44.112,0-80,35.88-80,79.992c0,4.424,3.576,8,8,8s8-3.576,8-8c0-35.288,28.712-63.992,64-63.992
			c4.424,0,8-3.576,8-8S244.424,132.008,240,132.008z"/>
	</g>
</g>
<g>
	<g>
		<path d="M349.656,246.344l-24-24c-3.128-3.128-8.184-3.128-11.312,0s-3.128,8.184,0,11.312l24,24
			c1.56,1.56,3.608,2.344,5.656,2.344c2.048,0,4.096-0.784,5.656-2.344C352.784,254.528,352.784,249.472,349.656,246.344z"/>
	</g>
</g>
<g>
	<g>
		<path d="M327.04,224.208c-2.088-3.888-6.944-5.352-10.832-3.256C315.928,221.112,287.896,236,256,236
			c-31.744,0-59.936-14.896-60.216-15.048c-3.912-2.104-8.736-0.616-10.832,3.264c-2.088,3.896-0.632,8.736,3.256,10.832
			C189.496,235.736,220.12,252,256,252s66.504-16.264,67.784-16.96C327.672,232.952,329.128,228.096,327.04,224.208z"/>
	</g>
</g>
<g>
	<g>
		<path d="M197.656,222.344c-3.128-3.128-8.184-3.128-11.312,0l-24,24c-3.128,3.128-3.128,8.184,0,11.312
			c1.56,1.56,3.608,2.344,5.656,2.344c2.048,0,4.096-0.784,5.656-2.344l24-24C200.784,230.528,200.784,225.472,197.656,222.344z"/>
	</g>
</g>
<g>
	<g>
		<path d="M237.656,398.344l-16-15.992c-3.128-3.128-8.184-3.128-11.312,0c-3.128,3.128-3.128,8.184,0,11.312l16,15.992
			c1.56,1.56,3.608,2.344,5.656,2.344c2.048,0,4.096-0.784,5.656-2.344C240.784,406.528,240.784,401.472,237.656,398.344z"/>
	</g>
</g>
<g>
	<g>
		<path d="M263.592,393.464c-1.392-4.192-5.904-6.464-10.12-5.056l-24,8c-4.192,1.392-6.456,5.928-5.056,10.12
			C225.528,409.88,228.648,412,232,412c0.832,0,1.688-0.136,2.536-0.416l24-8C262.728,402.192,264.992,397.656,263.592,393.464z"/>
	</g>
</g>
<g>
	<g>
		<path d="M301.656,382.352c-3.128-3.128-8.184-3.128-11.312,0l-16,15.992c-3.128,3.128-3.128,8.184,0,11.312
			c1.56,1.56,3.608,2.344,5.656,2.344c2.048,0,4.096-0.784,5.656-2.344l16-15.992C304.784,390.536,304.784,385.48,301.656,382.352z"
			/>
	</g>
</g>
<g>
	<g>
		<path d="M282.536,396.408l-24-8c-4.232-1.408-8.72,0.872-10.12,5.056c-1.4,4.2,0.872,8.728,5.056,10.12l24,8
			c0.84,0.28,1.696,0.416,2.528,0.416c3.352,0,6.472-2.12,7.592-5.472C288.992,402.328,286.72,397.8,282.536,396.408z"/>
	</g>
</g>
<g>
	<g>
		<path d="M376,476c-4.424,0-8,3.576-8,8c0,4.416-3.584,8-8,8c-4.424,0-8,3.576-8,8s3.576,8,8,8c13.232,0,24-10.768,24-24
			C384,479.576,380.424,476,376,476z"/>
	</g>
</g>
<g>
	<g>
		<path d="M152,492c-4.416,0-8-3.584-8-8c0-4.424-3.576-8-8-8s-8,3.576-8,8c0,13.232,10.768,24,24,24c4.424,0,8-3.576,8-8
			S156.424,492,152,492z"/>
	</g>
</g>
<g>
	<g>
		<path d="M504,220H384c-4.424,0-8,3.576-8,8v112c0,4.424,3.576,8,8,8h120c4.424,0,8-3.576,8-8V228C512,223.576,508.424,220,504,220
			z M496,332H392v-96h104V332z"/>
	</g>
</g>
<g>
	<g>
		<path d="M504,244H384c-4.424,0-8,3.576-8,8s3.576,8,8,8h120c4.424,0,8-3.576,8-8S508.424,244,504,244z"/>
	</g>
</g>
<g>
	<g>
		<path d="M472,276h-55.336c-4.424,0-8,3.576-8,8s3.576,8,8,8H472c4.424,0,8-3.576,8-8S476.424,276,472,276z"/>
	</g>
</g>
<g>
	<g>
		<path d="M448,300h-31.336c-4.424,0-8,3.576-8,8s3.576,8,8,8H448c4.424,0,8-3.576,8-8S452.424,300,448,300z"/>
	</g>
</g>
<g>
	<g>
		<path d="M96,20c-44.112,0-80,35.888-80,80s35.888,80,80,80s80-35.888,80-80S140.112,20,96,20z M96,164c-35.288,0-64-28.712-64-64
			c0-35.288,28.712-64,64-64s64,28.712,64,64C160,135.288,131.288,164,96,164z"/>
	</g>
</g>
<g>
	<g>
		<path d="M112,68c-4.416,0-8-3.584-8-8s3.584-8,8-8c4.424,0,8-3.576,8-8s-3.576-8-8-8c-13.232,0-24,10.768-24,24s10.768,24,24,24
			c4.424,0,8-3.576,8-8S116.424,68,112,68z"/>
	</g>
</g>
<g>
	<g>
		<path d="M141.256,36H112c-4.424,0-8,3.576-8,8s3.576,8,8,8h29.256c4.424,0,8-3.576,8-8S145.68,36,141.256,36z"/>
	</g>
</g>
<g>
	<g>
		<path d="M163.68,68H112c-4.424,0-8,3.576-8,8s3.576,8,8,8h51.68c4.424,0,8-3.576,8-8S168.104,68,163.68,68z"/>
	</g>
</g>
<g>
	<g>
		<path d="M64,116c-4.424,0-8,3.576-8,8s3.576,8,8,8c4.416,0,8,3.584,8,8s-3.584,8-8,8c-4.424,0-8,3.576-8,8s3.576,8,8,8
			c13.232,0,24-10.768,24-24S77.232,116,64,116z"/>
	</g>
</g>
<g>
	<g>
		<path d="M64,148H50.752c-4.424,0-8,3.576-8,8s3.576,8,8,8H64c4.424,0,8-3.576,8-8S68.424,148,64,148z"/>
	</g>
</g>
<g>
	<g>
		<path d="M64,116H28.104c-4.424,0-8,3.576-8,8s3.576,8,8,8H64c4.424,0,8-3.576,8-8S68.424,116,64,116z"/>
	</g>
</g>
<g>
	<g>
		<path d="M128,236H8c-4.424,0-8,3.576-8,8v96c0,4.424,3.576,8,8,8h120c4.424,0,8-3.576,8-8v-96C136,239.576,132.424,236,128,236z
			 M120,332H16v-80h104V332z"/>
	</g>
</g>
<g>
	<g>
		<path d="M60.792,301.608c-3.52-2.648-8.544-1.936-11.192,1.6l-24,32c-2.656,3.528-1.936,8.544,1.6,11.192
			c1.44,1.08,3.12,1.6,4.792,1.6c2.44,0,4.84-1.104,6.4-3.2l24-32C65.048,309.272,64.328,304.256,60.792,301.608z"/>
	</g>
</g>
<g>
	<g>
		<path d="M77.92,323.912l-15.528-20.704c-2.648-3.544-7.664-4.256-11.192-1.6c-3.536,2.648-4.248,7.664-1.6,11.192l15.528,20.704
			c1.576,2.096,3.968,3.2,6.408,3.2c1.672,0,3.352-0.528,4.784-1.6C79.856,332.456,80.568,327.44,77.92,323.912z"/>
	</g>
</g>
<g>
	<g>
		<path d="M100.44,285.344c-3.696-2.456-8.648-1.464-11.096,2.216l-32,48c-2.456,3.68-1.464,8.64,2.216,11.096
			c1.368,0.904,2.912,1.344,4.432,1.344c2.584,0,5.128-1.248,6.664-3.56l32-48C105.112,292.76,104.12,287.8,100.44,285.344z"/>
	</g>
</g>
<g>
	<g>
		<path d="M134.656,335.56l-32-48c-2.456-3.68-7.416-4.672-11.096-2.216s-4.672,7.416-2.216,11.096l32,48
			c1.536,2.312,4.08,3.56,6.664,3.56c1.52,0,3.064-0.44,4.432-1.344C136.12,344.2,137.112,339.24,134.656,335.56z"/>
	</g>
</g>
<g>
	<g>
		<path d="M40.24,268h-0.088c-4.416,0-7.952,3.576-7.952,8s3.616,8,8.04,8c4.416,0,8-3.576,8-8S44.656,268,40.24,268z"/>
	</g>
</g>
<g>
	<g>
		<path d="M416,4h-80c-4.424,0-8,3.576-8,8v80c0,4.424,3.576,8,8,8h80c4.424,0,8-3.576,8-8V12C424,7.576,420.424,4,416,4z M408,84
			h-64V20h64V84z"/>
	</g>
</g>
<g>
	<g>
		<path d="M440,116h-40c-4.424,0-8,3.576-8,8v40c0,4.424,3.576,8,8,8h40c4.424,0,8-3.576,8-8v-40C448,119.576,444.424,116,440,116z
			 M432,156h-24v-24h24V156z"/>
	</g>
</g>
<g>
	<g>
		<path d="M296,36h-32c-4.424,0-8,3.576-8,8v32c0,4.424,3.576,8,8,8h32c4.424,0,8-3.576,8-8V44C304,39.576,300.424,36,296,36z
			 M288,68h-16V52h16V68z"/>
	</g>
</g>
<g>
</g>
<g>
</g>
<g>
</g>
<g>
</g>
<g>
</g>
<g>
</g>
<g>
</g>
<g>
</g>
<g>
</g>
<g>
</g>
<g>
</g>
<g>
</g>
<g>
</g>
<g>
</g>
<g>
</g>
</svg>
