<svg id="Capa_1" enable-background="new 0 0 512 512" height="512" viewBox="0 0 512 512" width="512" xmlns="http://www.w3.org/2000/svg"><g><g><path d="m438.839 68.112c-6.695 0-12.122 5.427-12.122 12.122s5.427 12.122 12.122 12.122 12.122-5.427 12.122-12.122-5.427-12.122-12.122-12.122z"/><circle cx="397.423" cy="80.234" r="12.122"/><circle cx="356.006" cy="80.234" r="12.122"/><path d="m512 59.021c0-15.275-12.428-27.703-27.703-27.703h-456.594c-15.275-.001-27.703 12.427-27.703 27.703v328.642c0 4.142 3.357 7.5 7.5 7.5s7.5-3.358 7.5-7.5v-258.51h482v39.65c0 4.142 3.357 7.5 7.5 7.5s7.5-3.358 7.5-7.5zm-497 55.131v-55.131c0-7.004 5.698-12.703 12.703-12.703h456.594c7.005 0 12.703 5.699 12.703 12.703v55.132h-482z"/><path d="m504.5 196.302c-4.143 0-7.5 3.358-7.5 7.5v249.18c0 7.003-5.697 12.7-12.7 12.7h-456.6c-7.003 0-12.7-5.697-12.7-12.7v-30.32c0-4.142-3.357-7.5-7.5-7.5s-7.5 3.358-7.5 7.5v30.32c0 15.274 12.426 27.7 27.7 27.7h456.6c15.274 0 27.7-12.426 27.7-27.7v-249.18c0-4.142-3.357-7.5-7.5-7.5z"/><path d="m262.37 289.922h-92.23c-4.143 0-7.5 3.358-7.5 7.5v143.44c0 4.142 3.357 7.5 7.5 7.5h258.6c4.143 0 7.5-3.358 7.5-7.5v-87.997c25.659-3.656 45.455-25.763 45.455-52.416 0-29.201-23.757-52.958-52.957-52.958-25.597 0-47.008 18.256-51.904 42.43h-79.464c-4.143 0-7.5 3.358-7.5 7.5s3.357 7.5 7.5 7.5h78.613c2.071 24.621 21.047 44.496 45.257 47.944v80.496h-243.6v-128.44h84.73c4.143 0 7.5-3.358 7.5-7.5s-3.357-7.499-7.5-7.499zm128.41 10.528c0-20.93 17.028-37.958 37.958-37.958s37.957 17.028 37.957 37.958c0 20.91-16.995 37.923-37.898 37.956-.019 0-.038-.003-.057-.003-.02 0-.039.003-.059.003-20.903-.032-37.901-17.046-37.901-37.956z"/><path d="m241.072 330.872c-1.428-3.471-4.773-5.713-8.526-5.713-.003 0-.005 0-.008 0-3.756.003-7.103 2.25-8.525 5.727-.023.057-.047.115-.068.172l-28.492 74.81c-1.475 3.871.469 8.204 4.34 9.678.878.335 1.78.493 2.668.493 3.021 0 5.87-1.84 7.01-4.833l5.256-13.801h35.426l5.2 13.78c1.462 3.875 5.791 5.833 9.665 4.369 3.875-1.463 5.831-5.79 4.368-9.665l-28.233-74.813c-.026-.069-.053-.137-.081-.204zm-20.633 51.533 12.081-31.72 11.971 31.72z"/><path d="m382.123 400.921c-4.285 0-8.394-1.71-10.99-4.576-2.781-3.069-7.524-3.302-10.594-.521-3.069 2.781-3.303 7.524-.521 10.594 5.473 6.04 13.529 9.503 22.105 9.503 10.767 0 19.818-6.928 21.522-16.474 1.294-7.245-1.916-16.679-14.803-21.433-5.556-2.049-10.747-4.275-12.62-5.092-.488-.48-.53-1.082-.466-1.534.164-1.144 1.141-2.065 2.68-2.529 5.85-1.761 11.434 2.581 11.632 2.738 3.171 2.619 7.866 2.196 10.517-.958 2.665-3.171 2.255-7.902-.915-10.567-4.319-3.629-14.562-8.889-25.56-5.576-7.146 2.152-12.203 7.809-13.201 14.76-.942 6.561 1.903 12.873 7.426 16.474.332.216.68.405 1.041.566.276.124 6.862 3.055 14.275 5.79 2.754 1.016 5.573 2.79 5.229 4.723-.297 1.659-2.649 4.112-6.757 4.112z"/><path d="m327.751 410.983c1.048 2.879 3.8 4.938 7.042 4.938 4.143 0 7.5-3.358 7.5-7.5v-71.33c0-4.142-3.357-7.5-7.5-7.5s-7.5 3.358-7.5 7.5v20.638c-4.781-2.943-10.404-4.644-16.418-4.644-17.324 0-31.418 14.094-31.418 31.417s14.094 31.418 31.418 31.418c6.209.001 11.998-1.817 16.876-4.937zm-33.294-26.48c0-9.053 7.365-16.417 16.418-16.417s16.418 7.365 16.418 16.417-7.365 16.418-16.418 16.418-16.418-7.365-16.418-16.418z"/><path d="m428.737 311.056 3.982 3.982c1.465 1.465 3.384 2.197 5.304 2.197 1.919 0 3.839-.732 5.303-2.197 2.93-2.929 2.93-7.677.001-10.606l-3.983-3.983 3.983-3.983c2.929-2.929 2.929-7.678-.001-10.607-2.928-2.929-7.677-2.928-10.606 0l-3.982 3.982-3.982-3.982c-2.93-2.929-7.678-2.929-10.607 0s-2.929 7.678 0 10.606l3.983 3.983-3.982 3.982c-2.93 2.929-2.93 7.677-.001 10.606 1.465 1.465 3.384 2.197 5.304 2.197 1.919 0 3.839-.732 5.303-2.197z"/><path d="m406.515 146.476h-301.03c-4.143 0-7.5 3.358-7.5 7.5v32.325c0 4.142 3.357 7.5 7.5 7.5h301.029c4.143 0 7.5-3.358 7.5-7.5v-32.325c.001-4.142-3.357-7.5-7.499-7.5zm-7.5 32.325h-286.03v-17.325h286.029v17.325z"/><path d="m32.325 265.094c0 4.142 3.357 7.5 7.5 7.5h262.643c4.143 0 7.5-3.358 7.5-7.5s-3.357-7.5-7.5-7.5h-262.643c-4.142 0-7.5 3.358-7.5 7.5z"/><path d="m110.536 225.269c-4.143 0-7.5 3.358-7.5 7.5s3.357 7.5 7.5 7.5h191.932c4.143 0 7.5-3.358 7.5-7.5s-3.357-7.5-7.5-7.5z"/><path d="m39.825 304.919h97.985c4.143 0 7.5-3.358 7.5-7.5s-3.357-7.5-7.5-7.5h-97.985c-4.143 0-7.5 3.358-7.5 7.5s3.358 7.5 7.5 7.5z"/><path d="m39.825 337.244h97.985c4.143 0 7.5-3.358 7.5-7.5s-3.357-7.5-7.5-7.5h-97.985c-4.143 0-7.5 3.358-7.5 7.5s3.358 7.5 7.5 7.5z"/><path d="m39.825 369.569h47.478c4.143 0 7.5-3.358 7.5-7.5s-3.357-7.5-7.5-7.5h-47.478c-4.143 0-7.5 3.358-7.5 7.5s3.358 7.5 7.5 7.5z"/></g></g></svg>