<svg id="Layer_3" enable-background="new 0 0 64 64" height="512" viewBox="0 0 64 64" width="512" xmlns="http://www.w3.org/2000/svg"><g><path d="m58.467 25.847c.165.103.349.153.532.153.306 0 .605-.14.801-.4l3-4c.168-.223.234-.506.184-.78s-.213-.515-.448-.664l-30-19c-.326-.207-.744-.207-1.07 0l-30 19c-.235.149-.398.39-.448.664-.052.274.014.557.182.78l3 4c.312.417.892.525 1.333.247l1.467-.924v32.077h-3c-.553 0-1 .447-1 1v4c0 .553.447 1 1 1h56c.553 0 1-.447 1-1v-4c0-.553-.447-1-1-1h-3v-32.077zm-53.22-2.184-1.798-2.397 28.551-18.082 28.551 18.082-1.798 2.397-26.22-16.51c-.163-.102-.348-.153-.533-.153s-.37.051-.533.153zm53.753 37.337h-54v-2h54zm-18-4h-2v-5c0-.553-.447-1-1-1h-2v-5c0-.553-.447-1-1-1h-6c-.553 0-1 .447-1 1v5h-2c-.553 0-1 .447-1 1v5h-2v-18h18zm-7-6h-2-2v-4h4zm-3 2v4h-4v-4zm2 0h4v4h-4zm22 4h-12v-19c0-.553-.447-1-1-1h-20c-.553 0-1 .447-1 1v19h-12v-33.336l23-14.482 23 14.482z"/><path d="m22 25c0 5.514 4.486 10 10 10s10-4.486 10-10-4.486-10-10-10-10 4.486-10 10zm18 0c0 4.411-3.589 8-8 8s-8-3.589-8-8 3.589-8 8-8 8 3.589 8 8z"/><path d="m29 20v2.771c-.655 1.392-1 2.93-1 4.466v2.763c0 .553.447 1 1 1h6c.553 0 1-.447 1-1v-2.764c0-1.536-.345-3.074-1-4.466v-2.77c0-.553-.447-1-1-1h-4c-.553 0-1 .447-1 1zm2 3v-2h2v2c0 .155.036.309.105.447.585 1.171.895 2.482.895 3.789v1.764h-4v-1.764c0-1.308.31-2.618.895-3.789.069-.138.105-.292.105-.447z"/><path d="m18 37h-6c-.553 0-1 .447-1 1v12c0 .553.447 1 1 1h6c.553 0 1-.447 1-1v-12c0-.553-.447-1-1-1zm-1 2v4h-4v-4zm-4 10v-4h4v4z"/><path d="m46 51h6c.553 0 1-.447 1-1v-12c0-.553-.447-1-1-1h-6c-.553 0-1 .447-1 1v12c0 .553.447 1 1 1zm1-2v-4h4v4zm4-10v4h-4v-4z"/></g></svg>