<svg id="Layer_5" enable-background="new 0 0 64 64" height="512" viewBox="0 0 64 64" width="512" xmlns="http://www.w3.org/2000/svg"><g><path d="m35 63h2v-26h26v-2h-28z"/><path d="m1 37h26v26h2v-28h-28z"/><path d="m27 27h-2v-12h-4.695l.8-8h-3.105c0-3.309-2.691-6-6-6s-6 2.691-6 6h-3.105l2 20h-3.895v2h28v-28h-2zm-4 0h-8v-10h8zm-11-24c2.206 0 4 1.794 4 4s-1.794 4-4 4-4-1.794-4-4 1.794-4 4-4zm-6.895 6h1.245c.826 2.327 3.043 4 5.65 4s4.824-1.673 5.65-4h1.245l-.6 6h-5.295v12h-6.095z"/><path d="m61 27v-12h-8v-12h-14v24h-2v-26h-2v28h28v-2zm-2 0h-10v-10h10zm-18-22h10v10h-4v12h-6z"/><path d="m12.657 39-9.657 7.511v2.489h2v10h18v-10h2v-2.489l-9.657-7.511zm4.343 18h-6v-4h6zm4 0h-2v-6h-10v6h-2v-8h14zm-15.371-10 7.714-6h1.313l7.714 6z"/><path d="m11 10h2v-2h2v-2h-2v-2h-2v2h-2v2h2z"/><path d="m17 19h4v2h-4z"/><path d="m17 23h4v2h-4z"/><path d="m9 15h2v2h-2z"/><path d="m9 19h2v2h-2z"/><path d="m9 23h2v2h-2z"/><path d="m56 57h6.5l-5.192-12.462c-.39-.934-1.296-1.538-2.308-1.538s-1.918.604-2.308 1.538l-1.359 3.262-3.026-7.262c-.389-.934-1.295-1.538-2.307-1.538s-1.918.604-2.308 1.538l-5.192 12.462h6.5v8h-6v2h24v-2h-7zm-1.462-11.692c.156-.373.768-.373.924 0l4.038 9.692h-9l.833-2h2.167l-1.083-2.599zm-9-4c.156-.373.768-.373.924 0l4.038 9.692h-9zm1.462 11.692h2.167l-1.667 4h6.5v4h-7z"/><path d="m51 19h2v2h-2z"/><path d="m51 23h2v2h-2z"/><path d="m55 19h2v2h-2z"/><path d="m55 23h2v2h-2z"/><path d="m47 7h2v2h-2z"/><path d="m43 7h2v2h-2z"/><path d="m43 11h2v2h-2z"/><path d="m47 11h2v2h-2z"/><path d="m43 23h2v2h-2z"/><path d="m43 19h2v2h-2z"/><path d="m43 15h2v2h-2z"/></g></svg>