<svg id="_x33_0" enable-background="new 0 0 64 64" height="512" viewBox="0 0 64 64" width="512" xmlns="http://www.w3.org/2000/svg"><g><path d="m33 47.184v-2.184h-2v2h-2v3c0 1.654 1.346 3 3 3 .551 0 1 .448 1 1v1h-1c-.551 0-1-.448-1-1v-1h-2v1c0 1.302.839 2.402 2 2.816v2.184h2v-2h2v-3c0-1.654-1.346-3-3-3-.551 0-1-.448-1-1v-1h1c.551 0 1 .448 1 1v1h2v-1c0-1.302-.839-2.402-2-2.816z"/><path d="m35.124 5.193c-.69-.086-1.392-.144-2.083-.172l-.082 1.999c.636.026 1.281.079 1.917.158z"/><path d="m31.041 7.02-.081-1.998c-.691.028-1.393.086-2.083.172l.247 1.984c.635-.079 1.28-.132 1.917-.158z"/><path d="m42.849 50.26c-.219-1.368-.687-2.65-1.362-3.801 5.893-3.392 9.513-9.598 9.513-16.459 0-10.477-8.523-19-19-19-3.969 0-7.799 1.246-11 3.523v-4.71c1.952-1.066 4.034-1.853 6.207-2.313l-.414-1.957c-2.011.426-3.951 1.106-5.793 2.011v-4.554c0-1.103-.897-2-2-2h-14c-1.103 0-2 .897-2 2v14c0 1.103.897 2 2 2h4v16c0 .552-.449 1-1 1s-1-.448-1-1v-6c0-2.206-1.794-4-4-4-1.103 0-2 .897-2 2v9.597c0 4.237 1.418 8.396 4 11.749v14.654h20v-2.51c1.947 1.615 4.394 2.51 7 2.51 5.916 0 10.743-4.698 10.978-10.557 5.552-2.718 9.88-7.325 12.205-13.068l-1.854-.75c-2.033 5.021-5.734 9.094-10.48 11.635zm-2.533-5.439c-.748-.865-1.629-1.609-2.61-2.208.668-1.165 1.241-2.368 1.706-3.613h7.026c-1.486 2.384-3.574 4.392-6.122 5.821zm-17.432-17.601c-.345-1.275-1.501-2.22-2.884-2.22-.395 0-.77.081-1.116.22-.305-1.123-1.237-1.981-2.402-2.172.007-.016.014-.033.021-.049h7.445c-.353 1.273-.621 2.65-.779 4.132-.096.029-.193.052-.285.089zm-1.89-10.158c2.372-2.018 5.228-3.333 8.271-3.828-1.461 1.615-3.352 4.195-4.677 7.767h-6.991c.438-.7.926-1.37 1.469-2.007 1.05-.035 1.895-.881 1.928-1.932zm27.955 11.938h-7.99c-.08-2.207-.408-4.207-.905-6h7.42c.84 1.849 1.351 3.871 1.475 6zm-21.949 6.676v-4.676h11.967c-.081 2.085-.412 4.089-.995 6h-10.998c.014-.441.026-.882.026-1.324zm13.967-4.676h7.998c-.122 2.11-.624 4.137-1.462 6h-7.437c.533-1.92.827-3.925.901-6zm-2.008-2h-12.143c-.282-.792-.877-1.436-1.647-1.763.172-1.528.464-2.949.86-4.237h11.926c.545 1.771.914 3.774 1.004 6zm-12.202-8c1.685-4.074 4.124-6.651 5.242-7.68 1.115 1.025 3.562 3.588 5.251 7.68zm-11.757.554v-2.554h1.515c-.577.81-1.074 1.667-1.515 2.554zm11.859 17.446h10.396c-.385.936-.835 1.846-1.348 2.73-1.216-.464-2.529-.73-3.907-.73-2.007 0-3.922.544-5.6 1.542.204-1.173.361-2.354.459-3.542zm19.537-18h-6.986c-1.319-3.552-3.2-6.141-4.659-7.757 4.904.804 9.101 3.703 11.645 7.757zm-35.396-18h2v2h-2zm-6 14v-14h4v4h6v-4h4v14h-4v-1c0-1.654-1.346-3-3-3s-3 1.346-3 3v1zm-2 19.597v-9.597c1.103 0 2 .897 2 2v6c0 1.654 1.346 3 3 3s3-1.346 3-3v-19c0-.552.449-1 1-1s1 .448 1 1v20h2v-10c0-.552.449-1 1-1s1 .448 1 1v10h2v-8c0-.552.449-1 1-1s1 .448 1 1v8h2v-6c0-.552.449-1 1-1s1 .448 1 1v5.676c0 3.85-.589 7.655-1.736 11.324h-16.758c-2.257-2.984-3.506-6.655-3.506-10.403zm4 24.403v-12h16v12zm25 0c-2.752 0-5.281-1.228-7-3.362v-9.477c.286-.871.536-1.751.762-2.636 1.685-1.625 3.887-2.525 6.238-2.525 4.962 0 9 4.037 9 9s-4.038 9-9 9z"/><path d="m54.006 36.708 1.913.584c.208-.685.389-1.386.538-2.085l-1.957-.414c-.136.642-.302 1.286-.494 1.915z"/><path d="m54.822 32.877 1.984.246c.086-.69.144-1.392.172-2.082l-1.998-.082c-.025.637-.079 1.281-.158 1.918z"/><path d="m59 9c0-2.206-1.794-4-4-4s-4 1.794-4 4 1.794 4 4 4 4-1.794 4-4zm-6 0c0-1.103.897-2 2-2s2 .897 2 2-.897 2-2 2-2-.897-2-2z"/><path d="m63 9c0-4.411-3.589-8-8-8s-8 3.589-8 8c0 .339.032.699.084 1.071-2.917-2.213-6.276-3.765-9.876-4.528l-.416 1.957c4.254.902 8.147 2.994 11.274 6.048 1.39 3.516 3.845 7.198 5.595 8.719.776 2.173 1.224 4.451 1.319 6.774l1.998-.082c-.088-2.159-.468-4.278-1.099-6.326 2.497-1.721 7.121-9.225 7.121-13.633zm-14 0c0-3.309 2.691-6 6-6s6 2.691 6 6c0 4.022-4.501 10.494-6 11.845-1.499-1.351-6-7.823-6-11.845z"/></g></svg>