<svg id="Capa_1" enable-background="new 0 0 512 512" height="512" viewBox="0 0 512 512" width="512" xmlns="http://www.w3.org/2000/svg"><g><g><circle cx="408.5" cy="374.422" r="7.5"/><circle cx="435" cy="374.422" r="7.5"/><circle cx="461.5" cy="374.422" r="7.5"/><path d="m485.875 59.36h-107.358c-28.653-36.137-72.922-59.36-122.517-59.36s-93.864 23.223-122.518 59.36h-107.357c-12.407 0-22.5 10.093-22.5 22.5v302.187c0 15.164 12.336 27.5 27.5 27.5h159.964v43.949h-112.867c-6.893 0-12.5 5.607-12.5 12.5v31.504c0 6.893 5.607 12.5 12.5 12.5h355.555c6.893 0 12.5-5.607 12.5-12.5v-31.504c0-6.893-5.607-12.5-12.5-12.5h-38.777c-4.143 0-7.5 3.358-7.5 7.5s3.357 7.5 7.5 7.5h36.277v26.504h-350.555v-26.504h279.278c4.143 0 7.5-3.358 7.5-7.5s-3.357-7.5-7.5-7.5h-39.089v-43.949h159.964c15.164 0 27.5-12.336 27.5-27.5v-302.187c0-12.406-10.094-22.5-22.5-22.5zm-103.323 34.14c8.379 16.817 13.51 35.524 14.549 55.299h-59.877c-.463-19.322-2.728-37.999-6.601-55.299zm-71.565 140.599c-10.685 33.712-27.947 57.61-47.487 62.546v-62.546zm-47.487-15v-55.299h58.715c-.51 19.659-3.013 38.397-7.07 55.299zm51.413 45.751c4.64-9.353 8.6-19.688 11.852-30.751h47.126c-17.888 27.017-44.801 47.558-76.411 57.284 6.365-7.157 12.228-16.04 17.433-26.533zm15.71-45.751c3.873-17.3 6.138-35.977 6.601-55.299h59.876c-1.039 19.775-6.17 38.482-14.549 55.299zm43.268-140.599h-47.126c-3.252-11.063-7.213-21.398-11.852-30.751-5.205-10.493-11.068-19.376-17.432-26.533 31.61 9.727 58.522 30.268 76.41 57.284zm-110.391-62.545c19.541 4.936 36.802 28.834 47.487 62.545h-47.487zm-7.5 93.545c4.143 0 7.5-3.358 7.5-7.5v-8.5h51.645c4.058 16.902 6.56 35.64 7.07 55.299h-58.715v-10.799c0-4.142-3.357-7.5-7.5-7.5-4.142 0-7.5 3.358-7.5 7.5v10.8h-58.715c.51-19.659 3.013-38.398 7.07-55.299h51.645v8.5c0 4.141 3.358 7.499 7.5 7.499zm-70.765 124.599c3.252 11.063 7.212 21.399 11.852 30.751 5.205 10.493 11.068 19.376 17.432 26.533-31.61-9.726-58.522-30.268-76.411-57.284zm-55.787-15c-8.379-16.817-13.509-35.523-14.549-55.299h59.878c.463 19.321 2.728 37.999 6.601 55.299zm71.565 15h47.487v62.546c-19.541-4.937-36.802-28.834-47.487-62.546zm-4.158-15c-4.058-16.902-6.56-35.64-7.07-55.299h58.715v55.299zm51.645-203.144v62.545h-47.487c10.685-33.711 27.947-57.609 47.487-62.545zm-33.981 5.262c-6.365 7.156-12.227 16.04-17.432 26.533-4.639 9.353-8.6 19.688-11.852 30.751h-47.127c17.889-27.017 44.801-47.558 76.411-57.284zm-33.141 72.283c-3.873 17.3-6.138 35.978-6.601 55.299h-59.877c1.039-19.776 6.17-38.482 14.549-55.299zm124.533 361.996h-99.822v-43.949h99.822zm187.464-115.735h-340.376c-4.142 0-7.5 3.358-7.5 7.5s3.358 7.5 7.5 7.5h340.376v29.286c0 6.893-5.607 12.5-12.5 12.5h-449.75c-6.893 0-12.5-5.607-12.5-12.5v-29.286h99.375c4.142 0 7.5-3.358 7.5-7.5s-3.358-7.5-7.5-7.5h-99.375v-257.901c0-4.136 3.364-7.5 7.5-7.5h96.831c-14.737 23.841-23.256 51.912-23.256 81.94 0 86.184 70.116 156.3 156.3 156.3s156.3-70.116 156.3-156.3c0-30.027-8.519-58.099-23.256-81.939h96.831c4.136 0 7.5 3.364 7.5 7.5z"/><path d="m98.125 299h-48c-4.142 0-7.5 3.358-7.5 7.5s3.358 7.5 7.5 7.5h48c4.142 0 7.5-3.358 7.5-7.5s-3.358-7.5-7.5-7.5z"/><path d="m50.125 288h18c4.142 0 7.5-3.358 7.5-7.5s-3.358-7.5-7.5-7.5h-18c-4.142 0-7.5 3.358-7.5 7.5s3.358 7.5 7.5 7.5z"/><path d="m462.125 299h-20c-4.143 0-7.5 3.358-7.5 7.5s3.357 7.5 7.5 7.5h20c4.143 0 7.5-3.358 7.5-7.5s-3.357-7.5-7.5-7.5z"/><path d="m462.125 273h-20c-4.143 0-7.5 3.358-7.5 7.5s3.357 7.5 7.5 7.5h20c4.143 0 7.5-3.358 7.5-7.5s-3.357-7.5-7.5-7.5z"/><path d="m462.125 247h-20c-4.143 0-7.5 3.358-7.5 7.5s3.357 7.5 7.5 7.5h20c4.143 0 7.5-3.358 7.5-7.5s-3.357-7.5-7.5-7.5z"/></g></g></svg>