<svg id="Layer_5" enable-background="new 0 0 64 64" height="512" viewBox="0 0 64 64" width="512" xmlns="http://www.w3.org/2000/svg"><path d="m63 20c0-3.309-2.691-6-6-6h-.414l-4.586 4.586-1-1-6 6v-9.586c0-2.415-1.721-4.435-4-4.899v-8.101h-35c-2.757 0-5 2.243-5 5v52c0 2.757 2.243 5 5 5h39v-22.586l11.414-11.414h.465c.618 0 1.121.503 1.121 1.121 0 .3-.117.581-.328.793l-10.379 10.379 1.414 1.414 10.379-10.379c.589-.589.914-1.373.914-2.207 0-1.271-.766-2.362-1.858-2.849l1.272-1.272-1-1 4.586-4.586zm-6.414 6-11.586 11.586-5.586-5.586 11.586-11.586zm-27.586 27.586-5.586-5.586 14.586-14.586 5.586 5.586zm-6.419-3.591 4.424 4.424-5.688 1.264zm-3.995-38.995 19.5 19.5-3.086 3.086-22.586-22.586zm-7.586 1.414 22.586 22.586-3.086 3.086-19.5-19.5zm32 1.586v11.586l-3.5 3.5-18.086-18.086h18.586c1.654 0 3 1.346 3 3zm-37-11h33v6h-33c-1.654 0-3-1.346-3-3s1.346-3 3-3zm-3 55v-48.026c.838.635 1.87 1.026 3 1.026h3v50h-3c-1.654 0-3-1.346-3-3zm8 3v-39.586l18.086 18.086-7.999 7.999-2.404 10.818 10.818-2.404 7.999-7.999 5.5 5.5v7.586zm32-10.414-4.086-4.086 4.086-4.086zm14-27-3.586-3.586 3.981-3.981c1.891.186 3.399 1.695 3.585 3.585z"/><path d="m50.293 24.707h2v2h-2z" transform="matrix(.707 -.707 .707 .707 -3.154 43.799)"/><path d="m44.722 30.328h1.9v2h-1.9z" transform="matrix(.707 -.707 .707 .707 -8.776 41.471)"/><path d="m47.464 27.536h2v2h-2z" transform="matrix(.707 -.707 .707 .707 -5.983 42.627)"/><path d="m5 13h2v2h-2z"/><path d="m5 17h2v2h-2z"/><path d="m5 21h2v2h-2z"/><path d="m35 5h2v2h-2z"/><path d="m31 5h2v2h-2z"/><path d="m27 5h2v2h-2z"/><path d="m5 5h20v2h-20z"/><path d="m39 57h2v2h-2z"/><path d="m35 57h2v2h-2z"/><path d="m31 57h2v2h-2z"/><path d="m39 13h2v2h-2z"/><path d="m39 17h2v2h-2z"/><path d="m39 21h2v2h-2z"/></svg>