<svg id="Layer_5" enable-background="new 0 0 64 64" height="512" viewBox="0 0 64 64" width="512" xmlns="http://www.w3.org/2000/svg"><g><path d="m33 9c1.103 0 2 .897 2 2h2c0-2.206-1.794-4-4-4s-4 1.794-4 4v2c0 2.206 1.794 4 4 4s4-1.794 4-4h-2c0 1.103-.897 2-2 2s-2-.897-2-2v-2c0-1.103.897-2 2-2z"/><path d="m44 7h-5v10h2v-4h3c.551 0 1 .449 1 1v3h2v-3c0-.771-.301-1.468-.78-2 .48-.532.78-1.229.78-2 0-1.654-1.346-3-3-3zm-3 4v-2h3c.551 0 1 .449 1 1s-.449 1-1 1z"/><path d="m54.279 13h-.558l-2-6h-2.721v10h2v-5.838l1.279 3.838h3.442l1.279-3.838v5.838h2v-10h-2.721z"/><path d="m5 21h2v2h-2z"/><path d="m9 21h2v2h-2z"/><path d="m13 21h2v2h-2z"/><path d="m52 31h-16c-1.654 0-3 1.346-3 3v2c0 1.654 1.346 3 3 3v2c-1.654 0-3 1.346-3 3v2c0 1.654 1.346 3 3 3v2c-1.654 0-3 1.346-3 3v2c0 1.654 1.346 3 3 3h16c1.654 0 3-1.346 3-3v-2c0-1.654-1.346-3-3-3v-2c1.654 0 3-1.346 3-3v-2c0-1.654-1.346-3-3-3v-2c1.654 0 3-1.346 3-3v-2c0-1.654-1.346-3-3-3zm1 23v2c0 .552-.449 1-1 1h-16c-.551 0-1-.448-1-1v-2c0-.552.449-1 1-1h16c.551 0 1 .448 1 1zm-3-3h-12v-2h12zm3-7v2c0 .552-.449 1-1 1h-16c-.551 0-1-.448-1-1v-2c0-.552.449-1 1-1h16c.551 0 1 .448 1 1zm-3-3h-12v-2h12zm3-5c0 .552-.449 1-1 1h-16c-.551 0-1-.448-1-1v-2c0-.552.449-1 1-1h16c.551 0 1 .448 1 1z"/><path d="m58 1h-28c-2.757 0-5 2.243-5 5v11h-21c-1.654 0-3 1.346-3 3v40c0 1.654 1.346 3 3 3h52c1.654 0 3-1.346 3-3v-37.101c2.279-.465 4-2.484 4-4.899v-12c0-2.757-2.243-5-5-5zm-54 18h21.101c.465 2.279 2.484 4 4.899 4h3.532l1.667 2h-32.199v-5c0-.551.449-1 1-1zm52 42h-52c-.551 0-1-.448-1-1v-33h33.865l.754.905c.58.696 1.432 1.095 2.338 1.095 1.31 0 2.419-.837 2.847-2h14.196v33c0 .552-.449 1-1 1zm-13-36v-2h14v2zm18-7c0 1.654-1.346 3-3 3h-17v4.957c0 .575-.468 1.043-1.043 1.043-.311 0-.603-.137-.802-.375l-4.687-5.625h-4.468c-1.654 0-3-1.346-3-3v-12c0-1.654 1.346-3 3-3h28c1.654 0 3 1.346 3 3z"/><path d="m18 51c6.065 0 11-4.935 11-11s-4.935-11-11-11-11 4.935-11 11 4.935 11 11 11zm0-2c-2.122 0-4.071-.742-5.611-1.975l6.025-6.025h8.527c-.499 4.493-4.317 8-8.941 8zm7.025-14.611c1.036 1.295 1.723 2.878 1.916 4.611h-6.527zm-1.414-1.414-5.611 5.611-5.611-5.611c1.54-1.233 3.489-1.975 5.611-1.975s4.071.742 5.611 1.975zm-12.636 1.414 5.611 5.611-5.611 5.611c-1.233-1.54-1.975-3.489-1.975-5.611s.742-4.071 1.975-5.611z"/><path d="m5 53h2v2h-2z"/><path d="m9 53h22v2h-22z"/><path d="m5 57h6v2h-6z"/><path d="m13 57h18v2h-18z"/></g></svg>