<?xml version="1.0" encoding="UTF-8"?>
<svg xmlns="http://www.w3.org/2000/svg" id="Icons" viewBox="0 0 74 74" width="512" height="512"><path d="M66.5,68.5H7.5a1,1,0,0,1-1-1V32.83a1,1,0,0,1,2,0V66.5h57V32.83a1,1,0,0,1,2,0V67.5A1,1,0,0,1,66.5,68.5Z"/><path d="M71,24.5H3a1,1,0,0,1-.9-1.426l8-17A1,1,0,0,1,11,5.5H63a1,1,0,0,1,.905.574l8,17A1,1,0,0,1,71,24.5Zm-66.424-2H69.424l-7.059-15H11.635Z"/><path d="M65.333,33.954a6.674,6.674,0,0,1-6.666-6.667V23.5a1,1,0,0,1,1-1H71a1,1,0,0,1,1,1v3.787A6.675,6.675,0,0,1,65.333,33.954ZM60.667,24.5v2.787a4.667,4.667,0,1,0,9.333,0V24.5Z"/><path d="M54,33.954a6.675,6.675,0,0,1-6.667-6.667V23.5a1,1,0,0,1,1-1H59.667a1,1,0,0,1,1,1v3.787A6.675,6.675,0,0,1,54,33.954ZM49.333,24.5v2.787a4.667,4.667,0,1,0,9.334,0V24.5Z"/><path d="M42.667,33.954A6.675,6.675,0,0,1,36,27.287V23.5a1,1,0,0,1,1-1H48.333a1,1,0,0,1,1,1v3.787A6.674,6.674,0,0,1,42.667,33.954ZM38,24.5v2.787a4.667,4.667,0,1,0,9.333,0V24.5Z"/><path d="M31.333,33.954a6.674,6.674,0,0,1-6.666-6.667V23.5a1,1,0,0,1,1-1H37a1,1,0,0,1,1,1v3.787A6.675,6.675,0,0,1,31.333,33.954ZM26.667,24.5v2.787a4.667,4.667,0,1,0,9.333,0V24.5Z"/><path d="M20,33.954a6.675,6.675,0,0,1-6.667-6.667V23.5a1,1,0,0,1,1-1H25.667a1,1,0,0,1,1,1v3.787A6.675,6.675,0,0,1,20,33.954ZM15.333,24.5v2.787a4.667,4.667,0,0,0,9.334,0V24.5Z"/><path d="M8.667,33.954A6.675,6.675,0,0,1,2,27.287V23.5a1,1,0,0,1,1-1H14.333a1,1,0,0,1,1,1v3.787A6.674,6.674,0,0,1,8.667,33.954ZM4,24.5v2.787a4.667,4.667,0,1,0,9.333,0V24.5Z"/><path d="M29,68.5H15.667a1,1,0,0,1-1-1v-18a1,1,0,0,1,1-1H29a1,1,0,0,1,1,1v18A1,1,0,0,1,29,68.5Zm-12.333-2H28v-16H16.667Z"/><path d="M57.458,56.469H37.792a1,1,0,0,1-1-1V42.7a1.548,1.548,0,0,1,1.546-1.547H56.912A1.548,1.548,0,0,1,58.458,42.7V55.469A1,1,0,0,1,57.458,56.469Zm-18.666-2H56.458V43.156H38.792Zm18.12-11.313h0Z"/><path d="M59.458,56.469H35.792a1,1,0,0,1,0-2H59.458a1,1,0,0,1,0,2Z"/><path d="M59.669,24.5a1,1,0,0,1-.974-.779l-3.86-17a1,1,0,0,1,1.95-.442l3.86,17a1,1,0,0,1-.976,1.221Z"/><path d="M48.119,24.5a1,1,0,0,1-.983-.825l-3.031-17a1,1,0,0,1,1.969-.35l3.03,17a1,1,0,0,1-.809,1.159A.96.96,0,0,1,48.119,24.5Z"/><path d="M14.331,24.5a1,1,0,0,1-.976-1.221l3.86-17a1,1,0,1,1,1.95.442l-3.86,17A1,1,0,0,1,14.331,24.5Z"/><path d="M25.881,24.5a.96.96,0,0,1-.176-.016,1,1,0,0,1-.809-1.159l3.03-17a1,1,0,0,1,1.969.35l-3.031,17A1,1,0,0,1,25.881,24.5Z"/><path d="M37,24.5a1,1,0,0,1-1-1V6.5a1,1,0,0,1,2,0v17A1,1,0,0,1,37,24.5Z"/></svg>
