<svg height="512" viewBox="0 0 60 60" width="512" xmlns="http://www.w3.org/2000/svg"><g id="Page-1" fill="none" fill-rule="evenodd"><g id="005---Financial-Advisor" fill="rgb(0,0,0)"><path id="Shape" d="m49 0c-4.3900123.00106705-8.359059 2.61229226-10.0977817 6.64330355-1.7387227 4.03101125-.914166 8.70989315 2.0977817 11.90369645v4.053c-.0035208.9085463.5079855 1.7406532 1.3202381 2.1477336s1.7850093.3188484 2.5107619-.2277336l3.391-2.548c.257.018.517.028.778.028 3.9299216.0000001 7.5613189-2.096588 9.5262797-5.4999999s1.9649608-7.5965883 0-11.00000018c-1.9649608-3.40341189-5.5963581-5.50000002-9.5262797-5.49999992zm0 20c-.3197673.0002105-.6392862-.0178188-.957-.054-.2549135-.0282373-.5108469.0434528-.714.2l-3.7 2.779c-.1173759.0921977-.2780143.1066944-.41.037-.1390723-.0657385-.22532-.2083032-.219-.362v-4.46c-.0003068-.2682872-.1084043-.525199-.3-.713-3.0721919-3.0116235-3.5834041-7.77637134-1.2200197-11.37118057 2.3633844-3.59480924 6.9404051-5.01433078 10.9231654-3.3877209s6.2574141 5.84444228 5.4285137 10.06595427c-.8289005 4.221512-4.5295391 7.2660865-8.8316594 7.2659472z" fill-rule="nonzero"/><path id="Path" d="m49 10c-.4851707-.00047298-.9000069-.34913653-.9839455-.82699124-.0839386-.47785472.1872399-.94702164.6432053-1.11281187.4559653-.16579023.9651545.01963291 1.2077402.43980311.1727115.32093937.5063525.5225002.8707953.5260692.3644429.003569.7019673-.19141908.880931-.50891448s.1710225-.70721323-.0207263-1.01715472c-.3620629-.60876706-.9282899-1.06940236-1.598-1.3v-.2c0-.55228475-.4477153-1-1-1s-1 .44771525-1 1v.184c-1.3765475.48485233-2.2026937 1.89184415-1.9553873 3.33017801.2473064 1.43833389 1.49595 2.48858739 2.9553873 2.48582199.4851707.000473.9000069.3491365.9839455.8269912.0839386.4778548-.1872399.9470217-.6432053 1.1128119-.4559653.1657902-.9651545-.0196329-1.2077402-.4398031-.2843876-.4596821-.882589-.61017-1.3506397-.3397768s-.6365131.8637835-.3803603 1.3397768c.3625581.6091337.9295478 1.0698128 1.6 1.3v.2c0 .5522847.4477153 1 1 1s1-.4477153 1-1v-.184c1.3769108-.4849733 2.2030823-1.8925391 1.9552305-3.3311676-.2478517-1.4386286-1.4974125-2.48858024-2.9572305-2.4848324z"/><path id="Shape" d="m1 60h42c.5522847 0 1-.4477153 1-1 0-1.878-.164-11.372-3.4-13.8-2.722-2.042-9.032-3.622-10.877-4.053-.6892091-1.261865-1.0188498-2.6886935-.953-4.125l3.522-3.081c1.0847747-.9489114 1.7073251-2.3197615 1.708-3.761v-1.28c2.1696276-.4381459 3.7910121-2.2536853 3.982022-4.4588544.1910098-2.2051692-1.0940472-4.272462-3.156022-5.0771456.8941187-1.9854178 1.296811-4.1570061 1.174-6.331 0-5.061-4.913-7.561-7.323-8.482.1424111-.10526755.2956044-.19510519.457-.268.54159-.24620384.8864906-.78921589.8791251-1.3840955-.0073656-.59487962-.3656053-1.12918563-.9131251-1.3619045-10.565-4.518-15.806 2.263-16.8 3.748-1.9897445.96882981-3.48232637 2.72728351-4.115 4.848-1 3.43.386 7.2 1.289 9.119-2.16966268.6870581-3.59936096 2.7553444-3.47546782 5.0278178s1.76997129 4.1730712 4.00146782 4.6201822v1.28c.0003867 1.4415875.6229629 2.8128588 1.708 3.762l3.522 3.082c.0663138 1.4363486-.2633554 2.8633007-.953 4.125-1.845.431-8.155 2.011-10.877 4.051-3.236 2.428-3.4 11.922-3.4 13.8 0 .5522847.44771525 1 1 1zm24.883-2-.845-6.754.732-1.1c.790592.6330656 1.9308277.5701739 2.647-.146l3.3-3.3 2.116 2.452-3.671 8.848zm-1.569-9.272-.849 1.272h-2.93l-.849-1.273 2.314-2.313zm-3.431 3.272h2.234l.75 6h-3.734zm8.2-8.369 1.332 1.543-3.415 3.409-2.745-2.745c1.8132231-.1599257 3.5162088-.9388572 4.823-2.206zm-12.083 4.952-3.414-3.415 1.336-1.539c1.3074032 1.2689105 3.0120487 2.0486614 4.827 2.208zm-4.729-1.9 3.312 3.317c.7169013.7125609 1.8527735.7782158 2.647.153l.732 1.1-.845 6.747h-4.285l-3.732-8.814zm29.717 11.317h-3.988v-4c0-.5522847-.4477153-1-1-1s-1 .4477153-1 1v4h-3.672l3.341-8.055c.3033384-.6842712.2061447-1.4798762-.253-2.071l-3.571-4.113c2.507.7 5.9 1.8 7.555 3.041 1.577 1.182 2.475 6.46 2.588 11.198zm-31.879-47.314c.511222-1.67528186 1.7307684-3.04247493 3.337-3.741.1790467-.08973062.3273404-.23071404.426-.405 1.8186236-2.87409037 5.0022864-4.59417001 8.403-4.54 1.7550534.02684232 3.4909906.36894896 5.125 1.01-.3146115.2453115-.595086.53150318-.834.851-.2890294.38686805-.3741253.88922801-.2286292 1.3497014s.5037875.82273592.9626292.9732986c1.572.516 6.7 2.516 6.7 6.849.0397019 1.4698252-.1385666 2.9374232-.529 4.355-.4117602-.9600388-1.121363-1.7621985-2.024-2.288-.1759342-.0900322-.3749403-.1248845-.571-.1-5.351.669-6.855-.041-9.347-1.219-1.3649381-.6702841-2.7722787-1.2505239-4.213-1.737-1.471976-.6103627-3.1523863-.4381864-4.47.458-1.1983852.9897832-2.0274915 2.3551835-2.353 3.875-.68157082-1.8186747-.81507508-3.7972496-.384-5.691zm1.891 19.494v-2.18c0-.5522847-.4477153-1-1-1-1.46082505.0122515-2.71543728-1.0355973-2.96365029-2.4752327-.24821301-1.4396355.58306579-2.8471206 1.96365029-3.3247673v1.8c0 .5522847.4477153 1 1 1s1-.4477153 1-1v-3c0-1.231.37-4.685 2.018-5.871.8022685-.5032288 1.8033681-.5708199 2.666-.18 1.3644029.4625087 2.6975108 1.0126537 3.991 1.647 2.569 1.215 4.441 2.1 10.083 1.44.8576639.7372837 1.3178649 1.8355413 1.242 2.964v3c0 .5522847.4477153 1 1 1s1-.4477153 1-1v-1.8c1.3805845.4776467 2.2118633 1.8851318 1.9636503 3.3247673-.248213 1.4396354-1.5028252 2.4874842-2.9636503 2.4752327-.5522847 0-1 .4477153-1 1v2.18c-.0000518.8652633-.3736934 1.6883683-1.025 2.258l-5.5 4.814c-.5472765.4781313-1.2492806.7417381-1.976.742h-2.999c-.7264576-.0000497-1.4282196-.263699-1.975-.742l-5.5-4.815c-.6510441-.5694019-1.0246599-1.3920857-1.025-2.257zm5.211 8.577c.9105612.7966847 2.0791125 1.2361794 3.289 1.237h3c1.2112649.0001478 2.3814021-.4394087 3.293-1.237l.052-.046c.2098057 1.1226295.5623324 2.2138156 1.049 3.247-.437.631-1.861 2.032-5.891 2.032-4.047 0-5.466-1.412-5.892-2.028.4870697-1.0345094.8399282-2.1270265 1.05-3.251zm-12.611 8.043c1.656-1.242 5.05-2.345 7.558-3.042l-3.628 4.185c-.41625568.5720137-.49772064 1.3219482-.214 1.97l3.356 8.087h-3.672v-4c0-.5522847-.44771525-1-1-1s-1 .4477153-1 1v4h-3.988c.113-4.738 1.011-10.016 2.588-11.2z" fill-rule="nonzero"/><path id="Path" d="m24 31h-4c-.5522847 0-1 .4477153-1 1s.4477153 1 1 1h4c.5522847 0 1-.4477153 1-1s-.4477153-1-1-1z"/><path id="Path" d="m23 33.995h-2c-.5522847 0-1 .4477153-1 1s.4477153 1 1 1h2c.5522847 0 1-.4477153 1-1s-.4477153-1-1-1z"/><path id="Path" d="m19 23c0-.5522847-.4477153-1-1-1h-2c-.5522847 0-1 .4477153-1 1s.4477153 1 1 1c0 .5522847.4477153 1 1 1s1-.4477153 1-1c.5522847 0 1-.4477153 1-1z"/><path id="Path" d="m28 22h-2c-.5522847 0-1 .4477153-1 1s.4477153 1 1 1c0 .5522847.4477153 1 1 1s1-.4477153 1-1c.5522847 0 1-.4477153 1-1s-.4477153-1-1-1z"/><path id="Path" d="m21 29h2c.5522847 0 1-.4477153 1-1s-.4477153-1-1-1h-2c-.5522847 0-1 .4477153-1 1s.4477153 1 1 1z"/><path id="Path" d="m19 21c.5522847 0 1-.4477153 1-1s-.4477153-1-1-1h-4c-.5522847 0-1 .4477153-1 1s.4477153 1 1 1z"/><path id="Path" d="m25 21h4c.5522847 0 1-.4477153 1-1s-.4477153-1-1-1h-4c-.5522847 0-1 .4477153-1 1s.4477153 1 1 1z"/></g></g></svg>