<?xml version="1.0"?>
<svg xmlns="http://www.w3.org/2000/svg" viewBox="0 0 512 512" width="512" height="512"><g id="Store-2" data-name="Store"><path d="M496,96H16a8,8,0,0,0-8,8V408a8,8,0,0,0,8,8H496a8,8,0,0,0,8-8V104A8,8,0,0,0,496,96ZM24,112H488v32H24ZM488,400H24V160H488Z"/><circle cx="48" cy="128" r="8"/><circle cx="72" cy="128" r="8"/><circle cx="96" cy="128" r="8"/><path d="M384,384h48a8,8,0,0,0,0-16H384a8,8,0,0,0,0,16Z"/><path d="M456,384h8a8,8,0,0,0,0-16h-8a8,8,0,0,0,0,16Z"/><path d="M272,320h24a8,8,0,0,0,8-8V288a8,8,0,0,0-8-8H272a8,8,0,0,0-8,8v24A8,8,0,0,0,272,320Zm8-24h8v8h-8Z"/><path d="M151,352H328a8,8,0,0,0,0-16V272h8a8,8,0,0,0,8-8V240a8,8,0,0,0-8-8h-9.441l-6.714-33.569A8,8,0,0,0,312,192H200a8,8,0,0,0-7.845,6.431L185.441,232H176a8,8,0,0,0-8,8v24a8,8,0,0,0,8,8h8v64H151a8,8,0,0,0,0,16Zm73-16V296h16v40ZM206.559,208h98.882l4.8,24H201.759ZM184,248H328v8H184Zm16,24H312v64H256V288a8,8,0,0,0-8-8H216a8,8,0,0,0-8,8v48h-8Z"/><path d="M352,352h8a8,8,0,0,0,0-16h-8a8,8,0,0,0,0,16Z"/></g></svg>
