<svg id="Layer_5" enable-background="new 0 0 64 64" height="512" viewBox="0 0 64 64" width="512" xmlns="http://www.w3.org/2000/svg"><g><path d="m36 53h-8c-1.103 0-2 .897-2 2v2c0 1.103.897 2 2 2h8c1.103 0 2-.897 2-2v-2c0-1.103-.897-2-2-2zm-8 4v-2h8l.001 2z"/><path d="m27 5h2v2h-2z"/><path d="m31 5h6v2h-6z"/><path d="m60 16h-6v-10c0-2.757-2.243-5-5-5h-34c-2.757 0-5 2.243-5 5v15.586l-2.414 2.414h-3.586c-1.654 0-3 1.346-3 3v8c0 1.654 1.346 3 3 3h6v20c0 2.757 2.243 5 5 5h34c2.757 0 5-2.243 5-5v-25.586l2.414-2.414h3.586c1.654 0 3-1.346 3-3v-8c0-1.654-1.346-3-3-3zm-45-13h34c1.654 0 3 1.346 3 3v10h-2v-5c0-1.103-.897-2-2-2h-32c-1.103 0-2 .897-2 2v9.217c-.349-.135-.725-.217-1.121-.217-.304 0-.596.057-.879.14v-14.14c0-1.654 1.346-3 3-3zm32 27h1v.879 18.121h-2v-5.417c0-2.729-1.597-5.175-4-6.318v-14.265c0-5.514-4.486-10-10-10s-10 4.486-10 10v14.265c-2.403 1.144-4 3.589-4 6.318v5.417h-2v-11h1c1.654 0 3-1.346 3-3v-8c0-1.654-1.346-3-3-3h-1v-.879-12.121h32v5h-1c-1.654 0-3 1.346-3 3v8c0 1.654 1.346 3 3 3zm-12.235 11h-5.53l-1.081-3.46.636-.173c1.16-.317 2.004-1.298 2.174-2.463.337.059.682.096 1.036.096s.699-.037 1.036-.096c.17 1.165 1.014 2.146 2.174 2.463l.636.173zm-8.765-12c-1.103 0-2-.897-2-2s.897-2 2-2zm0 2h.35c.48 1.351 1.427 2.478 2.65 3.188v.284c0 .45-.303.847-.737.965l-4.263 1.163v-6.156c.591.344 1.268.556 2 .556zm6 2c-2.206 0-4-1.794-4-4v-4.085c1.142-.196 2.195-.728 3.044-1.546 1.364 1.058 3.031 1.631 4.785 1.631h.171v4c0 2.206-1.794 4-4 4zm3.737 2.438c-.434-.119-.737-.515-.737-.965v-.284c1.223-.71 2.17-1.838 2.65-3.188h.35c.732 0 1.409-.212 2-.556v6.155zm2.263-10.438c1.103 0 2 .897 2 2s-.897 2-2 2zm2-1.444c-.591-.344-1.268-.556-2-.556h-1-1.171c-1.557 0-3.021-.606-4.122-1.707l-.707-.707-1.293 1.293c-.723.723-1.685 1.121-2.707 1.121h-1c-.732 0-1.409.212-2 .556v-.556c0-4.411 3.589-8 8-8s8 3.589 8 8zm-16.315 15.203 2.539-.692 3.416 10.933h-9.64v-5.417c0-2.249 1.515-4.232 3.685-4.824zm8.05 10.241-1.875-6h4.28l-1.875 6zm6.042-10.933 2.539.692c2.169.592 3.684 2.575 3.684 4.824v5.417h-9.64zm-34.777-3.067v-8c0-.552.449-1 1-1h4.414l3.672-3.672c.212-.212.493-.328.793-.328.618 0 1.121.503 1.121 1.121v1.879 1h3c.551 0 1 .448 1 1v8c0 .552-.449 1-1 1h-13c-.551 0-1-.448-1-1zm46 26h-34c-1.654 0-3-1.346-3-3v-20h2v11c0 1.103.897 2 2 2h32c1.103 0 2-.897 2-2v-15.217c.349.135.725.217 1.121.217.304 0 .596-.057.879-.14v24.14c0 1.654-1.346 3-3 3zm12-34c0 .552-.449 1-1 1h-4.414l-3.672 3.672c-.212.212-.493.328-.793.328-.618 0-1.121-.503-1.121-1.121v-1.879-1h-3c-.551 0-1-.448-1-1v-8c0-.552.449-1 1-1h13c.551 0 1 .448 1 1z"/><path d="m48 20h11v2h-11z"/><path d="m57 24h2v2h-2z"/><path d="m48 24h7v2h-7z"/><path d="m5 32h7v2h-7z"/><path d="m14 32h2v2h-2z"/><path d="m5 28h11v2h-11z"/></g></svg>