<svg id="Layer_5" enable-background="new 0 0 64 64" height="512" viewBox="0 0 64 64" width="512" xmlns="http://www.w3.org/2000/svg"><g><path d="m15 45h2v2h-2z"/><path d="m7 45h2v2h-2z"/><path d="m11 45h2v2h-2z"/><path d="m58 7h-3v-3c0-1.654-1.346-3-3-3h-40c-1.654 0-3 1.346-3 3v3h-3c-2.757 0-5 2.243-5 5v34c0 2.757 2.243 5 5 5h17.962c-.168 1.595-.997 3.041-2.296 4h-2.666c-2.757 0-5 2.243-5 5 0 1.654 1.346 3 3 3h30c1.654 0 3-1.346 3-3 0-2.757-2.243-5-5-5h-2.666c-1.299-.959-2.128-2.405-2.296-4h17.962c2.757 0 5-2.243 5-5v-34c0-2.757-2.243-5-5-5zm-19 20h10v14h-10zm.804-2 3.513-5.622c.297-.474 1.068-.473 1.365 0l3.514 5.622zm6.574-6.682c-.516-.825-1.405-1.318-2.378-1.318s-1.862.493-2.378 1.318l-4.622 7.395v15.287h-10.358l-.853-1.536c.151-.323.288-.648.409-.974l2.802-.713v-7.555l-2.802-.713c-.119-.319-.253-.639-.4-.956l1.479-2.489-5.342-5.342-2.489 1.48c-.317-.147-.638-.281-.956-.4l-.713-2.802h-6.777v-4h42v26h-2v-15.287zm-37.378 22.682h-2v-28h2zm2-3.026c.838.635 1.87 1.026 3 1.026 2.757 0 5-2.243 5-5s-2.243-5-5-5c-1.13 0-2.162.391-3 1.026v-2.336c.934-.444 1.956-.69 3-.69 3.859 0 7 3.14 7 7s-3.141 7-7 7h-3zm0-3.974c0-1.654 1.346-3 3-3s3 1.346 3 3-1.346 3-3 3-3-1.346-3-3zm12 0c0-4.962-4.037-9-9-9-1.029 0-2.04.194-3 .533v-4.533h5.223l.598 2.354.528.169c.56.179 1.126.415 1.686.704l.492.254 2.095-1.246 3.143 3.143-1.246 2.096.256.493c.288.558.525 1.124.704 1.683l.168.528 2.353.599v4.445l-2.354.599-.168.528c-.179.559-.416 1.125-.704 1.683l-.247.476.828 1.492h-4.71c2.043-1.651 3.355-4.174 3.355-7zm32-21h2v28h-2zm-43-10h40c.552 0 1 .449 1 1v9h-42v-9c0-.551.448-1 1-1zm36 57c0 .551-.448 1-1 1h-30c-.552 0-1-.449-1-1 0-1.654 1.346-3 3-3h26c1.654 0 3 1.346 3 3zm-8.47-5h-15.06c.858-1.155 1.378-2.536 1.492-4h12.075c.115 1.464.635 2.845 1.493 4zm21.47-9c0 1.654-1.346 3-3 3h-52c-1.654 0-3-1.346-3-3v-34c0-1.654 1.346-3 3-3h3v2h-2c-1.103 0-2 .897-2 2v28c0 1.103.897 2 2 2h50c1.103 0 2-.897 2-2v-28c0-1.103-.897-2-2-2h-2v-2h3c1.654 0 3 1.346 3 3z"/><path d="m19 5h-6v6h6zm-2 4h-2v-2h2z"/><path d="m27 5h-6v6h6zm-2 4h-2v-2h2z"/><path d="m35 5h-6v6h6zm-2 4h-2v-2h2z"/><path d="m43 37h2v2h-2z"/><path d="m43 29h2v2h-2z"/><path d="m43 33h2v2h-2z"/></g></svg>