<svg id="Capa_1" enable-background="new 0 0 512 512" height="512" viewBox="0 0 512 512" width="512" xmlns="http://www.w3.org/2000/svg"><g id="XMLID_2048_"><g id="XMLID_438_"><path id="XMLID_488_" d="m462 0h-412c-27.57 0-50 22.43-50 50v56 292c0 27.57 22.43 50 50 50h22.34c-7.604 9.328-12.173 21.222-12.173 34.167v19.833c0 5.522 4.477 10 10 10h83.047c5.523 0 10-4.478 10-10s-4.477-10-10-10h-73.047v-9.833c0-18.84 15.327-34.167 34.167-34.167h167.762c18.839 0 34.166 15.327 34.166 34.167v9.833h-73.048c-5.523 0-10 4.478-10 10s4.477 10 10 10h83.048c5.522 0 10-4.478 10-10v-19.833c0-12.945-4.57-24.839-12.173-34.167h98.3l6.108 7.224c8.526 10.084 20.984 16.184 34.18 16.734.654.027 1.307.041 1.959.041 12.507 0 24.622-4.992 33.497-13.867 9.338-9.339 14.378-22.262 13.826-35.456-.158-3.796-.79-7.526-1.83-11.124 1.236-4.392 1.871-8.935 1.871-13.552v-292-56c0-27.57-22.43-50-50-50zm-412 20h412c16.542 0 30 13.458 30 30v46h-472v-46c0-16.542 13.458-30 30-30zm-30 378v-282h472v269.771l-129.675-109.649 11.415-11.415c2.706.719 5.487 1.088 8.27 1.088 8.193 0 16.389-3.12 22.626-9.357 6.045-6.044 9.373-14.079 9.373-22.627s-3.328-16.584-9.372-22.628l-48.083-48.083c-6.044-6.044-14.08-9.372-22.628-9.372s-16.583 3.328-22.626 9.372c-6.045 6.044-9.373 14.079-9.373 22.627 0 2.837.375 5.616 1.086 8.287l-76.782 76.782c-10.675-2.838-22.54-.087-30.897 8.27-12.477 12.478-12.477 32.778 0 45.256l48.083 48.083c3.548 3.548 7.729 6.083 12.183 7.614-.224-.004-.446-.017-.67-.017h-113.43c-18.748 0-34 15.252-34 34 0 4.99 1.089 9.727 3.029 14h-60.529c-16.542-.002-30-13.46-30-30.002zm310.313-89.866 17.82-17.82 22.438 18.973-21.286 21.285zm-44.47 16.185-42.426-42.426 70.71-70.71 42.426 42.426zm-11.314 33.942c-4.678 4.68-12.293 4.68-16.971 0l-48.083-48.083c-4.679-4.679-4.679-12.292 0-16.971 2.34-2.34 5.412-3.509 8.485-3.509s6.146 1.17 8.485 3.509l48.084 48.084c4.679 4.678 4.679 12.291 0 16.97zm47.398-172.534c0-3.205 1.248-6.218 3.515-8.485 2.267-2.266 5.279-3.514 8.484-3.514s6.219 1.248 8.485 3.515l48.083 48.083c2.267 2.267 3.515 5.28 3.515 8.485s-1.248 6.218-3.515 8.484c-4.677 4.679-12.291 4.681-16.97 0l-48.083-48.083c-2.266-2.267-3.514-5.28-3.514-8.485zm-66.998 242.273h-113.429c-7.72 0-14-6.28-14-14s6.28-14 14-14h113.429c7.72 0 14 6.28 14 14s-6.281 14-14 14zm30.971 0c1.939-4.273 3.028-9.01 3.028-14 0-14.991-9.756-27.737-23.249-32.248.121.001.243.009.364.009 8.194 0 16.39-3.119 22.628-9.358 8.356-8.356 11.106-20.221 8.269-30.896l19.181-19.181 89.356 105.674zm198.089 15.989c-5.473 5.474-12.742 8.313-20.479 7.986-7.733-.323-14.744-3.756-19.742-9.666l-81.522-96.412 23.652-23.652 96.412 81.522c5.91 4.998 9.343 12.009 9.666 19.742s-2.513 15.008-7.987 20.48z"/><path id="XMLID_508_" d="m64 72.33c2.63 0 5.21-1.061 7.07-2.931 1.86-1.859 2.93-4.439 2.93-7.069s-1.07-5.21-2.93-7.07-4.44-2.93-7.07-2.93-5.21 1.069-7.07 2.93c-1.86 1.86-2.93 4.44-2.93 7.07s1.07 5.21 2.93 7.069c1.86 1.871 4.44 2.931 7.07 2.931z"/><path id="XMLID_511_" d="m108.33 72.33c2.63 0 5.21-1.061 7.07-2.931 1.87-1.859 2.93-4.439 2.93-7.069s-1.06-5.21-2.93-7.07c-1.86-1.86-4.43-2.93-7.07-2.93-2.63 0-5.21 1.069-7.07 2.93s-2.93 4.44-2.93 7.07 1.07 5.21 2.93 7.069c1.87 1.871 4.44 2.931 7.07 2.931z"/><path id="XMLID_512_" d="m152.67 72.33c2.63 0 5.2-1.061 7.07-2.931 1.86-1.859 2.93-4.439 2.93-7.069s-1.07-5.21-2.93-7.07-4.44-2.93-7.07-2.93c-2.64 0-5.21 1.069-7.07 2.93-1.87 1.86-2.93 4.44-2.93 7.07s1.06 5.21 2.93 7.069c1.86 1.871 4.44 2.931 7.07 2.931z"/><path id="XMLID_513_" d="m143.667 289.692c5.523 0 10-4.478 10-10v-35.994c0-5.522-4.477-10-10-10s-10 4.478-10 10v35.994c0 5.523 4.477 10 10 10z"/><path id="XMLID_514_" d="m111.95 294.485-34.259-34.259c-3.905-3.904-10.237-3.904-14.143 0-3.905 3.905-3.905 10.237 0 14.143l34.259 34.259c1.953 1.952 4.512 2.929 7.071 2.929s5.119-.977 7.071-2.929c3.905-3.905 3.905-10.237.001-14.143z"/><path id="XMLID_515_" d="m91.846 334.891h-36.346c-5.523 0-10 4.478-10 10s4.477 10 10 10h36.346c5.523 0 10-4.478 10-10s-4.477-10-10-10z"/><path id="XMLID_516_" d="m198.21 492c-2.63 0-5.2 1.069-7.07 2.93-1.86 1.86-2.93 4.44-2.93 7.07s1.07 5.21 2.93 7.069c1.86 1.86 4.44 2.931 7.07 2.931 2.64 0 5.21-1.07 7.08-2.931 1.86-1.859 2.92-4.439 2.92-7.069s-1.06-5.21-2.92-7.07c-1.87-1.861-4.44-2.93-7.08-2.93z"/></g></g></svg>