<?xml version="1.0" encoding="iso-8859-1"?>
<!-- Generator: Adobe Illustrator 19.0.0, SVG Export Plug-In . SVG Version: 6.00 Build 0)  -->
<svg version="1.1" id="Capa_1" xmlns="http://www.w3.org/2000/svg" xmlns:xlink="http://www.w3.org/1999/xlink" x="0px" y="0px"
	 viewBox="0 0 512 512" style="enable-background:new 0 0 512 512;" xml:space="preserve">
<g>
	<g>
		<path d="M263.07,446.98c-1.86-1.86-4.44-2.93-7.07-2.93s-5.21,1.07-7.07,2.93c-1.86,1.87-2.93,4.44-2.93,7.08
			c0,2.63,1.07,5.21,2.93,7.07c1.86,1.86,4.44,2.92,7.07,2.92s5.21-1.06,7.07-2.92s2.93-4.44,2.93-7.07
			C266,451.42,264.93,448.85,263.07,446.98z"/>
	</g>
</g>
<g>
	<g>
		<path d="M512,10c0-5.523-4.477-10-10-10H319.886c-5.523,0-10,4.477-10,10v20.235c-2.338-2.866-4.721-5.544-7.149-8.013
			C288.239,7.477,272.515,0,256,0C187.62,0,123.333,26.629,74.981,74.981S0,187.62,0,256c0,8.733,0.445,17.543,1.324,26.185
			c0.523,5.151,4.868,8.99,9.937,8.99c0.338,0,0.68-0.017,1.023-0.052c5.495-0.559,9.496-5.465,8.938-10.96
			c-0.476-4.681-0.797-9.418-0.995-14.162h123.865c0.127,7.781,0.394,15.552,0.815,23.204c0.293,5.328,4.705,9.452,9.976,9.452
			c0.185,0,0.371-0.005,0.558-0.016c5.515-0.303,9.739-5.02,9.436-10.534c-0.401-7.289-0.655-14.692-0.781-22.106H246v103h-74.136
			c-4.598-43.219-41.267-77-85.685-77C38.66,292,0,330.66,0,378.179c0,19.672,6.799,38.895,19.153,54.167
			c0.02,0.025,0.039,0.051,0.059,0.076l59.083,75.729c1.895,2.428,4.803,3.848,7.883,3.849c3.08,0,5.988-1.419,7.883-3.847
			l58.801-75.333c0.126-0.161,0.246-0.325,0.361-0.492c10.069-12.456,16.437-27.518,18.445-43.328H246v29.057
			c0,5.523,4.477,10,10,10s10-4.477,10-10V389h65.49c-3.641,13.221-7.85,25.656-12.603,37.118C301.527,467.987,278.605,492,256,492
			c-21.486,0-42.767-20.96-59.921-59.019c-2.269-5.035-8.193-7.277-13.226-5.008c-5.035,2.27-7.277,8.191-5.008,13.226
			c8.467,18.786,18.152,34.09,28.694,45.608c-13.564-2.893-26.858-6.978-39.796-12.267c-5.115-2.09-10.952,0.36-13.041,5.472
			c-2.09,5.112,0.36,10.951,5.472,13.041C189.924,505.625,222.501,512,256,512c68.38,0,132.667-26.629,181.019-74.981
			C485.371,388.667,512,324.38,512,256c0-16.084-1.503-32.187-4.468-47.861c-0.11-0.579-0.276-1.133-0.477-1.666
			C510.176,201.741,512,196.081,512,190V10z M137.227,420.298c-0.239,0.288-0.459,0.588-0.661,0.897l-50.385,64.551l-51.019-65.393
			c-0.099-0.135-0.203-0.269-0.31-0.4C25.275,408.201,20,393.365,20,378.179C20,341.688,49.688,312,86.179,312
			c36.491,0,66.179,29.688,66.179,66.179C152.358,393.529,146.984,408.487,137.227,420.298z M144.088,246H20.227
			c1.558-37.184,11.75-72.171,28.635-103h106.265C148.461,174.761,144.677,209.723,144.088,246z M159.822,122.999h-98.67
			c33.599-49.067,85.226-84.852,145.261-97.741c-11.833,12.982-22.576,30.779-31.775,52.963
			C168.945,91.952,163.993,106.975,159.822,122.999z M246,246h-81.91c0.61-36.517,4.551-71.541,11.479-103H246V246z M246,123h-65.49
			c3.641-13.221,7.85-25.656,12.602-37.118C207.913,50.186,226.757,27.483,246,21.56V123z M266,21.526
			c7.583,2.307,15.108,7.225,22.475,14.717c7.552,7.682,14.736,17.884,21.353,30.324c0.018,0.034,0.04,0.064,0.058,0.097V123H266
			V21.526z M266,369V266h81.91c-0.61,36.517-4.551,71.541-11.479,103H266z M305.587,486.742
			c11.833-12.982,22.576-30.779,31.775-52.963c5.693-13.731,10.645-28.754,14.816-44.778h98.67
			C417.249,438.068,365.622,473.853,305.587,486.742z M463.138,369H356.872c6.666-31.761,10.45-66.723,11.039-103h123.862
			C490.215,303.184,480.023,338.171,463.138,369z M266,246V143h43.886v47c0,16.542,13.458,30,30,30H482
			c2.455,0,4.839-0.303,7.124-0.862c1.388,8.864,2.278,17.846,2.656,26.862H266z M492,190c0,5.514-4.486,10-10,10H339.886
			c-5.514,0-10-4.486-10-10V20H492V190z"/>
	</g>
</g>
<g>
	<g>
		<path d="M449.967,48.333c-5.523,0-10,4.477-10,10v18.333c0,16.004-13.021,29.024-29.024,29.024s-29.024-13.021-29.024-29.024
			V58.333c0-5.523-4.477-10-10-10s-10,4.477-10,10v18.333c-0.001,27.033,21.992,49.025,49.024,49.025
			c27.032,0,49.024-21.992,49.024-49.024V58.333C459.967,52.81,455.49,48.333,449.967,48.333z"/>
	</g>
</g>
<g>
	<g>
		<path d="M86.179,338.911c-21.653,0-39.269,17.616-39.269,39.269c0,21.652,17.616,39.268,39.269,39.268
			c21.652,0,39.268-17.616,39.268-39.268C125.447,356.526,107.832,338.911,86.179,338.911z M86.179,397.447
			c-10.625,0-19.269-8.644-19.269-19.268c0-10.624,8.644-19.269,19.269-19.269s19.268,8.644,19.268,19.269
			S96.804,397.447,86.179,397.447z"/>
	</g>
</g>
<g>
</g>
<g>
</g>
<g>
</g>
<g>
</g>
<g>
</g>
<g>
</g>
<g>
</g>
<g>
</g>
<g>
</g>
<g>
</g>
<g>
</g>
<g>
</g>
<g>
</g>
<g>
</g>
<g>
</g>
</svg>
