<svg enable-background="new 0 0 60 60" height="512" viewBox="0 0 60 60" width="512" xmlns="http://www.w3.org/2000/svg"><path d="m55.5 60h-51c-2.481 0-4.5-2.019-4.5-4.5v-51c0-2.481 2.019-4.5 4.5-4.5h51c2.481 0 4.5 2.019 4.5 4.5v51c0 2.481-2.019 4.5-4.5 4.5zm-51-58c-1.378 0-2.5 1.121-2.5 2.5v51c0 1.379 1.122 2.5 2.5 2.5h51c1.379 0 2.5-1.121 2.5-2.5v-51c0-1.379-1.122-2.5-2.5-2.5z"/><path d="m9 10h-4c-.552 0-1-.447-1-1v-4c0-.553.448-1 1-1h4c.552 0 1 .447 1 1v4c0 .553-.448 1-1 1zm-3-2h2v-2h-2z"/><path d="m17 10h-4c-.552 0-1-.447-1-1v-4c0-.553.448-1 1-1h4c.552 0 1 .447 1 1v4c0 .553-.448 1-1 1zm-3-2h2v-2h-2z"/><path d="m25 10h-4c-.552 0-1-.447-1-1v-4c0-.553.448-1 1-1h4c.552 0 1 .447 1 1v4c0 .553-.448 1-1 1zm-3-2h2v-2h-2z"/><path d="m59 14h-58c-.552 0-1-.447-1-1v-8.5c0-2.481 2.019-4.5 4.5-4.5h51c2.481 0 4.5 2.019 4.5 4.5v8.5c0 .553-.448 1-1 1zm-57-2h56v-7.5c0-1.379-1.122-2.5-2.5-2.5h-51c-1.378 0-2.5 1.121-2.5 2.5z"/><path d="m28 34h-22c-.552 0-1-.447-1-1v-14c0-.553.448-1 1-1h22c.552 0 1 .447 1 1v14c0 .553-.448 1-1 1zm-21-2h20v-12h-20z"/><path d="m49 25h-16c-.552 0-1-.447-1-1s.448-1 1-1h16c.552 0 1 .447 1 1s-.448 1-1 1z"/><path d="m54 21h-21c-.552 0-1-.447-1-1s.448-1 1-1h21c.552 0 1 .447 1 1s-.448 1-1 1z"/><path d="m43 34h-10c-.552 0-1-.447-1-1v-4c0-.553.448-1 1-1h10c.552 0 1 .447 1 1v4c0 .553-.448 1-1 1zm-9-2h8v-2h-8z"/><path d="m10 30c-.256 0-.512-.098-.707-.293-.391-.391-.391-1.023 0-1.414l4-4c.39-.391 1.024-.391 1.414 0 .391.391.391 1.023 0 1.414l-4 4c-.195.195-.451.293-.707.293z"/><path d="m18 30c-.256 0-.512-.098-.707-.293l-4-4c-.391-.391-.391-1.023 0-1.414.39-.391 1.024-.391 1.414 0l4 4c.391.391.391 1.023 0 1.414-.195.195-.451.293-.707.293z"/><path d="m16 28c-.256 0-.512-.098-.707-.293-.391-.391-.391-1.023 0-1.414l4-4c.39-.391 1.024-.391 1.414 0 .391.391.391 1.023 0 1.414l-4 4c-.195.195-.451.293-.707.293z"/><path d="m24 28c-.256 0-.512-.098-.707-.293l-4-4c-.391-.391-.391-1.023 0-1.414.39-.391 1.024-.391 1.414 0l4 4c.391.391.391 1.023 0 1.414-.195.195-.451.293-.707.293z"/><path d="m28 54h-22c-.552 0-1-.447-1-1v-14c0-.553.448-1 1-1h22c.552 0 1 .447 1 1v14c0 .553-.448 1-1 1zm-21-2h20v-12h-20z"/><path d="m49 45h-16c-.552 0-1-.447-1-1s.448-1 1-1h16c.552 0 1 .447 1 1s-.448 1-1 1z"/><path d="m54 41h-21c-.552 0-1-.447-1-1s.448-1 1-1h21c.552 0 1 .447 1 1s-.448 1-1 1z"/><path d="m43 54h-10c-.552 0-1-.447-1-1v-4c0-.553.448-1 1-1h10c.552 0 1 .447 1 1v4c0 .553-.448 1-1 1zm-9-2h8v-2h-8z"/><path d="m10 50c-.256 0-.512-.098-.707-.293-.391-.391-.391-1.023 0-1.414l4-4c.39-.391 1.024-.391 1.414 0 .391.391.391 1.023 0 1.414l-4 4c-.195.195-.451.293-.707.293z"/><path d="m18 50c-.256 0-.512-.098-.707-.293l-4-4c-.391-.391-.391-1.023 0-1.414.39-.391 1.024-.391 1.414 0l4 4c.391.391.391 1.023 0 1.414-.195.195-.451.293-.707.293z"/><path d="m16 48c-.256 0-.512-.098-.707-.293-.391-.391-.391-1.023 0-1.414l4-4c.39-.391 1.024-.391 1.414 0 .391.391.391 1.023 0 1.414l-4 4c-.195.195-.451.293-.707.293z"/><path d="m24 48c-.256 0-.512-.098-.707-.293l-4-4c-.391-.391-.391-1.023 0-1.414.39-.391 1.024-.391 1.414 0l4 4c.391.391.391 1.023 0 1.414-.195.195-.451.293-.707.293z"/></svg>