<svg id="Icons" height="512" viewBox="0 0 74 74" width="512" xmlns="http://www.w3.org/2000/svg"><path d="m45.44 59.07h-2.97a1 1 0 0 1 0-2h2.97a1 1 0 0 1 0 2z"/><path d="m66.47 59.07h-14.03a1 1 0 0 1 0-2h14.03a3.534 3.534 0 0 0 3.53-3.53v-2.53h-26.612l-.769 2.09a1 1 0 0 1 -.939.656h-9.36a1 1 0 0 1 -.939-.656l-.769-2.094h-26.612v2.53a3.534 3.534 0 0 0 3.53 3.53h18.03a1 1 0 0 1 0 2h-18.03a5.536 5.536 0 0 1 -5.53-5.526v-3.53a1 1 0 0 1 1-1h28.31a1 1 0 0 1 .939.655l.769 2.095h7.964l.769-2.095a1 1 0 0 1 .939-.655h28.31a1 1 0 0 1 1 1v3.53a5.536 5.536 0 0 1 -5.53 5.53z"/><path d="m35.47 59.07h-2.91a1 1 0 0 1 0-2h2.91a1 1 0 0 1 0 2z"/><path d="m66.292 51.008h-23.6a1 1 0 0 1 0-2h22.6v-29.549a2.533 2.533 0 0 0 -2.53-2.531h-51.524a2.533 2.533 0 0 0 -2.53 2.531v29.549h22.6a1 1 0 0 1 0 2h-23.6a1 1 0 0 1 -1-1v-30.549a4.536 4.536 0 0 1 4.53-4.531h51.524a4.536 4.536 0 0 1 4.53 4.531v30.549a1 1 0 0 1 -1 1z"/><path d="m37 32.91a4.886 4.886 0 0 1 -5.06-4.68 5.076 5.076 0 0 1 10.12 0 1 1 0 1 1 -2 0 3.087 3.087 0 0 0 -6.12 0 2.892 2.892 0 0 0 3.06 2.68 1 1 0 1 1 0 2z"/><path d="m37 40.27a4.887 4.887 0 0 1 -5.06-4.68 1 1 0 0 1 2 0 3.087 3.087 0 0 0 6.12 0 2.892 2.892 0 0 0 -3.06-2.68 1 1 0 0 1 0-2 4.886 4.886 0 0 1 5.06 4.68 4.887 4.887 0 0 1 -5.06 4.68z"/><path d="m37 42a1 1 0 0 1 -1-1v-18a1 1 0 0 1 2 0v18a1 1 0 0 1 -1 1z"/></svg>