<svg id="Capa_1" enable-background="new 0 0 512 512" height="512" viewBox="0 0 512 512" width="512" xmlns="http://www.w3.org/2000/svg"><g><path d="m511.999 446.168v-325.613c0-21.354-17.372-38.726-38.726-38.726h-72.55c-4.143 0-7.5 3.357-7.5 7.5s3.357 7.5 7.5 7.5h72.55c13.082 0 23.726 10.644 23.726 23.726v291.34c-8.347-7.738-19.513-12.474-31.766-12.474-17.365 0-402.951 0-416.165 0-18.047 0-32.853-14.107-33.99-31.872 1.058-15.489 13.989-27.77 29.742-27.77h32.732c4.143 0 7.5-3.357 7.5-7.5 0-.169-.014-.334-.025-.5.011-.166.025-.331.025-.5v-234.45h285.685c4.143 0 7.5-3.357 7.5-7.5s-3.357-7.5-7.5-7.5h-285.684v-55.283c0-4.143-3.357-7.5-7.5-7.5h-14.537c-34.747 0-63.016 28.268-63.016 63.016v170.298c0 4.143 3.357 7.5 7.5 7.5s7.5-3.357 7.5-7.5v-170.298c0-26.476 21.54-48.016 48.016-48.016h7.037v290.733h-25.233c-11.442 0-21.892 4.316-29.82 11.397v-52.101c0-4.143-3.357-7.5-7.5-7.5s-7.5 3.357-7.5 7.5c.01 33.585 0 27.782 0 85.524 0 24.714 20.106 44.82 44.82 44.82h353.646v64.043c0 7.99 6.5 14.49 14.49 14.49h52.276c25.787 0 46.767-20.979 46.767-46.767.001-.004 0-.01 0-.017zm-46.766 31.786h-51.767v-63.533h51.767c17.516 0 31.766 14.25 31.766 31.767 0 .004.001.009.001.013-.007 17.51-14.254 31.753-31.767 31.753z"/><path d="m364.37 216.129-7.003-16.906 5.504-14.057c1.087-2.775.428-5.931-1.68-8.038l-16.562-16.562c-2.107-2.106-5.263-2.766-8.038-1.68l-14.057 5.504-16.906-7.003-6.047-13.831c-1.194-2.73-3.892-4.495-6.872-4.495h-23.421c-2.98 0-5.678 1.765-6.872 4.495l-6.047 13.831-16.906 7.003-14.057-5.504c-2.772-1.086-5.93-.427-8.038 1.681l-16.561 16.562c-2.107 2.107-2.767 5.262-1.68 8.037l5.504 14.057-7.003 16.906-13.832 6.047c-2.73 1.194-4.495 3.892-4.495 6.872v23.421c0 2.98 1.765 5.678 4.495 6.872l13.832 6.047 7.003 16.906-5.504 14.057c-1.087 2.775-.428 5.931 1.68 8.038l16.561 16.561c2.106 2.105 5.261 2.768 8.038 1.68l14.057-5.504 16.906 7.003 6.047 13.832c1.194 2.73 3.892 4.495 6.872 4.495h23.421c2.98 0 5.678-1.765 6.872-4.495l6.047-13.832 16.906-7.003 14.057 5.504c2.775 1.088 5.931.428 8.037-1.68l16.562-16.561c2.108-2.107 2.768-5.263 1.681-8.038l-5.504-14.057 7.003-16.906 13.831-6.047c2.73-1.194 4.495-3.892 4.495-6.872v-23.421c0-2.98-1.765-5.678-4.495-6.872zm3.326 31.433-12.104 5.292c-1.776.776-3.183 2.211-3.924 4.002l-9.314 22.488c-.742 1.791-.762 3.8-.055 5.604l4.816 12.302-9.623 9.622-12.302-4.816c-1.805-.707-3.813-.688-5.604.055l-22.488 9.315c-1.791.741-3.226 2.148-4.002 3.924l-5.292 12.104h-13.608l-5.292-12.104c-.776-1.775-2.211-3.183-4.002-3.924l-22.488-9.315c-1.791-.743-3.802-.763-5.604-.055l-12.302 4.816-9.622-9.622 4.816-12.302c.707-1.805.688-3.813-.055-5.604l-9.315-22.488c-.741-1.791-2.148-3.226-3.924-4.002l-12.104-5.292v-13.608l12.104-5.292c1.775-.776 3.183-2.211 3.924-4.002l9.315-22.488c.742-1.791.762-3.8.055-5.604l-4.816-12.302 9.622-9.623 12.302 4.816c1.804.707 3.813.688 5.604-.055l22.488-9.314c1.791-.741 3.226-2.147 4.002-3.924l5.292-12.104h13.608l5.292 12.104c.776 1.776 2.211 3.183 4.002 3.924l22.488 9.314c1.792.742 3.8.762 5.604.055l12.302-4.816 9.623 9.623-4.816 12.302c-.707 1.805-.688 3.813.055 5.604l9.314 22.488c.741 1.791 2.147 3.226 3.924 4.002l12.104 5.292z"/><path d="m281 208.571c13.136 0 24.834 7.862 29.803 20.029 1.566 3.834 5.942 5.672 9.779 4.107 3.834-1.566 5.674-5.944 4.107-9.779-7.283-17.834-24.433-29.357-43.689-29.357-26.019 0-47.187 21.168-47.187 47.187s21.168 47.187 47.187 47.187c19.257 0 36.406-11.523 43.689-29.356 1.566-3.835-.273-8.213-4.107-9.779-3.838-1.565-8.215.272-9.779 4.107-4.969 12.167-16.667 20.028-29.803 20.028-17.748 0-32.187-14.438-32.187-32.187s14.439-32.187 32.187-32.187z"/></g></svg>