<?xml version="1.0" encoding="UTF-8" standalone="no"?>
<svg width="228px" height="114px" viewBox="0 0 228 114" version="1.1" xmlns="http://www.w3.org/2000/svg" xmlns:xlink="http://www.w3.org/1999/xlink" xmlns:sketch="http://www.bohemiancoding.com/sketch/ns">
    <!-- Generator: Sketch 3.4.4 (17249) - http://www.bohemiancoding.com/sketch -->
    <title>isparer</title>
    <desc>Created with Sketch.</desc>
    <defs></defs>
    <g id="Page-1" stroke="none" stroke-width="1" fill="none" fill-rule="evenodd" sketch:type="MSPage">
        <g id="logos" sketch:type="MSArtboardGroup" transform="translate(-1417.000000, -454.000000)">
            <g id="isparer" sketch:type="MSLayerGroup" transform="translate(1443.000000, 488.000000)">
                <g id="Group" sketch:type="MSShapeGroup">
                    <ellipse id="Oval-1" fill="#062C60" transform="translate(41.090929, 34.665894) rotate(5.000000) translate(-41.090929, -34.665894) " cx="41.0909289" cy="34.6658943" rx="6" ry="3.63636364"></ellipse>
                    <ellipse id="Oval-1" fill="#7FB23A" transform="translate(27.867963, 23.949893) rotate(5.000000) translate(-27.867963, -23.949893) " cx="27.8679632" cy="23.949893" rx="4.83359129" ry="2.92944927"></ellipse>
                    <ellipse id="Oval-1" fill="#7FB23A" transform="translate(30.267963, 15.465044) rotate(5.000000) translate(-30.267963, -15.465044) " cx="30.2679632" cy="15.4650445" rx="3.98450788" ry="2.41485326"></ellipse>
                    <ellipse id="Oval-1" fill="#7FB23A" transform="translate(17.686518, 14.811108) rotate(5.000000) translate(-17.686518, -14.811108) " cx="17.686518" cy="14.811108" rx="3.98450788" ry="2.41485326"></ellipse>
                    <ellipse id="Oval-1" fill="#7FB23A" transform="translate(32.374744, 8.396310) rotate(5.000000) translate(-32.374744, -8.396310) " cx="32.3747442" cy="8.39631012" rx="3.52199993" ry="2.13454541"></ellipse>
                    <ellipse id="Oval-1" fill="#7FB23A" transform="translate(20.487512, 8.142742) rotate(5.000000) translate(-20.487512, -8.142742) " cx="20.4875117" cy="8.14274247" rx="3.48668144" ry="2.11314027"></ellipse>
                    <ellipse id="Oval-1" fill="#7FB23A" transform="translate(10.457925, 8.408983) rotate(5.000000) translate(-10.457925, -8.408983) " cx="10.4579245" cy="8.40898344" rx="3.48668144" ry="2.11314027"></ellipse>
                    <ellipse id="Oval-1" fill="#062C60" transform="translate(42.290929, 24.968925) rotate(5.000000) translate(-42.290929, -24.968925) " cx="42.2909289" cy="24.9689246" rx="4.83359129" ry="2.92944927"></ellipse>
                    <ellipse id="Oval-1" fill="#062C60" transform="translate(42.290929, 16.271955) rotate(5.000000) translate(-42.290929, -16.271955) " cx="42.2909289" cy="16.2719549" rx="4.16323119" ry="2.52317042"></ellipse>
                    <ellipse id="Oval-1" fill="#062C60" transform="translate(42.729581, 9.350757) rotate(5.000000) translate(-42.729581, -9.350757) " cx="42.729581" cy="9.35075734" rx="3.48403505" ry="2.11153639"></ellipse>
                    <ellipse id="Oval-1" fill="#062C60" transform="translate(42.724896, 3.105997) rotate(5.000000) translate(-42.724896, -3.105997) " cx="42.7248958" cy="3.10599744" rx="3.12489578" ry="1.89387623"></ellipse>
                    <ellipse id="Oval-1" fill="#062C60" transform="translate(33.124896, 3.105997) rotate(5.000000) translate(-33.124896, -3.105997) " cx="33.1248958" cy="3.10599744" rx="3.12489578" ry="1.89387623"></ellipse>
                    <ellipse id="Oval-1" fill="#062C60" transform="translate(23.123584, 3.373894) rotate(5.000000) translate(-23.123584, -3.373894) " cx="23.1235838" cy="3.37389432" rx="3.12489578" ry="1.89387623"></ellipse>
                    <ellipse id="Oval-1" fill="#062C60" transform="translate(13.122272, 3.373894) rotate(5.000000) translate(-13.122272, -3.373894) " cx="13.1222719" cy="3.37389432" rx="3.12489578" ry="1.89387623"></ellipse>
                    <ellipse id="Oval-1" fill="#062C60" transform="translate(3.522272, 3.373894) rotate(5.000000) translate(-3.522272, -3.373894) " cx="3.52227187" cy="3.37389432" rx="3.12489578" ry="1.89387623"></ellipse>
                </g>
                <g id="Group" transform="translate(60.000000, 0.000000)" sketch:type="MSShapeGroup">
                    <path d="M0.46005851,1.91748047 L0.46005851,34.4213867 C0.46005851,34.9734703 0.623958118,35.4004719 0.951757729,35.7023926 C1.27955734,36.0043133 1.77125656,36.1552734 2.42685539,36.1552734 C3.08245461,36.1552734 3.57415383,36.0043133 3.90195304,35.7023926 C4.22975226,35.4004723 4.39365226,34.9734703 4.39365226,34.4213867 L4.39365226,1.91748047 C4.39365226,1.36539608 4.22975226,0.938394129 3.90195304,0.636474609 C3.57415383,0.334555089 3.08245461,0.18359375 2.42685539,0.18359375 C1.77125656,0.18359375 1.27955734,0.334555089 0.951757729,0.636474609 C0.623958118,0.938394129 0.46005851,1.36539608 0.46005851,1.91748047 L0.46005851,1.91748047 Z" id="Path" fill="#062C60"></path>
                    <path d="M11.1882353,18.5307692 C11.1882353,19.5 11.3647059,20.3230774 11.7176471,21 C12.0705882,21.676924 12.5372548,22.2500005 13.1176471,22.7192308 C13.698039,23.1884611 14.3568625,23.5846154 15.0941176,23.9076923 C15.8313728,24.2307692 16.584314,24.5269233 17.3529412,24.7961538 L19.6117647,25.5807692 C20.3490191,25.8346154 21.0078427,26.1269228 21.5882353,26.4576923 C22.1686279,26.7884611 22.6352941,27.1884613 22.9882353,27.6576923 C23.3411765,28.1269233 23.5176471,28.7076923 23.5176471,29.4 C23.5176471,29.9384614 23.4117647,30.4384615 23.2,30.9 C22.9882353,31.3615385 22.6666662,31.7576924 22.2352941,32.0884615 C21.8039206,32.4192307 21.2549015,32.680769 20.5882353,32.8730769 C19.9215684,33.0653849 19.1333331,33.1615385 18.2235294,33.1615385 C17.2823529,33.1615385 16.4901963,33.0961536 15.8470588,32.9653846 C15.2039213,32.8346156 14.6627449,32.6884615 14.2235294,32.5269231 C13.7843136,32.3653846 13.4196077,32.2153846 13.1294118,32.0769231 C12.8392158,31.9384615 12.5764706,31.8692308 12.3411765,31.8692308 C11.9490198,31.8692308 11.6274511,31.9923076 11.3764706,32.2384615 C11.1254904,32.4846151 11,32.8076921 11,33.2076923 C11,33.4846154 11.0431375,33.7192305 11.1294118,33.9115385 C11.2156864,34.1038464 11.3450982,34.2846155 11.5176471,34.4538462 C11.6588235,34.5923077 11.890196,34.7538462 12.2117647,34.9384615 C12.5333331,35.1230769 12.9490195,35.2923076 13.4588235,35.4461538 C13.9686276,35.6000001 14.584314,35.7307691 15.3058824,35.8384615 C16.0274507,35.946154 16.8745096,36 17.8470588,36 C19.3372551,36 20.6509809,35.8153846 21.7882353,35.4461538 C22.9254897,35.0769231 23.8823529,34.5769233 24.6588235,33.9461538 C25.4352941,33.3153847 26.0196074,32.5769232 26.4117647,31.7307692 C26.803922,30.8846153 27,29.9769231 27,29.0076923 C27,28.0230772 26.8235294,27.1846154 26.4705882,26.4923077 C26.1176471,25.8 25.6509809,25.2076925 25.0705882,24.7153846 C24.4901956,24.2230767 23.8313721,23.8153846 23.0941176,23.4923077 C22.3568632,23.1692308 21.6,22.8730774 20.8235294,22.6038462 L18.5529412,21.8307692 C17.815686,21.5846149 17.1568625,21.3 16.5764706,20.9769231 C15.9960787,20.6538462 15.5294118,20.2692303 15.1764706,19.8230769 C14.8235294,19.3769221 14.6470588,18.8153841 14.6470588,18.1384615 C14.6470588,17.6769231 14.7411765,17.2461534 14.9294118,16.8461538 C15.1176471,16.4461543 15.4078434,16.0961538 15.8,15.7961538 C16.1921566,15.4961538 16.6862743,15.261538 17.2823529,15.0923077 C17.8784309,14.9230774 18.5921566,14.8384615 19.4235294,14.8384615 C20.1450985,14.8384615 20.7686279,14.8923072 21.2941176,15 C21.8196074,15.1076928 22.2784309,15.2307692 22.6705882,15.3692308 L23.6941176,15.7384615 C23.9843132,15.8461543 24.2470588,15.9 24.4823529,15.9 C24.6705882,15.9 24.8470588,15.8692312 25.0117647,15.8076923 C25.1764706,15.7461534 25.3176471,15.6576923 25.4352941,15.5423077 C25.5529412,15.4269231 25.6470588,15.2961534 25.7176471,15.15 C25.7882353,15.0038466 25.8235294,14.8384615 25.8235294,14.6538462 C25.8235294,14.3923082 25.7843132,14.1692308 25.7058824,13.9846154 C25.6274515,13.8 25.486275,13.6076928 25.2823529,13.4076923 C25.1411765,13.2692308 24.9254897,13.1192308 24.6352941,12.9576923 C24.3450971,12.7961538 23.9725485,12.6423072 23.5176471,12.4961538 C23.0627456,12.3500005 22.5294118,12.2307692 21.9176471,12.1384615 C21.3058824,12.0461538 20.6,12 19.8,12 C18.403922,12 17.1725493,12.1730769 16.1058824,12.5192308 C15.0392154,12.8653846 14.1411765,13.3346149 13.4117647,13.9269231 C12.6823529,14.5192312 12.1294118,15.2115389 11.7529412,16.0038462 C11.3764706,16.7961534 11.1882353,17.6384611 11.1882353,18.5307692 L11.1882353,18.5307692 Z" id="Path" fill="#062C60"></path>
                    <path d="M32,13.6788807 L32,45.4377082 C32,45.9351546 32.1211947,46.3198981 32.3635838,46.5919387 C32.6059729,46.8639793 32.9695567,47 33.4543353,47 C33.9391135,47 34.3026973,46.8639793 34.5450867,46.5919387 C34.7874761,46.3198981 34.9086705,45.9351546 34.9086705,45.4377082 L34.9086705,38.8387742 C34.9086705,38.2791472 34.9053952,37.7311792 34.8988439,37.1948701 C34.8922933,36.658561 34.8759154,36.1416832 34.849711,35.6442372 L34.9086705,35.6209194 C35.2362239,35.7452808 35.6030831,35.8540973 36.0092486,35.9473684 C36.3499039,36.0250943 36.752794,36.0950476 37.2179191,36.1572285 C37.6830441,36.2194094 38.1842002,36.2504997 38.7213873,36.2504997 C40.3067429,36.2504997 41.7348744,35.9667998 43.0057803,35.3994004 C44.2766863,34.832001 45.3543353,34.0042195 46.2387283,32.916056 C47.1231214,31.8278924 47.804432,30.4948921 48.282659,28.9170553 C48.7608871,27.3392178 49,25.5398621 49,23.5189873 C49,21.5913845 48.8067429,19.908617 48.4202312,18.4706862 C48.0337195,17.0327555 47.4899811,15.8357761 46.7890173,14.8797468 C46.0880547,13.9237175 45.2495187,13.2047529 44.2734104,12.7228514 C43.2973033,12.24095 42.2131025,12 41.0208092,12 C40.4836216,12 39.9857414,12.0544077 39.5271676,12.1632245 C39.0685938,12.2720413 38.6427746,12.4119481 38.249711,12.5829447 C37.8566474,12.7539413 37.4963389,12.9521425 37.1687861,13.1775483 C36.8412327,13.4029541 36.5529863,13.6322452 36.3040462,13.8654231 C35.7013483,14.4095043 35.1969169,15.0313125 34.7907514,15.7308461 L34.7317919,15.7308461 L34.5352601,13.9586942 C34.4959538,13.6633351 34.4435455,13.4068394 34.3780347,13.1892072 C34.3125245,12.971575 34.2273605,12.7928048 34.1225434,12.6528981 C34.0177262,12.5129913 33.8899805,12.4080613 33.7393064,12.3381079 C33.5886322,12.2681546 33.4150289,12.2331779 33.2184971,12.2331779 C32.8385357,12.2331779 32.5404624,12.3614257 32.3242775,12.6179214 C32.1080925,12.8744171 32,13.2280706 32,13.6788807 Z M34.9086705,32.4030646 L34.9086705,19.158561 C35.2886316,18.3657562 35.747206,17.6584504 36.2843931,17.0366422 C36.5202312,16.7723744 36.7789979,16.511992 37.0606936,16.2554963 C37.3423894,15.9990007 37.6568403,15.7735949 38.0040462,15.5792805 C38.3512528,15.3849646 38.7246632,15.2256269 39.1242775,15.1012658 C39.5238929,14.9769048 39.9529869,14.9147235 40.4115607,14.9147235 C41.2631993,14.9147235 42.0362239,15.0818348 42.7306358,15.416056 C43.4250478,15.7502785 44.0146431,16.2827009 44.499422,17.0133245 C44.9842008,17.743948 45.3576112,18.6805463 45.6196532,19.8231179 C45.8816952,20.9656895 46.0127168,22.3375523 46.0127168,23.9387075 C46.0127168,25.4932272 45.8456647,26.8612039 45.5115607,28.0426382 C45.1774566,29.2240733 44.7090563,30.215079 44.1063584,31.0156562 C43.5036605,31.8162335 42.7797688,32.422496 41.9346821,32.8344437 C41.0895954,33.2463911 40.1560694,33.4523651 39.134104,33.4523651 C38.4265896,33.4523651 37.8140657,33.3979567 37.2965318,33.2891406 C36.7789979,33.1803245 36.3433526,33.0637355 35.9895954,32.9393738 C35.570328,32.7839221 35.2100195,32.6051522 34.9086705,32.4030646 Z" id="Path" fill="#062C60"></path>
                    <path d="M56,13.5826772 L56,34.4173228 C56,34.9212601 56.1250001,35.3110235 56.375,35.5866142 C56.6249999,35.8622048 56.9999999,36 57.5,36 C57.9999998,36 58.3749998,35.8622048 58.625,35.5866142 C58.8750002,35.3110239 59,34.9212601 59,34.4173228 L59,13.5826772 C59,13.0787406 58.8750002,12.6889769 58.625,12.4133858 C58.3749998,12.1377948 57.9999998,12 57.5,12 C56.9999999,12 56.6249999,12.1377948 56.375,12.4133858 C56.1250001,12.6889769 56,13.0787406 56,13.5826772 L56,13.5826772 Z" id="Path" fill="#062C60"></path>
                    <path d="M55,4.54587156 C55,4.89755445 55.0649846,5.22247706 55.1949541,5.5206422 C55.3249237,5.81880734 55.496942,6.07492261 55.7110092,6.28899083 C55.9250763,6.50305904 56.1811927,6.67507739 56.4793578,6.80504587 C56.7775229,6.93501436 57.1024466,7 57.4541284,7 C57.8211009,7 58.1613152,6.93501436 58.4747706,6.80504587 C58.7882268,6.67507459 59.0558106,6.49923454 59.2775229,6.27752294 C59.4992359,6.05580853 59.6750767,5.78822537 59.8050459,5.47477064 C59.9350151,5.16131592 60,4.82110092 60,4.45412844 C60,4.11773794 59.9350151,3.79663702 59.8050459,3.49082569 C59.6750767,3.18501716 59.5030583,2.92507739 59.2889908,2.71100917 C59.074924,2.49694096 58.8149849,2.32492261 58.5091743,2.19495413 C58.2033637,2.06498564 57.8822628,2 57.5458716,2 C57.1788991,2 56.8386851,2.06498564 56.5252294,2.19495413 C56.2117739,2.32492541 55.9441897,2.50076546 55.7224771,2.72247706 C55.5007648,2.94419147 55.3249237,3.21177463 55.1949541,3.52522936 C55.0649846,3.83868408 55,4.17889908 55,4.54587156 L55,4.54587156 Z" id="Path" fill="#A5CF3F"></path>
                    <path d="M76.9629917,12.6153693 C76.268175,12.1632784 74.4013804,11.8140321 71.9652352,12.1089048 C70.5342576,12.2821113 66.2906115,13.4339344 66.1453057,14.8694655 C66,16.3049965 66,22.188098 66,27.0220939 C66,30.0595658 66,34.4428955 66,34.4428955 C66,34.9386902 66.1485945,35.3221559 66.4457831,35.5932936 C66.7429718,35.8644313 67.1887549,36 67.7831325,36 C68.3775098,36 68.8232929,35.8644313 69.1204819,35.5932936 C69.4176709,35.3221563 69.5662651,34.9386902 69.5662651,34.4428955 L69.5662652,16.7618013 C69.6740377,16.5619092 71.0925106,15.6708804 72.8197771,15.5019981 C74.1292962,15.3739607 75.8637086,15.9368837 75.9156627,15.943565 C76.0361446,15.9590591 76.1847394,15.9668054 76.3614458,15.9668054 C76.7630527,15.9668054 77.1365467,15.8118691 77.4819277,15.5019981 C77.8273087,15.192127 78,14.7273197 78,14.1075762 C78,13.8784277 77.6578084,13.0674603 76.9629917,12.6153693 Z" id="Path" fill="#062C60"></path>
                    <path d="M113.962992,12.6153693 C113.268175,12.1632784 111.40138,11.8140321 108.965235,12.1089048 C107.534258,12.2821113 103.290611,13.4339344 103.145306,14.8694655 C103,16.3049965 103,22.188098 103,27.0220939 C103,30.0595658 103,34.4428955 103,34.4428955 C103,34.9386902 103.148595,35.3221559 103.445783,35.5932936 C103.742972,35.8644313 104.188755,36 104.783133,36 C105.37751,36 105.823293,35.8644313 106.120482,35.5932936 C106.417671,35.3221563 106.566265,34.9386902 106.566265,34.4428955 L106.566265,16.7618013 C106.674038,16.5619092 108.092511,15.6708804 109.819777,15.5019981 C111.129296,15.3739607 112.863709,15.9368837 112.915663,15.943565 C113.036145,15.9590591 113.184739,15.9668054 113.361446,15.9668054 C113.763053,15.9668054 114.136547,15.8118691 114.481928,15.5019981 C114.827309,15.192127 115,14.7273197 115,14.1075762 C115,13.8784277 114.657808,13.0674603 113.962992,12.6153693 Z" id="Path" fill="#062C60"></path>
                    <path d="M81.5629454,24.1153846 L95.7672209,24.1153846 C96.5273159,24.1153846 97.08947,23.9230767 97.4536817,23.5384615 C97.8178934,23.1538471 98,22.5846159 98,21.8307692 C98,20.2923086 97.7743468,18.9153851 97.3230404,17.7 C96.871734,16.4846163 96.2422803,15.4538466 95.4346793,14.6076923 C94.6270784,13.761538 93.6690424,13.1153841 92.5605701,12.6692308 C91.4520977,12.2230774 90.2327791,12 88.9026128,12 C87.3507519,12 85.9097387,12.2807697 84.5795724,12.8423077 C83.2494062,13.4038457 82.0973872,14.2230765 81.1235154,15.3 C80.1496437,16.3769235 79.3855897,17.7115385 78.8313539,19.3038462 C78.2771177,20.8961538 78,22.7153841 78,24.7615385 C78,26.4846151 78.2692006,28.0384615 78.807601,29.4230769 C79.3460017,30.8076923 80.1021378,31.9884617 81.0760095,32.9653846 C82.0498812,33.9423079 83.2256532,34.6923079 84.6033254,35.2153846 C85.9809976,35.7384617 87.5091055,36 89.1876485,36 C90.1694388,36 91.0680923,35.9346155 91.8836105,35.8038462 C92.6991286,35.6730768 93.415677,35.5153846 94.0332542,35.3307692 C94.6508314,35.1461538 95.1654795,34.9461537 95.5771971,34.7307692 C95.9889148,34.5153847 96.2897862,34.3153846 96.47981,34.1307692 C96.6698337,33.9461538 96.8083922,33.7653844 96.8954869,33.5884615 C96.9825816,33.4115387 97.0261283,33.2153849 97.0261283,33 C97.0261283,32.8461541 96.998416,32.6961541 96.9429929,32.55 C96.8875683,32.4038459 96.8083922,32.2807691 96.7054632,32.1807692 C96.6025341,32.0807693 96.47981,32.0000001 96.3372922,31.9384615 C96.1947743,31.876923 96.0285036,31.8461538 95.8384798,31.8461538 C95.5692785,31.8461538 95.2763257,31.9115383 94.95962,32.0423077 C94.6429127,32.173077 94.2549481,32.3115386 93.7957245,32.4576923 C93.3364994,32.6038464 92.782264,32.7423079 92.1330166,32.8730769 C91.4837693,33.0038459 90.6840855,33.0692308 89.7339667,33.0692308 C88.5304839,33.0692308 87.4259702,32.8730769 86.4204276,32.4807692 C85.4148857,32.0884615 84.5518609,31.5153847 83.8313539,30.7615385 C83.1108469,30.0076922 82.5526522,29.0923075 82.1567696,28.0153846 C81.760887,26.9384618 81.5629454,25.7153849 81.5629454,24.3461538 L81.5629454,24.1153846 Z M94.6508314,21.5076923 L81.7767221,21.5076923 C81.9825809,20.3692298 82.2992874,19.3807688 82.7268409,18.5423077 C83.1543943,17.7038466 83.6611245,17.0076923 84.2470309,16.4538462 C84.8329372,15.9 85.4821853,15.4846154 86.1947743,15.2076923 C86.9073634,14.9307692 87.6516234,14.7923077 88.4275534,14.7923077 C90.2486149,14.7923077 91.6856695,15.338462 92.7387173,16.4307692 C93.7917666,17.5230779 94.4291375,19.2153851 94.6508314,21.5076923 Z" id="Path" fill="#062C60"></path>
                </g>
            </g>
        </g>
    </g>
</svg>